<svg width="334" height="224" viewBox="0 0 334 224" fill="none" xmlns="http://www.w3.org/2000/svg">
<path opacity="0.2" d="M6.74438 156.578V210.148C6.74438 217.798 20.0001 224 36.355 224C52.71 224 65.9657 217.798 65.9657 210.148V156.578H6.74438Z" fill="url(#paint0_linear_2789_22050)"/>
<path d="M36.3579 191.576C56.2402 191.576 72.3579 185.561 72.3579 178.14C72.3579 170.72 56.2402 164.704 36.3579 164.704C16.4757 164.704 0.35791 170.72 0.35791 178.14C0.35791 185.561 16.4757 191.576 36.3579 191.576Z" fill="white"/>
<path d="M36.3579 187.78C56.2402 187.78 72.3579 181.765 72.3579 174.344C72.3579 166.924 56.2402 160.908 36.3579 160.908C16.4757 160.908 0.35791 166.924 0.35791 174.344C0.35791 181.765 16.4757 187.78 36.3579 187.78Z" fill="#D7D7D7"/>
<path d="M6.80518 64.2676V172.65C6.80518 178.74 20.035 183.678 36.358 183.678C52.681 183.678 65.9108 178.74 65.9108 172.65V64.2676H6.80984H6.80518Z" fill="#1F2846"/>
<path d="M65.3502 64.2677C65.3502 65.5949 64.6311 66.92 63.197 68.1851C61.7637 69.4496 59.661 70.6112 57.0196 71.5968C51.7407 73.5666 44.4144 74.7951 36.2974 74.7951C28.1805 74.7951 20.8542 73.5666 15.5752 71.5968C12.9339 70.6112 10.8312 69.4496 9.39782 68.1851C7.96373 66.92 7.24463 65.5949 7.24463 64.2677C7.24463 62.9404 7.96373 61.6154 9.39782 60.3502C10.8312 59.0857 12.9339 57.9242 15.5752 56.9385C20.8542 54.9687 28.1805 53.7402 36.2974 53.7402C44.4144 53.7402 51.7407 54.9687 57.0196 56.9385C59.661 57.9242 61.7637 59.0857 63.197 60.3502C64.6311 61.6154 65.3502 62.9404 65.3502 64.2677Z" fill="#1F2846" stroke="white"/>
<path opacity="0.4" d="M36.3579 74C51.8219 74 64.3579 69.5228 64.3579 64C64.3579 58.4772 51.8219 54 36.3579 54C20.8939 54 8.35791 58.4772 8.35791 64C8.35791 69.5228 20.8939 74 36.3579 74Z" fill="#1F2846"/>
<path opacity="0.2" d="M93.7393 156V210.029C93.7393 217.745 106.995 224 123.35 224C139.705 224 152.961 217.745 152.961 210.029V156H93.7393Z" fill="url(#paint1_linear_2789_22050)"/>
<path d="M123.358 191.092C143.24 191.092 159.358 184.75 159.358 176.926C159.358 169.103 143.24 162.761 123.358 162.761C103.476 162.761 87.3579 169.103 87.3579 176.926C87.3579 184.75 103.476 191.092 123.358 191.092Z" fill="white"/>
<path d="M123.358 187.089C143.24 187.089 159.358 180.747 159.358 172.924C159.358 165.1 143.24 158.758 123.358 158.758C103.476 158.758 87.3579 165.1 87.3579 172.924C87.3579 180.747 103.476 187.089 123.358 187.089Z" fill="#D7D7D7"/>
<path d="M93.8052 126.184V171.144C93.8052 177.565 107.035 182.771 123.358 182.771C139.681 182.771 152.911 177.565 152.911 171.144V126.184H93.8052Z" fill="#24B0B3"/>
<path d="M152.411 126.184C152.411 127.604 151.681 129.01 150.248 130.343C148.814 131.677 146.712 132.901 144.072 133.94C138.796 136.016 131.472 137.31 123.358 137.31C115.244 137.31 107.92 136.016 102.644 133.94C100.004 132.901 97.9021 131.677 96.4681 130.343C95.0348 129.01 94.3052 127.604 94.3052 126.184C94.3052 124.764 95.0348 123.358 96.4681 122.025C97.9021 120.691 100.004 119.467 102.644 118.428C107.92 116.352 115.244 115.058 123.358 115.058C131.472 115.058 138.796 116.352 144.072 118.428C146.712 119.467 148.814 120.691 150.248 122.025C151.681 123.358 152.411 124.764 152.411 126.184Z" fill="#24B0B3" stroke="white"/>
<path opacity="0.4" d="M123.358 136.558C138.822 136.558 151.358 131.857 151.358 126.058C151.358 120.259 138.822 115.558 123.358 115.558C107.894 115.558 95.3579 120.259 95.3579 126.058C95.3579 131.857 107.894 136.558 123.358 136.558Z" fill="#24B0B3"/>
<path opacity="0.2" d="M180.733 167.177V206.804C180.733 216.301 193.989 224 210.344 224C226.699 224 239.954 216.301 239.954 206.804V167.177H180.738H180.733Z" fill="url(#paint2_linear_2789_22050)"/>
<path d="M210.358 193.052C230.24 193.052 246.358 186.772 246.358 179.026C246.358 171.28 230.24 165 210.358 165C190.476 165 174.358 171.28 174.358 179.026C174.358 186.772 190.476 193.052 210.358 193.052Z" fill="white"/>
<path d="M210.358 189.089C230.24 189.089 246.358 182.809 246.358 175.063C246.358 167.317 230.24 161.037 210.358 161.037C190.476 161.037 174.358 167.317 174.358 175.063C174.358 182.809 190.476 189.089 210.358 189.089Z" fill="#D7D7D7"/>
<path d="M180.805 146.768V173.296C180.805 179.654 194.035 184.808 210.358 184.808C226.681 184.808 239.91 179.654 239.91 173.296V146.768H180.81H180.805Z" fill="#6449AC"/>
<path d="M239.281 146.768C239.281 148.17 238.553 149.561 237.12 150.881C235.686 152.201 233.584 153.413 230.944 154.442C225.667 156.497 218.343 157.779 210.228 157.779C202.113 157.779 194.79 156.497 189.513 154.442C186.873 153.413 184.77 152.201 183.337 150.881C181.903 149.561 181.176 148.17 181.176 146.768C181.176 145.365 181.903 143.975 183.337 142.654C184.77 141.334 186.873 140.122 189.513 139.093C194.79 137.038 202.113 135.756 210.228 135.756C218.343 135.756 225.667 137.038 230.944 139.093C233.584 140.122 235.686 141.334 237.12 142.654C238.553 143.975 239.281 145.365 239.281 146.768Z" fill="#6449AC" stroke="white"/>
<path opacity="0.4" d="M210.358 156.256C225.27 156.256 237.358 151.779 237.358 146.256C237.358 140.733 225.27 136.256 210.358 136.256C195.446 136.256 183.358 140.733 183.358 146.256C183.358 151.779 195.446 156.256 210.358 156.256Z" fill="#6449AC"/>
<path opacity="0.2" d="M267.728 160.35V210.923C267.728 218.145 280.983 224 297.338 224C313.693 224 326.949 218.145 326.949 210.923V160.35H267.728Z" fill="url(#paint3_linear_2789_22050)"/>
<path d="M297.358 193.197C317.24 193.197 333.358 187.261 333.358 179.937C333.358 172.614 317.24 166.678 297.358 166.678C277.476 166.678 261.358 172.614 261.358 179.937C261.358 187.261 277.476 193.197 297.358 193.197Z" fill="white"/>
<path d="M297.358 189.45C317.24 189.45 333.358 183.513 333.358 176.19C333.358 168.867 317.24 162.931 297.358 162.931C277.476 162.931 261.358 168.867 261.358 176.19C261.358 183.513 277.476 189.45 297.358 189.45Z" fill="#D7D7D7"/>
<path d="M267.805 132.441V174.526C267.805 180.537 281.035 185.409 297.358 185.409C313.681 185.409 326.91 180.537 326.91 174.526V132.441H267.805Z" fill="#009AD6"/>
<path d="M326.355 132.441C326.355 133.746 325.638 135.051 324.204 136.3C322.771 137.548 320.668 138.695 318.026 139.667C312.746 141.612 305.419 142.824 297.302 142.824C289.184 142.824 281.857 141.612 276.578 139.667C273.936 138.695 271.833 137.548 270.4 136.3C268.966 135.051 268.249 133.746 268.249 132.441C268.249 131.137 268.966 129.831 270.4 128.582C271.833 127.335 273.936 126.188 276.578 125.215C281.857 123.271 289.184 122.059 297.302 122.059C305.419 122.059 312.746 123.271 318.026 125.215C320.668 126.188 322.771 127.335 324.204 128.582C325.638 129.831 326.355 131.137 326.355 132.441Z" fill="#009AD6" stroke="white"/>
<path opacity="0.4" d="M297.642 142.001C313.106 142.001 325.642 137.748 325.642 132.501C325.642 127.254 313.106 123.001 297.642 123.001C282.178 123.001 269.642 127.254 269.642 132.501C269.642 137.748 282.178 142.001 297.642 142.001Z" fill="#009AD6"/>
<path d="M23.8402 40.18C23.9868 41.0467 24.3202 41.7133 24.8402 42.18C25.3602 42.6467 26.0735 42.88 26.9802 42.88C28.2335 42.88 29.1602 42.3933 29.7602 41.42C30.3735 40.4333 30.6535 38.8067 30.6002 36.54C30.3468 37.2733 29.8602 37.8533 29.1402 38.28C28.4335 38.6933 27.6202 38.9 26.7002 38.9C25.3002 38.9 24.1735 38.48 23.3202 37.64C22.4802 36.8 22.0602 35.6333 22.0602 34.14C22.0602 33.2467 22.2335 32.44 22.5802 31.72C22.9268 31 23.4535 30.4333 24.1602 30.02C24.8668 29.6067 25.7335 29.4 26.7602 29.4C28.6535 29.4 29.9735 30.02 30.7202 31.26C31.4668 32.4867 31.8402 34.2533 31.8402 36.56C31.8402 39.0533 31.4668 40.9267 30.7202 42.18C29.9868 43.4333 28.7202 44.06 26.9202 44.06C25.6002 44.06 24.5735 43.7067 23.8402 43C23.1068 42.28 22.6735 41.34 22.5402 40.18H23.8402ZM26.9202 37.7C27.5468 37.7 28.1202 37.5733 28.6402 37.32C29.1735 37.0533 29.6002 36.6667 29.9202 36.16C30.2402 35.6533 30.4002 35.0467 30.4002 34.34C30.4002 33.2467 30.0868 32.3467 29.4602 31.64C28.8468 30.9333 27.9602 30.58 26.8002 30.58C25.7735 30.58 24.9468 30.9 24.3202 31.54C23.7068 32.18 23.4002 33.0333 23.4002 34.1C23.4002 35.22 23.7068 36.1 24.3202 36.74C24.9335 37.38 25.8002 37.7 26.9202 37.7ZM43.5202 30.86H36.2002V35.98C36.5335 35.5133 37.0202 35.1333 37.6602 34.84C38.3002 34.5333 38.9935 34.38 39.7402 34.38C40.8335 34.38 41.7268 34.6067 42.4202 35.06C43.1135 35.5 43.6135 36.08 43.9202 36.8C44.2268 37.5067 44.3802 38.2667 44.3802 39.08C44.3802 40.0133 44.2002 40.86 43.8402 41.62C43.4935 42.3667 42.9535 42.96 42.2202 43.4C41.5002 43.84 40.6002 44.06 39.5202 44.06C38.1468 44.06 37.0335 43.7067 36.1802 43C35.3268 42.28 34.8068 41.3133 34.6202 40.1H36.0002C36.1735 40.98 36.5735 41.66 37.2002 42.14C37.8268 42.62 38.6002 42.86 39.5202 42.86C40.6802 42.86 41.5535 42.52 42.1402 41.84C42.7402 41.1467 43.0402 40.2333 43.0402 39.1C43.0402 37.9933 42.7402 37.1333 42.1402 36.52C41.5402 35.8933 40.6802 35.58 39.5602 35.58C38.7868 35.58 38.1068 35.76 37.5202 36.12C36.9335 36.48 36.5002 36.9667 36.2202 37.58H34.9002V29.64H43.5202V30.86ZM46.3839 32.66C46.3839 31.8067 46.6439 31.12 47.1639 30.6C47.6973 30.0667 48.3706 29.8 49.1839 29.8C50.0106 29.8 50.6839 30.0667 51.2039 30.6C51.7373 31.12 52.0039 31.8067 52.0039 32.66C52.0039 33.5267 51.7373 34.2267 51.2039 34.76C50.6839 35.28 50.0106 35.54 49.1839 35.54C48.3706 35.54 47.6973 35.28 47.1639 34.76C46.6439 34.2267 46.3839 33.5267 46.3839 32.66ZM57.5839 30L49.3839 44H47.9639L56.1839 30H57.5839ZM49.1839 30.7C48.6773 30.7 48.2706 30.8733 47.9639 31.22C47.6706 31.5533 47.5239 32.0333 47.5239 32.66C47.5239 33.2867 47.6706 33.7733 47.9639 34.12C48.2706 34.4667 48.6773 34.64 49.1839 34.64C49.6906 34.64 50.0973 34.4667 50.4039 34.12C50.7106 33.7733 50.8639 33.2867 50.8639 32.66C50.8639 32.0467 50.7106 31.5667 50.4039 31.22C50.0973 30.8733 49.6906 30.7 49.1839 30.7ZM53.5839 41.34C53.5839 40.4733 53.8439 39.78 54.3639 39.26C54.8973 38.7267 55.5706 38.46 56.3839 38.46C57.1973 38.46 57.8639 38.7267 58.3839 39.26C58.9173 39.78 59.1839 40.4733 59.1839 41.34C59.1839 42.2067 58.9173 42.9067 58.3839 43.44C57.8639 43.96 57.1973 44.22 56.3839 44.22C55.5706 44.22 54.8973 43.96 54.3639 43.44C53.8439 42.9067 53.5839 42.2067 53.5839 41.34ZM56.3839 39.38C55.8773 39.38 55.4706 39.5533 55.1639 39.9C54.8573 40.2467 54.7039 40.7267 54.7039 41.34C54.7039 41.9533 54.8573 42.4333 55.1639 42.78C55.4706 43.1267 55.8773 43.3 56.3839 43.3C56.8906 43.3 57.2906 43.1333 57.5839 42.8C57.8906 42.4533 58.0439 41.9667 58.0439 41.34C58.0439 40.7133 57.8906 40.2333 57.5839 39.9C57.2906 39.5533 56.8906 39.38 56.3839 39.38Z" fill="#1F2846"/>
<path d="M107.737 100.458C110.191 98.6176 112.084 96.971 113.417 95.5176C114.764 94.051 115.437 92.6176 115.437 91.2176C115.437 90.2976 115.204 89.5643 114.737 89.0176C114.284 88.4576 113.537 88.1776 112.497 88.1776C111.484 88.1776 110.697 88.4976 110.137 89.1376C109.591 89.7643 109.284 90.6043 109.217 91.6576H107.857C107.937 90.1776 108.391 89.031 109.217 88.2176C110.057 87.3909 111.151 86.9776 112.497 86.9776C113.791 86.9776 114.837 87.3443 115.637 88.0776C116.437 88.7976 116.837 89.8243 116.837 91.1576C116.837 92.7709 116.164 94.3376 114.817 95.8576C113.484 97.3643 111.837 98.8376 109.877 100.278H117.277V101.458H107.737V100.458ZM119.463 94.2576C119.463 91.9643 119.816 90.1843 120.523 88.9176C121.229 87.6509 122.496 87.0176 124.323 87.0176C126.149 87.0176 127.416 87.6509 128.123 88.9176C128.829 90.1843 129.183 91.9643 129.183 94.2576C129.183 96.591 128.829 98.3976 128.123 99.6776C127.416 100.958 126.149 101.598 124.323 101.598C122.483 101.598 121.209 100.958 120.503 99.6776C119.809 98.3976 119.463 96.591 119.463 94.2576ZM127.803 94.2576C127.803 93.0176 127.716 91.9709 127.543 91.1176C127.369 90.2643 127.029 89.5776 126.523 89.0576C126.016 88.5376 125.283 88.2776 124.323 88.2776C123.363 88.2776 122.629 88.5376 122.123 89.0576C121.616 89.5776 121.276 90.2643 121.103 91.1176C120.929 91.9709 120.843 93.0176 120.843 94.2576C120.843 95.5376 120.929 96.611 121.103 97.4776C121.276 98.331 121.616 99.0176 122.123 99.5376C122.629 100.058 123.363 100.318 124.323 100.318C125.283 100.318 126.016 100.058 126.523 99.5376C127.029 99.0176 127.369 98.331 127.543 97.4776C127.716 96.611 127.803 95.5376 127.803 94.2576ZM131.347 90.2176C131.347 89.3643 131.607 88.6776 132.127 88.1576C132.66 87.6243 133.333 87.3576 134.147 87.3576C134.973 87.3576 135.647 87.6243 136.167 88.1576C136.7 88.6776 136.967 89.3643 136.967 90.2176C136.967 91.0843 136.7 91.7843 136.167 92.3176C135.647 92.8376 134.973 93.0976 134.147 93.0976C133.333 93.0976 132.66 92.8376 132.127 92.3176C131.607 91.7843 131.347 91.0843 131.347 90.2176ZM142.547 87.5576L134.347 101.558H132.927L141.147 87.5576H142.547ZM134.147 88.2576C133.64 88.2576 133.233 88.4309 132.927 88.7776C132.633 89.1109 132.487 89.591 132.487 90.2176C132.487 90.8443 132.633 91.3309 132.927 91.6776C133.233 92.0243 133.64 92.1976 134.147 92.1976C134.653 92.1976 135.06 92.0243 135.367 91.6776C135.673 91.3309 135.827 90.8443 135.827 90.2176C135.827 89.6043 135.673 89.1243 135.367 88.7776C135.06 88.4309 134.653 88.2576 134.147 88.2576ZM138.547 98.8976C138.547 98.031 138.807 97.3376 139.327 96.8176C139.86 96.2843 140.533 96.0176 141.347 96.0176C142.16 96.0176 142.827 96.2843 143.347 96.8176C143.88 97.3376 144.147 98.031 144.147 98.8976C144.147 99.7643 143.88 100.464 143.347 100.998C142.827 101.518 142.16 101.778 141.347 101.778C140.533 101.778 139.86 101.518 139.327 100.998C138.807 100.464 138.547 99.7643 138.547 98.8976ZM141.347 96.9376C140.84 96.9376 140.433 97.111 140.127 97.4576C139.82 97.8043 139.667 98.2843 139.667 98.8976C139.667 99.511 139.82 99.991 140.127 100.338C140.433 100.684 140.84 100.858 141.347 100.858C141.853 100.858 142.253 100.691 142.547 100.358C142.853 100.011 143.007 99.5243 143.007 98.8976C143.007 98.271 142.853 97.791 142.547 97.4576C142.253 97.111 141.853 96.9376 141.347 96.9376Z" fill="#1F2846"/>
<path d="M207.473 110.116H200.153V115.236C200.487 114.769 200.973 114.389 201.613 114.096C202.253 113.789 202.947 113.636 203.693 113.636C204.787 113.636 205.68 113.863 206.373 114.316C207.067 114.756 207.567 115.336 207.873 116.056C208.18 116.763 208.333 117.523 208.333 118.336C208.333 119.269 208.153 120.116 207.793 120.876C207.447 121.623 206.907 122.216 206.173 122.656C205.453 123.096 204.553 123.316 203.473 123.316C202.1 123.316 200.987 122.963 200.133 122.256C199.28 121.536 198.76 120.569 198.573 119.356H199.953C200.127 120.236 200.527 120.916 201.153 121.396C201.78 121.876 202.553 122.116 203.473 122.116C204.633 122.116 205.507 121.776 206.093 121.096C206.693 120.403 206.993 119.489 206.993 118.356C206.993 117.249 206.693 116.389 206.093 115.776C205.493 115.149 204.633 114.836 203.513 114.836C202.74 114.836 202.06 115.016 201.473 115.376C200.887 115.736 200.453 116.223 200.173 116.836H198.853V108.896H207.473V110.116ZM221.137 116.456H216.677V120.956H215.377V116.456H210.937V115.256H215.377V110.756H216.677V115.256H221.137V116.456Z" fill="#1F2846"/>
<path d="M284.225 112.901C286.678 111.061 288.571 109.414 289.905 107.961C291.251 106.494 291.925 105.061 291.925 103.661C291.925 102.741 291.691 102.008 291.225 101.461C290.771 100.901 290.025 100.621 288.985 100.621C287.971 100.621 287.185 100.941 286.625 101.581C286.078 102.208 285.771 103.048 285.705 104.101H284.345C284.425 102.621 284.878 101.474 285.705 100.661C286.545 99.8343 287.638 99.421 288.985 99.421C290.278 99.421 291.325 99.7876 292.125 100.521C292.925 101.241 293.325 102.268 293.325 103.601C293.325 105.214 292.651 106.781 291.305 108.301C289.971 109.808 288.325 111.281 286.365 112.721H293.765V113.901H284.225V112.901ZM295.95 106.701C295.95 104.408 296.303 102.628 297.01 101.361C297.717 100.094 298.983 99.461 300.81 99.461C302.637 99.461 303.903 100.094 304.61 101.361C305.317 102.628 305.67 104.408 305.67 106.701C305.67 109.034 305.317 110.841 304.61 112.121C303.903 113.401 302.637 114.041 300.81 114.041C298.97 114.041 297.697 113.401 296.99 112.121C296.297 110.841 295.95 109.034 295.95 106.701ZM304.29 106.701C304.29 105.461 304.203 104.414 304.03 103.561C303.857 102.708 303.517 102.021 303.01 101.501C302.503 100.981 301.77 100.721 300.81 100.721C299.85 100.721 299.117 100.981 298.61 101.501C298.103 102.021 297.763 102.708 297.59 103.561C297.417 104.414 297.33 105.461 297.33 106.701C297.33 107.981 297.417 109.054 297.59 109.921C297.763 110.774 298.103 111.461 298.61 111.981C299.117 112.501 299.85 112.761 300.81 112.761C301.77 112.761 302.503 112.501 303.01 111.981C303.517 111.461 303.857 110.774 304.03 109.921C304.203 109.054 304.29 107.981 304.29 106.701ZM318.634 107.201H314.174V111.701H312.874V107.201H308.434V106.001H312.874V101.501H314.174V106.001H318.634V107.201Z" fill="#1F2846"/>
<defs>
<linearGradient id="paint0_linear_2789_22050" x1="36.355" y1="225.683" x2="36.355" y2="173.336" gradientUnits="userSpaceOnUse">
<stop stop-color="#1F2846" stop-opacity="0"/>
<stop offset="1" stop-color="#1F2846"/>
</linearGradient>
<linearGradient id="paint1_linear_2789_22050" x1="123.35" y1="225.697" x2="123.35" y2="172.901" gradientUnits="userSpaceOnUse">
<stop stop-color="#24B0B3" stop-opacity="0"/>
<stop offset="1" stop-color="#24B0B3"/>
</linearGradient>
<linearGradient id="paint2_linear_2789_22050" x1="210.344" y1="225.33" x2="210.344" y2="193.467" gradientUnits="userSpaceOnUse">
<stop stop-color="#6306FC" stop-opacity="0"/>
<stop offset="1" stop-color="#6449AC"/>
</linearGradient>
<linearGradient id="paint3_linear_2789_22050" x1="297.338" y1="225.589" x2="297.338" y2="176.17" gradientUnits="userSpaceOnUse">
<stop stop-color="#009AD6" stop-opacity="0"/>
<stop offset="1" stop-color="#009AD6"/>
</linearGradient>
</defs>
</svg>
