<svg width="774" height="323" viewBox="0 0 774 323" fill="none" xmlns="http://www.w3.org/2000/svg">
<path opacity="0.2" d="M13.6475 194.748V295.684C13.6475 310.1 41.9741 321.786 76.9237 321.786C111.873 321.786 140.2 310.1 140.2 295.684V194.748H13.6475Z" fill="url(#paint0_linear_2707_27939)"/>
<path d="M76.9299 260.691C119.417 260.691 153.86 249.357 153.86 235.375C153.86 221.393 119.417 210.059 76.9299 210.059C34.4427 210.059 0 221.393 0 235.375C0 249.357 34.4427 260.691 76.9299 260.691Z" fill="white"/>
<path d="M76.9299 253.538C119.417 253.538 153.86 242.204 153.86 228.222C153.86 214.24 119.417 202.906 76.9299 202.906C34.4427 202.906 0 214.24 0 228.222C0 242.204 34.4427 253.538 76.9299 253.538Z" fill="#D7D7D7"/>
<path d="M13.7773 20.814V225.031C13.7773 236.506 42.0487 245.809 76.9299 245.809C111.811 245.809 140.082 236.506 140.082 225.031V20.814H13.7873H13.7773Z" fill="#1F2846"/>
<path d="M139.453 20.8148C139.453 23.4619 137.823 26.0658 134.683 28.5079C131.55 30.9451 126.985 33.1616 121.3 35.0322C109.934 38.7716 94.2014 41.0929 76.8005 41.0929C59.3997 41.0929 43.6667 38.7716 32.3012 35.0322C26.6157 33.1616 22.0509 30.9451 18.9178 28.5079C15.7783 26.0658 14.1479 23.4619 14.1479 20.8148C14.1479 18.1676 15.7783 15.5638 18.9178 13.1216C22.0509 10.6845 26.6157 8.46796 32.3012 6.59736C43.6667 2.85792 59.3997 0.536621 76.8005 0.536621C94.2014 0.536621 109.934 2.85792 121.3 6.59736C126.985 8.46796 131.55 10.6845 134.683 13.1216C137.823 15.5638 139.453 18.1676 139.453 20.8148Z" fill="#1F2846" stroke="white"/>
<path opacity="0.4" d="M76.93 39.2616C109.851 39.2616 136.539 30.4808 136.539 19.6491C136.539 8.81744 109.851 0.0366211 76.93 0.0366211C44.009 0.0366211 17.3213 8.81744 17.3213 19.6491C17.3213 30.4808 44.009 39.2616 76.93 39.2616Z" fill="#1F2846"/>
<path opacity="0.2" d="M241.637 194.488V296.426C241.637 310.984 269.963 322.786 304.913 322.786C339.862 322.786 368.189 310.984 368.189 296.426V194.488H241.637Z" fill="url(#paint1_linear_2707_27939)"/>
<path d="M304.93 260.697C347.417 260.697 381.86 248.731 381.86 233.97C381.86 219.21 347.417 207.244 304.93 207.244C262.443 207.244 228 219.21 228 233.97C228 248.731 262.443 260.697 304.93 260.697Z" fill="white"/>
<path d="M304.93 253.146C347.417 253.146 381.86 241.18 381.86 226.419C381.86 211.658 347.417 199.692 304.93 199.692C262.443 199.692 228 211.658 228 226.419C228 241.18 262.443 253.146 304.93 253.146Z" fill="#D7D7D7"/>
<path d="M241.777 138.235V223.063C241.777 235.178 270.049 244.999 304.93 244.999C339.811 244.999 368.082 235.178 368.082 223.063V138.235H241.777Z" fill="#24B0B3"/>
<path d="M367.582 138.235C367.582 141.053 365.939 143.811 362.802 146.387C359.669 148.96 355.105 151.299 349.421 153.273C338.059 157.22 322.328 159.67 304.93 159.67C287.531 159.67 271.801 157.22 260.438 153.273C254.755 151.299 250.191 148.96 247.058 146.387C243.921 143.811 242.277 141.053 242.277 138.235C242.277 135.416 243.921 132.659 247.058 130.083C250.191 127.51 254.755 125.17 260.438 123.196C271.801 119.249 287.531 116.799 304.93 116.799C322.328 116.799 338.059 119.249 349.421 123.196C355.105 125.17 359.669 127.51 362.802 130.083C365.939 132.659 367.582 135.416 367.582 138.235Z" fill="#24B0B3" stroke="white"/>
<path opacity="0.4" d="M304.93 157.781C337.906 157.781 364.638 148.495 364.638 137.04C364.638 125.585 337.906 116.299 304.93 116.299C271.954 116.299 245.222 125.585 245.222 137.04C245.222 148.495 271.954 157.781 304.93 157.781Z" fill="#24B0B3"/>
<path opacity="0.2" d="M435.625 209.78V287.193C435.625 305.745 463.951 320.785 498.901 320.785C533.85 320.785 562.177 305.745 562.177 287.193V209.78H435.634H435.625Z" fill="url(#paint2_linear_2707_27939)"/>
<path d="M498.93 260.329C541.417 260.329 575.86 248.062 575.86 232.929C575.86 217.797 541.417 205.529 498.93 205.529C456.443 205.529 422 217.797 422 232.929C422 248.062 456.443 260.329 498.93 260.329Z" fill="white"/>
<path d="M498.93 252.588C541.417 252.588 575.86 240.321 575.86 225.188C575.86 210.055 541.417 197.788 498.93 197.788C456.443 197.788 422 210.055 422 225.188C422 240.321 456.443 252.588 498.93 252.588Z" fill="#D7D7D7"/>
<path d="M435.778 169.911V221.734C435.778 234.154 464.049 244.222 498.93 244.222C533.812 244.222 562.083 234.154 562.083 221.734V169.911H435.788H435.778Z" fill="#6449AC"/>
<path d="M561.307 169.911C561.307 172.811 559.657 175.642 556.522 178.282C553.389 180.919 548.825 183.318 543.142 185.341C531.78 189.387 516.051 191.899 498.654 191.899C481.257 191.899 465.528 189.387 454.166 185.341C448.483 183.318 443.92 180.919 440.786 178.282C437.651 175.642 436.001 172.811 436.001 169.911C436.001 167.011 437.651 164.18 440.786 161.54C443.92 158.902 448.483 156.504 454.166 154.48C465.528 150.434 481.257 147.922 498.654 147.922C516.051 147.922 531.78 150.434 543.142 154.48C548.825 156.504 553.389 158.902 556.522 161.54C559.657 164.18 561.307 167.011 561.307 169.911Z" fill="#6449AC" stroke="white"/>
<path opacity="0.4" d="M498.93 189.263C531.368 189.263 557.663 179.897 557.663 168.343C557.663 156.789 531.368 147.422 498.93 147.422C466.493 147.422 440.198 156.789 440.198 168.343C440.198 179.897 466.493 189.263 498.93 189.263Z" fill="#6449AC"/>
<path opacity="0.2" d="M633.613 194.488V296.426C633.613 310.984 661.939 322.786 696.889 322.786C731.839 322.786 760.165 310.984 760.165 296.426V194.488H633.613Z" fill="url(#paint3_linear_2707_27939)"/>
<path d="M696.93 260.697C739.417 260.697 773.86 248.731 773.86 233.97C773.86 219.21 739.417 207.244 696.93 207.244C654.443 207.244 620 219.21 620 233.97C620 248.731 654.443 260.697 696.93 260.697Z" fill="white"/>
<path d="M696.93 253.146C739.417 253.146 773.86 241.18 773.86 226.419C773.86 211.658 739.417 199.692 696.93 199.692C654.443 199.692 620 211.658 620 226.419C620 241.18 654.443 253.146 696.93 253.146Z" fill="#D7D7D7"/>
<path d="M633.778 138.235V223.063C633.778 235.178 662.049 244.999 696.93 244.999C731.812 244.999 760.083 235.178 760.083 223.063V138.235H633.778Z" fill="#009AD6"/>
<path d="M759.464 138.235C759.464 141.053 757.821 143.811 754.684 146.387C751.551 148.96 746.987 151.299 741.303 153.273C729.94 157.22 714.21 159.67 696.812 159.67C679.413 159.67 663.683 157.22 652.32 153.273C646.636 151.299 642.072 148.96 638.939 146.387C635.803 143.811 634.159 141.053 634.159 138.235C634.159 135.416 635.803 132.659 638.939 130.083C642.072 127.51 646.636 125.17 652.32 123.196C663.683 119.249 679.413 116.799 696.812 116.799C714.21 116.799 729.94 119.249 741.303 123.196C746.987 125.17 751.551 127.51 754.684 130.083C757.821 132.659 759.464 135.416 759.464 138.235Z" fill="#009AD6" stroke="white"/>
<path opacity="0.4" d="M696.93 157.781C729.906 157.781 756.638 148.495 756.638 137.04C756.638 125.585 729.906 116.299 696.93 116.299C663.954 116.299 637.222 125.585 637.222 137.04C637.222 148.495 663.954 157.781 696.93 157.781Z" fill="#009AD6"/>
<defs>
<linearGradient id="paint0_linear_2707_27939" x1="76.9237" y1="324.956" x2="76.9237" y2="226.322" gradientUnits="userSpaceOnUse">
<stop stop-color="#1F2846" stop-opacity="0"/>
<stop offset="1" stop-color="#1F2846"/>
</linearGradient>
<linearGradient id="paint1_linear_2707_27939" x1="304.913" y1="325.988" x2="304.913" y2="226.376" gradientUnits="userSpaceOnUse">
<stop stop-color="#24B0B3" stop-opacity="0"/>
<stop offset="1" stop-color="#24B0B3"/>
</linearGradient>
<linearGradient id="paint2_linear_2707_27939" x1="498.901" y1="323.383" x2="498.901" y2="261.139" gradientUnits="userSpaceOnUse">
<stop stop-color="#6306FC" stop-opacity="0"/>
<stop offset="1" stop-color="#6449AC"/>
</linearGradient>
<linearGradient id="paint3_linear_2707_27939" x1="696.889" y1="325.988" x2="696.889" y2="226.376" gradientUnits="userSpaceOnUse">
<stop stop-color="#009AD6" stop-opacity="0"/>
<stop offset="1" stop-color="#009AD6"/>
</linearGradient>
</defs>
</svg>
