<svg width="193" height="272" viewBox="0 0 193 272" fill="none" xmlns="http://www.w3.org/2000/svg">
<g style="mix-blend-mode:hard-light">
<path d="M135.57 124.469L34.4463 182.896V68.4095L135.57 9.97339V124.469Z" fill="#5D52AD"/>
</g>
<path d="M135.57 10.4783L34.4463 68.9046V59.1916L135.57 0.755493V10.4783Z" fill="#5D52AD"/>
<g style="mix-blend-mode:screen">
<path d="M182.759 126.915L81.6348 185.351V70.8551L182.759 12.4288V126.915Z" fill="#5D52AD"/>
</g>
<path d="M182.759 12.9239L81.6348 71.36V61.6371L182.759 3.21094V12.9239Z" fill="#5D52AD"/>
<path opacity="0.5" d="M167.543 19.4982L162.112 22.6368V17.2011L167.543 14.0724V19.4982Z" fill="#2A3FA3"/>
<path opacity="0.5" d="M174.271 15.6168L168.84 18.7555V13.3198L174.271 10.1812V15.6168Z" fill="#2A3FA3"/>
<path d="M169.7 13.6764V17.3893L173.41 15.2407V11.5278L169.7 13.6665V13.6764ZM172.777 14.9833L170.343 16.3892V13.9536L172.777 12.5476V14.9833Z" fill="#CECECA"/>
<path opacity="0.5" d="M180.998 11.7259L175.566 14.8645V9.4288L180.998 6.29016V11.7259Z" fill="#2A3FA3"/>
<path d="M176.457 10.2606L177.911 10.8745L176.457 13.1616L176.932 13.3596L178.376 11.0626L179.83 11.6764L180.295 10.9438L178.841 10.3299L180.295 8.04274L179.83 7.84473L178.376 10.1319L176.932 9.51799L176.457 10.2606Z" fill="#CECECA"/>
<path d="M166.593 19.1912L163.121 21.2011V20.5377L166.593 18.5278V19.1912Z" fill="#CECECA"/>
<path opacity="0.5" d="M120.137 17.2012L114.706 20.3398V14.9041L120.137 11.7655V17.2012Z" fill="#2A3FA3"/>
<path opacity="0.5" d="M126.865 13.3101L121.434 16.4487V11.013L126.865 7.87439V13.3101Z" fill="#2A3FA3"/>
<path d="M122.294 11.3794V15.0923L126.004 12.9437V9.23083L122.294 11.3695V11.3794ZM125.371 12.6764L122.937 14.0824V11.6467L125.371 10.2407V12.6764Z" fill="#CECECA"/>
<path opacity="0.5" d="M133.601 9.41895L128.17 12.5576V7.1318L133.601 3.99316V9.41895Z" fill="#2A3FA3"/>
<path d="M129.061 7.95358L130.505 8.56744L129.061 10.8546L129.526 11.0526L130.97 8.76546L132.424 9.37932L132.889 8.64665L131.445 8.03277L132.889 5.74563L132.424 5.54761L130.97 7.83475L129.526 7.22089L129.061 7.95358Z" fill="#CECECA"/>
<path d="M119.197 16.8943L115.715 18.9042V18.2409L119.197 16.231V16.8943Z" fill="#CECECA"/>
<path d="M168.097 73.9343L158.462 79.4987V78.2413L168.097 72.6769V73.9343ZM164.595 79.6868L153.911 85.8651V87.1225L164.595 80.9443V79.6868ZM135.966 78.7561L126.815 84.0433V85.3007L135.966 80.0136V78.7561ZM157.779 88.6275L149.439 93.4493V94.7068L157.779 89.8849V88.6275ZM143.415 88.1919L157.176 80.2413V78.9839L143.415 86.9344V88.1919ZM152.615 86.6176L145.492 90.7364V91.9939L152.615 87.875V86.6176ZM137.262 79.271L144.622 75.0135V73.7561L137.262 78.0136V79.271ZM145.918 74.271L162.508 64.6867V63.4293L145.918 73.0135V74.271ZM125.638 98.4692L142.119 88.9443V87.6869L125.638 97.2117V98.4692ZM144.196 91.479L127.923 100.885V102.142L144.196 92.7364V91.479ZM148.144 94.1919L138.993 99.4791V100.737L148.144 95.4493V94.1919ZM145.918 81.7562L162.508 72.1719V70.9145L145.918 80.4987V81.7562ZM168.75 67.3006L163.804 70.162V71.4194L168.75 68.558V67.3006ZM140.358 105.341L132.998 109.598V110.855L140.358 106.598V105.341ZM158.353 62.0827L165.713 57.8253V56.5678L158.353 60.8253V62.0827ZM168.75 59.8154L163.804 62.6768V63.9342L168.75 61.0728V59.8154ZM167.632 94.578L157.176 100.618V101.875L167.632 95.8355V94.578ZM168.701 88.9641L159.54 94.2612V95.5186L168.701 90.2216V88.9641ZM147.224 106.37L133.463 114.321V115.578L147.224 107.628V106.37ZM127.418 124.063L134.778 119.806V118.549L127.418 122.806V124.063ZM155.88 101.36L148.519 105.618V106.875L155.88 102.618V101.36ZM152.665 108.222L136.074 117.806V119.063L152.665 109.479V108.222ZM158.244 95.0038L141.654 104.588V105.845L158.244 96.2612V95.0038ZM144.622 81.2413L137.262 85.4988V86.7562L144.622 82.4987V81.2413ZM131.702 111.598V110.341L122.551 115.628V116.885L131.702 111.598ZM137.697 100.232L116.615 112.41V113.667L137.697 101.489V100.232ZM126.627 101.638L105.812 113.667V114.925L126.627 102.895V101.638ZM116.971 61.6867V62.9441L126.122 57.657V56.3995L116.971 61.6867ZM115.319 114.42V113.162L111.115 115.598V116.855L115.319 114.42ZM125.519 141.569L104.437 153.747V155.004L125.519 142.816V141.559V141.569ZM115.804 68.6174L132.285 59.0926V57.8352L115.804 67.36V68.6174ZM124.342 148.499V147.242L108.068 156.648V157.905L124.342 148.499ZM109.809 116.351L91.0821 127.172V128.43L109.809 117.608V116.351ZM91.2107 161.39V162.648L103.141 155.757V154.499L91.2107 161.39ZM91.1514 167.678L106.772 158.648V157.39L91.1514 166.41V167.668V167.678ZM91.1514 118.39L106.772 109.37V108.113L91.1514 117.143V118.4V118.39ZM132.384 72.0927L141.535 66.8055V65.5481L132.384 70.8353V72.0927ZM98.8677 130.568V129.311L91.1613 133.766V135.024L98.8677 130.568ZM124.342 99.2118V97.9543L108.068 107.36V108.618L124.342 99.2118ZM125.529 81.0532L142.01 71.5284V70.2709L125.529 79.7957V81.0532ZM147.332 57.2015L133.572 65.1521V66.4095L147.332 58.4589V57.2015ZM91.1217 123.41L104.516 115.667V114.41L91.1217 122.153V123.41ZM125.519 84.7958L104.437 96.9741V98.2315L125.519 86.0433V84.7859V84.7958ZM126.815 92.7958L135.966 87.5087V86.2512L126.815 91.5384V92.7958ZM91.2107 113.36L103.141 106.469V105.212L91.2107 112.103V113.36ZM104.427 105.727L125.509 93.5384V92.281L104.427 104.459V105.717V105.727ZM103.141 97.7266L91.2107 104.618V105.875L103.141 98.984V97.7266ZM115.676 129.588L90.9238 143.895V145.153L115.676 130.846V129.588ZM147.224 39.2014L133.463 47.1519V48.4094L147.224 40.4588V39.2014ZM114.399 58.1718L91.0326 71.667V72.9244L114.399 59.4292V58.1718ZM155.88 34.2013L148.519 38.4588V39.7162L155.88 35.4588V34.2013ZM115.676 62.4293L90.9238 76.7363V77.9937L115.676 63.6867V62.4293ZM132.177 47.9044L115.695 57.4292V58.6867L132.177 49.1618V47.9044ZM143.306 70.7759L157.067 62.8253V61.5679L143.306 69.5184V70.7759ZM167.632 27.4092L157.176 33.4488V34.7063L167.632 28.6666V27.4092ZM171.56 53.2015L167.019 55.8253V57.0827L171.56 54.4589V53.2015ZM169.255 31.4686L153.96 40.3103V41.5677L169.255 32.726V31.4686ZM169.255 98.6276L153.96 107.469V108.727L169.255 99.885V98.6276ZM148.628 49.647L163.744 40.9142V39.6568L148.628 48.3896V49.647ZM143.415 137.479L157.176 129.529V128.271L143.415 136.222V137.479ZM158.462 128.776L168.097 123.212V121.955L158.462 127.519V128.776ZM163.804 120.697L168.75 117.836V116.578L163.804 119.44V120.697ZM165.04 46.9638V48.2212L173.875 43.1222V41.8647L165.04 46.9638ZM114.508 135.262L90.9832 148.856V150.113L114.508 136.519V135.262ZM167.009 113.846L173.251 110.242V108.984L167.009 112.588V113.846ZM124.233 137.311L90.9931 156.519V157.777L124.233 138.569V137.311ZM91.1217 172.688L104.516 164.945V163.688L91.1217 171.43V172.688ZM105.812 164.202L126.627 152.173V150.915L105.812 162.945V164.202ZM127.923 151.43L144.196 142.024V140.767L127.923 150.173V151.43ZM145.492 141.271L152.615 137.153V135.895L145.492 140.014V141.271ZM151.487 61.053L168.077 51.4688V50.2113L151.487 59.7956V61.053ZM90.9733 82.9542L114.498 69.36V68.1026L90.9733 81.6968V82.9542ZM110.007 85.0235L131.088 72.8452V71.5878L110.007 83.7661V85.0235ZM108.711 85.776V84.5186L91.0129 94.7464V96.0038L108.711 85.776ZM90.9733 91.0236L114.498 77.4294V76.172L90.9733 89.7661V91.0236ZM115.804 76.6769L132.285 67.1521V65.8946L115.804 75.4195V76.6769ZM127.418 56.9045L134.778 52.647V51.3896L127.418 55.647V56.9045ZM163.744 47.7163L148.628 56.449V57.7065L163.744 48.9737V47.7163ZM142.831 66.0531L150.191 61.7956V60.5382L142.831 64.7956V66.0531ZM124.233 80.5383L90.9931 99.7464V101.004L124.233 81.7958V80.5383ZM152.665 41.0529L136.074 50.6371V51.8945L152.665 42.3103V41.0529ZM133.572 58.3401L147.332 50.3896V49.1321L133.572 57.0827V58.3401ZM132.177 115.063L115.695 124.588V125.846L132.177 116.321V115.063ZM142.119 136.965L125.638 146.489V147.747L142.119 138.222V136.965ZM144.622 130.529L137.262 134.786V136.044L144.622 131.786V130.529ZM135.966 136.786V135.529L126.815 140.816V142.074L135.966 136.786ZM162.508 120.192L145.918 129.776V131.034L162.508 121.45V120.192ZM157.067 118.341L143.306 126.291V127.549L157.067 119.598V118.341ZM132.285 124.994L115.804 134.519V135.776L132.285 126.252V124.994ZM165.713 113.341L158.353 117.598V118.855L165.713 114.598V113.341ZM121.245 116.38L100.164 128.559V129.816L121.245 117.638V116.38ZM142.01 127.034L125.529 136.559V137.816L142.01 128.291V127.034ZM114.399 125.331L91.0326 138.826V140.083L114.399 126.588V125.331ZM126.122 124.816V123.558L116.971 128.846V130.103L126.122 124.816Z" fill="#CECECA"/>
<g opacity="0.8">
<g opacity="0.3">
<path d="M24.4949 235.5L8.17188 244.936V237.975L23.0803 229.362C23.8618 228.906 24.4949 229.173 24.4949 229.966V235.51V235.5Z" fill="#EB9A1E"/>
<path d="M5.88574 238.193V245.52L22.7133 235.797V228.47L5.88574 238.193Z" fill="#FFFDF3"/>
<path d="M11.9208 238.342C11.6537 238.5 11.3074 238.451 11.0898 238.233L9.17058 236.312C8.81444 235.946 8.1912 235.965 7.51849 236.352L1.60262 239.767C0.712274 240.282 0 241.421 0 242.302V257.53C0 258.223 0.553989 258.451 1.24648 258.055L23.2579 245.342C23.9504 244.946 24.5044 244.064 24.5044 243.371V231.054L11.9208 238.322V238.342Z" fill="#F5CB1D"/>
</g>
<g opacity="0.8">
<path d="M66.846 241.173L37.3359 258.223V245.649L64.2838 230.074C65.6985 229.253 66.846 229.738 66.846 231.154V241.164V241.173Z" fill="#EB9A1E"/>
<path d="M33.2012 246.055V259.282L63.6313 241.708V228.47L33.2012 246.055Z" fill="#FFFDF3"/>
<path d="M44.113 246.302C43.6282 246.579 43.005 246.5 42.6093 246.104L39.1468 242.639C38.5038 241.985 37.376 242.015 36.1592 242.718L25.4651 248.896C23.8625 249.827 22.5566 251.876 22.5566 253.48V281.005C22.5566 282.253 23.5657 282.679 24.8122 281.956L64.591 258.976C65.8375 258.253 66.8465 256.659 66.8465 255.421V233.163L44.113 246.302Z" fill="#F5CB1D"/>
</g>
<path d="M137.371 200.747L79.8447 233.995V209.48L132.385 179.123C135.145 177.529 137.381 178.48 137.381 181.232V200.757L137.371 200.747Z" fill="#EB9A1E"/>
<path d="M71.7734 210.262V236.064L131.1 201.787V175.975L71.7734 210.262Z" fill="#FFFDF3"/>
<path d="M93.0419 210.747C92.0922 211.292 90.8952 211.134 90.1136 210.361L83.3668 203.609C82.1104 202.331 79.9142 202.391 77.5498 203.757L56.6959 215.807C53.5698 217.619 51.0273 221.619 51.0273 224.748V278.411C51.0273 280.837 52.996 281.669 55.4197 280.273L132.969 235.46C135.393 234.055 137.361 230.955 137.361 228.52V185.123L93.032 210.737L93.0419 210.747Z" fill="#F5CB1D"/>
</g>
<path d="M192.909 144.351L115.716 188.955V156.054L186.212 115.321C189.911 113.182 192.909 114.449 192.909 118.152V144.341V144.351Z" fill="#EB9A1E"/>
<path d="M104.903 157.113V191.737L184.5 145.747V111.113L104.903 157.113Z" fill="#FFFDF3"/>
<path d="M133.433 157.777C132.157 158.509 130.545 158.301 129.506 157.262L120.454 148.202C118.762 146.489 115.814 146.569 112.649 148.4L84.6621 164.569C80.4676 166.995 77.0645 172.371 77.0645 176.569V248.579C77.0645 251.837 79.7058 252.956 82.9605 251.074L187.013 190.945C190.267 189.064 192.909 184.896 192.909 181.638V123.41L133.433 157.787V157.777Z" fill="#F5CB1D"/>
</svg>
