<svg width="318" height="265" viewBox="0 0 318 265" fill="none" xmlns="http://www.w3.org/2000/svg">
<g style="mix-blend-mode:multiply" opacity="0.6">
<path d="M131.275 148.174L0 223.821L5.92663 227.241H74.3318L153.606 272.92L138.979 281.356L144.74 284.668H218.799L223.268 253.446L131.275 148.174Z" fill="#17898C"/>
</g>
<path d="M227.475 159.26L227.309 0.5354L108.053 70.137L108.029 228.092L227.475 159.26Z" fill="#181A23"/>
<path d="M111.944 150.884L107.63 148.399V69.4983L111.944 71.9828V150.884Z" fill="#6F99B8"/>
<path d="M231.627 81.9208L111.944 150.884V71.9828L231.627 3.02002V81.9208Z" fill="url(#paint0_linear_1268_1030)"/>
<path d="M111.944 71.9827L107.63 69.4982L227.312 0.5354L231.627 3.01991L111.944 71.9827Z" fill="url(#paint1_linear_1268_1030)"/>
<path d="M186.951 57.5016L155.113 75.8514C153.11 76.999 151.486 76.3246 151.486 74.3252V60.6486C151.486 58.6492 153.11 56.0937 155.113 54.9461L186.951 36.5962C188.954 35.4486 190.578 36.123 190.578 38.1224V51.799C190.578 53.7985 188.954 56.354 186.951 57.5016Z" fill="#0B212C"/>
<path d="M186.999 55.4311L155.09 73.8165C154.154 74.3489 153.407 74.0294 153.407 73.1066V66.5168L188.694 46.1793V52.7692C188.694 53.7038 187.936 54.8869 187.011 55.4311H186.999Z" fill="#15171F"/>
<path d="M168.709 52.355C168.709 53.8102 169.728 54.4018 170.997 53.6683C172.253 52.9466 173.284 51.1719 173.284 49.7167C173.284 48.2615 172.265 47.67 170.997 48.4035C169.74 49.1252 168.709 50.8998 168.709 52.355Z" fill="url(#paint2_linear_1268_1030)"/>
<path d="M219.284 154.433L119.385 212.002L220.896 270.743L325.537 199.698L219.284 154.433Z" fill="#0B212C"/>
<path d="M219.284 104.66L327.777 167.187V216.96L219.284 154.433V104.66Z" fill="#181A23"/>
<path d="M327.777 167.187L219.284 104.66L223.208 102.4L331.7 164.927L327.777 167.187Z" fill="#0B212C"/>
<g style="mix-blend-mode:screen">
<path d="M230.476 159.697L130.826 217.125V170.984L230.476 113.556V159.697Z" fill="#CCCDCE"/>
</g>
<path d="M230.476 114.053L130.826 171.469V161.921L230.476 104.494V114.053Z" fill="#5D52AD"/>
<path opacity="0.5" d="M216.121 119.744L211.202 122.583V117.674L216.121 114.834V119.744Z" fill="#2A3FA3"/>
<path opacity="0.5" d="M222.226 116.23L217.307 119.07V114.16L222.226 111.32V116.23Z" fill="#2A3FA3"/>
<path d="M218.076 114.479V117.839L221.442 115.899V112.539L218.076 114.479ZM220.862 115.662L218.657 116.94V114.74L220.862 113.462V115.662Z" fill="#CECECA"/>
<path opacity="0.5" d="M228.329 112.716L223.398 115.556V110.634L228.329 107.807V112.716Z" fill="#2A3FA3"/>
<path d="M224.204 111.391L225.52 111.947L224.204 114.018L224.631 114.195L225.947 112.125L227.262 112.681L227.689 112.007L226.373 111.451L227.689 109.38L227.262 109.203L225.947 111.273L224.631 110.717L224.204 111.391Z" fill="#CECECA"/>
<path d="M215.267 119.472L212.114 121.282V120.69L215.267 118.869V119.472Z" fill="#CECECA"/>
<path d="M139.347 221.774L136.229 219.976V172.629L139.347 174.427V221.774Z" fill="#181A23"/>
<path d="M237.74 165.069L139.346 221.774V174.427L237.74 117.721V165.069Z" fill="#181A23"/>
<path d="M139.347 174.427L136.229 172.628L234.623 115.923L237.741 117.721L139.347 174.427Z" fill="#0B212C"/>
<g style="mix-blend-mode:screen">
<path d="M247.829 169.706L148.19 227.122V180.981L247.829 123.566V169.706Z" fill="#CCCDCE"/>
</g>
<path d="M247.829 124.051L148.19 181.478V171.931L247.829 114.503V124.051Z" fill="#5D52AD"/>
<path opacity="0.5" d="M233.486 129.754L228.555 132.593V127.671L233.486 124.844V129.754Z" fill="#2A3FA3"/>
<path opacity="0.5" d="M239.59 126.24L234.659 129.079V124.157L239.59 121.318V126.24Z" fill="#2A3FA3"/>
<path d="M235.441 124.489V127.849L238.808 125.908V122.548L235.441 124.489ZM238.227 125.66L236.022 126.938V124.737L238.227 123.459V125.66Z" fill="#CECECA"/>
<path opacity="0.5" d="M245.683 122.726L240.764 125.553V120.644L245.683 117.804V122.726Z" fill="#2A3FA3"/>
<path d="M241.57 121.389L242.886 121.945L241.57 124.016L241.997 124.193L243.313 122.123L244.628 122.679L245.043 122.016L243.728 121.46L245.043 119.39L244.628 119.212L243.313 121.283L241.997 120.727L241.57 121.389Z" fill="#CECECA"/>
<path d="M232.621 129.469L229.479 131.291V130.688L232.621 128.878V129.469Z" fill="#CECECA"/>
<path d="M156.713 231.784L153.584 229.985V182.626L156.713 184.424V231.784Z" fill="#181A23"/>
<path d="M255.107 175.078L156.713 231.784V184.424L255.107 127.718V175.078Z" fill="#181A23"/>
<path d="M156.713 184.424L153.584 182.626L251.99 125.92L255.107 127.718L156.713 184.424Z" fill="#0B212C"/>
<path opacity="0.8" d="M265.088 160.916L165.449 218.332V93.2663L265.088 35.8506V160.916Z" fill="#CCCDCE"/>
<path d="M265.088 36.3358L165.449 93.7634V84.2039L265.088 26.7882V36.3358Z" fill="#5D52AD"/>
<path d="M218.66 72.7869L235.337 63.1683V64.4342L218.66 74.0528V72.7869ZM216.147 79.2466V80.5125L229.98 72.5384V71.2725L216.147 79.2466ZM214.843 81.2579V79.992L198.272 89.5396V90.8055L214.843 81.2579ZM209.96 79.0691L217.356 74.7982V73.5322L209.96 77.8032V79.0691ZM208.656 79.8145V78.5486L199.446 83.8489V85.1148L208.656 79.8145ZM231.165 61.8314L238.561 57.5604V56.2945L231.165 60.5655V61.8314ZM236.641 62.4229V63.6889L252.027 54.8275V53.5616L236.641 62.4229ZM246.479 61.7604L231.272 70.5272V71.7931L246.479 63.0382V61.7722V61.7604ZM196.968 91.5627V90.2967L173.309 103.926V105.192L196.968 91.5627ZM198.166 80.8556L214.736 71.308V70.0421L198.166 79.5897V80.8556ZM216.04 70.5508L229.873 62.5768V61.3108L216.04 69.2849V70.5508ZM196.862 81.601V80.3351L173.369 93.8697V95.1356L196.862 81.601ZM239.877 56.8151L250.391 50.7576V49.4917L239.877 55.5492V56.8151ZM198.142 84.606L173.25 98.9452V100.211L198.142 85.872V84.606ZM216.147 87.339V88.6049L229.98 80.6308V79.3649L216.147 87.339ZM214.843 89.3503V88.0843L198.272 97.632V98.8979L214.843 89.3503ZM214.95 93.0415V94.3074L224.16 89.0072V87.7413L214.95 93.0415ZM225.452 86.9841V88.25L232.848 83.979V82.7131L225.452 86.9841ZM225.926 91.7165V92.9824L239.759 85.0083V83.7424L225.926 91.7165ZM209.343 106.292V107.558L218.553 102.258V100.992L209.343 106.292ZM224.622 92.4736L208.051 102.021V103.287L224.622 93.7396V92.4736ZM227.253 95.9638L219.857 100.235V101.501L227.253 97.2297V95.9638ZM250.841 72.3491L234.164 81.9677V83.2336L250.841 73.6151V72.3491ZM206.747 104.032V102.767L173.321 122.027V123.293L206.747 104.032ZM191.137 108.02V106.754L173.345 117.011V118.277L191.137 108.02ZM246.479 69.8528L231.272 78.6196V79.8855L246.479 71.1306V69.8646V69.8528ZM196.968 99.6432V98.3773L173.309 112.007V113.272L196.968 99.6432ZM228.545 95.2184V96.4843L245.223 86.8658V85.5998L228.545 95.2184ZM241.062 82.997V84.2629L248.459 80.0038V78.7379L241.062 83.0089V82.997ZM185.542 121.27V120.004L173.546 126.914V128.18L185.542 121.27ZM208.039 107.038L186.834 119.259V120.525L208.039 108.303V107.038ZM247.783 69.1075V70.3734L256.661 65.2506V63.9846L247.783 69.1075ZM213.646 95.0528V93.7869L192.44 106.008V107.274L213.646 95.0528ZM249.763 77.9807V79.2466L254.326 76.6083V75.3424L249.763 77.9807ZM251.505 81.9914L246.527 84.8545V86.1204L251.505 83.2573V81.9914ZM209.343 113.793V115.059L218.553 109.759V108.493L209.343 113.793ZM206.866 121.495V120.229L190.496 129.658V130.924L206.866 121.495ZM227.253 103.476L219.857 107.747V109.013L227.253 104.742V103.476ZM228.545 102.719V103.985L245.223 94.3666V93.1007L228.545 102.719ZM241.169 101.725L250.853 96.1412V94.8753L241.169 100.46V101.725ZM185.542 128.771V127.505L173.546 134.414V135.68L185.542 128.771ZM208.039 114.538L186.834 126.76V128.026L208.039 115.804V114.538ZM251.505 89.4922L246.527 92.3553V93.6213L251.505 90.7581V89.4922ZM192.251 138.674L173.416 149.523V150.789L192.251 139.94V138.674ZM186.929 136.733L173.463 144.494V145.76L186.929 137.999V136.733ZM197.786 136.745V135.479L193.555 137.916V139.182L197.786 136.745ZM189.193 131.681V130.416L173.487 139.466V140.732L189.193 131.681ZM209.153 125.186V123.92L188.221 135.976V137.242L209.153 125.186ZM253.971 126.062V124.796L244.31 130.368V131.634L253.971 126.062ZM196.968 158.905V157.639L173.309 171.268V172.534L196.968 158.905ZM196.862 148.955V147.689L173.369 161.223V162.489L196.862 148.955ZM189.845 156.74L173.25 166.299V167.565L189.845 158.005V156.74ZM173.499 157.402L181.251 152.93V151.664L173.499 156.136V157.402ZM182.555 152.185L203.76 139.963V138.697L182.555 150.919V152.185Z" fill="#CECECA"/>
<path opacity="0.5" d="M250.744 42.0384L245.813 44.8778V39.9561L250.744 37.1167V42.0384Z" fill="#2A3FA3"/>
<path opacity="0.5" d="M256.837 38.5246L251.918 41.3522V36.4424L256.837 33.6029V38.5246Z" fill="#2A3FA3"/>
<path d="M252.7 36.7737V40.1336L256.067 38.1934V34.8334L252.7 36.7737ZM255.486 37.9449L253.281 39.2227V37.0221L255.486 35.7443V37.9449Z" fill="#CECECA"/>
<path opacity="0.5" d="M262.942 34.999L258.022 37.8384V32.9286L262.942 30.0891V34.999Z" fill="#2A3FA3"/>
<path d="M258.829 33.674L260.145 34.23L258.829 36.3004L259.256 36.4779L260.56 34.4075L261.875 34.9636L262.302 34.301L260.986 33.745L262.302 31.6745L261.875 31.4971L260.56 33.5675L259.256 33.0114L258.829 33.674Z" fill="#CECECA"/>
<path d="M249.881 41.7544L246.728 43.5764V42.973L249.881 41.1628V41.7544Z" fill="#CECECA"/>
<path d="M174.065 241.781L170.947 239.982V192.635L174.065 194.433V241.781Z" fill="#181A23"/>
<path d="M272.47 185.087L174.064 241.781V194.433L272.47 137.727V185.087Z" fill="#181A23"/>
<path d="M174.065 194.433L170.947 192.635L269.341 135.929L272.47 137.727L174.065 194.433Z" fill="#0B212C"/>
<g style="mix-blend-mode:screen">
<path d="M282.558 189.713L182.907 247.14V200.999L282.558 143.572V189.713Z" fill="#CCCDCE"/>
</g>
<path d="M282.558 144.057L182.907 201.485V191.937L282.558 134.509V144.057Z" fill="#5D52AD"/>
<path opacity="0.5" d="M268.204 149.76L263.285 152.599V147.689L268.204 144.85V149.76Z" fill="#2A3FA3"/>
<path opacity="0.5" d="M274.308 146.246L269.377 149.085V144.164L274.308 141.336V146.246Z" fill="#2A3FA3"/>
<path d="M270.159 144.495V147.855L273.525 145.915V142.555L270.159 144.495ZM272.945 145.678L270.74 146.956V144.755L272.945 143.477V145.678Z" fill="#CECECA"/>
<path opacity="0.5" d="M280.413 142.732L275.482 145.572V140.65L280.413 137.81V142.732Z" fill="#2A3FA3"/>
<path d="M276.289 141.407L277.605 141.951L276.289 144.022L276.716 144.199L278.031 142.129L279.347 142.685L279.774 142.022L278.458 141.466L279.774 139.396L279.347 139.218L278.031 141.289L276.716 140.733L276.289 141.407Z" fill="#CECECA"/>
<path d="M267.35 149.488L264.197 151.298V150.706L267.35 148.884V149.488Z" fill="#CECECA"/>
<path d="M191.429 251.79L188.3 249.991V202.632L191.429 204.43V251.79Z" fill="#181A23"/>
<path d="M289.823 195.084L191.429 251.79V204.431L289.823 147.736V195.084Z" fill="#181A23"/>
<path d="M191.429 204.43L188.3 202.632L286.706 145.938L289.823 147.736L191.429 204.43Z" fill="#0B212C"/>
<g style="mix-blend-mode:screen">
<path d="M299.912 199.722L200.273 257.137V210.997L299.912 153.581V199.722Z" fill="#CCCDCE"/>
</g>
<path d="M299.912 154.066L200.273 211.493V201.934L299.912 144.518V154.066Z" fill="#5D52AD"/>
<path opacity="0.5" d="M285.568 159.768L280.637 162.608V157.686L285.568 154.847V159.768Z" fill="#2A3FA3"/>
<path opacity="0.5" d="M291.661 156.255L286.742 159.082V154.173L291.661 151.333V156.255Z" fill="#2A3FA3"/>
<path d="M287.523 154.504V157.864L290.89 155.924V152.564L287.523 154.504ZM290.309 155.675L288.104 156.953V154.752L290.309 153.475V155.675Z" fill="#CECECA"/>
<path opacity="0.5" d="M297.766 152.729L292.847 155.568V150.659L297.766 147.819V152.729Z" fill="#2A3FA3"/>
<path d="M293.652 151.404L294.968 151.96L293.652 154.03L294.079 154.208L295.395 152.137L296.699 152.694L297.125 152.031L295.81 151.475L297.125 149.405L296.699 149.227L295.395 151.297L294.079 150.741L293.652 151.404Z" fill="#CECECA"/>
<path d="M284.702 159.485L281.549 161.307V160.703L284.702 158.893V159.485Z" fill="#CECECA"/>
<path d="M208.783 261.799L205.666 260.001V212.641L208.783 214.439V261.799Z" fill="#181A23"/>
<path d="M307.188 205.093L208.782 261.799V214.439L307.188 157.734V205.093Z" fill="#181A23"/>
<path d="M208.783 214.439L205.666 212.641L304.072 155.935L307.189 157.734L208.783 214.439Z" fill="#0B212C"/>
<path d="M115.999 164.181L224.492 226.708V276.469L115.999 213.954V164.181Z" fill="#181A23"/>
<path d="M228.416 274.209L224.492 276.469V226.708L228.416 224.448V274.209Z" fill="url(#paint3_linear_1268_1030)"/>
<path d="M224.492 226.708L115.999 164.181L119.922 161.921L228.415 224.448L224.492 226.708Z" fill="#0B212C"/>
<path d="M218.802 284.668L214.487 282.184V203.271L218.802 205.756V284.668Z" fill="#6F99B8"/>
<path d="M338.484 215.706L218.802 284.668V205.756L338.484 136.793V215.706Z" fill="url(#paint4_linear_1268_1030)"/>
<path d="M218.802 205.756L214.487 203.271L334.17 134.308L338.484 136.793L218.802 205.756Z" fill="url(#paint5_linear_1268_1030)"/>
<path d="M293.808 191.274L261.97 209.624C259.967 210.772 258.343 210.098 258.343 208.098V194.422C258.343 192.422 259.967 189.867 261.97 188.719L293.808 170.369C295.811 169.222 297.435 169.896 297.435 171.895V185.572C297.435 187.571 295.811 190.127 293.808 191.274Z" fill="#0B212C"/>
<path d="M293.856 189.216L261.947 207.601C261.01 208.134 260.264 207.814 260.264 206.891V200.302L295.551 179.964V186.554C295.551 187.489 294.792 188.672 293.868 189.216H293.856Z" fill="#15171F"/>
<path d="M275.565 186.14C275.565 187.595 276.585 188.187 277.853 187.453C279.11 186.731 280.141 184.957 280.141 183.502C280.141 182.046 279.121 181.455 277.853 182.188C276.597 182.91 275.565 184.685 275.565 186.14Z" fill="url(#paint6_linear_1268_1030)"/>
<path d="M300.242 225.265L259.372 248.82C258.744 249.187 258.353 249.069 258.353 248.525V236.41C258.353 235.913 259.076 234.86 259.656 234.529L300.526 210.973C301.155 210.606 301.546 210.725 301.546 211.269V223.384C301.546 223.893 300.823 224.934 300.242 225.265Z" fill="#5563A5"/>
<path d="M272.043 231.488L261.576 237.522V235.712L272.043 229.678V231.488ZM289.372 219.693L281.75 224.082V225.892L289.372 221.503V219.693ZM268.57 235.179L261.576 239.214V241.024L268.57 236.99V235.179ZM283.315 226.685L271.331 233.594V235.404L283.315 228.495V226.685ZM278.989 225.679L274.804 228.093V229.903L278.989 227.489V225.679Z" fill="#2F9093"/>
<path style="mix-blend-mode:screen" d="M338.748 229.204C363.314 196.067 356.316 149.325 323.116 124.805C289.915 100.284 243.086 107.27 218.519 140.407C193.952 173.545 200.951 220.286 234.151 244.807C267.351 269.328 314.181 262.342 338.748 229.204Z" fill="url(#paint7_radial_1268_1030)"/>
<defs>
<linearGradient id="paint0_linear_1268_1030" x1="111.944" y1="76.9518" x2="231.627" y2="76.9518" gradientUnits="userSpaceOnUse">
<stop stop-color="#B8B6C1"/>
<stop offset="1" stop-color="#8372B9"/>
</linearGradient>
<linearGradient id="paint1_linear_1268_1030" x1="107.63" y1="36.2531" x2="231.627" y2="36.2531" gradientUnits="userSpaceOnUse">
<stop stop-color="#CCCDCE"/>
<stop offset="0.55" stop-color="#CCCACE"/>
<stop offset="1" stop-color="#CCCDCE"/>
</linearGradient>
<linearGradient id="paint2_linear_1268_1030" x1="168.709" y1="51.0418" x2="173.284" y2="51.0418" gradientUnits="userSpaceOnUse">
<stop stop-color="#B8B6C1"/>
<stop offset="1" stop-color="#8372B9"/>
</linearGradient>
<linearGradient id="paint3_linear_1268_1030" x1="224.492" y1="250.465" x2="228.416" y2="250.465" gradientUnits="userSpaceOnUse">
<stop stop-color="#B8B6C1"/>
<stop offset="1" stop-color="#8372B9"/>
</linearGradient>
<linearGradient id="paint4_linear_1268_1030" x1="218.802" y1="210.736" x2="338.484" y2="210.736" gradientUnits="userSpaceOnUse">
<stop stop-color="#B8B6C1"/>
<stop offset="1" stop-color="#8372B9"/>
</linearGradient>
<linearGradient id="paint5_linear_1268_1030" x1="214.487" y1="170.038" x2="338.484" y2="170.038" gradientUnits="userSpaceOnUse">
<stop stop-color="#CCCDCE"/>
<stop offset="0.55" stop-color="#CCCACE"/>
<stop offset="1" stop-color="#CCCDCE"/>
</linearGradient>
<linearGradient id="paint6_linear_1268_1030" x1="275.565" y1="184.827" x2="280.141" y2="184.827" gradientUnits="userSpaceOnUse">
<stop stop-color="#B8B6C1"/>
<stop offset="1" stop-color="#8372B9"/>
</linearGradient>
<radialGradient id="paint7_radial_1268_1030" cx="0" cy="0" r="1" gradientUnits="userSpaceOnUse" gradientTransform="translate(278.564 185.212) rotate(-120.047) scale(74.6768 74.747)">
<stop stop-color="#238E90"/>
<stop offset="0.03" stop-color="#17898C"/>
<stop offset="0.08" stop-color="#17898C"/>
<stop offset="0.13" stop-color="#17898C"/>
<stop offset="0.2" stop-color="#17898C" stop-opacity="0.8"/>
<stop offset="0.28" stop-color="#1F8183" stop-opacity="0.6"/>
<stop offset="0.43" stop-color="#000408" stop-opacity="0"/>
</radialGradient>
</defs>
</svg>
