<svg width="174" height="241" viewBox="0 0 174 241" fill="none" xmlns="http://www.w3.org/2000/svg">
<path d="M34.3825 174.427C27.0731 182.251 7.8349 192.699 1.87057 186.577C-4.09377 180.456 5.47456 160.075 12.784 152.251C20.0935 144.428 30.8547 143.056 36.819 149.178C42.7834 155.3 41.692 166.603 34.3825 174.427Z" fill="url(#paint0_radial_1276_1131)"/>
<path style="mix-blend-mode:lighten" d="M34.3825 174.427C27.0731 182.251 7.8349 192.699 1.87057 186.577C-4.09377 180.456 5.47456 160.075 12.784 152.251C20.0935 144.428 30.8547 143.056 36.819 149.178C42.7834 155.3 41.692 166.603 34.3825 174.427Z" fill="url(#paint1_linear_1276_1131)"/>
<path d="M35.2373 153.208C34.7889 153.208 34.3237 153.115 33.8837 152.92C32.0902 152.133 31.2526 149.982 31.9971 148.102L42.8514 120.923C43.6043 119.043 45.6517 118.163 47.4452 118.95C49.2387 119.737 50.0763 121.888 49.3318 123.768L38.4775 150.947C37.9107 152.361 36.6079 153.208 35.2373 153.208Z" fill="#3FDFD7"/>
<path d="M189.1 204.273L166.604 146.019L173.119 143.259L195.614 201.505L189.1 204.273Z" fill="#3FDFD7"/>
<path d="M74.6617 112.862C72.3183 125.258 60.838 133.31 49.0109 130.855C37.1837 128.399 29.502 116.367 31.837 103.972C34.1804 91.5756 45.6607 83.5233 57.4878 85.9788C69.315 88.4343 76.9967 100.466 74.6617 112.862Z" fill="url(#paint2_radial_1276_1131)"/>
<g style="mix-blend-mode:lighten">
<path d="M64.984 89.1287C75.153 95.9194 78.1394 110.051 71.6674 120.711C65.1955 131.363 51.7017 134.504 41.5327 127.714C31.3638 120.923 28.3774 106.791 34.8493 96.1311C41.3212 85.4794 54.815 82.3381 64.984 89.1287Z" fill="url(#paint3_linear_1276_1131)"/>
</g>
<path d="M162.096 149.956C162.096 194.358 136.868 230.352 105.744 230.352C74.6195 230.352 49.3916 194.358 49.3916 149.956C49.3916 105.555 74.6195 92.2528 105.744 92.2528C136.868 92.2528 162.096 105.555 162.096 149.956Z" fill="url(#paint4_radial_1276_1131)"/>
<g style="mix-blend-mode:lighten">
<path d="M162.094 149.957C162.094 194.358 136.867 230.352 105.742 230.352C74.6175 230.352 49.3896 194.358 49.3896 149.957C49.3896 105.555 74.6175 92.2529 105.742 92.2529C136.867 92.2529 162.094 105.555 162.094 149.957Z" fill="url(#paint5_linear_1276_1131)"/>
</g>
<path d="M132.943 132.573C117.927 141.659 93.57 141.659 78.5535 132.573C63.5369 123.488 63.5369 108.755 78.5535 99.6616C93.57 90.5763 117.927 90.5763 132.943 99.6616C147.96 108.747 147.96 123.48 132.943 132.573Z" fill="#4D41C4"/>
<path d="M78.553 105.868C93.5696 96.7831 117.926 96.7831 132.943 105.868C139.144 109.619 142.782 114.344 143.856 119.221C145.387 112.278 141.758 105.005 132.943 99.6704C117.926 90.5851 93.5696 90.5851 78.553 99.6704C69.7376 105.005 66.1082 112.286 67.6395 119.221C68.7224 114.336 72.3518 109.619 78.553 105.868Z" fill="#3FDFD7"/>
<path d="M88.9671 30.1464C88.9671 40.9844 81.7084 54.1678 72.7492 59.5867C63.79 65.0057 56.5312 60.6112 56.5312 49.7733C56.5312 38.9353 63.79 25.752 72.7492 20.333C81.7084 14.914 88.9671 19.3085 88.9671 30.1464Z" fill="#BCBEFF"/>
<path d="M107.977 120.813C139.716 120.813 165.446 93.8443 165.446 60.5773C165.446 27.3102 139.716 0.341919 107.977 0.341919C76.2376 0.341919 50.5078 27.3102 50.5078 60.5773C50.5078 93.8443 76.2376 120.813 107.977 120.813Z" fill="url(#paint6_radial_1276_1131)"/>
<g style="mix-blend-mode:lighten">
<path d="M107.978 120.813C139.717 120.813 165.447 93.8443 165.447 60.5773C165.447 27.3102 139.717 0.341919 107.978 0.341919C76.2386 0.341919 50.5088 27.3102 50.5088 60.5773C50.5088 93.8443 76.2386 120.813 107.978 120.813Z" fill="url(#paint7_linear_1276_1131)"/>
</g>
<path d="M90.0505 89.1119C88.5784 100.957 80.0507 104.675 70.9984 97.4182C61.9462 90.1618 55.7957 74.6754 57.2593 62.8298C58.7229 50.9843 67.2591 47.2672 76.3114 54.5235C85.3636 61.7799 91.5141 77.2663 90.0505 89.1119Z" fill="#4D41C4"/>
<path d="M82.5704 78.8497C82.0374 83.151 78.9326 84.5057 75.6501 81.8724C72.3592 79.2391 70.1257 73.6085 70.6587 69.3072C71.1917 65.0058 74.2965 63.6511 77.579 66.2844C80.87 68.9177 83.1034 74.5483 82.5704 78.8497Z" fill="#3FDFD7"/>
<path d="M75.3463 95.6907C66.294 88.4344 60.1435 72.9479 61.6071 61.1109C62.2078 56.2846 63.976 52.8046 66.4801 50.8656C61.751 51.3313 58.1639 55.5395 57.2587 62.8297C55.7866 74.6752 61.9371 90.1617 70.9978 97.418C76.3615 101.719 81.539 102.16 85.1768 99.3485C82.2243 99.6364 78.8233 98.4764 75.3463 95.6907Z" fill="#5B4FD1"/>
<path d="M71.7761 97.0373C62.7239 89.7809 56.5734 74.2945 58.037 62.449C58.7138 56.9622 60.9134 53.2282 63.9675 51.5094C60.5073 52.9996 57.9947 56.8945 57.2587 62.83C55.7866 74.6755 61.9371 90.162 70.9978 97.4183C75.8623 101.313 80.5661 102.033 84.1109 100.043C80.6676 101.525 76.2938 100.653 71.7761 97.0288V97.0373Z" fill="#3FDFD7"/>
<path d="M191.276 149.085C188.933 161.48 177.452 169.533 165.625 167.077C153.798 164.622 146.116 152.59 148.451 140.194C150.795 127.798 162.275 119.746 174.102 122.201C185.929 124.657 193.611 136.689 191.276 149.085Z" fill="url(#paint8_radial_1276_1131)"/>
<g style="mix-blend-mode:lighten">
<path d="M191.275 149.084C188.932 161.48 177.451 169.532 165.624 167.077C153.797 164.621 146.115 152.59 148.45 140.194C150.794 127.798 162.274 119.746 174.101 122.201C185.928 124.656 193.61 136.688 191.275 149.084Z" fill="url(#paint9_linear_1276_1131)"/>
</g>
<path d="M204.666 220.42C203.431 231.292 194.269 251.876 185.978 250.843C177.687 249.81 173.406 227.541 174.641 216.669C175.876 205.798 183.6 197.83 191.891 198.863C200.182 199.896 205.901 209.548 204.658 220.42H204.666Z" fill="url(#paint10_radial_1276_1131)"/>
<path style="mix-blend-mode:lighten" d="M204.666 220.42C203.431 231.292 194.269 251.876 185.978 250.843C177.687 249.81 173.406 227.541 174.641 216.669C175.876 205.798 183.6 197.83 191.891 198.863C200.182 199.896 205.901 209.548 204.658 220.42H204.666Z" fill="url(#paint11_linear_1276_1131)"/>
<defs>
<radialGradient id="paint0_radial_1276_1131" cx="0" cy="0" r="1" gradientUnits="userSpaceOnUse" gradientTransform="translate(251.747 328.011) rotate(45.7441) scale(39.77 65.3982)">
<stop stop-color="#C4C3FC"/>
<stop offset="1" stop-color="#4D41C4"/>
</radialGradient>
<linearGradient id="paint1_linear_1276_1131" x1="39.2466" y1="153.128" x2="4.68489" y2="154.639" gradientUnits="userSpaceOnUse">
<stop stop-color="#3FDFD7"/>
<stop offset="0.07" stop-color="#41C6D4"/>
<stop offset="0.22" stop-color="#449DCF"/>
<stop offset="0.36" stop-color="#477CCB"/>
<stop offset="0.51" stop-color="#4A62C7"/>
<stop offset="0.67" stop-color="#4B4FC5"/>
<stop offset="0.83" stop-color="#4C44C4"/>
<stop offset="1" stop-color="#4D41C4"/>
</linearGradient>
<radialGradient id="paint2_radial_1276_1131" cx="0" cy="0" r="1" gradientUnits="userSpaceOnUse" gradientTransform="translate(174.289 37.0594) rotate(11.7196) scale(126.645 132.024)">
<stop stop-color="#C4C3FC"/>
<stop offset="1" stop-color="#4D41C4"/>
</radialGradient>
<linearGradient id="paint3_linear_1276_1131" x1="41.5616" y1="127.555" x2="65.8301" y2="89.4787" gradientUnits="userSpaceOnUse">
<stop stop-color="#3FDFD7"/>
<stop offset="0.07" stop-color="#41C6D4"/>
<stop offset="0.22" stop-color="#449DCF"/>
<stop offset="0.36" stop-color="#477CCB"/>
<stop offset="0.51" stop-color="#4A62C7"/>
<stop offset="0.67" stop-color="#4B4FC5"/>
<stop offset="0.83" stop-color="#4C44C4"/>
<stop offset="1" stop-color="#4D41C4"/>
</linearGradient>
<radialGradient id="paint4_radial_1276_1131" cx="0" cy="0" r="1" gradientUnits="userSpaceOnUse" gradientTransform="translate(133.209 138.124) scale(96.442 138.263)">
<stop stop-color="#C4C3FC"/>
<stop offset="1" stop-color="#4D41C4"/>
</radialGradient>
<linearGradient id="paint5_linear_1276_1131" x1="109.229" y1="230.64" x2="109.229" y2="92.4314" gradientUnits="userSpaceOnUse">
<stop stop-color="#3FDFD7"/>
<stop offset="0.07" stop-color="#41C6D4"/>
<stop offset="0.22" stop-color="#449DCF"/>
<stop offset="0.36" stop-color="#477CCB"/>
<stop offset="0.51" stop-color="#4A62C7"/>
<stop offset="0.67" stop-color="#4B4FC5"/>
<stop offset="0.83" stop-color="#4C44C4"/>
<stop offset="1" stop-color="#4D41C4"/>
</linearGradient>
<radialGradient id="paint6_radial_1276_1131" cx="0" cy="0" r="1" gradientUnits="userSpaceOnUse" gradientTransform="translate(142.535 51.6529) scale(96.6294 101.801)">
<stop stop-color="#C4C3FC"/>
<stop offset="1" stop-color="#4D41C4"/>
</radialGradient>
<linearGradient id="paint7_linear_1276_1131" x1="99.6109" y1="120.178" x2="116.381" y2="0.980841" gradientUnits="userSpaceOnUse">
<stop stop-color="#3FDFD7"/>
<stop offset="0.07" stop-color="#41C6D4"/>
<stop offset="0.22" stop-color="#449DCF"/>
<stop offset="0.36" stop-color="#477CCB"/>
<stop offset="0.51" stop-color="#4A62C7"/>
<stop offset="0.67" stop-color="#4B4FC5"/>
<stop offset="0.83" stop-color="#4C44C4"/>
<stop offset="1" stop-color="#4D41C4"/>
</linearGradient>
<radialGradient id="paint8_radial_1276_1131" cx="0" cy="0" r="1" gradientUnits="userSpaceOnUse" gradientTransform="translate(198.053 131.297) rotate(11.7196) scale(45.7752 47.7192)">
<stop stop-color="#C4C3FC"/>
<stop offset="1" stop-color="#4D41C4"/>
</radialGradient>
<linearGradient id="paint9_linear_1276_1131" x1="151.942" y1="157.725" x2="187.855" y2="131.652" gradientUnits="userSpaceOnUse">
<stop stop-color="#3FDFD7"/>
<stop offset="0.07" stop-color="#41C6D4"/>
<stop offset="0.22" stop-color="#449DCF"/>
<stop offset="0.36" stop-color="#477CCB"/>
<stop offset="0.51" stop-color="#4A62C7"/>
<stop offset="0.67" stop-color="#4B4FC5"/>
<stop offset="0.83" stop-color="#4C44C4"/>
<stop offset="1" stop-color="#4D41C4"/>
</linearGradient>
<radialGradient id="paint10_radial_1276_1131" cx="0" cy="0" r="1" gradientUnits="userSpaceOnUse" gradientTransform="translate(245.166 207.948) rotate(7.12592) scale(38.87 66.7517)">
<stop stop-color="#C4C3FC"/>
<stop offset="1" stop-color="#4D41C4"/>
</radialGradient>
<linearGradient id="paint11_linear_1276_1131" x1="175.327" y1="222.881" x2="205.438" y2="226.469" gradientUnits="userSpaceOnUse">
<stop stop-color="#3FDFD7"/>
<stop offset="0.07" stop-color="#41C6D4"/>
<stop offset="0.22" stop-color="#449DCF"/>
<stop offset="0.36" stop-color="#477CCB"/>
<stop offset="0.51" stop-color="#4A62C7"/>
<stop offset="0.67" stop-color="#4B4FC5"/>
<stop offset="0.83" stop-color="#4C44C4"/>
<stop offset="1" stop-color="#4D41C4"/>
</linearGradient>
</defs>
</svg>
