<svg width="229" height="297" viewBox="0 0 229 297" fill="none" xmlns="http://www.w3.org/2000/svg">
<g style="mix-blend-mode:multiply" opacity="0.6">
<path d="M252.644 237.309L119.278 160.535C115.787 158.513 111.208 157.491 106.618 157.47H90.6614C85.856 157.395 80.9968 158.416 77.3119 160.535L6.28699 201.476C-0.824125 205.573 -0.85645 212.219 6.20079 216.317L139.567 293.091C143.176 295.188 147.927 296.199 152.668 296.156H168.819C173.409 296.134 177.999 295.113 181.522 293.091L252.547 252.15C259.658 248.052 259.701 241.406 252.633 237.309H252.644Z" fill="#17898C"/>
</g>
<path d="M242.344 241.084L164.488 285.95C163.249 286.66 161.719 286.66 160.48 285.95L14.7241 201.949C12.052 200.411 8.72272 196.712 12.8062 192.12L85.1133 149.953C89.8864 147.081 96.8467 145.307 102.374 146.006C104.82 146.318 107.88 146.92 109.27 147.716L245.878 226.254C251.621 229.566 248.087 237.76 242.344 241.073V241.084Z" fill="#23AD92"/>
<path d="M258.656 236.933C258.656 239.632 256.879 242.342 253.301 244.407L182.276 285.348C175.165 289.445 163.68 289.456 156.601 285.348L15.4562 204.089C11.9438 202.057 10.1875 199.39 10.1768 196.723L10.2091 203.122C10.2091 205.789 11.9761 208.456 15.4885 210.488L156.633 291.747C163.701 295.844 175.198 295.844 182.309 291.747L253.334 250.805C256.911 248.741 258.699 246.031 258.689 243.331L258.656 236.933Z" fill="url(#paint0_linear_1276_1089)"/>
<path d="M253.377 229.555L112.232 148.297C105.164 144.199 93.6682 144.199 86.557 148.297L15.5321 189.238C8.42099 193.335 8.38867 199.981 15.4459 204.078L156.591 285.337C163.659 289.434 175.155 289.434 182.266 285.337L253.291 244.396C260.402 240.299 260.445 233.652 253.377 229.555ZM154.393 281.498L14.3361 200.82C10.9853 198.884 10.9853 194.066 14.3361 192.131L30.5624 182.785L43.5348 181.269L73.089 164.234L78.0776 155.394L88.0978 149.619C95.2412 145.501 104.033 145.501 111.177 149.619L246.352 227.49C247.505 228.157 247.505 229.813 246.352 230.469L157.819 281.508C156.763 282.121 155.459 282.121 154.404 281.508L154.393 281.498Z" fill="#15273A"/>
<path d="M220.677 255.569L217.412 253.687C215.785 252.752 213.048 252.849 211.184 253.924L199.505 260.656C198.88 261.011 198.406 261.463 198.126 261.947C197.49 263.044 197.889 264.248 199.106 264.947L202.382 266.829C204.019 267.765 206.745 267.668 208.609 266.592L220.289 259.86C220.914 259.505 221.388 259.054 221.668 258.57C222.304 257.473 221.905 256.268 220.687 255.569H220.677Z" fill="#101C2D"/>
<path d="M220.676 256.774L217.412 254.892C215.785 253.956 213.048 254.053 211.184 255.129L199.505 261.861C198.88 262.216 198.406 262.667 198.126 263.151C198.029 263.312 198.007 263.485 197.953 263.646C198.136 264.151 198.513 264.603 199.095 264.936L202.371 266.818C204.008 267.754 206.734 267.657 208.598 266.582L220.278 259.85C220.903 259.495 221.377 259.043 221.657 258.559C221.754 258.398 221.775 258.226 221.829 258.064C221.646 257.559 221.269 257.107 220.676 256.774Z" fill="#15273A"/>
<path d="M61.8404 165.385L47.4135 173.698C46.7131 174.107 46.6377 174.72 47.2411 175.064C47.8552 175.419 48.9111 175.376 49.6222 174.967L64.0492 166.654C64.7495 166.245 64.8249 165.632 64.2216 165.288C63.6074 164.933 62.5515 164.976 61.8404 165.385Z" fill="#191414"/>
<path d="M40.765 221.468C40.6464 221.113 40.4633 220.758 40.237 220.446C39.9784 220.091 39.666 219.801 39.332 219.607L27.5986 212.854C27.1569 212.606 26.7582 212.574 26.4781 212.746L25.3145 213.413C25.6054 213.252 26.004 213.273 26.435 213.52L38.1683 220.274C38.5023 220.468 38.8148 220.758 39.0734 221.113C39.2996 221.425 39.4828 221.769 39.6013 222.135C39.7091 222.436 39.7629 222.748 39.7629 223.038V223.543C39.7629 224.049 39.5798 224.414 39.2889 224.576L40.4525 223.909C40.7434 223.737 40.9266 223.382 40.9266 222.877V222.371C40.9266 222.081 40.8727 221.769 40.765 221.468Z" fill="url(#paint1_linear_1276_1089)"/>
<path d="M38.1678 220.274L26.4345 213.521C25.551 213.015 24.8398 213.424 24.8398 214.456V214.962C24.8398 215.973 25.551 217.209 26.4345 217.726L38.1678 224.479C39.0405 224.985 39.7624 224.565 39.7624 223.544V223.038C39.7624 222.016 39.0405 220.78 38.1678 220.274Z" fill="#6F99B8"/>
<path d="M58.6624 231.781C58.5439 231.426 58.3607 231.071 58.1345 230.76C57.8759 230.405 57.5634 230.114 57.2294 229.921L45.4961 223.167C45.0543 222.92 44.6557 222.887 44.3756 223.06L43.2119 223.726C43.5028 223.565 43.8907 223.586 44.3324 223.834L56.0658 230.587C56.3998 230.781 56.7123 231.071 56.9708 231.426C57.1971 231.738 57.3803 232.082 57.4988 232.448C57.6065 232.749 57.6604 233.061 57.6604 233.351V233.857C57.6604 234.362 57.4772 234.728 57.1863 234.889L58.35 234.222C58.6409 234.05 58.824 233.695 58.824 233.19V232.685C58.824 232.394 58.7702 232.082 58.6624 231.781Z" fill="url(#paint2_linear_1276_1089)"/>
<path d="M56.0653 230.588L44.3319 223.834C43.4484 223.329 42.7373 223.737 42.7373 224.77V225.275C42.7373 226.286 43.4484 227.523 44.3319 228.039L56.0653 234.792C56.938 235.298 57.6599 234.879 57.6599 233.857V233.351C57.6599 232.33 56.938 231.093 56.0653 230.588Z" fill="#6F99B8"/>
<path d="M41.8965 179.591C41.0992 180.054 39.8063 180.054 39.009 179.591C38.2117 179.129 38.2225 178.387 39.009 177.924C39.8063 177.462 41.0992 177.462 41.8965 177.924C42.6938 178.387 42.6831 179.129 41.8965 179.591Z" fill="#191414"/>
<path opacity="0.1" d="M39.4185 179.398C40.0218 179.72 40.97 179.699 41.5518 179.344C42.1336 178.989 42.1121 178.44 41.5087 178.107C40.9053 177.774 39.9572 177.806 39.3754 178.161C38.7936 178.516 38.8151 179.075 39.4185 179.398Z" fill="#8DB5B5"/>
<path opacity="0.1" d="M39.8704 179.064C40.1936 179.236 40.7216 179.226 41.034 179.032C41.3465 178.838 41.3357 178.537 41.0125 178.365C40.6893 178.193 40.1613 178.204 39.8489 178.397C39.5364 178.591 39.5472 178.892 39.8704 179.064Z" fill="#8DB5B5"/>
<g style="mix-blend-mode:screen" opacity="0.2">
<path d="M40.2275 178.838C40.346 178.903 40.5399 178.903 40.6585 178.828C40.777 178.752 40.7662 178.645 40.6585 178.58C40.5399 178.516 40.346 178.516 40.2275 178.591C40.109 178.666 40.1197 178.774 40.2275 178.838Z" fill="#8DB5B5"/>
</g>
<path d="M220.268 268.56L211.951 273.346C210.981 273.905 210.194 273.572 210.194 272.604C210.194 271.636 210.981 270.399 211.951 269.84L220.268 265.054C221.238 264.495 222.025 264.829 222.025 265.797C222.025 266.764 221.238 268.001 220.268 268.56Z" fill="#101C2D"/>
<mask id="mask0_1276_1089" style="mask-type:luminance" maskUnits="userSpaceOnUse" x="210" y="264" width="13" height="10">
<path d="M220.268 268.56L211.951 273.346C210.981 273.905 210.194 273.572 210.194 272.604C210.194 271.636 210.981 270.399 211.951 269.84L220.268 265.054C221.238 264.495 222.025 264.829 222.025 265.796C222.025 266.764 221.238 268.001 220.268 268.56Z" fill="white"/>
</mask>
<g mask="url(#mask0_1276_1089)">
<path d="M208.783 269.872L207.63 270.539L211.735 272.905L212.888 272.238L208.783 269.872ZM211.326 268.399L210.173 269.066L214.278 271.432L215.431 270.765L211.326 268.399ZM213.879 266.936L212.726 267.603L216.831 269.969L217.984 269.302L213.879 266.936ZM216.422 265.474L215.269 266.141L219.374 268.507L220.527 267.84L216.422 265.474Z" fill="#17898C"/>
</g>
<path d="M124.373 214.843C106.725 225.017 90.7357 225.963 79.1963 219.263L95.6704 228.824C107.21 235.524 123.199 234.577 140.847 224.404C147.14 220.78 153.227 216.22 158.959 210.95L142.485 201.39C136.742 206.66 130.666 211.219 124.373 214.843Z" fill="url(#paint3_linear_1276_1089)"/>
<path d="M201.777 136.359C203.34 129.1 204.158 121.917 204.137 114.991C204.083 95.0096 197.015 80.9539 185.616 74.3401L169.142 64.7797C180.541 71.3935 187.609 85.4492 187.663 105.43C187.684 112.356 186.855 119.54 185.303 126.799L175.466 121.088C179.205 141.425 179.022 157.104 178.268 171.009C196.606 158.233 206.755 147.307 211.647 142.07L201.788 136.349L201.777 136.359Z" fill="#1B52AE"/>
<path d="M167.58 70.1138C174.314 69.8772 180.423 71.3183 185.627 74.3402L169.153 64.7798C166.028 62.9623 162.559 61.7256 158.842 61.0588C151.655 59.7683 144.178 60.8545 137.379 63.0914C133.08 64.5217 128.609 66.5112 124.03 69.1567C106.769 79.1043 91.1894 95.9346 79.79 115.26L96.2641 124.82C107.663 105.495 123.243 88.6755 140.439 78.7602C148.574 74.0498 158.131 70.4149 167.58 70.1138Z" fill="url(#paint4_linear_1276_1089)"/>
<path d="M78.7769 203.487L88.6355 209.208C84.3581 201.691 76.385 187.689 71.4288 161.374C66.645 166.761 59.4261 174.902 52.4658 188.227L62.3029 193.937C65.018 205.874 70.9763 214.51 79.1971 219.274L95.6712 228.835C87.4504 224.07 81.4921 215.435 78.7769 203.498V203.487Z" fill="#1B52AE"/>
<path d="M167.473 109.732L147.238 98.2789L110.497 119.454C108.429 120.648 106.77 123.519 106.78 125.885L106.813 204.67C106.813 207.014 108.493 207.993 110.551 206.799L163.734 176.15C165.781 174.967 167.462 172.074 167.451 169.719V109.743L167.473 109.732Z" fill="#CCCDCE"/>
<path d="M147.238 98.2789L167.505 109.711L147.238 121.422V98.2789Z" fill="#CCCDCE"/>
<path style="mix-blend-mode:screen" d="M11.8252 0.932265C11.8252 0.932265 11.8252 196.518 11.8252 196.551C11.8467 198.217 12.6871 199.863 14.3356 200.82L154.392 281.498C155.448 282.111 156.752 282.111 157.808 281.498L246.341 230.458C246.901 230.136 247.192 229.566 247.203 228.996C247.203 228.985 247.203 33.4421 247.203 33.4314L11.8252 0.921509V0.932265Z" fill="url(#paint5_linear_1276_1089)"/>
<defs>
<linearGradient id="paint0_linear_1276_1089" x1="157.743" y1="245.773" x2="181.027" y2="245.773" gradientUnits="userSpaceOnUse">
<stop stop-color="#6F99B8"/>
<stop offset="1" stop-color="#8372B9"/>
</linearGradient>
<linearGradient id="paint1_linear_1276_1089" x1="29.3872" y1="211.058" x2="37.7138" y2="225.493" gradientUnits="userSpaceOnUse">
<stop offset="0.62" stop-color="#CCCBCE"/>
<stop offset="0.86" stop-color="#CCCDCE"/>
<stop offset="1" stop-color="#8372B9"/>
</linearGradient>
<linearGradient id="paint2_linear_1276_1089" x1="47.2846" y1="221.371" x2="55.6005" y2="235.806" gradientUnits="userSpaceOnUse">
<stop offset="0.62" stop-color="#CCCBCE"/>
<stop offset="0.86" stop-color="#CCCDCE"/>
<stop offset="1" stop-color="#8372B9"/>
</linearGradient>
<linearGradient id="paint3_linear_1276_1089" x1="149.79" y1="199.11" x2="76.2802" y2="241.267" gradientUnits="userSpaceOnUse">
<stop stop-color="#CCCDCE"/>
<stop offset="0.53" stop-color="#C9CDC7"/>
<stop offset="1" stop-color="#C6CEBD"/>
</linearGradient>
<linearGradient id="paint4_linear_1276_1089" x1="79.7793" y1="92.6653" x2="185.616" y2="92.6653" gradientUnits="userSpaceOnUse">
<stop stop-color="#CCCDCE"/>
<stop offset="0.53" stop-color="#C9CDC7"/>
<stop offset="1" stop-color="#C6CEBD"/>
</linearGradient>
<linearGradient id="paint5_linear_1276_1089" x1="132.563" y1="51.5414" x2="122.087" y2="270.423" gradientUnits="userSpaceOnUse">
<stop offset="0.01" stop-color="white" stop-opacity="0"/>
<stop offset="0.16" stop-color="#FBFAFD" stop-opacity="0.02"/>
<stop offset="0.31" stop-color="#EFEEF7" stop-opacity="0.09"/>
<stop offset="0.46" stop-color="#DCDAED" stop-opacity="0.21"/>
<stop offset="0.61" stop-color="#C2BDE0" stop-opacity="0.38"/>
<stop offset="0.77" stop-color="#9F99CE" stop-opacity="0.59"/>
<stop offset="0.92" stop-color="#766CB9" stop-opacity="0.84"/>
<stop offset="1" stop-color="#5D52AD"/>
</linearGradient>
</defs>
</svg>
