<svg width="642" height="475" viewBox="0 0 642 475" fill="none" xmlns="http://www.w3.org/2000/svg">
<g clip-path="url(#clip0_2870_3969)">
<path d="M283.2 288.343C283.285 288.343 283.371 288.361 283.457 288.412L379.396 343.84L475.335 399.268C475.335 399.268 475.661 399.715 475.524 399.972C475.386 400.212 475.078 400.298 474.82 400.161L283.2 289.459L39.4465 430.277C39.2922 430.363 39.1036 430.363 38.9321 430.277L-123.484 336.444L-230.63 398.342C-230.87 398.479 -231.179 398.393 -231.333 398.153C-231.487 397.913 -231.385 397.604 -231.145 397.449L-123.742 335.397C-123.587 335.312 -123.399 335.312 -123.227 335.397L39.1893 429.23L282.942 288.412C282.942 288.412 283.114 288.343 283.2 288.343Z" fill="#42E8E0"/>
<path d="M-98.5336 377.254C-98.4478 377.254 -98.3621 377.237 -98.2763 377.185L41.778 296.274L128.585 346.434C128.74 346.52 128.945 346.52 129.1 346.434L469.658 149.673C469.812 149.587 469.915 149.415 469.915 149.227C469.915 149.038 469.812 148.883 469.658 148.78L295.529 48.169C295.289 48.0318 294.98 48.1176 294.826 48.3578C294.689 48.598 294.774 48.9069 295.014 49.0614L468.389 149.227L128.842 345.387L42.0352 295.227C41.8808 295.142 41.6751 295.142 41.5207 295.227L-98.7908 376.31C-99.0309 376.448 -99.1166 376.756 -98.9794 377.014C-98.8937 377.168 -98.7222 377.271 -98.5336 377.271V377.254Z" fill="#42E8E0"/>
<path d="M216.971 444.986C217.056 444.986 217.142 444.968 217.228 444.917L321.184 384.856C321.338 384.77 321.441 384.598 321.441 384.409C321.441 384.221 321.338 384.066 321.184 383.963L191.882 309.264C191.642 309.127 191.333 309.213 191.179 309.453C191.042 309.693 191.127 310.002 191.367 310.156L319.898 384.409L216.713 444.025C216.473 444.162 216.387 444.471 216.525 444.728C216.61 444.883 216.782 444.986 216.971 444.986Z" fill="#42E8E0"/>
<path d="M64.9117 475C64.9975 475 65.0832 474.983 65.169 474.931L626.844 150.428C627.084 150.291 627.17 149.982 627.032 149.724C626.895 149.484 626.587 149.398 626.329 149.536L64.6545 474.056C64.4144 474.193 64.3287 474.502 64.4659 474.76C64.5516 474.914 64.7231 475.017 64.9117 475.017V475Z" fill="#42E8E0"/>
<path d="M404.355 336.722C404.441 336.722 404.526 336.704 404.612 336.653L552.023 251.486C552.178 251.4 552.28 251.228 552.28 251.04C552.28 250.851 552.178 250.696 552.023 250.594L422.721 175.894C422.481 175.757 422.172 175.843 422.018 176.083C421.881 176.323 421.967 176.632 422.207 176.787L550.737 251.057L404.338 335.64L53.2158 132.753C52.9758 132.616 52.6671 132.702 52.5127 132.942C52.3755 133.182 52.4613 133.491 52.7014 133.645L404.098 336.67C404.098 336.67 404.269 336.739 404.355 336.739V336.722Z" fill="#42E8E0"/>
<path opacity="0.3" d="M501.263 152.213L545.832 126.473L501.263 100.732L456.71 126.473L501.263 152.213Z" fill="#42E8E0"/>
<path opacity="0.5" d="M501.263 122.56L545.832 96.819L501.263 71.0784L456.71 96.819L501.263 122.56Z" fill="#42E8E0"/>
<path opacity="0.7" d="M501.263 98.7923L545.832 73.0517L501.263 47.2939L456.71 73.0517L501.263 98.7923Z" fill="#42E8E0"/>
<path d="M501.263 100.063C501.486 100.063 501.692 100.011 501.898 99.891L546.45 74.1503C546.845 73.9273 547.085 73.4983 547.085 73.0521C547.085 72.6059 546.845 72.1769 546.45 71.9538L501.898 46.2132C501.503 45.9901 501.023 45.9901 500.629 46.2132L456.076 71.9538C455.681 72.1769 455.441 72.6059 455.441 73.0521C455.441 73.4983 455.681 73.9273 456.076 74.1503L500.629 99.891C500.817 100.011 501.04 100.063 501.263 100.063ZM543.295 73.0521L501.263 97.3341L459.231 73.0521L501.263 48.7701L543.295 73.0521Z" fill="#42E8E0"/>
<path opacity="0.7" d="M146.797 440.748L191.367 414.99L146.797 389.25L102.244 414.99L146.797 440.748Z" fill="#42E8E0"/>
<path d="M146.797 442C147.02 442 147.225 441.949 147.431 441.829L191.984 416.088C192.378 415.865 192.618 415.436 192.618 414.99C192.618 414.544 192.378 414.115 191.984 413.892L147.431 388.151C147.037 387.928 146.557 387.928 146.162 388.151L101.593 413.892C101.198 414.115 100.958 414.544 100.958 414.99C100.958 415.436 101.198 415.865 101.593 416.088L146.145 441.829C146.334 441.949 146.557 442 146.78 442H146.797ZM188.828 414.99L146.797 439.272L104.765 414.99L146.797 390.708L188.828 414.99Z" fill="#42E8E0"/>
<path opacity="0.7" d="M39.8397 389.028L63.2306 375.523L39.8397 362.017L16.4658 375.523L39.8397 389.028Z" fill="#42E8E0"/>
<path opacity="0.5" d="M39.8397 375.523L63.2306 362.018L39.8397 348.512L16.4658 362.018L39.8397 375.523Z" fill="#42E8E0"/>
<path opacity="0.3" d="M39.8397 362.018L63.2306 348.512L39.8397 335.007L16.4658 348.512L39.8397 362.018Z" fill="#42E8E0"/>
<path d="M39.8401 390.298C40.063 390.298 40.2688 390.247 40.4746 390.127L63.8484 376.621C64.2429 376.398 64.4829 375.969 64.4829 375.523C64.4829 375.077 64.2429 374.648 63.8484 374.425L40.4746 360.92C40.0802 360.696 39.6 360.696 39.2056 360.92L15.8318 374.425C15.4374 374.648 15.1973 375.077 15.1973 375.523C15.1973 375.969 15.4374 376.398 15.8318 376.621L39.2056 390.127C39.3942 390.247 39.6172 390.298 39.8401 390.298ZM60.6931 375.523L39.8401 387.57L18.9872 375.523L39.8401 363.476L60.6931 375.523Z" fill="#42E8E0"/>
<path opacity="0.7" d="M559.945 333.821L583.319 320.299L559.945 306.793L536.571 320.316L559.945 333.821Z" fill="#42E8E0"/>
<path d="M559.946 335.074C560.169 335.074 560.374 335.022 560.58 334.902L583.954 321.397C584.348 321.174 584.588 320.745 584.588 320.299C584.588 319.852 584.348 319.423 583.954 319.2L560.58 305.695C560.186 305.472 559.705 305.472 559.311 305.695L535.937 319.2C535.543 319.423 535.303 319.852 535.303 320.299C535.303 320.745 535.543 321.174 535.937 321.397L559.311 334.902C559.5 335.022 559.723 335.074 559.946 335.074ZM580.799 320.316L559.946 332.362L539.093 320.316L559.946 308.269L580.799 320.316Z" fill="#42E8E0"/>
<path opacity="0.1" d="M360.522 33.8746C360.522 11.6348 344.916 2.62554 325.675 13.7455C306.435 24.8654 290.829 51.8931 290.829 74.133C290.829 96.3728 306.435 105.382 325.675 94.2621C344.916 83.1422 360.522 56.1145 360.522 33.8746Z" fill="url(#paint0_linear_2870_3969)"/>
<path opacity="0.3" d="M375.87 42.6781C375.87 20.4382 360.265 11.429 341.024 22.5489C321.783 33.6689 306.178 60.6965 306.178 82.9364C306.178 105.176 321.783 114.186 341.024 103.066C360.265 91.9456 375.87 64.918 375.87 42.6781Z" fill="url(#paint1_linear_2870_3969)"/>
<path opacity="0.48" d="M391.219 51.4635C391.219 29.2236 375.614 20.2144 356.373 31.3344C337.132 42.4543 321.526 69.4819 321.526 91.7218C321.526 113.962 337.132 122.971 356.373 111.851C375.614 100.731 391.219 73.7034 391.219 51.4635Z" fill="url(#paint2_linear_2870_3969)"/>
<path d="M391.322 182.363C394.306 180.647 394.306 177.85 391.322 176.134C388.338 174.418 383.52 174.418 380.536 176.134C377.552 177.85 377.552 180.647 380.536 182.363C383.52 184.079 388.338 184.079 391.322 182.363Z" fill="url(#paint3_linear_2870_3969)"/>
<path d="M391.323 182.003C388.339 183.719 383.52 183.719 380.536 182.003C379.13 181.196 378.393 180.132 378.324 179.068C378.238 180.252 378.976 181.454 380.536 182.363C383.52 184.079 388.339 184.079 391.323 182.363C392.901 181.454 393.621 180.252 393.535 179.068C393.449 180.132 392.729 181.179 391.323 182.003Z" fill="white"/>
<path d="M391.322 197.19C394.306 195.474 394.306 192.677 391.322 190.961C388.338 189.245 383.52 189.245 380.536 190.961C377.552 192.677 377.552 195.474 380.536 197.19C383.52 198.907 388.338 198.907 391.322 197.19Z" fill="url(#paint4_linear_2870_3969)"/>
<path d="M391.322 212.257C394.306 210.541 394.306 207.744 391.322 206.028C388.338 204.312 383.52 204.312 380.536 206.028C377.552 207.744 377.552 210.541 380.536 212.257C383.52 213.973 388.338 213.973 391.322 212.257Z" fill="url(#paint5_linear_2870_3969)"/>
<path d="M378.306 179.257V171.552C378.306 172.685 379.044 173.8 380.536 174.658C383.519 176.374 388.338 176.374 391.322 174.658C392.763 173.818 393.5 172.736 393.551 171.655V139.051H378.306V235.097C378.306 239.302 381.719 242.717 385.92 242.717C390.122 242.717 393.534 239.302 393.534 235.097V209.065C393.586 210.232 392.848 211.399 391.305 212.274C388.321 213.99 383.502 213.99 380.518 212.274C379.026 211.416 378.289 210.301 378.289 209.168V201.446C378.289 202.578 379.026 203.694 380.518 204.552C383.502 206.268 388.321 206.268 391.305 204.552C392.746 203.711 393.483 202.63 393.534 201.549V193.981C393.586 195.148 392.848 196.315 391.305 197.19C388.321 198.906 383.502 198.906 380.518 197.19C379.026 196.332 378.289 195.217 378.289 194.084V186.362C378.289 187.494 379.026 188.61 380.518 189.468C383.502 191.184 388.321 191.184 391.305 189.468C392.746 188.627 393.483 187.546 393.534 186.465V179.154C393.586 180.321 392.848 181.488 391.305 182.363C388.321 184.079 383.502 184.079 380.518 182.363C379.026 181.505 378.289 180.39 378.289 179.257H378.306Z" fill="url(#paint6_linear_2870_3969)"/>
<path d="M391.323 196.812C388.339 198.528 383.52 198.528 380.536 196.812C379.13 196.006 378.393 194.942 378.324 193.878C378.238 195.062 378.976 196.263 380.536 197.172C383.52 198.889 388.339 198.889 391.323 197.172C392.901 196.263 393.621 195.062 393.535 193.878C393.449 194.942 392.729 195.988 391.323 196.812Z" fill="white"/>
<path d="M391.323 211.879C388.339 213.596 383.52 213.596 380.536 211.879C379.13 211.073 378.393 210.009 378.324 208.945C378.238 210.129 378.976 211.348 380.536 212.24C383.52 213.956 388.339 213.956 391.323 212.24C392.901 211.33 393.621 210.129 393.535 208.945C393.449 210.009 392.729 211.056 391.323 211.879Z" fill="white"/>
<path opacity="0.48" d="M391.322 174.659C388.338 176.375 383.519 176.375 380.535 174.659C379.043 173.8 378.306 172.668 378.306 171.552V179.258C378.306 180.39 379.06 181.506 380.535 182.364C383.519 184.08 388.338 184.08 391.322 182.364C392.848 181.471 393.585 180.304 393.551 179.155V171.655C393.5 172.754 392.762 173.835 391.322 174.659Z" fill="url(#paint7_linear_2870_3969)"/>
<path opacity="0.48" d="M391.322 189.485C388.338 191.201 383.519 191.201 380.535 189.485C379.043 188.627 378.306 187.495 378.306 186.379V194.084C378.306 195.217 379.06 196.332 380.535 197.19C383.519 198.906 388.338 198.906 391.322 197.19C392.848 196.298 393.585 195.131 393.551 193.981V186.482C393.5 187.58 392.762 188.662 391.322 189.485Z" fill="url(#paint8_linear_2870_3969)"/>
<path opacity="0.48" d="M391.322 204.551C388.338 206.268 383.519 206.268 380.535 204.551C379.043 203.693 378.306 202.561 378.306 201.445V209.15C378.306 210.283 379.06 211.398 380.535 212.256C383.519 213.973 388.338 213.973 391.322 212.256C392.848 211.364 393.585 210.197 393.551 209.047V201.548C393.5 202.647 392.762 203.728 391.322 204.551Z" fill="url(#paint9_linear_2870_3969)"/>
<path d="M358.379 127.175C358.036 126.987 357.676 126.781 357.35 126.558L353.629 105.433L358.31 77.4103L371.292 63.253L384.668 50.2625L405.967 41.4249L406.533 41.2019C407.545 41.7167 408.488 42.3344 409.38 43.038C414.713 42.3688 420.029 41.6995 425.362 41.0474C424.47 38.8509 423.407 36.8431 422.155 35.0928L424.711 34.0974L415.176 28.6061C415.056 28.5375 414.953 28.4688 414.833 28.4174L414.473 28.2114H414.456C406.258 23.8012 395.095 24.5906 382.782 31.7121C357.607 46.2642 337.2 81.6318 337.2 110.736C337.2 125.168 342.225 135.344 350.37 140.149L350.439 140.183C350.525 140.235 350.628 140.286 350.713 140.338L360.848 146.138L360.334 143.186C361.603 143.289 362.906 143.289 364.227 143.22C361.414 138.261 357.624 132.77 358.43 127.21L358.379 127.175Z" fill="url(#paint10_linear_2870_3969)"/>
<path d="M428.312 59.2031C428.312 58.8084 428.329 58.4137 428.329 58.019C428.329 51.4294 427.248 45.7493 425.328 41.0474C419.994 41.7166 414.678 42.3859 409.345 43.038C414.473 47.0878 417.559 54.3467 417.559 64.2311C417.559 86.471 401.954 113.499 382.713 124.619C373.23 130.093 364.638 130.676 358.344 127.193C357.538 132.753 361.328 138.244 364.141 143.203C368.377 142.946 372.938 141.779 377.723 139.617L376.214 141.316C376.214 141.316 395.18 134.726 395.557 134.314C395.935 133.902 418.022 111.594 418.022 111.594L432.444 80.482L428.26 59.2374L428.312 59.2031Z" fill="url(#paint11_linear_2870_3969)"/>
<path opacity="0.5" d="M423.802 68.8471C423.802 46.6072 408.197 37.598 388.956 48.7179C369.715 59.8378 354.109 86.8655 354.109 109.105C354.109 131.345 369.715 140.354 388.956 129.235C408.197 118.115 423.802 91.0869 423.802 68.8471Z" fill="url(#paint12_linear_2870_3969)"/>
<path opacity="0.48" d="M420.766 67.1993C420.766 44.9595 405.161 35.9502 385.92 47.0702C366.679 58.1901 351.073 85.2178 351.073 107.458C351.073 129.698 366.679 138.707 385.92 127.587C405.161 116.467 420.766 89.4392 420.766 67.1993Z" fill="url(#paint13_linear_2870_3969)"/>
<path d="M438.361 63.8026C438.361 92.8895 417.954 128.274 392.78 142.826C367.605 157.378 347.198 145.589 347.198 116.485C347.198 87.381 367.605 52.0134 392.78 37.4614C417.954 22.9093 438.361 34.6985 438.361 63.8026ZM427.609 70.0146C427.609 47.7748 412.004 38.7655 392.763 49.8855C373.522 61.0054 357.916 88.0331 357.916 110.273C357.916 132.513 373.522 141.522 392.763 130.402C412.004 119.282 427.609 92.2545 427.609 70.0146Z" fill="#BCBEFF"/>
<path d="M438.361 63.8026C438.361 92.8895 417.954 128.274 392.78 142.826C367.605 157.378 347.198 145.589 347.198 116.485C347.198 87.381 367.605 52.0134 392.78 37.4614C417.954 22.9093 438.361 34.6985 438.361 63.8026ZM427.609 70.0146C427.609 47.7748 412.004 38.7655 392.763 49.8855C373.522 61.0054 357.916 88.0331 357.916 110.273C357.916 132.513 373.522 141.522 392.763 130.402C412.004 119.282 427.609 92.2545 427.609 70.0146Z" fill="#BCBEFF"/>
<path d="M347.867 117.257C347.867 88.1699 368.274 52.7851 393.448 38.2331C408.951 29.2753 422.635 30.3221 430.867 39.2112C422.721 29.6014 408.693 28.2457 392.762 37.4437C367.588 51.9957 347.181 87.3633 347.181 116.467C347.181 127.656 350.199 136.27 355.361 141.83C350.645 136.253 347.884 127.931 347.884 117.257H347.867Z" fill="white"/>
<path d="M393.466 131.173C412.707 120.053 428.312 93.0258 428.312 70.7859C428.312 62.1714 425.963 55.5475 421.984 51.3088C425.551 55.5646 427.626 61.8968 427.626 69.9965C427.626 92.2364 412.021 119.264 392.78 130.384C380.998 137.197 370.572 136.442 364.278 129.732C370.503 137.162 381.238 138.226 393.483 131.173H393.466Z" fill="white"/>
<path d="M258.487 398.344C261.385 398.344 264.283 397.589 266.873 396.096L458.236 285.549C459.214 284.983 459.78 283.987 459.78 282.855C459.78 281.722 459.196 280.727 458.219 280.161L339.326 211.467C339.172 211.382 338.966 211.382 338.812 211.467L139.32 326.717C138.342 327.283 137.776 328.278 137.776 329.411C137.776 330.543 138.359 331.539 139.32 332.105L250.084 396.096C252.673 397.589 255.572 398.344 258.47 398.344H258.487ZM339.069 212.497L457.722 281.053C458.373 281.43 458.768 282.1 458.768 282.855C458.768 283.61 458.373 284.279 457.722 284.657L266.358 395.204C261.505 398.018 255.469 398.018 250.598 395.204L139.834 331.213C139.183 330.835 138.788 330.166 138.788 329.411C138.788 328.656 139.183 327.987 139.834 327.609L339.069 212.497Z" fill="#42E8E0"/>
<path d="M332.862 161.29L306.195 3.02003L308.339 2.11053L305.115 0.257205C304.498 -0.137484 303.606 -0.120324 302.628 0.44597L89.5715 123.538C87.8223 124.55 86.5019 127.141 86.8106 128.96L113.683 288.483C113.82 289.307 114.232 289.873 114.797 290.114L117.953 291.933L118.502 288.981L118.33 289.033L330.101 166.679C331.85 165.666 333.17 163.075 332.862 161.256V161.29Z" fill="url(#paint14_linear_2870_3969)"/>
<path d="M90.7719 127.879L87.2736 126.335C86.8792 127.227 86.6905 128.171 86.8277 128.977L113.7 288.501C113.837 289.324 114.249 289.891 114.815 290.131L117.97 291.95L118.519 288.998L118.347 289.05L129.065 282.855L90.8062 127.879H90.7719Z" fill="url(#paint15_linear_2870_3969)"/>
<path d="M333.427 168.618L120.371 291.709C118.724 292.653 117.318 292.104 117.026 290.405L90.1543 130.882C89.8456 129.063 91.1661 126.472 92.9153 125.459L305.989 2.36791C307.635 1.42409 309.042 1.97323 309.333 3.67211L336.205 163.195C336.514 165.014 335.194 167.605 333.444 168.618H333.427Z" fill="#24126A"/>
<g opacity="0.51">
<path d="M303.194 12.5608L97.8203 131.208L123.303 281.447L328.54 162.886L303.194 12.5608Z" fill="#453C9E"/>
</g>
<path d="M467.36 244.158L455.733 250.233L339.138 182.878C337.183 181.745 333.788 181.9 331.524 183.187L130.437 299.363C128.517 298.282 119.736 294.06 119.736 294.06L123.989 305.163C124.161 305.661 124.538 306.124 125.172 306.484L247.975 377.426C249.93 378.558 253.326 378.404 255.589 377.117L461.358 258.229C462.284 257.697 462.85 257.045 463.09 256.393L467.325 244.175L467.36 244.158Z" fill="url(#paint16_linear_2870_3969)"/>
<path d="M465.559 246.063L254.663 367.902C252.348 369.24 248.867 369.377 246.861 368.228L121.006 295.519C118.999 294.369 119.256 292.344 121.572 291.006L332.468 169.167C334.783 167.828 338.264 167.691 340.27 168.841L466.125 241.55C468.132 242.699 467.874 244.724 465.559 246.063Z" fill="url(#paint17_linear_2870_3969)"/>
<path d="M191.059 341.543V339.226C191.059 339.003 191.196 338.9 191.35 339.003L199.513 343.722C199.684 343.825 199.804 344.066 199.804 344.289V346.605C199.804 346.828 199.667 346.931 199.513 346.828L191.35 342.109C191.179 342.006 191.059 341.766 191.059 341.543Z" fill="#2842A2"/>
<path d="M203.251 348.596V346.279C203.251 346.056 203.388 345.953 203.543 346.056L211.705 350.776C211.877 350.879 211.997 351.119 211.997 351.342V353.658C211.997 353.882 211.86 353.985 211.705 353.882L203.543 349.162C203.371 349.059 203.251 348.819 203.251 348.596Z" fill="#2842A2"/>
<path d="M153.828 288.707L329.089 187.46C330.255 186.791 331.695 186.791 332.862 187.46L395.266 223.6C396.158 224.115 396.158 225.419 395.266 225.934L220.091 327.146C218.925 327.815 217.484 327.815 216.318 327.146L153.828 291.058C152.936 290.543 152.936 289.239 153.828 288.724V288.707Z" fill="#ADB1F2"/>
<path d="M153.828 291.04L154.463 291.4L329.089 190.514C330.255 189.845 331.696 189.845 332.862 190.514L394.649 226.276L395.284 225.916C396.175 225.401 396.175 224.097 395.284 223.582L332.879 187.442C331.713 186.773 330.272 186.773 329.106 187.442L153.846 288.689C152.954 289.204 152.954 290.508 153.846 291.023L153.828 291.04Z" fill="#9198DB"/>
<path d="M337.578 196.607L185.348 284.571L178.574 280.658L330.804 192.711L337.578 196.607Z" fill="#24126A"/>
<path d="M354.16 206.199L211.379 288.689L204.605 284.777L347.404 202.287L354.16 206.199Z" fill="#24126A"/>
<path d="M364.982 212.446L196.855 309.574L190.099 305.661L358.208 208.534L364.982 212.446Z" fill="#24126A"/>
<path d="M375.785 218.692L207.658 315.82L200.901 311.907L369.011 214.78L375.785 218.692Z" fill="#24126A"/>
<path d="M386.589 224.939L218.479 322.067L211.705 318.154L379.815 221.026L386.589 224.939Z" fill="#24126A"/>
<path d="M176.139 289.874L169.382 293.786L162.608 289.874L169.382 285.961L176.139 289.874Z" fill="#24126A"/>
<path d="M200.01 295.262L185.965 303.379L179.191 299.466L193.253 291.349L200.01 295.262Z" fill="#24126A"/>
<path d="M335.829 313.211L383.091 285.909C384.943 284.845 384.943 283.112 383.091 282.048L350.783 263.377C348.93 262.313 345.947 262.313 344.095 263.377L296.832 290.68C294.98 291.744 294.98 293.477 296.832 294.541L329.141 313.211C330.993 314.275 333.977 314.275 335.829 313.211Z" fill="url(#paint18_linear_2870_3969)"/>
<path d="M296.833 292.258L344.095 264.956C345.947 263.892 348.931 263.892 350.783 264.956L383.091 283.627C383.657 283.953 384.035 284.347 384.257 284.776C384.738 283.85 384.378 282.786 383.091 282.048L350.783 263.377C348.931 262.313 345.947 262.313 344.095 263.377L296.833 290.68C295.564 291.418 295.187 292.464 295.667 293.408C295.89 292.996 296.25 292.602 296.833 292.258Z" fill="#9198DB"/>
<g opacity="0.11">
<mask id="mask0_2870_3969" style="mask-type:luminance" maskUnits="userSpaceOnUse" x="97" y="12" width="232" height="270">
<path d="M303.194 12.5608L97.8203 131.208L123.303 281.447L328.54 162.886L303.194 12.5608Z" fill="white"/>
</mask>
<g mask="url(#mask0_2870_3969)">
<path d="M332.691 168.927L121.795 290.765C119.48 292.104 115.999 292.241 113.993 291.091L-11.8626 218.383C-13.869 217.233 -13.6117 215.208 -11.2967 213.87L199.599 92.0307C201.914 90.6922 205.396 90.5549 207.402 91.7047L333.257 164.413C335.264 165.563 335.006 167.588 332.691 168.927Z" fill="url(#paint19_linear_2870_3969)"/>
<path d="M121.161 190.772L168.423 163.469C170.275 162.406 170.275 160.672 168.423 159.608L136.115 140.938C134.263 139.874 131.279 139.874 129.427 140.938L82.1644 168.24C80.3124 169.304 80.3124 171.037 82.1644 172.101L114.473 190.772C116.325 191.836 119.309 191.836 121.161 190.772Z" fill="url(#paint20_linear_2870_3969)"/>
<path d="M82.1649 169.819L129.427 142.517C131.279 141.453 134.263 141.453 136.115 142.517L168.423 161.187C168.989 161.513 169.367 161.908 169.59 162.337C170.07 161.41 169.71 160.347 168.423 159.609L136.115 140.938C134.263 139.874 131.279 139.874 129.427 140.938L82.1649 168.24C80.8959 168.978 80.5186 170.025 80.9988 170.969C81.2217 170.557 81.5818 170.162 82.1649 169.819Z" fill="#9198DB"/>
<path d="M61.3973 233.432L236.658 132.186C237.824 131.517 239.265 131.517 240.431 132.186L302.835 168.308C303.727 168.823 303.727 170.127 302.835 170.642L127.66 271.854C126.494 272.524 125.054 272.524 123.888 271.854L61.3973 235.766C60.5056 235.251 60.5056 233.947 61.3973 233.432Z" fill="#ADB1F2"/>
<path d="M61.3977 235.766L62.0323 236.126L236.659 135.24C237.825 134.571 239.265 134.571 240.431 135.24L302.218 171.003L302.853 170.642C303.745 170.127 303.745 168.823 302.853 168.308L240.448 132.186C239.282 131.517 237.842 131.517 236.676 132.186L61.4149 233.432C60.5232 233.947 60.5232 235.251 61.4149 235.766H61.3977Z" fill="#9198DB"/>
<path d="M286.492 165.855L133.816 254.059L139.87 257.56L292.546 169.339L286.492 165.855Z" fill="#24126A"/>
<path d="M270.406 156.553L125.293 240.399L131.346 243.883L276.46 160.054L270.406 156.553Z" fill="#24126A"/>
<path d="M114.456 246.663L100.908 254.488L106.945 257.989L120.509 250.146L114.456 246.663Z" fill="#24126A"/>
<path d="M126.426 258.332L116.994 263.772L123.031 267.273L132.479 261.816L126.426 258.332Z" fill="#24126A"/>
<path d="M260.323 150.736L90.8242 248.671L96.8777 252.154L266.377 154.22L260.323 150.736Z" fill="#24126A"/>
<path d="M250.239 144.902L80.7402 242.836L86.7938 246.337L256.293 148.402L250.239 144.902Z" fill="#24126A"/>
<path d="M240.173 139.084L70.6572 237.019L76.7108 240.502L246.21 142.585L240.173 139.084Z" fill="#24126A"/>
</g>
</g>
<path opacity="0.42" d="M235.045 279.697L189.601 251.725L291.756 192.711L339.961 225.127L235.045 279.697Z" fill="url(#paint21_radial_2870_3969)"/>
<path opacity="0.42" d="M189.601 251.726L179.191 185.933L275.053 130.916V202.218L189.601 251.726Z" fill="url(#paint22_radial_2870_3969)"/>
<path opacity="0.96" d="M336.559 368.004L436.245 310.413C423.384 302.983 412.546 286.715 409.236 271.167C407.898 264.87 404.04 259.395 398.467 256.169L323.149 212.65C302.176 200.535 288.577 178.707 287.136 154.511C285.936 134.073 270.502 113.978 258.515 107.062L158.829 164.653C170.627 171.466 183.626 190.531 185.101 210.626C186.885 234.822 200.038 256.718 221.028 268.851L298.763 313.76C304.337 316.986 308.195 322.46 309.533 328.758C312.843 344.305 323.681 360.573 336.542 368.004H336.559Z" fill="url(#paint23_linear_2870_3969)"/>
<g opacity="0.32">
<path d="M227.133 179.583L214.22 187.048V185.606L227.133 178.141V179.583Z" fill="#4553C7"/>
<path d="M233.752 175.756L229.104 178.45V177.009L233.752 174.315V175.756Z" fill="#4553C7"/>
<path d="M238.897 172.804L235.725 174.623V173.182L238.897 171.363V172.804Z" fill="#4553C7"/>
<path d="M221.251 186.276L214.22 190.343V188.901L221.251 184.834V186.276Z" fill="#4553C7"/>
<path d="M231.849 180.149L223.223 185.143V183.701L231.849 178.707V180.149Z" fill="#4553C7"/>
<path d="M236.994 177.18L233.821 179.017V177.575L236.994 175.739V177.18Z" fill="#4553C7"/>
<path d="M241.881 174.366L238.708 176.185V174.744L241.881 172.925V174.366Z" fill="#4553C7"/>
<path d="M219.313 190.686L214.22 193.637V192.196L219.313 189.244V190.686Z" fill="#4553C7"/>
<path d="M223.017 188.541L221.285 189.553V188.112L223.017 187.099V188.541Z" fill="#4553C7"/>
<path d="M228.162 185.572L224.989 187.408V185.966L228.162 184.147V185.572Z" fill="#4553C7"/>
<path d="M233.015 186.069L214.22 196.932V195.49L233.015 184.628V186.069Z" fill="#4553C7"/>
<path d="M239.635 182.243L234.987 184.92V183.479L239.635 180.802V182.243Z" fill="#4553C7"/>
<path d="M219.313 197.275L214.22 200.209V198.768L219.313 195.833V197.275Z" fill="#4553C7"/>
<path d="M231.266 190.36L221.285 196.126V194.684L231.266 188.935V190.36Z" fill="#4553C7"/>
<path d="M236.394 187.408L233.238 189.227V187.785L236.394 185.966V187.408Z" fill="#4553C7"/>
<path d="M224.629 197.481L214.22 203.505V202.063L224.629 196.04V197.481Z" fill="#4553C7"/>
<path d="M234.146 191.989L226.601 196.348V194.907L234.146 190.548V191.989Z" fill="#4553C7"/>
<path d="M241.211 187.906L236.118 190.858V189.416L241.211 186.465V187.906Z" fill="#4553C7"/>
<path d="M217.735 204.757L214.22 206.799V205.358L217.735 203.316V204.757Z" fill="#4553C7"/>
<path d="M224.355 200.93L219.708 203.624V202.183L224.355 199.489V200.93Z" fill="#4553C7"/>
<path d="M233.821 195.473L226.327 199.797V198.356L233.821 194.031V195.473Z" fill="#4553C7"/>
<path d="M224.989 203.865L214.22 210.094V208.653L224.989 202.423V203.865Z" fill="#4553C7"/>
<path d="M237.062 196.88L226.961 202.715V201.273L237.062 195.439V196.88Z" fill="#4553C7"/>
<path d="M242.207 193.911L239.052 195.747V194.306L242.207 192.47V193.911Z" fill="#4553C7"/>
<path d="M247.128 191.063L243.973 192.899V191.458L247.128 189.622V191.063Z" fill="#4553C7"/>
<path d="M220.668 209.648L214.22 213.372V211.93L220.668 208.206V209.648Z" fill="#4553C7"/>
<path d="M253.336 164.447L262.288 159.282V157.841L253.336 163.006V164.447Z" fill="#4553C7"/>
<path d="M255.256 166.627L262.287 162.56V161.135L255.256 165.185V166.627Z" fill="#4553C7"/>
<path d="M257.194 168.806L262.288 165.855V164.413L257.194 167.365V168.806Z" fill="#4553C7"/>
<path d="M254.88 173.422L262.288 169.149V167.708L254.88 171.98V173.422Z" fill="#4553C7"/>
<path d="M257.194 175.378L262.288 172.444V171.003L257.194 173.937V175.378Z" fill="#4553C7"/>
<path d="M255.84 179.462L262.288 175.721V174.28L255.84 178.021V179.462Z" fill="#4553C7"/>
<path d="M258.771 181.059L262.287 179.017V177.575L258.771 179.617V181.059Z" fill="#4553C7"/>
<path d="M255.479 186.259L262.288 182.312V180.87L255.479 184.817V186.259Z" fill="#4553C7"/>
<path d="M255.84 189.33L262.288 185.606V184.165L255.84 187.888V189.33Z" fill="#4553C7"/>
<path d="M225.401 206.92L222.64 208.498V207.057L225.401 205.478V206.92Z" fill="#4553C7"/>
<path d="M233.547 202.2L227.373 205.769V204.345L233.547 200.759V202.2Z" fill="#4553C7"/>
</g>
<path opacity="0.8" d="M258.498 107.062L158.812 164.653C159.618 165.116 160.406 165.614 161.178 166.129L260.847 108.538C260.058 108.023 259.269 107.526 258.48 107.062H258.498Z" fill="#453C9E"/>
<path d="M365.754 166.353H333.96V234.308C333.96 236.659 335.521 239.01 338.624 240.812C344.832 244.399 354.899 244.399 361.106 240.812C364.21 239.01 365.771 236.659 365.771 234.308V166.353H365.754Z" fill="url(#paint24_linear_2870_3969)"/>
<path d="M365.754 166.353H333.96V234.308C333.96 236.659 335.521 239.01 338.624 240.812C344.832 244.399 354.899 244.399 361.106 240.812C364.21 239.01 365.771 236.659 365.771 234.308V166.353H365.754Z" fill="url(#paint25_linear_2870_3969)"/>
<path d="M361.089 172.84C354.881 176.426 344.815 176.426 338.607 172.84C332.399 169.253 332.399 163.436 338.607 159.849C344.815 156.263 354.881 156.263 361.089 159.849C367.297 163.436 367.297 169.253 361.089 172.84Z" fill="url(#paint26_linear_2870_3969)"/>
<path opacity="0.3" d="M357.11 170.54C353.097 172.857 346.598 172.857 342.602 170.54C338.59 168.224 338.59 164.466 342.602 162.149C346.615 159.832 353.115 159.832 357.11 162.149C361.106 164.466 361.123 168.224 357.11 170.54Z" fill="url(#paint27_linear_2870_3969)"/>
<path opacity="0.5" d="M361.089 172.153C354.881 175.74 344.815 175.74 338.607 172.153C335.657 170.454 334.114 168.241 333.976 165.993C333.822 168.464 335.348 170.952 338.607 172.823C344.815 176.409 354.881 176.409 361.089 172.823C364.347 170.935 365.873 168.447 365.719 165.993C365.582 168.224 364.038 170.437 361.089 172.153Z" fill="white"/>
<path d="M365.754 151.578H333.96V157.79C333.96 160.141 335.521 162.492 338.624 164.294C344.832 167.88 354.899 167.88 361.106 164.294C364.21 162.492 365.771 160.141 365.771 157.79V151.578H365.754Z" fill="url(#paint28_linear_2870_3969)"/>
<path d="M365.754 151.578H333.96V157.79C333.96 160.141 335.521 162.492 338.624 164.294C344.832 167.88 354.899 167.88 361.106 164.294C364.21 162.492 365.771 160.141 365.771 157.79V151.578H365.754Z" fill="url(#paint29_linear_2870_3969)"/>
<path d="M361.089 158.082C354.881 161.668 344.815 161.668 338.607 158.082C332.399 154.495 332.399 148.678 338.607 145.091C344.815 141.505 354.881 141.505 361.089 145.091C367.297 148.678 367.297 154.495 361.089 158.082Z" fill="url(#paint30_linear_2870_3969)"/>
<path opacity="0.5" d="M361.089 157.395C354.881 160.982 344.815 160.982 338.607 157.395C335.657 155.697 334.114 153.483 333.976 151.235C333.822 153.706 335.348 156.194 338.607 158.065C344.815 161.651 354.881 161.651 361.089 158.065C364.347 156.177 365.873 153.689 365.719 151.235C365.582 153.466 364.038 155.679 361.089 157.395Z" fill="white"/>
<path d="M339.465 204.174H307.671V249.478C307.671 251.829 309.231 254.18 312.335 255.982C318.543 259.568 328.61 259.568 334.817 255.982C337.921 254.18 339.482 251.829 339.482 249.478V204.174H339.465Z" fill="url(#paint31_linear_2870_3969)"/>
<path d="M339.465 204.174H307.671V249.478C307.671 251.829 309.231 254.18 312.335 255.982C318.543 259.568 328.61 259.568 334.817 255.982C337.921 254.18 339.482 251.829 339.482 249.478V204.174H339.465Z" fill="url(#paint32_linear_2870_3969)"/>
<path d="M334.8 210.661C328.592 214.247 318.526 214.247 312.318 210.661C306.11 207.074 306.11 201.257 312.318 197.67C318.526 194.084 328.592 194.084 334.8 197.67C341.008 201.257 341.008 207.074 334.8 210.661Z" fill="url(#paint33_linear_2870_3969)"/>
<path opacity="0.5" d="M334.8 209.975C328.592 213.561 318.525 213.561 312.318 209.975C309.368 208.276 307.825 206.062 307.687 203.814C307.533 206.285 309.059 208.773 312.318 210.644C318.525 214.23 328.592 214.23 334.8 210.644C338.058 208.756 339.584 206.268 339.43 203.814C339.293 206.045 337.749 208.259 334.8 209.975Z" fill="white"/>
<path d="M313.176 196.144H281.382V264.648C281.382 266.999 282.942 269.35 286.046 271.152C292.254 274.738 302.321 274.738 308.528 271.152C311.632 269.35 313.193 266.999 313.193 264.648V196.144H313.176Z" fill="url(#paint34_linear_2870_3969)"/>
<path d="M313.176 196.144H281.382V264.648C281.382 266.999 282.942 269.35 286.046 271.152C292.254 274.738 302.321 274.738 308.528 271.152C311.632 269.35 313.193 266.999 313.193 264.648V196.144H313.176Z" fill="url(#paint35_linear_2870_3969)"/>
<path d="M308.511 202.63C302.303 206.217 292.237 206.217 286.029 202.63C279.821 199.044 279.821 193.226 286.029 189.64C292.237 186.053 302.303 186.053 308.511 189.64C314.719 193.226 314.719 199.044 308.511 202.63Z" fill="url(#paint36_linear_2870_3969)"/>
<path opacity="0.5" d="M308.511 201.944C302.303 205.53 292.236 205.53 286.028 201.944C283.079 200.245 281.536 198.031 281.398 195.783C281.244 198.254 282.77 200.743 286.028 202.613C292.236 206.2 302.303 206.2 308.511 202.613C311.769 200.726 313.295 198.237 313.141 195.783C313.004 198.014 311.46 200.228 308.511 201.944Z" fill="white"/>
<path d="M286.869 223.669H255.075V279.835C255.075 282.186 256.636 284.537 259.74 286.339C265.948 289.925 276.014 289.925 282.222 286.339C285.326 284.537 286.886 282.186 286.886 279.835V223.669H286.869Z" fill="url(#paint37_linear_2870_3969)"/>
<path d="M286.869 223.669H255.075V279.835C255.075 282.186 256.636 284.537 259.74 286.339C265.948 289.925 276.014 289.925 282.222 286.339C285.326 284.537 286.886 282.186 286.886 279.835V223.669H286.869Z" fill="url(#paint38_linear_2870_3969)"/>
<path d="M282.222 230.156C276.014 233.742 265.948 233.742 259.74 230.156C253.532 226.569 253.532 220.752 259.74 217.165C265.948 213.579 276.014 213.579 282.222 217.165C288.43 220.752 288.43 226.569 282.222 230.156Z" fill="url(#paint39_linear_2870_3969)"/>
<path opacity="0.5" d="M282.222 229.469C276.014 233.056 265.947 233.056 259.739 229.469C256.79 227.77 255.246 225.557 255.109 223.309C254.955 225.78 256.481 228.268 259.739 230.138C265.947 233.725 276.014 233.725 282.222 230.138C285.48 228.251 287.006 225.763 286.852 223.309C286.715 225.539 285.171 227.753 282.222 229.469Z" fill="white"/>
<path d="M260.58 252.687H228.786V295.004C228.786 297.355 230.347 299.706 233.451 301.508C239.658 305.095 249.725 305.095 255.933 301.508C259.037 299.706 260.597 297.355 260.597 295.004V252.687H260.58Z" fill="url(#paint40_linear_2870_3969)"/>
<path d="M260.58 252.687H228.786V295.004C228.786 297.355 230.347 299.706 233.451 301.508C239.658 305.095 249.725 305.095 255.933 301.508C259.037 299.706 260.597 297.355 260.597 295.004V252.687H260.58Z" fill="url(#paint41_linear_2870_3969)"/>
<path d="M255.933 259.173C249.725 262.76 239.659 262.76 233.451 259.173C227.243 255.587 227.243 249.77 233.451 246.183C239.659 242.597 249.725 242.597 255.933 246.183C262.141 249.77 262.141 255.587 255.933 259.173Z" fill="url(#paint42_linear_2870_3969)"/>
<path opacity="0.5" d="M255.932 258.487C249.725 262.074 239.658 262.074 233.45 258.487C230.501 256.788 228.957 254.575 228.82 252.327C228.666 254.798 230.192 257.286 233.45 259.157C239.658 262.743 249.725 262.743 255.932 259.157C259.191 257.269 260.717 254.781 260.563 252.327C260.425 254.558 258.882 256.771 255.932 258.487Z" fill="white"/>
<path d="M117.353 138.604L114.283 140.56L113.923 138.295L116.992 136.339L117.353 138.604Z" fill="#42E8E0"/>
<path d="M119.822 153.962L116.752 155.919L114.608 142.636L117.695 140.68L119.822 153.962Z" fill="#42E8E0"/>
<path d="M121.005 161.307L117.918 163.263L117.078 157.995L120.148 156.039L121.005 161.307Z" fill="#42E8E0"/>
<path d="M122.223 168.926L119.153 170.882L118.296 165.597L121.366 163.641L122.223 168.926Z" fill="#42E8E0"/>
<path d="M123.115 143.031L120.045 144.987L119.205 139.719L122.275 137.763L123.115 143.031Z" fill="#42E8E0"/>
<path d="M124.727 153.121L121.658 155.077L120.423 147.338L123.492 145.382L124.727 153.121Z" fill="#42E8E0"/>
<path d="M126.218 162.405L123.148 164.362L122.085 157.703L125.155 155.764L126.218 162.405Z" fill="#42E8E0"/>
<path d="M123.441 176.528L120.371 178.484L119.514 173.216L122.6 171.26L123.441 176.528Z" fill="#42E8E0"/>
<path d="M121.931 135.687L118.861 137.643L118.501 135.378L121.571 133.421L121.931 135.687Z" fill="#42E8E0"/>
<path d="M126.904 182.466L121.553 185.881L121.193 183.668L126.561 180.253L126.904 182.466Z" fill="#42E8E0"/>
</g>
<defs>
<linearGradient id="paint0_linear_2870_3969" x1="290.846" y1="54.0038" x2="360.539" y2="54.0038" gradientUnits="userSpaceOnUse">
<stop stop-color="#42E8E0"/>
<stop offset="0.15" stop-color="#42E3DF"/>
<stop offset="0.33" stop-color="#44D4DE"/>
<stop offset="0.52" stop-color="#48BDDD"/>
<stop offset="0.72" stop-color="#4D9BDA"/>
<stop offset="0.93" stop-color="#5471D8"/>
<stop offset="1" stop-color="#5761D7"/>
</linearGradient>
<linearGradient id="paint1_linear_2870_3969" x1="306.195" y1="62.8073" x2="375.87" y2="62.8073" gradientUnits="userSpaceOnUse">
<stop stop-color="#42E8E0"/>
<stop offset="0.15" stop-color="#42E3DF"/>
<stop offset="0.33" stop-color="#44D4DE"/>
<stop offset="0.52" stop-color="#48BDDD"/>
<stop offset="0.72" stop-color="#4D9BDA"/>
<stop offset="0.93" stop-color="#5471D8"/>
<stop offset="1" stop-color="#5761D7"/>
</linearGradient>
<linearGradient id="paint2_linear_2870_3969" x1="321.526" y1="71.5927" x2="391.219" y2="71.5927" gradientUnits="userSpaceOnUse">
<stop stop-color="#42E8E0"/>
<stop offset="0.15" stop-color="#42E3DF"/>
<stop offset="0.33" stop-color="#44D4DE"/>
<stop offset="0.52" stop-color="#48BDDD"/>
<stop offset="0.72" stop-color="#4D9BDA"/>
<stop offset="0.93" stop-color="#5471D8"/>
<stop offset="1" stop-color="#5761D7"/>
</linearGradient>
<linearGradient id="paint3_linear_2870_3969" x1="1338.32" y1="729.38" x2="1349.11" y2="735.602" gradientUnits="userSpaceOnUse">
<stop stop-color="#5761D7"/>
<stop offset="0.16" stop-color="#5E67D9"/>
<stop offset="0.41" stop-color="#7179E1"/>
<stop offset="0.69" stop-color="#9197EE"/>
<stop offset="1" stop-color="#BCBEFF"/>
</linearGradient>
<linearGradient id="paint4_linear_2870_3969" x1="1344.72" y1="747.902" x2="1355.51" y2="754.125" gradientUnits="userSpaceOnUse">
<stop stop-color="#5761D7"/>
<stop offset="0.16" stop-color="#5E67D9"/>
<stop offset="0.41" stop-color="#7179E1"/>
<stop offset="0.69" stop-color="#9197EE"/>
<stop offset="1" stop-color="#BCBEFF"/>
</linearGradient>
<linearGradient id="paint5_linear_2870_3969" x1="1351.26" y1="766.739" x2="1362.05" y2="772.961" gradientUnits="userSpaceOnUse">
<stop stop-color="#5761D7"/>
<stop offset="0.16" stop-color="#5E67D9"/>
<stop offset="0.41" stop-color="#7179E1"/>
<stop offset="0.69" stop-color="#9197EE"/>
<stop offset="1" stop-color="#BCBEFF"/>
</linearGradient>
<linearGradient id="paint6_linear_2870_3969" x1="357.865" y1="190.875" x2="399.536" y2="190.875" gradientUnits="userSpaceOnUse">
<stop stop-color="#5761D7"/>
<stop offset="0.16" stop-color="#5E67D9"/>
<stop offset="0.41" stop-color="#7179E1"/>
<stop offset="0.69" stop-color="#9197EE"/>
<stop offset="1" stop-color="#BCBEFF"/>
</linearGradient>
<linearGradient id="paint7_linear_2870_3969" x1="378.306" y1="177.61" x2="393.551" y2="177.61" gradientUnits="userSpaceOnUse">
<stop stop-color="#42E8E0"/>
<stop offset="0.15" stop-color="#42E3DF"/>
<stop offset="0.33" stop-color="#44D4DE"/>
<stop offset="0.52" stop-color="#48BDDD"/>
<stop offset="0.72" stop-color="#4D9BDA"/>
<stop offset="0.93" stop-color="#5471D8"/>
<stop offset="1" stop-color="#5761D7"/>
</linearGradient>
<linearGradient id="paint8_linear_2870_3969" x1="378.306" y1="192.42" x2="393.551" y2="192.42" gradientUnits="userSpaceOnUse">
<stop stop-color="#42E8E0"/>
<stop offset="0.15" stop-color="#42E3DF"/>
<stop offset="0.33" stop-color="#44D4DE"/>
<stop offset="0.52" stop-color="#48BDDD"/>
<stop offset="0.72" stop-color="#4D9BDA"/>
<stop offset="0.93" stop-color="#5471D8"/>
<stop offset="1" stop-color="#5761D7"/>
</linearGradient>
<linearGradient id="paint9_linear_2870_3969" x1="378.306" y1="207.486" x2="393.551" y2="207.486" gradientUnits="userSpaceOnUse">
<stop stop-color="#42E8E0"/>
<stop offset="0.15" stop-color="#42E3DF"/>
<stop offset="0.33" stop-color="#44D4DE"/>
<stop offset="0.52" stop-color="#48BDDD"/>
<stop offset="0.72" stop-color="#4D9BDA"/>
<stop offset="0.93" stop-color="#5471D8"/>
<stop offset="1" stop-color="#5761D7"/>
</linearGradient>
<linearGradient id="paint10_linear_2870_3969" x1="331.215" y1="112.418" x2="429.734" y2="55.3484" gradientUnits="userSpaceOnUse">
<stop stop-color="#5761D7"/>
<stop offset="0.16" stop-color="#5E67D9"/>
<stop offset="0.41" stop-color="#7179E1"/>
<stop offset="0.69" stop-color="#9197EE"/>
<stop offset="1" stop-color="#BCBEFF"/>
</linearGradient>
<linearGradient id="paint11_linear_2870_3969" x1="439.218" y1="61.76" x2="350.5" y2="126.672" gradientUnits="userSpaceOnUse">
<stop stop-color="#5761D7"/>
<stop offset="0.16" stop-color="#5E67D9"/>
<stop offset="0.41" stop-color="#7179E1"/>
<stop offset="0.69" stop-color="#9197EE"/>
<stop offset="1" stop-color="#BCBEFF"/>
</linearGradient>
<linearGradient id="paint12_linear_2870_3969" x1="354.127" y1="88.9762" x2="423.802" y2="88.9762" gradientUnits="userSpaceOnUse">
<stop stop-color="#42E8E0"/>
<stop offset="0.15" stop-color="#42E3DF"/>
<stop offset="0.33" stop-color="#44D4DE"/>
<stop offset="0.52" stop-color="#48BDDD"/>
<stop offset="0.72" stop-color="#4D9BDA"/>
<stop offset="0.93" stop-color="#5471D8"/>
<stop offset="1" stop-color="#5761D7"/>
</linearGradient>
<linearGradient id="paint13_linear_2870_3969" x1="351.09" y1="87.3285" x2="420.766" y2="87.3285" gradientUnits="userSpaceOnUse">
<stop stop-color="#42E8E0"/>
<stop offset="0.15" stop-color="#42E3DF"/>
<stop offset="0.33" stop-color="#44D4DE"/>
<stop offset="0.52" stop-color="#48BDDD"/>
<stop offset="0.72" stop-color="#4D9BDA"/>
<stop offset="0.93" stop-color="#5471D8"/>
<stop offset="1" stop-color="#5761D7"/>
</linearGradient>
<linearGradient id="paint14_linear_2870_3969" x1="86.7763" y1="145.966" x2="332.896" y2="145.966" gradientUnits="userSpaceOnUse">
<stop stop-color="#C0BFF6"/>
<stop offset="0.29" stop-color="#C4C3F6"/>
<stop offset="0.64" stop-color="#D2D2F9"/>
<stop offset="1" stop-color="#E9E9FD"/>
</linearGradient>
<linearGradient id="paint15_linear_2870_3969" x1="86.7763" y1="209.134" x2="129.031" y2="209.134" gradientUnits="userSpaceOnUse">
<stop stop-color="#5761D7"/>
<stop offset="0.18" stop-color="#5B65D8"/>
<stop offset="0.39" stop-color="#6A72DE"/>
<stop offset="0.61" stop-color="#8188E8"/>
<stop offset="0.85" stop-color="#A2A6F5"/>
<stop offset="1" stop-color="#BCBEFF"/>
</linearGradient>
<linearGradient id="paint16_linear_2870_3969" x1="119.753" y1="280.143" x2="467.36" y2="280.143" gradientUnits="userSpaceOnUse">
<stop stop-color="#5761D7"/>
<stop offset="0.18" stop-color="#5B65D8"/>
<stop offset="0.39" stop-color="#6A72DE"/>
<stop offset="0.61" stop-color="#8188E8"/>
<stop offset="0.85" stop-color="#A2A6F5"/>
<stop offset="1" stop-color="#BCBEFF"/>
</linearGradient>
<linearGradient id="paint17_linear_2870_3969" x1="236.554" y1="268.543" x2="584.349" y2="268.543" gradientUnits="userSpaceOnUse">
<stop stop-color="#C0BFF6"/>
<stop offset="0.29" stop-color="#C4C3F6"/>
<stop offset="0.64" stop-color="#D2D2F9"/>
<stop offset="1" stop-color="#E9E9FD"/>
</linearGradient>
<linearGradient id="paint18_linear_2870_3969" x1="295.443" y1="288.294" x2="384.48" y2="288.294" gradientUnits="userSpaceOnUse">
<stop stop-color="#C0BFF6"/>
<stop offset="0.29" stop-color="#C4C3F6"/>
<stop offset="0.64" stop-color="#D2D2F9"/>
<stop offset="1" stop-color="#E9E9FD"/>
</linearGradient>
<linearGradient id="paint19_linear_2870_3969" x1="103.669" y1="191.407" x2="451.464" y2="191.407" gradientUnits="userSpaceOnUse">
<stop stop-color="#C0BFF6"/>
<stop offset="0.29" stop-color="#C4C3F6"/>
<stop offset="0.64" stop-color="#D2D2F9"/>
<stop offset="1" stop-color="#E9E9FD"/>
</linearGradient>
<linearGradient id="paint20_linear_2870_3969" x1="80.7754" y1="165.855" x2="169.812" y2="165.855" gradientUnits="userSpaceOnUse">
<stop stop-color="#C0BFF6"/>
<stop offset="0.29" stop-color="#C4C3F6"/>
<stop offset="0.64" stop-color="#D2D2F9"/>
<stop offset="1" stop-color="#E9E9FD"/>
</linearGradient>
<radialGradient id="paint21_radial_2870_3969" cx="0" cy="0" r="1" gradientUnits="userSpaceOnUse" gradientTransform="translate(221.051 236.195) scale(99.7031 99.7706)">
<stop stop-color="#2B237C"/>
<stop offset="1" stop-color="#180D5B"/>
</radialGradient>
<radialGradient id="paint22_radial_2870_3969" cx="0" cy="0" r="1" gradientUnits="userSpaceOnUse" gradientTransform="translate(199.256 191.321) scale(76.3122 76.3638)">
<stop stop-color="#2B237C"/>
<stop offset="1" stop-color="#180D5B"/>
</radialGradient>
<linearGradient id="paint23_linear_2870_3969" x1="363.534" y1="361.603" x2="221.173" y2="109.513" gradientUnits="userSpaceOnUse">
<stop stop-color="#C0BFF6"/>
<stop offset="0.08" stop-color="#C2C1F6"/>
<stop offset="0.13" stop-color="#CBCBF8"/>
<stop offset="0.18" stop-color="#DBDAFA"/>
<stop offset="0.21" stop-color="#E9E9FD"/>
<stop offset="0.26" stop-color="#D7D7FA"/>
<stop offset="0.32" stop-color="#CAC9F7"/>
<stop offset="0.39" stop-color="#C2C1F6"/>
<stop offset="0.51" stop-color="#C0BFF6"/>
<stop offset="0.62" stop-color="#CFCFF8"/>
<stop offset="0.75" stop-color="#E9E9FD"/>
<stop offset="1" stop-color="#C0BFF6"/>
</linearGradient>
<linearGradient id="paint24_linear_2870_3969" x1="333.943" y1="204.912" x2="365.565" y2="204.912" gradientUnits="userSpaceOnUse">
<stop stop-color="#C0BFF6"/>
<stop offset="0.49" stop-color="#D1D1F9"/>
<stop offset="1" stop-color="#E9E9FD"/>
</linearGradient>
<linearGradient id="paint25_linear_2870_3969" x1="298.513" y1="204.912" x2="359.615" y2="204.912" gradientUnits="userSpaceOnUse">
<stop stop-color="#5761D7"/>
<stop offset="0.18" stop-color="#5B65D8"/>
<stop offset="0.39" stop-color="#6A72DE"/>
<stop offset="0.61" stop-color="#8188E8"/>
<stop offset="0.85" stop-color="#A2A6F5"/>
<stop offset="1" stop-color="#BCBEFF"/>
</linearGradient>
<linearGradient id="paint26_linear_2870_3969" x1="-324.992" y1="-230.671" x2="-302.485" y2="-217.685" gradientUnits="userSpaceOnUse">
<stop stop-color="#C0BFF6"/>
<stop offset="0.29" stop-color="#C4C3F6"/>
<stop offset="0.64" stop-color="#D2D2F9"/>
<stop offset="1" stop-color="#E9E9FD"/>
</linearGradient>
<linearGradient id="paint27_linear_2870_3969" x1="-320.997" y1="-228.363" x2="-306.483" y2="-219.989" gradientUnits="userSpaceOnUse">
<stop stop-color="#5761D7"/>
<stop offset="0.18" stop-color="#5B65D8"/>
<stop offset="0.39" stop-color="#6A72DE"/>
<stop offset="0.61" stop-color="#8188E8"/>
<stop offset="0.85" stop-color="#A2A6F5"/>
<stop offset="1" stop-color="#BCBEFF"/>
</linearGradient>
<linearGradient id="paint28_linear_2870_3969" x1="-3870.63" y1="159.283" x2="-3868.92" y2="159.283" gradientUnits="userSpaceOnUse">
<stop stop-color="#C0BFF6"/>
<stop offset="0.49" stop-color="#D1D1F9"/>
<stop offset="1" stop-color="#E9E9FD"/>
</linearGradient>
<linearGradient id="paint29_linear_2870_3969" x1="298.513" y1="159.283" x2="359.615" y2="159.283" gradientUnits="userSpaceOnUse">
<stop stop-color="#5761D7"/>
<stop offset="0.18" stop-color="#5B65D8"/>
<stop offset="0.39" stop-color="#6A72DE"/>
<stop offset="0.61" stop-color="#8188E8"/>
<stop offset="0.85" stop-color="#A2A6F5"/>
<stop offset="1" stop-color="#BCBEFF"/>
</linearGradient>
<linearGradient id="paint30_linear_2870_3969" x1="-331.349" y1="-249.169" x2="-308.857" y2="-236.192" gradientUnits="userSpaceOnUse">
<stop stop-color="#C0BFF6"/>
<stop offset="0.29" stop-color="#C4C3F6"/>
<stop offset="0.64" stop-color="#D2D2F9"/>
<stop offset="1" stop-color="#E9E9FD"/>
</linearGradient>
<linearGradient id="paint31_linear_2870_3969" x1="307.654" y1="231.425" x2="339.276" y2="231.425" gradientUnits="userSpaceOnUse">
<stop stop-color="#C0BFF6"/>
<stop offset="0.49" stop-color="#D1D1F9"/>
<stop offset="1" stop-color="#E9E9FD"/>
</linearGradient>
<linearGradient id="paint32_linear_2870_3969" x1="272.224" y1="231.425" x2="333.326" y2="231.425" gradientUnits="userSpaceOnUse">
<stop stop-color="#5761D7"/>
<stop offset="0.18" stop-color="#5B65D8"/>
<stop offset="0.39" stop-color="#6A72DE"/>
<stop offset="0.61" stop-color="#8188E8"/>
<stop offset="0.85" stop-color="#A2A6F5"/>
<stop offset="1" stop-color="#BCBEFF"/>
</linearGradient>
<linearGradient id="paint33_linear_2870_3969" x1="-328.447" y1="-179.415" x2="-305.939" y2="-166.43" gradientUnits="userSpaceOnUse">
<stop stop-color="#C0BFF6"/>
<stop offset="0.29" stop-color="#C4C3F6"/>
<stop offset="0.64" stop-color="#D2D2F9"/>
<stop offset="1" stop-color="#E9E9FD"/>
</linearGradient>
<linearGradient id="paint34_linear_2870_3969" x1="281.365" y1="234.995" x2="312.987" y2="234.995" gradientUnits="userSpaceOnUse">
<stop stop-color="#C0BFF6"/>
<stop offset="0.49" stop-color="#D1D1F9"/>
<stop offset="1" stop-color="#E9E9FD"/>
</linearGradient>
<linearGradient id="paint35_linear_2870_3969" x1="245.935" y1="234.995" x2="307.036" y2="234.995" gradientUnits="userSpaceOnUse">
<stop stop-color="#5761D7"/>
<stop offset="0.18" stop-color="#5B65D8"/>
<stop offset="0.39" stop-color="#6A72DE"/>
<stop offset="0.61" stop-color="#8188E8"/>
<stop offset="0.85" stop-color="#A2A6F5"/>
<stop offset="1" stop-color="#BCBEFF"/>
</linearGradient>
<linearGradient id="paint36_linear_2870_3969" x1="-351.659" y1="-185.62" x2="-329.166" y2="-172.642" gradientUnits="userSpaceOnUse">
<stop stop-color="#C0BFF6"/>
<stop offset="0.29" stop-color="#C4C3F6"/>
<stop offset="0.64" stop-color="#D2D2F9"/>
<stop offset="1" stop-color="#E9E9FD"/>
</linearGradient>
<linearGradient id="paint37_linear_2870_3969" x1="255.075" y1="256.342" x2="286.68" y2="256.342" gradientUnits="userSpaceOnUse">
<stop stop-color="#C0BFF6"/>
<stop offset="0.49" stop-color="#D1D1F9"/>
<stop offset="1" stop-color="#E9E9FD"/>
</linearGradient>
<linearGradient id="paint38_linear_2870_3969" x1="219.629" y1="256.342" x2="280.73" y2="256.342" gradientUnits="userSpaceOnUse">
<stop stop-color="#5761D7"/>
<stop offset="0.18" stop-color="#5B65D8"/>
<stop offset="0.39" stop-color="#6A72DE"/>
<stop offset="0.61" stop-color="#8188E8"/>
<stop offset="0.85" stop-color="#A2A6F5"/>
<stop offset="1" stop-color="#BCBEFF"/>
</linearGradient>
<linearGradient id="paint39_linear_2870_3969" x1="-359.548" y1="-147.269" x2="-337.055" y2="-134.292" gradientUnits="userSpaceOnUse">
<stop stop-color="#C0BFF6"/>
<stop offset="0.29" stop-color="#C4C3F6"/>
<stop offset="0.64" stop-color="#D2D2F9"/>
<stop offset="1" stop-color="#E9E9FD"/>
</linearGradient>
<linearGradient id="paint40_linear_2870_3969" x1="228.786" y1="278.427" x2="260.391" y2="278.427" gradientUnits="userSpaceOnUse">
<stop stop-color="#C0BFF6"/>
<stop offset="0.49" stop-color="#D1D1F9"/>
<stop offset="1" stop-color="#E9E9FD"/>
</linearGradient>
<linearGradient id="paint41_linear_2870_3969" x1="193.34" y1="278.427" x2="254.441" y2="278.427" gradientUnits="userSpaceOnUse">
<stop stop-color="#5761D7"/>
<stop offset="0.18" stop-color="#5B65D8"/>
<stop offset="0.39" stop-color="#6A72DE"/>
<stop offset="0.61" stop-color="#8188E8"/>
<stop offset="0.85" stop-color="#A2A6F5"/>
<stop offset="1" stop-color="#BCBEFF"/>
</linearGradient>
<linearGradient id="paint42_linear_2870_3969" x1="-366.794" y1="-107.048" x2="-344.301" y2="-94.0703" gradientUnits="userSpaceOnUse">
<stop stop-color="#C0BFF6"/>
<stop offset="0.29" stop-color="#C4C3F6"/>
<stop offset="0.64" stop-color="#D2D2F9"/>
<stop offset="1" stop-color="#E9E9FD"/>
</linearGradient>
<clipPath id="clip0_2870_3969">
<rect width="642" height="475" fill="white"/>
</clipPath>
</defs>
</svg>
