<svg width="375" height="1777" viewBox="0 0 375 1777" fill="none" xmlns="http://www.w3.org/2000/svg">
<path style="mix-blend-mode:multiply" d="M290.224 1.33582C285.707 2.79312 250.725 12.087 246.19 13.5443C241.636 15.0444 237.119 16.5017 232.731 17.959C228.306 19.4163 224.029 20.8736 219.955 22.3309C215.88 23.7453 212.008 25.2026 208.469 26.5313C204.505 28.0744 200.983 29.4888 197.905 30.8604C194.807 32.2319 192.134 33.5606 189.903 34.8036C187.654 36.0466 185.847 37.2467 184.464 38.3612C183.082 39.4756 182.123 40.59 181.607 41.5758C181.09 42.6045 180.998 43.5474 181.367 44.4475C181.736 45.3476 182.547 46.2048 183.819 46.9763C185.091 47.7907 186.843 48.5194 189.055 49.2051C191.286 49.8909 193.996 50.5339 197.204 51.1339C200.098 51.6483 203.38 52.1197 206.938 52.5912C210.515 53.0198 214.387 53.4484 218.443 53.8342C222.536 54.22 226.813 54.5628 231.182 54.9486C235.589 55.2915 240.069 55.6344 244.567 55.9773C249.029 56.3202 253.564 56.6631 258.063 57.0488C262.598 57.3917 267.078 57.7775 271.429 58.2061C275.817 58.6347 280.039 59.0633 284.022 59.5348C288.041 60.0063 291.783 60.5635 295.194 61.1635C298.605 61.7636 301.573 62.4065 304.136 63.0923C306.717 63.7781 308.837 64.5496 310.533 65.3211C312.229 66.0926 313.483 66.9499 314.276 67.8499C315.087 68.75 315.419 69.693 315.29 70.6788C315.161 71.6646 314.534 72.779 313.465 73.9363C312.359 75.1793 310.773 76.4651 308.69 77.8367C306.606 79.2511 304.044 80.7513 300.965 82.38C297.886 84.0088 294.291 85.7232 290.198 87.5663C286.142 89.3665 281.606 91.2524 276.758 93.224C271.89 95.1957 266.673 97.2102 261.216 99.2675C255.74 101.368 250.061 103.425 244.254 105.568C238.428 107.711 232.51 109.854 226.61 111.955L226.241 112.083C220.213 114.269 214.11 116.498 208.045 118.684C201.942 120.955 195.877 123.141 189.977 125.413C184.04 127.642 178.251 129.914 172.739 132.1C167.208 134.328 161.935 136.514 157.086 138.657C151.666 141.058 146.817 143.372 142.54 145.558C138.225 147.787 134.483 149.93 131.312 151.987C128.104 154.088 125.486 156.059 123.421 157.988C121.338 159.96 119.844 161.803 118.922 163.603C118.001 165.403 117.632 167.16 117.872 168.832C118.111 170.546 118.941 172.175 120.397 173.761C121.854 175.347 123.937 176.89 126.666 178.39C129.394 179.89 132.787 181.348 136.843 182.762C140.53 184.048 144.734 185.248 149.324 186.448C153.952 187.648 158.985 188.805 164.276 189.963C169.604 191.12 175.209 192.234 180.961 193.349C186.769 194.463 192.705 195.578 198.66 196.692C204.597 197.806 210.663 198.921 216.691 200.078C222.775 201.235 228.804 202.435 234.667 203.678C240.585 204.921 246.3 206.25 251.684 207.622C257.104 208.993 262.193 210.451 266.765 211.951C271.393 213.494 275.449 215.08 278.915 216.708C282.418 218.337 285.312 220.052 287.598 221.852C289.884 223.609 291.581 225.452 292.613 227.338C293.664 229.224 294.069 231.153 293.793 233.124C293.535 235.096 292.576 237.282 290.935 239.554C289.294 241.868 286.953 244.354 283.911 246.969C280.85 249.626 277.071 252.455 272.572 255.412C268.037 258.413 262.783 261.585 256.772 264.885C250.799 268.185 244.143 271.614 237.008 275.129C229.818 278.643 222.112 282.287 214.073 285.973C205.98 289.702 197.536 293.474 188.926 297.245C180.242 301.103 171.411 304.96 162.562 308.818L162.009 309.075C152.975 313.018 143.793 317.005 134.63 321.076C125.412 325.148 116.212 329.263 107.215 333.378C98.1445 337.535 89.2581 341.693 80.7588 345.85C72.1858 350.051 64 354.208 56.3857 358.366C47.868 362.995 40.1431 367.496 33.2479 371.91C26.2789 376.368 20.1026 380.74 14.756 385.026C9.35413 389.355 4.78189 393.598 1.03928 397.799C-2.74023 402.042 -5.69009 406.2 -7.8103 410.314C-9.94894 414.472 -11.2395 418.587 -11.6451 422.658C-12.0691 426.773 -11.5898 430.845 -10.207 434.96C-8.78741 439.074 -6.46445 443.189 -3.14584 447.304C0.209595 451.461 4.54224 455.619 9.90726 459.819C14.7929 463.677 20.4714 467.492 26.7951 471.264C33.1926 475.121 40.2354 478.979 47.739 482.793C55.3349 486.694 63.41 490.594 71.7249 494.495C80.1689 498.438 88.8709 502.424 97.6467 506.41C106.478 510.439 115.493 514.597 124.527 518.84C133.672 523.126 142.798 527.541 151.666 532.084C160.681 536.67 169.42 541.385 177.661 546.186C186.031 551.072 193.867 556.087 200.91 561.23C208.1 566.502 214.387 571.817 219.752 577.218C225.172 582.704 229.634 588.19 233.1 593.762C236.621 599.377 239.092 605.078 240.493 610.778C241.931 616.565 242.281 622.351 241.525 628.137C240.751 634.009 238.778 640.224 235.607 646.782C232.399 653.425 227.938 660.455 222.241 667.784C216.47 675.242 209.409 683.043 201.02 691.187C192.54 699.459 182.713 708.074 171.522 717.075C160.276 726.119 147.757 735.42 134.262 744.935C120.582 754.579 105.906 764.48 90.5302 774.51C74.9329 784.668 58.6165 795.04 41.8946 805.498C24.933 816.128 7.54736 826.844 -9.93048 837.645L-10.419 837.873L-10.9076 838.245C-28.8279 849.303 -47.1538 860.619 -65.5719 872.148C-84.2666 883.807 -103.072 895.722 -121.656 907.852C-140.516 920.11 -159.174 932.583 -177.279 945.185C-195.679 958 -213.525 971.03 -230.45 984.146C-249.661 999.062 -267.544 1014.02 -284.063 1029.02C-300.896 1044.32 -316.346 1059.67 -330.394 1075.14C-344.738 1090.96 -357.643 1106.9 -369.129 1123.1C-380.874 1139.65 -391.124 1156.41 -399.918 1173.55C-408.952 1191.12 -416.438 1209.04 -422.374 1227.43C-428.458 1246.29 -432.883 1265.62 -435.648 1285.55C-438.469 1306.04 -439.539 1327.25 -438.746 1349.24C-437.916 1371.91 -435.169 1395.49 -430.357 1420.13C-425.951 1443.06 -419.775 1466.68 -412.234 1491.07C-404.435 1516.23 -395.143 1542.16 -384.745 1568.91C-373.997 1596.55 -362.031 1625.06 -349.292 1654.46C-336.091 1684.85 -322.042 1716.22 -307.607 1748.45C-292.747 1781.54 -297.079 1775.63 -297.079 1775.63L-227.703 1777C-243.669 1743.1 -259.451 1710.56 -274.513 1679.49C-288.949 1649.74 -303.016 1620.77 -316.272 1592.65C-329.067 1565.43 -341.124 1538.99 -351.983 1513.36C-362.511 1488.54 -371.95 1464.45 -379.933 1441.18C-387.658 1418.59 -394.037 1396.69 -398.702 1375.56C-403.274 1354.86 -406.187 1335.1 -407.514 1316.15C-408.805 1297.68 -408.602 1280.06 -406.961 1263.13C-405.339 1246.63 -402.334 1230.77 -398.001 1215.64C-393.742 1200.81 -388.193 1186.58 -381.353 1172.95C-374.661 1159.62 -366.364 1146.12 -356.519 1132.4C-346.84 1118.95 -335.667 1105.36 -323.057 1091.6C-310.686 1078.1 -296.914 1064.47 -281.832 1050.75C-267.009 1037.25 -250.896 1023.66 -233.566 1010.03C-216.659 996.704 -198.739 983.46 -180.229 970.344C-162.013 957.443 -143.171 944.67 -124.108 932.112C-105.321 919.725 -86.2946 907.509 -67.3787 895.508C-48.7209 883.678 -30.1923 872.105 -12.0507 860.747L-11.0367 860.147C6.9574 848.874 24.8408 837.645 42.3002 826.586C59.5199 815.657 76.2972 804.856 92.3738 794.226C108.211 783.725 123.347 773.395 137.47 763.28C151.408 753.293 164.368 743.478 176.076 733.92C188.926 723.419 200.135 713.346 209.778 703.616C219.254 694.015 227.2 684.843 233.653 675.885C240.014 667.098 244.955 658.655 248.531 650.425C252.034 642.324 254.21 634.523 255.113 626.937C255.998 619.479 255.648 612.235 254.062 605.249C252.514 598.348 249.748 591.619 245.84 585.061C241.986 578.589 237.008 572.331 230.906 566.202C224.914 560.159 217.834 554.286 209.685 548.543C202.514 543.4 194.568 538.471 186.105 533.627C177.79 528.87 168.978 524.283 159.925 519.783C151.02 515.368 141.857 511.082 132.695 506.882C123.661 502.767 114.627 498.738 105.796 494.795C97.1489 490.937 88.5575 487.122 80.2242 483.308C72.0199 479.536 64.0553 475.807 56.5701 472.078C49.177 468.392 42.2449 464.749 35.9396 461.062C29.7265 457.419 24.1402 453.819 19.3651 450.176C14.627 446.575 10.7368 443.018 7.65796 439.503C4.63437 436.031 2.40356 432.559 0.965515 429.131C-0.454102 425.744 -1.0994 422.401 -0.970367 419.058C-0.841309 415.758 0.0252686 412.5 1.64767 409.286C3.25165 406.114 5.66684 402.771 8.91165 399.256C12.1012 395.827 16.1019 392.184 20.877 388.455C25.5967 384.726 31.0908 380.911 37.3039 376.968C43.4617 373.068 50.357 368.996 57.9528 364.838C65.4565 360.723 73.587 356.566 82.1047 352.365C90.5486 348.208 99.3982 344.05 108.469 339.85C117.466 335.692 126.666 331.578 135.902 327.463C145.065 323.391 154.265 319.362 163.318 315.376L163.889 315.119C172.886 311.175 181.902 307.189 190.751 303.289C199.527 299.388 208.137 295.488 216.415 291.673C224.619 287.859 232.491 284.173 239.866 280.486C247.185 276.886 254.007 273.329 260.183 269.9C267.023 266.085 272.997 262.442 278.103 258.97C283.174 255.541 287.414 252.241 290.825 249.112C294.217 245.983 296.817 243.025 298.623 240.197C300.43 237.411 301.463 234.71 301.758 232.139C302.053 229.61 301.628 227.167 300.485 224.852C299.342 222.58 297.499 220.352 294.936 218.294C292.392 216.237 289.165 214.265 285.257 212.379C281.367 210.493 276.813 208.736 271.577 207.022C266.912 205.521 261.75 204.064 256.256 202.693C250.817 201.321 245.047 200.035 239.092 198.835C233.211 197.592 227.145 196.435 221.024 195.278C214.977 194.12 208.911 193.049 202.938 191.977C197.075 190.906 191.212 189.834 185.478 188.763C179.8 187.691 174.269 186.619 169.014 185.505C163.815 184.391 158.856 183.319 154.321 182.162C149.822 181.005 145.711 179.847 142.116 178.604C138.539 177.404 135.515 176.161 133.045 174.875C130.593 173.59 128.657 172.304 127.274 170.975C125.891 169.689 125.043 168.318 124.712 166.946C124.38 165.574 124.582 164.203 125.301 162.788C126.002 161.374 127.256 159.874 129.044 158.245C130.832 156.659 133.155 154.945 135.976 153.145C138.779 151.387 142.134 149.501 145.969 147.53C149.785 145.558 154.099 143.544 158.911 141.4C163.668 139.3 168.867 137.114 174.361 134.886C179.818 132.7 185.57 130.471 191.47 128.199C197.351 125.97 203.399 123.742 209.501 121.47C215.548 119.241 221.651 117.055 227.661 114.826L228.048 114.698C234.04 112.512 240.069 110.326 245.987 108.14C251.868 105.997 257.657 103.854 263.225 101.711C268.756 99.6104 274.084 97.5531 279.062 95.5386C284.022 93.5669 288.649 91.5953 292.834 89.7094C297.499 87.6092 301.555 85.6375 305.021 83.7516C308.468 81.9086 311.363 80.1512 313.686 78.4796C315.991 76.808 317.742 75.3079 318.94 73.8506C320.139 72.3933 320.821 71.0217 320.968 69.7787C321.116 68.5357 320.747 67.3356 319.862 66.2212C318.996 65.1068 317.613 64.0781 315.714 63.1352C313.852 62.1922 311.455 61.335 308.579 60.5206C305.721 59.7491 302.347 59.0205 298.513 58.3347C295.047 57.7346 291.23 57.2203 287.174 56.7059C283.137 56.2344 278.859 55.8058 274.453 55.3772C270.065 54.9486 265.548 54.6057 260.994 54.22C256.477 53.8342 251.924 53.5342 247.425 53.1913C243 52.8912 238.557 52.5484 234.225 52.2055C229.91 51.8626 225.688 51.5197 221.651 51.1339C217.65 50.7482 213.852 50.3624 210.331 49.9338C206.846 49.5052 203.62 49.0337 200.799 48.5622C197.978 48.0479 195.563 47.5335 193.554 46.9335C191.562 46.3763 189.958 45.7333 188.778 45.0904C187.599 44.4475 186.806 43.7617 186.419 43.0331C186.013 42.3044 186.031 41.5758 186.419 40.7614C186.806 39.9899 187.617 39.1327 188.815 38.1897C190.014 37.2467 191.618 36.2181 193.609 35.1465C195.6 34.075 197.978 32.9177 200.744 31.7176C203.491 30.4746 206.625 29.1888 210.128 27.8601C213.594 26.5313 217.41 25.1169 221.448 23.7025C225.467 22.2452 229.708 20.8307 234.095 19.3306C238.465 17.8733 242.963 16.3731 247.499 14.9158C251.997 13.4585 289.903 1.4573 294.401 0L259.829 10.9884" fill="url(#paint0_linear_2750_18949)"/>
<g clip-path="url(#clip0_2750_18949)">
<path style="mix-blend-mode:multiply" d="M201.735 482.909C198.632 485.168 174.054 501.856 170.937 504.121C167.817 506.411 164.714 508.671 161.711 510.882C158.679 513.107 155.762 515.278 153.001 517.373C150.23 519.451 147.627 521.472 145.246 523.318C142.595 525.408 140.252 527.282 138.24 528.975C136.214 530.675 134.506 532.201 133.116 533.529C131.712 534.863 130.64 536.017 129.873 536.98C129.106 537.942 128.668 538.748 128.537 539.338C128.419 539.946 128.605 540.362 129.138 540.591C129.67 540.82 130.533 540.868 131.731 540.71C132.94 540.571 134.497 540.219 136.4 539.68C138.317 539.134 140.595 538.394 143.246 537.452C145.631 536.592 148.304 535.571 151.192 534.448C154.082 533.3 157.201 532.044 160.452 530.702C163.73 529.347 167.141 527.906 170.634 526.449C174.144 524.96 177.711 523.445 181.293 521.922C184.846 520.413 188.456 518.877 192.049 517.372C195.659 515.836 199.238 514.338 202.729 512.904C206.248 511.457 209.639 510.072 212.855 508.792C216.1 507.499 219.155 506.342 221.963 505.326C224.772 504.309 227.249 503.474 229.424 502.805C231.612 502.13 233.467 501.659 234.994 501.346C236.52 501.032 237.726 500.916 238.587 500.989C239.463 501.054 239.978 501.313 240.148 501.761C240.318 502.208 240.137 502.891 239.624 503.755C239.107 504.668 238.229 505.775 236.99 507.1C235.762 508.443 234.185 509.998 232.244 511.795C230.303 513.593 227.985 515.615 225.316 517.874C222.664 520.102 219.664 522.542 216.444 525.132C213.21 527.729 209.716 530.473 206.048 533.322C202.378 536.196 198.538 539.127 194.622 542.141C190.692 545.162 186.69 548.216 182.691 551.247L182.44 551.435C178.365 554.548 174.243 557.705 170.139 560.832C166.029 564.006 161.925 567.133 157.973 570.233C153.98 573.329 150.113 576.388 146.438 579.31C142.76 582.257 139.27 585.09 136.097 587.75C132.552 590.725 129.426 593.454 126.708 595.92C123.973 598.417 121.658 600.668 119.763 602.673C117.85 604.709 116.36 606.476 115.287 608.02C114.212 609.589 113.558 610.888 113.336 611.958C113.114 613.028 113.309 613.877 113.953 614.466C114.608 615.072 115.697 615.426 117.26 615.531C118.823 615.636 120.861 615.492 123.387 615.092C125.913 614.693 128.942 614.03 132.474 613.106C135.684 612.265 139.272 611.199 143.159 609.99C147.076 608.767 151.295 607.378 155.714 605.892C160.161 604.394 164.812 602.775 169.576 601.102C174.384 599.409 179.292 597.668 184.214 595.921C189.121 594.18 194.129 592.391 199.12 590.634C204.154 588.856 209.156 587.115 214.042 585.454C218.97 583.772 223.765 582.2 228.314 580.767C232.892 579.321 237.236 578.033 241.192 576.952C245.202 575.868 248.78 575.013 251.913 574.393C255.075 573.76 257.788 573.386 260.054 573.271C262.307 573.139 264.126 573.26 265.443 573.643C266.774 574.019 267.616 574.651 267.942 575.553C268.281 576.447 268.136 577.688 267.486 579.215C266.847 580.759 265.712 582.631 264.069 584.815C262.424 587.023 260.268 589.565 257.589 592.426C254.894 595.317 251.689 598.544 247.932 602.101C244.204 605.645 239.982 609.494 235.413 613.554C230.8 617.634 225.822 621.957 220.599 626.421C215.345 630.922 209.83 635.569 204.187 640.278C198.511 645.049 192.72 649.875 186.914 654.707L186.556 655.016C180.631 659.951 174.604 664.958 168.614 669.993C162.582 675.048 156.575 680.114 150.726 685.105C144.831 690.141 139.08 695.108 133.628 699.933C128.131 704.802 122.922 709.511 118.157 714.009C112.82 719.031 108.063 723.709 103.925 728.045C99.7419 732.426 96.15 736.48 93.1778 740.192C90.1746 743.942 87.7911 747.351 86.039 750.436C84.2702 753.552 83.121 756.327 82.6034 758.778C82.0832 761.253 82.2088 763.398 83.0088 765.198C83.8062 767.023 85.2923 768.497 87.4905 769.654C89.7173 770.798 92.6445 771.608 96.3435 772.05C100.083 772.496 104.58 772.581 109.889 772.303C114.733 772.062 120.179 771.511 126.115 770.704C132.13 769.905 138.646 768.868 145.508 767.643C152.465 766.418 159.793 765.017 167.307 763.527C174.933 762.007 182.77 760.409 190.665 758.783C198.615 757.155 206.743 755.51 214.908 753.894C223.171 752.254 231.454 750.673 239.573 749.239C247.818 747.769 255.884 746.452 263.587 745.355C271.414 744.244 278.861 743.383 285.729 742.867C292.747 742.348 299.076 742.181 304.713 742.388C310.417 742.61 315.378 743.186 319.59 744.165C323.857 745.141 327.333 746.539 329.98 748.332C332.678 750.147 334.533 752.363 335.531 754.988C336.538 757.655 336.709 760.903 336.046 764.732C335.377 768.61 333.842 773.108 331.431 778.183C328.998 783.338 325.658 789.108 321.384 795.507C317.072 801.993 311.812 809.115 305.599 816.897C299.355 824.717 292.195 833.111 284.336 841.953C276.369 850.915 267.701 860.349 258.525 870.094C249.213 879.973 239.402 890.204 229.299 900.62C219.058 911.193 208.512 921.959 197.917 932.793L197.601 933.066L197.324 933.397C186.457 944.498 175.346 955.854 164.222 967.331C152.919 978.961 141.6 990.737 130.512 1002.52C119.244 1014.45 108.192 1026.4 97.6047 1038.2C86.8469 1050.19 76.5766 1062.06 67.0444 1073.63C56.2326 1086.77 46.4617 1099.44 37.7603 1111.62C28.8979 1124.04 21.1191 1135.97 14.4621 1147.43C7.67018 1159.14 2.02831 1170.37 -2.44247 1181.18C-7.01953 1192.22 -10.3801 1202.8 -12.5059 1213C-14.7002 1223.46 -15.6 1233.49 -15.17 1243.14C-14.7254 1253.03 -12.8653 1262.5 -9.55446 1271.6C-6.13398 1280.95 -1.15626 1289.94 5.47641 1298.56C12.3253 1307.45 20.9069 1315.99 31.383 1324.21C41.0753 1331.87 52.3276 1339.17 64.8488 1346.27C77.7812 1353.59 92.0825 1360.67 107.464 1367.67C123.364 1374.91 140.442 1382.04 158.367 1389.25C176.918 1396.7 196.397 1404.23 216.411 1411.96C236.989 1419.89 421 1503.5 421 1503.5L439.5 1460.16C417.842 1452.32 243.377 1378.82 223.194 1371.78C203.86 1365.06 185.024 1358.51 167.051 1352C149.682 1345.7 133.096 1339.43 117.661 1333.05C102.707 1326.88 88.7961 1320.6 76.2369 1314.11C64.0655 1307.81 53.1253 1301.29 43.7256 1294.44C34.5146 1287.74 26.8482 1280.81 20.634 1273.62C14.5773 1266.6 9.91313 1259.39 6.55155 1251.92C3.29297 1244.63 1.28245 1237.09 0.500493 1229.36C-0.256561 1221.77 0.151203 1213.95 1.72377 1205.9C3.2641 1198.03 6.00108 1189.49 9.88011 1180.29C13.7009 1171.26 18.6444 1161.63 24.6558 1151.39C30.5517 1141.35 37.4989 1130.74 45.4374 1119.61C53.2344 1108.66 62.0086 1097.2 71.7144 1085.27C81.1736 1073.63 91.4424 1061.64 102.204 1049.49C112.795 1037.53 123.908 1025.39 135.25 1013.26C146.426 1001.3 157.834 989.319 169.214 977.467C180.442 965.781 191.64 954.246 202.597 942.941L203.219 942.323C214.084 931.107 224.876 919.95 235.385 909.019C245.745 898.228 255.796 887.653 265.351 877.406C274.755 867.299 283.663 857.521 291.844 848.205C299.917 839.008 307.279 830.243 313.74 822.044C320.828 813.041 326.762 804.817 331.575 797.312C336.294 789.92 339.945 783.266 342.496 777.252C345.022 771.341 346.542 766.093 347.063 761.436C347.562 756.858 347.113 752.892 345.737 749.483C344.382 746.133 342.128 743.326 338.986 741.079C335.897 738.854 331.911 737.147 327.086 735.933C322.327 734.732 316.755 734.034 310.346 733.803C304.047 733.566 296.951 733.801 289.061 734.482C282.093 735.046 274.583 735.983 266.697 737.145C258.948 738.287 250.86 739.683 242.61 741.202C234.498 742.701 226.221 744.348 217.967 746.03C209.837 747.698 201.73 749.402 193.804 751.065C186.045 752.695 178.34 754.321 170.835 755.853C163.442 757.354 156.246 758.784 149.422 760.037C142.681 761.273 136.31 762.357 130.412 763.192C124.598 764.009 119.282 764.613 114.582 764.9C109.923 765.19 105.934 765.185 102.585 764.897C99.2904 764.607 96.6106 764.023 94.5572 763.164C92.5298 762.316 91.1145 761.199 90.2995 759.796C89.4963 758.411 89.2766 756.77 89.6546 754.868C90.0301 752.99 90.9876 750.742 92.5414 748.119C94.0757 745.551 96.1804 742.596 98.8619 739.321C101.501 736.066 104.716 732.491 108.454 728.597C112.161 724.742 116.392 720.544 121.143 716.054C125.835 711.614 131 706.926 136.455 702.077C141.863 697.273 147.586 692.319 153.469 687.266C159.307 682.257 165.313 677.192 171.348 672.112C177.338 667.077 183.368 662.046 189.295 657.086L189.668 656.771C195.564 651.85 201.463 646.904 207.257 642.054C212.993 637.232 218.601 632.471 223.975 627.867C229.291 623.29 234.386 618.888 239.095 614.67C243.784 610.507 248.099 606.546 251.949 602.874C256.208 598.802 259.842 595.119 262.851 591.825C265.844 588.562 268.228 585.658 270.016 583.13C271.79 580.609 272.996 578.45 273.622 576.636C274.26 574.839 274.322 573.363 273.847 572.212C273.383 571.077 272.386 570.244 270.866 569.728C269.358 569.229 267.319 569.006 264.769 569.119C262.233 569.225 259.192 569.617 255.646 570.296C252.113 570.968 248.102 571.938 243.573 573.177C239.546 574.291 235.145 575.607 230.51 577.08C225.918 578.533 221.092 580.143 216.147 581.856C211.247 583.525 206.227 585.296 201.165 587.087C196.16 588.852 191.164 590.658 186.239 592.43C181.401 594.161 176.562 595.892 171.823 597.575C167.127 599.238 162.546 600.846 158.167 602.335C153.831 603.804 149.693 605.201 145.86 606.407C142.056 607.6 138.551 608.649 135.424 609.473C132.322 610.307 129.638 610.92 127.371 611.311C125.118 611.696 123.265 611.89 121.829 611.862C120.405 611.851 119.372 611.608 118.739 611.175C118.107 610.742 117.889 610.111 118.059 609.272C118.215 608.44 118.776 607.368 119.717 606.048C120.67 604.744 122.001 603.191 123.696 601.42C125.387 599.672 127.473 597.668 129.906 595.453C132.325 593.244 135.119 590.834 138.263 588.188C141.376 585.58 144.809 582.773 148.458 579.84C152.091 576.939 155.941 573.911 159.893 570.811C163.843 567.735 167.921 564.598 172.031 561.423C176.109 558.286 180.242 555.146 184.292 552.023L184.557 551.828C188.604 548.728 192.68 545.615 196.67 542.544C200.643 539.503 204.545 536.496 208.275 533.57C211.988 530.676 215.556 527.874 218.864 525.219C222.17 522.588 225.218 520.08 227.946 517.769C230.988 515.195 233.593 512.898 235.764 510.853C237.933 508.833 239.696 507.051 241.039 505.516C242.369 503.987 243.316 502.732 243.846 501.698C244.376 500.665 244.53 499.857 244.304 499.299C244.078 498.74 243.464 498.39 242.473 498.265C241.496 498.133 240.142 498.227 238.412 498.546C236.71 498.852 234.617 499.389 232.165 500.121C229.738 500.864 226.923 501.815 223.762 502.953C220.91 503.99 217.811 505.191 214.525 506.481C211.266 507.781 207.832 509.187 204.299 510.641C200.78 512.088 197.184 513.617 193.548 515.143C189.94 516.654 186.327 518.215 182.746 519.737C179.233 521.25 175.694 522.752 172.241 524.213C168.803 525.668 165.436 527.088 162.2 528.423C158.992 529.744 155.942 530.991 153.095 532.117C150.276 533.231 147.646 534.231 145.329 535.082C143.002 535.915 140.989 536.599 139.266 537.098C137.57 537.607 136.15 537.939 135.06 538.114C133.969 538.289 133.167 538.304 132.667 538.152C132.153 538.006 131.968 537.704 132.045 537.231C132.134 536.775 132.529 536.128 133.2 535.303C133.871 534.478 134.833 533.469 136.083 532.299C137.334 531.129 138.861 529.782 140.676 528.274C142.466 526.755 144.544 525.076 146.896 523.244C149.22 521.425 151.791 519.442 154.535 517.378C157.252 515.302 160.152 513.163 163.144 510.934C166.133 508.729 169.21 506.46 172.327 504.194C175.416 501.942 201.52 483.076 204.608 480.824L180.812 498.048" fill="url(#paint1_linear_2750_18949)"/>
</g>
<defs>
<linearGradient id="paint0_linear_2750_18949" x1="192.042" y1="37.7768" x2="-711.451" y2="1315.15" gradientUnits="userSpaceOnUse">
<stop stop-color="#1F2846"/>
<stop offset="0.12937" stop-color="#5A488A"/>
<stop offset="0.346" stop-color="#24B0B3"/>
<stop offset="0.636" stop-color="#009AD6"/>
</linearGradient>
<linearGradient id="paint1_linear_2750_18949" x1="135.588" y1="533.944" x2="205.141" y2="1349.62" gradientUnits="userSpaceOnUse">
<stop stop-color="#1F2846"/>
<stop offset="0.12937" stop-color="#5A488A"/>
<stop offset="0.346" stop-color="#24B0B3"/>
<stop offset="0.636" stop-color="#009AD6"/>
</linearGradient>
<clipPath id="clip0_2750_18949">
<rect width="375" height="336" fill="white" transform="translate(0 1221)"/>
</clipPath>
</defs>
</svg>
