<svg width="1777" height="1005" viewBox="0 0 1777 1005" fill="none" xmlns="http://www.w3.org/2000/svg">
<g clip-path="url(#clip0_296_246)">
<path d="M523.733 497.78V453.742L654.394 266.747H719.536V449.013H754.701V497.78H719.536V554.523H663.593V497.78H523.733ZM667.181 326.752L585.271 449.078H667.181V326.752Z" stroke="#1F2846" stroke-width="4" stroke-miterlimit="10"/>
<path d="M815.229 296.774C831.887 270.678 859.527 257.63 898.15 257.63C936.772 257.63 964.412 270.678 981.07 296.774C997.707 322.87 1006.03 358.97 1006.04 405.073C1006.04 451.426 997.717 487.787 981.07 514.155C964.423 540.523 936.783 553.707 898.15 553.707C859.527 553.707 831.887 540.523 815.229 514.155C798.571 487.787 790.236 451.426 790.226 405.073C790.226 358.981 798.56 322.881 815.229 296.774ZM947.096 355.311C944.574 341.871 939.512 330.884 931.912 322.348C924.311 313.813 913.057 309.55 898.15 309.561C883.22 309.561 871.966 313.823 864.388 322.348C856.809 330.873 851.747 341.861 849.203 355.311C846.659 368.772 845.392 385.36 845.403 405.073C845.146 422.121 846.33 439.161 848.942 456.01C851.345 469.743 856.407 480.801 864.127 489.184C871.847 497.568 883.166 501.765 898.084 501.776C913.014 501.776 924.338 497.579 932.058 489.184C939.778 480.79 944.84 469.732 947.243 456.01C949.871 439.162 951.071 422.123 950.831 405.073C951.095 388.407 949.845 371.751 947.096 355.311Z" stroke="#1F2846" stroke-width="4" stroke-miterlimit="10"/>
<path d="M1046 497.78V453.742L1176.66 266.747H1241.8V449.013H1276.97V497.78H1241.8V554.523H1185.86V497.78H1046ZM1189.45 326.752L1107.54 449.078H1189.45V326.752Z" stroke="#1F2846" stroke-width="4" stroke-miterlimit="10"/>
<path d="M0 497.78H663.593V851.204C663.593 858.086 666.327 864.686 671.194 869.553C676.06 874.419 682.66 877.153 689.543 877.153H793.487" stroke="#1F2846" stroke-width="4" stroke-miterlimit="10"/>
<path d="M524 505.829V586.043C524 591.815 522.787 597.531 520.429 602.864C518.071 608.198 514.616 613.043 510.259 617.125C505.903 621.207 500.731 624.445 495.039 626.654C489.347 628.863 483.247 630 477.086 630H377.914C365.472 630 353.539 625.369 344.741 617.125C335.943 608.882 331 597.701 331 586.043V39.0001" stroke="#1F2846" stroke-width="4" stroke-miterlimit="10"/>
<path d="M754.701 449.013H1439.02C1445.17 449.015 1451.26 447.805 1456.94 445.454C1462.62 443.103 1467.79 439.655 1472.13 435.308C1476.48 430.961 1479.93 425.8 1482.29 420.12C1484.64 414.439 1485.85 408.351 1485.85 402.203V237.47C1485.84 232.054 1486.91 226.689 1488.97 221.683C1491.04 216.677 1494.08 212.127 1497.91 208.295C1501.73 204.462 1506.28 201.422 1511.28 199.348C1516.29 197.274 1521.65 196.206 1527.07 196.206H1764.75" stroke="#1F2846" stroke-width="4" stroke-miterlimit="10"/>
<path d="M1764.75 672.461H1288.63C1276.21 672.461 1264.3 667.528 1255.52 658.746C1246.74 649.964 1241.8 638.054 1241.8 625.635V554.523H1539.67L1617.7 476.479H1764.75" stroke="#1F2846" stroke-width="4" stroke-miterlimit="10"/>
<path d="M1763.94 208.438C1771.14 208.438 1776.99 202.597 1776.99 195.39C1776.99 188.184 1771.14 182.342 1763.94 182.342C1756.73 182.342 1750.89 188.184 1750.89 195.39C1750.89 202.597 1756.73 208.438 1763.94 208.438Z" fill="#1F2846"/>
<path d="M1763.94 488.972C1771.14 488.972 1776.99 483.131 1776.99 475.924C1776.99 468.718 1771.14 462.876 1763.94 462.876C1756.73 462.876 1750.89 468.718 1750.89 475.924C1750.89 483.131 1756.73 488.972 1763.94 488.972Z" fill="#1F2846"/>
<path d="M1763.94 686.325C1771.14 686.325 1776.99 680.483 1776.99 673.277C1776.99 666.07 1771.14 660.229 1763.94 660.229C1756.73 660.229 1750.89 666.07 1750.89 673.277C1750.89 680.483 1756.73 686.325 1763.94 686.325Z" fill="#1F2846"/>
<path d="M705.804 981.538C720.433 981.538 732.292 969.679 732.292 955.05C732.292 940.421 720.433 928.562 705.804 928.562C691.175 928.562 679.316 940.421 679.316 955.05C679.316 969.679 691.175 981.538 705.804 981.538Z" stroke="#1F2846" stroke-width="4" stroke-miterlimit="10"/>
<path d="M1068.8 749.592C1066.9 751.492 1064.65 753 1062.16 754.029C1059.68 755.057 1057.02 755.587 1054.33 755.587C1051.65 755.587 1048.99 755.057 1046.5 754.029C1044.02 753 1041.77 751.492 1039.87 749.592C1037.97 747.691 1036.46 745.434 1035.43 742.95C1034.4 740.467 1033.87 737.805 1033.87 735.116C1033.87 732.428 1034.4 729.766 1035.43 727.282C1036.46 724.799 1037.97 722.542 1039.87 720.641L1070.64 689.864C1061.65 686.324 1051.84 685.381 1042.34 687.143C1032.83 688.906 1024.01 693.302 1016.89 699.831C1009.76 706.361 1004.61 714.761 1002.02 724.074C999.435 733.388 999.516 743.241 1002.26 752.511L728.507 915.922C719.891 910.919 709.864 908.899 699.982 910.178C690.101 911.456 680.917 915.961 673.858 922.993C666.799 930.024 662.258 939.189 660.94 949.066C659.623 958.942 661.602 968.977 666.572 977.613C671.541 986.25 679.223 993.004 688.423 996.828C697.624 1000.65 707.83 1001.33 717.457 998.762C727.084 996.192 735.593 990.516 741.664 982.615C747.735 974.714 751.028 965.03 751.032 955.066C751.028 952.927 750.876 950.791 750.575 948.673L1027.36 783.419C1036.7 788.427 1047.35 790.44 1057.87 789.185C1068.39 787.93 1078.27 783.468 1086.17 776.403C1094.07 769.339 1099.6 760.015 1102.02 749.698C1104.43 739.38 1103.62 728.57 1099.68 718.733L1068.8 749.592Z" stroke="#1F2846" stroke-width="4" stroke-miterlimit="10"/>
<path d="M1046 453.808V542.942C1046 549.825 1043.27 556.425 1038.4 561.291C1033.53 566.158 1026.93 568.892 1020.05 568.892C1016.64 568.892 1013.27 569.563 1010.12 570.867C1006.97 572.171 1004.11 574.083 1001.7 576.492C999.292 578.902 997.381 581.763 996.077 584.911C994.773 588.059 994.102 591.434 994.102 594.841V601.512" stroke="#1F2846" stroke-width="4" stroke-miterlimit="10"/>
<path d="M994.101 608.036C999.505 608.036 1003.89 603.655 1003.89 598.25C1003.89 592.845 999.505 588.464 994.101 588.464C988.696 588.464 984.314 592.845 984.314 598.25C984.314 603.655 988.696 608.036 994.101 608.036Z" fill="#1F2846"/>
<path d="M1099.68 718.717L1124.26 694.154H1165.67C1167.75 694.154 1169.74 694.98 1171.21 696.451C1172.69 697.923 1173.51 699.918 1173.51 701.999V723.838" stroke="#1F2846" stroke-width="4" stroke-miterlimit="10"/>
<path d="M1085.32 777.498H1330.24C1337.12 777.498 1343.71 774.766 1348.58 769.904C1353.45 765.041 1356.18 758.445 1356.19 751.565V449.078" stroke="#1F2846" stroke-width="4" stroke-miterlimit="10"/>
<path d="M1173.51 733.624C1179.82 733.624 1184.93 728.512 1184.93 722.207C1184.93 715.901 1179.82 710.79 1173.51 710.79C1167.21 710.79 1162.1 715.901 1162.1 722.207C1162.1 728.512 1167.21 733.624 1173.51 733.624Z" fill="#1F2846"/>
</g>
<defs>
<clipPath id="clip0_296_246">
<rect width="1776.99" height="1004.43" fill="white" transform="translate(0 0.484497)"/>
</clipPath>
</defs>
</svg>
