<svg width="195" height="182" viewBox="0 0 195 182" fill="none" xmlns="http://www.w3.org/2000/svg">
<path d="M50.6553 116.009L100.639 82.9438L120.572 96.0944L70.5886 129.151L50.6553 116.009Z" fill="#002D38"/>
<path d="M50.7264 85.723L98.1333 54.3667L98.0621 84.7066L50.6553 116.054L50.7264 85.723Z" fill="#103940"/>
<path d="M77.884 83.1237L125.291 51.7764L125.188 102.526L77.7812 133.882L77.884 83.1237Z" fill="#D1D1D1"/>
<path d="M21.9502 46.5863L64.3619 11.74L125.292 51.7764L77.8852 83.1237L21.9502 46.5863Z" fill="#BDBDBD"/>
<path d="M77.8845 83.1236L77.7817 133.882L70.5893 129.151L70.6604 98.8197L50.7271 85.7231L50.656 116.054L21.8467 97.3446L21.9494 46.5862L77.8845 83.1236Z" fill="#E6E6E6"/>
<path d="M70.7792 98.8378L70.7001 129.16L50.6641 115.991L50.7352 85.6692L70.7792 98.8378Z" fill="#005A87"/>
<path d="M60.44 103.56L61.175 103.083L61.1197 122.935L60.3926 123.421L60.44 103.56Z" fill="#052A43"/>
<path d="M70.0928 108.912L70.8199 108.435V109.416L70.0928 109.901V108.912Z" fill="#133F47"/>
<path d="M50.0478 86.2175L50.7749 85.7407L50.6959 116.063L49.9688 116.548L50.0478 86.2175Z" fill="#B8B8B8"/>
<path d="M50.0469 95.7433L50.774 95.2576L70.818 108.435L70.0908 108.912L50.0469 95.7433Z" fill="#126D9A"/>
<path d="M50.0469 95.7432V96.7326L59.6895 103.065L59.642 122.926L60.3929 123.421L60.4403 103.56L70.0908 109.901V108.912L50.0469 95.7432Z" fill="#003C67"/>
<path d="M71.0712 98.5499L71.7984 98.0642L71.7193 129.879L70.9922 130.365L71.0712 98.5499Z" fill="#B8B8B8"/>
<path d="M49.0674 84.0858L49.7945 83.6001L71.7987 98.0639L71.0715 98.5497L49.0674 84.0858Z" fill="#EEEEEE"/>
<path d="M71.0714 98.55L70.9924 130.365L70.0123 129.717L70.0914 99.3955L50.0474 86.218L49.9683 116.549L48.9883 115.901L49.0673 84.0862L71.0714 98.55Z" fill="#E6E6E6"/>
<path d="M47.3602 83.6455L47.3444 90.8864L24.2891 75.739L24.3049 68.498L47.3602 83.6455Z" fill="#126D9A"/>
<path d="M23.9082 75.9096L24.6432 75.4329L29.4646 78.5991L28.7374 79.0848L23.9082 75.9096Z" fill="#EEEEEE"/>
<path d="M23.9319 68.6689L24.6591 68.1921L24.6432 75.4331L23.9082 75.9098L23.9319 68.6689Z" fill="#B8B8B8"/>
<path d="M29.6858 72.4557L30.413 71.97L30.3972 79.2109L29.6621 79.6966L29.6858 72.4557Z" fill="#B8B8B8"/>
<path d="M29.6621 79.6967L30.3972 79.2109L41.9288 86.7937L41.2016 87.2704L29.6621 79.6967Z" fill="#EEEEEE"/>
<path d="M42.1426 87.8912L42.8697 87.4055L47.691 90.5717L46.9639 91.0575L42.1426 87.8912Z" fill="#EEEEEE"/>
<path d="M42.1584 80.65L42.8855 80.1643L42.8697 87.4052L42.1426 87.8909L42.1584 80.65Z" fill="#B8B8B8"/>
<path d="M42.893 79.058L41.9525 78.4463L30.413 70.8636L29.4803 70.252L23.7185 66.4651L22.9834 66.9418L28.7532 70.7377L29.6858 71.3493L41.2253 78.9231L42.158 79.5437L47.9277 83.3306L48.6549 82.8538L42.893 79.058Z" fill="#EEEEEE"/>
<path d="M42.1583 79.5433L41.2178 78.9227L29.6782 71.3399L28.7456 70.7283L22.9759 66.9414L22.9521 76.3951L28.7219 80.1819L29.6545 80.7936L41.1941 88.3763L42.1346 88.997L47.9044 92.7838L47.9281 83.3302L42.1583 79.5433ZM28.7377 79.0846L23.9164 75.9183L23.9322 68.6774L28.7535 71.8436L28.7377 79.0846ZM41.202 87.2699L29.6624 79.6872L29.6782 72.4463L41.2099 80.029L41.1941 87.2699H41.202ZM46.9638 91.0568L42.1425 87.8906L42.1583 80.6497L46.9796 83.8159L46.9638 91.0568Z" fill="#E6E6E6"/>
<path d="M47.927 83.3305L48.6542 82.8538L48.6305 92.2984L47.9033 92.7842L47.927 83.3305Z" fill="#B8B8B8"/>
<path d="M77.4583 84.1311L127.45 51.0747L127.426 53.8541L77.4346 86.9105L77.4583 84.1311Z" fill="#052A43"/>
<path d="M18.2109 45.4169L63.1992 8.85254L127.449 51.0747L77.4576 84.1311L18.2109 45.4169Z" fill="#005A87"/>
<path d="M77.4579 84.1309L77.4342 86.9103C58.1016 74.2095 60.1645 75.7746 18.1875 48.1962L18.2112 45.4167L77.4579 84.1309Z" fill="#003C67"/>
<path d="M77.805 68.327L125.212 36.9707L125.188 50.2112L77.7812 81.5586L77.805 68.327Z" fill="#D1D1D1"/>
<path d="M21.8691 31.7897L69.1495 0.730225L125.211 36.9708L77.8042 68.3271L21.8691 31.7897Z" fill="#EEEEEE"/>
<path d="M77.8054 68.3269L77.7817 81.5584C59.445 69.5142 61.658 71.1783 21.8467 45.021L21.8704 31.7805L77.8054 68.3179V68.3269Z" fill="#E6E6E6"/>
<path d="M77.4573 133.126L127.449 100.07L127.425 102.849L77.4336 135.906L77.4573 133.126Z" fill="#052A43"/>
<path d="M48.9885 114.372L18.2112 94.4126L18.1875 97.192C36.6665 109.335 40.9029 111.854 48.9806 117.161V114.372H48.9885Z" fill="#003C67"/>
<path d="M70.5977 128.62V131.408C72.6763 132.784 74.9131 134.251 77.4423 135.906L77.466 133.126L70.5977 128.611V128.62Z" fill="#003C67"/>
<path d="M48.9952 112.564L21.8457 94.988L21.8536 92.0017L18.21 94.4123L48.9873 114.372L48.9952 112.564Z" fill="#005A87"/>
<path d="M125.196 98.5859L125.188 100.169L77.781 131.525L71.9955 127.729L70.6123 128.629L77.457 133.126L127.448 100.07L125.196 98.5859Z" fill="#005A87"/>
<path d="M29.1965 29.0639L32.0102 27.2019L32.0023 31.0247L29.1807 32.8867L29.1965 29.0639Z" fill="#B8B8B8"/>
<path d="M26.374 27.2199L29.1957 25.3579L32.0094 27.2019L29.1957 29.0638L26.374 27.2199Z" fill="#E3E3E3"/>
<path d="M29.1958 29.0639L29.18 32.8868L26.3662 31.0428L26.3741 27.22L29.1958 29.0639Z" fill="#C9C9C9"/>
<path d="M77.9396 61.0946L80.7534 59.2327L80.7455 63.0555L77.9238 64.9175L77.9396 61.0946Z" fill="#B8B8B8"/>
<path d="M75.125 59.2418L77.9387 57.3799L80.7525 59.2328L77.9387 61.0948L75.125 59.2418Z" fill="#E3E3E3"/>
<path d="M77.9389 61.0947L77.9231 64.9175L75.1094 63.0645L75.1252 59.2417L77.9389 61.0947Z" fill="#C9C9C9"/>
<path d="M68.0519 3.72547L70.8735 1.86353L70.8656 5.68637L68.0439 7.54832L68.0519 3.72547Z" fill="#B8B8B8"/>
<path d="M65.2373 1.87245L68.0589 0.010498L70.8727 1.86345L68.051 3.7254L65.2373 1.87245Z" fill="#E3E3E3"/>
<path d="M68.0511 3.72551L68.0432 7.54836L65.2295 5.6954L65.2374 1.87256L68.0511 3.72551Z" fill="#C9C9C9"/>
<path d="M116.793 35.7474L119.615 33.8855L119.599 37.7083L116.785 39.5703L116.793 35.7474Z" fill="#B8B8B8"/>
<path d="M113.979 33.9035L116.8 32.0415L119.614 33.8855L116.792 35.7474L113.979 33.9035Z" fill="#E3E3E3"/>
<path d="M116.792 35.7475L116.784 39.5704L113.971 37.7264L113.979 33.9036L116.792 35.7475Z" fill="#C9C9C9"/>
<path d="M58.882 107.365L59.2456 107.122L59.2298 114.93L58.8662 115.173L58.882 107.365Z" fill="#B8B8B8"/>
<path d="M58.5674 107.158L58.9309 106.915L59.2471 107.122L58.8835 107.365L58.5674 107.158Z" fill="#EEEEEE"/>
<path d="M58.8828 107.365L58.867 115.173L58.5508 114.966L58.5666 107.158L58.8828 107.365Z" fill="#E6E6E6"/>
<path d="M61.4837 109.065L61.8472 108.823L61.8235 116.639L61.46 116.882L61.4837 109.065Z" fill="#B8B8B8"/>
<path d="M61.1582 108.858L61.5218 108.615L61.8458 108.822L61.4823 109.065L61.1582 108.858Z" fill="#EEEEEE"/>
<path d="M61.4825 109.065L61.4588 116.882L61.1348 116.666L61.1585 108.858L61.4825 109.065Z" fill="#E6E6E6"/>
<path d="M117.609 156.387L167.593 123.331L187.526 136.481L137.543 169.538L117.609 156.387Z" fill="#080808"/>
<path d="M117.681 126.11L165.087 94.7539L165.016 125.085L117.609 156.441L117.681 126.11Z" fill="#052A43"/>
<path d="M145.115 132.937L145.012 174.269L137.812 169.538L137.891 139.207L117.958 126.11L117.879 156.441L84.0742 134.233L84.177 92.9009L145.115 132.937Z" fill="#C9C9C9"/>
<path d="M137.844 138.928L137.772 151.584L117.729 138.424L117.808 125.76L137.844 138.928Z" fill="#005A87"/>
<path d="M117.002 126.605L117.729 126.128L117.658 156.45L116.923 156.936L117.002 126.605Z" fill="#B8B8B8"/>
<path d="M138.026 138.937L137.947 170.743L136.974 170.104L137.045 139.774L117.001 126.605L116.922 156.936L115.942 156.288L116.021 124.473L138.026 138.937Z" fill="#E6E6E6"/>
<path d="M110.979 122.98L110.964 130.221L87.9082 115.073L87.924 107.833L110.979 122.98Z" fill="#126D9A"/>
<path d="M87.5361 115.244L88.2633 114.758L93.0846 117.934L92.3574 118.41L87.5361 115.244Z" fill="#EEEEEE"/>
<path d="M87.5519 108.003L88.2791 107.518L88.2633 114.758L87.5361 115.244L87.5519 108.003Z" fill="#B8B8B8"/>
<path d="M93.3049 111.781L94.032 111.304L94.0162 118.545L93.2891 119.022L93.3049 111.781Z" fill="#B8B8B8"/>
<path d="M93.2891 119.022L94.0162 118.545L105.556 126.119L104.821 126.605L93.2891 119.022Z" fill="#EEEEEE"/>
<path d="M105.763 127.216L106.49 126.74L111.311 129.906L110.584 130.392L105.763 127.216Z" fill="#EEEEEE"/>
<path d="M105.778 119.976L106.514 119.499L106.49 126.74L105.763 127.217L105.778 119.976Z" fill="#B8B8B8"/>
<path d="M106.512 118.392L105.572 117.772L94.0399 110.198L93.1073 109.586L87.3375 105.791L86.6104 106.276L92.3722 110.063L93.3049 110.675L104.844 118.257L105.785 118.869L111.547 122.665L112.282 122.179L106.512 118.392Z" fill="#EEEEEE"/>
<path d="M105.786 118.869L104.846 118.248L93.314 110.666L92.3814 110.054L86.6116 106.267L86.5879 115.721L92.3577 119.508L93.2903 120.119L104.83 127.702L105.77 128.314L111.54 132.101L111.564 122.647L105.794 118.86L105.786 118.869ZM92.3577 118.41L87.5364 115.244L87.5522 108.003L92.3735 111.169L92.3577 118.41ZM104.822 126.605L93.2903 119.022L93.3061 111.781L104.846 119.364L104.83 126.605H104.822ZM110.584 130.391L105.762 127.225L105.778 119.984L110.6 123.151L110.584 130.391Z" fill="#E6E6E6"/>
<path d="M111.548 122.665L112.283 122.179L112.259 131.633L111.524 132.119L111.548 122.665Z" fill="#B8B8B8"/>
<path d="M117.135 177.039C117.135 176.976 117.135 176.922 117.143 176.859C117.143 176.796 117.143 176.742 117.158 176.679C117.158 176.616 117.166 176.554 117.174 176.491C117.174 176.428 117.19 176.365 117.198 176.302C117.198 176.302 117.198 176.302 117.198 176.293C117.206 176.23 117.214 176.167 117.222 176.113C117.23 176.05 117.245 175.978 117.261 175.915C117.277 175.852 117.285 175.78 117.301 175.717C117.317 175.645 117.332 175.582 117.348 175.51C117.364 175.456 117.38 175.402 117.388 175.348C117.388 175.348 117.388 175.33 117.388 175.321C117.403 175.258 117.427 175.186 117.443 175.123C117.459 175.06 117.483 174.997 117.506 174.925C117.522 174.862 117.546 174.8 117.569 174.737C117.593 174.674 117.609 174.611 117.633 174.548C117.648 174.503 117.672 174.449 117.688 174.404C117.688 174.404 117.688 174.404 117.688 174.395C117.688 174.395 117.688 174.377 117.696 174.368C117.72 174.305 117.743 174.242 117.767 174.179C117.799 174.116 117.822 174.044 117.854 173.972C117.886 173.9 117.925 173.819 117.957 173.747C117.996 173.666 118.036 173.585 118.075 173.504C118.075 173.495 118.091 173.477 118.099 173.459C118.099 173.441 118.115 173.423 118.123 173.405C118.202 173.252 118.289 173.099 118.376 172.947C118.447 172.83 118.51 172.722 118.589 172.605C118.636 172.533 118.692 172.452 118.739 172.38C118.779 172.317 118.826 172.254 118.866 172.2C118.905 172.146 118.953 172.083 118.992 172.029C119.032 171.975 119.079 171.921 119.127 171.867C119.127 171.867 119.142 171.849 119.15 171.84C119.15 171.84 119.15 171.831 119.158 171.831C119.19 171.786 119.229 171.75 119.261 171.705C119.308 171.651 119.356 171.597 119.403 171.543C119.451 171.489 119.498 171.435 119.545 171.39C119.593 171.336 119.648 171.291 119.696 171.247C119.719 171.229 119.743 171.202 119.767 171.184C119.767 171.184 119.775 171.175 119.783 171.166C119.798 171.148 119.822 171.13 119.846 171.112C119.893 171.067 119.941 171.022 119.988 170.986C120.035 170.95 120.083 170.905 120.13 170.869C120.178 170.833 120.225 170.797 120.273 170.761C120.32 170.725 120.367 170.698 120.415 170.662C120.423 170.662 120.439 170.644 120.446 170.644C120.478 170.617 120.518 170.599 120.549 170.572C120.597 170.545 120.644 170.518 120.684 170.491C120.731 170.464 120.77 170.437 120.818 170.419C120.865 170.392 120.905 170.374 120.952 170.356C121 170.338 121.039 170.32 121.087 170.302C121.095 170.302 121.102 170.302 121.118 170.293C121.118 170.293 121.118 170.293 121.126 170.293C121.158 170.284 121.189 170.266 121.221 170.257C121.268 170.239 121.316 170.23 121.363 170.212C121.411 170.203 121.458 170.185 121.498 170.176C121.545 170.167 121.592 170.158 121.64 170.149C121.672 170.149 121.711 170.149 121.743 170.14C121.743 170.14 121.751 170.14 121.758 170.14C121.766 170.14 121.782 170.14 121.79 170.14C121.845 170.14 121.893 170.14 121.948 170.14C122.003 170.14 122.067 170.14 122.122 170.149C122.185 170.149 122.249 170.167 122.32 170.185C122.32 170.185 122.32 170.185 122.328 170.185C122.407 170.203 122.478 170.221 122.549 170.257C122.644 170.293 122.731 170.347 122.818 170.401L125.829 172.389C125.679 172.29 125.513 172.218 125.339 172.173C125.339 172.173 125.339 172.173 125.331 172.173C125.157 172.128 124.967 172.119 124.77 172.137C124.77 172.137 124.762 172.137 124.754 172.137C124.556 172.155 124.351 172.209 124.138 172.29C124.138 172.29 124.137 172.29 124.13 172.29C123.908 172.371 123.687 172.488 123.458 172.641C123.229 172.794 123.007 172.965 122.794 173.162C122.794 173.162 122.786 173.171 122.778 173.18C122.565 173.378 122.359 173.594 122.162 173.837C122.162 173.837 122.162 173.837 122.154 173.846C121.956 174.089 121.766 174.341 121.592 174.62C121.419 174.889 121.261 175.168 121.11 175.465C121.11 175.483 121.095 175.492 121.087 175.51C120.944 175.798 120.81 176.095 120.691 176.401C120.691 176.401 120.691 176.401 120.691 176.41C120.573 176.715 120.47 177.03 120.383 177.345C120.383 177.345 120.383 177.345 120.383 177.354C120.296 177.669 120.233 177.984 120.194 178.29C120.154 178.604 120.13 178.91 120.13 179.216C120.13 179.513 120.154 179.783 120.201 180.035V180.053C120.249 180.295 120.312 180.52 120.391 180.727C120.462 180.898 120.549 181.033 120.644 181.168C120.676 181.213 120.699 181.258 120.739 181.303C120.85 181.438 120.968 181.555 121.102 181.645L118.091 179.657C117.957 179.567 117.838 179.45 117.728 179.315C117.696 179.279 117.664 179.225 117.633 179.18C117.593 179.126 117.546 179.072 117.514 179.009C117.467 178.928 117.427 178.838 117.388 178.748C117.388 178.748 117.388 178.748 117.388 178.739C117.364 178.676 117.34 178.613 117.317 178.541C117.293 178.478 117.277 178.406 117.261 178.344C117.245 178.281 117.23 178.218 117.222 178.155C117.222 178.128 117.214 178.101 117.206 178.074C117.206 178.074 117.206 178.056 117.206 178.047C117.206 178.02 117.198 177.993 117.19 177.966C117.182 177.912 117.174 177.849 117.166 177.786C117.166 177.723 117.151 177.669 117.151 177.606C117.151 177.543 117.151 177.489 117.143 177.426C117.143 177.363 117.143 177.309 117.143 177.246C117.143 177.174 117.143 177.12 117.143 177.066L117.135 177.039Z" fill="#001121"/>
<path d="M123.482 172.632C125.323 171.417 126.833 172.398 126.841 174.808C126.841 177.219 125.347 180.169 123.506 181.375C121.664 182.589 120.154 181.618 120.146 179.207C120.146 176.796 121.64 173.837 123.482 172.632Z" fill="#00486E"/>
<path d="M123.617 173.747C124.992 172.848 126.114 173.576 126.114 175.366C126.114 177.165 125 179.36 123.632 180.26C122.257 181.159 121.135 180.439 121.127 178.64C121.127 176.85 122.241 174.647 123.609 173.738L123.617 173.747Z" fill="#CEDDE1"/>
<path d="M122.413 177.705C122.413 177.705 122.413 177.66 122.413 177.633C122.413 177.606 122.413 177.588 122.413 177.561C122.413 177.534 122.413 177.516 122.413 177.489C122.413 177.462 122.413 177.435 122.421 177.417C122.421 177.417 122.421 177.372 122.429 177.345C122.429 177.318 122.437 177.291 122.445 177.264C122.445 177.237 122.453 177.21 122.461 177.183C122.461 177.156 122.469 177.129 122.477 177.102C122.477 177.084 122.485 177.057 122.493 177.039V177.03C122.493 177.003 122.508 176.976 122.516 176.949C122.516 176.922 122.532 176.895 122.54 176.868C122.54 176.841 122.556 176.823 122.564 176.796C122.564 176.769 122.579 176.742 122.587 176.724C122.587 176.706 122.603 176.688 122.611 176.67C122.611 176.67 122.611 176.67 122.611 176.661C122.619 176.634 122.627 176.616 122.643 176.589C122.651 176.562 122.666 176.535 122.674 176.508C122.69 176.481 122.698 176.445 122.714 176.418C122.73 176.382 122.745 176.355 122.761 176.319C122.761 176.319 122.761 176.31 122.761 176.301C122.761 176.301 122.761 176.283 122.769 176.283C122.801 176.221 122.832 176.158 122.872 176.104C122.896 176.059 122.927 176.014 122.951 175.969C122.967 175.942 122.99 175.906 123.006 175.879C123.022 175.852 123.038 175.834 123.054 175.807C123.069 175.789 123.085 175.762 123.101 175.744C123.117 175.726 123.133 175.699 123.156 175.681C123.156 175.681 123.156 175.681 123.156 175.672C123.172 175.654 123.18 175.636 123.196 175.618C123.212 175.6 123.235 175.573 123.251 175.555C123.267 175.537 123.291 175.51 123.307 175.492C123.322 175.474 123.346 175.456 123.362 175.438C123.37 175.438 123.378 175.42 123.386 175.411C123.394 175.411 123.401 175.393 123.409 175.393C123.425 175.375 123.449 175.357 123.465 175.348C123.48 175.33 123.504 175.312 123.52 175.303C123.536 175.285 123.552 175.276 123.575 175.258C123.591 175.249 123.615 175.231 123.631 175.222C123.631 175.222 123.631 175.222 123.646 175.222C123.662 175.213 123.678 175.204 123.686 175.195C123.702 175.186 123.718 175.177 123.741 175.159C123.757 175.159 123.781 175.141 123.797 175.132C123.812 175.132 123.836 175.114 123.852 175.105C123.868 175.105 123.891 175.087 123.907 175.087C123.907 175.087 123.907 175.087 123.923 175.087C123.939 175.087 123.947 175.087 123.963 175.078C123.978 175.078 123.994 175.069 124.018 175.06C124.034 175.06 124.057 175.06 124.073 175.042C124.089 175.042 124.113 175.042 124.129 175.033C124.144 175.033 124.16 175.033 124.168 175.033H124.176C124.176 175.033 124.216 175.033 124.239 175.033C124.263 175.033 124.287 175.033 124.31 175.033C124.334 175.033 124.358 175.033 124.389 175.042C124.389 175.042 124.445 175.06 124.476 175.069C124.516 175.087 124.547 175.105 124.587 175.123L124.887 175.321C124.824 175.285 124.761 175.258 124.69 175.24C124.619 175.222 124.547 175.222 124.468 175.222C124.389 175.231 124.31 175.249 124.223 175.285C124.136 175.321 124.05 175.366 123.955 175.42C123.868 175.483 123.781 175.546 123.694 175.627C123.607 175.708 123.528 175.789 123.449 175.879C123.37 175.978 123.299 176.077 123.228 176.185C123.156 176.292 123.093 176.4 123.038 176.517C123.038 176.517 123.038 176.526 123.038 176.535C122.983 176.652 122.927 176.769 122.88 176.886C122.832 177.003 122.793 177.129 122.761 177.255C122.73 177.381 122.706 177.498 122.682 177.624C122.666 177.75 122.658 177.867 122.658 177.993C122.658 178.118 122.666 178.217 122.682 178.316C122.682 178.316 122.682 178.316 122.682 178.325C122.698 178.424 122.722 178.505 122.753 178.586C122.777 178.64 122.801 178.676 122.832 178.721C122.888 178.811 122.959 178.892 123.038 178.946L122.738 178.748C122.658 178.694 122.595 178.613 122.532 178.523C122.532 178.514 122.516 178.505 122.508 178.496C122.492 178.469 122.477 178.433 122.461 178.397C122.453 178.37 122.437 178.343 122.429 178.316C122.421 178.289 122.413 178.262 122.406 178.235C122.406 178.208 122.398 178.181 122.39 178.163C122.39 178.154 122.39 178.145 122.39 178.127C122.39 178.118 122.39 178.109 122.39 178.091C122.39 178.065 122.39 178.047 122.382 178.02C122.382 177.993 122.382 177.975 122.382 177.948C122.382 177.93 122.382 177.903 122.382 177.876C122.382 177.849 122.382 177.831 122.382 177.804C122.382 177.804 122.382 177.75 122.382 177.732L122.413 177.705Z" fill="#002D3B"/>
<path d="M124.026 175.375C123.299 175.852 122.706 177.021 122.714 177.966C122.714 178.91 123.315 179.297 124.034 178.82C124.761 178.344 125.354 177.183 125.346 176.239C125.346 175.294 124.745 174.908 124.026 175.384V175.375Z" fill="#001121"/>
<path d="M136.357 165.31C136.357 165.247 136.357 165.193 136.357 165.13C136.357 165.067 136.357 165.004 136.373 164.95C136.373 164.887 136.381 164.824 136.389 164.761C136.389 164.698 136.405 164.635 136.413 164.572C136.413 164.572 136.413 164.572 136.413 164.563C136.421 164.5 136.429 164.437 136.436 164.384C136.444 164.321 136.46 164.249 136.476 164.186C136.492 164.123 136.5 164.051 136.516 163.988C136.531 163.925 136.547 163.853 136.563 163.781C136.579 163.727 136.587 163.673 136.602 163.619C136.602 163.619 136.602 163.619 136.602 163.61C136.602 163.61 136.602 163.592 136.602 163.583C136.618 163.52 136.642 163.448 136.658 163.385C136.674 163.322 136.697 163.259 136.713 163.187C136.729 163.124 136.753 163.061 136.776 162.998C136.8 162.935 136.816 162.872 136.84 162.809C136.855 162.764 136.879 162.71 136.895 162.665C136.895 162.665 136.895 162.665 136.895 162.656C136.895 162.656 136.895 162.639 136.903 162.63C136.926 162.567 136.95 162.504 136.974 162.45C137.006 162.378 137.029 162.315 137.061 162.243C137.092 162.171 137.132 162.09 137.164 162.018C137.203 161.937 137.243 161.856 137.282 161.775C137.282 161.757 137.298 161.748 137.306 161.73C137.306 161.712 137.322 161.694 137.33 161.676C137.409 161.523 137.496 161.37 137.583 161.217C137.646 161.1 137.717 160.992 137.788 160.876C137.835 160.804 137.883 160.723 137.938 160.651C137.978 160.588 138.025 160.525 138.065 160.471C138.104 160.417 138.152 160.354 138.191 160.3C138.231 160.246 138.278 160.192 138.325 160.138C138.325 160.138 138.341 160.12 138.349 160.111C138.349 160.111 138.349 160.111 138.357 160.102C138.389 160.057 138.428 160.021 138.46 159.976C138.507 159.922 138.555 159.868 138.602 159.814C138.65 159.76 138.697 159.706 138.752 159.661C138.8 159.607 138.847 159.562 138.902 159.517C138.926 159.49 138.95 159.472 138.974 159.454C138.974 159.454 138.989 159.445 138.989 159.436C139.005 159.418 139.029 159.4 139.053 159.382C139.1 159.337 139.147 159.301 139.203 159.256C139.25 159.211 139.298 159.175 139.345 159.139C139.392 159.103 139.44 159.068 139.487 159.032C139.535 158.996 139.582 158.969 139.63 158.933C139.638 158.933 139.653 158.915 139.661 158.915C139.701 158.888 139.732 158.87 139.764 158.843C139.811 158.816 139.859 158.789 139.898 158.762C139.946 158.735 139.985 158.717 140.033 158.69C140.08 158.663 140.12 158.645 140.167 158.627C140.214 158.609 140.262 158.591 140.301 158.573C140.309 158.573 140.317 158.573 140.333 158.564C140.333 158.564 140.333 158.564 140.341 158.564C140.373 158.546 140.404 158.537 140.436 158.528C140.483 158.51 140.531 158.501 140.578 158.483C140.625 158.474 140.673 158.456 140.712 158.447C140.76 158.438 140.807 158.429 140.855 158.42C140.886 158.42 140.926 158.42 140.957 158.411C140.957 158.411 140.965 158.411 140.973 158.411C140.981 158.411 140.997 158.411 141.005 158.411C141.06 158.411 141.108 158.411 141.163 158.411C141.218 158.411 141.281 158.411 141.337 158.42C141.4 158.42 141.471 158.438 141.534 158.456C141.534 158.456 141.534 158.456 141.542 158.456C141.621 158.474 141.692 158.501 141.764 158.528C141.858 158.564 141.945 158.618 142.032 158.672L145.044 160.66C144.894 160.561 144.728 160.489 144.554 160.444C144.554 160.444 144.554 160.444 144.546 160.444C144.372 160.399 144.182 160.39 143.985 160.408C143.985 160.408 143.977 160.408 143.969 160.408C143.771 160.426 143.566 160.48 143.352 160.561C143.352 160.561 143.352 160.561 143.344 160.561C143.123 160.642 142.902 160.759 142.673 160.911C142.443 161.064 142.222 161.235 142.009 161.433C142.009 161.433 142.001 161.442 141.993 161.451C141.779 161.649 141.574 161.865 141.376 162.108C141.376 162.108 141.376 162.108 141.368 162.117C141.171 162.36 140.981 162.612 140.807 162.89C140.633 163.16 140.475 163.439 140.325 163.736C140.325 163.754 140.309 163.763 140.301 163.781C140.159 164.069 140.025 164.366 139.906 164.671C139.906 164.671 139.906 164.671 139.906 164.68C139.788 164.986 139.685 165.301 139.606 165.616C139.606 165.616 139.606 165.616 139.606 165.625C139.519 165.94 139.456 166.254 139.416 166.569C139.369 166.884 139.353 167.19 139.353 167.496C139.353 167.793 139.377 168.062 139.424 168.314C139.424 168.314 139.424 168.332 139.424 168.341C139.472 168.584 139.535 168.809 139.614 169.016C139.685 169.187 139.772 169.322 139.867 169.457C139.898 169.502 139.93 169.547 139.962 169.592C140.072 169.726 140.191 169.843 140.325 169.933L137.314 167.946C137.179 167.856 137.061 167.739 136.95 167.604C136.919 167.568 136.887 167.514 136.855 167.469C136.816 167.415 136.768 167.361 136.737 167.298C136.689 167.217 136.65 167.127 136.61 167.037C136.587 166.974 136.563 166.911 136.539 166.839C136.516 166.776 136.5 166.704 136.484 166.641C136.468 166.578 136.452 166.515 136.436 166.443C136.436 166.416 136.429 166.389 136.421 166.362C136.421 166.362 136.421 166.344 136.421 166.335C136.421 166.308 136.413 166.281 136.405 166.254C136.397 166.192 136.389 166.138 136.381 166.075C136.381 166.012 136.365 165.958 136.365 165.895C136.365 165.832 136.365 165.778 136.357 165.715C136.357 165.661 136.357 165.598 136.357 165.535C136.357 165.463 136.357 165.409 136.357 165.355V165.31Z" fill="#001121"/>
<path d="M142.704 160.893C144.545 159.679 146.055 160.659 146.063 163.07C146.063 165.481 144.569 168.431 142.727 169.636C140.886 170.851 139.376 169.879 139.368 167.468C139.368 165.058 140.862 162.099 142.704 160.893Z" fill="#00486E"/>
<path d="M142.838 162.009C144.214 161.109 145.336 161.838 145.344 163.628C145.344 165.427 144.229 167.622 142.862 168.521C141.487 169.42 140.364 168.701 140.356 166.902C140.356 165.103 141.471 162.908 142.838 162V162.009Z" fill="#CEDDE1"/>
<path d="M141.636 165.976C141.636 165.976 141.636 165.931 141.636 165.904C141.636 165.877 141.636 165.859 141.636 165.832C141.636 165.805 141.636 165.787 141.636 165.76C141.636 165.733 141.636 165.706 141.644 165.688C141.644 165.688 141.644 165.643 141.652 165.616C141.652 165.589 141.66 165.562 141.668 165.535C141.668 165.508 141.676 165.481 141.684 165.454C141.684 165.427 141.692 165.4 141.7 165.373C141.7 165.355 141.707 165.328 141.715 165.31C141.715 165.283 141.731 165.256 141.739 165.229C141.739 165.202 141.755 165.175 141.763 165.157C141.763 165.13 141.779 165.103 141.786 165.085C141.786 165.058 141.802 165.04 141.81 165.013C141.81 164.995 141.826 164.977 141.834 164.959V164.95C141.842 164.923 141.85 164.896 141.866 164.878C141.873 164.851 141.889 164.824 141.897 164.797C141.913 164.77 141.921 164.734 141.937 164.707C141.952 164.671 141.968 164.644 141.984 164.608C141.984 164.608 141.984 164.599 141.984 164.59C141.984 164.59 141.984 164.581 141.992 164.572C142.024 164.509 142.055 164.446 142.095 164.393C142.118 164.348 142.15 164.303 142.174 164.258C142.19 164.231 142.213 164.195 142.229 164.168C142.245 164.141 142.261 164.123 142.277 164.096C142.292 164.078 142.308 164.051 142.324 164.024C142.34 164.006 142.356 163.979 142.371 163.961C142.371 163.961 142.371 163.961 142.371 163.952C142.387 163.934 142.403 163.916 142.411 163.898C142.427 163.88 142.45 163.853 142.466 163.835C142.482 163.817 142.506 163.79 142.522 163.772C142.537 163.754 142.561 163.736 142.577 163.709C142.585 163.709 142.593 163.691 142.601 163.682C142.608 163.682 142.616 163.664 142.624 163.664C142.64 163.646 142.664 163.628 142.68 163.61C142.695 163.592 142.719 163.583 142.735 163.565C142.751 163.556 142.774 163.538 142.79 163.52C142.806 163.511 142.83 163.493 142.846 163.484C142.846 163.484 142.853 163.484 142.861 163.475C142.877 163.475 142.885 163.457 142.901 163.448C142.917 163.439 142.94 163.43 142.956 163.412C142.972 163.412 142.988 163.394 143.012 163.385C143.027 163.385 143.043 163.367 143.067 163.358C143.083 163.358 143.099 163.34 143.114 163.34C143.114 163.34 143.122 163.34 143.13 163.34C143.138 163.34 143.154 163.34 143.17 163.331C143.185 163.331 143.209 163.322 143.225 163.313C143.241 163.313 143.264 163.313 143.28 163.295C143.296 163.295 143.32 163.295 143.336 163.286C143.351 163.286 143.359 163.286 143.375 163.286C143.375 163.286 143.375 163.286 143.383 163.286C143.407 163.286 143.423 163.286 143.446 163.286C143.47 163.286 143.494 163.286 143.517 163.286C143.541 163.286 143.565 163.286 143.596 163.295C143.628 163.295 143.652 163.313 143.683 163.322C143.723 163.34 143.755 163.358 143.794 163.376L144.094 163.574C144.031 163.538 143.968 163.511 143.897 163.493C143.826 163.475 143.755 163.475 143.675 163.475C143.596 163.475 143.517 163.502 143.43 163.538C143.344 163.574 143.257 163.619 143.162 163.673C143.075 163.736 142.988 163.799 142.901 163.88C142.814 163.961 142.735 164.042 142.656 164.141C142.577 164.24 142.506 164.339 142.435 164.446C142.363 164.554 142.3 164.662 142.245 164.779C142.245 164.779 142.245 164.788 142.237 164.797C142.182 164.914 142.126 165.031 142.079 165.148C142.031 165.274 141.992 165.391 141.96 165.517C141.929 165.643 141.905 165.769 141.889 165.886C141.873 166.012 141.866 166.129 141.866 166.254C141.866 166.371 141.873 166.479 141.889 166.578C141.905 166.677 141.929 166.758 141.96 166.839C141.984 166.893 142.008 166.929 142.039 166.974C142.095 167.064 142.166 167.145 142.245 167.199L141.945 167.001C141.866 166.947 141.802 166.866 141.739 166.776C141.739 166.767 141.723 166.758 141.715 166.749C141.7 166.713 141.684 166.686 141.668 166.65C141.668 166.65 141.644 166.596 141.636 166.569C141.636 166.542 141.62 166.515 141.613 166.488C141.613 166.461 141.605 166.434 141.597 166.416C141.597 166.407 141.597 166.398 141.597 166.389C141.597 166.389 141.597 166.389 141.597 166.38C141.597 166.371 141.597 166.362 141.597 166.344C141.597 166.317 141.597 166.299 141.589 166.272C141.589 166.245 141.589 166.227 141.589 166.2C141.589 166.174 141.589 166.156 141.589 166.129C141.589 166.102 141.589 166.084 141.589 166.057C141.589 166.057 141.589 166.012 141.589 165.985L141.636 165.976Z" fill="#002D3B"/>
<path d="M143.249 163.646C142.521 164.123 141.929 165.292 141.937 166.236C141.937 167.181 142.537 167.559 143.257 167.091C143.984 166.614 144.576 165.454 144.569 164.509C144.569 163.565 143.968 163.178 143.241 163.655L143.249 163.646Z" fill="#001121"/>
<path d="M154.843 152.465C154.843 152.402 154.843 152.348 154.843 152.285C154.843 152.222 154.851 152.159 154.859 152.106C154.859 152.043 154.874 151.98 154.874 151.917C154.874 151.854 154.89 151.791 154.898 151.728C154.898 151.728 154.898 151.728 154.898 151.719C154.906 151.656 154.914 151.593 154.922 151.539C154.938 151.476 154.946 151.404 154.954 151.341C154.969 151.278 154.977 151.206 154.993 151.143C155.009 151.08 155.025 151.008 155.04 150.945C155.056 150.891 155.072 150.837 155.08 150.783C155.08 150.783 155.08 150.783 155.08 150.774C155.08 150.774 155.08 150.756 155.08 150.747C155.096 150.684 155.12 150.612 155.135 150.549C155.151 150.486 155.175 150.423 155.191 150.351C155.214 150.289 155.23 150.226 155.254 150.163C155.278 150.1 155.293 150.037 155.317 149.974C155.333 149.929 155.357 149.875 155.372 149.83C155.372 149.83 155.372 149.83 155.372 149.821C155.372 149.821 155.372 149.803 155.38 149.794C155.404 149.731 155.428 149.668 155.451 149.614C155.483 149.542 155.507 149.479 155.538 149.407C155.57 149.326 155.61 149.254 155.641 149.173C155.681 149.092 155.72 149.011 155.76 148.93C155.76 148.912 155.776 148.903 155.783 148.885C155.791 148.867 155.799 148.849 155.807 148.831C155.886 148.678 155.973 148.526 156.06 148.373C156.123 148.256 156.194 148.148 156.266 148.04C156.313 147.968 156.36 147.887 156.416 147.815C156.455 147.752 156.503 147.689 156.542 147.635C156.582 147.572 156.629 147.518 156.669 147.464C156.708 147.41 156.756 147.356 156.795 147.302C156.795 147.302 156.811 147.284 156.819 147.275C156.819 147.275 156.819 147.275 156.827 147.266C156.858 147.221 156.898 147.185 156.929 147.14C156.977 147.086 157.024 147.032 157.072 146.978C157.119 146.924 157.167 146.87 157.222 146.825C157.269 146.772 157.317 146.727 157.372 146.682C157.396 146.655 157.42 146.637 157.443 146.619C157.443 146.619 157.459 146.61 157.459 146.601C157.483 146.583 157.499 146.565 157.514 146.547C157.562 146.502 157.609 146.457 157.665 146.421C157.712 146.376 157.759 146.34 157.807 146.304C157.854 146.268 157.902 146.232 157.949 146.196C157.996 146.16 158.044 146.133 158.091 146.097C158.099 146.097 158.115 146.079 158.123 146.079C158.162 146.052 158.194 146.034 158.226 146.007C158.273 145.98 158.321 145.953 158.36 145.926C158.407 145.899 158.447 145.881 158.494 145.854C158.534 145.827 158.581 145.809 158.629 145.791C158.676 145.773 158.716 145.755 158.763 145.737C158.771 145.737 158.779 145.737 158.795 145.728C158.795 145.728 158.795 145.728 158.811 145.728C158.842 145.719 158.874 145.701 158.905 145.692C158.953 145.674 159 145.665 159.04 145.647C159.087 145.629 159.135 145.62 159.174 145.611C159.222 145.602 159.277 145.593 159.324 145.584C159.356 145.584 159.395 145.584 159.427 145.575C159.427 145.575 159.435 145.575 159.443 145.575C159.451 145.575 159.467 145.575 159.474 145.575C159.53 145.575 159.577 145.575 159.633 145.575C159.688 145.575 159.751 145.575 159.806 145.575C159.87 145.575 159.941 145.593 160.004 145.611C160.004 145.611 160.004 145.611 160.012 145.611C160.091 145.629 160.162 145.647 160.233 145.674C160.328 145.71 160.423 145.764 160.51 145.818L163.521 147.806C163.371 147.707 163.205 147.635 163.031 147.59C163.031 147.59 163.031 147.59 163.023 147.59C162.849 147.545 162.66 147.536 162.462 147.554C162.462 147.554 162.454 147.554 162.446 147.554C162.249 147.572 162.043 147.626 161.83 147.707C161.83 147.707 161.83 147.707 161.822 147.707C161.608 147.788 161.379 147.905 161.15 148.058C160.921 148.211 160.7 148.382 160.486 148.579C160.486 148.579 160.47 148.588 160.47 148.597C160.257 148.795 160.051 149.011 159.854 149.254C159.854 149.254 159.854 149.254 159.846 149.263C159.648 149.506 159.459 149.758 159.285 150.037C159.111 150.307 158.953 150.585 158.803 150.873C158.803 150.891 158.787 150.9 158.779 150.918C158.637 151.206 158.502 151.503 158.384 151.809C158.384 151.809 158.384 151.809 158.384 151.818C158.265 152.124 158.162 152.438 158.083 152.753C158.083 152.753 158.083 152.753 158.083 152.762C157.996 153.077 157.933 153.392 157.894 153.707C157.846 154.021 157.823 154.336 157.83 154.633C157.83 154.93 157.854 155.2 157.902 155.452C157.902 155.452 157.902 155.47 157.902 155.479C157.949 155.721 158.012 155.946 158.091 156.153C158.162 156.324 158.249 156.459 158.344 156.594C158.376 156.639 158.4 156.684 158.439 156.729C158.55 156.864 158.668 156.981 158.803 157.071L155.791 155.083C155.657 154.993 155.538 154.876 155.428 154.741C155.396 154.705 155.365 154.651 155.333 154.615C155.293 154.552 155.246 154.507 155.214 154.444C155.167 154.363 155.127 154.273 155.088 154.183C155.088 154.183 155.088 154.183 155.088 154.174C155.064 154.111 155.04 154.048 155.017 153.976C154.993 153.913 154.977 153.842 154.961 153.779C154.946 153.716 154.93 153.653 154.914 153.581C154.914 153.554 154.906 153.527 154.898 153.5V153.482C154.898 153.455 154.89 153.428 154.882 153.401C154.874 153.338 154.867 153.284 154.859 153.221C154.859 153.158 154.851 153.104 154.843 153.041C154.843 152.987 154.843 152.924 154.835 152.861C154.835 152.798 154.835 152.735 154.835 152.681C154.835 152.618 154.835 152.555 154.835 152.501L154.843 152.465Z" fill="#001121"/>
<path d="M161.19 148.049C163.031 146.834 164.541 147.815 164.549 150.225C164.549 152.636 163.055 155.586 161.214 156.792C159.372 158.006 157.862 157.035 157.854 154.624C157.854 152.213 159.348 149.254 161.19 148.049Z" fill="#00486E"/>
<path d="M161.324 149.164C162.699 148.264 163.821 148.993 163.821 150.783C163.821 152.573 162.707 154.777 161.339 155.676C159.964 156.576 158.842 155.856 158.842 154.057C158.842 152.258 159.956 150.063 161.324 149.155V149.164Z" fill="#CEDDE1"/>
<path d="M160.125 153.131C160.125 153.131 160.125 153.086 160.125 153.059C160.125 153.032 160.125 153.014 160.125 152.987C160.125 152.96 160.125 152.942 160.125 152.915C160.125 152.888 160.125 152.861 160.133 152.843C160.133 152.843 160.133 152.798 160.141 152.771C160.141 152.744 160.149 152.717 160.157 152.69C160.157 152.663 160.165 152.636 160.173 152.609C160.173 152.582 160.188 152.555 160.188 152.528C160.188 152.51 160.196 152.483 160.204 152.465C160.204 152.465 160.204 152.465 160.204 152.456C160.204 152.429 160.22 152.402 160.228 152.375C160.228 152.348 160.244 152.321 160.252 152.303C160.252 152.276 160.267 152.258 160.275 152.231C160.283 152.204 160.291 152.186 160.299 152.159C160.299 152.141 160.315 152.123 160.323 152.096C160.323 152.096 160.323 152.096 160.323 152.087C160.331 152.06 160.339 152.042 160.354 152.015C160.362 151.988 160.378 151.961 160.386 151.934C160.402 151.907 160.41 151.871 160.426 151.844C160.441 151.808 160.457 151.781 160.473 151.745C160.473 151.745 160.473 151.736 160.473 151.727C160.473 151.727 160.473 151.718 160.481 151.709C160.512 151.646 160.544 151.593 160.576 151.53C160.599 151.485 160.631 151.44 160.655 151.395C160.655 151.395 160.694 151.332 160.71 151.305C160.726 151.278 160.742 151.26 160.765 151.233C160.781 151.206 160.797 151.188 160.813 151.161C160.829 151.143 160.844 151.116 160.86 151.098C160.86 151.098 160.86 151.098 160.86 151.089C160.876 151.071 160.892 151.053 160.9 151.044C160.916 151.026 160.939 150.999 160.955 150.981C160.971 150.963 160.995 150.936 161.01 150.918C161.026 150.9 161.05 150.882 161.066 150.855C161.074 150.855 161.082 150.837 161.097 150.828C161.097 150.828 161.113 150.81 161.121 150.81C161.137 150.792 161.161 150.774 161.176 150.756C161.192 150.738 161.216 150.72 161.232 150.711C161.248 150.693 161.271 150.684 161.287 150.666C161.303 150.648 161.327 150.639 161.342 150.63C161.342 150.63 161.342 150.63 161.358 150.63C161.374 150.621 161.382 150.612 161.398 150.603C161.414 150.594 161.437 150.585 161.453 150.567C161.469 150.558 161.493 150.549 161.508 150.54C161.524 150.54 161.54 150.522 161.564 150.513C161.579 150.513 161.603 150.495 161.619 150.495C161.619 150.495 161.619 150.495 161.627 150.495C161.643 150.495 161.651 150.486 161.666 150.486C161.682 150.486 161.706 150.477 161.722 150.468C161.738 150.468 161.761 150.459 161.777 150.45C161.801 150.45 161.817 150.45 161.832 150.441C161.848 150.441 161.864 150.441 161.872 150.441C161.872 150.441 161.88 150.441 161.888 150.441C161.911 150.441 161.927 150.441 161.951 150.441C161.975 150.441 161.998 150.441 162.022 150.441C162.046 150.441 162.077 150.441 162.101 150.45C162.133 150.45 162.156 150.468 162.188 150.477C162.228 150.495 162.259 150.513 162.299 150.531L162.599 150.729C162.544 150.693 162.473 150.666 162.401 150.648C162.33 150.63 162.259 150.63 162.18 150.639C162.101 150.639 162.022 150.666 161.935 150.702C161.848 150.738 161.761 150.783 161.674 150.837C161.587 150.9 161.5 150.963 161.413 151.044C161.327 151.125 161.247 151.206 161.176 151.305C161.097 151.395 161.026 151.503 160.955 151.611C160.884 151.718 160.821 151.835 160.765 151.943C160.765 151.943 160.765 151.952 160.765 151.961C160.71 152.078 160.655 152.195 160.607 152.312C160.56 152.438 160.52 152.564 160.489 152.681C160.457 152.807 160.433 152.933 160.41 153.05C160.394 153.176 160.386 153.302 160.386 153.418C160.386 153.535 160.394 153.643 160.41 153.742C160.426 153.841 160.449 153.931 160.481 154.003C160.505 154.057 160.528 154.093 160.56 154.138C160.615 154.228 160.686 154.309 160.765 154.363L160.465 154.165C160.386 154.111 160.323 154.03 160.26 153.94C160.26 153.931 160.244 153.922 160.236 153.913C160.22 153.877 160.204 153.85 160.188 153.814C160.18 153.787 160.165 153.76 160.157 153.733C160.157 153.706 160.141 153.679 160.133 153.652C160.133 153.625 160.125 153.598 160.117 153.58C160.117 153.571 160.117 153.562 160.117 153.553C160.117 153.544 160.117 153.535 160.117 153.517C160.117 153.49 160.117 153.472 160.109 153.445C160.109 153.418 160.109 153.4 160.109 153.374C160.109 153.356 160.109 153.329 160.109 153.302C160.109 153.275 160.109 153.257 160.109 153.23V153.158L160.125 153.131Z" fill="#002D3B"/>
<path d="M161.737 150.801C161.01 151.278 160.417 152.447 160.425 153.392C160.425 154.336 161.026 154.723 161.745 154.246C162.472 153.769 163.065 152.609 163.057 151.665C163.057 150.72 162.456 150.333 161.737 150.81V150.801Z" fill="#001121"/>
<path d="M166.335 142.121L154.298 134.161C154.298 134.161 154.306 134.161 154.314 134.152C154.314 134.152 154.329 134.143 154.337 134.143C154.337 134.143 154.353 134.143 154.361 134.134C154.361 134.134 154.377 134.134 154.385 134.125C154.385 134.125 154.401 134.125 154.408 134.116C154.408 134.116 154.424 134.116 154.432 134.116C154.432 134.116 154.448 134.116 154.456 134.116C154.456 134.116 154.472 134.116 154.48 134.116C154.48 134.116 154.495 134.116 154.503 134.116H154.519C154.519 134.116 154.535 134.116 154.543 134.116C154.551 134.116 154.559 134.116 154.574 134.116C154.582 134.116 154.598 134.116 154.606 134.116C154.622 134.116 154.63 134.116 154.646 134.125C154.661 134.125 154.677 134.134 154.685 134.152L166.723 142.112C166.675 142.076 166.612 142.067 166.549 142.067C166.485 142.067 166.414 142.103 166.335 142.148V142.121Z" fill="#373B3E"/>
<path d="M130.548 166.345L130.564 171.373C130.564 171.472 130.579 171.553 130.611 171.625C130.635 171.697 130.682 171.742 130.73 171.778L118.692 163.817C118.692 163.817 118.621 163.754 118.597 163.709C118.597 163.7 118.581 163.682 118.574 163.664C118.574 163.664 118.574 163.637 118.558 163.628C118.558 163.619 118.558 163.61 118.55 163.592C118.55 163.592 118.55 163.574 118.55 163.565C118.55 163.556 118.55 163.547 118.55 163.538C118.55 163.529 118.55 163.52 118.55 163.511C118.55 163.502 118.55 163.493 118.55 163.484C118.55 163.475 118.55 163.466 118.55 163.457C118.55 163.448 118.55 163.439 118.55 163.43L118.542 158.393L130.579 166.354L130.548 166.345Z" fill="#2A2A2A"/>
<path d="M166.335 142.121L154.298 134.161L119.047 157.323L131.084 165.283L166.335 142.121Z" fill="#3E3E3E"/>
<path d="M130.705 165.733C130.658 165.832 130.618 165.931 130.587 166.03C130.563 166.138 130.547 166.237 130.547 166.335L118.51 158.375V158.348C118.51 158.348 118.51 158.33 118.51 158.321C118.51 158.312 118.51 158.303 118.51 158.294C118.51 158.285 118.51 158.276 118.51 158.267C118.51 158.258 118.51 158.249 118.51 158.24C118.51 158.231 118.51 158.222 118.51 158.213C118.51 158.204 118.51 158.195 118.51 158.177C118.51 158.168 118.51 158.159 118.51 158.141C118.51 158.132 118.51 158.123 118.51 158.105C118.51 158.096 118.51 158.087 118.51 158.078C118.51 158.069 118.51 158.06 118.518 158.042C118.518 158.033 118.518 158.024 118.526 158.006C118.526 157.997 118.526 157.988 118.533 157.979C118.533 157.97 118.533 157.961 118.541 157.952C118.541 157.943 118.541 157.934 118.549 157.925C118.549 157.916 118.549 157.907 118.565 157.898C118.565 157.889 118.573 157.88 118.581 157.862C118.581 157.853 118.589 157.835 118.597 157.826C118.597 157.808 118.613 157.799 118.613 157.79C118.613 157.79 118.613 157.781 118.613 157.772C118.628 157.745 118.636 157.727 118.652 157.7C118.66 157.682 118.676 157.664 118.684 157.646C118.684 157.637 118.699 157.619 118.707 157.61C118.707 157.601 118.723 157.592 118.731 157.583C118.731 157.574 118.747 157.565 118.755 157.556C118.755 157.556 118.771 157.538 118.778 157.529C118.778 157.529 118.794 157.511 118.802 157.502C118.802 157.493 118.818 157.484 118.826 157.475C118.826 157.475 118.842 157.457 118.85 157.448C118.85 157.448 118.865 157.43 118.873 157.421C118.873 157.421 118.889 157.412 118.897 157.404C118.897 157.404 118.913 157.386 118.921 157.386C118.921 157.386 118.937 157.377 118.944 157.368C118.944 157.368 118.96 157.359 118.968 157.35C118.968 157.35 118.984 157.341 118.992 157.332L131.029 165.292C130.958 165.337 130.887 165.409 130.824 165.481C130.761 165.562 130.705 165.652 130.658 165.742L130.705 165.733Z" fill="#6C7072"/>
<path d="M131.084 165.283L166.335 142.121C166.635 141.923 166.88 142.085 166.88 142.472L166.896 147.5C166.896 147.896 166.651 148.373 166.351 148.571L165.371 149.209C165.236 149.038 165.086 148.885 164.912 148.778C164.928 148.787 164.952 148.787 164.968 148.805L161.956 146.817C161.869 146.763 161.782 146.709 161.688 146.673C161.617 146.646 161.545 146.619 161.466 146.601C161.466 146.601 161.466 146.601 161.458 146.601C161.395 146.583 161.332 146.574 161.261 146.565C161.206 146.565 161.142 146.556 161.087 146.556C161.032 146.556 160.984 146.556 160.929 146.556C160.921 146.556 160.905 146.556 160.897 146.556C160.897 146.556 160.889 146.556 160.881 146.556C160.85 146.556 160.81 146.556 160.779 146.565C160.731 146.565 160.684 146.583 160.629 146.592C160.581 146.601 160.542 146.61 160.494 146.628C160.447 146.646 160.399 146.655 160.36 146.673C160.328 146.682 160.297 146.7 160.265 146.709C160.265 146.709 160.265 146.709 160.257 146.709C160.249 146.709 160.241 146.709 160.225 146.718C160.178 146.736 160.138 146.754 160.091 146.772C160.044 146.79 160.004 146.817 159.957 146.835C159.909 146.853 159.87 146.88 159.822 146.907C159.775 146.934 159.728 146.961 159.688 146.988C159.656 147.006 159.617 147.033 159.585 147.051C159.577 147.051 159.562 147.069 159.554 147.069C159.506 147.095 159.459 147.131 159.411 147.167C159.364 147.203 159.317 147.239 159.269 147.275C159.222 147.311 159.174 147.356 159.127 147.392C159.079 147.437 159.032 147.473 158.977 147.518C158.953 147.536 158.937 147.554 158.913 147.572C158.913 147.572 158.906 147.581 158.898 147.59C158.874 147.608 158.85 147.635 158.826 147.653C158.779 147.698 158.724 147.752 158.676 147.797C158.629 147.851 158.574 147.896 158.526 147.95C158.479 148.004 158.431 148.058 158.384 148.112C158.352 148.157 158.313 148.193 158.281 148.238C158.281 148.238 158.281 148.238 158.273 148.247C158.273 148.256 158.257 148.265 158.249 148.274C158.21 148.328 158.163 148.382 158.123 148.436C158.076 148.49 158.036 148.553 157.997 148.607C157.957 148.67 157.91 148.724 157.87 148.787C157.823 148.859 157.767 148.93 157.72 149.011C157.649 149.119 157.578 149.236 157.514 149.344C157.428 149.488 157.341 149.641 157.262 149.803C157.254 149.821 157.246 149.839 157.238 149.857C157.238 149.866 157.222 149.884 157.222 149.902C157.182 149.983 157.143 150.064 157.103 150.145C157.064 150.217 157.032 150.298 157.001 150.37C156.969 150.442 156.945 150.505 156.914 150.577C156.89 150.639 156.866 150.702 156.843 150.765C156.843 150.774 156.843 150.783 156.835 150.792C156.819 150.846 156.795 150.891 156.779 150.936C156.756 150.999 156.732 151.062 156.716 151.125C156.692 151.188 156.677 151.251 156.653 151.314C156.629 151.377 156.613 151.44 156.59 151.512C156.574 151.575 156.55 151.647 156.534 151.71C156.534 151.719 156.534 151.728 156.534 151.737C156.534 151.737 156.534 151.737 156.534 151.746C156.519 151.8 156.503 151.854 156.495 151.908C156.479 151.971 156.463 152.043 156.447 152.106C156.432 152.169 156.416 152.241 156.408 152.304C156.4 152.367 156.384 152.438 156.376 152.501C156.368 152.564 156.36 152.618 156.353 152.681C156.353 152.681 156.353 152.69 156.353 152.699C156.345 152.762 156.337 152.825 156.329 152.888C156.329 152.951 156.313 153.014 156.313 153.077C156.313 153.14 156.305 153.203 156.297 153.257C156.297 153.32 156.297 153.374 156.297 153.437C156.297 153.491 156.297 153.554 156.297 153.608C156.297 153.68 156.297 153.743 156.297 153.806C156.297 153.869 156.297 153.923 156.305 153.986C156.305 154.049 156.313 154.112 156.321 154.166C156.321 154.228 156.337 154.282 156.345 154.345C156.345 154.372 156.353 154.399 156.36 154.426C156.36 154.426 156.36 154.444 156.36 154.453C156.36 154.48 156.36 154.507 156.376 154.534C156.392 154.597 156.408 154.66 156.424 154.723C156.44 154.795 156.463 154.858 156.479 154.921C156.487 154.957 156.503 154.984 156.519 155.02L146.726 161.451C146.607 161.316 146.481 161.2 146.338 161.11C146.354 161.119 146.378 161.119 146.394 161.137L143.382 159.149C143.296 159.095 143.209 159.041 143.114 159.005C143.043 158.978 142.971 158.951 142.892 158.933C142.829 158.915 142.766 158.906 142.703 158.897C142.647 158.897 142.592 158.897 142.529 158.897C142.481 158.897 142.426 158.897 142.371 158.897C142.363 158.897 142.347 158.897 142.339 158.897C142.339 158.897 142.331 158.897 142.323 158.897C142.292 158.897 142.252 158.897 142.221 158.906C142.173 158.906 142.126 158.924 142.078 158.933C142.031 158.942 141.984 158.951 141.944 158.969C141.897 158.978 141.849 158.996 141.81 159.014C141.778 159.023 141.746 159.032 141.715 159.05C141.715 159.05 141.715 159.05 141.707 159.05C141.699 159.05 141.691 159.05 141.675 159.059C141.628 159.077 141.588 159.095 141.541 159.113C141.493 159.131 141.454 159.158 141.407 159.176C141.359 159.194 141.32 159.221 141.272 159.248C141.225 159.275 141.185 159.302 141.138 159.329C141.106 159.347 141.067 159.374 141.035 159.392C141.027 159.392 141.011 159.41 141.003 159.41C140.956 159.437 140.909 159.473 140.861 159.508C140.814 159.544 140.766 159.58 140.719 159.616C140.671 159.652 140.624 159.688 140.577 159.733C140.529 159.778 140.482 159.814 140.434 159.859C140.411 159.877 140.395 159.895 140.371 159.913C140.371 159.913 140.363 159.922 140.355 159.931C140.332 159.949 140.308 159.976 140.284 159.994C140.237 160.039 140.181 160.093 140.134 160.138C140.087 160.192 140.031 160.237 139.984 160.291C139.936 160.345 139.889 160.399 139.842 160.453C139.802 160.498 139.77 160.534 139.739 160.579C139.739 160.579 139.739 160.579 139.731 160.588C139.731 160.597 139.715 160.606 139.707 160.615C139.66 160.669 139.62 160.723 139.573 160.777C139.525 160.831 139.486 160.894 139.446 160.948C139.399 161.011 139.359 161.065 139.32 161.128C139.273 161.2 139.217 161.272 139.17 161.352C139.099 161.46 139.028 161.577 138.956 161.694C138.869 161.847 138.782 161.991 138.703 162.153C138.696 162.171 138.688 162.189 138.68 162.207C138.68 162.225 138.664 162.234 138.656 162.252C138.617 162.333 138.577 162.414 138.537 162.495C138.506 162.567 138.466 162.648 138.435 162.72C138.403 162.783 138.379 162.855 138.348 162.918C138.324 162.981 138.3 163.044 138.277 163.106C138.277 163.115 138.277 163.124 138.269 163.133C138.269 163.133 138.269 163.133 138.269 163.142C138.253 163.187 138.229 163.241 138.213 163.286C138.19 163.349 138.166 163.412 138.15 163.475C138.126 163.538 138.111 163.601 138.087 163.664C138.063 163.727 138.047 163.799 138.024 163.862C138.008 163.925 137.984 163.997 137.968 164.06C137.968 164.069 137.968 164.078 137.968 164.087C137.968 164.087 137.968 164.087 137.968 164.096C137.953 164.15 137.937 164.204 137.929 164.258C137.913 164.321 137.897 164.393 137.881 164.456C137.866 164.519 137.85 164.591 137.842 164.654C137.826 164.717 137.818 164.789 137.81 164.851C137.802 164.905 137.795 164.968 137.787 165.031C137.787 165.031 137.787 165.031 137.787 165.04C137.779 165.103 137.771 165.166 137.763 165.229C137.763 165.292 137.747 165.355 137.747 165.418C137.747 165.481 137.739 165.544 137.731 165.598C137.731 165.661 137.731 165.724 137.731 165.778C137.731 165.832 137.731 165.895 137.731 165.949C137.731 166.021 137.731 166.084 137.731 166.147C137.731 166.21 137.731 166.264 137.739 166.327C137.739 166.39 137.747 166.453 137.755 166.507C137.755 166.57 137.771 166.632 137.779 166.686C137.779 166.713 137.787 166.74 137.795 166.767C137.795 166.767 137.795 166.785 137.795 166.794C137.795 166.821 137.802 166.848 137.81 166.875C137.826 166.938 137.842 167.001 137.85 167.064C137.866 167.127 137.889 167.19 137.905 167.253L131.203 171.661C130.91 171.85 130.665 171.697 130.657 171.301L130.642 166.273C130.642 165.877 130.887 165.4 131.179 165.202L131.084 165.283Z" fill="#212121"/>
<path d="M131.725 150.612L119.695 142.652L119.727 156.864L131.764 164.824L131.725 150.612Z" fill="#BEBEBE"/>
<path d="M165.672 128.305L153.642 120.354L119.695 142.652L131.725 150.612L165.672 128.305Z" fill="#F8FFFF"/>
<path d="M131.725 150.613L131.764 164.825L165.711 142.526L165.671 128.305L131.725 150.613Z" fill="#DDDDDD"/>
<path d="M127.892 166.749V167.19L115.254 158.833V158.393L127.892 166.749Z" fill="#2A2A2A"/>
<path d="M115.483 158.24L128.121 166.596L127.892 166.749L115.254 158.393L115.483 158.24Z" fill="#3D4245"/>
<path d="M127.891 167.19L115.253 158.833L108.211 163.466L120.841 171.822L127.891 167.19Z" fill="#3E3E3E"/>
<path d="M107.578 164.221L120.216 172.578L119.015 175.249L106.377 166.893L107.578 164.221Z" fill="#2A2A2A"/>
<path d="M123.228 170.563L124.477 169.942L126.152 170.653L127.82 173.279L122.777 171.076L123.228 170.563Z" fill="black"/>
<path d="M120.216 172.577L107.578 164.221C107.578 164.221 107.578 164.203 107.586 164.203C107.594 164.185 107.61 164.158 107.618 164.14C107.633 164.104 107.657 164.077 107.673 164.041C107.689 164.014 107.697 163.996 107.712 163.978C107.72 163.96 107.736 163.951 107.744 163.933C107.752 163.924 107.76 163.906 107.776 163.888C107.784 163.879 107.792 163.861 107.807 163.852C107.815 163.834 107.831 163.825 107.839 163.807C107.847 163.798 107.863 163.78 107.871 163.771C107.886 163.753 107.894 163.744 107.91 163.726C107.926 163.708 107.934 163.699 107.95 163.681C107.965 163.663 107.981 163.654 107.989 163.636C108.005 163.618 108.021 163.609 108.029 163.592C108.044 163.574 108.06 163.565 108.076 163.556C108.092 163.547 108.108 163.529 108.116 163.52C108.131 163.511 108.147 163.502 108.155 163.493C108.171 163.484 108.187 163.475 108.195 163.466C108.195 163.466 108.195 163.466 108.203 163.466L120.841 171.822C120.73 171.894 120.604 172.002 120.501 172.128C120.39 172.254 120.287 172.407 120.216 172.577Z" fill="#6C7072"/>
<path d="M106.378 166.893L119.016 175.249L116.163 177.129L103.524 168.764L106.378 166.893Z" fill="#3E3E3E"/>
<path d="M103.01 168.89C103.058 168.899 103.105 168.908 103.161 168.89C103.216 168.89 103.271 168.872 103.327 168.845C103.382 168.827 103.445 168.791 103.508 168.746L116.147 177.102C116.147 177.102 116.131 177.111 116.115 177.12C116.107 177.12 115.712 177.552 115.301 177.354L102.868 168.809C102.908 168.836 102.955 168.854 103.003 168.863L103.01 168.89Z" fill="#323232"/>
<path d="M115.041 181.177C115.064 181.231 115.096 181.276 115.143 181.303L102.505 172.946C102.505 172.946 102.442 172.892 102.418 172.848C102.418 172.848 102.41 172.83 102.403 172.821C102.403 172.812 102.395 172.803 102.387 172.794C102.387 172.794 102.387 172.776 102.387 172.767C102.387 172.767 102.387 172.749 102.387 172.74V172.722V172.704C102.387 172.704 102.387 172.686 102.387 172.677V172.659V172.641L115.025 180.997C115.025 181.078 115.041 181.141 115.064 181.195L115.041 181.177Z" fill="#35393B"/>
<path d="M102.347 167.576L114.985 175.933L115.001 180.979L102.363 172.614L102.347 167.576Z" fill="#35393B"/>
<path d="M114.984 175.933L102.346 167.576V167.558C102.346 167.558 102.346 167.549 102.346 167.54C102.346 167.531 102.346 167.522 102.346 167.522V167.504V167.486C102.346 167.486 102.346 167.468 102.346 167.459C102.346 167.459 102.346 167.441 102.346 167.432C102.346 167.432 102.346 167.414 102.346 167.405C102.346 167.397 102.346 167.388 102.346 167.379C102.346 167.379 102.346 167.361 102.346 167.352C102.346 167.343 102.346 167.334 102.346 167.325C102.346 167.316 102.346 167.307 102.346 167.298C102.346 167.298 102.346 167.28 102.354 167.271C102.354 167.262 102.354 167.253 102.362 167.244C102.362 167.244 102.362 167.235 102.362 167.226C102.362 167.217 102.362 167.208 102.369 167.199C102.369 167.19 102.369 167.181 102.377 167.172C102.377 167.163 102.385 167.145 102.393 167.136C102.393 167.118 102.409 167.1 102.417 167.082C102.433 167.046 102.456 167.019 102.472 166.983C102.488 166.965 102.496 166.938 102.512 166.92C102.52 166.911 102.528 166.893 102.535 166.884L115.174 175.24C115.095 175.357 115.031 175.474 114.984 175.6C114.936 175.717 114.913 175.834 114.913 175.942L114.984 175.933Z" fill="#323537"/>
<path d="M115.104 176.14C115.104 176.302 115.127 176.437 115.175 176.554C115.222 176.661 115.285 176.751 115.372 176.805L103.335 168.845C103.272 168.8 103.216 168.746 103.177 168.665C103.161 168.638 103.153 168.62 103.145 168.593C103.145 168.593 103.129 168.557 103.121 168.539C103.121 168.521 103.114 168.503 103.106 168.485C103.106 168.467 103.106 168.449 103.098 168.431C103.098 168.413 103.098 168.395 103.09 168.377C103.09 168.359 103.09 168.341 103.09 168.332C103.09 168.314 103.09 168.296 103.09 168.278C103.09 168.26 103.09 168.251 103.09 168.233V168.188L115.127 176.14H115.104Z" fill="#003655"/>
<path d="M115.672 147.176L127.709 155.137C124.532 157.224 121.354 159.31 118.177 161.397L106.14 153.437C109.317 151.35 112.494 149.263 115.672 147.176Z" fill="#005A87"/>
<path d="M103.042 159.4C103.042 159.346 103.042 159.283 103.042 159.229C103.042 159.175 103.042 159.112 103.049 159.058C103.049 159.004 103.065 158.941 103.065 158.887C103.065 158.824 103.081 158.77 103.089 158.707C103.089 158.707 103.089 158.707 103.089 158.698C103.089 158.645 103.105 158.591 103.113 158.537C103.121 158.474 103.136 158.411 103.144 158.357C103.16 158.294 103.168 158.231 103.184 158.168C103.2 158.105 103.208 158.042 103.223 157.979C103.231 157.925 103.247 157.88 103.263 157.826C103.263 157.826 103.263 157.826 103.263 157.817V157.799C103.279 157.736 103.294 157.682 103.31 157.619C103.326 157.556 103.35 157.502 103.366 157.439C103.381 157.385 103.405 157.322 103.421 157.268C103.445 157.214 103.46 157.151 103.484 157.097C103.5 157.052 103.516 157.007 103.54 156.962C103.54 156.962 103.54 156.962 103.54 156.953C103.54 156.953 103.54 156.935 103.547 156.926C103.571 156.873 103.595 156.81 103.619 156.756C103.642 156.693 103.674 156.63 103.698 156.567C103.729 156.495 103.761 156.423 103.792 156.351C103.832 156.27 103.871 156.198 103.903 156.126C103.903 156.117 103.919 156.099 103.919 156.09C103.927 156.072 103.935 156.054 103.943 156.045C104.022 155.901 104.093 155.757 104.18 155.622C104.243 155.514 104.306 155.415 104.369 155.307C104.417 155.235 104.464 155.172 104.512 155.101C104.551 155.047 104.591 154.984 104.63 154.93C104.67 154.876 104.709 154.822 104.749 154.768C104.788 154.714 104.828 154.669 104.867 154.615C104.867 154.615 104.883 154.597 104.883 154.588C104.883 154.588 104.883 154.588 104.891 154.579C104.923 154.543 104.954 154.498 104.986 154.462C105.033 154.408 105.073 154.363 105.12 154.318C105.168 154.264 105.215 154.219 105.255 154.174C105.302 154.129 105.349 154.084 105.389 154.039C105.413 154.021 105.436 153.994 105.452 153.976C105.452 153.976 105.46 153.976 105.468 153.967C105.484 153.949 105.508 153.931 105.523 153.913C105.571 153.877 105.61 153.832 105.658 153.796C105.705 153.76 105.745 153.724 105.792 153.688C105.832 153.652 105.879 153.625 105.926 153.589C105.966 153.553 106.013 153.526 106.053 153.499C106.061 153.499 106.077 153.49 106.085 153.481L118.122 161.442C117.909 161.577 117.703 161.748 117.505 161.928C117.505 161.928 117.498 161.928 117.49 161.946C117.292 162.126 117.102 162.332 116.921 162.548C116.921 162.548 116.921 162.548 116.913 162.557C116.731 162.782 116.557 163.025 116.391 163.277C116.233 163.529 116.083 163.79 115.941 164.059C115.941 164.068 115.933 164.086 115.925 164.095C115.79 164.365 115.664 164.644 115.561 164.923C115.45 165.211 115.356 165.499 115.277 165.795C115.277 165.795 115.277 165.795 115.277 165.804C115.198 166.092 115.142 166.389 115.095 166.677C115.055 166.965 115.032 167.253 115.032 167.532C115.032 169.438 115.039 171.363 115.047 173.279V176.149L103.018 168.188V165.31C103.01 163.394 103.002 161.478 102.994 159.562C102.994 159.508 102.994 159.454 102.994 159.4H103.042Z" fill="#00446F"/>
<path d="M103.547 159.823C103.547 159.769 103.547 159.724 103.547 159.67C103.547 159.616 103.547 159.571 103.555 159.517C103.555 159.463 103.563 159.418 103.571 159.364C103.571 159.31 103.587 159.256 103.587 159.202C103.587 159.157 103.602 159.103 103.61 159.058C103.618 159.005 103.626 158.951 103.642 158.897C103.65 158.843 103.666 158.789 103.674 158.726C103.681 158.672 103.697 158.618 103.713 158.555C103.721 158.51 103.737 158.465 103.745 158.42C103.745 158.42 103.745 158.411 103.745 158.402C103.76 158.348 103.776 158.294 103.792 158.24C103.808 158.186 103.824 158.132 103.84 158.078C103.855 158.024 103.871 157.97 103.887 157.925C103.903 157.871 103.919 157.826 103.942 157.772C103.958 157.727 103.974 157.691 103.99 157.655V157.637C104.005 157.583 104.029 157.538 104.053 157.484C104.077 157.43 104.1 157.376 104.124 157.322C104.156 157.26 104.179 157.197 104.211 157.134C104.243 157.062 104.274 156.999 104.314 156.927C104.314 156.918 104.33 156.9 104.33 156.891C104.33 156.873 104.345 156.864 104.353 156.846C104.416 156.72 104.488 156.594 104.559 156.468C104.614 156.378 104.669 156.279 104.733 156.189C104.772 156.126 104.812 156.063 104.859 156C104.899 155.946 104.93 155.901 104.97 155.847C105.001 155.793 105.041 155.748 105.08 155.703C105.12 155.658 105.152 155.613 105.191 155.568C105.191 155.568 105.199 155.559 105.207 155.55C105.238 155.514 105.262 155.479 105.294 155.443C105.333 155.398 105.373 155.353 105.412 155.308C105.452 155.263 105.491 155.218 105.531 155.182C105.57 155.137 105.61 155.101 105.657 155.056C105.681 155.038 105.697 155.02 105.713 155.002C105.713 155.002 105.721 155.002 105.728 154.993C105.744 154.975 105.76 154.957 105.776 154.948C105.815 154.912 105.855 154.876 105.894 154.849C105.934 154.813 105.974 154.786 106.013 154.75C106.053 154.723 106.092 154.687 106.132 154.66C106.171 154.633 106.211 154.606 106.25 154.579C106.258 154.579 106.266 154.57 106.274 154.561L117.023 161.667C116.833 161.793 116.652 161.937 116.47 162.099C116.47 162.099 116.462 162.108 116.454 162.108C116.28 162.27 116.106 162.459 115.948 162.647C115.948 162.647 115.948 162.647 115.948 162.656C115.782 162.854 115.624 163.07 115.482 163.295C115.339 163.52 115.205 163.754 115.079 163.997C115.079 164.006 115.071 164.024 115.063 164.033C114.944 164.276 114.834 164.518 114.739 164.77C114.644 165.031 114.557 165.283 114.486 165.553C114.415 165.814 114.359 166.075 114.328 166.335C114.288 166.596 114.272 166.848 114.272 167.1C114.272 168.809 114.28 170.518 114.288 172.227V174.791L103.547 167.685V165.121C103.539 163.412 103.531 161.694 103.531 159.994C103.531 159.949 103.531 159.904 103.531 159.85L103.547 159.823Z" fill="#6DD4F0"/>
<path d="M118.185 161.397C121.362 159.31 124.54 157.223 127.717 155.136L127.749 166.803L120.714 171.426C120.477 171.579 120.232 171.849 120.082 172.182L118.881 174.853L116.035 176.724C115.529 177.057 115.118 176.787 115.118 176.131V173.261C115.103 171.345 115.103 169.42 115.095 167.513C115.095 165.274 116.486 162.521 118.201 161.397H118.185Z" fill="#003655"/>
<path d="M115.096 164.276V164.923C115.096 165.013 115.112 165.085 115.135 165.148C115.159 165.211 115.199 165.247 115.238 165.283L103.201 157.323C103.169 157.305 103.137 157.269 103.114 157.224C103.114 157.215 103.098 157.197 103.098 157.188C103.098 157.188 103.098 157.17 103.09 157.161C103.09 157.161 103.09 157.143 103.082 157.134C103.082 157.134 103.082 157.116 103.082 157.107C103.082 157.107 103.082 157.089 103.082 157.08C103.082 157.071 103.082 157.062 103.082 157.053C103.082 157.053 103.082 157.035 103.082 157.026C103.082 157.026 103.082 157.008 103.082 156.999C103.082 156.999 103.082 156.981 103.082 156.972V156.324L115.119 164.285L115.096 164.276Z" fill="#00446F"/>
<path d="M107.358 152.699L119.442 160.579L115.578 163.322L103.54 155.362L107.358 152.699Z" fill="#005A87"/>
<path d="M115.237 163.727C115.198 163.817 115.158 163.907 115.135 163.997C115.111 164.087 115.095 164.186 115.095 164.267L103.058 156.306V156.279C103.058 156.279 103.058 156.261 103.058 156.252C103.058 156.243 103.058 156.234 103.058 156.225C103.058 156.216 103.058 156.207 103.058 156.198C103.058 156.189 103.058 156.18 103.058 156.171C103.058 156.162 103.058 156.153 103.058 156.144C103.058 156.144 103.058 156.126 103.058 156.117C103.058 156.117 103.058 156.099 103.058 156.09C103.058 156.081 103.058 156.072 103.058 156.063C103.058 156.063 103.058 156.045 103.058 156.036C103.058 156.027 103.058 156.018 103.058 156.009C103.058 156 103.058 155.991 103.066 155.982C103.066 155.973 103.066 155.964 103.073 155.955C103.073 155.955 103.073 155.937 103.081 155.929C103.081 155.92 103.081 155.91 103.089 155.902C103.089 155.893 103.089 155.884 103.097 155.875C103.097 155.866 103.097 155.857 103.105 155.848C103.105 155.839 103.113 155.821 103.121 155.812C103.121 155.803 103.129 155.794 103.137 155.776C103.137 155.776 103.137 155.767 103.145 155.758C103.152 155.74 103.168 155.713 103.176 155.695C103.184 155.677 103.2 155.659 103.208 155.641C103.208 155.632 103.224 155.623 103.232 155.605C103.232 155.605 103.247 155.587 103.247 155.578C103.247 155.578 103.255 155.56 103.263 155.551C103.263 155.551 103.279 155.533 103.279 155.524C103.279 155.524 103.295 155.506 103.295 155.497C103.295 155.497 103.311 155.479 103.318 155.479C103.326 155.479 103.334 155.461 103.342 155.461C103.342 155.461 103.358 155.443 103.366 155.443C103.366 155.443 103.382 155.434 103.39 155.425C103.39 155.425 103.405 155.407 103.413 155.407C103.413 155.407 103.429 155.398 103.437 155.389C103.437 155.389 103.453 155.38 103.461 155.371L103.477 155.362L115.514 163.322C115.451 163.367 115.38 163.43 115.324 163.493C115.269 163.565 115.214 163.646 115.174 163.736L115.237 163.727Z" fill="#003655"/>
<path d="M115.577 163.322L118.738 161.118L116.304 164.77L115.585 165.247C115.316 165.418 115.095 165.283 115.095 164.932V164.284C115.095 163.934 115.308 163.502 115.577 163.322Z" fill="#003655"/>
<path d="M118.62 162.791C118.304 162.998 118.051 163.493 118.051 163.898L118.067 170.446C118.067 170.815 118.288 171.04 118.565 170.86C118.588 170.842 118.612 170.824 118.636 170.806L121.418 169.106C121.726 168.827 121.979 168.404 121.979 167.99L121.963 161.28C121.963 160.875 121.71 160.713 121.402 160.911L118.62 162.791Z" fill="#58C8E6"/>
<path d="M115.727 165.364C115.458 166.3 115.308 167.235 115.316 168.117V173.639L116.675 172.443C116.976 172.173 117.236 171.742 117.236 171.337V165.121C117.236 164.716 116.976 164.555 116.667 164.752L115.735 165.364H115.727Z" fill="#58C8E6"/>
<path d="M106.954 152.726C106.969 152.672 106.977 152.618 106.993 152.573C107.009 152.528 107.025 152.474 107.033 152.429C107.048 152.384 107.064 152.339 107.072 152.285C107.088 152.24 107.104 152.195 107.112 152.15C107.128 152.105 107.143 152.07 107.159 152.025C107.159 152.016 107.159 152.007 107.167 151.998C107.175 151.971 107.183 151.944 107.199 151.917C107.214 151.881 107.23 151.836 107.246 151.8C107.262 151.764 107.278 151.719 107.294 151.683C107.317 151.638 107.333 151.593 107.357 151.548C107.388 151.485 107.42 151.422 107.452 151.359C107.483 151.296 107.523 151.233 107.554 151.17C107.554 151.161 107.562 151.152 107.57 151.143C107.578 151.125 107.586 151.116 107.594 151.098C107.633 151.035 107.665 150.972 107.705 150.918C107.728 150.873 107.76 150.837 107.784 150.801C107.807 150.765 107.831 150.738 107.855 150.702C107.878 150.675 107.902 150.639 107.926 150.603C107.95 150.576 107.973 150.54 107.997 150.513C108.021 150.477 108.052 150.45 108.076 150.414C108.092 150.396 108.1 150.387 108.116 150.369C108.131 150.351 108.139 150.342 108.155 150.324C108.187 150.289 108.21 150.262 108.242 150.226C108.274 150.199 108.305 150.163 108.337 150.136C108.368 150.109 108.4 150.073 108.432 150.046C108.463 150.019 108.495 149.992 108.534 149.956C108.566 149.929 108.606 149.902 108.637 149.875C108.669 149.848 108.708 149.821 108.74 149.794C108.779 149.767 108.811 149.74 108.851 149.722L115.648 145.341L127.685 153.302L120.975 157.691C120.698 157.871 120.453 158.096 120.24 158.33C120.027 158.564 119.845 158.825 119.687 159.104C119.687 159.113 119.679 159.122 119.671 159.131C119.521 159.4 119.386 159.679 119.284 159.967C119.173 160.255 119.094 160.552 119.031 160.84L106.906 152.87C106.914 152.825 106.93 152.78 106.938 152.735L106.954 152.726Z" fill="#005A87"/>
<path d="M127.709 153.284L120.999 157.673C119.893 158.411 119.3 159.688 119.047 160.83L127.717 155.191V153.284H127.709Z" fill="#003655"/>
<path d="M106.993 152.564C107.009 152.519 107.025 152.465 107.033 152.42C107.048 152.375 107.064 152.33 107.072 152.276C107.088 152.231 107.104 152.186 107.112 152.141C107.128 152.096 107.143 152.06 107.159 152.015C107.159 152.006 107.159 151.997 107.167 151.988C107.175 151.961 107.183 151.934 107.199 151.907C107.214 151.871 107.23 151.826 107.246 151.79C107.262 151.754 107.278 151.709 107.294 151.674C107.317 151.629 107.333 151.584 107.357 151.539C107.388 151.476 107.42 151.413 107.452 151.35C107.483 151.287 107.523 151.224 107.554 151.161C107.554 151.152 107.562 151.143 107.57 151.134C107.578 151.116 107.586 151.107 107.594 151.089C107.633 151.026 107.665 150.963 107.705 150.909C107.728 150.864 107.76 150.828 107.784 150.792C107.807 150.756 107.831 150.729 107.855 150.693C107.855 150.693 107.855 150.693 107.863 150.684L120.019 158.645C119.9 158.797 119.781 158.941 119.687 159.112C119.687 159.121 119.679 159.13 119.671 159.139C119.521 159.409 119.386 159.688 119.284 159.976C119.173 160.264 119.094 160.561 119.031 160.848L106.906 152.879C106.914 152.834 106.93 152.789 106.938 152.744C106.954 152.69 106.962 152.636 106.977 152.591L106.993 152.564Z" fill="#00446F"/>
<path d="M114.851 174.053L114.866 181.033C114.866 181.114 114.882 181.177 114.906 181.231C114.93 181.285 114.969 181.33 115.009 181.357L102.371 173C102.371 173 102.307 172.946 102.284 172.902C102.284 172.902 102.276 172.884 102.268 172.875C102.268 172.866 102.268 172.857 102.26 172.848C102.26 172.848 102.26 172.83 102.26 172.821C102.26 172.821 102.26 172.803 102.26 172.794V172.776C102.26 172.776 102.26 172.758 102.26 172.749V172.731V172.713V172.695L102.244 165.706L114.882 174.062L114.851 174.053Z" fill="#2A2A2A"/>
<path d="M114.85 174.053L102.212 165.696C102.212 165.696 102.212 165.687 102.212 165.678V165.66C102.212 165.66 102.212 165.651 102.212 165.642V165.624V165.606V165.588C102.212 165.588 102.212 165.57 102.212 165.561C102.212 165.561 102.212 165.543 102.212 165.534C102.212 165.534 102.212 165.516 102.212 165.507C102.212 165.507 102.212 165.489 102.212 165.48C102.212 165.48 102.212 165.462 102.212 165.453C102.212 165.453 102.212 165.435 102.212 165.426C102.212 165.426 102.212 165.408 102.22 165.399C102.22 165.39 102.22 165.381 102.22 165.373C102.22 165.373 102.22 165.364 102.22 165.355C102.22 165.355 102.22 165.337 102.228 165.328C102.228 165.319 102.236 165.31 102.244 165.301C102.244 165.292 102.251 165.274 102.259 165.265C102.267 165.247 102.275 165.229 102.283 165.211C102.299 165.175 102.323 165.148 102.338 165.112C102.354 165.085 102.362 165.067 102.378 165.049C102.378 165.04 102.394 165.031 102.402 165.013L115.04 173.369C114.961 173.486 114.897 173.603 114.85 173.729C114.803 173.846 114.779 173.963 114.779 174.071L114.85 174.053Z" fill="#3E3E3E"/>
<path d="M115.11 173.351V176.58C115.11 177.237 115.529 177.507 116.027 177.183L116.454 176.904V180.691L115.593 181.267C115.197 181.528 114.865 181.429 114.865 181.042V176.679L114.85 174.062C114.85 173.846 114.952 173.594 115.11 173.36V173.351Z" fill="#212121"/>
<path d="M113.404 175.681V176.338C113.404 176.428 113.42 176.5 113.443 176.554C113.467 176.617 113.507 176.662 113.546 176.689L111.365 175.259C111.365 175.259 111.301 175.205 111.278 175.169C111.278 175.16 111.262 175.142 111.262 175.133C111.262 175.133 111.262 175.115 111.254 175.106C111.254 175.106 111.254 175.088 111.246 175.079C111.246 175.079 111.246 175.061 111.246 175.052C111.246 175.043 111.246 175.034 111.246 175.025C111.246 175.016 111.246 175.007 111.246 174.998C111.246 174.998 111.246 174.98 111.246 174.971C111.246 174.971 111.246 174.953 111.246 174.944C111.246 174.935 111.246 174.926 111.246 174.917V174.26L113.435 175.69L113.404 175.681Z" fill="#BF8100"/>
<path d="M111.222 174.224C111.222 174.224 111.222 174.206 111.222 174.197C111.222 174.197 111.222 174.179 111.222 174.17C111.222 174.17 111.222 174.152 111.222 174.143C111.222 174.143 111.222 174.125 111.222 174.116C111.222 174.116 111.222 174.098 111.222 174.089C111.222 174.08 111.222 174.071 111.222 174.062C111.222 174.062 111.222 174.044 111.222 174.035C111.222 174.026 111.222 174.017 111.222 174.008C111.222 173.999 111.222 173.99 111.222 173.981C111.222 173.981 111.222 173.963 111.222 173.954C111.222 173.945 111.222 173.936 111.222 173.927C111.222 173.918 111.223 173.909 111.23 173.9C111.23 173.891 111.23 173.882 111.238 173.873C111.238 173.864 111.238 173.855 111.246 173.846C111.246 173.837 111.246 173.828 111.254 173.819C111.254 173.81 111.254 173.801 111.262 173.792C111.262 173.783 111.27 173.774 111.278 173.756C111.278 173.747 111.286 173.729 111.294 173.72C111.302 173.702 111.317 173.675 111.333 173.657C111.341 173.639 111.357 173.622 111.365 173.613C111.365 173.604 111.381 173.595 111.388 173.577C111.388 173.577 111.404 173.559 111.404 173.55C111.404 173.541 111.42 173.532 111.42 173.523C111.42 173.523 111.428 173.505 111.436 173.496C111.436 173.496 111.444 173.487 111.452 173.478C111.452 173.478 111.468 173.46 111.475 173.46C111.475 173.46 111.491 173.442 111.499 173.433C111.499 173.433 111.515 173.415 111.523 173.415C111.523 173.415 111.539 173.406 111.547 173.397C111.547 173.397 111.562 173.388 111.57 173.379C111.57 173.379 111.586 173.37 111.594 173.361C111.594 173.361 111.61 173.361 111.618 173.343C111.618 173.343 111.633 173.334 111.641 173.334L111.665 173.316L113.854 174.746L113.823 174.764C113.76 174.809 113.696 174.872 113.633 174.935C113.578 175.007 113.522 175.088 113.483 175.169C113.443 175.259 113.404 175.349 113.38 175.438C113.357 175.528 113.341 175.618 113.341 175.708L111.151 174.278V174.251L111.222 174.224Z" fill="#FDCD31"/>
<path d="M113.886 174.728L113.918 174.71V176.635L113.894 176.653C113.626 176.824 113.412 176.689 113.404 176.338V175.681C113.404 175.331 113.618 174.899 113.886 174.728Z" fill="#DB9E00"/>
<path d="M104.782 169.763V170.419C104.782 170.509 104.798 170.581 104.821 170.644C104.845 170.707 104.877 170.752 104.924 170.779L102.743 169.349C102.743 169.349 102.679 169.295 102.656 169.259C102.656 169.25 102.64 169.232 102.64 169.223C102.64 169.223 102.64 169.205 102.632 169.196C102.632 169.187 102.632 169.178 102.624 169.169C102.624 169.16 102.624 169.151 102.624 169.142C102.624 169.133 102.624 169.124 102.624 169.115C102.624 169.106 102.624 169.097 102.624 169.088C102.624 169.088 102.624 169.07 102.624 169.061C102.624 169.061 102.624 169.043 102.624 169.034C102.624 169.034 102.624 169.016 102.624 169.007V168.35L104.805 169.781L104.782 169.763Z" fill="#BF8100"/>
<path d="M102.6 168.305C102.6 168.305 102.6 168.287 102.6 168.278C102.6 168.269 102.6 168.26 102.6 168.251C102.6 168.251 102.6 168.233 102.6 168.224C102.6 168.215 102.6 168.206 102.6 168.197C102.6 168.197 102.6 168.179 102.6 168.17C102.6 168.17 102.6 168.152 102.6 168.143C102.6 168.143 102.6 168.125 102.6 168.116C102.6 168.107 102.6 168.098 102.6 168.089C102.6 168.089 102.6 168.072 102.6 168.063C102.6 168.054 102.6 168.045 102.6 168.036C102.6 168.027 102.6 168.018 102.608 168.009C102.608 168 102.608 167.991 102.616 167.982C102.616 167.982 102.616 167.964 102.624 167.955C102.624 167.955 102.624 167.937 102.632 167.928C102.632 167.919 102.632 167.91 102.64 167.901C102.64 167.901 102.64 167.883 102.655 167.874C102.655 167.865 102.663 167.856 102.671 167.838C102.671 167.829 102.687 167.811 102.687 167.802C102.695 167.784 102.711 167.757 102.727 167.739C102.735 167.721 102.75 167.703 102.758 167.685C102.758 167.676 102.774 167.667 102.782 167.649C102.782 167.64 102.798 167.631 102.798 167.622C102.798 167.622 102.806 167.604 102.814 167.595C102.814 167.595 102.829 167.577 102.829 167.568C102.829 167.568 102.837 167.559 102.845 167.55C102.845 167.55 102.861 167.532 102.869 167.523C102.869 167.523 102.885 167.505 102.893 167.505C102.893 167.505 102.908 167.487 102.916 167.487C102.916 167.487 102.932 167.469 102.94 167.469C102.94 167.469 102.956 167.46 102.964 167.451C102.964 167.451 102.98 167.442 102.987 167.433C102.987 167.433 103.003 167.424 103.011 167.415C103.011 167.415 103.027 167.406 103.035 167.397L103.059 167.379L105.248 168.809L105.216 168.827C105.153 168.872 105.09 168.926 105.027 168.998C104.971 169.07 104.916 169.151 104.876 169.232C104.829 169.313 104.797 169.412 104.774 169.502C104.75 169.592 104.734 169.691 104.734 169.772L102.553 168.341V168.314L102.6 168.305Z" fill="#FDCD31"/>
<path d="M105.263 168.809L105.295 168.791V170.716L105.271 170.734C105.003 170.905 104.789 170.77 104.781 170.419V169.762C104.781 169.412 104.995 168.98 105.263 168.809Z" fill="#DB9E00"/>
<path d="M115.134 175.573V176.859C115.134 177.516 115.655 177.444 116.153 177.12L119.007 175.249L120.208 172.578C120.358 172.245 120.611 171.975 120.84 171.822L127.883 167.19V166.749L128.112 166.596L128.128 173.046L127.819 173.252C127.772 173.216 127.732 173.162 127.685 173.136C127.701 173.145 127.724 173.145 127.74 173.154L124.729 171.166C124.642 171.112 124.555 171.058 124.46 171.022C124.389 170.995 124.318 170.968 124.239 170.95C124.239 170.95 124.239 170.95 124.231 170.95C124.168 170.932 124.105 170.923 124.041 170.914C123.986 170.914 123.923 170.914 123.867 170.914C123.82 170.914 123.765 170.914 123.709 170.914C123.701 170.914 123.686 170.914 123.678 170.914C123.678 170.914 123.67 170.914 123.662 170.914C123.63 170.914 123.591 170.914 123.559 170.923C123.512 170.923 123.464 170.941 123.417 170.95C123.369 170.959 123.322 170.968 123.283 170.986C123.235 170.995 123.188 171.013 123.148 171.031C123.117 171.04 123.085 171.049 123.053 171.067C123.053 171.067 123.053 171.067 123.045 171.067C123.037 171.067 123.03 171.067 123.014 171.076C122.966 171.094 122.927 171.112 122.879 171.139C122.832 171.157 122.792 171.184 122.745 171.202C122.698 171.22 122.658 171.247 122.611 171.274C122.563 171.301 122.524 171.328 122.476 171.355C122.445 171.373 122.405 171.399 122.374 171.417C122.366 171.417 122.35 171.435 122.342 171.435C122.295 171.462 122.247 171.498 122.2 171.534C122.152 171.57 122.105 171.606 122.057 171.642C122.01 171.678 121.963 171.723 121.915 171.759C121.868 171.804 121.82 171.84 121.773 171.885C121.757 171.903 121.733 171.921 121.718 171.939C121.718 171.939 121.71 171.948 121.702 171.957C121.678 171.975 121.654 172.002 121.631 172.02C121.583 172.065 121.536 172.119 121.48 172.164C121.433 172.218 121.386 172.263 121.338 172.317C121.291 172.371 121.243 172.425 121.196 172.479C121.164 172.524 121.125 172.56 121.093 172.605C121.093 172.605 121.093 172.605 121.085 172.614C121.085 172.614 121.069 172.632 121.062 172.641C121.014 172.695 120.975 172.749 120.935 172.803C120.888 172.857 120.848 172.92 120.809 172.974C120.761 173.037 120.722 173.091 120.682 173.154C120.627 173.225 120.579 173.297 120.532 173.378C120.461 173.486 120.39 173.594 120.326 173.711C120.24 173.855 120.153 174.008 120.074 174.161C120.074 174.179 120.058 174.197 120.05 174.215C120.05 174.233 120.034 174.242 120.026 174.26C119.987 174.341 119.947 174.422 119.908 174.503C119.868 174.575 119.836 174.656 119.805 174.737C119.773 174.8 119.75 174.872 119.718 174.943C119.694 175.006 119.67 175.069 119.647 175.132C119.647 175.132 119.647 175.15 119.639 175.159C119.623 175.204 119.599 175.258 119.584 175.303C119.56 175.366 119.536 175.429 119.52 175.492C119.497 175.555 119.481 175.618 119.457 175.681C119.433 175.744 119.418 175.807 119.394 175.879C119.378 175.942 119.354 176.014 119.339 176.077C119.339 176.086 119.339 176.095 119.339 176.104C119.339 176.104 119.339 176.104 119.339 176.113C119.323 176.167 119.307 176.221 119.299 176.275C119.283 176.338 119.267 176.41 119.252 176.482C119.236 176.545 119.22 176.617 119.212 176.68C119.196 176.742 119.188 176.814 119.173 176.877C119.165 176.94 119.157 176.994 119.149 177.057C119.149 177.057 119.149 177.066 119.149 177.075C119.141 177.138 119.133 177.201 119.125 177.264C119.125 177.327 119.109 177.39 119.109 177.453C119.109 177.516 119.101 177.579 119.094 177.633C119.094 177.696 119.094 177.75 119.094 177.813C119.094 177.867 119.094 177.93 119.094 177.984C119.094 177.984 119.094 177.984 119.094 177.993C119.094 178.056 119.094 178.119 119.094 178.173C119.094 178.236 119.094 178.29 119.101 178.353C119.101 178.416 119.109 178.478 119.117 178.532C119.117 178.595 119.133 178.649 119.141 178.712C119.141 178.739 119.149 178.766 119.157 178.793V178.811C119.157 178.838 119.157 178.865 119.173 178.892C119.173 178.91 119.173 178.928 119.18 178.946L115.798 181.177C115.402 181.438 115.07 181.339 115.07 180.943L115.055 175.906C115.055 175.69 115.055 175.78 115.205 175.546L115.134 175.573Z" fill="#212121"/>
<path d="M144.838 132.938L192.245 101.581L192.142 142.913L144.735 174.269L144.838 132.938Z" fill="#B8B8B8"/>
<path d="M145.114 132.937L145.012 174.269L137.811 169.538L137.89 139.207L117.957 126.11L119.048 115.802L145.114 132.937Z" fill="#C9C9C9"/>
<path d="M138.024 138.937L138.759 138.451L138.68 170.266L137.945 170.743L138.024 138.937Z" fill="#B8B8B8"/>
<path d="M116.021 124.473L116.748 123.987L138.76 138.451L138.025 138.937L116.021 124.473Z" fill="#EEEEEE"/>
<path d="M138.025 138.937L137.946 170.743L136.973 170.105L137.045 139.774L117.001 126.605L116.021 124.473L138.025 138.937Z" fill="#E6E6E6"/>
<path d="M83.9082 92.901L131.315 61.5447L192.245 101.581L144.838 132.937L83.9082 92.901Z" fill="#BDBDBD"/>
<path d="M144.418 173.514L194.402 140.458L194.378 143.237L144.387 176.293L144.418 173.514Z" fill="#052A43"/>
<path d="M108.669 149.947L80.1682 131.301L80.1445 134.08C92.6246 142.275 100.884 147.69 107.428 151.971C107.792 150.838 108.677 149.947 108.677 149.947H108.669Z" fill="#003C67"/>
<path d="M137.551 168.999V171.787C139.629 173.154 141.874 174.629 144.395 176.284L144.419 173.505L137.551 168.99V168.999Z" fill="#003C67"/>
<path d="M109.982 149.012L84.0813 132.056L84.0734 128.755L80.1689 131.301L108.67 149.947L109.982 149.012Z" fill="#005A87"/>
<path d="M192.149 138.973L192.141 140.556L144.734 171.913L138.949 168.108L137.565 169.016L144.418 173.514L194.402 140.457L192.149 138.973Z" fill="#005A87"/>
<path d="M144.418 135.114L194.402 102.058L194.378 104.837L144.387 137.893L144.418 135.114Z" fill="#052A43"/>
<path d="M80.167 92.9011L130.158 59.8447L194.4 102.058L144.417 135.114L80.167 92.9011Z" fill="#005A87"/>
<path d="M144.418 135.114L144.394 137.894C125.062 125.193 122.121 123.259 80.1445 95.6803L80.1682 92.9009L144.418 135.114Z" fill="#003C67"/>
<path d="M144.757 122.846L192.164 91.4893L192.14 101.195L144.733 132.551L144.757 122.846Z" fill="#B8B8B8"/>
<path d="M83.8271 82.809L131.234 51.4526L192.164 91.4891L144.757 122.845L83.8271 82.809Z" fill="#E3E3E3"/>
<path d="M144.758 122.845L144.734 132.551C126.397 120.507 123.607 118.672 83.8037 92.5144L83.8274 82.8088L144.758 122.845Z" fill="#C9C9C9"/>
<path d="M14.0384 130.374L10.8848 128.287V130.257L14.0384 132.344V130.374Z" fill="#B98347"/>
<path d="M16.8363 128.53L13.6827 126.443L10.8848 128.287L14.0384 130.374L16.8363 128.53Z" fill="#BAA366"/>
<path d="M14.0391 130.374V132.344L16.8449 130.509L16.837 128.53L14.0391 130.374Z" fill="#E0B171"/>
<path d="M33.4807 117.817L30.3271 115.721L30.3351 117.7L33.4887 119.787L33.4807 117.817Z" fill="#B98347"/>
<path d="M36.2787 115.973L33.1251 113.886L30.3271 115.721L33.4807 117.817L36.2787 115.973Z" fill="#BAA366"/>
<path d="M33.4814 117.817L33.4894 119.787L36.2873 117.943L36.2794 115.973L33.4814 117.817Z" fill="#E0B171"/>
<path d="M4.29227 123.825L1.13867 121.739L1.14657 123.708L4.30018 125.795L4.29227 123.825Z" fill="#B98347"/>
<path d="M7.09022 121.981L3.9366 119.895L1.13867 121.738L4.29227 123.825L7.09022 121.981Z" fill="#BAA366"/>
<path d="M4.29297 123.826L4.30088 125.796L7.09881 123.961L7.09091 121.982L4.29297 123.826Z" fill="#E0B171"/>
<path d="M14.5117 129.393L0.727539 120.281L0.735438 121.991L14.5117 131.102V129.393Z" fill="#E0B171"/>
<path d="M36.6265 114.867L22.8423 105.755L0.727539 120.281L14.5117 129.393L36.6265 114.867Z" fill="#FFE1A3"/>
<path d="M14.5117 129.393V131.102L36.6265 116.575V114.866L14.5117 129.393Z" fill="#EDC989"/>
<path d="M28.6841 112.033L22.3848 107.859L22.4006 115.253L28.6999 119.418L28.6841 112.033Z" fill="#B98347"/>
<path d="M35.347 107.652L29.0476 103.479L22.3848 107.859L28.6841 112.033L35.347 107.652Z" fill="#BAA366"/>
<path d="M28.6836 112.033L28.6994 119.418L35.3623 115.037L35.3465 107.652L28.6836 112.033Z" fill="#E0B171"/>
<path d="M28.6928 111.412L22.0615 107.032V108.336L28.6928 112.726V111.412Z" fill="#E0B171"/>
<path d="M35.6876 106.816L29.0564 102.435L22.0615 107.032L28.6928 111.412L35.6876 106.816Z" fill="#FFE1A3"/>
<path d="M28.6934 111.412V112.726L35.6882 108.129V106.816L28.6934 111.412Z" fill="#EDC989"/>
<path d="M31.0165 112.653L31.0086 111.655L30.7715 111.808L30.7794 112.806L31.0165 112.653Z" fill="#553819"/>
<path d="M29.3408 112.582V113.931L31.6171 112.438V111.088L29.3408 112.582ZM31.2061 111.529L31.4432 111.376V112.375L31.2061 112.528V111.529ZM30.7714 111.808L31.0085 111.646V112.654L30.7714 112.806V111.808ZM30.3288 112.096L30.5659 111.943V112.95L30.3288 113.103V112.096ZM29.9178 112.366L30.1549 112.213V113.211L29.9178 113.364V112.357V112.366ZM29.5068 112.644L29.7518 112.483V113.481L29.5068 113.643V112.644Z" fill="white"/>
<path d="M29.7519 112.482L29.5068 112.644V113.643L29.7519 113.481V112.482Z" fill="#553819"/>
<path d="M30.163 113.211L30.1551 112.213L29.918 112.366V113.373L30.163 113.211Z" fill="#553819"/>
<path d="M30.5662 112.951V111.943L30.3291 112.096V113.103L30.5662 112.951Z" fill="#553819"/>
<path d="M31.4422 112.375V111.367L31.2051 111.529V112.528L31.4422 112.375Z" fill="#553819"/>
<path d="M21.5933 116.683L15.2939 112.518L15.3097 119.903L21.617 124.077L21.5933 116.683Z" fill="#B98347"/>
<path d="M28.2561 112.303L21.9568 108.138L15.2939 112.518L21.5933 116.683L28.2561 112.303Z" fill="#BAA366"/>
<path d="M21.5928 116.683L21.6165 124.077L28.2794 119.696L28.2557 112.302L21.5928 116.683Z" fill="#E0B171"/>
<path d="M21.6 116.071L14.9688 111.682L14.9767 112.995L21.6 117.376V116.071Z" fill="#E0B171"/>
<path d="M28.5949 111.475L21.9636 107.094L14.9688 111.682L21.6 116.071L28.5949 111.475Z" fill="#FFE1A3"/>
<path d="M21.6006 116.072V117.376L28.5954 112.779V111.475L21.6006 116.072Z" fill="#EDC989"/>
<path d="M23.9256 117.313V116.305L23.6885 116.467V117.466L23.9256 117.313Z" fill="#553819"/>
<path d="M22.25 117.241V118.59L24.5263 117.097V115.748L22.25 117.241ZM24.1153 116.18L24.3524 116.027V117.025L24.1153 117.187V116.18ZM23.6885 116.467L23.9256 116.314V117.313L23.6885 117.466V116.467ZM23.238 116.755L23.4751 116.602V117.601L23.238 117.754V116.755ZM22.827 117.025L23.0641 116.863V117.871L22.827 118.024V117.025ZM22.416 117.295L22.661 117.133V118.14L22.4239 118.302V117.295H22.416Z" fill="white"/>
<path d="M22.661 117.142L22.416 117.295V118.302L22.661 118.14V117.142Z" fill="#553819"/>
<path d="M23.0722 117.871V116.872L22.8271 117.025L22.835 118.033L23.0722 117.871Z" fill="#553819"/>
<path d="M23.4833 117.601V116.603L23.2383 116.755L23.2462 117.763L23.4833 117.601Z" fill="#553819"/>
<path d="M24.3523 117.025V116.027L24.1152 116.18V117.187L24.3523 117.025Z" fill="#553819"/>
<path d="M7.76026 116.917L1.46094 112.752L1.47675 120.137L7.78397 124.31L7.76026 116.917Z" fill="#B98347"/>
<path d="M14.4231 112.545L8.11592 108.372L1.46094 112.752L7.76026 116.917L14.4231 112.545Z" fill="#BAA366"/>
<path d="M7.75977 116.917L7.78348 124.311L14.4464 119.93L14.4226 112.545L7.75977 116.917Z" fill="#E0B171"/>
<path d="M7.76993 116.305L1.13867 111.925V113.229L7.76993 117.61V116.305Z" fill="#E0B171"/>
<path d="M14.7648 111.709L8.13352 107.329L1.13867 111.925L7.76993 116.306L14.7648 111.709Z" fill="#FFE1A3"/>
<path d="M7.77051 116.305V117.61L14.7654 113.013V111.709L7.77051 116.305Z" fill="#EDC989"/>
<path d="M14.5113 121.343L8.2041 117.169L8.2199 124.563L14.5271 128.736L14.5113 121.343Z" fill="#B98347"/>
<path d="M21.1742 116.962L14.867 112.789L8.2041 117.169L14.5113 121.343L21.1742 116.962Z" fill="#BAA366"/>
<path d="M14.5117 121.342L14.5275 128.736L21.1904 124.356L21.1746 116.962L14.5117 121.342Z" fill="#E0B171"/>
<path d="M14.512 120.722L7.88867 116.342V117.655L14.5199 122.035L14.512 120.722Z" fill="#E0B171"/>
<path d="M21.5069 116.126L14.8835 111.745L7.88867 116.342L14.512 120.722L21.5069 116.126Z" fill="#FFE1A3"/>
<path d="M14.5117 120.722L14.5196 122.035L21.5145 117.439L21.5066 116.126L14.5117 120.722Z" fill="#EDC989"/>
<path d="M16.8427 121.963L16.8348 120.965L16.5977 121.118V122.125L16.8427 121.963Z" fill="#553819"/>
<path d="M15.1582 121.891V123.24L17.4345 121.747V120.398L15.1582 121.891ZM17.0235 120.839L17.2606 120.677V121.684L17.0235 121.837V120.839ZM16.5967 121.118L16.8338 120.965V121.963L16.5967 122.125V121.118ZM16.1541 121.414L16.3912 121.261V122.26L16.1541 122.422V121.414ZM15.7431 121.684L15.9802 121.531V122.53L15.7431 122.683V121.684ZM15.3242 121.954L15.5692 121.792V122.791L15.3321 122.953V121.954H15.3242Z" fill="white"/>
<path d="M15.5693 121.792L15.3242 121.954L15.3321 122.953L15.5771 122.8L15.5693 121.792Z" fill="#553819"/>
<path d="M15.9813 122.53V121.522L15.7441 121.684V122.683L15.9813 122.53Z" fill="#553819"/>
<path d="M16.3914 122.26V121.253L16.1543 121.415V122.413L16.3914 122.26Z" fill="#553819"/>
<path d="M17.2685 121.684V120.686L17.0234 120.839L17.0313 121.837L17.2685 121.684Z" fill="#553819"/>
<path d="M21.9342 99.2149L15.627 95.0503L15.6507 102.444L21.9579 106.609L21.9342 99.2149Z" fill="#B98347"/>
<path d="M28.5971 94.8436L22.2977 90.6699L15.627 95.0504L21.9342 99.2151L28.5971 94.8436Z" fill="#BAA366"/>
<path d="M21.9346 99.215L21.9583 106.609L28.6212 102.228L28.5974 94.8435L21.9346 99.215Z" fill="#E0B171"/>
<path d="M21.9418 98.6032L15.3105 94.2227V95.5269L21.9418 99.9164V98.6032Z" fill="#E0B171"/>
<path d="M28.9367 94.007L22.3054 89.6265L15.3105 94.2229L21.9418 98.6034L28.9367 94.007Z" fill="#FFE1A3"/>
<path d="M21.9424 98.6032V99.9165L28.9372 95.3111V94.0068L21.9424 98.6032Z" fill="#EDC989"/>
<path d="M28.6841 103.641L22.3848 99.467L22.4006 106.861L28.6999 111.035L28.6841 103.641Z" fill="#B98347"/>
<path d="M35.347 99.2604L29.0476 95.0957L22.3848 99.4672L28.6841 103.641L35.347 99.2604Z" fill="#BAA366"/>
<path d="M28.6836 103.641L28.6994 111.035L35.3623 106.654L35.3465 99.2603L28.6836 103.641Z" fill="#E0B171"/>
<path d="M28.6928 103.02L22.0615 98.6394V99.9527L28.6928 104.333V103.02Z" fill="#E0B171"/>
<path d="M35.6876 98.4235L29.0564 94.043L22.0615 98.6394L28.6928 103.02L35.6876 98.4235Z" fill="#FFE1A3"/>
<path d="M28.6943 103.02V104.333L35.6892 99.7366V98.4233L28.6943 103.02Z" fill="#EDC989"/>
<path d="M31.0165 104.261L31.0086 103.263L30.7715 103.416L30.7794 104.423L31.0165 104.261Z" fill="#553819"/>
<path d="M29.3408 104.189V105.538L31.6171 104.045V102.696L29.3408 104.189ZM31.2061 103.137L31.4432 102.984V103.982L31.2061 104.144V103.137ZM30.7714 103.416L31.0085 103.263V104.261L30.7714 104.423V103.425V103.416ZM30.3288 103.712L30.5659 103.56V104.558L30.3288 104.72V103.721V103.712ZM29.9178 103.982L30.1549 103.82V104.828L29.9178 104.981V103.982ZM29.5068 104.252L29.7518 104.09V105.098L29.5068 105.26V104.252Z" fill="white"/>
<path d="M29.7519 104.09L29.5068 104.252V105.259L29.7519 105.097V104.09Z" fill="#553819"/>
<path d="M30.163 104.828L30.1551 103.821L29.918 103.982V104.981L30.163 104.828Z" fill="#553819"/>
<path d="M30.5662 104.558V103.56L30.3291 103.712V104.711L30.5662 104.558Z" fill="#553819"/>
<path d="M31.4432 103.982V102.984L31.2061 103.137V104.144L31.4432 103.982Z" fill="#553819"/>
<path d="M14.8521 103.875L8.54492 99.7014L8.56072 107.095L14.8679 111.269L14.8521 103.875Z" fill="#B98347"/>
<path d="M21.515 99.4945L15.2078 95.3298L8.54492 99.7014L14.8521 103.875L21.515 99.4945Z" fill="#BAA366"/>
<path d="M14.8525 103.875L14.8683 111.269L21.5312 106.888L21.5154 99.4944L14.8525 103.875Z" fill="#E0B171"/>
<path d="M14.852 103.263L8.2207 98.8735L8.22861 100.187L14.8599 104.567L14.852 103.263Z" fill="#E0B171"/>
<path d="M21.8468 98.6579L15.2235 94.2773L8.2207 98.8738L14.852 103.263L21.8468 98.6579Z" fill="#FFE1A3"/>
<path d="M14.8525 103.263L14.8604 104.567L21.8553 99.971L21.8474 98.6577L14.8525 103.263Z" fill="#EDC989"/>
<path d="M21.5933 108.291L15.2939 104.126L15.3097 111.52L21.617 115.685L21.5933 108.291Z" fill="#B98347"/>
<path d="M28.2561 103.919L21.9568 99.7458L15.2939 104.126L21.5933 108.291L28.2561 103.919Z" fill="#BAA366"/>
<path d="M21.5928 108.291L21.6165 115.685L28.2794 111.313L28.2557 103.919L21.5928 108.291Z" fill="#E0B171"/>
<path d="M21.6 107.679L14.9688 103.299L14.9767 104.603L21.6 108.993V107.679Z" fill="#E0B171"/>
<path d="M28.5949 103.083L21.9636 98.7024L14.9688 103.299L21.6 107.679L28.5949 103.083Z" fill="#FFE1A3"/>
<path d="M21.6006 107.679V108.993L28.5954 104.387V103.083L21.6006 107.679Z" fill="#EDC989"/>
<path d="M23.9256 108.921V107.923L23.6885 108.076V109.083L23.9256 108.921Z" fill="#553819"/>
<path d="M22.25 108.849V110.198L24.5263 108.705V107.356L22.25 108.849ZM24.1153 107.797L24.3524 107.644V108.642L24.1153 108.795V107.788V107.797ZM23.6885 108.076L23.9256 107.923V108.921L23.6885 109.083V108.076ZM23.238 108.372L23.4751 108.219V109.218L23.238 109.371V108.372ZM22.827 108.633L23.0641 108.48V109.488L22.827 109.641V108.633ZM22.416 108.912L22.661 108.75V109.749L22.4239 109.911V108.912H22.416Z" fill="white"/>
<path d="M22.661 108.75L22.416 108.912V109.91L22.661 109.748V108.75Z" fill="#553819"/>
<path d="M23.0722 109.488V108.48L22.8271 108.633L22.835 109.641L23.0722 109.488Z" fill="#553819"/>
<path d="M23.4833 109.218V108.211L23.2383 108.373L23.2462 109.371L23.4833 109.218Z" fill="#553819"/>
<path d="M24.3523 108.642V107.635L24.1152 107.797V108.795L24.3523 108.642Z" fill="#553819"/>
<path d="M7.76026 108.534L1.46094 104.36L1.47675 111.754L7.78397 115.928L7.76026 108.534Z" fill="#B98347"/>
<path d="M14.4231 104.154L8.11592 99.98L1.46094 104.361L7.76026 108.534L14.4231 104.154Z" fill="#BAA366"/>
<path d="M7.75977 108.534L7.78348 115.928L14.4464 111.547L14.4226 104.153L7.75977 108.534Z" fill="#E0B171"/>
<path d="M7.76993 107.913L1.13867 103.533V104.846L7.76993 109.227V107.913Z" fill="#E0B171"/>
<path d="M14.7648 103.317L8.13352 98.9363L1.13867 103.533L7.76993 107.913L14.7648 103.317Z" fill="#FFE1A3"/>
<path d="M7.77051 107.914V109.227L14.7654 104.631V103.317L7.77051 107.914Z" fill="#EDC989"/>
<path d="M14.5113 112.951L8.2041 108.786L8.2199 116.18L14.5271 120.345L14.5113 112.951Z" fill="#B98347"/>
<path d="M21.1742 108.57L14.867 104.405L8.2041 108.786L14.5113 112.95L21.1742 108.57Z" fill="#BAA366"/>
<path d="M14.5117 112.951L14.5275 120.344L21.1904 115.964L21.1746 108.57L14.5117 112.951Z" fill="#E0B171"/>
<path d="M14.512 112.339L7.88867 107.949V109.263L14.5199 113.643L14.512 112.339Z" fill="#E0B171"/>
<path d="M21.5069 107.743L14.8835 103.353L7.88867 107.949L14.512 112.339L21.5069 107.743Z" fill="#FFE1A3"/>
<path d="M14.5117 112.339L14.5196 113.643L21.5145 109.047L21.5066 107.742L14.5117 112.339Z" fill="#EDC989"/>
<path d="M16.8427 113.58L16.8348 112.573L16.5977 112.735V113.733L16.8427 113.58Z" fill="#553819"/>
<path d="M15.1582 113.508V114.848L17.4345 113.355V112.006L15.1582 113.499V113.508ZM17.0235 112.447L17.2606 112.294V113.292L17.0235 113.454V112.456V112.447ZM16.5967 112.734L16.8338 112.582V113.58L16.5967 113.733V112.734ZM16.1541 113.022L16.3912 112.869V113.868L16.1541 114.021V113.022ZM15.7431 113.292L15.9802 113.139V114.138L15.7431 114.3V113.292ZM15.3242 113.562L15.5692 113.4V114.408L15.3321 114.569V113.562H15.3242Z" fill="white"/>
<path d="M15.5693 113.409L15.3242 113.562L15.3321 114.57L15.5771 114.408L15.5693 113.409Z" fill="#553819"/>
<path d="M15.9813 114.138V113.14L15.7441 113.293V114.3L15.9813 114.138Z" fill="#553819"/>
<path d="M16.3914 113.868V112.87L16.1543 113.023V114.03L16.3914 113.868Z" fill="#553819"/>
<path d="M17.2685 113.292V112.294L17.0234 112.447L17.0313 113.454L17.2685 113.292Z" fill="#553819"/>
<path d="M72.6847 133.774L78.5177 129.915L78.5019 136.76L72.6689 140.61L72.6847 133.774Z" fill="#B98347"/>
<path d="M66.5205 129.726L72.3535 125.867L78.5184 129.915L72.6854 133.774L66.5205 129.726Z" fill="#BAA366"/>
<path d="M72.6856 133.775L72.6698 140.611L66.5049 136.563L66.5207 129.727L72.6856 133.775Z" fill="#E0B171"/>
<path d="M72.6777 133.208L78.811 129.151V130.365L72.6777 134.422V133.208Z" fill="#DDAE6E"/>
<path d="M66.2119 128.953L72.3453 124.905L78.8105 129.151L72.6772 133.207L66.2119 128.953Z" fill="#FFE1A3"/>
<path d="M72.6773 133.207V134.422L66.2041 130.167L66.212 128.953L72.6773 133.207Z" fill="#EDC989"/>
<path d="M70.5254 134.359L70.5333 133.432L70.7546 133.576L70.7467 134.503L70.5254 134.359Z" fill="#553819"/>
<path d="M69.9805 132.911V134.161L72.075 135.537V134.287L69.9805 132.911ZM70.3519 134.242L70.1306 134.098V133.172L70.3519 133.316V134.242ZM70.7471 134.503L70.5258 134.359V133.433L70.7471 133.577V134.503ZM71.1581 134.773L70.9368 134.629V133.702L71.1581 133.846V134.773ZM71.5375 135.025L71.3162 134.881V133.954L71.5375 134.098V135.025ZM71.9248 135.277L71.6956 135.124V134.197L71.9248 134.341V135.268V135.277Z" fill="white"/>
<path d="M71.7032 134.197L71.9245 134.341V135.276L71.6953 135.123L71.7032 134.197Z" fill="#553819"/>
<path d="M71.3154 134.872L71.3233 133.945L71.5446 134.089L71.5367 135.025L71.3154 134.872Z" fill="#553819"/>
<path d="M70.9365 134.629L70.9444 133.702L71.1657 133.846L71.1578 134.773L70.9365 134.629Z" fill="#553819"/>
<path d="M70.1299 134.098V133.163L70.3512 133.316V134.242L70.1299 134.098Z" fill="#553819"/>
</svg>
