<svg width="121" height="141" viewBox="0 0 121 141" fill="none" xmlns="http://www.w3.org/2000/svg">
<path d="M2.18457 96.0766L11.3638 91.2016L10.5908 89.2957L2.24905 91.8981L2.18457 96.0766Z" fill="#0F363D"/>
<path d="M55.5199 126.94C55.5199 126.94 55.5199 126.647 55.5199 126.5C55.5199 126.354 55.5199 126.207 55.5199 126.061C55.5199 125.914 55.52 125.767 55.4878 125.621C55.4878 125.474 55.4555 125.327 55.4233 125.144C55.4233 124.998 55.3911 124.851 55.3589 124.704C55.3589 124.558 55.2945 124.374 55.2623 124.228C55.2623 124.081 55.1979 123.898 55.1657 123.751C55.1335 123.605 55.1012 123.421 55.0368 123.275C55.0368 123.128 54.9724 123.018 54.9402 122.872C54.9402 122.872 54.9402 122.835 54.9402 122.798C54.908 122.652 54.8435 122.468 54.8113 122.322C54.7791 122.175 54.7148 121.992 54.6826 121.845C54.6504 121.699 54.5859 121.552 54.5215 121.405C54.4571 121.259 54.4249 121.112 54.3605 120.966C54.3283 120.856 54.2638 120.746 54.2316 120.599C54.2316 120.599 54.2316 120.562 54.2316 120.526C54.1672 120.379 54.1028 120.232 54.0384 120.086C53.974 119.903 53.9096 119.756 53.8451 119.573C53.7485 119.389 53.684 119.206 53.5874 119.023C53.4908 118.84 53.3942 118.62 53.2976 118.436C53.2976 118.436 53.2976 118.363 53.2654 118.326C53.2654 118.29 53.2332 118.253 53.2009 118.217C53.0077 117.85 52.8144 117.483 52.589 117.117C52.428 116.86 52.2669 116.567 52.0737 116.31C51.9448 116.127 51.8482 115.944 51.7194 115.761C51.6228 115.614 51.5262 115.467 51.3973 115.321C51.3007 115.174 51.2041 115.028 51.0752 114.918C50.9464 114.808 50.8498 114.661 50.7532 114.514C50.7532 114.514 50.721 114.478 50.6887 114.441C50.5921 114.331 50.5278 114.221 50.4311 114.148C50.3345 114.001 50.2056 113.891 50.0768 113.781C49.948 113.635 49.8514 113.525 49.7226 113.415C49.5937 113.305 49.497 113.158 49.3682 113.048C49.3038 112.975 49.2716 112.938 49.2072 112.902C49.2072 112.902 49.2072 112.902 49.175 112.865C49.1106 112.828 49.0784 112.792 49.0462 112.718C48.9174 112.608 48.8207 112.498 48.6919 112.425C48.5953 112.315 48.4665 112.242 48.3376 112.132C48.241 112.059 48.1121 111.949 47.9833 111.875C47.8867 111.802 47.7578 111.729 47.6612 111.619C47.6612 111.619 47.5968 111.619 47.5646 111.582C47.468 111.545 47.4036 111.472 47.307 111.435C47.2104 111.362 47.0815 111.289 46.9849 111.252C46.8883 111.179 46.7594 111.142 46.6628 111.069C46.5662 111.032 46.4373 110.959 46.3407 110.922C46.2441 110.886 46.1153 110.812 46.0187 110.776C46.0187 110.776 45.9864 110.776 45.9542 110.776C45.8898 110.776 45.7932 110.702 45.7288 110.702C45.6322 110.666 45.5034 110.629 45.4067 110.592C45.3101 110.592 45.1813 110.519 45.0846 110.519C44.9558 110.519 44.8591 110.482 44.7303 110.446C44.6337 110.446 44.5693 110.446 44.4727 110.446C44.4727 110.446 44.4726 110.446 44.4404 110.446H44.3761C44.2472 110.446 44.1184 110.446 43.9896 110.446C43.8607 110.446 43.6997 110.446 43.5709 110.446C43.4098 110.446 43.2488 110.482 43.0878 110.519C42.8945 110.556 42.7334 110.629 42.5402 110.666C42.3147 110.776 42.0893 110.886 41.8639 111.032L34.5527 115.871C34.907 115.614 35.3257 115.467 35.7444 115.357C36.1631 115.247 36.614 115.248 37.0971 115.284C37.0971 115.284 37.0971 115.284 37.1293 115.284C37.6124 115.321 38.0956 115.467 38.6431 115.651C39.1584 115.871 39.706 116.127 40.2857 116.494C40.8332 116.86 41.3808 117.3 41.8961 117.777C41.8961 117.777 41.896 117.777 41.9282 117.813C42.4436 118.29 42.9267 118.84 43.4099 119.389C43.893 119.976 44.3438 120.599 44.7625 121.259C45.1812 121.919 45.5678 122.578 45.9221 123.311C45.9221 123.311 45.9542 123.385 45.9864 123.421C46.3407 124.118 46.6628 124.851 46.9526 125.584C47.2425 126.354 47.5002 127.087 47.6935 127.857C47.8867 128.626 48.0478 129.396 48.1444 130.129C48.241 130.899 48.3054 131.632 48.3054 132.365C48.3054 133.098 48.241 133.758 48.1444 134.344C48.1444 134.344 48.1444 134.381 48.1444 134.418C48.0478 135.004 47.8867 135.554 47.6935 136.03C47.5324 136.434 47.3069 136.764 47.0815 137.093C47.0171 137.203 46.9204 137.313 46.856 137.423C46.5984 137.753 46.3085 138.046 45.9542 138.266L53.2654 133.428C53.5875 133.208 53.8773 132.915 54.135 132.585C54.2316 132.475 54.2961 132.365 54.3605 132.255C54.4571 132.108 54.5859 131.998 54.6503 131.852C54.747 131.669 54.8758 131.449 54.9402 131.229C55.0046 131.082 55.069 130.899 55.1334 130.752C55.1978 130.606 55.2301 130.422 55.2623 130.276C55.2945 130.129 55.3267 129.982 55.3589 129.799C55.3589 129.726 55.3589 129.653 55.3911 129.616C55.3911 129.616 55.3911 129.579 55.3911 129.543C55.3911 129.469 55.3911 129.396 55.4233 129.359C55.4233 129.213 55.4556 129.066 55.4878 128.92C55.4878 128.773 55.4877 128.626 55.5199 128.48C55.5199 128.333 55.5199 128.186 55.5199 128.04C55.5199 127.893 55.5199 127.747 55.5199 127.6C55.5199 127.6 55.5199 127.307 55.5199 127.16V126.94Z" fill="#17191B"/>
<path d="M40.1564 116.201C35.6795 113.269 32.04 115.651 32.0078 121.479C32.0078 127.307 35.6473 134.491 40.092 137.424C44.5689 140.356 48.2083 138.01 48.2405 132.145C48.2405 126.317 44.6332 119.133 40.1564 116.201Z" fill="#232526"/>
<path d="M39.8011 118.913C36.4837 116.714 33.7461 118.51 33.7461 122.835C33.7461 127.197 36.4515 132.512 39.7689 134.711C43.0863 136.91 45.824 135.151 45.824 130.789C45.824 126.427 43.1185 121.075 39.8011 118.913Z" fill="#D2D2D2"/>
<path d="M42.7339 128.517C42.7339 128.517 42.7339 128.407 42.7339 128.333C42.7339 128.26 42.7339 128.223 42.7339 128.15C42.7339 128.077 42.7339 128.04 42.7339 127.967C42.7339 127.894 42.7339 127.857 42.7339 127.784C42.7339 127.784 42.7339 127.674 42.7339 127.6C42.7339 127.527 42.7339 127.49 42.7339 127.417C42.7339 127.344 42.7339 127.307 42.7017 127.234C42.7017 127.16 42.7017 127.124 42.6695 127.05C42.6695 126.977 42.6695 126.941 42.6373 126.904C42.6373 126.831 42.6051 126.794 42.5729 126.721C42.5729 126.647 42.5407 126.611 42.5085 126.537C42.5085 126.464 42.4762 126.427 42.444 126.354C42.444 126.281 42.4118 126.244 42.3796 126.171C42.3796 126.134 42.3474 126.061 42.3152 126.024C42.3152 125.951 42.283 125.914 42.2508 125.841C42.2508 125.768 42.1864 125.731 42.1542 125.658C42.1542 125.584 42.0898 125.511 42.0575 125.438C42.0253 125.364 41.9931 125.291 41.9287 125.181C41.9287 125.181 41.9287 125.181 41.9287 125.145C41.8643 124.998 41.7677 124.851 41.7033 124.705C41.6389 124.595 41.5744 124.485 41.51 124.375C41.51 124.375 41.4134 124.228 41.3812 124.155C41.349 124.082 41.2846 124.045 41.2523 123.972C41.2201 123.935 41.1557 123.862 41.1235 123.825C41.0913 123.788 41.0269 123.715 40.9947 123.678C40.9947 123.642 40.9303 123.605 40.8981 123.568C40.8659 123.532 40.8015 123.458 40.7693 123.422C40.737 123.385 40.6726 123.312 40.6404 123.275C40.6082 123.238 40.5437 123.165 40.5115 123.129C40.5115 123.129 40.4794 123.092 40.4472 123.055C40.4472 123.055 40.415 123.055 40.3828 123.019C40.3506 122.982 40.2861 122.945 40.2539 122.909C40.2217 122.909 40.1573 122.835 40.1251 122.799C40.0929 122.799 40.0284 122.725 39.9962 122.689C39.964 122.689 39.8996 122.615 39.8674 122.579C39.8352 122.579 39.803 122.542 39.7708 122.505C39.7386 122.505 39.6742 122.469 39.642 122.432C39.6098 122.432 39.5453 122.395 39.5131 122.359C39.4809 122.359 39.4166 122.322 39.3843 122.285C39.3521 122.285 39.2877 122.285 39.2555 122.249C39.2555 122.249 39.1911 122.249 39.1589 122.249C39.1267 122.249 39.0622 122.249 39.03 122.212C38.9978 122.212 38.9334 122.212 38.9011 122.212C38.8689 122.212 38.8046 122.212 38.7724 122.212C38.7402 122.212 38.708 122.212 38.6758 122.212C38.6114 122.212 38.5791 122.212 38.5147 122.212C38.4503 122.212 38.4181 122.212 38.3537 122.212C38.2893 122.212 38.2248 122.212 38.1604 122.212C38.096 122.212 38.0316 122.212 37.935 122.285C37.8383 122.322 37.7418 122.359 37.6773 122.432L36.9365 122.909C36.9365 122.909 37.2264 122.762 37.4196 122.689C37.5807 122.652 37.7739 122.652 37.9672 122.689C38.1604 122.689 38.3537 122.762 38.5469 122.835C38.7402 122.909 38.9656 123.019 39.191 123.165C39.4165 123.312 39.6097 123.458 39.8352 123.678C40.0284 123.862 40.2217 124.081 40.4149 124.301C40.6082 124.521 40.7692 124.778 40.9625 125.035C41.1235 125.291 41.2845 125.548 41.4133 125.841C41.4133 125.841 41.4133 125.841 41.4133 125.878C41.5422 126.134 41.6711 126.427 41.7999 126.721C41.8965 127.014 42.0254 127.307 42.0898 127.637C42.1542 127.93 42.2186 128.26 42.283 128.553C42.3152 128.847 42.3474 129.14 42.3474 129.433C42.3474 129.726 42.3474 129.983 42.283 130.203C42.2508 130.423 42.1864 130.643 42.0898 130.826C42.0254 130.936 41.961 131.046 41.8965 131.156C41.7677 131.376 41.6066 131.559 41.4133 131.706L42.1542 131.229C42.3474 131.082 42.5084 130.899 42.6373 130.679C42.6373 130.679 42.6695 130.643 42.7017 130.606C42.7339 130.533 42.7983 130.459 42.8305 130.349C42.8305 130.276 42.8628 130.203 42.895 130.166C42.895 130.093 42.9271 130.056 42.9594 129.983C42.9594 129.91 42.9594 129.873 42.9916 129.8C42.9916 129.8 42.9916 129.763 42.9916 129.726C42.9916 129.726 42.9916 129.69 42.9916 129.653C42.9916 129.58 42.9916 129.543 42.9916 129.47C42.9916 129.396 42.9916 129.36 42.9916 129.286C42.9916 129.213 42.9916 129.176 42.9916 129.103C42.9916 129.03 42.9916 128.993 42.9916 128.92V128.737L42.7339 128.517Z" fill="#17191B"/>
<path d="M38.8057 122.872C40.5772 124.008 41.9944 126.867 41.9944 129.14C41.9944 131.449 40.545 132.365 38.7736 131.193C37.0022 130.02 35.585 127.234 35.585 124.925C35.585 122.615 37.0343 121.699 38.8057 122.835V122.872Z" fill="#232526"/>
<path d="M26.1782 105.571C26.1782 105.571 26.1782 105.278 26.1782 105.131C26.1782 104.984 26.1782 104.838 26.1782 104.691C26.1782 104.545 26.1782 104.398 26.146 104.251C26.146 104.105 26.1138 103.958 26.0816 103.775C26.0816 103.628 26.0493 103.481 26.0171 103.335C26.0171 103.188 25.9527 103.005 25.9205 102.858C25.9205 102.712 25.8561 102.529 25.8239 102.382C25.7917 102.235 25.7595 102.052 25.7272 101.905C25.695 101.759 25.6628 101.649 25.6306 101.502C25.6306 101.502 25.6306 101.466 25.6306 101.429C25.5984 101.282 25.534 101.099 25.5018 100.952C25.4696 100.806 25.4052 100.622 25.373 100.476C25.3086 100.329 25.2763 100.183 25.2119 100.036C25.1475 99.8894 25.1153 99.7428 25.0509 99.5962C25.0187 99.4862 24.9543 99.3396 24.9221 99.2296C24.9221 99.2296 24.9221 99.193 24.9221 99.1563C24.8576 99.0097 24.7932 98.8631 24.7288 98.7165C24.6644 98.5332 24.6 98.3866 24.5033 98.2033C24.4067 98.0201 24.3423 97.8368 24.2457 97.6535C24.1491 97.4703 24.0525 97.2503 23.9559 97.0671C23.9559 97.0671 23.9558 96.9937 23.8914 96.9571C23.8914 96.9204 23.8592 96.8838 23.827 96.8471C23.6338 96.4806 23.4405 96.114 23.215 95.7475C23.054 95.4543 22.893 95.1977 22.6997 94.9411C22.5709 94.7578 22.4743 94.5746 22.3455 94.3913C22.2488 94.2447 22.1522 94.098 22.0234 93.9514C21.9268 93.8048 21.8301 93.6582 21.7013 93.5482C21.6047 93.4016 21.4758 93.2916 21.3792 93.145C21.3792 93.145 21.347 93.1084 21.3148 93.0718C21.2182 92.9618 21.1538 92.8518 21.0572 92.7785C20.9606 92.6319 20.8317 92.5219 20.7028 92.412C20.574 92.2653 20.4774 92.1554 20.3486 92.0454C20.2198 91.9355 20.1231 91.7888 19.9943 91.6789C19.9299 91.6422 19.8655 91.5689 19.8333 91.5322C19.8333 91.5322 19.8332 91.5323 19.801 91.4956C19.7366 91.4589 19.7044 91.4223 19.6722 91.349C19.5433 91.239 19.4468 91.1291 19.3179 91.0558C19.1891 90.9458 19.0924 90.8725 18.9636 90.7625C18.867 90.6892 18.7382 90.5792 18.6094 90.5059C18.5127 90.4326 18.3839 90.3593 18.255 90.2494C18.255 90.2494 18.1906 90.2494 18.1906 90.2127C18.094 90.1761 18.0296 90.1027 17.933 90.0661C17.8364 89.9928 17.7076 89.9195 17.6109 89.8828C17.5143 89.8095 17.3855 89.7728 17.2888 89.6995C17.1922 89.6262 17.0634 89.5896 16.9667 89.5529C16.8701 89.5163 16.7413 89.443 16.6446 89.4063C16.6446 89.4063 16.6125 89.4063 16.5803 89.4063C16.5158 89.4063 16.4192 89.333 16.3548 89.333C16.2259 89.2964 16.1294 89.2597 16.0328 89.2231C15.9362 89.2231 15.8073 89.1497 15.7107 89.1497C15.5819 89.1497 15.4852 89.1131 15.3563 89.0764C15.2597 89.0764 15.1953 89.0764 15.0987 89.0764H15.0342C14.9054 89.0764 14.7766 89.0764 14.6478 89.0764C14.5189 89.0764 14.3579 89.0764 14.2291 89.0764C14.068 89.0764 13.907 89.1131 13.746 89.1497C13.5527 89.1864 13.3917 89.2597 13.1985 89.333C12.973 89.443 12.7475 89.5529 12.5543 89.6995L5.24316 94.5379C5.59745 94.2813 6.01613 94.1347 6.43483 94.0247C6.85354 93.9148 7.30439 93.9148 7.78751 93.9514C7.78751 93.9514 7.78754 93.9514 7.81974 93.9514C8.30286 93.9881 8.78598 94.1347 9.33351 94.318C9.84884 94.5379 10.3964 94.7945 10.9761 95.161C11.5237 95.5276 12.0712 95.9674 12.5865 96.4439C12.5865 96.4439 12.5865 96.4439 12.6187 96.4806C13.134 96.9571 13.6172 97.5069 14.1003 98.0567C14.5834 98.6432 15.0343 99.2663 15.453 99.9261C15.8717 100.586 16.2582 101.246 16.6125 101.979C16.6125 101.979 16.6125 102.052 16.6769 102.089C17.0312 102.785 17.3533 103.518 17.6432 104.251C17.933 104.984 18.1906 105.754 18.3839 106.524C18.5771 107.294 18.7382 108.063 18.8348 108.796C18.9315 109.566 18.9958 110.299 18.9958 111.032C18.9958 111.765 18.9315 112.425 18.8348 113.012C18.8348 113.012 18.8348 113.012 18.8348 113.085C18.7382 113.671 18.5771 114.221 18.3839 114.698C18.2228 115.101 17.9974 115.431 17.7719 115.761C17.7075 115.871 17.611 115.981 17.5465 116.091C17.2889 116.42 16.999 116.714 16.6769 116.934L23.9881 112.095C24.3102 111.875 24.6 111.582 24.8899 111.252C24.9865 111.142 25.0509 111.032 25.1153 110.922C25.2119 110.776 25.3407 110.666 25.4051 110.519C25.534 110.336 25.6306 110.116 25.7272 109.896C25.7917 109.749 25.8561 109.566 25.9205 109.419C25.9849 109.273 26.0171 109.09 26.0493 108.943C26.0815 108.796 26.1138 108.65 26.146 108.466C26.146 108.393 26.146 108.32 26.1782 108.283C26.1782 108.283 26.1782 108.283 26.1782 108.247C26.1782 108.173 26.1781 108.1 26.2103 108.027C26.2103 107.88 26.2426 107.733 26.2748 107.587C26.2748 107.44 26.2748 107.294 26.307 107.147C26.307 107 26.307 106.854 26.307 106.707C26.307 106.56 26.307 106.414 26.307 106.267C26.307 106.267 26.307 105.974 26.307 105.827L26.1782 105.571Z" fill="#17191B"/>
<path d="M10.7833 94.8315C6.30644 91.8991 2.66697 94.2817 2.63477 100.11C2.63477 105.938 6.24197 113.122 10.7188 116.054C15.1957 118.987 18.8352 116.641 18.8674 110.776C18.8674 104.911 15.2602 97.7638 10.7833 94.8315Z" fill="#232526"/>
<path d="M10.4613 97.5434C7.14392 95.3441 4.40625 97.1402 4.40625 101.465C4.40625 105.827 7.11169 111.142 10.4291 113.341C13.7465 115.541 16.4842 113.781 16.4842 109.419C16.4842 105.057 13.7787 99.706 10.4613 97.5434Z" fill="#D2D2D2"/>
<path d="M13.3599 107.147C13.3599 107.147 13.3599 107.037 13.3599 106.964C13.3599 106.891 13.3599 106.854 13.3599 106.781C13.3599 106.707 13.3599 106.671 13.3599 106.597C13.3599 106.524 13.3599 106.487 13.3599 106.414C13.3599 106.414 13.3599 106.304 13.3599 106.231C13.3599 106.157 13.3598 106.121 13.3276 106.047C13.3276 105.974 13.3277 105.938 13.2955 105.864C13.2955 105.791 13.2954 105.754 13.2632 105.681C13.2632 105.644 13.2632 105.571 13.231 105.534C13.231 105.461 13.1988 105.424 13.1666 105.351C13.1666 105.278 13.1344 105.241 13.1022 105.168C13.1022 105.094 13.07 105.058 13.0378 104.985C13.0378 104.911 13.0056 104.875 12.9734 104.801C12.9734 104.765 12.9412 104.691 12.909 104.655C12.909 104.581 12.8767 104.545 12.8445 104.471C12.8445 104.398 12.7801 104.325 12.7479 104.288C12.7479 104.215 12.6835 104.142 12.6513 104.068C12.6191 103.995 12.5868 103.922 12.5224 103.812C12.5224 103.812 12.5224 103.812 12.5224 103.775C12.5224 103.775 12.5224 103.775 12.5224 103.738C12.458 103.592 12.3615 103.445 12.297 103.298C12.2326 103.188 12.1682 103.079 12.1038 102.969C12.0716 102.895 12.0072 102.822 11.9749 102.749C11.9427 102.675 11.8783 102.639 11.8461 102.565C11.8139 102.529 11.7494 102.455 11.7172 102.419C11.685 102.382 11.6207 102.309 11.5885 102.272C11.5563 102.235 11.5241 102.199 11.4918 102.162C11.4596 102.126 11.3952 102.052 11.363 102.016C11.3308 101.979 11.2663 101.906 11.2341 101.869C11.2019 101.832 11.1376 101.759 11.1054 101.722C11.1054 101.722 11.0731 101.686 11.0409 101.649C11.0409 101.649 11.0087 101.612 10.9765 101.576C10.9443 101.539 10.8799 101.502 10.8477 101.466C10.8154 101.429 10.751 101.392 10.7188 101.356C10.6866 101.356 10.6222 101.282 10.59 101.246C10.5578 101.246 10.4934 101.173 10.4612 101.136C10.429 101.136 10.3968 101.099 10.3646 101.063C10.3324 101.063 10.2679 101.026 10.2357 100.989C10.2035 100.989 10.139 100.953 10.1068 100.916C10.0746 100.916 10.0103 100.879 9.97808 100.843C9.94587 100.843 9.88143 100.843 9.84922 100.806C9.84922 100.806 9.78481 100.806 9.7526 100.806C9.7204 100.806 9.65595 100.806 9.62374 100.769C9.59154 100.769 9.52719 100.769 9.49498 100.769C9.43057 100.769 9.39833 100.769 9.36613 100.769C9.33392 100.769 9.30171 100.769 9.26951 100.769C9.26951 100.769 9.17282 100.769 9.10841 100.769C9.04399 100.769 9.01182 100.769 8.94741 100.769C8.88299 100.769 8.81859 100.769 8.75417 100.769C8.75417 100.769 8.62535 100.806 8.56093 100.843C8.46431 100.879 8.36763 100.916 8.30322 100.989L7.5625 101.466C7.5625 101.466 7.85235 101.319 8.0456 101.246C8.20664 101.209 8.39983 101.209 8.59307 101.246C8.78632 101.246 8.97964 101.319 9.17289 101.392C9.39834 101.466 9.59153 101.576 9.81698 101.722C10.0424 101.869 10.2357 102.016 10.4612 102.235C10.6544 102.419 10.8476 102.639 11.0409 102.859C11.2341 103.079 11.3952 103.335 11.5885 103.592C11.7495 103.848 11.9105 104.141 12.0393 104.398C12.0393 104.398 12.0393 104.398 12.0393 104.435C12.1682 104.691 12.297 104.984 12.4258 105.278C12.5224 105.571 12.6513 105.864 12.7158 106.157C12.8124 106.451 12.8446 106.781 12.909 107.074C12.9412 107.367 12.9734 107.66 12.9734 107.954C12.9734 108.247 12.9734 108.503 12.909 108.723C12.8768 108.943 12.8124 109.163 12.7158 109.346C12.6513 109.456 12.5868 109.566 12.5224 109.676C12.3936 109.896 12.2326 110.079 12.0393 110.226L12.7801 109.75C12.9734 109.64 13.1344 109.42 13.2632 109.2C13.2632 109.2 13.2954 109.163 13.3276 109.126C13.3598 109.053 13.4243 108.98 13.4565 108.87C13.4565 108.797 13.4887 108.723 13.521 108.687C13.521 108.613 13.5531 108.577 13.5853 108.503C13.5853 108.43 13.5854 108.393 13.6176 108.32C13.6176 108.32 13.6176 108.283 13.6176 108.247C13.6176 108.247 13.6176 108.21 13.6176 108.173C13.6176 108.1 13.6176 108.063 13.6176 107.99C13.6176 107.917 13.6176 107.88 13.6176 107.807C13.6176 107.734 13.6176 107.697 13.6176 107.624C13.6176 107.55 13.6176 107.514 13.6176 107.44V107.257L13.3599 107.147Z" fill="#17191B"/>
<path d="M9.46296 101.538C11.2344 102.675 12.6515 105.534 12.6515 107.806C12.6515 110.115 11.2021 111.032 9.43072 109.859C7.6593 108.723 6.24219 105.9 6.24219 103.591C6.24219 101.282 7.69154 100.365 9.46296 101.502V101.538Z" fill="#232526"/>
<path d="M32.2324 102.015L32.2002 115.467L67.2422 92.3019L67.2744 78.8499L32.2324 102.015Z" fill="#BB3C0C"/>
<path d="M37.5481 59.3126C35.3902 57.8831 31.5897 58.103 29.0775 59.7891L2.89258 77.0899C0.380378 78.7393 0.0905675 81.2684 2.24849 82.6613L32.266 102.015L67.3081 78.8492L37.5803 59.3126H37.5481Z" fill="#FA7C20"/>
<path d="M90.5616 99.9255V107.586L55.5195 130.752V123.091L90.5616 99.9255Z" fill="#1B5964"/>
<path d="M90.5606 99.926L55.5186 123.091L32.2002 107.77L67.2422 84.5679L90.5606 99.926Z" fill="#FA7C20"/>
<path d="M2.24783 82.6618C1.28159 82.0387 0.798438 81.159 0.798438 80.2793V93.7314C0.508568 94.7943 1.12049 95.5641 2.18335 96.1139C2.18335 96.1139 4.7922 92.4852 9.65557 91.2389C9.84882 91.2023 10.0098 91.1289 10.203 91.0556C10.3641 91.0556 10.5252 90.9823 10.6862 90.9823C10.8151 90.9823 10.9761 90.9823 11.105 90.9823C11.2338 90.9823 11.3626 90.9823 11.4914 90.9823H11.5558C11.5558 90.9823 11.5558 90.9823 11.5881 90.9823C11.6847 90.9823 11.749 90.9823 11.8457 90.9823C11.9745 90.9823 12.0712 91.019 12.2 91.0556C12.2966 91.0556 12.4254 91.0923 12.522 91.129C12.6186 91.129 12.7475 91.2023 12.8441 91.2389C12.9085 91.2389 13.0052 91.3122 13.0696 91.3122C13.0696 91.3122 13.1018 91.3122 13.134 91.3122C13.2306 91.3488 13.3594 91.3855 13.4561 91.4588C13.5527 91.4955 13.6815 91.5688 13.7782 91.6054C13.8748 91.6421 14.0036 91.7154 14.1003 91.7887C14.1969 91.862 14.3257 91.8987 14.4224 91.972C14.519 92.0086 14.5833 92.0819 14.68 92.1186C14.68 92.1186 14.7444 92.1186 14.7444 92.1553C14.8732 92.2286 14.9699 92.3019 15.0987 92.3752C15.1953 92.4485 15.3241 92.5584 15.4529 92.6317C15.5818 92.705 15.6784 92.815 15.8073 92.925C15.9361 93.0349 16.0327 93.1449 16.1615 93.2182C16.2259 93.2549 16.2582 93.3281 16.3226 93.3648C16.3226 93.3648 16.3225 93.3648 16.3547 93.4015C16.4192 93.4381 16.4836 93.5114 16.5158 93.5481C16.6447 93.658 16.7412 93.768 16.8701 93.9146C16.9989 94.0246 17.0956 94.1712 17.2244 94.2812C17.3532 94.3911 17.4498 94.5378 17.5786 94.6477C17.6753 94.7577 17.7397 94.8677 17.8364 94.941C17.8364 94.941 17.8685 94.9776 17.9007 95.0143C17.9974 95.1242 18.1262 95.2709 18.2228 95.4175C18.3195 95.5641 18.4483 95.7107 18.5449 95.8207C18.6416 95.9673 18.7703 96.1139 18.8669 96.2605C18.9958 96.4438 19.0924 96.627 19.2213 96.8103C19.3823 97.0669 19.5756 97.3601 19.7366 97.6167C19.9621 97.9832 20.1553 98.3498 20.3486 98.7163C20.3486 98.753 20.3807 98.7896 20.4129 98.8263C20.4129 98.8263 20.4451 98.8996 20.4773 98.9362C20.5739 99.1195 20.6707 99.3395 20.7673 99.5227C20.8639 99.706 20.9283 99.8892 21.0249 100.073C21.0893 100.219 21.1537 100.402 21.2181 100.549C21.2826 100.696 21.347 100.842 21.4114 100.989C21.4114 100.989 21.4114 101.026 21.4114 101.062C21.4436 101.172 21.508 101.319 21.5402 101.429C21.6047 101.575 21.6368 101.722 21.7012 101.869C21.7657 102.015 21.7979 102.162 21.8623 102.308C21.9268 102.455 21.9589 102.638 22.0233 102.785C22.0555 102.932 22.12 103.115 22.1522 103.261C22.1522 103.261 22.1522 103.298 22.1522 103.335C22.1844 103.481 22.2166 103.591 22.2488 103.738C22.281 103.885 22.3133 104.068 22.3777 104.214C22.4099 104.361 22.4421 104.544 22.4743 104.691C22.4743 104.838 22.5387 105.021 22.5709 105.167C22.5709 105.314 22.6031 105.461 22.6353 105.607C22.6353 105.754 22.6675 105.901 22.6997 106.084C22.6997 106.23 22.6997 106.377 22.7319 106.524C22.7319 106.67 22.7319 106.817 22.7319 106.964C22.7319 107.11 22.7319 107.257 22.7319 107.403C22.7319 107.55 22.7319 107.66 22.7319 107.807C22.7319 107.807 22.7319 108.136 22.7319 108.283C22.7319 108.43 22.7319 108.576 22.7319 108.723C22.7319 108.833 22.7319 108.943 22.7319 109.053L32.1366 115.137V101.685L2.15111 82.3319L2.24783 82.6618Z" fill="#FF5415"/>
<path d="M48.8515 118.692C48.8515 118.692 49.077 119.022 49.1736 119.205C49.399 119.571 49.5923 119.938 49.7855 120.305C49.7855 120.341 49.8178 120.378 49.85 120.414C49.85 120.414 49.8822 120.488 49.9144 120.524C50.011 120.708 50.1076 120.928 50.2043 121.111C50.3009 121.294 50.3653 121.477 50.4619 121.661C50.5263 121.807 50.5907 121.991 50.6874 122.137C50.7518 122.284 50.8162 122.43 50.8806 122.577C50.8806 122.577 50.8806 122.614 50.8806 122.65C50.9128 122.76 50.9772 122.87 51.0095 123.017C51.0739 123.164 51.106 123.31 51.1705 123.457C51.2349 123.603 51.2671 123.75 51.3315 123.897C51.396 124.043 51.4282 124.227 51.4604 124.373C51.4926 124.52 51.557 124.703 51.5892 124.85C51.5892 124.85 51.5892 124.886 51.5892 124.923C51.6214 125.07 51.6536 125.18 51.6858 125.326C51.718 125.473 51.7502 125.656 51.7824 125.803C51.8146 125.949 51.8468 126.133 51.879 126.279C51.879 126.426 51.9434 126.609 51.9756 126.756C51.9756 126.902 52.0079 127.049 52.0401 127.196C52.0401 127.342 52.0723 127.489 52.1045 127.672C52.1045 127.819 52.1045 127.965 52.1367 128.112C52.1367 128.222 52.1367 128.332 52.1367 128.478L55.4541 130.678V122.98L48.7871 118.582L48.8515 118.692Z" fill="#FF5415"/>
<path d="M38.3519 112.938C38.5773 112.791 38.7705 112.681 38.996 112.571C39.1248 112.535 39.2537 112.498 39.3826 112.461L32.2002 107.733V115.43L33.3919 116.237L38.3519 112.938Z" fill="#FF5415"/>
<path d="M34.0042 7.52034C33.7788 7.66696 33.6177 7.88688 33.4566 8.14346C33.4566 8.14346 33.3923 8.18013 33.3923 8.21678C33.3601 8.29009 33.2956 8.40006 33.2634 8.51002C33.2634 8.51002 33.199 8.65663 33.1668 8.72994C33.1668 8.80325 33.1346 8.87654 33.1024 8.94985C33.1024 9.02316 33.1024 9.09652 33.0702 9.16983C33.0702 9.16983 33.0702 9.20644 33.0702 9.24309C33.0702 9.24309 33.0702 9.3164 33.0702 9.35305C33.0702 9.42636 33.0702 9.46302 33.0702 9.53633C33.0702 9.60964 33.0702 9.64631 33.0702 9.71961C33.0702 9.79292 33.0702 9.82959 33.0702 9.9029C33.0702 9.97621 33.0702 10.0129 33.0702 10.0862L32.9414 66.1304L36.3554 63.8945L36.4842 7.85027C36.4842 7.52039 36.4842 7.22713 36.5487 6.97055C36.6131 6.71397 36.6775 6.45741 36.7419 6.23748C36.7419 6.23748 36.8707 5.98088 36.9351 5.87092C37.0962 5.61434 37.2572 5.39442 37.4826 5.2478L34.0686 7.48371L34.0042 7.52034Z" fill="#252829"/>
<path d="M33.0364 2.53563C33.2619 2.53563 33.4873 2.60895 33.745 2.71891C34.0027 2.82887 34.2603 2.93884 34.518 3.12211L37.932 0.886203C37.932 0.886203 37.8353 0.849533 37.8031 0.812879C37.7387 0.812879 37.7065 0.739575 37.6421 0.702921C37.5777 0.702921 37.5454 0.629653 37.481 0.629653C37.4166 0.629653 37.3844 0.592983 37.32 0.556329C37.2556 0.556329 37.2234 0.519659 37.159 0.483005C37.159 0.483005 37.159 0.483005 37.1268 0.483005C37.0946 0.483005 37.0624 0.483025 37.0302 0.446371C36.9657 0.446371 36.9336 0.446391 36.8692 0.409737C36.8047 0.409737 36.7725 0.409701 36.7081 0.373047C36.6436 0.373047 36.6115 0.373047 36.5471 0.373047C36.5148 0.373047 36.4826 0.373047 36.4182 0.373047C36.4182 0.373047 36.4182 0.373047 36.386 0.373047C36.3215 0.373047 36.2571 0.373047 36.1927 0.373047C36.1283 0.373047 36.0639 0.373047 35.9995 0.373047C35.9351 0.373047 35.8384 0.373083 35.774 0.409737C35.774 0.409737 35.5808 0.446351 35.5164 0.483005C35.4198 0.519659 35.2909 0.592979 35.1943 0.666287L31.7803 2.90219C31.9413 2.79223 32.1345 2.71889 32.36 2.64559C32.5532 2.60893 32.7787 2.57228 33.0042 2.64559L33.0364 2.53563Z" fill="#65696B"/>
<path d="M69.625 26.7644L66.2109 29.0003L80.4468 97.4703L83.8608 95.1977L69.625 26.7644Z" fill="#252829"/>
<path d="M37.9658 0.849609L34.5518 3.12215L62.347 21.3759L65.761 19.1034L37.9658 0.849609Z" fill="#3B4042"/>
<path d="M64.3436 23.5753C64.5369 23.8685 64.6979 24.1984 64.8267 24.5283C64.9878 24.8582 65.1166 25.1881 65.2454 25.5546C65.3743 25.8845 65.503 26.2511 65.5997 26.6176C65.5997 26.6176 65.5997 26.6543 65.5997 26.6909C65.6963 27.0208 65.7929 27.3874 65.8895 27.7173C65.8895 27.7173 65.8895 27.7906 65.8895 27.8272C65.9861 28.1938 66.0506 28.5603 66.1472 28.9635L69.5613 26.7276C69.5613 26.7276 69.529 26.5077 69.4968 26.3977C69.4324 26.1411 69.4002 25.9212 69.3358 25.6646C69.3358 25.6646 69.3358 25.628 69.3358 25.5913C69.3358 25.5547 69.3358 25.518 69.3358 25.4813C69.3036 25.3347 69.2714 25.1881 69.2392 25.0415C69.207 24.8582 69.1425 24.6749 69.1103 24.5283C69.1103 24.5283 69.1103 24.455 69.1103 24.4183C69.1103 24.4183 69.1103 24.3817 69.1103 24.3451C69.1103 24.2351 69.0459 24.1618 69.0137 24.0885C68.9815 23.9419 68.917 23.8319 68.8848 23.7219C68.8526 23.6119 68.8205 23.502 68.7561 23.392C68.7561 23.392 68.7561 23.3921 68.7561 23.3554C68.7561 23.2821 68.6917 23.2088 68.6594 23.1355C68.6272 23.0255 68.595 22.9522 68.5306 22.8422C68.4984 22.7323 68.4661 22.659 68.4017 22.549C68.4017 22.4757 68.3373 22.4024 68.3051 22.3291C68.3051 22.3291 68.3051 22.3291 68.3051 22.2558C68.2407 22.1091 68.1763 21.9625 68.1119 21.8526C68.0152 21.7059 67.9509 21.5227 67.8542 21.376C67.8542 21.376 67.7254 21.1195 67.6288 21.0095C67.5966 20.9362 67.5322 20.8629 67.4678 20.7896C67.4356 20.7163 67.4033 20.6796 67.3389 20.6063C67.3389 20.5697 67.2745 20.533 67.2423 20.4597C67.2101 20.423 67.1779 20.3498 67.1134 20.3131C67.0812 20.2764 67.049 20.2032 66.9846 20.1665C66.9524 20.1299 66.888 20.0565 66.8558 20.0199C66.8236 19.9832 66.7592 19.9099 66.727 19.8733C66.6948 19.8366 66.6303 19.7633 66.5981 19.7266C66.5981 19.7266 66.5014 19.6167 66.4692 19.58C66.437 19.5434 66.3727 19.5067 66.3405 19.4701C66.2761 19.4334 66.2438 19.3968 66.1794 19.3601C66.1472 19.3235 66.0828 19.2868 66.0184 19.2502C65.9862 19.2502 65.9218 19.1768 65.8574 19.1401C65.8574 19.1401 65.8574 19.1401 65.8251 19.1401L62.4111 21.4127C62.9587 21.7793 63.4096 22.2191 63.8283 22.7689C64.0215 23.0255 64.2148 23.3188 64.408 23.6486L64.3436 23.5753Z" fill="#65696B"/>
<path d="M66.2115 28.9998C65.5674 25.9209 64.4723 22.7686 62.3466 21.3391L34.5835 3.08537C32.4256 1.69251 30.6864 2.8288 30.6864 5.61452L30.5254 64.6277L32.8121 66.1305L32.941 10.0863C32.941 7.55719 34.5513 6.49423 36.4516 7.74047L61.5414 24.1981C63.4738 25.481 64.4402 28.3401 65.0521 31.1625L78.4504 96.0769L80.4795 97.4331L66.2438 28.9632L66.2115 28.9998Z" fill="#1C1E1F"/>
<path d="M55.388 64.0415C55.3236 64.2247 55.2269 64.4447 55.0981 64.628C55.0981 64.628 55.0981 64.7013 55.0659 64.7013C54.9371 64.8846 54.8082 65.0678 54.615 65.2144C54.4861 65.3611 54.3251 65.471 54.1641 65.6176C54.0675 65.6909 53.9709 65.7642 53.8743 65.8375L52.5215 71.0791L53.8743 76.284C53.8743 76.284 53.9386 76.284 53.9386 76.2473C54.0353 76.174 54.0675 76.1374 54.1641 76.0641C54.3251 75.9541 54.4861 75.8075 54.615 75.6975C54.615 75.6975 54.6472 75.6975 54.6794 75.6609C54.8083 75.5143 54.9371 75.3676 55.0337 75.221C55.0337 75.221 55.0337 75.221 55.0659 75.1844C55.0659 75.1844 55.0659 75.111 55.0981 75.111C55.1303 75.0377 55.1947 74.9644 55.2269 74.8911C55.2913 74.7812 55.3236 74.6712 55.3558 74.5613C55.3558 74.4879 55.4202 74.378 55.4202 74.3047C55.4202 74.1947 55.4202 74.0847 55.4202 74.0114V63.5283C55.4202 63.7482 55.388 63.9316 55.3235 64.1515L55.388 64.0415Z" fill="#323537"/>
<path d="M10.1377 67.5234V77.9698C10.1377 78.6663 10.4598 79.3261 11.2327 79.8392V69.3928C10.492 68.8796 10.1377 68.2199 10.1377 67.5234Z" fill="#242628"/>
<path d="M33.5536 79.3263L33.5215 89.7727L53.8446 76.3207L53.8768 65.9109L33.5536 79.3263Z" fill="#242628"/>
<path d="M33.5511 79.3265C33.1968 79.5464 32.8103 79.7296 32.3916 79.9129C32.295 79.9129 32.1984 79.9862 32.1018 80.0229C31.9085 80.0962 31.6831 80.1328 31.4898 80.2061C31.361 80.2061 31.2643 80.2795 31.1355 80.2795C31.0711 80.2795 31.0067 80.2795 30.9101 80.2795C30.6847 80.2795 30.4591 80.3528 30.2337 80.3528C30.2015 80.3528 30.1693 80.3528 30.1049 80.3528C29.8473 80.3528 29.5574 80.3528 29.2997 80.3528C29.2997 80.3528 29.2353 80.3528 29.2031 80.3528C28.9454 80.3528 28.6877 80.2795 28.43 80.2428C28.43 80.2428 28.3979 80.2428 28.3657 80.2428C28.1402 80.2062 27.9148 80.1328 27.6893 80.0229C27.6571 80.0229 27.5927 80.0229 27.5605 79.9862C27.335 79.8763 27.1095 79.7663 26.9163 79.6564L25.7246 83.9083L26.8841 90.1028C27.0452 90.2127 27.2384 90.3227 27.4316 90.396C27.4638 90.396 27.496 90.396 27.5282 90.4327C27.5604 90.4327 27.6249 90.4327 27.6571 90.4693C27.7215 90.4693 27.7859 90.5426 27.8826 90.5426C28.0114 90.5793 28.1402 90.616 28.3013 90.6526C28.3013 90.6526 28.3335 90.6526 28.3657 90.6526C28.3657 90.6526 28.3978 90.6526 28.43 90.6526C28.5267 90.6526 28.6233 90.6892 28.7199 90.6892C28.8487 90.6892 28.9776 90.7259 29.1386 90.7259C29.1386 90.7259 29.203 90.7259 29.2352 90.7259C29.2352 90.7259 29.2997 90.7259 29.3319 90.7259C29.4285 90.7259 29.493 90.7259 29.5896 90.7259C29.7506 90.7259 29.9116 90.7259 30.0727 90.7259C30.0727 90.7259 30.1048 90.7259 30.1371 90.7259C30.1693 90.7259 30.2015 90.7259 30.2337 90.7259C30.3625 90.7259 30.4592 90.7259 30.588 90.7259C30.6846 90.7259 30.8135 90.7259 30.9101 90.6892C30.9745 90.6892 31.0389 90.6892 31.1355 90.6892C31.1677 90.6892 31.1999 90.6892 31.2643 90.6892C31.361 90.6892 31.4254 90.6526 31.5221 90.6159C31.7475 90.5793 31.9408 90.506 32.134 90.4327C32.1662 90.4327 32.2306 90.4327 32.295 90.396C32.3272 90.396 32.3917 90.3594 32.4239 90.3227C32.8426 90.1761 33.229 89.9928 33.5833 89.7363V79.2898L33.5511 79.3265Z" fill="#242628"/>
<path d="M54.3588 61.549L38.6736 51.2491C36.9988 50.1495 34.0679 50.2961 32.1032 51.579L11.7801 65.0311C9.81547 66.314 9.59 68.2933 11.2648 69.3929L26.95 79.6928C28.6248 80.7924 31.5879 80.6458 33.5204 79.3262L53.8434 65.8741C55.8081 64.5912 56.0014 62.6486 54.3588 61.549Z" fill="#3B4042"/>
<path d="M11.2647 69.356L11.2324 79.8024L26.9498 90.1389V79.6924L11.2647 69.356Z" fill="#1C1E1F"/>
<path d="M39.804 39.7764C40.0616 39.6665 40.2871 39.6298 40.5448 39.5931C40.5448 39.5931 40.5769 39.5931 40.6092 39.5931C40.8668 39.5931 41.0923 39.5931 41.3177 39.5931C41.5432 39.6298 41.7686 39.7398 41.9297 39.8498L36.712 36.4043C36.6476 36.3676 36.5832 36.331 36.5188 36.2943C36.4544 36.2943 36.39 36.221 36.2933 36.221C36.2289 36.221 36.1645 36.1844 36.1001 36.1477C36.0035 36.1477 35.9391 36.1477 35.8425 36.1477C35.7458 36.1477 35.6492 36.1477 35.5526 36.1477C35.4882 36.1477 35.4559 36.1477 35.3915 36.1477C35.3915 36.1477 35.3593 36.1477 35.3271 36.1477C35.3271 36.1477 35.2627 36.1477 35.2305 36.1477C35.1017 36.1477 34.9728 36.221 34.8118 36.2577C34.7474 36.2577 34.6829 36.3309 34.5863 36.3309C34.5219 36.3309 34.4897 36.3676 34.4253 36.4043C34.3609 36.4043 34.3286 36.4043 34.2642 36.4776C34.0388 36.5875 33.8133 36.6975 33.5879 36.8441L38.8055 40.2896C39.0954 40.1063 39.3853 39.9597 39.643 39.8498C39.7074 39.8498 39.7395 39.8131 39.804 39.7764Z" fill="#2B2E30"/>
<path d="M11.1376 67.8168L5.91992 64.3713C5.91992 65.5076 6.27417 66.2773 6.88611 66.6805L12.1039 70.126C11.4919 69.7228 11.1376 68.9531 11.1376 67.8168Z" fill="#242628"/>
<path d="M33.5868 36.8442L10.0107 52.3123L15.2285 55.7944L38.8045 40.2897L33.5868 36.8442Z" fill="#3B4042"/>
<path d="M11.1376 63.0519L5.91992 59.6064V64.3348L11.1376 67.817V63.0519Z" fill="#252829"/>
<path d="M11.2353 62.0256C11.2997 61.7323 11.3641 61.4024 11.4608 61.0725C11.4608 61.0725 11.4608 61.0725 11.4608 61.0359C11.5574 60.706 11.6862 60.3761 11.815 60.0462C11.9438 59.7163 12.1372 59.3865 12.2982 59.0566C12.4914 58.7267 12.6525 58.4335 12.8779 58.1402C12.8779 58.1036 12.9423 58.0669 12.9745 58.0302C13.1678 57.7736 13.361 57.5171 13.5865 57.2605C13.5865 57.2605 13.5865 57.2605 13.6187 57.2239C13.7798 57.0406 13.9407 56.8939 14.134 56.7107C14.2306 56.6374 14.2951 56.5274 14.3917 56.4541C14.6493 56.2342 14.9392 56.0143 15.2291 55.831L10.0114 52.3855C9.72151 52.5688 9.46385 52.7887 9.20619 53.0086C9.10956 53.0819 9.04519 53.1919 8.94857 53.2652C8.78753 53.4118 8.62651 53.5951 8.46547 53.7784C8.46547 53.7784 8.46544 53.7784 8.43323 53.815C8.27219 53.9983 8.14335 54.1449 8.01452 54.3282C7.9501 54.4015 7.88569 54.5115 7.82128 54.5848C7.82128 54.5848 7.75687 54.6581 7.72466 54.6947C7.72466 54.6947 7.66028 54.768 7.66028 54.8047C7.56365 54.9513 7.46698 55.0979 7.40256 55.2079C7.33815 55.3178 7.2416 55.4644 7.17718 55.5744C7.11277 55.6844 7.04826 55.831 6.98384 55.941C6.91943 56.0509 6.85505 56.1609 6.82284 56.3075C6.79064 56.3808 6.7584 56.4908 6.69399 56.5641C6.69399 56.5641 6.69399 56.564 6.69399 56.6007C6.66178 56.7107 6.59743 56.8207 6.56523 56.9306C6.53302 57.0406 6.46858 57.1505 6.43637 57.2605C6.43637 57.3338 6.37196 57.4437 6.33975 57.5171C6.33975 57.5171 6.33975 57.5171 6.33975 57.5537C6.33975 57.5537 6.33975 57.5537 6.33975 57.5904C6.30754 57.7003 6.27534 57.847 6.24313 57.9569C6.24313 58.1036 6.17872 58.2135 6.14651 58.3601C6.14651 58.3968 6.14651 58.4334 6.14651 58.4701C6.14651 58.5068 6.14651 58.5434 6.14651 58.5801C6.14651 58.6534 6.14648 58.7633 6.11427 58.8366C6.11427 59.0565 6.08203 59.2765 6.08203 59.4964L11.2998 62.9419C11.2998 62.6487 11.2997 62.3554 11.3641 62.0256C11.3641 62.0256 11.3641 61.9523 11.3641 61.9156L11.2353 62.0256Z" fill="#1C1E1F"/>
<path d="M42.9277 42.1592C42.9277 39.63 41.0919 38.787 38.8051 40.2898L15.2291 55.7945C12.9424 57.2973 11.1387 60.5596 11.1387 63.052V67.7804C11.1387 70.3095 13.0067 71.1526 15.2613 69.6498L38.8374 54.145C41.0919 52.6422 42.9277 49.4167 42.9277 46.8875V42.1225V42.1592Z" fill="#242628"/>
<path d="M39.7675 6.42114V9.13351L17.834 23.6486V20.9362L39.7675 6.42114Z" fill="#252829"/>
<path d="M17.8346 20.9364V23.6489L15.5156 22.1094V19.397L17.8346 20.9364Z" fill="#133E45"/>
<path d="M39.7681 6.42112L17.8346 20.9361L15.5156 19.3967L37.4169 4.88159L39.7681 6.42112Z" fill="#3B4042"/>
<path d="M46.1786 10.4165V13.1289L24.2451 27.6806V24.9682L46.1786 10.4165Z" fill="#252829"/>
<path d="M24.2457 24.9679V27.6803L21.9268 26.1408V23.4285L24.2457 24.9679Z" fill="#133E45"/>
<path d="M46.1792 10.4164L24.2457 24.9681L21.9268 23.4287L43.828 8.87695L46.1792 10.4164Z" fill="#3B4042"/>
<path d="M52.6542 14.595V17.3073L30.7207 31.8224V29.11L52.6542 14.595Z" fill="#252829"/>
<path d="M30.7203 29.1105V31.8229L28.4014 30.2835V27.571L30.7203 29.1105Z" fill="#133E45"/>
<path d="M52.6538 14.5954L30.7203 29.1104L28.4014 27.5709L50.3026 13.0559L52.6538 14.5954Z" fill="#3B4042"/>
<path d="M9.04328 23.2816C8.81783 23.4283 8.65674 23.6482 8.49571 23.9048C8.49571 23.9048 8.43133 23.9414 8.43133 23.9781C8.36691 24.0514 8.33468 24.1614 8.30247 24.2713C8.30247 24.3446 8.23806 24.4179 8.20585 24.4912C8.20585 24.5645 8.17368 24.6378 8.14147 24.7112C8.14147 24.7845 8.10923 24.8578 8.10923 24.9311C8.10923 24.9311 8.10923 24.9677 8.10923 25.0044V25.0777C8.10923 25.151 8.10923 25.1877 8.10923 25.261C8.10923 25.3343 8.10923 25.4076 8.10923 25.4442C8.10923 25.5175 8.10923 25.5542 8.10923 25.6275C8.10923 25.7008 8.10923 25.7741 8.10923 25.8108L7.98047 81.855L11.3945 79.6191L11.5232 23.5749C11.5232 23.245 11.5233 22.9517 11.5877 22.6952C11.6199 22.4386 11.7165 22.182 11.781 21.9621C11.781 21.9621 11.9098 21.7055 12.0064 21.5956C12.1675 21.339 12.3285 21.119 12.5539 20.9724L9.1399 23.245L9.04328 23.2816Z" fill="#393C3D"/>
<path d="M8.0784 18.2971C8.30386 18.2971 8.56152 18.3704 8.78698 18.4804C9.04464 18.5903 9.30227 18.7003 9.55993 18.8836L12.9739 16.6477C12.9739 16.6477 12.8773 16.611 12.8451 16.5744C12.7807 16.5744 12.7485 16.501 12.6841 16.4644C12.6197 16.4644 12.5874 16.3911 12.523 16.3911C12.4586 16.3911 12.4264 16.3545 12.362 16.3178C12.2976 16.3178 12.2654 16.2811 12.201 16.2445C12.1688 16.2445 12.1366 16.2445 12.1044 16.2078C12.04 16.2078 12.0077 16.2078 11.9433 16.1712C11.8789 16.1712 11.8467 16.1712 11.7823 16.1345C11.7179 16.1345 11.6534 16.1345 11.6212 16.1345C11.589 16.1345 11.5568 16.1345 11.4924 16.1345C11.4924 16.1345 11.4924 16.1345 11.4602 16.1345C11.3958 16.1345 11.3314 16.1345 11.2669 16.1345C11.2025 16.1345 11.1381 16.1345 11.0737 16.1345C11.0093 16.1345 10.9126 16.1345 10.8482 16.1712C10.7516 16.1712 10.6872 16.2078 10.5906 16.2445C10.494 16.2811 10.3651 16.3544 10.2685 16.3911L6.85449 18.6637C7.01553 18.5537 7.20875 18.4804 7.43421 18.4071C7.65966 18.3704 7.85288 18.3338 8.11054 18.3704L8.0784 18.2971Z" fill="#65696B"/>
<path d="M44.665 42.5256L41.2832 44.7982L55.519 113.232L58.933 110.996L44.665 42.5256Z" fill="#393C3D"/>
<path d="M13.0059 16.6111L9.62402 18.8836L37.3871 37.1374L40.8011 34.8648L13.0059 16.6111Z" fill="#3B4042"/>
<path d="M39.3837 39.3731C39.5447 39.6663 39.7379 39.9963 39.8668 40.3261C40.0278 40.656 40.1566 40.9859 40.2855 41.3525C40.4143 41.6823 40.5431 42.0489 40.6397 42.4154C40.6397 42.4154 40.6397 42.4521 40.6397 42.4887C40.7363 42.8186 40.8329 43.1851 40.9296 43.515C40.9296 43.515 40.9296 43.5883 40.9296 43.625C41.0262 43.9915 41.1229 44.3581 41.1873 44.7613L44.6013 42.4887C44.6013 42.4887 44.569 42.2688 44.5368 42.1588C44.4724 41.9023 44.4402 41.6823 44.3758 41.4257C44.3758 41.4257 44.3758 41.3891 44.3758 41.3525C44.3758 41.3525 44.3758 41.2791 44.3758 41.2425C44.3436 41.0959 44.3114 40.9492 44.2792 40.8026C44.247 40.6193 44.1826 40.4727 44.1182 40.2895C44.1182 40.2895 44.1182 40.2161 44.1182 40.1795C44.1182 40.1795 44.1182 40.1428 44.1182 40.1062C44.1182 39.9962 44.0537 39.9229 44.0215 39.8496C43.9893 39.703 43.9249 39.593 43.8927 39.4831C43.8605 39.3731 43.7961 39.2631 43.7639 39.1532C43.7639 39.1532 43.7639 39.1532 43.7639 39.1165C43.7639 39.0432 43.6995 38.9699 43.6672 38.8966C43.635 38.7867 43.6028 38.7134 43.5384 38.6034C43.5062 38.4934 43.4418 38.4201 43.4096 38.3102C43.4096 38.2368 43.3452 38.1635 43.313 38.0902C43.313 38.0902 43.313 38.0536 43.313 38.0169C43.2486 37.8703 43.1841 37.7237 43.1197 37.5771C43.023 37.4305 42.9587 37.2472 42.862 37.1006C42.7976 36.9906 42.7332 36.8806 42.6366 36.7707C42.5722 36.6974 42.54 36.624 42.4756 36.5507C42.4434 36.5141 42.4111 36.4408 42.3467 36.4041C42.3145 36.3675 42.2823 36.3308 42.2501 36.2575C42.2179 36.2209 42.1534 36.1475 42.1212 36.1109C42.089 36.0742 42.0247 36.0009 41.9925 35.9643C41.9603 35.9276 41.8958 35.8543 41.8636 35.8176C41.8314 35.781 41.767 35.7077 41.7348 35.671C41.7026 35.6344 41.6381 35.5611 41.6059 35.5244C41.6059 35.5244 41.5093 35.4511 41.4771 35.4144C41.4449 35.3778 41.3805 35.3411 41.3483 35.3045C41.3161 35.2678 41.2516 35.2312 41.2194 35.1945C41.155 35.1945 41.1228 35.1212 41.0584 35.0846C41.0262 35.0846 40.9618 35.0113 40.8974 34.9746C40.8974 34.9746 40.8974 34.9746 40.8652 34.9746L37.4512 37.2105C37.9987 37.5771 38.4496 38.0169 38.8683 38.5667C39.0616 38.8233 39.2548 39.1165 39.448 39.4464L39.3837 39.3731Z" fill="#65696B"/>
<path d="M41.2839 44.7979C40.6397 41.719 39.5446 38.5667 37.4189 37.1372L9.65586 18.8835C7.49794 17.4906 5.75875 18.6269 5.75875 21.4126L5.59766 80.4258L7.88448 81.9286L8.01324 25.8844C8.01324 23.3553 9.62361 22.2923 11.5239 23.5386L36.6137 39.9962C38.5462 41.2791 39.5125 44.1382 40.0922 46.9606L53.4906 111.875L55.5197 113.231L41.2839 44.7613V44.7979Z" fill="#1C1E1F"/>
<path d="M82.2852 105.387L80.8037 104.434V89.1497L82.2531 90.1393L82.2852 105.387Z" fill="#202223"/>
<path d="M82.2541 88.1963L80.8047 87.2433L80.7725 73.8279L82.2218 74.8175L82.2541 88.1963Z" fill="#202223"/>
<path d="M73.0431 111.471L71.5938 110.482L71.5615 95.2336L73.0431 96.1866V111.471Z" fill="#202223"/>
<path d="M74.5245 93.2911L73.043 92.3015L80.805 87.2432L82.2544 88.1962L74.5245 93.2911Z" fill="#333739"/>
<path d="M82.2218 72.8751L80.7724 71.8854L80.7402 58.1768L82.1895 59.1297L82.2218 72.8751Z" fill="#202223"/>
<path d="M73.0108 94.2805L71.5615 93.2909L71.5293 79.9121L73.0108 80.8652V94.2805Z" fill="#202223"/>
<path d="M74.4914 77.9332L73.0098 76.9802L80.7718 71.8853L82.2212 72.8749L74.4914 77.9332Z" fill="#333739"/>
<path d="M65.8926 98.9362L64.4434 97.9832L71.5612 93.2915L73.0105 94.2811L65.8926 98.9362Z" fill="#333739"/>
<path d="M82.1886 43.7715L80.707 42.7819L82.1886 41.8289L83.6379 42.7819L82.1886 43.7715Z" fill="#333739"/>
<path d="M82.1886 57.2235L80.7393 56.2338L80.707 42.7817L82.1886 43.7714V57.2235Z" fill="#202223"/>
<path d="M65.8595 83.6145L64.4102 82.6248L71.528 77.9331L73.0096 78.9228L65.8595 83.6145Z" fill="#333739"/>
<path d="M73.0098 78.9227L71.5282 77.933L71.4961 64.2244L72.9776 65.214L73.0098 78.9227Z" fill="#202223"/>
<path d="M74.4581 62.3185L72.9766 61.3288L80.7386 56.2339L82.1879 57.2236L74.4581 62.3185Z" fill="#333739"/>
<path d="M72.9786 63.2713L71.4971 62.3183L71.4648 48.8662L72.9464 49.8193L72.9786 63.2713Z" fill="#202223"/>
<path d="M72.9464 49.8199L71.4648 48.8668L72.9786 47.8772L74.4279 48.8302L72.9464 49.8199Z" fill="#333739"/>
<path d="M65.8273 67.9631L64.3779 66.9734L71.4959 62.3184L72.9774 63.2713L65.8273 67.9631Z" fill="#333739"/>
<path d="M64.4425 117.117L62.9931 116.127L62.8643 54.5115L64.3459 55.4645L64.4425 117.117Z" fill="#202223"/>
<path d="M83.6391 42.7817L82.1576 43.7714V57.2235L74.4276 62.3184V48.8663L72.9139 49.856V63.308L65.796 67.9998V54.5477L64.2822 55.5374L64.3788 117.153L65.8605 116.2V100.952L72.9784 96.2601V111.508L74.4921 110.519V95.2705L82.222 90.1755V105.424L83.7357 104.434L83.6391 42.8184V42.7817ZM65.8605 69.9058L72.9784 65.2141V78.9227L65.8605 83.6145V69.9058ZM65.8926 98.9359V85.5571L73.0105 80.8654V94.2442L65.8926 98.9359ZM74.4599 64.2244L82.1897 59.1295V72.8381L74.4599 77.9331V64.2244ZM74.5243 93.2912V79.9124L82.2542 74.8174V88.1962L74.5243 93.2912Z" fill="#2E3133"/>
<path d="M64.3459 55.4643L62.8643 54.5113L64.3459 53.5583L65.8274 54.5113L64.3459 55.4643Z" fill="#333739"/>
<path d="M62.219 120.452L59.2881 118.509L84.3457 102.088L87.2766 103.994L62.219 120.452Z" fill="#FFD947"/>
<path d="M87.2763 103.994L84.3454 102.088L82.1553 38.9695L85.0861 40.8755L87.2763 103.994Z" fill="#CB9700"/>
<path d="M58.0637 140.575L55.165 138.632L57.033 52.4216L59.964 54.3277L58.0637 140.575Z" fill="#CB9700"/>
<path d="M59.9641 54.328L57.0332 52.4219L86.3423 30.4294L89.2732 32.3721L59.9641 54.328Z" fill="#FFD947"/>
<path d="M89.2738 32.3721L59.9647 54.3646L58.0967 140.575L91.5605 118.583L89.306 32.3721H89.2738ZM62.2193 120.452L64.1839 57.3336L85.0867 40.8759L87.2769 103.994L62.2193 120.452Z" fill="#FDBE00"/>
<path d="M83.5391 83.0284L86.47 81.0857L90.1416 83.5049L87.2107 85.4475L83.5391 83.0284Z" fill="#3B4042"/>
<path d="M87.2109 85.4473L90.1418 83.5046L90.0774 118.583L87.1465 120.525L87.2109 85.4473Z" fill="#2D3031"/>
<path d="M87.1463 120.526L83.4746 118.18V117.557L83.5391 83.0286L87.2107 85.4478L87.1463 120.526Z" fill="#1C1E1F"/>
<path d="M66.2433 133.245L64.7617 132.292V126.134L66.2111 127.087L66.2433 133.245Z" fill="#181A1A"/>
<path d="M66.2111 127.087L64.7617 126.134L85.0848 112.719L86.5664 113.671L66.2111 127.087Z" fill="#3B4042"/>
<path d="M86.5653 113.672V119.866L66.2422 133.245L66.21 127.087L86.5653 113.672Z" fill="#2D3031"/>
<path d="M61.1855 97.5435L64.1165 95.6375L67.7881 98.0566L64.8894 99.9626L61.1855 97.5435Z" fill="#3B4042"/>
<path d="M64.8906 99.9624L67.7892 98.0564L67.7249 133.098L64.7939 135.04L64.8906 99.9624Z" fill="#2D3031"/>
<path d="M64.7937 135.041L61.1221 132.731V132.108L61.1865 97.5435L64.8903 99.9626L64.7937 135.041Z" fill="#1C1E1F"/>
<path d="M83.5391 52.3116L86.47 50.3689L90.1416 52.7881L87.2107 54.6941L83.5391 52.3116Z" fill="#3B4042"/>
<path d="M87.2099 54.6944L90.1408 52.7883L90.0764 79.8391L87.1455 81.7818L87.2099 54.6944Z" fill="#2D3031"/>
<path d="M117.904 101.978L120.835 100.036L117.421 102.638L114.49 104.581L117.904 101.978Z" fill="#131415"/>
<path d="M87.1455 81.7818L90.0764 79.8391L120.835 100.036L117.904 101.978L87.1455 81.7818Z" fill="#3B4042"/>
<path d="M87.1463 81.7817L117.905 101.978L114.491 104.581L83.4424 84.1642L83.539 52.3118L87.2106 54.6943L87.1463 81.7817Z" fill="#1C1E1F"/>
<path d="M61.2188 66.7903L64.1174 64.8843L67.8213 67.3035L64.8904 69.2094L61.2188 66.7903Z" fill="#3B4042"/>
<path d="M64.8896 69.2097L67.8205 67.3037L67.7239 94.3544L64.8252 96.2971L64.8896 69.2097Z" fill="#2D3031"/>
<path d="M95.5839 116.494L98.4826 114.551L95.1008 117.153L92.1699 119.059L95.5839 116.494Z" fill="#131415"/>
<path d="M64.8252 96.2969L67.7239 94.3542L98.4822 114.551L95.5836 116.493L64.8252 96.2969Z" fill="#3B4042"/>
<path d="M64.8259 96.2969L95.5843 116.493L92.1703 119.059L61.1221 98.6794L61.2187 66.7903L64.8903 69.2095L64.8259 96.2969Z" fill="#1C1E1F"/>
<path d="M92.4628 85.1544L116.232 69.4297L116.168 97.3235L92.3984 113.011L92.4628 85.1544Z" fill="#B98347"/>
<path d="M67.3398 68.66L91.1092 52.9353L116.231 69.4297L92.4618 85.1543L67.3398 68.66Z" fill="#BAA366"/>
<path d="M92.4628 85.1545L92.3985 113.012L67.2764 96.5173L67.3408 68.6602L92.4628 85.1545Z" fill="#E0B171"/>
<path d="M92.4277 82.8455L117.421 66.3145V71.2627L92.4277 87.7938V82.8455Z" fill="#DDAE6E"/>
<path d="M66.084 65.508L91.0772 49.0137L117.423 66.3144L92.43 82.8454L66.084 65.508Z" fill="#FFE1A3"/>
<path d="M92.4289 82.8457V87.794L66.0508 70.4566L66.0829 65.5083L92.4289 82.8457Z" fill="#EDC989"/>
<path d="M83.668 87.5376L83.7001 83.7622L84.6019 84.3487L84.5698 88.1241L83.668 87.5376Z" fill="#553819"/>
<path d="M81.4463 81.6362V86.7312L89.9813 92.3392V87.2443L81.4463 81.6362ZM82.9601 87.0611L82.0582 86.4746V82.6992L82.9601 83.2857V87.0611ZM84.5704 88.124L83.6686 87.5376V83.7622L84.5704 84.3487V88.124ZM86.2452 89.2237L85.3434 88.6372V84.8618L86.2452 85.4483V89.2237ZM87.7912 90.25L86.8894 89.6635V85.8881L87.7912 86.4746V90.25ZM89.3694 91.2763L88.4353 90.6532V86.8778L89.3694 87.4643V91.2397V91.2763Z" fill="white"/>
<path d="M88.4678 86.8779L89.3696 87.4644V91.2764L88.4355 90.6533L88.4678 86.8779Z" fill="#553819"/>
<path d="M86.8887 89.6272L86.9208 85.8518L87.8226 86.4382L87.7905 90.2503L86.8887 89.6272Z" fill="#553819"/>
<path d="M85.3428 88.6369L85.375 84.8616L86.2768 85.4481L86.2446 89.2234L85.3428 88.6369Z" fill="#553819"/>
<path d="M82.0576 86.4749V82.6628L82.9594 83.286V87.0614L82.0576 86.4749Z" fill="#553819"/>
</svg>
