<svg width="224" height="155" viewBox="0 0 224 155" fill="none" xmlns="http://www.w3.org/2000/svg">
<g style="mix-blend-mode:multiply" opacity="0.6">
<path d="M67.084 62.9575L67.7061 63.4032C67.7521 63.4032 67.084 62.9575 67.084 62.9575Z" fill="#615A59"/>
</g>
<g style="mix-blend-mode:multiply" opacity="0.6">
<path d="M93.5261 58.2312H59.8848L67.0837 62.9578H96.4103L93.5261 58.2312Z" fill="#615A59"/>
</g>
<g style="mix-blend-mode:multiply" opacity="0.5">
<path d="M159.355 104.237L156.055 99.5102H122.691L51.5548 52.7954L0.285156 86.4858L77.4665 137.192L82.658 133.805H114.384L111.362 129.052H89.857L127.629 104.237H159.355Z" fill="#58586B"/>
</g>
<path d="M51.6471 92.6035L47.9092 90.1615V56.5762L51.6471 59.0183V92.6035Z" fill="#BC7400"/>
<path d="M54.0471 91.0289L51.6475 92.6044V59.0192L54.0471 57.4436V91.0289Z" fill="#BC7400"/>
<path d="M51.6471 59.0189L47.9092 56.5768L50.3089 55.0012L54.0468 57.4433L51.6471 59.0189Z" fill="url(#paint0_linear_1397_5477)"/>
<path d="M112.029 108.176C112.029 108.622 112.306 108.78 112.629 108.57C112.952 108.36 113.229 107.834 113.229 107.388C113.229 106.942 112.952 106.784 112.629 106.994C112.306 107.204 112.029 107.729 112.029 108.176Z" fill="#E69F00"/>
<path d="M113.045 106.968L53.192 67.6579C53.192 67.6579 52.9381 67.6054 52.7766 67.7104C52.4536 67.9205 52.1768 68.4457 52.1768 68.8921C52.1768 69.1021 52.2459 69.2597 52.3382 69.3385L112.191 108.648C112.191 108.648 112.03 108.412 112.03 108.202C112.03 107.755 112.307 107.23 112.63 107.02C112.791 106.915 112.953 106.889 113.045 106.968Z" fill="#BC7400"/>
<path d="M114.362 133.805L110.624 131.363V97.7776L114.362 100.246V133.805Z" fill="#BC7400"/>
<path d="M116.762 132.23L114.362 133.805V100.246L116.762 98.6443V132.23Z" fill="#E69F00"/>
<path d="M116.762 106.758L114.362 108.334V100.246L116.762 98.6443V106.758Z" fill="#BC7400"/>
<path d="M114.362 100.246L110.624 97.7774L113.024 96.2019L116.762 98.644L114.362 100.246Z" fill="url(#paint1_linear_1397_5477)"/>
<path d="M96.6403 63.0364L92.9023 60.5681V27.009L96.6403 29.4511V63.0364Z" fill="#BC7400"/>
<path d="M99.0403 61.461L96.6406 63.0366V29.4513L99.0403 27.8757V61.461Z" fill="#E69F00"/>
<path d="M96.6403 29.451L92.9023 27.0089L95.325 25.4333L99.0399 27.8754L96.6403 29.451Z" fill="url(#paint2_linear_1397_5477)"/>
<path d="M157.024 78.6079C157.024 79.0543 157.301 79.2118 157.624 79.0017C157.947 78.7917 158.224 78.2665 158.224 77.8201C158.224 77.3737 157.947 77.2161 157.624 77.4262C157.301 77.6363 157.024 78.1615 157.024 78.6079Z" fill="#E69F00"/>
<path d="M158.063 77.4001L98.2096 38.0903C98.2096 38.0903 97.9558 38.0378 97.7943 38.1428C97.4712 38.3529 97.1943 38.8781 97.1943 39.3245C97.1943 39.5345 97.2636 39.6921 97.3559 39.7709L157.209 79.0806C157.209 79.0806 157.047 78.8443 157.047 78.6342C157.047 78.1878 157.324 77.6626 157.647 77.4526C157.809 77.3475 157.97 77.3213 158.063 77.4001Z" fill="#BC7400"/>
<path d="M159.355 104.237L155.641 101.795V68.2097L159.355 70.6518V104.237Z" fill="#BC7400"/>
<path d="M161.777 102.662L159.354 104.237V70.652L161.777 69.0764V102.662Z" fill="#E69F00"/>
<path d="M159.355 70.6517L155.641 68.2096L158.04 66.634L161.778 69.0761L159.355 70.6517Z" fill="url(#paint3_linear_1397_5477)"/>
<path d="M130.327 112.902L41.4473 54.5021V47.7273L130.327 106.127V112.902Z" fill="#928A96"/>
<path d="M134.364 110.276L130.326 112.902V106.127L134.364 103.475V110.276Z" fill="#B9B6BE"/>
<path d="M130.327 106.127L41.4473 47.7271L45.4851 45.075L134.365 103.475L130.327 106.127Z" fill="#928A96"/>
<path d="M128.065 104.63L130.327 106.127L132.588 104.63H128.065Z" fill="#D5D5DE"/>
<path d="M176.521 82.5732L87.6416 24.1732V17.3721L176.521 75.7722V82.5732Z" fill="#928A96"/>
<path d="M180.535 79.9207L176.521 82.5729V75.7718L180.535 73.1196V79.9207Z" fill="#B9B6BE"/>
<path d="M176.521 75.772L87.6416 17.3719L91.6564 14.7197L180.536 73.1198L176.521 75.772Z" fill="#D5D5DE"/>
<path d="M176.521 75.7976L87.6416 17.3975V10.5964L176.521 68.9965V75.7976Z" fill="#928A96"/>
<path d="M178.274 74.6424L176.521 75.7978V68.9967L178.274 67.8413V74.6424Z" fill="#B9B6BE"/>
<path d="M176.521 68.9969L87.6416 10.5968L89.3952 9.44141L178.275 67.8415L176.521 68.9969Z" fill="#D5D5DE"/>
<path d="M49.0617 45.4167C49.0617 46.0995 48.6464 46.3621 48.1388 46.0207C47.6311 45.6793 47.2158 44.8653 47.2158 44.1826C47.2158 43.4998 47.6311 43.2372 48.1388 43.5786C48.6464 43.92 49.0617 44.734 49.0617 45.4167Z" fill="#928A96"/>
<path d="M47.4697 43.4996L89.556 15.8488C89.7175 15.7438 89.9713 15.7438 90.2252 15.9276C90.7328 16.2689 91.1481 17.083 91.1481 17.7657C91.1481 18.1071 91.0558 18.3434 90.8712 18.4484L48.7849 46.0992C48.9465 45.9942 49.0618 45.7578 49.0618 45.4165C49.0618 44.7337 48.6465 43.9197 48.1389 43.5783C47.8851 43.3945 47.6312 43.3945 47.4697 43.4996Z" fill="url(#paint4_linear_1397_5477)"/>
<path d="M53.0773 48.0425C53.0773 48.7252 52.662 48.9878 52.1544 48.6464C51.6468 48.305 51.2314 47.491 51.2314 46.8083C51.2314 46.1256 51.6468 45.863 52.1544 46.2043C52.662 46.5457 53.0773 47.3597 53.0773 48.0425Z" fill="#928A96"/>
<path d="M51.4609 46.1255L93.5472 18.4748C93.7087 18.3697 93.9626 18.3697 94.2164 18.5536C94.724 18.8949 95.1393 19.7089 95.1393 20.3917C95.1393 20.733 95.047 20.9694 94.8624 21.0744L52.7761 48.7252C52.9376 48.6201 53.053 48.3838 53.053 48.0425C53.053 47.3597 52.6376 46.5457 52.13 46.2043C51.8762 46.0205 51.6225 46.0205 51.4609 46.1255Z" fill="url(#paint5_linear_1397_5477)"/>
<path d="M57.0676 50.6684C57.0676 51.3512 56.6523 51.6138 56.1447 51.2724C55.6371 50.931 55.2217 50.117 55.2217 49.4343C55.2217 48.7515 55.6371 48.4889 56.1447 48.8303C56.6523 49.1717 57.0676 49.9857 57.0676 50.6684Z" fill="#928A96"/>
<path d="M55.4756 48.7515L97.5619 21.1008C97.7234 20.9957 97.9772 20.9957 98.231 21.1795C98.7386 21.5209 99.1539 22.3349 99.1539 23.0177C99.1539 23.359 99.0617 23.5954 98.8771 23.7004L56.7908 51.3512C56.9523 51.2461 57.0677 51.0098 57.0677 50.6684C57.0677 49.9857 56.6524 49.1717 56.1447 48.8303C55.8909 48.6465 55.6371 48.6465 55.4756 48.7515Z" fill="url(#paint6_linear_1397_5477)"/>
<path d="M61.0822 53.2944C61.0822 53.9772 60.6669 54.2397 60.1593 53.8984C59.6516 53.557 59.2363 52.743 59.2363 52.0602C59.2363 51.3775 59.6516 51.1149 60.1593 51.4563C60.6669 51.7976 61.0822 52.6117 61.0822 53.2944Z" fill="#928A96"/>
<path d="M59.4902 51.4039L101.577 23.7531C101.738 23.6481 101.992 23.6481 102.246 23.8319C102.753 24.1732 103.169 24.9873 103.169 25.67C103.169 26.0114 103.076 26.2477 102.892 26.3527L60.8054 54.0035C60.967 53.8985 61.0823 53.6621 61.0823 53.3208C61.0823 52.638 60.667 51.824 60.1594 51.4826C59.9056 51.2988 59.6517 51.2988 59.4902 51.4039Z" fill="url(#paint7_linear_1397_5477)"/>
<path d="M65.0754 55.9204C65.0754 56.6031 64.6601 56.8657 64.1525 56.5243C63.6449 56.183 63.2295 55.369 63.2295 54.6862C63.2295 54.0035 63.6449 53.7409 64.1525 54.0823C64.6601 54.4236 65.0754 55.2377 65.0754 55.9204Z" fill="#928A96"/>
<path d="M63.4834 54.0298L105.57 26.3791C105.731 26.274 105.985 26.274 106.239 26.4579C106.746 26.7992 107.162 27.6132 107.162 28.296C107.162 28.6373 107.069 28.8737 106.885 28.9787L64.7986 56.6295C64.9601 56.5244 65.0755 56.2881 65.0755 55.9467C65.0755 55.264 64.6602 54.45 64.1526 54.1086C63.8987 53.9248 63.6449 53.9248 63.4834 54.0298Z" fill="url(#paint8_linear_1397_5477)"/>
<path d="M69.089 58.5725C69.089 59.2552 68.6737 59.5178 68.1661 59.1765C67.6585 58.8351 67.2432 58.021 67.2432 57.3383C67.2432 56.6556 67.6585 56.393 68.1661 56.7344C68.6737 57.0757 69.089 57.8897 69.089 58.5725Z" fill="#928A96"/>
<path d="M67.4971 56.6553L109.583 29.0046C109.745 28.8995 109.999 28.8995 110.252 29.0833C110.76 29.4247 111.175 30.2387 111.175 30.9215C111.175 31.2628 111.083 31.4992 110.899 31.6042L68.8123 59.255C68.9738 59.1499 69.0892 58.9136 69.0892 58.5722C69.0892 57.8895 68.6738 57.0755 68.1662 56.7341C67.9124 56.5503 67.6586 56.5503 67.4971 56.6553Z" fill="url(#paint9_linear_1397_5477)"/>
<path d="M73.1037 61.1985C73.1037 61.8812 72.6884 62.1438 72.1807 61.8024C71.6731 61.4611 71.2578 60.647 71.2578 59.9643C71.2578 59.2815 71.6731 59.019 72.1807 59.3603C72.6884 59.7017 73.1037 60.5157 73.1037 61.1985Z" fill="#928A96"/>
<path d="M71.4873 59.2813L113.574 31.6305C113.735 31.5255 113.989 31.5255 114.243 31.7093C114.75 32.0507 115.166 32.8647 115.166 33.5474C115.166 33.8888 115.073 34.1251 114.889 34.2302L72.8025 61.8809C72.964 61.7759 73.0794 61.5396 73.0794 61.1982C73.0794 60.5155 72.6641 59.7014 72.1565 59.3601C71.9026 59.1763 71.6488 59.1763 71.4873 59.2813Z" fill="url(#paint10_linear_1397_5477)"/>
<path d="M77.0959 63.8242C77.0959 64.5069 76.6806 64.7695 76.1729 64.4282C75.6653 64.0868 75.25 63.2728 75.25 62.59C75.25 61.9073 75.6653 61.6447 76.1729 61.9861C76.6806 62.3274 77.0959 63.1415 77.0959 63.8242Z" fill="#928A96"/>
<path d="M75.5039 61.9073L117.59 34.2565C117.752 34.1515 118.006 34.1515 118.259 34.3353C118.767 34.6767 119.182 35.4907 119.182 36.1734C119.182 36.5148 119.09 36.7511 118.905 36.8562L76.8191 64.5069C76.9806 64.4019 77.096 64.1655 77.096 63.8242C77.096 63.1414 76.6807 62.3274 76.1731 61.9861C75.9193 61.8022 75.6654 61.8022 75.5039 61.9073Z" fill="url(#paint11_linear_1397_5477)"/>
<path d="M81.1105 66.4499C81.1105 67.1327 80.6952 67.3953 80.1876 67.0539C79.68 66.7125 79.2646 65.8985 79.2646 65.2157C79.2646 64.533 79.68 64.2704 80.1876 64.6118C80.6952 64.9532 81.1105 65.7672 81.1105 66.4499Z" fill="#928A96"/>
<path d="M79.4941 64.5594L121.58 36.9086C121.742 36.8036 121.996 36.8036 122.25 36.9874C122.757 37.3288 123.172 38.1428 123.172 38.8255C123.172 39.1669 123.08 39.4032 122.896 39.5083L80.8094 67.159C80.9709 67.054 81.0862 66.8177 81.0862 66.4763C81.0862 65.7936 80.6709 64.9795 80.1633 64.6382C79.9095 64.4544 79.6557 64.4543 79.4941 64.5594Z" fill="url(#paint12_linear_1397_5477)"/>
<path d="M85.1027 69.0761C85.1027 69.7589 84.6874 70.0215 84.1798 69.6801C83.6721 69.3387 83.2568 68.5247 83.2568 67.842C83.2568 67.1592 83.6721 66.8967 84.1798 67.238C84.6874 67.5794 85.1027 68.3934 85.1027 69.0761Z" fill="#928A96"/>
<path d="M83.5107 67.1854L125.597 39.5346C125.759 39.4296 126.012 39.4296 126.266 39.6134C126.774 39.9547 127.189 40.7688 127.189 41.4515C127.189 41.7929 127.097 42.0292 126.912 42.1343L84.826 69.785C84.9875 69.68 85.1028 69.4436 85.1028 69.1023C85.1028 68.4195 84.6875 67.6055 84.1799 67.2641C83.9261 67.0803 83.6723 67.0803 83.5107 67.1854Z" fill="url(#paint13_linear_1397_5477)"/>
<path d="M89.1173 71.7282C89.1173 72.411 88.702 72.6736 88.1944 72.3322C87.6868 71.9908 87.2715 71.1768 87.2715 70.4941C87.2715 69.8113 87.6868 69.5488 88.1944 69.8901C88.702 70.2315 89.1173 71.0455 89.1173 71.7282Z" fill="#928A96"/>
<path d="M87.5254 69.8111L129.612 42.1603C129.773 42.0553 130.027 42.0553 130.281 42.2391C130.789 42.5805 131.204 43.3945 131.204 44.0772C131.204 44.4186 131.112 44.6549 130.927 44.76L88.8406 72.4107C89.0021 72.3057 89.1175 72.0694 89.1175 71.728C89.1175 71.0453 88.7022 70.2312 88.1945 69.8899C87.9407 69.7061 87.6869 69.706 87.5254 69.8111Z" fill="url(#paint14_linear_1397_5477)"/>
<path d="M93.1095 74.3542C93.1095 75.037 92.6942 75.2996 92.1866 74.9582C91.679 74.6168 91.2637 73.8028 91.2637 73.12C91.2637 72.4373 91.679 72.1747 92.1866 72.5161C92.6942 72.8575 93.1095 73.6715 93.1095 74.3542Z" fill="#928A96"/>
<path d="M91.5176 72.4371L133.604 44.7863C133.765 44.6813 134.019 44.6813 134.273 44.8651C134.781 45.2064 135.196 46.0205 135.196 46.7032C135.196 47.0446 135.104 47.2809 134.919 47.386L92.8328 75.0367C92.9943 74.9317 93.1097 74.6953 93.1097 74.354C93.1097 73.6712 92.6944 72.8572 92.1867 72.5159C91.9329 72.332 91.6791 72.332 91.5176 72.4371Z" fill="url(#paint15_linear_1397_5477)"/>
<path d="M97.1242 76.9802C97.1242 77.6629 96.7089 77.9255 96.2013 77.5842C95.6936 77.2428 95.2783 76.4288 95.2783 75.746C95.2783 75.0633 95.6936 74.8007 96.2013 75.1421C96.7089 75.4834 97.1242 76.2975 97.1242 76.9802Z" fill="#928A96"/>
<path d="M95.5322 75.063L137.619 47.4123C137.78 47.3072 138.034 47.3072 138.288 47.4911C138.795 47.8324 139.211 48.6465 139.211 49.3292C139.211 49.6706 139.118 49.9069 138.934 50.0119L96.8474 77.6627C97.009 77.5577 97.1243 77.3213 97.1243 76.98C97.1243 76.2972 96.709 75.4832 96.2014 75.1418C95.9476 74.958 95.6937 74.958 95.5322 75.063Z" fill="url(#paint16_linear_1397_5477)"/>
<path d="M101.14 79.6057C101.14 80.2884 100.724 80.551 100.217 80.2097C99.7093 79.8683 99.2939 79.0542 99.2939 78.3715C99.2939 77.6888 99.7093 77.4262 100.217 77.7676C100.724 78.1089 101.14 78.923 101.14 79.6057Z" fill="#928A96"/>
<path d="M99.5234 77.7149L141.61 50.0641C141.771 49.9591 142.025 49.9591 142.279 50.1429C142.786 50.4843 143.202 51.2983 143.202 51.9811C143.202 52.3224 143.11 52.5587 142.925 52.6638L100.839 80.3145C101 80.2095 101.116 79.9732 101.116 79.6318C101.116 78.9491 100.7 78.135 100.193 77.7937C99.9388 77.6099 99.685 77.6099 99.5234 77.7149Z" fill="url(#paint17_linear_1397_5477)"/>
<path d="M105.13 82.2578C105.13 82.9405 104.715 83.2031 104.207 82.8617C103.699 82.5204 103.284 81.7064 103.284 81.0236C103.284 80.3409 103.699 80.0783 104.207 80.4197C104.715 80.761 105.13 81.5751 105.13 82.2578Z" fill="#928A96"/>
<path d="M103.538 80.3406L145.624 52.6899C145.786 52.5848 146.04 52.5848 146.294 52.7686C146.801 53.11 147.217 53.9241 147.217 54.6068C147.217 54.9482 147.124 55.1845 146.94 55.2895L104.853 82.9403C105.015 82.8352 105.13 82.5989 105.13 82.2575C105.13 81.5748 104.715 80.7608 104.207 80.4194C103.953 80.2356 103.7 80.2356 103.538 80.3406Z" fill="url(#paint18_linear_1397_5477)"/>
<path d="M109.145 84.8838C109.145 85.5665 108.729 85.8291 108.222 85.4877C107.714 85.1464 107.299 84.3323 107.299 83.6496C107.299 82.9669 107.714 82.7043 108.222 83.0456C108.729 83.387 109.145 84.201 109.145 84.8838Z" fill="#928A96"/>
<path d="M107.529 82.9668L149.616 55.3161C149.777 55.2111 150.031 55.211 150.285 55.3949C150.792 55.7362 151.208 56.5503 151.208 57.233C151.208 57.5744 151.115 57.8107 150.931 57.9157L108.845 85.5665C109.006 85.4615 109.121 85.2251 109.121 84.8838C109.121 84.201 108.706 83.387 108.198 83.0456C107.945 82.8618 107.691 82.8618 107.529 82.9668Z" fill="url(#paint19_linear_1397_5477)"/>
<path d="M113.139 87.5098C113.139 88.1925 112.724 88.4551 112.216 88.1137C111.708 87.7723 111.293 86.9583 111.293 86.2756C111.293 85.5928 111.708 85.3302 112.216 85.6716C112.724 86.013 113.139 86.827 113.139 87.5098Z" fill="#928A96"/>
<path d="M111.547 85.5926L153.633 57.9418C153.795 57.8368 154.048 57.8368 154.302 58.0206C154.81 58.362 155.225 59.176 155.225 59.8587C155.225 60.2001 155.133 60.4364 154.948 60.5415L112.862 88.1922C113.024 88.0872 113.139 87.8509 113.139 87.5095C113.139 86.8268 112.724 86.0127 112.216 85.6714C111.962 85.4875 111.708 85.4875 111.547 85.5926Z" fill="url(#paint20_linear_1397_5477)"/>
<path d="M117.151 90.1355C117.151 90.8182 116.735 91.0808 116.228 90.7394C115.72 90.3981 115.305 89.584 115.305 88.9013C115.305 88.2186 115.72 87.956 116.228 88.2973C116.735 88.6387 117.151 89.4528 117.151 90.1355Z" fill="#928A96"/>
<path d="M115.534 88.2183L157.62 60.5676C157.782 60.4625 158.036 60.4625 158.29 60.6463C158.797 60.9877 159.213 61.8017 159.213 62.4845C159.213 62.8258 159.12 63.0622 158.936 63.1672L116.849 90.818C117.011 90.7129 117.126 90.4766 117.126 90.1352C117.126 89.4525 116.711 88.6385 116.203 88.2971C115.95 88.1133 115.696 88.1133 115.534 88.2183Z" fill="url(#paint21_linear_1397_5477)"/>
<path d="M121.143 92.7615C121.143 93.4442 120.727 93.7068 120.22 93.3654C119.712 93.024 119.297 92.21 119.297 91.5273C119.297 90.8446 119.712 90.582 120.22 90.9233C120.727 91.2647 121.143 92.0787 121.143 92.7615Z" fill="#928A96"/>
<path d="M119.551 90.8707L161.637 63.2199C161.799 63.1149 162.052 63.1149 162.306 63.2987C162.814 63.64 163.229 64.4541 163.229 65.1368C163.229 65.4782 163.137 65.7145 162.952 65.8195L120.866 93.4703C121.028 93.3653 121.143 93.1289 121.143 92.7876C121.143 92.1048 120.728 91.2908 120.22 90.9494C119.966 90.7656 119.712 90.7656 119.551 90.8707Z" fill="url(#paint22_linear_1397_5477)"/>
<path d="M125.157 95.414C125.157 96.0968 124.742 96.3594 124.234 96.018C123.727 95.6766 123.312 94.8626 123.312 94.1799C123.312 93.4971 123.727 93.2345 124.234 93.5759C124.742 93.9173 125.157 94.7313 125.157 95.414Z" fill="#928A96"/>
<path d="M123.565 93.4969L165.652 65.8461C165.813 65.7411 166.067 65.7411 166.321 65.9249C166.828 66.2663 167.244 67.0803 167.244 67.763C167.244 68.1044 167.152 68.3407 166.967 68.4458L124.881 96.0965C125.042 95.9915 125.158 95.7551 125.158 95.4138C125.158 94.731 124.742 93.917 124.235 93.5757C123.981 93.3918 123.727 93.3918 123.565 93.4969Z" fill="url(#paint23_linear_1397_5477)"/>
<path d="M129.149 98.0395C129.149 98.7223 128.733 98.9849 128.226 98.6435C127.718 98.3021 127.303 97.4881 127.303 96.8054C127.303 96.1226 127.718 95.86 128.226 96.2014C128.733 96.5428 129.149 97.3568 129.149 98.0395Z" fill="#928A96"/>
<path d="M127.557 96.1226L169.643 68.4719C169.804 68.3668 170.058 68.3668 170.312 68.5506C170.82 68.892 171.235 69.706 171.235 70.3887C171.235 70.7301 171.143 70.9665 170.958 71.0715L128.872 98.7222C129.033 98.6172 129.149 98.3809 129.149 98.0395C129.149 97.3568 128.733 96.5427 128.226 96.2014C127.972 96.0176 127.718 96.0176 127.557 96.1226Z" fill="url(#paint24_linear_1397_5477)"/>
<path d="M133.165 100.665C133.165 101.348 132.75 101.611 132.242 101.269C131.735 100.928 131.319 100.114 131.319 99.4313C131.319 98.7486 131.735 98.486 132.242 98.8274C132.75 99.1687 133.165 99.9828 133.165 100.665Z" fill="#928A96"/>
<path d="M131.573 98.7483L173.66 71.0976C173.821 70.9925 174.075 70.9925 174.329 71.1764C174.836 71.5177 175.252 72.3317 175.252 73.0145C175.252 73.3558 175.159 73.5922 174.975 73.6972L132.888 101.348C133.05 101.243 133.165 101.007 133.165 100.665C133.165 99.9825 132.75 99.1685 132.242 98.8271C131.989 98.6433 131.735 98.6433 131.573 98.7483Z" fill="url(#paint25_linear_1397_5477)"/>
<path d="M132.566 104.656L43.6865 46.2563V39.4814L132.566 97.8815V104.656Z" fill="#928A96"/>
<path d="M134.321 103.501L132.567 104.656V97.8815L134.321 96.7261V103.501Z" fill="#B9B6BE"/>
<path d="M132.566 97.8817L43.6865 39.4816L45.4401 38.3262L134.32 96.7263L132.566 97.8817Z" fill="#D5D5DE"/>
<path d="M50.3323 74.275L45.0254 70.7826V63.929L50.3323 67.4214V74.275Z" fill="#BC7400"/>
<path d="M53.1932 72.3846L50.332 74.2753V67.4217L53.1932 65.531V72.3846Z" fill="#BC7400"/>
<path d="M50.3323 67.4215L45.0254 63.9291L47.8865 62.0647L53.1935 65.5309L50.3323 67.4215Z" fill="#BC7400"/>
<path d="M47.5652 57.0496C47.496 56.892 47.3114 56.8395 47.1729 56.9183L46.9192 57.1021C46.5038 57.3647 46.25 57.8636 46.25 58.415V64.1658C46.25 64.4284 46.8268 64.4284 46.8268 64.1658V58.415C46.8268 58.0999 46.9653 57.8373 47.196 57.6798L47.4498 57.496C47.5882 57.4172 47.6344 57.2071 47.5652 57.0496Z" fill="#453B4C"/>
<path d="M48.8572 57.8897C48.788 57.7321 48.6034 57.6796 48.4649 57.7584L48.2111 57.9422C47.7958 58.2048 47.542 58.7037 47.542 59.2551V65.0059C47.542 65.2947 48.1188 65.3472 48.1188 65.0059V59.2551C48.1188 58.94 48.2573 58.6774 48.488 58.5199L48.7418 58.3361C48.8802 58.2573 48.9264 58.0472 48.8572 57.8897Z" fill="#453B4C"/>
<path d="M113.069 115.476L107.762 112.01V105.156L113.069 108.648V115.476Z" fill="#BC7400"/>
<path d="M115.929 113.611L113.067 115.476V108.648L115.929 106.758V113.611Z" fill="#E69F00"/>
<path d="M113.069 108.648L107.762 105.156L110.623 103.265L115.93 106.758L113.069 108.648Z" fill="#BC7400"/>
<path d="M110.301 98.2759C110.231 98.1183 110.047 98.0658 109.908 98.1446L109.655 98.3284C109.239 98.591 108.985 99.0899 108.985 99.6414V105.392C108.985 105.655 109.562 105.655 109.562 105.392V99.6414C109.562 99.3262 109.701 99.0637 109.931 98.9061L110.185 98.7223C110.324 98.6435 110.37 98.4334 110.301 98.2759Z" fill="#453B4C"/>
<path d="M111.593 99.1162C111.523 98.9587 111.339 98.9061 111.2 98.9849L110.946 99.1687C110.531 99.4313 110.277 99.9302 110.277 100.482V106.232C110.277 106.521 110.854 106.574 110.854 106.232V100.482C110.854 100.167 110.993 99.904 111.223 99.7464L111.477 99.5626C111.616 99.4838 111.662 99.2738 111.593 99.1162Z" fill="#453B4C"/>
<path d="M76.3352 49.5133L56.0996 36.2V12.2517L76.3352 25.5388V49.5133Z" fill="#B78351"/>
<path d="M94.7006 37.4343L76.334 49.5135V25.539L94.7006 13.4861V37.4343Z" fill="#E2B06D"/>
<path d="M76.3352 25.5387L56.0996 12.2516L74.4663 0.19873L94.7018 13.4858L76.3352 25.5387Z" fill="#FECA85"/>
<path d="M85.1966 19.7355L64.9609 6.42213L66.7838 5.24048L87.0424 18.5275L85.1966 19.7355Z" fill="#B6703B"/>
<path d="M87.0412 28.2699L85.1953 29.4779V19.7357L87.0412 18.5278V28.2699Z" fill="#91592F"/>
<path d="M81.7813 25.066L77.6973 27.7181V26.1951L81.7813 23.543V25.066Z" fill="#FFF2E9"/>
<path d="M57.0918 35.3593L61.1527 38.0378V33.2586L57.0918 30.6064V35.3593Z" fill="#BFB2A9"/>
<path d="M73.4736 46.1256L75.2042 47.2547V46.2043L73.4736 45.0752V46.1256Z" fill="#BFB2A9"/>
<path d="M93.5716 36.7515L92.1641 37.6706V36.1476L93.5716 35.2285V36.7515Z" fill="#FFF2E9"/>
<path d="M68.3512 22.282L68.0518 22.0723V21.7839L68.3512 21.9936V22.282Z" fill="#594839"/>
<path d="M69.1825 22.8332L68.6064 22.4662V22.1516L69.1825 22.5186V22.8332Z" fill="#594839"/>
<path d="M70.6133 23.7795L69.4365 22.9917V22.7029L70.6133 23.4644V23.7795Z" fill="#594839"/>
<path d="M72.2054 24.8298L70.8672 23.937V23.6482L72.2054 24.5147V24.8298Z" fill="#594839"/>
<path d="M72.459 24.6987V24.9876L73.8204 25.8804V25.5915L72.459 24.6987Z" fill="#594839"/>
<path d="M74.6282 26.4044L74.0752 26.0374V25.749L74.6282 26.116V26.4044Z" fill="#594839"/>
<path d="M75.1824 26.772L74.8828 26.5885V26.2739L75.1824 26.4836V26.772Z" fill="#594839"/>
<path d="M68.8351 23.4108L68.0518 22.8865V22.5981L68.8351 23.1224V23.4108Z" fill="#594839"/>
<path d="M69.6659 23.9621L69.0898 23.5951V23.2805L69.6659 23.6737V23.9621Z" fill="#594839"/>
<path d="M71.0038 24.8284L69.9209 24.1206V23.8323L71.0038 24.54V24.8284Z" fill="#594839"/>
<path d="M71.6275 25.2492L71.2588 25.0133V24.6987L71.6275 24.9609V25.2492Z" fill="#594839"/>
<path d="M71.8818 25.1187V25.4338L73.1278 26.2478V25.9589L71.8818 25.1187Z" fill="#594839"/>
<path d="M74.2343 26.9556L73.3818 26.4051V26.1167L74.2343 26.6672V26.9556Z" fill="#594839"/>
<path d="M75.1805 27.5859L74.4893 27.1402V26.8257L75.1805 27.2975V27.5859Z" fill="#594839"/>
<path d="M68.3512 23.9102L68.0518 23.7005V23.4121L68.3512 23.6218V23.9102Z" fill="#594839"/>
<path d="M69.1825 24.4614L68.6064 24.0944V23.7798L69.1825 24.1468V24.4614Z" fill="#594839"/>
<path d="M70.6133 25.4077L69.4365 24.6199V24.3311L70.6133 25.0926V25.4077Z" fill="#594839"/>
<path d="M72.2054 26.4583L70.8672 25.5655V25.2766L72.2054 26.1432V26.4583Z" fill="#594839"/>
<path d="M72.459 26.3271V26.616L73.8204 27.5088V27.22L72.459 26.3271Z" fill="#594839"/>
<path d="M74.6282 28.0326L74.0752 27.6656V27.3772L74.6282 27.7442V28.0326Z" fill="#594839"/>
<path d="M75.1824 28.4002L74.8828 28.2167V27.9021L75.1824 28.1118V28.4002Z" fill="#594839"/>
<path d="M68.8351 25.0392L68.0518 24.5149V24.2266L68.8351 24.7508V25.0392Z" fill="#594839"/>
<path d="M69.6659 25.5903L69.0898 25.2233V24.9087L69.6659 25.3019V25.5903Z" fill="#594839"/>
<path d="M71.0038 26.4566L69.9209 25.7488V25.4604L71.0038 26.1682V26.4566Z" fill="#594839"/>
<path d="M71.6275 26.8776L71.2588 26.6417V26.3271L71.6275 26.5893V26.8776Z" fill="#594839"/>
<path d="M71.8818 26.7471V27.0622L73.1278 27.8762V27.5874L71.8818 26.7471Z" fill="#594839"/>
<path d="M74.2343 28.5835L73.3818 28.033V27.7446L74.2343 28.2951V28.5835Z" fill="#594839"/>
<path d="M75.1805 29.2143L74.4893 28.7687V28.4541L75.1805 28.926V29.2143Z" fill="#594839"/>
<path d="M68.3512 40.2168L68.0518 40.0333V39.7188L68.3512 39.9285V40.2168Z" fill="#594839"/>
<path d="M69.1825 40.768L68.6064 40.401V40.0864L69.1825 40.4534V40.768Z" fill="#594839"/>
<path d="M70.0125 41.3192L69.4365 40.926V40.6377L70.0125 41.0309V41.3192Z" fill="#594839"/>
<path d="M72.2058 42.765L70.2676 41.4783V41.1895L72.2058 42.4761V42.765Z" fill="#594839"/>
<path d="M72.459 42.6333V42.9222L73.8204 43.815V43.5261L72.459 42.6333Z" fill="#594839"/>
<path d="M74.6282 44.3657L74.0752 43.9987V43.6841L74.6282 44.0511V44.3657Z" fill="#594839"/>
<path d="M75.1824 44.7329L74.8828 44.5232V44.2349L75.1824 44.4184V44.7329Z" fill="#594839"/>
<path d="M68.8351 41.3453L68.0518 40.8473V40.5327L68.8351 41.057V41.3453Z" fill="#594839"/>
<path d="M69.6659 41.8967L69.0898 41.5297V41.2151L69.6659 41.6083V41.8967Z" fill="#594839"/>
<path d="M70.8656 42.6844L69.9209 42.0552V41.7668L70.8656 42.396V42.6844Z" fill="#594839"/>
<path d="M71.627 43.21L71.1201 42.8693V42.5547L71.627 42.8955V43.21Z" fill="#594839"/>
<path d="M71.8818 43.0535V43.3686L73.1278 44.1826V43.8938L71.8818 43.0535Z" fill="#594839"/>
<path d="M74.2343 44.8909L73.3818 44.3404V44.052L74.2343 44.6025V44.8909Z" fill="#594839"/>
<path d="M75.1805 45.5469L74.4893 45.0751V44.7605L75.1805 45.2324V45.5469Z" fill="#594839"/>
<path d="M57.4602 15.1395L57.1377 14.9298V14.6152L57.4602 14.825V15.1395Z" fill="#594839"/>
<path d="M58.2668 15.6645L57.7139 15.2975V14.9829L58.2668 15.3761V15.6645Z" fill="#594839"/>
<path d="M59.7223 16.6108L58.5225 15.8493V15.5342L59.7223 16.322V16.6108Z" fill="#594839"/>
<path d="M61.3128 17.6612L59.9746 16.7683V16.4795L61.3128 17.3723V17.6612Z" fill="#594839"/>
<path d="M57.9441 16.2683L57.1377 15.744V15.4294L57.9441 15.9537V16.2683Z" fill="#594839"/>
<path d="M58.7752 16.7938L58.1992 16.4268V16.1384L58.7752 16.5054V16.7938Z" fill="#594839"/>
<path d="M60.0898 17.6857L59.0068 16.9779V16.6633L60.0898 17.3711V17.6857Z" fill="#594839"/>
<path d="M57.4602 16.7679L57.1377 16.5582V16.2437L57.4602 16.4534V16.7679Z" fill="#594839"/>
<path d="M58.2668 17.2926L57.7139 16.9256V16.6372L58.2668 17.0042V17.2926Z" fill="#594839"/>
<path d="M59.7223 18.2392L58.5225 17.4777V17.1626L59.7223 17.9504V18.2392Z" fill="#594839"/>
<path d="M61.3832 19.3681C61.2216 19.5782 60.8755 19.4469 60.5987 19.0792C60.3218 18.7116 60.2295 18.239 60.391 18.0551C60.5525 17.8713 60.8986 17.9764 61.1755 18.344C61.4524 18.7116 61.5447 19.1843 61.3832 19.3681Z" fill="#594839"/>
<path d="M134.621 55.7103L126.038 50.0646L134.621 44.4189L143.205 50.0646L134.621 55.7103Z" fill="#FECA85"/>
<path d="M134.621 66.0304L126.038 60.3847V50.0649L134.621 55.7106V66.0304Z" fill="#B78351"/>
<path d="M143.205 60.3847L134.622 66.0304V55.7106L143.205 50.0649V60.3847Z" fill="#E2B06D"/>
<path d="M138.245 53.3209L129.661 47.6752L131.415 46.5198L139.998 52.1655L138.245 53.3209Z" fill="#B6703B"/>
<path d="M139.999 56.446L138.245 57.6014V53.3212L139.999 52.1658V56.446Z" fill="#91592F"/>
<path d="M99.5955 57.706L91.0352 52.0866L99.5955 46.4409L108.179 52.0866L99.5955 57.706Z" fill="#FECA85"/>
<path d="M99.5955 68.0524L91.0352 62.4067V52.0869L99.5955 57.7064V68.0524Z" fill="#B78351"/>
<path d="M108.18 62.4067L99.5967 68.0524V57.7064L108.18 52.0869V62.4067Z" fill="#E2B06D"/>
<path d="M103.242 55.3428L94.6582 49.6972L96.3887 48.5417L104.972 54.1874L103.242 55.3428Z" fill="#B6703B"/>
<path d="M104.973 58.468L103.242 59.5971V55.3431L104.973 54.1877V58.468Z" fill="#91592F"/>
<path d="M162.929 83.807L164.014 83.098L162.191 79.2117L161.106 79.9207L162.929 83.807Z" fill="#514E4D"/>
<path d="M163.991 84.9625L165.076 84.2535V83.8071L163.991 84.5161V84.9625Z" fill="#433A4E"/>
<path d="M161.106 79.9209L162.191 79.2119V75.168L161.106 75.877V79.9209Z" fill="#433A4E"/>
<path d="M161.106 75.8772L162.191 75.1682L164.129 73.8552L163.045 74.5642L161.106 75.8772Z" fill="#2D2B2A"/>
<path d="M164.752 74.1176L162.999 72.9622L160.322 74.9316V79.5269L162.653 84.096L163.991 84.9625V84.5161L162.93 83.8071L161.107 79.9208V75.8769L163.045 74.564L164.752 74.3539V74.1176Z" fill="#2D2B2A"/>
<path d="M176.15 77.9778V85.7767L163.921 93.8645V86.0656L176.15 77.9778Z" fill="#E2B06D"/>
<path d="M163.921 86.0653V93.8643L154.807 87.8772V80.052L163.921 86.0653Z" fill="#B78351"/>
<path d="M176.15 77.9777L163.921 86.0655L154.807 80.0521L167.013 71.9644L176.15 77.9777Z" fill="#FECA85"/>
<path d="M170.797 74.4329L158.521 82.5206V89.2955L159.583 89.9782V83.2034L171.858 75.1419L170.797 74.4329Z" fill="#B6703B"/>
<path d="M158.521 82.5205V89.2953L159.583 89.9781V83.2032L158.521 82.5205Z" fill="#91592F"/>
<path d="M168.883 91.4223L169.967 90.7134L172.275 89.1641L171.19 89.8731L168.883 91.4223Z" fill="#2D2B2A"/>
<path d="M171.191 89.8731L172.276 89.164V81.3389L171.191 82.0479V89.8731Z" fill="#433A4E"/>
<path d="M168.537 76.5861L166.761 75.4307L167.845 74.7217L169.622 75.8771L168.537 76.5861Z" fill="#433A4E"/>
<path d="M171.191 82.0478L172.275 81.3388L169.622 75.877L168.537 76.5859L171.191 82.0478Z" fill="#514E4D"/>
<path d="M171.191 82.0477L168.537 76.5858L166.761 75.4304V75.6667L168.468 78.1088L170.406 81.9689V89.2689L168.584 90.7657L168.237 91.002L168.883 91.4222L171.191 89.8729V82.0477Z" fill="#2D2B2A"/>
<path d="M170.175 74.4333C170.175 75.1685 169.76 75.8775 168.929 76.429C167.268 77.5318 164.568 77.5318 162.907 76.429C162.076 75.8775 161.661 75.1948 161.661 74.4858V71.8599L170.175 71.8074V74.4333Z" fill="url(#paint26_linear_1397_5477)"/>
<path d="M162.907 73.8028C161.246 72.6999 161.246 70.9405 162.907 69.8377C164.568 68.7348 167.268 68.7348 168.929 69.8377C170.591 70.9405 170.591 72.6999 168.929 73.8028C167.268 74.9057 164.568 74.9057 162.907 73.8028Z" fill="#433A4E"/>
<path d="M161.2 71.781L163.115 60.8047H168.676L170.637 71.7547C170.799 72.6475 170.361 73.5929 169.322 74.3018C167.499 75.536 164.477 75.5885 162.608 74.3806C161.5 73.6716 161.039 72.7 161.2 71.781Z" fill="url(#paint27_linear_1397_5477)"/>
<path d="M163.946 62.3277C165.053 63.0367 166.83 63.0104 167.915 62.2752C168.999 61.5399 168.976 60.3583 167.868 59.6493C166.761 58.9403 164.984 58.9665 163.9 59.7018C162.815 60.437 162.838 61.6187 163.946 62.3277Z" fill="#E69F00"/>
<path d="M217.961 149.298C210.254 154.366 197.794 154.366 190.088 149.298C182.381 144.23 182.381 136.037 190.088 130.995C197.794 125.927 210.254 125.927 217.961 130.995C225.667 136.063 225.667 144.256 217.961 149.298Z" fill="#FDF8F2"/>
<path d="M217.961 130.995C210.254 125.927 197.794 125.927 190.088 130.995C184.596 134.619 183.05 139.818 185.404 144.361C186.235 145.306 187.273 146.225 188.519 147.039C196.225 152.107 208.685 152.107 216.392 147.039C221.883 143.416 223.429 138.216 221.076 133.673C220.222 132.728 219.207 131.809 217.961 130.995Z" fill="#C2B2B2"/>
<path d="M223.728 140.028V141.131C223.774 144.492 221.859 147.853 217.96 150.4C210.253 155.468 197.793 155.468 190.087 150.4C186.28 147.906 184.365 144.65 184.318 141.367V140.264C184.365 143.547 186.28 146.803 190.087 149.298C197.793 154.366 210.253 154.366 217.96 149.298C221.859 146.75 223.774 143.363 223.728 140.028Z" fill="url(#paint28_linear_1397_5477)"/>
<path d="M216.76 118.102C209.723 122.723 198.324 122.723 191.287 118.102C184.249 113.48 184.249 105.996 191.287 101.375C198.324 96.7533 209.723 96.7533 216.76 101.375C223.798 105.996 223.798 113.48 216.76 118.102Z" fill="#FDF8F2"/>
<path d="M216.762 101.375C209.724 96.7533 198.326 96.7533 191.288 101.375C185.774 104.999 184.597 110.382 187.735 114.767C188.266 115.24 188.819 115.686 189.465 116.106C196.503 120.728 207.901 120.728 214.939 116.106C220.453 112.482 221.63 107.099 218.492 102.714C217.961 102.241 217.408 101.795 216.762 101.375Z" fill="#C2B2B2"/>
<path d="M222.045 109.621V138.532C222.091 141.604 220.337 144.676 216.761 147.013C209.724 151.635 198.325 151.635 191.288 147.013C187.804 144.729 186.05 141.735 186.004 138.768V109.857C186.05 112.85 187.804 115.844 191.288 118.102C198.325 122.724 209.724 122.724 216.761 118.102C220.314 115.765 222.068 112.693 222.045 109.621Z" fill="url(#paint29_linear_1397_5477)"/>
<path d="M194.842 139.555C195.004 139.66 195.142 139.66 195.211 139.555C195.28 139.477 195.28 139.293 195.211 139.109L192.973 133.621C192.904 133.437 192.765 133.253 192.604 133.148C192.442 133.043 192.304 133.043 192.235 133.148L189.997 135.695C189.997 135.695 189.927 135.958 189.997 136.142C190.066 136.325 190.204 136.509 190.366 136.614L194.842 139.555Z" fill="#433A4E"/>
<path d="M194.887 139.03L192.649 133.542C192.649 133.542 192.487 133.358 192.441 133.411L190.203 135.958C190.203 135.958 190.203 136.168 190.319 136.22L194.795 139.161C194.795 139.161 194.956 139.161 194.91 139.03H194.887Z" fill="#BC7400"/>
<path d="M192.373 136.326C192.373 136.326 192.28 136.221 192.28 136.168L192.165 134.54C192.119 134.015 192.926 134.488 192.88 135.013L192.765 136.483C192.765 136.483 192.719 136.536 192.673 136.51L192.419 136.326H192.373ZM192.211 136.851C192.211 137.035 192.35 137.245 192.511 137.35C192.673 137.455 192.811 137.402 192.811 137.245C192.811 137.087 192.673 136.851 192.511 136.746C192.35 136.641 192.211 136.693 192.211 136.851Z" fill="#433A4E"/>
<path d="M187.229 105.944V108.439C187.275 111.222 188.913 114.005 192.143 116.132C198.696 120.439 209.333 120.439 215.909 116.132C219.232 113.953 220.87 111.091 220.824 108.229V105.734L187.229 105.944Z" fill="url(#paint30_linear_1397_5477)"/>
<path d="M215.909 113.664C209.356 117.971 198.719 117.971 192.143 113.664C185.59 109.358 185.59 102.373 192.143 98.0663C198.696 93.7598 209.333 93.7598 215.909 98.0663C222.462 102.373 222.462 109.358 215.909 113.664Z" fill="#FFCB27"/>
<path d="M211.479 113.454C211.133 112.115 210.994 110.749 210.694 109.41C210.694 109.41 210.602 109.069 210.556 108.885C210.487 108.727 210.371 108.439 210.348 108.386C210.256 108.176 209.91 107.913 209.748 107.756C209.494 107.572 209.264 107.336 209.01 107.152C208.618 106.863 208.941 107.047 208.641 106.942C208.387 106.863 208.595 106.889 208.156 106.863C207.81 106.863 207.487 106.863 207.141 106.863C204.049 106.968 200.842 106.417 197.819 105.786C196.227 105.445 194.681 104.841 193.204 104.08C192.397 103.659 191.774 103.082 191.059 102.478C191.012 102.451 190.92 102.373 190.851 102.32C190.689 102.215 190.043 101.9 190.436 102.031C189.836 101.848 189.328 101.454 188.936 100.981C185.89 105.104 186.951 110.198 192.166 113.612C194.843 115.371 198.211 116.395 201.672 116.71C204.441 116.946 205.18 114.872 205.18 114.872C205.18 114.872 210.487 115.135 211.179 114.872C210.994 114.189 211.663 114.11 211.479 113.428V113.454Z" fill="#D38200"/>
<path d="M199.504 69.6016C197.842 68.5249 196.343 68.4199 195.281 69.1551L190.136 72.5426L198.581 89.007L203.726 85.6196C204.764 84.9106 205.434 83.4138 205.434 81.2868C205.434 76.9803 202.78 71.7548 199.504 69.6016Z" fill="url(#paint31_linear_1397_5477)"/>
<path opacity="0.9" d="M202.272 72.3328L197.127 75.7202C198.073 77.0069 198.858 78.5036 199.411 80.0792L204.557 76.6918C204.003 75.1425 203.218 73.6195 202.272 72.3328Z" fill="url(#paint32_linear_1397_5477)"/>
<path d="M200.265 84.6482C200.265 88.9547 197.612 90.6878 194.335 88.5345C191.059 86.3813 188.405 81.1557 188.405 76.8493C188.405 72.5428 191.059 70.8097 194.335 72.9629C197.612 75.1162 200.265 80.3417 200.265 84.6482Z" fill="#BC7400"/>
<path d="M197.151 82.5998C197.151 84.6218 195.905 85.462 194.359 84.4379C192.813 83.4138 191.567 80.9455 191.567 78.9236C191.567 76.9016 192.813 76.0613 194.359 77.0854C195.905 78.1095 197.151 80.5779 197.151 82.5998Z" fill="#433A4E"/>
<path d="M199.042 76.6915C198.603 75.93 198.142 75.2473 197.657 74.617C196.734 73.4354 195.742 72.4901 194.75 71.8336C193.019 70.7044 191.312 70.4418 190.02 71.3084L182.913 76.0088C184.205 75.1422 185.913 75.4048 187.643 76.534C188.635 77.1904 189.628 78.1358 190.55 79.3174C191.035 79.9476 191.496 80.6304 191.935 81.3919L211.178 114.925L218.285 110.224L199.042 76.6915Z" fill="#FFCB27"/>
<path d="M187.667 76.5076C189.189 77.5054 190.712 79.186 191.958 81.3655L211.202 114.898L190.182 101.086L183.352 89.0331C180.56 84.0964 180.214 78.372 182.59 76.245C183.906 75.0633 185.798 75.2471 187.69 76.5076H187.667Z" fill="#D38200"/>
<path opacity="0.9" d="M190.574 79.2914L197.681 74.5911C198.165 75.2213 198.627 75.904 199.065 76.6655L191.959 81.3659C191.52 80.6044 191.059 79.9217 190.574 79.2914Z" fill="url(#paint33_linear_1397_5477)"/>
<path d="M188.982 97.9089C187.852 98.5916 185.706 100.85 185.567 104.447C185.567 107.073 186.883 108.019 187.298 108.334L192.72 97.8038C191.936 97.3049 190.644 96.911 188.982 97.9351V97.9089Z" fill="#D38200"/>
<path d="M192.72 97.7773C192.051 97.3309 191.104 97.3834 190.089 98.0399C187.99 99.3791 186.259 102.688 186.213 105.471C186.213 106.889 186.628 107.887 187.32 108.333L200.196 116.894L205.618 106.364L192.743 97.8036L192.72 97.7773Z" fill="#D38200"/>
<path d="M192.719 97.7773C192.05 97.3309 191.104 97.3834 190.089 98.0399C188.866 98.8277 187.759 100.272 187.066 101.9L199.988 110.382L205.618 106.338L192.742 97.7773H192.719Z" fill="#D38200"/>
<path d="M199.434 104.158C198.211 104.946 197.103 106.391 196.411 108.019L199.964 110.356L205.594 106.312L201.741 103.738C201.095 103.476 200.311 103.581 199.434 104.132V104.158Z" fill="url(#paint34_linear_1397_5477)"/>
<path d="M205.595 106.338C204.926 105.892 203.98 105.944 202.964 106.601C200.865 107.94 199.134 111.249 199.088 114.032C199.088 115.45 199.503 116.448 200.195 116.894C200.98 117.393 202.272 117.787 203.933 116.763C206.979 114.899 209.033 108.806 205.618 106.338H205.595Z" fill="url(#paint35_radial_1397_5477)"/>
<path d="M204.463 109.673C203.217 110.461 202.202 112.404 202.179 114.058C202.156 115.713 203.148 116.395 204.394 115.608C205.64 114.82 206.655 112.877 206.678 111.222C206.678 109.594 205.709 108.885 204.463 109.673Z" fill="#E69F00"/>
<path d="M163.578 60.0167C162.286 59.1764 162.286 57.7847 163.578 56.9444C164.871 56.1041 166.97 56.1041 168.262 56.9444C169.555 57.7847 169.555 59.1764 168.262 60.0167C166.97 60.857 164.871 60.857 163.578 60.0167Z" fill="#FFCB27"/>
<path d="M169.231 58.467V62.012C169.231 62.5635 168.909 63.1412 168.262 63.5613C166.97 64.4016 164.871 64.4016 163.578 63.5613C162.932 63.1412 162.609 62.5897 162.609 62.0383V58.4933C162.609 59.0447 162.932 59.5962 163.578 60.0163C164.871 60.8566 166.97 60.8566 168.262 60.0163C168.909 59.5962 169.231 59.0185 169.231 58.467Z" fill="url(#paint36_linear_1397_5477)"/>
<path d="M170.153 55.2114L166.715 52.9532C166.253 52.6643 165.861 52.6381 165.561 52.8219L163.808 53.9773C164.108 53.7935 164.523 53.8197 164.961 54.1086L169.322 56.9708L170.13 55.2114H170.153Z" fill="#FFCB27"/>
<path d="M164.985 54.1089C164.085 53.5312 163.347 54.0038 163.347 55.1592C163.347 56.3409 164.062 57.7589 164.962 58.3628L169.346 61.2251V56.9448L164.985 54.0826V54.1089Z" fill="#D38200"/>
<path d="M166.462 55.5002C166.3 55.1063 166.093 54.7387 165.862 54.4236C165.654 54.161 165.423 53.9247 165.17 53.7671C164.731 53.4783 164.339 53.452 164.062 53.6358L163.047 54.3186C163.324 54.1348 163.716 54.161 164.154 54.4499C164.408 54.6074 164.639 54.8437 164.847 55.1063C165.1 55.4214 165.285 55.7891 165.447 56.183C165.608 56.6294 165.723 57.0758 165.723 57.5222V60.6733L166.739 59.9905V56.8394C166.739 56.4193 166.623 55.9466 166.462 55.5002Z" fill="#FFCB27"/>
<path d="M164.177 54.45C163.323 53.8986 162.631 54.345 162.631 55.4741V59.5443C162.631 62.0914 164.038 61.0673 165.746 60.6734V57.5223C165.746 56.3932 165.054 55.0277 164.177 54.45Z" fill="#D38200"/>
<path opacity="0.9" d="M164.847 55.1063L165.862 54.4236C166.116 54.7387 166.323 55.1063 166.462 55.5002L165.447 56.1829C165.285 55.789 165.077 55.4214 164.847 55.1063Z" fill="url(#paint37_linear_1397_5477)"/>
<path d="M165.054 57.1807C165.054 57.8635 164.616 58.1523 164.108 57.8109C163.577 57.4696 163.162 56.6293 163.162 55.9203C163.162 55.2113 163.6 54.9487 164.108 55.2901C164.616 55.6314 165.054 56.4717 165.054 57.1807Z" fill="#433A4E"/>
<path d="M169.578 54.8176C169.232 54.5813 168.771 54.6076 168.263 54.9489C167.248 55.6054 166.417 57.2335 166.417 58.5727C166.417 59.2291 166.625 59.7018 166.948 59.9119L172.993 63.877L175.623 58.7565L169.578 54.7914V54.8176Z" fill="#FFCB27"/>
<path d="M172.186 62.3799L166.44 58.5986C166.44 59.2551 166.648 59.7278 166.971 59.9378L169.025 61.277L172.255 63.3778L172.209 62.3537L172.186 62.3799Z" fill="#D38200"/>
<path d="M187.113 46.3885L181.875 42.9486C181.183 42.5022 180.56 42.4496 180.098 42.7648L177.422 44.5241C177.883 44.2353 178.506 44.2615 179.199 44.7079L185.867 49.0932L187.113 46.3885Z" fill="#FFCB27"/>
<path d="M179.199 44.7078C177.838 43.815 176.707 44.524 176.707 46.3359C176.707 48.1215 177.815 50.3272 179.199 51.22L185.89 55.6053V49.093L179.222 44.7078H179.199Z" fill="#D38200"/>
<path d="M184.667 53.688C184.667 55.7362 185.936 56.5503 187.482 55.5524C189.028 54.5283 190.297 52.0337 190.297 49.9855C190.297 47.9373 189.028 47.1233 187.482 48.1211C185.936 49.1452 184.667 51.6398 184.667 53.688Z" fill="#E69F00"/>
<path d="M189.49 47.9375L186.237 45.8105C185.729 45.4691 185.014 45.4954 184.229 46.0206C182.683 47.0447 181.414 49.5393 181.414 51.5875C181.414 52.5853 181.714 53.3206 182.222 53.6619L185.475 55.7889C184.967 55.4475 184.667 54.7386 184.667 53.7144C184.667 51.6662 185.937 49.1716 187.482 48.1475C188.267 47.6223 188.982 47.5961 189.49 47.9375Z" fill="#FFCB27"/>
<path d="M184.667 53.6883L181.414 51.5613C181.414 52.5591 181.714 53.2944 182.222 53.6357L185.475 55.7627C184.967 55.4214 184.667 54.7124 184.667 53.6883Z" fill="#D38200"/>
<path d="M187.783 56.3404C187.783 58.73 189.26 59.7016 191.083 58.5199C192.906 57.312 194.382 54.3972 194.382 52.0076C194.382 49.6181 192.906 48.6465 191.083 49.8282C189.26 51.0098 187.783 53.9508 187.783 56.3404Z" fill="#E69F00"/>
<path d="M193.459 49.5657L189.652 47.0711C189.052 46.651 188.221 46.7035 187.299 47.3075C185.476 48.5154 183.999 51.4301 183.999 53.8197C183.999 55.0014 184.368 55.8417 184.945 56.2355L188.752 58.7302C188.175 58.3363 187.806 57.496 187.806 56.3143C187.806 53.9247 189.283 51.01 191.106 49.8021C192.029 49.1981 192.859 49.1456 193.459 49.5657Z" fill="#FFCB27"/>
<path d="M187.783 56.3408L183.976 53.8462C183.976 55.0278 184.345 55.8681 184.922 56.262L188.729 58.7566C188.152 58.3627 187.783 57.5224 187.783 56.3408Z" fill="#D38200"/>
<path d="M208.572 60.6471C208.249 59.833 207.834 59.0715 207.326 58.4151C206.888 57.8636 206.426 57.391 205.919 57.0496L190.067 47.3337L189.375 51.6402L202.412 59.3604C202.919 59.7017 203.404 60.1744 203.819 60.7258C204.327 61.3823 204.765 62.1438 205.065 62.9579C205.411 63.8769 205.619 64.8223 205.619 65.7151C205.619 66.8705 205.25 67.6845 204.673 68.0784L208.18 65.7676C208.757 65.3737 209.126 64.5597 209.126 63.4043C209.126 62.5115 208.918 61.5661 208.572 60.6471Z" fill="#FFCB27"/>
<path opacity="0.9" d="M207.326 58.4148L203.818 60.7256C204.326 61.3821 204.764 62.1436 205.064 62.9576L208.572 60.6468C208.248 59.8328 207.833 59.0713 207.326 58.4148Z" fill="url(#paint38_linear_1397_5477)"/>
<path d="M202.412 59.3603L189.375 51.6401V58.9927L202.412 67.842C204.211 69.0236 205.665 68.0783 205.665 65.7412C205.665 63.4042 204.234 60.5682 202.435 59.3866L202.412 59.3603Z" fill="#D38200"/>
<path d="M173.985 64.1132C173.985 65.715 174.978 66.3715 176.2 65.5838C177.423 64.7697 178.416 62.8265 178.416 61.1985C178.416 59.5704 177.423 58.9402 176.2 59.728C174.978 60.542 173.985 62.4852 173.985 64.1132Z" fill="#E69F00"/>
<path d="M177.792 59.5706L175.231 57.89C174.839 57.6274 174.262 57.6537 173.639 58.0476C172.416 58.8616 171.424 60.8048 171.424 62.4328C171.424 63.2206 171.678 63.7983 172.07 64.0609L174.631 65.7415C174.239 65.4789 173.985 64.9012 173.985 64.1134C173.985 62.5116 174.977 60.5422 176.2 59.7282C176.823 59.308 177.377 59.2818 177.792 59.5706Z" fill="#FFCB27"/>
<path d="M173.985 64.1132L171.424 62.4326C171.424 63.2204 171.678 63.7981 172.07 64.0607L174.631 65.7413C174.239 65.4787 173.985 64.901 173.985 64.1132Z" fill="#D38200"/>
<path d="M175.254 57.9163V60.6735L178.069 62.5379L180.169 61.1461L175.254 57.9163Z" fill="#FFCB27"/>
<path d="M181.784 63.3257C181.6 62.8268 181.323 62.3541 181.023 61.9603C180.769 61.6189 180.469 61.3301 180.169 61.1462L178.069 62.538C178.369 62.748 178.669 63.0106 178.923 63.352C179.223 63.7459 179.5 64.2185 179.684 64.7175C179.892 65.2689 180.031 65.8466 180.031 66.398C180.031 67.107 179.8 67.606 179.454 67.816L181.553 66.4243C181.9 66.188 182.13 65.6891 182.13 65.0063C182.13 64.4811 182.015 63.8772 181.784 63.3257Z" fill="url(#paint39_linear_1397_5477)"/>
<path d="M178.069 62.5377L175.254 60.6733V65.7938L178.069 67.632C179.153 68.341 180.03 67.7633 180.03 66.3453C180.03 64.9273 179.153 63.1942 178.069 62.4852V62.5377Z" fill="#D38200"/>
<path d="M180.374 47.3338C180.19 46.8612 179.959 46.4148 179.659 46.0472C179.405 45.732 179.128 45.4694 178.851 45.2594C178.344 44.918 177.882 44.8918 177.536 45.1018L175.552 46.4148C175.898 46.2047 176.359 46.231 176.867 46.5723C177.167 46.7561 177.444 47.045 177.674 47.3601C177.974 47.7277 178.205 48.1741 178.39 48.6468C178.597 49.172 178.713 49.7234 178.713 50.2223V68.1047C178.69 68.7612 178.482 69.2339 178.136 69.4702L180.12 68.1573C180.443 67.9472 180.651 67.4745 180.651 66.7918V48.9094C180.674 48.4105 180.559 47.859 180.351 47.3338H180.374Z" fill="#FFCB27"/>
<path d="M176.844 46.5987C177.883 47.2814 178.69 48.9095 178.69 50.2487V68.1311C178.667 69.4703 177.836 70.0217 176.798 69.339C175.783 68.6563 174.952 67.0282 174.952 65.689V47.8066C174.975 46.4674 175.806 45.9159 176.844 46.5987Z" fill="#D38200"/>
<path opacity="0.9" d="M177.674 47.3601L179.658 46.0471C179.958 46.4147 180.189 46.8611 180.373 47.3338L178.389 48.6468C178.205 48.1741 177.974 47.7277 177.674 47.3601Z" fill="url(#paint40_linear_1397_5477)"/>
<path d="M177.907 49.8285C177.907 50.6425 177.399 50.9839 176.776 50.5637C176.153 50.1436 175.646 49.1457 175.646 48.3317C175.646 47.5177 176.153 47.1763 176.776 47.5965C177.399 48.0166 177.907 49.0145 177.907 49.8285Z" fill="#433A4E"/>
<path d="M177.907 67.5008C177.907 68.3149 177.399 68.6562 176.776 68.2361C176.153 67.8159 175.646 66.8181 175.646 66.0041C175.646 65.19 176.153 64.8487 176.776 65.2688C177.399 65.689 177.907 66.6868 177.907 67.5008Z" fill="#433A4E"/>
<path d="M187.598 97.5674L192.075 94.6001C192.075 94.6001 191.89 94.7577 191.798 94.8102L187.321 97.7774C187.321 97.7774 187.506 97.6461 187.598 97.5674Z" fill="#BC7400"/>
<path d="M187.227 77.4527C185.566 76.3498 183.881 76.1135 182.635 76.9276L178.159 79.8948L185.889 84.5952L190.365 80.5776C189.511 79.3959 188.358 78.2142 187.227 77.4527Z" fill="url(#paint41_linear_1397_5477)"/>
<path d="M201.626 69.4438C201.626 69.4438 199.342 89.4007 187.598 97.541L192.074 94.5737C203.818 86.4072 206.126 66.4766 206.103 66.4766L201.626 69.4438Z" fill="#E69F00"/>
<path d="M205.479 62.5115C205.318 62.0913 205.11 61.6712 204.903 61.2773C204.833 61.1722 204.787 61.0672 204.718 60.9622C204.556 60.6733 204.372 60.3845 204.164 60.1219C204.118 60.0694 204.072 59.9906 204.026 59.9118C202.826 58.4151 201.049 57.1021 199.665 58.0212L195.188 60.9884L201.603 69.4701L206.079 66.5028C206.264 65.1899 205.941 63.7194 205.479 62.5115Z" fill="url(#paint42_linear_1397_5477)"/>
<path d="M198.626 61.8551C200.633 63.6933 201.948 67.0544 201.625 69.4703C201.625 69.4703 199.341 89.4271 187.597 97.5674C186.304 98.644 184.505 98.4602 182.705 97.2786C181.205 96.2807 179.682 94.6002 178.482 92.4207C175.806 87.589 175.552 82.0746 177.906 80.1314C179.175 79.0548 180.974 79.2649 182.774 80.4465C183.859 81.1555 184.92 82.2059 185.912 83.5714C190.042 80.893 193.896 76.4289 195.603 68.6562C194.496 66.8181 193.919 64.5861 194.196 62.853C194.565 60.726 196.157 60.122 197.91 61.2774C198.164 61.435 198.395 61.6188 198.649 61.8551H198.626Z" fill="#D38200"/>
<path opacity="0.9" d="M204.024 59.9119L199.548 62.8791C200.148 63.6406 200.632 64.5597 201.002 65.4788L205.478 62.5115C205.109 61.5924 204.624 60.6734 204.024 59.9119Z" fill="url(#paint43_linear_1397_5477)"/>
<path d="M197.472 62.1439C196.526 61.5137 195.649 61.4612 195.026 61.8814L192.05 63.8245L196.941 73.3566L199.918 71.4134C200.518 70.9932 200.91 70.1267 200.91 68.8925C200.91 66.3979 199.387 63.3781 197.472 62.1439Z" fill="url(#paint44_linear_1397_5477)"/>
<path opacity="0.9" d="M199.063 63.7195L196.087 65.6889C196.641 66.4242 197.079 67.317 197.402 68.2098L200.379 66.2404C200.056 65.3476 199.594 64.4547 199.063 63.7195Z" fill="url(#paint45_linear_1397_5477)"/>
<path d="M197.91 70.862C197.91 73.3566 196.387 74.3545 194.472 73.1203C192.557 71.8861 191.034 68.8401 191.034 66.3717C191.034 63.9034 192.557 62.8793 194.472 64.1134C196.364 65.3476 197.91 68.3937 197.91 70.862Z" fill="#D38200"/>
<path d="M196.11 69.6542C196.11 70.8358 195.395 71.3085 194.495 70.7045C193.595 70.1268 192.88 68.6826 192.88 67.5272C192.88 66.3718 193.595 65.8729 194.495 66.4768C195.395 67.0545 196.11 68.4988 196.11 69.6542Z" fill="#433A4E"/>
<path d="M186.627 90.9762C186.627 94.206 184.643 95.519 182.174 93.9172C179.705 92.2891 177.721 88.3765 177.721 85.1204C177.721 81.8643 179.705 80.5776 182.174 82.1794C184.643 83.8075 186.627 87.7201 186.627 90.9762Z" fill="#433A4E"/>
<path d="M184.274 89.4268C184.274 90.9498 183.328 91.5801 182.174 90.8185C181.02 90.057 180.074 88.1927 180.074 86.6696C180.074 85.1466 181.02 84.5164 182.174 85.2779C183.328 86.0394 184.274 87.9038 184.274 89.4268Z" fill="#BC7400"/>
<defs>
<linearGradient id="paint0_linear_1397_5477" x1="50.032" y1="55.1588" x2="52.2874" y2="58.6086" gradientUnits="userSpaceOnUse">
<stop stop-color="#D5D5DE"/>
<stop offset="1" stop-color="#B9B6BE"/>
</linearGradient>
<linearGradient id="paint1_linear_1397_5477" x1="112.77" y1="96.3857" x2="115.024" y2="99.8086" gradientUnits="userSpaceOnUse">
<stop stop-color="#D5D5DE"/>
<stop offset="1" stop-color="#B9B6BE"/>
</linearGradient>
<linearGradient id="paint2_linear_1397_5477" x1="95.0482" y1="25.5909" x2="97.302" y2="29.0138" gradientUnits="userSpaceOnUse">
<stop stop-color="#D5D5DE"/>
<stop offset="1" stop-color="#B9B6BE"/>
</linearGradient>
<linearGradient id="paint3_linear_1397_5477" x1="157.763" y1="66.8178" x2="160.017" y2="70.2407" gradientUnits="userSpaceOnUse">
<stop stop-color="#D5D5DE"/>
<stop offset="1" stop-color="#B9B6BE"/>
</linearGradient>
<linearGradient id="paint4_linear_1397_5477" x1="68.8359" y1="29.451" x2="70.4476" y2="31.8683" gradientUnits="userSpaceOnUse">
<stop stop-color="#D5D5DE"/>
<stop offset="1" stop-color="#B9B6BE"/>
</linearGradient>
<linearGradient id="paint5_linear_1397_5477" x1="72.8502" y1="32.077" x2="74.437" y2="34.4986" gradientUnits="userSpaceOnUse">
<stop stop-color="#D5D5DE"/>
<stop offset="1" stop-color="#B9B6BE"/>
</linearGradient>
<linearGradient id="paint6_linear_1397_5477" x1="76.8648" y1="34.7029" x2="78.4516" y2="37.1246" gradientUnits="userSpaceOnUse">
<stop stop-color="#D5D5DE"/>
<stop offset="1" stop-color="#B9B6BE"/>
</linearGradient>
<linearGradient id="paint7_linear_1397_5477" x1="80.8564" y1="37.3553" x2="82.4432" y2="39.777" gradientUnits="userSpaceOnUse">
<stop stop-color="#D5D5DE"/>
<stop offset="1" stop-color="#B9B6BE"/>
</linearGradient>
<linearGradient id="paint8_linear_1397_5477" x1="84.8726" y1="39.9813" x2="86.4594" y2="42.4029" gradientUnits="userSpaceOnUse">
<stop stop-color="#D5D5DE"/>
<stop offset="1" stop-color="#B9B6BE"/>
</linearGradient>
<linearGradient id="paint9_linear_1397_5477" x1="88.8632" y1="42.6067" x2="90.45" y2="45.0284" gradientUnits="userSpaceOnUse">
<stop stop-color="#D5D5DE"/>
<stop offset="1" stop-color="#B9B6BE"/>
</linearGradient>
<linearGradient id="paint10_linear_1397_5477" x1="92.8765" y1="45.2327" x2="94.4633" y2="47.6544" gradientUnits="userSpaceOnUse">
<stop stop-color="#D5D5DE"/>
<stop offset="1" stop-color="#B9B6BE"/>
</linearGradient>
<linearGradient id="paint11_linear_1397_5477" x1="96.8701" y1="47.8587" x2="98.4818" y2="50.276" gradientUnits="userSpaceOnUse">
<stop stop-color="#D5D5DE"/>
<stop offset="1" stop-color="#B9B6BE"/>
</linearGradient>
<linearGradient id="paint12_linear_1397_5477" x1="100.883" y1="50.5108" x2="102.47" y2="52.9325" gradientUnits="userSpaceOnUse">
<stop stop-color="#D5D5DE"/>
<stop offset="1" stop-color="#B9B6BE"/>
</linearGradient>
<linearGradient id="paint13_linear_1397_5477" x1="104.9" y1="53.1368" x2="106.487" y2="55.5585" gradientUnits="userSpaceOnUse">
<stop stop-color="#D5D5DE"/>
<stop offset="1" stop-color="#B9B6BE"/>
</linearGradient>
<linearGradient id="paint14_linear_1397_5477" x1="108.892" y1="55.7625" x2="110.478" y2="58.1842" gradientUnits="userSpaceOnUse">
<stop stop-color="#D5D5DE"/>
<stop offset="1" stop-color="#B9B6BE"/>
</linearGradient>
<linearGradient id="paint15_linear_1397_5477" x1="112.907" y1="58.3885" x2="114.494" y2="60.8102" gradientUnits="userSpaceOnUse">
<stop stop-color="#D5D5DE"/>
<stop offset="1" stop-color="#B9B6BE"/>
</linearGradient>
<linearGradient id="paint16_linear_1397_5477" x1="116.898" y1="61.0145" x2="118.485" y2="63.4361" gradientUnits="userSpaceOnUse">
<stop stop-color="#D5D5DE"/>
<stop offset="1" stop-color="#B9B6BE"/>
</linearGradient>
<linearGradient id="paint17_linear_1397_5477" x1="120.913" y1="63.6663" x2="122.499" y2="66.088" gradientUnits="userSpaceOnUse">
<stop stop-color="#D5D5DE"/>
<stop offset="1" stop-color="#B9B6BE"/>
</linearGradient>
<linearGradient id="paint18_linear_1397_5477" x1="124.904" y1="66.292" x2="126.516" y2="68.7094" gradientUnits="userSpaceOnUse">
<stop stop-color="#D5D5DE"/>
<stop offset="1" stop-color="#B9B6BE"/>
</linearGradient>
<linearGradient id="paint19_linear_1397_5477" x1="128.919" y1="68.9183" x2="130.505" y2="71.3399" gradientUnits="userSpaceOnUse">
<stop stop-color="#D5D5DE"/>
<stop offset="1" stop-color="#B9B6BE"/>
</linearGradient>
<linearGradient id="paint20_linear_1397_5477" x1="132.936" y1="71.544" x2="134.523" y2="73.9657" gradientUnits="userSpaceOnUse">
<stop stop-color="#D5D5DE"/>
<stop offset="1" stop-color="#B9B6BE"/>
</linearGradient>
<linearGradient id="paint21_linear_1397_5477" x1="136.923" y1="74.1697" x2="138.512" y2="76.6184" gradientUnits="userSpaceOnUse">
<stop stop-color="#D5D5DE"/>
<stop offset="1" stop-color="#B9B6BE"/>
</linearGradient>
<linearGradient id="paint22_linear_1397_5477" x1="140.94" y1="76.8221" x2="142.527" y2="79.2438" gradientUnits="userSpaceOnUse">
<stop stop-color="#D5D5DE"/>
<stop offset="1" stop-color="#B9B6BE"/>
</linearGradient>
<linearGradient id="paint23_linear_1397_5477" x1="144.932" y1="79.4483" x2="146.518" y2="81.87" gradientUnits="userSpaceOnUse">
<stop stop-color="#D5D5DE"/>
<stop offset="1" stop-color="#B9B6BE"/>
</linearGradient>
<linearGradient id="paint24_linear_1397_5477" x1="148.946" y1="82.074" x2="150.533" y2="84.4957" gradientUnits="userSpaceOnUse">
<stop stop-color="#D5D5DE"/>
<stop offset="1" stop-color="#B9B6BE"/>
</linearGradient>
<linearGradient id="paint25_linear_1397_5477" x1="152.939" y1="84.6998" x2="154.551" y2="87.1171" gradientUnits="userSpaceOnUse">
<stop stop-color="#D5D5DE"/>
<stop offset="1" stop-color="#B9B6BE"/>
</linearGradient>
<linearGradient id="paint26_linear_1397_5477" x1="161.661" y1="74.5383" x2="170.175" y2="74.5383" gradientUnits="userSpaceOnUse">
<stop stop-color="#2D2B2A"/>
<stop offset="1" stop-color="#383534"/>
</linearGradient>
<linearGradient id="paint27_linear_1397_5477" x1="169.656" y1="68.0211" x2="161.883" y2="68.0108" gradientUnits="userSpaceOnUse">
<stop stop-color="#E69F00"/>
<stop offset="1" stop-color="#D38200"/>
</linearGradient>
<linearGradient id="paint28_linear_1397_5477" x1="190.087" y1="147.118" x2="221.398" y2="147.118" gradientUnits="userSpaceOnUse">
<stop stop-color="#C2B2B2"/>
<stop offset="1" stop-color="#E5D7D6"/>
</linearGradient>
<linearGradient id="paint29_linear_1397_5477" x1="191.403" y1="130.05" x2="222.183" y2="130.05" gradientUnits="userSpaceOnUse">
<stop stop-color="#C2B2B2"/>
<stop offset="1" stop-color="#E5D7D6"/>
</linearGradient>
<linearGradient id="paint30_linear_1397_5477" x1="200.334" y1="112.561" x2="216.001" y2="112.561" gradientUnits="userSpaceOnUse">
<stop stop-color="#D38200"/>
<stop offset="1" stop-color="#E69F00"/>
</linearGradient>
<linearGradient id="paint31_linear_1397_5477" x1="194.82" y1="69.444" x2="204.923" y2="84.8266" gradientUnits="userSpaceOnUse">
<stop stop-color="#FFCF40"/>
<stop offset="0.36" stop-color="#FBC93A"/>
<stop offset="0.82" stop-color="#F3BA2B"/>
<stop offset="1" stop-color="#EFB224"/>
</linearGradient>
<linearGradient id="paint32_linear_1397_5477" x1="199.803" y1="73.9608" x2="202.503" y2="78.0692" gradientUnits="userSpaceOnUse">
<stop stop-color="#FFEFA5"/>
<stop offset="1" stop-color="#FFD561"/>
</linearGradient>
<linearGradient id="paint33_linear_1397_5477" x1="194.22" y1="76.8756" x2="195.61" y2="78.9772" gradientUnits="userSpaceOnUse">
<stop stop-color="#FFEFA5"/>
<stop offset="1" stop-color="#FFD561"/>
</linearGradient>
<linearGradient id="paint34_linear_1397_5477" x1="202.641" y1="104.684" x2="198.283" y2="109.382" gradientUnits="userSpaceOnUse">
<stop stop-color="#FFCB27"/>
<stop offset="1" stop-color="#E69F00"/>
</linearGradient>
<radialGradient id="paint35_radial_1397_5477" cx="0" cy="0" r="1" gradientUnits="userSpaceOnUse" gradientTransform="translate(204.787 106.89) scale(10.014 11.3964)">
<stop stop-color="#FFCB27"/>
<stop offset="1" stop-color="#E69F00"/>
</radialGradient>
<linearGradient id="paint36_linear_1397_5477" x1="162.609" y1="61.3293" x2="169.231" y2="61.3293" gradientUnits="userSpaceOnUse">
<stop stop-color="#D38200"/>
<stop offset="1" stop-color="#E69F00"/>
</linearGradient>
<linearGradient id="paint37_linear_1397_5477" x1="165.4" y1="54.7387" x2="166.071" y2="55.7939" gradientUnits="userSpaceOnUse">
<stop stop-color="#FFEFA5"/>
<stop offset="1" stop-color="#FFD561"/>
</linearGradient>
<linearGradient id="paint38_linear_1397_5477" x1="203.818" y1="60.6993" x2="208.572" y2="60.6993" gradientUnits="userSpaceOnUse">
<stop stop-color="#FFEFA5"/>
<stop offset="1" stop-color="#FFD561"/>
</linearGradient>
<linearGradient id="paint39_linear_1397_5477" x1="178.831" y1="62.039" x2="181.695" y2="66.3639" gradientUnits="userSpaceOnUse">
<stop stop-color="#FFCF40"/>
<stop offset="0.36" stop-color="#FBC93A"/>
<stop offset="0.82" stop-color="#F3BA2B"/>
<stop offset="1" stop-color="#EFB224"/>
</linearGradient>
<linearGradient id="paint40_linear_1397_5477" x1="178.689" y1="46.6773" x2="179.496" y2="47.8995" gradientUnits="userSpaceOnUse">
<stop stop-color="#FFEFA5"/>
<stop offset="1" stop-color="#FFD561"/>
</linearGradient>
<linearGradient id="paint41_linear_1397_5477" x1="182.589" y1="76.9801" x2="187.095" y2="83.7988" gradientUnits="userSpaceOnUse">
<stop stop-color="#FFCF40"/>
<stop offset="0.36" stop-color="#FBC93A"/>
<stop offset="0.82" stop-color="#F3BA2B"/>
<stop offset="1" stop-color="#EFB224"/>
</linearGradient>
<linearGradient id="paint42_linear_1397_5477" x1="198.765" y1="58.5989" x2="204.608" y2="67.474" gradientUnits="userSpaceOnUse">
<stop stop-color="#FFCF40"/>
<stop offset="0.36" stop-color="#FBC93A"/>
<stop offset="0.82" stop-color="#F3BA2B"/>
<stop offset="1" stop-color="#EFB224"/>
</linearGradient>
<linearGradient id="paint43_linear_1397_5477" x1="201.855" y1="61.3299" x2="203.497" y2="63.8237" gradientUnits="userSpaceOnUse">
<stop stop-color="#FFEFA5"/>
<stop offset="1" stop-color="#FFD561"/>
</linearGradient>
<linearGradient id="paint44_linear_1397_5477" x1="194.749" y1="62.0652" x2="200.593" y2="70.9403" gradientUnits="userSpaceOnUse">
<stop stop-color="#FFCF40"/>
<stop offset="0.36" stop-color="#FBC93A"/>
<stop offset="0.82" stop-color="#F3BA2B"/>
<stop offset="1" stop-color="#EFB224"/>
</linearGradient>
<linearGradient id="paint45_linear_1397_5477" x1="197.633" y1="64.6648" x2="199.191" y2="67.0369" gradientUnits="userSpaceOnUse">
<stop stop-color="#FFEFA5"/>
<stop offset="1" stop-color="#FFD561"/>
</linearGradient>
</defs>
</svg>
