<svg width="1534" height="542" viewBox="0 0 1534 542" fill="none" xmlns="http://www.w3.org/2000/svg">
<path d="M1522.67 135C1522.67 137.946 1525.05 140.333 1528 140.333C1530.95 140.333 1533.33 137.946 1533.33 135C1533.33 132.054 1530.95 129.667 1528 129.667C1525.05 129.667 1522.67 132.054 1522.67 135ZM1094 136H1528V134H1094V136ZM1094 134H1083.5V136H1094V134ZM1060.5 157V330H1062.5V157H1060.5ZM1039.5 351H120V353H1039.5V351ZM1060.5 330C1060.5 341.598 1051.1 351 1039.5 351V353C1052.2 353 1062.5 342.703 1062.5 330H1060.5ZM1083.5 134C1070.8 134 1060.5 144.297 1060.5 157H1062.5C1062.5 145.402 1071.9 136 1083.5 136V134Z" fill="#1F2846"/>
<path opacity="0.2" d="M22 362V505.017C22 525.442 67.662 542 124 542C180.338 542 226 525.442 226 505.017V362H22Z" fill="url(#paint0_linear_2232_1295)"/>
<path d="M124.009 455.436C192.498 455.436 248.019 439.376 248.019 419.565C248.019 399.754 192.498 383.694 124.009 383.694C55.5209 383.694 0 399.754 0 419.565C0 439.376 55.5209 455.436 124.009 455.436Z" fill="white"/>
<path d="M124.009 445.302C192.498 445.302 248.019 429.242 248.019 409.431C248.019 389.62 192.498 373.56 124.009 373.56C55.5209 373.56 0 389.62 0 409.431C0 429.242 55.5209 445.302 124.009 445.302Z" fill="#D7D7D7"/>
<path d="M22.209 115.555V404.909C22.209 421.169 67.7818 434.35 124.01 434.35C180.238 434.35 225.81 421.169 225.81 404.909V115.555H22.225H22.209Z" fill="#1F2846"/>
<path d="M225.101 115.555C225.101 119.369 222.425 123.111 217.319 126.602C212.229 130.082 204.832 133.236 195.646 135.892C177.28 141.203 151.879 144.495 123.801 144.495C95.7225 144.495 70.3213 141.203 51.9556 135.892C42.7695 133.236 35.3719 130.082 30.2822 126.602C25.1763 123.111 22.5 119.369 22.5 115.555C22.5 111.741 25.1763 107.999 30.2822 104.508C35.3719 101.028 42.7695 97.8743 51.9556 95.2176C70.3213 89.9063 95.7225 86.6144 123.801 86.6144C151.879 86.6144 177.28 89.9063 195.646 95.2176C204.832 97.8743 212.229 101.028 217.319 104.508C222.425 107.999 225.101 111.741 225.101 115.555Z" fill="#1F2846" stroke="white"/>
<path opacity="0.4" d="M124.01 141.692C177.078 141.692 220.098 129.251 220.098 113.903C220.098 98.5559 177.078 86.1144 124.01 86.1144C70.942 86.1144 27.9219 98.5559 27.9219 113.903C27.9219 129.251 70.942 141.692 124.01 141.692Z" fill="#1F2846"/>
<path d="M73.3 22.3V19.15H81.8V55H78.25V22.3H73.3ZM89.5996 36.75C89.5996 31.0167 90.4829 26.5667 92.2496 23.4C94.0163 20.2333 97.1829 18.65 101.75 18.65C106.316 18.65 109.483 20.2333 111.25 23.4C113.016 26.5667 113.9 31.0167 113.9 36.75C113.9 42.5833 113.016 47.1 111.25 50.3C109.483 53.5 106.316 55.1 101.75 55.1C97.1496 55.1 93.9663 53.5 92.1996 50.3C90.4663 47.1 89.5996 42.5833 89.5996 36.75ZM110.45 36.75C110.45 33.65 110.233 31.0333 109.8 28.9C109.366 26.7667 108.516 25.05 107.25 23.75C105.983 22.45 104.15 21.8 101.75 21.8C99.3496 21.8 97.5163 22.45 96.2496 23.75C94.9829 25.05 94.1329 26.7667 93.6996 28.9C93.2663 31.0333 93.0496 33.65 93.0496 36.75C93.0496 39.95 93.2663 42.6333 93.6996 44.8C94.1329 46.9333 94.9829 48.65 96.2496 49.95C97.5163 51.25 99.3496 51.9 101.75 51.9C104.15 51.9 105.983 51.25 107.25 49.95C108.516 48.65 109.366 46.9333 109.8 44.8C110.233 42.6333 110.45 39.95 110.45 36.75ZM120.41 36.75C120.41 31.0167 121.293 26.5667 123.06 23.4C124.827 20.2333 127.993 18.65 132.56 18.65C137.127 18.65 140.293 20.2333 142.06 23.4C143.827 26.5667 144.71 31.0167 144.71 36.75C144.71 42.5833 143.827 47.1 142.06 50.3C140.293 53.5 137.127 55.1 132.56 55.1C127.96 55.1 124.777 53.5 123.01 50.3C121.277 47.1 120.41 42.5833 120.41 36.75ZM141.26 36.75C141.26 33.65 141.043 31.0333 140.61 28.9C140.177 26.7667 139.327 25.05 138.06 23.75C136.793 22.45 134.96 21.8 132.56 21.8C130.16 21.8 128.327 22.45 127.06 23.75C125.793 25.05 124.943 26.7667 124.51 28.9C124.077 31.0333 123.86 33.65 123.86 36.75C123.86 39.95 124.077 42.6333 124.51 44.8C124.943 46.9333 125.793 48.65 127.06 49.95C128.327 51.25 130.16 51.9 132.56 51.9C134.96 51.9 136.793 51.25 138.06 49.95C139.327 48.65 140.177 46.9333 140.61 44.8C141.043 42.6333 141.26 39.95 141.26 36.75ZM150.121 26.65C150.121 24.5167 150.771 22.8 152.071 21.5C153.404 20.1667 155.087 19.5 157.121 19.5C159.187 19.5 160.871 20.1667 162.171 21.5C163.504 22.8 164.171 24.5167 164.171 26.65C164.171 28.8167 163.504 30.5667 162.171 31.9C160.871 33.2 159.187 33.85 157.121 33.85C155.087 33.85 153.404 33.2 152.071 31.9C150.771 30.5667 150.121 28.8167 150.121 26.65ZM178.121 20L157.621 55H154.071L174.621 20H178.121ZM157.121 21.75C155.854 21.75 154.837 22.1833 154.071 23.05C153.337 23.8833 152.971 25.0833 152.971 26.65C152.971 28.2167 153.337 29.4333 154.071 30.3C154.837 31.1667 155.854 31.6 157.121 31.6C158.387 31.6 159.404 31.1667 160.171 30.3C160.937 29.4333 161.321 28.2167 161.321 26.65C161.321 25.1167 160.937 23.9167 160.171 23.05C159.404 22.1833 158.387 21.75 157.121 21.75ZM168.121 48.35C168.121 46.1833 168.771 44.45 170.071 43.15C171.404 41.8167 173.087 41.15 175.121 41.15C177.154 41.15 178.821 41.8167 180.121 43.15C181.454 44.45 182.121 46.1833 182.121 48.35C182.121 50.5167 181.454 52.2667 180.121 53.6C178.821 54.9 177.154 55.55 175.121 55.55C173.087 55.55 171.404 54.9 170.071 53.6C168.771 52.2667 168.121 50.5167 168.121 48.35ZM175.121 43.45C173.854 43.45 172.837 43.8833 172.071 44.75C171.304 45.6167 170.921 46.8167 170.921 48.35C170.921 49.8833 171.304 51.0833 172.071 51.95C172.837 52.8167 173.854 53.25 175.121 53.25C176.387 53.25 177.387 52.8333 178.121 52C178.887 51.1333 179.271 49.9167 179.271 48.35C179.271 46.7833 178.887 45.5833 178.121 44.75C177.387 43.8833 176.387 43.45 175.121 43.45Z" fill="#1F2846"/>
<path opacity="0.2" d="M283 362V505.017C283 525.442 328.662 542 385 542C441.338 542 487 525.442 487 505.017V362H283Z" fill="url(#paint1_linear_2232_1295)"/>
<path d="M385.028 454.891C453.516 454.891 509.037 438.103 509.037 417.394C509.037 396.685 453.516 379.896 385.028 379.896C316.539 379.896 261.019 396.685 261.019 417.394C261.019 438.103 316.539 454.891 385.028 454.891Z" fill="white"/>
<path d="M385.028 444.297C453.516 444.297 509.037 427.509 509.037 406.8C509.037 386.091 453.516 369.303 385.028 369.303C316.539 369.303 261.019 386.091 261.019 406.8C261.019 427.509 316.539 444.297 385.028 444.297Z" fill="#D7D7D7"/>
<path d="M283.228 283.077V402.09C283.228 419.087 328.8 432.865 385.028 432.865C441.256 432.865 486.829 419.087 486.829 402.09V283.077H283.228Z" fill="#24B0B3"/>
<path d="M486.329 283.077C486.329 287.086 483.64 291.003 478.538 294.65C473.449 298.287 466.052 301.583 456.867 304.36C438.504 309.912 413.105 313.353 385.028 313.353C356.952 313.353 331.553 309.912 313.189 304.36C304.004 301.583 296.607 298.287 291.518 294.65C286.417 291.003 283.728 287.086 283.728 283.077C283.728 279.068 286.417 275.151 291.518 271.505C296.607 267.867 304.004 264.571 313.189 261.794C331.553 256.242 356.952 252.801 385.028 252.801C413.105 252.801 438.504 256.242 456.867 261.794C466.052 264.571 473.449 267.867 478.538 271.505C483.64 275.151 486.329 279.068 486.329 283.077Z" fill="#24B0B3" stroke="white"/>
<path opacity="0.4" d="M385.028 310.5C438.184 310.5 481.276 297.472 481.276 281.401C481.276 265.33 438.184 252.301 385.028 252.301C331.871 252.301 288.779 265.33 288.779 281.401C288.779 297.472 331.871 310.5 385.028 310.5Z" fill="#24B0B3"/>
<path d="M350.674 221.25C356.807 216.65 361.541 212.533 364.874 208.9C368.241 205.233 369.924 201.65 369.924 198.15C369.924 195.85 369.341 194.017 368.174 192.65C367.041 191.25 365.174 190.55 362.574 190.55C360.041 190.55 358.074 191.35 356.674 192.95C355.307 194.517 354.541 196.617 354.374 199.25H350.974C351.174 195.55 352.307 192.683 354.374 190.65C356.474 188.583 359.207 187.55 362.574 187.55C365.807 187.55 368.424 188.467 370.424 190.3C372.424 192.1 373.424 194.667 373.424 198C373.424 202.033 371.741 205.95 368.374 209.75C365.041 213.517 360.924 217.2 356.024 220.8H374.524V223.75H350.674V221.25ZM402.587 191.15H384.287V203.95C385.121 202.783 386.337 201.833 387.937 201.1C389.537 200.333 391.271 199.95 393.137 199.95C395.871 199.95 398.104 200.517 399.837 201.65C401.571 202.75 402.821 204.2 403.587 206C404.354 207.767 404.737 209.667 404.737 211.7C404.737 214.033 404.287 216.15 403.387 218.05C402.521 219.917 401.171 221.4 399.337 222.5C397.537 223.6 395.287 224.15 392.587 224.15C389.154 224.15 386.371 223.267 384.237 221.5C382.104 219.7 380.804 217.283 380.337 214.25H383.787C384.221 216.45 385.221 218.15 386.787 219.35C388.354 220.55 390.287 221.15 392.587 221.15C395.487 221.15 397.671 220.3 399.137 218.6C400.637 216.867 401.387 214.583 401.387 211.75C401.387 208.983 400.637 206.833 399.137 205.3C397.637 203.733 395.487 202.95 392.687 202.95C390.754 202.95 389.054 203.4 387.587 204.3C386.121 205.2 385.037 206.417 384.337 207.95H381.037V188.1H402.587V191.15ZM409.747 195.65C409.747 193.517 410.397 191.8 411.697 190.5C413.03 189.167 414.713 188.5 416.747 188.5C418.813 188.5 420.497 189.167 421.797 190.5C423.13 191.8 423.797 193.517 423.797 195.65C423.797 197.817 423.13 199.567 421.797 200.9C420.497 202.2 418.813 202.85 416.747 202.85C414.713 202.85 413.03 202.2 411.697 200.9C410.397 199.567 409.747 197.817 409.747 195.65ZM437.747 189L417.247 224H413.697L434.247 189H437.747ZM416.747 190.75C415.48 190.75 414.463 191.183 413.697 192.05C412.963 192.883 412.597 194.083 412.597 195.65C412.597 197.217 412.963 198.433 413.697 199.3C414.463 200.167 415.48 200.6 416.747 200.6C418.013 200.6 419.03 200.167 419.797 199.3C420.563 198.433 420.947 197.217 420.947 195.65C420.947 194.117 420.563 192.917 419.797 192.05C419.03 191.183 418.013 190.75 416.747 190.75ZM427.747 217.35C427.747 215.183 428.397 213.45 429.697 212.15C431.03 210.817 432.713 210.15 434.747 210.15C436.78 210.15 438.447 210.817 439.747 212.15C441.08 213.45 441.747 215.183 441.747 217.35C441.747 219.517 441.08 221.267 439.747 222.6C438.447 223.9 436.78 224.55 434.747 224.55C432.713 224.55 431.03 223.9 429.697 222.6C428.397 221.267 427.747 219.517 427.747 217.35ZM434.747 212.45C433.48 212.45 432.463 212.883 431.697 213.75C430.93 214.617 430.547 215.817 430.547 217.35C430.547 218.883 430.93 220.083 431.697 220.95C432.463 221.817 433.48 222.25 434.747 222.25C436.013 222.25 437.013 221.833 437.747 221C438.513 220.133 438.897 218.917 438.897 217.35C438.897 215.783 438.513 214.583 437.747 213.75C437.013 212.883 436.013 212.45 434.747 212.45Z" fill="#1F2846"/>
<path opacity="0.2" d="M544 382V493.581C544 520.322 589.662 542 646 542C702.338 542 748 520.322 748 493.581V382H544.016H544Z" fill="url(#paint2_linear_2232_1295)"/>
<path d="M646.047 454.86C714.536 454.86 770.057 437.178 770.057 415.366C770.057 393.555 714.536 375.873 646.047 375.873C577.559 375.873 522.038 393.555 522.038 415.366C522.038 437.178 577.559 454.86 646.047 454.86Z" fill="white"/>
<path d="M646.047 443.702C714.536 443.702 770.057 426.02 770.057 404.209C770.057 382.397 714.536 364.715 646.047 364.715C577.559 364.715 522.038 382.397 522.038 404.209C522.038 426.02 577.559 443.702 646.047 443.702Z" fill="#D7D7D7"/>
<path d="M544.247 324.533V399.23C544.247 417.132 589.82 431.644 646.048 431.644C702.276 431.644 747.848 417.132 747.848 399.23V324.533H544.263H544.247Z" fill="#6449AC"/>
<path d="M746.903 324.533C746.903 328.779 744.2 332.913 739.102 336.75C734.014 340.581 726.618 344.052 717.435 346.976C699.074 352.823 673.677 356.447 645.602 356.447C617.528 356.447 592.131 352.823 573.77 346.976C564.587 344.052 557.191 340.581 552.102 336.75C547.005 332.913 544.302 328.779 544.302 324.533C544.302 320.286 547.005 316.152 552.102 312.315C557.191 308.484 564.587 305.013 573.77 302.089C592.131 296.243 617.528 292.619 645.602 292.619C673.677 292.619 699.074 296.243 717.435 302.089C726.618 305.013 734.014 308.484 739.102 312.315C744.2 316.152 746.903 320.286 746.903 324.533Z" fill="#6449AC" stroke="white"/>
<path opacity="0.4" d="M646.048 352.427C698.336 352.427 740.724 338.927 740.724 322.273C740.724 305.619 698.336 292.119 646.048 292.119C593.76 292.119 551.372 305.619 551.372 322.273C551.372 338.927 593.76 352.427 646.048 352.427Z" fill="#6449AC"/>
<path d="M611.935 243.9C611.202 239.567 608.685 237.4 604.385 237.4C601.118 237.4 598.668 238.667 597.035 241.2C595.402 243.733 594.652 247.883 594.785 253.65C595.452 251.65 596.718 250.083 598.585 248.95C600.485 247.783 602.652 247.2 605.085 247.2C608.585 247.2 611.352 248.283 613.385 250.45C615.452 252.583 616.485 255.533 616.485 259.3C616.485 261.5 616.052 263.5 615.185 265.3C614.352 267.067 613.052 268.483 611.285 269.55C609.552 270.617 607.385 271.15 604.785 271.15C599.818 271.15 596.385 269.567 594.485 266.4C592.618 263.233 591.685 258.75 591.685 252.95C591.685 240.617 595.918 234.45 604.385 234.45C607.585 234.45 610.102 235.333 611.935 237.1C613.768 238.833 614.852 241.1 615.185 243.9H611.935ZM604.435 250.2C602.868 250.2 601.385 250.517 599.985 251.15C598.585 251.783 597.435 252.75 596.535 254.05C595.668 255.317 595.235 256.883 595.235 258.75C595.235 261.45 596.035 263.7 597.635 265.5C599.235 267.3 601.568 268.2 604.635 268.2C607.202 268.2 609.252 267.417 610.785 265.85C612.318 264.283 613.085 262.15 613.085 259.45C613.085 256.55 612.335 254.283 610.835 252.65C609.335 251.017 607.202 250.2 604.435 250.2ZM622.78 252.75C622.78 247.017 623.664 242.567 625.43 239.4C627.197 236.233 630.364 234.65 634.93 234.65C639.497 234.65 642.664 236.233 644.43 239.4C646.197 242.567 647.08 247.017 647.08 252.75C647.08 258.583 646.197 263.1 644.43 266.3C642.664 269.5 639.497 271.1 634.93 271.1C630.33 271.1 627.147 269.5 625.38 266.3C623.647 263.1 622.78 258.583 622.78 252.75ZM643.63 252.75C643.63 249.65 643.414 247.033 642.98 244.9C642.547 242.767 641.697 241.05 640.43 239.75C639.164 238.45 637.33 237.8 634.93 237.8C632.53 237.8 630.697 238.45 629.43 239.75C628.164 241.05 627.314 242.767 626.88 244.9C626.447 247.033 626.23 249.65 626.23 252.75C626.23 255.95 626.447 258.633 626.88 260.8C627.314 262.933 628.164 264.65 629.43 265.95C630.697 267.25 632.53 267.9 634.93 267.9C637.33 267.9 639.164 267.25 640.43 265.95C641.697 264.65 642.547 262.933 642.98 260.8C643.414 258.633 643.63 255.95 643.63 252.75ZM653.591 252.75C653.591 247.017 654.474 242.567 656.241 239.4C658.007 236.233 661.174 234.65 665.741 234.65C670.307 234.65 673.474 236.233 675.241 239.4C677.007 242.567 677.891 247.017 677.891 252.75C677.891 258.583 677.007 263.1 675.241 266.3C673.474 269.5 670.307 271.1 665.741 271.1C661.141 271.1 657.957 269.5 656.191 266.3C654.457 263.1 653.591 258.583 653.591 252.75ZM674.441 252.75C674.441 249.65 674.224 247.033 673.791 244.9C673.357 242.767 672.507 241.05 671.241 239.75C669.974 238.45 668.141 237.8 665.741 237.8C663.341 237.8 661.507 238.45 660.241 239.75C658.974 241.05 658.124 242.767 657.691 244.9C657.257 247.033 657.041 249.65 657.041 252.75C657.041 255.95 657.257 258.633 657.691 260.8C658.124 262.933 658.974 264.65 660.241 265.95C661.507 267.25 663.341 267.9 665.741 267.9C668.141 267.9 669.974 267.25 671.241 265.95C672.507 264.65 673.357 262.933 673.791 260.8C674.224 258.633 674.441 255.95 674.441 252.75ZM710.301 254H699.151V265.25H695.901V254H684.801V251H695.901V239.75H699.151V251H710.301V254Z" fill="#1F2846"/>
<path opacity="0.2" d="M805 362V505.017C805 525.442 850.662 542 907 542C963.338 542 1009 525.442 1009 505.017V362H805Z" fill="url(#paint3_linear_2232_1295)"/>
<path d="M907.066 454.891C975.555 454.891 1031.08 438.103 1031.08 417.394C1031.08 396.685 975.555 379.896 907.066 379.896C838.578 379.896 783.057 396.685 783.057 417.394C783.057 438.103 838.578 454.891 907.066 454.891Z" fill="white"/>
<path d="M907.066 444.297C975.555 444.297 1031.08 427.509 1031.08 406.8C1031.08 386.091 975.555 369.303 907.066 369.303C838.578 369.303 783.057 386.091 783.057 406.8C783.057 427.509 838.578 444.297 907.066 444.297Z" fill="#D7D7D7"/>
<path d="M805.266 283.077V402.09C805.266 419.087 850.838 432.865 907.066 432.865C963.294 432.865 1008.87 419.087 1008.87 402.09V283.077H805.266Z" fill="#009AD6"/>
<path d="M1008.18 283.077C1008.18 287.086 1005.49 291.003 1000.39 294.65C995.297 298.287 987.9 301.583 978.715 304.36C960.352 309.912 934.952 313.353 906.876 313.353C878.799 313.353 853.4 309.912 835.037 304.36C825.852 301.583 818.455 298.287 813.366 294.65C808.264 291.003 805.575 287.086 805.575 283.077C805.575 279.068 808.264 275.151 813.366 271.505C818.455 267.867 825.852 264.571 835.037 261.794C853.4 256.242 878.799 252.801 906.876 252.801C934.952 252.801 960.352 256.242 978.715 261.794C987.9 264.571 995.297 267.867 1000.39 271.505C1005.49 275.151 1008.18 279.068 1008.18 283.077Z" fill="#009AD6" stroke="white"/>
<path opacity="0.4" d="M907.066 310.5C960.222 310.5 1003.31 297.472 1003.31 281.401C1003.31 265.33 960.222 252.301 907.066 252.301C853.909 252.301 810.817 265.33 810.817 281.401C810.817 297.472 853.909 310.5 907.066 310.5Z" fill="#009AD6"/>
<path d="M863.899 191.3V188.15H872.399V224H868.849V191.3H863.899ZM915.098 189.5V224H911.598V196.45L899.298 224H896.748L884.448 196.55V224H880.948V189.5H884.648L897.998 219.4L911.348 189.5H915.098ZM948.188 207H937.038V218.25H933.788V207H922.688V204H933.788V192.75H937.038V204H948.188V207Z" fill="#1F2846"/>
<defs>
<linearGradient id="paint0_linear_2232_1295" x1="124" y1="529.5" x2="124" y2="406.738" gradientUnits="userSpaceOnUse">
<stop stop-color="#1F2846" stop-opacity="0"/>
<stop offset="1" stop-color="#1F2846"/>
</linearGradient>
<linearGradient id="paint1_linear_2232_1295" x1="385" y1="534" x2="385" y2="406.738" gradientUnits="userSpaceOnUse">
<stop stop-color="#24B0B3" stop-opacity="0"/>
<stop offset="1" stop-color="#24B0B3"/>
</linearGradient>
<linearGradient id="paint2_linear_2232_1295" x1="646" y1="517.5" x2="646" y2="456.027" gradientUnits="userSpaceOnUse">
<stop stop-color="#6306FC" stop-opacity="0"/>
<stop offset="1" stop-color="#6449AC"/>
</linearGradient>
<linearGradient id="paint3_linear_2232_1295" x1="907" y1="523.5" x2="907" y2="406.738" gradientUnits="userSpaceOnUse">
<stop stop-color="#009AD6" stop-opacity="0"/>
<stop offset="1" stop-color="#009AD6"/>
</linearGradient>
</defs>
</svg>
