<svg width="105" height="105" viewBox="0 0 105 105" fill="none" xmlns="http://www.w3.org/2000/svg">
<path d="M2.8736 104.44C2.23005 104.138 1.70131 103.636 1.36616 103.009C1.031 102.382 0.907381 101.663 1.01362 100.96C1.11362 99.14 0.993656 97.3 1.05366 95.48C1.06436 93.5405 1.56383 91.6349 2.50593 89.9395C3.44802 88.2441 4.80223 86.8136 6.44355 85.7801C6.63355 85.6401 6.84365 85.52 7.04365 85.4C7.24365 85.2799 7.45358 85.1701 7.72358 85.0201C6.02302 83.2813 4.92882 81.0402 4.60358 78.6299C4.05358 73.5899 4.82356 68.8901 9.08356 65.5301C10.6218 64.3054 12.4496 63.4972 14.3907 63.1836C16.3318 62.8701 18.321 63.0616 20.1666 63.7398C22.0122 64.418 23.652 65.56 24.9283 67.0557C26.2046 68.5515 27.0742 70.3507 27.4536 72.2801C28.4836 76.9201 28.0436 81.3101 24.5936 85.0201C27.9836 86.8201 30.3935 89.44 30.9435 93.18C31.2609 96.1688 31.3578 99.1769 31.2336 102.18C31.2336 103.35 30.3137 103.98 29.3137 104.44H19.1336C18.5136 103.88 17.9836 103.25 18.3536 102.34C18.7236 101.43 19.5436 101.37 20.4036 101.38C21.7836 101.41 23.1737 101.39 24.5637 101.39H28.1837C28.1837 99.0899 28.3536 96.9201 28.1436 94.7801C28.0295 93.1447 27.4325 91.5799 26.4285 90.284C25.4245 88.988 24.0586 88.0192 22.5036 87.5C22.0423 87.3416 21.5402 87.3487 21.0836 87.5201C19.5359 88.2195 17.857 88.5811 16.1586 88.5811C14.4602 88.5811 12.7813 88.2195 11.2336 87.5201C10.8108 87.3458 10.3404 87.3246 9.90363 87.46C8.52938 87.8707 7.29299 88.6481 6.32746 89.7088C5.36193 90.7695 4.70381 92.0733 4.42365 93.48C4.09693 96.1037 3.94318 98.746 3.96357 101.39C6.85357 101.39 9.4936 101.4 12.1236 101.38C12.9836 101.38 13.7636 101.47 14.1236 102.4C14.4836 103.36 13.8936 103.91 13.2336 104.43H2.8736V104.44ZM24.7136 78.0999C23.5011 78.1761 22.2846 78.1661 21.0736 78.0699C18.8736 77.7199 16.7136 77.13 14.5136 76.74C12.66 76.3884 10.7864 76.1514 8.90363 76.0301C7.70363 75.9701 7.47364 76.4199 7.53364 77.6099C7.7005 79.6114 8.55825 81.4927 9.95991 82.9312C11.3616 84.3697 13.2199 85.2758 15.2164 85.4944C17.2129 85.7131 19.2232 85.2306 20.903 84.1297C22.5828 83.0287 23.8275 81.3779 24.4237 79.46C24.5441 79.0087 24.6409 78.5513 24.7136 78.0899V78.0999ZM24.7236 74.92C24.5636 69.78 20.5236 65.7999 15.7636 66.0699C11.2536 66.3199 8.08367 70.2299 8.06367 72.8399C9.41161 72.8555 10.7573 72.9524 12.0936 73.1299C14.7536 73.6299 17.3736 74.3199 20.0236 74.8599C21.5589 75.2847 23.1779 75.3054 24.7236 74.92Z" fill="url(#paint0_linear_2059_348)"/>
<path d="M75.6826 104.441C75.012 104.195 74.4463 103.725 74.0804 103.112C73.7145 102.498 73.5706 101.778 73.6726 101.071C73.7326 99.1107 73.6025 97.1408 73.7225 95.1808C73.8053 93.0408 74.4688 90.9638 75.6421 89.1722C76.8153 87.3806 78.454 85.9421 80.3825 85.0109C78.8967 83.4964 77.8764 81.5876 77.4425 79.5109C76.5425 74.1909 77.2226 69.2407 81.6626 65.5907C83.1151 64.3943 84.842 63.5776 86.6883 63.214C88.5346 62.8504 90.4424 62.9514 92.2401 63.5077C94.0378 64.0639 95.6691 65.0581 96.9874 66.401C98.3057 67.7438 99.2696 69.3931 99.7926 71.2008C101.263 76.0108 101.043 80.7108 97.4925 84.7508C97.4325 84.8455 97.3823 84.9461 97.3425 85.0509C98.9413 85.808 100.342 86.9267 101.434 88.3187C102.525 89.7107 103.278 91.3375 103.633 93.0707C103.88 94.9434 103.987 96.8321 103.952 98.7208C103.982 99.4308 103.903 100.151 103.973 100.851C104.105 101.569 103.996 102.312 103.661 102.962C103.326 103.612 102.785 104.132 102.123 104.441H91.7525C91.0625 103.931 90.4925 103.361 90.8325 102.411C91.1725 101.481 91.9525 101.351 92.8225 101.391C93.5425 101.411 94.2525 101.391 94.9625 101.391H100.903C100.903 99.3107 100.933 97.3507 100.903 95.4007C100.853 93.6795 100.294 92.0117 99.2977 90.6075C98.3011 89.2034 96.9109 88.1258 95.3026 87.5109C95.0281 87.3937 94.7316 87.3367 94.4332 87.3436C94.1348 87.3505 93.8413 87.4212 93.5725 87.5509C92.2143 88.2206 90.7276 88.5886 89.2138 88.63C87.7001 88.6714 86.1953 88.3853 84.8026 87.7909C84.1659 87.4978 83.4602 87.3875 82.7645 87.4723C82.0687 87.557 81.4102 87.8335 80.8625 88.2709C79.0708 89.3479 77.7473 91.0568 77.1526 93.0609C76.3626 95.7709 76.8625 98.5507 76.7225 101.391C79.4725 101.391 82.0826 101.411 84.6826 101.391C85.5626 101.381 86.3525 101.511 86.6425 102.461C86.9425 103.391 86.4326 104.001 85.6526 104.441H75.6826ZM97.3026 78.4308C94.9426 78.1108 92.6726 77.8608 90.4226 77.4708C87.8626 77.0308 85.3425 76.3108 82.7725 75.9908C80.3125 75.6708 79.8725 76.3008 80.3625 78.7008C80.8052 80.7007 81.9377 82.4808 83.5612 83.7296C85.1848 84.9784 87.196 85.6162 89.2425 85.5309C93.3525 85.3409 96.9126 82.1108 97.3026 78.4308ZM80.6325 72.8407C82.007 72.8483 83.3797 72.9419 84.7425 73.1207C87.4325 73.6107 90.0825 74.3207 92.7625 74.8707C94.2874 75.2788 95.891 75.2926 97.4226 74.9108C97.1826 70.0008 93.6525 66.2509 89.1925 66.0509C85.1025 65.8809 81.1225 69.0507 80.6325 72.8407Z" fill="url(#paint1_linear_2059_348)"/>
<path d="M71.3633 50.8107C71.2033 47.7007 71.2133 44.6907 70.8533 41.7307C70.6776 40.3228 70.1235 38.9889 69.2501 37.8708C68.3768 36.7527 67.2167 35.892 65.8933 35.3806C64.8333 34.8906 63.7234 34.5007 62.5534 34.0407C61.7334 36.1707 60.9733 38.1906 60.2033 40.2006C59.4933 42.0606 58.6633 42.3106 57.0833 41.1506C55.3933 39.9006 53.7033 38.6605 51.9533 37.3705C50.2333 38.6405 48.5167 39.9039 46.8034 41.1606C45.2534 42.2906 44.4033 42.0407 43.7233 40.2807C42.9333 38.2407 42.15 36.2039 41.3733 34.1706C34.8233 35.8206 32.9433 39.1205 32.7433 43.8605C32.6433 46.1505 32.7233 48.4407 32.7233 50.8107H36.9533C40.6833 50.8107 44.4033 50.8007 48.1333 50.8107C49.3333 50.8107 50.0334 51.3607 50.0534 52.2807C50.0834 53.2507 49.3533 53.8505 48.1033 53.8505C42.7833 53.8505 37.4633 53.8605 32.1433 53.8505C30.7033 53.8405 29.6734 53.1205 29.6834 51.8405C29.5961 48.2597 29.7196 44.6768 30.0534 41.1105C30.5734 37.0205 33.1133 34.1607 36.9033 32.5607C39.0733 31.6407 41.3433 30.9406 43.5933 30.2106C43.8523 30.1661 44.0846 30.0244 44.2426 29.8144C44.4006 29.6044 44.4723 29.3417 44.4432 29.0805C44.5433 26.9605 44.3333 25.1206 42.6633 23.4006C41.7396 22.4006 41.0348 21.2189 40.594 19.9308C40.1532 18.6428 39.986 17.2769 40.1033 15.9206C40.2033 13.6606 40.0733 11.3706 40.3333 9.13055C40.6833 6.13055 42.0033 3.70052 45.2333 2.85052C45.3948 2.80338 45.5425 2.71757 45.6633 2.60052C47.9733 0.520523 50.7133 0.150553 53.6533 0.630553C56.1814 0.999193 58.5494 2.0896 60.4733 3.77069C61.5386 4.64462 62.3907 5.74997 62.9642 7.00287C63.5378 8.25576 63.818 9.62315 63.7833 11.0007C63.7533 12.6207 63.7133 14.2505 63.7833 15.8705C63.8438 17.4998 63.5607 19.1235 62.9525 20.6362C62.3444 22.1488 61.4247 23.5166 60.2533 24.6506C59.9614 24.9203 59.7356 25.2538 59.5934 25.6249C59.4512 25.9961 59.3965 26.395 59.4334 26.7907C59.5234 27.8207 59.1734 29.1205 59.6734 29.8205C60.1534 30.4905 61.5033 30.5205 62.4533 30.8705C64.1933 31.5105 65.9733 32.0806 67.6433 32.8806C69.4228 33.67 70.9544 34.928 72.0746 36.5202C73.1948 38.1124 73.8614 39.979 74.0033 41.9206C74.3233 45.1706 74.2333 48.4707 74.2433 51.7507C74.241 52.0426 74.1783 52.3309 74.0591 52.5974C73.9399 52.8638 73.7668 53.1027 73.5508 53.299C73.3347 53.4953 73.0804 53.6448 72.8037 53.738C72.5271 53.8312 72.2341 53.8661 71.9432 53.8405C66.5532 53.8705 61.1733 53.8605 55.7833 53.8505C55.572 53.8694 55.3591 53.8441 55.1582 53.7758C54.9574 53.7076 54.773 53.598 54.617 53.4543C54.4609 53.3106 54.3365 53.1359 54.252 52.9413C54.1674 52.7468 54.1245 52.5368 54.1259 52.3246C54.1273 52.1125 54.173 51.9031 54.2601 51.7097C54.3473 51.5162 54.4739 51.343 54.6318 51.2014C54.7898 51.0597 54.9755 50.9527 55.1773 50.8871C55.379 50.8216 55.5923 50.7988 55.8034 50.8205C60.5434 50.8005 65.2833 50.8107 70.0333 50.8107H71.3633ZM60.6633 17.3806C58.4233 16.8406 56.3334 16.4305 54.3134 15.8205C53.0459 15.3506 51.8129 14.7926 50.6233 14.1506C50.0062 13.7846 49.2915 13.6172 48.5761 13.6708C47.8606 13.7245 47.1789 13.9967 46.6233 14.4506C45.7033 15.1806 44.7333 15.8707 43.7533 16.5307C43.5173 16.6559 43.337 16.865 43.2481 17.1169C43.1592 17.3688 43.1682 17.645 43.2733 17.8906C43.7068 19.6951 44.6064 21.3543 45.8822 22.7021C47.158 24.0498 48.7653 25.0388 50.5433 25.5705C51.5147 25.8574 52.5501 25.8436 53.5133 25.5307C55.1785 24.9919 56.6868 24.0541 57.9069 22.7993C59.1269 21.5444 60.0216 20.0102 60.5133 18.3305C60.5925 18.0191 60.6427 17.7012 60.6633 17.3806ZM42.9833 12.8505C43.1041 12.8951 43.2277 12.932 43.3533 12.9606C43.6933 12.7306 44.0533 12.5307 44.3633 12.2807C46.9333 10.2107 49.6433 10.1906 52.5233 11.6306C53.9255 12.3715 55.3873 12.9938 56.8933 13.4907C58.1536 13.7822 59.4337 13.9792 60.7233 14.0805C60.7233 12.9105 60.6833 12.0306 60.7233 11.1606C60.8211 10.123 60.6311 9.07851 60.1742 8.14178C59.7173 7.20506 59.0112 6.41223 58.1333 5.85052C56.7041 4.90665 55.1348 4.19467 53.4833 3.74066C52.4007 3.36059 51.2301 3.30862 50.1182 3.59149C49.0063 3.87436 48.0026 4.47932 47.2333 5.3305C46.9837 5.55487 46.6677 5.69192 46.3333 5.72064C45.7152 5.76993 45.1293 6.01605 44.6614 6.42279C44.1935 6.82953 43.8682 7.3755 43.7333 7.98065C43.3633 9.59065 43.2133 11.2505 42.9833 12.8405V12.8505ZM56.3933 27.6606C55.0314 28.4236 53.5008 28.8351 51.9398 28.8578C50.3789 28.8805 48.8368 28.5138 47.4533 27.7907C47.4933 28.7707 47.3433 29.9206 47.8533 30.4206C49.1399 31.5709 50.5103 32.6237 51.9533 33.5705C53.3033 32.5605 54.6233 31.6105 55.9033 30.6105C56.164 30.3775 56.331 30.0577 56.3733 29.7106C56.4164 29.0281 56.4231 28.3438 56.3933 27.6606ZM59.6533 33.0507C58.9933 33.0007 58.3333 32.7406 57.9633 32.9606C56.7733 33.6906 55.6933 34.5906 54.5133 35.4706C55.6533 36.3106 56.6934 37.0706 57.8134 37.8906C58.4434 36.2406 59.0133 34.7507 59.6533 33.0507ZM49.3733 35.4706C48.3933 34.7406 47.4533 34.1206 46.6233 33.3906C46.4803 33.2306 46.3068 33.1011 46.1129 33.0092C45.919 32.9174 45.7087 32.8652 45.4944 32.8559C45.2801 32.8466 45.066 32.8801 44.8649 32.9548C44.6638 33.0294 44.4796 33.1438 44.3233 33.2907C44.8933 34.7807 45.4633 36.2906 46.0833 37.9006C47.2033 37.0806 48.2433 36.3106 49.3833 35.4706H49.3733Z" fill="url(#paint2_linear_2059_348)"/>
<path d="M46.1403 70.1402V61.0403C46.1403 58.6303 47.0303 57.7603 49.4603 57.7603C51.1903 57.7603 52.9103 57.7503 54.6403 57.7603C56.7703 57.7703 57.7603 58.7502 57.7603 60.8602C57.7703 63.9002 57.7603 66.9402 57.7603 70.1302C58.9103 70.1302 60.0203 70.1502 61.1203 70.1302C61.473 70.0704 61.8355 70.1187 62.1603 70.2686C62.4851 70.4185 62.7569 70.6631 62.9402 70.9703C63.0891 71.3129 63.1278 71.6934 63.0507 72.0589C62.9737 72.4244 62.7848 72.7569 62.5103 73.0103C59.5103 76.9203 56.5203 80.8603 53.5203 84.7803C52.3903 86.2603 51.4602 86.2503 50.3202 84.7603C47.3502 80.8603 44.377 76.9604 41.4003 73.0604C40.9303 72.4504 40.5003 71.8403 40.9003 71.0303C41.3103 70.1903 42.0703 70.1202 42.8803 70.1302C43.9303 70.1502 44.9703 70.1302 46.1403 70.1302V70.1402ZM49.1902 60.8401V62.0303C49.1902 65.1103 49.2004 68.1803 49.1804 71.2603C49.1804 72.6503 48.6503 73.1602 47.2803 73.1702C46.7003 73.1802 46.1103 73.1702 45.3303 73.1702C47.6103 76.1702 49.7404 78.9601 51.9304 81.8401C54.1504 78.9401 56.2803 76.1402 58.5403 73.1702H56.7803C55.1703 73.1702 54.7103 72.7202 54.7103 71.1502V61.9202C54.7103 61.5602 54.6803 61.2101 54.6603 60.8401H49.1902Z" fill="url(#paint3_linear_2059_348)"/>
<path d="M58.1338 93.4296C56.5938 95.9296 55.1139 98.3096 53.6439 100.69C52.4839 102.56 51.3939 102.57 50.2639 100.73L46.3638 94.4296C46.1738 94.1196 45.9638 93.8196 45.7338 93.4596C44.6438 94.7996 43.6138 96.0495 42.6138 97.3295C42.4082 97.6184 42.1321 97.8501 41.8118 98.0024C41.4915 98.1546 41.1378 98.2225 40.7839 98.1996C38.8939 98.1696 36.9938 98.1996 35.0938 98.1896C33.9538 98.1796 33.2939 97.6496 33.2739 96.7296C33.2539 95.8096 33.9438 95.1696 35.1038 95.1496C36.5938 95.1296 38.0838 95.1096 39.5738 95.1596C39.8568 95.1812 40.1405 95.1267 40.3954 95.0019C40.6504 94.877 40.8673 94.6864 41.0239 94.4496C42.1639 92.9796 43.3439 91.5395 44.5239 90.0995C45.4839 88.9295 46.5738 88.9997 47.3838 90.2897C48.6938 92.3797 49.9739 94.4895 51.2739 96.5795C51.4639 96.8995 51.6738 97.1995 51.9538 97.6195C53.3538 95.3495 54.7039 93.1797 56.0439 91.0097C56.2139 90.7197 56.3838 90.4296 56.5838 90.1496C56.701 89.9008 56.8833 89.6883 57.1113 89.5346C57.3393 89.3808 57.6046 89.2914 57.8792 89.276C58.1538 89.2607 58.4273 89.3198 58.6711 89.4472C58.9148 89.5745 59.1197 89.7655 59.2639 89.9997C60.5239 91.4997 61.7138 93.0697 62.9838 94.5597C63.2881 94.8888 63.7067 95.0889 64.1539 95.1195C65.6739 95.1895 67.2038 95.1396 68.7238 95.1596C69.9338 95.1696 70.6038 95.7496 70.6038 96.6996C70.6038 97.6496 69.9438 98.1896 68.7138 98.1896C66.8138 98.1996 64.9139 98.2596 63.0239 98.1596C62.3739 98.0929 61.7684 97.7989 61.3139 97.3295C60.2039 96.1195 59.2138 94.7896 58.1338 93.4396V93.4296Z" fill="url(#paint4_linear_2059_348)"/>
<defs>
<linearGradient id="paint0_linear_2059_348" x1="16.1313" y1="63.0371" x2="16.1313" y2="104.44" gradientUnits="userSpaceOnUse">
<stop stop-color="#6306FC"/>
<stop offset="1" stop-color="#24B0B3"/>
</linearGradient>
<linearGradient id="paint1_linear_2059_348" x1="88.834" y1="63" x2="88.834" y2="104.441" gradientUnits="userSpaceOnUse">
<stop stop-color="#6306FC"/>
<stop offset="1" stop-color="#24B0B3"/>
</linearGradient>
<linearGradient id="paint2_linear_2059_348" x1="51.952" y1="0.443359" x2="51.952" y2="53.8605" gradientUnits="userSpaceOnUse">
<stop stop-color="#6306FC"/>
<stop offset="1" stop-color="#24B0B3"/>
</linearGradient>
<linearGradient id="paint3_linear_2059_348" x1="51.9158" y1="57.7559" x2="51.9158" y2="85.8841" gradientUnits="userSpaceOnUse">
<stop stop-color="#6306FC"/>
<stop offset="1" stop-color="#24B0B3"/>
</linearGradient>
<linearGradient id="paint4_linear_2059_348" x1="51.9386" y1="89.2695" x2="51.9386" y2="102.101" gradientUnits="userSpaceOnUse">
<stop stop-color="#6306FC"/>
<stop offset="1" stop-color="#24B0B3"/>
</linearGradient>
</defs>
</svg>
