<svg width="100" height="100" viewBox="0 0 100 100" fill="none" xmlns="http://www.w3.org/2000/svg">
<path d="M0.359375 50.1499C0.915561 49.7516 1.51423 49.4162 2.14438 49.1499C12.1164 46.1299 22.1014 43.1499 32.0734 40.1399C32.9301 39.8631 33.8528 39.8666 34.7074 40.1499C41.574 42.2199 48.4434 44.2765 55.3154 46.3198C55.5894 46.3998 55.8654 46.4698 56.2454 46.5698C56.2454 44.9098 56.2454 43.34 56.2454 41.77C56.2504 40.33 56.7184 39.8398 58.1454 39.8398H90.2344C91.6234 39.8398 92.0804 40.31 92.0834 41.72C92.0934 46.74 92.0934 51.7634 92.0834 56.79C92.0834 57.94 91.5434 58.6099 90.6704 58.6299C89.7704 58.6499 89.1954 57.96 89.1934 56.76C89.1824 52.51 89.1884 48.26 89.1884 44V42.8H78.4444V43.8101C78.4444 45.7701 78.4574 47.74 78.4394 49.7C78.4284 50.84 77.9124 51.3899 76.7934 51.4099C75.0554 51.4399 73.3157 51.4399 71.5744 51.4099C70.4274 51.3899 69.9414 50.87 69.9344 49.72C69.9214 47.44 69.9284 45.1601 69.9284 42.8101H59.1484C59.1484 44.2601 59.1224 45.6999 59.1794 47.1399C59.1874 47.3299 59.5794 47.5699 59.8404 47.6599C61.4934 48.1799 63.1624 48.6699 64.8224 49.1799C66.1604 49.5899 66.4164 49.9201 66.4164 51.3101C66.4164 56.5001 66.4164 61.6865 66.4164 66.8699V68.0999H89.1934C89.1934 66.7999 89.1934 65.4899 89.1934 64.1899C89.1768 63.673 89.1898 63.1554 89.2324 62.6399C89.2371 62.4611 89.2782 62.2852 89.353 62.1228C89.4279 61.9604 89.535 61.815 89.6678 61.6953C89.8006 61.5756 89.9564 61.4842 90.1256 61.4265C90.2949 61.3689 90.4741 61.3461 90.6524 61.3599C90.8394 61.3497 91.0265 61.3789 91.2015 61.4456C91.3765 61.5122 91.5357 61.6149 91.6686 61.7468C91.8016 61.8787 91.9054 62.0369 91.9734 62.2114C92.0414 62.3859 92.072 62.5729 92.0634 62.76C92.1144 64.15 92.0864 65.5299 92.0894 66.9199V68.1699H97.1894C98.9354 68.1699 99.3404 68.5799 99.3404 70.3499C99.3404 79.3699 99.3304 88.3799 99.3564 97.4099C99.4006 97.8064 99.3319 98.2075 99.1582 98.5667C98.9844 98.9258 98.7127 99.2285 98.3744 99.4399H0.359375V50.1499ZM23.6434 82.8198V81.55C23.6434 78.07 23.6374 74.5899 23.6434 71.1099C23.6434 69.5499 24.1054 69.0898 25.6524 69.0898H41.1154C42.6624 69.0898 43.0964 69.5399 43.0994 71.1199C43.0994 74.6699 43.0994 78.2133 43.0994 81.75V82.8198C45.3074 82.8198 47.3654 82.8098 49.4264 82.8198C50.9264 82.8198 51.3924 83.28 51.3924 84.77C51.3924 88.35 51.3924 91.92 51.3924 95.5V96.48H55.1994V60.1499H11.6464C11.6074 60.2258 11.5785 60.3065 11.5604 60.3899C11.5534 62.7399 11.5604 65.0899 11.5374 67.4399C11.5274 68.5499 10.9304 69.1999 10.0214 69.1699C9.14336 69.1299 8.65237 68.5299 8.64737 67.4299C8.63737 65.1999 8.64237 62.98 8.64737 60.76C8.64737 58.18 9.62537 57.1899 12.1954 57.1899H54.6224C57.1074 57.1899 58.1504 58.23 58.1504 60.71V96.5H63.4664C63.4864 96.18 63.5204 95.8899 63.5204 95.6099C63.5204 81.3099 63.5274 67.01 63.5414 52.71C63.5607 52.5716 63.5523 52.4308 63.5166 52.2957C63.4809 52.1605 63.4187 52.0339 63.3335 51.9231C63.2483 51.8123 63.1419 51.7196 63.0205 51.6504C62.8991 51.5812 62.7651 51.5369 62.6264 51.52C53.1634 48.71 43.7104 45.8601 34.2444 43.0601C33.6994 42.9067 33.1231 42.9032 32.5764 43.05C23.1414 45.85 13.7224 48.69 4.28738 51.48C4.12103 51.5014 3.96081 51.5567 3.81659 51.6423C3.67237 51.728 3.5472 51.8422 3.44876 51.978C3.35032 52.1138 3.28069 52.2684 3.24417 52.4321C3.20765 52.5958 3.20501 52.7652 3.23639 52.9299C3.26906 67.0699 3.2767 81.2132 3.25937 95.3599V96.49H8.64438V74.1299C8.62992 73.8097 8.63762 73.489 8.66739 73.1699C8.68818 72.8432 8.8302 72.5359 9.06567 72.3083C9.30114 72.0808 9.61308 71.9495 9.94037 71.9399C10.2642 71.883 10.5975 71.9516 10.8725 72.1318C11.1475 72.3121 11.3434 72.5903 11.4204 72.9099C11.5151 73.2821 11.5546 73.6664 11.5374 74.05C11.5427 81.1301 11.5444 88.2167 11.5424 95.3101V96.49H15.3774V84.98C15.3774 83.2 15.7574 82.8201 17.5114 82.8101H23.6424L23.6434 82.8198ZM96.3814 96.51V71.1499H85.6684C85.6684 73.4799 85.6784 75.73 85.6684 77.98C85.6604 79.26 85.1834 79.74 83.9304 79.74C82.2544 79.75 80.5791 79.75 78.9044 79.74C77.6674 79.74 77.1684 79.24 77.1584 77.96C77.1424 76.03 77.1584 74.0999 77.1504 72.1599C77.1504 71.8199 77.1174 71.4799 77.0994 71.1399H66.4884V96.5H96.3814V96.51ZM48.4374 96.51V85.8H43.1044C43.1044 86.43 43.1094 86.97 43.1044 87.52C43.0884 88.65 42.5564 89.29 41.6424 89.27C40.7534 89.26 40.2244 88.6 40.2084 87.47C40.2014 86.9 40.2084 86.34 40.2084 85.77H34.8914V96.51H48.4374ZM34.8134 72.04C34.8134 72.72 34.8234 73.2999 34.8134 73.8699C34.7874 74.9499 34.2584 75.55 33.3694 75.55C32.4994 75.5401 31.9544 74.9099 31.9234 73.8499C31.9054 73.2499 31.9234 72.65 31.9234 72.05H26.6234V82.74H40.1594V72.04H34.8154H34.8134ZM18.3224 96.48H31.8404V85.79H26.5404C26.5404 86.47 26.5614 87.0699 26.5354 87.6799C26.4914 88.6999 25.9594 89.27 25.0974 89.27C24.2354 89.27 23.6974 88.6899 23.6554 87.6799C23.6274 87.0499 23.6554 86.42 23.6554 85.78H18.3324L18.3224 96.48ZM75.4894 48.45V42.8101H72.8784V48.45H75.4894ZM80.1154 71.1299V76.77H82.6924V71.1299H80.1154Z" fill="url(#paint0_linear_2059_624)"/>
<path d="M85.6921 25.3898C85.3921 25.6798 85.1371 25.9198 84.8921 26.1598C82.1834 28.8698 79.4744 31.5799 76.7651 34.2899C75.2871 35.7499 73.8741 35.7599 72.4101 34.3099C71.0391 32.9499 69.6671 31.5798 68.3101 30.2098C67.9983 29.961 67.7466 29.6451 67.5739 29.2855C67.4012 28.926 67.3118 28.5321 67.3125 28.1332C67.3132 27.7343 67.4039 27.3405 67.5778 26.9816C67.7517 26.6226 68.0044 26.3077 68.3171 26.0599C71.0397 23.3199 73.7731 20.5897 76.5171 17.8697C76.8321 17.6082 77.1664 17.3709 77.5171 17.1598C76.6931 16.3798 76.0731 15.7798 75.4561 15.1898C75.0896 14.8899 74.8329 14.4767 74.7264 14.0153C74.6198 13.5538 74.6693 13.0701 74.8671 12.6398C75.046 12.2216 75.3502 11.8692 75.7378 11.631C76.1253 11.3928 76.5772 11.2807 77.0311 11.3099C80.7011 11.2399 84.3691 11.1397 88.0391 11.0897C88.5244 11.0491 89.0127 11.1154 89.4696 11.2841C89.9265 11.4527 90.3408 11.7194 90.6834 12.0655C91.026 12.4117 91.2885 12.8289 91.4524 13.2875C91.6163 13.7461 91.6777 14.235 91.6321 14.7198C91.5801 18.3498 91.4821 21.9898 91.4121 25.6298C91.4467 26.0991 91.3322 26.5674 91.085 26.9679C90.8377 27.3683 90.4703 27.6805 90.0351 27.8597C89.6017 28.0463 89.1193 28.0868 88.6609 27.975C88.2024 27.8631 87.7929 27.6051 87.4941 27.2399C86.9151 26.6299 86.3271 26.0398 85.6941 25.3998L85.6921 25.3898ZM78.5841 14.1798C78.8681 14.4898 78.9741 14.6099 79.0841 14.7299C80.9361 16.6199 80.9311 17.5498 79.0611 19.4198C76.3984 22.0798 73.7337 24.7431 71.0671 27.4098C70.8271 27.6498 70.6051 27.8999 70.4731 28.0499C71.9011 29.4999 73.2521 30.8598 74.8041 32.4298C74.9668 32.1289 75.1581 31.8442 75.3751 31.5797C78.0971 28.8397 80.8271 26.1064 83.5651 23.3798C85.0731 21.8698 86.2071 21.8697 87.7081 23.3497C87.9251 23.5597 88.1551 23.7597 88.5271 24.0997C88.5961 20.8297 88.6791 17.7498 88.7001 14.6798C88.6547 14.5208 88.5697 14.3758 88.453 14.2587C88.3364 14.1415 88.1919 14.056 88.0331 14.0099C84.9551 14.0299 81.8771 14.1098 78.5841 14.1798Z" fill="url(#paint1_linear_2059_624)"/>
<path d="M22.2684 17.1094C22.9784 17.7494 23.6164 18.2895 24.2074 18.8795C26.5848 21.2395 28.9514 23.6062 31.3074 25.9796C32.7384 27.4196 32.7464 28.8396 31.3384 30.2696C29.9824 31.6396 28.6164 33.0094 27.2384 34.3594C26.9893 34.6816 26.6697 34.9424 26.3041 35.1219C25.9385 35.3013 25.5367 35.3946 25.1294 35.3946C24.7222 35.3946 24.3204 35.3013 23.9548 35.1219C23.5892 34.9424 23.2696 34.6816 23.0204 34.3594C20.2804 31.6394 17.5507 28.9095 14.8314 26.1695C14.5748 25.8395 14.3523 25.4843 14.1674 25.1094C13.3254 26.0194 12.7464 26.6596 12.1474 27.2896C11.8516 27.6361 11.4529 27.8792 11.0094 27.9835C10.5659 28.0878 10.1007 28.0477 9.68142 27.8694C9.2563 27.7049 8.89392 27.4106 8.6458 27.0281C8.39768 26.6457 8.27648 26.1948 8.29943 25.7396C8.21943 22.0096 8.11842 18.2696 8.07442 14.5396C8.05134 14.0782 8.12566 13.6171 8.29253 13.1863C8.45941 12.7556 8.71511 12.3648 9.04299 12.0394C9.37087 11.7139 9.7636 11.4611 10.1956 11.2974C10.6276 11.1338 11.0892 11.0629 11.5504 11.0894C15.2854 11.1294 19.0174 11.2296 22.7504 11.3096C23.2044 11.2982 23.6508 11.4266 24.029 11.6778C24.4073 11.929 24.699 12.2908 24.8644 12.7137C25.0298 13.1366 25.061 13.6001 24.9536 14.0413C24.8463 14.4825 24.6056 14.8799 24.2644 15.1795C23.6684 15.7595 23.0594 16.3394 22.2684 17.1094ZM25.0004 32.2796C26.4854 30.7996 27.8524 29.4495 29.4174 27.8995C29.1183 27.7423 28.8361 27.5545 28.5754 27.3394C25.8094 24.5894 23.0518 21.8327 20.3024 19.0694C18.8874 17.6494 18.8844 16.4894 20.2744 15.0694C20.5094 14.8294 20.7314 14.5795 21.0984 14.1795C17.8254 14.1095 14.7474 14.0496 11.6684 13.9796C10.9294 13.9596 10.9584 14.4595 10.9684 14.9695C11.0354 17.8295 11.0994 20.6996 11.1684 23.5596C11.1913 23.7203 11.2319 23.8779 11.2894 24.0296C11.5454 23.7796 11.7334 23.6095 11.9174 23.4295C13.5174 21.8495 14.6004 21.8495 16.1964 23.4395C17.5658 24.8095 18.9324 26.1796 20.2964 27.5496C21.8844 29.1396 23.4674 30.7396 24.9964 32.2796H25.0004Z" fill="url(#paint2_linear_2059_624)"/>
<path d="M52.8476 26.1093V13.7594C52.8476 11.2494 53.5476 10.5495 56.0476 10.5295H56.7556C56.6364 10.33 56.5027 10.1394 56.3556 9.95939C54.4266 7.92939 52.4866 5.8993 50.5606 3.8693C50.1706 3.4593 49.8216 3.13938 49.2926 3.69938C47.1926 5.91938 45.0826 8.12946 42.7926 10.5295C43.4996 10.5295 43.9926 10.5095 44.4866 10.5295C44.7869 10.5216 45.0857 10.5735 45.3658 10.6823C45.6458 10.791 45.9013 10.9543 46.1176 11.1628C46.3339 11.3712 46.5065 11.6206 46.6255 11.8964C46.7445 12.1722 46.8074 12.4691 46.8106 12.7695C46.8806 14.2795 46.8656 15.7895 46.8266 17.3095C46.8328 17.504 46.7993 17.6977 46.7282 17.8788C46.6571 18.06 46.55 18.2248 46.4132 18.3632C46.2765 18.5016 46.113 18.6107 45.9327 18.684C45.7525 18.7573 45.5592 18.7932 45.3646 18.7895C45.1703 18.7816 44.9794 18.7348 44.8033 18.6523C44.6272 18.5697 44.4693 18.4529 44.3389 18.3085C44.2085 18.1642 44.1083 17.9953 44.044 17.8117C43.9798 17.6281 43.9528 17.4336 43.9646 17.2394C43.9286 16.0194 43.9566 14.7994 43.9566 13.4294C43.0316 13.4294 42.1796 13.4094 41.3276 13.4294C40.8735 13.4752 40.4166 13.3748 40.0236 13.1427C39.6305 12.9107 39.3219 12.5591 39.1426 12.1393C38.9432 11.7123 38.8873 11.2323 38.9832 10.7709C39.0791 10.3095 39.3216 9.89147 39.6746 9.57927C42.2156 6.92927 44.7346 4.2493 47.2886 1.6193C47.5994 1.2537 47.9851 0.95933 48.4196 0.755779C48.8542 0.552228 49.3274 0.444358 49.8072 0.439617C50.287 0.434875 50.7623 0.533266 51.2007 0.728191C51.6392 0.923115 52.0307 1.20986 52.3486 1.56926C54.9566 4.24926 57.5166 6.96936 60.0936 9.67936C60.4127 9.98028 60.6297 10.3734 60.7145 10.8036C60.7993 11.2339 60.7476 11.6798 60.5666 12.0793C60.4005 12.505 60.1019 12.866 59.715 13.1091C59.3281 13.3521 58.8732 13.4645 58.4176 13.4294C57.5546 13.4194 56.6896 13.4294 55.7366 13.4294V14.6593C55.7366 18.4393 55.7446 22.1994 55.7316 25.9694C55.7236 28.1494 54.7686 29.0893 52.5986 29.0893C50.6666 29.0993 48.7326 29.1093 46.7986 29.0893C46.4271 29.1243 46.0525 29.0791 45.7001 28.9565C45.3477 28.8339 45.0258 28.6369 44.7563 28.3788C44.4867 28.1208 44.2759 27.8078 44.1381 27.4611C44.0003 27.1144 43.9387 26.742 43.9576 26.3693C43.9156 25.2993 43.9266 24.2394 43.9526 23.1794C43.9776 22.0794 44.5126 21.5095 45.4196 21.5195C46.3266 21.5295 46.8116 22.1194 46.8366 23.2294C46.8576 24.1594 46.8426 25.0893 46.8426 26.1093H52.8476Z" fill="url(#paint3_linear_2059_624)"/>
<defs>
<linearGradient id="paint0_linear_2059_624" x1="49.8644" y1="39.8398" x2="49.8644" y2="99.4399" gradientUnits="userSpaceOnUse">
<stop stop-color="#6306FC"/>
<stop offset="1" stop-color="#24B0B3"/>
</linearGradient>
<linearGradient id="paint1_linear_2059_624" x1="79.4796" y1="11.0781" x2="79.4796" y2="35.3912" gradientUnits="userSpaceOnUse">
<stop stop-color="#6306FC"/>
<stop offset="1" stop-color="#24B0B3"/>
</linearGradient>
<linearGradient id="paint2_linear_2059_624" x1="20.229" y1="11.084" x2="20.229" y2="35.3946" gradientUnits="userSpaceOnUse">
<stop stop-color="#6306FC"/>
<stop offset="1" stop-color="#24B0B3"/>
</linearGradient>
<linearGradient id="paint3_linear_2059_624" x1="49.8459" y1="0.439453" x2="49.8459" y2="29.1008" gradientUnits="userSpaceOnUse">
<stop stop-color="#6306FC"/>
<stop offset="1" stop-color="#24B0B3"/>
</linearGradient>
</defs>
</svg>
