<svg width="114" height="114" viewBox="0 0 114 114" fill="none" xmlns="http://www.w3.org/2000/svg">
<path d="M92.6683 88.26C91.3465 86.9477 89.9515 85.5631 88.7753 84.3951C87.3359 85.8329 85.8076 87.3596 84.3804 88.7852C85.5788 89.9843 86.9671 91.3743 88.2622 92.6711C89.7116 91.22 91.2377 89.6923 92.6683 88.26ZM89.1785 97.4675C92.9837 101.307 96.73 105.189 100.62 108.924C101.405 109.677 102.699 110.111 103.816 110.265C106.366 110.614 108.647 109.24 109.738 107.001C110.85 104.722 110.456 102.081 108.614 100.212C105.039 96.5871 101.422 93.0031 97.8174 89.4069C97.6941 89.2848 97.5197 89.2137 97.4542 89.1715C94.6653 91.9672 91.9385 94.7007 89.1785 97.4675ZM23.7838 110.308C27.3458 110.308 30.9066 110.315 34.4686 110.306C36.1157 110.301 36.7621 109.656 36.7644 108.007C36.7733 103.412 36.7733 98.8165 36.7644 94.22C36.7621 92.5723 36.1168 91.9284 34.4675 91.9261C27.4202 91.9206 20.3741 91.9206 13.3279 91.9261C11.6763 91.9284 11.0366 92.5701 11.0332 94.2222C11.0254 98.8176 11.0254 103.414 11.0332 108.01C11.0366 109.658 11.6796 110.301 13.329 110.306C16.8143 110.315 20.2985 110.308 23.7838 110.308ZM31.2454 29.4154C34.7685 29.4154 38.2916 29.422 41.8146 29.4132C43.4662 29.4087 44.1149 28.7659 44.1182 27.1227C44.1271 22.5261 44.126 17.9307 44.1182 13.3341C44.116 11.682 43.4729 11.0348 41.828 11.0336C34.7807 11.027 27.7345 11.0281 20.6873 11.0336C19.0323 11.0348 18.3893 11.6743 18.387 13.3219C18.3782 17.9174 18.3793 22.5139 18.387 27.1093C18.3893 28.7625 19.0301 29.4087 20.675 29.4132C24.1992 29.422 27.7223 29.4154 31.2454 29.4154ZM64.2959 36.7698C49.1174 36.7821 36.7466 49.1683 36.7688 64.3313C36.7899 79.5821 49.1251 91.9017 64.3948 91.9228C79.5356 91.9439 91.9119 79.5454 91.9163 64.3535C91.9208 49.1128 79.5478 36.7565 64.2959 36.7698ZM11.071 20.2512V69.7739H33.5723C32.1928 61.4668 33.8499 53.877 38.4048 46.8845C37.8295 46.2538 37.2997 45.6709 36.7333 45.0492C30.4124 51.9407 24.1826 58.7344 17.9039 65.5804C16.9587 64.7177 16.0946 63.9283 15.246 63.1533C15.3393 62.9968 15.3671 62.9213 15.4182 62.8658C22.0134 55.6634 28.6053 48.4588 35.2116 41.2665C36.2557 40.1284 37.2986 40.1595 38.3515 41.302C39.1423 42.1613 39.9076 43.0429 40.7073 43.9411C46.1985 37.7702 52.9325 34.2751 60.9394 33.2536C60.9239 33.0937 60.9406 33.0038 60.9061 32.9461C58.7458 29.4687 56.5878 25.9891 54.4053 22.5261C54.2698 22.3096 53.9444 22.0887 53.7045 22.0831C51.7652 22.0476 49.8249 22.0642 47.7979 22.0642C47.7979 23.8729 47.8045 25.5505 47.7956 27.2281C47.779 30.7577 45.4877 33.0826 41.9868 33.0882C34.8251 33.1004 27.6634 33.1015 20.5007 33.0882C17.0576 33.0826 14.7218 30.7544 14.7107 27.3236C14.6962 22.6127 14.6985 17.9018 14.7096 13.1898C14.7185 9.67911 17.0342 7.36196 20.544 7.35641C27.6679 7.34753 34.7918 7.34864 41.9157 7.35641C45.5021 7.35974 47.7812 9.6569 47.7968 13.2597C47.8034 14.934 47.7979 16.6083 47.7979 18.3848C50.0115 18.3848 52.1129 18.4647 54.2043 18.3581C55.6648 18.2826 56.5212 18.8622 57.2598 20.0813C59.7577 24.2048 62.3333 28.2829 64.9312 32.3443C65.1867 32.744 65.7698 33.0693 66.2529 33.1637C68.351 33.5734 70.4646 33.9153 72.5827 34.204C72.9881 34.2595 73.5646 34.0907 73.8511 33.8098C76.9699 30.7544 80.0476 27.6567 83.1308 24.5657C83.2941 24.4014 83.4074 24.1882 83.6495 23.8507H79.1335V20.2267C82.2001 20.2267 85.1834 20.2134 88.1678 20.2334C89.234 20.2401 90.0104 20.8263 90.0371 21.8755C90.1148 24.9643 90.0648 28.0564 90.0648 31.1807H86.3363V26.9483C83.3541 29.9305 80.363 32.9216 77.3553 35.9294C84.9501 39.5322 90.5024 45.2523 93.5435 53.2508C96.5945 61.2759 96.2136 69.2665 92.826 77.2161C97.9173 77.2161 102.855 77.2183 107.795 77.215C109.731 77.2139 110.301 76.6321 110.301 74.6636C110.304 51.8363 110.304 29.009 110.301 6.18063C110.301 4.24653 109.719 3.67807 107.749 3.67807C73.8922 3.67696 40.0353 3.67696 6.17955 3.67807C4.24252 3.67807 3.6783 4.25541 3.6783 6.23059C3.67608 29.019 3.67608 51.8085 3.67719 74.5981C3.67719 76.6887 4.21587 77.215 6.34615 77.215C15.7681 77.2161 25.19 77.2161 34.6119 77.2161H35.8403C35.4793 76.2624 35.0917 75.4296 34.8562 74.557C34.6385 73.7498 34.2387 73.5144 33.4057 73.5189C25.5931 73.5533 17.7795 73.54 9.96697 73.5388C7.91332 73.5377 7.35465 72.9915 7.35465 70.9797C7.35354 54.4721 7.35354 37.9634 7.35354 21.4558V20.2512H11.071ZM40.444 99.2728C42.611 99.2728 44.668 99.2773 46.725 99.2639C46.896 99.2628 47.1092 99.1773 47.2303 99.0574C49.1051 97.2066 50.9689 95.3436 52.9037 93.415C48.2388 91.4909 44.2903 88.784 41.0516 85.0968C40.1197 84.0343 39.2345 82.9162 38.4604 81.736C38.0172 81.061 37.543 80.8767 36.7844 80.8778C26.5961 80.9 16.4089 80.8933 6.22176 80.8922C2.17332 80.8911 0.000832957 78.7061 0.000832957 74.6347C-0.000277652 51.8463 -0.000277652 29.0579 0.000832957 6.26834C0.000832957 2.14033 2.16111 0.000832867 6.32394 0.000832867C40.1031 -0.000277622 73.8822 -0.000277622 107.662 0.000832867C111.819 0.000832867 113.979 2.14478 113.979 6.275C113.98 29.0645 113.98 51.8529 113.979 74.6414C113.979 78.7183 111.813 80.8911 107.75 80.8922C102.58 80.8944 97.4098 80.8933 92.2395 80.8933H91.1466C92.6916 82.4211 94.1732 83.8866 95.726 85.4221C95.736 85.4144 95.9159 85.29 96.088 85.1557C97.1443 84.3307 97.9618 84.3418 98.9292 85.3044C103.055 89.4114 107.219 93.4816 111.261 97.6707C114.977 101.523 114.874 107.416 111.181 111.135C107.456 114.888 101.525 114.99 97.6341 111.228C93.4779 107.208 89.4317 103.074 85.3511 98.9764C84.2482 97.8694 84.3026 97.1089 85.3733 95.8321C83.8095 94.271 82.2545 92.7178 80.5741 91.0401C79.9399 91.381 79.0235 91.9161 78.0728 92.3802C71.582 95.5501 64.798 96.3905 57.7407 94.8395C57.0854 94.6952 56.69 94.804 56.2379 95.2636C54.0643 97.4764 51.8385 99.6392 49.6782 101.865C48.9308 102.635 48.1366 103.006 47.047 102.973C44.9068 102.909 42.7632 102.955 40.444 102.955C40.444 104.51 40.4452 106.024 40.444 107.539C40.4429 111.908 38.3504 113.985 33.951 113.985C27.0948 113.985 20.2397 113.988 13.3845 113.984C9.62821 113.982 7.3602 111.729 7.35465 107.996C7.3491 103.4 7.3491 98.8043 7.35576 94.2077C7.3602 90.5338 9.63377 88.2511 13.2946 88.2489C20.3796 88.2422 27.4646 88.2411 34.5508 88.2489C38.1405 88.2522 40.4274 90.5472 40.4429 94.1411C40.4507 95.8154 40.444 97.4908 40.444 99.2728Z" fill="url(#paint0_linear_2072_1013)"/>
<path d="M51.3404 56.1927C55.2741 52.2325 59.156 48.3235 63.0059 44.4478C56.9745 44.9317 52.0036 47.5949 48.1526 52.5851C49.3002 53.8844 50.4047 55.1348 51.3404 56.1927ZM46.4588 73.8745C49.9743 81.3366 58.4377 85.7851 66.837 84.7284C76.3298 83.5336 83.7482 75.5565 84.3186 65.9319C84.8924 56.2283 78.5885 47.468 69.3274 45.0407C68.5683 44.8416 68.0905 44.9529 67.5343 45.5191C62.8779 50.2602 58.1894 54.9702 53.5086 59.689C51.7509 61.4611 51.0557 61.44 49.437 59.5911C48.3909 58.3953 47.3316 57.2117 46.2514 55.9914C44.06 59.6011 43.5116 66.398 45.0828 70.2058H67.8367V73.8745H46.4588ZM87.9997 64.706C87.9313 77.9927 77.2589 88.6563 64.0939 88.5929C50.9387 88.5306 40.4142 77.6645 40.519 64.2555C40.6217 51.2169 51.4353 40.6178 64.5385 40.7135C77.4652 40.8091 88.067 51.6507 87.9997 64.706ZM40.4628 18.5475H22.3433V15H40.4628V18.5475ZM22.3058 22.3475H40.4242V25.895H22.3058V22.3475ZM15 96.0271H33.1194V99.5757H15V96.0271ZM33.115 107H15.0364V103.415H33.115V107Z" fill="url(#paint1_linear_2072_1013)"/>
<defs>
<linearGradient id="paint0_linear_2072_1013" x1="57" y1="0" x2="57" y2="114" gradientUnits="userSpaceOnUse">
<stop stop-color="#4EACB4"/>
<stop offset="1" stop-color="#620FF9"/>
</linearGradient>
<linearGradient id="paint1_linear_2072_1013" x1="51.5" y1="15" x2="51.5" y2="107" gradientUnits="userSpaceOnUse">
<stop stop-color="#4EACB4"/>
<stop offset="1" stop-color="#620FF9"/>
</linearGradient>
</defs>
</svg>
