<?xml version="1.0" encoding="UTF-8"?><svg id="Capa_1" xmlns="http://www.w3.org/2000/svg" viewBox="0 0 155.08 60"><path d="M60.37,39.82c-.11-1.01-.21-2.03-.66-2.94-1.37-2.73-3.74-3.99-6.68-4.06-4.2-.11-8.39-.02-12.59-.02-1.56,0-3.13,0-4.69-.02-.38,0-.51.11-.49.51.04.66.02,1.33,0,2.01,0,.32.11.4.4.4.61-.02,1.23,0,1.84-.02.36,0,.49.08.49.46-.02,2.07,0,4.16,0,6.4-.21-.3-.32-.46-.42-.61-1.8-2.92-3.59-5.81-5.39-8.73-.15-.23-.27-.42-.63-.42-2.54.02-5.07.02-7.61.02-.3-.02-.42.06-.4.38.02.74.02,1.48,0,2.2-.02.36.13.44.44.44.55-.02,1.1,0,1.65-.02.36-.02.49.08.49.46v10.63c0,.13.04.34-.08.36-.46.13-.95.08-1.42.04-.3-.02-.3-.36-.36-.55-1.52-4.48-3.06-8.96-4.56-13.46-.13-.38-.3-.51-.7-.51-1.54.04-3.08.02-4.63,0-.38,0-.57.13-.68.49-1.44,4.25-2.87,8.52-4.29,12.78-.42,1.2-.4,1.2-1.69,1.27h-.06c-.25-.02-.38.06-.38.36.02.63.02,1.27,0,1.9,0,.25.08.36.34.36,2.2,0,4.39.02,6.59.04.23,0,.32-.08.3-.32v-2.01c.02-.27-.08-.36-.34-.34-.4,0-.78-.02-1.18,0-.27,0-.36-.11-.27-.36.17-.46.32-.93.42-1.42.08-.32.23-.44.57-.42,1.06.02,2.09,0,3.15,0s1.01,0,1.35.93q.44,1.25-.91,1.27h-.13c-.34-.04-.49.08-.46.44.02.57.02,1.12,0,1.67-.04.46.13.55.57.55,2.49-.02,4.97,0,7.46,0s4.8-.02,7.18,0c.38,0,.53-.08.51-.49-.02-.57-.02-1.16,0-1.73.02-.38-.13-.46-.49-.44-.46.02-.95-.02-1.42,0-.34.02-.46-.08-.44-.42.02-.7,0-1.39,0-2.09v-3.8c.25.15.32.36.4.51,1.54,2.68,3.08,5.35,4.61,8.01.19.34.4.46.78.46,1.5-.02,3.02-.04,4.52,0,.57.02.72-.13.72-.7-.04-4.29,0-8.6-.04-12.89,0-.63.19-.76.76-.72.53.04,1.06.04,1.61,0,.46-.02.59.13.59.59-.02,3.28-.02,6.53-.02,9.78,0,1.2,0,1.23-1.2,1.25-.38.02-.42.17-.42.46.02.57.04,1.16.02,1.73-.02.38.11.49.51.49,1.65-.02,3.32,0,4.97,0,1.9,0,3.8.02,5.68-.21,3.06-.38,5.81-2.66,6.61-5.56.38-1.44.38-2.92.21-4.39ZM16.72,42.17c-.66-.02-1.29,0-1.94,0-.19,0-.34-.02-.25-.25.38-1.27.76-2.51,1.14-3.76h.11c.38,1.25.78,2.47,1.18,3.7.06.23.02.32-.23.32ZM55.2,44.34c-.66,1.99-2.26,2.94-4.31,2.7-.4-.04-.49-.19-.49-.55.02-1.73.02-3.47.02-5.2s0-3.44-.02-5.16c0-.46.17-.59.57-.57.78.02,1.54.11,2.28.34,1.25.42,1.88,1.39,2.18,2.6.49,1.97.4,3.93-.23,5.83Z" style="fill:#0f496c; stroke-width:0px;"/><path d="M109.63,23.07c-.72,2.48-1.45,4.95-2.15,7.44-.11.38-.24.54-.67.53-1.36-.03-2.73-.03-4.09,0-.4,0-.53-.14-.63-.5-.67-2.49-1.37-4.97-2.12-7.45,0,1.53,0,3.06,0,4.6,0,.97-.01,1.94,0,2.91,0,.31-.05.45-.41.45-1.56-.02-3.13-.02-4.69,0-.32,0-.39-.11-.39-.41,0-4.96,0-9.93,0-14.89,0-.31.08-.4.4-.4,2.69.01,5.38.01,8.07,0,.34,0,.42.15.5.44.58,2.15,1.26,4.28,1.77,6.45.03.13.09.26.14.41.63-2.29,1.26-4.54,1.86-6.8.1-.36.23-.5.63-.49,2.51.02,5.02.02,7.54,0,.41,0,.53.09.53.51-.02,4.89-.01,9.77,0,14.66,0,.39-.06.55-.5.54-1.74-.03-3.48-.02-5.22,0-.4,0-.49-.12-.48-.5.02-2.49,0-4.98,0-7.47-.03,0-.05,0-.08,0Z" style="fill:#0d486b; stroke-width:0px;"/><path d="M42,22.37c.3.97.54,1.92.99,2.8.39.76.84,1.48,1.44,2.09.33.33.23.49-.11.72-1.33.91-2.79,1.61-4.4,1.56-4.31-.13-8.12-2.17-9.25-7.11-.2-.88,0-1.81-.14-2.71-.26-1.79-1.9-3.42-3.65-3.38-1.55.03-3,1.01-3.48,2.81-.42,1.56.14,2.86,1.28,3.89,1.16,1.05,2.52,1.14,3.93.55.42-.18.54-.16.67.3.39,1.35,1.09,2.53,2.01,3.59.5.57.5.6-.14.97-3.05,1.76-7.11,1.39-9.91-.95-1.74-1.45-2.91-3.26-3.22-5.49-.37-2.73.13-5.29,1.97-7.49,2.05-2.45,4.72-3.47,7.82-3.28,2.46.14,4.37,1.43,5.89,3.36,1.32,1.69,1.79,3.67,2.03,5.72.19,1.61,1.03,2.78,2.44,3.14,1.1.29,2.15.04,3.12-.54.23-.14.44-.33.69-.52Z" style="fill:#dccea3; stroke-width:0px;"/><path d="M141.29,31.62c1.22.13,2.42.35,3.52.94,1.93,1.03,3.05,3.15,2.8,5.28-.03.25-.13.28-.33.28-1.66,0-3.32-.01-4.98,0-.41,0-.3-.26-.31-.47-.08-1.11-.76-1.7-1.78-1.58-.5.06-.86.3-1.01.78-.15.51.08.88.48,1.17.68.49,1.48.74,2.26,1.02,1.02.37,2.03.76,2.99,1.27,4.15,2.16,3.13,7.25.49,9.06-2.71,1.86-7.96,1.85-10.57-.13-1.55-1.18-2.09-2.81-1.99-4.7.01-.26.14-.28.34-.28,1.64,0,3.28,0,4.92,0,.31,0,.33.14.36.38.19,1.31,1.01,1.86,2.26,1.54.44-.11.74-.36.82-.83.08-.44-.09-.76-.45-1.01-.59-.41-1.26-.64-1.93-.89-1.11-.42-2.22-.81-3.26-1.39-1.94-1.09-3.04-2.66-2.87-4.96.18-2.45,1.48-4.05,3.74-4.91.84-.32,1.72-.42,2.59-.56.63,0,1.27,0,1.9,0Z" style="fill:#0e486b; stroke-width:0px;"/><path d="M124.52,49.71c-1.5-5.73-3-11.45-4.5-17.18-.06-.3-.17-.46-.53-.44-2.09.02-4.18,0-6.3,0-.34,0-.46.11-.55.42-1.5,5.77-3.02,11.54-4.54,17.28-.08.34-.04.44.32.44,1.67-.02,3.32-.02,4.99,0,.34,0,.44-.13.49-.42.13-.63.32-1.27.44-1.9.06-.27.17-.4.46-.4.8.02,1.63.02,2.43,0,.32,0,.4.13.44.4.08.59.27,1.16.34,1.75.04.49.25.59.72.57.87-.04,1.73,0,2.62,0s1.82-.02,2.73,0c.44.02.57-.06.44-.53ZM116.7,43.96h-.17c-1.31.04-1.31.06-1.06-1.23.23-1.1.44-2.22.68-3.34h.08c.21,1.44.44,2.87.68,4.31.02.17-.02.25-.21.25Z" style="fill:#0e486b; stroke-width:0px;"/><path d="M109.24,36.29c-.15-.97-.53-1.84-1.23-2.56-1.06-1.08-2.39-1.56-3.85-1.58-3.04-.06-6.09-.04-9.13-.06-.46-.02-.61.11-.59.57.02,2.83,0,5.66,0,8.49v8.6c0,.38.08.49.49.49,1.84-.02,3.68-.02,5.51,0,.44.02.51-.15.51-.53-.02-1.63,0-3.25-.02-4.86-.02-.51.15-.63.63-.61.97.02,1.97.02,2.96-.04,2.7-.21,4.54-2.01,4.75-4.69.08-1.08.11-2.13-.04-3.21ZM103.05,39.4c-.02.85-.32,1.14-1.14,1.16h-.59c-.27.02-.4-.08-.38-.36.02-.57,0-1.14,0-1.71,0-.51.04-.99,0-1.48-.06-.51.15-.59.59-.57,1.31.02,1.52.19,1.52,1.48v1.48Z" style="fill:#0e486b; stroke-width:0px;"/><path d="M139.41,31.5c-2.49-.19-4.8-.88-6.95-2.43.19.59.34,1.07.5,1.55.1.3.06.43-.3.41-.75-.02-1.5,0-2.25,0-.09-.26.12-.38.22-.52,1.22-1.7,2.5-3.36,3.8-5.01.22-.27.34-.32.65-.1,1.22.89,2.57,1.54,4.05,1.87.6.13,1.22.15,1.83.05.33-.06.62-.2.68-.56.06-.35-.21-.54-.47-.69-.96-.52-2.03-.76-3.05-1.11-1.06-.37-2.1-.79-3.06-1.4-3.01-1.92-2.42-5.67-.15-7.3,1.09-.78,2.31-1.19,3.63-1.33,3.17-.32,6.14.19,8.73,2.21.59.46.58.46.08,1-.67.73-1.34,1.45-1.98,2.2-.25.29-.42.34-.77.13-1.24-.75-2.55-1.33-4.02-1.49-.34-.04-.68-.02-1,.07-.27.07-.52.22-.57.54-.06.33.15.51.4.66.57.33,1.2.5,1.82.68,1.44.43,2.87.84,4.2,1.57,3.58,1.95,2.7,6.15.17,7.73-1.33.83-2.79,1.16-4.32,1.28-.62,0-1.24,0-1.87,0Z" style="fill:#0e496b; stroke-width:0px;"/><path d="M131.54,26.23c-1.14-3.49-2.28-6.97-3.4-10.46-.11-.36-.25-.46-.61-.44h-6.04c-.34,0-.49.08-.57.4-1.61,4.97-3.21,9.95-4.82,14.92-.11.3-.08.38.23.38,1.69-.02,3.36-.02,5.05,0,.3,0,.4-.11.46-.4.15-.57.34-1.14.49-1.71.06-.27.19-.4.51-.4.89.02,1.75.02,2.62,0,.32,0,.44.13.51.42.15.61.3,1.2.46,1.82.04,0,.06-.02.11-.02.4-1.12.82-2.22,1.2-3.34.13-.4.32-.51.72-.51.87.04,1.73.02,2.6.02q.7,0,.49-.68ZM124.99,25.26c-.02.06-1.48.06-1.5,0-.02-.04-.04-.13-.02-.21.27-1.06.53-2.13.78-3.21h.13c.21,1.06.44,2.11.63,3.15.02.08.02.19-.02.27Z" style="fill:#0e486b; stroke-width:0px;"/><path d="M63.59,41.25c0-1.74,0-3.48,0-5.22,0-.38-.09-.53-.5-.51-.61.03-1.23,0-1.84.01-.29,0-.37-.1-.37-.37.02-.65.02-1.31,0-1.96,0-.3.08-.41.4-.41,3.18.01,6.37,0,9.55,0,.27,0,.4.06.39.36-.02.67-.02,1.35,0,2.02,0,.3-.12.37-.39.36-.55-.01-1.11,0-1.66,0-.3,0-.42.07-.42.4,0,3.54.01,7.08,0,10.62,0,.36.14.43.45.42.59-.02,1.19,0,1.78,0,.28,0,.38.09.37.37-.02.77-.01,1.54,0,2.31,0,.26-.09.33-.35.33-3.26,0-6.53,0-9.79,0-.26,0-.34-.1-.34-.35,0-.75.02-1.5,0-2.25,0-.3.11-.36.38-.36.61.02,1.23-.02,1.84.01.41.02.49-.13.48-.5-.02-1.76,0-3.52,0-5.28Z" style="fill:#0e496b; stroke-width:0px;"/><path d="M125.24,41.15c0-2.83.01-5.65-.01-8.48,0-.46.11-.6.58-.59,1.78.03,3.56.02,5.34,0,.38,0,.55.05.55.5-.02,5.73-.01,11.47,0,17.2,0,.37-.1.46-.46.46-1.84-.02-3.68-.02-5.52,0-.39,0-.49-.1-.49-.49.02-2.87,0-5.73,0-8.6Z" style="fill:#0d486b; stroke-width:0px;"/><path d="M59.3,15.31c-2.01-2.89-4.75-4.35-8.32-4.14-1.44.06-2.75.49-3.99,1.18-.49.25-.61.8-.21,1.16,1.18,1.08,1.86,2.41,2.32,3.91.21.7.55.8,1.14.44.66-.4,1.33-.55,2.09-.4,1.25.23,2.22,1.18,2.41,2.45.19,1.2-.46,2.51-1.54,3.08-1.12.59-2.51.36-3.47-.49-.91-.85-.95-1.97-1.01-3.06-.11-2.18-.97-4.01-2.47-5.54-1.97-1.99-4.35-2.92-7.16-2.75-1.88.11-3.53.74-5.03,1.84-.4.32-.36.55-.04.87,1.16,1.12,1.8,2.51,2.24,4.04.06.3-.02.72.34.82.36.13.49-.3.72-.51.87-.8,1.86-1.1,3-.74,1.06.32,1.71,1.06,2.01,2.13.17.68.08,1.37.19,2.07.78,5.03,5.35,8.41,10.4,7.73,4.5-.59,7.9-4.54,7.9-9.09,0-1.8-.51-3.61-1.5-5.03ZM52.81,28.43c-4.42.61-8.58-2.35-9.32-6.72-.08-.46-.13-.95-.13-1.42,0-2.87-3.08-4.88-5.81-3.47-.32.17-.4.06-.49-.19-.32-1.04-.87-1.94-1.54-2.79-.23-.3-.19-.42.13-.63,4.35-2.6,10.27-.36,11.77,4.52.3.97.34,1.99.42,2.98.21,1.97,1.8,3.51,3.82,3.63,1.84.08,3.68-1.33,3.99-3.21.25-1.5-.17-2.83-1.37-3.82-1.14-.91-2.45-1.18-3.82-.63-.44.17-.61.11-.78-.32-.38-1.04-.95-1.99-1.67-2.85-.23-.27-.27-.44.13-.66,2.62-1.29,6.34-.85,8.58,1.06,1.99,1.67,3.04,3.78,3.06,6.91.15,3.3-2.89,7.01-6.97,7.61Z" style="fill:#ddcfa5; stroke-width:0px;"/><path d="M83.23,30.03c0,8.17,0,16.34,0,24.5,0,.3.14.68-.44.69-.59.02-.51-.33-.51-.69,0-12.22,0-24.44,0-36.67,0-4.11,0-8.23,0-12.34,0-.3-.22-.75.42-.76.62-.01.52.39.52.76,0,8.17,0,16.34,0,24.5Z" style="fill:#ddcfa5; stroke-width:0px;"/><path d="M128.78,10.72c-.98,1.22-1.87,2.32-2.76,3.43-.12.15-.26.22-.46.21-.87,0-1.74-.01-2.61,0-.35,0-.34-.13-.23-.39.42-.98.82-1.96,1.22-2.95.08-.21.19-.31.43-.31,1.42,0,2.84,0,4.4,0Z" style="fill:#104a6c; stroke-width:0px;"/><path d="M139.41,31.5c.62,0,1.24,0,1.87,0,0,.04.01.09.02.13-.63,0-1.27,0-1.9,0,0-.04.01-.08.02-.13Z" style="fill:#ddcfa5; stroke-width:0px;"/></svg>