<?xml version="1.0" encoding="UTF-8"?><svg id="Capa_1" xmlns="http://www.w3.org/2000/svg" viewBox="0 0 600 600"><path d="M4.2,347.56c0,.53.43.96.96.96h589.67c.53,0,.96-.43.96-.96s-.43-.96-.96-.96H5.17c-.53,0-.96.43-.96.96Z" style="fill:#3f3d56; stroke-width:0px;"/><polygon points="381.78 143.38 384.88 182.96 429.72 164.23 404.42 123.98 381.78 143.38" style="fill:#a0616a; stroke-width:0px;"/><circle cx="380.44" cy="122.02" r="33.42" style="fill:#a0616a; stroke-width:0px;"/><polygon points="317.91 433.65 323.57 484.42 283.95 478.93 296.89 432.03 317.91 433.65" style="fill:#a0616a; stroke-width:0px;"/><polygon points="472.34 440.93 478 491.69 438.38 486.21 451.32 439.31 472.34 440.93" style="fill:#a0616a; stroke-width:0px;"/><path d="M378.15,287.71c-.54,0-43.78,2.17-72.35,3.61-13.52.68-23.81,12.38-22.76,25.88l10.21,131.41,29.11.81.71-105.92,57.51,3.23-2.43-59.02h0Z" style="fill:#2f2e41; stroke-width:0px;"/><path d="M505.09,286.9s7.28,55.79,1.62,61.45c-5.66,5.66-183.14-4.45-183.14-4.45,0,0,38.93-56.22,45.95-57.83,7.01-1.6,118.59-7.26,118.59-7.26l16.98,8.09Z" style="fill:#2f2e41; stroke-width:0px;"/><path id="uuid-91047c5b-47d7-4179-8a16-40bd6d529b28-79" d="M275.17,216.66c-6.76-9.45-7.36-20.6-1.34-24.9,6.02-4.3,16.37-.12,23.13,9.33,2.75,3.74,4.57,8.09,5.3,12.67l28.13,40.41-16.01,11.08-28.93-39.48c-4.11-2.17-7.63-5.3-10.28-9.11h0Z" style="fill:#a0616a; stroke-width:0px;"/><path d="M380.17,168.45l41.24-16.98,77.62,119.67s-54.17,12.13-72.77,14.55c-18.6,2.43-39.62-7.28-39.62-7.28,0,0-6.47-109.96-6.47-109.96Z" style="fill:#6c63ff; stroke-width:0px;"/><path d="M430.3,188.66l-14.96-46.66,19.41,14.72s54.98,36.38,54.98,51.75,16.98,62.26,16.98,62.26c0,0,19,15.77,12.53,30.32-6.47,14.55,8.49,12.53,10.11,23.04s-23.04,24.66-23.04,24.66c0,0-6.06-59.43-25.47-59.43s-50.53-100.66-50.53-100.66Z" style="fill:#3f3d56; stroke-width:0px;"/><path d="M383.07,167.25l-20.28,8.07s3.23,56.6,6.47,61.45,14.55,30.72,14.55,30.72v8.43s-22.64,6.93-21.83,10.97,53.36,15.36,53.36,15.36c0,0-10.51-32.34-16.98-42.85-6.47-10.51-15.29-92.16-15.29-92.16Z" style="fill:#3f3d56; stroke-width:0px;"/><path d="M370.06,175.32s-23.45-3.23-27.49,24.26c-4.04,27.49-1.47,31.13-1.47,31.13l-6.61,15.77-21.83-24.26-21.02,13.75s38,61.45,53.36,59.83,38-46.09,38-46.09c0,0-12.94-74.39-12.94-74.39Z" style="fill:#3f3d56; stroke-width:0px;"/><path d="M487.17,295.82l-12,169.76-31.13-1.21s-6.87-160.5-6.87-162.92,3.23-16.17,23.45-16.98,26.55,11.35,26.55,11.35Z" style="fill:#2f2e41; stroke-width:0px;"/><path d="M442.02,468.82s16.17-4.85,18.6-1.62c2.43,3.23,16.17,4.85,16.17,4.85l4.04,39.62s-11.32,8.09-12.94,9.7-44.47,3.23-45.28-6.47,11.32-21.83,11.32-21.83l8.09-24.26h0Z" style="fill:#2f2e41; stroke-width:0px;"/><path d="M323.16,457.5s4.85-4.04,6.47,7.28c1.62,11.32,7.28,29.92-.81,32.34s-88.94,3.23-88.94-4.04v-7.28l7.28-5.66,14.56-2.32s28.3-25.98,31.53-25.98,13.75,10.51,13.75,10.51l16.17-4.85h0Z" style="fill:#2f2e41; stroke-width:0px;"/><path d="M413.32,140.15s-16.17-19.41-22.64-17.79-2.43,4.04-2.43,4.04l-16.17-17.79s-12.94-4.85-25.07,10.51c0,0-7.28-12.94,0-20.21,7.28-7.28,9.7-6.47,11.32-10.51,1.62-4.04,12.94-7.28,12.94-7.28,0,0-.65-5.82,2.91-2.91s12.45,2.91,12.45,2.91c0,0,.05-3.23,3.67,0s7.66,1.62,7.66,1.62c0,0,0,5.6,2.83,5.63,2.83.03,7.68-4.01,8.49-.78.81,3.23,6.47,4.85,7.28,14.55s-3.23,38-3.23,38Z" style="fill:#2f2e41; stroke-width:0px;"/><path d="M281.53,222.01l-92.37,63.74c-3.19,2.2-7.57,1.4-9.77-1.79l-26-37.69c-2.2-3.19-1.4-7.57,1.79-9.77l92.37-63.74c3.19-2.2,7.57-1.4,9.77,1.79l26,37.69c2.2,3.19,1.4,7.57-1.79,9.77h0Z" style="fill:#fff; stroke-width:0px;"/><path d="M257.15,174.67l26,37.69c2.14,3.1,1.36,7.34-1.74,9.48l-45.33,31.28c-11.95-3.27-22.86-10.6-30.45-21.6-4.97-7.2-7.97-15.18-9.11-23.29l51.14-35.29c3.1-2.14,7.34-1.36,9.48,1.74h0Z" style="fill:#e6e6e6; stroke-width:0px;"/><path d="M185.19,287.79c-2.49,0-4.94-1.18-6.46-3.38l-26-37.69c-1.19-1.72-1.63-3.8-1.25-5.86.38-2.06,1.53-3.85,3.25-5.03l92.37-63.74c3.56-2.45,8.44-1.55,10.89,2l26,37.69c1.19,1.72,1.63,3.8,1.25,5.86-.38,2.06-1.53,3.85-3.25,5.03l-92.37,63.74c-1.35.93-2.9,1.38-4.44,1.38ZM251.53,172.33c-1.22,0-2.44.36-3.52,1.1l-92.37,63.74c-1.36.94-2.28,2.36-2.58,3.99-.3,1.63.05,3.29.99,4.65l26,37.69c1.95,2.82,5.82,3.53,8.64,1.59l92.37-63.74c1.36-.94,2.28-2.36,2.58-3.99.3-1.63-.05-3.29-.99-4.65l-26-37.69c-1.2-1.75-3.15-2.68-5.12-2.68Z" style="fill:#3f3d56; stroke-width:0px;"/><path d="M185.86,268.97c-2.34,1.62-2.93,4.83-1.32,7.17s4.83,2.93,7.17,1.32l9.51-6.56c2.34-1.62,2.93-4.83,1.32-7.17s-4.83-2.93-7.17-1.32l-9.51,6.56h0Z" style="fill:#6c63ff; stroke-width:0px;"/><path d="M192.3,216.4c-3.69,2.55-4.62,7.63-2.08,11.32s7.63,4.62,11.32,2.08l14.79-10.21c3.69-2.55,4.62-7.63,2.08-11.32s-7.63-4.63-11.32-2.08l-14.79,10.21Z" style="fill:#6c63ff; stroke-width:0px;"/><path d="M279.32,227.63h-112.22c-3.87,0-7.02-3.15-7.02-7.02v-45.79c0-3.87,3.15-7.02,7.02-7.02h112.22c3.87,0,7.02,3.15,7.02,7.02v45.79c0,3.87-3.15,7.02-7.02,7.02h0Z" style="fill:#fff; stroke-width:0px;"/><path d="M286.14,174.82v45.79c0,3.77-3.05,6.82-6.82,6.82h-55.08c-7.98-9.48-12.8-21.71-12.8-35.07,0-8.75,2.06-17.02,5.73-24.35h62.14c3.77,0,6.82,3.05,6.82,6.82Z" style="fill:#e6e6e6; stroke-width:0px;"/><path d="M279.32,228.44h-112.22c-4.32,0-7.83-3.51-7.83-7.83v-45.79c0-4.32,3.51-7.83,7.83-7.83h112.22c4.32,0,7.83,3.51,7.83,7.83v45.79c0,4.32-3.51,7.83-7.83,7.83ZM167.1,168.61c-3.43,0-6.21,2.79-6.21,6.21v45.79c0,3.43,2.79,6.21,6.21,6.21h112.22c3.43,0,6.21-2.79,6.21-6.21v-45.79c0-3.43-2.79-6.21-6.21-6.21,0,0-112.22,0-112.22,0Z" style="fill:#3f3d56; stroke-width:0px;"/><path d="M173.9,211.95c-2.84,0-5.16,2.31-5.16,5.16s2.31,5.16,5.16,5.16h11.55c2.84,0,5.16-2.31,5.16-5.16s-2.31-5.16-5.16-5.16h-11.55Z" style="fill:#6c63ff; stroke-width:0px;"/><path d="M209.07,172.34c-4.49,0-8.14,3.65-8.14,8.14s3.65,8.14,8.14,8.14h17.97c4.49,0,8.14-3.65,8.14-8.14s-3.65-8.14-8.14-8.14h-17.97Z" style="fill:#6c63ff; stroke-width:0px;"/><path d="M373.11,386.11h-112.22c-3.87,0-7.02-3.15-7.02-7.02v-45.79c0-3.87,3.15-7.02,7.02-7.02h112.22c3.87,0,7.02,3.15,7.02,7.02v45.79c0,3.87-3.15,7.02-7.02,7.02Z" style="fill:#fff; stroke-width:0px;"/><path d="M379.93,333.3v45.79c0,3.77-3.05,6.82-6.82,6.82h-55.08c-7.98-9.48-12.8-21.71-12.8-35.07,0-8.75,2.06-17.02,5.73-24.35h62.14c3.77,0,6.82,3.05,6.82,6.82Z" style="fill:#e6e6e6; stroke-width:0px;"/><path d="M373.11,386.92h-112.22c-4.32,0-7.83-3.51-7.83-7.83v-45.79c0-4.32,3.51-7.83,7.83-7.83h112.22c4.32,0,7.83,3.51,7.83,7.83v45.79c0,4.32-3.51,7.83-7.83,7.83ZM260.89,327.09c-3.43,0-6.21,2.79-6.21,6.21v45.79c0,3.43,2.79,6.21,6.21,6.21h112.22c3.43,0,6.21-2.79,6.21-6.21v-45.79c0-3.43-2.79-6.21-6.21-6.21h-112.22Z" style="fill:#3f3d56; stroke-width:0px;"/><path d="M267.69,370.43c-2.84,0-5.16,2.31-5.16,5.16s2.31,5.16,5.16,5.16h11.55c2.84,0,5.16-2.31,5.16-5.16s-2.31-5.16-5.16-5.16h-11.55Z" style="fill:#6c63ff; stroke-width:0px;"/><path d="M302.86,330.82c-4.49,0-8.14,3.65-8.14,8.14s3.65,8.14,8.14,8.14h17.97c4.49,0,8.14-3.65,8.14-8.14s-3.65-8.14-8.14-8.14h-17.97Z" style="fill:#6c63ff; stroke-width:0px;"/><path id="uuid-c026fd96-7d81-4b34-bb39-0646c0e08e96-80" d="M380.72,345.04c-10.31,5.37-21.43,4.4-24.84-2.16-3.41-6.56,2.17-16.23,12.48-21.59,4.09-2.2,8.65-3.39,13.29-3.47l43.96-22.19,8.73,17.41-43.15,23.1c-2.73,3.76-6.32,6.81-10.47,8.9h0Z" style="fill:#a0616a; stroke-width:0px;"/><path d="M430.7,155.91s45.28-2.43,54.98,21.83c9.7,24.26,17.79,103.49,17.79,103.49l-98.64,53.67-16.98-26.18,66.3-51.75s-23.45-101.07-23.45-101.07Z" style="fill:#3f3d56; stroke-width:0px;"/></svg>