<svg width="119" height="120" viewBox="0 0 119 120" fill="none" xmlns="http://www.w3.org/2000/svg">
<path d="M119.002 60.7898C117.502 61.0975 115.858 61.113 114.523 61.7595C109.646 64.1153 104.9 64.1713 100.02 61.7781C96.9724 60.2863 93.7823 60.3298 90.7133 61.8278C85.9732 64.1402 81.2983 64.1526 76.5458 61.8216C73.4551 60.308 70.237 60.308 67.1308 61.8216C62.3844 64.1402 57.7126 64.1402 52.9539 61.8341C51.5933 61.1752 50.0247 60.9389 48.4219 60.4696V57.4984C50.5993 57.3647 52.6433 57.8465 54.5443 58.841C56.7497 59.9972 59.0794 60.4075 61.5147 60.0998C62.636 59.9568 63.7263 59.559 64.9533 59.2451C61.2382 50.3841 57.6257 41.7593 53.9541 32.9978C55.6159 32.3731 57.2125 31.7297 58.8402 31.1765C59.5826 30.9248 59.8435 30.5518 59.8373 29.753C59.7969 25.0257 59.8187 20.2953 59.8187 15.5649C59.8187 15.1111 59.8187 14.6574 59.8187 14.0793H67.9663C67.9663 13.3085 67.9663 12.6651 67.9663 12.0187C67.9663 8.76145 67.9694 5.50735 67.9601 2.25014C67.9601 1.83056 67.8887 1.40786 67.8514 0.988281C78.3132 0.988281 88.7781 0.988281 99.2399 0.988281V14.0917H107.385C107.385 14.676 107.385 15.1298 107.385 15.5867C107.385 20.2767 107.406 24.9636 107.366 29.6536C107.36 30.4896 107.63 30.8968 108.413 31.161C110.015 31.7018 111.59 32.3358 113.305 32.9792C109.64 41.7314 106.018 50.3748 102.359 59.1083C105.204 60.4603 108.055 60.653 110.801 59.587C113.479 58.5489 116.088 57.43 118.999 57.287V60.7773L119.002 60.7898ZM81.8823 26.1539C73.9489 29.1159 66.2175 32.0001 58.4022 34.9186C59.0297 36.4197 59.5888 37.7717 60.1541 39.1206C62.636 45.0445 65.1179 50.9684 67.6029 56.8923C67.8079 57.3803 67.9104 57.9179 68.7118 57.7532C72.2902 57.0228 75.7009 57.517 78.9624 59.1922C79.8259 59.6367 80.8106 59.8387 81.8823 60.1992V26.1539ZM85.3954 26.1539V60.28C86.8367 59.7175 88.1134 59.2979 89.3217 58.7291C92.1639 57.3896 95.1397 57.1596 98.1683 57.6817C99.0784 57.8371 99.3828 57.5792 99.6966 56.8239C101.883 51.531 104.104 46.2535 106.316 40.9699C107.148 38.9839 107.981 37.0009 108.86 34.9061C100.998 31.9722 93.2666 29.0879 85.3954 26.1508V26.1539ZM103.961 29.4857V17.5572H92.9653C92.9653 20.0715 92.9498 22.502 92.9902 24.9325C92.9933 25.1563 93.2853 25.4857 93.5182 25.5759C96.9413 26.8812 100.38 28.1524 103.961 29.4857ZM63.2542 17.5323V29.3117C63.4064 29.3397 63.4933 29.3863 63.5555 29.3614C66.9288 28.1244 70.3022 26.8905 73.6632 25.6163C73.9179 25.5199 74.2285 25.1376 74.2316 24.8828C74.2751 22.4523 74.2565 20.0187 74.2565 17.5292H63.2542V17.5323ZM71.3894 14.0109H81.845V4.519H71.3894V14.0109ZM85.3675 4.49413V14.0327H95.8417V4.49413H85.3675ZM77.6578 24.1306C79.3942 23.4873 80.9535 22.8346 82.5656 22.3528C83.2366 22.1539 84.0691 22.1601 84.7431 22.3622C86.3459 22.8408 87.896 23.4904 89.5547 24.1058V17.5696H77.6547V24.1306H77.6578Z" fill="url(#paint0_linear_1920_2128)"/>
<path d="M73.349 101.504C64.3409 94.5171 63.7694 83.5738 67.9566 76.3507C72.3488 68.7734 81.3134 65.0686 89.7282 67.4431C98.0809 69.8021 104.107 77.7058 103.657 86.9677C103.296 94.3959 97.6025 103.81 85.8485 105.088C85.7429 105.989 85.6932 106.912 85.5161 107.813C84.5252 112.879 80.2666 116.547 75.1164 116.606C68.3759 116.684 61.6323 116.705 54.8917 116.569C53.2641 116.537 51.6519 115.795 49.9404 115.356V120H46.626V96.4907H49.9124C49.9124 97.3081 49.9124 98.11 49.9124 98.9088C49.9124 101.855 49.9 104.802 49.9155 107.748C49.9342 110.853 51.9222 113.19 55.0129 113.274C60.1226 113.414 65.2386 113.308 70.3546 113.299C70.426 113.299 70.4975 113.246 70.7708 113.144C70.7708 111.767 70.7708 110.309 70.7708 108.851C70.7708 107.959 70.7211 107.064 70.7832 106.178C70.8454 105.274 70.5347 104.969 69.606 104.985C66.273 105.035 62.9431 105.004 59.6101 105.004C59.1908 105.004 58.7714 105.004 58.2496 105.004C58.2247 104.475 58.1874 104.059 58.1843 103.642C58.1781 100.696 58.1968 97.7495 58.1781 94.8031C58.1533 91.0144 56.2957 88.3664 52.7391 87.1636C48.1232 85.6033 43.4918 84.0928 38.8542 82.6041C38.4442 82.4735 37.8571 82.545 37.4719 82.7502C32.9834 85.1402 28.5291 85.1433 24.053 82.7097C23.702 82.5202 23.1553 82.4735 22.7732 82.5948C18.0269 84.1239 13.2837 85.6624 8.56217 87.2692C5.30373 88.3788 3.39961 91.1511 3.3965 94.6321C3.38718 102.579 3.3965 110.527 3.39339 118.477C3.39339 118.94 3.39339 119.406 3.39339 119.969H0.00138055C0.00138055 119.59 0.00138055 119.182 0.00138055 118.772C0.00138055 110.862 -0.00172569 102.955 0.00138055 95.0455C0.00448679 89.5381 2.85912 85.5971 8.08071 83.869C11.8237 82.6289 15.5698 81.3951 19.316 80.155C19.6701 80.0368 20.018 79.897 20.1919 79.8317C19.3936 77.9296 18.3344 76.1549 17.9306 74.2435C17.4678 72.0368 17.3777 69.6965 17.4988 67.4369C17.6914 63.8285 17.0298 60.4843 15.517 57.2146C14.2404 54.4578 13.2246 51.5767 12.0443 48.6334C12.5195 48.5992 12.8519 48.5526 13.1843 48.5526C20.4311 48.5495 27.6749 48.537 34.9217 48.5526C39.7146 48.565 43.1595 51.3747 43.9857 55.9062C44.0758 56.3972 44.0882 56.9069 44.0882 57.4104C44.0944 61.9077 44.0789 66.4051 44.0975 70.9024C44.1131 73.8643 43.2992 76.5496 41.5939 78.9708C41.4417 79.1852 41.3206 79.4184 41.1093 79.7696C43.8584 80.6833 46.5204 81.566 49.1825 82.4487C50.7977 82.9833 52.4192 83.4992 54.022 84.0617C58.6875 85.7028 61.4987 89.6406 61.5329 94.5638C61.5484 96.6182 61.5484 98.6726 61.5298 100.727C61.5235 101.317 61.6354 101.687 62.3405 101.684C65.8661 101.666 69.3916 101.672 72.9172 101.662C73.0166 101.662 73.1191 101.588 73.3428 101.501L73.349 101.504ZM100.317 86.514C100.647 78.4051 94.6298 70.8589 85.5938 70.1067C77.1044 69.3981 69.3792 76.1145 68.8077 84.9009C68.2268 93.824 75.1413 101.265 83.8605 101.653C92.3996 102.035 99.9291 95.4216 100.317 86.5171V86.514ZM20.8442 63.6203C20.8442 66.2994 20.8101 68.8884 20.8505 71.4742C20.925 76.2668 24.7457 80.5497 29.3647 81.0656C34.6173 81.653 39.3698 78.5543 40.3949 73.6001C40.8111 71.583 40.6527 69.4416 40.7211 67.3561C40.7614 66.1316 40.7273 64.907 40.7273 63.6234H20.8442V63.6203ZM40.7273 60.2014C40.7273 59.3467 40.7304 58.5511 40.7273 57.7585C40.7086 54.0476 38.5871 51.9248 34.8813 51.9217C29.3802 51.9155 23.879 51.9186 18.381 51.9217C17.9803 51.9217 17.5796 51.9621 17.0174 51.9963C18.0269 54.5293 18.9991 56.879 19.8906 59.2628C20.1733 60.0181 20.5771 60.2325 21.3475 60.2201C24.2145 60.1766 27.0816 60.2046 29.9455 60.2046C33.468 60.2046 36.9905 60.2046 40.7273 60.2046V60.2014ZM78.2848 105.007C77.2038 105.007 76.1198 105.022 75.0388 105C74.4455 104.988 74.0945 105.134 74.1038 105.833C74.1287 108.077 74.1255 110.321 74.1038 112.562C74.0976 113.199 74.4144 113.333 74.9705 113.327C78.9154 113.29 82.3571 109.821 82.4006 105.868C82.4068 105.19 82.1676 104.979 81.5308 104.994C80.4499 105.022 79.3658 105.004 78.2848 105.004V105.007Z" fill="url(#paint1_linear_1920_2128)"/>
<path d="M100.389 39.8326C100.37 42.8287 97.972 45.1908 94.9651 45.169C91.9862 45.1473 89.6255 42.7199 89.6566 39.7145C89.6907 36.7214 92.1353 34.3065 95.0831 34.3562C98.0651 34.4028 100.404 36.8209 100.385 39.8326H100.389ZM97.0432 39.8077C97.0618 38.6702 96.1268 37.7191 95.0024 37.7346C93.9369 37.7471 92.9989 38.6702 92.974 39.73C92.9461 40.8427 93.8966 41.7844 95.0428 41.7782C96.1548 41.772 97.0276 40.9142 97.0463 39.8077H97.0432Z" fill="url(#paint2_linear_1920_2128)"/>
<path d="M11.7031 96.4883H14.9367V119.988H11.7031V96.4883Z" fill="url(#paint3_linear_1920_2128)"/>
<path d="M29.1484 96.4883H32.382V116.035H29.1484V96.4883Z" fill="url(#paint4_linear_1920_2128)"/>
<path d="M32.4103 89.5254V92.7453H29.1953V89.5254H32.4103Z" fill="url(#paint5_linear_1920_2128)"/>
<path d="M83.0117 73.4258H86.208C86.208 74.2401 86.2453 75.0357 86.1987 75.8283C86.1552 76.5525 86.4689 76.7918 87.1492 76.7669C87.9227 76.7389 88.6992 76.7856 89.4727 76.7607C90.1188 76.742 90.3797 76.9969 90.3424 77.6558C90.2989 78.3893 90.3331 79.1259 90.3331 80.0086C89.8889 80.0365 89.4851 80.0801 89.0782 80.0801C86.9877 80.0863 84.8941 80.0676 82.8036 80.0894C81.3871 80.1049 80.4491 80.9254 80.4118 82.1034C80.3745 83.2782 81.2908 84.1391 82.7135 84.1889C84.1828 84.2417 85.6613 84.1671 87.1244 84.2728C89.6994 84.4593 91.7651 86.4795 91.9949 88.9255C92.259 91.7445 90.6655 94.0972 88.0065 94.8276C87.4132 94.9924 86.6056 95.0328 86.3074 95.4368C86.0061 95.844 86.2235 96.6272 86.2049 97.2457C86.1956 97.5876 86.1707 97.9294 86.1459 98.3428H82.9372V95.039H78.899V91.6792C80.7069 91.6792 82.4743 91.6823 84.2449 91.6792C85.0587 91.6792 85.8757 91.7072 86.6833 91.6326C87.9196 91.5145 88.6588 90.7188 88.6619 89.6155C88.6619 88.4717 87.8605 87.6139 86.5901 87.5549C85.1985 87.4896 83.8007 87.5455 82.4091 87.5238C79.775 87.4834 77.5509 85.6092 77.1751 83.1352C76.7557 80.3629 78.1567 77.9417 80.7069 77.0653C81.4089 76.8229 82.4215 76.8353 82.7539 76.3566C83.1235 75.8252 82.8719 74.8648 82.903 74.0909C82.9092 73.9044 82.962 73.7179 83.0148 73.4258H83.0117Z" fill="url(#paint6_linear_1920_2128)"/>
<defs>
<linearGradient id="paint0_linear_1920_2128" x1="83.7119" y1="0.988281" x2="83.7119" y2="63.566" gradientUnits="userSpaceOnUse">
<stop stop-color="#4FA9B6"/>
<stop offset="1" stop-color="#6215F7"/>
</linearGradient>
<linearGradient id="paint1_linear_1920_2128" x1="51.8401" y1="48.5449" x2="51.8401" y2="120" gradientUnits="userSpaceOnUse">
<stop stop-color="#4FA9B6"/>
<stop offset="1" stop-color="#6215F7"/>
</linearGradient>
<linearGradient id="paint2_linear_1920_2128" x1="95.0224" y1="34.3555" x2="95.0224" y2="45.1692" gradientUnits="userSpaceOnUse">
<stop stop-color="#4FA9B6"/>
<stop offset="1" stop-color="#6215F7"/>
</linearGradient>
<linearGradient id="paint3_linear_1920_2128" x1="13.3199" y1="96.4883" x2="13.3199" y2="119.988" gradientUnits="userSpaceOnUse">
<stop stop-color="#4FA9B6"/>
<stop offset="1" stop-color="#6215F7"/>
</linearGradient>
<linearGradient id="paint4_linear_1920_2128" x1="30.7652" y1="96.4883" x2="30.7652" y2="116.035" gradientUnits="userSpaceOnUse">
<stop stop-color="#4FA9B6"/>
<stop offset="1" stop-color="#6215F7"/>
</linearGradient>
<linearGradient id="paint5_linear_1920_2128" x1="30.8028" y1="89.5254" x2="30.8028" y2="92.7453" gradientUnits="userSpaceOnUse">
<stop stop-color="#4FA9B6"/>
<stop offset="1" stop-color="#6215F7"/>
</linearGradient>
<linearGradient id="paint6_linear_1920_2128" x1="84.5625" y1="73.4258" x2="84.5625" y2="98.3428" gradientUnits="userSpaceOnUse">
<stop stop-color="#4FA9B6"/>
<stop offset="1" stop-color="#6215F7"/>
</linearGradient>
</defs>
</svg>
