<svg width="98" height="98" viewBox="0 0 98 98" fill="none" xmlns="http://www.w3.org/2000/svg">
<path d="M39.1973 62.072C40.3951 62.072 41.4785 62.1184 42.5565 62.0584C43.4494 62.0066 43.9666 61.4477 44.081 60.5562C44.1191 60.2535 44.0973 59.9455 44.0973 59.6401C44.0973 51.6163 44.0973 43.5899 44.0973 35.5661C44.0973 35.198 44.0973 34.83 44.0973 34.3965H47.364V35.4134C47.364 43.5735 47.364 51.7363 47.364 59.8964C47.364 63.3725 45.3985 65.3437 41.9358 65.3492C41.0593 65.3492 40.1827 65.3492 39.1973 65.3492C39.1973 65.8317 39.1973 66.2298 39.1973 66.6278C39.1973 75.265 39.1973 83.9022 39.1973 92.5394C39.1973 96.0237 37.2373 98.0004 33.7801 98.0031C24.3231 98.0058 14.8661 98.0058 5.40906 98.0031C2.00356 98.0031 0.00272222 96.0156 0 92.6348C0 75.5295 0 58.4269 0 41.3215C0 37.9899 2.009 35.9669 5.3165 35.9669C14.8416 35.9614 24.3666 35.9614 33.8917 35.9669C37.1556 35.9669 39.1918 37.9871 39.1946 41.2343C39.2027 47.764 39.1946 54.2909 39.1946 60.8206V62.0775L39.1973 62.072ZM3.33744 52.3307V62.0039H35.8762V52.3307H3.33744ZM3.32928 78.4249V88.1336H35.8489V78.4249H3.32928ZM3.283 75.0796H35.8571V65.4255H3.283V75.0796ZM35.9279 48.9799C35.9279 46.2208 35.9497 43.5708 35.917 40.9235C35.9034 39.8193 35.2364 39.2276 34.0604 39.2276C24.4047 39.2195 14.749 39.2195 5.09328 39.2276C3.88733 39.2276 3.28572 39.852 3.26667 41.0625C3.24489 42.5238 3.26122 43.9852 3.26122 45.4465C3.26122 46.6216 3.26122 47.7967 3.26122 48.9799H35.9252H35.9279ZM3.36194 91.5225C3.02439 93.7145 3.34289 94.7969 5.99161 94.7641C12.9578 94.6769 19.9294 94.7342 26.8956 94.7342C29.2748 94.7342 31.654 94.7451 34.0332 94.7287C35.3045 94.7205 35.8952 94.1153 35.9279 92.853C35.9388 92.4222 35.9279 91.9914 35.9279 91.5197H3.36194V91.5225Z" fill="url(#paint0_linear_1920_2130)"/>
<path d="M58.8004 65.3398C57.5726 65.3398 56.4565 65.3753 55.3431 65.3317C52.8115 65.2362 50.6745 63.216 50.6609 60.7023C50.6119 51.9642 50.6419 43.2261 50.6419 34.4062H53.9004V35.565C53.9004 43.6242 53.9004 51.6834 53.9004 59.7426C53.9004 61.6074 54.3768 62.0764 56.2578 62.0791C57.0663 62.0791 57.8775 62.0791 58.8004 62.0791V60.9122C58.8004 54.3825 58.8004 47.8555 58.8004 41.3258C58.8004 37.9451 60.8039 35.9603 64.2094 35.9603C73.6664 35.9603 83.1234 35.9603 92.5804 35.9603C96.0349 35.9603 97.9976 37.9369 97.9976 41.4212C97.9976 58.4584 97.9976 75.4929 97.9976 92.5301C97.9976 96.0471 96.0295 97.9965 92.4824 97.9965C83.0935 97.9965 73.7045 97.9965 64.3156 97.9965C60.7304 97.9965 58.8004 96.0471 58.8004 92.4265C58.8004 83.8575 58.8004 75.2884 58.8004 66.7194V65.3371V65.3398ZM62.1051 88.127H94.6793V78.4674H62.1051V88.127ZM94.6847 52.3541H62.146V62.03H94.6847V52.3541ZM62.1378 65.3916V75.0649H94.6765V65.3916H62.1378ZM62.0698 48.9543H94.731C94.731 46.446 94.731 44.0031 94.731 41.5603C94.731 39.6954 94.2546 39.2238 92.3735 39.2238C83.0581 39.2238 73.7426 39.2238 64.4272 39.2238C64.1904 39.2238 63.9508 39.2129 63.714 39.2292C62.7367 39.3001 62.0943 39.8727 62.0806 40.8378C62.0453 43.5178 62.0698 46.1979 62.0698 48.9543ZM62.165 91.5213C61.822 93.7134 62.1514 94.7985 64.7893 94.7657C71.6193 94.6785 78.4548 94.7358 85.2876 94.7358C87.8029 94.7358 90.3183 94.7439 92.8336 94.7303C93.9361 94.7248 94.6058 94.2068 94.7065 93.2635C94.7664 92.7019 94.7174 92.1293 94.7174 91.5213H62.165Z" fill="url(#paint1_linear_1920_2130)"/>
<path d="M48.9745 31.0613C45.3023 31.0613 41.63 31.0667 37.9577 31.0613C32.5786 31.0504 28.5279 27.5688 27.8256 22.3641C27.1777 17.5738 30.3627 13.0971 35.3607 11.6958C35.6738 11.6085 36.0549 11.1859 36.1148 10.8669C37.2908 4.54444 42.6971 0.00773194 49.0753 0.043175C55.3663 0.0758916 60.7808 4.6126 61.8207 10.8206C61.9677 11.7012 62.5149 11.6876 63.0702 11.8457C67.3985 13.0699 70.3059 16.9904 70.2242 21.4971C70.1453 25.8566 67.0936 29.6981 62.8143 30.7396C61.9323 30.955 61.0013 31.0395 60.0921 31.0477C56.3871 31.0804 52.6795 31.0613 48.9718 31.0613H48.9745ZM36.0304 15.0001C32.9488 15.619 30.7983 18.5853 31.0514 21.7997C31.31 25.1041 34.0758 27.7651 37.4296 27.7814C45.1525 27.8196 52.8755 27.8223 60.5984 27.7814C63.9821 27.7624 66.7779 25.0087 66.9575 21.6716C67.1454 18.1955 64.66 15.2155 61.2055 14.7711C57.9306 14.3513 54.8083 16.5678 54.076 19.8367C53.9753 20.2893 53.9072 20.7528 53.8283 21.1918H50.6351C50.6841 19.3078 51.1605 17.6311 52.1214 16.0989C53.6431 13.6751 55.8754 12.2438 58.6085 11.6085C58.2818 7.87063 55.0124 4.3754 51.1441 3.5384C46.8458 2.60871 42.5038 4.57443 40.4077 8.40228C38.0639 12.68 39.0003 16.835 43.3423 21.2245C42.757 22.0615 42.1635 22.9094 41.5755 23.7518C38.8043 22.0506 36.9369 19.0815 36.0331 14.9947L36.0304 15.0001Z" fill="url(#paint2_linear_1920_2130)"/>
<path d="M24.4806 18.0596V21.2658C24.1022 21.2658 23.7456 21.2658 23.389 21.2658C20.566 21.2658 17.7404 21.304 14.9174 21.244C14.0518 21.2249 13.4556 21.4866 12.8867 22.111C11.9938 23.0897 11.0492 24.0276 10.0719 24.9219C9.5356 25.4126 9.39132 25.8407 9.60093 26.5823C10.1672 28.578 9.54649 30.2983 7.95671 31.5906C6.39416 32.8611 4.60294 33.0765 2.78994 32.1904C0.944269 31.2907 -0.00578666 29.7394 0.0159911 27.6783C0.0486578 24.562 3.07032 22.2555 6.08382 23.0898C6.86238 23.3051 7.30882 23.1334 7.82877 22.5881C9.14088 21.2085 10.4938 19.8644 11.8713 18.5503C12.1571 18.2777 12.6117 18.0296 12.9901 18.0268C16.6651 17.9887 20.3401 18.005 24.0151 18.0078C24.143 18.0078 24.2737 18.0378 24.4833 18.0623L24.4806 18.0596ZM6.52755 27.7873C6.5221 26.9067 5.79527 26.1787 4.91871 26.1706C3.9986 26.1624 3.24182 26.9394 3.27721 27.8555C3.30988 28.7334 4.06121 29.4422 4.93777 29.4204C5.81432 29.4013 6.53571 28.6625 6.53027 27.7846L6.52755 27.7873Z" fill="url(#paint3_linear_1920_2130)"/>
<path d="M73.5469 21.2667V18.085C73.7674 18.0577 73.9906 18.0059 74.2138 18.0059C77.7827 18.0004 81.3515 17.9841 84.9203 18.025C85.3314 18.0304 85.8295 18.2622 86.1344 18.5512C87.5391 19.8844 88.9029 21.2612 90.2504 22.6517C90.7105 23.1261 91.0862 23.3387 91.8157 23.1124C93.8873 22.469 96.0569 23.3496 97.2193 25.1627C98.3599 26.943 98.2347 29.2304 96.9063 30.8717C95.5751 32.5157 93.3647 33.121 91.3883 32.3821C89.3848 31.6351 88.0972 29.6721 88.2033 27.5264C88.2088 27.4256 88.1815 27.3029 88.2278 27.2238C89.0309 25.8034 87.9257 25.1218 87.2015 24.1539C85.3749 21.7138 83.0801 20.8822 80.0857 21.2176C77.946 21.4575 75.76 21.2639 73.5469 21.2639V21.2667ZM94.723 27.7964C94.7203 26.9185 93.9989 26.1878 93.1197 26.1714C92.205 26.1551 91.44 26.9321 91.47 27.8482C91.4999 28.7233 92.2485 29.4376 93.1224 29.4213C94.0017 29.4049 94.7258 28.6688 94.723 27.7936V27.7964Z" fill="url(#paint4_linear_1920_2130)"/>
<path d="M24.4532 55.6211V58.7673H6.61719V55.6211H24.4532Z" fill="url(#paint5_linear_1920_2130)"/>
<path d="M32.6192 55.6055V58.7463H27.8281V55.6055H32.6192Z" fill="url(#paint6_linear_1920_2130)"/>
<path d="M6.57812 84.8666V81.7285H24.4495V84.8666H6.57812Z" fill="url(#paint7_linear_1920_2130)"/>
<path d="M32.6134 84.897H27.8359V81.7344H32.6134V84.897Z" fill="url(#paint8_linear_1920_2130)"/>
<path d="M24.4559 68.6836V71.8271H6.61719V68.6836H24.4532H24.4559Z" fill="url(#paint9_linear_1920_2130)"/>
<path d="M27.8125 71.8221V68.6895H32.5954V71.8221H27.8125Z" fill="url(#paint10_linear_1920_2130)"/>
<path d="M6.57812 45.6838V42.543H24.4141V45.6838H6.57812Z" fill="url(#paint11_linear_1920_2130)"/>
<path d="M27.8203 42.5352H32.5896V45.6896H27.8203V42.5352Z" fill="url(#paint12_linear_1920_2130)"/>
<path d="M65.3828 84.8674V81.7266H83.2188V84.8674H65.3828Z" fill="url(#paint13_linear_1920_2130)"/>
<path d="M91.4127 84.8935H86.6406V81.7363H91.4127V84.8935Z" fill="url(#paint14_linear_1920_2130)"/>
<path d="M83.2501 55.6211V58.7673H65.4141V55.6211H83.2501Z" fill="url(#paint15_linear_1920_2130)"/>
<path d="M91.4246 55.6289V58.7561H86.6172V55.6289H91.4246Z" fill="url(#paint16_linear_1920_2130)"/>
<path d="M65.3828 71.8041V68.666H83.2188V71.8041H65.3828Z" fill="url(#paint17_linear_1920_2130)"/>
<path d="M91.3913 71.8403H86.6328V68.6641H91.3913V71.8403Z" fill="url(#paint18_linear_1920_2130)"/>
<path d="M65.3828 45.6865V42.543H83.2188V45.6865H65.3828Z" fill="url(#paint19_linear_1920_2130)"/>
<path d="M91.3851 45.7329H86.6484V42.5566H91.3851V45.7329Z" fill="url(#paint20_linear_1920_2130)"/>
<path d="M71.8855 14.7314V11.4707C73.5161 11.4707 75.1331 11.4352 76.7474 11.487C77.4552 11.5116 77.9534 11.2934 78.4298 10.7809C79.4288 9.71486 80.4605 8.67884 81.5276 7.68371C81.9904 7.25294 82.0558 6.88487 81.8815 6.27689C81.2963 4.24846 81.8652 2.48994 83.4795 1.16219C85.0638 -0.143752 86.8823 -0.353684 88.7252 0.565108C90.6008 1.50299 91.5236 3.10065 91.4474 5.19724C91.3358 8.25897 88.3305 10.4673 85.3578 9.64398C84.6337 9.44222 84.2009 9.55401 83.6945 10.0911C82.3661 11.5006 80.9778 12.8502 79.5949 14.2052C79.3689 14.4288 79.0531 14.7014 78.7728 14.7069C76.5051 14.7478 74.2375 14.7287 71.8828 14.7287L71.8855 14.7314ZM88.1889 4.9246C88.1808 4.04398 87.4539 3.31876 86.5746 3.31331C85.6545 3.30785 84.9005 4.0876 84.9359 5.00367C84.9713 5.88156 85.7226 6.5877 86.6019 6.56589C87.4784 6.54408 88.1971 5.8025 88.1889 4.92733V4.9246Z" fill="url(#paint21_linear_1920_2130)"/>
<path d="M26.0863 11.4691V14.7217C23.748 14.7217 21.4177 14.738 19.0902 14.6971C18.848 14.6944 18.5866 14.389 18.377 14.1818C16.9996 12.8214 15.6194 11.4636 14.2746 10.0704C13.8118 9.59333 13.428 9.39703 12.7039 9.61786C10.6214 10.2531 8.4654 9.37249 7.30301 7.56217C6.16513 5.78729 6.29579 3.49167 7.62696 1.85857C8.96629 0.217281 11.1686 -0.382525 13.1449 0.359053C15.1512 1.11154 16.4333 3.06908 16.3245 5.21475C16.319 5.31562 16.3435 5.43559 16.3 5.51738C15.4996 6.94055 16.613 7.61942 17.3371 8.58456C19.161 11.022 21.4695 11.9789 24.4448 11.4827C24.9403 11.4009 25.4602 11.4718 26.0863 11.4718V11.4691ZM13.0578 4.9203C13.0469 4.03968 12.3173 3.31446 11.4381 3.31173C10.518 3.31173 9.76663 4.08875 9.80474 5.00754C9.84285 5.88544 10.5969 6.58885 11.4735 6.56431C12.35 6.53977 13.066 5.79547 13.0578 4.9203Z" fill="url(#paint22_linear_1920_2130)"/>
<defs>
<linearGradient id="paint0_linear_1920_2130" x1="23.682" y1="34.3965" x2="23.682" y2="98.0051" gradientUnits="userSpaceOnUse">
<stop stop-color="#4FA9B6"/>
<stop offset="1" stop-color="#6215F7"/>
</linearGradient>
<linearGradient id="paint1_linear_1920_2130" x1="74.3152" y1="34.4062" x2="74.3152" y2="97.9965" gradientUnits="userSpaceOnUse">
<stop stop-color="#4FA9B6"/>
<stop offset="1" stop-color="#6215F7"/>
</linearGradient>
<linearGradient id="paint2_linear_1920_2130" x1="48.984" y1="0.0429687" x2="48.984" y2="31.0668" gradientUnits="userSpaceOnUse">
<stop stop-color="#4FA9B6"/>
<stop offset="1" stop-color="#6215F7"/>
</linearGradient>
<linearGradient id="paint3_linear_1920_2130" x1="12.2495" y1="18.002" x2="12.2495" y2="32.7281" gradientUnits="userSpaceOnUse">
<stop stop-color="#4FA9B6"/>
<stop offset="1" stop-color="#6215F7"/>
</linearGradient>
<linearGradient id="paint4_linear_1920_2130" x1="85.7714" y1="17.998" x2="85.7714" y2="32.6934" gradientUnits="userSpaceOnUse">
<stop stop-color="#4FA9B6"/>
<stop offset="1" stop-color="#6215F7"/>
</linearGradient>
<linearGradient id="paint5_linear_1920_2130" x1="15.5352" y1="55.6211" x2="15.5352" y2="58.7673" gradientUnits="userSpaceOnUse">
<stop stop-color="#4FA9B6"/>
<stop offset="1" stop-color="#6215F7"/>
</linearGradient>
<linearGradient id="paint6_linear_1920_2130" x1="30.2237" y1="55.6055" x2="30.2237" y2="58.7463" gradientUnits="userSpaceOnUse">
<stop stop-color="#4FA9B6"/>
<stop offset="1" stop-color="#6215F7"/>
</linearGradient>
<linearGradient id="paint7_linear_1920_2130" x1="15.5138" y1="81.7285" x2="15.5138" y2="84.8666" gradientUnits="userSpaceOnUse">
<stop stop-color="#4FA9B6"/>
<stop offset="1" stop-color="#6215F7"/>
</linearGradient>
<linearGradient id="paint8_linear_1920_2130" x1="30.2247" y1="81.7344" x2="30.2247" y2="84.897" gradientUnits="userSpaceOnUse">
<stop stop-color="#4FA9B6"/>
<stop offset="1" stop-color="#6215F7"/>
</linearGradient>
<linearGradient id="paint9_linear_1920_2130" x1="15.5365" y1="68.6836" x2="15.5365" y2="71.8271" gradientUnits="userSpaceOnUse">
<stop stop-color="#4FA9B6"/>
<stop offset="1" stop-color="#6215F7"/>
</linearGradient>
<linearGradient id="paint10_linear_1920_2130" x1="30.204" y1="68.6895" x2="30.204" y2="71.8221" gradientUnits="userSpaceOnUse">
<stop stop-color="#4FA9B6"/>
<stop offset="1" stop-color="#6215F7"/>
</linearGradient>
<linearGradient id="paint11_linear_1920_2130" x1="15.4961" y1="42.543" x2="15.4961" y2="45.6838" gradientUnits="userSpaceOnUse">
<stop stop-color="#4FA9B6"/>
<stop offset="1" stop-color="#6215F7"/>
</linearGradient>
<linearGradient id="paint12_linear_1920_2130" x1="30.205" y1="42.5352" x2="30.205" y2="45.6896" gradientUnits="userSpaceOnUse">
<stop stop-color="#4FA9B6"/>
<stop offset="1" stop-color="#6215F7"/>
</linearGradient>
<linearGradient id="paint13_linear_1920_2130" x1="74.3008" y1="81.7266" x2="74.3008" y2="84.8674" gradientUnits="userSpaceOnUse">
<stop stop-color="#4FA9B6"/>
<stop offset="1" stop-color="#6215F7"/>
</linearGradient>
<linearGradient id="paint14_linear_1920_2130" x1="89.0267" y1="81.7363" x2="89.0267" y2="84.8935" gradientUnits="userSpaceOnUse">
<stop stop-color="#4FA9B6"/>
<stop offset="1" stop-color="#6215F7"/>
</linearGradient>
<linearGradient id="paint15_linear_1920_2130" x1="74.3321" y1="55.6211" x2="74.3321" y2="58.7673" gradientUnits="userSpaceOnUse">
<stop stop-color="#4FA9B6"/>
<stop offset="1" stop-color="#6215F7"/>
</linearGradient>
<linearGradient id="paint16_linear_1920_2130" x1="89.0209" y1="55.6289" x2="89.0209" y2="58.7561" gradientUnits="userSpaceOnUse">
<stop stop-color="#4FA9B6"/>
<stop offset="1" stop-color="#6215F7"/>
</linearGradient>
<linearGradient id="paint17_linear_1920_2130" x1="74.3008" y1="68.666" x2="74.3008" y2="71.8041" gradientUnits="userSpaceOnUse">
<stop stop-color="#4FA9B6"/>
<stop offset="1" stop-color="#6215F7"/>
</linearGradient>
<linearGradient id="paint18_linear_1920_2130" x1="89.012" y1="68.6641" x2="89.012" y2="71.8403" gradientUnits="userSpaceOnUse">
<stop stop-color="#4FA9B6"/>
<stop offset="1" stop-color="#6215F7"/>
</linearGradient>
<linearGradient id="paint19_linear_1920_2130" x1="74.3008" y1="42.543" x2="74.3008" y2="45.6865" gradientUnits="userSpaceOnUse">
<stop stop-color="#4FA9B6"/>
<stop offset="1" stop-color="#6215F7"/>
</linearGradient>
<linearGradient id="paint20_linear_1920_2130" x1="89.0168" y1="42.5566" x2="89.0168" y2="45.7329" gradientUnits="userSpaceOnUse">
<stop stop-color="#4FA9B6"/>
<stop offset="1" stop-color="#6215F7"/>
</linearGradient>
<linearGradient id="paint21_linear_1920_2130" x1="81.6673" y1="0.00195312" x2="81.6673" y2="14.7331" gradientUnits="userSpaceOnUse">
<stop stop-color="#4FA9B6"/>
<stop offset="1" stop-color="#6215F7"/>
</linearGradient>
<linearGradient id="paint22_linear_1920_2130" x1="16.3088" y1="0.0449219" x2="16.3088" y2="14.7249" gradientUnits="userSpaceOnUse">
<stop stop-color="#4FA9B6"/>
<stop offset="1" stop-color="#6215F7"/>
</linearGradient>
</defs>
</svg>
