<svg width="108" height="109" viewBox="0 0 108 109" fill="none" xmlns="http://www.w3.org/2000/svg">
<g clip-path="url(#clip0_2059_92)">
<path d="M2.85216 108.437C1.37581 107.676 0.830999 106.476 0.924153 104.822C1.0286 102.931 0.904393 101.026 0.96085 99.1322C1.09352 94.8235 2.99612 91.4729 6.5642 89.055C6.76745 88.9169 6.98198 88.7929 7.19369 88.6689C7.40259 88.5449 7.61712 88.4294 7.89658 88.2716C6.15771 86.3525 4.92695 84.1827 4.65031 81.6324C4.08574 76.3965 4.88461 71.5242 9.30518 68.0271C16.3171 62.4812 26.4201 66.2038 28.3876 75.0411C29.4575 79.8542 29.0087 84.4166 25.4208 88.2688C28.9465 90.1428 31.4476 92.8621 32.0178 96.7425C32.4695 99.8085 32.3227 102.967 32.3227 106.087C32.3227 107.304 31.3601 107.964 30.3185 108.434H19.7525C19.1033 107.851 18.5585 107.203 18.9424 106.259C19.3319 105.304 20.176 105.247 21.0623 105.264C22.5048 105.287 23.9473 105.27 25.3898 105.27C26.6431 105.27 27.8936 105.27 29.1526 105.27C29.1526 102.883 29.3276 100.623 29.1131 98.4023C28.7574 94.7276 26.6967 92.1914 23.2472 90.8501C22.8181 90.6838 22.1971 90.6894 21.7765 90.8698C18.3524 92.3408 14.9593 92.3352 11.5381 90.867C11.1372 90.6951 10.5642 90.6556 10.1605 90.8022C7.1824 91.8927 5.03422 93.964 4.464 97.0581C3.97565 99.7071 4.12244 102.474 3.98694 105.267C6.98763 105.267 9.72861 105.278 12.4668 105.261C13.3616 105.256 14.1746 105.349 14.5444 106.321C14.9226 107.316 14.3073 107.891 13.6241 108.432H2.85216V108.437ZM25.545 81.0801C24.1392 81.0801 22.9226 81.2322 21.7624 81.0491C19.4759 80.6855 17.2317 80.0768 14.9509 79.6767C13.0229 79.3385 11.0751 79.0285 9.12452 78.9327C7.87682 78.8736 7.63406 79.3357 7.70181 80.5756C7.93046 84.7266 11.38 88.2491 15.73 88.7732C19.8655 89.272 23.9981 86.5554 25.2458 82.4975C25.3756 82.0776 25.4293 81.6352 25.545 81.0772V81.0801ZM25.5507 77.7802C25.3869 72.4401 21.1894 68.306 16.2437 68.5878C11.5606 68.8527 8.26638 72.9078 8.24379 75.6216C9.64675 75.7118 11.0695 75.6667 12.4357 75.9231C15.1965 76.4416 17.9177 77.1602 20.6728 77.7238C22.2846 78.0535 23.9247 78.2874 25.5507 77.7802Z" fill="url(#paint0_linear_2059_92)"/>
<path d="M78.494 108.439C76.9104 107.797 76.3458 106.591 76.4023 104.936C76.47 102.902 76.3345 100.856 76.4531 98.8241C76.7325 94.0448 79.1235 90.5787 83.3719 88.2595C81.8842 86.5884 80.6958 84.7482 80.3232 82.5558C79.3832 77.0269 80.0974 71.8897 84.7099 68.0966C91.2504 62.7171 101.04 65.7182 103.541 73.9186C105.063 78.9121 104.834 83.7929 101.147 87.9946C101.082 88.0706 101.054 88.1805 100.995 88.3045C104.425 90.1081 106.765 92.8359 107.524 96.6346C107.905 98.5367 107.781 100.543 107.863 102.504C107.894 103.24 107.806 103.987 107.88 104.717C108.052 106.393 107.485 107.65 105.963 108.436H95.1855C94.4713 107.915 93.8729 107.318 94.2314 106.337C94.5842 105.37 95.3972 105.232 96.3033 105.269C97.0429 105.297 97.7825 105.275 98.5221 105.275C100.552 105.275 102.581 105.275 104.693 105.275C104.693 103.113 104.724 101.081 104.687 99.0496C104.619 95.4228 102.285 92.1793 98.8749 90.8605C98.2483 90.6181 97.7232 90.6153 97.0824 90.8999C94.0902 92.2328 90.971 92.4752 87.9675 91.1479C86.3471 90.4321 85.1503 90.8379 83.8715 91.6439C81.983 92.8331 80.6506 94.4901 80.024 96.6261C79.1997 99.4413 79.7219 102.327 79.5751 105.277C82.4319 105.277 85.139 105.291 87.8432 105.269C88.7579 105.26 89.5737 105.401 89.8813 106.379C90.1862 107.351 89.6555 107.983 88.8482 108.442H78.494V108.439ZM100.953 81.4286C98.5023 81.0933 96.1424 80.8396 93.8079 80.4367C91.1488 79.9773 88.532 79.2306 85.8588 78.8924C83.2985 78.5683 82.8468 79.2221 83.3549 81.7132C84.2131 85.929 88.2102 89.0006 92.58 88.8005C96.8453 88.6061 100.543 85.2526 100.953 81.4258V81.4286ZM83.6316 75.6235C85.0571 75.7081 86.5109 75.6517 87.9082 75.911C90.7 76.4295 93.4522 77.1621 96.2384 77.7286C97.8361 78.0555 99.4677 78.2753 101.074 77.7708C100.826 72.6787 97.1643 68.7842 92.5292 68.5785C88.2808 68.3925 84.1397 71.6924 83.6316 75.6235Z" fill="url(#paint1_linear_2059_92)"/>
<path d="M74.0056 52.7411C73.8391 49.5174 73.8476 46.3922 73.4721 43.3121C73.0939 40.1926 71.18 38.0171 68.3233 36.718C67.2139 36.2136 66.0622 35.8078 64.8483 35.3231C64.0015 37.5437 63.2083 39.6374 62.4066 41.7284C61.6698 43.6559 60.8088 43.9152 59.1659 42.7062C57.4101 41.4156 55.6543 40.1249 53.8336 38.7892C52.0467 40.1024 50.2683 41.4128 48.4843 42.7175C46.8809 43.8926 46.0002 43.639 45.2916 41.8045C44.473 39.6853 43.6572 37.5662 42.8471 35.4612C36.0468 37.1773 34.0934 40.6012 33.8817 45.5271C33.7801 47.9026 33.8648 50.2839 33.8648 52.7383C35.3778 52.7383 36.8146 52.7383 38.2543 52.7383C42.1272 52.7383 46.0002 52.7355 49.8731 52.7383C51.118 52.7383 51.8435 53.3104 51.8661 54.2741C51.8915 55.2802 51.1378 55.8973 49.8421 55.8973C44.3149 55.903 38.7878 55.9058 33.2607 55.8973C31.7617 55.8945 30.6947 55.1449 30.7032 53.8092C30.7258 50.0922 30.627 46.3415 31.0899 42.6696C31.6234 38.4229 34.2684 35.4527 38.2007 33.7873C40.4589 32.832 42.8188 32.1077 45.1533 31.3497C45.8026 31.1383 46.0058 30.8594 46.0369 30.1802C46.1385 27.9737 45.9268 26.0631 44.1907 24.2737C42.1922 22.2137 41.3792 19.4633 41.5231 16.5073C41.6361 14.1599 41.4949 11.7871 41.7687 9.45943C42.1329 6.34553 43.4991 3.8206 46.8555 2.93575C47.0192 2.89348 47.1801 2.78921 47.3072 2.67649C49.7066 0.517901 52.5492 0.134653 55.6007 0.630621C58.2626 1.06459 60.6621 2.0988 62.6917 3.89387C64.9415 5.88056 66.1807 8.34068 66.1243 11.3982C66.0932 13.0834 66.0509 14.7742 66.1327 16.4593C66.3106 20.0748 64.8512 23.0281 62.463 25.5756C61.8279 26.2547 61.5371 26.9001 61.6105 27.799C61.698 28.8727 61.3367 30.214 61.8618 30.9495C62.3558 31.6428 63.7559 31.6709 64.7411 32.0345C66.5505 32.7051 68.4023 33.2941 70.1355 34.1226C74.0677 35.9994 76.3176 39.2457 76.741 43.5094C77.0769 46.8882 76.9837 50.3148 76.995 53.719C77.0007 55.004 75.9732 55.8889 74.6069 55.8945C69.0092 55.917 63.4115 55.9142 57.8138 55.8973C56.7496 55.8945 56.0862 55.2351 56.0919 54.308C56.0975 53.3808 56.7609 52.7524 57.8336 52.7496C62.7622 52.7355 67.6909 52.744 72.6196 52.744C72.9979 52.744 73.3762 52.744 74.0085 52.744L74.0056 52.7411ZM62.8836 18.029C60.5548 17.4682 58.3925 17.0455 56.2951 16.403C54.9627 15.9944 53.7235 15.2786 52.456 14.6727C51.0051 13.9795 49.6388 13.9344 48.3064 14.9799C47.341 15.7408 46.3389 16.4593 45.3199 17.1413C44.7581 17.5161 44.6396 17.936 44.8174 18.5616C45.9324 22.5491 48.4419 25.2628 52.3685 26.5309C53.3057 26.8324 54.5195 26.8099 55.4539 26.4914C59.1095 25.2459 61.5371 22.6928 62.734 19.0125C62.8582 18.6292 62.8582 18.2009 62.8836 18.0262V18.029ZM44.5182 13.3201C44.8456 13.4159 44.8908 13.4441 44.9077 13.4328C45.2606 13.2017 45.6276 12.9904 45.955 12.7283C48.6283 10.5782 51.4398 10.5556 54.4264 12.0604C55.8943 12.8016 57.4101 13.5004 58.974 13.9851C60.2019 14.3684 61.5428 14.3966 62.9457 14.5966C62.9457 13.3821 62.909 12.4719 62.9514 11.5645C63.0615 9.22553 62.1553 7.29238 60.2556 6.04964C58.7877 5.09152 57.1137 4.31093 55.4228 3.86005C53.0545 3.22882 50.7369 3.50499 48.9388 5.51704C48.7327 5.74812 48.3262 5.86366 47.9959 5.91438C46.5873 6.13137 45.6135 6.94013 45.3029 8.26178C44.9106 9.93285 44.7638 11.6603 44.5182 13.3173V13.3201ZM58.4489 28.7036C55.3043 30.3577 52.2923 30.3239 49.1674 28.8417C49.2013 29.8533 49.0517 31.0482 49.5739 31.5723C50.8216 32.8263 52.3855 33.7647 53.8336 34.8384C55.2422 33.7957 56.6141 32.8094 57.9408 31.7696C58.1977 31.5695 58.384 31.1609 58.4264 30.8284C58.5026 30.2084 58.4489 29.5715 58.4489 28.7036ZM61.8364 34.303C61.156 34.2522 60.4673 33.9789 60.0834 34.21C58.847 34.9595 57.7263 35.8951 56.4927 36.811C57.6839 37.6817 58.7651 38.4736 59.9281 39.3218C60.5774 37.6113 61.1673 36.0614 61.8364 34.303ZM51.1632 36.8166C50.1385 36.0501 49.1646 35.4132 48.3064 34.6524C47.5189 33.9535 46.799 33.9028 45.9127 34.5509C46.5026 36.098 47.1011 37.6592 47.7419 39.3331C48.8992 38.4821 49.9889 37.6817 51.166 36.8166H51.1632Z" fill="url(#paint2_linear_2059_92)"/>
<path d="M47.8037 72.8165C47.8037 69.5448 47.8037 66.4591 47.8037 63.3734C47.8065 60.871 48.7239 59.9664 51.2504 59.9608C53.0457 59.9608 54.8382 59.9523 56.6336 59.9608C58.8438 59.9721 59.8714 60.9894 59.877 63.1789C59.8855 66.3351 59.877 69.4941 59.877 72.8137C61.0711 72.8137 62.2171 72.8278 63.3604 72.8081C64.1423 72.794 64.865 72.918 65.2545 73.676C65.6667 74.4763 65.311 75.1442 64.8085 75.7952C61.6893 79.8643 58.587 83.9505 55.4734 88.0253C54.2991 89.5611 53.328 89.547 52.1452 87.9971C49.057 83.9476 45.9717 79.8953 42.8778 75.8487C42.3951 75.2175 41.9435 74.589 42.3584 73.7465C42.7875 72.8701 43.5751 72.7968 44.4191 72.8109C45.5031 72.8278 46.5842 72.8137 47.798 72.8137L47.8037 72.8165ZM50.9709 63.1592C50.9709 63.6383 50.9709 64.0159 50.9709 64.3963C50.9709 67.5919 50.9822 70.7876 50.9653 73.9832C50.9568 75.4288 50.4148 75.953 48.9865 75.967C48.3796 75.9727 47.7755 75.967 46.9568 75.967C49.3337 79.0838 51.5411 81.9779 53.822 84.9706C56.1198 81.9525 58.3329 79.0471 60.6815 75.967C59.8968 75.967 59.3774 75.967 58.858 75.967C57.1868 75.9614 56.7098 75.4993 56.707 73.8648C56.7013 70.6692 56.7069 67.4736 56.7041 64.278C56.7041 63.9088 56.6703 63.5425 56.6505 63.1592H50.9653H50.9709Z" fill="url(#paint3_linear_2059_92)"/>
<path d="M60.2645 97.0078C58.664 99.5947 57.134 102.072 55.6012 104.546C54.3986 106.485 53.2695 106.496 52.0867 104.583C50.7374 102.401 49.3937 100.22 48.0444 98.0392C47.844 97.7179 47.6295 97.4051 47.3839 97.0303C46.2576 98.4252 45.182 99.7243 44.1461 101.052C43.6492 101.688 43.0621 101.973 42.2463 101.959C40.2759 101.925 38.3056 101.959 36.3352 101.945C35.1468 101.936 34.4665 101.381 34.4383 100.434C34.4101 99.4622 35.1355 98.8141 36.3465 98.7944C37.8935 98.769 39.4432 98.7521 40.9901 98.8028C41.6704 98.8254 42.091 98.583 42.4919 98.0673C43.6775 96.54 44.8998 95.0408 46.1277 93.5501C47.1298 92.3327 48.259 92.4003 49.0973 93.7389C50.4579 95.9116 51.7932 98.1011 53.1425 100.279C53.3429 100.604 53.5574 100.916 53.8454 101.356C55.3048 98.9973 56.6993 96.7429 58.0938 94.4885C58.2772 94.1898 58.4523 93.8854 58.6527 93.5952C59.4346 92.4539 60.5496 92.3693 61.4445 93.4402C62.7514 95.0042 63.985 96.6302 65.3089 98.1801C65.5799 98.4957 66.105 98.7437 66.5228 98.7634C68.1036 98.831 69.69 98.7747 71.2736 98.7972C72.527 98.8141 73.2214 99.4087 73.2186 100.398C73.2186 101.39 72.5326 101.945 71.2595 101.951C69.2892 101.962 67.3132 102.021 65.3485 101.914C64.7359 101.88 63.9963 101.511 63.5757 101.057C62.4155 99.8004 61.3937 98.4139 60.2645 97.0134V97.0078Z" fill="url(#paint4_linear_2059_92)"/>
</g>
<defs>
<linearGradient id="paint0_linear_2059_92" x1="16.6298" y1="65.4141" x2="16.6298" y2="108.437" gradientUnits="userSpaceOnUse">
<stop stop-color="#630CFA"/>
<stop offset="1" stop-color="#4EAAB5"/>
</linearGradient>
<linearGradient id="paint1_linear_2059_92" x1="92.154" y1="65.3906" x2="92.154" y2="108.442" gradientUnits="userSpaceOnUse">
<stop stop-color="#630CFA"/>
<stop offset="1" stop-color="#4EAAB5"/>
</linearGradient>
<linearGradient id="paint2_linear_2059_92" x1="53.851" y1="0.4375" x2="53.851" y2="55.9107" gradientUnits="userSpaceOnUse">
<stop stop-color="#630CFA"/>
<stop offset="1" stop-color="#4EAAB5"/>
</linearGradient>
<linearGradient id="paint3_linear_2059_92" x1="53.8151" y1="59.957" x2="53.8151" y2="89.1684" gradientUnits="userSpaceOnUse">
<stop stop-color="#630CFA"/>
<stop offset="1" stop-color="#4EAAB5"/>
</linearGradient>
<linearGradient id="paint4_linear_2059_92" x1="53.828" y1="92.6836" x2="53.828" y2="106.009" gradientUnits="userSpaceOnUse">
<stop stop-color="#630CFA"/>
<stop offset="1" stop-color="#4EAAB5"/>
</linearGradient>
<clipPath id="clip0_2059_92">
<rect width="107" height="108" fill="white" transform="translate(0.914062 0.4375)"/>
</clipPath>
</defs>
</svg>
