<svg width="311" height="266" viewBox="0 0 311 266" fill="none" xmlns="http://www.w3.org/2000/svg">
<g clip-path="url(#clip0_1782_6114)">
<path d="M208.782 190.6C208.782 190.6 220.352 186.83 227.412 166.78C231.326 156.052 231.614 144.337 228.232 133.43C218.772 104.23 188.492 100.06 188.492 100.06C188.182 94.57 185.972 68.84 159.712 55.06C144.082 46.85 125.582 46.33 109.102 52.69C55.7716 73.26 77.2716 129.34 77.2716 129.34C77.2716 129.34 44.1016 129.73 44.1016 169.15C44.1016 194.51 68.6816 198.8 81.5616 198.8H305.562" stroke="#312458" stroke-width="3" stroke-miterlimit="10" stroke-linecap="round"/>
<path d="M5.11719 151.16C5.11719 151.16 6.28718 253.79 115.947 263.94L102.677 241.69" stroke="#312458" stroke-width="3" stroke-miterlimit="10" stroke-linecap="round"/>
<path d="M269.221 114.55C269.221 114.55 268.051 11.92 158.391 1.77002L171.661 24.01" stroke="#312458" stroke-width="3" stroke-miterlimit="10" stroke-linecap="round"/>
<path d="M131.119 48.55H82.7291L52.2891 34.11" stroke="#312458" stroke-width="3" stroke-miterlimit="10" stroke-linecap="round"/>
<path d="M94.7997 59.86H49.9297" stroke="#312458" stroke-width="3" stroke-miterlimit="10" stroke-linecap="round"/>
<path d="M167.663 136.11H102.483C99.468 136.11 97.0234 138.555 97.0234 141.57V141.58C97.0234 144.595 99.468 147.04 102.483 147.04H167.663C170.679 147.04 173.123 144.595 173.123 141.58V141.57C173.123 138.555 170.679 136.11 167.663 136.11Z" stroke="#312458" stroke-width="3" stroke-miterlimit="10" stroke-linecap="round"/>
<path d="M110.677 143.91C112.053 143.91 113.167 142.795 113.167 141.42C113.167 140.045 112.053 138.93 110.677 138.93C109.302 138.93 108.188 140.045 108.188 141.42C108.188 142.795 109.302 143.91 110.677 143.91Z" stroke="#312458" stroke-width="2" stroke-miterlimit="10" stroke-linecap="round"/>
<path d="M122.881 143.91C124.256 143.91 125.371 142.795 125.371 141.42C125.371 140.045 124.256 138.93 122.881 138.93C121.505 138.93 120.391 140.045 120.391 141.42C120.391 142.795 121.505 143.91 122.881 143.91Z" stroke="#312458" stroke-width="2" stroke-miterlimit="10" stroke-linecap="round"/>
<path d="M135.068 143.91C136.443 143.91 137.558 142.795 137.558 141.42C137.558 140.045 136.443 138.93 135.068 138.93C133.693 138.93 132.578 140.045 132.578 141.42C132.578 142.795 133.693 143.91 135.068 143.91Z" stroke="#312458" stroke-width="2" stroke-miterlimit="10" stroke-linecap="round"/>
<path d="M147.271 143.91C148.646 143.91 149.761 142.795 149.761 141.42C149.761 140.045 148.646 138.93 147.271 138.93C145.896 138.93 144.781 140.045 144.781 141.42C144.781 142.795 145.896 143.91 147.271 143.91Z" stroke="#312458" stroke-width="2" stroke-miterlimit="10" stroke-linecap="round"/>
<path d="M159.459 143.91C160.834 143.91 161.949 142.795 161.949 141.42C161.949 140.045 160.834 138.93 159.459 138.93C158.084 138.93 156.969 140.045 156.969 141.42C156.969 142.795 158.084 143.91 159.459 143.91Z" stroke="#312458" stroke-width="2" stroke-miterlimit="10" stroke-linecap="round"/>
<path d="M305.56 203.28C308.04 203.28 310.05 201.27 310.05 198.79C310.05 196.31 308.04 194.3 305.56 194.3C303.081 194.3 301.07 196.31 301.07 198.79C301.07 201.27 303.081 203.28 305.56 203.28Z" fill="#312458"/>
<path d="M305.56 236.35C308.04 236.35 310.05 234.34 310.05 231.86C310.05 229.38 308.04 227.37 305.56 227.37C303.081 227.37 301.07 229.38 301.07 231.86C301.07 234.34 303.081 236.35 305.56 236.35Z" fill="#312458"/>
<path d="M4.49 154.79C6.96976 154.79 8.98 152.78 8.98 150.3C8.98 147.82 6.96976 145.81 4.49 145.81C2.01024 145.81 0 147.82 0 150.3C0 152.78 2.01024 154.79 4.49 154.79Z" fill="#312458"/>
<path d="M269.068 119.67C271.548 119.67 273.558 117.66 273.558 115.18C273.558 112.7 271.548 110.69 269.068 110.69C266.588 110.69 264.578 112.7 264.578 115.18C264.578 117.66 266.588 119.67 269.068 119.67Z" fill="#312458"/>
<path d="M48.7791 64.5499C51.2588 64.5499 53.2691 62.5397 53.2691 60.0599C53.2691 57.5802 51.2588 55.5699 48.7791 55.5699C46.2993 55.5699 44.2891 57.5802 44.2891 60.0599C44.2891 62.5397 46.2993 64.5499 48.7791 64.5499Z" fill="#312458"/>
<path d="M51.1228 38.01C53.6026 38.01 55.6128 35.9998 55.6128 33.52C55.6128 31.0403 53.6026 29.03 51.1228 29.03C48.6431 29.03 46.6328 31.0403 46.6328 33.52C46.6328 35.9998 48.6431 38.01 51.1228 38.01Z" fill="#312458"/>
<path d="M226.438 169.23H235.777C237.22 169.23 238.604 169.803 239.624 170.823C240.644 171.844 241.217 173.227 241.217 174.67V226.57C241.217 228.013 241.791 229.396 242.811 230.417C243.831 231.437 245.215 232.01 246.657 232.01H305.167" stroke="#312458" stroke-width="3" stroke-miterlimit="10" stroke-linecap="round"/>
</g>
<defs>
<clipPath id="clip0_1782_6114">
<rect width="310.05" height="265.68" fill="white"/>
</clipPath>
</defs>
</svg>
