<svg width="98" height="100" viewBox="0 0 98 100" fill="none" xmlns="http://www.w3.org/2000/svg">
<path d="M46.8513 81.7755C39.939 81.2993 33.3687 78.5854 28.1315 74.0423C25.3235 76.8545 22.633 79.6658 19.825 82.4781C21.2487 84.7124 21.7971 87.3944 21.3675 90.0098C20.9378 92.6251 19.5598 94.9892 17.4964 96.649C15.4331 98.3088 12.8312 99.1479 10.1886 99.0039C7.54594 98.8599 5.04912 97.7428 3.17775 95.8686C1.30638 93.9944 0.190879 91.4961 0.0471069 88.8495C-0.0966655 86.2029 0.741214 83.5948 2.39852 81.5283C4.05582 79.4618 6.41629 78.0817 9.0277 77.6514C11.6391 77.2212 14.3171 77.7727 16.5481 79.1985C19.2391 76.3863 22.0466 73.5727 24.8546 70.7605C20.3196 65.5146 17.61 58.9348 17.1331 52.0124H12.9216C12.5924 52.2231 12.3138 52.5043 12.1035 52.834C11.5354 53.963 10.6378 54.8911 9.53043 55.4979C8.42306 56.1048 7.15729 56.3598 5.90163 56.2303C4.63515 56.1027 3.4352 55.6002 2.45564 54.7862C1.47609 53.9721 0.762374 52.8854 0.403589 51.6623C-0.0210931 50.1519 0.109965 48.5374 0.776066 47.1171C1.44217 45.6969 2.59826 44.564 4.0301 43.9269C5.50008 43.3368 7.13431 43.3111 8.62323 43.8513C10.1122 44.3916 11.3521 45.4601 12.1035 46.8562C12.1979 47.148 12.388 47.4001 12.6428 47.5703C12.8976 47.7404 13.2013 47.8195 13.5066 47.7946C14.6766 47.6774 15.8461 47.7946 17.1331 47.7946C17.6321 40.8774 20.3389 34.3043 24.8546 29.0465C22.0466 26.2343 19.3561 23.4211 16.5481 20.4918C14.6466 21.6555 12.458 22.2642 10.2297 22.2494C7.70685 22.102 5.31673 21.0713 3.4771 19.336C1.63747 17.6007 0.466086 15.2719 0.168219 12.7586C-0.134891 10.1677 0.537188 7.55794 2.05117 5.43516C3.56516 3.31239 5.81263 1.82996 8.35816 1.27681C10.3323 0.754623 12.4187 0.842705 14.3407 1.53313C16.2626 2.22355 17.9308 3.48243 19.1234 5.14222C20.4048 6.74471 21.1778 8.69391 21.3446 10.7401C21.5114 12.7863 21.0629 14.8369 20.0581 16.6263C19.7071 17.3294 19.7066 17.6795 20.1746 18.1482C22.5146 20.4918 24.855 22.9543 27.078 25.2978C27.312 25.5321 27.429 25.8827 27.663 26.1171C33.0139 21.4089 39.749 18.5707 46.8513 18.0315C46.8513 16.5082 46.8518 15.2198 46.7348 13.8137C46.7348 13.4621 46.3842 13.2287 46.0332 12.9944C45.1527 12.5499 44.3863 11.9065 43.7961 11.1154C43.2059 10.3243 42.8068 9.40719 42.6307 8.4355C42.4546 7.46381 42.5065 6.46363 42.7815 5.51526C43.0565 4.5669 43.5481 3.69409 44.2166 2.96807C44.885 2.24204 45.7127 1.68305 46.6342 1.33173C47.5558 0.980408 48.5459 0.847854 49.5272 0.94496C50.5085 1.04207 51.4526 1.36499 52.2877 1.89015C53.1228 2.4153 53.8261 3.12747 54.3397 3.97047C54.814 4.69687 55.131 5.5145 55.2698 6.37119C55.4086 7.22788 55.3646 8.10424 55.1441 8.94356C54.9236 9.78288 54.5297 10.5663 53.9878 11.2436C53.4459 11.9209 52.7696 12.4768 51.9997 12.8753C51.6803 13.0009 51.4136 13.2338 51.2434 13.5322C51.0731 13.8305 51.0087 14.1769 51.0628 14.5163C51.1798 15.5708 51.0628 16.7426 51.0628 18.0315C58.1111 18.5595 64.8013 21.3552 70.1346 26.0004C70.2516 25.766 70.4856 25.6489 70.7196 25.4145C73.0596 23.071 75.3996 20.6089 77.7395 18.1482C78.2075 17.6795 78.2066 17.4461 77.9726 16.7431C76.9667 14.9464 76.5062 12.8958 76.6473 10.8408C76.7883 8.78578 77.5259 6.81617 78.7679 5.17426C80.0099 3.53236 81.7027 2.28955 83.6398 1.59721C85.5769 0.904864 87.6732 0.793377 89.6725 1.27681C91.7126 1.71742 93.5699 2.77295 94.9924 4.30231C96.4148 5.83168 97.3351 7.76005 97.6294 9.82924C98.04 11.7728 97.8572 13.7944 97.1061 15.6331C96.3551 17.4718 95.0709 19.0435 93.4179 20.1416C91.8472 21.3428 89.9646 22.0696 87.9953 22.2357C86.026 22.4017 84.0521 21.9989 82.303 21.0776C82.0074 20.8572 81.6934 20.6613 81.3661 20.4918C78.6751 23.304 75.8671 26.1171 73.1761 29.0465C78.0901 36.5457 78.2066 34.9053 80.8976 47.7946C82.1846 47.7946 83.5886 47.795 84.9926 47.6778C85.2266 47.6778 85.5789 47.3268 85.8129 46.9753C86.362 45.9387 87.1847 45.0734 88.1918 44.4738C89.1988 43.8742 90.3497 43.5623 91.5212 43.5744C92.6927 43.5865 93.8402 43.9222 94.8347 44.5425C95.8292 45.1627 96.6333 46.0443 97.1609 47.092C97.8888 48.5939 98.0008 50.3209 97.474 51.9049C96.9473 53.4888 95.8228 54.804 94.3411 55.5689C92.8594 56.3338 91.1384 56.4884 89.5446 55.9991C87.9508 55.5099 86.6122 54.4159 85.8129 52.9507C85.4619 52.1305 85.11 52.0124 84.291 52.0124H80.7811C80.2832 58.9299 77.5762 65.5033 73.0596 70.7605C75.8676 73.5727 78.6746 76.2673 81.4826 79.0795C83.8157 77.6491 86.6077 77.1695 89.2841 77.7361C91.9605 78.3027 94.3189 79.8743 95.8744 82.1279C97.2827 84.1714 97.9315 86.6444 97.7071 89.1172C97.4827 91.59 96.3981 93.9046 94.645 95.6603C92.8919 97.416 90.5809 98.5022 88.1118 98.727C85.6427 98.9518 83.1734 98.302 81.133 96.8916C78.8918 95.2965 77.3415 92.9059 76.7981 90.2066C76.2547 87.5073 76.759 84.7016 78.208 82.3613C75.4 79.6663 72.5907 76.8545 69.7827 74.0423C64.5282 78.5574 57.9676 81.2673 51.0628 81.7755C51.0628 83.1816 51.0624 84.5872 51.1794 85.9933C51.1794 86.2277 51.5322 86.5787 51.8832 86.6959C53.0063 87.3008 53.9261 88.2233 54.5294 89.3484C55.1327 90.4735 55.3911 91.7521 55.2744 93.0239C55.171 94.2827 54.6917 95.4813 53.8987 96.4636C53.1057 97.4458 52.0372 98.1676 50.8298 98.5325C49.3219 98.983 47.6998 98.8615 46.2755 98.1915C44.8512 97.5215 43.7249 96.3481 43.1083 94.8982C42.469 93.4447 42.4022 91.8028 42.9232 90.3027C43.4442 88.8026 44.5125 87.5574 45.9144 86.8149C46.2123 86.6943 46.4658 86.4802 46.6342 86.2062C46.8026 85.9321 46.878 85.6114 46.8513 85.2907C46.7343 84.119 46.8513 82.9472 46.8513 81.7755ZM48.9582 22.2494C43.4922 22.2494 38.1476 23.8743 33.6044 26.9181C29.0611 29.9619 25.5219 34.2876 23.4355 39.3474C21.3491 44.4072 20.809 49.9749 21.8839 55.3423C22.9588 60.7097 25.6018 65.6368 29.4751 69.4995C33.3484 73.3622 38.2791 75.9866 43.643 77.0404C49.0068 78.0941 54.5614 77.5288 59.6047 75.4178C64.648 73.3068 68.952 69.7439 71.9719 65.1809C74.9918 60.618 76.5927 55.2599 76.5696 49.7856C76.5245 42.4762 73.5971 35.4812 68.4253 30.3235C63.2535 25.1659 56.2568 22.2635 48.9582 22.2494ZM17.1331 11.5869C17.1133 9.89454 16.4263 8.2801 15.2204 7.09439C14.0146 5.90867 12.388 5.24767 10.6981 5.25894C9.45381 5.28202 8.24364 5.67348 7.22016 6.38264C6.19668 7.09179 5.40675 8.08762 4.94645 9.24565C4.48615 10.4037 4.37655 11.6718 4.63338 12.8914C4.89021 14.111 5.50031 15.229 6.38837 16.1023C7.27643 16.9755 8.40415 17.5656 9.62641 17.8004C10.8487 18.0352 12.1121 17.9026 13.2598 17.4205C14.4074 16.9383 15.3882 16.1286 16.0774 15.0907C16.7665 14.0528 17.1329 12.8333 17.1331 11.5869ZM87.216 18.0315C88.9058 18.0117 90.5201 17.3237 91.704 16.116C92.888 14.9083 93.5457 13.2793 93.5344 11.5869C93.546 10.3189 93.1794 9.0758 92.4833 8.01669C91.7871 6.95757 90.7921 6.13173 89.6246 5.64113C88.4571 5.15054 87.1695 5.01898 85.9272 5.26352C84.6849 5.50806 83.5433 6.11767 82.648 7.01429C81.7528 7.9109 81.1441 9.0542 80.8999 10.2984C80.6557 11.5426 80.7871 12.8298 81.2769 13.999C81.7668 15.1683 82.5937 16.1648 83.6512 16.8621C84.7087 17.5593 85.95 17.9264 87.216 17.9148V18.0315ZM17.1331 88.1034C17.1133 86.4111 16.4263 84.7943 15.2204 83.6086C14.0146 82.4229 12.388 81.7642 10.6981 81.7755C9.8675 81.7721 9.04396 81.9324 8.27589 82.2492C7.50783 82.566 6.81119 83.0318 6.22384 83.6201C5.63648 84.2083 5.17134 84.9083 4.85504 85.6775C4.53874 86.4467 4.37633 87.2715 4.37973 88.1034C4.36848 89.7958 5.02848 91.4225 6.21241 92.6302C7.39635 93.8379 9.00835 94.5283 10.6981 94.548C12.4002 94.5331 14.0283 93.8493 15.2319 92.6439C16.4354 91.4386 17.1181 89.808 17.1331 88.1034ZM93.5344 88.1034C93.5344 86.4097 92.8633 84.7856 91.6675 83.588C90.4717 82.3904 88.8477 81.716 87.1566 81.716C85.4655 81.716 83.8438 82.3904 82.648 83.588C81.4522 84.7856 80.7811 86.4097 80.7811 88.1034C80.796 89.808 81.4787 91.4386 82.6823 92.6439C83.8859 93.8493 85.514 94.5331 87.216 94.548C88.9058 94.5283 90.5201 93.8379 91.704 92.6302C92.888 91.4225 93.5457 89.7958 93.5344 88.1034ZM48.9582 9.47909C49.5047 9.44232 50.0174 9.20784 50.4047 8.81998C50.792 8.43212 51.0261 7.9163 51.0628 7.36902C51.0739 7.08908 51.0277 6.8106 50.9257 6.5497C50.8238 6.28881 50.6688 6.05207 50.471 5.85397C50.2732 5.65587 50.0368 5.50063 49.7763 5.39855C49.5158 5.29646 49.2377 5.24789 48.9582 5.25894C48.3997 5.25894 47.8633 5.48131 47.4683 5.87686C47.0734 6.2724 46.8513 6.80963 46.8513 7.36902C46.8513 7.9284 47.0734 8.46563 47.4683 8.86117C47.8633 9.25672 48.3997 9.47909 48.9582 9.47909ZM8.59353 49.7856C8.57073 49.2443 8.33787 48.7342 7.94455 48.3621C7.55123 47.9901 7.02758 47.7865 6.48663 47.7946C5.92809 47.7946 5.39167 48.0169 4.99672 48.4125C4.60177 48.808 4.37973 49.3453 4.37973 49.9046C4.37973 50.464 4.60177 50.999 4.99672 51.3945C5.39167 51.7901 5.92809 52.0124 6.48663 52.0124C6.77249 52.01 7.054 51.9504 7.31613 51.8362C7.57827 51.722 7.8165 51.5566 8.0131 51.3487C8.20971 51.1409 8.36127 50.8939 8.46099 50.6255C8.56071 50.3572 8.6066 50.0716 8.59353 49.7856ZM89.3229 49.9046C89.3229 50.464 89.545 50.999 89.9399 51.3945C90.3349 51.7901 90.869 52.0124 91.4275 52.0124C91.9861 52.0124 92.5225 51.7901 92.9174 51.3945C93.3124 50.999 93.5344 50.464 93.5344 49.9046C93.5453 49.6247 93.497 49.3439 93.395 49.083C93.293 48.8222 93.1381 48.5854 92.9403 48.3873C92.7425 48.1892 92.506 48.034 92.2456 47.9319C91.9852 47.8297 91.707 47.7837 91.4275 47.7946C91.1506 47.7933 90.8769 47.8469 90.6209 47.9525C90.3648 48.058 90.1311 48.2141 89.9353 48.4102C89.7395 48.6063 89.586 48.838 89.4806 49.0945C89.3752 49.3509 89.3217 49.6273 89.3229 49.9046ZM51.0628 92.438C51.0727 91.8957 50.8703 91.3722 50.4984 90.9779C50.1266 90.5836 49.6159 90.3513 49.0748 90.3302C48.7981 90.3144 48.5205 90.353 48.259 90.4446C47.9974 90.5362 47.7571 90.6784 47.5506 90.8634C47.3441 91.0485 47.1746 91.2723 47.0547 91.5225C46.9348 91.7727 46.8663 92.0441 46.8513 92.3213C46.8379 92.8761 47.0371 93.4158 47.4066 93.8294C47.7761 94.243 48.2873 94.4999 48.8394 94.548C49.4109 94.5544 49.9624 94.3375 50.3773 93.9439C50.7922 93.5502 51.0383 93.0098 51.0628 92.438Z" fill="url(#paint0_linear_2059_790)"/>
<path d="M48.9633 26.3516C52.222 26.3895 55.4368 27.1019 58.4078 28.4433C61.3788 29.7848 64.0414 31.7283 66.2276 34.1488C68.4137 36.5693 70.0753 39.4143 71.1109 42.509C72.1465 45.6036 72.5325 48.8791 72.2443 52.1302C71.1913 63.379 61.5974 72.6359 50.5995 73.2218C46.2793 73.5207 41.9616 72.6123 38.1272 70.5968C34.2928 68.5812 31.0945 65.5393 28.8861 61.8086C26.6777 58.0779 25.5462 53.8049 25.6206 49.4686C25.6951 45.1322 26.9715 40.9023 29.3066 37.2498C29.5225 36.8042 29.8838 36.4443 30.3303 36.2314C30.7768 36.0184 31.2816 35.965 31.7631 36.078C32.1966 36.1609 32.5885 36.3941 32.8668 36.7372C33.1451 37.0802 33.2928 37.5105 33.285 37.9524C33.2528 38.6171 33.0514 39.262 32.7 39.8267C30.9167 42.6494 29.9213 45.9011 29.8184 49.2397C29.7155 52.5783 30.5089 55.8831 32.115 58.8106C33.7216 61.8513 36.1172 64.4009 39.0504 66.1912C41.9836 67.9815 45.3457 68.9447 48.7805 68.981C52.2153 69.0173 55.5952 68.1251 58.5655 66.3972C61.5358 64.6693 63.986 62.1713 65.6563 59.1653C67.3266 56.1592 68.1551 52.7562 68.0557 49.3175C67.9562 45.8788 66.9331 42.5318 65.0918 39.6276C63.2506 36.7235 60.6595 34.3696 57.5943 32.8168C54.5291 31.2641 51.1014 30.5697 47.6745 30.8051C44.5561 30.9678 41.5329 31.9371 38.8996 33.6178C38.343 33.9854 37.6946 34.1885 37.0281 34.2037C36.6004 34.2075 36.1858 34.0539 35.8626 33.7734C35.5395 33.493 35.3301 33.1039 35.2731 32.6795C35.1475 32.223 35.171 31.7397 35.3393 31.2972C35.5077 30.8547 35.8129 30.4764 36.21 30.2193C38.6829 28.65 41.4178 27.5377 44.2834 26.9374C45.8044 26.7031 47.4423 26.5859 48.9633 26.3516Z" fill="url(#paint1_linear_2059_790)"/>
<path d="M51.0685 39.2413C54.2275 39.4756 56.3348 40.9989 57.1538 43.9283C57.3462 44.6139 57.4243 45.3273 57.3869 46.0384C57.3197 46.5112 57.0786 46.9409 56.7105 47.2445C56.3424 47.5481 55.875 47.704 55.3988 47.6793C54.9248 47.7146 54.4519 47.5804 54.0666 47.3017C53.6813 47.023 53.4075 46.6168 53.2919 46.1551C53.2919 45.9208 53.1754 45.6869 53.1754 45.4525C53.1146 44.9254 52.8705 44.4369 52.4853 44.0725C52.1 43.7081 51.5975 43.4921 51.0685 43.4614H46.857C46.58 43.4599 46.3065 43.5116 46.0503 43.6171C45.7941 43.7225 45.5606 43.8786 45.3648 44.0748C45.1689 44.271 45.013 44.5048 44.9077 44.7614C44.8025 45.018 44.7485 45.2918 44.7501 45.5692C44.7392 45.8491 44.7875 46.1277 44.8895 46.3885C44.9915 46.6494 45.1464 46.8862 45.3442 47.0843C45.542 47.2823 45.7785 47.4376 46.0389 47.5397C46.2993 47.6419 46.5775 47.6902 46.857 47.6793C48.261 47.7965 49.664 47.6789 51.185 47.796C52.7969 47.8092 54.3457 48.4314 55.5176 49.5399C56.6896 50.6484 57.3983 52.1606 57.5034 53.7715C57.5958 55.289 57.1391 56.7882 56.2146 57.994C55.2901 59.1998 53.9615 60.0305 52.4738 60.3329C52.1228 60.4501 51.6535 60.4514 51.0685 60.5686C51.1268 61.1922 51.1268 61.8194 51.0685 62.443C51.0932 62.7373 51.0574 63.0326 50.9634 63.3126C50.8693 63.5926 50.7196 63.8506 50.5223 64.0702C50.325 64.2897 50.0844 64.4666 49.8162 64.5897C49.5481 64.7127 49.2588 64.7802 48.9639 64.7865C48.666 64.79 48.3707 64.73 48.0978 64.6103C47.8249 64.4905 47.5796 64.3148 47.3803 64.093C47.181 63.8713 47.0318 63.6084 46.9415 63.3241C46.8512 63.0397 46.8222 62.7393 46.857 62.443V60.5686C46.272 60.4514 45.8035 60.4501 45.2185 60.3329C43.9198 59.9779 42.7666 59.2207 41.9256 58.1679C41.0847 57.1151 40.5993 55.821 40.5386 54.4741C40.4966 54.189 40.5124 53.8996 40.5843 53.6205C40.6561 53.3414 40.7823 53.0785 40.9567 52.8492C41.1312 52.62 41.3515 52.4274 41.6011 52.2839C41.8508 52.1405 42.1244 52.0491 42.4101 52.0139C42.6961 51.9815 42.9872 52.0076 43.2624 52.0917C43.5377 52.1758 43.7927 52.317 44.012 52.5036C44.2312 52.6903 44.4104 52.9202 44.5376 53.1788C44.6647 53.4373 44.7359 53.7194 44.7501 54.0072C45.1011 55.7649 45.57 56.2318 47.442 56.2318H50.9519C51.2285 56.2318 51.5031 56.1775 51.7586 56.0716C52.0141 55.9656 52.2463 55.8097 52.4418 55.6138C52.6374 55.418 52.7908 55.1854 52.8966 54.9295C53.0024 54.6737 53.0588 54.4009 53.0588 54.124C53.0588 53.847 53.0024 53.572 52.8966 53.3161C52.7908 53.0602 52.6374 52.8277 52.4418 52.6318C52.2463 52.436 52.0141 52.2801 51.7586 52.1741C51.5031 52.0681 51.2285 52.0139 50.9519 52.0139H46.7404C45.1413 51.9962 43.6082 51.3691 42.4558 50.2585C41.3034 49.148 40.6177 47.6381 40.5386 46.0384C40.4214 44.5334 40.8567 43.0374 41.7611 41.8297C42.6655 40.622 43.9784 39.7858 45.4539 39.477C45.9059 39.3224 46.3793 39.2419 46.857 39.2413V37.3669C46.8258 37.0713 46.8567 36.7732 46.9484 36.4904C47.04 36.2076 47.1908 35.947 47.3894 35.726C47.588 35.5051 47.8312 35.3275 48.1024 35.2065C48.3735 35.0856 48.667 35.0234 48.9639 35.0234C49.2607 35.0234 49.5542 35.0856 49.8254 35.2065C50.0965 35.3275 50.3375 35.5051 50.536 35.726C50.7346 35.947 50.8854 36.2076 50.9771 36.4904C51.0687 36.7732 51.0996 37.0713 51.0685 37.3669C51.1269 37.9905 51.1269 38.6177 51.0685 39.2413Z" fill="url(#paint2_linear_2059_790)"/>
<defs>
<linearGradient id="paint0_linear_2059_790" x1="48.9374" y1="0.914062" x2="48.9374" y2="99.0198" gradientUnits="userSpaceOnUse">
<stop stop-color="#6306FC"/>
<stop offset="1" stop-color="#24B0B3"/>
</linearGradient>
<linearGradient id="paint1_linear_2059_790" x1="48.9771" y1="26.3516" x2="48.9771" y2="73.2775" gradientUnits="userSpaceOnUse">
<stop stop-color="#6306FC"/>
<stop offset="1" stop-color="#24B0B3"/>
</linearGradient>
<linearGradient id="paint2_linear_2059_790" x1="49.0154" y1="35.0234" x2="49.0154" y2="64.7866" gradientUnits="userSpaceOnUse">
<stop stop-color="#6306FC"/>
<stop offset="1" stop-color="#24B0B3"/>
</linearGradient>
</defs>
</svg>
