<?xml version="1.0" encoding="UTF-8"?><svg id="Capa_1" xmlns="http://www.w3.org/2000/svg" viewBox="0 0 600 600"><path d="M593.36,109.17v381.66c0,26.38-23.97,47.76-53.55,47.76H60.18c-29.58,0-53.55-21.38-53.55-47.76V109.17c0-26.38,23.97-47.76,53.55-47.76h479.64c29.58,0,53.55,21.38,53.55,47.76Z" style="fill:#f2f2f2; stroke-width:0px;"/><path d="M202.3,537.34l34.33-7.44,39.78-8.63s2.15,6.59,5.18,16.07h-79.28Z" style="fill:#2f2e41; stroke-width:0px;"/><path d="M289.2,533.06s-.32,1.72-.98,4.28H127.96c-1.77-5.38-2.56-10.93-.45-15.51.35-.8.8-1.56,1.33-2.25.39-.55.84-1.06,1.32-1.53,3.15-3.12,5.08-9.84,6.24-17.49,1.39-10.46,1.96-21.01,1.72-31.56t0-.02c-.03-2.49-.1-3.99-.1-3.99,0,0-.61-9.21-1.3-23.13.02,0,0-.02,0-.02-1.9-37.56-4.47-109.46,2.2-128.52.43-1.61,1.29-3.06,2.49-4.21,8.98-6.48,18.53-12.12,28.54-16.86.58-.26.88-.4.88-.4l22-.42,27.32-4.82,18.98-3.47s1.4.1,3.58.4c7.26,1,23.24,4.26,25.49,13.71,0,.02.02.03.02.05.28,1.24.33,2.52.14,3.78-2.15,15.75,13.05,112.48,17.68,117.32,4.63,4.84,3.41,22.52-8.04,33.75-2.02,2.08-3.48,4.62-4.27,7.41-4.32,13.9,2.46,36.61,9.1,47.23,4.82,7.87,7.05,17.06,6.36,26.26Z" style="fill:#3f3d56; stroke-width:0px;"/><polygon points="376.72 223.81 376.26 206.99 375.65 184.44 357.67 183.61 355.15 206.02 352.8 226.84 376.72 223.81" style="fill:#a0616a; stroke-width:0px;"/><path d="M192.56,295.02l25.22,27.07s106.87,17.26,107.59,8.2-6.32-11.69,5.21-10.88c11.54.81,14.31,9,16.07,1.16,1.76-7.84-7.92-8.03,3.29-9.14,11.2-1.11,35.67-98.92,35.67-98.92l-39.03,6.3s-7.59,47.29-12.34,53.34c-4.76,6.04-9.53,10.38-12.47,10.64s-129.21,12.25-129.21,12.25Z" style="fill:#3f3d56; stroke-width:0px;"/><circle cx="207.03" cy="222.97" r="37.05" style="fill:#a0616a; stroke-width:0px;"/><path d="M178.15,254.88l14.69,2.81s-13.66-22.05-12.86-32.14c.8-10.09,11.8-13.71,11.8-13.71,0,0,6.09,1.32,12.5,2.06.77-2.16,1.76-4.24,2.97-6.19.24,2.52,1.35,4.87,3.15,6.65,2.35.2,4.72-.07,6.96-.8,2.54-1.16,2.49-3.17,1.66-5.05,12.23.59,23.82,6.54,23.82,6.54.37-4.93.18-9.89-.56-14.79-.35-.1-.71-.21-1.06-.32-2.19-.69-4.3-1.61-6.3-2.75,2.22-.3,4.3-1.27,5.95-2.8-1.35-3.95-3.5-7.38-6.89-9.05-6.62-3.24-14.32-3.44-21.1-.56,0,0,7.86-5.74,4.97-8.08-.19.19-.39.37-.59.55-.27.22-.58.47-.87.69-1.78,1.45-4.45-.59-4.81-2.78-.04-.28-.09-.55-.16-.82-.05-.23-.11-.45-.18-.66-.05-.19-.12-.37-.19-.55-5.35-1.29-21.54,3.94-27.76,15.44,0,0-43.47,20.89-5.13,66.29Z" style="fill:#3f3d56; stroke-width:0px;"/><polygon points="160.39 537.34 139.62 537.34 138.92 536.16 128.84 519.58 123.28 510.42 136.39 500.56 142.56 495.94 156.18 527.55 160.39 537.34" style="fill:#a0616a; stroke-width:0px;"/><path d="M169.96,292.26l51.81,119.72,20.96-128.43c-2.19-.31-3.58-.4-3.58-.4l-8.92-17.32-51.09,2.65-8.29,23.38s-.31.14-.88.4Z" style="fill:#6c63ff; stroke-width:0px;"/><polygon points="238.12 537.34 197.32 537.34 223.37 463.41 236.63 529.89 238.12 537.34" style="fill:#6c63ff; stroke-width:0px;"/><rect x="335.25" y="310.47" width="184.64" height="109.75" rx="33.67" ry="33.67" style="fill:#fff; isolation:isolate; opacity:.5; stroke-width:0px;"/><path d="M486.22,421.48h-117.29c-19.28-.02-34.91-15.65-34.93-34.93v-42.41c.02-19.28,15.65-34.91,34.93-34.93h117.29c19.28.02,34.91,15.65,34.93,34.93v42.41c-.02,19.28-15.65,34.91-34.93,34.93ZM368.93,311.73c-17.89.02-32.39,14.52-32.41,32.41v42.41c.02,17.89,14.52,32.39,32.41,32.41h117.29c17.89-.02,32.39-14.52,32.41-32.41v-42.41c-.02-17.89-14.52-32.39-32.41-32.41h-117.29Z" style="fill:#fff; stroke-width:0px;"/><circle cx="427.42" cy="369.55" r="26.89" style="fill:#a0616a; stroke-width:0px;"/><path d="M433.32,396.29c-3.3-7.36,14.59-22.64,3.13-23.41,0,0-7.54-13.21-12.32-9.67-5.54,4.1-13.61-3.35-18.36-8.33,1.01-.81,1.91-1.75,2.7-2.78-1.51.28-3.03.44-4.57.48-.57-.84-.97-1.79-1.17-2.78-.46-1.93.34-3.94,1.98-5.03,1.74-.97,3.96-.38,5.82-1.07.47-.23.8-.68.88-1.19.52-2.26,2.78-3.66,5.03-3.14.25.06.5.14.74.25.22.12.46.19.7.2,1.29-.08,2.58-.32,3.81-.7-1.39-.65-2.73-1.41-4-2.26-.26-.18-.52-.36-.78-.54,2.34-1.9,5.39-2.68,8.35-2.15,3.07.6,6.03,1.67,8.77,3.17,1.63.79,3.25,1.58,4.87,2.37,3.5,1.54,6.82,3.44,9.91,5.68,6.54,5.14,10.44,12.92,10.65,21.24.15,8.19-6.86,30.63-26.14,29.69Z" style="fill:#2f2e41; stroke-width:0px;"/><rect x="116.62" y="417.51" width="184.64" height="109.75" rx="33.67" ry="33.67" style="fill:#fff; isolation:isolate; opacity:.5; stroke-width:0px;"/><path d="M267.59,528.52h-117.29c-19.28-.02-34.91-15.65-34.93-34.93v-42.41c.02-19.28,15.65-34.91,34.93-34.93h117.29c19.28.02,34.91,15.65,34.93,34.93v42.41c-.02,19.28-15.65,34.91-34.93,34.93ZM150.29,418.77c-17.89.02-32.39,14.52-32.41,32.41v42.41c.02,17.89,14.52,32.39,32.41,32.41h117.29c17.89-.02,32.39-14.52,32.41-32.41v-42.41c-.02-17.89-14.52-32.39-32.41-32.41h-117.29Z" style="fill:#fff; stroke-width:0px;"/><circle cx="210.74" cy="480.06" r="27.33" style="fill:#ffb6b6; stroke-width:0px;"/><path d="M192.94,487.08c-1.31-.44-2.73.27-3.17,1.58-.04.11-.07.22-.09.34-.18,1.46.25,2.94,1.18,4.07.93,1.12,1.77,2.31,2.5,3.57.73,1.3.63,2.9-.24,4.11-.95.92-2.35,1.22-3.59.76-1.21-.47-2.28-1.25-3.11-2.25-5.22-5.67-10.67-15.08-8-22.31.22-.77.31-1.58.26-2.38.05-.92.22-2.31-.64-2.62-2.42-.87,4.37-15.01,14.84-18.08-.51-4.83,24.69-11.77,23.31-5.71-.25,1.09,2.19.5,3.3.56,8.55.46,18.2,2.61,17.42,12.52-.3,3.84,1.29,2.95,2.56,6.58-1.99,1.18-2.64,3.78-4.17,2.05s-2.84-3.9-5.03-4.63c-2.34-.77-4.87.38-6.86,1.83s-3.82,3.24-6.16,4c-2.63.85-5.49.26-8.23.6-3.91.67-7.43,2.74-9.92,5.83-2.45,3.07-4.52,6.42-6.16,9.99" style="fill:#2f2e41; stroke-width:0px;"/><path d="M177.57,308.82l-36.96,1.61s-54.64,93.21-48.21,99.64c6.43,6.43,13,2.78,4.89,11.03s-16.14,5.04-11.32,11.47,11.25-.81,4.82,8.44c-6.43,9.24,45.8,96.32,45.8,96.32l22.5-11.25s-21.9-57.53-23.4-65.08-1.71-13.99,0-16.39,41.89-135.79,41.89-135.79Z" style="fill:#3f3d56; stroke-width:0px;"/><circle cx="366.88" cy="329.45" r="8.67" style="fill:#6c63ff; stroke-width:0px;"/><path d="M365.7,333.96c-.3,0-.59-.14-.77-.39l-2.36-3.15c-.32-.42-.24-1.03.18-1.35s1.03-.24,1.35.18c0,0,0,0,.01.01l1.55,2.06,3.97-5.96c.3-.44.89-.56,1.34-.27.44.3.56.89.27,1.34h0l-4.73,7.09c-.17.26-.46.42-.78.43h-.03Z" style="fill:#fff; stroke-width:0px;"/><circle cx="155.35" cy="437.73" r="8.67" style="fill:#6c63ff; stroke-width:0px;"/><path d="M154.17,442.24c-.3,0-.59-.14-.77-.39l-2.36-3.15c-.32-.42-.24-1.03.18-1.35s1.03-.24,1.35.18c0,0,0,0,0,.01l1.55,2.06,3.97-5.96c.3-.44.89-.56,1.34-.27.44.3.56.89.27,1.34h0l-4.73,7.09c-.17.26-.46.42-.78.43h-.03Z" style="fill:#fff; stroke-width:0px;"/><path d="M491.53,342.75c-4.73,0-8.56-3.83-8.56-8.56,0-4.73,3.83-8.56,8.56-8.56s8.56,3.83,8.56,8.56h0c0,4.73-3.83,8.56-8.56,8.56Z" style="fill:#e6e6e6; stroke-width:0px;"/><path d="M494.51,335.98l-1.79-1.79,1.79-1.79c.33-.33.34-.86,0-1.19s-.86-.34-1.19,0c0,0,0,0,0,0l-1.79,1.79-1.79-1.79c-.33-.33-.87-.33-1.19,0-.33.33-.33.86,0,1.19l1.79,1.79-1.79,1.79c-.33.33-.34.86,0,1.19s.86.34,1.19,0c0,0,0,0,0,0l1.79-1.79,1.79,1.79c.33.33.86.33,1.19,0,.33-.33.33-.86,0-1.19,0,0,0,0,0,0Z" style="fill:#fff; stroke-width:0px;"/><path d="M269.93,445.99c-4.73,0-8.56-3.83-8.56-8.56,0-4.73,3.83-8.56,8.56-8.56,4.73,0,8.56,3.83,8.56,8.56h0c0,4.73-3.83,8.56-8.56,8.56Z" style="fill:#e6e6e6; stroke-width:0px;"/><path d="M272.91,439.22l-1.79-1.79,1.79-1.79c.33-.33.32-.87,0-1.19-.33-.32-.86-.32-1.19,0l-1.79,1.79-1.79-1.79c-.33-.33-.87-.33-1.19,0-.33.33-.33.86,0,1.19l1.79,1.79-1.79,1.79c-.33.33-.34.86,0,1.19s.86.34,1.19,0c0,0,0,0,0,0l1.79-1.79,1.79,1.79c.33.33.87.33,1.19,0,.33-.33.33-.86,0-1.19Z" style="fill:#fff; stroke-width:0px;"/><circle cx="366.73" cy="175.98" r="15.11" style="fill:#a0616a; stroke-width:0px;"/><rect x="334.85" y="171.95" width="184.64" height="109.75" rx="33.67" ry="33.67" style="fill:#fff; isolation:isolate; opacity:.5; stroke-width:0px;"/><path d="M485.81,282.96h-117.3c-19.28-.02-34.91-15.65-34.93-34.93v-42.41c.02-19.28,15.65-34.91,34.93-34.93h117.3c19.28.02,34.91,15.65,34.93,34.93v42.41c-.02,19.28-15.65,34.91-34.93,34.93ZM368.52,173.21c-17.89.02-32.39,14.52-32.41,32.41v42.41c.02,17.89,14.52,32.39,32.41,32.41h117.3c17.89-.02,32.39-14.52,32.41-32.41v-42.41c-.02-17.89-14.52-32.39-32.41-32.41h-117.3Z" style="fill:#fff; stroke-width:0px;"/><path d="M462.21,229.98c.08,7.05,2.32,21.72.71,28.62l-.26-.58c-1.34,1.06-2.76,2.01-4.25,2.84-1.07-2.61-2.68-4.97-4.72-6.93.27,3.24-.11,6.5-1.13,9.59-6.02,2.17-16.58-4.66-23.12-4.8-10.53-.24-20.79-2.86-30.86-5.63-3.57-.98-7.5-2.26-9.12-5.23s1.28-6.17,1.09-9.51c-1.35-23.83,10-27.83,20.8-34.2,2.38-1.4,3.54-4.42,6.23-5.59,3.73-1.63,8.16-.85,12.22-.03-2.05-.67-3.59-2.37-4.08-4.47-.34-2.06.5-4.15,2.18-5.39,2.49-1.63,5.57-2.07,8.41-1.2,2.75.86,5.36,2.14,7.72,3.79,1.61.88,3.04,2.04,4.24,3.43,1.15,1.34,1.35,3.26.5,4.81-1.04,1.32-2.63,2.09-4.3,2.09-1.28.04-2.55-.1-3.79-.39,5.69,1.4,10.82,4.51,14.7,8.9,4.82,5.61,6.74,12.84,6.83,19.89Z" style="fill:#2f2e41; stroke-width:0px;"/><circle cx="424.43" cy="229.58" r="23.34" style="fill:#ffb6b6; stroke-width:0px;"/><path d="M449.9,226.06c-2.74,3.32-6.83,3.15-10.46,2.62-1.15-.16-2.29-.35-3.44-.56-.2-.65-.43-1.29-.69-1.92-1.07-2.61-2.68-4.97-4.72-6.93.21,2.56.02,5.14-.59,7.63-2.13-.49-4.25-1.04-6.35-1.65-3.87-.63-6.58-4.19-6.14-8.09-3.03,2.31-6.33,4.31-9.8,4.35-4.01-.1-7.48-2.81-8.57-6.67-.8-3.05-.95-6.23-.41-9.34.46-3.71,1.5-7.78,4-9.27,2.01-1.21,4.33-.35,6.4.64,4.56,2.19,8.88,4.84,12.9,7.91l.05,1.01c1.04-4.98,4.48-8.82,8.22-9.2,2.52-.25,4.99.91,7.36,2.09,3.11,1.37,6,3.19,8.58,5.4,2.91,2.65,4.94,6.14,5.8,9.98.9,4.17.22,9.12-2.15,11.99Z" style="fill:#2f2e41; stroke-width:0px;"/><path d="M426.79,193.67c.24.02-.35-.11-.16-.03-.09-.04-.18-.09-.27-.15-.01,0-.2-.16-.08-.06-.29-.22-.5-.52-.62-.86-.27-.83-.39-1.7-.37-2.57.05-1.15-.15-2.29-.57-3.35-.44-1.01-1.62-1.47-2.64-1.03-.19.08-.36.19-.52.33-.67.9-.99,2-.91,3.12-.06,1.08.05,2.16.34,3.2.49,1.71,1.46,3.25,2.81,4.41,1.55,1.36,3.5,2.18,5.56,2.35.81-.02,1.44-.69,1.42-1.49,0-.36-.15-.71-.4-.97l-2.58-2.45c-.57-.56-1.48-.56-2.04.01-.56.56-.56,1.47,0,2.03l2.58,2.45,1.02-2.47c-.43-.04-.85-.12-1.25-.26-.44-.12-.86-.31-1.25-.55-.38-.21-.74-.46-1.07-.75-.21-.18-.41-.38-.6-.58-.07-.07-.14-.15-.2-.23,0,0-.27-.34-.15-.18-.3-.41-.56-.84-.78-1.3-.08-.16-.14-.33-.19-.5-.09-.28-.17-.57-.22-.86-.11-.61-.14-1.24-.1-1.86.01-.26.04-.53.08-.79.04-.14.06-.28.08-.42,0-.35-.05.19-.23.27l-.73.2c-.24-.02-.46-.15-.59-.35-.03-.12-.02-.1.03.06.05.19.1.39.13.58.06.46.09.92.1,1.38,0,.98.12,1.95.34,2.9.41,1.96,2.04,3.44,4.04,3.66.79,0,1.44-.65,1.44-1.44-.02-.79-.65-1.43-1.44-1.44Z" style="fill:#2f2e41; stroke-width:0px;"/><circle cx="369.4" cy="190.96" r="8.67" style="fill:#6c63ff; stroke-width:0px;"/><path d="M368.21,195.47c-.3,0-.59-.14-.77-.39l-2.36-3.15c-.32-.42-.24-1.03.18-1.35s1.03-.24,1.35.18c0,0,0,0,.01.01l1.55,2.06,3.97-5.96c.3-.44.89-.56,1.34-.27.44.3.56.89.27,1.34l-4.73,7.09c-.17.26-.46.42-.78.43h-.03Z" style="fill:#fff; stroke-width:0px;"/><path d="M487.75,200.47c-4.73,0-8.56-3.83-8.56-8.56,0-4.73,3.83-8.56,8.56-8.56s8.56,3.83,8.56,8.56h0c0,4.73-3.83,8.56-8.56,8.56Z" style="fill:#e6e6e6; stroke-width:0px;"/><path d="M490.73,193.71l-1.79-1.79,1.79-1.79c.33-.33.34-.86,0-1.19s-.86-.34-1.19,0c0,0,0,0,0,0l-1.79,1.79-1.79-1.79c-.33-.33-.87-.33-1.19,0-.33.33-.33.86,0,1.19l1.79,1.79-1.79,1.79c-.33.33-.34.86,0,1.19s.86.34,1.19,0c0,0,0,0,0,0l1.79-1.79,1.79,1.79c.33.33.86.33,1.19,0,.33-.33.33-.86,0-1.19,0,0,0,0,0,0Z" style="fill:#fff; stroke-width:0px;"/><path d="M545.98,119.32H40.17c-.7,0-1.26-.56-1.26-1.26s.56-1.26,1.26-1.26h505.81c.7,0,1.26.56,1.26,1.26s-.56,1.26-1.26,1.26Z" style="fill:#fff; stroke-width:0px;"/><ellipse cx="96.85" cy="89.23" rx="9.73" ry="9.95" style="fill:#fff; stroke-width:0px;"/><ellipse cx="130.47" cy="89.23" rx="9.73" ry="9.95" style="fill:#fff; stroke-width:0px;"/><ellipse cx="164.08" cy="89.23" rx="9.73" ry="9.95" style="fill:#fff; stroke-width:0px;"/><path d="M202.41,97.09c-.31,0-.61-.12-.82-.35l-6.57-6.71c-.44-.45-.44-1.16,0-1.61l6.57-6.71c.44-.45,1.17-.46,1.63-.02s.46,1.17.02,1.63l-5.78,5.91,5.78,5.91c.44.45.44,1.18-.02,1.63-.21.21-.5.33-.8.33h0Z" style="fill:#fff; stroke-width:0px;"/><path d="M213.44,97.09c-.64,0-1.15-.52-1.15-1.15,0-.3.12-.59.33-.8l5.78-5.91-5.78-5.91c-.44-.45-.44-1.18.02-1.63s1.18-.44,1.63.02l6.56,6.71c.44.45.44,1.16,0,1.61l-6.56,6.71c-.22.22-.51.35-.82.35Z" style="fill:#fff; stroke-width:0px;"/><path d="M468.31,80.44h-12.21c-1.39,0-2.52,1.13-2.52,2.52h0v12.22c0,1.39,1.13,2.52,2.52,2.52h12.21c1.39,0,2.53-1.13,2.53-2.52v-12.22c0-1.39-1.14-2.52-2.53-2.52Z" style="fill:#fff; stroke-width:0px;"/><path d="M438.39,80.44h-12.21c-1.39,0-2.52,1.13-2.52,2.52h0v12.22c0,1.39,1.13,2.52,2.52,2.52h12.21c1.39,0,2.53-1.13,2.53-2.52v-12.22c0-1.39-1.14-2.52-2.53-2.52Z" style="fill:#fff; stroke-width:0px;"/><path d="M496.49,81.01h-12.21c-1.39,0-2.52,1.13-2.52,2.52h0v12.22c0,1.39,1.13,2.52,2.52,2.52h12.21c1.39,0,2.53-1.13,2.53-2.52v-12.22c0-1.39-1.14-2.52-2.53-2.52Z" style="fill:#fff; stroke-width:0px;"/><path d="M363.12,85.66h-97.58c-1.7-.01-3.08,1.36-3.09,3.05-.01,1.7,1.36,3.08,3.05,3.09.01,0,.02,0,.04,0h97.58c1.7-.01,3.06-1.39,3.05-3.09-.01-1.68-1.37-3.04-3.05-3.05Z" style="fill:#fff; stroke-width:0px;"/></svg>