<svg width="120" height="120" viewBox="0 0 120 120" fill="none" xmlns="http://www.w3.org/2000/svg">
<mask id="mask0_2059_251" style="mask-type:luminance" maskUnits="userSpaceOnUse" x="0" y="0" width="120" height="120">
<path d="M119.901 0.951172H0.5625V119.745H119.901V0.951172Z" fill="white"/>
</mask>
<g mask="url(#mask0_2059_251)">
<path d="M65.5387 119.767C63.3022 118.01 61.1815 116.133 58.945 114.376C58.4722 114.011 57.8968 113.806 57.2988 113.79C53.7674 113.204 50.1165 112.735 46.5851 112.032C46.3187 112.031 46.0572 111.966 45.8219 111.842C45.5865 111.718 45.386 111.537 45.2356 111.318C45.0851 111.099 44.9886 110.849 44.9574 110.586C44.9262 110.322 44.9611 110.055 45.0563 109.808C45.2917 108.87 46.2329 108.518 47.5278 108.752C49.1757 109.102 50.8228 109.454 52.4708 109.808H53.0593C52.1176 108.05 52.2358 107.698 53.5306 106.292C47.0346 105.336 40.8161 103.019 35.2852 99.4952C34.5789 100.433 33.8722 101.37 33.0482 102.541C35.167 103.713 37.1691 104.651 39.2879 105.823C39.8143 106.053 40.2345 106.471 40.465 106.995C40.5683 107.293 40.5892 107.613 40.5271 107.922C40.465 108.231 40.3214 108.517 40.111 108.752C39.8215 108.949 39.4949 109.081 39.1499 109.142C38.8049 109.202 38.4503 109.189 38.1108 109.103C36.1097 108.165 34.109 106.994 32.1079 105.94C31.7315 105.68 31.3383 105.445 30.9308 105.237C29.9891 106.526 29.0469 107.697 28.1052 108.986C26.9281 110.509 25.3978 110.977 23.9853 110.274C22.455 109.571 21.866 108.165 22.3368 106.173C22.8077 104.416 23.2799 102.542 23.7508 100.55H20.4539C17.8642 100.433 16.5694 98.6758 17.5111 96.3323C17.8653 95.5676 17.9883 94.7163 17.8628 93.8835C17.7373 93.0508 17.3693 92.2729 16.8053 91.6453C11.7498 84.9468 8.47111 77.0887 7.271 68.7961C7.15329 68.5617 7.15191 68.3256 7.0342 68.0912C7.03953 67.9271 6.99922 67.7666 6.91694 67.6243H3.26832C2.2089 67.6243 1.26582 67.7406 0.677262 66.686C0.0886991 65.5143 0.913606 64.8103 1.61988 63.9901C2.91472 62.4668 4.09276 60.8282 5.50531 59.422C6.26902 58.5344 6.72285 57.4231 6.79969 56.2569C7.39612 46.9099 10.572 37.9091 15.9799 30.2449C17.3282 28.2929 18.7835 26.4144 20.3366 24.6195C20.4646 24.3902 20.6415 24.1925 20.8562 24.0405C21.071 23.8885 21.3185 23.7857 21.5781 23.7407C21.8378 23.6958 22.1038 23.711 22.3575 23.7819C22.6112 23.8528 22.8445 23.9775 23.0426 24.1504C23.8666 24.8534 23.8671 25.9085 22.9254 26.9631C16.7543 33.838 12.6017 42.2703 10.9196 51.3365C10.8129 51.5121 10.7717 51.7194 10.8024 51.9224C10.6897 52.2619 10.6477 52.6215 10.6828 52.9774C10.9278 52.7353 11.2301 52.5558 11.5611 52.4579C11.892 52.36 12.2415 52.3448 12.5796 52.4144C12.9176 52.484 13.2345 52.6378 13.4992 52.8584C13.7639 53.079 13.9686 53.361 14.0969 53.68C14.4501 52.1567 14.6869 50.9845 14.9223 49.6956C17.0573 40.7502 21.8088 32.6366 28.5765 26.3795C35.3442 20.1224 43.8228 16.0028 52.9421 14.5429C53.2952 14.5429 53.6484 14.4262 54.1192 14.4262C54.3903 14.3581 54.6753 14.3555 54.9469 14.4216C55.2184 14.4877 55.469 14.6189 55.678 14.8038C55.8869 14.9887 56.0469 15.2228 56.1447 15.4835C56.2424 15.7442 56.2751 16.0246 56.2389 16.3005V17.9415C58.8286 15.9495 61.1815 14.1909 63.6535 12.3161C61.1815 10.3241 58.8286 8.33307 56.2389 6.22391V8.68414C56.2389 10.0902 55.7667 10.5599 54.2365 10.7942C49.231 11.362 44.347 12.7044 39.7592 14.7763C36.0916 16.3511 32.647 18.4011 29.5168 20.8708C29.046 21.2224 28.4588 21.6906 27.9879 21.5734C27.6519 21.5301 27.3303 21.4125 27.0453 21.2302C26.7603 21.0478 26.5186 20.8047 26.3395 20.5184C26.2544 20.2185 26.2413 19.904 26.3027 19.5984C26.3641 19.2928 26.4992 19.005 26.6936 18.7608C27.2928 18.0577 28.0082 17.4631 28.811 17.0031C35.6022 12.1016 43.4723 8.8875 51.765 7.6291C52.5889 7.51192 52.8248 7.1604 52.8248 6.45734C52.7071 5.28559 52.8248 3.99712 52.8248 2.82536C52.8248 2.00513 53.0607 1.18536 53.8847 0.95101C54.5864 0.866886 55.2945 1.0334 55.8849 1.42017C58.0037 3.06063 60.0062 4.81689 62.0073 6.45734C62.4031 6.72312 62.8403 6.92114 63.3017 7.04322C71.3478 7.41347 79.201 9.61837 86.2556 13.4879C86.4637 13.653 86.7039 13.7737 86.9615 13.8403C87.0792 13.2544 87.3151 12.6681 87.4328 12.1994C87.6298 11.5472 88.0345 10.9763 88.5869 10.5745C89.1393 10.1727 89.8088 9.96136 90.4928 9.97261C92.3762 9.97261 94.2606 9.85543 96.144 9.97261C96.5725 9.9562 96.9967 10.0482 97.3809 10.2381C97.765 10.4279 98.0959 10.7099 98.3419 11.0597C98.5878 11.4094 98.7425 11.814 98.7902 12.2383C98.8379 12.6626 98.7776 13.0926 98.6155 13.4879C97.9092 15.597 97.2025 17.7066 96.3785 19.8158C96.2608 20.2845 96.1421 20.6351 96.0244 21.221H99.3213C99.9626 21.1877 100.6 21.3209 101.174 21.6078C101.748 21.8946 102.239 22.3255 102.595 22.8573C102.951 23.3892 103.161 24.0048 103.207 24.6424C103.252 25.2801 103.13 25.9175 102.853 26.4939C102.779 26.7047 102.752 26.9307 102.772 27.153C102.792 27.3753 102.859 27.5906 102.97 27.7847C104.382 30.1282 105.914 32.236 107.327 34.5795C108.151 35.7512 107.914 36.6895 106.973 37.2754C106.031 37.8613 105.09 37.5093 104.384 36.2204C103.089 34.2284 101.794 32.1188 100.381 29.8924C99.4394 31.0642 98.7332 32.0011 98.0269 32.9385C98.1446 33.2901 98.3805 33.5253 98.4982 33.8769C102.773 39.8472 105.519 46.7642 106.501 54.0301C106.737 55.9049 106.148 56.6094 104.264 56.6094H102.735C104.619 59.1872 106.384 61.5298 108.267 63.8733C110.268 61.5298 112.271 59.1872 114.389 56.6094H112.152C111.686 56.6308 111.23 56.4711 110.879 56.1654C110.528 55.8596 110.31 55.431 110.269 54.9685C109.445 51.336 108.62 47.7031 107.796 43.9535C107.626 43.5027 107.643 43.0032 107.842 42.5643C108.04 42.1255 108.404 41.7827 108.856 41.61C109.095 41.5103 109.356 41.4694 109.614 41.491C109.873 41.5125 110.121 41.5956 110.341 41.7336C110.56 41.8715 110.743 42.0619 110.874 42.2851C111.005 42.5083 111.08 42.7594 111.093 43.0175C111.917 45.9469 112.623 48.8762 113.33 51.8056C113.447 52.1572 113.446 52.6254 113.564 53.0941C114.859 53.0941 116.036 53.2113 117.213 53.0941C117.711 53.037 118.216 53.1165 118.673 53.323C119.129 53.5294 119.52 53.8549 119.804 54.2659V55.4376C118.038 57.5468 116.155 59.7727 114.389 61.999C114.035 62.5304 113.793 63.1287 113.681 63.7566C113.328 66.3345 113.212 68.9123 112.624 71.373C107.444 92.699 94.1419 106.409 72.836 112.268C71.188 112.736 69.5391 112.971 67.7734 113.323C67.7734 114.612 67.7752 115.899 67.8929 117.188C67.9374 117.683 67.851 118.18 67.6446 118.632C67.4383 119.084 67.1192 119.476 66.7158 119.767H65.5387ZM37.5222 96.6825C37.6399 96.7997 37.7585 96.9177 37.8763 97.0349C43.7487 100.625 50.4198 102.717 57.2988 103.127C57.7253 103.075 58.131 102.913 58.4759 102.658C60.5948 101.135 62.595 99.6132 64.5961 98.09C65.3024 97.5041 66.1273 97.1521 66.7158 97.6208C67.2911 98.1418 67.664 98.8454 67.7734 99.6119C67.8332 100.587 67.8332 101.566 67.7734 102.541C67.9603 102.465 68.1601 102.426 68.362 102.425C74.7433 101.205 80.7501 98.5171 85.9016 94.5747C90.7126 91.0044 94.719 86.4671 97.659 81.2597C100.599 76.0523 102.407 70.2897 102.97 64.3425C103.056 63.933 103.049 63.5103 102.947 63.1044C102.845 62.6985 102.651 62.32 102.381 61.999C100.865 60.1631 99.451 58.2459 98.1442 56.2569C97.919 55.9592 97.761 55.6183 97.6797 55.2545C97.5985 54.8907 97.5955 54.5138 97.6728 54.1491C97.9083 53.3289 98.8513 53.0941 99.6753 53.0941H102.735C101.683 46.9412 99.271 41.0982 95.6726 35.9869C94.7572 37.2864 93.775 38.5371 92.7298 39.7356C92.3409 40.1931 91.8244 40.5275 91.2469 40.6968C90.6695 40.8662 90.0549 40.8622 89.4789 40.6877C88.903 40.5132 88.3923 40.1759 88.0075 39.715C87.6227 39.2542 87.3825 38.6903 87.3155 38.0947C87.2765 37.4221 87.3552 36.7489 87.55 36.1037C87.9032 34.346 88.3736 32.5884 88.8444 30.8308H85.1958C84.7365 30.838 84.2817 30.7368 83.8692 30.5355C83.4568 30.3343 83.0987 30.0385 82.8231 29.6727C82.5475 29.307 82.3614 28.8805 82.2828 28.43C82.2043 27.9795 82.2346 27.5166 82.3702 27.0798C82.4956 26.435 82.693 25.8066 82.9588 25.2054C83.4296 24.3852 83.1942 23.916 82.3702 23.5645C76.6212 20.0987 70.1241 18.0503 63.419 17.589C62.8675 17.5454 62.3192 17.7135 61.8878 18.0582L56.2389 22.276C55.5327 22.8619 54.8269 23.4478 53.7674 22.8619C52.708 22.3932 52.7076 21.4558 52.7076 20.5184C52.7663 19.7383 52.7663 18.955 52.7076 18.1749H52.2363C52.0598 18.281 51.8516 18.322 51.6477 18.2916C44.2213 19.7236 37.3364 23.1704 31.7538 28.2515C23.5185 35.4578 18.3442 45.5107 17.2766 56.3737C17.2031 56.8375 17.2393 57.313 17.3823 57.7605C17.5254 58.208 17.7704 58.6166 18.0996 58.9529C19.5122 60.8277 20.9243 62.7016 22.3368 64.4592C22.8077 65.1623 23.2794 65.9834 22.6909 66.5693C22.1667 67.141 21.458 67.5142 20.6884 67.6243C19.7083 67.6827 18.7256 67.6827 17.7456 67.6243C18.6247 72.38 20.2554 76.9669 22.5736 81.2162C22.9409 80.6682 23.4549 80.2339 24.0588 79.9644C24.6627 79.6949 25.3301 79.6003 25.9855 79.692C27.6334 79.692 29.2832 79.5749 30.8135 79.692C33.1678 79.692 34.1085 81.2149 33.4023 83.324C32.696 85.4332 31.9888 87.5428 31.2825 89.652C31.1348 90.0729 31.0181 90.5031 30.9308 90.9404C31.9501 90.8819 32.9715 90.8819 33.9908 90.9404C34.5894 90.8941 35.1911 90.9753 35.7565 91.1761C37.8753 91.9964 38.5816 94.1046 37.5222 96.6825ZM64.3616 114.259V112.151C64.3616 110.628 64.832 110.159 66.2445 109.924C67.4684 109.833 68.6861 109.676 69.8931 109.455C89.6688 104.884 102.54 92.933 108.504 73.5998C109.092 71.725 109.327 69.8502 109.798 67.741C108.15 68.9128 107.209 68.3269 106.15 67.1552C106.15 67.5067 106.148 67.6239 106.03 67.741C103.087 83.5597 94.3769 95.0434 80.016 102.191C75.8919 104.203 71.4877 105.585 66.9503 106.292C65.0669 106.527 64.3616 105.941 64.3616 103.949C64.3616 103.597 64.242 103.246 64.242 102.777C61.7701 104.652 59.4167 106.409 56.9448 108.167C59.4167 110.276 61.7719 112.15 64.3616 114.259ZM19.6308 89.7687C20.1017 88.4797 20.4548 87.5433 20.8079 86.6058C20.9147 86.2765 20.9474 85.9289 20.9068 85.5851C20.8662 85.2414 20.7518 84.9105 20.5711 84.6148C19.1839 82.3409 18.0021 79.9471 17.0398 77.4652C15.8626 73.95 14.9209 70.3185 14.0969 66.686C13.7438 65.0456 14.4515 64.2262 16.0994 64.1091H17.6283C15.7449 61.6484 13.9802 59.3035 12.0968 56.8428C10.0956 59.3035 8.09315 61.6484 5.97433 64.1091H7.74001C9.74113 64.2262 10.0952 64.4606 10.4483 66.4526C11.2835 73.697 13.7365 80.6616 17.6283 86.8393C18.2169 87.7767 18.9245 88.7141 19.6308 89.7687ZM86.0188 27.3155H90.4928C92.3762 27.3155 93.0834 28.1344 92.6126 30.0092C92.4949 30.7122 92.259 31.4157 92.1413 32.236C91.9058 33.2905 91.5513 34.4632 91.3159 35.5178C91.4052 35.53 91.4893 35.5707 91.5527 35.6345C94.2601 32.0021 96.967 28.4859 99.9098 24.7363C97.6733 24.7363 95.7899 24.7367 94.0242 24.6195C92.1408 24.6195 91.4355 23.6835 92.024 21.9259C92.7303 19.6995 93.5524 17.5886 94.2587 15.3622C94.4618 14.7257 94.6994 14.1004 94.9668 13.4879C93.9452 13.5117 92.9212 13.473 91.9045 13.3712C91.726 13.3428 91.544 13.352 91.3688 13.3963C91.1936 13.4406 91.0292 13.5201 90.886 13.6298C90.7427 13.7395 90.6245 13.8754 90.5365 14.0326C90.4486 14.1898 90.3938 14.3639 90.3756 14.5429C89.0807 18.4097 87.6677 22.277 86.3729 26.1437C86.2552 26.4953 86.1366 26.8468 86.0188 27.3155ZM20.9252 97.0349H25.5164C27.2821 97.0349 27.987 97.8542 27.6339 99.6119C27.163 101.487 26.6931 103.479 26.2223 105.471H26.3395C29.0469 101.838 31.8711 98.2058 34.8139 94.339C32.5774 94.339 30.6944 94.4561 28.811 94.339C27.0453 94.339 26.3395 93.2858 26.9281 91.6453C27.6343 89.3018 28.5756 86.8393 29.3996 84.4958C29.5173 84.0271 29.6359 83.6765 29.7536 83.0906C28.6537 83.0692 27.5524 83.1079 26.4568 83.2073C26.236 83.2297 26.0253 83.3068 25.8406 83.4293C25.656 83.5518 25.5026 83.7157 25.3969 83.9099L23.6312 89.1828C22.6895 91.7607 21.8669 94.2227 20.9252 97.0349ZM66.8331 14.4262C73.0829 15.3455 79.0856 17.4971 84.49 20.7541C84.8431 19.8167 85.0771 18.9947 85.4303 18.2916C85.7834 17.4714 85.548 17.1217 84.8417 16.653C80.8084 14.5312 76.5439 12.8784 72.1301 11.7302C70.7176 11.3787 69.1864 11.2625 67.6561 10.9109C68.3624 12.6686 68.3633 13.0201 66.8331 14.4262Z" fill="url(#paint0_linear_2059_251)"/>
<path d="M63.8963 69.8475H57.6566C57.2323 70.015 56.8643 70.3009 56.5968 70.6691C53.4185 74.8874 50.2407 78.9876 47.0625 83.206C46.6896 83.7983 46.167 84.2845 45.5474 84.6134C44.9278 84.9424 44.233 85.1021 43.5311 85.0803C43.0064 85.0376 42.4966 84.8847 42.0367 84.6295C41.5769 84.3742 41.1788 84.0238 40.8665 83.6019C40.5542 83.1799 40.3361 82.6958 40.2274 82.183C40.1187 81.6701 40.1221 81.1406 40.2366 80.629C40.9428 77.8168 41.6477 75.005 42.354 72.31C42.3431 72.0318 42.3825 71.7525 42.4713 71.4884H37.1742C34.3491 71.4884 32.8207 69.3793 33.7624 66.8014C35.9989 60.2396 38.2345 53.6786 40.4711 47.234C40.6474 46.4521 41.1025 45.7603 41.7516 45.2864C42.4008 44.8125 43.2003 44.5872 44.0024 44.6548H51.4192C53.7735 44.6548 55.0665 46.4124 54.2425 48.7559C53.1831 51.9196 52.0074 55.0852 50.9479 58.249C50.844 58.7336 50.6856 59.2043 50.4766 59.6541H53.4194C54.832 55.4358 56.3632 51.1003 57.8934 46.7648C58.8351 43.8354 59.8941 40.9065 60.9535 37.86C61.7775 35.3993 62.8374 34.5781 65.5448 34.5781H75.079C78.1395 34.5781 79.5525 36.4525 78.4931 39.3819C76.8452 44.1861 75.1958 48.8745 73.5478 53.6786C73.4275 54.1587 73.2696 54.6279 73.0765 55.0838C73.6651 55.0838 74.0201 55.2006 74.3732 55.2006C76.8452 55.2006 79.1985 55.0834 81.6705 55.2006C82.6065 55.1965 83.5267 55.4425 84.3351 55.9123C85.1434 56.3821 85.8097 57.0603 86.2663 57.8736C86.7229 58.687 86.9524 59.606 86.9307 60.5375C86.909 61.469 86.6384 62.378 86.1444 63.1694C84.4325 65.6881 82.5843 68.1123 80.6106 70.4334C80.4977 70.6358 80.3381 70.8096 80.1439 70.9369C79.9496 71.0641 79.7269 71.1427 79.4955 71.1657C79.2641 71.1888 79.0307 71.1537 78.815 71.0673C78.5993 70.9809 78.4072 70.8452 78.2563 70.6691C78.0597 70.5368 77.8946 70.3619 77.7735 70.1587C77.6524 69.9556 77.5776 69.7279 77.5551 69.4928C77.5326 69.2576 77.5644 69.0216 77.6448 68.7993C77.7252 68.5771 77.8538 68.3758 78.0218 68.2089C79.5521 66.2169 81.0828 64.1064 82.6131 62.1144C82.962 61.8203 83.2061 61.4242 83.312 60.9815C83.4179 60.5388 83.38 60.0732 83.2016 59.6541C82.7308 58.7167 81.9063 58.5991 80.9646 58.5991H71.1936C69.1925 58.5991 68.4871 57.6612 69.1934 55.7864C70.9591 50.3964 72.8416 45.0077 74.725 39.6176C74.9523 39.1341 75.1112 38.6205 75.1963 38.0934H65.4252C65.2042 38.1151 64.9938 38.1905 64.809 38.3131C64.6243 38.4357 64.4727 38.6013 64.3676 38.796C61.8957 45.7093 59.5396 52.7417 57.1853 59.4207C58.2469 60.2751 59.1966 61.2593 60.0109 62.3501C60.3144 63.6552 60.4342 64.9944 60.3649 66.3322H65.1907C67.6627 66.3322 68.2508 67.0367 67.6622 69.4973C66.6028 74.0672 65.4252 78.6361 64.2481 83.206C64.1304 83.7918 63.8954 84.4963 64.7194 84.6134C65.0725 84.7306 65.6611 84.3791 65.8965 84.0276C68.2508 81.0982 70.371 78.1688 72.6075 75.2394C73.5492 74.0676 74.6068 73.8315 75.4308 74.5345C76.2548 75.1204 76.2548 76.1754 75.4308 77.3472C73.1942 80.3937 70.8414 83.3245 68.6048 86.3711C67.0746 88.2459 65.0739 88.8304 63.1905 87.893C62.2084 87.4644 61.4212 86.6874 60.9857 85.712C60.5502 84.7365 60.4977 83.6329 60.8363 82.6201C61.778 78.6361 62.8374 74.6531 63.7791 70.6691C63.8353 70.3984 63.8741 70.1231 63.8963 69.8475ZM50.7111 48.17H44.9451C44.7743 48.1295 44.5957 48.1263 44.4232 48.1586C44.2506 48.1909 44.087 48.2582 43.9427 48.3577C43.7983 48.4572 43.6774 48.5859 43.5863 48.7353C43.4952 48.8847 43.4359 49.0517 43.4139 49.2251C41.4135 55.0838 39.4129 60.9426 37.411 66.8014C37.2933 67.1529 37.1747 67.5044 37.0569 67.9731H44.2369C46.0026 67.9731 46.7098 68.9115 46.3567 70.6691C45.6504 73.4813 44.826 76.4112 44.1197 79.3405C44.002 79.9264 43.8838 80.6276 43.6484 81.565C44.0015 81.3307 44.1197 81.3321 44.1197 81.2149C48.2396 75.8248 52.3596 70.4343 56.4795 64.927C56.6137 64.7886 56.715 64.6221 56.7761 64.4396C56.8372 64.2571 56.8575 64.0629 56.8336 63.872C56.6883 63.6991 56.5073 63.5586 56.3048 63.4578C56.1023 63.357 55.8826 63.298 55.6564 63.2861C53.3022 63.1689 50.9479 63.2861 48.5937 63.2861C46.5926 63.2861 45.8854 62.2311 46.4739 60.4735C47.4156 57.8956 48.2405 55.3182 49.1822 52.7403C49.6531 51.217 50.1226 49.8105 50.7111 48.17Z" fill="url(#paint1_linear_2059_251)"/>
</g>
<defs>
<linearGradient id="paint0_linear_2059_251" x1="60.1401" y1="0.929688" x2="60.1401" y2="119.767" gradientUnits="userSpaceOnUse">
<stop stop-color="#24B0B3"/>
<stop offset="1" stop-color="#6306FC"/>
</linearGradient>
<linearGradient id="paint1_linear_2059_251" x1="60.2083" y1="34.5781" x2="60.2083" y2="88.333" gradientUnits="userSpaceOnUse">
<stop stop-color="#24B0B3"/>
<stop offset="1" stop-color="#6306FC"/>
</linearGradient>
</defs>
</svg>
