<svg width="325" height="349" viewBox="0 0 325 349" fill="none" xmlns="http://www.w3.org/2000/svg">
<path d="M208.559 104.479C208.559 81.527 199.79 59.4425 184.043 42.7437C168.297 26.0449 146.765 15.9942 123.853 14.6479C69.919 11.5329 25.031 56.9949 28.817 110.888C30.0364 128.309 36.3233 144.994 46.904 158.888C58.701 174.587 65.0339 193.717 64.935 213.355V223.198C64.9352 232.557 68.6531 241.532 75.2706 248.149C81.8882 254.767 90.8634 258.485 100.222 258.485H136.942C146.3 258.484 155.275 254.766 161.892 248.149C168.509 241.531 172.226 232.556 172.226 223.198V213.348C172.27 193.493 178.744 174.187 190.679 158.32C202.319 142.785 208.596 123.888 208.565 104.476L208.559 104.479Z" stroke="#312458" stroke-width="3" stroke-miterlimit="10"/>
<path d="M190.671 158.324C190.671 158.324 165.988 189.963 122.381 189.963H4.71094" stroke="#312458" stroke-width="3" stroke-miterlimit="10"/>
<path d="M22.0156 220.42H171.484" stroke="#312458" stroke-width="3" stroke-miterlimit="10"/>
<path d="M65.125 209.386H241.435" stroke="#312458" stroke-width="3" stroke-miterlimit="10"/>
<path d="M109.235 269.218V154.318C109.234 152.941 108.687 151.621 107.714 150.648C106.74 149.675 105.42 149.127 104.044 149.127C102.667 149.127 101.346 148.58 100.373 147.606C99.3989 146.632 98.8518 145.312 98.8516 143.935V123.169C98.8516 118.671 100.638 114.358 103.819 111.177C106.999 107.997 111.312 106.21 115.81 106.21C120.308 106.21 124.621 107.997 127.802 111.177C130.982 114.358 132.769 118.671 132.769 123.169V141.858C132.768 143.235 132.221 144.555 131.248 145.528C130.274 146.501 128.954 147.048 127.578 147.049H126.886C125.509 147.049 124.189 147.597 123.216 148.57C122.242 149.543 121.695 150.863 121.695 152.24V172.015C121.695 174.021 122.492 175.945 123.911 177.364C125.329 178.782 127.253 179.579 129.26 179.58H228.29" stroke="#312458" stroke-width="3" stroke-miterlimit="10"/>
<path d="M115.807 105.518C118.614 105.518 121.357 104.686 123.691 103.126C126.024 101.567 127.843 99.3509 128.917 96.758C129.991 94.1651 130.272 91.3119 129.724 88.5593C129.177 85.8066 127.825 83.2782 125.841 81.2937C123.856 79.3093 121.328 77.9579 118.575 77.4105C115.822 76.8631 112.969 77.1442 110.376 78.2184C107.783 79.2925 105.567 81.1115 104.008 83.4451C102.449 85.7788 101.617 88.5224 101.617 91.329C101.617 95.0922 103.113 98.7012 105.774 101.362C108.435 104.023 112.044 105.518 115.807 105.518Z" stroke="#312458" stroke-width="3" stroke-miterlimit="10"/>
<path d="M166.688 241.6H70.4688V268.872" stroke="#312458" stroke-width="3" stroke-miterlimit="10"/>
<path d="M133.461 179.471H142.238C143.213 179.471 144.179 179.28 145.081 178.906C145.982 178.533 146.801 177.986 147.49 177.297C148.18 176.607 148.727 175.788 149.1 174.887C149.474 173.985 149.665 173.019 149.665 172.044V5.15295" stroke="#312458" stroke-width="3" stroke-miterlimit="10"/>
<path d="M5.05927 193.771C5.88065 193.771 6.68356 193.527 7.36652 193.071C8.04947 192.615 8.58179 191.966 8.89612 191.207C9.21045 190.448 9.29269 189.613 9.13245 188.808C8.9722 188.002 8.57666 187.262 7.99585 186.681C7.41504 186.101 6.67505 185.705 5.86945 185.545C5.06384 185.385 4.22883 185.467 3.46997 185.781C2.71111 186.095 2.06248 186.628 1.60614 187.311C1.1498 187.994 0.90625 188.797 0.90625 189.618C0.90625 190.719 1.34378 191.776 2.12262 192.555C2.90146 193.333 3.95782 193.771 5.05927 193.771Z" fill="#312458" stroke="#312458" stroke-miterlimit="10"/>
<path d="M22.364 224.919C23.1853 224.919 23.9882 224.675 24.6712 224.219C25.3542 223.763 25.8865 223.114 26.2008 222.355C26.5151 221.596 26.5974 220.761 26.4371 219.956C26.2769 219.15 25.8813 218.41 25.3005 217.829C24.7197 217.249 23.9797 216.853 23.1741 216.693C22.3685 216.533 21.5335 216.615 20.7747 216.929C20.0158 217.243 19.3672 217.776 18.9108 218.459C18.4545 219.142 18.2109 219.945 18.2109 220.766C18.2109 221.867 18.6485 222.924 19.4273 223.703C20.2061 224.481 21.2625 224.919 22.364 224.919Z" fill="#312458" stroke="#312458" stroke-miterlimit="10"/>
<path d="M70.8171 271.987C71.6385 271.987 72.4414 271.743 73.1243 271.287C73.8073 270.831 74.3396 270.182 74.6539 269.423C74.9683 268.664 75.0505 267.829 74.8903 267.024C74.73 266.218 74.3345 265.478 73.7537 264.897C73.1729 264.317 72.4329 263.921 71.6273 263.761C70.8217 263.601 69.9866 263.683 69.2278 263.997C68.4689 264.311 67.8203 264.844 67.364 265.527C66.9076 266.21 66.6641 267.013 66.6641 267.834C66.6641 268.379 66.7715 268.919 66.9802 269.423C67.1889 269.927 67.4948 270.385 67.8804 270.771C68.2661 271.156 68.7239 271.462 69.2278 271.671C69.7316 271.88 70.2717 271.987 70.8171 271.987Z" fill="#312458" stroke="#312458" stroke-miterlimit="10"/>
<path d="M108.887 273.371C109.709 273.371 110.512 273.127 111.195 272.671C111.878 272.215 112.41 271.566 112.724 270.807C113.039 270.048 113.121 269.213 112.961 268.408C112.8 267.602 112.405 266.862 111.824 266.281C111.243 265.701 110.503 265.305 109.698 265.145C108.892 264.984 108.057 265.067 107.298 265.381C106.539 265.695 105.891 266.228 105.434 266.911C104.978 267.594 104.734 268.397 104.734 269.218C104.734 269.763 104.842 270.303 105.05 270.807C105.259 271.311 105.565 271.769 105.951 272.155C106.336 272.54 106.794 272.846 107.298 273.055C107.802 273.264 108.342 273.371 108.887 273.371Z" fill="#312458" stroke="#312458" stroke-miterlimit="10"/>
<path d="M241.786 213.844C242.607 213.844 243.41 213.6 244.093 213.144C244.776 212.688 245.308 212.039 245.623 211.28C245.937 210.521 246.019 209.686 245.859 208.881C245.699 208.075 245.303 207.335 244.722 206.754C244.142 206.174 243.402 205.778 242.596 205.618C241.79 205.458 240.955 205.54 240.197 205.854C239.438 206.168 238.789 206.701 238.333 207.384C237.876 208.067 237.633 208.87 237.633 209.691C237.633 210.792 238.071 211.849 238.849 212.627C239.628 213.406 240.684 213.844 241.786 213.844Z" fill="#312458" stroke="#312458" stroke-miterlimit="10"/>
<path d="M227.942 184.08C228.763 184.08 229.566 183.836 230.249 183.38C230.932 182.924 231.465 182.275 231.779 181.516C232.093 180.757 232.176 179.922 232.015 179.117C231.855 178.311 231.459 177.571 230.879 176.99C230.298 176.41 229.558 176.014 228.752 175.854C227.947 175.693 227.112 175.776 226.353 176.09C225.594 176.404 224.945 176.937 224.489 177.62C224.033 178.303 223.789 179.106 223.789 179.927C223.79 181.028 224.227 182.084 225.006 182.863C225.785 183.642 226.841 184.079 227.942 184.08Z" fill="#312458" stroke="#312458" stroke-miterlimit="10"/>
<path d="M149.723 9.65194C150.545 9.65194 151.348 9.40838 152.031 8.95204C152.714 8.4957 153.246 7.84709 153.56 7.08822C153.875 6.32936 153.957 5.49434 153.797 4.68873C153.636 3.88313 153.241 3.14314 152.66 2.56233C152.079 1.98152 151.339 1.58599 150.534 1.42575C149.728 1.2655 148.893 1.34775 148.134 1.66208C147.375 1.97641 146.727 2.50871 146.27 3.19166C145.814 3.87462 145.57 4.67756 145.57 5.49894C145.57 6.60039 146.008 7.65672 146.787 8.43556C147.566 9.2144 148.622 9.65194 149.723 9.65194Z" fill="#312458" stroke="#312458" stroke-miterlimit="10"/>
<path d="M283.039 346.743H189.539C188.59 346.743 187.65 346.557 186.773 346.194C185.896 345.831 185.099 345.298 184.428 344.627C183.757 343.956 183.225 343.16 182.862 342.283C182.499 341.406 182.312 340.466 182.313 339.517V339.095C182.312 338.146 182.499 337.206 182.862 336.329C183.225 335.452 183.757 334.656 184.428 333.984C185.099 333.313 185.896 332.781 186.773 332.418C187.65 332.055 188.59 331.869 189.539 331.869H316.193C318.109 331.869 319.947 332.63 321.302 333.986C322.658 335.341 323.419 337.179 323.419 339.095C323.419 341.012 322.658 342.85 321.302 344.205C319.947 345.561 318.109 346.322 316.193 346.322H292.818" stroke="#312458" stroke-width="3" stroke-miterlimit="10" stroke-linecap="round"/>
<path d="M189.984 332.137V247.497C189.984 246.548 190.171 245.608 190.534 244.731C190.897 243.854 191.429 243.058 192.1 242.387C192.771 241.715 193.568 241.183 194.445 240.82C195.321 240.457 196.261 240.271 197.21 240.271H286.646" stroke="#312458" stroke-width="3" stroke-miterlimit="10" stroke-linecap="round"/>
<path d="M296.422 240.271H309.172C310.121 240.271 311.061 240.457 311.938 240.82C312.814 241.183 313.611 241.715 314.282 242.387C314.953 243.058 315.486 243.854 315.849 244.731C316.212 245.608 316.398 246.548 316.398 247.497V332.136" stroke="#312458" stroke-width="3" stroke-miterlimit="10" stroke-linecap="round"/>
<path d="M207.164 323.152H205.274C203.745 323.152 202.278 322.544 201.197 321.463C200.115 320.382 199.508 318.915 199.508 317.386V254.108C199.508 252.579 200.115 251.112 201.197 250.031C202.278 248.949 203.745 248.342 205.274 248.342H301.701C303.23 248.342 304.697 248.949 305.778 250.031C306.859 251.112 307.467 252.579 307.467 254.108V317.387C307.467 318.916 306.859 320.383 305.778 321.464C304.697 322.545 303.23 323.153 301.701 323.153H215.664" stroke="#312458" stroke-width="3" stroke-miterlimit="10" stroke-linecap="round"/>
<path d="M262.961 266.622H243.193C240.743 266.622 238.392 267.596 236.66 269.329C234.927 271.062 233.953 273.412 233.953 275.863V295.632C233.953 298.083 234.927 300.433 236.66 302.166C238.392 303.899 240.743 304.872 243.193 304.873H262.961C265.412 304.873 267.762 303.899 269.495 302.166C271.228 300.433 272.202 298.083 272.202 295.632V275.863C272.202 273.412 271.228 271.062 269.495 269.329C267.762 267.596 265.412 266.622 262.961 266.622Z" stroke="#312458" stroke-width="3" stroke-miterlimit="10" stroke-linecap="round"/>
<path d="M252.688 266.622V230.283" stroke="#312458" stroke-width="3" stroke-miterlimit="10" stroke-linecap="round"/>
<path d="M261.477 266.955L267.52 258.555V236.873" stroke="#312458" stroke-width="3" stroke-miterlimit="10" stroke-linecap="round"/>
<path d="M245.878 266.954L238.617 258.973V236.45" stroke="#312458" stroke-width="3" stroke-miterlimit="10" stroke-linecap="round"/>
<path d="M272.617 285.755H296.843" stroke="#312458" stroke-width="3" stroke-miterlimit="10" stroke-linecap="round"/>
<path d="M233.938 286.687H210.992" stroke="#312458" stroke-width="3" stroke-miterlimit="10" stroke-linecap="round"/>
<path d="M272.25 277.07L279.843 270.453H284.522" stroke="#312458" stroke-width="3" stroke-miterlimit="10" stroke-linecap="round"/>
<path d="M234.104 277.899L226.719 270.873H220.344" stroke="#312458" stroke-width="3" stroke-miterlimit="10" stroke-linecap="round"/>
<path d="M233.941 293.493L227.141 300.2H222.891" stroke="#312458" stroke-width="3" stroke-miterlimit="10" stroke-linecap="round"/>
<path d="M272.195 293.403L279.844 300.629H284.944" stroke="#312458" stroke-width="3" stroke-miterlimit="10" stroke-linecap="round"/>
<path d="M287.285 273.426C287.916 273.426 288.533 273.239 289.058 272.888C289.582 272.538 289.991 272.039 290.233 271.456C290.474 270.873 290.538 270.231 290.414 269.612C290.291 268.993 289.987 268.425 289.541 267.979C289.095 267.532 288.526 267.228 287.907 267.105C287.288 266.982 286.647 267.045 286.064 267.287C285.481 267.528 284.982 267.937 284.631 268.462C284.281 268.987 284.094 269.604 284.094 270.235C284.093 270.654 284.176 271.069 284.336 271.456C284.496 271.844 284.731 272.196 285.028 272.492C285.324 272.788 285.676 273.023 286.063 273.184C286.451 273.344 286.866 273.426 287.285 273.426Z" fill="#312458" stroke="#312458" stroke-miterlimit="10"/>
<path d="M299.402 288.946C300.033 288.946 300.65 288.759 301.175 288.408C301.7 288.058 302.108 287.559 302.35 286.976C302.591 286.393 302.655 285.751 302.532 285.132C302.408 284.513 302.105 283.945 301.658 283.499C301.212 283.052 300.643 282.748 300.024 282.625C299.405 282.502 298.764 282.565 298.181 282.807C297.598 283.048 297.099 283.457 296.749 283.982C296.398 284.507 296.211 285.124 296.211 285.755C296.211 286.174 296.293 286.589 296.453 286.976C296.614 287.364 296.849 287.716 297.145 288.012C297.441 288.308 297.793 288.543 298.18 288.704C298.568 288.864 298.983 288.946 299.402 288.946Z" fill="#312458" stroke="#312458" stroke-miterlimit="10"/>
<path d="M287.496 304.242C288.127 304.242 288.744 304.055 289.268 303.704C289.793 303.354 290.202 302.855 290.444 302.272C290.685 301.689 290.748 301.047 290.625 300.428C290.502 299.809 290.198 299.241 289.752 298.795C289.306 298.348 288.737 298.044 288.118 297.921C287.499 297.798 286.858 297.861 286.275 298.103C285.691 298.344 285.193 298.753 284.842 299.278C284.492 299.803 284.305 300.42 284.305 301.051C284.304 301.47 284.387 301.885 284.547 302.272C284.707 302.66 284.942 303.012 285.239 303.308C285.535 303.604 285.887 303.839 286.274 304C286.661 304.16 287.076 304.242 287.496 304.242Z" fill="#312458" stroke="#312458" stroke-miterlimit="10"/>
<path d="M221.191 303.39C221.822 303.39 222.439 303.203 222.964 302.852C223.489 302.502 223.898 302.003 224.139 301.42C224.381 300.837 224.444 300.195 224.321 299.576C224.198 298.957 223.894 298.389 223.447 297.943C223.001 297.496 222.432 297.192 221.813 297.069C221.194 296.946 220.553 297.009 219.97 297.251C219.387 297.492 218.888 297.901 218.538 298.426C218.187 298.951 218 299.568 218 300.199C218 300.618 218.082 301.033 218.242 301.42C218.403 301.808 218.638 302.16 218.934 302.456C219.23 302.752 219.582 302.987 219.969 303.148C220.357 303.308 220.772 303.39 221.191 303.39Z" fill="#312458" stroke="#312458" stroke-miterlimit="10"/>
<path d="M208.871 290.216C209.502 290.216 210.119 290.029 210.644 289.678C211.168 289.328 211.577 288.829 211.819 288.246C212.06 287.663 212.123 287.021 212 286.402C211.877 285.783 211.573 285.215 211.127 284.769C210.681 284.322 210.112 284.018 209.493 283.895C208.874 283.772 208.233 283.835 207.65 284.077C207.066 284.318 206.568 284.727 206.218 285.252C205.867 285.777 205.68 286.394 205.68 287.025C205.679 287.444 205.762 287.859 205.922 288.246C206.082 288.634 206.317 288.986 206.614 289.282C206.91 289.578 207.262 289.813 207.649 289.974C208.037 290.134 208.452 290.216 208.871 290.216Z" fill="#312458" stroke="#312458" stroke-miterlimit="10"/>
<path d="M218.644 273.643C219.275 273.643 219.892 273.456 220.417 273.105C220.942 272.755 221.351 272.256 221.592 271.673C221.834 271.09 221.897 270.448 221.774 269.829C221.651 269.21 221.347 268.642 220.901 268.196C220.454 267.749 219.886 267.445 219.267 267.322C218.648 267.199 218.006 267.262 217.423 267.504C216.84 267.745 216.342 268.154 215.991 268.679C215.64 269.204 215.453 269.821 215.453 270.452C215.453 270.871 215.535 271.286 215.696 271.673C215.856 272.061 216.091 272.412 216.387 272.709C216.684 273.005 217.035 273.24 217.423 273.401C217.81 273.561 218.225 273.643 218.644 273.643Z" fill="#312458" stroke="#312458" stroke-miterlimit="10"/>
<path d="M238.621 237.939C239.252 237.939 239.869 237.752 240.394 237.401C240.918 237.051 241.327 236.552 241.569 235.969C241.81 235.386 241.873 234.744 241.75 234.125C241.627 233.506 241.323 232.938 240.877 232.492C240.431 232.045 239.862 231.741 239.243 231.618C238.624 231.495 237.983 231.558 237.4 231.8C236.817 232.041 236.318 232.45 235.968 232.975C235.617 233.5 235.43 234.117 235.43 234.748C235.429 235.167 235.512 235.582 235.672 235.969C235.832 236.357 236.067 236.709 236.364 237.005C236.66 237.301 237.012 237.536 237.399 237.697C237.787 237.857 238.202 237.939 238.621 237.939Z" fill="#312458" stroke="#312458" stroke-miterlimit="10"/>
<path d="M108.668 272.139C109.299 272.139 109.916 271.952 110.44 271.601C110.965 271.251 111.374 270.752 111.616 270.169C111.857 269.586 111.92 268.944 111.797 268.325C111.674 267.706 111.37 267.138 110.924 266.692C110.478 266.245 109.909 265.941 109.29 265.818C108.671 265.695 108.029 265.758 107.446 266C106.863 266.241 106.365 266.65 106.014 267.175C105.664 267.7 105.477 268.317 105.477 268.948C105.477 269.794 105.813 270.606 106.411 271.204C107.01 271.803 107.821 272.139 108.668 272.139Z" fill="#312458" stroke="#312458" stroke-miterlimit="10"/>
<path d="M252.644 231.301C253.275 231.301 253.892 231.114 254.417 230.763C254.942 230.413 255.351 229.914 255.592 229.331C255.834 228.748 255.897 228.106 255.774 227.487C255.651 226.868 255.347 226.3 254.901 225.854C254.454 225.407 253.886 225.103 253.267 224.98C252.648 224.857 252.006 224.92 251.423 225.162C250.84 225.403 250.342 225.812 249.991 226.337C249.64 226.862 249.453 227.479 249.453 228.11C249.454 228.956 249.79 229.767 250.389 230.365C250.987 230.964 251.798 231.3 252.644 231.301Z" fill="#312458" stroke="#312458" stroke-miterlimit="10"/>
<path d="M267.519 237.516C268.15 237.516 268.767 237.329 269.292 236.978C269.817 236.628 270.226 236.129 270.467 235.546C270.709 234.963 270.772 234.321 270.649 233.702C270.526 233.083 270.222 232.515 269.776 232.069C269.329 231.622 268.761 231.318 268.142 231.195C267.523 231.072 266.881 231.135 266.298 231.377C265.715 231.618 265.217 232.027 264.866 232.552C264.515 233.077 264.328 233.694 264.328 234.325C264.328 234.744 264.41 235.159 264.571 235.546C264.731 235.934 264.966 236.286 265.262 236.582C265.559 236.878 265.91 237.113 266.298 237.274C266.685 237.434 267.1 237.516 267.519 237.516Z" fill="#312458" stroke="#312458" stroke-miterlimit="10"/>
<path d="M118.578 258.489V293.34C118.578 295.313 120.821 296.905 123.589 296.905H189.989" stroke="#312458" stroke-width="3" stroke-miterlimit="10"/>
<path d="M158.091 275.504C158.587 275.493 159.068 275.336 159.475 275.053C159.882 274.769 160.197 274.372 160.379 273.911C160.562 273.45 160.604 272.945 160.5 272.459C160.397 271.974 160.153 271.53 159.798 271.183C159.444 270.837 158.995 270.602 158.507 270.509C158.02 270.416 157.516 270.469 157.059 270.661C156.602 270.854 156.211 271.177 155.937 271.59C155.662 272.003 155.516 272.488 155.516 272.984C155.524 273.659 155.799 274.304 156.282 274.777C156.765 275.249 157.415 275.511 158.091 275.504Z" fill="#312458" stroke="#312458" stroke-miterlimit="10"/>
<path d="M149.091 290.039C149.587 290.028 150.068 289.871 150.475 289.588C150.882 289.304 151.197 288.907 151.379 288.446C151.562 287.985 151.604 287.48 151.5 286.995C151.397 286.509 151.153 286.065 150.798 285.718C150.444 285.372 149.995 285.137 149.507 285.044C149.02 284.951 148.516 285.004 148.059 285.197C147.602 285.389 147.211 285.712 146.937 286.125C146.662 286.538 146.516 287.023 146.516 287.519C146.523 288.195 146.798 288.84 147.281 289.312C147.764 289.785 148.415 290.046 149.091 290.039Z" fill="#312458" stroke="#312458" stroke-miterlimit="10"/>
<path d="M189.773 280.742H167.928L159.414 274.215" stroke="#312458" stroke-width="3" stroke-miterlimit="10" stroke-linecap="round"/>
<path d="M189.873 288.004H151.773" stroke="#312458" stroke-width="3" stroke-miterlimit="10" stroke-linecap="round"/>
</svg>
