<svg width="98" height="116" viewBox="0 0 98 116" fill="none" xmlns="http://www.w3.org/2000/svg">
<path d="M34.1894 79.4801V78.0469C34.1894 71.877 34.1894 65.7038 34.1894 59.5339C34.1894 57.1368 35.2085 56.1154 37.595 56.1122C39.9049 56.109 42.2179 56.0994 44.5277 56.1122C46.5532 56.125 47.6362 57.1687 47.649 59.202C47.6778 63.5812 47.665 67.9605 47.6554 72.3398C47.6554 73.7059 47.0835 74.4465 46.0868 74.4497C45.0996 74.4497 44.4894 73.6708 44.4862 72.3526C44.4798 68.0531 44.4862 63.7568 44.4862 59.3584H37.4545V79.3875H54.2526C54.2526 78.9438 54.2526 78.5193 54.2526 78.098C54.2526 74.7529 54.243 71.4078 54.2558 68.0659C54.2622 65.8922 55.2909 64.8325 57.4666 64.8005C59.8179 64.7654 62.1693 64.7654 64.5207 64.8005C66.6452 64.8325 67.6867 65.8858 67.7091 67.9669C67.7282 69.8374 67.7282 71.711 67.7091 73.5815C67.6963 74.721 67.0477 75.4391 66.1213 75.4232C65.2043 75.4072 64.5782 74.6731 64.5622 73.5368C64.5366 71.7844 64.5398 70.0353 64.5271 68.2829C64.5271 68.2478 64.4919 68.2159 64.428 68.0978H57.5049V79.4067H74.3127C74.3127 78.9247 74.3127 78.43 74.3127 77.9352C74.3127 65.8315 74.3127 53.7278 74.3127 41.6242C74.3127 38.7993 75.1848 37.9375 78.0282 37.9375C80.2614 37.9375 82.4913 37.9248 84.7245 37.9407C86.6573 37.9567 87.7691 39.0451 87.7691 40.9794C87.7819 51.8095 87.7787 62.6396 87.7691 73.4697C87.7691 74.689 87.127 75.4455 86.1685 75.4264C85.2101 75.4104 84.6254 74.6699 84.6254 73.4155C84.619 63.1822 84.6254 52.949 84.6222 42.7158C84.6222 42.2402 84.6222 41.7646 84.6222 41.1805H77.5426V79.4801C78.3605 79.4801 79.1464 79.4801 79.9323 79.4801C83.6383 79.4801 87.3442 79.4514 91.0501 79.4929C94.7018 79.5343 97.494 82.1294 97.9509 85.8224C98.3534 89.0717 96.1235 92.3371 92.8137 93.2148C91.9415 93.4446 91.0022 93.5021 90.0949 93.5053C69.4917 93.5212 48.8886 93.5244 28.2854 93.5117C20.5317 93.5085 14.6756 88.8707 13.2667 81.6346C13.0719 80.626 13.0207 79.5758 13.0207 78.5449C13.0048 62.8567 13.0048 47.1685 13.0144 31.4835C13.0175 26.7627 16.1452 23.6219 20.5604 23.8517C23.9277 24.024 26.819 26.8744 27.0299 30.2387C27.0682 30.8355 27.0586 31.4324 27.0586 32.0293C27.0586 46.2045 27.0586 60.3798 27.0586 74.5518C27.0586 78.1044 28.426 79.4769 31.9626 79.4801C32.6367 79.4801 33.3108 79.4801 34.183 79.4801H34.1894ZM58.7381 90.3038C67.1084 90.3038 75.4756 90.3038 83.8459 90.3038C86.2356 90.3038 88.6285 90.3325 91.0182 90.2878C93.1811 90.2495 94.7817 88.5802 94.7753 86.4608C94.7689 84.1434 93.0501 82.6273 90.4016 82.6273C70.8336 82.6273 51.2655 82.6273 31.6974 82.6273C26.7487 82.6273 23.9086 79.7961 23.9086 74.8614C23.9086 62.8375 23.9086 50.8136 23.9086 38.7866C23.9086 36.1979 23.9245 33.6093 23.9022 31.0239C23.8862 29.1247 22.7712 27.6468 21.078 27.1904C18.471 26.485 16.2315 28.3235 16.2283 31.2186C16.2187 47.0664 16.2219 62.9141 16.2283 78.7587C16.2283 79.4737 16.2475 80.1983 16.3753 80.8973C17.404 86.547 21.9054 90.2847 27.7679 90.2974C38.0902 90.323 48.4126 90.3038 58.7349 90.3038H58.7381Z" fill="url(#paint0_linear_1920_2099)"/>
<path d="M0.00159739 57.9844C0.00159739 42.1749 -0.00479218 26.3687 0.00798696 10.5592C0.0143765 5.44895 3.17402 1.40481 7.99814 0.325951C8.84476 0.137629 9.73611 0.0801752 10.6083 0.0769833C22.3236 0.0354886 34.0388 0.00995344 45.7573 0.00037774C48.1853 0.00037774 50.623 -0.0155818 53.0446 0.159973C58.0253 0.523849 62.0283 4.57118 62.1913 9.54416C62.3478 14.316 62.2616 19.0975 62.2552 23.8758C62.2552 25.0185 61.5683 25.7303 60.6418 25.6984C59.7249 25.6696 59.0955 24.9355 59.0923 23.7928C59.0796 19.4135 59.0923 15.0342 59.0827 10.6517C59.07 6.20543 56.2202 3.31676 51.7954 3.25931C50.6389 3.24335 49.4824 3.3008 48.3291 3.24016C47.5815 3.20185 47.1726 3.43167 46.917 4.16261C46.4729 5.43618 45.965 6.69379 45.4155 7.92905C44.4634 10.0644 42.7957 11.1816 40.4412 11.188C34.3839 11.2008 28.3266 11.1976 22.2692 11.188C19.8668 11.1848 18.1767 10.0453 17.2247 7.85245C16.6848 6.61399 16.1864 5.35638 15.7167 4.0892C15.4931 3.48593 15.1928 3.20824 14.5027 3.23696C13.0715 3.29442 11.6338 3.23377 10.1993 3.26569C6.41353 3.35187 3.65643 5.87666 3.23472 9.63672C3.18041 10.1091 3.18041 10.5911 3.18041 11.0667C3.18041 42.3633 3.18041 73.6598 3.17082 104.956C3.17082 106.84 3.48072 108.605 4.70113 110.108C6.20906 111.966 8.17705 112.786 10.5636 112.777C17.6975 112.751 24.8315 112.767 31.9654 112.767C38.4604 112.767 44.9586 112.777 51.4536 112.767C56.2745 112.757 59.0795 109.939 59.0859 105.119C59.0859 103.804 59.0636 102.492 59.0955 101.177C59.1211 100.066 59.8207 99.3036 60.744 99.3865C61.7983 99.4823 62.2807 100.149 62.2616 101.171C62.22 103.357 62.4053 105.585 62.0475 107.724C61.236 112.566 57.1627 115.914 52.035 115.94C38.125 116.01 24.2181 116.023 10.308 115.94C4.21552 115.905 0.0143765 111.484 0.00798696 105.406C-0.00479218 89.6002 0.00479218 73.7907 0.00479218 57.9844H0.00159739ZM43.834 3.36145H18.8317C19.3332 4.59671 19.6527 5.81921 20.3108 6.82466C20.6974 7.41516 21.6175 7.9897 22.3076 7.99928C28.317 8.08865 34.3327 8.08865 40.3421 7.99928C41.0354 7.9897 41.9587 7.42154 42.3485 6.83423C43.0066 5.83198 43.3261 4.60629 43.834 3.36145Z" fill="url(#paint1_linear_1920_2099)"/>
<path d="M31.1611 109.607C26.5 109.607 21.8356 109.607 17.1744 109.607C16.7782 109.607 16.2479 109.713 16.0147 109.508C15.5291 109.081 14.9828 108.519 14.8677 107.932C14.7144 107.153 15.315 106.613 16.1297 106.483C16.5194 106.419 16.922 106.422 17.3213 106.422C26.5255 106.422 35.7329 106.422 44.937 106.422C46.7325 106.422 47.512 106.913 47.5025 108.024C47.4929 109.116 46.6878 109.611 44.9115 109.611C40.3302 109.611 35.7457 109.611 31.1643 109.611L31.1611 109.607Z" fill="url(#paint2_linear_1920_2099)"/>
<path d="M59.4325 36.0254C64.4835 32.3834 69.4833 28.783 74.6014 25.0963C74.2084 24.5409 73.8314 24.0462 73.4896 23.5291C72.2053 21.5884 73.1158 19.4084 75.4256 19.0349C77.8217 18.6455 80.2306 18.3103 82.6458 18.0582C84.9908 17.8156 86.4796 19.9222 85.502 22.0768C84.5308 24.2122 83.4829 26.3124 82.4222 28.4063C81.2753 30.6726 78.8728 30.8641 77.3329 28.8436C77.0454 28.467 76.761 28.0935 76.4543 27.6881C71.5184 31.2439 66.6432 34.755 61.7647 38.2693C59.1258 40.1717 57.5125 39.7184 56.2409 36.7148C56.0556 36.2775 55.864 35.8434 55.6339 35.3136C54.487 36.1307 53.3912 36.9063 52.3018 37.6916C47.8099 40.9281 43.3212 44.1647 38.8326 47.4013C38.6057 47.5641 38.3885 47.7397 38.1521 47.8865C37.2543 48.4514 36.3534 48.3301 35.8295 47.5801C35.3151 46.8459 35.4844 45.9203 36.3342 45.2947C38.4843 43.7147 40.6568 42.1698 42.8228 40.6089C46.4393 38.0012 50.0526 35.387 53.6755 32.7824C55.8001 31.2535 57.5828 31.7578 58.6211 34.1645C58.8734 34.7454 59.1322 35.3264 59.4357 36.0222L59.4325 36.0254ZM76.3713 22.0768C77.5406 23.6919 78.5725 25.1187 79.7098 26.6891C80.6171 24.8314 81.4414 23.1461 82.3519 21.2852C80.32 21.5533 78.4862 21.7959 76.3713 22.0768Z" fill="url(#paint3_linear_1920_2099)"/>
<defs>
<linearGradient id="paint0_linear_1920_2099" x1="55.5028" y1="23.8398" x2="55.5028" y2="93.5196" gradientUnits="userSpaceOnUse">
<stop stop-color="#4FA9B6"/>
<stop offset="1" stop-color="#6215F7"/>
</linearGradient>
<linearGradient id="paint1_linear_1920_2099" x1="31.1423" y1="0" x2="31.1423" y2="115.997" gradientUnits="userSpaceOnUse">
<stop stop-color="#4FA9B6"/>
<stop offset="1" stop-color="#6215F7"/>
</linearGradient>
<linearGradient id="paint2_linear_1920_2099" x1="31.1731" y1="106.422" x2="31.1731" y2="109.635" gradientUnits="userSpaceOnUse">
<stop stop-color="#4FA9B6"/>
<stop offset="1" stop-color="#6215F7"/>
</linearGradient>
<linearGradient id="paint3_linear_1920_2099" x1="60.6728" y1="18.0391" x2="60.6728" y2="48.2394" gradientUnits="userSpaceOnUse">
<stop stop-color="#4FA9B6"/>
<stop offset="1" stop-color="#6215F7"/>
</linearGradient>
</defs>
</svg>
