<svg width="73" height="76" viewBox="0 0 73 76" fill="none" xmlns="http://www.w3.org/2000/svg">
<g clip-path="url(#clip0_1845_4834)">
<path d="M68.0042 65.69C68.4999 65.797 68.9039 65.8559 69.2904 65.9694C71.6923 66.6743 73.2798 69.0248 72.9588 71.395C72.6007 74.027 70.5809 75.9018 68.0108 75.9782C67.8208 75.9782 67.6287 75.9782 67.4387 75.9782C46.8036 75.9782 26.1686 75.9782 5.53356 75.9782C3.20584 75.9782 1.45459 75.0506 0.469789 72.9227C0.141164 72.2073 -0.0160151 71.4251 0.0107352 70.6383C0.0374855 69.8515 0.247429 69.0817 0.62389 68.3902C1.00035 67.6987 1.53296 67.1045 2.1794 66.6547C2.82585 66.2049 3.56833 65.912 4.34787 65.7992C4.53129 65.7708 4.71253 65.7249 4.97019 65.6726C4.8632 63.7738 4.75183 61.9013 4.65139 60.0309C4.43303 56.3207 4.17755 52.6258 4.01159 48.92C3.86529 45.6746 6.3808 43.0928 9.62563 43.0557C10.7982 43.0404 11.9752 43.0862 13.1456 43.0295C13.3203 43.015 13.4904 42.9656 13.6456 42.8843C13.8009 42.8029 13.9383 42.6913 14.0496 42.5559C16.314 39.3258 19.3929 37.6693 23.3452 37.6563C25.0004 37.6563 26.6555 37.6563 28.3675 37.6563C27.3718 36.5126 26.3171 35.5131 25.5288 34.3367C24.4676 32.7632 23.5854 31.063 22.6901 29.3913C22.4718 28.9766 22.2709 28.7823 21.7839 28.7976C20.5284 28.8325 19.2728 28.826 18.0172 28.7976C15.8183 28.7562 14.268 27.1913 14.244 25.0067C14.233 23.9416 14.244 22.8788 14.244 21.8137C14.2359 21.2804 14.3395 20.7513 14.5483 20.2605C14.757 19.7696 15.0661 19.3278 15.4559 18.9634C15.6777 18.7396 15.8236 18.4518 15.8729 18.1406C16.9472 9.29075 23.7863 1.9904 32.5818 0.347004C37.8261 -0.666468 43.2594 0.375228 47.7562 3.25628C52.253 6.13733 55.4686 10.6369 56.7368 15.8229C56.847 16.2449 56.9345 16.6726 56.9989 17.104C57.1168 17.9922 57.3046 18.7757 57.9881 19.5047C58.475 20.0219 58.6846 20.9146 58.7676 21.6675C58.8921 22.8002 58.8178 23.9569 58.7982 25.1027C58.8012 26.07 58.423 26.9996 57.7454 27.6903C57.0678 28.381 56.1454 28.7772 55.1778 28.7933C53.8414 28.8369 52.5007 28.7824 51.1665 28.8282C51.0217 28.8414 50.8818 28.8877 50.7577 28.9633C50.6335 29.039 50.5284 29.1421 50.4503 29.2647C49.1105 32.4667 47.075 35.3308 44.4912 37.6497C44.9585 37.6497 45.238 37.6497 45.5153 37.6497C47.5068 37.6912 49.5113 37.5886 51.4809 37.809C54.6035 38.1626 57.0404 39.806 58.8091 42.3922C58.9394 42.6226 59.135 42.8093 59.3712 42.9289C59.6074 43.0485 59.8738 43.0957 60.1367 43.0644C61.1739 43.0208 62.2111 43.0469 63.2483 43.0535C66.6242 43.0753 69.1244 45.5895 68.989 48.9462C68.8427 52.5167 68.5894 56.0828 68.3842 59.6402C68.2422 61.6568 68.1243 63.6407 68.0042 65.69ZM64.8271 65.69C65.159 60.116 65.504 54.6206 65.8075 49.1229C65.9123 47.2569 64.8773 46.2224 62.9863 46.2202C45.3282 46.2202 27.6702 46.2202 10.0121 46.2202C8.07746 46.2202 7.07955 47.246 7.17345 49.1928C7.39181 53.3395 7.64947 57.4687 7.89622 61.6088C7.97701 62.9598 8.07091 64.3107 8.16044 65.69H64.8271ZM46.9696 14.0267C46.784 14.1489 46.6552 14.2449 46.5176 14.3213C44.7598 15.3558 43.0675 16.5256 41.2289 17.3899C38.281 18.7757 35.2458 19.0224 32.1364 17.6561C29.9659 16.7024 27.6491 16.602 25.3104 17.0385C24.7449 17.1433 24.496 17.4183 24.3759 17.9682C23.6116 21.4602 24.175 24.7928 25.5223 28.0338C25.588 28.158 25.6795 28.2668 25.7905 28.3529C25.9016 28.4391 26.0297 28.5007 26.1664 28.5335C27.7677 28.8245 29.3814 29.0763 31.0075 29.2887C31.141 29.2831 31.2715 29.2469 31.3888 29.1829C31.5062 29.119 31.6073 29.029 31.6844 28.9198C33.4662 26.0193 37.5342 25.3275 40.1611 27.5034C42.3447 29.3192 42.277 32.3245 39.9908 34.029C38.7699 34.9269 37.2475 35.315 35.7455 35.1114C34.2434 34.9077 32.8795 34.1283 31.942 32.9378C31.8137 32.739 31.621 32.5903 31.3961 32.5165C30.2279 32.3769 29.0553 32.2983 27.8827 32.1848L27.7277 32.39C28.7998 33.4572 29.789 34.6314 30.9638 35.5742C34.5078 38.4114 38.6064 38.503 42.0412 35.5545C47.1355 31.1896 49.4851 25.585 48.7558 18.839C48.5501 17.1162 47.9379 15.4668 46.9696 14.0267ZM36.5058 68.907H5.95281C5.59809 68.8968 5.24307 68.9062 4.8894 68.9354C4.43716 68.9801 4.0166 69.1876 3.70608 69.5193C3.39555 69.8509 3.21621 70.2841 3.20147 70.7381C3.13597 72.0476 4.04216 72.8463 5.62527 72.8463C26.205 72.8463 46.7854 72.8463 67.3666 72.8463C67.6927 72.8524 68.0183 72.8187 68.3361 72.7459C68.7804 72.6322 69.1701 72.365 69.436 71.9916C69.702 71.6182 69.8271 71.1627 69.7892 70.7059C69.7512 70.2491 69.5527 69.8204 69.2288 69.496C68.9049 69.1715 68.4765 68.9721 68.0195 68.9332C67.6942 68.9048 67.3644 68.9113 67.0369 68.9113L36.5058 68.907ZM44.9694 11.5387C39.2091 5.71151 29.7715 7.58406 26.3586 13.6884C29.2497 13.4505 31.9311 14.1249 34.5798 15.1419C35.3725 15.4453 36.3682 15.4344 37.2307 15.3078C40.1742 14.8779 42.5893 13.2999 44.9694 11.5387ZM19.1221 17.953C21.0131 18.193 21.0131 18.193 21.511 16.458C21.5415 16.3532 21.5699 16.2397 21.6005 16.1437C23.6662 9.26674 30.1166 4.51115 36.9643 4.81669C43.7488 5.12006 49.4392 9.59629 51.3979 16.1655C51.5748 16.7613 51.7167 17.3659 51.8762 17.9748H53.8589C53.2038 11.5976 47.1705 3.34135 36.7678 3.1733C26.625 3.02052 19.9803 10.8468 19.1221 17.953ZM17.812 43.0208H55.2018C53.9222 41.8226 52.5814 41.0434 50.9852 40.9605C48.4806 40.8274 45.963 40.8361 43.4584 40.8317C36.7707 40.8172 30.0823 40.8172 23.3932 40.8317C22.3621 40.8074 21.3365 40.9895 20.3769 41.3673C19.4172 41.7451 18.5429 42.311 17.8054 43.0317L17.812 43.0208ZM21.369 25.6527C21.2468 24.8386 21.1507 24.125 21.024 23.4004C20.8974 22.6758 20.9782 21.5911 20.5327 21.2769C20.0065 20.9036 19.0173 21.183 18.229 21.1786C18.1744 21.1786 18.0958 21.159 18.0696 21.1786C17.8316 21.4165 17.4276 21.6501 17.4145 21.9098C17.3414 22.9131 17.3414 23.9204 17.4145 24.9237C17.432 25.1769 17.7836 25.5981 18.0019 25.6134C19.0872 25.6898 20.1964 25.6527 21.3625 25.6527H21.369ZM51.6949 25.6527C52.7976 25.6527 53.8589 25.6963 54.9092 25.62C55.0717 25.5745 55.2201 25.4886 55.3404 25.3703C55.4607 25.252 55.549 25.1051 55.597 24.9434C55.6778 23.9438 55.6319 22.9333 55.6319 21.9272C55.6319 21.4274 55.383 21.1721 54.8808 21.1721C54.1187 21.1721 53.3523 21.1415 52.5946 21.1939C52.4833 21.2269 52.3821 21.2874 52.3004 21.3698C52.2188 21.4522 52.1592 21.5538 52.1273 21.6653C51.9504 22.953 51.8347 24.2625 51.6884 25.6614L51.6949 25.6527ZM36.6412 32.032C37.0167 31.9033 37.5386 31.8138 37.971 31.565C38.8204 31.0761 38.7942 30.3057 37.9448 29.7928C37.5884 29.5613 37.1795 29.4228 36.7557 29.39C36.3319 29.3572 35.9066 29.4312 35.5188 29.6051C35.0821 29.8059 34.4423 30.3537 34.4859 30.6571C34.5514 31.0936 35.1257 31.4842 35.5537 31.7963C35.7852 31.9775 36.1695 31.9491 36.6346 32.0408L36.6412 32.032Z" fill="white"/>
<path d="M42.5868 55.9737C42.5833 57.1789 42.2224 58.356 41.5496 59.3561C40.8768 60.3562 39.9224 61.1345 38.8071 61.5925C37.6918 62.0505 36.4656 62.1677 35.2836 61.9292C34.1017 61.6907 33.0171 61.1072 32.1669 60.2526C31.3167 59.398 30.7392 58.3106 30.5073 57.1279C30.2755 55.9452 30.3997 54.7204 30.8643 53.6083C31.329 52.4962 32.1131 51.5467 33.1176 50.8801C34.1221 50.2134 35.3018 49.8594 36.5076 49.8628C37.3088 49.8631 38.1021 50.0216 38.8418 50.3292C39.5815 50.6369 40.2531 51.0876 40.818 51.6554C41.3829 52.2233 41.8299 52.8971 42.1335 53.6382C42.437 54.3792 42.5911 55.173 42.5868 55.9737ZM36.5163 53.047C36.128 53.0407 35.7423 53.1118 35.3818 53.2562C35.0213 53.4007 34.6933 53.6156 34.4169 53.8883C34.1406 54.1611 33.9215 54.4862 33.7724 54.8447C33.6233 55.2031 33.5473 55.5877 33.5488 55.9759C33.5458 56.5579 33.7155 57.1277 34.0364 57.6134C34.3572 58.0991 34.8149 58.4788 35.3516 58.7046C35.8884 58.9304 36.48 58.9922 37.0518 58.8821C37.6236 58.772 38.1499 58.4949 38.5642 58.086C38.9786 57.677 39.2624 57.1545 39.3797 56.5845C39.4971 56.0144 39.4427 55.4223 39.2236 54.8831C39.0045 54.3439 38.6303 53.8817 38.1485 53.5549C37.6666 53.2281 37.0987 53.0514 36.5163 53.047Z" fill="white"/>
</g>
<defs>
<clipPath id="clip0_1845_4834">
<rect width="73" height="76" fill="white"/>
</clipPath>
</defs>
</svg>
