<svg width="73" height="77" viewBox="0 0 73 77" fill="none" xmlns="http://www.w3.org/2000/svg">
<path d="M68.0042 66.6901C68.4999 66.7971 68.9039 66.856 69.2904 66.9695C71.6923 67.6744 73.2798 70.025 72.9588 72.3951C72.6007 75.0272 70.5809 76.9019 68.0108 76.9783C67.8208 76.9783 67.6287 76.9783 67.4387 76.9783C46.8036 76.9783 26.1686 76.9783 5.53356 76.9783C3.20584 76.9783 1.45459 76.0507 0.469789 73.9228C0.141164 73.2074 -0.0160151 72.4252 0.0107352 71.6384C0.0374855 70.8516 0.247429 70.0819 0.62389 69.3903C1.00035 68.6988 1.53296 68.1046 2.1794 67.6548C2.82585 67.205 3.56833 66.9121 4.34787 66.7993C4.53129 66.7709 4.71253 66.7251 4.97019 66.6727C4.8632 64.7739 4.75183 62.9014 4.65139 61.031C4.43303 57.3208 4.17755 53.6259 4.01159 49.9201C3.86529 46.6748 6.3808 44.0929 9.62563 44.0558C10.7982 44.0405 11.9752 44.0863 13.1456 44.0296C13.3203 44.0151 13.4904 43.9658 13.6456 43.8844C13.8009 43.8031 13.9383 43.6914 14.0496 43.556C16.314 40.326 19.3929 38.6695 23.3452 38.6564C25.0004 38.6564 26.6555 38.6564 28.3675 38.6564C27.3718 37.5128 26.3171 36.5132 25.5288 35.3368C24.4676 33.7633 23.5854 32.0631 22.6901 30.3914C22.4718 29.9767 22.2709 29.7825 21.7839 29.7977C20.5284 29.8327 19.2728 29.8261 18.0172 29.7977C15.8183 29.7563 14.268 28.1915 14.244 26.0068C14.233 24.9418 14.244 23.8789 14.244 22.8139C14.2359 22.2806 14.3395 21.7515 14.5483 21.2606C14.757 20.7697 15.0661 20.3279 15.4559 19.9636C15.6777 19.7397 15.8236 19.4519 15.8729 19.1408C16.9472 10.2909 23.7863 2.99052 32.5818 1.34713C37.8261 0.333654 43.2594 1.37535 47.7562 4.2564C52.253 7.13746 55.4686 11.637 56.7368 16.823C56.847 17.245 56.9345 17.6727 56.9989 18.1041C57.1168 18.9924 57.3046 19.7759 57.9881 20.5048C58.475 21.0221 58.6846 21.9147 58.7676 22.6676C58.8921 23.8003 58.8178 24.957 58.7982 26.1028C58.8012 27.0701 58.423 27.9997 57.7454 28.6904C57.0678 29.3811 56.1454 29.7773 55.1778 29.7934C53.8414 29.837 52.5007 29.7825 51.1665 29.8283C51.0217 29.8416 50.8818 29.8878 50.7577 29.9635C50.6335 30.0391 50.5284 30.1422 50.4503 30.2648C49.1105 33.4668 47.075 36.331 44.4912 38.6498C44.9585 38.6498 45.238 38.6498 45.5153 38.6498C47.5068 38.6913 49.5113 38.5887 51.4809 38.8092C54.6035 39.1627 57.0404 40.8061 58.8091 43.3923C58.9394 43.6227 59.135 43.8095 59.3712 43.9291C59.6074 44.0487 59.8738 44.0958 60.1367 44.0645C61.1739 44.0209 62.2111 44.0471 63.2483 44.0536C66.6242 44.0754 69.1244 46.5896 68.989 49.9463C68.8427 53.5168 68.5894 57.0829 68.3842 60.6404C68.2422 62.657 68.1243 64.6408 68.0042 66.6901ZM64.8271 66.6901C65.159 61.1161 65.504 55.6207 65.8075 50.1231C65.9123 48.257 64.8773 47.2226 62.9863 47.2204C45.3282 47.2204 27.6702 47.2204 10.0121 47.2204C8.07746 47.2204 7.07955 48.2461 7.17345 50.1929C7.39181 54.3396 7.64947 58.4688 7.89622 62.6089C7.97701 63.9599 8.07091 65.3108 8.16044 66.6901H64.8271ZM46.9696 15.0268C46.784 15.149 46.6552 15.2451 46.5176 15.3215C44.7598 16.3559 43.0675 17.5257 41.2289 18.39C38.281 19.7759 35.2458 20.0225 32.1364 18.6563C29.9659 17.7025 27.6491 17.6021 25.3104 18.0386C24.7449 18.1434 24.496 18.4184 24.3759 18.9684C23.6116 22.4603 24.175 25.7929 25.5223 29.0339C25.588 29.1581 25.6795 29.2669 25.7905 29.353C25.9016 29.4392 26.0297 29.5008 26.1664 29.5337C27.7677 29.8247 29.3814 30.0764 31.0075 30.2888C31.141 30.2832 31.2715 30.247 31.3888 30.1831C31.5062 30.1191 31.6073 30.0291 31.6844 29.92C33.4662 27.0195 37.5342 26.3276 40.1611 28.5035C42.3447 30.3194 42.277 33.3246 39.9908 35.0291C38.7699 35.927 37.2475 36.3151 35.7455 36.1115C34.2434 35.9078 32.8795 35.1284 31.942 33.9379C31.8137 33.7391 31.621 33.5904 31.3961 33.5167C30.2279 33.377 29.0553 33.2984 27.8827 33.1849L27.7277 33.3901C28.7998 34.4573 29.789 35.6315 30.9638 36.5743C34.5078 39.4115 38.6064 39.5032 42.0412 36.5547C47.1355 32.1897 49.4851 26.5852 48.7558 19.8392C48.5501 18.1163 47.9379 16.4669 46.9696 15.0268ZM36.5058 69.9071H5.95281C5.59809 69.8969 5.24307 69.9064 4.8894 69.9355C4.43716 69.9802 4.0166 70.1878 3.70608 70.5194C3.39555 70.8511 3.21621 71.2842 3.20147 71.7382C3.13597 73.0477 4.04216 73.8464 5.62527 73.8464C26.205 73.8464 46.7854 73.8464 67.3666 73.8464C67.6927 73.8525 68.0183 73.8188 68.3361 73.7461C68.7804 73.6324 69.1701 73.3651 69.436 72.9917C69.702 72.6183 69.8271 72.1628 69.7892 71.706C69.7512 71.2492 69.5527 70.8206 69.2288 70.4961C68.9049 70.1716 68.4765 69.9722 68.0195 69.9333C67.6942 69.9049 67.3644 69.9115 67.0369 69.9115L36.5058 69.9071ZM44.9694 12.5388C39.2091 6.71163 29.7715 8.58418 26.3586 14.6885C29.2497 14.4506 31.9311 15.125 34.5798 16.1421C35.3725 16.4454 36.3682 16.4345 37.2307 16.3079C40.1742 15.878 42.5893 14.3001 44.9694 12.5388ZM19.1221 18.9531C21.0131 19.1931 21.0131 19.1931 21.511 17.4581C21.5415 17.3533 21.5699 17.2398 21.6005 17.1438C23.6662 10.2669 30.1166 5.51127 36.9643 5.81682C43.7488 6.12018 49.4392 10.5964 51.3979 17.1656C51.5748 17.7614 51.7167 18.366 51.8762 18.9749H53.8589C53.2038 12.5977 47.1705 4.34147 36.7678 4.17342C26.625 4.02065 19.9803 11.847 19.1221 18.9531ZM17.812 44.0209H55.2018C53.9222 42.8227 52.5814 42.0436 50.9852 41.9606C48.4806 41.8275 45.963 41.8362 43.4584 41.8319C36.7707 41.8173 30.0823 41.8173 23.3932 41.8319C22.3621 41.8075 21.3365 41.9896 20.3769 42.3674C19.4172 42.7452 18.5429 43.3111 17.8054 44.0318L17.812 44.0209ZM21.369 26.6528C21.2468 25.8388 21.1507 25.1251 21.024 24.4005C20.8974 23.6759 20.9782 22.5912 20.5327 22.277C20.0065 21.9038 19.0173 22.1831 18.229 22.1788C18.1744 22.1788 18.0958 22.1591 18.0696 22.1788C17.8316 22.4166 17.4276 22.6502 17.4145 22.9099C17.3414 23.9132 17.3414 24.9205 17.4145 25.9239C17.432 26.177 17.7836 26.5983 18.0019 26.6135C19.0872 26.6899 20.1964 26.6528 21.3625 26.6528H21.369ZM51.6949 26.6528C52.7976 26.6528 53.8589 26.6965 54.9092 26.6201C55.0717 26.5746 55.2201 26.4888 55.3404 26.3704C55.4607 26.2521 55.549 26.1052 55.597 25.9435C55.6778 24.9439 55.6319 23.9335 55.6319 22.9273C55.6319 22.4276 55.383 22.1722 54.8808 22.1722C54.1187 22.1722 53.3523 22.1417 52.5946 22.194C52.4833 22.227 52.3821 22.2875 52.3004 22.3699C52.2188 22.4523 52.1592 22.5539 52.1273 22.6655C51.9504 23.9531 51.8347 25.2626 51.6884 26.6615L51.6949 26.6528ZM36.6412 33.0322C37.0167 32.9034 37.5386 32.8139 37.971 32.5651C38.8204 32.0762 38.7942 31.3058 37.9448 30.793C37.5884 30.5614 37.1795 30.4229 36.7557 30.3901C36.3319 30.3573 35.9066 30.4313 35.5188 30.6053C35.0821 30.806 34.4423 31.3538 34.4859 31.6572C34.5514 32.0937 35.1257 32.4844 35.5537 32.7965C35.7852 32.9776 36.1695 32.9492 36.6346 33.0409L36.6412 33.0322Z" fill="url(#paint0_linear_1845_5186)"/>
<path d="M42.5838 56.9737C42.5804 58.1789 42.2194 59.356 41.5467 60.3561C40.8739 61.3562 39.9195 62.1345 38.8042 62.5925C37.6888 63.0505 36.4627 63.1677 35.2807 62.9292C34.0988 62.6907 33.0141 62.1072 32.1639 61.2526C31.3138 60.398 30.7362 59.3106 30.5044 58.1279C30.2725 56.9452 30.3968 55.7204 30.8614 54.6083C31.326 53.4962 32.1102 52.5467 33.1147 51.8801C34.1192 51.2134 35.2989 50.8594 36.5047 50.8628C37.3059 50.8631 38.0991 51.0216 38.8388 51.3292C39.5785 51.6369 40.2501 52.0876 40.815 52.6554C41.3799 53.2233 41.827 53.8971 42.1306 54.6382C42.4341 55.3792 42.5882 56.173 42.5838 56.9737ZM36.5134 54.047C36.1251 54.0407 35.7394 54.1118 35.3789 54.2562C35.0184 54.4007 34.6904 54.6156 34.414 54.8883C34.1377 55.1611 33.9185 55.4862 33.7695 55.8447C33.6204 56.2031 33.5444 56.5877 33.5459 56.9759C33.5429 57.5579 33.7126 58.1277 34.0334 58.6134C34.3543 59.0991 34.812 59.4788 35.3487 59.7046C35.8854 59.9304 36.477 59.9922 37.0488 59.8821C37.6206 59.772 38.147 59.4949 38.5613 59.086C38.9756 58.677 39.2594 58.1545 39.3768 57.5845C39.4941 57.0144 39.4398 56.4223 39.2207 55.8831C39.0015 55.3439 38.6274 54.8817 38.1455 54.5549C37.6637 54.2281 37.0957 54.0514 36.5134 54.047Z" fill="url(#paint1_linear_1845_5186)"/>
<defs>
<linearGradient id="paint0_linear_1845_5186" x1="36.5039" y1="0.968994" x2="36.5039" y2="76.9783" gradientUnits="userSpaceOnUse">
<stop stop-color="#4EABB4"/>
<stop offset="1" stop-color="#611CF3"/>
</linearGradient>
<linearGradient id="paint1_linear_1845_5186" x1="36.4873" y1="50.8628" x2="36.4873" y2="63.0497" gradientUnits="userSpaceOnUse">
<stop stop-color="#4EABB4"/>
<stop offset="1" stop-color="#611CF3"/>
</linearGradient>
</defs>
</svg>
