<svg width="245" height="256" viewBox="0 0 245 256" fill="none" xmlns="http://www.w3.org/2000/svg">
<g clip-path="url(#clip0_1845_4850)">
<path d="M228.233 221.272C229.896 221.632 231.252 221.83 232.549 222.213C240.61 224.587 245.938 232.505 244.861 240.488C243.659 249.354 236.88 255.669 228.255 255.926C227.617 255.926 226.972 255.926 226.334 255.926C157.08 255.926 87.8253 255.926 18.5707 255.926C10.7585 255.926 4.88103 252.802 1.57586 245.634C0.47294 243.224 -0.0545786 240.59 0.0351997 237.939C0.124978 235.289 0.829584 232.696 2.09305 230.367C3.35651 228.038 5.14402 226.036 7.31361 224.521C9.48319 223.006 11.9751 222.019 14.5913 221.639C15.2069 221.544 15.8152 221.389 16.68 221.213C16.3209 214.817 15.9471 208.51 15.61 202.209C14.8771 189.712 14.0197 177.266 13.4627 164.783C12.9717 153.851 21.4142 145.155 32.3044 145.03C36.2398 144.978 40.1899 145.133 44.118 144.941C44.7044 144.893 45.275 144.726 45.7962 144.452C46.3173 144.178 46.7784 143.802 47.152 143.346C54.7517 132.466 65.0849 126.886 78.3495 126.842C83.9045 126.842 89.4596 126.842 95.2051 126.842C91.8633 122.99 88.3236 119.623 85.678 115.661C82.1164 110.36 79.1556 104.633 76.1509 99.0021C75.4181 97.6053 74.7439 96.9511 73.1096 97.0025C68.8957 97.1201 64.6818 97.0981 60.4679 97.0025C53.0881 96.8628 47.8848 91.5919 47.8042 84.233C47.7676 80.6455 47.8042 77.0654 47.8042 73.4778C47.7771 71.6815 48.125 69.8993 48.8255 68.2458C49.526 66.5923 50.5635 65.1041 51.8715 63.8768C52.616 63.1229 53.1056 62.1535 53.2713 61.1053C56.8769 31.2952 79.8299 6.7045 109.349 1.16885C126.95 -2.24495 145.185 1.26392 160.277 10.9685C175.369 20.6731 186.161 35.8296 190.417 53.2981C190.787 54.7197 191.081 56.1602 191.297 57.6134C191.693 60.6054 192.323 63.2446 194.617 65.7C196.251 67.4423 196.954 70.449 197.233 72.9853C197.651 76.8007 197.401 80.697 197.335 84.5565C197.346 87.8148 196.076 90.9459 193.802 93.2725C191.528 95.599 188.432 96.9337 185.185 96.9878C180.7 97.1349 176.2 96.9511 171.722 97.1055C171.236 97.1501 170.767 97.3058 170.35 97.5607C169.934 97.8156 169.581 98.1628 169.319 98.5758C164.822 109.361 157.991 119.009 149.319 126.82C150.887 126.82 151.825 126.82 152.756 126.82C159.44 126.96 166.167 126.614 172.778 127.357C183.257 128.548 191.436 134.083 197.372 142.795C197.81 143.571 198.466 144.2 199.259 144.603C200.052 145.006 200.945 145.164 201.828 145.059C205.309 144.912 208.79 145 212.271 145.022C223.601 145.096 231.992 153.565 231.538 164.871C231.047 176.898 230.197 188.911 229.508 200.893C229.031 207.686 228.636 214.369 228.233 221.272ZM217.57 221.272C218.683 202.496 219.841 183.985 220.86 165.467C221.212 159.181 217.738 155.697 211.392 155.689C152.128 155.689 92.8649 155.689 33.6015 155.689C27.1084 155.689 23.7593 159.144 24.0744 165.702C24.8073 179.67 25.6721 193.579 26.5002 207.524C26.7713 212.075 27.0865 216.626 27.3869 221.272H217.57ZM157.637 47.2478C157.014 47.6595 156.582 47.983 156.12 48.2403C150.22 51.7249 144.541 55.6653 138.37 58.5764C128.477 63.2446 118.29 64.0753 107.854 59.4733C100.57 56.2607 92.794 55.9225 84.9452 57.3928C83.0471 57.7457 82.2116 58.672 81.8086 60.5246C79.2436 72.2869 81.1343 83.5126 85.656 94.4295C85.8768 94.8479 86.1837 95.2143 86.5565 95.5046C86.9292 95.7948 87.3592 96.0022 87.818 96.113C93.1922 97.0932 98.608 97.9411 104.065 98.6566C104.514 98.6377 104.951 98.5158 105.345 98.3005C105.739 98.0851 106.078 97.7819 106.337 97.4142C112.317 87.6441 125.97 85.3137 134.786 92.6431C142.115 98.7595 141.888 108.882 134.215 114.624C130.117 117.648 125.008 118.956 119.967 118.27C114.926 117.584 110.348 114.958 107.202 110.948C106.771 110.279 106.125 109.778 105.37 109.529C101.449 109.059 97.5136 108.794 93.5782 108.412L93.0579 109.103C96.6562 112.698 99.976 116.653 103.919 119.829C115.813 129.386 129.569 129.694 141.096 119.763C158.194 105.06 166.079 86.1812 163.632 63.4578C162.941 57.6545 160.887 52.0986 157.637 47.2478ZM122.519 232.108H19.9778C18.7873 232.073 17.5958 232.105 16.4088 232.203C14.891 232.354 13.4796 233.053 12.4374 234.17C11.3952 235.287 10.7933 236.746 10.7438 238.276C10.524 242.686 13.5653 245.377 18.8785 245.377C87.9474 245.377 157.019 245.377 226.093 245.377C227.187 245.398 228.28 245.284 229.346 245.039C230.838 244.656 232.145 243.756 233.038 242.498C233.931 241.24 234.35 239.706 234.223 238.167C234.096 236.629 233.43 235.185 232.342 234.092C231.255 232.999 229.817 232.327 228.284 232.196C227.192 232.1 226.085 232.122 224.986 232.122L122.519 232.108ZM150.924 38.8672C131.591 19.2388 99.9174 25.5463 88.4629 46.1083C98.1658 45.307 107.165 47.5786 116.055 51.0044C118.715 52.0263 122.057 51.9895 124.952 51.5631C134.83 50.1149 142.936 44.7998 150.924 38.8672ZM64.1761 60.4731C70.5226 61.2818 70.5226 61.2818 72.1935 55.4373C72.2961 55.0845 72.3914 54.7022 72.494 54.3787C79.4268 31.2143 101.075 15.1954 124.058 16.2246C146.827 17.2465 165.925 32.3243 172.499 54.4523C173.093 56.4592 173.569 58.4956 174.104 60.5466H180.758C178.56 39.0656 158.311 11.2551 123.398 10.689C89.357 10.1744 67.0562 36.5367 64.1761 60.4731ZM59.779 144.912H185.265C180.971 140.876 176.471 138.252 171.114 137.972C162.708 137.524 154.258 137.553 145.853 137.539C123.408 137.489 100.96 137.489 78.5107 137.539C75.0501 137.457 71.6081 138.07 68.3874 139.343C65.1666 140.615 62.2323 142.521 59.757 144.949L59.779 144.912ZM71.7172 86.4091C71.3068 83.667 70.9843 81.263 70.5593 78.8223C70.1342 76.3817 70.4054 72.728 68.9104 71.6694C67.1442 70.4123 63.8244 71.3533 61.1788 71.3386C60.9956 71.3386 60.7317 71.2724 60.6438 71.3386C59.845 72.1399 58.4892 72.9265 58.4452 73.8013C58.1997 77.181 58.1997 80.574 58.4452 83.9537C58.5039 84.8064 59.6837 86.2253 60.4166 86.2767C64.0589 86.534 67.7818 86.4091 71.6952 86.4091H71.7172ZM173.496 86.4091C177.197 86.4091 180.758 86.5561 184.283 86.2988C184.829 86.1458 185.327 85.8564 185.731 85.4579C186.134 85.0593 186.431 84.5645 186.592 84.0198C186.863 80.6529 186.709 77.2491 186.709 73.8601C186.709 72.1766 185.874 71.3165 184.188 71.3165C181.63 71.3165 179.058 71.2136 176.515 71.39C176.142 71.5011 175.802 71.7048 175.528 71.9823C175.254 72.2599 175.054 72.6023 174.947 72.9779C174.353 77.3153 173.965 81.7262 173.474 86.4385L173.496 86.4091ZM122.973 107.897C124.233 107.464 125.985 107.162 127.436 106.324C130.287 104.677 130.199 102.082 127.348 100.355C126.152 99.5748 124.78 99.1083 123.357 98.9978C121.935 98.8874 120.508 99.1366 119.206 99.7226C117.74 100.399 115.593 102.244 115.74 103.266C115.96 104.736 117.887 106.052 119.323 107.103C120.1 107.714 121.39 107.618 122.951 107.927L122.973 107.897Z" fill="#312458"/>
<path d="M142.928 188.543C142.917 192.602 141.705 196.567 139.447 199.936C137.189 203.305 133.986 205.927 130.243 207.469C126.5 209.012 122.385 209.407 118.418 208.603C114.451 207.8 110.811 205.835 107.957 202.956C105.104 200.077 103.166 196.414 102.388 192.431C101.61 188.447 102.027 184.321 103.586 180.575C105.145 176.829 107.777 173.631 111.148 171.385C114.519 169.14 118.479 167.947 122.526 167.959C125.215 167.96 127.877 168.494 130.359 169.53C132.842 170.566 135.096 172.084 136.992 173.997C138.888 175.91 140.388 178.18 141.407 180.676C142.426 183.172 142.943 185.846 142.928 188.543ZM122.555 178.685C121.252 178.663 119.957 178.903 118.747 179.389C117.537 179.876 116.437 180.6 115.509 181.518C114.582 182.437 113.846 183.532 113.346 184.74C112.846 185.947 112.59 187.243 112.595 188.55C112.585 190.511 113.155 192.43 114.232 194.066C115.309 195.702 116.845 196.981 118.646 197.742C120.447 198.502 122.433 198.71 124.352 198.339C126.271 197.969 128.037 197.035 129.428 195.658C130.819 194.28 131.771 192.52 132.165 190.6C132.559 188.68 132.376 186.686 131.641 184.869C130.905 183.053 129.65 181.496 128.033 180.395C126.415 179.294 124.509 178.699 122.555 178.685Z" fill="#312458"/>
</g>
<defs>
<clipPath id="clip0_1845_4850">
<rect width="245" height="256" fill="white"/>
</clipPath>
</defs>
</svg>
