<svg width="367" height="268" viewBox="0 0 367 268" fill="none" xmlns="http://www.w3.org/2000/svg">
<path d="M31.9867 265.721H289.696C292.141 265.716 294.542 265.06 296.649 263.818C298.756 262.577 300.493 260.795 301.682 258.658C302.871 256.521 303.47 254.105 303.414 251.66C303.359 249.215 302.652 246.831 301.368 244.75L272.807 198.826C271.586 196.854 269.882 195.227 267.856 194.098C265.83 192.969 263.548 192.376 261.229 192.375H62.4457C60.1809 192.366 57.9499 192.914 55.9477 193.973C53.9454 195.031 52.2332 196.567 50.9652 198.443L20.5063 244.371C19.1515 246.442 18.3817 248.84 18.2777 251.313C18.1738 253.785 18.7404 256.239 19.9164 258.416C21.0925 260.593 22.8347 262.413 24.9594 263.682C27.0841 264.95 29.512 265.623 31.9867 265.625V265.721Z" stroke="#312458" stroke-width="3" stroke-miterlimit="10"/>
<path d="M50.3906 184.596V76.6172C50.3894 75.0842 50.6894 73.565 51.2754 72.1484C51.8614 70.7319 52.7208 69.4454 53.8047 68.3613C54.8886 67.2773 56.1754 66.4164 57.5918 65.8301C59.0082 65.2438 60.5276 64.9424 62.0606 64.9434H257.146C258.679 64.9424 260.197 65.2438 261.613 65.8301C263.03 66.4164 264.317 67.2773 265.4 68.3613C266.484 69.4454 267.344 70.7319 267.93 72.1484C268.516 73.565 268.818 75.0842 268.816 76.6172V180.705C268.815 182.238 269.117 183.755 269.703 185.172C270.289 186.589 271.148 187.877 272.232 188.961C273.317 190.045 274.603 190.904 276.02 191.49C277.436 192.076 278.955 192.378 280.488 192.377H320.529" stroke="#312458" stroke-width="3" stroke-miterlimit="10"/>
<path d="M5.60938 81.9297H247.189V176.15H72.791V18.6406" stroke="#312458" stroke-width="3" stroke-miterlimit="10"/>
<path d="M288.176 193.42V46.7285C288.168 45.3761 288.428 44.0373 288.939 42.7852C289.451 41.533 290.202 40.3924 291.154 39.4316C292.106 38.4709 293.239 37.7084 294.486 37.1855C295.734 36.6627 297.071 36.3899 298.424 36.3848H324.137C325.489 36.3899 326.827 36.6627 328.074 37.1855C329.321 37.7084 330.453 38.4708 331.404 39.4316C332.356 40.3924 333.11 41.533 333.621 42.7852C334.132 44.0373 334.391 45.3762 334.383 46.7285V162.014C334.389 163.361 334.128 164.698 333.615 165.943C333.102 167.189 332.347 168.321 331.395 169.273C330.442 170.226 329.31 170.979 328.064 171.492C326.819 172.005 325.484 172.266 324.137 172.26H278.117" stroke="#312458" stroke-width="3" stroke-miterlimit="10"/>
<path d="M288.078 154.516H302.025" stroke="#312458" stroke-width="3" stroke-miterlimit="10"/>
<path d="M288.461 141.422H302.406" stroke="#312458" stroke-width="3" stroke-miterlimit="10"/>
<path d="M288.078 128.232H302.025" stroke="#312458" stroke-width="3" stroke-miterlimit="10"/>
<path d="M288.461 115.139H302.406" stroke="#312458" stroke-width="3" stroke-miterlimit="10"/>
<path d="M288.078 102.045H302.025" stroke="#312458" stroke-width="3" stroke-miterlimit="10"/>
<path d="M288.461 88.9512H302.406" stroke="#312458" stroke-width="3" stroke-miterlimit="10"/>
<path d="M288.078 75.7617H302.025" stroke="#312458" stroke-width="3" stroke-miterlimit="10"/>
<path d="M288.461 62.666H302.406" stroke="#312458" stroke-width="3" stroke-miterlimit="10"/>
<path d="M334.477 48.1504H216.344" stroke="#312458" stroke-width="3" stroke-miterlimit="10"/>
<path d="M122.217 100.525L102.859 119.787C101.128 121.526 100.156 123.88 100.156 126.334C100.156 128.788 101.128 131.142 102.859 132.881L120.225 150.246" stroke="#312458" stroke-width="3" stroke-miterlimit="10"/>
<path d="M193.953 149.105L211.697 131.363C213.43 129.624 214.404 127.27 214.404 124.814C214.404 122.359 213.43 120.003 211.697 118.264L197.086 103.557C196.205 102.711 195.506 101.694 195.033 100.568C194.56 99.4428 194.322 98.2327 194.334 97.0117V4.02734" stroke="#312458" stroke-width="3" stroke-miterlimit="10"/>
<path d="M69.75 204.711C69.75 204.711 252.973 203.572 254.205 204.711C254.965 205.471 266.826 224.826 274.986 238.299C275.757 239.565 276.178 241.014 276.205 242.496C276.232 243.979 275.865 245.441 275.141 246.735C274.417 248.028 273.362 249.106 272.084 249.858C270.806 250.61 269.352 251.009 267.869 251.014H56.8437C55.3576 251.018 53.8983 250.625 52.6152 249.875C51.3322 249.126 50.2725 248.045 49.5469 246.748C48.8212 245.452 48.4543 243.984 48.4863 242.498C48.5184 241.013 48.9476 239.564 49.7285 238.299L67.3789 209.36" stroke="#312458" stroke-width="3" stroke-miterlimit="10"/>
<path d="M59.5 223.213H339.791" stroke="#312458" stroke-width="3" stroke-miterlimit="10"/>
<path d="M53.7188 233.176H362.189" stroke="#312458" stroke-width="3" stroke-miterlimit="10"/>
<path d="M65.0078 214.199H322.807" stroke="#312458" stroke-width="3" stroke-miterlimit="10"/>
<path d="M220.336 205.186L235.611 250.254" stroke="#312458" stroke-width="3" stroke-miterlimit="10"/>
<path d="M165.297 205.186V250.826" stroke="#312458" stroke-width="3" stroke-miterlimit="10"/>
<path d="M109.793 203.953L94.4219 250.254" stroke="#312458" stroke-width="3" stroke-miterlimit="10"/>
<path d="M217.104 52.6083C218.009 52.5984 218.892 52.3208 219.641 51.8115C220.389 51.3021 220.971 50.5836 221.312 49.7451C221.654 48.9065 221.742 47.9863 221.562 47.0986C221.383 46.2109 220.945 45.395 220.305 44.7548C219.664 44.1146 218.851 43.6778 217.963 43.499C217.075 43.3201 216.153 43.4067 215.314 43.749C214.476 44.0912 213.757 44.6738 213.248 45.4228C212.739 46.1718 212.463 47.0544 212.453 47.9599C212.455 49.1923 212.947 50.3738 213.818 51.2451C214.69 52.1163 215.871 52.6068 217.104 52.6083Z" fill="#312458" stroke="#312458" stroke-miterlimit="10"/>
<path d="M194.338 9.81752C195.257 9.81733 196.157 9.54337 196.922 9.03237C197.686 8.52137 198.281 7.796 198.633 6.94643C198.985 6.09686 199.076 5.16266 198.896 4.26088C198.717 3.35911 198.273 2.53006 197.623 1.88003C196.973 1.22999 196.146 0.787729 195.244 0.608541C194.342 0.429352 193.406 0.522111 192.557 0.874166C191.707 1.22622 190.981 1.82242 190.471 2.58706C189.96 3.35169 189.687 4.2496 189.688 5.16909C189.69 6.40151 190.181 7.58298 191.053 8.45424C191.924 9.32551 193.105 9.81594 194.338 9.81752Z" fill="#312458" stroke="#312458" stroke-miterlimit="10"/>
<path d="M72.4082 22.9098C73.3274 22.9094 74.2261 22.6375 74.9902 22.1266C75.7543 21.6156 76.3497 20.89 76.7012 20.0406C77.0527 19.1913 77.1444 18.2566 76.9648 17.3551C76.7853 16.4536 76.3435 15.626 75.6934 14.9762C75.0432 14.3264 74.2141 13.8839 73.3125 13.7047C72.4109 13.5255 71.4761 13.6165 70.627 13.9684C69.7778 14.3202 69.0517 14.9169 68.541 15.6813C68.0304 16.4456 67.7578 17.3441 67.7578 18.2633C67.7597 19.4958 68.2513 20.6771 69.123 21.5485C69.9947 22.4198 71.1757 22.9085 72.4082 22.9098Z" fill="#312458" stroke="#312458" stroke-miterlimit="10"/>
<path d="M5.23047 86.1953C6.46255 86.1932 7.64441 85.7032 8.51562 84.832C9.38684 83.9608 9.87679 82.779 9.87891 81.5469C9.87891 80.3136 9.38962 79.1318 8.51758 78.2598C7.64553 77.3877 6.46177 76.8965 5.22852 76.8965C3.99526 76.8965 2.81345 77.3877 1.94141 78.2598C1.06936 79.1318 0.578125 80.3136 0.578125 81.5469C0.580243 82.7796 1.07128 83.9607 1.94336 84.832C2.81543 85.7034 3.9977 86.1943 5.23047 86.1953Z" fill="#312458" stroke="#312458" stroke-miterlimit="10"/>
<path d="M49.2578 188.866C50.1773 188.867 51.0752 188.594 51.8398 188.083C52.6045 187.573 53.2007 186.847 53.5527 185.997C53.9048 185.148 53.9975 184.214 53.8184 183.312C53.6392 182.41 53.1969 181.581 52.5469 180.931C51.8968 180.281 51.0678 179.837 50.166 179.657C49.2642 179.478 48.33 179.571 47.4805 179.923C46.6309 180.275 45.9055 180.87 45.3945 181.634C44.8835 182.398 44.6096 183.297 44.6094 184.216C44.611 185.448 45.1014 186.632 45.9727 187.503C46.8439 188.375 48.0254 188.864 49.2578 188.866Z" fill="#312458" stroke="#312458" stroke-miterlimit="10"/>
<path d="M67.7578 210.501C68.6777 210.502 69.5768 210.229 70.3418 209.718C71.1068 209.207 71.7025 208.482 72.0547 207.632C72.4069 206.782 72.4997 205.847 72.3203 204.945C72.141 204.042 71.6973 203.214 71.0469 202.564C70.3964 201.913 69.5682 201.47 68.666 201.29C67.7638 201.111 66.8283 201.204 65.9785 201.556C65.1288 201.908 64.4034 202.504 63.8926 203.269C63.3818 204.034 63.109 204.933 63.1094 205.853C63.1118 207.085 63.6015 208.265 64.4727 209.136C65.3438 210.007 66.5258 210.499 67.7578 210.501Z" fill="#312458" stroke="#312458" stroke-miterlimit="10"/>
<path d="M322.428 218.18C323.661 218.178 324.844 217.689 325.715 216.817C326.587 215.945 327.077 214.763 327.079 213.53C327.076 212.925 326.953 212.326 326.717 211.768C326.481 211.211 326.136 210.705 325.704 210.282C325.271 209.858 324.76 209.525 324.198 209.301C323.636 209.077 323.034 208.967 322.428 208.977C321.828 208.97 321.234 209.083 320.678 209.309C320.123 209.536 319.618 209.871 319.194 210.296C318.77 210.72 318.434 211.224 318.208 211.78C317.981 212.336 317.868 212.93 317.876 213.53C317.866 214.135 317.978 214.737 318.202 215.299C318.426 215.862 318.759 216.373 319.182 216.805C319.606 217.238 320.111 217.583 320.669 217.819C321.226 218.055 321.823 218.177 322.428 218.18Z" fill="#312458" stroke="#312458" stroke-miterlimit="10"/>
<path d="M340.174 226.725C341.407 226.725 342.591 226.235 343.463 225.363C344.335 224.491 344.824 223.307 344.824 222.074C344.824 220.841 344.335 219.659 343.463 218.787C342.591 217.915 341.407 217.424 340.174 217.424C338.941 217.424 337.759 217.915 336.887 218.787C336.015 219.659 335.523 220.841 335.523 222.074C335.523 223.307 336.015 224.491 336.887 225.363C337.759 226.235 338.941 226.725 340.174 226.725Z" fill="#312458" stroke="#312458" stroke-miterlimit="10"/>
<path d="M361.805 237.54C362.724 237.54 363.624 237.268 364.389 236.757C365.153 236.246 365.75 235.521 366.102 234.671C366.454 233.822 366.545 232.886 366.365 231.984C366.186 231.082 365.744 230.253 365.094 229.603C364.444 228.953 363.615 228.511 362.713 228.331C361.811 228.152 360.877 228.245 360.027 228.597C359.178 228.949 358.45 229.543 357.939 230.308C357.429 231.072 357.156 231.972 357.156 232.892C357.158 234.124 357.65 235.306 358.521 236.177C359.393 237.048 360.573 237.538 361.805 237.54Z" fill="#312458" stroke="#312458" stroke-miterlimit="10"/>
<path d="M320.148 197.404C321.068 197.404 321.966 197.131 322.73 196.62C323.495 196.11 324.09 195.384 324.441 194.534C324.793 193.685 324.886 192.752 324.707 191.851C324.528 190.949 324.085 190.12 323.436 189.47C322.786 188.82 321.958 188.376 321.057 188.196C320.155 188.017 319.22 188.111 318.371 188.462C317.522 188.814 316.796 189.409 316.285 190.173C315.774 190.937 315.5 191.834 315.5 192.753C315.501 193.986 315.992 195.169 316.863 196.04C317.735 196.912 318.916 197.402 320.148 197.404Z" fill="#312458" stroke="#312458" stroke-miterlimit="10"/>
<path d="M278.494 176.528C279.413 176.528 280.312 176.256 281.076 175.745C281.84 175.234 282.436 174.507 282.787 173.657C283.139 172.808 283.23 171.875 283.051 170.974C282.871 170.072 282.427 169.243 281.777 168.593C281.127 167.943 280.3 167.501 279.398 167.321C278.497 167.142 277.562 167.235 276.713 167.587C275.864 167.939 275.138 168.534 274.627 169.298C274.116 170.062 273.844 170.961 273.844 171.88C273.845 173.113 274.337 174.296 275.209 175.167C276.081 176.038 277.262 176.527 278.494 176.528Z" fill="#312458" stroke="#312458" stroke-miterlimit="10"/>
</svg>
