<svg width="84" height="106" viewBox="0 0 84 106" fill="none" xmlns="http://www.w3.org/2000/svg">
<path d="M21.1024 53.0806C21.1024 70.6509 35.1603 84.8853 52.5824 84.7905C71.0194 84.6958 84.3162 69.3525 83.9967 52.4077C83.6772 35.4724 69.7226 20.9157 51.7649 21.3517C34.7468 21.7687 20.9802 35.8988 21.1024 53.0806ZM23.7993 53.1943C23.7993 37.2161 36.5981 24.1 52.2159 24.0905C68.2378 24.081 81.2621 36.8749 81.2809 52.6352C81.2903 69.0114 68.5949 82.0233 52.5824 82.0327C36.7108 82.0422 23.7993 69.1061 23.7993 53.1943Z" fill="url(#paint0_linear_1782_3546)"/>
<path d="M18.5596 91.5664C18.9637 91.3579 19.8658 91.0926 20.4766 90.5239C22.3748 88.7612 24.1978 86.9037 25.9739 85.0178C27.5338 83.3688 27.5056 81.2744 26.0115 79.7581C24.4798 78.2039 22.3654 78.2039 20.7116 79.815C18.9355 81.5492 17.2159 83.3404 15.4586 85.0936C14.3122 86.2309 13.8705 87.5387 14.4719 89.1024C15.0639 90.6377 16.2386 91.4243 18.5408 91.5664H18.5596Z" fill="url(#paint1_linear_1782_3546)"/>
<path d="M48.8627 98.5232C48.8627 99.8405 48.8251 101.167 48.8627 102.485C48.9284 104.456 50.4789 105.953 52.4241 105.991C54.4351 106.038 56.1547 104.588 56.2111 102.598C56.2957 99.8405 56.2957 97.0827 56.2111 94.3249C56.1547 92.3347 54.4257 90.8184 52.4711 90.8468C50.4977 90.8753 48.9472 92.42 48.8533 94.4386C48.8345 94.8177 48.8063 95.1968 48.7969 95.5664C48.7969 96.552 48.7969 97.5281 48.7969 98.5137C48.8157 98.5137 48.8345 98.5137 48.8533 98.5137L48.8627 98.5232Z" fill="url(#paint2_linear_1782_3546)"/>
<path d="M7.4896 49.2618C6.221 49.2618 4.943 49.2428 3.67441 49.2618C1.53188 49.3092 -0.018625 50.9013 0.000169019 53.0147C0.0189631 55.1186 1.57887 56.7012 3.71199 56.7202C6.221 56.7391 8.73 56.7391 11.239 56.7202C13.3815 56.7012 14.9602 55.128 14.9884 53.0336C15.0166 50.9582 13.4285 49.3186 11.3142 49.2713C10.0456 49.2428 8.76759 49.2713 7.49899 49.2713L7.4896 49.2618Z" fill="url(#paint3_linear_1782_3546)"/>
<path d="M48.8584 7.59092C48.8584 8.9556 48.802 10.3108 48.8678 11.666C48.9712 13.6467 50.5405 15.1062 52.4857 15.1346C54.4497 15.1535 56.1599 13.6372 56.2163 11.6565C56.2915 8.93665 56.2915 6.21675 56.2163 3.49686C56.1599 1.46879 54.5248 -0.00961494 52.5233 -0.000137329C50.5123 -0.000137329 48.9712 1.44984 48.8678 3.51582C48.802 4.87103 48.8584 6.23571 48.8584 7.59092Z" fill="url(#paint4_linear_1782_3546)"/>
<path d="M22.8877 27.2933C24.8611 27.1701 26.0075 26.3929 26.7687 24.9903C27.605 23.4456 26.9284 22.1094 25.9887 21.0479C24.1657 18.9914 22.2111 17.0581 20.2001 15.1912C18.847 13.9402 16.7514 14.1676 15.4076 15.5039C14.0451 16.8591 13.7444 18.9251 14.9942 20.3182C16.9582 22.4979 19.0631 24.5544 21.1868 26.573C21.6849 27.0469 22.5212 27.1511 22.8877 27.3027V27.2933Z" fill="url(#paint5_linear_1782_3546)"/>
<path d="M53.7325 28.8955C40.4921 27.9004 28.5391 39.4624 28.5391 53.1187C28.5391 66.557 40.5673 78.0431 53.7325 77.067V28.8955ZM51.0919 74.2144C40.2478 74.1386 30.6816 63.2875 31.2642 51.8677C31.8092 41.3483 42.0332 30.9994 51.0919 31.8618V74.2144Z" fill="url(#paint6_linear_1782_3546)"/>
<defs>
<linearGradient id="paint0_linear_1782_3546" x1="52.5519" y1="84.791" x2="52.5519" y2="21.3421" gradientUnits="userSpaceOnUse">
<stop stop-color="#4DAFB2"/>
<stop offset="1" stop-color="#6306FC"/>
</linearGradient>
<linearGradient id="paint1_linear_1782_3546" x1="20.6705" y1="91.5664" x2="20.6705" y2="78.5994" gradientUnits="userSpaceOnUse">
<stop stop-color="#4DAFB2"/>
<stop offset="1" stop-color="#6306FC"/>
</linearGradient>
<linearGradient id="paint2_linear_1782_3546" x1="52.5357" y1="105.992" x2="52.5357" y2="90.8465" gradientUnits="userSpaceOnUse">
<stop stop-color="#4DAFB2"/>
<stop offset="1" stop-color="#6306FC"/>
</linearGradient>
<linearGradient id="paint3_linear_1782_3546" x1="7.4944" y1="56.7344" x2="7.4944" y2="49.2534" gradientUnits="userSpaceOnUse">
<stop stop-color="#4DAFB2"/>
<stop offset="1" stop-color="#6306FC"/>
</linearGradient>
<linearGradient id="paint4_linear_1782_3546" x1="52.5543" y1="15.1348" x2="52.5543" y2="-0.000184059" gradientUnits="userSpaceOnUse">
<stop stop-color="#4DAFB2"/>
<stop offset="1" stop-color="#6306FC"/>
</linearGradient>
<linearGradient id="paint5_linear_1782_3546" x1="20.6754" y1="27.3027" x2="20.6754" y2="14.3668" gradientUnits="userSpaceOnUse">
<stop stop-color="#4DAFB2"/>
<stop offset="1" stop-color="#6306FC"/>
</linearGradient>
<linearGradient id="paint6_linear_1782_3546" x1="41.1358" y1="77.125" x2="41.1358" y2="28.8357" gradientUnits="userSpaceOnUse">
<stop stop-color="#4DAFB2"/>
<stop offset="1" stop-color="#6306FC"/>
</linearGradient>
</defs>
</svg>
