<svg width="106" height="118" viewBox="0 0 106 118" fill="none" xmlns="http://www.w3.org/2000/svg">
<path d="M54.6326 100.318C58.6916 97.1082 60.5505 96.4661 65.498 96.4661H93.9263V49.373H92.5694C83.3152 49.373 74.0594 49.3713 64.8036 49.373C58.531 49.373 54.6342 53.2722 54.6326 59.5513C54.6309 72.6557 54.6326 85.7601 54.6326 98.8645V100.318ZM50.8831 100.37V98.8981C50.8831 85.7534 50.8847 72.6103 50.8814 59.4655C50.8797 53.3226 46.9595 49.3746 40.8609 49.373C31.5281 49.3696 22.1954 49.373 12.8609 49.373H11.5809V96.4661H12.9228C22.2573 96.4661 31.5901 96.451 40.9228 96.4846C42.161 96.4897 43.4141 96.6477 44.6305 96.8863C46.9779 97.3451 48.9322 98.6107 50.8831 100.37ZM54.5656 109.604H51.0052C50.8094 108.644 50.6957 107.712 50.4246 106.826C49.2032 102.829 45.6344 100.246 41.3077 100.239C31.0379 100.224 20.7682 100.234 10.4967 100.234C8.27481 100.234 7.75781 99.7099 7.75781 97.4561V48.3763C7.75781 46.1275 8.27481 45.6048 10.5034 45.6048C20.3432 45.6048 30.1846 45.6889 40.0244 45.5712C45.3533 45.5073 49.6249 47.2805 52.7453 51.9259C53.0381 51.5326 53.274 51.2015 53.5233 50.8805C56.13 47.5225 59.5533 45.6586 63.7897 45.6317C74.3723 45.5662 84.9549 45.6031 95.5376 45.6099C97.0651 45.6099 97.7528 46.3057 97.7528 47.8452C97.7595 64.5581 97.7595 81.2709 97.7528 97.9838C97.7528 99.599 97.0501 100.233 95.3133 100.233C85.2394 100.236 75.162 100.367 65.0897 100.179C59.8561 100.083 55.0157 103.286 54.5656 109.604ZM70.0857 26.7894C70.9122 29.2247 73.3718 30.7659 75.7995 30.4869C78.0783 30.2247 80.0961 28.5793 80.312 26.7894H70.0857ZM25.0815 26.7928C25.9315 29.2382 28.3793 30.7676 30.8053 30.4853C33.0892 30.2214 35.1137 28.5659 35.3044 26.7928H25.0815ZM79.979 22.9574C78.4129 19.033 76.9004 15.2447 75.2574 11.1286C73.6194 15.2598 72.1085 19.0632 70.5626 22.9574H79.979ZM25.5835 22.8986H34.9581C33.4021 19.0044 31.8912 15.2228 30.2566 11.1337C28.6152 15.2632 27.1094 19.0582 25.5835 22.8986ZM54.7079 34.3021C57.0854 34.3021 59.3508 34.2971 61.6146 34.3038C63.0936 34.3088 63.9637 34.9979 63.9821 36.1593C64.0005 37.3223 63.1187 38.0652 61.6681 38.0669C55.7318 38.0736 49.7955 38.0736 43.8592 38.0669C42.4036 38.0652 41.5218 37.3324 41.5335 36.1694C41.5452 35.0114 42.4186 34.3088 43.891 34.3038C46.1832 34.2971 48.4771 34.3021 50.8262 34.3021V8.01431H33.0976C33.3452 8.66978 33.5794 9.32357 33.8354 9.96728C35.5738 14.3304 37.267 18.712 39.0874 23.0414C39.6914 24.4801 39.6914 25.8432 39.3116 27.2734C38.1605 31.6046 34.0245 34.5946 29.6626 34.2584C25.0397 33.9021 21.337 30.3222 20.9372 25.7474C20.8786 25.0734 20.9957 24.3238 21.2417 23.6936C23.569 17.7523 25.9616 11.8379 28.2856 5.89663C28.7675 4.65963 29.512 4.13526 30.8388 4.14534C37.0478 4.184 43.2585 4.16215 49.4676 4.16215H50.8044C51.0269 2.62935 50.3945 0.599065 52.8139 0.44276C54.0788 0.360406 54.4887 1.22933 54.6995 4.16215H55.9242C62.1349 4.16215 68.344 4.16047 74.5547 4.16215C76.263 4.16383 76.626 4.40753 77.2635 6.00419C79.5256 11.6749 81.7408 17.3657 84.0732 23.0095C84.6855 24.4919 84.6922 25.8818 84.2857 27.3508C83.0793 31.6886 78.9249 34.6433 74.5814 34.2534C69.9853 33.8433 66.363 30.3273 65.943 25.7827C65.8778 25.0751 66.02 24.2868 66.2793 23.6196C68.1499 18.8044 70.0757 14.0094 71.9797 9.20592C72.1353 8.816 72.2658 8.416 72.4264 7.96893H54.7079V34.3021Z" fill="url(#paint0_linear_2059_43)"/>
<path d="M4.01134 103.836H5.5723C16.0791 103.836 26.5842 103.807 37.0893 103.863C38.7874 103.873 40.5391 104.05 42.172 104.5C46.6424 105.734 49.6539 108.567 50.7514 113.26H54.7299C56.6188 107.221 60.9286 103.912 67.2795 103.868C78.1761 103.792 89.0727 103.839 99.9693 103.836H101.505V57.7535C101.505 57.4374 101.5 57.1214 101.507 56.8053C101.539 55.4481 102.303 54.5742 103.427 54.6063C104.51 54.6367 105.246 55.4819 105.249 56.7833C105.263 61.5176 105.256 66.2536 105.256 70.9896C105.256 82.3141 105.256 93.6403 105.254 104.966C105.254 107.066 104.699 107.624 102.619 107.624C91.1757 107.625 79.7337 107.63 68.29 107.618C65.9829 107.615 63.7812 107.985 61.7969 109.248C59.709 110.576 58.5144 112.449 58.3839 114.979C58.3103 116.413 57.6461 117.077 56.2608 117.09C53.9185 117.111 51.5746 117.111 49.2323 117.089C47.9942 117.079 47.1477 116.445 47.1677 115.311C47.2347 111.54 44.2148 108.531 39.9954 107.853C38.9999 107.695 37.9777 107.635 36.9671 107.634C25.6021 107.618 14.237 107.625 2.872 107.624C0.810794 107.624 0.262033 107.059 0.262033 104.941C0.26036 89.0378 0.262033 73.1345 0.262033 57.2312C0.262033 56.9557 0.246975 56.6768 0.273744 56.403C0.379147 55.3669 1.15377 54.6182 2.1141 54.6063C3.07778 54.5928 3.88085 55.328 3.99294 56.3591C4.03477 56.7495 4.01134 57.1467 4.01134 57.5422V102.291V103.836Z" fill="url(#paint1_linear_2059_43)"/>
<defs>
<linearGradient id="paint0_linear_2059_43" x1="52.7578" y1="0.4375" x2="52.7578" y2="109.604" gradientUnits="userSpaceOnUse">
<stop stop-color="#630CFA"/>
<stop offset="1" stop-color="#4EAAB5"/>
</linearGradient>
<linearGradient id="paint1_linear_2059_43" x1="52.7578" y1="54.6055" x2="52.7578" y2="117.105" gradientUnits="userSpaceOnUse">
<stop stop-color="#630CFA"/>
<stop offset="1" stop-color="#4EAAB5"/>
</linearGradient>
</defs>
</svg>
