<svg width="83" height="94" viewBox="0 0 83 94" fill="none" xmlns="http://www.w3.org/2000/svg">
<path d="M34.9476 24.0394C34.4076 24.5122 34.0714 24.7436 33.8066 25.0353C29.701 29.6524 25.6464 34.3197 21.4695 38.8765C20.0127 40.4658 18.3114 41.864 16.6203 43.232C13.126 46.0787 9.58076 48.8852 6.01514 51.6514C5.2307 52.265 4.33421 52.768 3.41733 53.1603C1.85865 53.8242 0.371277 52.949 0.218465 51.2792C0.0758401 49.71 0.00452777 48.1207 0.00452777 46.5515C-0.00565971 33.4949 0.00452777 20.4383 0.00452777 7.38171C0.00452777 4.74625 0.809338 2.43268 3.29508 1.23566C4.73152 0.561706 6.44301 0.179464 8.02207 0.159345C17.5677 0.0587554 27.1338 -0.152484 36.6693 0.179464C47.7227 0.561706 57.737 4.03206 66.2028 11.355C74.7704 18.7886 80.5671 27.8417 82.3193 39.0676C84.3059 51.8124 82.0443 63.692 74.2101 74.2842C71.0826 78.519 67.5068 82.3314 63.2178 85.3793C57.2378 89.6242 50.6159 92.6519 43.2606 93.4667C38.2279 94.0199 33.1138 93.9294 28.0303 93.9998C26.9912 94.0099 25.8909 93.5773 24.9129 93.1448C23.2116 92.4004 22.9162 90.8011 22.7634 89.1916C21.9993 81.0438 22.9162 73.1173 25.9622 65.4825C27.1338 62.5352 28.8147 59.9199 31.5755 58.1495C34.2548 56.4395 37.0054 56.2283 39.7357 57.9685C43.8311 60.5737 46.2862 64.3157 47.3763 68.973C47.8959 71.186 48.0385 71.2765 50.0556 70.0694C55.3123 66.9109 58.7353 62.4548 59.8356 56.3691C59.9578 55.6851 60.2838 54.9105 60.7626 54.4277C62.2908 52.9088 62.3417 52.3052 60.6098 50.9372C56.1375 47.4166 51.6245 43.9462 47.1522 40.4256C43.5967 37.6292 40.0515 34.8227 36.5674 31.9458C36.0682 31.5334 35.7626 30.7086 35.6505 30.0346C35.3449 28.1636 35.1921 26.2725 34.9272 24.0394H34.9476ZM3.91652 48.3219C4.26289 48.2012 4.5787 48.1609 4.78245 48C7.12557 46.2397 9.56038 44.5799 11.7609 42.6587C18.4235 36.8445 24.6175 30.5778 30.1187 23.6572C31.2597 22.2188 32.4618 20.8205 33.6945 19.4626C34.3975 18.688 35.1513 18.0241 36.4248 18.4064C37.7186 18.7987 38.0853 19.7644 38.2381 20.8407C38.5539 23.0536 38.829 25.2867 39.0124 27.5198C39.1143 28.7672 39.5625 29.6624 40.5812 30.4571C48.2219 36.3215 55.8217 42.2362 63.4318 48.1308C66.5288 50.5349 66.7733 53.3816 64.1754 56.2484C63.8291 56.6306 63.6049 57.1436 63.4216 57.6365C62.6983 59.5377 62.1685 61.5092 61.3026 63.34C58.5112 69.2245 53.9676 73.1576 47.5699 74.9078C45.8278 75.3806 44.8294 74.8575 44.3506 73.1274C44.2386 72.7351 44.1978 72.3126 44.1469 71.9002C43.6069 67.5044 41.6102 63.9435 37.9019 61.4086C36.2618 60.2921 35.1004 60.3424 33.4908 61.469C31.1171 63.1287 29.6297 65.4524 28.9675 68.1783C27.9895 72.1617 27.0319 76.1652 26.5022 80.229C26.1354 83.0858 26.5022 86.0331 26.5429 88.9401C26.5531 89.9058 27.0727 90.2076 27.9997 90.1774C29.5176 90.1372 31.0254 90.1472 32.5433 90.1975C38.6762 90.3786 44.7276 89.8958 50.4937 87.6425C54.5177 86.0733 58.4705 84.3029 61.8731 81.5971C69.7174 75.3705 75.4632 67.8263 77.6942 57.8679C79.0186 51.9431 79.4363 46.0888 78.55 40.0936C77.0524 29.8737 72.0096 21.7057 64.2875 14.926C61.2313 12.2503 57.9815 9.90652 54.263 8.33732C51.0438 6.96929 47.6819 5.71192 44.2589 5.05808C39.155 4.08236 33.9288 3.84094 28.7027 3.94153C21.765 4.0723 14.8171 3.96165 7.87945 3.98177C4.65002 3.98177 3.91652 4.70602 3.91652 7.83437C3.91652 20.559 3.90633 33.2736 3.89614 45.9982C3.89614 46.7326 3.89614 47.4568 3.89614 48.3118L3.91652 48.3219Z" fill="url(#paint0_linear_1782_3545)"/>
<defs>
<linearGradient id="paint0_linear_1782_3545" x1="41.5" y1="0" x2="41.5" y2="94" gradientUnits="userSpaceOnUse">
<stop stop-color="#4DAFB2"/>
<stop offset="1" stop-color="#6306FC"/>
</linearGradient>
</defs>
</svg>
