<svg width="105" height="112" viewBox="0 0 105 112" fill="none" xmlns="http://www.w3.org/2000/svg">
<path d="M57.7001 8.67506H60.1886C59.4205 7.89545 58.5313 6.99471 57.7001 6.15091V8.67506ZM98.967 8.7144C98.082 7.80745 97.1772 6.87979 96.3015 5.98215V8.7144H98.967ZM19.1028 8.69576H21.8915C20.9464 7.78778 20.0096 6.88807 19.1028 6.01632V8.69576ZM52.5087 45.5557C53.5573 45.5505 54.3606 44.7285 54.3389 43.6828C54.3182 42.6961 53.5221 41.8906 52.5408 41.8658C51.5191 41.8399 50.6692 42.6702 50.6578 43.7055C50.6464 44.7512 51.458 45.5619 52.5087 45.5557ZM80.5328 3.33481V31.4617H101.635V12.0389C99.9215 12.0389 98.2859 12.0461 96.6503 12.0368C94.3471 12.0244 92.9713 10.666 92.9558 8.38309C92.9444 6.71724 92.9537 5.05139 92.9537 3.33481H80.5328ZM24.4473 31.4938V12.0389C22.7962 12.0389 21.2331 12.042 19.6711 12.0389C17.1121 12.0326 15.7809 10.6971 15.7726 8.12529C15.7675 6.53606 15.7716 4.94786 15.7716 3.36069H3.35992V31.4938H24.4473ZM63.0922 12.0389C61.437 12.0389 59.9081 12.0399 58.3802 12.0389C55.6504 12.0357 54.3834 10.7726 54.372 8.03418C54.3647 6.47601 54.3699 4.91783 54.3699 3.35966H41.9344V31.4545H63.0922V12.0389ZM50.8545 66.6454C50.8545 65.5552 50.8296 64.6131 50.8638 63.673C50.8855 63.0704 50.6443 62.8551 50.0553 62.7805C48.5574 62.5931 47.3028 61.8808 46.2397 60.8217C45.1041 59.689 43.9333 58.5874 42.8464 57.4092C41.833 56.3107 40.6353 55.8531 39.154 55.8645C34.4885 55.8976 29.8209 55.8707 25.1544 55.878C22.172 55.8831 20.8067 57.2529 20.8067 60.2201C20.8046 73.0169 20.8056 85.8136 20.8056 98.6103V99.6063C21.1493 99.2139 21.2984 98.8122 21.434 98.4063C24.407 89.5014 27.3707 80.5934 30.3519 71.6916C31.471 68.3527 33.7908 66.6796 37.3186 66.6506C39.9076 66.6289 42.4955 66.6454 45.0845 66.6454H50.8545ZM97.5582 69.9264H96.2994C76.7968 69.9264 57.2943 69.9254 37.7917 69.9274C35.121 69.9274 34.1438 70.6346 33.3001 73.1659C29.6315 84.1777 25.9649 95.1906 22.2983 106.203C21.7756 107.775 22.0737 108.304 23.73 108.639C24.1885 108.731 24.673 108.715 25.145 108.715C43.8454 108.718 62.5457 108.718 81.247 108.717C83.867 108.717 84.8887 107.971 85.7283 105.453C88.34 97.6164 90.9538 89.7799 93.5645 81.9425C94.875 78.0113 96.1783 74.0781 97.5582 69.9264ZM95.1545 0C98.261 3.0708 101.383 6.12607 104.452 9.23414C104.789 9.57372 104.97 10.2136 104.972 10.7157C105.005 17.6048 105.008 24.4949 104.984 31.3841C104.977 33.4019 103.542 34.7955 101.511 34.8131C98.6389 34.8379 95.7642 34.8193 92.7281 34.8193C92.7281 36.6363 92.7498 38.3705 92.7239 40.1047C92.6867 42.5656 91.2312 44.5421 88.959 45.1436C88.2675 45.3269 87.5181 45.3445 86.7945 45.3455C77.4262 45.3579 68.0569 45.3621 58.6886 45.3383C57.8553 45.3362 57.3481 45.4905 56.8688 46.296C56.3916 47.0973 55.4951 47.645 54.8057 48.3262C54.5511 48.5778 54.1722 48.8936 54.1712 49.1814C54.1484 54.9027 54.1732 60.625 54.1908 66.3462C54.1908 66.3793 54.2219 66.4114 54.2892 66.545H84.0906C84.0958 64.6855 82.9167 63.2423 81.188 62.9845C80.686 62.9099 80.1704 62.9079 79.6611 62.9079C73.2452 62.9027 66.8292 62.9068 60.4132 62.8996C59.9422 62.8986 59.4526 62.9017 59.0054 62.7785C58.2497 62.5672 57.8874 61.9916 57.9102 61.2099C57.933 60.4282 58.3305 59.8868 59.0986 59.7118C59.5188 59.6165 59.9671 59.6269 60.4029 59.6259C66.7464 59.6217 73.092 59.7356 79.4313 59.5834C83.6341 59.483 87.0264 61.6634 87.5522 66.5906C87.9135 66.6082 88.2965 66.6423 88.6795 66.6433C91.4134 66.6475 94.1483 66.6361 96.8822 66.6485C99.9484 66.662 101.423 68.6799 100.465 71.5653C96.5509 83.3371 92.6328 95.1078 88.7013 106.874C87.5574 110.3 85.1662 111.997 81.5576 111.998C62.674 112 43.7905 112.001 24.907 111.997C20.4371 111.996 17.5293 109.081 17.5272 104.591C17.52 89.7178 17.52 74.8453 17.5272 59.9717C17.5293 55.5787 20.3481 52.6612 24.731 52.6104C29.6522 52.5525 34.5744 52.6001 39.4956 52.5949C41.6912 52.5928 43.5296 53.3766 45.0451 54.9803C46.1703 56.173 47.3183 57.3512 48.5367 58.4466C49.1185 58.9705 49.8866 59.2873 50.7458 59.8029C50.8038 59.1693 50.8524 58.8866 50.8524 58.604C50.8576 55.5787 50.8441 52.5525 50.8659 49.5272C50.871 48.9195 50.6744 48.6016 50.1402 48.2403C49.3493 47.704 48.5792 47.0165 48.0719 46.2204C47.6289 45.5257 47.2024 45.3362 46.4343 45.3372C37.0288 45.3621 27.6232 45.3579 18.2177 45.3455C17.4951 45.3445 16.7457 45.33 16.0521 45.1498C13.8193 44.569 12.3276 42.6081 12.2769 40.231C12.2396 38.4844 12.2696 36.7367 12.2696 34.8214H11.0481C8.5337 34.8203 6.0172 34.8379 3.50278 34.8141C1.42623 34.7944 0.0111547 33.3812 0.00804911 31.2919C-0.00540801 22.0329 0.00183817 12.7739 0.00287327 3.51392C0.00287327 1.69277 1.07531 0.66779 2.62288 0H17.9361C18.1918 0.200854 18.4703 0.378932 18.699 0.606705C21.5385 3.43627 24.3904 6.25238 27.1802 9.1306C27.558 9.52092 27.7868 10.2239 27.7899 10.784C27.8313 17.5976 27.8261 24.4121 27.8116 31.2256C27.8065 33.4692 26.44 34.8048 24.1865 34.8172C21.7807 34.8307 19.376 34.8203 16.9714 34.8214H15.549C15.549 36.6435 15.5314 38.2814 15.5532 39.9193C15.5728 41.3667 16.2509 42.0614 17.7167 42.0635C27.4452 42.077 37.1747 42.0759 46.9043 42.0501C47.219 42.049 47.5834 41.7788 47.837 41.5407C48.6951 40.7352 49.517 39.8914 50.3441 39.0538C50.5305 38.8654 50.8162 38.6459 50.8245 38.4305C50.8721 37.2751 50.8472 36.1155 50.8472 34.8214H49.6692C47.3732 34.8214 45.071 34.7158 42.7833 34.8472C39.86 35.015 38.5111 33.1068 38.536 30.5734C38.6188 21.8652 38.6053 13.156 38.5401 4.44676C38.5246 2.35952 39.1654 0.846902 41.1229 0H56.6545C59.5923 2.92585 62.5177 5.86516 65.4783 8.76927C66.1543 9.43292 66.4503 10.1514 66.441 11.0946C66.41 14.5216 66.4296 17.9485 66.4296 21.3755C66.4286 24.6202 66.4472 27.865 66.4224 31.1097C66.4037 33.4464 65.0508 34.7975 62.7693 34.8182C61.4567 34.8307 60.1441 34.8214 58.8315 34.8214H54.1411C54.1411 35.9685 54.167 36.9821 54.1308 37.9936C54.1101 38.5703 54.3378 38.8498 54.8212 39.1884C55.6069 39.7371 56.3864 40.4028 56.905 41.1938C57.3481 41.8689 57.7508 42.0925 58.5313 42.0904C67.9368 42.0625 77.3434 42.0728 86.75 42.0718C87.0781 42.0708 87.4063 42.0708 87.7334 42.0418C88.6526 41.96 89.3193 41.4133 89.3679 40.5509C89.4725 38.678 89.4 36.7937 89.4 34.8203C86.604 34.8203 83.9126 34.8224 81.2211 34.8203C78.4003 34.8182 77.1809 33.5955 77.1798 30.7587C77.1778 22.0081 77.2295 13.2585 77.1426 4.50991C77.1219 2.41647 77.7233 0.914199 79.6239 0H95.1545Z" fill="url(#paint0_linear_2072_1011)"/>
<path d="M76.0508 92.7641C77.978 92.7641 79.9053 92.7538 81.8336 92.7671C83.0162 92.7754 83.7577 93.4137 83.7567 94.3784C83.7567 95.3379 83.0069 96.0144 81.8356 96.0195C77.9439 96.0349 74.0522 96.0349 70.1605 96.0195C68.9645 96.0144 68.2674 95.3771 68.2663 94.3815C68.2653 93.3705 68.9418 92.7754 70.1585 92.7671C72.1219 92.7538 74.0863 92.7641 76.0508 92.7641ZM72.5123 99.7331C74.4396 99.7331 76.3668 99.7259 78.2951 99.7362C79.4921 99.7434 80.2275 100.348 80.2554 101.312C80.2843 102.307 79.5076 102.988 78.2682 102.992C74.4127 103.003 70.5572 103.003 66.7026 102.991C65.486 102.986 64.7909 102.387 64.7682 101.396C64.7444 100.351 65.4478 99.7424 66.7285 99.7362C68.6567 99.7259 70.584 99.7331 72.5123 99.7331ZM51.5242 19.2715C50.1443 19.2715 48.7635 19.2849 47.3826 19.2684C46.1989 19.254 45.4894 18.6157 45.5059 17.6253C45.5224 16.6904 46.2289 16.0274 47.332 16.0192C50.1299 15.9965 52.9278 15.9934 55.7257 16.0223C56.8154 16.0326 57.5032 16.7347 57.4867 17.6829C57.4692 18.6414 56.7906 19.252 55.6669 19.2674C54.286 19.2859 52.9051 19.2715 51.5242 19.2715ZM51.4963 26.2426C50.1154 26.2426 48.7345 26.256 47.3536 26.2385C46.2196 26.2241 45.54 25.6311 45.5111 24.6798C45.4801 23.6976 46.1969 23.0006 47.3598 22.9903C50.1216 22.9656 52.8834 22.9656 55.6452 22.9903C56.8081 23.0006 57.5187 23.6996 57.4846 24.687C57.4516 25.6424 56.7803 26.2241 55.638 26.2385C54.2581 26.256 52.8772 26.2426 51.4963 26.2426ZM12.9884 19.2715C11.6064 19.2715 10.2245 19.2859 8.84362 19.2664C7.73849 19.252 7.02171 18.6178 7.00105 17.6891C6.98039 16.7584 7.69305 16.0336 8.77132 16.0223C11.6075 15.9934 14.4446 15.9914 17.2798 16.0243C18.3663 16.0367 19.0325 16.7605 18.9932 17.7251C18.956 18.6425 18.2981 19.2479 17.2426 19.2654C15.8245 19.289 14.4064 19.2715 12.9884 19.2715ZM12.9491 26.2426C11.5682 26.2416 10.1863 26.2581 8.8054 26.2365C7.72093 26.22 6.99589 25.5487 7.00002 24.6242C7.00415 23.6945 7.7137 23.0037 8.8116 22.9923C11.6106 22.9645 14.4095 22.9635 17.2095 22.9923C18.326 23.0037 18.9963 23.6708 18.9953 24.6304C18.9942 25.593 18.3208 26.22 17.2033 26.2375C15.7853 26.2591 14.3672 26.2426 12.9491 26.2426ZM89.9712 19.2715C88.5903 19.2715 87.2084 19.2859 85.8265 19.2674C84.6976 19.252 84.0242 18.6476 84.0066 17.686C83.9891 16.7182 84.6542 16.0326 85.7593 16.0212C88.5955 15.9934 91.4316 15.9914 94.2678 16.0243C95.3285 16.0367 96.0453 16.8047 95.9978 17.7282C95.9523 18.6219 95.2614 19.2479 94.2254 19.2654C92.8084 19.288 91.3893 19.2705 89.9712 19.2715ZM89.9981 26.2426C88.6172 26.2426 87.2353 26.256 85.8533 26.2385C84.6997 26.2241 84.0397 25.6506 84.0077 24.687C83.9746 23.6811 84.6604 23.0016 85.8409 22.9913C88.6048 22.9645 91.3676 22.9666 94.1304 22.9903C95.2831 23.0006 96.0288 23.7161 95.9988 24.6757C95.9699 25.6043 95.2562 26.2241 94.1428 26.2385C92.7619 26.256 91.38 26.2426 89.9981 26.2426Z" fill="url(#paint1_linear_2072_1011)"/>
<defs>
<linearGradient id="paint0_linear_2072_1011" x1="52.5" y1="0" x2="52.5" y2="112" gradientUnits="userSpaceOnUse">
<stop stop-color="#4EACB4"/>
<stop offset="1" stop-color="#620FF9"/>
</linearGradient>
<linearGradient id="paint1_linear_2072_1011" x1="51.5" y1="16" x2="51.5" y2="103" gradientUnits="userSpaceOnUse">
<stop stop-color="#4EACB4"/>
<stop offset="1" stop-color="#620FF9"/>
</linearGradient>
</defs>
</svg>
