<svg width="110" height="110" viewBox="0 0 110 110" fill="none" xmlns="http://www.w3.org/2000/svg">
<mask id="mask0_2059_810" style="mask-type:luminance" maskUnits="userSpaceOnUse" x="0" y="0" width="110" height="110">
<path d="M109.24 0.988281H0.59375V109.799H109.24V0.988281Z" fill="white"/>
</mask>
<g mask="url(#mask0_2059_810)">
<path d="M0.59375 100.002V94.8477C1.06175 93.7931 1.64674 92.6195 2.93373 92.3852C3.98672 92.268 4.10372 91.8002 4.10372 90.98C3.98672 79.9655 4.10372 68.9519 4.10372 57.9374C4.10372 54.7737 5.27326 53.6005 8.31524 53.6005H11.1237C11.4342 46.0082 13.6901 38.625 17.6752 32.1588C17.3517 31.6325 17.002 31.1231 16.624 30.6346C15.3535 28.7164 14.6248 26.4893 14.5171 24.1899C14.453 21.711 15.1316 19.2686 16.4663 17.18C17.801 15.0914 19.7311 13.4524 22.0055 12.4724C24.2314 11.5182 26.6915 11.2531 29.0689 11.7126C31.4462 12.1721 33.6323 13.3342 35.3439 15.0493C35.5468 15.2708 35.8136 15.4235 36.1071 15.4865C36.4006 15.5494 36.7043 15.5205 36.98 15.4018C42.6403 12.8359 48.7852 11.5163 54.9983 11.5341C55.288 11.5575 55.5791 11.4931 55.8301 11.3464C56.0812 11.1998 56.2815 10.9788 56.4037 10.7148C58.83 6.88424 62.447 3.96098 66.6983 2.39576C68.4579 1.80406 70.2557 1.33288 72.0798 0.988281H76.2936C76.4106 0.988281 76.6427 1.10729 76.7597 1.10729C80.1489 1.54964 83.3816 2.80572 86.1814 4.76902C88.9811 6.73233 91.266 9.34261 92.8402 12.3809C94.4145 15.4191 95.2325 18.7942 95.2236 22.2172C95.2148 25.6402 94.3799 29.0097 92.79 32.0398C92.6346 32.2695 92.5608 32.5458 92.582 32.8225C92.6033 33.0992 92.7179 33.3608 92.9065 33.564C95.6438 38.3302 97.4318 43.582 98.1715 49.0302C98.5225 51.7253 98.639 54.4203 98.873 57.2325C99.1523 57.2867 99.4277 57.3665 99.6934 57.4683C102.333 58.0779 104.694 59.5477 106.409 61.6472C108.125 63.7467 109.096 66.3574 109.17 69.0691C109.371 71.4314 108.751 73.7899 107.415 75.7472C104.022 80.5514 100.511 85.1208 97.0015 89.925C94.7785 86.8784 92.5564 84.0662 90.3335 81.1368C90.2165 81.3711 89.982 81.4883 89.865 81.7227C87.993 83.8318 86.1206 85.9419 84.1316 87.9339C83.8714 88.1345 83.6837 88.4149 83.5991 88.7326C83.5145 89.0503 83.5373 89.3878 83.6631 89.6915C84.5634 92.7691 84.8817 95.9878 84.6 99.1823C84.6248 99.6606 84.5467 100.14 84.3715 100.585C84.1964 101.031 83.9268 101.433 83.5831 101.766C83.2395 102.099 82.8294 102.354 82.3789 102.514C81.9284 102.675 81.45 102.738 80.9735 102.698C79.7673 102.814 78.5509 102.814 77.3447 102.698C77.0731 102.69 76.8062 102.764 76.5769 102.91C76.3476 103.057 76.1668 103.267 76.0582 103.517C74.9955 105.416 73.444 106.996 71.5656 108.092C69.6872 109.187 67.551 109.758 65.3774 109.746C63.2039 109.734 61.0739 109.139 59.2076 108.023C57.3413 106.907 55.807 105.311 54.7653 103.4C54.6311 103.18 54.4404 102.999 54.2145 102.876C53.9886 102.753 53.736 102.691 53.4787 102.698H35.225C34.9811 102.677 34.738 102.734 34.5281 102.86C34.3182 102.986 34.1521 103.175 34.055 103.4C32.9988 105.318 31.4499 106.917 29.567 108.03C27.6841 109.143 25.538 109.73 23.3515 109.73C21.1649 109.73 19.0165 109.143 17.1336 108.03C15.2507 106.917 13.7018 105.318 12.6456 103.4C12.5012 103.227 12.3213 103.087 12.12 102.986C11.9187 102.885 11.7003 102.826 11.4756 102.814C9.29315 102.698 7.10652 102.698 4.92409 102.814C2.70111 102.814 1.29574 101.994 0.59375 100.002ZM74.1867 56.4132C68.3367 49.0312 62.4858 41.7658 56.8699 34.2666C55.3222 32.1014 54.2158 29.6534 53.6135 27.0598C53.0113 24.4662 52.925 21.7774 53.3599 19.1505C53.4769 17.8616 53.9463 16.4554 54.1803 15.0493C48.6065 15.1385 43.1098 16.3768 38.0335 18.6836C38.1153 18.8259 38.1553 18.9864 38.15 19.1505C39.0154 21.1917 39.2986 23.4344 38.9681 25.6272C38.6376 27.8199 37.7069 29.8785 36.2785 31.5729C33.3535 35.4397 30.4285 39.4237 27.5035 43.2905C27.2696 43.642 27.036 43.875 26.802 44.2265C24.462 41.0628 22.2381 38.1348 20.0151 35.0882C16.7522 40.7326 14.9059 47.0842 14.6336 53.6005H16.039C27.8559 53.6005 39.6715 53.7177 51.4884 53.6005C55.3493 53.4834 56.8708 54.8899 56.6368 58.7567C56.5198 60.5144 56.6368 62.2715 56.6368 64.1463H72.6648C74.0069 64.0171 75.3491 64.4059 76.4147 65.2334C77.4802 66.061 78.1891 67.2659 78.3982 68.5999C79.5682 73.5213 80.8547 78.4422 82.0247 83.3636C82.1417 83.8323 82.2591 84.1847 82.4931 84.8878C84.2481 82.8958 85.6517 81.1368 87.2896 79.3792C87.4565 79.2207 87.5896 79.03 87.6804 78.8185C87.7712 78.6069 87.8175 78.3804 87.8175 78.1502C87.8175 77.9199 87.7712 77.6912 87.6804 77.4796C87.5896 77.2681 87.4565 77.0774 87.2896 76.9189C86.2519 75.6121 85.4969 74.1042 85.0685 72.4905C84.6401 70.8769 84.5484 69.193 84.8011 67.5426C85.0538 65.8922 85.6441 64.31 86.5355 62.8991C87.427 61.4881 88.6005 60.278 89.9815 59.3426C91.5025 58.4052 93.258 57.8198 95.13 56.8824C95.448 49.5715 93.7464 42.3138 90.2146 35.9075C84.8327 42.8209 79.5686 49.4999 74.1867 56.4132ZM53.1268 57.1158H39.0869V70.4743L31.1301 66.4899C30.8914 66.3182 30.6058 66.2267 30.312 66.2267C30.0181 66.2267 29.7326 66.3182 29.4939 66.4899C27.8559 67.3101 26.3331 68.1299 24.6951 68.9501C23.6421 69.4188 22.707 69.8884 21.5371 70.4743V57.1158H7.6137V92.1518H11.2402C11.5502 92.2283 11.8778 92.1866 12.1588 92.035C12.4399 91.8835 12.6553 91.6337 12.7621 91.3324C13.8292 89.4635 15.3701 87.9089 17.2296 86.8285C19.089 85.7482 21.2018 85.1784 23.3515 85.1784C25.5011 85.1784 27.6116 85.7482 29.4711 86.8285C31.3305 87.9089 32.8714 89.4635 33.9385 91.3324C34.2895 91.9183 34.6419 92.2689 35.3439 92.1518H53.1268V57.1158ZM74.0701 50.7879C74.2603 50.6227 74.4194 50.4241 74.5386 50.202C79.1015 44.5776 83.5475 38.8364 87.9935 33.0948C89.5933 31.0514 90.7173 28.676 91.2841 26.1421C91.8508 23.6082 91.8446 20.9796 91.2681 18.4479C89.8641 11.183 84.2495 6.02866 76.8786 4.62255C73.4513 4.12189 69.9507 4.63547 66.8125 6.10327C63.6743 7.57106 61.0356 9.92871 59.219 12.8821C57.4024 15.8354 56.4885 19.2557 56.5911 22.723C56.6937 26.1902 57.8068 29.5518 59.7949 32.3922C64.4748 38.6025 69.2732 44.5776 74.0701 50.7879ZM56.6368 67.6616V88.6365C56.7642 88.6418 56.89 88.6005 56.9887 88.5198C58.3587 87.229 60.0065 86.2723 61.8058 85.7231C63.605 85.1739 65.5072 85.0463 67.3632 85.3524C69.2192 85.6584 70.9786 86.3897 72.5071 87.4876C74.0356 88.5855 75.2902 90.0201 76.1747 91.6826C76.2251 91.8036 76.3056 91.9096 76.4078 91.9915C76.5101 92.0735 76.6307 92.1291 76.7597 92.1518H80.6216C80.5595 91.874 80.4823 91.6011 80.3885 91.3324C79.6865 88.403 78.9836 85.4737 78.2816 82.5443C78.1646 81.8412 77.8136 81.7227 77.1116 81.7227H67.3998C66.9012 81.749 66.4034 81.6707 65.9373 81.4915C65.4712 81.3124 65.0472 81.0372 64.6942 80.6837C64.3411 80.3301 64.0664 79.9055 63.8875 79.4387C63.7087 78.9718 63.6305 78.4733 63.6567 77.974C63.5403 76.8834 63.5403 75.7827 63.6567 74.6921C63.6383 74.2256 63.7154 73.7607 63.8852 73.3259C64.0551 72.891 64.3142 72.4957 64.6439 72.1655C64.9736 71.8354 65.3683 71.5781 65.8025 71.408C66.2367 71.2379 66.7008 71.1584 67.1667 71.1769C67.9066 71.1184 68.6503 71.1184 69.3901 71.1769H75.3566C75.2396 70.4738 75.1217 70.0051 75.0047 69.4192C74.6537 68.0131 74.1857 67.6616 72.6648 67.6616H56.6368ZM26.6855 38.251C26.749 38.259 26.8121 38.253 26.8729 38.2327C26.9336 38.2124 26.9891 38.1789 27.0351 38.1343C29.4921 34.8534 32.0674 31.5725 34.2904 28.1744C35.4162 26.418 35.8477 24.3051 35.5015 22.2469C35.1554 20.1888 34.057 18.3329 32.4189 17.0427C30.8264 15.6986 28.8045 14.9706 26.722 14.9921C24.6395 15.0136 22.6331 15.7827 21.0686 17.1594C19.4897 18.4974 18.452 20.367 18.1505 22.4163C17.8489 24.4656 18.3037 26.5538 19.4302 28.2911C21.6531 31.6892 24.2285 34.9701 26.6855 38.251ZM97.0015 84.0662C99.4585 80.5509 101.915 77.3872 104.255 74.1063C104.929 73.1483 105.384 72.0524 105.587 70.8977C105.789 69.743 105.733 68.559 105.425 67.4282C105.089 65.7039 104.22 64.1305 102.938 62.9311C101.657 61.7317 100.028 60.9664 98.288 60.7478C96.6074 60.4492 94.8756 60.659 93.3133 61.3474C91.751 62.0358 90.4287 63.1729 89.5131 64.6155C88.6025 66.1048 88.1416 67.8244 88.1831 69.5703C88.2246 71.3161 88.7681 73.0145 89.7485 74.4587C90.8014 75.8648 91.854 77.1537 92.79 78.5598C94.194 80.3175 95.4805 82.0742 97.0015 84.0662ZM65.4117 106.213C67.1356 106.201 68.8179 105.678 70.2448 104.709C71.6717 103.74 72.779 102.37 73.428 100.771C74.077 99.171 74.2373 97.413 73.8896 95.7219C73.5419 94.0309 72.7014 92.481 71.4742 91.2684C70.247 90.0557 68.6883 89.2366 66.9953 88.9111C65.3023 88.5856 63.5517 88.7684 61.9634 89.4398C60.3752 90.1112 59.0223 91.2408 58.0741 92.6827C57.126 94.1246 56.6253 95.8149 56.6368 97.5414C56.6648 99.8526 57.6012 102.06 59.2441 103.684C60.887 105.307 63.1038 106.216 65.4117 106.213ZM23.1755 106.213C25.4739 106.253 27.6956 105.383 29.3568 103.791C31.018 102.2 31.9847 100.017 32.0464 97.7153C32.1081 95.4139 31.2594 93.1824 29.6859 91.5041C28.1123 89.8258 25.9412 88.8362 23.6439 88.7532C22.4861 88.7003 21.3295 88.8796 20.2414 89.2796C19.1533 89.6795 18.1537 90.2924 17.305 91.083C16.4562 91.8735 15.7734 92.8263 15.2963 93.8842C14.8192 94.9421 14.5573 96.0835 14.5262 97.2439C14.4951 98.4042 14.6961 99.5604 15.1158 100.642C15.5355 101.724 16.1662 102.712 16.9713 103.547C17.7765 104.382 18.7398 105.048 19.8049 105.506C20.87 105.963 22.0165 106.203 23.1755 106.213ZM25.1636 64.7322C26.6853 64.0292 28.0889 63.3275 29.3751 62.6244C29.6568 62.4515 29.9816 62.359 30.312 62.359C30.6424 62.359 30.9672 62.4515 31.2489 62.6244C32.6529 63.3275 34.056 64.0292 35.5769 64.7322V57.1158H25.1636V64.7322ZM35.5769 95.7837V99.1823H53.1268V95.7837H35.5769ZM76.2936 74.8089H67.2833V78.0907H77.1116C76.8776 76.9189 76.5276 75.8634 76.2936 74.8089ZM4.10372 99.1823H11.1237V95.7837H4.10372V99.1823ZM81.0901 95.7837H77.5801V99.1823H81.0901V95.7837Z" fill="url(#paint0_linear_2059_810)"/>
<path d="M56.6328 46.6875H60.0262V49.9693H56.6328V46.6875Z" fill="url(#paint1_linear_2059_810)"/>
<path d="M53.1272 46.6875V49.9693H49.6172V46.6875H53.1272Z" fill="url(#paint2_linear_2059_810)"/>
<path d="M42.7109 46.6875H46.1044V49.9693H42.7109V46.6875Z" fill="url(#paint3_linear_2059_810)"/>
<path d="M60.141 22.081C60.1269 20.2305 60.4802 18.3969 61.1808 16.6845C61.8813 14.9721 62.9157 13.4159 64.2223 12.1074C65.5289 10.7988 67.0805 9.76286 68.7903 9.06125C70.5001 8.35964 72.3332 8.00575 74.1809 8.01994C76.9412 8.03153 79.6373 8.86159 81.9275 10.4046C84.2178 11.9477 85.9999 14.1352 87.0508 16.6914C88.1018 19.2476 88.3737 22.0593 87.8323 24.7701C87.291 27.4808 85.9611 29.9695 84.0093 31.9242C82.0575 33.8789 79.5703 35.2109 76.8637 35.753C74.157 36.2952 71.3518 36.0229 68.7994 34.9703C66.2471 33.9178 64.0629 32.133 62.5221 29.8393C60.9814 27.5456 60.1526 24.8454 60.141 22.081ZM74.0644 11.5352C71.9934 11.5468 69.9711 12.1743 68.2556 13.3363C66.54 14.4983 65.2075 16.1439 64.4257 18.0645C63.6438 19.9852 63.4481 22.095 63.8635 24.127C64.2789 26.159 65.2862 28.0216 66.7588 29.48C68.2314 30.9384 70.1045 31.9268 72.138 32.3201C74.1715 32.7134 76.2756 32.4929 78.1845 31.6885C80.0934 30.8841 81.7212 29.5312 82.8622 27.8002C84.0032 26.0692 84.6058 24.0384 84.5943 21.9643C84.5879 20.5867 84.3091 19.2247 83.7762 17.9547C83.2433 16.6847 82.4668 15.5316 81.4888 14.563C80.5108 13.5944 79.351 12.8282 78.0771 12.3087C76.8031 11.7893 75.4399 11.5263 74.0644 11.5352Z" fill="url(#paint4_linear_2059_810)"/>
<path d="M26.7963 28.9929C25.4223 28.9855 24.1042 28.4445 23.1218 27.4824C22.1393 26.5204 21.5695 25.2123 21.5313 23.8367C21.5284 23.1434 21.6631 22.457 21.9266 21.8159C22.1902 21.1748 22.5774 20.592 23.0669 20.1018C23.5564 19.6115 24.1384 19.2237 24.7785 18.9597C25.4186 18.6958 26.104 18.5609 26.7963 18.5638C27.4821 18.5482 28.1645 18.671 28.8026 18.9231C29.4408 19.1752 30.0214 19.5528 30.5119 20.0331C31.0024 20.5134 31.393 21.0865 31.659 21.7198C31.925 22.3531 32.0614 23.033 32.0612 23.72C32.0642 24.4133 31.9294 25.0998 31.6659 25.7408C31.4023 26.3819 31.0151 26.9648 30.5256 27.455C30.0361 27.9452 29.4541 28.333 28.814 28.597C28.1739 28.8609 27.4885 28.9958 26.7963 28.9929ZM28.5512 23.72C28.54 23.2574 28.3524 22.8182 28.0257 22.491C27.699 22.1638 27.2582 21.9737 26.7963 21.9624C26.3233 22.0002 25.8822 22.213 25.5577 22.5597C25.2332 22.9064 25.0485 23.3616 25.0413 23.8367C25.0841 24.2983 25.3031 24.7261 25.6514 25.0314C25.9997 25.3366 26.4503 25.4964 26.9128 25.4776C27.3626 25.4617 27.7871 25.2671 28.0942 24.9375C28.4013 24.608 28.5664 24.1705 28.5512 23.72Z" fill="url(#paint5_linear_2059_810)"/>
<path d="M102.155 69.4194C102.158 70.1127 102.023 70.7992 101.76 71.4402C101.496 72.0813 101.109 72.6642 100.619 73.1544C100.13 73.6446 99.5478 74.0325 98.9077 74.2964C98.2676 74.5603 97.5822 74.6953 96.89 74.6923C95.4936 74.6923 94.1548 74.1364 93.1675 73.1475C92.1801 72.1587 91.625 70.8179 91.625 69.4194C91.625 68.021 92.1801 66.6802 93.1675 65.6913C94.1548 64.7025 95.4936 64.1465 96.89 64.1465C97.5822 64.1436 98.2676 64.2785 98.9077 64.5425C99.5478 64.8064 100.13 65.1942 100.619 65.6845C101.109 66.1747 101.496 66.7575 101.76 67.3986C102.023 68.0397 102.158 68.7262 102.155 69.4194ZM97.0065 67.6618C96.526 67.6479 96.0593 67.8246 95.7085 68.1538C95.3578 68.4831 95.1521 68.9383 95.135 69.4194C95.1328 69.6455 95.1762 69.8707 95.2652 70.0785C95.3542 70.2864 95.4864 70.4735 95.6514 70.6278C95.8165 70.7821 96.0118 70.8988 96.225 70.9734C96.4381 71.048 96.6649 71.0781 96.89 71.0603C97.1146 71.0712 97.3389 71.0364 97.5504 70.9596C97.7618 70.8829 97.9562 70.7666 98.1217 70.6141C98.2871 70.4615 98.4208 70.2764 98.5147 70.0717C98.6086 69.867 98.6601 69.6468 98.6678 69.4217C98.6756 69.1966 98.6377 68.971 98.5581 68.7603C98.4785 68.5496 98.3585 68.3564 98.2039 68.1927C98.0493 68.0291 97.8634 67.8995 97.6578 67.8083C97.4521 67.7171 97.2314 67.6665 97.0065 67.6618Z" fill="url(#paint6_linear_2059_810)"/>
<path d="M60.1407 97.4236C60.1523 96.3973 60.4668 95.3975 61.0433 94.5491C61.6198 93.7006 62.4321 93.0415 63.381 92.6541C64.3299 92.2668 65.3723 92.1673 66.3768 92.3704C67.3813 92.5734 68.303 93.0705 69.0276 93.7961C69.7522 94.5218 70.2485 95.4449 70.4512 96.4509C70.654 97.4569 70.5546 98.5009 70.1679 99.4512C69.7811 100.402 69.1229 101.215 68.2758 101.792C67.4286 102.37 66.4303 102.685 65.4056 102.696C64.7134 102.699 64.028 102.564 63.3879 102.301C62.7478 102.037 62.1658 101.649 61.6763 101.159C61.1868 100.668 60.7995 100.085 60.536 99.4444C60.2725 98.8033 60.1377 98.1168 60.1407 97.4236ZM65.4056 95.7826C65.1805 95.7649 64.9538 95.795 64.7407 95.8696C64.5275 95.9442 64.3321 96.0632 64.1671 96.2175C64.002 96.3718 63.8722 96.5566 63.7832 96.7644C63.6942 96.9723 63.6485 97.1974 63.6506 97.4236C63.6462 97.6556 63.6874 97.8857 63.774 98.101C63.8607 98.3162 63.9918 98.5113 64.1557 98.6754C64.3195 98.8395 64.5143 98.9708 64.7292 99.0576C64.9442 99.1444 65.1739 99.1856 65.4056 99.1812C65.8555 99.1964 66.2923 99.031 66.6213 98.7235C66.9504 98.4159 67.1448 97.9908 67.1606 97.5403C67.1493 97.0777 66.9617 96.6385 66.635 96.3113C66.3083 95.9841 65.8675 95.7939 65.4056 95.7826Z" fill="url(#paint7_linear_2059_810)"/>
<path d="M28.5543 97.4241C28.5665 98.806 28.0314 100.137 27.0667 101.125C26.102 102.113 24.7857 102.678 23.4059 102.697C22.7201 102.713 22.0377 102.59 21.3996 102.338C20.7614 102.086 20.1808 101.71 19.6903 101.23C19.1998 100.75 18.8091 100.174 18.5431 99.541C18.2771 98.9077 18.1408 98.2278 18.141 97.5408C18.1333 96.8561 18.2612 96.1762 18.5157 95.5406C18.7703 94.905 19.146 94.3275 19.624 93.8379C20.102 93.3482 20.6726 92.9559 21.3013 92.6867C21.93 92.4176 22.6056 92.2756 23.2894 92.2679C23.9731 92.2602 24.652 92.3883 25.2866 92.6432C25.9212 92.8982 26.5001 93.2744 26.989 93.7532C27.4779 94.232 27.8674 94.8033 28.1362 95.433C28.4049 96.0627 28.5466 96.7393 28.5543 97.4241ZM21.5344 97.4241C21.5192 97.8746 21.6843 98.3121 21.9914 98.6416C22.2985 98.9712 22.723 99.1658 23.1728 99.1817C23.4076 99.2215 23.6475 99.2077 23.8767 99.1428C24.1058 99.0779 24.319 98.9634 24.4982 98.8064C24.6774 98.6494 24.8195 98.4554 24.9141 98.2365C25.0088 98.0177 25.0526 97.7791 25.0444 97.5408C25.0619 97.3154 25.0321 97.0882 24.9575 96.8748C24.883 96.6614 24.7642 96.468 24.6102 96.3027C24.4562 96.1374 24.2715 96.0051 24.064 95.9159C23.8566 95.8267 23.6316 95.7812 23.4059 95.7832C23.1743 95.762 22.9416 95.789 22.7204 95.861C22.4991 95.9329 22.2944 96.0486 22.1194 96.202C21.9443 96.3554 21.8018 96.5435 21.7012 96.7535C21.6006 96.9636 21.5442 97.1913 21.5344 97.4241Z" fill="url(#paint8_linear_2059_810)"/>
</g>
<defs>
<linearGradient id="paint0_linear_2059_810" x1="54.9004" y1="0.988281" x2="54.9004" y2="109.747" gradientUnits="userSpaceOnUse">
<stop stop-color="#6306FC"/>
<stop offset="1" stop-color="#24B0B3"/>
</linearGradient>
<linearGradient id="paint1_linear_2059_810" x1="58.3295" y1="46.6875" x2="58.3295" y2="49.9693" gradientUnits="userSpaceOnUse">
<stop stop-color="#6306FC"/>
<stop offset="1" stop-color="#24B0B3"/>
</linearGradient>
<linearGradient id="paint2_linear_2059_810" x1="51.3722" y1="46.6875" x2="51.3722" y2="49.9693" gradientUnits="userSpaceOnUse">
<stop stop-color="#6306FC"/>
<stop offset="1" stop-color="#24B0B3"/>
</linearGradient>
<linearGradient id="paint3_linear_2059_810" x1="44.4077" y1="46.6875" x2="44.4077" y2="49.9693" gradientUnits="userSpaceOnUse">
<stop stop-color="#6306FC"/>
<stop offset="1" stop-color="#24B0B3"/>
</linearGradient>
<linearGradient id="paint4_linear_2059_810" x1="74.1223" y1="8.01953" x2="74.1223" y2="36.0249" gradientUnits="userSpaceOnUse">
<stop stop-color="#6306FC"/>
<stop offset="1" stop-color="#24B0B3"/>
</linearGradient>
<linearGradient id="paint5_linear_2059_810" x1="26.7963" y1="18.5625" x2="26.7963" y2="28.993" gradientUnits="userSpaceOnUse">
<stop stop-color="#6306FC"/>
<stop offset="1" stop-color="#24B0B3"/>
</linearGradient>
<linearGradient id="paint6_linear_2059_810" x1="96.89" y1="64.1465" x2="96.89" y2="74.6924" gradientUnits="userSpaceOnUse">
<stop stop-color="#6306FC"/>
<stop offset="1" stop-color="#24B0B3"/>
</linearGradient>
<linearGradient id="paint7_linear_2059_810" x1="65.3472" y1="92.2676" x2="65.3472" y2="102.696" gradientUnits="userSpaceOnUse">
<stop stop-color="#6306FC"/>
<stop offset="1" stop-color="#24B0B3"/>
</linearGradient>
<linearGradient id="paint8_linear_2059_810" x1="23.3476" y1="92.2676" x2="23.3476" y2="102.698" gradientUnits="userSpaceOnUse">
<stop stop-color="#6306FC"/>
<stop offset="1" stop-color="#24B0B3"/>
</linearGradient>
</defs>
</svg>
