<?xml version="1.0" encoding="UTF-8"?><svg id="Capa_1" xmlns="http://www.w3.org/2000/svg" viewBox="0 0 65.12 60"><path d="M12.8,44.99v-3.68c0-.48.3-.87.79-.87h.14c.49,0,.79.39.79.87v7.74c0,1.89-.92,3.39-2.52,4.35-.73.44-1.57.67-2.42.67h-.34c-1.86,0-3.34-.93-4.28-2.56-.44-.74-.66-1.59-.66-2.46v-.34c0-1.89.92-3.39,2.52-4.35.73-.44,1.57-.67,2.43-.67h.34c1.26,0,2.33.5,3.23,1.3h0ZM6,48.88c0,1.36.65,2.39,1.83,3.04.48.26.99.41,1.54.41,1.32,0,2.3-.63,2.97-1.77.31-.53.46-1.1.46-1.72,0-1.18-.55-2.1-1.49-2.79-.57-.42-1.21-.62-1.91-.62-1.44,0-2.47.74-3.09,2.05-.21.44-.31.91-.31,1.4h0ZM20.47,43.69h.24c1.99,0,3.5.98,4.46,2.74.38.7.59,1.47.59,2.28v.34c0,1.89-.92,3.39-2.52,4.35-.74.44-1.56.67-2.42.67h-.34c-1.86,0-3.34-.93-4.28-2.56-.44-.74-.66-1.59-.66-2.46v-.34c0-1.89.92-3.38,2.52-4.35.74-.45,1.56-.67,2.43-.67h0ZM17.24,48.88c0,1.32.64,2.3,1.74,2.98.52.32,1.09.47,1.69.47,1.29,0,2.24-.66,2.91-1.77.32-.53.46-1.1.46-1.72,0-1.23-.58-2.17-1.58-2.85-.55-.37-1.16-.56-1.82-.56-1.44,0-2.47.74-3.09,2.05-.21.44-.31.91-.31,1.4h0ZM32.89,45.58c-.26-.12-.74-.16-1.02-.17-1.43-.05-2.47.76-3.08,2.05-.21.44-.31.91-.31,1.4,0,1.49.77,2.54,2.08,3.17.48.23,1.1.28,1.62.28.46,0,1.11-.29,1.52-.48l.07-.03h.35c.39.09.68.34.68.77v.17c0,1.06-1.91,1.3-2.64,1.35-2.57.18-4.5-1.25-5.23-3.74-.13-.43-.18-.86-.18-1.31v-.34c0-1.89.92-3.38,2.52-4.35.74-.45,1.56-.67,2.43-.67h.34c.91,0,1.76.26,2.51.79l.06.04.04.07c.08.14.15.3.15.46v.17c0,.44-.33.68-.72.76h-.03s-.1,0-.1,0c-.26,0-.84-.27-1.07-.38h0ZM38.46,46.75c.67-.68,1.34-1.35,2.01-2.02.19-.19.9-.97,1.18-.97h.34c.39.09.68.34.68.77v.17c0,.29-.34.63-.52.83-.39.42-.81.83-1.21,1.25l-2.07,2.14c.89.91,1.79,1.82,2.67,2.73.25.25.49.51.73.76.09.09.21.2.28.33.08.12.12.25.12.39v.22c-.11.4-.35.72-.79.72h-.14c-.28,0-.6-.33-.8-.51-.4-.38-.79-.79-1.18-1.18l-1.32-1.31v2.1c0,.48-.3.87-.79.87h-.14c-.49,0-.79-.39-.79-.87v-11.82c0-.48.3-.87.79-.87h.14c.49,0,.79.39.79.87v5.4h0ZM59.85,43.76h.17c.51,0,.86.35.86.87,0,.72-.68.91-1.27.91-.77,0-1.51.47-2.04,1-.66.66-.95,1.51-.95,2.44v4.22c0,.48-.3.87-.79.87h-.14c-.49,0-.79-.39-.79-.87v-4.46c0-1.71.82-3.11,2.19-4.09.82-.59,1.75-.89,2.76-.89h0ZM47.65,52.12c.62.22,1.34.19,1.98.08.33-.14,1.17-.51,1.47-.46h.05s.04.03.04.03c.19.09.37.22.46.42.22.46.12.91-.32,1.17l-.15.09c-1.63.95-3.36.82-4.98-.07-.78-.43-1.37-1.06-1.81-1.83l-.1-.18c-1.05-1.84-.9-3.77.27-5.51.41-.6.94-1.07,1.56-1.43l.24-.14c1.53-.9,3.18-.84,4.75-.05.85.42,1.53,1.06,2.01,1.89l.09.15c.34.6-.1,1.13-.56,1.49-.53.42-1.07.92-1.58,1.37-1.14,1-2.28,2-3.41,3h0ZM46.18,51.07c1.27-1.11,2.55-2.22,3.82-3.33.43-.38.91-.77,1.34-1.17-.35-.44-.92-.76-1.41-.95-.99-.38-1.97-.25-2.87.28-1.19.7-1.69,1.8-1.65,3.18.02.54.16,1.07.45,1.53.1.16.21.32.33.46ZM36.91,16.18h5.07v5.25h2.56c1.18,0,2.4-.21,3.52-.6.55-.19,1.17-.45,1.71-.78-.72-.95-1.08-2.14-1.19-3.32-.15-1.6.17-3.69,1.24-4.94l.53-.62.63.52c1.6,1.3,2.94,3.12,3.18,5.19,1.92-.57,4.18-.44,5.88.55l.7.41-.37.72c-1.43,2.84-4.43,3.72-7.36,3.56-4.39,11.08-13.93,16.32-25.51,16.32-5.98,0-11.47-2.27-14.59-7.65l-.05-.09-.46-.94c-1.06-2.37-1.41-4.96-1.17-7.56l.07-.78h4.33v-5.25h5.07v-5.14h10.13v-5.14h6.08v10.28" style="fill:#364548; fill-rule:evenodd; stroke-width:0px;"/><path d="M53.32,18.12c.34-2.68-1.64-4.78-2.86-5.78-1.41,1.66-1.63,5.99.58,7.82-1.24,1.11-3.84,2.12-6.51,2.12H12.08c-.26,2.82.23,5.42,1.35,7.65l.37.69c.23.4.49.79.77,1.16,1.33.09,2.57.12,3.69.09h0c2.21-.05,4.02-.31,5.39-.8.21-.06.42.05.49.26.06.2-.04.41-.23.49-.18.06-.37.12-.57.18h0c-1.08.31-2.23.52-3.72.62.09,0-.09.01-.09.01-.05,0-.11.01-.17.01-.59.03-1.22.04-1.87.04-.71,0-1.41-.01-2.18-.05h-.02c2.7,3.1,6.93,4.95,12.24,4.95,11.22,0,20.74-5.04,24.95-16.37,2.99.31,5.86-.46,7.17-3.05-2.08-1.22-4.76-.83-6.3-.04" style="fill:#22a0c8; fill-rule:evenodd; stroke-width:0px;"/><path d="M53.32,18.12c.34-2.68-1.64-4.78-2.86-5.78-1.41,1.66-1.63,5.99.58,7.82-1.24,1.11-3.84,2.12-6.51,2.12H14c-.13,4.32,1.45,7.61,4.25,9.59h0c2.21-.05,4.02-.31,5.39-.8.21-.06.42.05.49.26.06.2-.04.41-.23.49-.18.06-.37.12-.57.18h0c-1.08.31-2.33.55-3.82.64,0,0-.04-.03-.04-.03,3.82,1.99,9.36,1.98,15.7-.49,7.12-2.77,13.74-8.06,18.36-14.1-.07.03-.14.06-.2.1" style="fill:#37b1d9; fill-rule:evenodd; stroke-width:0px;"/><path d="M12.14,25.72c.2,1.51.64,2.93,1.28,4.22l.37.69c.23.4.49.79.77,1.16,1.33.09,2.57.12,3.69.09,2.21-.05,4.02-.31,5.39-.8.21-.06.42.05.49.26.06.2-.04.41-.23.49-.18.06-.37.12-.57.18h0c-1.08.31-2.33.54-3.82.63-.05,0-.14,0-.19,0-.59.03-1.21.05-1.86.05-.71,0-1.43-.01-2.21-.05,2.7,3.08,6.96,4.94,12.26,4.94,9.61,0,17.96-3.7,22.81-11.87H12.14" style="fill:#1b81a5; fill-rule:evenodd; stroke-width:0px;"/><path d="M14.29,25.72c.57,2.66,1.95,4.74,3.96,6.16,2.21-.05,4.02-.31,5.39-.8.21-.06.42.05.49.26.06.2-.04.41-.23.49-.18.06-.37.12-.57.18h0c-1.08.31-2.35.54-3.84.63,3.82,1.99,9.34,1.96,15.69-.52,3.84-1.5,7.54-3.72,10.85-6.41H14.29" style="fill:#1d91b4; fill-rule:evenodd; stroke-width:0px;"/><path d="M16.48,17.03h4.39v4.45h-4.39v-4.45ZM16.85,17.4h.35v3.71h-.35v-3.71ZM17.5,17.4h.36v3.71h-.36v-3.71h0ZM18.16,17.4h.36v3.71h-.36v-3.71ZM18.83,17.4h.36v3.71h-.36v-3.71ZM19.49,17.4h.36v3.71h-.36v-3.71h0ZM20.16,17.4h.35v3.71h-.35v-3.71ZM21.55,11.89h4.39v4.45h-4.39v-4.45h0ZM21.91,12.27h.35v3.71h-.35v-3.71ZM22.56,12.27h.36v3.71h-.36v-3.71h0ZM23.23,12.27h.36v3.71h-.36v-3.71ZM23.89,12.27h.36v3.71h-.36v-3.71ZM24.56,12.27h.36v3.71h-.36v-3.71ZM25.23,12.27h.35v3.71h-.35v-3.71Z" style="fill:#23a3c2; fill-rule:evenodd; stroke-width:0px;"/><path d="M21.55,17.03h4.39v4.45h-4.39v-4.45h0ZM21.91,17.4h.35v3.71h-.35v-3.71ZM22.56,17.4h.36v3.71h-.36v-3.71h0ZM23.23,17.4h.36v3.71h-.36v-3.71ZM23.89,17.4h.36v3.71h-.36v-3.71ZM24.56,17.4h.36v3.71h-.36v-3.71ZM25.23,17.4h.35v3.71h-.35v-3.71Z" style="fill:#34bbde; fill-rule:evenodd; stroke-width:0px;"/><path d="M26.61,17.03h4.39v4.45h-4.39v-4.45ZM26.98,17.4h.35v3.71h-.35v-3.71ZM27.63,17.4h.36v3.71h-.36v-3.71ZM28.3,17.4h.36v3.71h-.36v-3.71ZM28.96,17.4h.36v3.71h-.36v-3.71ZM29.63,17.4h.36v3.71h-.36v-3.71ZM30.29,17.4h.35v3.71h-.35v-3.71Z" style="fill:#23a3c2; fill-rule:evenodd; stroke-width:0px;"/><path d="M26.61,11.89h4.39v4.45h-4.39v-4.45ZM26.98,12.27h.35v3.71h-.35v-3.71ZM27.63,12.27h.36v3.71h-.36v-3.71ZM28.3,12.27h.36v3.71h-.36v-3.71ZM28.96,12.27h.36v3.71h-.36v-3.71ZM29.63,12.27h.36v3.71h-.36v-3.71ZM30.29,12.27h.35v3.71h-.35v-3.71ZM31.68,17.03h4.39v4.45h-4.39v-4.45ZM32.04,17.4h.35v3.71h-.35v-3.71ZM32.7,17.4h.36v3.71h-.36v-3.71ZM33.36,17.4h.36v3.71h-.36v-3.71ZM34.03,17.4h.36v3.71h-.36v-3.71ZM34.69,17.4h.36v3.71h-.36v-3.71ZM35.36,17.4h.35v3.71h-.35v-3.71Z" style="fill:#34bbde; fill-rule:evenodd; stroke-width:0px;"/><path d="M31.68,11.89h4.39v4.45h-4.39v-4.45ZM32.04,12.27h.35v3.71h-.35v-3.71ZM32.7,12.27h.36v3.71h-.36v-3.71ZM33.36,12.27h.36v3.71h-.36v-3.71ZM34.03,12.27h.36v3.71h-.36v-3.71ZM34.69,12.27h.36v3.71h-.36v-3.71ZM35.36,12.27h.35v3.71h-.35v-3.71Z" style="fill:#23a3c2; fill-rule:evenodd; stroke-width:0px;"/><path d="M31.68,6.76h4.39v4.45h-4.39v-4.45ZM32.04,7.13h.35v3.71h-.35v-3.71h0ZM32.7,7.13h.36v3.71h-.36v-3.71h0ZM33.36,7.13h.36v3.71h-.36v-3.71h0ZM34.03,7.13h.36v3.71h-.36v-3.71h0ZM34.69,7.13h.36v3.71h-.36v-3.71h0ZM35.36,7.13h.35v3.71h-.35v-3.71h0Z" style="fill:#34bbde; fill-rule:evenodd; stroke-width:0px;"/><path d="M36.74,17.03h4.39v4.45h-4.39v-4.45ZM37.11,17.4h.35v3.71h-.35v-3.71h0ZM37.76,17.4h.36v3.71h-.36v-3.71h0ZM38.43,17.4h.36v3.71h-.36v-3.71ZM39.09,17.4h.36v3.71h-.36v-3.71ZM39.76,17.4h.36v3.71h-.36v-3.71ZM40.42,17.4h.35v3.71h-.35v-3.71Z" style="fill:#23a3c2; fill-rule:evenodd; stroke-width:0px;"/><path d="M25.66,28.71c.67,0,1.22.53,1.23,1.21,0,.68-.53,1.24-1.2,1.24-.01,0-.02,0-.03,0-.67,0-1.2-.57-1.19-1.25,0-.67.54-1.2,1.2-1.21" style="fill:#d3ecec; fill-rule:evenodd; stroke-width:0px;"/><path d="M25.66,29.05c.11,0,.22.02.31.06-.17.1-.23.32-.13.49.06.11.18.18.31.18.13,0,.25-.08.31-.19.18.45-.03.96-.47,1.15-.44.19-.95-.03-1.13-.48-.18-.45.03-.96.47-1.15.11-.04.22-.07.33-.07M4.24,26.16h56.34c-1.23-.32-3.88-.74-3.44-2.37-2.23,2.62-7.61,1.84-8.97.55-1.51,2.22-10.31,1.38-10.93-.35-1.9,2.26-7.77,2.26-9.66,0-.61,1.73-9.42,2.58-10.93.35-1.36,1.29-6.74,2.07-8.97-.55.44,1.63-2.22,2.06-3.44,2.37" style="fill:#364548; fill-rule:evenodd; stroke-width:0px;"/><path d="M28.88,37.56c-3-1.44-4.65-3.41-5.56-5.55-1.11.32-2.45.53-4.01.62-.59.03-1.2.05-1.85.05-.75,0-1.53-.02-2.36-.07,2.75,2.79,6.13,4.94,12.4,4.97.46,0,.92,0,1.38-.03" style="fill:#bdd9d7; fill-rule:evenodd; stroke-width:0px;"/><path d="M24.43,33.99c-.41-.57-.82-1.29-1.11-1.98-1.11.32-2.45.53-4.01.62,1.07.59,2.6,1.13,5.12,1.36" style="fill:#d3ecec; fill-rule:evenodd; stroke-width:0px;"/></svg>