<svg width="76" height="76" viewBox="0 0 76 76" fill="none" xmlns="http://www.w3.org/2000/svg">
<g clip-path="url(#clip0_1845_5013)">
<path d="M33.8455 76C33.034 75.6557 32.1533 75.4182 31.4289 74.9412C29.7288 73.8249 28.9688 72.1486 29.0064 70.1338C29.0322 69.8717 28.9864 69.6075 28.8738 69.3695C28.7612 69.1314 28.5861 68.9284 28.3672 68.782C27.6544 68.2591 27.0775 67.5727 26.6849 66.7807C26.2923 65.9886 26.0954 65.1139 26.1109 64.2299C26.1109 62.1518 26.0694 60.0737 26.1109 57.9975C26.1584 56.0006 25.4301 54.3242 24.1496 52.8636C22.78 51.304 21.3609 49.786 19.9834 48.2343C19.6494 47.8365 19.3445 47.4152 19.071 46.9736C18.6752 46.3501 18.7702 45.701 19.3046 45.3388C19.8389 44.9766 20.403 45.1231 20.8681 45.6673C22.2337 47.2507 23.5974 48.8578 24.9907 50.4173C26.3306 51.9255 27.5636 53.489 28.0782 55.4959C28.1198 55.6601 28.3434 55.8917 28.474 55.8917C30.2969 55.9194 32.1216 55.9095 33.986 55.9095V42.1979C33.0558 42.1979 32.1692 42.2434 31.2864 42.188C30.2648 42.1275 29.2962 41.7129 28.5474 41.0153C27.7985 40.3178 27.3163 39.381 27.1836 38.3662C27.0522 37.3646 27.2622 36.3479 27.7796 35.4803C28.2971 34.6127 29.0919 33.9449 30.0356 33.5845C33.0538 32.4524 36.1295 34.489 36.2462 37.7051C36.2739 38.4394 36.2462 39.1776 36.2462 39.9416H40.1848C40.1848 39.0807 40.1551 38.2692 40.1848 37.4597C40.2837 35.2549 41.9779 33.5588 44.2856 33.3173C45.3405 33.2015 46.4024 33.4624 47.2836 34.0538C48.1647 34.6453 48.8084 35.5292 49.1009 36.5493C49.6828 38.6769 48.6754 40.949 46.6725 41.7941C46.0114 42.0732 45.2415 42.1345 44.5132 42.2058C43.8344 42.2731 43.1436 42.2196 42.4252 42.2196V55.8759H48.2143C48.2875 55.5968 48.3667 55.2703 48.4557 54.9457C48.9703 53.0575 50.0549 51.4999 51.373 50.1046C53.2136 48.1631 55.076 46.2354 56.2299 43.7713C59.7924 36.2148 59.0601 29.0661 54.1122 22.3409C53.9373 22.1332 53.7735 21.9165 53.6213 21.6917C53.4695 21.4746 53.4089 21.2066 53.4526 20.9453C53.4963 20.6841 53.6407 20.4503 53.8549 20.2944C54.3378 19.8986 54.89 19.8986 55.3195 20.3479C55.8048 20.8758 56.2507 21.4387 56.6534 22.0321C59.5493 26.1726 60.9407 31.1796 60.5961 36.2205C60.2515 41.2615 58.1918 46.0326 54.7594 49.7405C53.9063 50.6687 53.0355 51.5811 52.2161 52.539C50.9532 53.9917 50.2852 55.8677 50.3458 57.7917C50.3814 59.8698 50.3458 61.948 50.3557 64.0241C50.3656 66.1003 49.5165 67.741 47.8679 68.9938C47.6656 69.1486 47.5292 69.3741 47.4859 69.6252C47.2029 73.536 46.3162 74.7057 42.6033 75.9981L33.8455 76ZM28.3988 58.1875V61.8846H29.2697C32.6567 61.8846 36.0437 61.8846 39.4307 61.8846C39.6777 61.8717 39.9253 61.8796 40.1709 61.9084C40.729 62.0014 41.1308 62.3873 41.0635 62.9118C41.014 63.3076 40.6677 63.7035 40.357 63.9905C40.1808 64.1508 39.7949 64.1053 39.502 64.1053C36.0714 64.1132 32.6349 64.1132 29.1925 64.1053H28.4008C28.2445 66.0844 29.8634 67.7766 31.9455 67.8182C33.6753 67.8538 35.4051 67.8281 37.1369 67.8281C39.5851 67.8281 42.0313 67.8518 44.4796 67.8182C46.6052 67.7924 48.3112 66.0033 48.0203 64.1053C47.2445 64.1053 46.4568 64.1053 45.669 64.1053C44.7527 64.1053 44.2302 63.6738 44.2421 62.9633C44.2539 62.2864 44.7586 61.8886 45.6275 61.8807C46.437 61.8807 47.2445 61.8807 48.0599 61.8807V58.1875H28.3988ZM40.1551 55.8878V42.2889H36.3412V55.9333H39.7395C39.8788 55.9243 40.0175 55.9078 40.1551 55.8838V55.8878ZM31.2904 70.0625C31.2361 70.5161 31.2767 70.9761 31.4098 71.4131C31.5428 71.8501 31.7653 72.2547 32.0631 72.6011C32.3609 72.9475 32.7276 73.2281 33.1397 73.4252C33.5518 73.6223 34.0005 73.7314 34.4571 73.7458C36.9785 73.8157 39.5006 73.8157 42.0234 73.7458C42.4787 73.7299 42.9258 73.6196 43.3361 73.4217C43.7465 73.2239 44.1112 72.9429 44.4072 72.5965C44.7031 72.2501 44.9238 71.846 45.0551 71.4097C45.1865 70.9735 45.2257 70.5147 45.1703 70.0625H31.2904ZM33.992 39.9792C33.992 39.0213 34.081 38.1307 33.9702 37.2658C33.8277 36.1535 32.6778 35.4113 31.4962 35.5281C30.2672 35.6528 29.3825 36.6028 29.3944 37.7883C29.3902 38.351 29.604 38.8935 29.9911 39.3019C30.3782 39.7104 30.9084 39.9531 31.4705 39.9792C32.2839 40.0188 33.0974 39.9792 33.992 39.9792ZM42.441 39.995H43.1872C43.8027 39.995 44.4222 40.0208 45.0337 39.9693C45.6062 39.9301 46.14 39.6666 46.5192 39.2359C46.8983 38.8052 47.0921 38.2423 47.0584 37.6695C47.0149 36.4919 46.0688 35.5815 44.8437 35.5221C43.6186 35.4628 42.5439 36.298 42.4529 37.4597C42.3896 38.2613 42.441 39.0728 42.441 39.995Z" fill="white"/>
<path d="M38.445 0C38.9814 0.407708 39.1298 0.953958 39.1239 1.61302C39.0982 3.7901 39.114 5.96719 39.112 8.14427C39.118 8.36654 39.1061 8.58892 39.0764 8.80927C39.0522 9.07303 38.9263 9.317 38.7253 9.48952C38.5243 9.66205 38.2641 9.74956 37.9997 9.73354C37.8683 9.7446 37.736 9.72927 37.6105 9.68845C37.4851 9.64763 37.3691 9.58215 37.2693 9.49585C37.1696 9.40956 37.0881 9.30419 37.0296 9.18594C36.9712 9.06769 36.937 8.93895 36.929 8.80729C36.8854 8.3151 36.8715 7.82073 36.8874 7.32688C36.8874 5.44667 36.9033 3.56646 36.8756 1.68625C36.8657 1.0074 36.9844 0.425521 37.5544 0H38.445Z" fill="white"/>
<path d="M0 36.5157C0.411667 35.9833 0.955938 35.8388 1.615 35.8468C3.86531 35.8745 6.11364 35.8468 8.36396 35.8586C8.60937 35.8586 8.93 35.7933 9.08636 35.92C9.42083 36.1872 9.80875 36.5137 9.91563 36.9096C10.0621 37.434 9.71771 37.8596 9.16552 38.01C8.87582 38.0735 8.57914 38.0995 8.28281 38.0872C6.08396 38.0872 3.88313 38.0733 1.68229 38.099C1.00146 38.099 0.423542 37.9783 0 37.4123V36.5157Z" fill="white"/>
<path d="M75.9991 37.406C75.5736 37.972 74.9957 38.1007 74.3149 38.0928C72.114 38.067 69.9152 38.0928 67.7144 38.0809C67.4432 38.0917 67.1717 38.0725 66.9049 38.0235C66.6433 37.9843 66.4077 37.8438 66.2489 37.6323C66.09 37.4209 66.0207 37.1555 66.0558 36.8934C66.0875 36.3313 66.4081 35.9553 66.9702 35.9038C67.5323 35.8523 68.1042 35.8662 68.6742 35.8642C70.5525 35.8642 72.4347 35.882 74.3089 35.8523C74.9898 35.8405 75.5697 35.9612 75.9991 36.5213V37.406Z" fill="white"/>
<path d="M15.3594 33.9703C15.4583 23.4808 23.7174 14.1015 34.8027 12.5953C40.661 11.7958 46.0411 13.0538 50.9428 16.3696C51.1329 16.4854 51.3089 16.6229 51.4673 16.7793C51.873 17.2167 51.9205 17.7115 51.5643 18.1924C51.4282 18.4051 51.2173 18.559 50.9733 18.6239C50.7293 18.6887 50.4699 18.6598 50.2461 18.5427C49.9013 18.3553 49.5705 18.143 49.2566 17.9074C37.2826 10.0996 21.2118 16.5794 18.0491 30.5127C17.2953 33.8596 17.4456 37.3468 18.4845 40.6164C18.528 40.7589 18.5755 40.8994 18.6171 41.0419C18.8684 41.885 18.6349 42.4471 17.9442 42.6648C17.3108 42.8627 16.7685 42.5283 16.5053 41.7425C15.7315 39.4427 15.3614 37.0836 15.3594 33.9703Z" fill="white"/>
<path d="M58.5086 55.7471C58.9163 55.9767 59.2547 56.0895 59.4883 56.3131C61.2603 57.9994 63.0125 59.6995 64.7449 61.4134C65.307 61.9656 65.3268 62.6425 64.8439 63.1056C64.361 63.5687 63.7494 63.5252 63.2012 62.9968C61.4417 61.3026 59.6961 59.5965 57.9445 57.8964C57.5487 57.5204 57.327 57.0612 57.616 56.5744C57.806 56.2518 58.1879 56.04 58.5086 55.7471Z" fill="white"/>
<path d="M65.3376 11.501C65.1001 11.9167 64.9912 12.2591 64.7636 12.4906C63.0114 14.2244 61.2446 15.9449 59.4634 17.6523C58.927 18.1689 58.264 18.1649 57.8187 17.7037C57.3734 17.2426 57.3813 16.6033 57.9276 16.065C59.6851 14.3372 61.4386 12.6015 63.2476 10.9192C63.4257 10.7869 63.6296 10.6935 63.8461 10.6451C64.0626 10.5967 64.2868 10.5943 64.5043 10.6381C64.817 10.7074 65.0407 11.1745 65.3376 11.501Z" fill="white"/>
<path d="M11.8599 63.5626C11.5214 63.2835 11.1335 63.0876 10.9395 62.7709C10.6526 62.3018 10.8247 61.8229 11.2226 61.4389C12.2676 60.4269 13.3112 59.4136 14.3536 58.3989C15.0602 57.7102 15.7608 57.0135 16.4753 56.3347C17.0552 55.7825 17.7122 55.7409 18.1754 56.2218C18.6385 56.7028 18.6167 57.3421 18.0309 57.916C16.3024 59.6089 14.568 61.2918 12.8277 62.9649C12.5941 63.1885 12.2715 63.3172 11.8599 63.5626Z" fill="white"/>
<path d="M18.6248 16.9911C18.3636 17.3137 18.1597 17.8144 17.8569 17.8837C17.4492 17.9747 16.8337 17.8837 16.5388 17.6106C15.0386 16.2548 13.6136 14.816 12.1648 13.4068C11.8283 13.0803 11.48 12.7656 11.1633 12.4172C10.6982 11.9125 10.7002 11.2654 11.1416 10.8339C11.2398 10.7302 11.3579 10.6474 11.4888 10.5904C11.6197 10.5333 11.7608 10.5033 11.9036 10.502C12.0464 10.5007 12.188 10.5282 12.3199 10.5828C12.4518 10.6375 12.5714 10.7182 12.6715 10.82C14.5147 12.5789 16.3362 14.3496 18.136 16.1321C18.3319 16.3261 18.4229 16.6249 18.6248 16.9911Z" fill="white"/>
</g>
<defs>
<clipPath id="clip0_1845_5013">
<rect width="76" height="76" fill="white"/>
</clipPath>
</defs>
</svg>
