<svg width="76" height="76" viewBox="0 0 76 76" fill="none" xmlns="http://www.w3.org/2000/svg">
<g clip-path="url(#clip0_1845_4840)">
<path d="M33.8436 76C33.0321 75.6557 32.1514 75.4182 31.427 74.9412C29.7269 73.8249 28.9669 72.1486 29.0045 70.1338C29.0303 69.8717 28.9844 69.6075 28.8718 69.3695C28.7593 69.1314 28.5842 68.9284 28.3652 68.782C27.6524 68.2591 27.0755 67.5727 26.6829 66.7807C26.2903 65.9886 26.0935 65.1139 26.109 64.2299C26.109 62.1518 26.0674 60.0737 26.109 57.9975C26.1565 56.0006 25.4281 54.3242 24.1476 52.8636C22.778 51.304 21.359 49.786 19.9815 48.2343C19.6474 47.8365 19.3425 47.4152 19.0691 46.9736C18.6732 46.3501 18.7682 45.701 19.3026 45.3388C19.837 44.9766 20.401 45.1231 20.8662 45.6673C22.2318 47.2507 23.5954 48.8578 24.9888 50.4173C26.3287 51.9255 27.5617 53.489 28.0763 55.4959C28.1178 55.6601 28.3415 55.8917 28.4721 55.8917C30.2949 55.9194 32.1197 55.9095 33.9841 55.9095V42.1979C33.0539 42.1979 32.1672 42.2434 31.2845 42.188C30.2629 42.1275 29.2943 41.7129 28.5454 41.0153C27.7966 40.3178 27.3143 39.381 27.1817 38.3662C27.0503 37.3646 27.2602 36.3479 27.7777 35.4803C28.2952 34.6127 29.0899 33.9449 30.0337 33.5845C33.0519 32.4524 36.1275 34.489 36.2443 37.7051C36.272 38.4394 36.2443 39.1776 36.2443 39.9416H40.1828C40.1828 39.0807 40.1531 38.2692 40.1828 37.4597C40.2818 35.2549 41.9759 33.5588 44.2837 33.3173C45.3386 33.2015 46.4004 33.4624 47.2816 34.0538C48.1628 34.6453 48.8065 35.5292 49.099 36.5493C49.6808 38.6769 48.6734 40.949 46.6705 41.7941C46.0095 42.0732 45.2396 42.1345 44.5113 42.2058C43.8324 42.2731 43.1417 42.2196 42.4232 42.2196V55.8759H48.2123C48.2855 55.5968 48.3647 55.2703 48.4538 54.9457C48.9683 53.0575 50.0529 51.4999 51.3711 50.1046C53.2117 48.1631 55.0741 46.2354 56.2279 43.7713C59.7904 36.2148 59.0581 29.0661 54.1102 22.3409C53.9354 22.1332 53.7715 21.9165 53.6194 21.6917C53.4676 21.4746 53.407 21.2066 53.4506 20.9453C53.4943 20.6841 53.6388 20.4503 53.8529 20.2944C54.3358 19.8986 54.888 19.8986 55.3175 20.3479C55.8029 20.8758 56.2487 21.4387 56.6515 22.0321C59.5474 26.1726 60.9387 31.1796 60.5941 36.2205C60.2495 41.2615 58.1898 46.0326 54.7574 49.7405C53.9044 50.6687 53.0336 51.5811 52.2142 52.539C50.9512 53.9917 50.2833 55.8677 50.3439 57.7917C50.3795 59.8698 50.3439 61.948 50.3538 64.0241C50.3637 66.1003 49.5146 67.741 47.8659 68.9938C47.6637 69.1486 47.5272 69.3741 47.484 69.6252C47.201 73.536 46.3143 74.7057 42.6014 75.9981L33.8436 76ZM28.3969 58.1875V61.8846H29.2677C32.6547 61.8846 36.0417 61.8846 39.4288 61.8846C39.6757 61.8717 39.9233 61.8796 40.169 61.9084C40.7271 62.0014 41.1289 62.3873 41.0616 62.9118C41.0121 63.3076 40.6657 63.7035 40.355 63.9905C40.1789 64.1508 39.7929 64.1053 39.5 64.1053C36.0695 64.1132 32.633 64.1132 29.1905 64.1053H28.3989C28.2425 66.0844 29.8615 67.7766 31.9435 67.8182C33.6733 67.8538 35.4031 67.8281 37.1349 67.8281C39.5831 67.8281 42.0294 67.8518 44.4776 67.8182C46.6032 67.7924 48.3093 66.0033 48.0183 64.1053C47.2425 64.1053 46.4548 64.1053 45.6671 64.1053C44.7507 64.1053 44.2282 63.6738 44.2401 62.9633C44.252 62.2864 44.7567 61.8886 45.6255 61.8807C46.435 61.8807 47.2425 61.8807 48.0579 61.8807V58.1875H28.3969ZM40.1531 55.8878V42.2889H36.3393V55.9333H39.7375C39.8768 55.9243 40.0156 55.9078 40.1531 55.8838V55.8878ZM31.2884 70.0625C31.2341 70.5161 31.2748 70.9761 31.4078 71.4131C31.5408 71.8501 31.7633 72.2547 32.0612 72.6011C32.359 72.9475 32.7256 73.2281 33.1377 73.4252C33.5499 73.6223 33.9985 73.7314 34.4551 73.7458C36.9766 73.8157 39.4987 73.8157 42.0215 73.7458C42.4768 73.7299 42.9238 73.6196 43.3342 73.4217C43.7445 73.2239 44.1093 72.9429 44.4052 72.5965C44.7012 72.2501 44.9218 71.846 45.0532 71.4097C45.1846 70.9735 45.2238 70.5147 45.1683 70.0625H31.2884ZM33.99 39.9792C33.99 39.0213 34.0791 38.1307 33.9682 37.2658C33.8257 36.1535 32.6758 35.4113 31.4943 35.5281C30.2652 35.6528 29.3805 36.6028 29.3924 37.7883C29.3882 38.351 29.6021 38.8935 29.9892 39.3019C30.3762 39.7104 30.9064 39.9531 31.4686 39.9792C32.282 40.0188 33.0954 39.9792 33.99 39.9792ZM42.4391 39.995H43.1852C43.8007 39.995 44.4202 40.0208 45.0318 39.9693C45.6042 39.9301 46.1381 39.6666 46.5172 39.2359C46.8963 38.8052 47.0902 38.2423 47.0565 37.6695C47.0129 36.4919 46.0669 35.5815 44.8418 35.5221C43.6167 35.4628 42.542 36.298 42.4509 37.4597C42.3876 38.2613 42.4391 39.0728 42.4391 39.995Z" fill="url(#paint0_linear_1845_4840)"/>
<path d="M38.445 0C38.9814 0.407708 39.1298 0.953958 39.1239 1.61302C39.0982 3.7901 39.114 5.96719 39.112 8.14427C39.118 8.36654 39.1061 8.58892 39.0764 8.80927C39.0522 9.07303 38.9263 9.317 38.7253 9.48952C38.5243 9.66205 38.2641 9.74956 37.9997 9.73354C37.8683 9.7446 37.736 9.72927 37.6105 9.68845C37.4851 9.64763 37.3691 9.58215 37.2693 9.49585C37.1696 9.40956 37.0881 9.30419 37.0296 9.18594C36.9712 9.06769 36.937 8.93895 36.929 8.80729C36.8854 8.3151 36.8715 7.82073 36.8874 7.32688C36.8874 5.44667 36.9033 3.56646 36.8756 1.68625C36.8657 1.0074 36.9844 0.425521 37.5544 0H38.445Z" fill="url(#paint1_linear_1845_4840)"/>
<path d="M0 36.5156C0.411667 35.9832 0.955938 35.8387 1.615 35.8466C3.86531 35.8743 6.11364 35.8466 8.36396 35.8585C8.60937 35.8585 8.93 35.7932 9.08636 35.9199C9.42083 36.1871 9.80875 36.5136 9.91563 36.9094C10.0621 37.4339 9.71771 37.8594 9.16552 38.0099C8.87582 38.0734 8.57914 38.0994 8.28281 38.0871C6.08396 38.0871 3.88313 38.0732 1.68229 38.0989C1.00146 38.0989 0.423542 37.9782 0 37.4122V36.5156Z" fill="url(#paint2_linear_1845_4840)"/>
<path d="M76.0001 37.4062C75.5746 37.9723 74.9967 38.1009 74.3158 38.093C72.115 38.0673 69.9162 38.093 67.7153 38.0811C67.4442 38.0919 67.1727 38.0727 66.9058 38.0237C66.6443 37.9845 66.4087 37.844 66.2498 37.6326C66.091 37.4212 66.0216 37.1557 66.0568 36.8936C66.0885 36.3315 66.4091 35.9555 66.9712 35.904C67.5332 35.8526 68.1052 35.8664 68.6752 35.8645C70.5534 35.8645 72.4356 35.8823 74.3099 35.8526C74.9907 35.8407 75.5706 35.9614 76.0001 36.5215V37.4062Z" fill="url(#paint3_linear_1845_4840)"/>
<path d="M15.3564 33.9705C15.4554 23.4809 23.7145 14.1016 34.7998 12.5955C40.6581 11.7959 46.0381 13.054 50.9399 16.3697C51.13 16.4855 51.306 16.623 51.4644 16.7794C51.8701 17.2168 51.9176 17.7116 51.5613 18.1925C51.4253 18.4052 51.2144 18.5592 50.9704 18.624C50.7264 18.6888 50.4669 18.6599 50.2432 18.5429C49.8983 18.3554 49.5676 18.1431 49.2536 17.9075C37.2797 10.0997 21.2088 16.5795 18.0461 30.5129C17.2924 33.8597 17.4427 37.3469 18.4816 40.6165C18.5251 40.759 18.5726 40.8995 18.6142 41.042C18.8655 41.8851 18.632 42.4472 17.9412 42.6649C17.3079 42.8629 16.7656 42.5284 16.5024 41.7426C15.7285 39.4429 15.3584 37.0837 15.3564 33.9705Z" fill="url(#paint4_linear_1845_4840)"/>
<path d="M58.5086 55.7472C58.9163 55.9768 59.2547 56.0896 59.4883 56.3132C61.2603 57.9995 63.0125 59.6996 64.7449 61.4135C65.307 61.9657 65.3268 62.6426 64.8439 63.1057C64.361 63.5689 63.7494 63.5253 63.2012 62.9969C61.4417 61.3027 59.6961 59.5967 57.9445 57.8966C57.5487 57.5205 57.327 57.0614 57.616 56.5745C57.806 56.2519 58.1879 56.0401 58.5086 55.7472Z" fill="url(#paint5_linear_1845_4840)"/>
<path d="M65.3366 11.5009C65.0991 11.9165 64.9902 12.2589 64.7626 12.4905C63.0104 14.2243 61.2437 15.9448 59.4624 17.6522C58.9261 18.1687 58.263 18.1648 57.8177 17.7036C57.3724 17.2425 57.3803 16.6032 57.9266 16.0649C59.6841 14.3371 61.4376 12.6013 63.2466 10.919C63.4247 10.7868 63.6286 10.6934 63.8451 10.645C64.0616 10.5966 64.2859 10.5942 64.5033 10.638C64.8161 10.7073 65.0397 11.1744 65.3366 11.5009Z" fill="url(#paint6_linear_1845_4840)"/>
<path d="M11.8589 63.5629C11.5204 63.2839 11.1325 63.0879 10.9386 62.7713C10.6516 62.3022 10.8238 61.8233 11.2216 61.4393C12.2666 60.4273 13.3103 59.414 14.3526 58.3993C15.0592 57.7105 15.7598 57.0139 16.4743 56.335C17.0542 55.7828 17.7113 55.7413 18.1744 56.2222C18.6375 56.7032 18.6158 57.3424 18.0299 57.9164C16.3014 59.6092 14.567 61.2922 12.8267 62.9652C12.5931 63.1889 12.2705 63.3175 11.8589 63.5629Z" fill="url(#paint7_linear_1845_4840)"/>
<path d="M18.6258 16.9911C18.3645 17.3137 18.1607 17.8144 17.8579 17.8837C17.4502 17.9747 16.8346 17.8837 16.5397 17.6106C15.0395 16.2548 13.6145 14.816 12.1658 13.4068C11.8293 13.0803 11.481 12.7656 11.1643 12.4172C10.6992 11.9125 10.7012 11.2654 11.1426 10.8339C11.2408 10.7302 11.3588 10.6474 11.4898 10.5904C11.6207 10.5333 11.7618 10.5033 11.9046 10.502C12.0474 10.5007 12.1889 10.5282 12.3209 10.5828C12.4528 10.6375 12.5724 10.7182 12.6724 10.82C14.5157 12.5789 16.3372 14.3496 18.1369 16.1321C18.3329 16.3261 18.4239 16.6249 18.6258 16.9911Z" fill="url(#paint8_linear_1845_4840)"/>
</g>
<defs>
<linearGradient id="paint0_linear_1845_4840" x1="39.7359" y1="20.0039" x2="39.7359" y2="76" gradientUnits="userSpaceOnUse">
<stop stop-color="#4EABB4"/>
<stop offset="1" stop-color="#6215F6"/>
</linearGradient>
<linearGradient id="paint1_linear_1845_4840" x1="37.9995" y1="0" x2="37.9995" y2="9.73703" gradientUnits="userSpaceOnUse">
<stop stop-color="#4EABB4"/>
<stop offset="1" stop-color="#6215F6"/>
</linearGradient>
<linearGradient id="paint2_linear_1845_4840" x1="4.9747" y1="35.8417" x2="4.9747" y2="38.0989" gradientUnits="userSpaceOnUse">
<stop stop-color="#4EABB4"/>
<stop offset="1" stop-color="#6215F6"/>
</linearGradient>
<linearGradient id="paint3_linear_1845_4840" x1="71.024" y1="35.8518" x2="71.024" y2="38.0933" gradientUnits="userSpaceOnUse">
<stop stop-color="#4EABB4"/>
<stop offset="1" stop-color="#6215F6"/>
</linearGradient>
<linearGradient id="paint4_linear_1845_4840" x1="33.5788" y1="12.3624" x2="33.5788" y2="42.7207" gradientUnits="userSpaceOnUse">
<stop stop-color="#4EABB4"/>
<stop offset="1" stop-color="#6215F6"/>
</linearGradient>
<linearGradient id="paint5_linear_1845_4840" x1="61.336" y1="55.7472" x2="61.336" y2="63.4253" gradientUnits="userSpaceOnUse">
<stop stop-color="#4EABB4"/>
<stop offset="1" stop-color="#6215F6"/>
</linearGradient>
<linearGradient id="paint6_linear_1845_4840" x1="61.4178" y1="10.6068" x2="61.4178" y2="18.0448" gradientUnits="userSpaceOnUse">
<stop stop-color="#4EABB4"/>
<stop offset="1" stop-color="#6215F6"/>
</linearGradient>
<linearGradient id="paint7_linear_1845_4840" x1="14.6469" y1="55.889" x2="14.6469" y2="63.5629" gradientUnits="userSpaceOnUse">
<stop stop-color="#4EABB4"/>
<stop offset="1" stop-color="#6215F6"/>
</linearGradient>
<linearGradient id="paint8_linear_1845_4840" x1="14.7196" y1="10.502" x2="14.7196" y2="17.9178" gradientUnits="userSpaceOnUse">
<stop stop-color="#4EABB4"/>
<stop offset="1" stop-color="#6215F6"/>
</linearGradient>
<clipPath id="clip0_1845_4840">
<rect width="76" height="76" fill="white"/>
</clipPath>
</defs>
</svg>
