<svg width="256" height="256" viewBox="0 0 256 256" fill="none" xmlns="http://www.w3.org/2000/svg">
<path d="M113.999 256C111.266 254.84 108.299 254.04 105.859 252.433C100.132 248.673 97.5722 243.027 97.6989 236.24C97.7858 235.357 97.6313 234.467 97.2521 233.665C96.8729 232.863 96.2831 232.18 95.5456 231.687C93.1446 229.925 91.2013 227.613 89.8789 224.945C88.5565 222.277 87.8935 219.331 87.9456 216.353C87.9456 209.353 87.8056 202.353 87.9456 195.36C88.1056 188.633 85.6522 182.987 81.3389 178.067C76.7256 172.813 71.9456 167.7 67.3056 162.473C66.1804 161.133 65.1533 159.714 64.2323 158.227C62.8989 156.127 63.2189 153.94 65.0189 152.72C66.8189 151.5 68.7189 151.993 70.2856 153.827C74.8856 159.16 79.4789 164.573 84.1722 169.827C88.6856 174.907 92.8389 180.173 94.5723 186.933C94.7123 187.487 95.4656 188.267 95.9056 188.267C102.046 188.36 108.192 188.327 114.472 188.327V142.14C111.339 142.14 108.352 142.293 105.379 142.107C101.938 141.903 98.675 140.506 96.1526 138.157C93.6301 135.807 92.0057 132.651 91.5589 129.233C91.1162 125.859 91.8235 122.435 93.5665 119.512C95.3096 116.59 97.9867 114.34 101.166 113.127C111.332 109.313 121.692 116.173 122.086 127.007C122.179 129.48 122.086 131.967 122.086 134.54H135.352C135.352 131.64 135.252 128.907 135.352 126.18C135.686 118.753 141.392 113.04 149.166 112.227C152.719 111.837 156.296 112.715 159.264 114.707C162.232 116.7 164.4 119.677 165.386 123.113C167.346 130.28 163.952 137.933 157.206 140.78C154.979 141.72 152.386 141.927 149.932 142.167C147.646 142.393 145.319 142.213 142.899 142.213V188.213H162.399C162.646 187.273 162.912 186.173 163.212 185.08C164.946 178.72 168.599 173.473 173.039 168.773C179.239 162.233 185.512 155.74 189.399 147.44C201.399 121.987 198.932 97.9066 182.266 75.2533C181.677 74.5538 181.125 73.8239 180.612 73.0666C180.101 72.3353 179.897 71.4326 180.044 70.5525C180.191 69.6724 180.678 68.8851 181.399 68.3599C183.026 67.0266 184.886 67.0266 186.332 68.5399C187.967 70.3183 189.469 72.2145 190.826 74.2133C200.58 88.1601 205.267 105.026 204.106 122.006C202.945 138.986 196.007 155.057 184.446 167.547C181.572 170.673 178.639 173.747 175.879 176.973C171.625 181.867 169.375 188.186 169.579 194.667C169.699 201.667 169.579 208.667 169.612 215.66C169.646 222.653 166.786 228.18 161.232 232.4C160.551 232.921 160.091 233.681 159.946 234.527C158.992 247.7 156.006 251.64 143.499 255.993L113.999 256ZM95.6523 196V208.453H98.5856C109.994 208.453 121.403 208.453 132.812 208.453C133.644 208.41 134.478 208.436 135.306 208.533C137.186 208.847 138.539 210.147 138.312 211.913C138.146 213.247 136.979 214.58 135.932 215.547C135.339 216.087 134.039 215.933 133.052 215.933C121.497 215.96 109.921 215.96 98.3256 215.933H95.6589C95.1322 222.6 100.586 228.3 107.599 228.44C113.426 228.56 119.252 228.473 125.086 228.473C133.332 228.473 141.572 228.553 149.819 228.44C156.979 228.353 162.726 222.327 161.746 215.933C159.132 215.933 156.479 215.933 153.826 215.933C150.739 215.933 148.979 214.48 149.019 212.087C149.059 209.807 150.759 208.467 153.686 208.44C156.412 208.44 159.132 208.44 161.879 208.44V196H95.6523ZM135.252 188.253V142.447H122.406V188.407H133.852C134.322 188.376 134.789 188.321 135.252 188.24V188.253ZM105.392 236C105.209 237.528 105.346 239.077 105.794 240.549C106.242 242.021 106.992 243.384 107.995 244.551C108.998 245.718 110.233 246.663 111.621 247.327C113.01 247.991 114.521 248.358 116.059 248.407C124.552 248.642 133.048 248.642 141.546 248.407C143.079 248.353 144.585 247.982 145.967 247.315C147.35 246.649 148.578 245.702 149.575 244.535C150.572 243.369 151.315 242.007 151.758 240.538C152.2 239.068 152.332 237.523 152.146 236H105.392ZM114.492 134.667C114.492 131.44 114.792 128.44 114.419 125.527C113.939 121.78 110.066 119.28 106.086 119.673C101.946 120.093 98.9656 123.293 99.0056 127.287C98.9915 129.182 99.7119 131.009 101.016 132.385C102.32 133.761 104.105 134.579 105.999 134.667C108.739 134.8 111.479 134.667 114.492 134.667ZM142.952 134.72H145.466C147.539 134.72 149.626 134.807 151.686 134.633C153.614 134.501 155.412 133.613 156.689 132.163C157.966 130.712 158.619 128.816 158.506 126.887C158.359 122.92 155.172 119.853 151.046 119.653C146.919 119.453 143.299 122.267 142.992 126.18C142.779 128.88 142.952 131.613 142.952 134.72Z" fill="#312458"/>
<path d="M129.499 0C131.306 1.37333 131.806 3.21333 131.786 5.43333C131.699 12.7667 131.753 20.1 131.746 27.4333C131.766 28.182 131.726 28.9311 131.626 29.6733C131.545 30.5618 131.12 31.3836 130.444 31.9647C129.767 32.5458 128.89 32.8406 127.999 32.7867C127.557 32.8239 127.111 32.7723 126.689 32.6348C126.266 32.4973 125.875 32.2767 125.539 31.986C125.203 31.6953 124.929 31.3404 124.732 30.9421C124.535 30.5438 124.42 30.1102 124.393 29.6667C124.246 28.0088 124.199 26.3435 124.253 24.68C124.253 18.3467 124.306 12.0133 124.213 5.68C124.179 3.39333 124.579 1.43333 126.499 0H129.499Z" fill="#312458"/>
<path d="M0 123C1.38667 121.207 3.22 120.72 5.44 120.747C13.02 120.84 20.5933 120.747 28.1733 120.787C29 120.787 30.08 120.567 30.6067 120.993C31.7333 121.893 33.04 122.993 33.4 124.327C33.8933 126.093 32.7333 127.527 30.8733 128.033C29.8975 128.247 28.8982 128.335 27.9 128.293C20.4933 128.293 13.08 128.247 5.66667 128.333C3.37333 128.333 1.42667 127.927 0 126.02V123Z" fill="#312458"/>
<path d="M256 126C254.567 127.907 252.62 128.34 250.327 128.313C242.913 128.227 235.507 128.313 228.093 128.273C227.18 128.31 226.266 128.245 225.367 128.08C224.486 127.948 223.692 127.475 223.157 126.763C222.622 126.05 222.388 125.156 222.507 124.273C222.613 122.38 223.693 121.113 225.587 120.94C227.48 120.767 229.407 120.813 231.327 120.807C237.653 120.807 243.993 120.867 250.307 120.767C252.6 120.727 254.553 121.133 256 123.02V126Z" fill="#312458"/>
<path d="M51.7266 114.427C52.0599 79.0932 79.8799 47.4999 117.22 42.4265C136.953 39.7332 155.075 43.971 171.587 55.1399C172.227 55.5299 172.82 55.993 173.353 56.5199C174.72 57.9932 174.88 59.6599 173.68 61.2799C173.221 61.9962 172.511 62.5148 171.689 62.7332C170.867 62.9517 169.993 62.8541 169.24 62.4599C168.078 61.8285 166.964 61.1133 165.907 60.3199C125.573 34.0199 71.4399 55.8465 60.7866 102.78C58.2477 114.054 58.7539 125.8 62.2532 136.813C62.3999 137.293 62.5599 137.767 62.6999 138.247C63.5466 141.087 62.7599 142.98 60.4332 143.713C58.2999 144.38 56.4732 143.253 55.5866 140.607C52.9799 132.86 51.7332 124.913 51.7266 114.427Z" fill="#312458"/>
<path d="M197.083 187.78C198.456 188.554 199.596 188.934 200.383 189.687C206.352 195.367 212.254 201.094 218.089 206.867C219.983 208.727 220.049 211.007 218.423 212.567C216.796 214.127 214.736 213.98 212.889 212.2C206.963 206.494 201.083 200.747 195.183 195.02C193.849 193.754 193.103 192.207 194.076 190.567C194.716 189.48 196.003 188.767 197.083 187.78Z" fill="#312458"/>
<path d="M220.08 38.7402C219.28 40.1402 218.913 41.2936 218.147 42.0736C212.244 47.9136 206.293 53.7091 200.293 59.4602C198.487 61.2002 196.253 61.1869 194.753 59.6336C193.253 58.0802 193.28 55.9269 195.12 54.1136C201.04 48.2936 206.947 42.4469 213.04 36.7802C213.64 36.3347 214.327 36.0201 215.056 35.8571C215.785 35.694 216.541 35.686 217.273 35.8336C218.327 36.0669 219.08 37.6402 220.08 38.7402Z" fill="#312458"/>
<path d="M39.9477 214.107C38.8077 213.167 37.5011 212.507 36.8477 211.44C35.8811 209.86 36.4611 208.247 37.8011 206.953C41.3211 203.545 44.8366 200.131 48.3477 196.713C50.7277 194.393 53.0877 192.047 55.4944 189.76C57.4477 187.9 59.6611 187.76 61.2211 189.38C62.7811 191 62.7077 193.153 60.7344 195.087C54.9122 200.789 49.07 206.458 43.2077 212.093C42.4211 212.847 41.3344 213.28 39.9477 214.107Z" fill="#312458"/>
<path d="M62.737 57.2331C61.857 58.3198 61.1703 60.0065 60.1503 60.2398C58.777 60.5465 56.7037 60.2398 55.7103 59.3198C50.657 54.7532 45.857 49.9065 40.977 45.1598C39.8437 44.0598 38.6703 42.9998 37.6037 41.8265C36.037 40.1265 36.0437 37.9465 37.5303 36.4931C37.8611 36.1439 38.2589 35.8649 38.6999 35.6728C39.1409 35.4807 39.6161 35.3795 40.0971 35.3751C40.5781 35.3708 41.055 35.4634 41.4995 35.6475C41.9439 35.8316 42.3466 36.1033 42.6837 36.4465C48.8926 42.3709 55.0281 48.3354 61.0903 54.3398C61.7503 54.9932 62.057 55.9998 62.737 57.2331Z" fill="#312458"/>
</svg>
