<?xml version="1.0" encoding="UTF-8"?><svg id="Capa_1" xmlns="http://www.w3.org/2000/svg" viewBox="0 0 270.39 60"><path d="M233.76,30.16c0,1.13.02,2.25,0,3.38-.05,1.78-1.21,3.02-2.84,3.08-1.68.05-2.91-1.05-2.99-2.86-.09-2.09-.14-4.19-.06-6.29.16-3.91-3.32-6.66-6.39-6.56-3.57.12-6.27,2.83-6.29,6.55-.01,2.02.01,4.04,0,6.06-.02,1.68-1.17,2.95-2.72,3.09-1.63.14-3.21-.95-3.25-2.64-.08-3.56-.37-7.16.64-10.64,2.52-8.73,13.73-11.55,20.15-5.09.41.41.66,1.05,1.42.26,6.51-6.71,17.36-4.24,20.65,4.84,2.65,7.29.71,13.99-3.9,19.97-2.79,3.63-6.59,5.96-10.77,7.71-1.9.79-3.68.08-4.3-1.69-.59-1.66.35-3.37,2.26-3.95,4.38-1.31,7.95-3.68,10.15-7.79,1.92-3.6,2.73-7.4,1.62-11.45-.79-2.86-3.13-4.92-5.82-5.17-3.16-.3-5.6.95-6.91,3.47-.82,1.57-.6,3.25-.63,4.9,0,.27,0,.54,0,.82Z" style="fill:#97ca53; stroke-width:0px;"/><path d="M184.04,39.3c0,3.08,0,6.03,0,8.97,0,1.44.05,2.88-.05,4.31-.12,1.76-1.35,2.86-2.94,2.81-1.6-.05-2.81-1.22-2.81-2.97,0-8.46-.26-16.94.11-25.39.26-5.99,5.44-11.17,11.38-12.13,7.59-1.23,14.66,3.71,15.99,11.4,1.21,7-4.34,14.66-11.41,15.42-3.91.42-5.14.14-10.27-2.43ZM192.06,19.96c-4.78,0-8.61,3.79-8.62,8.51-.01,4.81,3.81,8.65,8.61,8.66,4.82,0,8.86-3.94,8.83-8.64-.03-4.67-4.01-8.52-8.81-8.52Z" style="fill:#03aa5c; stroke-width:0px;"/><path d="M163.25,30.07c-2.53,0-5.05,0-7.58,0-1.52,0-1.88.53-1.33,1.95,1.14,2.95,4.97,5.26,8.14,4.96,1.93-.18,3.71-.7,5.35-1.78,1.44-.94,2.9-.68,3.67.54.73,1.15.34,2.55-1.04,3.48-8.57,5.79-19.83,1.86-21.61-8.62-1.49-8.79,5.07-14.87,11.34-15.74,6.63-.92,12.94,3.2,14.45,9.75.68,2.93-.44,5.64-4.28,5.47-2.37-.1-4.74-.02-7.11-.02ZM161.98,25.47c2.02,0,4.04,0,6.05,0,1.25,0,1.63-.57,1.01-1.68-1.5-2.71-3.78-4.27-6.96-4.25-3.23.02-5.77,1.38-7.41,4.19-.63,1.08-.22,1.72,1.01,1.73,2.1.02,4.19,0,6.29,0Z" style="fill:#03aa5c; stroke-width:0px;"/><path d="M30.57,21.43c1.32,0,2.64-.03,3.96,0,1.28.04,2.3.78,2.39,1.96.41,4.91-.16,9.61-3.31,13.68-2.64,3.4-6.34,4.43-10.39,4.59-8.63.34-13.58-4.9-15.54-12.57-1.1-4.29-.81-8.64.78-12.81,2.78-7.3,9.14-11.01,16.89-9.88,3.11.45,6.07,1.31,8.44,3.54,1.19,1.13,1.41,2.25.64,3.15-.77.91-2.16.95-3.38.1-.57-.4-1.13-.82-1.7-1.22-4.63-3.27-13.25-3.32-16.32,4.91-2.16,5.8-1.97,11.49,1.47,16.81,2.01,3.1,5.01,4.56,8.65,4.19,4.21-.43,7.54-2.32,9.05-6.57.59-1.67.66-3.41.64-5.17,0-.68-.35-.73-.88-.73-1.71.02-3.42.01-5.13,0-1.41-.01-2.19-.74-2.16-2,.03-1.31.76-1.99,2.17-1.99,1.24,0,2.49,0,3.73,0h0Z" style="fill:#77777a; stroke-width:0px;"/><path d="M86.84,18.39c3.85-4.37,10.06-4.47,14.28-.37,4.95,4.8,5.12,15.07.44,20.2-3.79,4.16-10.62,4.98-14.51.11-.37.26-.18.64-.18.95-.02,3.46,0,6.91-.01,10.37,0,.97-.17,1.89-1.13,2.38-1.23.63-2.76-.19-3.01-1.61-.05-.3-.05-.62-.05-.93,0-10.68,0-21.36,0-32.04,0-1.78.8-2.59,2.32-2.42,1.12.12,1.75.75,1.85,1.88.04.44,0,.89,0,1.48ZM100.7,27.75c.06-1.21-.27-2.96-.96-4.62-1.04-2.51-2.79-4.24-5.64-4.39-2.65-.14-4.88.88-6.1,3.29-2.21,4.36-2.39,8.83.27,13.07,2.77,4.42,8.53,3.31,10.65-.09,1.27-2.04,1.75-4.29,1.78-7.26Z" style="fill:#77777a; stroke-width:0px;"/><path d="M131.26,27.84c-.05,4.57-1.05,8.04-3.9,10.84-4.57,4.5-13.44,4.12-16.96-2.48-2.39-4.47-2.71-9.11-1.01-13.83,1.64-4.54,5.99-7.46,10.57-7.37,4.68.09,8.7,3.13,10.35,7.85.64,1.85,1.02,3.74.95,4.99ZM112.74,28.26c-.08,2.69.42,5.13,2.02,7.23,2.69,3.55,8.39,3.3,10.53-.61,2.33-4.26,2.39-8.73.03-13.01-2.37-4.28-8.6-4.2-11.06.02-1.16,2-1.61,4.18-1.52,6.37Z" style="fill:#77777a; stroke-width:0px;"/><path d="M76.8,24.94c0,2.76.27,5.54-.05,8.26-.79,6.71-6.25,8.95-11.57,8.39-5.68-.59-8.8-4.18-8.84-9.9-.03-4.78-.02-9.55,0-14.33,0-1.79,1.01-2.63,2.67-2.28,1.1.23,1.56.85,1.56,2.23.01,4.66,0,9.32,0,13.98,0,1.17.1,2.32.53,3.43.61,1.56,1.73,2.53,3.34,2.96,1.42.38,2.84.34,4.26-.01,2.53-.64,3.91-2.73,3.93-6.13.03-4.78,0-9.55.02-14.33,0-1.67,1.08-2.47,2.68-2.11,1.16.26,1.52,1.08,1.52,2.16,0,2.56,0,5.12,0,7.69-.02,0-.04,0-.06,0Z" style="fill:#77777a; stroke-width:0px;"/><path d="M45.3,19.01c.95-.81,1.6-1.73,2.45-2.46.93-.8,1.94-1.43,3.19-1.53,1.11-.1,2.28.67,2.55,1.64.28.99-.15,1.91-1.28,2.46-.72.35-1.51.59-2.29.82-2.66.81-4.45,2.89-4.53,5.69-.11,4.34-.06,8.69-.09,13.03,0,.46-.03.93-.1,1.39-.16,1.11-.89,1.6-1.94,1.62-1.02.02-1.84-.36-2.1-1.45-.1-.41-.16-.84-.16-1.26,0-7.1-.01-14.2,0-21.3,0-1.59.53-2.35,1.67-2.52,1.55-.23,2.47.47,2.62,2.03.06.61,0,1.23,0,1.84Z" style="fill:#77777a; stroke-width:0px;"/><path d="M139.82,32.63c-2.74,0-5.22-2.44-5.06-5.16.17-2.94,2.12-4.9,5.1-5.01,2.66-.1,5.07,2.42,5.08,5.06,0,2.79-2.33,5.12-5.12,5.12Z" style="fill:#b5b4b7; stroke-width:0px;"/><path d="M258.3,4.61c2.79,0,5.03,2.21,5.06,4.99.03,2.8-2.26,5.09-5.09,5.08-2.78,0-5.03-2.22-5.07-4.99-.04-2.79,2.26-5.08,5.1-5.08ZM258.32,5.08c-2.55,0-4.6,1.98-4.65,4.51-.05,2.5,2.02,4.6,4.54,4.63,2.62.03,4.7-2.01,4.7-4.58,0-2.53-2.04-4.56-4.59-4.57Z" style="fill:#03aa5c; stroke-width:0px;"/><path d="M259.96,12.03c-.76.29-.93-.19-1.16-.59-.23-.4-.48-.8-.71-1.2-.17-.29-.44-.29-.71-.22-.32.08-.22.36-.23.57-.01.35,0,.7,0,1.05,0,.22.02.51-.32.49-.31-.02-.32-.29-.32-.52,0-1.28,0-2.56,0-3.84,0-.15,0-.34.07-.45.25-.37,2.46-.19,2.89.21.59.55.6,1.58-.14,2.02-.68.4-.49.68-.16,1.14.29.41.51.86.8,1.35ZM257.93,9.32c.62.03,1.21-.09,1.22-.77,0-.76-.66-.77-1.25-.83-.77-.07-.73.37-.76.91-.04.69.32.76.8.69Z" style="fill:#03aa5c; stroke-width:0px;"/></svg>