<svg width="379" height="314" viewBox="0 0 379 314" fill="none" xmlns="http://www.w3.org/2000/svg">
<g clip-path="url(#clip0_1782_6325)">
<path d="M262.565 53.0781H56.3911C40.4178 53.0781 27.469 66.027 27.469 82.0002V224.216C27.469 240.189 40.4178 253.138 56.3911 253.138H262.565C278.539 253.138 291.487 240.189 291.487 224.216V82.0002C291.487 66.027 278.539 53.0781 262.565 53.0781Z" stroke="#312458" stroke-width="3" stroke-miterlimit="10" stroke-linecap="round"/>
<path d="M212.206 293.626H106.747C101.765 293.626 97.7266 297.663 97.7266 302.641C97.7266 307.62 101.765 311.656 106.747 311.656H212.206C217.188 311.656 221.227 307.62 221.227 302.641C221.227 297.663 217.188 293.626 212.206 293.626Z" stroke="#312458" stroke-width="3" stroke-miterlimit="10" stroke-linecap="round"/>
<path d="M173.321 259.589C168.066 269.877 166.776 279.758 173.321 288.86" stroke="#312458" stroke-width="3" stroke-miterlimit="10" stroke-linecap="round"/>
<path d="M145.633 259.589C150.887 269.877 152.177 279.758 145.633 288.86" stroke="#312458" stroke-width="3" stroke-miterlimit="10" stroke-linecap="round"/>
<path d="M372.257 78.5942H64.8559C62.6445 78.5942 60.4547 79.0299 58.4117 79.8766C56.3687 80.7232 54.5126 81.9641 52.9495 83.5284C51.3863 85.0927 50.1466 86.9496 49.3014 88.9932C48.4562 91.0367 48.0219 93.2268 48.0234 95.4382V213.498C48.0234 217.962 49.7969 222.244 52.9536 225.4C56.1103 228.557 60.3917 230.33 64.8559 230.33H257.743C259.955 230.332 262.145 229.898 264.188 229.052C266.232 228.207 268.089 226.968 269.653 225.404C271.217 223.841 272.458 221.985 273.305 219.942C274.152 217.899 274.587 215.709 274.587 213.498V7.48633" stroke="#312458" stroke-width="3" stroke-miterlimit="10" stroke-linecap="round"/>
<path d="M371.915 84.7201C375.299 84.7201 378.041 81.9773 378.041 78.594C378.041 75.2106 375.299 72.4678 371.915 72.4678C368.532 72.4678 365.789 75.2106 365.789 78.594C365.789 81.9773 368.532 84.7201 371.915 84.7201Z" fill="#312458"/>
<path d="M274.275 12.2524C277.658 12.2524 280.401 9.50957 280.401 6.12618C280.401 2.74278 277.658 0 274.275 0C270.891 0 268.148 2.74278 268.148 6.12618C268.148 9.50957 270.891 12.2524 274.275 12.2524Z" fill="#312458"/>
<path d="M293.657 288.174C297.041 288.174 299.784 285.432 299.784 282.048C299.784 278.665 297.041 275.922 293.657 275.922C290.274 275.922 287.531 278.665 287.531 282.048C287.531 285.432 290.274 288.174 293.657 288.174Z" fill="#312458"/>
<path d="M303.868 309.61C307.252 309.61 309.995 306.867 309.995 303.484C309.995 300.101 307.252 297.358 303.868 297.358C300.485 297.358 297.742 300.101 297.742 303.484C297.742 306.867 300.485 309.61 303.868 309.61Z" fill="#312458"/>
<path d="M64.3408 190.528H1.74219" stroke="#312458" stroke-width="3" stroke-miterlimit="10" stroke-linecap="round"/>
<path d="M93.9537 204.14H12.9766" stroke="#312458" stroke-width="3" stroke-miterlimit="10" stroke-linecap="round"/>
<path d="M220.508 298.044H272.912L293.324 282.397" stroke="#312458" stroke-width="3" stroke-miterlimit="10" stroke-linecap="round"/>
<path d="M221.883 303.833H303.534" stroke="#312458" stroke-width="3" stroke-miterlimit="10" stroke-linecap="round"/>
</g>
<g clip-path="url(#clip1_1782_6325)">
<path d="M173.192 183.055C173.192 183.055 173.15 183.055 173.119 183.055C172.58 183.014 172.165 182.548 172.196 181.999C172.683 174.927 175.89 168.186 181.245 163.03C186.632 157.822 189.6 150.843 189.6 143.357C189.6 135.871 186.424 128.509 180.882 123.342C175.268 118.113 167.941 115.514 160.219 116.052C146.427 117.005 135.488 128.115 134.772 141.907C134.357 149.932 137.47 157.698 143.303 163.216C148.606 168.238 151.761 174.813 152.166 181.751C152.197 182.289 151.782 182.765 151.232 182.796C150.702 182.817 150.215 182.413 150.183 181.865C149.81 175.435 146.873 169.325 141.933 164.645C135.685 158.733 132.343 150.408 132.79 141.804C133.547 127.018 145.275 115.1 160.074 114.075C168.325 113.516 176.191 116.28 182.221 121.892C188.157 127.421 191.572 135.249 191.572 143.346C191.572 151.444 188.386 158.857 182.605 164.438C177.613 169.263 174.614 175.538 174.157 182.123C174.116 182.641 173.69 183.045 173.171 183.045L173.192 183.055Z" fill="#312458"/>
<path d="M125.564 143.813H116.4C115.85 143.813 115.414 143.367 115.414 142.829C115.414 142.29 115.86 141.845 116.4 141.845H125.564C126.114 141.845 126.55 142.29 126.55 142.829C126.55 143.367 126.104 143.813 125.564 143.813Z" fill="#312458"/>
<path d="M207.376 143.813H198.212C197.662 143.813 197.227 143.367 197.227 142.829C197.227 142.29 197.673 141.845 198.212 141.845H207.376C207.926 141.845 208.362 142.29 208.362 142.829C208.362 143.367 207.916 143.813 207.376 143.813Z" fill="#312458"/>
<path d="M163.478 107.821C162.928 107.821 162.492 107.376 162.492 106.837V97.1663C162.492 96.6175 162.938 96.1826 163.478 96.1826C164.018 96.1826 164.464 96.6279 164.464 97.1663V106.827C164.464 107.376 164.018 107.811 163.478 107.811V107.821Z" fill="#312458"/>
<path d="M133.817 119.511C133.568 119.511 133.309 119.418 133.122 119.221L126.272 112.387C125.888 112.004 125.888 111.373 126.272 110.989C126.656 110.606 127.289 110.606 127.673 110.989L134.523 117.823C134.907 118.206 134.907 118.838 134.523 119.221C134.326 119.418 134.077 119.511 133.828 119.511H133.817Z" fill="#312458"/>
<path d="M189.96 119.511C189.711 119.511 189.451 119.418 189.265 119.221C188.881 118.838 188.881 118.206 189.265 117.823L196.114 110.989C196.498 110.606 197.131 110.606 197.515 110.989C197.899 111.373 197.899 112.004 197.515 112.387L190.666 119.221C190.468 119.418 190.219 119.511 189.97 119.511H189.96Z" fill="#312458"/>
<path d="M196.889 172.774C196.64 172.774 196.38 172.68 196.194 172.484L189.718 166.023C189.334 165.639 189.334 165.008 189.718 164.625C190.102 164.242 190.735 164.242 191.119 164.625L197.595 171.086C197.979 171.469 197.979 172.101 197.595 172.484C197.398 172.68 197.148 172.774 196.899 172.774H196.889Z" fill="#312458"/>
<path d="M126.905 172.774C126.656 172.774 126.397 172.68 126.21 172.484C125.826 172.101 125.826 171.469 126.21 171.086L132.686 164.625C133.07 164.242 133.703 164.242 134.087 164.625C134.471 165.008 134.471 165.639 134.087 166.023L127.611 172.484C127.414 172.68 127.165 172.774 126.916 172.774H126.905Z" fill="#312458"/>
<path d="M162.166 205.266C158.388 205.266 155.067 202.718 154.102 199.084C153.967 198.556 154.278 198.018 154.807 197.873C155.337 197.738 155.876 198.049 156.022 198.577C156.759 201.352 159.291 203.298 162.176 203.298C165.061 203.298 167.417 201.507 168.258 198.846C168.424 198.328 168.984 198.038 169.503 198.204C170.022 198.37 170.313 198.918 170.157 199.447C169.057 202.936 165.86 205.276 162.186 205.276L162.166 205.266Z" fill="#312458"/>
<path d="M171.841 199.809H152.516C150.316 199.809 148.531 198.028 148.531 195.833V185.416C148.531 183.573 150.036 181.44 151.022 181.44H170.346C174.394 181.44 175.836 183.501 175.836 185.416V195.833C175.836 198.028 174.051 199.809 171.851 199.809H171.841ZM151.365 183.408C151.053 183.749 150.503 184.546 150.503 185.416V195.833C150.503 196.941 151.406 197.841 152.516 197.841H171.841C172.951 197.841 173.854 196.941 173.854 195.833V185.416C173.854 183.604 171.394 183.408 170.346 183.408H151.375H151.365Z" fill="#312458"/>
<path d="M169.193 191.474H154.861C154.311 191.474 153.875 191.028 153.875 190.49C153.875 189.952 154.321 189.506 154.861 189.506H169.193C169.743 189.506 170.179 189.952 170.179 190.49C170.179 191.028 169.733 191.474 169.193 191.474Z" fill="#312458"/>
<path d="M159.148 166.654H155.049C154.758 166.654 154.488 166.53 154.302 166.312C154.115 166.095 154.032 165.815 154.063 165.536L154.727 160.587C151.25 159.986 148.708 157.791 148.562 155.161C145.252 154.105 142.938 150.998 142.938 147.478C142.938 145.221 143.872 143.108 145.511 141.576C145.449 141.193 145.428 140.81 145.428 140.427C145.428 136.067 149.216 132.371 154.136 131.843C155.765 129.741 158.526 128.457 161.473 128.457C164.068 128.457 166.517 129.441 168.177 131.118C169.111 130.756 170.087 130.58 171.104 130.58C173.968 130.58 176.563 132.05 177.995 134.442C181.275 135.467 183.527 138.459 183.527 141.856C183.527 144.827 181.814 147.509 179.126 148.824C177.954 152.81 173.844 155.648 169.153 155.648C168.707 155.648 168.271 155.616 167.845 155.575C167.555 155.72 167.264 155.886 166.994 156.062C166.776 156.258 166.423 156.497 166.06 156.714C161.836 159.945 160.113 165.878 160.093 165.929C159.968 166.354 159.584 166.644 159.138 166.644L159.148 166.654ZM156.18 164.676H158.422C159.055 162.864 161.006 158.101 164.95 155.078C165.323 154.84 165.593 154.664 165.842 154.457C166.361 154.125 166.797 153.877 167.254 153.659C167.43 153.577 167.627 153.546 167.814 153.577C168.25 153.639 168.707 153.67 169.163 153.67C173.138 153.67 176.573 151.237 177.341 147.892C177.414 147.581 177.632 147.323 177.922 147.198C180.133 146.277 181.565 144.175 181.565 141.845C181.565 139.205 179.728 136.896 177.103 136.223C176.833 136.15 176.604 135.974 176.469 135.726C175.442 133.758 173.387 132.537 171.114 132.537C170.149 132.537 169.225 132.754 168.374 133.179C167.959 133.386 167.461 133.272 167.171 132.92C165.894 131.346 163.767 130.414 161.483 130.414C159.003 130.414 156.709 131.532 155.506 133.324C155.329 133.572 155.059 133.738 154.748 133.758C150.638 134.028 147.411 136.958 147.411 140.416C147.411 140.862 147.462 141.296 147.556 141.711C147.649 142.083 147.514 142.466 147.213 142.705C145.76 143.864 144.92 145.604 144.92 147.457C144.92 150.336 146.975 152.852 149.797 153.421C150.316 153.525 150.659 154.022 150.576 154.54C150.555 154.664 150.545 154.778 150.545 154.902C150.545 156.807 152.911 158.485 155.921 158.712C156.19 158.733 156.44 158.868 156.616 159.075C156.792 159.282 156.865 159.561 156.824 159.831L156.17 164.645L156.18 164.676Z" fill="#312458"/>
</g>
<defs>
<clipPath id="clip0_1782_6325">
<rect width="378.044" height="313.4" fill="white"/>
</clipPath>
<clipPath id="clip1_1782_6325">
<rect width="92.9576" height="109.083" fill="white" transform="translate(115.414 96.1826)"/>
</clipPath>
</defs>
</svg>
