<?xml version="1.0" encoding="UTF-8"?><svg id="Capa_1" xmlns="http://www.w3.org/2000/svg" viewBox="0 0 194.93 60"><path d="M129.22,31.53c-.75-3.41-1.95-6.6-4.86-8.78-3.83-2.87-8.07-3.11-12.5-1.59-2.11.72-2.12.74-2.11-1.56.02-3.37,0-6.75.1-10.12.04-1.33-.48-1.53-1.62-1.31-3.58.68-7.16,1.28-10.74,1.95-.53.1-1.27.05-1.32.88-.05.84.67.83,1.2,1.02,2.34.81,3,1.66,3.01,4.11.03,5.35,0,10.71,0,16.06.38,5.52.18,11.03,0,16.55-.04,1.18.37,1.74,1.56,1.96,2.64.49,5.28.97,7.95,1.1,4.39.2,8.69-.24,12.53-2.63,5.43-3.39,8.26-10.86,6.78-17.63ZM117.04,46.27c-.84,1.57-2.26,2.69-4.1,3.1-1.91.43-2.73-.1-2.92-2.04-.32-3.25-.15-6.52-.19-9.78,0-.43,0-.86,0-1.28h-.09c0-3.53,0-7.06,0-10.59,0-1.03.55-1.57,1.51-1.76,2.63-.55,5.24.47,6.42,2.86,3.25,6.58,2.79,13.13-.62,19.5Z" style="fill:#1d1d1b; stroke-width:0px;"/><path d="M27.09,8.79c5.31,0,10.62,0,15.93,0,2.48,0,2.54.09,2.51,2.5-.03,2.52.01,5.04.01,7.55,0,.42,0,.86-.09,1.27-.18.82-.91,1.03-1.59,1.15-.77.13-.91-.52-1.11-1.1-.69-1.98-1.56-3.86-3.02-5.42-1.78-1.89-3.9-2.92-6.55-2.87-1.93.04-3.86,0-5.79-.06-1.07-.04-1.58.39-1.64,1.46-.24,4.71-.3,9.43-.28,14.15,0,1.09.51,1.4,1.51,1.3,1.33-.14,2.68-.19,4.01-.33,1.59-.18,2.61-1.17,3.31-2.51.34-.66.53-1.4.8-2.09.29-.76.83-1.07,1.64-.92.85.16.69.76.68,1.36-.02,3.75-.01,7.5-.03,11.25,0,.64.39,1.48-.67,1.69-1.01.2-1.39-.4-1.72-1.25-1.45-3.72-4.03-5.33-7.67-4.93-1.23.13-1.86.54-1.85,1.97.02,3.81.12,7.61.6,11.39.42,3.29,1.53,4.27,5.07,4.64.72.08,1.42.01,1.36,1.09-.05,1.04-.77.84-1.38.84-6.87,0-13.73,0-20.6,0-.64,0-1.37.11-1.39-.87-.01-.72.38-.98,1.1-1.08,3.3-.43,4.56-1.8,4.83-5.28.49-6.26.7-12.52.47-18.8-.11-2.95-.29-5.89-.45-8.83-.18-3.26-1.23-4.45-4.45-5.08-.74-.14-1.58-.22-1.51-1.27.07-1.17.98-.89,1.7-.89,5.42,0,10.84,0,16.26,0,0-.01,0-.02,0-.03Z" style="fill:#1d1d1b; stroke-width:0px;"/><path d="M68.98,25.4c-3.02-4.07-7.4-5.21-12.41-5.54-6.2.04-11.47,2.41-14.35,8.38-3.07,6.37-2.67,12.8,1.72,18.48,6.21,8.02,18.86,5.54,23.67.71,6.14-6.16,5.03-17.08,1.37-22.03ZM61.12,44.91c-.74,2.84-2.38,4.61-4.37,4.73-2.11.12-3.9-1.44-4.95-4.31-1.19-3.27-1.5-6.65-1.32-9.9-.06-3.1.04-5.97.91-8.77.27-.88.63-1.71,1.13-2.47,1.63-2.49,4.7-2.67,6.66-.41,1.15,1.33,1.84,2.9,2.15,4.59,1.04,5.52,1.2,11.04-.22,16.54Z" style="fill:#1d1d1b; stroke-width:0px;"/><path d="M143.09,34.58c2.57.08,5.15.02,7.72.02h.48c1.72,0,3.43.03,5.15,0,4.13-.08,4.22.9,3.49-4.1-.78-5.34-4.7-9.56-9.57-10.43-6.61-1.18-13.39,1.73-16.54,7.09-3.51,5.99-3.13,14.11,1.11,19.18,4.44,5.32,10.34,6.23,16.78,4.98,2.98-.58,5.42-2.22,7.5-4.41.4-.42.7-.87.26-1.41-.42-.51-.91-.46-1.42-.11-.22.15-.46.27-.7.39-7.56,3.81-15.8-.9-16.16-9.2-.06-1.45.43-2.04,1.92-2ZM141.66,29.25c.36-1.95.89-3.85,2.17-5.45,1.87-2.34,4.2-2.1,5.56.58,1.08,2.12,1.1,4.43,1.22,6.72.04.81-.51.99-1.15.99-1.18.02-2.35,0-3.53,0v.07h-1.76c-3.03,0-3.05,0-2.51-2.92Z" style="fill:#1d1d1b; stroke-width:0px;"/><path d="M184.03,25.62c.05.86.1,1.71.15,2.57.05.77-.14,1.38-1.01,1.57-.94.21-1.04-.52-1.23-1.12-.5-1.61-1.3-3.04-2.46-4.27-1.73-1.83-3.9-2.21-6.21-1.68-2.61.6-3.64,4.2-1.85,6.22,1.24,1.4,2.9,2.17,4.56,2.92,1.36.62,2.75,1.19,4.13,1.76,3.54,1.44,5.74,3.83,5.68,7.88-.07,4.32-2.11,7.3-6.04,9.01-4.5,1.96-9.14,1.5-13.75.64-4.15-.78-4.15-.84-4.46-4.98-.1-1.33-.09-2.68-.14-4.01-.02-.62,0-1.22.77-1.38.71-.15,1.09.29,1.38.84.63,1.18,1.19,2.4,1.91,3.52,1.75,2.73,4.25,3.98,7.51,3.6,2.04-.24,3.53-1.6,3.99-3.63.37-1.66-.27-3.02-1.99-4.2-2.19-1.5-4.77-2.14-7.17-3.17-3.51-1.51-5.69-3.93-5.64-7.94.05-4.07,1.98-6.87,5.72-8.48,4.97-2.13,9.94-1.56,14.93-.13.71.2,1.02.67,1.02,1.43,0,1.02.12,2.03.19,3.05Z" style="fill:#1d1d1b; stroke-width:0px;"/><path d="M85.56,25.77c1.68-2.3,3.16-4.1,5.39-5.13,1.94-.9,3.92-.98,5.95-.52,1.07.24,1.54.81,1.05,1.98-.81,1.91-1.57,3.86-2.27,5.81-.38,1.06-.92,1.31-1.93.76-1.64-.89-3.41-1.24-5.27-.93-2.1.34-2.85,1.16-2.99,3.27-.33,4.93-.31,9.85.31,14.75.3,2.36,1.19,3.08,3.61,3.19.74.03,1.64-.19,1.63.97-.01,1.22-.9,1.02-1.73,1.02-5.31-.03-10.61-.01-15.92-.04-.6,0-1.5.42-1.64-.72-.13-1.07.71-1.22,1.43-1.36,1.66-.33,2.42-1.29,2.56-2.98.52-6.21.59-12.4,0-18.61-.17-1.76-.91-2.76-2.64-3.09-.53-.1-1.32-.07-1.31-.9.02-.9.84-.82,1.44-.94,3.57-.71,7.15-1.35,10.7-2.12,1.26-.27,1.69.07,1.65,1.31-.04,1.27,0,2.54,0,4.27Z" style="fill:#1d1d1b; stroke-width:0px;"/><path d="M174.64,15.52c-.4-.81-.59-1.51-.31-2.4.2-.66-.07-1.22-.85-1.46-2.69-.84-3.5-.26-3.41,2.5,0,.16,0,.32,0,.48h.03c0,.59,0,1.17,0,1.76,0,1.38.65,1.94,2.02,1.66.52-.11,1.07-.15,1.56-.34,1-.4,1.43-1.23.97-2.18ZM172.09,12.29c.66.05,1.56-.12,1.56.9,0,.95-.85.93-1.54,1-.77.08-1.25-.16-1.24-1.04,0-.87.58-.89,1.22-.86ZM171.82,17.18c-.67.12-.95-.36-.95-1.22,0-1,.62-1.11,1.39-1.05.76.06,1.58.09,1.57,1.15-.01,1.21-.97,1.02-2.01,1.12Z" style="fill:#1d1d1b; stroke-width:0px;"/><path d="M164.04,13.47c-.39,1.59.12,2.99-.4,4.4-.85-.53-.48-1.29-.52-1.89-.06-1.12-.03-2.25,0-3.38,0-.34-.16-.81.33-.96.51-.16.77.23,1,.6.48.76.95,1.53,1.5,2.4.6-.89,1.14-1.67,1.66-2.47.22-.33.44-.64.89-.52.4.11.38.47.38.79,0,1.5.01,3,0,4.5,0,.36.02.84-.54.77-.44-.06-.3-.5-.31-.78-.02-1.06,0-2.11,0-3.56-.83,1.11-1.44,1.93-2.07,2.77-.63-.88-1.2-1.68-1.91-2.67Z" style="fill:#1d1d1b; stroke-width:0px;"/><path d="M159.09,11.5c-1.68.03-2.73,1.28-2.72,3.26,0,1.97,1.08,3.19,2.8,3.18,1.68-.02,2.77-1.31,2.74-3.25-.03-1.96-1.14-3.21-2.82-3.18ZM159.19,17.09c-1.06.12-1.92-.99-1.98-2.46-.05-1.28.79-2.29,1.93-2.31,1.05-.02,1.9,1.02,1.92,2.48-.11,1.08-.45,2.13-1.86,2.29Z" style="fill:#1d1d1b; stroke-width:0px;"/><path d="M148.36,11.5c-1.69-.02-2.88,1.25-2.92,3.11-.04,1.88,1.08,3.22,2.74,3.27,1.75.05,3.05-1.29,3.04-3.16,0-1.84-1.21-3.19-2.85-3.21ZM148.29,17.1c-1.13,0-1.98-1.09-1.94-2.48.05-1.42.95-2.46,2.11-2.29,1.36.21,1.78,1.25,1.81,2.46.03,1.25-.94,2.32-1.98,2.31Z" style="fill:#1d1d1b; stroke-width:0px;"/><path d="M183.35,17c-.67-1.56-1.39-3.39-2.25-5.15-.34-.7-.86-.24-1.05.2-.72,1.66-1.38,3.34-2.05,5.02-.09.24-.16.56.13.71.27.13.46-.07.65-.3,1.48-1.79,2.26-1.79,3.73.01.19.24.37.37.66.28.24-.07.3-.27.18-.77ZM181.28,15.39c-.13.2-1.02.21-1.19,0-.64-.81.18-1.4.55-2.42.45,1,1.18,1.61.64,2.42Z" style="fill:#1d1d1b; stroke-width:0px;"/><path d="M142.63,17.97c-1.28-.04-2.14-.62-2.61-1.68-.62-1.39-.5-2.73.53-3.89.78-.87,1.75-1.2,2.9-.77.4.15.99.29.85.77-.16.57-.69.23-1.06.08-1.04-.42-1.76.02-2.31.87-.62.96-.6,1.93.07,2.84.54.74,1.23,1.17,2.22.75.35-.15.87-.61,1.11-.06.26.62-.45.71-.86.88-.29.13-.62.15-.85.21Z" style="fill:#1d1d1b; stroke-width:0px;"/><path d="M152.86,14.31c0,.37.03.75,0,1.12-.14,1.32.39,1.9,1.74,1.71.39-.05,1.01-.23,1.05.35.05.61-.56.43-.96.45-2.46.15-2.65-.02-2.66-2.48,0-1.06,0-2.13.02-3.19,0-.27.08-.57.4-.58.34-.01.41.28.41.55,0,.69,0,1.38,0,2.07Z" style="fill:#1d1d1b; stroke-width:0px;"/><path d="M176.9,15.13c-.25.67.73,2.24-.48,2.45-.64.12-.27-1.73-.37-2.69-.08-.85-.02-1.71-.01-2.56,0-.31.01-.7.47-.66.32.03.38.35.38.61.01.85,0,1.71,0,2.84Z" style="fill:#1d1d1b; stroke-width:0px;"/></svg>