<svg width="90" height="103" viewBox="0 0 90 103" fill="none" xmlns="http://www.w3.org/2000/svg">
<path d="M48.2294 23.6452C50.2747 23.6452 52.32 23.6452 54.3653 23.6452C54.6806 23.6452 55.0044 23.6367 55.3197 23.6795C57.1179 23.9192 57.8763 25.332 56.973 26.8904C56.1464 28.3289 55.1834 29.6904 54.2886 31.086C52.6779 33.6205 51.0758 36.1636 49.4736 38.7067C49.3202 38.9464 49.1754 39.1862 49.0646 39.4516C48.5533 40.6332 48.8345 41.0785 50.0872 41.0956C53.2574 41.147 56.4276 41.2069 59.5893 41.2669C63.1259 41.3354 65.4098 45.4026 62.8617 48.7162C59.1546 53.5284 55.5669 58.4432 51.9024 63.2982C46.9596 69.8399 41.9828 76.3646 37.0145 82.8892C36.5031 83.5656 35.9663 84.2164 35.3953 84.85C34.884 85.4237 34.2448 85.7063 33.5034 85.3209C32.7705 84.9356 32.2251 84.3191 32.37 83.4543C32.5148 82.5895 32.7705 81.7333 33.1199 80.9284C36.4264 73.3078 39.7671 65.7043 43.0821 58.0922C43.5594 56.9962 43.9173 55.8402 44.3349 54.7186C44.5905 54.0336 44.3008 53.7082 43.6361 53.6482C43.2867 53.614 42.9373 53.5969 42.5793 53.5969C39.5114 53.5883 36.4435 53.6226 33.3841 53.5369C32.4552 53.5112 31.4752 53.3057 30.6315 52.9204C28.501 51.9529 27.5465 49.9064 28.322 47.6202C29.0634 45.4539 30.0861 43.3904 31.0576 41.3097C33.546 36.0009 36.0856 30.7093 38.5996 25.4091C39.0597 24.433 39.733 23.7651 40.8494 23.7565C43.3122 23.7309 45.7836 23.7565 48.2465 23.7565C48.2465 23.7223 48.2465 23.6795 48.2465 23.6452H48.2294ZM53.1637 27.1387C52.9251 27.0445 52.8057 26.9504 52.6779 26.9504C49.0816 26.9418 45.4853 26.9161 41.8976 26.976C41.5652 26.976 41.0965 27.3956 40.9346 27.7295C38.2075 33.3551 35.4975 38.9978 32.8216 44.6491C32.2933 45.7622 31.8586 46.9267 31.4155 48.0826C30.9127 49.4012 31.1939 49.915 32.583 50.1462C33.3074 50.2661 34.0573 50.2318 34.7987 50.2489C37.8667 50.3089 40.9346 50.2489 43.9855 50.4544C46.7296 50.6342 48.1101 52.8605 47.3687 55.5149C47.2238 56.0286 47.079 56.5424 46.8744 57.0219C44.957 61.5001 43.0225 65.9783 41.105 70.4564C40.6704 71.4668 40.2869 72.4943 39.8779 73.5218C39.9886 73.5818 40.0994 73.6417 40.2187 73.7016C40.5852 73.1622 40.9175 72.6056 41.3096 72.0833C46.4739 65.259 51.6468 58.4518 56.7941 51.6189C58.0297 49.9835 59.1973 48.3052 60.3392 46.6013C60.9102 45.7451 60.7227 45.1371 59.7597 44.7604C59.1546 44.5206 58.4644 44.435 57.8082 44.4093C54.9959 44.3151 52.1751 44.3494 49.3629 44.1696C46.5165 43.9897 44.8547 41.1984 46.1074 38.6467C47.0875 36.6517 48.3146 34.785 49.4822 32.8927C50.6582 30.9833 51.8854 29.0995 53.1381 27.1387H53.1637Z" fill="url(#paint0_linear_1782_4240)"/>
<path d="M31.2077 13.5602C31.5656 13.8 31.9235 14.0397 32.2814 14.2709C33.8069 15.2727 35.3408 16.2574 36.8577 17.2764C37.5566 17.7473 37.6844 18.3381 37.1986 19.083C36.5339 20.1105 35.801 20.5301 34.9573 20.1105C33.4149 19.3399 31.915 18.4837 30.4151 17.6274C29.009 16.8225 27.6028 16.0091 26.2478 15.1186C24.5179 13.9712 24.3219 13.2006 25.3275 11.3939C27.1597 8.12303 29.0516 4.89497 30.9264 1.64978C31.0457 1.43572 31.1991 1.23878 31.3611 1.04184C32.5541 -0.456598 33.9858 -0.345285 34.7869 1.41859C34.9829 1.85528 34.8039 2.60022 34.5483 3.07115C33.679 4.68947 32.699 6.23928 31.7701 7.83191C31.5997 8.13159 31.4889 8.47409 31.2673 8.99641C31.7872 8.91934 32.1451 8.89366 32.486 8.80803C47.3313 4.83503 60.8131 7.62641 72.761 17.3106C81.6068 24.4774 86.6945 33.939 88.5778 45.1473C90.0607 53.9752 88.646 62.4008 84.8793 70.4581C84.4446 71.3828 84.0185 72.3161 83.5072 73.1981C83.2516 73.6433 82.8681 74.0543 82.4675 74.3797C81.9392 74.7993 81.3682 75.3729 80.6268 74.6708C79.945 74.0286 79.2292 73.4378 79.7661 72.3247C80.4904 70.8348 81.1978 69.3278 81.854 67.8037C83.4646 64.0704 84.368 60.1231 84.5895 56.0902C84.7855 52.4682 84.8878 48.7607 84.3594 45.1901C83.2686 37.8777 80.5842 31.1647 75.5562 25.5563C72.5394 22.1912 69.3607 19.0659 65.3894 16.8482C62.526 15.247 59.5689 13.9198 56.3902 13.0208C52.2229 11.8477 48.0301 11.1542 43.7009 11.197C40.258 11.2312 36.9174 11.822 33.6023 12.6612C32.8183 12.8581 32.0343 13.0293 31.2417 13.2092C31.2332 13.3205 31.2162 13.4318 31.2077 13.5517V13.5602Z" fill="url(#paint1_linear_1782_4240)"/>
<path d="M59.4755 89.6622C57.916 88.7717 56.4673 87.9925 55.0697 87.1277C54.3879 86.7082 53.7743 86.1602 53.1863 85.6207C52.6324 85.107 52.4534 84.4733 53.0159 83.8397C53.5868 83.2061 54.0811 82.2728 55.1719 82.8122C56.2116 83.326 57.2342 83.8911 58.2228 84.4905C60.2681 85.732 62.3645 86.9137 64.2905 88.3179C65.85 89.4653 65.833 89.7478 64.9126 91.4261C63.0803 94.7312 61.1799 98.0021 59.3051 101.29C59.1517 101.564 58.9387 101.812 58.7426 102.061C57.8904 103.088 57.2769 103.242 56.3991 102.669C55.2912 101.949 55.0697 101.17 55.7514 99.9715C56.6803 98.3446 57.6774 96.7605 58.6404 95.1508C58.7767 94.9196 58.9131 94.6798 58.9557 94.1575C58.3165 94.2945 57.6518 94.363 57.0297 94.5685C48.2861 97.4198 39.4488 97.3171 30.9012 94.2774C18.3142 89.7907 8.96559 81.3737 3.64785 68.8982C1.1083 62.9301 -0.340446 56.6281 0.0686106 50.0778C0.443579 44.0755 1.82414 38.2701 4.4404 32.8158C4.69606 32.2849 5.07103 31.7968 5.446 31.3259C5.92323 30.7351 6.52829 30.3241 7.26971 30.8293C7.99408 31.3259 8.71845 31.8996 8.47131 32.9699C8.36905 33.4151 8.2327 33.8689 8.03669 34.2799C5.77836 39.0064 4.75572 44.0412 4.35518 49.2301C3.80977 56.3027 5.13921 62.9815 8.19861 69.4033C10.8575 74.9861 14.6327 79.6612 19.2772 83.5828C22.6519 86.4342 26.5891 88.472 30.8075 89.8848C35.8951 91.5974 41.1021 92.4964 46.4624 92.3508C50.8939 92.231 55.1549 91.2634 59.467 89.6793L59.4755 89.6622Z" fill="url(#paint2_linear_1782_4240)"/>
<defs>
<linearGradient id="paint0_linear_1782_4240" x1="46.0009" y1="23.6445" x2="46.0009" y2="85.498" gradientUnits="userSpaceOnUse">
<stop stop-color="#4EACB4"/>
<stop offset="1" stop-color="#620FF9"/>
</linearGradient>
<linearGradient id="paint1_linear_1782_4240" x1="56.9376" y1="0" x2="56.9376" y2="75.0007" gradientUnits="userSpaceOnUse">
<stop stop-color="#4EACB4"/>
<stop offset="1" stop-color="#620FF9"/>
</linearGradient>
<linearGradient id="paint2_linear_1782_4240" x1="32.7727" y1="30.6016" x2="32.7727" y2="102.999" gradientUnits="userSpaceOnUse">
<stop stop-color="#4EACB4"/>
<stop offset="1" stop-color="#620FF9"/>
</linearGradient>
</defs>
</svg>
