<?xml version="1.0" encoding="UTF-8"?><svg id="Capa_1" xmlns="http://www.w3.org/2000/svg" viewBox="0 0 72.96 60"><path d="M53.09,10.45c.13,0,.22.08.31.17,2.05,1.9,3.78,4.05,5.13,6.51.92,1.67,1.66,3.42,2.17,5.27.06.23.21.38.39.51,1.88,1.34,3.44,2.99,4.69,4.92,1.11,1.72,1.91,3.59,2.39,5.59.39,1.63.57,3.27.5,4.94-.05,1.18-.22,2.34-.48,3.49-.56,2.4-1.57,4.6-3.04,6.57-2.05,2.75-4.64,4.82-7.84,6.12-2.25.92-4.59,1.35-7.02,1.35-4.49,0-8.98,0-13.46,0-.12,0-.24-.02-.36-.02,0-3.73,0-7.46,0-11.19.13,0,.26-.02.39-.02,4.62,0,9.24.02,13.86-.02,2.21-.02,4-1.01,5.32-2.76,1.49-1.99,1.82-4.21,1.01-6.56-.93-2.67-3.43-4.51-6.24-4.63-.27-.01-.36-.08-.36-.36,0-.76,0-1.52-.05-2.28-.13-1.7-.59-3.31-1.32-4.84-.9-1.88-2.18-3.46-3.78-4.78.03-.18.16-.28.28-.4,2.43-2.43,4.85-4.85,7.28-7.28.09-.09.2-.18.25-.3Z" style="fill:#4386f4; stroke-width:0px;"/><path d="M11.57,52.19c-.37-.12-.62-.41-.9-.65-2.04-1.74-3.63-3.83-4.75-6.27-.86-1.86-1.37-3.82-1.56-5.87-.18-1.97-.04-3.92.42-5.84.65-2.72,1.87-5.16,3.66-7.31,1.03-1.23,2.19-2.32,3.49-3.26.12-.09.27-.15.34-.3.13-.06.26-.11.39-.19,1.12-.69,2.29-1.3,3.53-1.75.94-.34,1.9-.61,2.88-.8.8-.15,1.6-.25,2.41-.3.76-.04,1.51-.03,2.27.02.79.05,1.57.18,2.35.29.59.15,1.18.27,1.76.45,1.53.48,2.98,1.14,4.34,2,1.77,1.11,3.3,2.49,4.61,4.12.17.21.15.35-.04.53-.31.28-.6.59-.89.88-2.22,2.21-4.43,4.42-6.65,6.63-.33.32-.33.33-.55-.07-.34-.64-.78-1.19-1.29-1.7-1.92-1.93-4.96-2.58-7.45-1.52-2.71,1.16-4.23,3.22-4.4,6.19-.12,2.02.61,3.72,1.99,5.16.6.62,1.31,1.06,2.06,1.47-.04.12-.14.19-.23.28-2.2,2.2-4.41,4.4-6.61,6.6-.4.4-.78.8-1.18,1.2Z" style="fill:#f9bb06; stroke-width:0px;"/><path d="M26.1,19.96c-.78-.11-1.56-.24-2.35-.29-.76-.05-1.52-.06-2.27-.02-.81.04-1.61.14-2.41.3-.99.19-1.94.46-2.88.8-1.24.45-2.41,1.06-3.53,1.75-.12.07-.26.12-.39.19-.29-.04-.14-.24-.1-.35.22-.68.43-1.36.68-2.03.95-2.46,2.24-4.73,3.91-6.77,2.34-2.86,5.14-5.17,8.46-6.81,2.17-1.07,4.45-1.83,6.84-2.24,1.91-.33,3.83-.46,5.76-.34,2.56.16,5.03.67,7.43,1.57,2.88,1.08,5.46,2.64,7.77,4.66.02.02.04.05.06.08-.05.13-.16.21-.25.3-2.43,2.43-4.85,4.85-7.28,7.28-.12.12-.25.22-.28.4-.13,0-.23-.08-.32-.15-1.63-1.25-3.44-2.11-5.45-2.57-2.26-.52-4.5-.48-6.74.11-2.12.56-4,1.61-5.64,3.05-.38.33-.77.65-1.04,1.09Z" style="fill:#e94336; stroke-width:0px;"/><path d="M11.57,52.19c.39-.4.78-.81,1.18-1.2,2.2-2.2,4.41-4.4,6.61-6.6.08-.08.19-.15.23-.28.09.01.18,0,.26.04.98.42,2.01.53,3.07.53,4.41-.01,8.82,0,13.22,0,.11,0,.22,0,.33.01,0,3.73,0,7.46,0,11.19-.08,0-.15.02-.23.02-4.68,0-9.36.02-14.05-.01-2.77-.02-5.4-.69-7.87-1.95-.97-.49-1.91-1.04-2.75-1.74Z" style="fill:#35a854; stroke-width:0px;"/></svg>