<svg width="113" height="124" viewBox="0 0 113 124" fill="none" xmlns="http://www.w3.org/2000/svg">
<mask id="mask0_2059_124" style="mask-type:luminance" maskUnits="userSpaceOnUse" x="0" y="0" width="113" height="124">
<path d="M112.443 0.0273438H0.460938V123.813H112.443V0.0273438Z" fill="white"/>
</mask>
<g mask="url(#mask0_2059_124)">
<path d="M28.5023 71.8568V46.8975C28.5023 44.6712 28.7384 44.321 31.0857 43.618C34.4891 42.6806 38.0086 41.626 41.4121 40.6886C42.351 40.4543 42.5861 40.1014 42.4688 39.2811V30.3762C42.4688 28.6186 43.1743 27.916 45.0521 27.916H68.0544C69.8148 27.916 70.5185 28.6186 70.5185 30.3762V40.3362L80.0243 43.1488C80.8459 43.3832 81.55 43.5004 82.3716 43.7347C84.132 44.3206 84.485 44.7893 84.485 46.6641V71.8568H103.733C105.845 71.8568 106.548 72.4436 106.431 74.5528C106.313 77.365 105.962 80.1768 105.61 82.8718C105.375 84.6294 104.67 85.0986 103.027 85.0986C98.5669 84.9814 98.6861 85.2144 97.2778 88.964C96.691 90.6045 95.9854 92.1277 95.2813 93.651C94.9109 94.2215 94.7671 94.9092 94.8756 95.5803C94.984 96.2515 95.3368 96.8578 95.8681 97.283L97.6285 99.0406C98.0288 99.3853 98.2791 99.8742 98.323 100.4C98.3669 100.926 98.2022 101.447 97.8646 101.853C94.2958 107.115 89.7545 111.649 84.485 115.212C84.0508 115.499 83.5277 115.622 83.0111 115.557C82.4945 115.493 82.018 115.244 81.6678 114.859C81.081 114.273 80.4942 113.688 79.9074 112.985C79.4658 112.555 78.9036 112.27 78.296 112.166C77.6885 112.061 77.0637 112.142 76.5035 112.399C74.2736 113.454 71.9278 114.391 69.6979 115.328C69.1217 115.468 68.6096 115.801 68.247 116.269C67.8844 116.738 67.6916 117.316 67.7014 117.908V120.368C67.7014 122.008 67.2329 122.593 65.7072 122.945C60.8255 123.803 55.8465 123.962 50.9202 123.414C49.5118 123.297 48.2204 123.063 46.9294 122.828C46.4384 122.751 45.9945 122.49 45.6893 122.098C45.3842 121.706 45.2402 121.212 45.2859 120.718V117.908C45.2976 117.332 45.1207 116.769 44.7816 116.303C44.4426 115.838 43.9605 115.495 43.4086 115.328C41.0614 114.391 38.7137 113.454 36.4838 112.399C35.9443 112.138 35.3367 112.054 34.7463 112.159C34.1559 112.264 33.6123 112.553 33.1968 112.985L31.3195 114.859C30.9718 115.255 30.4833 115.502 29.9579 115.546C29.4325 115.59 28.9108 115.428 28.5023 115.095C23.276 111.615 18.7741 107.157 15.2419 101.97C15.0481 101.77 14.8983 101.534 14.8041 101.272C14.7099 101.01 14.6742 100.73 14.6964 100.453C14.7186 100.176 14.7978 99.9066 14.9325 99.6631C15.0671 99.4197 15.2526 99.2071 15.4757 99.0406C16.0625 98.3376 16.6493 97.7522 17.2361 97.1663C17.6894 96.7651 17.9938 96.2237 18.1003 95.6284C18.2068 95.033 18.1091 94.4198 17.8229 93.8867C16.8841 91.5432 15.9447 89.3164 15.0058 86.9729C14.8345 86.4017 14.476 85.906 13.9858 85.5655C13.4955 85.225 12.9039 85.0603 12.3079 85.0986H9.60767C9.35206 85.1291 9.09348 85.1052 8.84665 85.0322C8.59983 84.9592 8.3705 84.8374 8.17274 84.6729C7.97499 84.5084 7.81238 84.3048 7.69597 84.0756C7.57955 83.8464 7.51261 83.5975 7.49654 83.341C7.14446 80.1772 6.79146 77.1306 6.55674 73.9669C6.43938 72.5608 7.37827 71.8568 8.90396 71.8568H28.5023ZM88.1227 75.958C87.5873 83.8238 84.1231 91.2036 78.4106 96.6468C72.6982 102.09 65.1505 105.202 57.2558 105.369C50.3398 105.667 43.537 103.555 38.0104 99.3931C34.2237 96.6968 31.0798 93.1965 28.8072 89.1448C26.5347 85.0931 25.1884 80.5904 24.8646 75.958H10.5475C10.6648 77.7156 10.8996 79.357 11.1343 80.9974C11.4864 80.9974 11.7202 81.1142 11.9549 81.1142C13.5035 80.9957 15.0448 81.4233 16.3101 82.3225C17.5753 83.2218 18.4848 84.5349 18.8797 86.0346C19.7012 88.0266 20.5218 90.0181 21.4607 92.0101C22.1043 93.3069 22.3271 94.7719 22.0956 96.2005C21.8642 97.6292 21.1904 98.9509 20.1702 99.979C19.8677 100.222 19.5932 100.496 19.3496 100.798C21.9315 104.548 26.8598 109.471 29.5591 110.877C29.7938 110.643 30.1472 110.407 30.382 110.172C31.3967 109.13 32.7197 108.443 34.1572 108.211C35.5947 107.979 37.0688 108.214 38.3611 108.884C40.4736 109.821 42.5866 110.76 44.6991 111.58C46.0136 112.012 47.1613 112.842 47.9815 113.955C48.8018 115.068 49.2544 116.407 49.2766 117.789V119.196C54.0534 120.016 58.9339 120.016 63.7107 119.196V118.258C63.6495 116.723 64.1022 115.211 64.9943 113.96C65.8864 112.709 67.1688 111.789 68.6412 111.344C70.7537 110.641 72.7479 109.704 74.7431 108.884C75.7417 108.343 76.8673 108.081 78.0026 108.122C79.1379 108.163 80.2413 108.508 81.1979 109.12C82.0195 109.588 82.7236 110.291 83.5452 110.877C87.4708 108.13 90.8859 104.718 93.6378 100.798C93.403 100.564 93.2857 100.33 93.051 100.096C90.5864 97.5178 90.2348 95.0576 91.7604 91.7767C92.6993 89.7847 93.403 87.6746 94.2246 85.5655C94.6203 84.3952 95.3361 83.3586 96.2899 82.572C97.2436 81.7854 98.3993 81.2813 99.625 81.1142C100.329 80.997 101.151 81.1146 101.972 80.9974C102.09 79.2398 102.322 77.5984 102.44 75.958H88.1227ZM28.9723 75.8413C30.0285 85.684 34.6051 93.3009 43.1725 97.9879C52.9135 103.261 62.7736 102.791 72.0452 96.5804C79.3215 91.7762 83.1935 84.6294 84.0151 75.8413H28.9723ZM66.4109 32.0172H46.5764V71.7401H50.3334L50.4503 71.6234V64.2404C50.5676 62.6 51.2713 61.8969 52.9144 61.8969H58.3125C62.4202 61.8969 62.5371 61.8965 62.5371 66.1148V71.7401H66.4109V32.0172ZM80.4942 71.7401V49.4768C80.524 48.8667 80.3421 48.2652 79.9785 47.7741C79.6149 47.2829 79.0928 46.9314 78.5 46.7808C75.9181 46.0778 73.2179 45.3743 70.5185 44.554V71.7401H80.4942ZM42.4688 44.554C39.4174 45.4914 36.4838 46.313 33.5498 47.1333C32.7283 47.3676 32.4931 47.601 32.4931 48.5384V70.6851C32.4931 71.0366 32.61 71.3886 32.61 71.7401H42.4688V44.554ZM54.5579 65.8813V71.7401H58.4294V65.8813H54.5579Z" fill="url(#paint0_radial_2059_124)"/>
<path d="M20.5236 61.781H16.5329V48.0701C16.5575 47.7645 16.4786 47.4601 16.3082 47.205C16.1379 46.9499 15.8851 46.7598 15.5931 46.6649C14.1847 45.9618 12.8938 45.375 11.4854 44.5548C11.2407 44.4209 10.959 44.3728 10.6832 44.4152C10.4073 44.4576 10.1542 44.5894 9.96112 44.7905C8.86715 45.5667 7.54244 45.9528 6.2019 45.8891C4.86136 45.8253 3.58161 45.3145 2.56646 44.4381C1.79817 43.7929 1.20536 42.9665 0.840423 42.0328C0.475486 41.0991 0.350675 40.0884 0.478254 39.0943C0.605833 38.1001 0.980422 37.1528 1.56935 36.3411C2.15827 35.5294 2.94143 34.8794 3.8478 34.4484C4.75418 34.0175 5.75654 33.8211 6.75891 33.8763C7.76128 33.9314 8.73174 34.2365 9.5852 34.7643C10.4387 35.292 11.1476 36.0258 11.6436 36.8972C12.1396 37.7686 12.4079 38.7489 12.4252 39.7511C12.4335 40.0353 12.5282 40.3107 12.6957 40.5406C12.8633 40.7706 13.0968 40.9441 13.3651 41.0395C15.2428 41.977 17.2361 42.9144 19.1139 43.9689C19.4438 44.1793 19.7288 44.4548 19.9506 44.7768C20.1723 45.0988 20.3281 45.4627 20.4067 45.8456C20.5241 51.1185 20.5236 56.3909 20.5236 61.781ZM6.44029 41.8612C6.95994 41.8565 7.4593 41.6635 7.84771 41.3188C8.23611 40.9741 8.48587 40.5015 8.55141 39.9868C8.55266 39.7095 8.49898 39.4331 8.39325 39.1766C8.28753 38.9202 8.13351 38.6885 7.9371 38.4924C7.74069 38.2963 7.5063 38.1402 7.24944 38.0346C6.99258 37.9291 6.71806 37.8755 6.44029 37.8767C5.91115 37.8767 5.40245 38.0867 5.02829 38.4603C4.65413 38.8339 4.44378 39.3395 4.44378 39.8678C4.44378 40.3961 4.65413 40.904 5.02829 41.2776C5.40245 41.6511 5.91115 41.8612 6.44029 41.8612Z" fill="url(#paint1_radial_2059_124)"/>
<path d="M96.452 61.7798H92.4613V60.4913C92.4613 55.9215 92.5786 51.3507 92.4613 46.6637C92.3957 46.0507 92.5333 45.4324 92.851 44.9038C93.1686 44.3752 93.6491 43.965 94.2217 43.7343C96.0995 42.9141 97.9786 41.9758 99.739 41.0384C100.12 40.7564 100.373 40.335 100.443 39.8666C100.5 38.4832 101.013 37.1575 101.905 36.0973C102.797 35.0372 104.016 34.3025 105.371 34.0078C106.644 33.7791 107.958 33.9628 109.119 34.5319C110.28 35.1011 111.228 36.0274 111.826 37.1729C112.45 38.3641 112.65 39.73 112.394 41.0498C112.138 42.3696 111.443 43.5642 110.418 44.4369C109.369 45.2907 108.073 45.7857 106.721 45.849C105.369 45.9123 104.032 45.5414 102.907 44.7894C102.722 44.6566 102.506 44.5742 102.279 44.5536C102.052 44.533 101.822 44.5753 101.616 44.6726C100.208 45.2585 98.8002 45.9607 97.3918 46.6637C97.0844 46.772 96.8223 46.9815 96.6514 47.2587C96.4806 47.536 96.4103 47.8651 96.452 48.1879C96.5694 52.1719 96.452 56.2712 96.452 60.3723V61.7798ZM106.428 37.8755C105.916 37.8957 105.433 38.1163 105.082 38.4889C104.731 38.8614 104.54 39.3551 104.55 39.8666C104.529 40.1337 104.566 40.4023 104.658 40.6539C104.751 40.9055 104.897 41.1349 105.087 41.3244C105.277 41.5139 105.504 41.66 105.756 41.7524C106.008 41.8448 106.277 41.8818 106.545 41.86C106.801 41.8605 107.056 41.8081 107.292 41.7066C107.528 41.6052 107.742 41.4562 107.918 41.2695C108.094 41.0828 108.229 40.863 108.316 40.6218C108.404 40.3807 108.44 40.1225 108.424 39.8666C108.408 39.3433 108.192 38.8476 107.821 38.4774C107.451 38.1073 106.952 37.8914 106.428 37.8755Z" fill="url(#paint2_radial_2059_124)"/>
<path d="M36.478 39.8686H32.4872V27.9176C32.5303 27.5433 32.4773 27.1652 32.3337 26.8168C32.19 26.4684 31.9612 26.1621 31.6666 25.9266C31.4319 25.8094 31.1976 25.456 30.9629 25.2217C29.9067 24.0499 29.0838 23.2306 27.206 23.8165C24.8588 24.5195 22.1604 22.761 21.1041 20.5347C20.5378 19.3505 20.3691 18.0163 20.6228 16.7287C20.8765 15.4411 21.5381 14.2692 22.5115 13.3874C23.5089 12.5853 24.7239 12.1004 26.0003 11.9959C27.2767 11.8915 28.5553 12.1722 29.6701 12.8015C30.7189 13.4737 31.5316 14.4566 31.9944 15.6119C32.4573 16.7672 32.5487 18.0373 32.2534 19.2462C32.0187 20.3008 32.1356 21.0043 32.9571 21.473C36.0085 23.6993 36.947 26.5115 36.5949 30.2611C36.3805 33.3029 36.3418 36.3555 36.478 39.4017V39.8686ZM26.5023 15.9666C25.9899 15.9555 25.4933 16.1446 25.1201 16.4953C24.7469 16.846 24.5279 17.3297 24.5081 17.841C24.4911 18.1029 24.5258 18.3663 24.6112 18.6145C24.6967 18.8628 24.8308 19.0912 25.0055 19.2874C25.1801 19.4836 25.3921 19.6427 25.629 19.7565C25.8658 19.8704 26.1229 19.9349 26.3854 19.9488C26.9283 19.9578 27.4531 19.7557 27.8478 19.3835C28.2425 19.0113 28.4745 18.4994 28.4965 17.9577C28.4817 17.4341 28.267 16.9367 27.8959 16.5662C27.5249 16.1958 27.0268 15.9814 26.5023 15.9666Z" fill="url(#paint3_radial_2059_124)"/>
<path d="M80.4891 39.8686H76.4984V26.8626C76.467 26.3008 76.5551 25.74 76.7574 25.2148C76.9597 24.6896 77.2716 24.2125 77.672 23.8165C78.6109 23.1134 79.3164 22.1765 80.2553 21.3563C80.5535 21.1584 80.7668 20.8563 80.8536 20.5095C80.9404 20.1627 80.8928 19.7966 80.7229 19.4819C80.406 18.2679 80.4743 16.9857 80.9155 15.811C81.3567 14.6363 82.151 13.6248 83.1894 12.9183C84.2505 12.2285 85.5029 11.8916 86.7675 11.9548C88.0321 12.0179 89.2441 12.4787 90.231 13.2707C91.2172 14.0379 91.9309 15.1012 92.2688 16.3031C92.6067 17.5049 92.5506 18.7812 92.1084 19.9488C91.693 21.1335 90.9132 22.1581 89.8803 22.8736C88.8475 23.5891 87.6141 23.9594 86.3572 23.9332H85.7704C85.0662 23.816 84.1283 23.3487 83.7762 23.5831C82.6335 24.5477 81.5722 25.605 80.606 26.7459C80.3713 26.9802 80.4891 27.4489 80.4891 27.9176V39.8686ZM88.4706 17.9577C88.4815 17.4462 88.29 16.9502 87.9388 16.5777C87.5876 16.2052 87.103 15.9868 86.591 15.9666C86.3197 15.9522 86.0484 15.9922 85.7933 16.0857C85.5382 16.1791 85.3055 16.3228 85.1079 16.509C84.9104 16.6953 84.753 16.9192 84.6449 17.1682C84.5369 17.4171 84.4809 17.6864 84.4799 17.9577C84.4947 18.4814 84.7094 18.9788 85.0804 19.3492C85.4514 19.7196 85.9496 19.934 86.4741 19.9488C86.7367 19.951 86.9966 19.9016 87.2397 19.8023C87.4827 19.703 87.705 19.5575 87.8907 19.3721C88.0764 19.1867 88.2221 18.9648 88.3216 18.7221C88.4211 18.4794 88.4728 18.2199 88.4706 17.9577Z" fill="url(#paint4_radial_2059_124)"/>
<path d="M58.5528 25.9257H54.5621V24.5182C54.5621 20.6514 54.4447 16.6679 54.5621 12.684C54.5883 12.3633 54.5109 12.0425 54.342 11.7685C54.1732 11.4946 53.9207 11.2809 53.6223 11.1598C52.4329 10.528 51.4943 9.51138 50.961 8.27614C50.4277 7.04091 50.3315 5.66205 50.6882 4.36495C51.0252 3.0829 51.7918 1.95395 52.859 1.16551C53.9261 0.377071 55.2298 -0.0249387 56.5563 0.0280852C57.8759 0.019673 59.1604 0.454203 60.2032 1.26163C61.246 2.06906 61.9872 3.20351 62.3074 4.48167C62.6635 5.76202 62.5669 7.12563 62.0324 8.34251C61.4978 9.5594 60.558 10.5541 59.3734 11.1598C59.0903 11.2682 58.8471 11.4617 58.6789 11.7136C58.5107 11.9655 58.4249 12.2646 58.4336 12.5672C58.551 16.6684 58.5528 20.651 58.5528 24.6349V25.9257ZM58.5528 5.88686C58.5047 5.36505 58.2597 4.88245 57.8674 4.53431C57.4752 4.18617 56.9641 3.99901 56.4394 4.01251C56.1737 4.01666 55.9108 4.07586 55.6692 4.18644C55.4276 4.29703 55.2131 4.45728 55.0366 4.6556C54.86 4.85392 54.7263 5.08739 54.6446 5.33989C54.5629 5.59239 54.535 5.85862 54.5621 6.12259C54.582 6.63387 54.8009 7.1153 55.1741 7.46598C55.5473 7.81667 56.0439 8.00808 56.5563 7.99694C57.0843 7.93604 57.5735 7.69159 57.9385 7.30578C58.3034 6.91998 58.5221 6.41664 58.5528 5.88686Z" fill="url(#paint5_radial_2059_124)"/>
<path d="M20.4051 69.7467H16.5312V65.998H20.4051V69.7467Z" fill="url(#paint6_radial_2059_124)"/>
<path d="M92.5859 69.7467V65.998H96.4575V69.7467H92.5859Z" fill="url(#paint7_radial_2059_124)"/>
<path d="M62.4155 45.9629V49.8283H50.5625V45.9629H62.4155Z" fill="url(#paint8_radial_2059_124)"/>
<path d="M62.4155 41.8619H50.5625V37.9941H62.4155V41.8619Z" fill="url(#paint9_radial_2059_124)"/>
<path d="M62.4155 53.9297V57.7974H50.5625V53.9297H62.4155Z" fill="url(#paint10_radial_2059_124)"/>
<path d="M72.5156 53.8127V49.9473H78.3837V53.8127H72.5156Z" fill="url(#paint11_radial_2059_124)"/>
<path d="M72.6328 57.9141H78.3817V61.7818H72.6328V57.9141Z" fill="url(#paint12_radial_2059_124)"/>
<path d="M34.6094 49.9473H40.4774V53.8127H34.6094V49.9473Z" fill="url(#paint13_radial_2059_124)"/>
<path d="M40.3605 61.7818H34.6094V57.9141H40.3605V61.7818Z" fill="url(#paint14_radial_2059_124)"/>
</g>
<defs>
<radialGradient id="paint0_radial_2059_124" cx="0" cy="0" r="1" gradientUnits="userSpaceOnUse" gradientTransform="translate(56.4949 75.8245) scale(49.9481 47.9085)">
<stop stop-color="#24B0B3"/>
<stop offset="1" stop-color="#6306FC"/>
</radialGradient>
<radialGradient id="paint1_radial_2059_124" cx="0" cy="0" r="1" gradientUnits="userSpaceOnUse" gradientTransform="translate(10.4767 47.8241) scale(10.047 13.9569)">
<stop stop-color="#24B0B3"/>
<stop offset="1" stop-color="#6306FC"/>
</radialGradient>
<radialGradient id="paint2_radial_2059_124" cx="0" cy="0" r="1" gradientUnits="userSpaceOnUse" gradientTransform="translate(102.474 47.846) scale(10.0287 13.9338)">
<stop stop-color="#24B0B3"/>
<stop offset="1" stop-color="#6306FC"/>
</radialGradient>
<radialGradient id="paint3_radial_2059_124" cx="0" cy="0" r="1" gradientUnits="userSpaceOnUse" gradientTransform="translate(28.5864 25.9216) scale(8.07858 13.947)">
<stop stop-color="#24B0B3"/>
<stop offset="1" stop-color="#6306FC"/>
</radialGradient>
<radialGradient id="paint4_radial_2059_124" cx="0" cy="0" r="1" gradientUnits="userSpaceOnUse" gradientTransform="translate(84.4895 25.9079) scale(7.99728 13.9607)">
<stop stop-color="#24B0B3"/>
<stop offset="1" stop-color="#6306FC"/>
</radialGradient>
<radialGradient id="paint5_radial_2059_124" cx="0" cy="0" r="1" gradientUnits="userSpaceOnUse" gradientTransform="translate(56.4975 12.9746) scale(6.02092 12.9511)">
<stop stop-color="#24B0B3"/>
<stop offset="1" stop-color="#6306FC"/>
</radialGradient>
<radialGradient id="paint6_radial_2059_124" cx="0" cy="0" r="1" gradientUnits="userSpaceOnUse" gradientTransform="translate(18.4682 67.8724) scale(1.93692 1.87435)">
<stop stop-color="#24B0B3"/>
<stop offset="1" stop-color="#6306FC"/>
</radialGradient>
<radialGradient id="paint7_radial_2059_124" cx="0" cy="0" r="1" gradientUnits="userSpaceOnUse" gradientTransform="translate(94.5217 67.8724) scale(1.93577 1.87435)">
<stop stop-color="#24B0B3"/>
<stop offset="1" stop-color="#6306FC"/>
</radialGradient>
<radialGradient id="paint8_radial_2059_124" cx="0" cy="0" r="1" gradientUnits="userSpaceOnUse" gradientTransform="translate(56.489 47.8956) scale(5.92651 1.93271)">
<stop stop-color="#24B0B3"/>
<stop offset="1" stop-color="#6306FC"/>
</radialGradient>
<radialGradient id="paint9_radial_2059_124" cx="0" cy="0" r="1" gradientUnits="userSpaceOnUse" gradientTransform="translate(56.489 39.928) scale(5.92651 1.93386)">
<stop stop-color="#24B0B3"/>
<stop offset="1" stop-color="#6306FC"/>
</radialGradient>
<radialGradient id="paint10_radial_2059_124" cx="0" cy="0" r="1" gradientUnits="userSpaceOnUse" gradientTransform="translate(56.489 55.8635) scale(5.92651 1.93385)">
<stop stop-color="#24B0B3"/>
<stop offset="1" stop-color="#6306FC"/>
</radialGradient>
<radialGradient id="paint11_radial_2059_124" cx="0" cy="0" r="1" gradientUnits="userSpaceOnUse" gradientTransform="translate(75.4496 51.88) scale(2.93402 1.93271)">
<stop stop-color="#24B0B3"/>
<stop offset="1" stop-color="#6306FC"/>
</radialGradient>
<radialGradient id="paint12_radial_2059_124" cx="0" cy="0" r="1" gradientUnits="userSpaceOnUse" gradientTransform="translate(75.5072 59.8479) scale(2.87443 1.93385)">
<stop stop-color="#24B0B3"/>
<stop offset="1" stop-color="#6306FC"/>
</radialGradient>
<radialGradient id="paint13_radial_2059_124" cx="0" cy="0" r="1" gradientUnits="userSpaceOnUse" gradientTransform="translate(37.5434 51.88) scale(2.93403 1.93271)">
<stop stop-color="#24B0B3"/>
<stop offset="1" stop-color="#6306FC"/>
</radialGradient>
<radialGradient id="paint14_radial_2059_124" cx="0" cy="0" r="1" gradientUnits="userSpaceOnUse" gradientTransform="translate(37.485 59.8479) scale(2.87558 1.93385)">
<stop stop-color="#24B0B3"/>
<stop offset="1" stop-color="#6306FC"/>
</radialGradient>
</defs>
</svg>
