<svg width="116" height="116" viewBox="0 0 116 116" fill="none" xmlns="http://www.w3.org/2000/svg">
<path d="M116 91.987C115.927 92.1535 115.827 92.3109 115.785 92.4834C114.659 97.1627 110.964 100.129 106.139 100.135C95.7178 100.153 85.2967 100.141 74.8786 100.141H73.4379C74.1855 101.639 74.8363 103.023 75.5808 104.357C75.7019 104.575 76.2195 104.642 76.5615 104.66C78.2535 104.754 79.9787 104.633 81.6343 104.911C85.9565 105.635 89.1921 109.5 89.3404 113.886C89.3889 115.317 88.7744 115.992 87.3337 115.992C67.7779 115.998 48.2191 115.998 28.6633 115.992C27.2225 115.992 26.6111 115.317 26.6596 113.879C26.8291 108.949 30.8789 104.872 35.8215 104.687C37.0292 104.642 38.2399 104.702 39.4445 104.648C39.7472 104.633 40.2103 104.43 40.3041 104.194C40.8247 102.911 41.2576 101.591 41.7691 100.138C41.2273 100.138 40.8247 100.138 40.4252 100.138C30.3825 100.138 20.3397 100.138 10.297 100.138C4.07703 100.138 0 96.0792 0 89.8774C0 68.6205 0 47.3637 0 26.1099C0 19.9596 4.07097 15.8734 10.1971 15.8644C12.5005 15.8613 14.8038 15.8583 17.1072 15.8644C18.4359 15.8674 19.2229 16.4879 19.2501 17.52C19.2773 18.5915 18.4601 19.2543 17.0769 19.2604C14.5859 19.2695 12.0918 19.2362 9.60083 19.2725C6.12311 19.3209 3.41417 21.9935 3.40811 25.4713C3.38693 43.7437 3.39903 62.0192 3.39903 80.2917C3.39903 80.44 3.42325 80.5853 3.44141 80.8092H112.601C112.601 80.4097 112.601 80.0102 112.601 79.6076C112.601 61.7861 112.601 43.9677 112.601 26.1462C112.601 21.7877 110.074 19.2634 105.715 19.2634C100.957 19.2634 96.2021 19.2634 91.444 19.2634C91.1413 19.2634 90.8387 19.2785 90.539 19.2573C89.5069 19.1787 88.7956 18.4553 88.8229 17.523C88.8471 16.6301 89.5311 15.8886 90.5118 15.8856C96.0992 15.8704 101.693 15.7493 107.274 15.9521C111.233 16.0974 114.496 19.0334 115.616 22.8713C115.731 23.2587 115.873 23.6401 116.003 24.0245V91.9931L116 91.987ZM3.41114 84.3324C3.41114 86.6115 3.3385 88.7635 3.4293 90.9095C3.57156 94.3267 6.37433 96.742 10.0912 96.742C42.0233 96.745 73.9555 96.742 105.888 96.742C106.151 96.742 106.417 96.742 106.681 96.7329C109.229 96.6088 111.747 94.9562 112.207 92.4713C112.695 89.8138 112.592 87.0474 112.746 84.3324H3.41114ZM71.8822 104.675C71.1527 103.216 70.508 101.866 69.7967 100.553C69.6787 100.335 69.264 100.159 68.9856 100.159C61.3249 100.138 53.6642 100.138 46.0035 100.156C45.7553 100.156 45.3558 100.301 45.2831 100.48C44.7504 101.827 44.2843 103.198 43.7546 104.684C45.0016 104.684 46.058 104.63 47.1083 104.699C48.0587 104.763 48.6489 105.353 48.6882 106.31C48.7276 107.272 48.1646 107.85 47.2354 108.044C46.9448 108.104 46.6331 108.074 46.3334 108.074C42.9737 108.074 39.6171 108.047 36.2574 108.086C33.7876 108.117 31.9412 109.267 30.7426 111.428C30.558 111.761 30.4581 112.139 30.3098 112.514H85.6448C84.8487 109.715 82.503 108.08 79.3522 108.08C71.3131 108.077 63.2741 108.08 55.2381 108.074C54.0092 108.074 53.2526 107.411 53.2435 106.397C53.2344 105.371 53.979 104.705 55.2018 104.684C56.3338 104.666 57.4658 104.681 58.5978 104.681C62.9684 104.681 67.339 104.681 71.8822 104.681V104.675Z" fill="url(#paint0_linear_1920_2116)"/>
<path d="M79.752 -0.000879505C81.9706 0.783047 83.6656 2.0906 84.1468 4.53924C84.2618 5.12643 84.277 5.73783 84.277 6.33712C84.283 16.9459 84.283 27.5516 84.283 38.1603V39.6465C84.7552 39.6465 85.1547 39.6465 85.5573 39.6465C89.71 39.6465 93.8627 39.6374 98.0154 39.6465C103.93 39.6616 108.055 43.781 108.073 49.6892C108.085 53.3879 108.082 57.0896 108.073 60.7883C108.064 64.4476 105.703 66.8175 102.062 66.8297C98.8235 66.8387 95.5849 66.8297 92.2161 66.8297C92.2161 68.113 92.2282 69.3086 92.2161 70.5041C92.1798 73.9243 89.7766 76.3397 86.3412 76.3427C67.4664 76.3518 48.5916 76.3518 29.7169 76.3427C26.221 76.3427 23.8026 73.9274 23.8026 70.4345C23.7935 48.9174 23.7966 27.4002 23.8026 5.88311C23.8026 2.76557 25.5551 0.985839 28.3336 -0.00390625H79.7641L79.752 -0.000879505ZM81.0717 72.9528C81.0081 71.4303 80.8931 69.9775 80.8931 68.5216C80.881 47.8338 80.884 27.143 80.884 6.45517C80.884 4.12155 80.1697 3.39815 77.8542 3.39815C61.9971 3.39815 46.14 3.39815 30.2829 3.39815C27.8887 3.39815 27.1865 4.10339 27.1865 6.5036C27.1865 27.6091 27.1865 48.7116 27.1865 69.817C27.1865 72.2808 27.8675 72.9528 30.3646 72.9528C46.8997 72.9528 63.4378 72.9528 79.9729 72.9528H81.0717ZM92.2101 63.4336C95.7029 63.4336 99.0233 63.4579 102.341 63.4215C103.793 63.4064 104.659 62.453 104.665 60.9245C104.683 57.0381 104.698 53.1488 104.662 49.2624C104.629 45.7877 101.884 43.0636 98.4815 43.0455C95.0219 43.0273 92.2646 45.7635 92.2161 49.2927C92.1889 51.1784 92.2101 53.067 92.2101 54.9527C92.2101 57.7373 92.2101 60.5219 92.2101 63.4306V63.4336ZM84.28 43.0879V43.9747C84.28 52.7311 84.28 61.4874 84.28 70.2438C84.28 70.4708 84.2709 70.6978 84.3012 70.9218C84.4525 72.078 85.3999 72.9346 86.5228 72.9437C87.6457 72.9528 88.6234 72.1113 88.7808 70.9612C88.8322 70.5889 88.811 70.2075 88.811 69.8292C88.811 63.1491 88.808 56.4691 88.8201 49.786C88.8201 49.0717 88.7868 48.3181 88.9957 47.6552C89.486 46.1055 90.1156 44.5982 90.6846 43.0848H84.283L84.28 43.0879Z" fill="url(#paint1_linear_1920_2116)"/>
<path d="M57.9448 92.21C55.4568 92.21 52.9718 92.2161 50.4839 92.21C49.1733 92.204 48.3984 91.5623 48.3984 90.512C48.3984 89.4648 49.1703 88.8201 50.4839 88.817C55.4962 88.811 60.5054 88.811 65.5177 88.817C66.8283 88.817 67.6031 89.4648 67.6031 90.512C67.6031 91.5593 66.8283 92.204 65.5177 92.207C62.9934 92.2161 60.4691 92.207 57.9448 92.207V92.21Z" fill="url(#paint2_linear_1920_2116)"/>
<path d="M53.983 15.8594C65.2032 15.8836 74.3348 25.0698 74.3106 36.3081C74.2864 47.5252 65.0942 56.663 53.8589 56.6357C42.6418 56.6115 33.5071 47.4223 33.5313 36.184C33.5555 24.9639 42.7387 15.8352 53.98 15.8594H53.983ZM53.8771 53.2397C63.2539 53.2549 70.8965 45.6517 70.9146 36.29C70.9328 26.9101 63.3326 19.2706 53.9679 19.2554C44.585 19.2403 36.9485 26.8374 36.9334 36.2022C36.9182 45.5821 44.5184 53.2246 53.8801 53.2397H53.8771Z" fill="url(#paint3_linear_1920_2116)"/>
<path d="M53.931 11.3303C49.5574 11.3303 45.1838 11.3425 40.8101 11.3152C40.3107 11.3122 39.6176 11.2395 39.3573 10.9217C38.985 10.4617 38.6369 9.63234 38.8125 9.16622C39.0122 8.63957 39.778 8.06146 40.3531 7.99487C41.8059 7.8284 43.289 7.93737 44.757 7.93737C51.997 7.93737 59.2369 7.93737 66.4769 7.93737C66.7796 7.93737 67.0823 7.92526 67.3819 7.94039C68.5048 7.99487 69.2191 8.69102 69.1889 9.6838C69.1616 10.6312 68.4655 11.3092 67.394 11.3213C64.9423 11.3485 62.4937 11.3303 60.042 11.3334C58.005 11.3334 55.9711 11.3334 53.9341 11.3334L53.931 11.3303Z" fill="url(#paint4_linear_1920_2116)"/>
<path d="M66.7247 65.0222C69.2127 65.0222 71.7037 65.0162 74.1917 65.0222C75.5235 65.0252 76.3074 65.6367 76.3407 66.6627C76.377 67.7342 75.5598 68.4122 74.1857 68.4152C69.2067 68.4213 64.2307 68.4213 59.2517 68.4152C57.9139 68.4152 57.139 67.8068 57.1027 66.7717C57.0664 65.6972 57.8806 65.0252 59.2578 65.0222C61.7458 65.0162 64.2368 65.0222 66.7247 65.0222Z" fill="url(#paint5_linear_1920_2116)"/>
<path d="M52.1021 45.8361C51.3061 45.4729 50.5221 45.1944 49.8199 44.7737C48.8847 44.2137 48.6577 43.2815 49.1298 42.4461C49.602 41.6168 50.4889 41.408 51.4877 41.8347C51.9962 42.0527 52.541 42.3008 53.0767 42.3251C54.0937 42.3674 54.9987 41.5078 55.2075 40.4727C55.3982 39.5223 54.8716 38.4902 53.9242 38.0634C53.5156 37.8788 53.0646 37.794 52.6378 37.6518C50.4283 36.9011 49.1026 35.3363 48.7787 33.0662C48.4549 30.7901 49.2933 28.8772 51.2486 27.6211C51.9931 27.1429 52.2232 26.6465 52.205 25.8142C52.1778 24.546 52.8316 23.8165 53.8425 23.7862C54.8988 23.753 55.5647 24.4824 55.5586 25.8293C55.5586 26.5133 55.8008 26.7827 56.4243 27.037C57.1386 27.3275 57.8166 27.7967 58.3947 28.3143C59.2604 29.0921 59.2876 30.0789 58.6036 30.8143C57.9437 31.5226 56.9752 31.5075 56.0793 30.775C54.6718 29.6188 52.9829 29.9003 52.3261 31.3985C51.7117 32.7969 52.4744 34.1256 54.2178 34.5766C56.4182 35.1456 57.9044 36.4623 58.4522 38.6718C59.0455 41.0659 58.2857 43.0848 56.3486 44.577C55.7372 45.0491 55.4255 45.491 55.5284 46.2417C55.5647 46.502 55.5405 46.7683 55.5223 47.0316C55.4588 48.0063 54.8958 48.5511 53.9636 48.6752C53.104 48.7902 52.3049 48.094 52.1657 47.1497C52.1021 46.7078 52.1172 46.2507 52.0991 45.8391L52.1021 45.8361Z" fill="url(#paint6_linear_1920_2116)"/>
<defs>
<linearGradient id="paint0_linear_1920_2116" x1="58.0015" y1="15.8359" x2="58.0015" y2="115.997" gradientUnits="userSpaceOnUse">
<stop stop-color="#4FA9B6"/>
<stop offset="1" stop-color="#6215F7"/>
</linearGradient>
<linearGradient id="paint1_linear_1920_2116" x1="65.939" y1="-0.00390625" x2="65.939" y2="76.3495" gradientUnits="userSpaceOnUse">
<stop stop-color="#4FA9B6"/>
<stop offset="1" stop-color="#6215F7"/>
</linearGradient>
<linearGradient id="paint2_linear_1920_2116" x1="58.0008" y1="88.8125" x2="58.0008" y2="92.2127" gradientUnits="userSpaceOnUse">
<stop stop-color="#4FA9B6"/>
<stop offset="1" stop-color="#6215F7"/>
</linearGradient>
<linearGradient id="paint3_linear_1920_2116" x1="53.921" y1="15.8594" x2="53.921" y2="56.6358" gradientUnits="userSpaceOnUse">
<stop stop-color="#4FA9B6"/>
<stop offset="1" stop-color="#6215F7"/>
</linearGradient>
<linearGradient id="paint4_linear_1920_2116" x1="53.9777" y1="7.90234" x2="53.9777" y2="11.3365" gradientUnits="userSpaceOnUse">
<stop stop-color="#4FA9B6"/>
<stop offset="1" stop-color="#6215F7"/>
</linearGradient>
<linearGradient id="paint5_linear_1920_2116" x1="66.7217" y1="65.0195" x2="66.7217" y2="68.4197" gradientUnits="userSpaceOnUse">
<stop stop-color="#4FA9B6"/>
<stop offset="1" stop-color="#6215F7"/>
</linearGradient>
<linearGradient id="paint6_linear_1920_2116" x1="53.8973" y1="23.7852" x2="53.8973" y2="48.6876" gradientUnits="userSpaceOnUse">
<stop stop-color="#4FA9B6"/>
<stop offset="1" stop-color="#6215F7"/>
</linearGradient>
</defs>
</svg>
