<svg width="273" height="273" viewBox="0 0 273 273" fill="none" xmlns="http://www.w3.org/2000/svg">
<path d="M182.043 36.117H201.43C195.049 29.7434 188.475 23.1699 182.043 16.7463V36.117ZM9.10632 245.762C9.10632 249.162 8.94802 252.269 9.13965 255.36C9.46458 260.559 13.547 263.817 19.4874 263.817C97.4701 263.825 175.453 263.825 253.436 263.825C253.969 263.825 254.502 263.833 255.035 263.8C259.359 263.533 263.034 260.634 263.558 256.368C263.983 252.911 263.642 249.353 263.642 245.804H173.012C171.712 251.686 168.671 254.685 163.614 254.71C145.493 254.777 127.372 254.769 109.251 254.71C104.469 254.694 101.128 251.661 100.178 246.92C100.095 246.521 99.9529 246.137 99.8363 245.762H9.10632ZM22.9199 236.556H26.3858C50.6305 236.556 74.8835 236.548 99.1281 236.564C104.694 236.573 107.685 238.931 109.059 244.271C109.168 244.688 109.293 245.104 109.409 245.521H163.464C165.463 238.289 167.771 236.556 175.253 236.556H249.92V227.466H246.571C225.783 227.466 204.996 227.466 184.218 227.45C182.985 227.45 181.693 227.441 180.535 227.083C178.294 226.408 177.253 224.709 177.486 222.393C177.702 220.193 179.002 218.818 181.193 218.485C182.243 218.318 183.318 218.36 184.384 218.36H250.111V214.861V79.4908C250.111 78.4243 250.111 77.3579 250.045 76.2915C249.695 70.5094 245.496 64.794 239.797 64.2358C232.799 63.5526 225.683 64.0692 218.352 64.0692V67.1768C218.352 86.4476 218.36 105.727 218.343 125.006C218.343 126.147 218.343 127.33 218.085 128.438C217.535 130.721 215.927 131.879 213.603 131.796C211.278 131.721 209.787 130.446 209.395 128.122C209.204 126.997 209.245 125.822 209.245 124.672C209.237 99.4447 209.237 74.2169 209.237 48.9892V45.44C200.197 45.44 191.591 45.4566 182.985 45.4316C176.361 45.4066 172.812 41.8408 172.795 35.1922C172.77 27.4606 172.795 19.7373 172.787 12.0057C172.778 11.0726 172.704 10.1394 172.654 9.08133H70.851C64.7774 9.08133 63.6609 10.1728 63.6609 16.1714C63.6526 52.3218 63.6609 88.4721 63.6526 124.622C63.6526 125.864 63.6943 127.13 63.4526 128.338C63.0194 130.521 61.5364 131.713 59.3286 131.804C57.1374 131.896 55.5127 130.871 54.8962 128.738C54.5629 127.572 54.5546 126.28 54.5546 125.047C54.538 105.685 54.5379 86.3226 54.5379 66.9602V63.6609C48.6143 63.6609 43.1238 63.6276 37.6334 63.6693C28.2604 63.7276 22.7866 69.2264 22.7866 78.641C22.7783 124.206 22.7783 169.771 22.7866 215.344C22.7866 216.277 22.8783 217.21 22.9449 218.36H160.939C162.089 218.36 163.256 218.318 164.397 218.468C166.763 218.777 168.071 220.335 168.229 222.576C168.379 224.834 167.255 226.567 164.964 227.142C163.78 227.441 162.506 227.45 161.273 227.45C116.324 227.466 71.3842 227.466 26.4358 227.466H22.9199V236.556ZM65.5522 0H178.552C179.794 0.991446 181.127 1.88292 182.243 2.99101C193.382 14.0802 204.463 25.2444 215.644 36.3003C217.56 38.1999 218.46 40.2411 218.385 42.9072C218.268 46.698 218.352 50.4888 218.352 54.5463H235.156C239.58 54.538 243.838 55.2461 247.687 57.5623C255.727 62.3862 259.259 69.593 259.251 78.8992C259.184 130.246 259.218 181.593 259.218 232.94V236.581C262.517 236.581 265.425 236.506 268.332 236.598C270.89 236.673 272.756 238.206 272.806 240.622C272.923 246.121 273.256 251.686 272.631 257.118C271.548 266.541 263.85 272.89 254.186 272.89C175.661 272.906 97.1285 272.898 18.5959 272.898C18.3293 272.898 18.0627 272.898 17.7961 272.89C10.0644 272.673 3.42424 267.749 0.941459 260.392C0.66652 259.576 0.308265 258.785 0 257.976V239.322C1.64963 237.031 3.89081 236.298 6.66519 236.523C8.9147 236.706 11.1892 236.556 13.6803 236.556V232.707V80.0323C13.6803 78.6076 13.697 77.1913 13.772 75.7666C14.3635 64.994 22.9033 55.8043 33.6842 54.8712C39.4996 54.3713 45.39 54.6296 51.247 54.5463C52.2718 54.5296 53.2966 54.5463 54.5379 54.5463V50.9804C54.5379 38.8997 54.5546 26.8274 54.5379 14.7467C54.5296 8.83138 56.8208 4.24906 62.1863 1.44968C63.2694 0.891471 64.4274 0.483226 65.5522 0Z" fill="url(#paint0_linear_1820_519)"/>
<path d="M82.0449 104.412H122.569V82.109H82.0449V104.412ZM102.065 113.669C94.2505 113.669 86.4356 113.677 78.6206 113.66C74.2799 113.652 72.8052 112.227 72.7969 107.962C72.7636 98.1054 72.7552 88.2493 72.7969 78.3931C72.8136 74.319 74.3549 72.811 78.4956 72.8027C94.3838 72.7777 110.28 72.7777 126.168 72.8027C130.309 72.811 131.851 74.319 131.867 78.3931C131.901 88.3409 131.909 98.2804 131.859 108.228C131.842 112.161 130.284 113.644 126.302 113.66C118.22 113.685 110.139 113.669 102.065 113.669ZM150.313 104.387H190.754V82.059H150.313V104.387ZM170.592 113.669C162.685 113.669 154.787 113.677 146.881 113.66C142.44 113.652 141.032 112.236 141.015 107.728C140.99 98.0471 140.99 88.3659 141.015 78.693C141.032 74.2524 142.482 72.8027 146.947 72.8027C162.669 72.7777 178.382 72.786 194.095 72.8027C198.694 72.8027 200.085 74.219 200.094 78.893C200.119 88.4826 200.119 98.0721 200.094 107.662C200.085 112.294 198.702 113.652 194.028 113.66C186.214 113.677 178.399 113.669 170.592 113.669ZM222.814 177.288C222.764 174.797 220.598 172.731 218.148 172.839C215.79 172.939 213.791 174.997 213.774 177.346C213.749 179.854 215.79 181.87 218.34 181.854C220.914 181.837 222.864 179.854 222.814 177.288ZM213.749 164.416C213.749 162.375 213.907 160.233 213.674 158.134C213.574 157.267 212.816 156.268 212.083 155.701C207.525 152.168 202.918 148.703 198.261 145.303C196.37 143.92 195.495 142.254 195.561 139.888C195.67 136.08 195.578 132.256 195.595 128.449C195.611 124.9 197.361 122.783 200.185 122.825C203.001 122.867 204.651 124.966 204.668 128.574C204.676 131.323 204.534 134.089 204.743 136.822C204.818 137.863 205.451 139.171 206.259 139.813C210.783 143.387 215.39 146.853 220.064 150.236C222.047 151.669 223.064 153.41 222.839 155.859C222.78 156.568 222.889 157.284 222.822 157.992C222.456 161.783 223.055 164.474 226.838 167.099C234.644 172.514 233.378 184.545 224.988 189.127C223.172 190.127 222.73 191.177 222.797 193.051C222.922 196.767 222.872 200.499 222.814 204.224C222.772 207.231 221.031 209.123 218.398 209.173C215.699 209.223 213.807 207.24 213.766 204.14C213.707 200.15 213.824 196.15 213.691 192.16C213.657 191.31 213.099 190.093 212.408 189.71C207.4 186.894 204.551 182.778 204.726 176.996C204.884 171.339 207.834 167.348 212.908 164.907C213.149 164.791 213.366 164.641 213.749 164.416ZM59.1749 181.854C61.7493 181.829 63.6573 179.837 63.5906 177.255C63.5323 174.838 61.5744 172.881 59.1916 172.839C56.7338 172.797 54.6093 174.897 54.6009 177.371C54.5926 179.879 56.6255 181.879 59.1749 181.854ZM81.8949 134.297C83.6695 141.188 80.2702 145.387 74.7215 148.719C71.8471 150.452 69.381 152.86 66.5566 154.693C64.2904 156.151 63.4823 157.909 63.5656 160.6C63.6406 163.058 63.9905 164.607 66.4316 166.065C75.188 171.298 74.7465 184.211 65.7568 189.16C64.0572 190.093 63.5656 191.077 63.6156 192.868C63.7322 196.592 63.6989 200.325 63.6323 204.057C63.5656 207.29 61.8077 209.189 59.0916 209.164C56.4005 209.148 54.6259 207.206 54.5593 203.999C54.4843 200.091 54.4926 196.184 54.5593 192.276C54.5926 190.877 54.1843 190.085 52.868 189.385C48.0774 186.844 45.4613 182.728 45.5029 177.313C45.5446 171.922 48.194 167.915 52.9263 165.207C53.7011 164.766 54.0344 163.524 54.5176 162.625C54.6342 162.425 54.5343 162.1 54.5343 161.833C54.6426 150.536 53.4095 153.468 62.2242 146.653C65.0319 144.479 67.8313 142.287 70.764 140.288C72.3637 139.205 72.9135 137.947 72.8219 136.072C72.6803 133.423 72.7386 130.748 72.7969 128.082C72.8719 124.85 74.5715 122.883 77.2293 122.833C79.987 122.783 81.7949 124.816 81.8866 128.174C81.9449 130.215 81.8949 132.256 81.8949 134.297ZM190.937 163.666C190.896 161.083 188.921 159.2 186.322 159.275C183.914 159.342 181.964 161.308 181.939 163.699C181.906 166.14 184.039 168.298 186.48 168.29C188.971 168.282 190.971 166.207 190.937 163.666ZM181.881 191.077C181.881 186.994 181.848 182.912 181.906 178.829C181.923 177.396 181.665 176.496 180.173 175.713C175.383 173.197 172.808 169.04 172.858 163.633C172.9 158.35 175.458 154.343 180.107 151.744C182.306 150.519 182.648 148.286 180.831 146.395C178.873 144.337 176.766 142.421 174.874 140.313C174.016 139.355 173.041 138.122 172.958 136.955C172.7 133.598 172.7 130.207 172.916 126.849C173.075 124.4 175.141 122.8 177.449 122.833C179.865 122.883 181.64 124.658 181.856 127.266C181.864 127.357 181.881 127.449 181.864 127.532C180.665 133.139 183.389 137.005 187.547 140.188C190.346 142.329 191.479 145.103 190.987 148.561C190.754 150.177 191.396 151.044 192.895 151.844C197.586 154.343 200.052 158.392 200.052 163.733C200.052 169.073 197.553 173.114 192.904 175.647C191.429 176.455 190.937 177.28 190.954 178.904C191.029 187.252 191.012 195.601 190.971 203.94C190.954 207.29 189.096 209.281 186.297 209.173C183.731 209.081 181.964 207.165 181.906 204.132C181.823 199.783 181.889 195.426 181.881 191.077Z" fill="url(#paint1_linear_1820_519)"/>
<path d="M95.4456 163.872C95.5123 161.289 93.596 159.306 91.0216 159.273C88.4638 159.239 86.4059 161.247 86.4143 163.747C86.4226 166.096 88.4055 168.171 90.7633 168.287C93.2128 168.412 95.379 166.363 95.4456 163.872ZM86.3893 176.727C78.9409 172.578 76.0666 167.121 77.7662 160.447C78.7576 156.54 81.0405 153.574 84.6397 151.766C85.9144 151.125 86.6559 150.433 86.3893 148.95C85.6894 145.018 87.3141 142.043 90.3551 139.727C94.2625 136.736 96.3121 133.104 95.6289 127.913C95.4456 126.505 96.8453 124.372 98.145 123.456C99.1115 122.772 101.086 123.447 102.594 123.672C103.019 123.739 103.427 124.322 103.727 124.747C105.568 127.263 104.71 138.177 102.502 140.419C100.636 142.318 98.7282 144.176 96.862 146.067C94.5791 148.383 94.8541 150.3 97.5701 151.883C102.061 154.499 104.502 158.398 104.535 163.638C104.569 168.996 102.111 173.045 97.4785 175.586C95.9038 176.444 95.4123 177.319 95.4373 179.027C95.5206 187.192 95.4789 195.356 95.4623 203.521C95.4623 207.154 93.821 209.178 90.9466 209.178C88.0972 209.17 86.3976 207.096 86.3893 203.505C86.3726 194.548 86.3893 185.592 86.3893 176.727ZM122.715 195.506C122.681 192.965 120.615 190.966 118.116 191.057C115.724 191.132 113.758 193.132 113.717 195.506C113.675 197.998 115.716 200.047 118.241 200.047C120.823 200.047 122.748 198.089 122.715 195.506ZM122.765 156.857C122.765 164.755 122.798 172.653 122.74 180.551C122.723 182.068 123.164 182.868 124.564 183.609C130.255 186.608 132.987 192.799 131.513 198.889C130.055 204.888 124.506 209.262 118.299 209.295C112.217 209.328 106.618 205.063 105.085 199.231C103.444 193.007 106.043 186.792 111.85 183.676C113.408 182.843 113.692 181.893 113.692 180.343C113.642 165.163 113.658 149.991 113.658 134.811C113.658 134.103 113.642 133.395 113.667 132.687C113.783 129.354 115.575 127.33 118.349 127.396C121.065 127.455 122.731 129.354 122.748 132.629C122.79 140.702 122.765 148.783 122.765 156.857ZM163.672 195.548C163.656 193.015 161.589 190.991 159.09 191.049C156.607 191.107 154.549 193.282 154.641 195.731C154.733 198.131 156.724 200.039 159.14 200.055C161.714 200.072 163.681 198.106 163.672 195.548ZM163.697 156.532C163.697 164.522 163.731 172.52 163.672 180.51C163.664 181.984 164.005 182.826 165.447 183.584C171.196 186.608 173.953 192.84 172.429 198.831C170.862 204.979 165.455 209.22 159.207 209.203C153.016 209.187 147.584 205.013 146.068 199.089C144.46 192.824 147.068 186.692 152.95 183.592C154.449 182.801 154.633 181.876 154.633 180.46C154.599 165.096 154.608 149.733 154.616 134.37C154.616 133.57 154.574 132.762 154.633 131.97C154.841 129.229 156.707 127.371 159.207 127.388C161.748 127.396 163.614 129.238 163.664 132.02C163.747 136.544 163.697 141.077 163.697 145.609V156.532ZM90.9216 31.8926C85.8144 31.9092 81.8819 35.9167 81.9319 41.0489C81.9819 46.0061 85.9477 49.9969 90.88 50.0552C95.8205 50.1052 100.061 45.9228 100.086 40.9656C100.111 35.9667 95.9788 31.8759 90.9216 31.8926ZM72.8256 40.574C73.0506 30.3679 81.2654 22.5696 91.5298 22.8196C101.394 23.0528 109.334 31.3094 109.176 41.1655C109.026 51.2383 100.603 59.3532 90.5384 59.1282C80.5572 58.9033 72.609 50.5718 72.8256 40.574ZM131.879 63.6605C127.622 63.6605 123.373 63.6939 119.124 63.6439C115.741 63.6022 113.7 61.8276 113.717 59.1032C113.733 56.3788 115.791 54.5792 119.157 54.5626C127.663 54.5209 136.162 54.5126 144.668 54.5626C148.042 54.5792 150.067 56.3871 150.059 59.1365C150.05 61.8776 148.042 63.6022 144.635 63.6439C140.386 63.6939 136.128 63.6605 131.879 63.6605ZM152.241 45.4146C150.025 45.4146 147.801 45.4896 145.585 45.3979C142.885 45.2896 141.177 43.5983 141.077 41.1239C140.977 38.5578 142.685 36.5082 145.451 36.4166C150.059 36.2583 154.674 36.2583 159.282 36.4082C162.039 36.5082 163.764 38.5744 163.664 41.1239C163.572 43.59 161.864 45.2813 159.165 45.3979C156.857 45.4896 154.549 45.4146 152.241 45.4146ZM170.412 63.6272C168.196 63.6272 165.98 63.7189 163.764 63.6022C161.039 63.4606 159.356 61.761 159.273 59.3115C159.182 56.7037 160.84 54.7292 163.656 54.6292C168.263 54.4709 172.879 54.4709 177.486 54.6292C180.294 54.7375 181.943 56.7287 181.843 59.3282C181.752 61.7943 180.077 63.4606 177.328 63.6022C175.028 63.7189 172.72 63.6272 170.412 63.6272ZM122.856 45.4062C121.265 45.4062 119.657 45.4896 118.074 45.3812C115.599 45.2229 113.875 43.49 113.725 41.1822C113.575 38.916 115.141 36.6915 117.557 36.5165C121.082 36.2749 124.647 36.2666 128.163 36.5582C130.596 36.7498 131.988 38.941 131.796 41.3238C131.621 43.5816 130.03 45.1396 127.647 45.3896C127.472 45.4146 127.289 45.4229 127.114 45.4229H122.856V45.4062Z" fill="url(#paint2_linear_1820_519)"/>
<defs>
<linearGradient id="paint0_linear_1820_519" x1="136.5" y1="0" x2="136.5" y2="272.9" gradientUnits="userSpaceOnUse">
<stop stop-color="#630DFA"/>
<stop offset="1" stop-color="#4FA6B7"/>
</linearGradient>
<linearGradient id="paint1_linear_1820_519" x1="138.773" y1="72.7839" x2="138.773" y2="209.177" gradientUnits="userSpaceOnUse">
<stop stop-color="#630DFA"/>
<stop offset="1" stop-color="#4FA6B7"/>
</linearGradient>
<linearGradient id="paint2_linear_1820_519" x1="127.334" y1="22.8137" x2="127.334" y2="209.295" gradientUnits="userSpaceOnUse">
<stop stop-color="#630DFA"/>
<stop offset="1" stop-color="#4FA6B7"/>
</linearGradient>
</defs>
</svg>
