<svg width="281" height="277" viewBox="0 0 281 277" fill="none" xmlns="http://www.w3.org/2000/svg">
<path d="M229.667 134.337C231.144 133.351 231.736 131.665 232.717 130.308C233.535 129.177 232.46 128.812 231.771 128.351C229.513 126.843 227.238 125.356 224.981 123.851C221.608 121.603 221.722 121.68 219.328 124.951C218.193 126.501 218.504 127.145 219.995 128.017C222.253 129.337 224.393 130.861 226.583 132.3C227.555 132.938 228.524 133.582 229.667 134.337ZM183.171 37.0429C176.281 30.1529 169.169 23.0378 162.1 15.9683C162.1 22.3197 162.102 29.0729 162.097 35.8233C162.097 36.9061 162.787 37.0486 163.642 37.0486C170.395 37.0429 177.148 37.0429 183.171 37.0429ZM190.349 30.1728C190.588 30.7684 190.614 31.1132 190.796 31.2385C197.923 36.2764 200.54 43.1264 199.089 51.652C198.963 52.4042 198.955 53.279 199.836 53.6836C203.955 55.5785 207.643 58.1858 211.705 61.2432C211.705 50.9624 211.705 41.2771 211.708 31.5947C211.708 30.6316 211.224 30.1728 210.272 30.1728H190.349ZM211.54 181.863V133.975C207.589 137.076 203.838 139.595 199.73 141.526C198.735 141.994 199.094 143.065 199.086 143.897C199.057 147.396 199.217 150.904 199.04 154.395C198.807 158.922 198.903 163.239 202.615 166.613C203.373 167.303 203.749 168.411 204.285 169.334C206.569 173.272 208.849 177.213 211.54 181.863ZM263.626 160.963C267.072 160.945 270.011 158.82 271.117 155.543C272.266 152.149 271.183 148.605 267.887 146.368C260.188 141.142 252.369 136.095 244.635 130.924C243.464 130.14 242.845 130.3 242.104 131.465C239.977 134.819 237.817 138.158 235.525 141.401C234.513 142.832 234.556 143.538 236.123 144.547C243.703 149.422 251.2 154.432 258.711 159.415C260.214 160.413 261.827 160.957 263.626 160.963ZM179.477 57.67C157.562 57.6957 139.537 75.7612 139.6 97.6393C139.663 119.637 157.547 137.415 179.611 137.406C201.634 137.4 219.465 119.54 219.45 97.5025C219.433 75.5361 201.478 57.6444 179.477 57.67ZM120.629 268.595C149.99 268.595 179.351 268.601 208.715 268.578C210.032 268.578 211.666 269.202 211.777 266.711C211.888 264.281 210.75 264.09 208.798 264.093C188.479 264.144 168.157 264.067 147.838 264.161C141.878 264.19 136.906 262.298 133.406 257.459C132.151 255.721 130.906 255.211 128.876 255.214C96.9839 255.274 65.0945 255.257 33.2051 255.257C32.7176 255.257 32.2273 255.305 31.7484 255.248C30.1179 255.049 29.4822 255.687 29.5563 257.368C29.6675 259.89 29.7673 262.437 29.5364 264.942C29.2713 267.783 30.0381 268.692 33.1253 268.677C62.2924 268.538 91.4595 268.595 120.629 268.595ZM131.921 198.678C123.956 198.652 115.989 198.647 108.021 198.59C104.951 198.567 103.081 196.985 102.976 194.492C102.867 191.922 104.817 190.201 108.013 190.067C109.754 189.993 111.496 189.941 113.238 189.882C114.392 190.013 115.544 190.258 116.698 190.261C130.606 190.315 144.517 190.306 158.425 190.4C160.002 190.409 160.86 189.902 161.624 188.551C165.575 181.553 169.645 174.623 173.636 167.647C177.005 161.755 181.982 158.586 188.835 158.766C190.414 158.808 190.873 158.415 190.828 156.876C190.731 153.768 190.591 150.636 190.862 147.55C191.096 144.84 189.998 144.624 187.778 145.006C175.073 147.188 163.311 144.698 152.596 137.543C151.128 136.563 149.722 136.209 148.021 136.212C134.791 136.246 121.564 136.224 108.335 136.207C104.832 136.201 103.19 134.882 103.175 132.12C103.161 129.339 104.789 128.003 108.284 128C118.691 127.992 129.099 128.014 139.509 127.983C140.19 127.983 141.051 128.422 141.621 127.516C135.051 118.831 131.385 109.114 131.353 98.1721C131.348 96.2658 130.296 96.5137 129.127 96.5166C122.317 96.5251 115.51 96.528 108.7 96.5166C105.025 96.5109 103.252 95.1545 103.224 92.3792C103.192 89.4898 104.803 88.256 108.609 88.2617C115.709 88.2703 122.81 88.2902 129.908 88.2703C130.806 88.2674 132.134 88.729 132.38 87.404C133.252 82.7452 135.253 78.491 137.271 73.9404C135.857 73.9404 134.808 73.9432 133.762 73.9404C125.008 73.9233 116.254 73.9062 107.5 73.8862C104.985 73.8805 103.426 72.7436 103.238 70.1335C103.064 67.7115 104.606 65.9933 107.206 65.6741C107.973 65.5801 108.76 65.6371 109.538 65.6371C120.042 65.6513 130.547 65.6656 141.051 65.6969C142.328 65.6998 143.38 65.5915 144.429 64.54C156.792 52.1164 171.558 47.0986 188.949 50.3127C189.539 50.4239 190.286 50.763 190.748 49.9309C191.868 47.9221 190.434 45.5285 188.077 45.5285C178.642 45.52 169.209 45.5371 159.774 45.52C154.848 45.5114 153.525 44.1893 153.522 39.3481C153.517 29.9192 153.442 20.4847 153.579 11.0559C153.611 8.8618 153.043 8.36314 150.874 8.37169C127.046 8.45717 103.215 8.42013 79.3844 8.43153C75.1086 8.43438 70.8327 8.51131 66.5568 8.55406C48.2704 8.52556 29.9839 8.54266 11.6975 8.40588C9.23172 8.38879 8.45636 8.85325 8.45921 11.5289C8.54473 88.9313 8.54473 166.334 8.46491 243.736C8.46206 246.369 9.17756 246.919 11.7032 246.913C49.251 246.828 86.8016 246.856 124.349 246.848C126.091 246.848 128.067 247.23 129.503 246.54C130.78 245.927 130.148 243.696 130.812 242.312C131.479 240.915 132.1 239.488 132.864 238.143C135.692 233.165 138.582 228.224 141.419 223.249C141.766 222.633 142.496 222.092 142.069 221.046H139.229C129.21 221.026 119.193 221.006 109.173 220.983C108.589 220.983 108.004 221.006 107.423 220.966C104.729 220.79 103.096 219.234 103.067 216.852C103.036 214.361 104.777 212.632 107.591 212.62C118.583 212.586 129.595 212.25 140.561 212.78C145.985 213.042 149.38 211.583 151.142 206.5C151.173 206.408 151.182 206.309 151.202 206.215C152.656 203.801 154.109 201.385 155.743 198.678H131.921ZM159.851 208.44C153.271 219.767 146.669 231.079 140.13 242.425C136.134 249.361 139.842 255.727 147.864 255.747C158.756 255.775 169.645 255.755 180.534 255.755C196.774 255.755 213.014 255.784 229.251 255.738C236.483 255.721 240.644 249.515 237.255 243.477C230.89 232.133 224.237 220.952 217.703 209.705C217.133 208.594 216.611 207.457 215.99 206.377C209.319 194.783 202.68 183.168 195.933 171.617C192.193 165.217 184.742 165.277 180.933 171.628C180.135 172.959 179.368 174.307 178.599 175.654C172.347 186.582 166.099 197.51 159.851 208.44ZM220.1 138.29C220.1 157.586 220.115 176.352 220.072 195.116C220.069 196.475 220.579 197.532 221.212 198.632C228.937 211.985 236.702 225.312 244.345 238.713C249.518 247.782 246.234 258.522 237.215 262.674C233.92 264.187 230.434 264.178 226.925 264.17C220.115 264.15 220.115 264.164 220.1 270.874C220.092 275.892 218.989 276.998 213.926 276.998C151.675 277.001 89.4213 277.001 27.1704 276.998C22.179 276.998 21.0246 275.824 21.0217 270.817C21.0189 266.831 20.845 262.833 21.0787 258.861C21.2441 256.086 20.6967 254.917 17.5583 255.18C13.5019 255.519 9.39705 255.282 5.30932 255.257C1.4924 255.234 0.021502 253.786 0.0129508 249.985C-0.00985385 240.166 0.00439904 230.347 0.00439904 220.527V6.71901C0.00439904 1.05146 0.979296 0.0541471 6.53507 0.0541471C56.1437 0.0541471 105.749 0.0740936 155.355 7.54765e-06C158.303 -0.00284172 160.475 0.800703 162.533 2.94349C168.12 8.76777 173.947 14.3612 179.594 20.1257C180.774 21.3338 181.937 21.841 183.636 21.8296C193.946 21.7527 204.257 21.7812 214.567 21.7954C218.761 21.8011 220.095 23.1489 220.098 27.3861C220.106 41.1917 220.12 55.0001 220.072 68.8057C220.066 70.4242 220.454 71.7805 221.258 73.1824C228.19 85.2584 229.661 98.0467 225.824 111.385C225.251 113.382 225.636 114.283 227.312 115.292C230.471 117.192 233.507 119.304 236.554 121.381C237.455 121.994 238.002 122.21 238.923 121.221C240.633 119.381 242.663 119.514 244.709 120.868C254.179 127.142 263.737 133.289 273.118 139.691C280.575 144.786 282.363 154.68 277.471 162.137C272.648 169.488 262.939 171.936 255.41 167.229C245.616 161.105 236.061 154.6 226.417 148.237C224.741 147.131 223.581 145.464 224.413 143.55C225.214 141.709 224.596 140.959 223.153 140.196C222.238 139.709 221.386 139.099 220.1 138.29Z" fill="url(#paint0_linear_1820_923)"/>
<path d="M71.0649 144.895C68.0025 147.417 64.9599 149.962 61.8719 152.453C58.8265 154.91 57.5465 154.876 54.4925 152.422C50.871 149.513 47.2522 146.6 43.6193 143.702C40.9741 141.587 40.4036 139.364 42.0015 137.237C43.5768 135.139 46.0744 134.963 48.6373 136.935C51.3251 138.999 53.9306 141.166 56.5389 143.329C57.6316 144.238 58.4888 144.582 59.7461 143.389C62.1273 141.132 64.7016 139.079 67.1964 136.938C68.3232 136.041 69.3989 135.071 70.5852 134.259C73.0233 132.591 74.6666 130.684 74.1245 127.367C73.8804 125.875 73.7101 125.115 71.9987 125.181C68.4452 125.315 64.8861 125.275 61.3298 125.306C54.1661 125.278 47.0053 125.295 39.8445 125.189C38.1132 125.167 37.4803 125.656 37.4916 127.481C37.5626 138.063 37.5569 148.644 37.4973 159.229C37.4859 161.051 37.9855 161.859 39.9438 161.848C50.4963 161.785 61.046 161.785 71.5956 161.848C73.5569 161.859 74.1075 161.051 74.045 159.226C73.9258 155.833 73.9627 152.434 73.9372 149.037V142.788C72.467 143.136 71.8028 144.067 71.0649 144.895ZM82.449 161.925C81.8445 170.115 81.8445 170.115 73.5909 170.115C60.7168 170.115 47.8426 170.118 34.9684 170.112C30.521 170.109 29.2267 168.845 29.221 164.467C29.2069 150.389 29.2069 136.312 29.2239 122.232C29.2296 118.126 30.5096 116.834 34.5938 116.808C42.3365 116.763 50.082 116.763 57.8246 116.746C63.5294 116.817 69.2314 116.922 74.9362 116.954C81.5919 116.991 81.8728 117.218 82.3979 123.783C83.062 123.88 83.4168 123.333 83.9078 123.071C85.9911 121.955 87.9069 122.243 89.309 124.139C90.7139 126.035 90.3847 127.948 88.7555 129.633C88.6221 129.773 88.4916 129.935 88.3241 130.02C82.5058 133.101 81.6543 138.16 82.1538 144.181C82.6392 150.062 82.3809 156.006 82.449 161.925ZM51.4017 76.8617C53.1075 78.2766 54.8899 79.6089 56.4963 81.1291C57.765 82.3333 58.6761 82.1711 59.9221 81.075C63.555 77.8838 67.1169 74.5701 71.045 71.7773C73.764 69.8443 74.3033 67.5441 74.0791 64.5806C73.9854 63.3393 73.554 62.8753 72.3307 62.8895C65.3771 62.9721 58.4263 63.012 51.4727 63.066C47.5105 63.0233 43.5484 63.0034 39.5834 62.9294C38.1132 62.9009 37.5115 63.5158 37.5143 65.0076C37.5427 75.8711 37.5512 86.7374 37.503 97.6008C37.4973 99.1865 38.1614 99.5851 39.5891 99.5538C44.1302 99.4541 48.6742 99.437 53.2153 99.3915C59.5871 99.4427 65.9589 99.494 72.3279 99.5538C73.2815 99.5623 74.0507 99.4456 74.045 98.1901C74.0252 92.3485 74.0365 86.5096 74.0365 79.9705C69.9324 83.4493 66.4131 86.4356 62.8937 89.4191C58.8833 92.8153 57.9608 92.8324 53.9561 89.6497C53.3573 89.1743 52.6704 88.8127 52.0233 88.3971C48.9807 85.8833 45.9211 83.3895 42.9013 80.8473C40.9003 79.1677 40.52 77.1379 42.0356 74.9601C43.4207 72.9701 45.8246 72.7908 48.1803 74.422C49.2844 75.1878 50.3289 76.0447 51.4017 76.8617ZM56.0819 107.895C48.9268 107.901 41.7716 107.932 34.6165 107.904C30.5493 107.886 29.2296 106.56 29.2239 102.512C29.204 88.3458 29.204 74.1829 29.2239 60.0199C29.2267 55.9718 30.572 54.6594 34.608 54.6394C40.6023 54.6081 46.5966 54.5882 52.5938 54.5654C59.9362 54.6024 67.2816 54.6508 74.6269 54.6708C81.484 54.6878 81.7905 54.9441 82.4235 61.5658C83.2068 61.6967 83.5729 60.9338 84.1831 60.726C86.1671 60.0513 88.0318 60.1224 89.3544 62.0099C90.6401 63.8489 90.3449 65.651 88.9343 67.3107C88.6874 67.601 88.3979 67.8943 88.0687 68.0765C82.9287 70.8635 81.7338 75.202 82.1226 80.8416C82.6193 87.9814 82.2503 95.1839 82.2418 102.361C82.2361 106.437 80.9447 107.758 76.9542 107.784C69.9977 107.827 63.0384 107.858 56.0819 107.895Z" fill="url(#paint1_linear_1820_923)"/>
<path d="M136.466 158.756C127.141 158.756 117.816 158.753 108.493 158.756C106.135 158.756 103.927 158.395 103.212 155.723C102.406 152.71 104.357 150.567 108.015 150.553C118.795 150.514 129.579 150.553 140.36 150.573C148.52 150.584 156.68 150.579 164.838 150.646C168.205 150.672 169.754 151.995 169.794 154.617C169.839 157.37 168.002 158.866 164.442 158.871C155.117 158.891 145.791 158.877 136.466 158.877V158.756Z" fill="url(#paint2_linear_1820_923)"/>
<path d="M74.1647 204.493C69.7479 208.181 65.9548 211.312 62.1987 214.491C59.5532 216.729 57.594 216.923 54.9428 214.857C50.9561 211.754 47.0177 208.589 43.1135 205.384C40.8923 203.56 40.5791 200.871 42.2108 198.959C43.8112 197.087 46.1036 196.981 48.4387 198.782C51.2066 200.917 53.9205 203.123 56.6543 205.307C57.4118 205.912 58.1265 206.731 59.1773 205.849C63.9443 201.856 68.7854 197.949 73.4129 193.802C75.0105 192.372 74.3697 190.031 73.9568 188.242C73.598 186.689 71.784 187.463 70.6364 187.457C60.4332 187.4 50.2299 187.443 40.0266 187.4C38.4433 187.394 37.5121 187.591 37.5264 189.569C37.6061 200.283 37.5833 210.995 37.5406 221.71C37.5349 223.2 38.0019 223.779 39.5425 223.773C50.4264 223.728 61.3102 223.739 72.1912 223.762C73.4613 223.765 74.196 223.482 74.1846 221.992C74.1334 216.458 74.1647 210.924 74.1647 204.493ZM82.6366 185.864C83.5023 185.385 84.049 184.959 84.6698 184.76C86.7344 184.092 88.5569 184.508 89.7786 186.392C90.929 188.156 90.7012 189.923 89.3058 191.481C88.7249 192.129 88.0984 192.806 87.358 193.228C83.1378 195.631 82.124 199.196 82.3831 203.931C82.8046 211.603 82.5141 219.312 82.4885 227.007C82.4771 230.852 81.0419 232.353 77.2402 232.361C62.9562 232.393 48.6722 232.393 34.3882 232.359C30.7375 232.35 29.2367 230.837 29.2282 227.215C29.2026 212.802 29.2026 198.388 29.2282 183.975C29.2367 180.216 30.7346 178.797 34.6331 178.792C48.2365 178.774 61.8399 178.786 75.4433 178.786C81.4946 178.786 82.2293 179.477 82.6366 185.864Z" fill="url(#paint3_linear_1820_923)"/>
<path d="M184.238 212.063C184.293 206.855 184.337 201.643 184.403 196.434C184.446 193.171 185.788 191.624 188.527 191.621C191.158 191.618 192.722 193.351 192.763 196.423C192.832 201.828 192.861 207.233 192.905 212.638C192.87 217.192 192.844 221.75 192.795 226.304C192.757 229.692 191.308 231.413 188.535 231.422C185.754 231.43 184.331 229.758 184.296 226.318C184.25 221.568 184.256 216.817 184.238 212.063Z" fill="url(#paint4_linear_1820_923)"/>
<path d="M188.446 238.056C190.786 238.116 192.611 240.093 192.511 242.467C192.42 244.678 190.556 246.49 188.361 246.507C185.975 246.524 184.168 244.684 184.177 242.242C184.186 239.854 186.084 237.994 188.446 238.056ZM179.5 73.0444C165.814 73.0472 154.815 83.9431 154.752 97.5602C154.692 111.075 165.814 122.23 179.372 122.256C192.941 122.284 204.079 111.226 204.111 97.6941C204.145 84.1113 193.089 73.0415 179.5 73.0444ZM212.484 97.7027C212.407 115.993 197.695 130.721 179.497 130.732C161.145 130.741 146.324 115.89 146.364 97.5374C146.404 79.2332 161.356 64.4051 179.665 64.5162C197.855 64.6245 212.564 79.4982 212.484 97.7027Z" fill="url(#paint5_linear_1820_923)"/>
<defs>
<linearGradient id="paint0_linear_1820_923" x1="140.105" y1="0" x2="140.105" y2="277" gradientUnits="userSpaceOnUse">
<stop stop-color="#630DFA"/>
<stop offset="1" stop-color="#4FA6B7"/>
</linearGradient>
<linearGradient id="paint1_linear_1820_923" x1="59.7015" y1="54.5654" x2="59.7015" y2="170.116" gradientUnits="userSpaceOnUse">
<stop stop-color="#630DFA"/>
<stop offset="1" stop-color="#4FA6B7"/>
</linearGradient>
<linearGradient id="paint2_linear_1820_923" x1="136.413" y1="150.536" x2="136.413" y2="158.882" gradientUnits="userSpaceOnUse">
<stop stop-color="#630DFA"/>
<stop offset="1" stop-color="#4FA6B7"/>
</linearGradient>
<linearGradient id="paint3_linear_1820_923" x1="59.8619" y1="178.782" x2="59.8619" y2="232.385" gradientUnits="userSpaceOnUse">
<stop stop-color="#630DFA"/>
<stop offset="1" stop-color="#4FA6B7"/>
</linearGradient>
<linearGradient id="paint4_linear_1820_923" x1="188.571" y1="191.621" x2="188.571" y2="231.422" gradientUnits="userSpaceOnUse">
<stop stop-color="#630DFA"/>
<stop offset="1" stop-color="#4FA6B7"/>
</linearGradient>
<linearGradient id="paint5_linear_1820_923" x1="179.425" y1="64.5156" x2="179.425" y2="246.508" gradientUnits="userSpaceOnUse">
<stop stop-color="#630DFA"/>
<stop offset="1" stop-color="#4FA6B7"/>
</linearGradient>
</defs>
</svg>
