<svg width="289" height="269" viewBox="0 0 289 269" fill="none" xmlns="http://www.w3.org/2000/svg">
<path d="M47.1819 148.997C49.4739 148.978 51.4188 146.983 51.394 144.676C51.3692 142.358 49.4052 140.418 47.1056 140.441C44.7736 140.463 42.926 142.379 42.9431 144.752C42.9603 147.12 44.8556 149.016 47.1819 148.997ZM12.7454 191.916C10.4534 191.991 8.51803 194.042 8.59811 196.31C8.6801 198.64 10.6346 200.442 13.0123 200.379C15.3767 200.316 17.2149 198.384 17.1386 196.043C17.0623 193.728 15.0526 191.842 12.7454 191.916ZM42.9355 196.251C42.9736 198.667 44.8575 200.45 47.2944 200.378C49.5825 200.311 51.3768 198.5 51.4073 196.228C51.4378 193.887 49.4739 191.903 47.1342 191.907C44.7736 191.912 42.8974 193.853 42.9355 196.251ZM12.7797 123.203C15.1536 123.251 17.0852 121.427 17.1424 119.084C17.1996 116.798 15.2642 114.765 12.9761 114.702C10.7127 114.643 8.65913 116.606 8.60192 118.886C8.54281 121.209 10.4248 123.153 12.7797 123.203ZM8.60192 239.141C8.64769 241.414 10.7032 243.4 12.9589 243.352C15.2528 243.302 17.1863 241.28 17.1405 238.981C17.0947 236.64 15.1498 234.776 12.7988 234.818C10.4687 234.862 8.55425 236.833 8.60192 239.141ZM42.8935 234.778C42.8935 226.051 42.9221 217.707 42.8344 209.364C42.8268 208.793 41.9916 208.195 41.4787 207.674C39.5605 205.72 37.4115 203.956 35.7412 201.813C34.1109 199.724 25.5113 199.829 24.1365 202.201C21.4689 206.796 17.518 209.219 12.1657 208.951C7.16039 208.701 3.52225 206.154 1.32373 201.691C-1.69662 195.564 0.593429 188.447 6.74853 185.032C8.13286 184.265 8.60764 183.482 8.60383 181.939C8.55044 165.668 8.55616 149.396 8.59811 133.125C8.60192 131.716 8.25489 130.92 6.91061 130.213C2.49831 127.891 0.0995711 124.068 0.0538083 119.107C0.00804546 114.03 2.42776 110.111 6.92395 107.736C8.29875 107.01 8.62671 106.214 8.5962 104.82C8.51993 101.224 8.539 97.6284 8.58286 94.0328C8.62099 90.8438 10.2856 88.9992 12.9685 89.0488C15.5483 89.0966 17.1176 90.8858 17.15 93.9449C17.1901 97.6303 17.0585 101.32 17.2339 104.997C17.2778 105.895 18.0253 107.083 18.8032 107.562C21.6672 109.328 23.7056 111.643 24.9888 114.778C25.641 116.371 26.5943 117.952 27.7746 119.193C31.7369 123.358 35.8975 127.331 39.9037 131.454C41.023 132.608 41.944 132.944 43.62 132.451C50.6275 130.387 57.7855 134.517 59.5741 141.441C61.3512 148.312 57.1792 155.432 50.3719 157.147C43.3378 158.919 36.2617 154.77 34.742 147.641C34.2768 145.461 34.9136 143.055 34.9461 140.75C34.9594 139.891 34.9995 138.735 34.5018 138.212C30.8617 134.374 27.0901 130.662 23.4367 126.99C21.5185 128.3 19.7109 129.426 18.0481 130.738C17.5447 131.135 17.1996 132.046 17.1977 132.722C17.1519 149.265 17.1405 165.805 17.2263 182.346C17.2301 183.153 18.0596 184.06 18.6964 184.744C20.4984 186.68 22.5996 188.372 24.2071 190.452C25.7935 192.503 34.5399 192.491 35.8728 190.19C40.3899 182.397 50.391 180.996 56.4184 187.31C62.0682 193.228 60.8574 202.906 53.7451 207.023C51.8726 208.107 51.4016 209.253 51.4226 211.231C51.5122 219.95 51.4722 228.671 51.4569 237.39C51.4474 241.994 50.0726 243.375 45.5287 243.384C39.4213 243.396 33.3158 243.417 27.2121 243.365C25.763 243.354 24.9469 243.719 24.0278 245.067C22.6549 247.077 20.7806 248.867 18.7918 250.289C17.6058 251.139 17.0986 251.796 17.131 253.213C17.2187 256.896 17.1996 260.584 17.1462 264.269C17.1024 267.242 15.3901 269.045 12.7969 268.999C10.3276 268.955 8.64769 267.196 8.59239 264.376C8.51993 260.601 8.67247 256.82 8.49896 253.052C8.45701 252.149 7.7248 250.933 6.94874 250.465C1.96631 247.473 -0.720346 242.351 0.191097 237.161C1.18453 231.505 5.23264 227.375 10.7833 226.355C16.0689 225.385 21.2534 228.064 24.2623 233.214C24.6456 233.867 25.4636 234.696 26.0948 234.709C31.5596 234.828 37.0283 234.778 42.8935 234.778Z" fill="url(#paint0_linear_1820_842)"/>
<path d="M104.078 218.096H110.835C108.331 216.465 106.329 215.16 104.078 213.692V218.096ZM263.261 53.0036V46.4381H258.878C260.369 48.6717 261.66 50.6078 263.261 53.0036ZM120.606 80.2211V75.8454H114.028C116.437 77.4457 118.365 78.7294 120.606 80.2211ZM82.543 46.3713C84.0688 48.6546 85.3982 50.644 87.0709 53.1428V46.3713H82.543ZM137.8 46.3027V53.0532C139.437 50.5315 140.734 48.5344 142.183 46.3027H137.8ZM49.902 62.9223C48.3476 60.5952 47.022 58.6115 45.3551 56.1165V62.9223H49.902ZM221.394 142.906H213.281V150.972H221.394V142.906ZM213.233 234.962H221.35V226.889H213.233V234.962ZM61.9579 71.5841H53.8081V79.5954H61.9579V71.5841ZM121.266 8.67616H109.218C113.866 13.9789 118.249 18.9783 122.634 23.9778L123.135 23.7622C122.514 18.7323 121.89 13.7023 121.266 8.67616ZM192.631 62.9376C189.531 58.2929 186.714 54.0736 183.726 49.5968C180.651 54.2301 177.849 58.4513 174.87 62.9376H192.631ZM107.374 205.722C111.997 208.795 116.214 211.593 120.563 214.481V196.942C116.092 199.92 111.915 202.699 107.374 205.722ZM217.303 49.5911C214.221 54.2434 211.431 58.457 208.554 62.7984H226.113C223.126 58.3196 220.338 54.1404 217.303 49.5911ZM104.053 164.258C108.703 161.156 112.928 158.339 117.419 155.344C112.792 152.273 108.558 149.464 104.053 146.475V164.258ZM107.364 138.547C111.945 141.597 116.164 144.409 120.627 147.379V129.762C116.162 132.72 111.98 135.49 107.364 138.547ZM104.118 112.923V130.639C108.64 127.623 112.867 124.804 117.406 121.777C112.893 118.769 108.711 115.982 104.118 112.923ZM104.122 97.0601C108.642 94.0463 112.863 91.229 117.404 88.2019C112.836 85.1576 108.613 82.3422 104.122 79.3475V97.0601ZM107.359 104.986C112.001 108.07 116.212 110.866 120.557 113.752V96.2189C116.082 99.1907 111.902 101.966 107.359 104.986ZM159.053 62.9395C155.952 58.2948 153.135 54.0756 150.146 49.5988C147.072 54.2301 144.268 58.4513 141.291 62.9395H159.053ZM74.5993 49.593C71.5247 54.2186 68.7134 58.4494 65.801 62.8327H83.4185C80.4355 58.3559 77.649 54.1709 74.5993 49.593ZM107.378 172.128C111.934 175.167 116.153 177.978 120.639 180.969V163.335C116.178 166.291 111.999 169.063 107.378 172.128ZM234.106 59.6549C237.171 55.056 239.986 50.831 242.939 46.398H225.277C228.26 50.8767 231.045 55.0598 234.106 59.6549ZM191.645 46.3294C194.744 50.9759 197.557 55.1952 200.534 59.6568C203.622 55.014 206.424 50.8024 209.397 46.3294H191.645ZM175.738 46.4743H158.164C161.103 50.8825 163.919 55.1056 166.94 59.6377C169.951 55.1323 172.745 50.953 175.738 46.4743ZM250.898 49.593C247.84 54.1824 245.027 58.4074 242.054 62.8708H259.732C256.755 58.3979 253.972 54.2129 250.898 49.593ZM117.425 188.918C112.787 185.845 108.556 183.041 104.189 180.147V197.743C108.673 194.752 112.857 191.964 117.425 188.918ZM57.8191 59.6568C60.8898 55.0407 63.7011 50.8138 66.6288 46.4133H48.9942C51.9771 50.892 54.7636 55.0732 57.8191 59.6568ZM204.57 226.876H183.933V234.975H204.57V226.876ZM230.025 234.964H250.73V226.887H230.025V234.964ZM119.845 33.5227C114.059 26.9343 108.655 20.7809 102.793 14.1086C101.925 21.0727 101.154 27.2395 100.37 33.5227H119.845ZM221.394 176.527H213.319V201.385H221.394V176.527ZM217.536 86.6626C212.88 91.292 208.066 96.0759 203.538 100.576H231.486C226.721 95.8241 221.93 91.0459 217.536 86.6626ZM137.448 226.891H87.3188V234.96H137.448V226.891ZM94.5054 12.6723C81.3376 21.1357 68.721 29.2443 55.4751 37.7592H87.0766C87.5382 35.0143 89.3043 33.7096 91.9001 33.4693C92.7603 26.5967 93.5938 19.9397 94.5054 12.6723ZM250.701 176.559H230.053V201.413H250.701V176.559ZM204.536 176.551H183.876V201.408H204.536V176.551ZM183.855 218.13H250.68V210.052H183.855V218.13ZM183.85 117.396H250.768V109.329H183.85V117.396ZM183.85 167.76H250.768V159.695H183.85V167.76ZM129.016 42.2112H95.789V67.0901H129.016V42.2112ZM137.692 37.681H233.646C233.66 37.578 233.673 37.4749 233.685 37.3719C199.245 28.2543 164.805 19.1367 129.927 9.90456C130.938 18.038 131.892 25.7212 132.863 33.5456C135.67 33.6696 137.211 35.2222 137.692 37.681ZM276.077 155.238H267.748V142.91H259.492V234.929H267.605V180.735H276.041V235.036H288.48V243.337H36.9517V235.181H78.801C78.801 231.168 78.7876 227.439 78.8048 223.71C78.8219 219.752 80.2257 218.334 84.1566 218.315C87.8262 218.298 91.4958 218.311 95.379 218.311V75.687C92.1042 75.4219 87.8624 76.6217 87.1033 71.525H70.4052C70.4052 75.3609 70.4185 79.0919 70.4014 82.8209C70.3842 86.7713 68.9709 88.2019 65.0438 88.2171C60.1479 88.2381 55.2519 88.2438 50.354 88.2152C46.7417 88.1923 45.2559 86.7122 45.2292 83.1242C45.1987 79.3684 45.2216 75.6127 45.2216 71.4277C43.8617 71.4277 42.5934 71.4735 41.3307 71.4201C38.5232 71.298 36.8811 69.7854 36.8582 67.01C36.7934 58.7908 36.7266 50.5696 36.9421 42.3561C36.9784 40.9656 38.0655 39.0868 39.2461 38.32C58.5019 25.7841 77.8416 13.3742 97.2099 1.01009C98.236 0.355832 99.6837 0.121214 100.939 0.107862C108.545 0.0258413 116.159 -0.10768 123.757 0.153641C126.754 0.256644 129.75 1.21228 132.691 1.98862C177.336 13.7691 221.972 25.5877 266.612 37.3929C271.071 38.5717 271.878 39.577 271.88 44.1148C271.883 51.3727 271.891 58.6287 271.876 65.8846C271.868 69.9971 270.461 71.4086 266.375 71.4124C252.471 71.422 238.567 71.4162 224.665 71.4162H221.73C221.169 75.3094 221.339 78.4338 224.627 81.3541C230.501 86.571 235.935 92.2972 241.359 97.9967C243.322 100.059 245.281 101.159 248.167 100.843C250.326 100.604 252.536 100.747 254.72 100.81C257.651 100.896 259.234 102.454 259.269 105.411C259.328 110.744 259.332 116.077 259.267 121.411C259.231 124.339 257.615 125.954 254.665 125.958C229.744 125.987 204.822 125.987 179.902 125.954C176.974 125.95 175.393 124.306 175.36 121.353C175.303 116.02 175.299 110.685 175.362 105.354C175.398 102.42 177.002 100.919 179.963 100.799C180.312 100.785 180.672 100.741 181.01 100.803C187.876 102.071 192.9 99.4273 197.25 94.1016C200.883 89.6554 205.129 85.6478 209.462 81.8558C212.726 79.0022 213.937 75.8683 212.817 71.586H137.642C136.818 76.5053 132.779 75.4906 129.305 75.6699V218.311C132.901 218.311 136.532 218.306 140.164 218.313C144.642 218.321 145.948 219.616 145.958 224.062C145.965 227.631 145.958 231.202 145.958 234.935H158.555V193.167H166.848V234.925H175.2V142.965H166.991V184.601H158.552V182.117C158.552 168.128 158.548 154.139 158.553 140.15C158.555 135.675 159.85 134.38 164.313 134.372C169.124 134.366 173.932 134.345 178.742 134.381C182.173 134.406 183.691 135.923 183.726 139.348C183.764 143.179 183.735 147.011 183.735 150.999H204.723C204.723 147.255 204.713 143.608 204.725 139.959C204.738 135.705 206.086 134.381 210.412 134.374C215.135 134.364 219.857 134.357 224.579 134.376C228.478 134.391 229.887 135.833 229.903 139.801C229.92 143.465 229.906 147.127 229.906 150.974H250.894C250.894 147.226 250.881 143.497 250.898 139.768C250.915 135.81 252.319 134.389 256.25 134.376C261.147 134.357 266.043 134.351 270.941 134.378C274.552 134.399 276.049 135.877 276.07 139.467C276.1 144.623 276.077 149.778 276.077 155.238Z" fill="url(#paint1_linear_1820_842)"/>
<path d="M275.185 174.386H267.203V166.21H275.185V174.386ZM107.601 52.5632H115.583V60.7401H107.601V52.5632Z" fill="url(#paint2_linear_1820_842)"/>
<defs>
<linearGradient id="paint0_linear_1820_842" x1="29.992" y1="89.0479" x2="29.992" y2="269" gradientUnits="userSpaceOnUse">
<stop stop-color="#630DFA"/>
<stop offset="1" stop-color="#4FA6B7"/>
</linearGradient>
<linearGradient id="paint1_linear_1820_842" x1="162.638" y1="0" x2="162.638" y2="243.337" gradientUnits="userSpaceOnUse">
<stop stop-color="#630DFA"/>
<stop offset="1" stop-color="#4FA6B7"/>
</linearGradient>
<linearGradient id="paint2_linear_1820_842" x1="191.393" y1="52.5632" x2="191.393" y2="174.386" gradientUnits="userSpaceOnUse">
<stop stop-color="#630DFA"/>
<stop offset="1" stop-color="#4FA6B7"/>
</linearGradient>
</defs>
</svg>
