<svg width="244" height="315" viewBox="0 0 244 315" fill="none" xmlns="http://www.w3.org/2000/svg">
<path d="M20.0788 11.3169C19.6169 10.8551 19.2243 10.3222 18.5699 9.55377C27.2341 9.55377 35.4776 9.57434 43.7212 9.54068C46.9389 9.52759 49.0798 7.49709 49.0349 4.69441C48.9807 1.96464 46.8922 0.0481907 43.7941 0.0351026C35.3767 0.00892698 26.9668 -0.0378161 18.5493 0.0556694C10.4797 0.154764 3.38417 5.56943 0.914286 13.3119C0.607654 14.2804 0.299153 15.2545 0 16.223V148.647C0.0860062 148.774 0.226234 148.886 0.267368 149.026C3.20467 159.846 9.72433 164.84 20.9388 164.84H62.2238C62.4706 164.152 62.7903 163.526 63.1848 162.95C64.7404 160.635 67.3374 159.42 70.8805 159.373C71.2152 159.373 71.5424 159.366 71.8696 159.366V155.628C71.462 155.623 71.0488 155.615 70.6412 155.608C69.4128 155.576 68.291 155.381 67.2907 155.034H17.6276C32.2262 140.422 46.8847 125.758 61.5899 111.047C61.5825 109.933 61.5899 108.811 61.5899 107.695C61.5956 103.611 61.6105 99.5314 61.6236 95.4461C44.4485 112.621 27.107 129.97 9.85147 147.231C9.01759 144.561 9.42518 17.8235 10.2591 15.922C30.9455 36.6215 51.7104 57.3995 72.1968 77.8915C72.6231 77.6858 73.0568 77.4914 73.4981 77.3175C75.7604 76.4238 78.1705 75.9619 80.6535 75.9619C81.2536 75.9619 81.8557 75.99 82.4615 76.0423C82.4615 75.4758 82.4615 74.9149 82.4689 74.3484C82.4689 74.1465 82.4764 73.9464 82.4895 73.7538C61.6834 52.9477 40.883 32.1286 20.0788 11.3169ZM223.505 0.0294935C178.501 0.0220142 133.499 0.0294935 88.4969 0.0294935C87.7826 0.0294935 87.0609 -0.01164 86.3542 0.0556694C83.9049 0.294992 82.0557 2.22453 81.9548 4.59531C81.8482 7.03154 83.6842 9.17983 86.2196 9.49394C87.0815 9.60051 87.9621 9.55377 88.8297 9.55377H225.58C221.334 13.7924 217.497 17.5299 213.771 21.3815C212.69 22.4977 211.589 22.9296 210.041 22.924C196.704 22.8698 183.375 22.8904 170.037 22.8904C163.61 22.8904 157.18 22.9109 150.754 22.8773C148.471 22.8698 146.708 23.6644 145.755 25.8015C144.233 29.1913 146.755 32.409 150.96 32.409C167.153 32.4296 183.341 32.4165 199.535 32.4165H202.511C201.917 33.0971 201.644 33.4505 201.33 33.7646C188.014 47.0806 174.709 60.4228 161.387 73.7463C161.6 74.4942 161.767 75.2552 161.887 76.0442C162.042 77.0445 162.12 78.0859 162.12 79.1404C162.135 82.6648 162.141 86.1967 162.141 89.7267V90.5681C165.678 94.1056 169.21 97.6356 172.735 101.162C172.834 101.074 172.942 100.988 173.041 100.908C176.139 98.4713 179.97 97.0429 183.928 96.8297L168.176 81.0756C189.588 59.6619 211.542 37.7022 233.564 15.6808C234.39 17.9712 234.771 144.021 234.083 146.99C224.037 136.939 213.945 126.853 203.852 116.753C203.893 120.285 203.906 124.129 203.906 128.989V132.326C211.462 139.889 219.032 147.458 226.614 155.034H198.166C197.084 155.394 195.863 155.595 194.507 155.615C194.154 155.623 193.793 155.623 193.44 155.623L193.432 156.636C193.419 159.454 193.406 162.11 193.447 164.793V164.84H223.57C235.787 164.84 243.836 156.789 243.836 144.554C243.843 103.118 243.849 61.6793 243.836 20.241C243.836 8.01874 235.787 0.0294935 223.505 0.0294935Z" fill="url(#paint0_linear_1820_983)"/>
<path d="M134.847 27.6996C134.827 30.3228 132.804 32.3683 130.192 32.4057C127.561 32.4449 125.291 30.2069 125.319 27.6061C125.347 25.082 127.496 22.9468 130.046 22.9057C132.759 22.8645 134.872 24.9736 134.847 27.6996ZM70.1723 4.71533C70.2059 7.41518 68.0689 9.56721 65.3896 9.53356C62.8374 9.50177 60.7078 7.38714 60.6686 4.84434C60.6256 2.21553 62.8468 0.00554117 65.498 0.0354564C68.0932 0.0635021 70.1405 2.11457 70.1723 4.71533ZM129.741 301.077C130.655 301.417 131.629 301.596 132.632 301.617H132.738C133.78 301.617 134.801 301.43 135.748 301.077H129.741ZM129.741 301.077C130.655 301.417 131.629 301.596 132.632 301.617H132.738C133.78 301.617 134.801 301.43 135.748 301.077H129.741ZM129.741 301.077C130.655 301.417 131.629 301.596 132.632 301.617H132.738C133.78 301.617 134.801 301.43 135.748 301.077H129.741ZM129.741 301.077C130.655 301.417 131.629 301.596 132.632 301.617H132.738C133.78 301.617 134.801 301.43 135.748 301.077H129.741ZM129.741 301.077C130.655 301.417 131.629 301.596 132.632 301.617H132.738C133.78 301.617 134.801 301.43 135.748 301.077H129.741ZM129.741 301.077C130.655 301.417 131.629 301.596 132.632 301.617H132.738C133.78 301.617 134.801 301.43 135.748 301.077H129.741ZM132.632 301.617H132.738C133.78 301.617 134.801 301.43 135.748 301.077H129.741C130.655 301.417 131.629 301.596 132.632 301.617ZM190.11 120.925H179.716C179.95 117.696 178.595 114.284 181.672 111.72C181.986 111.461 182.306 111.24 182.641 111.066C184.181 110.219 185.885 110.279 187.5 111.281C190.422 113.089 190.23 115.759 190.116 118.535C190.076 119.33 190.056 120.132 190.11 120.925ZM179.864 131.579H189.975V141.731H179.864V131.579ZM148.264 225.148H132.738V222.678C132.738 216.858 132.764 211.037 132.733 205.224C132.705 201.238 130.769 199.236 126.845 199.223C116.859 199.189 106.867 199.189 96.881 199.223C92.9696 199.236 91.0401 201.246 91.027 205.251C90.9989 211.832 91.0195 218.413 91.0195 225.135H75.5739V173.318H148.264V225.148ZM117.199 304.414V256.74H138.826C141.649 272.554 144.486 288.387 147.35 304.414H117.199ZM85.9339 235.908H137.779V246.001H85.9339V235.908ZM106.486 304.414H76.4078C79.246 288.507 82.0748 272.681 84.9187 256.735H106.486V304.414ZM85.9937 152.392H96.0864V162.584H85.9937V152.392ZM85.646 141.712H75.4804V121.174H85.646V141.712ZM75.4673 94.2461C75.5533 91.5762 77.9708 89.6934 80.6071 89.7065C81.2933 89.7065 81.9477 89.8411 82.5497 90.0673C84.3577 90.7741 85.674 92.4306 85.7338 94.5658C85.8741 99.7599 85.7731 104.967 85.7731 110.419H75.4131C75.4131 105.967 75.3345 101.588 75.4 97.2227C75.4131 96.228 75.4336 95.2408 75.4673 94.2461ZM96.2939 73.8215C96.3257 70.8711 98.5021 68.9285 101.292 68.8537C104.102 68.7882 106.506 70.6374 106.559 73.5261C106.693 81.5695 106.626 89.6205 106.618 97.864C106.613 98.5857 106.613 99.313 106.613 100.04H96.6997C96.5463 99.8665 96.3407 99.7393 96.3407 99.6066C96.3201 95.5811 96.2939 91.5556 96.2734 87.5302C96.2528 82.9587 96.2528 78.3873 96.2939 73.8215ZM117.16 63.3941C117.186 60.4381 119.362 58.4955 122.152 58.4282C124.962 58.3553 127.372 60.2044 127.425 63.0875C127.572 71.8452 127.479 80.6029 127.479 89.6074H117.56C117.412 89.4391 117.205 89.3139 117.205 89.1867C117.165 80.5898 117.072 71.9854 117.16 63.3941ZM137.972 79.668C138.005 76.2914 140.148 74.0608 143.171 74.0608C146.223 74.0608 148.345 76.2708 148.371 79.668C148.384 82.0183 148.391 84.361 148.397 86.7168C148.397 91.1555 148.391 95.6278 148.384 100.186V102.604H137.951V95.3006C137.958 90.0879 137.917 84.8808 137.972 79.668ZM137.758 162.531H127.679V152.405H137.758V162.531ZM106.792 152.478H116.919V162.55H106.792V152.478ZM96.3407 110.694H106.452V141.651H96.3407V110.694ZM148.257 141.645H138.132V113.276H148.257V141.645ZM117.293 100.212H127.372V141.71H117.293V100.212ZM200.502 115.398C200.496 114.658 200.435 113.93 200.322 113.224C199.3 106.562 194.022 101.355 187.42 100.321C186.679 100.207 185.916 100.139 185.15 100.134C181.366 100.093 177.854 101.368 175.104 103.531C171.639 106.261 169.384 110.413 169.304 115.159C169.13 125.672 169.224 136.191 169.27 146.704C169.291 150.143 171.379 152.138 174.851 152.265C176.385 152.317 177.927 152.271 179.683 152.271C179.683 153.205 179.675 154.127 179.67 155.034C179.657 157.839 179.63 160.522 179.724 163.191C179.75 163.859 179.644 164.394 179.41 164.841C179.122 165.42 178.636 165.869 177.961 166.303C173.301 169.326 168.702 172.45 164.071 175.528C162.442 176.608 160.793 177.656 159.157 178.725C158.965 178.403 158.89 178.338 158.89 178.271C158.858 174.973 158.871 171.669 158.804 168.371C158.778 166.923 158.443 165.742 157.803 164.841C156.874 163.485 155.279 162.765 153.097 162.717C151.575 162.685 150.046 162.711 148.519 162.711V152.278C150.007 152.278 151.374 152.299 152.742 152.271C156.842 152.205 158.804 150.262 158.811 146.151C158.824 127.347 158.843 108.538 158.804 89.7271C158.804 86.2027 158.798 82.6727 158.783 79.1408C158.783 78.2396 158.718 77.372 158.591 76.5438C157.817 71.4582 154.76 67.7057 149.913 65.1965C146.181 63.267 142.257 63.2146 138.086 64.3084C137.571 55.6386 133.525 49.6967 124.814 48.2888C116.01 46.8734 110.236 51.2523 107.073 59.3369C106.566 59.1966 106.239 59.0957 105.912 59.0097C95.3853 56.293 85.9002 63.5418 85.8068 74.3749C85.7993 75.2686 85.7993 76.1567 85.7993 77.0654C85.7993 77.9853 85.8068 78.9202 85.8068 79.8737C85.0981 79.7877 84.6644 79.7671 84.2437 79.6811C80.8539 78.9669 77.5838 79.2866 74.7269 80.4215C69.9535 82.3118 66.3431 86.4569 65.2811 91.7837C65.0736 92.8252 64.9614 93.9058 64.9614 95.0277C64.9483 99.2513 64.9334 103.477 64.9278 107.702C64.9072 120.512 64.9334 133.321 64.9483 146.13C64.9483 150.135 66.8891 152.164 70.7276 152.271C72.2439 152.312 73.7659 152.278 75.2074 152.278V162.711C73.678 162.711 72.3038 162.698 70.9277 162.711C68.5326 162.745 66.876 163.438 65.9355 164.841C65.2886 165.781 64.9614 167.036 64.9483 168.612C64.9147 171.394 64.9409 174.178 64.9409 176.954C64.9409 194.511 64.9278 212.071 64.9483 229.628C64.9483 233.739 66.9171 235.669 71.0286 235.715C72.3898 235.729 73.7584 235.715 75.1663 235.715C75.1663 241.341 75.8749 246.816 75.0391 252.042C72.1093 270.378 68.7251 288.654 65.3223 306.91C64.6398 310.562 65.2811 313.203 68.598 315H155.165C157.742 313.458 159.258 311.448 158.664 308.185C155.78 292.384 153.124 276.546 150.067 260.786C148.464 252.535 148.137 244.305 148.519 235.715C149.653 235.715 150.667 235.721 151.688 235.715C157.209 235.708 158.811 234.106 158.817 228.579C158.817 217.278 158.871 205.978 158.765 194.683C158.744 192.467 159.297 191.112 161.261 189.852C169.878 184.304 178.335 178.51 186.892 172.877C189.134 171.394 190.209 169.534 190.142 166.809C190.129 166.155 190.116 165.495 190.11 164.841C190.063 161.615 190.09 158.379 190.103 155.034C190.11 154.127 190.11 153.205 190.11 152.278C191.726 152.278 193.092 152.299 194.455 152.278C198.559 152.211 200.522 150.268 200.536 146.164C200.549 140.443 200.575 134.716 200.569 128.989C200.569 124.464 200.556 119.925 200.502 115.398ZM129.741 301.077C130.655 301.417 131.629 301.596 132.632 301.617H132.738C133.78 301.617 134.801 301.43 135.748 301.077H129.741ZM129.741 301.077C130.655 301.417 131.629 301.596 132.632 301.617H132.738C133.78 301.617 134.801 301.43 135.748 301.077H129.741ZM129.741 301.077C130.655 301.417 131.629 301.596 132.632 301.617H132.738C133.78 301.617 134.801 301.43 135.748 301.077H129.741ZM129.741 301.077C130.655 301.417 131.629 301.596 132.632 301.617H132.738C133.78 301.617 134.801 301.43 135.748 301.077H129.741ZM129.741 301.077C130.655 301.417 131.629 301.596 132.632 301.617H132.738C133.78 301.617 134.801 301.43 135.748 301.077H129.741ZM129.741 301.077C130.655 301.417 131.629 301.596 132.632 301.617H132.738C133.78 301.617 134.801 301.43 135.748 301.077H129.741ZM129.741 301.077C130.655 301.417 131.629 301.596 132.632 301.617H132.738C133.78 301.617 134.801 301.43 135.748 301.077H129.741ZM129.741 301.077C130.655 301.417 131.629 301.596 132.632 301.617H132.738C133.78 301.617 134.801 301.43 135.748 301.077H129.741Z" fill="url(#paint1_linear_1820_983)"/>
<path d="M190.107 120.923H179.713C179.947 117.692 178.591 114.282 181.669 111.719C181.983 111.459 182.303 111.238 182.637 111.064C184.178 110.217 185.881 110.277 187.497 111.279C190.419 113.087 190.227 115.757 190.113 118.534C190.073 119.328 190.053 120.131 190.107 120.923ZM179.861 131.577H189.972V141.729H179.861V131.577ZM148.261 225.146H132.735V222.676C132.735 216.856 132.761 211.036 132.728 205.223C132.701 201.236 130.766 199.234 126.842 199.221C116.856 199.187 106.862 199.187 96.8778 199.221C92.9664 199.234 91.0369 201.244 91.0238 205.249C90.9957 211.83 91.0163 218.412 91.0163 225.133H75.5707V173.316H148.261V225.146ZM117.196 304.412V256.739H138.823C141.646 272.553 144.482 288.385 147.347 304.412H117.196ZM85.9307 235.906H137.774V245.999H85.9307V235.906ZM106.482 304.412H76.4046C79.2428 288.505 82.0716 272.678 84.9155 256.733H106.482V304.412ZM85.9905 152.39H96.0832V162.582H85.9905V152.39ZM85.6428 141.709H75.4772V121.172H85.6428V141.709ZM75.4641 94.2445C75.5501 91.5746 77.9676 89.6918 80.6039 89.7049C81.292 89.7049 81.9464 89.8395 82.5465 90.0657C84.3545 90.7725 85.6689 92.429 85.7306 94.5642C85.8709 99.7583 85.7699 104.964 85.7699 110.417H75.4099C75.4099 105.966 75.3313 101.587 75.3968 97.2211C75.4099 96.2264 75.4304 95.2392 75.4641 94.2445ZM96.2907 73.818C96.3225 70.8695 98.4989 68.9268 101.29 68.852C104.099 68.7866 106.503 70.6357 106.555 73.5263C106.69 81.5679 106.623 89.6189 106.615 97.8624C106.61 98.5822 106.61 99.3095 106.61 100.039H96.6965C96.5431 99.8648 96.3356 99.7377 96.3356 99.6049C96.3169 95.5795 96.2907 91.554 96.2702 87.5304C96.2496 82.9571 96.2496 78.3838 96.2907 73.818ZM117.155 63.3925C117.183 60.4365 119.359 58.4939 122.149 58.4266C124.959 58.3537 127.369 60.2028 127.421 63.0859C127.569 71.8436 127.476 80.6013 127.476 89.6058H117.557C117.409 89.4375 117.202 89.3122 117.202 89.1851C117.162 80.5882 117.069 71.9838 117.155 63.3925ZM137.968 79.6664C138.002 76.2879 140.145 74.0592 143.168 74.0592C146.217 74.0592 148.341 76.2692 148.368 79.6664C148.381 82.0166 148.388 84.3594 148.394 86.7152C148.394 91.1539 148.388 95.6262 148.381 100.185V102.602H137.948V95.299C137.955 90.0863 137.914 84.8792 137.968 79.6664ZM137.755 162.528H127.676V152.404H137.755V162.528ZM106.789 152.476H116.915V162.549H106.789V152.476ZM96.3356 110.692H106.449V141.649H96.3356V110.692ZM148.254 141.643H138.129V113.274H148.254V141.643ZM117.289 100.213H127.369V141.709H117.289V100.213ZM200.499 115.396C200.493 114.656 200.433 113.929 200.319 113.222C199.298 106.56 194.018 101.353 187.416 100.319C186.676 100.205 185.915 100.138 185.147 100.132C181.362 100.091 177.851 101.366 175.101 103.529C171.636 106.259 169.381 110.412 169.301 115.157C169.127 125.671 169.22 136.189 169.267 146.703C169.288 150.139 171.376 152.136 174.848 152.263C176.383 152.316 177.924 152.269 179.68 152.269C179.68 153.204 179.674 154.126 179.666 155.034C179.653 157.837 179.627 160.52 179.721 163.19C179.747 163.857 179.64 164.392 179.407 164.839C179.119 165.419 178.633 165.867 177.958 166.301C173.298 169.324 168.701 172.449 164.068 175.524C162.439 176.607 160.79 177.654 159.154 178.722C158.961 178.402 158.888 178.334 158.888 178.269C158.855 174.971 158.868 171.667 158.801 168.369C158.774 166.922 158.44 165.74 157.8 164.839C156.871 163.483 155.276 162.764 153.094 162.717C151.572 162.683 150.043 162.709 148.513 162.709V152.276C150.004 152.276 151.372 152.297 152.739 152.269C156.837 152.203 158.801 150.261 158.808 146.149C158.821 127.346 158.84 108.535 158.801 89.7254C158.801 86.201 158.795 82.6692 158.78 79.1392C158.78 78.238 158.715 77.3704 158.587 76.5421C157.813 71.4565 154.756 67.704 149.91 65.1949C146.178 63.2654 142.254 63.213 138.082 64.3068C137.568 55.637 133.522 49.6951 124.811 48.2872C116.009 46.8718 110.233 51.2506 107.07 59.3352C106.563 59.195 106.236 59.0941 105.908 59.0081C95.3821 56.2914 85.8971 63.5402 85.8036 74.3733C85.7961 75.267 85.7961 76.1551 85.7961 77.0638C85.7961 77.9837 85.8036 78.9185 85.8036 79.874C85.0968 79.7861 84.663 79.7674 84.2424 79.6795C80.8507 78.9653 77.5806 79.285 74.7237 80.4199C69.9503 82.3102 66.3399 86.4553 65.2779 91.7821C65.0704 92.8217 64.9582 93.9042 64.9582 95.026C64.9451 99.2497 64.9302 103.475 64.9246 107.701C64.904 120.51 64.9302 133.319 64.9451 146.129C64.9451 150.134 66.8878 152.162 70.7244 152.269C72.2407 152.31 73.7627 152.276 75.2042 152.276V162.709C73.6748 162.709 72.3006 162.696 70.9245 162.709C68.5294 162.743 66.8728 163.437 65.9323 164.839C65.2854 165.779 64.9582 167.034 64.9451 168.61C64.9115 171.394 64.9377 174.176 64.9377 176.955C64.9377 194.509 64.9246 212.07 64.9451 229.626C64.9451 233.738 66.9139 235.667 71.0254 235.714C72.3866 235.727 73.7552 235.714 75.1631 235.714C75.1631 241.34 75.8717 246.814 75.0359 252.04C72.1061 270.376 68.7219 288.653 65.3191 306.908C64.6366 310.56 65.2779 313.202 68.5948 314.999H155.162C157.739 313.456 159.255 311.446 158.66 308.184C155.777 292.383 153.12 276.544 150.063 260.785C148.461 252.534 148.134 244.303 148.513 235.714C149.648 235.714 150.664 235.719 151.684 235.714C157.206 235.706 158.808 234.104 158.814 228.577C158.814 217.277 158.868 205.976 158.761 194.683C158.741 192.466 159.294 191.112 161.257 189.85C169.875 184.303 178.332 178.508 186.889 172.875C189.131 171.394 190.206 169.53 190.141 166.808C190.126 166.153 190.113 165.493 190.107 164.839C190.06 161.616 190.086 158.377 190.099 155.034C190.107 154.126 190.107 153.204 190.107 152.276C191.722 152.276 193.091 152.297 194.452 152.276C198.556 152.209 200.519 150.266 200.532 146.162C200.545 140.441 200.574 134.714 200.566 128.987C200.566 124.463 200.553 119.923 200.499 115.396Z" fill="url(#paint2_linear_1820_983)"/>
<path d="M137.934 272.2C137.934 275.122 135.551 277.472 132.639 277.413C129.824 277.358 127.58 275.089 127.548 272.252C127.515 269.382 129.951 266.98 132.841 267.039C135.631 267.094 137.934 269.429 137.934 272.2Z" fill="url(#paint3_linear_1820_983)"/>
<path d="M137.93 272.2C137.93 275.122 135.546 277.472 132.635 277.413C129.819 277.358 127.576 275.089 127.544 272.252C127.51 269.382 129.946 266.98 132.837 267.039C135.626 267.094 137.93 269.429 137.93 272.2ZM129.739 301.076H135.746C134.798 301.429 133.777 301.616 132.736 301.616H132.629C131.627 301.595 130.653 301.416 129.739 301.076ZM137.93 293.025C137.949 295.954 135.585 298.312 132.669 298.278C129.759 298.237 127.45 295.814 127.544 292.897C127.63 290.134 130.019 287.864 132.803 287.898C135.585 287.932 137.909 290.261 137.93 293.025Z" fill="url(#paint4_linear_1820_983)"/>
<path d="M137.93 293.025C137.949 295.955 135.585 298.313 132.669 298.279C129.759 298.238 127.45 295.815 127.544 292.898C127.63 290.134 130.019 287.865 132.803 287.898C135.585 287.932 137.909 290.262 137.93 293.025Z" fill="url(#paint5_linear_1820_983)"/>
<defs>
<linearGradient id="paint0_linear_1820_983" x1="121.922" y1="0" x2="121.922" y2="164.84" gradientUnits="userSpaceOnUse">
<stop stop-color="#630DFA"/>
<stop offset="1" stop-color="#4FA6B7"/>
</linearGradient>
<linearGradient id="paint1_linear_1820_983" x1="130.619" y1="0.0351562" x2="130.619" y2="315" gradientUnits="userSpaceOnUse">
<stop stop-color="#630DFA"/>
<stop offset="1" stop-color="#4FA6B7"/>
</linearGradient>
<linearGradient id="paint2_linear_1820_983" x1="132.742" y1="48.0239" x2="132.742" y2="314.999" gradientUnits="userSpaceOnUse">
<stop stop-color="#630DFA"/>
<stop offset="1" stop-color="#4FA6B7"/>
</linearGradient>
<linearGradient id="paint3_linear_1820_983" x1="132.741" y1="267.038" x2="132.741" y2="277.414" gradientUnits="userSpaceOnUse">
<stop stop-color="#630DFA"/>
<stop offset="1" stop-color="#4FA6B7"/>
</linearGradient>
<linearGradient id="paint4_linear_1820_983" x1="132.736" y1="267.038" x2="132.736" y2="301.616" gradientUnits="userSpaceOnUse">
<stop stop-color="#630DFA"/>
<stop offset="1" stop-color="#4FA6B7"/>
</linearGradient>
<linearGradient id="paint5_linear_1820_983" x1="132.736" y1="287.898" x2="132.736" y2="298.279" gradientUnits="userSpaceOnUse">
<stop stop-color="#630DFA"/>
<stop offset="1" stop-color="#4FA6B7"/>
</linearGradient>
</defs>
</svg>
