<svg width="97" height="97" viewBox="0 0 97 97" fill="none" xmlns="http://www.w3.org/2000/svg">
<path d="M34.4032 12.5265V0.0130348C34.816 0.0130348 35.1609 0.0130348 35.5031 0.0130348C50.1676 0.0130348 64.832 0.0182488 79.4938 0C80.1627 0 80.6355 0.177274 81.1136 0.656955C86.1873 5.76661 91.2923 10.845 96.3633 15.9572C96.6872 16.2831 96.9746 16.828 96.9746 17.2712C97.0034 38.4163 97.0008 59.5588 96.9981 80.7039C96.9981 80.8655 96.9851 81.0297 96.972 81.2956H68.8685V87.5654H62.5774C62.5774 88.1389 62.5826 88.6421 62.5774 89.1452C62.512 93.5432 59.1418 96.9739 54.7501 96.9791C39.1085 97.0026 23.467 97.0026 7.82544 96.9791C3.4363 96.9713 0.0138134 93.5353 0.00858823 89.1426C-0.00447469 66.2404 -0.00186211 43.3356 0.0112008 20.4334C0.0138134 15.9338 3.44152 12.5447 7.96391 12.5343C16.3372 12.5134 24.7132 12.5291 33.0891 12.5291C33.4784 12.5291 33.8703 12.5291 34.4032 12.5291V12.5265ZM12.5594 56.3235H13.8344C23.1535 56.3235 32.4726 56.3235 41.7916 56.3235C45.0365 56.3235 46.9358 58.2344 46.9384 61.5009C46.941 68.472 46.941 75.4456 46.9384 82.4166C46.9384 85.717 45.0312 87.6045 41.7028 87.6045C32.3837 87.6045 23.0646 87.6045 13.7456 87.6045C13.3641 87.6045 12.9853 87.6045 12.5856 87.6045V93.8612C12.9722 93.8612 13.2936 93.8612 13.6149 93.8612C27.1716 93.8612 40.7257 93.8612 54.2824 93.8612C57.5403 93.8612 59.4553 91.9555 59.4579 88.7098C59.4605 77.3721 59.4658 66.0345 59.4344 54.6968C59.4344 54.2145 59.1914 53.6123 58.8544 53.2734C50.7215 45.0953 42.5545 36.9485 34.4111 28.7809C33.9591 28.3273 33.5124 28.15 32.8775 28.1526C26.4244 28.1735 19.974 28.1657 13.5209 28.1683C13.2074 28.1683 12.8939 28.1969 12.5621 28.2126V56.3235H12.5594ZM78.1954 18.804V3.2196H37.6089V18.8093H68.892V31.2419H72.0009V21.9898H90.694V40.7078H84.4421V50.1059H68.9129V78.149H93.8317V18.804H78.2006H78.1954ZM3.17243 84.4787C3.57738 84.4787 3.89873 84.4787 4.22007 84.4787C16.6638 84.4787 29.1075 84.4787 41.5513 84.4787C43.3513 84.4787 43.8112 84.0251 43.8112 82.2394C43.8112 75.3987 43.8112 68.5606 43.8112 61.7199C43.8112 59.9081 43.3618 59.4493 41.5852 59.4493C29.1102 59.4493 16.6325 59.4493 4.15737 59.4493C3.84125 59.4493 3.52774 59.4753 3.17504 59.4936V84.4761L3.17243 84.4787ZM65.6419 84.4318V21.9585H9.45047V25.0399H10.6653C25.1364 25.0399 39.6075 25.0399 54.0786 25.0399C59.3613 25.0399 62.5826 28.2752 62.5852 33.5777C62.5852 50.132 62.5852 66.6836 62.5852 83.2378V84.4292H65.6445L65.6419 84.4318ZM3.19855 26.6484V56.2479H9.31461V28.1474C7.11482 28.3012 5.08745 27.9962 3.19855 26.6484ZM68.8841 46.868H81.2808V34.4771H68.8841V46.868ZM34.4032 15.7409C34.236 15.7018 34.1446 15.6627 34.0558 15.6627C25.2592 15.66 16.4626 15.6418 7.66607 15.6731C5.39835 15.6809 3.51729 17.4432 3.17504 19.6904C2.84585 21.8646 4.32719 24.2344 6.31014 24.5785V18.7415H34.4059V15.7409H34.4032ZM75.123 31.3279H84.5413V37.4986H87.5484V25.1207H75.123V31.3279ZM59.4553 49.2847C59.4553 47.7023 59.4788 46.2476 59.4344 44.7955C59.4266 44.5218 59.1914 44.2089 58.9798 43.9952C53.8748 38.8751 48.762 33.7654 43.644 28.6584C43.4637 28.4785 43.2468 28.21 43.0431 28.2048C41.5069 28.1657 39.9681 28.1839 38.3587 28.1839C45.4179 35.2436 52.3674 42.1937 59.4553 49.2821V49.2847ZM47.9208 28.1969C51.7691 32.0474 55.5965 35.8745 59.4031 39.6832C59.4031 37.2223 59.5441 34.6596 59.3587 32.1204C59.2071 30.0349 57.3992 28.3403 55.3353 28.2282C52.8481 28.0953 50.3505 28.1969 47.9208 28.1969ZM81.401 15.5897H91.206C87.9638 12.3492 84.6459 9.03574 81.401 5.79268V15.5897ZM3.19594 87.6436C2.56631 92.2892 5.96005 94.4712 9.32767 93.7465V87.6436H3.19594Z" fill="url(#paint0_linear_1920_2124)"/>
<path d="M40.7266 15.5866V12.5781H75.0559V15.5866H40.7266Z" fill="url(#paint1_linear_1920_2124)"/>
<path d="M75.0774 6.32812V9.32353H47.0078V6.32812H75.0774Z" fill="url(#paint2_linear_1920_2124)"/>
<path d="M90.6955 53.2617V56.2754H72.0469V53.2617H90.6955Z" fill="url(#paint3_linear_1920_2124)"/>
<path d="M90.6955 65.7773V68.7884H72.0469V65.7773H90.6955Z" fill="url(#paint4_linear_1920_2124)"/>
<path d="M84.4384 59.5195V62.528H72.0469V59.5195H84.4384Z" fill="url(#paint5_linear_1920_2124)"/>
<path d="M81.3984 75.0241V72.0156H90.6627V75.0241H81.3984Z" fill="url(#paint6_linear_1920_2124)"/>
<path d="M72.0078 75.0162V72.0234H78.1761V75.0162H72.0078Z" fill="url(#paint7_linear_1920_2124)"/>
<path d="M40.7266 9.34437V6.34375H43.7467V9.34437H40.7266Z" fill="url(#paint8_linear_1920_2124)"/>
<path d="M87.6797 59.5H90.6946V62.5058H87.6797V59.5Z" fill="url(#paint9_linear_1920_2124)"/>
<path d="M40.6418 68.9062V81.2946H6.3125V68.9062H40.6418ZM24.099 78.2209C24.1434 78.1532 24.1878 78.0828 24.2322 78.015C22.278 76.0754 20.3264 74.1358 18.3617 72.2067C18.2363 72.0841 18.0273 71.9799 17.8549 71.9799C15.8563 71.9642 13.855 71.9694 11.5978 71.9694C13.7349 74.1019 15.6786 76.0493 17.6459 77.9785C17.8053 78.1349 18.1057 78.2105 18.3434 78.2131C20.2611 78.2314 22.1813 78.2235 24.1016 78.2235L24.099 78.2209ZM22.5758 71.9642C24.6842 74.0733 26.607 76.005 28.5404 77.9264C28.6684 78.0541 28.8617 78.2001 29.0237 78.2027C31.0511 78.2209 33.081 78.2157 35.3252 78.2157C33.2221 76.1093 31.2992 74.1775 29.3607 72.2614C29.1961 72.0998 28.914 71.9799 28.6841 71.9773C26.7377 71.9538 24.7887 71.9642 22.5732 71.9642H22.5758ZM33.9406 72.0137C35.1006 73.1947 36.3206 74.4356 37.4858 75.6218V72.0137H33.9406ZM13.0033 78.1688C11.8381 77.0009 10.6076 75.7678 9.4685 74.6285V78.1688H13.0033Z" fill="url(#paint10_linear_1920_2124)"/>
<path d="M40.6006 65.6895H12.6016V62.6445H40.6032V65.6895H40.6006Z" fill="url(#paint11_linear_1920_2124)"/>
<path d="M9.34566 62.6367V65.6373H6.32812V62.6367H9.34566Z" fill="url(#paint12_linear_1920_2124)"/>
<defs>
<linearGradient id="paint0_linear_1920_2124" x1="48.4998" y1="0" x2="48.4998" y2="96.9967" gradientUnits="userSpaceOnUse">
<stop stop-color="#4FA9B6"/>
<stop offset="1" stop-color="#6215F7"/>
</linearGradient>
<linearGradient id="paint1_linear_1920_2124" x1="57.8912" y1="12.5781" x2="57.8912" y2="15.5866" gradientUnits="userSpaceOnUse">
<stop stop-color="#4FA9B6"/>
<stop offset="1" stop-color="#6215F7"/>
</linearGradient>
<linearGradient id="paint2_linear_1920_2124" x1="61.0426" y1="6.32812" x2="61.0426" y2="9.32353" gradientUnits="userSpaceOnUse">
<stop stop-color="#4FA9B6"/>
<stop offset="1" stop-color="#6215F7"/>
</linearGradient>
<linearGradient id="paint3_linear_1920_2124" x1="81.3712" y1="53.2617" x2="81.3712" y2="56.2754" gradientUnits="userSpaceOnUse">
<stop stop-color="#4FA9B6"/>
<stop offset="1" stop-color="#6215F7"/>
</linearGradient>
<linearGradient id="paint4_linear_1920_2124" x1="81.3712" y1="65.7773" x2="81.3712" y2="68.7884" gradientUnits="userSpaceOnUse">
<stop stop-color="#4FA9B6"/>
<stop offset="1" stop-color="#6215F7"/>
</linearGradient>
<linearGradient id="paint5_linear_1920_2124" x1="78.2426" y1="59.5195" x2="78.2426" y2="62.528" gradientUnits="userSpaceOnUse">
<stop stop-color="#4FA9B6"/>
<stop offset="1" stop-color="#6215F7"/>
</linearGradient>
<linearGradient id="paint6_linear_1920_2124" x1="86.0305" y1="72.0156" x2="86.0305" y2="75.0241" gradientUnits="userSpaceOnUse">
<stop stop-color="#4FA9B6"/>
<stop offset="1" stop-color="#6215F7"/>
</linearGradient>
<linearGradient id="paint7_linear_1920_2124" x1="75.092" y1="72.0234" x2="75.092" y2="75.0162" gradientUnits="userSpaceOnUse">
<stop stop-color="#4FA9B6"/>
<stop offset="1" stop-color="#6215F7"/>
</linearGradient>
<linearGradient id="paint8_linear_1920_2124" x1="42.2366" y1="6.34375" x2="42.2366" y2="9.34437" gradientUnits="userSpaceOnUse">
<stop stop-color="#4FA9B6"/>
<stop offset="1" stop-color="#6215F7"/>
</linearGradient>
<linearGradient id="paint9_linear_1920_2124" x1="89.1871" y1="59.5" x2="89.1871" y2="62.5058" gradientUnits="userSpaceOnUse">
<stop stop-color="#4FA9B6"/>
<stop offset="1" stop-color="#6215F7"/>
</linearGradient>
<linearGradient id="paint10_linear_1920_2124" x1="23.4772" y1="68.9062" x2="23.4772" y2="81.2946" gradientUnits="userSpaceOnUse">
<stop stop-color="#4FA9B6"/>
<stop offset="1" stop-color="#6215F7"/>
</linearGradient>
<linearGradient id="paint11_linear_1920_2124" x1="26.6024" y1="62.6445" x2="26.6024" y2="65.6895" gradientUnits="userSpaceOnUse">
<stop stop-color="#4FA9B6"/>
<stop offset="1" stop-color="#6215F7"/>
</linearGradient>
<linearGradient id="paint12_linear_1920_2124" x1="7.83689" y1="62.6367" x2="7.83689" y2="65.6373" gradientUnits="userSpaceOnUse">
<stop stop-color="#4FA9B6"/>
<stop offset="1" stop-color="#6215F7"/>
</linearGradient>
</defs>
</svg>
