<svg width="86" height="105" viewBox="0 0 86 105" fill="none" xmlns="http://www.w3.org/2000/svg">
<path d="M79.3182 0C81.4566 0.805437 82.1703 2.37248 82.1509 4.57784C82.0846 12.9856 82.1233 21.3907 82.1233 29.7984V31.2422C82.9117 31.2422 83.595 31.2175 84.2727 31.2477C85.4069 31.2997 86.0377 31.9107 85.9934 32.8668C85.9519 33.7845 85.3544 34.2777 84.2174 34.3078C83.5673 34.3242 82.92 34.3105 82.1205 34.3105V35.8228C82.1205 57.386 82.1233 78.952 82.1067 100.515C82.1067 101.318 82.0431 102.186 81.736 102.912C81.1717 104.249 80.0209 104.975 78.5464 104.978C68.4161 104.997 58.2857 104.995 48.1526 104.984C47.1069 104.984 46.4513 104.348 46.4569 103.444C46.4624 102.488 47.1567 101.918 48.3767 101.918C58.0229 101.912 67.6692 101.918 77.3182 101.918C78.4487 101.918 79.0139 101.358 79.0139 100.239C79.0139 78.7438 79.0139 57.2463 79.0139 35.7516C79.0139 35.316 79.0139 34.8831 79.0139 34.3133C78.4883 34.3133 78.0872 34.3133 77.6833 34.3133C70.9058 34.3133 64.1282 34.3133 57.3535 34.3133C56.9745 34.3133 56.59 34.327 56.2137 34.2804C55.3728 34.1763 54.8997 33.6558 54.8638 32.8476C54.8278 32.0312 55.2787 31.4805 56.1003 31.3162C56.5014 31.2367 56.9247 31.2422 57.3369 31.2422C64.1144 31.2367 70.8919 31.2395 77.6667 31.2395C78.0761 31.2395 78.4855 31.2395 78.9531 31.2395V17.0484H7.00607V21.9687H8.33944C20.1296 21.9687 31.9197 21.9687 43.7099 21.9687C47.5108 21.9687 49.1817 23.6371 49.1845 27.4287C49.1845 28.1109 49.2149 28.7985 49.1679 29.4779C49.0987 30.4559 48.4707 31.0477 47.5938 31.0367C46.6975 31.0258 46.1194 30.4395 46.0862 29.4368C46.0557 28.5218 46.0806 27.6068 46.0806 26.4863C45.627 26.763 45.3144 26.9411 45.0184 27.141C39.0265 31.1847 33.0346 35.2338 27.0454 39.2801C25.0371 40.6362 24.1463 40.6417 22.1628 39.3021C16.1986 35.2749 10.2372 31.2504 4.27292 27.2232C3.96309 27.015 3.64773 26.815 3.19405 26.5219C3.16362 26.9548 3.12489 27.2698 3.12489 27.5849C3.12213 35.4118 3.11936 43.2361 3.12489 51.0631C3.12489 52.7205 3.51495 53.0986 5.20795 53.0986C18.1406 53.0986 31.0705 53.0986 44.0031 53.0986C45.6601 53.0986 46.0779 52.6849 46.0806 51.0302C46.0862 48.5043 46.0806 45.9784 46.0806 43.2772C45.0737 43.2772 44.1248 43.2827 43.176 43.2772C41.9035 43.2662 41.1565 42.669 41.187 41.6992C41.2146 40.765 41.9366 40.2116 43.1566 40.2034C44.0861 40.1952 45.0128 40.2034 46.0834 40.2034C46.0834 39.0144 46.0696 37.8967 46.0862 36.7789C46.1028 35.6255 46.6616 34.9927 47.6215 34.9954C48.5676 34.9954 49.1596 35.6447 49.1872 36.7789C49.2121 37.8693 49.1928 38.9623 49.1928 40.2034C49.616 40.2034 49.9812 40.2034 50.3463 40.2034C53.8734 40.2034 57.4005 40.1979 60.9276 40.2061C62.0922 40.2089 62.7478 40.7595 62.7727 41.6965C62.7976 42.68 62.1254 43.2717 60.9137 43.2745C57.3867 43.2854 53.8596 43.2772 50.3325 43.2772C49.995 43.2772 49.6575 43.2772 49.1955 43.2772C49.1955 44.9675 49.1955 46.562 49.1955 48.1564C49.1955 49.2495 49.2094 50.3426 49.1928 51.4384C49.1457 54.3204 47.2646 56.1642 44.3461 56.1724C38.7803 56.1834 33.2116 56.1751 27.6457 56.1751C21.1808 56.1751 14.7131 56.1751 8.24815 56.1751C7.8747 56.1751 7.50401 56.1751 7.0199 56.1751C7.0199 56.6464 7.0199 57.0135 7.0199 57.3833C7.0199 71.736 7.0199 86.0914 7.0199 100.444C7.0199 101.428 7.51415 101.922 8.50266 101.923C19.0479 101.923 29.5932 101.923 40.1385 101.923C40.4843 101.923 40.8384 101.891 41.1731 101.954C41.9837 102.112 42.4623 102.619 42.4678 103.447C42.4733 104.274 42.0003 104.786 41.1953 104.959C40.8965 105.025 40.5756 104.995 40.2658 104.995C29.5462 104.995 18.8294 104.995 8.10984 104.995C5.3103 104.995 3.91053 103.619 3.91053 100.83C3.905 86.3407 3.90223 71.851 3.92436 57.3586C3.92436 56.5532 3.79988 56.1039 2.90358 55.8135C1.00034 55.2053 0.012759 53.5972 0.0099927 51.4192C0.00169368 44.4826 0.00446002 37.5432 0.00722636 30.6066C0.00722636 29.2067 -0.0149044 27.804 0.0182917 26.4041C0.0653195 24.4069 1.19399 22.8152 3.09446 22.2399C3.79435 22.029 3.90777 21.703 3.905 21.0838C3.8884 15.5827 3.95203 10.0789 3.86904 4.57784C3.83584 2.36974 4.56062 0.802698 6.70177 0H57.7408C58.3825 0.567094 58.9137 1.1972 58.5347 2.11496C58.1529 3.04094 57.3203 3.12312 56.4516 3.07929C56.175 3.06559 55.8984 3.07929 55.6217 3.07929C39.8591 3.07929 24.0993 3.07929 8.33668 3.07929C7.03097 3.07929 7.00883 3.09847 7.00607 4.39977C7.00054 7.20236 7.0033 10.0022 7.00607 12.8048C7.00607 13.1363 7.04203 13.4678 7.0614 13.813H79.0139C79.0139 10.6241 78.9807 7.52016 79.0333 4.41621C79.0499 3.41352 78.7788 3.04368 77.6971 3.05737C73.307 3.11491 68.9168 3.07381 64.5294 3.08751C63.7354 3.08751 63.0577 2.893 62.7617 2.1177C62.4546 1.31774 62.7119 0.646542 63.456 0.175333C63.503 0.145198 63.5196 0.0630104 63.5501 0.00547917C68.8061 0.00547917 74.0622 0.00547917 79.3182 0.00547917V0ZM6.79029 25.0973C7.0282 25.3083 7.13609 25.4261 7.26334 25.511C12.8513 29.2861 18.4366 33.0695 24.0467 36.8118C24.3095 36.9871 24.9126 36.957 25.1865 36.7734C30.7385 33.0668 36.2657 29.3245 41.8039 25.5987C41.9864 25.4754 42.2437 25.4562 42.465 25.3877L42.1497 25.1001H6.79029V25.0973Z" fill="url(#paint0_linear_1920_2126)"/>
<path d="M51.5484 72.2509C45.7446 72.2509 39.938 72.2509 34.1342 72.2509C33.7885 72.2509 33.4399 72.2646 33.0996 72.2235C32.2587 72.1221 31.7912 71.6262 31.7524 70.7989C31.7137 69.9715 32.1397 69.4291 32.9641 69.2565C33.332 69.1798 33.7193 69.1798 34.0983 69.1798C45.7778 69.177 57.4545 69.177 69.134 69.1798C69.5462 69.1798 69.9722 69.188 70.365 69.2894C71.134 69.4866 71.502 70.0373 71.4632 70.8126C71.4217 71.5934 70.9874 72.081 70.2046 72.207C69.8339 72.2673 69.4466 72.2481 69.0676 72.2481C63.2278 72.2481 57.3881 72.2481 51.5511 72.2481L51.5484 72.2509Z" fill="url(#paint1_linear_1920_2126)"/>
<path d="M51.5399 77.5654C45.7361 77.5654 39.9295 77.5654 34.1258 77.5654C33.78 77.5654 33.4314 77.5791 33.0911 77.538C32.3027 77.4421 31.838 76.9846 31.7605 76.2066C31.6803 75.3847 32.0593 74.8094 32.8726 74.593C33.2322 74.4971 33.6223 74.4943 34.0013 74.4943C45.7499 74.4889 57.4986 74.4889 69.2445 74.4943C69.6539 74.4943 70.0854 74.5108 70.4672 74.6341C71.2252 74.8779 71.5377 75.4641 71.452 76.234C71.369 76.9682 70.9291 77.412 70.1961 77.5243C69.8226 77.5819 69.4381 77.5627 69.0591 77.5627C63.2194 77.5627 57.3796 77.5627 51.5399 77.5627V77.5654Z" fill="url(#paint2_linear_1920_2126)"/>
<path d="M51.6297 91.5527C57.4335 91.5527 63.24 91.5527 69.0438 91.5527C69.3896 91.5527 69.7382 91.539 70.0784 91.5855C70.9471 91.7033 71.4644 92.191 71.4671 93.0841C71.4671 93.969 70.9775 94.4731 70.095 94.5909C69.788 94.632 69.4754 94.6265 69.1656 94.6265C57.4529 94.6265 45.7402 94.6265 34.0275 94.6265C33.6817 94.6265 33.3331 94.6265 32.9956 94.5689C32.21 94.432 31.784 93.9306 31.7591 93.1526C31.7314 92.3252 32.1519 91.7828 32.979 91.6184C33.347 91.5444 33.7343 91.5554 34.1132 91.5554C39.953 91.5527 45.7927 91.5554 51.6297 91.5554V91.5527Z" fill="url(#paint3_linear_1920_2126)"/>
<path d="M21.1659 62.1063C24.8507 62.1117 27.8356 65.054 27.8328 68.6758C27.8328 72.2811 24.8092 75.259 21.1548 75.2563C17.4839 75.2563 14.5129 72.3057 14.5156 68.6648C14.5184 65.0102 17.4673 62.1008 21.1659 62.1035V62.1063ZM21.1133 65.1801C19.1299 65.1965 17.5918 66.769 17.6278 68.7443C17.6637 70.6565 19.2267 72.1797 21.1548 72.1797C23.1023 72.1797 24.7345 70.5633 24.7207 68.6484C24.7041 66.7142 23.0913 65.1636 21.1133 65.1801Z" fill="url(#paint4_linear_1920_2126)"/>
<path d="M14.5172 90.8965C14.5946 87.2008 17.6099 84.3818 21.397 84.4667C24.9822 84.5462 27.9201 87.6035 27.8315 91.1595C27.7403 94.8196 24.6475 97.7044 20.9212 97.6058C17.3222 97.5099 14.4397 94.4908 14.5172 90.8965ZM21.1564 87.5405C19.1591 87.5405 17.6099 89.0829 17.6238 91.0581C17.6376 92.9786 19.1729 94.51 21.1066 94.5347C23.0596 94.5593 24.7 92.9786 24.7166 91.0527C24.7332 89.124 23.126 87.5378 21.1564 87.5378V87.5405Z" fill="url(#paint5_linear_1920_2126)"/>
<path d="M59.9845 27.7079C58.0868 27.7079 56.1919 27.7161 54.2942 27.7051C53.1379 27.6969 52.4878 27.1463 52.4767 26.2066C52.4656 25.2779 53.1351 24.6478 54.2555 24.6423C58.1173 24.6258 61.9818 24.6231 65.8437 24.6423C66.9391 24.6478 67.6501 25.319 67.6307 26.2175C67.6086 27.1298 66.9225 27.6969 65.7828 27.7051C63.8519 27.7161 61.921 27.7079 59.9901 27.7079H59.9845Z" fill="url(#paint6_linear_1920_2126)"/>
<path d="M36.5636 65.4268C35.4958 65.4268 34.4252 65.4515 33.3574 65.4186C32.3698 65.3912 31.7612 64.7912 31.7501 63.9173C31.7391 63.0489 32.3532 62.3831 33.3159 62.3694C35.4875 62.3338 37.659 62.3366 39.8334 62.3694C40.8016 62.3831 41.4462 63.0324 41.4572 63.879C41.4683 64.7721 40.8099 65.3994 39.7725 65.4241C38.7047 65.4487 37.6342 65.4296 36.5663 65.4268H36.5636Z" fill="url(#paint7_linear_1920_2126)"/>
<path d="M36.6062 87.783C35.5384 87.783 34.4678 87.8021 33.4 87.7775C32.3903 87.7556 31.7845 87.1967 31.7513 86.32C31.7181 85.4078 32.3433 84.7393 33.3751 84.7229C35.5135 84.69 37.6519 84.6927 39.7875 84.7229C40.8138 84.7366 41.4694 85.4078 41.4473 86.2981C41.4224 87.194 40.7751 87.7638 39.7073 87.7802C38.6726 87.7967 37.638 87.783 36.6034 87.7802L36.6062 87.783Z" fill="url(#paint8_linear_1920_2126)"/>
<path d="M70.0084 62.6627C70.8632 62.6874 71.4912 63.3285 71.494 64.1777C71.494 65.0654 70.8135 65.7146 69.9061 65.6873C69.0679 65.6626 68.3984 64.9914 68.3984 64.1777C68.3984 63.3285 69.1315 62.6381 70.0084 62.6627Z" fill="url(#paint9_linear_1920_2126)"/>
<path d="M69.9542 85.0274C70.8173 85.0246 71.4674 85.6383 71.4923 86.4848C71.52 87.3779 70.8616 88.0491 69.9598 88.0491C69.1216 88.0491 68.43 87.4053 68.3996 86.5944C68.3664 85.7479 69.0773 85.0328 69.9542 85.0301V85.0274Z" fill="url(#paint10_linear_1920_2126)"/>
<path d="M14.1116 7.92516C14.1116 8.77991 13.3758 9.46754 12.4933 9.44015C11.6441 9.41549 11.0078 8.76347 11.0078 7.91968C11.0078 7.09506 11.6717 6.41291 12.4961 6.38551C13.3454 6.35812 14.1116 7.08958 14.1089 7.92516H14.1116Z" fill="url(#paint11_linear_1920_2126)"/>
<path d="M19.484 7.90417C19.495 8.76166 18.773 9.45751 17.8905 9.44108C17.0413 9.42464 16.394 8.78084 16.3829 7.93979C16.3746 7.11791 17.0274 6.4248 17.8518 6.38644C18.7011 6.34535 19.4701 7.06586 19.4812 7.90691L19.484 7.90417Z" fill="url(#paint12_linear_1920_2126)"/>
<path d="M23.276 6.38693C24.0948 6.37323 24.803 7.03895 24.839 7.8526C24.8777 8.73201 24.2083 9.4306 23.3175 9.44156C22.4655 9.45252 21.7905 8.8279 21.7517 7.99506C21.7102 7.14305 22.4157 6.40062 23.2788 6.38693H23.276Z" fill="url(#paint13_linear_1920_2126)"/>
<defs>
<linearGradient id="paint0_linear_1920_2126" x1="42.9978" y1="0" x2="42.9978" y2="105.001" gradientUnits="userSpaceOnUse">
<stop stop-color="#4FA9B6"/>
<stop offset="1" stop-color="#6215F7"/>
</linearGradient>
<linearGradient id="paint1_linear_1920_2126" x1="51.608" y1="69.1777" x2="51.608" y2="72.2531" gradientUnits="userSpaceOnUse">
<stop stop-color="#4FA9B6"/>
<stop offset="1" stop-color="#6215F7"/>
</linearGradient>
<linearGradient id="paint2_linear_1920_2126" x1="51.6079" y1="74.4902" x2="51.6079" y2="77.5676" gradientUnits="userSpaceOnUse">
<stop stop-color="#4FA9B6"/>
<stop offset="1" stop-color="#6215F7"/>
</linearGradient>
<linearGradient id="paint3_linear_1920_2126" x1="51.6125" y1="91.5508" x2="51.6125" y2="94.6267" gradientUnits="userSpaceOnUse">
<stop stop-color="#4FA9B6"/>
<stop offset="1" stop-color="#6215F7"/>
</linearGradient>
<linearGradient id="paint4_linear_1920_2126" x1="21.1742" y1="62.1035" x2="21.1742" y2="75.2563" gradientUnits="userSpaceOnUse">
<stop stop-color="#4FA9B6"/>
<stop offset="1" stop-color="#6215F7"/>
</linearGradient>
<linearGradient id="paint5_linear_1920_2126" x1="21.1746" y1="84.4648" x2="21.1746" y2="97.6082" gradientUnits="userSpaceOnUse">
<stop stop-color="#4FA9B6"/>
<stop offset="1" stop-color="#6215F7"/>
</linearGradient>
<linearGradient id="paint6_linear_1920_2126" x1="60.0538" y1="24.6289" x2="60.0538" y2="27.7108" gradientUnits="userSpaceOnUse">
<stop stop-color="#4FA9B6"/>
<stop offset="1" stop-color="#6215F7"/>
</linearGradient>
<linearGradient id="paint7_linear_1920_2126" x1="36.6037" y1="62.3438" x2="36.6037" y2="65.4365" gradientUnits="userSpaceOnUse">
<stop stop-color="#4FA9B6"/>
<stop offset="1" stop-color="#6215F7"/>
</linearGradient>
<linearGradient id="paint8_linear_1920_2126" x1="36.5989" y1="84.6992" x2="36.5989" y2="87.7901" gradientUnits="userSpaceOnUse">
<stop stop-color="#4FA9B6"/>
<stop offset="1" stop-color="#6215F7"/>
</linearGradient>
<linearGradient id="paint9_linear_1920_2126" x1="69.9462" y1="62.6621" x2="69.9462" y2="65.6881" gradientUnits="userSpaceOnUse">
<stop stop-color="#4FA9B6"/>
<stop offset="1" stop-color="#6215F7"/>
</linearGradient>
<linearGradient id="paint10_linear_1920_2126" x1="69.9458" y1="85.0273" x2="69.9458" y2="88.0491" gradientUnits="userSpaceOnUse">
<stop stop-color="#4FA9B6"/>
<stop offset="1" stop-color="#6215F7"/>
</linearGradient>
<linearGradient id="paint11_linear_1920_2126" x1="12.5597" y1="6.38477" x2="12.5597" y2="9.44094" gradientUnits="userSpaceOnUse">
<stop stop-color="#4FA9B6"/>
<stop offset="1" stop-color="#6215F7"/>
</linearGradient>
<linearGradient id="paint12_linear_1920_2126" x1="17.9334" y1="6.38477" x2="17.9334" y2="9.44136" gradientUnits="userSpaceOnUse">
<stop stop-color="#4FA9B6"/>
<stop offset="1" stop-color="#6215F7"/>
</linearGradient>
<linearGradient id="paint13_linear_1920_2126" x1="23.2953" y1="6.38672" x2="23.2953" y2="9.4417" gradientUnits="userSpaceOnUse">
<stop stop-color="#4FA9B6"/>
<stop offset="1" stop-color="#6215F7"/>
</linearGradient>
</defs>
</svg>
