<?xml version="1.0" encoding="UTF-8"?><svg id="Capa_1" xmlns="http://www.w3.org/2000/svg" viewBox="0 0 218.75 60"><path d="M81.25,23.95c0-4.3.02-8.59-.02-12.89,0-.77.27-.94,1.1-.94,4.9.03,9.8,0,14.7.02,5.65.01,10.06,4.31,9.4,9.24-.22,1.65-1.09,3.08-2.56,4.19-.31.23-.61.4-.1.77,3.69,2.67,3.69,8.02-.25,11.26-1.82,1.5-4.01,2.27-6.53,2.27-4.93,0-9.86-.02-14.8.01-.79,0-.98-.21-.97-.87.03-4.35.02-8.71.02-13.06h0ZM92.84,26.82c-1.49,0-2.98.01-4.47,0-.49,0-.79.05-.78.59.03,1.45.02,2.9,0,4.35,0,.41.18.55.63.55,3.01-.02,6.03.03,9.04-.04,1.69-.04,2.99-1.36,2.92-2.78-.07-1.49-1.36-2.63-3.06-2.66-1.43-.03-2.85,0-4.28,0ZM92.84,21.21c1.43,0,2.85.02,4.28,0,1.75-.03,3.07-1.23,3.07-2.75,0-1.4-1.39-2.69-3.02-2.71-2.95-.03-5.9,0-8.85-.02-.54,0-.74.14-.73.63.03,1.39.03,2.79,0,4.18-.01.53.2.69.79.68,1.49-.03,2.98,0,4.47,0Z" style="fill:#78797c; stroke-width:0px;"/><path d="M9.1,24.01c0-4.35.02-8.71-.02-13.06,0-.62.15-.85.9-.83,1.52.05,3.05.05,4.58,0,.75-.03.93.18.92.82-.03,3.13,0,6.26-.04,9.39-.01.72.22.91,1.03.9,3.54-.04,7.08-.03,10.61,0,.73,0,.93-.18.92-.81-.04-3.16,0-6.32-.03-9.48,0-.64.19-.84.92-.81,1.46.05,2.93.08,4.38,0,.97-.05,1.09.29,1.09,1.02-.03,8.31-.02,16.62-.02,24.93q0,1.8-2.1,1.81c-1.14,0-2.27-.03-3.41.01-.7.03-.87-.2-.87-.78.03-3.1-.02-6.21.04-9.31.01-.81-.29-.99-1.16-.98-3.44.04-6.88.04-10.32,0-.84-.01-1.11.16-1.1.93.06,3.04,0,6.09.05,9.14,0,.73-.14,1.07-1.1,1.01-1.45-.08-2.92-.06-4.38,0-.73.02-.93-.16-.93-.81.03-4.35.02-8.71.02-13.06Z" style="fill:#797a7d; stroke-width:0px;"/><path d="M185.63,23.62c1.78-2.09,3.56-4.18,5.33-6.28,1.9-2.24,3.79-4.47,5.68-6.71.21-.25.38-.51.82-.51,2.2.01,4.4,0,6.65,0-.02.43-.34.65-.56.91-2.89,3.4-5.78,6.79-8.69,10.18-.38.44-.46.77-.13,1.29,3.04,4.83,6.04,9.68,9.06,14.52q.52.84-.55.84c-1.82,0-3.64-.02-5.45,0-.58.01-.86-.18-1.13-.61-1.98-3.23-3.98-6.45-5.98-9.68-.53-.85-.54-.85-1.17-.12-1.23,1.43-2.43,2.88-3.67,4.3-.34.39-.46.79-.45,1.26.02,1.39-.02,2.79.02,4.18.01.56-.27.66-.82.65-1.59-.02-3.18-.04-4.77,0-.74.02-.85-.25-.85-.81.02-3.53,0-7.06,0-10.59,0-5.12.02-10.25-.02-15.37,0-.77.21-1.05,1.13-1,1.42.07,2.86.07,4.28,0,.86-.04,1.03.26,1.03.92-.03,4.04-.02,8.08-.02,12.12,0,.13,0,.27,0,.4.08.02.15.04.23.06Z" style="fill:#78797c; stroke-width:0px;"/><path d="M147.59,23.96c0-4.33.02-8.65-.02-12.98,0-.67.19-.87.97-.86,6.59.03,13.18.03,19.77,0,.84,0,1.04.24,1.01.93-.06,1.22-.07,2.45,0,3.67.05.8-.19,1.06-1.16,1.05-4.38-.05-8.76,0-13.14-.04-.8,0-1.08.18-1.05.9.06,1.19.06,2.39,0,3.58-.04.76.18,1.04,1.12,1.02,2.76-.06,5.52,0,8.28-.04.8-.01.99.22.96.87-.05,1.34-.05,2.68,0,4.01.02.62-.23.76-.89.76-2.79-.03-5.58.02-8.37-.03-.89-.02-1.12.25-1.09.98.05,1.22.06,2.45,0,3.67-.04.71.27.86,1.01.85,4.41-.02,8.83,0,13.24-.03.84,0,1.15.16,1.1.94-.07,1.28-.05,2.56,0,3.84.02.62-.14.83-.9.83-6.65-.03-13.31-.03-19.96,0-.69,0-.87-.17-.87-.77.03-4.38.01-8.77.01-13.15h0Z" style="fill:#797a7d; stroke-width:0px;"/><path d="M70.43,19.28c0,2.48,0,4.95,0,7.43,0,5.52-4.57,10.28-10.58,11.02-6.52.8-12.36-2.43-14.21-7.88-.3-.87-.47-1.77-.47-2.69,0-5.38.02-10.76-.01-16.14,0-.7.19-.94,1.01-.91,1.52.06,3.05.04,4.58,0,.64-.01.8.17.8.74-.03,5.24-.02,10.47-.02,15.71,0,3.2,2.7,5.69,6.2,5.72,3.48.03,6.3-2.41,6.33-5.61.05-5.21.04-10.42,0-15.63,0-.78.25-.97,1.08-.93,1.46.06,2.92.05,4.38,0,.72-.02.94.14.93.79-.04,2.79-.02,5.58-.02,8.37Z" style="fill:#e30731; stroke-width:0px;"/><path d="M129.46,26.91c0,3.39-.02,6.77.02,10.16,0,.65-.2.83-.93.81-1.49-.05-2.99-.05-4.48,0-.78.03-.98-.19-.98-.87.03-6.74,0-13.49.04-20.23,0-.8-.18-1.08-1.16-1.06-2.5.06-5,0-7.5.03-.63,0-.85-.15-.83-.72.04-1.42.03-2.85,0-4.27,0-.48.16-.64.72-.64,7.95.01,15.9.02,23.85,0,.65,0,.74.24.73.72-.02,1.39-.04,2.79,0,4.18.02.56-.18.74-.83.73-2.56-.03-5.13.02-7.69-.03-.77-.01-1,.17-.99.85.04,3.44.02,6.89.02,10.33Z" style="fill:#78797c; stroke-width:0px;"/><path d="M48.25,8.99c-.81,0-1.62-.03-2.43,0-.61.03-.88-.11-.85-.7.05-1.08.04-2.16.02-3.24-.01-.44.15-.61.66-.6,1.75.02,3.5.02,5.25,0,.54,0,.65.2.65.62-.02,1.11-.03,2.22,0,3.33.01.44-.16.61-.67.6-.87-.02-1.75,0-2.63,0Z" style="fill:#797a7d; stroke-width:0px;"/><path d="M67.2,9c-.84,0-1.69-.02-2.53,0-.52.01-.77-.11-.75-.62.04-1.08.04-2.16,0-3.24-.02-.53.21-.69.79-.68,1.69.02,3.37.02,5.06,0,.5,0,.69.14.68.59-.03,1.14-.02,2.27,0,3.41,0,.4-.15.56-.62.55-.87-.02-1.75,0-2.63,0Z" style="fill:#797a7d; stroke-width:0px;"/><path d="M203.23,49.26c0,1.17.02,2.33,0,3.5-.01.48-.07.97-.18,1.44-.24.96-1.08,1.43-2.25,1.31-1.17-.12-1.78-.74-1.76-1.78,0-.22-.06-.48.33-.51.38-.03.52.16.53.46.01.29.08.57.32.79.55.5,1.49.36,1.87-.27.2-.34.2-.71.26-1.08.1-.64.02-.98-.94-.79-1.31.26-2.17-.37-2.31-1.6-.16-1.41-.23-2.83,0-4.25.21-1.34,1.04-1.86,2.58-1.64.13.02.28.11.37.07,1.53-.58,1.19.44,1.21,1.11.03,1.08,0,2.16,0,3.24h0ZM202.33,48.57s0,0,0,0c0-.65,0-1.31,0-1.96,0-.64-.35-1.05-1.07-1.1-.76-.05-1.21.33-1.31.99-.2,1.39-.19,2.77,0,4.16.09.65.51,1.07,1.28,1.03.77-.04,1.11-.51,1.12-1.17.01-.65,0-1.31,0-1.96Z" style="fill:#858587; stroke-width:0px;"/><path d="M70.61,49.66c-.07,1.24.17,2.78-.12,4.31-.23,1.22-1.11,1.72-2.51,1.51-1.05-.16-1.73-1-1.56-1.93.03-.19.08-.33.33-.33.23,0,.48.03.5.29.07.77.41,1.4,1.41,1.25,1.04-.16.98-1,1.05-1.7.06-.57.15-1.04-.89-.73-1.03.31-1.99-.22-2.21-1.16-.4-1.68-.39-3.39-.02-5.07.23-1.03,1.03-1.42,2.24-1.29.19.02.41.13.57.08,1.43-.43,1.22.42,1.21,1.16-.02,1.11,0,2.22,0,3.61ZM67.18,48.57c.05.65.07,1.36.15,2.07.07.59.38,1.05,1.13,1.07.77.02,1.2-.37,1.26-1.03.13-1.38.11-2.77,0-4.15-.05-.63-.47-1.01-1.17-1.03-.8-.02-1.15.45-1.23,1.08-.08.65-.1,1.3-.15,2Z" style="fill:#858587; stroke-width:0px;"/><path d="M32.01,45.04c2.21-.59,3.16.03,3.16,1.97,0,1.48.02,2.96-.01,4.43,0,.33.32.92-.41.94-.77.02-.44-.57-.45-.9-.03-1.53,0-3.07-.02-4.6,0-.94-.4-1.41-1.17-1.35-.92.07-1.11.63-1.1,1.34.02,1.62,0,3.24,0,4.86,0,.29.13.69-.45.68-.57,0-.44-.4-.44-.69,0-3.13,0-6.25,0-9.38,0-.28-.18-.69.41-.7.55-.01.47.37.47.67,0,.9,0,1.81,0,2.73Z" style="fill:#858587; stroke-width:0px;"/><path d="M75.87,50.38c.38-1.61.74-3.17,1.11-4.73.05-.22.11-.45.2-.66.12-.28.42-.23.67-.2.35.03.26.26.21.45-.8,3.01-1.59,6.03-2.42,9.04-.21.77-.92,1.13-1.8,1.24-.23.03-.47.08-.53-.21-.05-.24.02-.41.33-.53,1.13-.42,1.85-1.75,1.56-2.91-.54-2.13-1.11-4.26-1.67-6.39-.06-.25-.34-.58.17-.7.52-.12.66.19.75.57.34,1.48.69,2.95,1.04,4.42.04.19.01.4.37.59Z" style="fill:#858587; stroke-width:0px;"/><path d="M179.24,48.6c0-1.08,0-2.16,0-3.24,0-.29.03-.72.45-.55.64.26,1.19-.04,1.78-.03.93.01,1.68.47,1.78,1.29.23,1.98.05,3.97.1,5.96,0,.3-.2.39-.51.37-.43-.03-.38-.32-.39-.57,0-1.53,0-3.07,0-4.6,0-1.23-.36-1.73-1.2-1.7-.82.03-1.09.46-1.09,1.69,0,1.51,0,3.01,0,4.52,0,.29.12.67-.46.67-.57,0-.48-.35-.48-.65,0-1.05,0-2.1,0-3.15h0Z" style="fill:#858587; stroke-width:0px;"/><path d="M191.64,48.58c0-1.08,0-2.16,0-3.24,0-.3.1-.73.47-.53.58.33,1.01.03,1.51-.02,1.18-.12,2.03.55,2.1,1.75.06.94.02,1.88.02,2.82,0,.74.02,1.48-.01,2.22-.01.32.23.84-.49.81-.63-.02-.42-.48-.42-.79-.02-1.62,0-3.24-.02-4.86-.01-.9-.5-1.32-1.32-1.2-.77.12-.95.6-.95,1.19,0,1.54,0,3.07,0,4.61,0,.2,0,.4,0,.6,0,.25-.06.45-.41.46-.41.01-.48-.2-.48-.49,0-1.11,0-2.22,0-3.33Z" style="fill:#858587; stroke-width:0px;"/><path d="M108.34,49.03c0,1.05-.01,1.93,0,2.81.01.52-.27.73-.76.48-.35-.17-.61-.08-.91-.01-1.37.29-2.13-.12-2.39-1.31-.34-1.54.33-3.05,2.47-2.94.48.02.74-.14.7-.59-.04-.4-.05-.79-.11-1.19-.07-.45-.38-.71-.91-.75-.55-.04-.94.15-1.14.61-.06.13-.11.27-.13.41-.04.29-.21.4-.52.36-.38-.05-.3-.32-.3-.53.02-.84.72-1.49,1.69-1.59,1.08-.11,1.91.32,2.16,1.18.31,1.06.05,2.15.14,3.06ZM107.45,49.83c-.14-.31.31-.88-.28-1.07-.58-.19-1.23-.07-1.7.35-.49.44-.56,1.66-.14,2.17.29.36.7.5,1.19.36.78-.22.97-.76.94-1.41,0-.11,0-.23,0-.4Z" style="fill:#858587; stroke-width:0px;"/><path d="M16.1,48.89c.04-1.11-.02-1.97.23-2.81.24-.85.87-1.27,1.9-1.3,1.03-.03,1.68.35,2,1.18.05.13.11.27.14.41.47,2.37.47,2.41-2.27,2.36-.95-.02-1.2.29-1.09,1.04.06.36.03.73.15,1.1.18.55.57.8,1.2.81.63,0,1.06-.27,1.21-.8.09-.32.09-.67.61-.57.62.11.25.51.2.76-.17.84-.88,1.3-1.96,1.35-1.04.04-1.79-.4-2.08-1.22-.05-.14-.1-.27-.11-.41-.05-.71-.1-1.42-.13-1.87ZM18.25,48.11c.48-.24,1.45.38,1.37-.77-.08-1.21-.47-1.86-1.32-1.86-.9,0-1.41.78-1.37,2.09.03.99.89.27,1.31.54Z" style="fill:#858587; stroke-width:0px;"/><path d="M116.82,48.74c-.03-.83.02-1.65.17-2.46.19-.99.88-1.48,2.01-1.5,1.07-.01,1.75.46,2.01,1.4.02.08.04.17.06.25.41,2.32.41,2.36-2.24,2.31-.9-.02-1.25.22-1.11,1,.07.36.09.73.16,1.09.1.58.55.81,1.16.83.63.02,1.08-.23,1.22-.77.09-.35.12-.74.68-.57.53.16.19.55.13.8-.18.78-.92,1.24-1.93,1.29-1.02.04-1.75-.35-2.05-1.13-.32-.82-.24-1.68-.29-2.53ZM119.02,48.12c.41-.19,1.34.44,1.31-.66-.04-1.3-.41-1.95-1.3-1.98-.84-.03-1.24.64-1.33,1.85-.08.99.66.75,1.33.79Z" style="fill:#858587; stroke-width:0px;"/><path d="M38.77,48.6c0-1.08,0-2.16,0-3.24,0-.57.32-.78.82-.43.32.22.47.03.67-.02,1.37-.35,2.44.14,2.52,1.37.13,1.9.07,3.81.09,5.71,0,.26-.1.43-.45.42-.43-.01-.43-.26-.43-.53,0-1.48,0-2.96,0-4.44,0-.31-.02-.63-.06-.94-.08-.63-.44-1.02-1.2-.96-.74.06-1.07.48-1.07,1.11,0,1.68,0,3.36-.01,5.03,0,.27.19.69-.39.72-.65.03-.48-.41-.48-.73-.01-1.02,0-2.05,0-3.07Z" style="fill:#858587; stroke-width:0px;"/><path d="M124.49,48.6c0-1.08,0-2.16,0-3.24,0-.58.29-.77.81-.43.26.17.39.06.59.01,1.62-.42,2.66.24,2.7,1.76.04,1.28,0,2.56,0,3.84,0,.46,0,.91,0,1.37,0,.28-.03.52-.46.51-.42-.01-.43-.26-.43-.53,0-1.48,0-2.96,0-4.44,0-.26.02-.51-.01-.77-.07-.62-.31-1.15-1.15-1.13-.85.01-1.17.5-1.17,1.19,0,1.56,0,3.13,0,4.69,0,.17,0,.34,0,.51.01.31-.11.49-.5.47-.37-.02-.38-.24-.38-.48,0-1.11,0-2.22,0-3.33Z" style="fill:#858587; stroke-width:0px;"/><path d="M170.77,49.16c0,.91-.02,1.82,0,2.73.02.53-.36.66-.71.44-.38-.23-.61-.11-.94-.02-1.17.31-2.06-.13-2.34-1.17-.39-1.49.07-3.16,2.46-3.09.46.01.65-.16.63-.55-.02-.34,0-.68-.02-1.02-.04-.5-.28-.88-.91-.94-.65-.07-1.06.21-1.25.73-.11.3-.02.79-.63.63-.57-.15-.25-.58-.17-.87.24-.86,1-1.3,2.03-1.25,1.05.06,1.72.56,1.79,1.48.07.96.02,1.93.02,2.9.01,0,.03,0,.04,0ZM169.93,49.92c0-1.25-.35-1.5-1.47-1.1-.82.29-1.16,1.17-.84,2.12.16.46.49.76,1.03.77.52,0,.93-.23,1.13-.67.17-.38.18-.78.16-1.11Z" style="fill:#858587; stroke-width:0px;"/><path d="M46.29,48.52c.04-.82-.02-1.65.22-2.45.26-.83.91-1.26,1.91-1.28,1.01-.02,1.76.36,1.97,1.19.46,1.73.45,3.49,0,5.22-.22.85-.93,1.22-1.96,1.21-.94-.01-1.62-.36-1.9-1.18-.3-.88-.22-1.8-.26-2.7ZM47.26,48.52s-.01,0-.02,0c0,.68-.04,1.36.01,2.04.05.62.4,1.1,1.18,1.13.78.03,1.22-.41,1.29-1.04.15-1.38.18-2.77-.02-4.15-.08-.59-.47-1.03-1.2-1.02-.76,0-1.19.44-1.24,1.08-.05.65-.01,1.3-.01,1.95Z" style="fill:#858587; stroke-width:0px;"/><path d="M63.25,49.17c-.1.67-.02,1.36-.24,2.03-.27.85-.99,1.17-1.89,1.2-.91.03-1.73-.24-1.96-1.09-.49-1.82-.48-3.66.02-5.47.23-.85,1.09-1.07,2-1.04.89.03,1.58.37,1.81,1.17.3,1.05.37,2.13.26,3.21ZM59.75,48.56c0,.6-.04,1.2,0,1.79.06.7.35,1.31,1.29,1.35.94.03,1.23-.61,1.29-1.24.12-1.33.14-2.67-.08-4-.1-.57-.46-.96-1.14-.98-.66-.01-1.07.3-1.25.88-.23.73-.09,1.47-.12,2.2Z" style="fill:#858587; stroke-width:0px;"/><path d="M99.28,47.44c0-1.42-.03-2.84.02-4.26.02-.61-.23-.82-.89-.75-.22.02-.45,0-.68,0-.28,0-.4-.13-.4-.38,0-.23.09-.41.37-.41,1.36-.01,2.72-.01,4.08-.02.3,0,.38.16.39.39.01.28-.12.38-.44.43-1.53.21-1.52.22-1.52,1.56,0,2.55,0,5.11,0,7.66,0,.31.17.75-.48.73-.59-.01-.42-.42-.42-.7-.01-1.42,0-2.84,0-4.26h0Z" style="fill:#858587; stroke-width:0px;"/><path d="M11.12,47.4c0-1.34-.04-2.68.02-4.01.03-.73-.17-1.09-1.06-.96-.16.02-.32,0-.49,0-.27,0-.43-.12-.43-.36,0-.26.11-.45.44-.45,1.33,0,2.66,0,3.99,0,.28,0,.39.14.4.38,0,.27-.1.39-.44.44-.5.08-1.21-.3-1.47.29-.18.4-.05.9-.05,1.35,0,2.53,0,5.06,0,7.59,0,.32.14.76-.5.72-.58-.03-.37-.46-.38-.73-.02-1.42,0-2.84,0-4.27h0Z" style="fill:#858587; stroke-width:0px;"/><path d="M24.25,48.65c.04.65.04,1.31.13,1.95.08.58.4,1.03,1.16,1.06.77.04,1.15-.33,1.19-.96.03-.39.26-.49.64-.43.43.08.31.36.26.61-.18.95-.81,1.46-1.89,1.52-1.07.05-1.86-.38-2.08-1.29-.4-1.68-.42-3.38,0-5.06.23-.93,1.06-1.34,2.21-1.25,1.06.09,1.71.66,1.8,1.6.02.22.1.49-.28.53-.32.04-.58-.02-.62-.37-.07-.66-.45-1.06-1.25-1.02-.88.05-1.07.63-1.18,1.25-.05.31-.05.62-.05.93,0,.31,0,.62,0,.94-.01,0-.02,0-.04,0Z" style="fill:#858587; stroke-width:0px;"/><path d="M156.52,47.41c0-1.45-.02-2.9.01-4.34.01-.51-.14-.75-.75-.68-.25.03-.52,0-.78,0-.26,0-.43-.11-.43-.36,0-.26.18-.35.43-.35,1.29,0,2.59,0,3.88,0,.25,0,.44.06.46.32.02.31-.19.36-.48.39-.48.06-1.13-.26-1.4.24-.18.36-.06.84-.07,1.26,0,2.58,0,5.17,0,7.75,0,.32.14.75-.49.73-.59-.02-.37-.45-.37-.72-.02-1.42-.01-2.84-.01-4.26Z" style="fill:#797a7d; stroke-width:0px;"/><path d="M134.21,52.37c-1.16-.08-1.78-.68-1.81-1.84-.04-1.39-.01-2.78,0-4.17,0-.46.09-.96-.74-.89-.23.02-.34-.15-.34-.34,0-.19.09-.35.33-.34.81.06.78-.41.75-.89-.01-.31,0-.62,0-.94,0-.25.17-.35.44-.35.27,0,.43.1.44.35,0,.2.02.4.01.6-.02.68-.18,1.44,1.11,1.23.28-.05.4.16.38.38-.01.22-.21.29-.41.25-1.18-.19-1.1.48-1.08,1.17.03,1.25.02,2.5,0,3.75,0,.67.2,1.18,1.05,1.3.33.05.56.17.49.5-.07.33-.36.26-.61.23Z" style="fill:#858587; stroke-width:0px;"/><path d="M54.11,46.34c0-1.36,0-2.73,0-4.09,0-.26-.12-.62.4-.63.55,0,.49.35.49.66,0,2.61,0,5.23,0,7.84,0,.72.04,1.39,1.09,1.54.33.05.38.28.3.53-.09.28-.34.19-.56.17-1.1-.1-1.69-.73-1.71-1.93-.03-1.36,0-2.73,0-4.09Z" style="fill:#858587; stroke-width:0px;"/><path d="M111.9,46.37c0-1.37,0-2.73,0-4.1,0-.26-.12-.62.38-.65.55-.03.5.33.5.65,0,2.59,0,5.18,0,7.76,0,.75-.07,1.54,1.15,1.65.31.03.29.28.25.47-.05.28-.3.23-.54.22-1.04-.06-1.7-.71-1.73-1.83-.04-1.39,0-2.79,0-4.18h-.01Z" style="fill:#858587; stroke-width:0px;"/><path d="M211.67,13.12c0,1.32-1.23,2.4-2.74,2.35-1.73-.06-2.65-.93-2.67-2.43-.02-1.36,1.18-2.37,2.73-2.33,1.77.05,2.62,1.05,2.67,2.4ZM210.3,14.32c.2.28.3.04.39-.07.62-.69.58-1.77-.07-2.43-.71-.72-1.81-.88-2.8-.38-.83.41-1.28,1.39-1.01,2.19.29.85,1.29,1.47,2.28,1.41.66-.04,1.05-.28,1.21-.73v.02Z" style="fill:#e30731; stroke-width:0px;"/><path d="M161.63,48.58c0-1.08,0-2.16,0-3.24,0-.61.29-.85.86-.39.41.33.62-.1.93-.1.32,0,.72-.31.85.21.14.53-.27.35-.61.4-.82.13-1.15.65-1.14,1.37.01,1.56.02,3.13-.01,4.69,0,.31.28.85-.41.86-.78.01-.44-.57-.45-.9-.04-.97-.02-1.93-.02-2.9h0Z" style="fill:#858587; stroke-width:0px;"/><path d="M175.48,48.68c0,1.02,0,2.04,0,3.06,0,.3.07.67-.49.65-.49-.02-.43-.34-.43-.62,0-2.1,0-4.2,0-6.3,0-.29-.1-.67.45-.69.59-.02.46.37.46.66,0,1.08,0,2.16,0,3.23Z" style="fill:#858587; stroke-width:0px;"/><path d="M186.97,48.57c0-1.05,0-2.1,0-3.15,0-.28-.04-.62.44-.61.41,0,.4.32.4.57.01,2.16.02,4.31.03,6.47,0,.27-.03.54-.44.53-.44-.01-.37-.33-.37-.57,0-1.08,0-2.16,0-3.24-.02,0-.03,0-.05,0Z" style="fill:#78797c; stroke-width:0px;"/><path d="M87.56,48.67c-.42,0-.84,0-1.26,0-.3,0-.38-.16-.38-.39,0-.23.1-.38.39-.38.84,0,1.68,0,2.52,0,.26,0,.43.1.44.35.01.27-.1.43-.44.43-.42,0-.84,0-1.26,0Z" style="fill:#858587; stroke-width:0px;"/><path d="M144.79,48.67c-.39,0-.77,0-1.16,0-.3,0-.49-.08-.5-.38,0-.29.16-.4.47-.4.8,0,1.61,0,2.41,0,.32,0,.45.15.45.43,0,.32-.24.35-.52.34-.39,0-.77,0-1.16,0Z" style="fill:#858587; stroke-width:0px;"/><path d="M187.98,42.54c.07.42-.2.52-.62.53-.43,0-.53-.17-.54-.52-.01-.42.19-.53.63-.53.42,0,.59.16.54.52Z" style="fill:#858587; stroke-width:0px;"/><path d="M175.58,42.59c.04.34-.05.52-.52.49-.45-.03-.61-.15-.6-.55,0-.36.15-.49.56-.5.48-.01.62.2.57.56Z" style="fill:#858587; stroke-width:0px;"/><path d="M210.32,14.31c-.57.33-.79-.02-1.02-.39-.17-.27-.39-.6-.79-.51-.37.08-.15.43-.2.66-.04.17-.05.35-.32.32-.21-.02-.22-.18-.22-.32,0-.62,0-1.25.01-1.87,0-.18.06-.36.31-.36.6.02,1.25-.17,1.74.29.22.21.3.52.1.7-.78.7.03,1.05.39,1.5,0,0,.02-.02.02-.02ZM209.45,12.57c-.09-.32-.39-.33-.68-.36-.33-.04-.47.07-.47.37,0,.31.18.39.48.38.31-.01.56-.09.66-.38Z" style="fill:#e30731; stroke-width:0px;"/></svg>