<svg width="97" height="101" viewBox="0 0 97 101" fill="none" xmlns="http://www.w3.org/2000/svg">
<path d="M31.9934 57.9287V36.6587C31.9934 34.7287 32.4324 34.2988 34.3934 34.2988H56.5864C58.5064 34.2988 58.9864 34.7787 58.9864 36.6887V57.8787C59.3984 57.8987 59.7534 57.9287 60.1084 57.9287C62.9084 57.9387 65.7144 57.9287 68.5174 57.9287C70.3404 57.9387 70.8224 58.4087 70.8254 60.1787C70.8254 67.1787 70.8254 74.1754 70.8254 81.1687C70.8254 83.5887 69.5934 84.8186 67.1414 84.8186C60.9264 84.8286 54.7104 84.9288 48.4974 84.7788C44.4344 84.6788 40.3854 84.9186 36.3274 84.8386C32.2434 84.7586 28.1534 84.8186 24.0664 84.8186C21.2664 84.8186 20.1094 83.6787 20.1094 80.9187V60.2388C20.1094 58.4088 20.5894 57.9387 22.4714 57.9287H31.9914H31.9934ZM43.7784 81.5288V61.2588H39.1904C39.1904 63.8788 39.1984 66.3987 39.1904 68.9187C39.1844 70.2487 38.6214 70.7988 37.2704 70.8088C34.8037 70.8188 32.3397 70.8188 29.8784 70.8088C28.6034 70.7988 28.0344 70.2287 28.0264 68.9487C28.0124 66.6987 28.0264 64.4487 28.0184 62.1887C28.0184 61.8687 27.9824 61.5488 27.9614 61.2288H23.4194V81.5288H43.7814H43.7784ZM47.1174 81.5188H67.5024V61.2388H62.9324V62.4087C62.9324 64.6287 62.9454 66.8486 62.9214 69.0686C62.9514 69.2966 62.9295 69.5287 62.8574 69.7471C62.7853 69.9655 62.6648 70.1647 62.5049 70.3301C62.3451 70.4954 62.1499 70.6225 61.9341 70.7019C61.7183 70.7813 61.4873 70.8111 61.2584 70.7888C58.6584 70.8188 56.0584 70.8188 53.4584 70.7888C52.3424 70.7788 51.7714 70.1588 51.7584 68.9788C51.7364 67.3988 51.7534 65.8188 51.7534 64.2388V61.2488H47.1214V81.5188H47.1174ZM51.0934 37.5786C51.0934 40.1686 51.1044 42.6587 51.0934 45.1387C51.0854 46.5987 50.5174 47.1687 49.0764 47.1687C46.6764 47.1787 44.2794 47.1787 41.8854 47.1687C40.4764 47.1587 39.9104 46.6288 39.8974 45.2288C39.8754 43.0388 39.8914 40.8587 39.8864 38.6687C39.8864 38.3187 39.8534 37.9586 39.8354 37.6086H35.3024V57.8586H55.6614V37.5686H51.0974L51.0934 37.5786ZM35.9124 61.2388H31.3244V67.5088H35.9124V61.2388ZM59.6124 67.5388V61.2388H55.0624V67.5388H59.6124ZM47.7794 43.8987V37.5288C46.3684 37.5288 45.0274 37.5088 43.6894 37.5488C43.5024 37.5588 43.1694 37.8187 43.1674 37.9688C43.1314 39.9288 43.1424 41.8987 43.1424 43.8987H47.7794Z" fill="url(#paint0_linear_2059_66)"/>
<path d="M45.4771 87.3485C52.9091 87.3485 60.3411 87.3385 67.7771 87.3585C68.0513 87.403 68.3325 87.3504 68.5722 87.2098C68.8119 87.0693 68.995 86.8496 69.0901 86.5885C69.8334 84.9846 71.0624 83.6554 72.6031 82.7887C72.8822 82.6538 73.1116 82.4342 73.2585 82.1612C73.4054 81.8883 73.4623 81.5759 73.4211 81.2687C73.4051 67.2487 73.4051 53.2253 73.4211 39.1986C73.3365 37.0785 73.9392 34.9879 75.1393 33.2382C76.3395 31.4884 78.0728 30.1732 80.0811 29.4886C81.1688 29.1227 82.3057 28.9237 83.4531 28.8986C86.4918 28.8186 89.5318 28.8152 92.5731 28.8885C93.1431 28.8717 93.7108 28.9688 94.2429 29.1739C94.775 29.3791 95.2609 29.6881 95.6721 30.0831C96.0834 30.4782 96.4118 30.9513 96.6381 31.4747C96.8644 31.9982 96.9841 32.5615 96.9902 33.1317C96.9963 33.7019 96.8888 34.2676 96.6737 34.7958C96.4587 35.3239 96.1405 35.8041 95.7378 36.2079C95.3351 36.6117 94.8559 36.9311 94.3284 37.1476C93.8008 37.364 93.2354 37.4732 92.6651 37.4686C89.7591 37.4986 86.8551 37.4786 83.9491 37.4786C82.4651 37.4786 82.0151 37.9186 82.0151 39.4086C82.0151 53.4686 82.0098 67.5252 81.9991 81.5785C81.9831 81.8395 82.0447 82.0995 82.1762 82.3256C82.3078 82.5516 82.5033 82.7335 82.7381 82.8485C84.5272 83.9579 85.8956 85.6319 86.627 87.6058C87.3585 89.5798 87.4113 91.7413 86.7771 93.7486C86.1379 95.7573 84.8553 97.4996 83.1273 98.7069C81.3994 99.9142 79.3221 100.519 77.2161 100.429C75.8264 100.398 74.4618 100.052 73.2258 99.4164C71.9897 98.7805 70.9147 97.8717 70.0821 96.7587C69.9004 96.4869 69.6502 96.2679 69.3568 96.1239C69.0634 95.9799 68.7372 95.916 68.4111 95.9386C53.4778 95.9586 38.5471 95.9653 23.6191 95.9586C21.1841 95.9586 19.4291 94.7487 18.9191 92.7587C18.7464 92.1126 18.727 91.435 18.8624 90.7801C18.9979 90.1253 19.2845 89.5112 19.6993 88.9867C20.1142 88.4622 20.6458 88.0418 21.2519 87.7591C21.8579 87.4765 22.5216 87.3392 23.1901 87.3585C28.9671 87.3285 34.7421 87.3485 40.5191 87.3485H45.4861H45.4771ZM83.1321 34.1886V32.1285C82.6071 32.2085 82.1321 32.2385 81.6911 32.3485C80.1921 32.7305 78.8715 33.6194 77.9534 34.8644C77.0352 36.1093 76.5762 37.6337 76.6541 39.1786C76.6461 52.8886 76.6434 66.6051 76.6461 80.3285V81.3385H78.7611V39.6886C78.7611 36.4386 79.9281 34.9586 83.1321 34.1986V34.1886ZM67.9511 90.5785H23.7061C23.5391 90.5785 23.3681 90.5685 23.2001 90.5785C22.4821 90.5985 22.0191 90.9586 22.0331 91.6786C22.0461 92.3586 22.5171 92.6786 23.1761 92.7186C23.4111 92.7286 23.6471 92.7286 23.8851 92.7286H68.1651C68.0901 91.9486 68.0271 91.3185 67.9511 90.5685V90.5785ZM83.9641 90.8585C83.9631 89.5975 83.5871 88.3654 82.8839 87.3187C82.1806 86.272 81.1819 85.4581 80.0147 84.9806C78.8476 84.5031 77.5648 84.3837 76.3295 84.6373C75.0943 84.891 73.9624 85.5064 73.0779 86.4051C72.1934 87.3039 71.5962 88.4455 71.3624 89.6847C71.1285 90.9238 71.2685 92.2045 71.7646 93.3639C72.2607 94.5232 73.0905 95.5088 74.1483 96.1952C75.2061 96.8816 76.4442 97.2379 77.7051 97.2186C79.3724 97.1862 80.9609 96.5027 82.1306 95.3141C83.3003 94.1255 83.9584 92.5261 83.9641 90.8585ZM86.4581 34.2486H92.4711C93.1641 34.2486 93.6711 33.9786 93.7091 33.2286C93.7471 32.4086 93.1891 32.1185 92.4711 32.1085C90.9241 32.0885 89.3811 32.0985 87.8341 32.0985C87.3821 32.0985 86.9341 32.1386 86.4611 32.1686V34.2486H86.4581Z" fill="url(#paint1_linear_2059_66)"/>
<path d="M19.9283 23.7389C20.1613 24.1489 20.4163 24.579 20.6513 25.019C20.9124 25.4346 21.0829 25.9006 21.1517 26.3866C21.2205 26.8726 21.186 27.3677 21.0506 27.8395C20.9152 28.3113 20.6819 28.7491 20.3658 29.1247C20.0498 29.5002 19.6581 29.805 19.2163 30.019C18.1713 30.639 17.1163 31.229 16.0473 31.809C15.6258 32.0973 15.1463 32.2899 14.6425 32.3732C14.1387 32.4566 13.6228 32.4284 13.1309 32.2912C12.639 32.154 12.1831 31.9109 11.7952 31.5788C11.4072 31.2467 11.0967 30.8337 10.8853 30.3688C7.73531 24.8488 4.5943 19.3257 1.4623 13.799C1.1133 13.189 0.747307 12.5789 0.428307 11.9589C-0.00677055 11.1849 -0.121776 10.2712 0.107887 9.4135C0.33755 8.55577 0.89366 7.82191 1.65731 7.36882C2.91731 6.58882 4.2083 5.86222 5.5303 5.18889C6.316 4.77036 7.23375 4.67419 8.0892 4.92058C8.94464 5.16696 9.67059 5.73662 10.1133 6.50896C10.3463 6.86896 10.5523 7.2489 10.8133 7.6989C11.6553 7.2289 12.4383 6.78879 13.2133 6.33879C15.6406 4.94879 18.0656 3.55553 20.4883 2.15886C21.9908 1.21538 23.6961 0.642705 25.4635 0.48796C27.2309 0.333215 29.0097 0.600944 30.6533 1.26897C34.2933 2.64897 38.0903 3.6389 41.8533 4.6989C43.1747 5.01117 44.3281 5.81402 45.0799 6.94475C45.8317 8.07547 46.1256 9.44965 45.9023 10.789C45.8723 10.989 45.8753 11.179 45.8533 11.519C46.3533 11.249 46.7713 11.039 47.1693 10.809C51.5193 8.299 55.8503 5.759 60.2243 3.299C62.1424 2.06246 64.4148 1.49293 66.6893 1.67888C67.8064 1.77302 68.8629 2.2262 69.7011 2.97063C70.5393 3.71505 71.114 4.71087 71.3393 5.809C71.6102 6.94787 71.5143 8.14317 71.0653 9.22429C70.6164 10.3054 69.8373 11.2168 68.8393 11.8288C63.5586 15.0888 58.273 18.3323 52.9823 21.559C50.7123 22.949 48.4313 24.3289 46.1753 25.7389C44.8984 26.5699 43.4568 27.1144 41.9495 27.3354C40.4422 27.5563 38.9049 27.4485 37.4433 27.019C32.5953 25.709 27.7253 24.4788 22.8963 23.1088C22.3924 22.9123 21.842 22.8673 21.3128 22.9792C20.7836 23.0911 20.2985 23.3552 19.9173 23.7389H19.9283ZM18.2713 20.8288C18.623 20.6707 18.9609 20.4836 19.2813 20.269C19.8026 19.8735 20.4178 19.6203 21.0665 19.5343C21.7152 19.4484 22.375 19.5328 22.9813 19.779C27.9813 21.179 33.0133 22.4488 38.0163 23.8288C39.1307 24.1667 40.3056 24.2568 41.4585 24.0927C42.6114 23.9286 43.7144 23.5143 44.6903 22.8788C52.0516 18.3188 59.431 13.7823 66.8283 9.26897C67.3857 9.01713 67.827 8.56362 68.0637 7.99968C68.3004 7.43574 68.3149 6.80312 68.1043 6.22893C68.0072 5.95501 67.8561 5.70342 67.66 5.48894C67.4638 5.27445 67.2267 5.10136 66.9625 4.98015C66.6984 4.85894 66.4126 4.79193 66.1221 4.78313C65.8316 4.77432 65.5423 4.82389 65.2713 4.92888C63.6843 5.35321 62.152 5.96068 60.7053 6.73894C56.6363 8.98894 52.6313 11.3589 48.6223 13.7089C46.7373 14.8189 44.7113 15.6389 42.5613 15.2289C38.6613 14.4889 34.8123 13.499 30.9613 12.529C30.766 12.4679 30.5856 12.3668 30.4316 12.2321C30.2776 12.0974 30.1534 11.9321 30.0668 11.7467C29.9802 11.5614 29.9333 11.36 29.9289 11.1554C29.9245 10.9509 29.9628 10.7479 30.0413 10.559C30.1707 10.172 30.4436 9.84928 30.8039 9.65764C31.1641 9.466 31.5841 9.42006 31.9773 9.52898C32.5033 9.63898 33.0143 9.8189 33.5373 9.9489C35.8203 10.5389 38.0933 11.1889 40.3983 11.6689C40.651 11.7499 40.9185 11.7741 41.1816 11.7397C41.4448 11.7052 41.697 11.613 41.9204 11.4696C42.1437 11.3263 42.3326 11.1355 42.4734 10.9106C42.6143 10.6857 42.7038 10.4324 42.7353 10.1689C42.8052 9.64684 42.6776 9.1176 42.3776 8.68474C42.0776 8.25187 41.6267 7.94651 41.1133 7.82878C37.0203 6.59878 32.9133 5.41877 28.8523 4.06877C28.0229 3.72877 27.1312 3.56733 26.2353 3.59489C25.3393 3.62246 24.4592 3.83857 23.6523 4.22893C19.8793 6.22893 16.1743 8.35892 12.3853 10.4689C14.3753 13.9689 16.2983 17.3588 18.2703 20.8188L18.2713 20.8288ZM3.15031 10.2189C6.80131 16.6389 10.3683 22.909 13.9783 29.259C15.0783 28.649 16.0503 28.049 17.0783 27.549C17.8553 27.169 17.9933 26.839 17.5273 26.029C14.2273 20.319 10.9943 14.5788 7.73631 8.8488C7.57431 8.5688 7.3873 8.2989 7.1673 7.9489C5.82431 8.7089 4.5483 9.42892 3.1543 10.2189H3.15031Z" fill="url(#paint2_linear_2059_66)"/>
<path d="M13.4798 45.3491H17.4928C20.5678 45.3491 23.6418 45.3391 26.7158 45.3591C27.8318 45.3591 28.5088 45.8893 28.6218 46.7693C28.7578 47.8193 27.9828 48.5691 26.7218 48.5791H13.5798L13.3118 48.9292C13.5068 48.9892 13.7668 48.9992 13.8828 49.1292C14.0346 49.2643 14.1579 49.4282 14.2456 49.6116C14.3332 49.7949 14.3835 49.994 14.3933 50.197C14.4032 50.4 14.3725 50.6027 14.3031 50.7937C14.2336 50.9847 14.1268 51.1601 13.9888 51.3093C13.7077 51.6312 13.3106 51.8287 12.8843 51.8586C12.458 51.8886 12.0372 51.7486 11.7138 51.4692C10.3378 50.4392 8.97283 49.3893 7.63683 48.3093C7.40587 48.1617 7.21669 47.9571 7.08745 47.7153C6.95821 47.4736 6.89324 47.2028 6.89876 46.9287C6.90428 46.6547 6.98011 46.3867 7.11898 46.1504C7.25785 45.9141 7.4551 45.7173 7.69182 45.5791C8.95382 44.5591 10.2378 43.5791 11.5238 42.5991C11.6824 42.4349 11.8724 42.3043 12.0825 42.2151C12.2926 42.1259 12.5186 42.0801 12.7468 42.0801C12.9751 42.0801 13.201 42.1259 13.4112 42.2151C13.6213 42.3043 13.8113 42.4349 13.9698 42.5991C14.6118 43.3191 14.5218 44.0793 13.6988 44.9993C13.6204 45.1121 13.548 45.2288 13.4818 45.3491H13.4798Z" fill="url(#paint3_linear_2059_66)"/>
<path d="M88.8293 17.9689H87.5673C83.5533 17.9689 79.5393 17.9589 75.5253 17.9789C75.1378 18.0364 74.7424 17.9584 74.4059 17.758C74.0693 17.5576 73.8123 17.2469 73.6783 16.8788C73.594 16.63 73.5723 16.3642 73.6151 16.1049C73.6579 15.8457 73.764 15.6011 73.9238 15.3925C74.0836 15.1839 74.2924 15.0179 74.5316 14.9091C74.7708 14.8004 75.0331 14.7523 75.2953 14.769C76.4733 14.709 77.6573 14.7489 78.8353 14.7389H88.6963C88.4443 14.4089 88.2603 14.1889 88.1143 13.9589C87.9028 13.6689 87.8023 13.3126 87.8312 12.9548C87.86 12.597 88.0161 12.2614 88.2713 12.009C88.4848 11.7147 88.8049 11.5154 89.1632 11.4538C89.5215 11.3921 89.8897 11.4729 90.1893 11.6789C91.7953 12.8489 93.3713 14.0588 94.8803 15.3488C95.0416 15.4904 95.1684 15.6672 95.2509 15.8654C95.3334 16.0636 95.3695 16.2779 95.3564 16.4921C95.3432 16.7064 95.2812 16.9149 95.1751 17.1015C95.0691 17.2881 94.9217 17.4479 94.7443 17.5688C93.3193 18.7488 91.8493 19.8689 90.3623 20.9789C90.2102 21.1036 90.0344 21.1961 89.8456 21.2511C89.6568 21.3062 89.4588 21.3226 89.2636 21.2992C89.0683 21.2759 88.8797 21.2134 88.7092 21.1154C88.5387 21.0174 88.3897 20.8859 88.2713 20.7289C88.131 20.5934 88.0188 20.4315 87.941 20.2526C87.8633 20.0737 87.8216 19.8813 87.8184 19.6862C87.8151 19.4912 87.8504 19.2973 87.9221 19.1159C87.9938 18.9345 88.1006 18.7689 88.2363 18.6288C88.3713 18.4588 88.5363 18.2989 88.8263 17.9689H88.8293Z" fill="url(#paint4_linear_2059_66)"/>
<path d="M72.5938 90.8679C72.5938 89.5334 73.1239 88.2535 74.0676 87.3098C75.0113 86.3661 76.2912 85.8359 77.6258 85.8359C78.9603 85.8359 80.2402 86.3661 81.1839 87.3098C82.1276 88.2535 82.6577 89.5334 82.6577 90.8679C82.6577 92.2025 82.1276 93.4826 81.1839 94.4263C80.2402 95.37 78.9603 95.8999 77.6258 95.8999C76.2912 95.8999 75.0113 95.37 74.0676 94.4263C73.1239 93.4826 72.5938 92.2025 72.5938 90.8679ZM79.3938 90.938C79.4011 90.5879 79.305 90.2435 79.1174 89.9478C78.9298 89.652 78.6591 89.4182 78.3392 89.2756C78.0194 89.1331 77.6646 89.0882 77.3192 89.1465C76.9739 89.2047 76.6535 89.3634 76.3981 89.603C76.1427 89.8426 75.9636 90.1523 75.8834 90.4932C75.8032 90.834 75.8254 91.191 75.9472 91.5193C76.069 91.8476 76.285 92.1328 76.5681 92.3389C76.8512 92.545 77.1889 92.6629 77.5388 92.678C77.7752 92.6875 78.0111 92.6498 78.2328 92.5671C78.4546 92.4845 78.6576 92.3585 78.83 92.1965C79.0025 92.0346 79.141 91.8399 79.2375 91.6238C79.3339 91.4077 79.3864 91.1745 79.3918 90.938H79.3938Z" fill="url(#paint5_linear_2059_66)"/>
<path d="M7.75602 11.5787C7.74448 11.736 7.70131 11.8895 7.62909 12.0298C7.55688 12.1701 7.4571 12.2945 7.33573 12.3953C7.21436 12.4962 7.07389 12.5715 6.92273 12.6168C6.77158 12.662 6.61283 12.6763 6.45601 12.6588C6.2878 12.6596 6.12129 12.6251 5.96729 12.5574C5.81328 12.4898 5.67523 12.3904 5.56208 12.2659C5.44892 12.1415 5.3632 11.9948 5.31047 11.835C5.25775 11.6753 5.23919 11.5061 5.25602 11.3387C5.2555 11.1781 5.28808 11.0193 5.3517 10.8719C5.41533 10.7245 5.50864 10.5918 5.62583 10.482C5.74301 10.3722 5.88156 10.2876 6.03283 10.2337C6.18409 10.1798 6.34483 10.1578 6.50502 10.1688C6.68369 10.1674 6.86058 10.2041 7.02387 10.2767C7.18715 10.3492 7.33306 10.4559 7.4518 10.5894C7.57054 10.7229 7.65938 10.8802 7.71236 11.0508C7.76535 11.2215 7.78125 11.4014 7.75902 11.5787H7.75602Z" fill="url(#paint6_linear_2059_66)"/>
<defs>
<linearGradient id="paint0_linear_2059_66" x1="45.4674" y1="34.2988" x2="45.4674" y2="84.8606" gradientUnits="userSpaceOnUse">
<stop stop-color="#6306FC"/>
<stop offset="1" stop-color="#4DAFB2"/>
</linearGradient>
<linearGradient id="paint1_linear_2059_66" x1="57.882" y1="28.8359" x2="57.882" y2="100.437" gradientUnits="userSpaceOnUse">
<stop stop-color="#6306FC"/>
<stop offset="1" stop-color="#4DAFB2"/>
</linearGradient>
<linearGradient id="paint2_linear_2059_66" x1="35.7411" y1="0.445312" x2="35.7411" y2="32.4201" gradientUnits="userSpaceOnUse">
<stop stop-color="#6306FC"/>
<stop offset="1" stop-color="#4DAFB2"/>
</linearGradient>
<linearGradient id="paint3_linear_2059_66" x1="17.7678" y1="42.0801" x2="17.7678" y2="51.8626" gradientUnits="userSpaceOnUse">
<stop stop-color="#6306FC"/>
<stop offset="1" stop-color="#4DAFB2"/>
</linearGradient>
<linearGradient id="paint4_linear_2059_66" x1="84.4764" y1="11.4336" x2="84.4764" y2="21.3096" gradientUnits="userSpaceOnUse">
<stop stop-color="#6306FC"/>
<stop offset="1" stop-color="#4DAFB2"/>
</linearGradient>
<linearGradient id="paint5_linear_2059_66" x1="77.6257" y1="85.8359" x2="77.6257" y2="95.8999" gradientUnits="userSpaceOnUse">
<stop stop-color="#6306FC"/>
<stop offset="1" stop-color="#4DAFB2"/>
</linearGradient>
<linearGradient id="paint6_linear_2059_66" x1="6.50938" y1="10.166" x2="6.50938" y2="12.666" gradientUnits="userSpaceOnUse">
<stop stop-color="#6306FC"/>
<stop offset="1" stop-color="#4DAFB2"/>
</linearGradient>
</defs>
</svg>
