<svg width="111" height="119" viewBox="0 0 111 119" fill="none" xmlns="http://www.w3.org/2000/svg">
<path d="M46.37 0C48.671 0.592319 50.8881 1.35487 52.6604 3.0471C53.6882 4.02886 53.7891 5.24148 52.8925 6.10664C52.1247 6.84742 51.0364 6.9718 50.1988 6.12296C45.8872 1.74742 36.8728 4.10814 35.7402 11.8176C35.4281 13.9444 34.0502 14.5312 32.2779 13.3707C29.4312 11.5067 26.4921 11.3365 23.6066 13.1173C20.718 14.9005 19.5528 17.6133 19.9379 20.9947C20.177 23.0958 19.8796 23.5186 17.8403 24.0876C12.2385 25.6516 10.127 31.9456 13.6366 36.6188C14.9703 38.3942 14.7002 39.4405 12.6616 40.3943C8.22971 42.469 6.6546 47.5052 9.11547 51.7323C10.1006 53.4237 9.94456 54.1474 8.35392 55.2652C2.26308 59.5452 2.55342 68.2006 8.93692 72.0437C9.77688 72.549 10.467 73.104 10.4103 74.151C10.3544 75.1973 9.61075 75.6893 8.72266 76.0974C4.98401 77.8169 3.16281 81.782 4.31096 85.6064C5.44125 89.3749 9.10615 91.6283 13.1134 91.1448C13.9014 91.0492 14.8849 91.1969 15.5292 91.6159C16.4422 92.2098 16.3172 93.2794 15.4803 94.4842C13.3098 97.609 13.3882 101.412 15.6799 104.187C18.7812 107.943 24.289 108.096 27.6411 104.53C28.0354 104.11 28.422 103.629 28.9134 103.364C30.0002 102.781 31.3393 103.427 31.6708 104.647C31.8439 105.285 31.8758 105.961 32.0295 106.606C33.3073 111.991 38.4262 115.62 43.8316 114.986C49.3526 114.339 53.5252 109.679 53.526 104.104C53.533 73.9575 53.5299 43.8106 53.5299 13.6638C53.5299 7.11094 57.8593 1.66891 64.2505 0.183448C64.3631 0.157019 64.4594 0.062963 64.5634 0H68.0528C69.7103 0.624966 71.4631 1.07348 73.0033 1.91299C75.725 3.39767 77.4802 5.8097 78.6066 8.78373C79.3876 8.58241 80.1274 8.35621 80.8827 8.20074C87.7452 6.78913 94.3973 11.6474 94.9842 18.6161C95.1038 20.0331 95.5913 20.7063 96.8403 21.36C102.319 24.2283 104.509 30.9001 101.979 36.5722C101.844 36.8754 101.709 37.1777 101.542 37.5516C101.882 37.8268 102.229 38.1074 102.574 38.3888C106.588 41.6675 108.019 46.895 106.215 51.7673C106.001 52.3456 105.899 52.735 106.452 53.2761C112.433 59.1223 112.515 67.4505 106.698 73.4903C106.612 73.5789 106.539 73.6784 106.378 73.8704C110.204 77.2409 111.879 81.4337 110.498 86.4498C109.114 91.4775 105.546 94.2339 100.449 95.1923C101.896 100.696 100.735 105.433 96.0493 108.815C91.6904 111.961 87.0667 111.769 82.433 109.041C82.1931 109.563 81.9812 110.044 81.7537 110.518C77.8808 118.594 67.9224 121.461 60.3737 116.672C60.0236 116.45 59.6789 116.214 59.3536 115.957C58.2614 115.091 58.0549 113.988 58.7908 113.033C59.4833 112.133 60.5911 111.989 61.6647 112.767C63.7886 114.307 66.1206 115.103 68.7577 115.033C73.6849 114.901 78.1354 111.111 79.0258 106.25C79.0934 105.882 79.1803 105.514 79.2098 105.143C79.2921 104.107 79.8293 103.266 80.8144 103.214C81.517 103.178 82.4679 103.562 82.9353 104.09C85.0848 106.518 87.6986 107.583 90.8496 106.907C96.4242 105.709 98.8626 99.3588 95.6301 94.6599C95.5594 94.5573 95.4834 94.4585 95.4065 94.3606C94.8103 93.6043 94.6527 92.7873 95.1472 91.9299C95.6596 91.0414 96.4871 90.994 97.4202 91.0306C98.6895 91.0811 100.017 91.1876 101.227 90.8906C104.359 90.1211 106.668 87.2971 106.939 84.2212C107.241 80.7979 105.635 77.8099 102.668 76.2832C102.484 76.1884 102.296 76.0982 102.104 76.0228C101.223 75.6761 100.453 75.069 100.634 74.1129C100.768 73.4025 101.298 72.5591 101.904 72.1821C104.278 70.7067 105.937 68.7346 106.661 66.0342C107.753 61.9618 106.226 57.8257 102.781 55.3717C100.951 54.0681 100.838 53.545 101.957 51.5706C104.26 47.5076 102.695 42.4931 98.4892 40.4619C96.182 39.3472 95.9654 38.5031 97.466 36.4665C100.831 31.8958 98.6732 25.6594 93.1886 24.1063C91.0841 23.5109 90.7681 23.0188 91.0391 20.9216C91.4629 17.6328 90.2628 15.0062 87.5294 13.216C84.7836 11.4189 81.9036 11.4538 79.067 13.1375C78.8884 13.2432 78.7239 13.3715 78.5476 13.4803C76.9531 14.4621 75.5379 13.848 75.2685 11.9995C74.9052 9.49887 73.8246 7.42264 71.828 5.85789C67.8549 2.74472 62.4666 3.50416 59.5407 7.6162C58.1908 9.51364 57.4502 11.5751 57.454 13.9957C57.4983 43.9785 57.4843 73.9606 57.482 103.943C57.4812 112.566 50.5706 119.372 41.9995 118.968C36.1175 118.691 31.8579 115.688 29.189 110.436C28.9647 109.995 28.7783 109.535 28.5618 109.055C23.9102 111.773 19.2524 111.969 14.8632 108.763C10.238 105.382 9.08908 100.678 10.5151 95.2514C0.090221 93.6338 -3.77575 80.9806 4.56714 73.8704C4.35598 73.6287 4.15492 73.3784 3.9329 73.1467C-1.45384 67.5119 -1.29081 58.8844 4.32183 53.4424C4.78838 52.9892 5.11365 52.6744 4.81866 51.8808C2.86937 46.6331 4.44371 41.3877 8.89423 38.0064C9.05725 37.882 9.2226 37.7599 9.16515 37.8019C8.7444 35.7296 8.0566 33.8119 8.02167 31.8826C7.93006 26.8293 10.3731 23.1852 14.8873 20.9589C15.5417 20.6363 15.8887 20.3441 15.9259 19.5279C16.3032 11.2502 23.8706 6.06311 31.7345 8.64692C31.8905 8.69823 32.052 8.73321 32.295 8.7985C32.437 8.50856 32.583 8.22484 32.7157 7.9349C34.6285 3.75757 37.7919 1.14344 42.3154 0.219982C42.5103 0.180339 42.6927 0.0746229 42.8806 0H46.37Z" fill="url(#paint0_linear_2072_1012)"/>
<path d="M73.7466 87.2472C78.4166 87.3775 83.1245 92.1654 83.1648 96.8261C83.1756 98.1031 82.4501 98.9762 81.3217 99.0436C80.1739 99.1119 79.3679 98.3621 79.2194 97.0866C78.8482 93.8913 76.5936 91.573 73.4944 91.2C72.0635 91.0271 71.205 90.1549 71.3295 89.0011C71.4548 87.8497 72.3389 87.2077 73.7466 87.2472ZM88.6879 39.7105C84.0411 39.5686 79.4105 34.9489 79.2334 30.2813C79.18 28.8701 79.9418 27.8978 81.1329 27.8567C82.2552 27.8179 83.0441 28.6561 83.1849 30.037C83.4896 33.0129 85.9244 35.4235 88.9579 35.7515C90.3044 35.8972 91.1428 36.7478 91.0539 37.879C90.9626 39.0305 90.0306 39.7523 88.6879 39.7105ZM72.9638 55.5356C68.1793 55.3604 63.691 50.8889 63.4474 46.056C63.3801 44.7092 64.1009 43.7803 65.2712 43.7059C66.4081 43.633 67.1723 44.3557 67.3525 45.6753C67.8088 49.0172 69.9381 51.1323 73.3389 51.6224C74.6205 51.8069 75.3491 52.6257 75.2432 53.7624C75.1387 54.8758 74.2307 55.5822 72.9638 55.5356ZM94.9923 80.7706C95.0247 82.2415 94.2722 83.1657 93.1669 83.2479C92.0748 83.3286 91.2635 82.5547 91.0848 81.2622C90.62 77.9018 88.4443 75.7447 85.0961 75.3245C83.8856 75.1717 83.1563 74.3979 83.188 73.2992C83.2212 72.1703 84.1347 71.1949 85.332 71.4228C86.9237 71.726 88.6021 72.1067 89.9765 72.9115C92.996 74.6809 94.727 77.4273 94.9923 80.7706ZM72.9507 18.001C74.2663 17.97 75.1357 18.6291 75.2439 19.7394C75.3545 20.8676 74.6368 21.684 73.3498 21.8957C69.7819 22.4834 67.8645 24.4141 67.3424 27.9466C67.1553 29.2097 66.3176 29.9145 65.1575 29.785C64.0886 29.6656 63.4133 28.8034 63.4358 27.5876C63.524 22.7943 68.1716 18.1119 72.9507 18.001ZM85.4727 59.4729C84.1726 59.507 83.2955 58.8317 83.1926 57.7183C83.0882 56.5839 83.8021 55.7807 85.0976 55.5767C88.6067 55.0247 90.5651 53.0436 91.0957 49.5095C91.2782 48.293 92.0532 47.6052 93.1662 47.6734C94.2977 47.7425 95.0271 48.624 94.9992 49.8918C94.8948 54.6913 90.2642 59.3489 85.4727 59.4729ZM72.9731 67.4289C74.233 67.3894 75.1449 68.1097 75.2439 69.2216C75.3445 70.3598 74.5989 71.1941 73.3328 71.3593C69.9822 71.795 67.8142 73.9513 67.3509 77.3086C67.1723 78.6081 66.3741 79.3633 65.2642 79.2835C64.152 79.2028 63.411 78.291 63.4396 77.038C63.5518 72.2416 68.1762 67.5809 72.9731 67.4289ZM25.9006 75.3408C24.844 75.3501 23.9476 76.2704 23.9585 77.3342C23.9701 78.4042 24.8758 79.299 25.9354 79.2889C27.0105 79.278 27.862 78.3941 27.8543 77.2985C27.8458 76.2068 26.9726 75.3322 25.9006 75.3408ZM41.7724 55.5387C42.8282 55.5038 43.7207 54.5579 43.6836 53.5119C43.6457 52.4365 42.7454 51.6053 41.6494 51.6348C40.5589 51.6635 39.7119 52.5551 39.7475 53.6352C39.7823 54.7029 40.7089 55.5736 41.7724 55.5387ZM27.8574 53.5391C27.8396 52.4249 26.9718 51.6022 25.848 51.6348C24.7938 51.6658 23.967 52.5016 23.953 53.5492C23.9391 54.6292 24.8433 55.5457 25.9222 55.5426C27.0105 55.5403 27.8744 54.6455 27.8574 53.5391ZM41.7562 87.2418C40.6617 87.2193 39.7715 88.0606 39.7452 89.1422C39.7197 90.1967 40.6115 91.1349 41.6657 91.1636C42.709 91.1915 43.6557 90.2859 43.682 89.2329C43.7091 88.1614 42.8413 87.2643 41.7562 87.2418ZM43.682 33.751C43.6604 32.7019 42.7129 31.7855 41.6734 31.808C40.6169 31.8304 39.7251 32.7632 39.746 33.8239C39.7676 34.904 40.6641 35.7646 41.7469 35.7445C42.8212 35.7251 43.7037 34.8156 43.682 33.751ZM27.8767 35.7639C27.8767 39.7895 27.8636 43.64 27.9046 47.4889C27.9069 47.7518 28.2921 48.0278 28.5287 48.2689C29.4128 49.1699 30.4036 49.9848 31.1731 50.9726C31.9249 51.9364 35.888 51.8883 36.5223 50.7943C37.7513 48.6737 39.5727 47.5564 42.0392 47.6796C44.3456 47.7952 46.0225 48.9706 47.0365 51.0292C48.4287 53.857 47.3721 57.1399 44.5359 58.7146C43.8978 59.069 43.6789 59.4303 43.6813 60.1421C43.7052 67.6491 43.7029 75.1562 43.6836 82.6633C43.682 83.3138 43.8421 83.6813 44.4617 84.0078C46.495 85.0785 47.6003 86.8425 47.6212 89.1314C47.6428 91.4745 46.5275 93.2811 44.4547 94.3783C43.8213 94.7132 43.6704 95.08 43.6844 95.7235C43.7192 97.382 43.7107 99.0413 43.6905 100.701C43.6728 102.171 42.9055 103.023 41.6695 103C40.48 102.978 39.7568 102.152 39.7421 100.741C39.7236 99.0405 39.7839 97.3378 39.7034 95.6413C39.6833 95.2273 39.3384 94.6791 38.9803 94.4581C37.66 93.6432 36.721 92.5755 36.1286 91.1287C35.8285 90.3944 35.3892 89.664 34.8454 89.0918C33.0186 87.1705 31.1012 85.3367 29.255 83.434C28.7383 82.9021 28.3137 82.747 27.5418 82.975C24.3119 83.9279 21.0132 82.0213 20.1887 78.8276C19.3704 75.6563 21.2924 72.3719 24.4295 71.581C27.6718 70.763 30.9334 72.6774 31.6341 75.9657C31.8484 76.9721 31.5552 78.0824 31.5397 79.1462C31.5336 79.5424 31.5158 80.0759 31.7439 80.317C33.4215 82.088 35.161 83.8 36.844 85.4941C37.7281 84.8901 38.5618 84.3699 39.3275 83.7651C39.5596 83.5821 39.7189 83.1618 39.7197 82.8494C39.7413 75.2182 39.7468 67.5863 39.7073 59.9544C39.705 59.5815 39.3229 59.1636 39.0298 58.8488C38.1983 57.9548 37.23 57.174 36.489 56.2149C35.7581 55.2689 31.7269 55.2743 31.1128 56.3358C29.0307 59.9312 24.4217 60.5778 21.6428 57.664C19.0386 54.9332 19.597 50.4686 22.8756 48.569C23.738 48.0689 23.9546 47.5401 23.9453 46.6275C23.9043 42.6049 23.9221 38.5808 23.9298 34.5582C23.9337 32.4337 24.5679 31.7971 26.6624 31.7924C29.477 31.787 32.2908 31.7777 35.1045 31.801C35.772 31.8072 36.1487 31.6381 36.5725 31.0171C37.2044 30.089 38.0684 29.2632 38.9849 28.6065C39.5317 28.2149 39.7661 27.9117 39.7506 27.2581C39.7104 25.5585 39.7189 23.8574 39.7437 22.157C39.7638 20.7854 40.5535 19.9534 41.7484 19.9743C42.8862 19.9945 43.6604 20.8063 43.6859 22.1074C43.7199 23.8488 43.6495 25.5934 43.7292 27.3318C43.7486 27.7489 44.0858 28.3103 44.4439 28.5251C46.7402 29.9068 47.9785 32.2693 47.5585 34.6636C47.1007 37.2743 45.2351 39.1793 42.6766 39.6492C40.2402 40.0974 37.8503 38.8607 36.4643 36.4857C36.2871 36.1833 35.9105 35.8019 35.6189 35.7956C33.1006 35.7406 30.5807 35.7639 27.8767 35.7639Z" fill="url(#paint1_linear_2072_1012)"/>
<defs>
<linearGradient id="paint0_linear_2072_1012" x1="55.5" y1="0" x2="55.5" y2="119" gradientUnits="userSpaceOnUse">
<stop stop-color="#4EACB4"/>
<stop offset="1" stop-color="#620FF9"/>
</linearGradient>
<linearGradient id="paint1_linear_2072_1012" x1="57.5" y1="18" x2="57.5" y2="103" gradientUnits="userSpaceOnUse">
<stop stop-color="#4EACB4"/>
<stop offset="1" stop-color="#620FF9"/>
</linearGradient>
</defs>
</svg>
