<svg width="108" height="114" viewBox="0 0 108 114" fill="none" xmlns="http://www.w3.org/2000/svg">
<path d="M83.0498 0C83.4652 0.144578 83.8852 0.278119 84.2951 0.43594C87.2766 1.58152 88.9984 3.7237 89.3496 6.89779C89.4472 7.7796 89.4183 8.67576 89.4194 9.5664C89.4228 18.0634 89.4217 26.5614 89.4217 35.0584V36.6973C90.051 36.1764 90.4897 35.8255 90.9163 35.4601C95.398 31.6228 101.087 32.0278 104.999 36.4623C109.334 41.379 108.953 46.9237 103.984 51.1992C102.38 52.5788 100.774 53.9528 99.1352 55.3578C100.603 57.3333 101.271 59.4556 100.755 61.8726C100.402 63.5292 99.6083 64.9264 98.3297 66.0256C94.1582 69.6147 89.9745 73.1905 85.782 76.7564C84.694 77.6812 83.5849 77.6426 82.8337 76.7266C82.0803 75.8083 82.2598 74.7709 83.36 73.8295C87.455 70.3221 91.5678 66.8346 95.6484 63.3106C97.4212 61.781 97.6117 59.7337 96.1537 57.8995C94.0441 59.6984 91.9368 61.4963 89.8294 63.2941C85.7 66.8191 81.5917 70.3685 77.418 73.8416C76.8895 74.2809 75.992 74.5579 75.3261 74.4663C74.8364 74.4001 74.1517 73.6463 74.0874 73.132C74.011 72.5162 74.319 71.6299 74.7799 71.2083C76.9992 69.1754 79.3259 67.2584 81.6161 65.3027C85.4341 62.0426 89.2522 58.7835 93.0735 55.5288C93.2696 55.3622 93.5001 55.2375 93.787 55.0432C92.3977 53.4297 91.1036 52.0049 89.9114 50.4984C89.528 50.0139 89.1513 49.2668 89.2533 48.7304C89.3618 48.1576 89.9468 47.5285 90.492 47.2195C91.2498 46.7902 92.0143 47.1698 92.5749 47.8099C93.8956 49.3186 95.2008 50.8406 96.5547 52.4077C96.7941 52.2532 97.0179 52.1406 97.2029 51.9828C98.8748 50.5624 100.569 49.1663 102.199 47.6985C104.571 45.5607 104.796 42.2906 102.823 39.7842C101.574 38.1994 100.198 36.8463 98.015 36.694C96.4118 36.5814 94.987 36.9931 93.7682 38.0349C82.7949 47.4016 71.8261 56.7749 60.8572 66.147C60.7475 66.2408 60.6567 66.3567 60.5182 66.5035C61.6394 67.8124 62.7596 69.1015 63.8576 70.4093C64.7628 71.4887 64.7639 72.6166 63.8953 73.3604C63.0144 74.1175 61.8943 73.941 60.9691 72.8848C60.2611 72.0769 59.5675 71.2569 58.7044 70.2515C57.9732 72.9698 57.2907 75.507 56.5517 78.2507C58.7377 78.0245 60.7586 77.8192 62.7795 77.6073C64.5567 77.4208 66.3295 77.1956 68.11 77.0444C69.5625 76.9219 70.4411 77.5686 70.5331 78.7231C70.6261 79.8775 69.8251 80.6754 68.4368 80.8211C64.1423 81.2747 59.8467 81.7173 55.5567 82.2073C55.077 82.2625 54.6027 82.5538 54.1751 82.8165C53.7352 83.0858 53.3862 83.5018 52.9441 83.7678C52.1187 84.2656 51.1149 84.0647 50.531 83.3495C49.9504 82.6377 49.8529 81.4248 50.6119 80.9359C52.4644 79.7428 52.7192 77.828 53.21 75.9871C54.061 72.8009 54.8764 69.6036 55.8005 66.4384C56.0143 65.7056 56.4719 64.9242 57.0469 64.4297C66.1511 56.5972 75.2851 48.7977 84.4414 41.0236C85.2746 40.3151 85.6258 39.5988 85.6202 38.4874C85.5759 28.4685 85.5959 18.4496 85.5937 8.43075C85.5925 5.13747 84.2275 3.79323 80.8992 3.79323H8.47926C5.22627 3.79323 3.8391 5.15623 3.8391 8.37005C3.83688 35.0132 3.84242 61.6563 3.82137 88.2994C3.82026 89.1481 4.07288 89.7419 4.67451 90.3367C10.0958 95.6949 15.4905 101.079 20.8763 106.471C21.1544 106.749 21.2774 107.179 21.4724 107.539C21.6164 107.426 21.7615 107.313 21.9067 107.2C21.9255 106.846 21.9599 106.493 21.961 106.139C21.9643 102.651 21.9654 99.1626 21.9621 95.6751C21.9588 93.0561 21.0469 92.1655 18.3823 92.1633C17.1901 92.1622 15.9968 92.182 14.8057 92.1566C13.505 92.1279 12.6463 91.3421 12.6519 90.2374C12.6574 89.1194 13.4961 88.3866 14.8268 88.3711C16.1674 88.3557 17.5092 88.3634 18.8498 88.3678C23.0313 88.3855 25.7569 91.0883 25.7746 95.2777C25.7945 99.8049 25.779 104.332 25.779 108.859V110.208H27.0565C45.0488 110.208 63.0421 110.209 81.0355 110.207C84.1876 110.207 85.5914 108.806 85.5925 105.651C85.597 98.5633 85.5937 91.4757 85.5948 84.3881C85.5948 82.4953 86.2374 81.5627 87.5226 81.5705C88.8023 81.5782 89.4206 82.4986 89.4206 84.4124C89.4228 91.4624 89.4272 98.5136 89.4194 105.564C89.4139 110.914 86.3194 114.001 80.9734 114C62.1236 113.997 43.2738 113.983 24.424 114C23.449 114 22.7366 113.685 22.0596 113.008C15.0717 106.01 8.07042 99.0246 1.04814 92.0595C0.336822 91.3532 0 90.6171 0 89.6116C0.0166193 62.4498 0.00886379 35.2869 0.0188354 8.12394C0.0199433 3.88483 1.70848 1.76694 6.37856 0H83.0498Z" fill="url(#paint0_linear_2072_1014)"/>
<path d="M19.0632 39.7599C16.8565 39.252 14.9426 38.3647 13.5252 36.611C12.9289 35.8741 12.7831 35.0775 13.3038 34.2465C13.7718 33.4997 14.4997 33.2253 15.3131 33.4676C15.7406 33.5937 16.1473 33.9234 16.4707 34.2543C18.5063 36.3421 22.0876 36.7094 24.4959 35.0432C25.5329 34.3262 26.1797 33.4034 26.0482 32.0558C25.9133 30.6827 24.9717 30.0531 23.8284 29.7278C21.99 29.2045 20.1144 28.8161 18.2684 28.3149C17.3838 28.0748 16.4981 27.7838 15.6748 27.3855C11.9423 25.5798 10.8603 21.0578 13.3246 17.6831C14.7332 15.7557 16.7305 14.7953 19.0796 14.2321C19.0796 13.4908 19.0632 12.7572 19.0829 12.0259C19.1191 10.7789 19.8524 9.99889 20.9585 10C22.0514 10.0011 22.7968 10.7933 22.8407 12.0347C22.8648 12.7384 22.8451 13.4432 22.8451 14.2056C23.1893 14.3085 23.4973 14.4025 23.8053 14.4933C25.5779 15.0133 27.1378 15.8807 28.3184 17.3479C29.0912 18.3071 29.0539 19.4191 28.2548 20.1383C27.4513 20.863 26.3737 20.759 25.5055 19.8739C23.5696 17.9 20.6856 17.3379 18.1994 18.5118C17.6118 18.7884 17.0319 19.1812 16.5924 19.6559C15.2057 21.154 15.6178 23.2861 17.4989 24.0308C18.8242 24.5563 20.2536 24.8086 21.6327 25.1992C23.0468 25.5986 24.5025 25.8984 25.8574 26.4494C30.8046 28.4609 30.9876 34.5784 27.402 37.5824C26.7574 38.1224 26.0218 38.5815 25.2677 38.95C24.5179 39.3162 23.6913 39.522 22.8264 39.8241C22.8264 40.5565 22.8582 41.2979 22.8188 42.0358C22.753 43.264 21.9648 44.0241 20.8566 43.9865C19.7823 43.95 19.1059 43.2131 19.0665 42.0004C19.0434 41.2967 19.0632 40.5908 19.0632 39.7599ZM57.0355 19.2952C52.2834 19.2952 47.5303 19.2963 42.7783 19.2952C42.41 19.2941 42.0395 19.3074 41.6744 19.2698C40.5585 19.1514 39.8712 18.4322 39.8602 17.4043C39.8504 16.3642 40.5223 15.634 41.6317 15.5023C41.9233 15.468 42.2204 15.4736 42.5141 15.4736C52.13 15.4725 61.7447 15.4713 71.3606 15.4758C71.7629 15.4758 72.1783 15.4758 72.5675 15.5665C73.5168 15.7911 74.0046 16.4384 73.9925 17.4165C73.9816 18.3448 73.5036 18.9688 72.608 19.1879C72.186 19.2919 71.7322 19.2908 71.2926 19.2919C66.5406 19.2985 61.7875 19.2952 57.0355 19.2952ZM27.8174 71.1883C32.3436 71.1894 36.8698 71.1784 41.396 71.1938C43.1116 71.1994 44.108 72.6355 43.3648 73.9898C42.9186 74.8019 42.1809 75.0011 41.3072 75C34.0581 74.9867 26.8078 74.9922 19.5576 74.9922C17.7916 74.9922 16.0256 75 14.2585 74.9889C12.8423 74.9801 12.019 74.2786 12.0124 73.1069C12.0059 71.9396 12.8466 71.195 14.2377 71.1927C18.7639 71.1828 23.2901 71.1883 27.8174 71.1883ZM39.6805 52.1664C42.6643 52.1664 45.6482 52.1598 48.632 52.1697C50.0516 52.1741 50.8989 52.8767 50.9154 54.023C50.9318 55.1615 50.0538 55.9648 48.6901 55.967C42.649 55.9803 36.6067 55.9715 30.5656 55.9748C29.693 55.9748 28.8445 55.7446 28.5913 54.8694C28.4181 54.2742 28.4697 53.4056 28.8018 52.9276C29.1065 52.4873 29.9155 52.2129 30.5086 52.1996C33.5648 52.1299 36.6232 52.1664 39.6805 52.1664ZM63.1139 35.9394C60.2079 35.9394 57.3007 35.9449 54.3947 35.936C52.9806 35.9327 52.1256 35.239 52.0883 34.1016C52.05 32.9299 52.9554 32.1387 54.3958 32.1376C60.1717 32.1299 65.9464 32.1288 71.7223 32.1376C73.2011 32.1387 74.0309 32.8756 73.9991 34.1027C73.9684 35.2832 73.1781 35.9327 71.7212 35.936C68.8525 35.9449 65.9826 35.9394 63.1139 35.9394ZM17.5866 52.1697C18.765 52.1697 19.9445 52.1454 21.1218 52.1764C22.2882 52.2073 23.05 52.9553 23.0687 54.0153C23.0862 55.0575 22.3277 55.9239 21.1909 55.9482C18.7617 56.0002 16.3293 55.9991 13.9001 55.9504C12.7568 55.9272 12.0026 55.0774 12.0135 54.0296C12.0245 52.9553 12.7688 52.2096 13.9406 52.1775C15.1552 52.1443 16.3709 52.1708 17.5866 52.1697ZM42.2861 35.9294C41.2897 36.0124 40.4149 35.8033 40.0016 34.7809C39.6629 33.9411 39.8449 33.17 40.5519 32.5791C41.3401 31.9208 43.2113 31.9318 43.9765 32.6057C44.6671 33.2131 44.8381 33.9931 44.4741 34.8219C44.0598 35.7657 43.2387 36.0224 42.2861 35.9294Z" fill="url(#paint1_linear_2072_1014)"/>
<defs>
<linearGradient id="paint0_linear_2072_1014" x1="54" y1="0" x2="54" y2="114" gradientUnits="userSpaceOnUse">
<stop stop-color="#4EACB4"/>
<stop offset="1" stop-color="#620FF9"/>
</linearGradient>
<linearGradient id="paint1_linear_2072_1014" x1="43" y1="10" x2="43" y2="75" gradientUnits="userSpaceOnUse">
<stop stop-color="#4EACB4"/>
<stop offset="1" stop-color="#620FF9"/>
</linearGradient>
</defs>
</svg>
