<svg width="274" height="274" viewBox="0 0 274 274" fill="none" xmlns="http://www.w3.org/2000/svg">
<path d="M52.807 194.341C48.9917 192.619 45.6503 190.608 43.4174 187.24C41.8849 184.931 39.9338 185.421 38.0459 186.082C36.0869 186.769 35.1548 188.486 35.4418 190.547C35.7419 192.687 37.0269 194.241 39.2887 194.304C43.7913 194.428 48.3018 194.341 52.807 194.341ZM105.795 35.2094V16.2878C99.5365 22.5327 93.1513 28.9092 86.8398 35.2094H105.795ZM48.5651 247.457V247.443C51.4957 247.443 54.4316 247.536 57.3596 247.417C60.0744 247.309 61.8333 245.516 61.8622 243.115C61.8912 240.63 59.9822 238.713 57.2069 238.684C51.5194 238.621 45.832 238.626 40.1471 238.679C37.3218 238.705 35.4181 240.514 35.3812 243.002C35.3443 245.493 37.1717 247.328 40.0365 247.433C42.875 247.538 45.7214 247.457 48.5651 247.457ZM48.444 221.003C45.6898 221.003 42.9356 220.963 40.1813 221.013C37.335 221.066 35.4365 222.798 35.3812 225.289C35.3233 227.795 37.1638 229.686 40.0049 229.725C45.7767 229.801 51.5537 229.804 57.328 229.722C60.027 229.686 61.8122 227.882 61.8622 225.47C61.9149 222.98 60.0033 221.079 57.2385 221.018C54.3079 220.953 51.3746 221.003 48.444 221.003ZM48.7915 203.326C45.8609 203.326 42.9277 203.271 39.997 203.342C37.3192 203.405 35.4865 205.135 35.3838 207.531C35.2759 210.024 37.1138 212.004 39.918 212.049C45.6924 212.143 51.4694 212.138 57.2411 212.057C60.0796 212.014 61.9149 210.114 61.857 207.61C61.7964 205.127 59.9006 203.39 57.0542 203.334C54.3026 203.279 51.5458 203.324 48.7915 203.326ZM79.4671 159.27H53.1757V167.787H79.4671V159.27ZM83.8591 141.573H48.8811V150.163H83.8591V141.573ZM221.225 130.373V156.226C224.996 154.352 228.548 152.712 231.968 150.835C233.648 149.913 234.967 149.95 236.631 150.864C240.036 152.733 243.569 154.368 247.232 156.19V130.375C238.419 133.279 229.84 133.243 221.225 130.373ZM67.4128 216.545C71.8495 222.456 71.8337 228.377 67.447 234.201C67.6471 234.546 67.7604 234.788 67.9157 235.001C71.1281 239.442 71.7205 244.189 69.2033 249.081C66.6334 254.075 62.3125 256.334 56.7567 256.339H53.0256C53.0256 257.366 53.0282 257.985 53.0229 258.604C52.9913 263.83 54.25 265.125 59.4055 265.133C64.0424 265.141 68.6767 265.143 73.3135 265.133C78.3191 265.12 79.5987 263.827 79.6014 258.751C79.6066 238.337 79.604 217.92 79.5987 197.505C79.5961 196.555 79.5171 195.607 79.4776 194.717C71.2466 193.364 70.2249 193.748 67.5444 199.067C71.8732 204.89 71.7627 210.722 67.4128 216.545ZM8.86333 101.389V116.893C8.86333 123.309 8.82383 129.725 8.88176 136.141C8.91862 139.832 10.4537 141.312 14.0953 141.372C16.0569 141.404 18.016 141.38 19.9776 141.378C25.4123 141.372 26.5498 140.24 26.5498 134.783C26.5551 112.681 26.5524 90.5814 26.5524 68.4821C26.5524 67.9476 26.5682 67.4132 26.5393 66.8787C26.3655 63.5062 24.9015 62.016 21.5627 61.9186C19.3351 61.8554 17.1075 61.8923 14.8799 61.9028C10.1825 61.9292 8.87649 63.2297 8.86859 67.9713C8.85279 79.1105 8.86333 90.2497 8.86333 101.389ZM123.708 101.955C123.708 90.3682 123.724 78.7814 123.7 67.1947C123.693 63.4851 122.218 62.0003 118.558 61.9107C116.599 61.866 114.637 61.8976 112.676 61.9002C107.249 61.9107 106.04 63.1007 106.038 68.4479V133.153C106.038 134.225 106.009 135.293 106.046 136.362C106.161 139.674 107.731 141.286 110.988 141.362C113.305 141.417 115.622 141.388 117.939 141.375C122.321 141.351 123.7 139.996 123.706 135.644C123.719 124.415 123.711 113.184 123.708 101.955ZM234.269 61.9318C217.273 61.8923 203.433 75.5958 203.338 92.5586C203.241 109.698 216.972 123.62 234.04 123.686C251.184 123.754 265.034 110.048 265.132 92.9219C265.227 75.8564 251.4 61.9713 234.269 61.9318ZM48.9416 176.736C48.623 181.798 52.4674 185.587 57.9284 185.634C66.5702 185.708 75.2173 185.705 83.8591 185.618C85.647 185.6 86.7555 186.095 87.764 187.625C91.5741 193.401 96.993 196.945 103.744 198.356C105.882 198.801 108.097 198.882 110.29 199.132V207.578C102.196 208.094 95.1682 205.514 88.517 201.16V247.117C97.3326 248.857 105.098 247.025 111.751 241.707C115.232 238.926 118.774 236.215 122.147 233.311C122.953 232.618 123.635 231.286 123.642 230.241C123.748 218.209 123.753 206.178 123.637 194.146C123.627 193.032 122.884 191.624 122.023 190.876C118.734 188.014 115.19 185.442 111.865 182.617C107.017 178.5 101.467 176.678 95.1366 176.712C80.6994 176.788 66.2621 176.736 51.8249 176.736H48.9416ZM35.4655 132.432H97.0956V70.8542H35.4655V132.432ZM265.063 185.658H262.209C220.935 185.658 179.664 185.655 138.39 185.661C134.006 185.661 132.642 187.011 132.64 191.389C132.627 205.206 132.629 219.025 132.64 232.842C132.642 237.286 134.062 238.658 138.63 238.658C179.812 238.661 220.996 238.661 262.18 238.661H265.063V185.658ZM212.096 170.641V167.023C212.096 154.091 212.138 141.157 212.025 128.227C212.014 127.029 211.332 125.447 210.424 124.707C197.277 114.044 191.79 100.323 195.6 83.8863C199.404 67.4658 210.334 57.4193 226.844 53.8308C229.372 53.2806 229.851 52.3881 229.83 50.0555C229.719 37.3919 229.777 24.7257 229.777 12.0622V9.07403H114.901V44.2976H79.8068V61.8949C85.6075 61.8949 91.2107 61.9529 96.8086 61.816C97.4985 61.8002 98.3806 60.8629 98.8045 60.1363C101.503 55.4947 105.479 53.091 110.838 53.012C113.603 52.9725 116.367 52.9567 119.132 53.0173C126.723 53.1832 132.521 58.5698 132.569 66.1363C132.711 89.7679 132.69 113.405 132.582 137.036C132.548 143.997 127.697 149.36 120.833 150.103C116.957 150.521 112.984 150.424 109.087 150.126C104.963 149.81 101.711 147.654 99.4391 144.139C97.4195 141.012 96.9324 140.825 92.7826 141.846C92.7826 144.437 92.7616 147.096 92.7879 149.755C92.8142 152.693 91.8084 155.134 89.5439 157.066C89.0463 157.49 88.4486 158.151 88.4275 158.722C88.3169 161.718 88.3748 164.72 88.3748 168.427C103.96 165.449 115.519 172.665 125.849 182.838C129.425 178.023 133.885 176.693 139.101 176.704C168.173 176.77 197.245 176.736 226.317 176.736H229.543V162.021C223.697 164.909 218.155 167.647 212.096 170.641ZM274 88.3014V97.3976C273.855 97.7135 273.629 98.0163 273.579 98.348C271.925 109.395 266.527 118.165 257.693 124.949C256.906 125.555 256.398 127.008 256.39 128.072C256.303 141.183 256.332 154.294 256.332 167.405V170.649C250.307 167.645 244.696 164.846 238.835 161.924V176.601H274V247.241C272.852 247.32 271.707 247.464 270.559 247.464C227.442 247.478 184.327 247.436 141.21 247.52C135.307 247.533 129.788 247.085 126.331 242.078C120.333 246.109 114.803 250.326 108.802 253.715C102.575 257.232 95.3578 256.232 88.5118 256.418C88.3722 258.967 88.5144 261.234 88.0799 263.385C86.924 269.132 82.9559 272.286 77.6108 274H54.6002C54.3184 273.818 54.0577 273.581 53.7523 273.468C47.4276 271.122 44.3574 266.831 44.2468 260.131C44.2258 258.917 44.2442 257.703 44.2442 256.442C28.8538 258.512 22.0815 243.723 29.799 234.145C25.3649 228.266 25.4913 222.353 29.8306 216.514C25.3439 210.538 25.5203 204.624 29.8254 198.83C22.4053 189.344 28.8327 177.768 38.1855 176.828C38.8437 176.759 39.5257 175.767 39.9839 175.064C41.0318 173.458 41.7744 171.625 42.9671 170.146C44.2126 168.6 44.9183 158.949 43.6123 157.464C43.5543 157.398 43.4674 157.361 43.3937 157.309C40.3657 155.039 39.6231 151.861 39.7337 148.302C39.8022 146.038 39.7469 143.768 39.7469 141.659C36.3686 140.883 34.4201 141.525 32.8324 144.448C30.8049 148.181 27.0633 149.971 22.8293 150.224C19.4536 150.426 16.0438 150.445 12.6708 150.229C5.34815 149.768 0.05563 144.184 0.0398311 136.881C-0.0101972 113.342 -0.018097 89.7995 0.0450973 66.2574C0.0635284 58.9015 5.70098 53.2779 13.0789 53.0331C16.107 52.9357 19.1456 52.9357 22.1736 53.0305C27.1923 53.1911 31.113 55.4342 33.5301 59.8361C34.3885 61.4026 35.2548 61.9555 37.0111 61.9397C47.3539 61.8581 57.6967 61.9028 68.0395 61.8949C68.882 61.8923 69.7246 61.7975 70.6936 61.7396C70.6936 54.3837 70.612 47.3411 70.7673 40.3064C70.7963 38.9795 71.4493 37.3419 72.3762 36.4046C83.8354 24.7889 95.3736 13.2469 106.993 1.79184C107.986 0.812456 109.719 0.0752847 111.109 0.0726521C152.659 -0.0168618 194.209 0.00156783 235.762 0.00156783H238.814V53.1252C256.119 56.353 267.578 65.8441 272.641 82.6226C273.205 84.484 273.552 86.4059 274 88.3014Z" fill="url(#paint0_linear_1820_955)"/>
<path d="M211.757 26.9084H132.848V35.3512H211.757V26.9084ZM220.654 44.228H124V18H220.654V44.228ZM185.558 153.53C185.539 157.112 187.035 159.035 189.867 159.066C192.374 159.095 194.258 157.215 194.245 154.703C194.232 152.08 192.374 150.373 189.547 150.384C186.39 150.4 185.571 151.044 185.558 153.53ZM132.866 167.764V159.384C139.506 157.664 141.399 155.124 141.446 148.177C141.459 146.049 141.433 143.88 141.826 141.804C142.839 136.473 147.422 132.793 152.816 132.72C158.382 132.641 163.13 136.218 164.238 141.62C165.254 146.586 165.928 151.618 166.897 156.594C167.065 157.456 167.941 158.182 168.49 158.971C169.18 158.388 170.075 157.927 170.524 157.196C172.471 154.024 174.327 150.797 176.117 147.536C176.513 146.812 176.634 145.865 176.645 145.016C176.697 141.031 176.668 137.041 176.668 132.88H185.539V141.694C196.193 141.712 201.056 144.577 202.736 151.662C204.15 157.627 201.374 163.687 195.941 166.491C189.97 169.574 183.917 167.927 178.424 161.607C177.923 162.325 177.482 163.035 176.967 163.685C174.319 167.033 170.897 168.595 166.658 167.738C162.238 166.841 159.351 164.095 158.445 159.653C157.435 154.687 156.669 149.671 155.876 144.663C155.592 142.864 154.881 141.449 152.936 141.549C150.821 141.654 150.325 143.227 150.299 145.155C150.259 148.085 150.325 151.065 149.826 153.929C148.427 161.949 140.779 168.119 132.866 167.764ZM185.405 97.1626H141.637V88.6409H185.405V97.1626ZM141.567 106.329H185.379V114.89H141.567V106.329ZM185.479 61.8369H141.643V53.3231H185.479V61.8369ZM185.421 79.5511H141.582V71.0215H185.421V79.5511ZM233.995 79.7431C226.651 79.7378 220.801 85.5689 220.793 92.8991C220.783 100.224 226.641 106.11 233.948 106.118C241.273 106.131 247.131 100.279 247.142 92.9465C247.15 85.5847 241.339 79.7483 233.995 79.7431ZM256 93.0464C255.939 105.164 245.816 115.179 233.782 115.021C221.754 114.866 211.935 104.935 211.938 92.9254C211.94 80.7978 221.943 70.7979 234.037 70.8294C246.144 70.861 256.057 80.8898 256 93.0464Z" fill="url(#paint1_linear_1820_955)"/>
<defs>
<linearGradient id="paint0_linear_1820_955" x1="137" y1="0" x2="137" y2="274" gradientUnits="userSpaceOnUse">
<stop stop-color="#630DFA"/>
<stop offset="1" stop-color="#4FA6B7"/>
</linearGradient>
<linearGradient id="paint1_linear_1820_955" x1="190" y1="18" x2="190" y2="168" gradientUnits="userSpaceOnUse">
<stop stop-color="#630DFA"/>
<stop offset="1" stop-color="#4FA6B7"/>
</linearGradient>
</defs>
</svg>
