<?xml version="1.0" encoding="UTF-8"?><svg id="Capa_1" xmlns="http://www.w3.org/2000/svg" viewBox="0 0 65.12 60"><g id="layer1"><g id="g3052"><path id="path3055" d="M32.37,3.56c-.48.02-.95.14-1.39.35L12.03,12.96c-.99.47-1.72,1.37-1.96,2.44l-4.68,20.34c-.22.95-.04,1.94.49,2.76.06.1.13.19.21.29l13.12,16.31c.69.85,1.73,1.35,2.83,1.35h21.04c1.1,0,2.15-.5,2.83-1.35l13.11-16.31c.69-.86.95-1.97.7-3.04l-4.68-20.34c-.25-1.07-.97-1.96-1.96-2.44L34.13,3.91c-.55-.26-1.15-.38-1.76-.35Z" style="fill:#326ce5; stroke-width:0px;"/><path id="path3059" d="M32.56,10.48c-.63,0-1.13.56-1.13,1.26,0,.01,0,.02,0,.03,0,.09,0,.21,0,.29.01.4.1.71.16,1.08.1.79.18,1.45.13,2.06-.05.23-.22.44-.37.59l-.03.48c-.68.06-1.37.16-2.05.32-2.95.67-5.48,2.19-7.41,4.23-.13-.09-.34-.24-.41-.29-.2.03-.41.09-.67-.07-.51-.34-.97-.81-1.53-1.38-.26-.27-.44-.53-.75-.79-.07-.06-.17-.14-.25-.2-.24-.19-.52-.29-.79-.3-.35-.01-.68.12-.9.4-.39.49-.27,1.24.28,1.67,0,0,.01,0,.02.01.07.06.17.14.24.19.32.24.62.36.94.55.68.42,1.24.77,1.69,1.19.17.19.2.51.23.65l.36.32c-1.95,2.93-2.85,6.55-2.31,10.23l-.48.14c-.13.16-.3.42-.49.49-.58.18-1.24.25-2.03.33-.37.03-.69.01-1.09.09-.09.02-.21.05-.3.07,0,0,0,0,0,0,0,0-.01,0-.02,0-.67.16-1.1.78-.96,1.38.14.61.79.97,1.46.83,0,0,.01,0,.02,0,0,0,.01,0,.02,0,.09-.02.21-.04.29-.07.39-.1.67-.26,1.02-.39.75-.27,1.37-.49,1.98-.58.25-.02.52.16.65.23l.49-.08c1.14,3.53,3.52,6.38,6.54,8.17l-.21.49c.07.19.16.45.1.64-.22.57-.6,1.17-1.03,1.85-.21.31-.42.55-.61.91-.04.08-.1.22-.15.31-.29.62-.08,1.34.48,1.61.56.27,1.26-.01,1.57-.64,0,0,0,0,0,0,0,0,0,0,0,0,.04-.09.1-.21.14-.29.16-.37.21-.68.33-1.04.3-.75.47-1.54.88-2.04.11-.13.3-.19.49-.24l.26-.47c2.63,1.01,5.58,1.28,8.52.61.67-.15,1.32-.35,1.95-.59.07.13.21.37.24.44.19.06.41.1.58.35.31.53.52,1.15.78,1.91.11.36.17.67.33,1.04.04.08.1.2.14.29.3.63,1,.91,1.57.64.56-.27.77-.99.48-1.61-.04-.09-.1-.22-.15-.31-.19-.36-.4-.59-.61-.9-.43-.67-.79-1.23-1.01-1.8-.09-.29.02-.48.09-.67-.04-.05-.13-.33-.19-.46,3.14-1.85,5.45-4.81,6.54-8.23.15.02.4.07.48.08.17-.11.33-.26.64-.24.61.09,1.23.31,1.98.58.35.13.63.29,1.02.39.08.02.2.04.29.06,0,0,.01,0,.02,0,0,0,.01,0,.02,0,.67.14,1.33-.22,1.46-.83.14-.61-.29-1.22-.96-1.38-.1-.02-.24-.06-.33-.08-.39-.07-.72-.06-1.09-.09-.79-.08-1.45-.15-2.03-.33-.24-.09-.41-.38-.49-.49l-.46-.13c.24-1.72.17-3.51-.24-5.3-.41-1.81-1.15-3.46-2.13-4.91.12-.11.34-.3.4-.36.02-.2,0-.42.21-.64.45-.42,1.01-.77,1.69-1.19.32-.19.62-.31.94-.55.07-.05.17-.14.25-.2.54-.43.67-1.18.28-1.67s-1.15-.54-1.69-.1c-.08.06-.18.14-.25.2-.3.26-.49.52-.75.79-.56.57-1.02,1.04-1.53,1.38-.22.13-.54.08-.69.08l-.43.31c-2.46-2.58-5.81-4.23-9.42-4.55-.01-.15-.02-.42-.03-.51-.15-.14-.33-.26-.37-.57-.05-.61.03-1.27.13-2.06.05-.37.14-.68.16-1.08,0-.09,0-.22,0-.32,0-.7-.51-1.26-1.13-1.26h0ZM31.14,19.28l-.34,5.95h-.02c-.02.54-.46.97-1,.97-.22,0-.42-.07-.59-.19h0s-4.88-3.45-4.88-3.45c1.5-1.47,3.42-2.56,5.63-3.07.4-.09.81-.16,1.21-.21ZM33.98,19.28c2.58.32,4.97,1.49,6.8,3.28l-4.85,3.44h-.02c-.43.31-1.04.23-1.37-.19-.14-.17-.21-.37-.22-.58h0s-.34-5.94-.34-5.94ZM22.53,24.78l4.45,3.98v.02c.4.35.46.96.12,1.38-.14.17-.32.29-.52.34v.02s-5.72,1.65-5.72,1.65c-.29-2.66.34-5.24,1.66-7.39ZM42.55,24.78c.66,1.07,1.16,2.27,1.46,3.57.29,1.28.37,2.56.25,3.8l-5.74-1.65v-.02c-.52-.14-.83-.66-.71-1.19.05-.21.16-.4.32-.53h0s4.43-3.98,4.43-3.98h0ZM31.65,29.07h1.83l1.13,1.42-.41,1.77-1.64.79-1.64-.79-.41-1.77,1.14-1.42ZM37.5,33.92c.08,0,.15,0,.23.02h0s5.91.99,5.91.99c-.86,2.43-2.52,4.53-4.73,5.94l-2.29-5.54h0c-.21-.5,0-1.07.48-1.31.12-.06.25-.09.38-.1h0ZM27.58,33.94c.45,0,.86.32.96.78.05.21.03.43-.06.62l.02.02-2.27,5.48c-2.12-1.36-3.81-3.4-4.71-5.9l5.86-.99h0c.07,0,.13,0,.2,0h0ZM32.52,36.35c.16,0,.32.03.47.1.2.1.35.25.45.43h.02l2.89,5.22c-.37.13-.76.23-1.15.32-2.21.5-4.41.35-6.4-.33l2.88-5.21h0c.17-.32.5-.52.85-.53Z" style="fill:#fff; stroke:#fff; stroke-width:.12px;"/></g></g></svg>