<svg width="254" height="258" viewBox="0 0 254 258" fill="none" xmlns="http://www.w3.org/2000/svg">
<path d="M0 252.152C1.13457 249.798 2.99671 249.047 5.60117 249.05C86.4934 249.098 167.386 249.094 248.278 249.073C250.635 249.073 252.751 249.295 253.723 251.855C254.668 254.346 253.016 255.779 251.483 257.256C167.655 257.256 83.8277 257.256 0 257.254V252.152ZM16.5568 114.161H237.514C237.921 108.867 237.921 108.865 233.48 106.811C198.696 90.7298 163.908 74.6629 129.147 58.5329C127.587 57.81 126.402 57.8709 124.885 58.5729C90.1227 74.6923 55.3369 90.7614 20.5573 106.843C16.0823 108.911 16.0844 108.915 16.5568 114.161ZM137.385 32.6682V24.5727H167.854V8.3692H131.235C131.199 9.13419 131.126 9.95173 131.126 10.7693C131.119 23.1899 131.17 35.6084 131.069 48.0269C131.054 49.9646 131.733 50.8094 133.424 51.5892C169.467 68.2025 205.468 84.9104 241.527 101.488C244.686 102.942 246.167 104.8 245.901 108.31C245.659 111.525 245.893 114.772 245.834 118.005C245.781 120.882 244.26 122.374 241.407 122.498C240.81 122.523 240.211 122.504 239.614 122.504H14.5217C9.2453 122.504 8.19719 121.477 8.19508 116.307C8.19508 113.331 8.28787 110.349 8.16767 107.377C8.06223 104.746 9.1019 103.121 11.5313 102.001C37.2153 90.1708 62.8698 78.2735 88.5347 66.4014C99.3575 61.3953 110.174 56.3767 121.026 51.4315C122.473 50.7737 122.973 49.973 122.964 48.3737C122.897 34.0826 122.922 19.7915 122.928 5.50048C122.93 1.31404 124.236 0.00683039 128.418 0.00472836C142.501 -0.00157612 156.586 -0.00157612 170.669 0.00472836C174.874 0.00683039 176.186 1.30563 176.19 5.46686C176.199 12.7826 176.203 20.0984 176.188 27.4141C176.182 31.2643 174.8 32.6598 170.971 32.664C159.876 32.6766 148.781 32.6682 137.385 32.6682ZM57.2517 145.107H45.2332V210.109H57.2517V145.107ZM28.6828 126.701H36.88C36.88 128.649 36.8378 130.497 36.8905 132.342C36.9686 135.186 38.5017 136.755 41.3635 136.779C47.9368 136.829 54.5081 136.829 61.0793 136.779C63.9453 136.755 65.4658 135.19 65.548 132.334C65.6007 130.554 65.5586 128.769 65.5586 126.787H73.4247C74.5719 134.465 73.3994 140.358 66.5097 143.968C65.9129 144.281 65.6029 145.635 65.5986 146.507C65.548 164.539 65.5607 182.571 65.5607 200.603C65.5607 203.495 65.5016 206.389 65.6029 209.276C65.6282 209.985 65.9909 211.031 66.5244 211.315C71.8894 214.167 74.089 218.652 73.7663 224.564C73.6967 225.822 73.7558 227.088 73.7558 228.51H65.5586C65.5586 226.598 65.6029 224.748 65.548 222.903C65.4637 220.064 63.9242 218.5 61.0603 218.481C54.4891 218.433 47.9157 218.431 41.3445 218.481C38.4764 218.502 36.9854 220.062 36.8842 222.926C36.8526 223.862 36.8779 224.797 36.8779 225.734V228.473H29.0139C27.8603 220.837 29.0497 214.797 35.9141 211.292C36.513 210.985 36.8357 209.629 36.8378 208.761C36.8926 192.346 36.8779 175.93 36.8779 159.514C36.8779 155.006 36.9306 150.496 36.8273 145.99C36.8104 145.238 36.319 144.143 35.7117 143.813C30.585 141.001 28.377 136.697 28.6723 130.968C28.7418 129.623 28.6828 128.269 28.6828 126.701ZM132.986 145.086H121.016V210.186H132.986V145.086ZM112.683 228.571H104.819C103.685 220.762 104.851 214.808 111.737 211.283C112.331 210.979 112.641 209.615 112.643 208.74C112.694 190.37 112.681 171.998 112.681 153.625C112.681 151.074 112.768 148.516 112.629 145.973C112.586 145.212 112.108 144.136 111.498 143.8C106.49 141.036 104.225 136.846 104.478 131.203C104.541 129.774 104.486 128.338 104.486 126.75H112.683C112.683 128.666 112.641 130.516 112.694 132.363C112.776 135.198 114.314 136.758 117.188 136.779C123.759 136.827 130.333 136.829 136.904 136.776C139.759 136.753 141.271 135.177 141.354 132.315C141.402 130.535 141.362 128.752 141.362 126.781H149.239C150.352 134.507 149.215 140.351 142.294 143.975C141.702 144.288 141.404 145.652 141.402 146.528C141.351 165.155 141.364 183.781 141.364 202.41C141.364 203.6 141.457 204.8 141.345 205.981C141.063 208.976 141.463 211.231 144.624 212.986C148.062 214.892 149.488 218.544 149.549 222.542C149.578 224.482 149.555 226.423 149.555 228.517H141.364C141.364 226.667 141.392 224.902 141.358 223.139C141.297 220.089 139.814 218.5 136.843 218.481C130.271 218.433 123.7 218.431 117.129 218.481C114.271 218.505 112.768 220.074 112.692 222.947C112.646 224.725 112.683 226.508 112.683 228.571ZM196.861 210.085H208.835V145.076H196.861V210.085ZM225.363 228.565H217.166C217.166 226.625 217.208 224.778 217.155 222.935C217.077 220.083 215.548 218.502 212.699 218.481C206.128 218.433 199.556 218.433 192.983 218.481C190.102 218.5 188.58 220.045 188.497 222.895C188.445 224.742 188.487 226.592 188.487 228.552H180.652C179.431 220.879 180.68 214.789 187.494 211.304C188.095 210.995 188.441 209.655 188.445 208.793C188.502 194.844 188.485 180.894 188.485 166.945C188.485 160.056 188.455 153.165 188.512 146.278C188.523 144.958 188.23 144.155 186.956 143.479C182.399 141.06 180.222 137.165 180.288 132.02C180.309 130.329 180.292 128.635 180.292 126.766H188.487C188.487 128.624 188.447 130.467 188.495 132.311C188.571 135.169 190.09 136.753 192.939 136.776C199.51 136.829 206.083 136.827 212.655 136.779C215.533 136.758 217.069 135.204 217.155 132.365C217.21 130.52 217.166 128.668 217.166 126.71H225C226.223 134.494 224.956 140.364 218.146 143.954C217.543 144.273 217.212 145.61 217.208 146.475C217.153 161.529 217.168 176.585 217.168 191.639C217.168 197.423 217.123 203.209 217.218 208.99C217.233 209.823 217.697 211.042 218.338 211.405C223.197 214.154 225.544 218.215 225.369 223.765C225.323 225.284 225.363 226.806 225.363 228.565ZM126.975 240.923H18.1933C14.2497 240.918 12.3243 239.586 12.3116 236.856C12.299 234.126 14.2454 232.758 18.1595 232.758C90.7659 232.756 163.374 232.756 235.981 232.758C236.749 232.758 237.531 232.709 238.28 232.831C240.353 233.17 241.839 234.933 241.721 236.951C241.595 239.084 240.386 240.414 238.309 240.832C237.404 241.015 236.441 240.92 235.502 240.92C199.327 240.923 163.151 240.923 126.975 240.923Z" fill="#312458"/>
<path d="M135.135 91.2624C135.177 86.8107 131.588 83.1178 127.145 83.0444C122.691 82.9689 118.966 86.532 118.861 90.969C118.752 95.5233 122.431 99.3064 126.977 99.3169C131.425 99.3274 135.091 95.7078 135.135 91.2624ZM126.893 74.8977C135.91 74.8536 143.263 82.1369 143.282 91.1366C143.301 100.143 135.981 107.472 126.977 107.462C118.09 107.453 110.785 100.216 110.718 91.3483C110.649 82.3276 117.91 74.9417 126.893 74.8977Z" fill="#312458"/>
</svg>
