<svg width="78" height="79" viewBox="0 0 78 79" fill="none" xmlns="http://www.w3.org/2000/svg">
<path d="M0 77.4324C0.348413 76.7095 0.92025 76.4791 1.72004 76.4798C26.561 76.4946 51.4019 76.4933 76.2428 76.4869C76.9668 76.4869 77.6163 76.5553 77.9149 77.3414C78.205 78.1061 77.6979 78.5463 77.2271 79C51.4848 79 25.7424 79 0 78.9994V77.4324ZM5.08436 35.0573H72.9374C73.0624 33.4316 73.0624 33.4309 71.6985 32.8004C61.0169 27.8619 50.334 22.928 39.6595 17.9747C39.1802 17.7527 38.8163 17.7714 38.3506 17.9869C27.6755 22.937 16.9932 27.8716 6.31287 32.8101C4.93865 33.4451 4.9393 33.4464 5.08436 35.0573ZM42.189 10.032V7.54596H51.5456V2.57007H40.3006C40.2896 2.80499 40.2669 3.05604 40.2669 3.3071C40.265 7.1213 40.2805 10.9349 40.2494 14.7484C40.2449 15.3435 40.4534 15.6029 40.9728 15.8423C52.0411 20.9441 63.0964 26.0749 74.1698 31.1656C75.1399 31.6122 75.5945 32.1827 75.5129 33.2605C75.4384 34.248 75.5103 35.2451 75.4922 36.2377C75.476 37.1212 75.0091 37.5794 74.1329 37.6175C73.9496 37.6252 73.7657 37.6194 73.5824 37.6194H4.45942C2.83911 37.6194 2.51725 37.3038 2.5166 35.7162C2.5166 34.8024 2.5451 33.8866 2.50818 32.974C2.4758 32.166 2.79507 31.6671 3.54112 31.3231C11.4283 27.6902 19.3065 24.0367 27.1878 20.391C30.5114 18.8537 33.8329 17.3125 37.1655 15.7939C37.6098 15.5919 37.7633 15.346 37.7607 14.8549C37.7399 10.4663 37.7477 6.07772 37.7497 1.68912C37.7503 0.403525 38.1512 0.00209752 39.4354 0.00145202C43.7601 -0.000484005 48.0855 -0.000484005 52.4102 0.00145202C53.7015 0.00209752 54.1043 0.400943 54.1056 1.6788C54.1082 3.92537 54.1095 6.17194 54.105 8.41852C54.103 9.60085 53.6789 10.0294 52.5028 10.0307C49.0957 10.0346 45.6887 10.032 42.189 10.032ZM17.5812 44.5605H13.8905V64.5215H17.5812V44.5605ZM8.8081 38.9083H11.3254C11.3254 39.5065 11.3124 40.0738 11.3286 40.6405C11.3526 41.5137 11.8234 41.9958 12.7022 42.0029C14.7208 42.0184 16.7387 42.0184 18.7566 42.0029C19.6367 41.9958 20.1037 41.515 20.1289 40.6379C20.1451 40.0913 20.1322 39.5433 20.1322 38.9347H22.5477C22.9 41.2923 22.54 43.102 20.4242 44.2107C20.241 44.3069 20.1458 44.7225 20.1445 44.9903C20.1289 50.5277 20.1328 56.0651 20.1328 61.6025C20.1328 62.4905 20.1147 63.3792 20.1458 64.2659C20.1535 64.4834 20.2649 64.8048 20.4288 64.892C22.0763 65.7677 22.7517 67.145 22.6526 68.9604C22.6313 69.347 22.6494 69.7356 22.6494 70.1725H20.1322C20.1322 69.5852 20.1458 69.0172 20.1289 68.4506C20.103 67.5787 19.6303 67.0985 18.7508 67.0927C16.7329 67.0779 14.7143 67.0772 12.6963 67.0927C11.8156 67.0992 11.3577 67.578 11.3266 68.4577C11.3169 68.7449 11.3247 69.0321 11.3247 69.3199V70.1609H8.90978C8.55554 67.8162 8.92079 65.9614 11.0287 64.8849C11.2127 64.7906 11.3118 64.3744 11.3124 64.1078C11.3292 59.0668 11.3247 54.0257 11.3247 48.9846C11.3247 47.6003 11.3409 46.2153 11.3092 44.8316C11.304 44.6005 11.1531 44.2643 10.9666 44.163C9.39224 43.2994 8.7142 41.9777 8.80487 40.2184C8.82624 39.8053 8.8081 39.3897 8.8081 38.9083ZM40.8381 44.5541H37.1623V64.5454H40.8381V44.5541ZM34.6036 70.1912H32.1887C31.8402 67.793 32.1984 65.9646 34.3128 64.8823C34.4954 64.7887 34.5906 64.3699 34.5913 64.1014C34.6068 58.4601 34.6029 52.8182 34.6029 47.1762C34.6029 46.3928 34.6295 45.6073 34.5867 44.8264C34.5738 44.5928 34.4268 44.2623 34.2396 44.1591C32.7016 43.3104 32.006 42.0235 32.0837 40.2907C32.1032 39.8518 32.0863 39.411 32.0863 38.9231H34.6036C34.6036 39.5117 34.5906 40.0796 34.6068 40.6469C34.6321 41.5175 35.1042 41.9964 35.9869 42.0029C38.0048 42.0177 40.0234 42.0184 42.0414 42.0022C42.9182 41.9951 43.3825 41.5111 43.4078 40.6321C43.4227 40.0854 43.4104 39.5382 43.4104 38.9328H45.8292C46.1711 41.3052 45.8221 43.1 43.6966 44.2127C43.5147 44.3088 43.4233 44.7277 43.4227 44.9968C43.4072 50.7168 43.411 56.4368 43.411 62.1575C43.411 62.5228 43.4395 62.8913 43.4052 63.254C43.3184 64.1737 43.4415 64.8661 44.4122 65.405C45.4678 65.9904 45.9056 67.1121 45.9244 68.3396C45.9335 68.9353 45.9263 69.5316 45.9263 70.1744H43.411C43.411 69.6065 43.4195 69.0644 43.4091 68.5229C43.3903 67.5864 42.9351 67.0985 42.0226 67.0927C40.0046 67.0779 37.9867 67.0772 35.9687 67.0927C35.0912 67.0998 34.6295 67.5819 34.6062 68.4642C34.5919 69.0101 34.6036 69.5574 34.6036 70.1912ZM60.4535 64.5144H64.1306V44.5508H60.4535V64.5144ZM69.2059 70.1893H66.6886C66.6886 69.5936 66.7016 69.0263 66.6854 68.4603C66.6614 67.5845 66.1919 67.0992 65.317 67.0927C63.2991 67.0779 61.2811 67.0779 59.2625 67.0927C58.3779 67.0985 57.9103 67.5729 57.8851 68.448C57.8689 69.0153 57.8818 69.5832 57.8818 70.1854H55.476C55.101 67.8291 55.4844 65.9588 57.5768 64.8887C57.7614 64.7939 57.8676 64.3821 57.8689 64.1175C57.8864 59.8341 57.8812 55.5501 57.8812 51.2667C57.8812 49.1511 57.8721 47.0349 57.8896 44.92C57.8928 44.5147 57.8028 44.2682 57.4117 44.0603C56.0122 43.3175 55.3438 42.1216 55.3639 40.5417C55.3704 40.0222 55.3652 39.502 55.3652 38.9283H57.8818C57.8818 39.4988 57.8695 40.0648 57.8844 40.6308C57.9077 41.5085 58.374 41.9951 59.2489 42.0022C61.2669 42.0184 63.2855 42.0177 65.3034 42.0029C66.1874 41.9964 66.6588 41.5195 66.6854 40.6476C66.7022 40.0809 66.6886 39.5123 66.6886 38.9108H69.0945C69.4701 41.3013 69.0809 43.1039 66.9898 44.2062C66.8046 44.3043 66.7029 44.7148 66.7016 44.9807C66.6847 49.6035 66.6893 54.227 66.6893 58.8499C66.6893 60.626 66.6757 62.4027 66.7048 64.1782C66.7094 64.4337 66.8518 64.8081 67.0487 64.9197C68.5408 65.7639 69.2616 67.0108 69.2078 68.7152C69.1936 69.1818 69.2059 69.6491 69.2059 70.1893ZM38.9924 73.9841H5.58691C4.37588 73.9828 3.78462 73.5736 3.78073 72.7353C3.77684 71.8969 4.37459 71.4768 5.57654 71.4768C27.873 71.4761 50.1701 71.4761 72.4666 71.4768C72.7023 71.4768 72.9426 71.4619 73.1725 71.4994C73.8091 71.6033 74.2656 72.1448 74.2294 72.7643C74.1905 73.4194 73.8194 73.8279 73.1815 73.9563C72.9037 74.0125 72.6078 73.9835 72.3196 73.9835C61.2105 73.9841 50.1015 73.9841 38.9924 73.9841Z" fill="white"/>
<path d="M41.4981 28.0255C41.511 26.6584 40.409 25.5243 39.0445 25.5018C37.6767 25.4786 36.5329 26.5728 36.5008 27.9353C36.4673 29.3339 37.5969 30.4957 38.993 30.4989C40.3588 30.5021 41.4846 29.3906 41.4981 28.0255ZM38.9672 23.0001C41.7363 22.9865 43.9942 25.2231 44 27.9868C44.0058 30.7525 41.7581 33.0032 38.993 33C36.2639 32.9974 34.0207 30.775 34.0002 28.0518C33.9789 25.2817 36.2085 23.0136 38.9672 23.0001Z" fill="white"/>
</svg>
