<svg width="357" height="263" viewBox="0 0 357 263" fill="none" xmlns="http://www.w3.org/2000/svg">
<path d="M78.493 64.8406H55.9751C52.8008 64.8406 50.2317 62.2784 50.2317 59.114V16.0894C50.2317 12.1959 51.814 8.67466 54.3719 6.12642C56.927 3.574 60.4619 1.99738 64.363 1.99738C72.1667 1.99738 78.493 8.30665 78.493 16.0894V127.685H-72.8672" stroke="#312458" stroke-width="3" stroke-miterlimit="10" stroke-linecap="round" stroke-linejoin="round"/>
<path d="M64.0469 1.99738H178.973C181.827 1.99738 184.142 4.31316 184.142 7.1684V73.2066C184.142 73.2066 158.33 82.2294 154.639 99.9506H148.169C145.322 99.9506 143.013 102.262 143.013 105.113V126.781C143.013 129.632 140.698 131.947 137.844 131.947H127.334C124.479 131.947 122.164 134.261 122.164 137.116V203.814C122.164 206.665 124.479 208.981 127.334 208.981H251.241" stroke="#312458" stroke-width="3" stroke-miterlimit="10" stroke-linecap="round" stroke-linejoin="round"/>
<path d="M198.828 71.5268C233.745 73.8366 243.713 100.064 243.713 100.064H249.801C252.664 100.064 254.986 102.392 254.986 105.263V130.123C254.986 132.991 252.664 135.318 249.801 135.318H237.194V189.511C237.194 191.22 237.871 192.861 239.078 194.069C239.681 194.673 240.15 195.386 240.472 196.163C240.792 196.935 240.962 197.774 240.962 198.63V203.098H251.113" stroke="#312458" stroke-width="3" stroke-miterlimit="10" stroke-linecap="round" stroke-linejoin="round"/>
<path d="M296.708 20.7168H269.678V39.6988L199.267 62.019M199.267 62.019V73.4594M199.267 62.019L222.029 54.6968C225.411 53.6093 225.471 48.8453 222.115 47.6752L199.267 39.6988V62.019ZM163.296 208.981V199.217C163.296 197.542 163.961 195.937 165.145 194.753C166.329 193.569 166.994 191.963 166.994 190.29V129.685C166.994 127.394 168.444 125.353 170.609 124.6L200.948 114.042L237.294 127.098M181.183 142.557H221.878M185.12 191.723V142.557M199.268 191.723V142.573M216.629 190.848V142.557M78.4922 134.392V167.943C78.4922 170.798 80.8069 173.112 83.6625 173.112H114.494M92.706 62.9877H170.98M92.706 80.1637H142.395M92.7102 98.0595H128.181M92.7032 116.154H124.719M118.039 39.84L123.501 44.0463L144.517 20.7168M154.761 99.9271H235.663M147.14 163.44H138.262C136.681 163.44 135.399 162.159 135.399 160.576V148.884C135.399 147.303 136.681 146.021 138.262 146.021H147.14C148.723 146.021 150.004 147.303 150.004 148.884V160.576C150.004 162.159 148.723 163.44 147.14 163.44ZM147.14 195.096H138.262C136.681 195.096 135.399 193.814 135.399 192.233V180.541C135.399 178.96 136.681 177.678 138.262 177.678H147.14C148.723 177.678 150.004 178.96 150.004 180.541V192.233C150.004 193.814 148.723 195.096 147.14 195.096Z" stroke="#312458" stroke-width="3" stroke-miterlimit="10" stroke-linecap="round" stroke-linejoin="round"/>
<path d="M-68.6276 127.885C-68.6276 130.24 -70.5356 132.149 -72.8887 132.149C-75.2419 132.149 -77.1484 130.24 -77.1484 127.885C-77.1484 125.53 -75.2419 123.621 -72.8887 123.621C-70.5356 123.621 -68.6276 125.53 -68.6276 127.885ZM102.276 258.736C102.276 261.091 100.369 263 98.0162 263C95.663 263 93.7551 261.091 93.7551 258.736C93.7551 256.381 95.663 254.473 98.0162 254.473C100.369 254.473 102.276 256.381 102.276 258.736ZM240.303 227.172C240.303 229.525 238.397 231.435 236.044 231.435C233.691 231.435 231.784 229.525 231.784 227.172C231.784 224.817 233.691 222.908 236.044 222.908C238.397 222.908 240.303 224.817 240.303 227.172ZM302.184 20.7022C302.184 23.0571 300.276 24.9663 297.923 24.9663C295.569 24.9663 293.663 23.0571 293.663 20.7022C293.663 18.3474 295.569 16.4381 297.923 16.4381C300.276 16.4381 302.184 18.3474 302.184 20.7022ZM266.088 76.2322C266.088 78.5856 264.18 80.4949 261.827 80.4949C259.475 80.4949 257.567 78.5856 257.567 76.2322C257.567 73.8773 259.475 71.968 261.827 71.968C264.18 71.968 266.088 73.8773 266.088 76.2322ZM338.423 92.2788C338.423 94.6322 336.515 96.5415 334.162 96.5415C331.809 96.5415 329.903 94.6322 329.903 92.2788C329.903 89.924 331.809 88.0147 334.162 88.0147C336.515 88.0147 338.423 89.924 338.423 92.2788ZM288.471 92.6364C288.471 94.9898 286.563 96.8991 284.21 96.8991C281.857 96.8991 279.95 94.9898 279.95 92.6364C279.95 90.2815 281.857 88.3723 284.21 88.3723C286.563 88.3723 288.471 90.2815 288.471 92.6364Z" fill="#312458"/>
<path d="M251.242 202.736V155.341C251.242 152.224 253.772 149.698 256.897 149.698H349.347C352.47 149.698 355.001 152.224 355.001 155.341V228.475C355.001 231.592 352.47 234.119 349.347 234.119H309.791M251.242 208.769V228.475C251.242 231.592 253.772 234.119 256.897 234.119H303.836M316.175 75.7813C316.175 78.1294 314.267 80.0344 311.913 80.0344C309.56 80.0344 307.652 78.1294 307.652 75.7813C307.652 73.4317 309.56 71.5268 311.913 71.5268C314.267 71.5268 316.175 73.4317 316.175 75.7813ZM301.199 102.483C301.199 104.488 299.569 106.113 297.56 106.113C295.551 106.113 293.923 104.488 293.923 102.483C293.923 100.478 295.551 98.8514 297.56 98.8514C299.569 98.8514 301.199 100.478 301.199 102.483ZM343.863 106.113C343.863 108.118 342.233 109.743 340.224 109.743C338.215 109.743 336.587 108.118 336.587 106.113C336.587 104.108 338.215 102.483 340.224 102.483C342.233 102.483 343.863 104.108 343.863 106.113Z" stroke="#312458" stroke-width="3" stroke-miterlimit="10" stroke-linecap="round" stroke-linejoin="round"/>
<path d="M346.448 170.472L303.989 191.961L261.53 170.472M309.943 234.223V258.721H98.2812" stroke="#312458" stroke-width="3" stroke-miterlimit="10" stroke-linecap="round" stroke-linejoin="round"/>
<path d="M303.929 234.227V252.303H236.266V227.972M272.344 142.566V94.1416L262.08 83.8924V78.073M274.342 51.2028V83.3804L284.487 93.5095V134.402M297.648 107.222V128.187M312.012 80.2774V126.549M341.095 68.8633V86.8809L325.345 99.1252V134.044M340.347 142.551V110.319" stroke="#312458" stroke-width="3" stroke-miterlimit="10" stroke-linecap="round" stroke-linejoin="round"/>
</svg>
