<svg width="363" height="262" viewBox="0 0 363 262" fill="none" xmlns="http://www.w3.org/2000/svg">
<mask id="mask0_1827_1108" style="mask-type:luminance" maskUnits="userSpaceOnUse" x="-46" y="0" width="409" height="262">
<path d="M362.497 0H-46V261.732H362.497V0Z" fill="white"/>
</mask>
<g mask="url(#mask0_1827_1108)">
<path d="M217.459 225.451H107.992C106.613 225.449 105.292 224.901 104.317 223.926C103.342 222.951 102.794 221.63 102.792 220.251V145.541H-42.3281V142.786H102.793V107.886H105.548V142.786H217.459C218.837 142.788 220.159 143.337 221.133 144.311C222.108 145.286 222.657 146.608 222.659 147.986V220.252C222.657 221.63 222.108 222.952 221.133 223.927C220.159 224.901 218.837 225.45 217.459 225.452V225.451ZM105.548 145.543V220.253C105.548 220.901 105.805 221.522 106.263 221.98C106.722 222.439 107.343 222.696 107.991 222.696H217.459C217.778 222.696 218.095 222.633 218.39 222.51C218.837 222.326 219.22 222.014 219.489 221.612C219.758 221.21 219.902 220.737 219.901 220.253V147.986C219.901 147.502 219.757 147.03 219.488 146.628C219.219 146.226 218.837 145.913 218.39 145.729C218.095 145.606 217.778 145.543 217.459 145.543H105.548Z" fill="#312458"/>
<path d="M333.059 246.605C332.281 246.603 331.512 246.45 330.793 246.155C329.699 245.728 328.758 244.982 328.093 244.014C327.428 243.046 327.07 241.9 327.064 240.726L325.664 154.618C324.674 155.288 323.506 155.646 322.311 155.646H309.6C307.735 155.648 305.947 156.391 304.628 157.71C303.31 159.029 302.568 160.817 302.567 162.682V215.202C302.565 217.798 301.532 220.287 299.696 222.123C297.86 223.959 295.371 224.991 292.775 224.993H231.383V222.238H292.776C294.641 222.235 296.429 221.493 297.747 220.174C299.066 218.855 299.807 217.067 299.809 215.202V162.683C299.811 160.087 300.844 157.598 302.68 155.762C304.515 153.926 307.005 152.894 309.601 152.892H322.312C322.734 152.893 323.153 152.81 323.543 152.648C323.934 152.487 324.288 152.25 324.587 151.952C324.886 151.653 325.123 151.298 325.284 150.908C325.446 150.518 325.529 150.099 325.529 149.677V23.449C325.532 22.2685 325.884 21.1153 326.541 20.1345C327.198 19.1538 328.13 18.3894 329.221 17.9377C330.312 17.4859 331.511 17.367 332.67 17.5959C333.828 17.8248 334.892 18.3913 335.729 19.224L360.757 44.253C361.875 45.3749 362.502 46.8942 362.502 48.478V217.121C362.503 218.705 361.875 220.224 360.757 221.346L337.257 244.841C336.709 245.398 336.057 245.84 335.338 246.143C334.618 246.445 333.845 246.602 333.065 246.604L333.059 246.605ZM328.283 146.005L329.818 240.692C329.823 241.325 330.017 241.942 330.373 242.465C330.729 242.988 331.233 243.394 331.82 243.631C332.407 243.868 333.05 243.926 333.67 243.797C334.29 243.668 334.857 243.358 335.301 242.906L358.801 219.406C359.095 219.106 359.328 218.752 359.488 218.364C359.644 217.974 359.722 217.557 359.717 217.137V48.478C359.722 48.0579 359.644 47.641 359.488 47.251C359.328 46.8628 359.095 46.509 358.801 46.209L333.768 21.18C333.32 20.7223 332.746 20.4089 332.119 20.2799C331.492 20.151 330.84 20.2124 330.248 20.4562C329.656 20.7001 329.151 21.1153 328.797 21.6485C328.442 22.1818 328.255 22.8088 328.26 23.449L328.283 146.005Z" fill="#312458"/>
<path d="M243.321 237.392C239.95 237.385 236.705 236.103 234.24 233.803C231.774 231.503 230.271 228.355 230.03 224.992H225.439C224.083 224.999 222.778 224.472 221.807 223.525C220.836 222.578 220.276 221.287 220.248 219.931L219.064 173.831C219.046 173.137 219.167 172.447 219.42 171.801C219.801 170.827 220.468 169.99 221.332 169.401C222.197 168.813 223.219 168.499 224.265 168.501H248.142C249.168 168.498 250.171 168.799 251.026 169.366C251.88 169.934 252.547 170.742 252.942 171.688L262.227 193.897C262.493 194.53 262.629 195.21 262.627 195.897V219.778C262.625 221.156 262.077 222.478 261.102 223.453C260.127 224.427 258.806 224.976 257.427 224.978H256.627C256.389 228.346 254.883 231.499 252.413 233.801C249.943 236.104 246.693 237.385 243.316 237.387L243.321 237.392ZM224.283 171.261C223.956 171.259 223.631 171.323 223.328 171.45C223.028 171.577 222.756 171.763 222.528 171.997C222.3 172.231 222.122 172.508 222.002 172.812C221.884 173.116 221.828 173.441 221.836 173.768L223.02 219.858C223.035 220.494 223.297 221.1 223.751 221.546C224.207 221.992 224.82 222.24 225.457 222.237H232.802L232.729 223.89V224.074C232.729 226.876 233.842 229.563 235.824 231.544C237.805 233.525 240.492 234.638 243.294 234.638C246.096 234.638 248.783 233.525 250.764 231.544C252.745 229.563 253.858 226.876 253.858 224.074V223.89L253.78 222.237H257.392C258.04 222.236 258.661 221.979 259.119 221.521C259.576 221.062 259.834 220.442 259.834 219.794V195.913C259.833 195.597 259.768 195.285 259.644 194.995L250.359 172.786C250.174 172.341 249.862 171.961 249.461 171.694C249.06 171.427 248.589 171.285 248.107 171.286L224.283 171.261Z" fill="#312458"/>
<path d="M144.583 237.852C141.5 237.853 138.511 236.785 136.126 234.83C133.742 232.875 132.109 230.153 131.507 227.128C130.904 224.104 131.369 220.964 132.823 218.245C134.276 215.525 136.627 213.393 139.476 212.213C142.325 211.032 145.495 210.877 148.446 211.772C151.397 212.667 153.946 214.558 155.659 217.123C157.372 219.687 158.143 222.766 157.84 225.835C157.536 228.903 156.179 231.772 153.997 233.952C151.5 236.449 148.114 237.852 144.583 237.852ZM144.583 213.972C142.137 213.969 139.765 214.814 137.873 216.364C135.98 217.914 134.683 220.072 134.203 222.471C133.724 224.869 134.091 227.36 135.242 229.519C136.393 231.677 138.257 233.37 140.516 234.308C142.775 235.246 145.29 235.371 147.631 234.663C149.973 233.955 151.996 232.456 153.357 230.423C154.717 228.39 155.33 225.948 155.092 223.514C154.853 221.079 153.778 218.803 152.049 217.072C151.069 216.09 149.906 215.311 148.625 214.779C147.344 214.247 145.97 213.973 144.583 213.972Z" fill="#312458"/>
<path d="M141.373 257.599H138.618V249.479C138.619 249.158 138.556 248.84 138.433 248.544C138.31 248.248 138.13 247.978 137.903 247.751C137.676 247.524 137.407 247.344 137.111 247.222C136.814 247.099 136.496 247.036 136.175 247.036H97.8875C96.5091 247.034 95.1878 246.485 94.2131 245.51C93.2385 244.536 92.6899 243.214 92.6875 241.836V240.293C92.6896 238.915 93.2381 237.593 94.2128 236.618C95.1876 235.644 96.509 235.095 97.8875 235.093H320.017V237.848H97.8875C97.2395 237.848 96.6182 238.105 96.16 238.564C95.7019 239.022 95.4445 239.643 95.4445 240.291V241.834C95.4445 242.482 95.7019 243.103 96.16 243.561C96.6182 244.02 97.2395 244.277 97.8875 244.277H136.17C137.549 244.279 138.87 244.828 139.845 245.802C140.82 246.777 141.368 248.099 141.37 249.477L141.373 257.599Z" fill="#312458"/>
<path d="M250.953 196.52H232.905C231.527 196.518 230.205 195.969 229.231 194.994C228.256 194.02 227.707 192.698 227.705 191.32V176.313H224.493V173.558H227.705V129.158C227.705 128.837 227.642 128.52 227.52 128.223C227.271 127.626 226.796 127.151 226.199 126.901C225.902 126.778 225.584 126.715 225.263 126.715H164.789V123.959H225.262C226.64 123.961 227.962 124.51 228.936 125.485C229.911 126.459 230.46 127.781 230.462 129.159V173.559H245.81C246.843 173.556 247.853 173.863 248.71 174.439C249.568 175.015 250.233 175.835 250.621 176.792L255.753 189.357C256.079 190.145 256.203 191.001 256.114 191.849C255.984 193.128 255.384 194.313 254.431 195.176C253.478 196.039 252.239 196.518 250.953 196.521V196.52ZM230.463 176.313V191.321C230.463 191.642 230.526 191.96 230.648 192.256C230.771 192.553 230.951 192.822 231.177 193.049C231.404 193.276 231.674 193.456 231.97 193.579C232.266 193.701 232.584 193.764 232.905 193.764H250.953C251.353 193.762 251.746 193.662 252.098 193.472C252.45 193.282 252.751 193.009 252.975 192.677C253.197 192.344 253.334 191.962 253.375 191.564C253.416 191.166 253.359 190.764 253.209 190.393L248.068 177.831C247.885 177.383 247.573 176.999 247.171 176.729C246.769 176.459 246.295 176.315 245.811 176.315L230.463 176.313Z" fill="#312458"/>
<path d="M145.962 56.441H145.677L142.689 56.202C141.851 56.1357 141.069 55.761 140.492 55.1505C139.915 54.5399 139.586 53.737 139.568 52.8975C139.549 52.0579 139.844 51.2414 140.393 50.6063C140.942 49.9712 141.708 49.5627 142.542 49.46C142.624 49.4569 142.705 49.4365 142.779 49.4002C142.852 49.3638 142.918 49.3123 142.971 49.249C143.023 49.1857 143.062 49.1122 143.086 49.033C143.108 48.9537 143.113 48.8706 143.102 48.789C143.105 48.7065 143.09 48.6243 143.059 48.548C143.011 48.4332 142.928 48.3367 142.822 48.2726C142.715 48.2085 142.591 48.1803 142.468 48.192H103.968C103.366 48.1911 102.775 48.0308 102.256 47.7274C101.736 47.4241 101.306 46.9885 101.01 46.465L89.6666 26.396L85.2306 19.415C84.902 18.9021 84.7178 18.3102 84.6972 17.7014C84.6767 17.0926 84.8205 16.4896 85.1137 15.9557C85.4069 15.4218 85.8386 14.9768 86.3633 14.6675C86.8881 14.3582 87.4865 14.196 88.0956 14.198H94.5256C95.0144 14.1972 95.4976 14.3027 95.9416 14.5074C96.3855 14.712 96.7797 15.0108 97.0966 15.383L106.916 26.836C106.977 26.905 107.052 26.9603 107.135 26.9982C107.219 27.0361 107.31 27.0558 107.403 27.056H241.103C241.752 27.058 242.388 27.2459 242.935 27.5974C243.481 27.949 243.916 28.4495 244.188 29.04L251.538 45.224C251.893 46.0038 251.94 46.8893 251.669 47.7022C251.397 48.5152 250.828 49.1951 250.076 49.605C249.578 49.8764 249.02 50.0184 248.453 50.018H213.104L146.266 56.448C146.164 56.4543 146.063 56.4519 145.962 56.441ZM88.0966 16.941C87.9832 16.9414 87.872 16.9722 87.7745 17.0302C87.6771 17.0881 87.597 17.1712 87.5425 17.2707C87.4881 17.3701 87.4613 17.4824 87.465 17.5957C87.4687 17.7091 87.5028 17.8193 87.5636 17.915L92.0636 24.987L103.426 45.093C103.48 45.1911 103.56 45.2727 103.657 45.3292C103.754 45.3857 103.864 45.415 103.977 45.414H142.471C143.331 45.4175 144.158 45.7483 144.784 46.3392C145.41 46.9302 145.787 47.737 145.84 48.5961C145.892 49.4551 145.616 50.3019 145.067 50.9647C144.518 51.6275 143.737 52.0567 142.884 52.165C142.715 52.165 142.554 52.2318 142.435 52.3507C142.316 52.4696 142.25 52.6309 142.25 52.799C142.25 52.9672 142.316 53.1284 142.435 53.2473C142.554 53.3662 142.715 53.433 142.884 53.433L145.879 53.672H145.961L212.744 47.242C212.851 47.2332 212.958 47.2332 213.066 47.242H248.429C248.536 47.2429 248.641 47.2164 248.736 47.165C248.828 47.114 248.906 47.0391 248.96 46.948C249.017 46.8578 249.051 46.7547 249.06 46.648C249.064 46.5423 249.045 46.437 249.006 46.339L241.656 30.165C241.606 30.0529 241.525 29.9576 241.422 29.891C241.318 29.8252 241.198 29.7904 241.076 29.791H107.389C106.9 29.7921 106.416 29.6867 105.972 29.4821C105.528 29.2774 105.133 28.9785 104.817 28.606L94.9976 17.153C94.9366 17.084 94.8616 17.0288 94.7776 16.9908C94.6937 16.9529 94.6027 16.9332 94.5106 16.933L88.0966 16.941Z" fill="#312458"/>
<path d="M235.641 40.374H228.632C227.957 40.393 227.285 40.2764 226.655 40.0312C226.026 39.7859 225.452 39.417 224.968 38.9462C224.484 38.4754 224.099 37.9123 223.836 37.2901C223.573 36.6679 223.438 35.9994 223.438 35.324C223.438 34.6486 223.573 33.9801 223.836 33.3579C224.099 32.7357 224.484 32.1726 224.968 31.7018C225.452 31.231 226.026 30.862 226.655 30.6168C227.285 30.3716 227.957 30.255 228.632 30.274H235.382L222.524 7.56C222.326 7.20542 222.036 6.91027 221.686 6.70509C221.335 6.49991 220.936 6.39215 220.53 6.39299H142.75V3.638H220.52C221.413 3.63915 222.29 3.87692 223.061 4.32713C223.833 4.77735 224.471 5.42391 224.911 6.20099L240.025 32.837C240.46 33.6044 240.686 34.4723 240.68 35.3542C240.675 36.2361 240.439 37.1013 239.996 37.8636C239.553 38.626 238.917 39.2588 238.153 39.6993C237.389 40.1397 236.523 40.3723 235.641 40.374ZM228.657 33.026C228.332 33.0278 228.012 33.098 227.716 33.232C227.42 33.366 227.156 33.5617 226.941 33.806C226.726 34.0502 226.565 34.3367 226.468 34.647C226.363 34.988 226.338 35.3489 226.397 35.7009C226.456 36.053 226.595 36.3865 226.806 36.6751C227.016 36.9636 227.29 37.1991 227.607 37.363C227.924 37.5269 228.275 37.6145 228.632 37.619H235.611C236.013 37.6201 236.407 37.5155 236.756 37.3158C237.104 37.116 237.394 36.8281 237.596 36.481C237.798 36.1338 237.905 35.7397 237.906 35.3381C237.908 34.9365 237.803 34.5416 237.604 34.193L236.41 32.081V33L228.657 33.026Z" fill="#312458"/>
<path d="M327.364 218.564H294.299C292.716 218.562 291.199 217.933 290.079 216.814C288.96 215.695 288.33 214.177 288.328 212.594V208.92C288.33 207.337 288.959 205.819 290.079 204.7C291.198 203.581 292.716 202.951 294.299 202.95H301.59V205.705H294.299C293.877 205.704 293.458 205.787 293.068 205.949C292.677 206.11 292.323 206.347 292.024 206.645C291.725 206.944 291.488 207.299 291.326 207.689C291.165 208.079 291.082 208.498 291.082 208.92V212.594C291.082 213.016 291.165 213.435 291.327 213.825C291.488 214.215 291.725 214.569 292.024 214.868C292.323 215.166 292.678 215.403 293.068 215.564C293.458 215.726 293.877 215.809 294.299 215.808H327.364V218.564Z" fill="#312458"/>
<path d="M313.583 187.335C312 187.334 310.482 186.704 309.362 185.585C308.243 184.466 307.613 182.948 307.612 181.365V88.6C307.612 88.1781 307.529 87.7602 307.367 87.3704C307.206 86.9805 306.97 86.6262 306.671 86.3278C306.373 86.0293 306.019 85.7925 305.629 85.631C305.239 85.4694 304.822 85.3861 304.4 85.386H238.266V82.63H304.401C305.983 82.634 307.499 83.2642 308.618 84.3829C309.737 85.5016 310.367 87.0178 310.372 88.6V181.367C310.372 182.22 310.71 183.037 311.313 183.64C311.916 184.243 312.734 184.582 313.586 184.582C314.439 184.582 315.256 184.243 315.859 183.64C316.462 183.037 316.801 182.22 316.801 181.367V153.81H319.555V181.365C319.553 182.948 318.923 184.466 317.804 185.585C316.684 186.704 315.166 187.334 313.583 187.335Z" fill="#312458"/>
<path d="M346.659 216.727H343.9C342.318 216.723 340.801 216.093 339.683 214.974C338.564 213.855 337.934 212.339 337.93 210.757V208.001C337.934 206.419 338.564 204.903 339.683 203.784C340.801 202.665 342.318 202.035 343.9 202.031H346.659C348.241 202.034 349.757 202.664 350.875 203.783C351.994 204.902 352.623 206.419 352.625 208.001V210.756C352.623 212.338 351.994 213.855 350.875 214.974C349.757 216.093 348.241 216.724 346.659 216.727ZM343.9 204.787C343.478 204.787 343.06 204.87 342.67 205.032C342.28 205.194 341.926 205.431 341.628 205.729C341.329 206.028 341.093 206.382 340.932 206.772C340.77 207.162 340.687 207.58 340.688 208.002V210.757C340.687 211.179 340.77 211.597 340.932 211.987C341.093 212.377 341.329 212.731 341.628 213.03C341.926 213.328 342.28 213.565 342.67 213.727C343.06 213.889 343.478 213.972 343.9 213.972H346.659C347.081 213.972 347.498 213.889 347.888 213.727C348.278 213.565 348.632 213.328 348.931 213.03C349.229 212.731 349.465 212.377 349.627 211.987C349.788 211.597 349.871 211.179 349.871 210.757V208.001C349.871 207.579 349.788 207.161 349.627 206.771C349.465 206.381 349.229 206.027 348.931 205.728C348.632 205.43 348.278 205.193 347.888 205.031C347.498 204.869 347.081 204.786 346.659 204.786L343.9 204.787Z" fill="#312458"/>
<path d="M346.659 189.172H343.9C342.318 189.168 340.801 188.538 339.683 187.419C338.564 186.3 337.934 184.784 337.93 183.202V180.447C337.934 178.865 338.564 177.349 339.683 176.23C340.801 175.111 342.318 174.481 343.9 174.477H346.659C348.241 174.48 349.757 175.11 350.875 176.229C351.994 177.348 352.623 178.865 352.625 180.447V183.201C352.623 184.783 351.994 186.3 350.875 187.419C349.757 188.538 348.241 189.168 346.659 189.171V189.172ZM343.9 177.232C343.478 177.232 343.06 177.315 342.67 177.477C342.28 177.639 341.926 177.876 341.628 178.174C341.329 178.473 341.093 178.827 340.932 179.217C340.77 179.607 340.687 180.025 340.688 180.447V183.201C340.687 183.623 340.77 184.041 340.932 184.431C341.093 184.821 341.329 185.175 341.628 185.474C341.926 185.772 342.28 186.009 342.67 186.171C343.06 186.333 343.478 186.416 343.9 186.416H346.659C347.511 186.415 348.328 186.077 348.93 185.474C349.533 184.871 349.871 184.053 349.871 183.201V180.446C349.871 179.594 349.533 178.776 348.93 178.173C348.328 177.571 347.511 177.232 346.659 177.231L343.9 177.232Z" fill="#312458"/>
<path d="M346.659 161.618H343.9C342.318 161.614 340.801 160.984 339.683 159.865C338.564 158.746 337.934 157.23 337.93 155.648V152.892C337.934 151.31 338.564 149.794 339.683 148.675C340.802 147.557 342.318 146.926 343.9 146.922H346.659C348.241 146.925 349.757 147.555 350.875 148.674C351.993 149.793 352.623 151.31 352.625 152.892V155.648C352.623 157.23 351.994 158.747 350.875 159.866C349.757 160.985 348.241 161.615 346.659 161.618ZM343.9 149.678C343.478 149.678 343.06 149.761 342.67 149.923C342.28 150.085 341.926 150.321 341.628 150.62C341.33 150.918 341.093 151.272 340.932 151.662C340.77 152.052 340.687 152.47 340.688 152.892V155.648C340.687 156.07 340.77 156.488 340.932 156.878C341.093 157.268 341.329 157.622 341.628 157.921C341.926 158.219 342.28 158.456 342.67 158.618C343.06 158.78 343.478 158.863 343.9 158.863H346.659C347.511 158.862 348.328 158.523 348.93 157.921C349.533 157.318 349.871 156.5 349.871 155.648V152.892C349.871 152.04 349.532 151.223 348.93 150.62C348.328 150.017 347.511 149.679 346.659 149.678H343.9Z" fill="#312458"/>
<path d="M346.659 134.061H343.9C342.318 134.057 340.801 133.427 339.683 132.308C338.564 131.189 337.934 129.673 337.93 128.091V125.335C337.934 123.753 338.564 122.237 339.683 121.118C340.801 119.999 342.318 119.369 343.9 119.365H346.659C348.241 119.368 349.757 119.998 350.875 121.117C351.994 122.236 352.623 123.753 352.625 125.335V128.091C352.623 129.673 351.994 131.19 350.875 132.309C349.757 133.428 348.241 134.058 346.659 134.061ZM343.9 122.121C343.478 122.121 343.06 122.204 342.67 122.366C342.28 122.528 341.926 122.764 341.628 123.063C341.33 123.361 341.093 123.715 340.932 124.105C340.77 124.495 340.687 124.913 340.688 125.335V128.091C340.687 128.513 340.77 128.931 340.932 129.321C341.093 129.711 341.33 130.065 341.628 130.363C341.926 130.662 342.28 130.898 342.67 131.06C343.06 131.222 343.478 131.305 343.9 131.305H346.659C347.081 131.305 347.498 131.222 347.888 131.06C348.278 130.898 348.632 130.662 348.93 130.363C349.229 130.065 349.465 129.711 349.626 129.321C349.788 128.931 349.871 128.513 349.871 128.091V125.335C349.871 124.913 349.788 124.495 349.626 124.105C349.465 123.715 349.229 123.361 348.93 123.063C348.632 122.764 348.278 122.528 347.888 122.366C347.498 122.204 347.081 122.121 346.659 122.121H343.9Z" fill="#312458"/>
<path d="M346.659 106.509H343.9C342.318 106.505 340.802 105.874 339.683 104.756C338.564 103.637 337.934 102.121 337.93 100.539V97.783C337.934 96.2009 338.564 94.6847 339.683 93.5659C340.801 92.4472 342.318 91.8169 343.9 91.813H346.659C348.241 91.8159 349.757 92.446 350.875 93.565C351.994 94.6841 352.623 96.2009 352.625 97.783V100.54C352.623 102.122 351.993 103.639 350.875 104.758C349.757 105.877 348.241 106.507 346.659 106.51V106.509ZM343.9 94.568C343.478 94.5681 343.06 94.6514 342.67 94.813C342.28 94.9747 341.926 95.2116 341.628 95.5101C341.329 95.8087 341.093 96.1631 340.932 96.5531C340.77 96.9431 340.687 97.361 340.688 97.783V100.54C340.687 100.962 340.77 101.38 340.932 101.77C341.093 102.16 341.33 102.514 341.628 102.812C341.926 103.111 342.28 103.347 342.67 103.509C343.06 103.671 343.478 103.754 343.9 103.754H346.659C347.511 103.753 348.328 103.415 348.93 102.812C349.532 102.209 349.871 101.392 349.871 100.54V97.784C349.871 96.9318 349.533 96.1143 348.93 95.5114C348.328 94.9085 347.511 94.5695 346.659 94.569L343.9 94.568Z" fill="#312458"/>
<path d="M346.659 78.953H343.9C342.318 78.949 340.801 78.3188 339.683 77.2001C338.564 76.0813 337.934 74.5651 337.93 72.983V70.228C337.934 68.6459 338.564 67.1297 339.683 66.011C340.801 64.8922 342.318 64.262 343.9 64.258H346.659C348.241 64.2609 349.757 64.891 350.875 66.01C351.994 67.1291 352.623 68.6459 352.625 70.228V72.983C352.623 74.5651 351.994 76.0819 350.875 77.201C349.757 78.3201 348.241 78.9501 346.659 78.953ZM343.9 67.013C343.478 67.0131 343.06 67.0964 342.67 67.2581C342.28 67.4197 341.926 67.6566 341.628 67.9551C341.329 68.2537 341.093 68.6081 340.932 68.998C340.77 69.388 340.687 69.806 340.688 70.228V72.983C340.687 73.405 340.77 73.823 340.932 74.213C341.093 74.6029 341.329 74.9573 341.628 75.2559C341.926 75.5544 342.28 75.7913 342.67 75.9529C343.06 76.1146 343.478 76.1979 343.9 76.198H346.659C347.511 76.1975 348.328 75.8585 348.93 75.2556C349.533 74.6527 349.871 73.8352 349.871 72.983V70.228C349.871 69.3758 349.533 68.5583 348.93 67.9554C348.328 67.3525 347.511 67.0135 346.659 67.013H343.9Z" fill="#312458"/>
<path d="M239.193 88.598C240.101 88.5982 240.989 88.3291 241.744 87.8246C242.499 87.3202 243.088 86.6031 243.436 85.764C243.783 84.9249 243.874 84.0016 243.697 83.1108C243.52 82.2199 243.083 81.4016 242.441 80.7593C241.799 80.117 240.981 79.6796 240.09 79.5023C239.199 79.325 238.276 79.4159 237.436 79.7635C236.597 80.111 235.88 80.6996 235.375 81.4547C234.871 82.2099 234.602 83.0977 234.602 84.006C234.602 85.2236 235.086 86.3913 235.946 87.2524C236.807 88.1135 237.975 88.5975 239.193 88.598Z" fill="#312458"/>
<path d="M142.764 9.18501C143.672 9.18501 144.56 8.91572 145.315 8.41119C146.07 7.90665 146.659 7.18954 147.006 6.35052C147.354 5.5115 147.445 4.58825 147.268 3.69752C147.091 2.80678 146.653 1.98856 146.011 1.34632C145.369 0.704079 144.551 0.266659 143.66 0.0893631C142.77 -0.0879332 141.846 0.00286886 141.007 0.350273C140.168 0.697677 139.451 1.28608 138.946 2.0411C138.442 2.79612 138.172 3.68383 138.172 4.592C138.172 5.19512 138.29 5.79236 138.521 6.3496C138.752 6.90684 139.09 7.41317 139.516 7.83968C139.943 8.2662 140.449 8.60453 141.006 8.83537C141.564 9.0662 142.161 9.18501 142.764 9.18501Z" fill="#312458"/>
<path d="M166.171 129.47C167.08 129.47 167.968 129.201 168.723 128.696C169.478 128.191 170.067 127.474 170.414 126.635C170.762 125.795 170.853 124.872 170.676 123.981C170.499 123.09 170.061 122.272 169.419 121.629C168.777 120.987 167.958 120.549 167.067 120.372C166.176 120.195 165.253 120.286 164.413 120.634C163.574 120.981 162.857 121.57 162.352 122.325C161.847 123.081 161.578 123.969 161.578 124.877C161.578 126.095 162.062 127.263 162.923 128.125C163.785 128.986 164.953 129.47 166.171 129.47Z" fill="#312458"/>
<path d="M55.4904 127.174C56.3986 127.174 57.2864 126.905 58.0415 126.4C58.7966 125.896 59.3852 125.179 59.7328 124.34C60.0804 123.5 60.1714 122.577 59.9943 121.687C59.8172 120.796 59.38 119.978 58.7379 119.335C58.0958 118.693 57.2776 118.256 56.3869 118.078C55.4962 117.901 54.5729 117.992 53.7338 118.339C52.8947 118.687 52.1775 119.275 51.6728 120.03C51.1681 120.785 50.8986 121.673 50.8984 122.581C50.8984 123.799 51.3822 124.967 52.2433 125.828C53.1045 126.69 54.2725 127.174 55.4904 127.174Z" fill="#312458"/>
<path d="M104.632 112.938C105.54 112.938 106.428 112.668 107.183 112.164C107.938 111.659 108.526 110.942 108.874 110.103C109.221 109.264 109.312 108.341 109.135 107.45C108.958 106.559 108.52 105.741 107.878 105.099C107.236 104.457 106.418 104.02 105.527 103.842C104.636 103.665 103.713 103.756 102.874 104.103C102.035 104.451 101.318 105.039 100.813 105.794C100.309 106.549 100.039 107.437 100.039 108.345C100.039 108.948 100.158 109.546 100.388 110.103C100.619 110.66 100.958 111.167 101.384 111.593C101.811 112.02 102.317 112.358 102.874 112.589C103.432 112.819 104.029 112.938 104.632 112.938Z" fill="#312458"/>
<path d="M140.451 261.732C141.36 261.732 142.247 261.463 143.003 260.958C143.758 260.454 144.346 259.736 144.694 258.897C145.041 258.058 145.132 257.135 144.955 256.244C144.778 255.353 144.341 254.535 143.698 253.893C143.056 253.251 142.238 252.813 141.347 252.636C140.456 252.459 139.533 252.55 138.694 252.898C137.855 253.245 137.138 253.834 136.633 254.589C136.129 255.344 135.859 256.232 135.859 257.14C135.859 258.358 136.343 259.526 137.204 260.387C138.066 261.248 139.233 261.732 140.451 261.732Z" fill="#312458"/>
<path d="M319.561 241.526C320.469 241.525 321.356 241.254 322.111 240.748C322.865 240.243 323.453 239.525 323.799 238.686C324.146 237.846 324.236 236.923 324.058 236.032C323.88 235.142 323.442 234.324 322.799 233.682C322.156 233.041 321.338 232.604 320.447 232.428C319.556 232.251 318.633 232.343 317.794 232.691C316.955 233.039 316.238 233.627 315.734 234.383C315.23 235.138 314.961 236.026 314.961 236.934C314.961 237.538 315.08 238.135 315.312 238.693C315.543 239.251 315.882 239.757 316.309 240.184C316.736 240.61 317.243 240.948 317.801 241.178C318.359 241.409 318.957 241.527 319.561 241.526Z" fill="#312458"/>
<path d="M79.2532 123.96H55.4922V121.204H79.2532C80.3804 121.202 81.4608 120.753 82.2579 119.956C83.055 119.159 83.5038 118.078 83.5062 116.951V84.584C83.5085 82.7261 84.2477 80.945 85.5614 79.6313C86.8751 78.3175 88.6563 77.5784 90.5142 77.576H200.035C201.162 77.5736 202.243 77.1248 203.04 76.3277C203.837 75.5307 204.286 74.4503 204.288 73.323V52.437C204.286 51.3098 203.837 50.2294 203.04 49.4323C202.243 48.6352 201.162 48.1864 200.035 48.184H142.464V45.429H200.035C201.893 45.4317 203.674 46.1708 204.988 47.4845C206.301 48.7982 207.041 50.5792 207.043 52.437V73.322C207.041 75.1798 206.301 76.9608 204.988 78.2745C203.674 79.5882 201.893 80.3274 200.035 80.33H90.5142C89.3869 80.3324 88.3065 80.7812 87.5095 81.5783C86.7124 82.3754 86.2635 83.4558 86.2612 84.583V116.952C86.2588 118.81 85.5197 120.591 84.2059 121.905C82.8922 123.219 81.1111 123.958 79.2532 123.96Z" fill="#312458"/>
</g>
</svg>
