<svg width="256" height="256" viewBox="0 0 256 256" fill="none" xmlns="http://www.w3.org/2000/svg">
<g clip-path="url(#clip0_1845_4936)">
<path d="M69.4997 0C71.4997 1.04 72.3463 2.84667 72.9597 4.92C76.433 16.6667 79.9997 28.3333 83.433 40.0667C83.9797 41.94 84.6397 42.7333 86.7663 42.6933C96.3463 42.5467 105.933 42.6267 115.513 42.6267H118.226C116.513 35.7267 114.893 29.2 113.266 22.6733C112.6 19.9267 111.853 17.1933 111.206 14.44C110.4 11 112.14 8.64 115.68 8.54667C119.68 8.44 123.68 8.54667 127.68 8.54667C129.853 8.54667 131.146 9.78 132.226 11.5267C138.226 21.14 144.226 30.7067 150.173 40.36C151.213 42.0467 152.293 42.7133 154.306 42.7067C165.386 42.7067 176.48 42.5533 187.546 42.94C201.233 43.4133 212.753 49.1 222.413 58.6933C226.32 62.5689 230.209 66.4556 234.08 70.3533C238.746 75.0733 240.193 80.54 237.833 85.7933C235.253 91.5267 230.5 93.9333 224.393 93.9333C199.146 93.9333 173.9 93.9667 148.653 93.8733C147.646 93.794 146.636 94.0026 145.743 94.4747C144.849 94.9468 144.108 95.6631 143.606 96.54C137.126 106.027 130.486 115.407 123.893 124.82C121.513 128.22 120.393 128.587 116.526 127.313C113.133 126.193 109.733 125.087 106.346 123.927C102.58 122.64 101.58 120.413 103.18 116.767C106.126 110 109.113 103.333 112.08 96.6667C112.413 95.92 112.713 95.16 113.146 94.1267C109.853 93.8 106.753 93.5867 103.673 93.1667C90.493 91.3333 79.3863 85.3733 69.9997 76.0467C61.633 67.7 53.333 59.3333 44.8997 50.9733C44.1468 50.2586 43.5543 49.3922 43.1612 48.4315C42.7682 47.4707 42.5836 46.4374 42.6197 45.4C42.6197 32.1511 42.6197 18.9022 42.6197 5.65333C42.6197 3.22 43.433 1.32 45.5063 0H69.4997ZM151.693 85.3667H203.5C210.333 85.3667 217.166 85.3667 224 85.3667C226.54 85.3667 228.88 85.0467 230 82.3267C231.12 79.6067 229.673 77.8933 227.92 76.1867C225.833 74.1533 223.713 72.1333 221.753 69.98C221.243 69.3909 220.605 68.9269 219.887 68.624C219.169 68.3212 218.391 68.1875 217.613 68.2333C205.866 68.3 194.12 68.2667 182.366 68.2667H179.393V59.5733H209.586C208.954 58.7195 208.148 58.0104 207.22 57.4933C200.257 53.2996 192.268 51.1166 184.14 51.1867C142.642 51.16 101.144 51.16 59.6463 51.1867C58.9357 51.2336 58.228 51.3181 57.5263 51.44C63.5263 57.48 69.333 63.12 74.933 68.92C84.7597 79.0933 96.573 84.7133 110.773 85.3067C116.86 85.56 116.88 85.7267 119.373 80.2533C120.18 78.48 121.2 76.92 123.313 76.92C132.06 76.86 140.813 76.7867 149.553 76.92C152.706 76.9733 154.286 79.9933 153.013 82.88C152.713 83.58 152.313 84.2133 151.693 85.3667ZM74.9797 42.4733C75.0144 42.1766 75.0144 41.8768 74.9797 41.58C71.8197 30.9933 68.6463 20.4111 65.4597 9.83333C65.2997 9.32 64.6597 8.59334 64.233 8.58667C59.953 8.49334 55.6663 8.53333 51.3797 8.53333V42.4733H74.9797ZM112.466 116.847C113.202 117.048 113.92 117.309 114.613 117.627C117.02 119.053 118.293 118.067 119.746 115.933C126.146 106.513 132.746 97.2667 139.273 87.9333C139.766 87.22 140.233 86.4867 140.953 85.4067C136.14 85.4067 131.82 85.3467 127.513 85.4667C127.144 85.5636 126.802 85.7413 126.51 85.9869C126.218 86.2325 125.985 86.5398 125.826 86.8867C121.333 96.7733 116.966 106.713 112.466 116.847ZM141.46 42.6133C140.86 41.56 140.486 40.8533 140.06 40.1733C135.846 33.4 131.624 26.6311 127.393 19.8667C125.393 16.6267 124.886 16.44 120.76 17.4533C122.76 25.4933 124.76 33.5333 126.833 41.56C126.924 41.8059 127.074 42.026 127.269 42.2014C127.464 42.3767 127.699 42.5021 127.953 42.5667C132.34 42.6667 136.713 42.6133 141.46 42.6133Z" fill="#312458"/>
<path d="M0 191C1.42 189.833 2.66667 188.333 4.30667 187.58C6.67829 186.545 9.131 185.707 11.64 185.073C12.1959 184.96 12.6985 184.666 13.0689 184.237C13.4394 183.807 13.6567 183.267 13.6867 182.7C16.0867 169.18 18.5933 155.68 21.02 142.167C21.8667 137.5 22.92 136.52 27.5867 136.513H42.6467C42.6467 132.793 42.6467 129.247 42.6467 125.7C42.6467 120.8 43.98 119.487 48.8733 119.487C53.6267 119.487 58.3733 119.453 63.1267 119.487C66.6067 119.487 68.18 121 68.2667 124.487C68.36 128.387 68.2667 132.293 68.2667 136.487H83.1467C88.0467 136.487 89.0933 137.393 89.9467 142.173C92.3267 155.44 94.7667 168.7 97.08 181.98C97.4067 183.873 98.1733 184.867 100.047 185.313C102.307 185.867 104.487 186.72 106.713 187.467C110.713 188.8 111.64 190.693 110.213 194.707C105.253 208.653 100.28 222.598 95.2933 236.54C95.04 237.207 94.8 237.947 94.4533 238.94C99.32 239.733 102.907 242.573 106.36 245.787C107.44 246.793 109.173 247.12 111.027 247.907V256H108.527C104.374 254.846 100.606 252.602 97.6133 249.5C94.7333 246.653 90.6867 246.707 87.5067 249.573C84.3267 252.44 80.7867 254.907 76.5267 256H71.5267C67.3731 254.824 63.6081 252.562 60.62 249.447C59.2627 248.108 57.433 247.358 55.5267 247.358C53.6203 247.358 51.7906 248.108 50.4333 249.447C47.426 252.551 43.6557 254.811 39.5 256H34.5C30.24 254.88 26.7733 252.507 23.5133 249.587C20.2533 246.667 16.28 246.647 13.4 249.467C10.3931 252.551 6.63738 254.802 2.5 256H0V247.5C1.48 247.007 3.29333 246.887 4.38667 245.94C7.99333 242.833 11.5267 239.727 16.54 239.013C11.1267 223.88 5.83333 209.08 0.539998 194.287C0.39898 194.003 0.221965 193.739 0.0133311 193.5L0 191ZM59.72 180.84V194.247C59.72 208.58 59.72 222.913 59.7733 237.247C59.7837 237.736 59.8909 238.218 60.0889 238.666C60.2869 239.113 60.5716 239.517 60.9267 239.853C63.3267 241.727 66.0667 243.187 68.3733 245.187C71.8667 248.16 76.2667 248.267 79.6333 245.12C80.7267 244.093 81.9533 243.213 82.9667 242.12C83.9685 241.187 84.787 240.074 85.38 238.84C87.48 233.327 89.38 227.74 91.38 222.173C94.6667 213.067 97.86 204 101.167 194.667L59.72 180.84ZM9.84 194.667C10.14 195.633 10.3333 196.353 10.58 197.047C14.8333 208.94 19.1733 220.807 23.32 232.74C24.96 237.48 26.74 241.8 31.0867 244.987C35.14 247.96 39.2467 248.273 42.94 244.867C44.7348 243.152 46.7531 241.688 48.94 240.513C50.6 239.667 51.2133 238.867 51.2067 237C51.1333 219.18 51.1667 201.36 51.16 183.547C51.16 182.753 51.08 181.96 51.02 180.92L9.84 194.667ZM22.5933 181.273C23.8267 180.933 24.6933 180.727 25.54 180.447C34.2067 177.553 42.9067 174.733 51.54 171.707C54.1109 170.757 56.9388 170.771 59.5 171.747C68.3667 174.833 77.3 177.747 86.2133 180.68C86.7867 180.867 87.4 180.933 88.32 181.127C86.1133 168.953 83.9667 157.127 81.8067 145.193H29.14C26.98 157.1 24.8267 168.94 22.5933 181.253V181.273ZM59.5933 128.213H51.3933V136.393H59.5933V128.213Z" fill="#312458"/>
<path d="M155 256C152.626 254.88 149.86 254.2 147.973 252.533C145.626 250.46 143.813 247.68 142.133 244.98C141.393 243.78 140.9 243.113 139.406 243.14C134.58 243.227 129.753 243.2 124.92 243.14C120.92 243.14 119.493 241.653 119.486 237.707C119.486 212.893 119.486 188.082 119.486 163.273C119.486 159.347 120.96 157.893 124.96 157.887C152.6 157.887 180.242 157.887 207.886 157.887C211.806 157.887 213.3 159.387 213.353 163.327C213.4 167.067 213.353 170.807 213.353 174.94H216.14C223.053 174.94 229.966 175.073 236.866 174.88C240.24 174.78 242.2 175.96 243.686 179.033C247.633 187.253 251.866 195.333 255.986 203.473V240C254.886 242.447 252.94 243.333 250.353 243.193C248.026 243.093 245.686 243.313 243.373 243.14C240.193 242.9 237.606 243.14 236.706 247.02C236.36 248.493 234.92 249.78 233.813 251.02C231.186 253.9 227.66 255.12 224 256.02H219C218.806 255.88 218.633 255.653 218.413 255.6C212.286 254.14 208.126 250.507 205.833 244.6C205.566 243.933 204.246 243.267 203.406 243.267C194.993 243.167 186.58 243.313 178.173 243.14C175.506 243.087 174.126 243.687 173.033 246.333C170.666 252 165.806 254.727 160 256H155ZM128.113 234.613C132.233 234.613 136.06 234.54 139.886 234.647C141.333 234.687 141.64 233.88 142.06 232.807C143.277 229.592 145.449 226.826 148.284 224.881C151.119 222.936 154.482 221.905 157.92 221.927C161.312 221.911 164.628 222.931 167.425 224.85C170.222 226.769 172.367 229.496 173.573 232.667C174.146 234.173 174.873 234.667 176.453 234.627C185.193 234.553 193.94 234.593 202.686 234.58C203.353 234.58 203.96 234.467 204.686 234.393V166.58H128.113V234.613ZM213.553 183.627V223.867C225.333 219.66 232.266 222.467 237.993 233.573C238.109 233.812 238.275 234.022 238.48 234.19C238.684 234.358 238.923 234.48 239.18 234.547C241.886 234.633 244.6 234.593 247.293 234.593V209.033C240.626 209.033 234.133 209.033 227.646 209.033C223.3 209.033 221.94 207.7 221.906 203.427C221.906 201.18 221.906 198.927 221.906 196.68V183.627H213.553ZM149.406 238.887C149.383 241.119 150.24 243.271 151.793 244.876C153.345 246.481 155.467 247.409 157.7 247.46C159.974 247.471 162.162 246.587 163.791 245C165.42 243.412 166.359 241.248 166.406 238.973C166.402 237.847 166.175 236.733 165.739 235.695C165.303 234.657 164.667 233.715 163.866 232.923C163.065 232.132 162.116 231.506 161.072 231.082C160.029 230.658 158.912 230.445 157.786 230.453C156.682 230.454 155.588 230.673 154.568 231.098C153.548 231.523 152.622 232.145 151.844 232.929C151.065 233.712 150.449 234.642 150.031 235.664C149.612 236.687 149.4 237.782 149.406 238.887ZM213.406 238.987C213.411 241.219 214.295 243.36 215.865 244.947C217.436 246.534 219.567 247.439 221.8 247.467C224.076 247.453 226.256 246.544 227.868 244.936C229.479 243.328 230.394 241.15 230.413 238.873C230.394 237.747 230.153 236.636 229.704 235.603C229.255 234.57 228.606 233.636 227.796 232.854C226.985 232.072 226.028 231.457 224.98 231.045C223.932 230.633 222.812 230.432 221.686 230.453C220.582 230.467 219.49 230.699 218.476 231.136C217.461 231.573 216.542 232.206 215.773 232.999C215.003 233.792 214.398 234.729 213.992 235.757C213.586 236.784 213.387 237.882 213.406 238.987ZM230.626 183.74V200.407H244.72L238.44 187.74C236.16 183.173 236.16 183.173 230.986 183.553C230.913 183.56 230.846 183.627 230.626 183.74Z" fill="#312458"/>
<path d="M111.113 59.8799H119.387V68.1065H111.113V59.8799Z" fill="#312458"/>
<path d="M136.413 59.9199V68.1333H128.113V59.9199H136.413Z" fill="#312458"/>
<path d="M102.254 68.1399H94.0869V59.8533H102.254V68.1399Z" fill="#312458"/>
<path d="M153.44 59.8933V68.1066H145.16V59.8933H153.44Z" fill="#312458"/>
<path d="M170.5 59.8867V68.1001H162.227V59.8867H170.5Z" fill="#312458"/>
<path d="M38.627 153.687H72.3803V161.893H38.627V153.687Z" fill="#312458"/>
</g>
<defs>
<clipPath id="clip0_1845_4936">
<rect width="256" height="256" fill="white"/>
</clipPath>
</defs>
</svg>
