<svg width="76" height="76" viewBox="0 0 76 76" fill="none" xmlns="http://www.w3.org/2000/svg">
<path d="M20.6298 0C21.2235 0.30875 21.4749 0.845105 21.6569 1.46063C22.6881 4.94792 23.7469 8.41146 24.7662 11.8948C24.9285 12.4509 25.1244 12.6865 25.7558 12.6746C28.5999 12.631 31.4459 12.6548 34.29 12.6548H35.0955C34.5868 10.6064 34.1059 8.66875 33.623 6.73114C33.4251 5.91573 33.2034 5.10427 33.0114 4.28688C32.7719 3.26563 33.2885 2.565 34.3394 2.53729C35.5269 2.50563 36.7144 2.53729 37.9019 2.53729C38.5471 2.53729 38.9311 2.90344 39.2517 3.42198C41.033 6.27594 42.8142 9.11604 44.5797 11.9819C44.8884 12.4826 45.209 12.6805 45.8067 12.6785C49.0961 12.6785 52.3894 12.633 55.6749 12.7478C59.7381 12.8883 63.1581 14.5766 66.0259 17.4246C67.1857 18.5751 68.3402 19.729 69.4894 20.8861C70.8749 22.2874 71.3043 23.9103 70.6037 25.4699C69.8378 27.172 68.4266 27.8865 66.6137 27.8865C59.1186 27.8865 51.6235 27.8964 44.1284 27.8686C43.8293 27.8451 43.5297 27.907 43.2645 28.0472C42.9992 28.1873 42.7792 28.4 42.6302 28.6603C40.7064 31.4767 38.7352 34.2614 36.7778 37.0559C36.0712 38.0653 35.7387 38.1742 34.5908 37.7961C33.5834 37.4636 32.574 37.1351 31.5686 36.7907C30.4504 36.4088 30.1535 35.7477 30.6285 34.6651C31.5033 32.6562 32.39 30.6771 33.2707 28.6979C33.3696 28.4763 33.4587 28.2506 33.5874 27.9439C32.6097 27.8469 31.6893 27.7835 30.775 27.6589C26.8622 27.1146 23.5649 25.3452 20.7782 22.5764C18.2943 20.0984 15.8303 17.6146 13.3266 15.1327C13.1031 14.9205 12.9272 14.6633 12.8105 14.3781C12.6938 14.0929 12.639 13.7861 12.6498 13.4781C12.6498 9.54486 12.6498 5.6116 12.6498 1.67833C12.6498 0.955937 12.8912 0.391875 13.5067 0H20.6298ZM45.0309 25.3432H60.411C62.4396 25.3432 64.4683 25.3432 66.4969 25.3432C67.251 25.3432 67.9457 25.2482 68.2782 24.4407C68.6107 23.6332 68.1812 23.1246 67.6607 22.6179C67.0412 22.0143 66.4118 21.4146 65.83 20.7753C65.6786 20.6004 65.489 20.4627 65.2759 20.3728C65.0628 20.2828 64.8318 20.2432 64.6009 20.2568C61.1136 20.2766 57.6263 20.2667 54.137 20.2667H53.2543V17.6858H62.218C62.0304 17.4324 61.7908 17.2218 61.5154 17.0683C59.4482 15.8233 57.0766 15.1753 54.6635 15.196C42.3438 15.1881 30.0242 15.1881 17.7045 15.196C17.4936 15.21 17.2835 15.2351 17.0752 15.2713C18.8564 17.0644 20.5803 18.7388 22.2428 20.4606C25.1601 23.4808 28.6672 25.1493 32.8828 25.3254C34.6898 25.4006 34.6957 25.4501 35.4359 23.8252C35.6754 23.2988 35.9782 22.8356 36.6056 22.8356C39.2023 22.8178 41.8009 22.796 44.3956 22.8356C45.3317 22.8515 45.8008 23.748 45.4228 24.605C45.3337 24.8128 45.215 25.0008 45.0309 25.3432ZM22.2566 12.6093C22.2669 12.5212 22.2669 12.4322 22.2566 12.3441C21.3185 9.20115 20.3764 6.05955 19.4304 2.91927C19.3829 2.76688 19.1929 2.55115 19.0662 2.54917C17.7956 2.52146 16.523 2.53333 15.2504 2.53333V12.6093H22.2566ZM33.3855 34.6889C33.6039 34.7486 33.817 34.826 34.0228 34.9204C34.7373 35.344 35.1153 35.051 35.5467 34.4177C37.4467 31.6211 39.4061 28.876 41.3437 26.1052C41.4902 25.8934 41.6287 25.6757 41.8425 25.3551C40.4135 25.3551 39.131 25.3373 37.8525 25.3729C37.743 25.4017 37.6413 25.4544 37.5547 25.5274C37.4681 25.6003 37.3987 25.6915 37.3517 25.7945C36.0178 28.7296 34.7214 31.6805 33.3855 34.6889ZM41.9929 12.6508C41.8148 12.3381 41.7039 12.1283 41.5773 11.9265C40.3264 9.91563 39.0729 7.90611 37.8168 5.89792C37.2231 4.93604 37.0727 4.88062 35.8476 5.18146C36.4413 7.56833 37.0351 9.95521 37.6506 12.3381C37.6777 12.4111 37.7221 12.4765 37.78 12.5285C37.8379 12.5806 37.9076 12.6178 37.9831 12.637C39.2854 12.6667 40.5837 12.6508 41.9929 12.6508Z" fill="white"/>
<path d="M0 56.7032C0.421563 56.3568 0.791666 55.9115 1.27854 55.6879C1.98262 55.3806 2.71076 55.1317 3.45563 54.9437C3.62065 54.9102 3.76987 54.8228 3.87984 54.6953C3.98982 54.5677 4.05432 54.4073 4.06323 54.2391C4.77573 50.2254 5.5199 46.2176 6.24031 42.2058C6.49167 40.8204 6.80438 40.5294 8.18979 40.5274H12.6607C12.6607 39.4231 12.6607 38.3702 12.6607 37.3172C12.6607 35.8626 13.0566 35.4727 14.5093 35.4727C15.9204 35.4727 17.3296 35.4628 18.7407 35.4727C19.7739 35.4727 20.2409 35.9219 20.2667 36.957C20.2944 38.1148 20.2667 39.2746 20.2667 40.5195H24.6842C26.1389 40.5195 26.4496 40.7887 26.7029 42.2078C27.4095 46.1463 28.1339 50.0829 28.8206 54.0254C28.9176 54.5875 29.1452 54.8823 29.7014 55.015C30.3723 55.1792 31.0195 55.4326 31.6805 55.6542C32.868 56.0501 33.1431 56.6121 32.7196 57.8036C31.2471 61.944 29.7706 66.0838 28.2902 70.2229C28.215 70.4208 28.1437 70.6405 28.0408 70.9354C29.4856 71.1709 30.5504 72.014 31.5756 72.968C31.8963 73.2668 32.4108 73.3638 32.961 73.5973V76.0001H32.2189C30.986 75.6575 29.8674 74.9912 28.979 74.0704C28.124 73.2253 26.9226 73.2411 25.9785 74.0921C25.0345 74.9432 23.9835 75.6755 22.7189 76.0001H21.2345C20.0014 75.651 18.8837 74.9794 17.9966 74.0545C17.5936 73.6571 17.0504 73.4343 16.4845 73.4343C15.9185 73.4343 15.3753 73.6571 14.9724 74.0545C14.0796 74.9762 12.9603 75.6471 11.7266 76.0001H10.2422C8.9775 75.6676 7.94833 74.963 6.98052 74.0961C6.01271 73.2292 4.83313 73.2233 3.97813 74.0605C3.08545 74.9761 1.97047 75.6444 0.742188 76.0001H0V73.4766C0.439375 73.3302 0.977709 73.2945 1.30229 73.0135C2.37302 72.0912 3.42198 71.1689 4.91031 70.9571C3.30323 66.4644 1.73177 62.0707 0.160312 57.6789C0.118447 57.5947 0.0658958 57.5162 0.00395767 57.4454L0 56.7032ZM17.7294 53.6869V57.667C17.7294 61.9222 17.7294 66.1774 17.7452 70.4327C17.7483 70.5779 17.7801 70.721 17.8389 70.8539C17.8977 70.9867 17.9822 71.1066 18.0876 71.2065C18.8001 71.7627 19.6135 72.1961 20.2983 72.7899C21.3354 73.6726 22.6417 73.7042 23.6411 72.7701C23.9657 72.4653 24.3299 72.204 24.6307 71.8794C24.9281 71.6023 25.1711 71.2721 25.3472 70.9057C25.9706 69.2689 26.5347 67.6104 27.1284 65.9578C28.1042 63.2542 29.0522 60.5626 30.0339 57.7917L17.7294 53.6869ZM2.92125 57.7917C3.01031 58.0787 3.06771 58.2925 3.14094 58.4983C4.40365 62.0291 5.69208 65.552 6.92312 69.0947C7.41 70.5019 7.93844 71.7844 9.22886 72.7305C10.4322 73.6132 11.6514 73.7062 12.7478 72.6948C13.2807 72.1858 13.8798 71.7511 14.5291 71.4025C15.0219 71.1511 15.204 70.9136 15.202 70.3594C15.1802 65.0691 15.1901 59.7788 15.1881 54.4905C15.1881 54.255 15.1644 54.0194 15.1466 53.7107L2.92125 57.7917ZM6.7074 53.8156C7.07354 53.7146 7.33083 53.6533 7.58219 53.5702C10.1551 52.7112 12.7379 51.874 15.3009 50.9755C16.0642 50.6936 16.9037 50.6978 17.6641 50.9873C20.2964 51.9037 22.9484 52.7686 25.5946 53.6394C25.7648 53.6948 25.9469 53.7146 26.22 53.772C25.5649 50.1581 24.9276 46.647 24.2864 43.1043H8.65094C8.00969 46.6391 7.37042 50.1541 6.7074 53.8096V53.8156ZM17.6918 38.0634H15.2574V40.4918H17.6918V38.0634Z" fill="white"/>
<path d="M46.0118 76C45.3072 75.6675 44.4858 75.4656 43.9257 74.9708C43.2291 74.3553 42.6907 73.53 42.192 72.7284C41.9723 72.3721 41.8258 72.1742 41.3825 72.1821C39.9496 72.2079 38.5167 72.2 37.0818 72.1821C35.8943 72.1821 35.4707 71.7408 35.4688 70.5691C35.4688 63.2027 35.4688 55.8369 35.4688 48.4717C35.4688 47.306 35.9061 46.8745 37.0936 46.8726C45.2993 46.8726 53.5056 46.8726 61.7125 46.8726C62.8762 46.8726 63.3196 47.3179 63.3354 48.4876C63.3493 49.5979 63.3354 50.7082 63.3354 51.9353H64.1627C66.2151 51.9353 68.2675 51.9749 70.3159 51.9175C71.3174 51.8878 71.8993 52.2381 72.3406 53.1505C73.5123 55.5908 74.7691 57.9895 75.9922 60.4061V71.25C75.6656 71.9763 75.0877 72.2395 74.3198 72.198C73.6291 72.1683 72.9344 72.2336 72.2476 72.1821C71.3035 72.1109 70.5356 72.1822 70.2684 73.334C70.1655 73.7714 69.738 74.1534 69.4095 74.5215C68.6297 75.3765 67.5827 75.7387 66.4961 76.0059H65.0118C64.9544 75.9643 64.9029 75.897 64.8376 75.8812C63.0187 75.4478 61.7837 74.3691 61.1029 72.6156C61.0237 72.4177 60.6319 72.2198 60.3825 72.2198C57.8848 72.1901 55.3871 72.2336 52.8914 72.1821C52.0997 72.1663 51.69 72.3444 51.3654 73.1302C50.6628 74.8125 49.22 75.6219 47.4961 76H46.0118ZM38.0298 69.6508C39.2529 69.6508 40.389 69.629 41.525 69.6607C41.9545 69.6726 42.0455 69.4331 42.1702 69.1144C42.5317 68.1599 43.1765 67.3389 44.0182 66.7615C44.8598 66.1841 45.858 65.8781 46.8786 65.8844C47.8857 65.8798 48.8701 66.1826 49.7005 66.7524C50.5309 67.3221 51.1676 68.1317 51.5257 69.0729C51.6959 69.5202 51.9117 69.6666 52.3807 69.6547C54.9754 69.633 57.5721 69.6449 60.1687 69.6409C60.3667 69.6409 60.5468 69.6073 60.7625 69.5855V49.4534H38.0298V69.6508ZM63.3948 54.5141V66.4604C66.892 65.2115 68.9503 66.0447 70.6504 69.342C70.6848 69.4128 70.7341 69.4753 70.7949 69.5252C70.8557 69.575 70.9266 69.6112 71.0027 69.631C71.8062 69.6567 72.6118 69.6449 73.4114 69.6449V62.0567C71.4322 62.0567 69.5045 62.0567 67.5787 62.0567C66.2883 62.0567 65.8846 61.6609 65.8747 60.3923C65.8747 59.7253 65.8747 59.0563 65.8747 58.3893V54.5141H63.3948ZM44.3512 70.9194C44.3443 71.5823 44.5989 72.2211 45.0597 72.6975C45.5206 73.174 46.1506 73.4496 46.8133 73.4646C47.4886 73.4679 48.1381 73.2056 48.6217 72.7342C49.1052 72.2629 49.3841 71.6203 49.3981 70.9452C49.3968 70.6109 49.3295 70.2801 49.2001 69.9719C49.0707 69.6637 48.8817 69.384 48.6439 69.149C48.4061 68.914 48.1243 68.7283 47.8146 68.6024C47.5049 68.4766 47.1734 68.4132 46.8391 68.4158C46.5111 68.416 46.1864 68.4811 45.8837 68.6072C45.5809 68.7333 45.306 68.918 45.0749 69.1506C44.8437 69.3833 44.6608 69.6593 44.5366 69.9628C44.4124 70.2664 44.3494 70.5915 44.3512 70.9194ZM63.3512 70.9491C63.3528 71.6119 63.615 72.2475 64.0812 72.7185C64.5474 73.1896 65.1803 73.4583 65.843 73.4666C66.5189 73.4625 67.166 73.1926 67.6445 72.7152C68.123 72.2378 68.3944 71.5913 68.4001 70.9155C68.3944 70.5811 68.3229 70.2512 68.1896 69.9445C68.0563 69.6379 67.8638 69.3605 67.6231 69.1284C67.3825 68.8962 67.0984 68.7137 66.7872 68.5915C66.476 68.4692 66.1437 68.4095 65.8094 68.4158C65.4814 68.4199 65.1574 68.4888 64.8562 68.6185C64.5549 68.7482 64.2822 68.9362 64.0538 69.1716C63.8254 69.407 63.6457 69.6852 63.5251 69.9902C63.4046 70.2953 63.3455 70.6212 63.3512 70.9491ZM68.4634 54.5478V59.4957H72.6474L70.783 55.7353C70.1061 54.3795 70.1061 54.3795 68.5703 54.4924C68.5485 54.4943 68.5287 54.5141 68.4634 54.5478Z" fill="white"/>
<path d="M32.9844 17.7769H35.4405V20.2191H32.9844V17.7769Z" fill="white"/>
<path d="M40.4953 17.7886V20.2269H38.0312V17.7886H40.4953Z" fill="white"/>
<path d="M30.3542 20.2291H27.9297V17.769H30.3542V20.2291Z" fill="white"/>
<path d="M45.5519 17.7808V20.2191H43.0938V17.7808H45.5519Z" fill="white"/>
<path d="M50.6202 17.7788V20.2171H48.1641V17.7788H50.6202Z" fill="white"/>
<path d="M11.4688 45.6257H21.4893V48.0621H11.4688V45.6257Z" fill="white"/>
</svg>
