<svg width="90" height="90" viewBox="0 0 90 90" fill="none" xmlns="http://www.w3.org/2000/svg">
<path d="M0.892057 90.0002C0.285026 89.5713 -0.0993483 89.0392 0.0225266 88.2377C0.486589 85.1814 0.805338 82.0994 1.91393 79.1697C4.09596 73.3971 7.81783 68.9369 13.096 65.7729C14.2397 65.0885 14.3358 64.1557 13.2694 63.3565C9.42096 60.4736 6.84518 56.7729 5.94283 51.994C5.06862 47.3674 5.8983 43.0502 8.34752 39.033C8.5233 38.7447 8.64283 38.3229 8.57955 38.0041C8.27721 36.4854 8.43424 35.0487 9.06471 33.6354C9.18658 33.3658 9.19596 32.951 9.07877 32.6815C5.31237 23.9932 8.07096 14.7916 15.9553 9.61196C18.7749 7.7604 21.9202 7.27993 25.1475 7.35728C34.117 7.57525 41.2514 13.6877 42.9998 22.5377C43.2694 23.8995 43.8787 24.9776 45.0037 25.8049C46.11 26.6205 47.1694 27.4971 48.2264 28.376C49.9608 29.8151 50.4576 31.4955 49.7404 33.6237C49.4451 34.5002 49.4264 35.2948 49.799 36.1666C50.4154 37.608 50.0803 38.8737 48.7701 40.4088C50.3686 41.358 50.6686 42.8721 50.549 44.5783C50.4647 45.7713 50.6006 46.9994 50.3615 48.1549C49.874 50.5057 47.8725 52.0197 45.4912 52.0268C42.1584 52.0361 38.8256 52.069 35.4951 52.0057C34.3467 51.9846 33.203 51.7033 32.1225 51.551C31.1873 56.9322 30.2498 62.3346 29.2959 67.833C30.9295 68.5502 32.528 69.6166 33.6834 71.2127C34.2952 72.0588 34.8202 72.9846 35.2584 73.9314C35.9616 75.4478 36.9717 76.6502 38.4576 77.4143C40.8366 78.6377 42.5381 80.4869 43.6889 82.8892C44.4319 84.4455 45.2287 85.9736 45.9928 87.5205C46.5811 88.7064 46.4756 89.1635 45.4561 90.0002H0.892057ZM20.2092 10.8893C20.3569 11.2924 20.4811 11.644 20.617 11.9932C23.078 18.333 25.5319 24.6776 28.0092 31.0127C29.0428 33.6565 29.0241 36.2533 27.8405 38.8432C27.6248 39.3143 27.4655 39.8229 27.3553 40.3315C27.0366 41.8221 27.7795 43.0713 28.3584 44.3346C29.7881 47.4494 32.2819 49.0854 35.6662 49.1955C38.8491 49.2986 42.0389 49.2354 45.224 49.2143C46.792 49.2049 47.7014 48.258 47.7295 46.6713C47.7459 45.7643 47.7061 44.8549 47.7389 43.9479C47.76 43.3408 47.5115 42.9869 46.9819 42.7033C45.1631 41.7307 44.9405 40.1815 46.3772 38.7213C46.5412 38.5549 46.785 38.4166 46.853 38.2151C46.9819 37.8424 47.1717 37.3713 47.0498 37.0526C46.5061 35.644 46.4873 34.2729 46.9959 32.8596C47.4155 31.6948 47.2748 31.2846 46.3092 30.5018C45.0811 29.508 43.7592 28.6104 42.6483 27.5018C41.8233 26.6791 41.1623 25.6385 40.6256 24.5955C40.2506 23.8666 40.2131 22.9643 40.0162 22.1416C37.9561 13.5026 28.6678 8.17993 20.2116 10.8893H20.2092ZM14.3874 68.4025C7.26471 72.4549 3.2944 80.3768 3.22174 87.1361H7.12643C8.06393 83.1142 11.1928 80.3182 14.8303 80.1564C16.8249 80.0674 18.6553 80.5197 20.2913 81.6752C22.1897 83.0158 23.317 84.8721 23.7811 87.1549H42.6881C41.7811 85.4955 41.0358 83.8713 40.042 82.4182C39.4537 81.558 38.5725 80.7846 37.6537 80.2877C35.2092 78.9611 33.4819 77.0979 32.392 74.5268C31.5225 72.476 29.91 71.1143 27.8194 70.3549C23.8397 75.0353 16.8905 73.9057 14.3897 68.4049L14.3874 68.4025ZM17.5678 12.0284C10.3913 16.3338 8.82096 25.3034 11.4694 30.7268C13.7053 29.3346 16.0256 29.0885 18.4538 30.2065C18.6131 30.2791 18.878 30.2909 19.0209 30.2065C20.5233 29.3252 22.0092 28.4159 23.5163 27.5088C21.5264 22.3291 19.5624 17.2174 17.5702 12.0284H17.5678ZM11.2467 36.4994C11.221 38.7682 13.0936 40.7065 15.3694 40.7697C17.6405 40.8307 19.642 38.8713 19.6514 36.5744C19.6608 34.3104 17.7741 32.3979 15.4842 32.3487C13.2553 32.3018 11.2725 34.2448 11.2467 36.4994ZM24.0741 40.2073C23.6569 40.0971 22.9631 39.8791 22.253 39.7526C22.0397 39.7151 21.6694 39.8627 21.5616 40.0408C20.5842 41.6627 19.185 42.7315 17.3405 43.3408C17.9381 45.1362 18.5217 46.8893 19.1241 48.6916C21.4186 47.7072 23.6241 46.7604 25.7006 45.8697C25.1639 44.0041 24.6577 42.2322 24.0741 40.2049V40.2073ZM15.6881 56.1705C16.042 54.4502 16.3749 52.9432 16.6491 51.4244C16.7241 51.0119 16.7053 50.5408 16.5788 50.1424C15.9413 48.1151 15.2686 46.0971 14.5655 44.0908C14.4717 43.8213 14.1694 43.519 13.9069 43.451C13.7475 43.4088 13.3983 43.7487 13.2764 43.9877C12.0905 46.3244 11.842 48.7666 12.5592 51.2932C13.096 53.1846 14.0991 54.7713 15.6905 56.1682L15.6881 56.1705ZM20.753 87.1619C20.2584 84.701 17.7506 82.8377 15.2311 82.9783C12.7327 83.1166 10.3467 85.09 10.2038 87.1619H20.7506H20.753ZM22.7944 36.9166C23.2467 37.0362 23.9475 37.2073 24.6413 37.4112C25.1334 37.5565 25.3725 37.4018 25.5436 36.9119C26.385 34.5073 25.6045 32.3698 24.5639 30.2088C23.3522 30.9424 22.2178 31.6315 21.2944 32.1893C21.803 33.7901 22.2624 35.2362 22.7944 36.9166ZM10.3491 41.419C6.47721 48.0565 8.88658 56.9416 14.685 60.6963C15.1233 59.126 15.0952 59.4541 14.0217 58.5096C10.4241 55.3455 8.77408 51.401 9.51236 46.6221C9.75611 45.0401 10.3889 43.5213 10.8694 41.8877C10.7944 41.8197 10.5999 41.6463 10.3467 41.4166L10.3491 41.419ZM18.5639 56.4025C21.8663 56.7729 25.0373 57.1268 28.2577 57.4877C28.328 56.958 28.3866 56.515 28.4522 56.0088C25.1944 55.6479 22.0491 55.301 18.8663 54.9494C18.7561 55.4744 18.6694 55.8916 18.5639 56.4025ZM20.0428 70.0479C21.1561 70.5424 21.2358 70.5049 21.4631 69.4033C21.8499 67.5189 22.2436 65.6369 22.6186 63.7525C22.8788 62.4565 23.1155 61.1557 23.3756 59.7893H22.0959C21.4116 63.2088 20.7319 66.6072 20.0428 70.0479ZM24.3366 69.6635C25.5459 68.7893 26.228 67.8471 26.5069 66.6354C26.7225 65.7002 26.8842 64.7533 27.0717 63.8111C27.3014 62.6604 27.5358 61.5096 27.7748 60.326C27.1866 60.2604 26.7366 60.2111 26.2327 60.1549C25.6092 63.2791 24.9952 66.3518 24.3342 69.6635H24.3366ZM19.4217 51.9166L19.5577 52.1463C22.6655 52.4861 25.7756 52.826 28.9233 53.1705C28.9655 52.6174 28.9936 52.2471 29.0264 51.8018C26.9967 51.5158 25.0233 51.3166 23.085 50.9322C21.9389 50.7049 20.9592 50.9182 19.9913 51.4455C19.778 51.5604 19.6092 51.7572 19.4217 51.9166ZM17.5303 68.0791C18.1186 65.1236 18.6811 62.3018 19.26 59.3979C18.7795 59.3322 18.3952 59.2783 18.0178 59.2268C16.6303 65.1869 16.1991 65.7729 17.5327 68.0815L17.5303 68.0791Z" fill="url(#paint0_linear_1782_4694)"/>
<path d="M51.424 89.9998C50.4443 89.1889 50.3459 88.8209 50.7982 87.5764C52.4881 82.9123 54.1873 78.2506 55.8654 73.5842C56.0693 73.0123 56.1865 72.4076 56.3084 71.81C57.0138 68.367 59.7959 66.0983 63.281 66.0772C63.6631 66.0772 64.0896 65.8592 64.4107 65.6272C64.856 65.3061 65.224 64.8772 65.6482 64.4717C62.9951 59.5944 60.3748 54.778 57.7146 49.8889C58.5373 49.4342 59.3201 49.003 60.1685 48.5342C60.3396 48.8108 60.5154 49.0709 60.6631 49.3452C62.9271 53.503 65.1865 57.6608 67.4482 61.8186C67.6404 62.1725 67.7529 62.5405 68.3435 62.3694C69.9326 61.91 71.2943 62.3248 72.3045 63.6631C73.263 64.9358 73.2537 66.4123 72.342 67.9241C72.2834 68.0225 72.2365 68.128 72.1334 68.3295C73.2021 68.2123 74.1959 68.0998 75.1873 67.9991C75.8787 67.9287 76.2701 67.6006 76.5841 66.928C79.9287 59.7233 83.3177 52.542 86.6951 45.3538C86.831 45.0655 86.9763 44.7819 87.1732 44.3811C88.024 44.7819 88.849 45.1733 89.7326 45.5881C86.524 52.4202 83.3529 59.1795 80.1794 65.9389C80.238 66.0022 80.2966 66.0655 80.3552 66.1287C81.2177 65.4045 82.1013 64.7037 82.938 63.9491C84.1052 62.8991 85.4107 62.5451 86.9013 63.0678C88.9638 63.792 90.0138 66.0397 89.1255 68.06C86.7912 73.3639 82.7716 76.61 77.0599 77.6858C74.5849 78.1522 72.1099 77.8662 69.6443 77.5686C69.0091 77.4912 68.5545 77.5709 68.1068 78.0772C67.7084 78.5272 67.2068 78.9561 66.663 79.1928C65.9201 79.5162 65.6623 80.06 65.4701 80.7678C64.7716 83.3295 64.0685 85.8912 63.2904 88.4295C63.117 88.999 62.6388 89.4772 62.3013 89.9975H51.424V89.9998ZM70.0896 74.742C70.8795 74.8287 71.6599 74.8897 72.4334 74.9998C78.2037 75.8248 83.9646 72.6725 86.3247 67.3873C86.5638 66.853 86.7513 66.2998 86.1771 65.8897C85.6216 65.4936 85.1576 65.7701 84.7169 66.2014C81.6935 69.1639 78.0443 70.7084 73.842 71.0225C72.5787 71.1162 71.3224 71.3155 70.0732 71.4631C70.1177 72.0537 70.1834 72.5436 70.1857 73.0334C70.1857 73.5561 70.1295 74.0787 70.0896 74.7397V74.742ZM67.3826 73.1365C67.3709 70.8561 65.4771 68.9389 63.2107 68.9155C60.9209 68.892 58.9498 70.8678 58.9756 73.1576C59.0013 75.4264 60.9185 77.3272 63.192 77.3365C65.4256 77.3459 67.392 75.3725 67.3826 73.1365ZM53.9974 87.1404H60.7029C61.3568 84.86 62.0177 82.5537 62.7021 80.1678C60.6232 79.9053 58.9381 79.0217 57.5459 77.3623C56.3388 80.6928 55.181 83.8779 53.9974 87.1404ZM68.4279 68.4069C68.967 67.692 69.5271 67.0522 69.949 66.335C70.1037 66.0725 70.0709 65.4725 69.8763 65.2967C69.6795 65.1186 69.0701 65.128 68.8357 65.3084C68.1584 65.8334 67.5771 66.4873 66.9373 67.1108C67.4693 67.5748 67.9029 67.9522 68.4255 68.4069H68.4279Z" fill="url(#paint1_linear_1782_4694)"/>
<path d="M72.1242 0C75.0727 1.5164 78.0188 3.04218 80.9742 4.54921C82.6875 5.42343 84.4078 6.28593 86.1375 7.13203C86.7633 7.43671 87.0422 7.89374 87.0422 8.58749C87.0328 13.6523 87.0586 18.7195 87.0024 23.7844C86.9977 24.2648 86.611 24.9375 86.2008 25.1906C81.6516 27.9914 77.0625 30.7242 72.4852 33.4781C71.8383 33.8672 71.2336 33.8297 70.6125 33.3914C66.0493 30.1804 61.4672 26.9953 56.9297 23.7469C56.5336 23.4633 56.2032 22.7929 56.1985 22.2961C56.1422 17.7586 56.175 13.2187 56.1563 8.68124C56.1516 7.86562 56.5032 7.41093 57.2133 7.05468C61.7813 4.7789 66.3329 2.47031 70.8891 0.16875C70.9618 0.13125 71.0133 0.05625 71.0766 0C71.4282 0 71.7774 0 72.1289 0L72.1242 0ZM82.3313 8.43749C78.7313 6.61406 75.3328 4.88203 71.9157 3.1875C71.6977 3.07969 71.3039 3.18047 71.0508 3.30703C67.8938 4.88203 64.7485 6.47812 61.6008 8.07187C61.4086 8.16796 61.2375 8.30156 60.9586 8.47968C64.4719 10.2586 67.8703 11.9859 71.2828 13.6851C71.4891 13.7883 71.8477 13.7226 72.0774 13.6125C73.1836 13.0875 74.2711 12.5203 75.3633 11.9672C77.6203 10.8234 79.8774 9.67968 82.3289 8.43749H82.3313ZM58.9641 10.6711C58.9641 14.3156 58.9524 17.7984 58.9852 21.2812C58.9875 21.5531 59.2454 21.9094 59.4868 22.0828C62.775 24.4148 66.0797 26.7234 69.3821 29.0367C69.6094 29.1961 69.8485 29.3414 70.0922 29.5031C70.1438 29.3859 70.1836 29.3367 70.1836 29.2875C70.1883 27.5015 70.1719 25.7156 70.2047 23.9297C70.2141 23.3648 70.0758 22.9453 69.6516 22.5492C68.6907 21.6492 67.861 20.5945 66.8344 19.7859C65.0274 18.3609 64.1625 16.6312 64.575 14.325C64.6008 14.1844 64.6196 14.0156 64.568 13.8914C64.4883 13.6969 64.3875 13.4484 64.2211 13.3617C62.5196 12.4711 60.8063 11.6109 58.9618 10.6758L58.9641 10.6711ZM72.9985 29.8008C73.4414 29.55 73.7438 29.3906 74.0367 29.2148C77.1867 27.3234 80.3274 25.4133 83.4938 23.5476C84.0352 23.2289 84.2531 22.8961 84.2461 22.2492C84.211 18.682 84.2297 15.1125 84.2297 11.5453V10.6898C82.936 11.3391 81.7828 11.9484 80.5992 12.4969C80.1188 12.7195 80.0016 13.0219 80.0063 13.5164C80.0297 15.4453 79.9828 17.3789 80.0297 19.3078C80.0532 20.2711 79.6758 20.8312 78.7899 21.1664C77.0485 21.8273 75.3211 22.5234 73.6055 23.2476C73.3524 23.3555 73.0313 23.6953 73.0242 23.9344C72.9774 25.8328 72.9985 27.7336 72.9985 29.8031V29.8008ZM67.4907 14.993C67.418 15.0328 67.3453 15.0726 67.2703 15.1125C67.418 15.6047 67.4274 16.2234 67.7391 16.5656C68.9578 17.9039 70.261 19.1648 71.5641 20.4211C71.7422 20.5922 72.15 20.7023 72.3727 20.6203C73.8469 20.0765 75.3047 19.4859 76.7532 18.8789C76.943 18.7992 77.1821 18.5367 77.1867 18.3539C77.2242 17.0273 77.2055 15.6984 77.2055 14.2383C75.675 15.0094 74.2524 15.6703 72.886 16.4344C72.0047 16.9289 71.2266 16.9687 70.3477 16.4555C69.4243 15.9164 68.4422 15.4781 67.486 14.9953L67.4907 14.993Z" fill="url(#paint2_linear_1782_4694)"/>
<path d="M60.4531 35.7842C61.325 35.3459 62.1242 34.9451 62.9984 34.5068C67.2219 42.9701 71.4172 51.3724 75.6406 59.8357C74.7851 60.2646 73.9859 60.6654 73.093 61.1131C68.8672 52.6474 64.6742 44.2451 60.4531 35.7865V35.7842Z" fill="url(#paint3_linear_1782_4694)"/>
<path d="M75.5344 50.0484C74.7281 49.4883 73.9922 48.975 73.1953 48.4219C77.4094 42.3234 81.5906 36.2695 85.8328 30.1289C86.6109 30.6609 87.3445 31.1625 88.1836 31.7367C83.9601 37.8492 79.7695 43.9195 75.5367 50.0484H75.5344Z" fill="url(#paint4_linear_1782_4694)"/>
<path d="M36.491 27.6446C36.9574 27.8039 37.4144 28.0242 37.8949 28.1086C38.8628 28.2774 39.3714 28.7907 39.3082 29.6508C39.2472 30.4453 38.6707 30.9938 37.7402 30.9164C36.9808 30.8532 36.1628 30.7078 35.5089 30.3492C33.9597 29.4985 33.355 27.7078 33.9738 26.2477C34.6816 24.5743 36.5964 23.5196 38.2418 23.9391C38.9355 24.1149 39.3316 24.6024 39.3058 25.3477C39.2777 26.1282 38.8371 26.5524 38.0871 26.7188C37.5503 26.8383 37.0253 27.0188 36.4957 27.1711C36.4957 27.3282 36.491 27.4875 36.491 27.6446Z" fill="url(#paint5_linear_1782_4694)"/>
<defs>
<linearGradient id="paint0_linear_1782_4694" x1="25.2862" y1="7.34949" x2="25.2862" y2="90.0002" gradientUnits="userSpaceOnUse">
<stop stop-color="#6306FC"/>
<stop offset="1" stop-color="#4DAFB2"/>
</linearGradient>
<linearGradient id="paint1_linear_1782_4694" x1="70.1358" y1="44.3811" x2="70.1358" y2="89.9998" gradientUnits="userSpaceOnUse">
<stop stop-color="#6306FC"/>
<stop offset="1" stop-color="#4DAFB2"/>
</linearGradient>
<linearGradient id="paint2_linear_1782_4694" x1="71.5992" y1="0" x2="71.5992" y2="33.7467" gradientUnits="userSpaceOnUse">
<stop stop-color="#6306FC"/>
<stop offset="1" stop-color="#4DAFB2"/>
</linearGradient>
<linearGradient id="paint3_linear_1782_4694" x1="68.0469" y1="34.5068" x2="68.0469" y2="61.1131" gradientUnits="userSpaceOnUse">
<stop stop-color="#6306FC"/>
<stop offset="1" stop-color="#4DAFB2"/>
</linearGradient>
<linearGradient id="paint4_linear_1782_4694" x1="80.6894" y1="30.1289" x2="80.6894" y2="50.0484" gradientUnits="userSpaceOnUse">
<stop stop-color="#6306FC"/>
<stop offset="1" stop-color="#4DAFB2"/>
</linearGradient>
<linearGradient id="paint5_linear_1782_4694" x1="36.5239" y1="23.8469" x2="36.5239" y2="30.9237" gradientUnits="userSpaceOnUse">
<stop stop-color="#6306FC"/>
<stop offset="1" stop-color="#4DAFB2"/>
</linearGradient>
</defs>
</svg>
