<svg width="96" height="95" viewBox="0 0 96 95" fill="none" xmlns="http://www.w3.org/2000/svg">
<path d="M54.487 0C53.3494 0.117731 52.2118 0.235462 51.0742 0.392437C56.0168 0.627899 60.7634 1.76597 65.3922 3.64966C65.3922 4.00285 65.3922 4.3168 65.2745 4.63075C64.843 6.39672 64.49 6.55369 62.764 5.96504C57.6252 4.15983 52.3295 2.98252 46.8768 3.21798C32.9119 3.84588 21.4967 9.53621 12.592 20.446C7.61013 26.568 5.02112 33.7103 3.76584 41.2843C2.0006 51.8801 4.23657 61.848 9.88532 70.9918C11.1798 73.111 11.2191 73.1502 13.6119 72.6008C16.1225 72.0121 18.3977 72.4831 20.2806 74.1705C21.8889 75.5833 23.4188 77.1138 24.8702 78.6443C25.8901 79.7039 25.8901 80.5673 24.7525 81.5484C24.0072 82.2547 24.1249 82.7257 24.7525 83.3536C25.7332 84.2562 26.6355 85.2373 27.6554 86.1006C28.3615 86.6893 28.283 87.1209 27.6554 87.6704C27.1454 88.102 26.6355 88.573 26.0863 89.0439C24.9487 87.8666 23.8111 86.7678 22.7912 85.5512C22.0851 84.7271 21.5359 84.9233 20.9082 85.6297C20.3198 86.2576 19.5745 86.7678 20.6337 87.6704C21.6143 88.5337 22.4381 89.5148 23.3796 90.4174C23.9288 90.9276 23.8503 91.2808 23.3796 91.7909C21.8497 93.3607 21.6143 93.3607 20.1629 91.7909C19.4568 91.0061 18.7507 90.2212 18.0446 89.4363C17.4955 88.8084 17.0247 88.8084 16.5148 89.5541C15.5341 90.9276 15.0634 90.9668 13.8473 89.7895C12.2782 88.259 10.7483 86.7285 9.21846 85.1588C7.21786 83.0396 6.66867 79.7431 8.04163 77.1531C8.82618 75.701 8.63004 74.6807 7.76704 73.3072C4.58961 68.4017 2.15751 63.1038 1.17682 57.2958C0.902232 55.7653 1.05914 54.1563 0.980687 52.5865C0.980687 52.0371 0.902232 51.4877 0.666867 50.9383C0.431502 52.508 0.196137 54.117 0 55.6868C0 50.5066 0 45.3264 0 40.1463C0.117682 40.8919 0.235365 41.6375 0.31382 42.4224C0.392275 43.1288 0.431502 43.8352 0.47073 44.5416C0.588412 44.5416 0.745322 44.5416 0.863004 44.5416C0.509957 32.2975 5.76644 22.5259 14.0827 14.167C22.5166 5.61184 32.6373 1.05958 44.6801 0.549411C43.5033 0.353193 42.4441 0.196218 41.385 0C45.7392 0 50.1327 0 54.487 0ZM10.1991 80.7242C10.3953 81.1952 10.6306 82.0193 11.1406 82.6864C12.0821 83.8637 13.2197 84.9233 14.2396 86.0614C14.8672 86.807 15.3379 86.6108 15.8871 85.9829C17.4955 84.2562 19.1822 82.5294 20.8298 80.842C21.379 80.2926 21.4182 79.8216 20.869 79.3115C19.9668 78.4481 19.1038 77.5455 18.1623 76.6821C16.6717 75.3086 14.9849 74.9947 13.1412 75.8188C11.2191 76.6821 10.3953 78.3304 10.1599 80.7242H10.1991Z" fill="url(#paint0_linear_1782_3540)"/>
<path d="M71.403 12.6346C70.1477 11.4573 68.9709 10.2799 67.6764 9.14188C66.931 8.47474 66.7741 8.00381 67.7156 7.37592C68.2256 7.06197 68.6178 6.59104 68.9709 6.27709C70.2262 7.4544 71.5207 8.55323 72.6583 9.76978C73.2859 10.3977 73.5605 10.3977 74.1881 9.76978C75.8357 8.0823 75.9141 8.31776 74.0705 6.86575C73.1682 6.15936 72.3837 5.37449 71.5599 4.58961C71.4422 4.47188 71.403 4.31491 71.3245 4.15793C71.9129 3.53004 72.4229 2.86289 73.0898 2.35273C73.3251 2.19575 73.992 2.31348 74.2666 2.54894C75.5219 3.68701 76.6987 4.90356 78.0717 6.1986C78.4247 5.80617 78.8562 5.37449 79.2485 4.94281C79.8761 4.23642 80.543 4.15793 81.2099 4.82508C83.0143 6.66953 84.9365 8.43549 86.584 10.4369C88.6238 12.9485 88.4669 15.8525 87.094 18.6781C86.6625 19.6199 86.6625 20.2871 87.2117 21.1112C90.9775 26.9193 93.4488 33.2375 94.5864 40.0659C95.2925 44.3434 95.2925 48.6603 94.861 52.9771C94.0372 61.179 90.8206 68.4391 86.3486 75.1497C82.3082 81.1933 76.8164 85.7455 70.4615 89.2774C62.8906 93.5158 54.849 95.3995 46.1797 94.9285C41.0801 94.6538 36.1767 93.712 31.3517 92.103C29.7434 91.5928 29.4688 90.2585 30.7241 89.1205C30.9987 88.885 31.6655 89.042 32.1363 89.1205C35.9806 89.9838 39.7856 91.2004 43.6692 91.6713C50.4947 92.4562 57.1634 91.3181 63.5967 88.728C70.2654 86.0202 76.1495 82.3313 80.8568 76.798C87.0155 69.4986 90.8206 61.2182 91.7228 51.7213C92.6643 41.4787 90.6637 31.864 84.7796 23.2304C84.1911 22.367 83.642 22.1315 82.6613 22.4455C79.8369 23.3873 77.3263 22.7987 75.1296 20.7973C73.6782 19.463 72.2268 18.0894 70.8538 16.6767C69.4024 15.1854 69.4416 14.8322 70.8146 13.2232C70.9715 13.027 71.0892 12.8308 71.3245 12.5561L71.403 12.6346ZM85.0149 14.9892C84.858 14.5183 84.858 13.6941 84.4265 13.1447C83.2889 11.6927 81.9944 10.3584 80.7391 9.02415C80.6214 8.90642 80.033 8.94566 79.8369 9.14188C77.9147 10.8686 76.0318 12.6346 74.1097 14.4005C73.639 14.8322 73.5605 15.2639 74.0312 15.7348C74.9727 16.6767 75.9141 17.6185 76.8164 18.5996C78.3855 20.2478 80.2292 20.1693 82.1513 19.3452C83.9558 18.5604 84.6619 17.0691 84.9757 14.9892H85.0149Z" fill="url(#paint1_linear_1782_3540)"/>
<path d="M48.1609 77.5035C31.5285 77.7389 17.485 64.5138 17.6419 46.8934C17.7988 30.4896 31.2146 17.186 48.6316 17.6176C64.5972 18.0101 78.5622 30.8428 77.5815 49.6405C76.8754 63.9252 64.9503 77.7782 48.1609 77.5035ZM47.6902 74.5602C60.9491 74.4425 74.1687 64.0429 74.561 47.8353C74.9533 31.6276 60.9883 20.5609 47.6902 20.6002C33.7644 20.6002 20.7017 31.5884 20.6624 47.8353C20.6624 63.0618 33.4114 74.5602 47.6902 74.521V74.5602Z" fill="url(#paint2_linear_1782_3540)"/>
<path d="M46.2526 58.2012C46.2526 56.6315 46.2134 55.0617 46.2526 53.4527C46.2919 52.4324 45.8996 52.1185 44.9189 52.1577C42.9183 52.1969 40.8785 52.1577 38.8387 52.1577C36.7204 52.1577 36.1712 51.3336 37.0734 49.4106C38.9956 45.4863 40.9962 41.6404 42.9183 37.716C43.8598 35.7931 44.7228 33.8309 45.7035 31.9472C46.1742 31.0446 46.6449 29.8673 47.9787 30.2205C49.2732 30.5344 49.2732 31.751 49.2732 32.8106C49.2732 35.6754 49.2732 38.5401 49.1555 41.4442C49.1555 42.5038 49.4301 42.8569 50.4892 42.8177C52.2152 42.7392 53.9805 42.8177 55.7065 42.8177C56.2164 42.8177 56.7656 42.8569 57.2756 43.0139C58.5701 43.3671 58.8839 43.9558 58.2955 45.1723C57.1579 47.6054 55.9418 50.0385 54.7258 52.4716C52.9213 56.0821 51.1169 59.6925 49.3124 63.3029C49.1947 63.5384 49.1163 63.8915 48.9201 64.0093C48.4102 64.3232 47.7433 64.7942 47.3118 64.6764C46.8411 64.5587 46.3311 63.7738 46.2919 63.2637C46.1742 61.5762 46.2526 59.8887 46.2526 58.162V58.2012ZM54.6866 45.9572C54.0197 45.9572 53.5882 45.8787 53.1567 45.8787C51.4307 45.8787 49.6654 45.8787 47.9394 45.8787C46.8803 45.8787 46.2526 45.5255 46.2134 44.3875C46.2134 42.9354 46.1742 41.4834 46.135 40.0314C46.135 39.7175 46.135 39.4035 46.0957 39.0896C45.9781 39.0896 45.8604 39.0503 45.7427 39.0111C44.0951 42.3075 42.4868 45.5648 40.7216 49.0574C41.4669 49.0574 41.9376 49.0574 42.4084 49.0574C44.1736 49.0967 45.9388 49.1359 47.7433 49.2144C48.5671 49.2537 49.1163 49.7246 49.1555 50.5879C49.1947 52.0792 49.2339 53.5705 49.2732 55.0617C49.2732 55.4149 49.2732 55.7681 49.3124 56.1213C49.4301 56.1213 49.5478 56.1213 49.6654 56.1606C51.313 52.8248 52.9605 49.4891 54.6866 45.8787V45.9572Z" fill="url(#paint3_linear_1782_3540)"/>
<defs>
<linearGradient id="paint0_linear_1782_3540" x1="32.6961" y1="0" x2="32.6961" y2="92.9683" gradientUnits="userSpaceOnUse">
<stop stop-color="#4DAFB2"/>
<stop offset="1" stop-color="#6306FC"/>
</linearGradient>
<linearGradient id="paint1_linear_1782_3540" x1="62.547" y1="2.28125" x2="62.547" y2="94.9992" gradientUnits="userSpaceOnUse">
<stop stop-color="#4DAFB2"/>
<stop offset="1" stop-color="#6306FC"/>
</linearGradient>
<linearGradient id="paint2_linear_1782_3540" x1="47.6354" y1="17.6074" x2="47.6354" y2="77.5075" gradientUnits="userSpaceOnUse">
<stop stop-color="#4DAFB2"/>
<stop offset="1" stop-color="#6306FC"/>
</linearGradient>
<linearGradient id="paint3_linear_1782_3540" x1="47.6184" y1="30.1562" x2="47.6184" y2="64.6949" gradientUnits="userSpaceOnUse">
<stop stop-color="#4DAFB2"/>
<stop offset="1" stop-color="#6306FC"/>
</linearGradient>
</defs>
</svg>
