<svg width="121" height="108" viewBox="0 0 121 108" fill="none" xmlns="http://www.w3.org/2000/svg">
<path d="M3.22022 85.6197V78.0897C3.22022 76.0497 3.24719 73.9898 3.20819 71.9498C3.18519 70.7498 3.64819 70.1798 4.89319 70.2298C6.07619 70.2898 7.26419 70.2499 8.27619 70.2499C9.00219 68.5499 9.69719 66.9998 10.3152 65.4298C10.4797 64.9335 10.5562 64.4123 10.5412 63.8897C10.6745 55.0797 10.7979 46.2631 10.9112 37.4398C10.9272 36.3098 10.7582 35.1499 10.8582 34.0299C10.977 32.4528 11.5043 30.9337 12.3881 29.6222C13.272 28.3107 14.482 27.2519 15.8992 26.5499C16.9786 25.9677 18.0024 25.2882 18.9582 24.5199C24.5182 19.8799 30.0545 15.2132 35.5672 10.5199C36.49 9.65121 37.6169 9.02913 38.8436 8.71104C40.0704 8.39294 41.3575 8.38901 42.5862 8.69981C43.0543 8.78852 43.5313 8.82218 44.0072 8.7999C48.6272 8.8099 53.2479 8.8099 57.8692 8.7999C58.3322 8.7999 58.7972 8.75985 59.2692 8.73985C59.4142 7.56985 59.1892 6.18988 59.7772 5.52988C60.3462 4.89988 61.7552 5.00985 63.0842 4.73985V1.97984C63.0842 0.919836 63.5582 0.429807 64.6582 0.449807C67.2282 0.489806 69.8022 0.479806 72.3762 0.449807C73.4142 0.439807 73.8612 0.929787 73.8272 1.92979C73.8192 2.11979 73.8272 2.30986 73.8272 2.49986C73.8422 4.81986 73.8422 4.84986 76.1792 4.99986C77.1572 5.05986 77.5122 5.52981 77.5082 6.44981C77.5016 15.7998 77.5042 25.1432 77.5162 34.4798C77.5162 35.7198 76.8782 36.0098 75.8052 35.9898C73.6672 35.9498 73.8352 35.8099 73.8272 38.0099C73.8312 38.0564 73.8312 38.1032 73.8272 38.1498C73.5364 39.4012 73.6382 40.712 74.1186 41.9037C74.599 43.0953 75.4347 44.11 76.5122 44.8099C77.5472 45.5199 77.5242 46.4197 76.7642 47.3797C76.372 48.0314 75.9276 48.6502 75.4352 49.2298C75.1022 49.5298 74.4462 49.4599 73.9352 49.5599C73.7617 49.073 73.6889 48.5558 73.7212 48.0399C73.9965 47.4241 74.3494 46.8459 74.7712 46.3197C73.5712 44.7297 72.3422 43.3899 70.0782 43.7699C69.1348 43.9248 68.1725 43.9248 67.2292 43.7699C64.9562 43.4199 63.4132 44.4197 62.1952 46.3497C62.5883 46.8354 62.9112 47.3741 63.1542 47.9498C63.1914 48.4943 63.1235 49.041 62.9542 49.5599C62.4462 49.4499 61.7542 49.4998 61.4732 49.1898C60.8055 48.447 60.2484 47.6117 59.8192 46.7098C59.6392 46.3398 59.8722 45.7699 59.9532 45.2999C59.9722 45.1799 60.1242 45.0598 60.2432 44.9898C63.2672 43.1098 63.3172 40.1797 63.0962 37.0997C63.0312 36.2197 62.7442 35.9798 61.9042 35.9598C59.4332 35.8998 59.4332 35.8697 59.4332 33.3797V23.0897C58.8262 23.0597 58.3262 23.0099 57.8252 23.0199C53.4912 23.0899 49.1562 23.1299 44.8252 23.2699C44.1393 23.3153 43.4897 23.5941 42.9842 24.0599C38.5695 28.3999 34.1929 32.7831 29.8542 37.2098C29.3485 37.7481 29.0425 38.4433 28.9872 39.1798C28.7242 47.1798 28.4982 55.1798 28.3612 63.1898C28.4613 64.3393 28.7063 65.4718 29.0902 66.5599C29.1902 66.9799 29.4232 67.3499 29.5642 67.7499C29.7907 68.5177 30.2736 69.1848 30.9323 69.6397C31.5911 70.0947 32.3859 70.31 33.1842 70.2499C35.4842 70.2499 35.5062 70.2699 35.5102 72.5599V85.7599H118.187C120.521 85.7599 120.631 85.8698 120.631 88.1498V105.45C120.631 107.22 120.44 107.41 118.657 107.41H89.9372C89.7012 107.41 89.3952 107.5 89.2372 107.39C88.8068 107.05 88.3962 106.686 88.0072 106.3C88.4272 105.94 88.8322 105.28 89.2672 105.26C91.5472 105.15 93.8392 105.2 96.1262 105.2H98.9262C96.2842 102.71 94.8172 99.9697 94.8172 96.6297C94.8241 94.989 95.1948 93.3702 95.9028 91.89C96.6107 90.4098 97.6382 89.1049 98.9112 88.0697H67.5622C72.7622 93.6897 72.8472 99.3298 67.5202 105.14C68.0582 105.16 68.4942 105.2 68.9332 105.2C72.6952 105.21 76.4602 105.2 80.2222 105.21C80.6442 105.148 81.0748 105.193 81.4752 105.34C81.6681 105.451 81.8336 105.604 81.9597 105.787C82.0859 105.971 82.1694 106.18 82.2042 106.4C82.1812 106.74 81.7152 107.17 81.3412 107.35C80.9263 107.451 80.4958 107.472 80.0732 107.41H2.9032C0.726199 107.41 0.642213 107.33 0.642213 105.15V88.4198C0.611686 88.0631 0.655695 87.7041 0.771486 87.3653C0.887277 87.0266 1.07229 86.7156 1.31476 86.4522C1.55723 86.1889 1.85189 85.9789 2.17993 85.8355C2.50797 85.6922 2.86224 85.6187 3.22022 85.6197ZM22.6202 105.08H53.8862C52.6209 104.04 51.6006 102.733 50.8983 101.254C50.196 99.7741 49.8289 98.1577 49.8232 96.5199C49.8563 94.9118 50.2299 93.3289 50.9194 91.8758C51.6089 90.4227 52.5986 89.1323 53.8232 88.0897H22.4942C27.0922 92.3097 28.3682 99.2497 22.6242 105.08H22.6202ZM33.2672 72.5599H5.52319V85.6397H33.2712L33.2672 72.5599ZM12.9812 41.2098V62.4098C19.6032 59.7898 19.6872 59.7897 26.1562 62.6197C26.3402 55.6697 26.5192 48.7898 26.7062 41.6798C22.7692 44.7498 18.1022 45.4798 12.9852 41.2098H12.9812ZM61.6002 22.8497C61.6002 26.4397 61.5702 29.7199 61.6502 32.9999C61.6582 33.2799 62.3792 33.7699 62.7772 33.7799C65.4422 33.8499 68.1122 33.8197 70.7772 33.8197H75.1692V17.8099C73.5582 21.5299 70.9692 22.9797 67.4092 22.8597C65.5612 22.8097 63.7092 22.8497 61.6042 22.8497H61.6002ZM40.2942 23.2899C35.8872 22.5799 33.6112 19.9298 33.2142 15.3998C29.1242 18.8598 25.2482 22.1299 21.2142 25.5299C26.0492 26.5899 28.7372 29.4899 29.4902 34.0599C33.0922 30.4699 36.6472 26.9299 40.2982 23.2899H40.2942ZM63.2882 20.8497C60.8142 17.4497 60.7882 14.3197 63.0882 11.0997H46.5122C47.5784 12.5113 48.1385 14.2407 48.1022 16.0094C48.0659 17.778 47.4354 19.483 46.3122 20.8497H63.2882ZM27.2422 34.9398C27.2517 33.997 27.0728 33.0618 26.716 32.1891C26.3592 31.3164 25.8316 30.5238 25.1643 29.8578C24.497 29.1917 23.7033 28.6658 22.8299 28.3106C21.9565 27.9555 21.0209 27.7785 20.0782 27.7899C18.1898 27.8005 16.3831 28.5607 15.0553 29.9034C13.7275 31.2462 12.9876 33.0615 12.9982 34.9498C13.0088 36.8381 13.7691 38.645 15.1119 39.9728C16.4546 41.3005 18.2699 42.0405 20.1582 42.0299C21.0891 42.0304 22.0111 41.8473 22.8712 41.4911C23.7313 41.1349 24.5127 40.6125 25.1707 39.954C25.8286 39.2954 26.3503 38.5136 26.7058 37.6532C27.0612 36.7928 27.2435 35.8707 27.2422 34.9398ZM10.9702 70.1798H27.7312C27.7392 66.4798 24.0042 62.9399 19.9822 62.7499C17.809 62.5762 15.6534 63.2542 13.9709 64.6407C12.2885 66.0272 11.211 68.0134 10.9662 70.1798H10.9702ZM73.1922 15.8297C73.193 14.8751 72.9106 13.9418 72.3806 13.1478C71.8507 12.3538 71.0971 11.735 70.2152 11.3695C69.3333 11.004 68.3628 10.9082 67.4266 11.0946C66.4903 11.2809 65.6304 11.7408 64.9557 12.4161C64.281 13.0914 63.8218 13.9516 63.6362 14.888C63.4507 15.8244 63.5471 16.7948 63.9133 17.6764C64.2796 18.5579 64.8991 19.3111 65.6935 19.8404C66.488 20.3697 67.4216 20.6513 68.3762 20.6498C69.6479 20.6296 70.8618 20.1151 71.7608 19.2154C72.6598 18.3157 73.1731 17.1014 73.1922 15.8297ZM112.268 88.0199C113.551 89.0535 114.588 90.3596 115.303 91.8436C116.019 93.3277 116.395 94.9523 116.404 96.5997C116.386 98.2245 116.018 99.8264 115.323 101.295C114.628 102.764 113.624 104.065 112.379 105.11H118.321V88.0199H112.268ZM8.92224 105.07C7.65328 104.03 6.63208 102.72 5.93305 101.236C5.23401 99.7517 4.8747 98.1304 4.88123 96.4898C4.88923 93.1198 6.40122 90.4499 8.91022 88.0499H2.98322V105.19H8.08319C8.26319 105.19 8.4422 105.14 8.9162 105.08L8.92224 105.07ZM40.8372 10.6798C39.4649 10.6505 38.1367 11.1649 37.1422 12.1109C36.1476 13.0569 35.5675 14.3578 35.5282 15.7298C35.5198 17.1022 36.0471 18.4237 36.9977 19.4134C37.9484 20.4031 39.2476 20.983 40.6192 21.0299C41.9908 21.0532 43.3156 20.5314 44.3029 19.579C45.2901 18.6266 45.8592 17.3213 45.8852 15.9498C45.9067 15.2702 45.7923 14.5931 45.5487 13.9584C45.3052 13.3236 44.9374 12.7438 44.4669 12.253C43.9963 11.7622 43.4326 11.3701 42.8087 11.1C42.1847 10.8298 41.5131 10.687 40.8332 10.6798H40.8372ZM68.4752 41.6097H69.7542C70.0155 41.6423 70.2807 41.6139 70.5291 41.5265C70.7775 41.439 71.0022 41.2951 71.1854 41.1061C71.3687 40.917 71.5055 40.6878 71.5851 40.4369C71.6647 40.1859 71.685 39.9199 71.6442 39.6598C71.6442 35.9698 71.6442 35.9598 67.9252 35.9798C64.8542 35.9998 65.2782 35.5998 65.2552 38.4298C65.2322 41.6098 65.2522 41.6097 68.4752 41.6097ZM61.7042 8.7999C63.9232 8.7999 66.0572 8.75991 68.1922 8.80991C69.5605 8.77804 70.9081 9.14851 72.0677 9.87559C73.2273 10.6027 74.1479 11.6542 74.7152 12.8998C74.8222 13.1198 74.9672 13.3198 75.1812 13.6798V7.25987H61.7072V8.7999H61.7042ZM65.4312 2.74986C65.0452 4.94986 65.0762 4.98986 67.0462 4.99986H69.7542C71.8322 4.99986 71.8932 4.90986 71.4462 2.74986H65.4312Z" fill="url(#paint0_linear_2059_359)"/>
<path d="M62.8393 57.9792C59.2573 57.9792 55.8893 57.9593 52.5203 58.0293C52.2573 58.0293 51.8203 58.5992 51.7753 58.9392C51.6613 59.8792 51.8443 60.8693 51.6493 61.7793C51.5433 62.2793 50.9053 62.6591 50.5083 63.0891C50.1223 62.6491 49.4503 62.2293 49.4083 61.7593C49.2633 60.2493 49.3623 58.7092 49.3473 57.1892C49.3353 56.0292 49.9013 55.6191 51.0353 55.6191C55.3693 55.6591 59.7043 55.6392 64.0353 55.6392H85.3223C87.2583 55.6392 87.4113 55.7893 87.4113 57.7793C87.4113 66.1693 87.4113 74.5559 87.4113 82.9392C87.4113 84.7492 87.1473 85.0193 85.3673 85.0193H51.3673C49.6373 85.0193 49.3583 84.7493 49.3553 83.0493C49.3433 78.9593 49.3553 74.8593 49.3553 70.7593V70.3291C49.3813 69.5491 49.5803 68.8591 50.5193 68.8491C51.4583 68.8391 51.7113 69.5293 51.7193 70.3093C51.7413 73.3093 51.7383 76.3093 51.7413 79.3093C51.7413 81.5693 52.8713 82.6892 55.1293 82.6892C64.5123 82.6892 73.8923 82.6692 83.2753 82.7192C84.6463 82.7292 85.0753 82.3292 85.0583 80.9492C84.997 73.8492 84.9946 66.7492 85.0513 59.6492C85.0583 58.3892 84.7513 57.8792 83.3783 57.9392C80.7623 58.0392 78.1383 58.0492 75.5223 57.9392C74.1363 57.8692 73.8343 58.3992 73.8883 59.6492C73.9763 61.7492 73.8803 63.8492 73.9223 65.9392C73.9493 67.1992 73.4683 67.7893 72.1623 67.7593C69.637 67.7193 67.1127 67.7193 64.5893 67.7593C63.2893 67.7893 62.8133 67.1992 62.8363 65.9392C62.8653 63.3692 62.8393 60.7992 62.8393 57.9792Z" fill="url(#paint1_linear_2059_359)"/>
<path d="M83.1437 97.6787C80.9057 97.6787 78.6677 97.6687 76.4297 97.6787C75.6547 97.6787 74.9247 97.5686 74.9297 96.5886C74.9297 95.6286 75.6477 95.4688 76.4297 95.4688H89.9987C90.7987 95.4688 91.5647 95.7587 91.3987 96.6387C91.2633 96.905 91.0651 97.1344 90.8211 97.3069C90.5772 97.4794 90.2949 97.5898 89.9987 97.6287C87.7187 97.7287 85.4307 97.6687 83.1437 97.6687V97.6787Z" fill="url(#paint2_linear_2059_359)"/>
<path d="M37.8413 97.6803C35.6033 97.6803 33.3653 97.6703 31.1273 97.6803C30.3413 97.6903 29.5163 97.5203 29.6273 96.6403C29.7533 96.3488 29.9504 96.0935 30.2006 95.8978C30.4507 95.7022 30.746 95.5725 31.0593 95.5204C35.5803 95.4404 40.1062 95.4703 44.6312 95.4703C45.4222 95.4703 46.1173 95.6802 46.0943 96.6302C46.0713 97.6102 45.3263 97.6803 44.5593 97.6803C42.3213 97.6703 40.0832 97.6803 37.8452 97.6803H37.8413Z" fill="url(#paint3_linear_2059_359)"/>
<path d="M12.8815 77.0799C11.1245 77.0799 9.36347 77.1501 7.61847 77.0301C7.10647 77.0001 6.63744 76.3998 6.14844 76.0698C6.63744 75.6698 7.11441 74.9299 7.61041 74.9199C11.1164 74.8199 14.6305 74.8699 18.1395 74.8699C18.9535 74.8699 19.6825 75.1901 19.5225 76.0501C19.391 76.3143 19.1964 76.542 18.9558 76.7129C18.7153 76.8839 18.4362 76.9928 18.1434 77.0301C16.3984 77.1501 14.6405 77.0799 12.8815 77.0799Z" fill="url(#paint4_linear_2059_359)"/>
<path d="M8.99785 81.0695C8.43802 81.1469 7.86935 81.1336 7.31382 81.0297C7.07185 80.9496 6.8497 80.819 6.66197 80.6466C6.47423 80.4742 6.32521 80.264 6.22484 80.0297C6.15284 79.7397 6.73686 78.9996 7.07286 78.9696C8.3863 78.8428 9.70904 78.8462 11.0218 78.9796C11.3388 79.0096 11.8319 79.7195 11.8089 80.0895C11.7859 80.4295 11.2359 80.9097 10.8309 81.0297C10.2256 81.1234 9.61065 81.1366 9.00187 81.0695H8.99785Z" fill="url(#paint5_linear_2059_359)"/>
<path d="M16.3108 34.8289C16.3132 34.3289 16.4147 33.8343 16.6096 33.3738C16.8045 32.9133 17.0889 32.4961 17.4463 32.1463C17.8037 31.7965 18.2269 31.5212 18.6915 31.3362C19.1561 31.1513 19.6528 31.0604 20.1528 31.0689C20.6609 31.0714 21.1635 31.1748 21.6313 31.3731C22.0992 31.5714 22.5229 31.8607 22.878 32.2242C23.2331 32.5876 23.5125 33.018 23.6999 33.4903C23.8873 33.9626 23.9789 34.4674 23.9696 34.9754C23.9603 35.4834 23.8501 35.9847 23.6455 36.4498C23.4409 36.9149 23.1459 37.3347 22.7776 37.6849C22.4094 38.035 21.9753 38.3083 21.5005 38.4893C21.0257 38.6703 20.5197 38.7553 20.0118 38.7391C19.5108 38.7289 19.0168 38.6192 18.5585 38.4166C18.1001 38.2139 17.6867 37.9222 17.342 37.5584C16.9973 37.1946 16.7283 36.7662 16.5506 36.2977C16.3729 35.8291 16.29 35.3298 16.3068 34.8289H16.3108ZM20.5688 36.5789C20.8788 36.1489 21.5928 35.579 21.6998 34.909C21.8558 33.969 21.1648 33.3191 20.1448 33.2991C19.9293 33.274 19.711 33.2971 19.5056 33.367C19.3002 33.4369 19.1131 33.5519 18.9576 33.7032C18.8022 33.8545 18.6824 34.0386 18.607 34.242C18.5317 34.4454 18.5026 34.6629 18.5218 34.879C18.5068 35.889 19.0948 36.4289 20.5688 36.5789Z" fill="url(#paint6_linear_2059_359)"/>
<path d="M68.3219 13.6196C68.6173 13.6135 68.911 13.6662 69.186 13.7742C69.461 13.8821 69.712 14.0433 69.9243 14.2488C70.1366 14.4542 70.3062 14.6999 70.4231 14.9712C70.5401 15.2425 70.6022 15.5341 70.6059 15.8296C70.6047 16.4153 70.3742 16.9776 69.9637 17.3955C69.5533 17.8134 68.9955 18.0539 68.4099 18.0657C67.8242 18.0774 67.2573 17.8593 66.8304 17.4582C66.4035 17.0571 66.1506 16.5049 66.1259 15.9197C66.1175 15.6241 66.1678 15.3297 66.2739 15.0537C66.38 14.7777 66.5398 14.5254 66.744 14.3115C66.9482 14.0976 67.1928 13.9264 67.4637 13.8076C67.7345 13.6889 68.0262 13.6249 68.3219 13.6196Z" fill="url(#paint7_linear_2059_359)"/>
<path d="M40.7687 19.0391C39.9187 19.0497 39.0993 18.722 38.4907 18.1285C37.8822 17.5349 37.5343 16.7241 37.5237 15.8741C37.5131 15.0241 37.8406 14.2046 38.4341 13.596C39.0277 12.9875 39.8387 12.6396 40.6887 12.629C41.1175 12.6262 41.5426 12.7082 41.9396 12.8702C42.3367 13.0322 42.6977 13.2711 43.0021 13.5731C43.3066 13.8751 43.5483 14.2342 43.7135 14.63C43.8787 15.0257 43.9641 15.4502 43.9647 15.879C43.9493 16.7192 43.606 17.52 43.0081 18.1104C42.4101 18.7009 41.605 19.0343 40.7647 19.0391H40.7687ZM42.1777 15.7591C41.4707 15.3291 41.0397 14.839 40.6887 14.899C40.4711 14.9752 40.2769 15.1066 40.125 15.2801C39.9731 15.4536 39.8686 15.6632 39.8217 15.889C39.8217 16.199 40.4327 16.7291 40.7917 16.7491C41.1507 16.7691 41.5247 16.2491 42.1777 15.7591Z" fill="url(#paint8_linear_2059_359)"/>
<path d="M106.165 101.53C107.156 101.569 108.136 101.311 108.978 100.788C109.821 100.266 110.488 99.5037 110.894 98.5993C111.3 97.6949 111.426 96.69 111.256 95.7133C111.086 94.7367 110.628 93.8331 109.941 93.1189C109.253 92.4046 108.368 91.9123 107.398 91.7053C106.429 91.4982 105.42 91.5859 104.501 91.957C103.581 92.3281 102.794 92.9655 102.24 93.7876C101.686 94.6096 101.39 95.5785 101.391 96.5698C101.367 97.8605 101.856 99.1082 102.752 100.038C103.647 100.968 104.875 101.505 106.165 101.53Z" fill="white"/>
<path d="M60.7192 101.53C61.7098 101.569 62.6894 101.311 63.5321 100.789C64.3748 100.267 65.0421 99.5043 65.4482 98.5999C65.8543 97.6956 65.9806 96.6904 65.8108 95.7137C65.6411 94.737 65.183 93.8335 64.4956 93.1192C63.8082 92.4049 62.9229 91.9125 61.9534 91.7054C60.984 91.4982 59.9747 91.5858 59.0554 91.9569C58.1361 92.3279 57.3488 92.9654 56.7948 93.7874C56.2407 94.6095 55.9452 95.5783 55.9462 96.5696C55.9218 97.8602 56.4109 99.1078 57.3059 100.038C58.2009 100.968 59.4287 101.505 60.7192 101.53Z" fill="white"/>
<path d="M16.0328 101.149C17.0229 101.188 18.0021 100.93 18.8445 100.408C19.6868 99.8862 20.3539 99.1246 20.7601 98.2208C21.1663 97.317 21.293 96.3124 21.1239 95.336C20.9549 94.3597 20.4978 93.4561 19.8114 92.7415C19.1249 92.0269 18.2406 91.5339 17.2718 91.3257C16.3031 91.1176 15.2942 91.2038 14.3748 91.5733C13.4554 91.9428 12.6674 92.5788 12.1122 93.3995C11.557 94.2202 11.2598 95.1881 11.2588 96.179C11.2458 96.8189 11.359 97.455 11.5919 98.0511C11.8248 98.6472 12.1728 99.1916 12.6162 99.6531C13.0595 100.115 13.5895 100.484 14.1757 100.741C14.7619 100.998 15.393 101.136 16.0328 101.149Z" fill="white"/>
<defs>
<linearGradient id="paint0_linear_2059_359" x1="60.632" y1="0.449219" x2="60.632" y2="107.445" gradientUnits="userSpaceOnUse">
<stop stop-color="#6306FC"/>
<stop offset="1" stop-color="#24B0B3"/>
</linearGradient>
<linearGradient id="paint1_linear_2059_359" x1="68.3697" y1="55.6191" x2="68.3697" y2="85.0193" gradientUnits="userSpaceOnUse">
<stop stop-color="#6306FC"/>
<stop offset="1" stop-color="#24B0B3"/>
</linearGradient>
<linearGradient id="paint2_linear_2059_359" x1="83.1756" y1="95.4688" x2="83.1756" y2="97.6865" gradientUnits="userSpaceOnUse">
<stop stop-color="#6306FC"/>
<stop offset="1" stop-color="#24B0B3"/>
</linearGradient>
<linearGradient id="paint3_linear_2059_359" x1="37.856" y1="95.4648" x2="37.856" y2="97.6807" gradientUnits="userSpaceOnUse">
<stop stop-color="#6306FC"/>
<stop offset="1" stop-color="#24B0B3"/>
</linearGradient>
<linearGradient id="paint4_linear_2059_359" x1="12.8466" y1="74.8574" x2="12.8466" y2="77.1003" gradientUnits="userSpaceOnUse">
<stop stop-color="#6306FC"/>
<stop offset="1" stop-color="#24B0B3"/>
</linearGradient>
<linearGradient id="paint5_linear_2059_359" x1="9.0142" y1="78.877" x2="9.0142" y2="81.119" gradientUnits="userSpaceOnUse">
<stop stop-color="#6306FC"/>
<stop offset="1" stop-color="#24B0B3"/>
</linearGradient>
<linearGradient id="paint6_linear_2059_359" x1="20.1375" y1="31.0684" x2="20.1375" y2="38.741" gradientUnits="userSpaceOnUse">
<stop stop-color="#6306FC"/>
<stop offset="1" stop-color="#24B0B3"/>
</linearGradient>
<linearGradient id="paint7_linear_2059_359" x1="68.3654" y1="13.6191" x2="68.3654" y2="18.0661" gradientUnits="userSpaceOnUse">
<stop stop-color="#6306FC"/>
<stop offset="1" stop-color="#24B0B3"/>
</linearGradient>
<linearGradient id="paint8_linear_2059_359" x1="40.7441" y1="12.6289" x2="40.7441" y2="19.0394" gradientUnits="userSpaceOnUse">
<stop stop-color="#6306FC"/>
<stop offset="1" stop-color="#24B0B3"/>
</linearGradient>
</defs>
</svg>
