<svg width="135" height="89" viewBox="0 0 135 89" fill="none" xmlns="http://www.w3.org/2000/svg">
<path d="M105.043 37.7386H91.488V50.8688H105.043V37.7386ZM56.1519 50.8501H69.7011V37.7349H56.1519V50.8501ZM56.1687 33.6568H69.7161V20.5248H56.1687V33.6568ZM73.8106 50.8632H87.386V37.7256H73.8106V50.8632ZM87.3636 20.5248H73.7844V33.6606H87.3636V20.5248ZM36.1431 15.9951H17.4935V29.3286H36.1431V15.9951ZM44.605 33.3899H9.03154V35.4616C10.473 35.4616 11.8584 35.4206 13.2401 35.4747C14.3525 35.5176 15.0275 36.1503 15.0854 37.2795C15.1434 38.4105 14.5339 39.0824 13.4364 39.2784C12.8512 39.3811 12.251 39.396 11.6378 39.452V50.8408H41.9745V39.368H40.4414C34.8119 39.368 29.1824 39.3717 23.5548 39.3605C22.9921 39.3587 22.4088 39.3381 21.8741 39.1888C20.9093 38.9182 20.3092 38.1455 20.5896 37.2272C20.7934 36.5647 21.4814 35.9618 22.0965 35.5456C22.4649 35.2955 23.1136 35.4374 23.6371 35.4374C30.0948 35.4336 36.5525 35.4355 43.0103 35.4355H44.605V33.3899ZM4.6192 54.8572C5.2231 56.6565 5.68303 58.2392 6.28131 59.7677C7.93219 63.9877 10.4936 67.6383 13.3186 71.164C14.3544 72.4574 15.3397 72.8251 16.8915 72.8232C40.8471 72.7784 64.8046 72.7915 88.7602 72.7952C89.3697 72.7952 89.9867 72.7933 90.5868 72.8773C91.6076 73.0173 92.1236 73.7265 92.1554 74.6784C92.1872 75.6321 91.7067 76.3731 90.7027 76.5728C90.1119 76.6904 89.4912 76.709 88.8854 76.709C65.1467 76.7165 41.408 76.737 17.6711 76.6698C15.8819 76.6642 14.8554 77.0039 14.2403 78.8087C13.5916 80.7106 12.5595 82.4837 11.6135 84.4845H111.841C112.19 84.4845 112.548 84.5292 112.886 84.4639C113.155 84.4135 113.533 84.2903 113.632 84.0888C114.787 81.7185 115.898 79.3257 117.126 76.7146H115.455C110.392 76.7146 105.331 76.7221 100.27 76.7109C98.4991 76.7072 97.5624 76.0147 97.5475 74.7587C97.5306 73.5026 98.4673 72.8157 100.229 72.7933C100.578 72.7896 100.928 72.7933 101.277 72.7933C106.774 72.7933 112.273 72.7691 117.771 72.8139C118.699 72.8213 119.145 72.5171 119.532 71.6866C122.997 64.2284 126.508 56.7946 130.004 49.3514C130.184 48.9706 130.331 48.5749 130.546 48.0636C125.388 48.0636 120.379 48.0636 115.371 48.0654C113.462 48.0673 113.211 48.2894 112.959 50.167C112.662 52.3675 111.134 54.1461 108.952 54.6426C108.03 54.8535 107.051 54.8666 106.097 54.8666C72.9337 54.8703 39.7702 54.8628 6.60662 54.8572H4.6192ZM0.640625 53.5508C1.21086 52.2592 2.01107 51.1506 3.52173 51.0069C4.81552 50.8837 6.12987 50.9826 7.60875 50.9826V47.7537C7.60688 45.3144 7.59566 42.875 7.61623 40.4356C7.62184 39.7693 7.5564 39.3325 6.73937 39.1198C5.74285 38.8622 5.12214 38.0615 5.08848 37.0014C5.03613 35.2601 5.01183 33.515 5.08661 31.7774C5.1427 30.4578 5.98591 29.6179 7.31522 29.4649C8.26312 29.3566 9.22972 29.3846 10.1888 29.3716C11.2265 29.3585 12.266 29.3697 13.4626 29.3697V27.843C13.4626 24.5749 13.5355 21.305 13.4457 18.0407C13.2924 12.4508 13.9524 11.8106 19.5894 11.9879C21.2795 12.0402 22.9715 11.9954 24.8094 11.9954C24.8094 9.17901 24.8056 6.4914 24.8112 3.80565C24.8112 3.28306 24.7982 2.75487 24.8711 2.24161C25.0319 1.09937 25.6731 0.405071 26.8809 0.438666C28.0962 0.474128 28.6926 1.23562 28.7749 2.36479C28.8534 3.44917 28.816 4.54101 28.8179 5.63099C28.8235 7.70829 28.8197 9.78746 28.8197 11.9954C31.3998 11.9954 33.8322 11.9935 36.2665 11.9973C39.1756 12.001 40.1778 13.0107 40.1796 15.9428C40.1834 19.9071 40.1815 23.8713 40.1815 27.8355V29.3697C41.9726 29.3697 43.6216 29.3548 45.2706 29.3734C47.7161 29.3996 48.5855 30.2693 48.6023 32.6826C48.6098 33.989 48.621 35.2955 48.593 36.602C48.5649 37.9141 47.9667 38.8081 46.6616 39.2355C46.3905 39.3232 46.054 39.7543 46.0503 40.0324C46.0091 43.5973 46.0222 47.1639 46.0222 50.8333H52.1359V49.3644C52.1359 39.6498 52.1341 29.9352 52.1359 20.2188C52.1378 17.2605 52.88 16.5214 55.8584 16.5214C66.4629 16.5177 77.0675 16.5177 87.6721 16.5214C90.6186 16.5214 91.4132 17.309 91.4151 20.2281C91.4188 24.6645 91.4151 29.1028 91.4151 33.7259H92.9014C96.9604 33.7259 101.019 33.7203 105.076 33.7296C107.767 33.7371 109.057 35.0436 109.061 37.7498C109.066 41.1467 109.063 44.5435 109.063 48.2745C109.35 47.722 109.493 47.442 109.638 47.1677C110.644 45.277 112.22 44.1908 114.357 44.1702C119.899 44.1161 125.442 44.1012 130.984 44.1684C133.979 44.2057 135.484 46.9157 134.153 49.7713C131.343 55.8054 128.486 61.8189 125.652 67.8436C122.872 73.7489 120.062 79.6393 117.338 85.5688C116.425 87.5528 115.047 88.4412 112.849 88.4375C79.2026 88.4114 45.5548 88.4226 11.907 88.4151C8.14907 88.4132 6.58793 85.888 8.19768 82.4799C8.99602 80.7871 9.72704 79.057 10.6319 77.4239C11.5013 75.858 11.2994 74.6411 10.1122 73.3029C6.16165 68.8459 3.28429 63.76 1.50066 58.0674C1.22021 57.1697 0.926679 56.2757 0.640625 55.3798V53.5508Z" fill="url(#paint0_linear_2059_668)"/>
<defs>
<linearGradient id="paint0_linear_2059_668" x1="67.6406" y1="0.4375" x2="67.6406" y2="88.4375" gradientUnits="userSpaceOnUse">
<stop stop-color="#630CFA"/>
<stop offset="1" stop-color="#4EAAB5"/>
</linearGradient>
</defs>
</svg>
