<svg width="92" height="90" viewBox="0 0 92 90" fill="none" xmlns="http://www.w3.org/2000/svg">
<g clip-path="url(#clip0_1782_4675)">
<path d="M12.0391 0V2.70005C10.4482 2.70005 8.95802 2.70005 7.46781 2.70005C4.23583 2.7024 2.69531 4.22176 2.69531 7.39926C2.69531 15.7322 2.74323 24.0652 2.66656 32.3982C2.6426 35.0912 4.44667 37.0292 7.38635 37.0175C27.9905 36.9492 48.5947 36.9822 69.1989 36.9822H70.4207V39.6422H9.3749C9.35573 40.0491 9.32938 40.3572 9.32938 40.6677C9.32698 47.3284 9.32458 53.9892 9.32938 60.6499C9.32938 63.397 10.925 64.9681 13.7042 64.9728C14.3822 64.9728 15.0602 64.9728 15.9275 64.9728C15.2806 64.152 14.7416 63.4723 14.1666 62.7432C14.8685 62.1905 15.5418 61.6613 16.2821 61.078C17.7148 62.8325 19.1259 64.5589 20.5706 66.3275C19.1379 68.0845 17.7411 69.7943 16.2917 71.5724C15.5705 71.0126 14.8997 70.4929 14.1594 69.919C14.7224 69.2134 15.2686 68.529 15.961 67.6611C14.9811 67.6611 14.1929 67.6799 13.4047 67.6588C10.0481 67.5647 7.50615 65.622 6.76583 62.5338C6.59813 61.8306 6.57896 61.0803 6.57656 60.3512C6.56219 53.8363 6.56938 47.3237 6.56938 40.8088C6.56938 40.4607 6.56938 40.115 6.56938 39.7222C6.08781 39.6469 5.67573 39.6117 5.28281 39.5152C2.72406 38.8873 1.05417 37.3185 0.227604 34.8725C0.165313 34.6867 0.0766667 34.5103 0.00239583 34.3292C0 24.705 0 15.0807 0 5.45654C0.0646875 5.29896 0.14375 5.14608 0.191667 4.9838C0.838542 2.8294 2.19698 1.30298 4.34365 0.477447C4.80365 0.301051 5.28042 0.157581 5.75 0C7.84635 0 9.94271 0 12.0391 0Z" fill="url(#paint0_linear_1782_4675)"/>
<path d="M92.0024 34.3292C91.9473 34.395 91.8658 34.4515 91.8443 34.5244C90.7733 37.9582 88.4925 39.6517 84.858 39.6681C81.2667 39.6822 77.6729 39.6705 74.0816 39.6705C73.8156 39.6705 73.5473 39.6705 73.2143 39.6705V36.9822C73.5329 36.9822 73.8492 36.9822 74.1654 36.9822C77.7879 36.9822 81.4104 36.9869 85.0305 36.9822C87.5941 36.9775 89.2999 35.3217 89.3023 32.7886C89.3143 24.1664 89.3143 15.5441 89.3023 6.91946C89.2999 4.45931 87.7091 2.84352 85.2126 2.7071C84.8844 2.68829 84.5538 2.70005 84.2255 2.70005C61.5058 2.70005 38.7837 2.70005 16.0641 2.70005C15.652 2.70005 15.2399 2.70005 14.7344 2.70005V0C38.5729 0 62.4115 0 86.25 0C86.4081 0.0611509 86.5591 0.145821 86.7244 0.183453C88.6243 0.623269 90.0953 1.65813 91.0704 3.30215C91.4681 3.9701 91.6957 4.73684 92.0024 5.45654V34.3292Z" fill="url(#paint1_linear_1782_4675)"/>
<path d="M66.1001 64.9774C68.0095 64.9774 69.919 64.9774 71.8285 64.9774C73.3858 64.9774 74.9431 65.0009 76.5004 64.968C78.5392 64.9257 80.2954 63.2487 80.3121 61.2519C80.3481 56.8514 80.3241 52.4509 80.3217 48.048C80.3217 47.9657 80.293 47.8857 80.2546 47.6811C79.5047 48.2456 78.8099 48.7701 78.0481 49.3463C77.4898 48.6689 76.9508 48.0151 76.3446 47.2813C78.1391 45.8725 79.8977 44.4919 81.7041 43.0736C83.4842 44.4683 85.2308 45.8372 87.0588 47.2695C86.4958 47.9657 85.9663 48.6219 85.3745 49.3581C84.6534 48.8053 83.9586 48.2715 83.0626 47.5847C83.0626 48.0621 83.0626 48.3561 83.0626 48.6525C83.0626 52.672 83.0793 56.6915 83.0578 60.711C83.0386 64.1871 81.0908 66.7108 77.8325 67.4775C77.1736 67.6328 76.4692 67.6516 75.7864 67.6563C72.8228 67.6751 69.8567 67.6563 66.8931 67.6751C66.6008 67.6751 66.3109 67.828 66.021 67.9103C66.1647 68.1784 66.2486 68.51 66.4618 68.7053C67.4848 69.6507 68.5342 70.5727 69.5956 71.4759C69.9549 71.7816 70.0819 72.038 69.8735 72.5107C68.9631 74.5781 68.079 76.6596 67.2237 78.7505C67.0225 79.2444 66.7613 79.3996 66.227 79.3573C64.8255 79.242 63.4191 79.1832 62.0152 79.1033C61.9265 79.0986 61.8355 79.0797 61.7468 79.0868C61.0568 79.1456 58.8598 81.6081 58.8934 82.2902C58.9581 83.6378 59.0108 84.9855 59.1042 86.3308C59.1402 86.8341 59.0084 87.1187 58.4933 87.3187C56.3586 88.1512 54.2383 89.0215 52.1228 89.8987C51.7035 90.0728 51.4399 90.0281 51.1309 89.6753C50.1941 88.6075 49.231 87.5609 48.2343 86.5496C47.9995 86.312 47.5922 86.1191 47.2592 86.1074C44.1973 86.0063 44.1973 86.018 42.1321 88.3018C41.0317 89.5185 39.7307 89.8227 38.2293 89.2143C36.684 88.5864 35.1555 87.9207 33.591 87.3422C32.9944 87.1211 32.8507 86.8153 32.8938 86.2391C32.9992 84.8938 33.0663 83.5461 33.0927 82.1984C33.0998 81.8927 32.9489 81.514 32.7405 81.2835C32.1463 80.625 31.5066 80.0017 30.8382 79.4161C30.625 79.2303 30.2656 79.1103 29.9781 79.1197C28.5717 79.1668 27.1678 79.242 25.7662 79.3573C25.2295 79.402 24.9732 79.242 24.7719 78.7481C23.9166 76.6572 23.035 74.5781 22.1221 72.5107C21.9137 72.0356 22.0479 71.7863 22.4072 71.4806C23.471 70.5774 24.5228 69.6602 25.5338 68.7029C25.7782 68.4724 25.8501 68.0632 25.9962 67.7339C26.0082 67.7104 25.9962 67.6751 25.9962 67.6469C26.025 65.6744 25.2727 64.0249 23.7393 62.6984C22.5063 61.6321 22.2028 60.3582 22.8289 58.8764C23.4566 57.39 24.1131 55.9153 24.7048 54.4148C24.9181 53.8762 25.172 53.6339 25.8021 53.6833C27.1726 53.7938 28.5502 53.855 29.9278 53.8644C30.2919 53.8644 30.7471 53.6951 31.0131 53.4481C33.2939 51.3219 33.2843 51.3125 33.0136 48.2197C32.8842 46.7411 33.5079 45.7235 34.8847 45.1669C36.5403 44.4942 38.2006 43.8333 39.8441 43.1348C40.3041 42.9396 40.5844 42.9913 40.9151 43.3723C41.8279 44.4213 42.7742 45.442 43.7397 46.444C43.941 46.6533 44.274 46.8438 44.5567 46.8579C45.5127 46.9097 46.4758 46.9144 47.4293 46.8579C47.736 46.8391 48.093 46.6227 48.3134 46.3946C49.2406 45.4373 50.1462 44.4589 51.0159 43.4499C51.3801 43.0289 51.6891 42.9207 52.2306 43.1512C54.3102 44.0356 56.4065 44.8846 58.5125 45.7125C58.9796 45.896 59.145 46.1288 59.1114 46.6204C59.0132 47.9939 58.9317 49.3722 58.915 50.7504C58.9102 51.1079 59.1378 51.4889 59.3246 51.8229C59.4492 52.044 59.7319 52.1781 59.8781 52.3944C60.8723 53.8668 62.2907 54.0808 63.9414 53.8503C64.9117 53.7139 66.1072 53.4246 66.8356 53.8315C67.504 54.2054 67.6957 55.4143 68.0694 56.2681C68.678 57.6675 69.2458 59.0834 69.8663 60.4781C70.0652 60.925 70.0125 61.1908 69.6195 61.5177C68.5917 62.3691 67.6214 63.2887 66.6104 64.1613C66.3923 64.3494 66.0977 64.4529 65.8389 64.594C65.93 64.7234 66.0186 64.8528 66.1096 64.9821L66.1001 64.9774ZM39.7123 46.11C38.5719 46.5757 37.4603 47.0673 36.3175 47.4812C35.8167 47.6623 35.7089 47.9351 35.7425 48.4008C35.8239 49.5415 35.903 50.6846 35.9078 51.8276C35.9078 52.1616 35.7472 52.5755 35.5125 52.8154C34.3792 53.9867 33.2172 55.1298 32.0169 56.2352C31.751 56.4798 31.2982 56.6397 30.9292 56.6397C29.7625 56.6397 28.5957 56.5621 27.4337 56.4774C26.9713 56.4445 26.7341 56.5856 26.5712 57.0184C26.231 57.9239 25.862 58.8223 25.4428 59.6949C25.2152 60.1653 25.2415 60.4616 25.668 60.8097C26.564 61.5412 27.4217 62.322 28.2722 63.1052C28.4735 63.2911 28.7107 63.5662 28.7155 63.8038C28.7466 65.6806 28.7227 67.5575 28.7155 69.4344C27.6901 70.3751 26.6814 71.33 25.632 72.245C25.2894 72.5437 25.1912 72.7906 25.3877 73.214C25.8189 74.1453 26.2214 75.0932 26.5904 76.0504C26.7557 76.4785 26.9905 76.6196 27.4505 76.5843C28.6148 76.4973 29.7816 76.4173 30.946 76.422C31.3389 76.422 31.8229 76.5937 32.108 76.8524C33.2676 77.9108 34.3888 79.0162 35.4741 80.1475C35.7257 80.4086 35.903 80.8484 35.903 81.2059C35.903 82.3772 35.7736 83.5485 35.7688 84.7197C35.7688 84.9785 36.0132 85.3642 36.2504 85.4747C37.1895 85.9169 38.1598 86.312 39.1469 86.6389C39.4225 86.7307 39.9088 86.6319 40.1125 86.4367C40.9222 85.6558 41.6242 84.7691 42.4388 83.993C42.7383 83.7084 43.227 83.485 43.6391 83.4708C45.2228 83.412 46.8136 83.4144 48.3996 83.4708C48.7878 83.485 49.2526 83.6919 49.5305 83.9601C50.3379 84.7409 51.0854 85.5853 51.8257 86.432C52.1515 86.8036 52.439 86.8788 52.9062 86.6672C53.7975 86.2603 54.7151 85.9004 55.6375 85.5641C56.0951 85.3971 56.2963 85.1784 56.2556 84.6703C56.1597 83.5014 56.0903 82.3278 56.0855 81.1565C56.0855 80.8249 56.2556 80.4157 56.4904 80.1758C57.602 79.0257 58.7424 77.9014 59.9212 76.8172C60.1847 76.5749 60.6352 76.4244 61.0065 76.4126C62.3769 76.3656 63.7521 76.3938 65.2376 76.3938C65.6401 75.4483 66.0833 74.3358 66.5888 73.2492C66.8044 72.7883 66.711 72.5225 66.3301 72.2073C65.4388 71.4688 64.5619 70.7091 63.7402 69.9001C63.4838 69.6484 63.2921 69.2156 63.2802 68.8581C63.2322 67.2753 63.2298 65.6901 63.2802 64.1072C63.2921 63.7567 63.5078 63.3334 63.7689 63.0817C64.6194 62.2562 65.5514 61.513 66.4067 60.6945C66.5816 60.5275 66.6966 60.1206 66.6152 59.9042C66.2534 58.9141 65.8437 57.938 65.3765 56.9902C65.2615 56.755 64.8686 56.508 64.6051 56.508C63.4095 56.5104 62.214 56.6327 61.0185 56.6421C60.6783 56.6421 60.2518 56.4915 60.0074 56.2634C58.8119 55.1533 57.6452 54.0126 56.5167 52.839C56.2652 52.5779 56.0879 52.1357 56.0879 51.7782C56.0879 50.6069 56.2172 49.4357 56.2196 48.2644C56.2196 48.0104 55.9537 47.6388 55.7093 47.5235C54.7702 47.0767 53.7807 46.738 52.8319 46.3076C52.3887 46.1053 52.1443 46.2229 51.852 46.5569C51.071 47.4459 50.2756 48.3255 49.4346 49.1581C49.1951 49.3957 48.783 49.5815 48.4452 49.5909C46.8304 49.6356 45.2108 49.6379 43.596 49.5909C43.2318 49.5791 42.791 49.3839 42.5346 49.1276C41.5715 48.168 40.6707 47.1472 39.7123 46.11Z" fill="url(#paint2_linear_1782_4675)"/>
<path d="M16.1489 19.8175C16.1489 16.3272 16.125 12.8369 16.1585 9.3466C16.1777 7.26276 17.4475 5.81396 19.5175 5.37179C20.6794 5.12483 21.6929 5.5082 22.6704 6.07032C28.1065 9.19607 33.5451 12.3218 38.9836 15.4452C39.4724 15.7275 39.9683 16.0003 40.4522 16.2919C43.4063 18.0677 43.3919 21.7061 40.3947 23.4395C34.4507 26.8781 28.497 30.2978 22.5338 33.7058C20.011 35.1476 17.1695 34.1668 16.3358 31.582C16.1777 31.0928 16.1561 30.5448 16.1537 30.025C16.1393 26.6217 16.1465 23.2208 16.1465 19.8175H16.1513H16.1489ZM20.4087 8.01539C19.4025 8.01069 18.8682 8.57515 18.8658 9.52299C18.8586 16.3837 18.8586 23.242 18.8658 30.1026C18.8658 31.535 19.884 32.1041 21.1538 31.3797C27.0883 27.9835 33.0156 24.5802 38.9381 21.1675C40.2534 20.4079 40.251 19.2836 38.9405 18.531C33.0419 15.1371 27.1386 11.7479 21.2329 8.36583C20.931 8.19179 20.586 8.09065 20.4087 8.01774V8.01539Z" fill="url(#paint3_linear_1782_4675)"/>
<path d="M65.3156 33.9152H62.6562V5.81641H65.3156V33.9152Z" fill="url(#paint4_linear_1782_4675)"/>
<path d="M57.2062 10.2476H59.9231V29.4983C59.142 29.4983 58.3706 29.5383 57.6111 29.4654C57.4554 29.4513 57.2301 29.0115 57.2254 28.7645C57.1918 26.9206 57.2062 25.0743 57.2062 23.228C57.2062 19.2438 57.2062 15.2596 57.2062 11.2754C57.2062 10.9602 57.2062 10.6427 57.2062 10.2476Z" fill="url(#paint5_linear_1782_4675)"/>
<path d="M67.9861 10.2451H70.6982V29.5006C69.9363 29.5006 69.1672 29.5359 68.4054 29.4724C68.2496 29.4606 68.022 29.0866 68.0053 28.8679C67.9549 28.1388 67.9861 27.405 67.9861 26.6712C67.9861 21.5745 67.9861 16.4778 67.9861 11.3788V10.2451Z" fill="url(#paint6_linear_1782_4675)"/>
<path d="M51.8828 24.3828V15.3772H54.5494V24.3828H51.8828Z" fill="url(#paint7_linear_1782_4675)"/>
<path d="M76.1208 15.3677V24.3592H73.4375V15.3677H76.1208Z" fill="url(#paint8_linear_1782_4675)"/>
<path d="M39.2616 52.3523C40.1768 52.4958 41.0153 52.6251 41.9425 52.7709C41.7269 54.1445 41.5256 55.431 41.3172 56.7716C46.3365 54.8501 50.6873 55.7344 54.2427 59.601C56.6529 62.2211 57.3908 65.3516 56.581 68.9077C55.6563 68.6961 54.8273 68.5055 53.96 68.308C54.5566 64.8835 53.5503 62.1082 50.7544 60.0361C48.7011 58.5121 45.8717 58.0511 43.6627 58.9143C44.7864 59.1095 45.7758 59.2812 46.8444 59.4646C46.7054 60.3419 46.5736 61.1627 46.4275 62.0941C43.5789 61.6378 40.7949 61.1933 37.8672 60.7253C38.332 57.9335 38.7896 55.1841 39.2592 52.3546L39.2616 52.3523Z" fill="url(#paint9_linear_1782_4675)"/>
<path d="M48.2 79.4067C48.6432 78.4589 49.0385 77.6145 49.4889 76.6479C44.5894 77.8921 40.5117 76.7396 37.3876 72.9412C35.3271 70.4364 34.6875 67.527 35.3559 64.2437C36.2328 64.4177 37.0641 64.5847 37.9841 64.7681C37.4283 68.6136 38.7436 71.61 42.2176 73.501C44.5463 74.7687 46.9805 74.8157 49.6111 73.6186C48.1041 72.9153 46.7481 72.285 45.3226 71.6217C45.7083 70.8103 46.0701 70.053 46.4726 69.2039C49.0984 70.4081 51.6787 71.5912 54.3524 72.8165C53.1186 75.399 51.9111 77.9273 50.6677 80.5357C49.8267 80.1499 49.0553 79.7995 48.1976 79.4067H48.2Z" fill="url(#paint10_linear_1782_4675)"/>
<path d="M26.2028 18.5569V21.1252H23.5938V18.5569H26.2028Z" fill="url(#paint11_linear_1782_4675)"/>
<path d="M31.5569 21.1442H28.9766V18.5547H31.5569V21.1442Z" fill="url(#paint12_linear_1782_4675)"/>
</g>
<defs>
<linearGradient id="paint0_linear_1782_4675" x1="35.2104" y1="0" x2="35.2104" y2="71.5724" gradientUnits="userSpaceOnUse">
<stop stop-color="#6407FD"/>
<stop offset="1" stop-color="#4DAFB2"/>
</linearGradient>
<linearGradient id="paint1_linear_1782_4675" x1="53.3684" y1="0" x2="53.3684" y2="39.6751" gradientUnits="userSpaceOnUse">
<stop stop-color="#6407FD"/>
<stop offset="1" stop-color="#4DAFB2"/>
</linearGradient>
<linearGradient id="paint2_linear_1782_4675" x1="54.5411" y1="43.0237" x2="54.5411" y2="89.9976" gradientUnits="userSpaceOnUse">
<stop stop-color="#6407FD"/>
<stop offset="1" stop-color="#4DAFB2"/>
</linearGradient>
<linearGradient id="paint3_linear_1782_4675" x1="29.398" y1="5.29541" x2="29.398" y2="34.3727" gradientUnits="userSpaceOnUse">
<stop stop-color="#6407FD"/>
<stop offset="1" stop-color="#4DAFB2"/>
</linearGradient>
<linearGradient id="paint4_linear_1782_4675" x1="63.9859" y1="5.81641" x2="63.9859" y2="33.9152" gradientUnits="userSpaceOnUse">
<stop stop-color="#6407FD"/>
<stop offset="1" stop-color="#4DAFB2"/>
</linearGradient>
<linearGradient id="paint5_linear_1782_4675" x1="58.5631" y1="10.2476" x2="58.5631" y2="29.5093" gradientUnits="userSpaceOnUse">
<stop stop-color="#6407FD"/>
<stop offset="1" stop-color="#4DAFB2"/>
</linearGradient>
<linearGradient id="paint6_linear_1782_4675" x1="69.3374" y1="10.2451" x2="69.3374" y2="29.5104" gradientUnits="userSpaceOnUse">
<stop stop-color="#6407FD"/>
<stop offset="1" stop-color="#4DAFB2"/>
</linearGradient>
<linearGradient id="paint7_linear_1782_4675" x1="53.2161" y1="15.3772" x2="53.2161" y2="24.3828" gradientUnits="userSpaceOnUse">
<stop stop-color="#6407FD"/>
<stop offset="1" stop-color="#4DAFB2"/>
</linearGradient>
<linearGradient id="paint8_linear_1782_4675" x1="74.7792" y1="15.3677" x2="74.7792" y2="24.3592" gradientUnits="userSpaceOnUse">
<stop stop-color="#6407FD"/>
<stop offset="1" stop-color="#4DAFB2"/>
</linearGradient>
<linearGradient id="paint9_linear_1782_4675" x1="47.3819" y1="52.3523" x2="47.3819" y2="68.9077" gradientUnits="userSpaceOnUse">
<stop stop-color="#6407FD"/>
<stop offset="1" stop-color="#4DAFB2"/>
</linearGradient>
<linearGradient id="paint10_linear_1782_4675" x1="44.727" y1="64.2437" x2="44.727" y2="80.5357" gradientUnits="userSpaceOnUse">
<stop stop-color="#6407FD"/>
<stop offset="1" stop-color="#4DAFB2"/>
</linearGradient>
<linearGradient id="paint11_linear_1782_4675" x1="24.8983" y1="18.5569" x2="24.8983" y2="21.1252" gradientUnits="userSpaceOnUse">
<stop stop-color="#6407FD"/>
<stop offset="1" stop-color="#4DAFB2"/>
</linearGradient>
<linearGradient id="paint12_linear_1782_4675" x1="30.2667" y1="18.5547" x2="30.2667" y2="21.1442" gradientUnits="userSpaceOnUse">
<stop stop-color="#6407FD"/>
<stop offset="1" stop-color="#4DAFB2"/>
</linearGradient>
<clipPath id="clip0_1782_4675">
<rect width="92" height="90" fill="white"/>
</clipPath>
</defs>
</svg>
