<svg width="98" height="91" viewBox="0 0 98 91" fill="none" xmlns="http://www.w3.org/2000/svg">
<path d="M26.3816 3.15997H7.60156C4.84013 3.15997 2.60156 5.39855 2.60156 8.15997V24.62" stroke="url(#paint0_linear_1782_4711)" stroke-width="4"/>
<path d="M3.75781 65.22L3.75781 84C3.75781 86.7614 5.99639 89 8.75781 89L25.2178 89" stroke="url(#paint1_linear_1782_4711)" stroke-width="4"/>
<path d="M94.2422 25.78L94.2422 6.99999C94.2422 4.23857 92.0036 2 89.2422 2L72.7822 2" stroke="url(#paint2_linear_1782_4711)" stroke-width="4"/>
<path d="M71.6184 87.8401L90.3984 87.8401C93.1599 87.8401 95.3984 85.6015 95.3984 82.8401L95.3984 66.3801" stroke="url(#paint3_linear_1782_4711)" stroke-width="4"/>
<path d="M41.6531 54.5779H29.7221L27.6721 60.3999H22.7931L33.0021 31.8639H38.4141L48.6231 60.3999H43.7031L41.6531 54.5779ZM40.3411 50.7649L35.7081 37.5219L31.0341 50.7649H40.3411ZM51.504 49.0019C51.504 46.7332 51.9686 44.7242 52.898 42.9749C53.8546 41.2256 55.1393 39.8726 56.752 38.9159C58.392 37.9319 60.196 37.4399 62.164 37.4399C63.9406 37.4399 65.485 37.7952 66.797 38.5059C68.1363 39.1892 69.2023 40.0502 69.995 41.0889V37.8089H74.71V60.3999H69.995V57.0379C69.2023 58.1039 68.1226 58.9922 66.756 59.7029C65.3893 60.4136 63.8313 60.7689 62.082 60.7689C60.1413 60.7689 58.3646 60.2769 56.752 59.2929C55.1393 58.2816 53.8546 56.8876 52.898 55.1109C51.9686 53.3069 51.504 51.2706 51.504 49.0019ZM69.995 49.0839C69.995 47.5259 69.667 46.1729 69.011 45.0249C68.3823 43.8769 67.5486 43.0022 66.51 42.4009C65.4713 41.7996 64.3506 41.4989 63.148 41.4989C61.9453 41.4989 60.8246 41.7996 59.786 42.4009C58.7473 42.9749 57.9 43.8359 57.244 44.9839C56.6153 46.1046 56.301 47.4439 56.301 49.0019C56.301 50.5599 56.6153 51.9266 57.244 53.1019C57.9 54.2772 58.7473 55.1792 59.786 55.8079C60.852 56.4092 61.9726 56.7099 63.148 56.7099C64.3506 56.7099 65.4713 56.4092 66.51 55.8079C67.5486 55.2066 68.3823 54.3319 69.011 53.1839C69.667 52.0086 69.995 50.6419 69.995 49.0839Z" fill="url(#paint4_linear_1782_4711)"/>
<defs>
<linearGradient id="paint0_linear_1782_4711" x1="14.4916" y1="3.15997" x2="14.4916" y2="24.62" gradientUnits="userSpaceOnUse">
<stop stop-color="#6306FC"/>
<stop offset="1" stop-color="#4DAFB2"/>
</linearGradient>
<linearGradient id="paint1_linear_1782_4711" x1="3.75781" y1="77.11" x2="25.2178" y2="77.11" gradientUnits="userSpaceOnUse">
<stop stop-color="#6306FC"/>
<stop offset="1" stop-color="#4DAFB2"/>
</linearGradient>
<linearGradient id="paint2_linear_1782_4711" x1="94.2422" y1="13.89" x2="72.7822" y2="13.89" gradientUnits="userSpaceOnUse">
<stop stop-color="#6306FC"/>
<stop offset="1" stop-color="#4DAFB2"/>
</linearGradient>
<linearGradient id="paint3_linear_1782_4711" x1="83.5084" y1="87.8401" x2="83.5084" y2="66.3801" gradientUnits="userSpaceOnUse">
<stop stop-color="#6306FC"/>
<stop offset="1" stop-color="#4DAFB2"/>
</linearGradient>
<linearGradient id="paint4_linear_1782_4711" x1="104.983" y1="67.5399" x2="41.9238" y2="13.7897" gradientUnits="userSpaceOnUse">
<stop stop-color="#6306FC"/>
<stop offset="1" stop-color="#4DAFB2"/>
</linearGradient>
</defs>
</svg>
