<svg width="680" height="505" viewBox="0 0 680 505" fill="none" xmlns="http://www.w3.org/2000/svg">
<g clip-path="url(#clip0_1404_325)">
<path d="M314.938 483.486V307.468C314.938 303.079 311.373 299.516 306.981 299.516C302.588 299.516 299.023 295.953 299.023 291.563V259.753C299.023 245.406 310.662 233.774 325.017 233.774C339.372 233.774 351.01 245.406 351.01 259.753V288.382C351.01 292.772 347.446 296.335 343.053 296.335H341.992C337.6 296.335 334.035 299.898 334.035 304.287V334.581C334.035 340.975 339.223 346.171 345.631 346.171H497.423" stroke="#312558" stroke-width="3" stroke-miterlimit="10"/>
<path d="M325.015 232.714C337.027 232.714 346.765 222.982 346.765 210.977C346.765 198.972 337.027 189.24 325.015 189.24C313.003 189.24 303.266 198.972 303.266 210.977C303.266 222.982 313.003 232.714 325.015 232.714Z" stroke="#312558" stroke-width="3" stroke-miterlimit="10"/>
<path d="M352.078 346.001H365.531C371.823 346.001 376.915 340.912 376.915 334.624V78.9639" stroke="#312558" stroke-width="3" stroke-miterlimit="10"/>
<path d="M496.889 353.063C500.405 353.063 503.255 350.215 503.255 346.701C503.255 343.187 500.405 340.339 496.889 340.339C493.373 340.339 490.523 343.187 490.523 346.701C490.523 350.215 493.373 353.063 496.889 353.063Z" fill="#312558" stroke="#312558" stroke-miterlimit="10"/>
<path d="M376.999 85.856C380.514 85.856 383.364 83.0076 383.364 79.4939C383.364 75.9802 380.514 73.1318 376.999 73.1318C373.483 73.1318 370.633 75.9802 370.633 79.4939C370.633 83.0076 373.483 85.856 376.999 85.856Z" fill="#312558" stroke="#312558" stroke-miterlimit="10"/>
<path d="M93.3988 402.062C96.1001 402.062 98.2898 399.873 98.2898 397.173C98.2898 394.474 96.1001 392.285 93.3988 392.285C90.6976 392.285 88.5078 394.474 88.5078 397.173C88.5078 399.873 90.6976 402.062 93.3988 402.062Z" fill="#312558" stroke="#312558" stroke-miterlimit="10"/>
<path d="M315.133 490.07C317.834 490.07 320.024 487.882 320.024 485.182C320.024 482.482 317.834 480.294 315.133 480.294C312.432 480.294 310.242 482.482 310.242 485.182C310.242 487.882 312.432 490.07 315.133 490.07Z" fill="#312558" stroke="#312558" stroke-miterlimit="10"/>
<path d="M495.162 223.627C491.746 223.627 488.977 220.86 488.977 217.445C488.977 214.031 491.746 211.264 495.162 211.264C498.578 211.264 501.347 214.031 501.347 217.445C501.347 220.86 498.578 223.627 495.162 223.627Z" fill="#312558" stroke="#312558" stroke-width="1.68" stroke-miterlimit="10"/>
<path d="M508.06 244.919H482.693C482.375 244.919 482.109 244.664 482.109 244.335V238.959C482.109 231.654 488.061 225.705 495.371 225.705C502.681 225.705 508.633 231.654 508.633 238.959V244.335C508.633 244.653 508.379 244.919 508.05 244.919H508.06Z" fill="#312558" stroke="#312558" stroke-width="1.68" stroke-miterlimit="10"/>
<path d="M495.126 259.424C478.501 259.424 464.984 245.915 464.984 229.299C464.984 212.684 478.501 199.175 495.126 199.175C511.751 199.175 525.268 212.684 525.268 229.299C525.268 245.915 511.751 259.424 495.126 259.424ZM495.126 200.055C478.989 200.055 465.865 213.171 465.865 229.299C465.865 245.427 478.989 258.544 495.126 258.544C511.263 258.544 524.387 245.427 524.387 229.299C524.387 213.171 511.263 200.055 495.126 200.055Z" stroke="#312558" stroke-width="1.68" stroke-miterlimit="10"/>
<path d="M648.998 382.678C645.582 382.678 642.812 379.911 642.812 376.496C642.812 373.082 645.582 370.314 648.998 370.314C652.414 370.314 655.183 373.082 655.183 376.496C655.183 379.911 652.414 382.678 648.998 382.678Z" fill="#312558" stroke="#312558" stroke-width="1.68" stroke-miterlimit="10"/>
<path d="M661.896 403.97H636.529C636.211 403.97 635.945 403.716 635.945 403.387V398.011C635.945 390.705 641.897 384.757 649.207 384.757C656.517 384.757 662.469 390.705 662.469 398.011V403.387C662.469 403.705 662.215 403.97 661.886 403.97H661.896Z" fill="#312558" stroke="#312558" stroke-width="1.68" stroke-miterlimit="10"/>
<path d="M648.97 418.475C632.345 418.475 618.828 404.967 618.828 388.351C618.828 371.735 632.345 358.227 648.97 358.227C665.595 358.227 679.112 371.735 679.112 388.351C679.112 404.967 665.595 418.475 648.97 418.475ZM648.97 359.107C632.833 359.107 619.709 372.223 619.709 388.351C619.709 404.479 632.833 417.595 648.97 417.595C665.107 417.595 678.231 404.479 678.231 388.351C678.231 372.223 665.107 359.107 648.97 359.107Z" stroke="#312558" stroke-width="1.68" stroke-miterlimit="10"/>
<path d="M514.256 25.3421C510.839 25.3421 508.07 22.5746 508.07 19.1603C508.07 15.746 510.839 12.9785 514.256 12.9785C517.672 12.9785 520.441 15.746 520.441 19.1603C520.441 22.5746 517.672 25.3421 514.256 25.3421Z" fill="#312558" stroke="#312558" stroke-width="1.68" stroke-miterlimit="10"/>
<path d="M527.162 46.6344H501.794C501.476 46.6344 501.211 46.3799 501.211 46.0512V40.6752C501.211 33.3694 507.163 27.4209 514.473 27.4209C521.783 27.4209 527.735 33.3694 527.735 40.6752V46.0512C527.735 46.3693 527.48 46.6344 527.151 46.6344H527.162Z" fill="#312558" stroke="#312558" stroke-width="1.68" stroke-miterlimit="10"/>
<path d="M514.228 61.1394C497.603 61.1394 484.086 47.6306 484.086 31.015C484.086 14.3994 497.613 0.890625 514.228 0.890625C530.842 0.890625 544.37 14.3994 544.37 31.015C544.37 47.6306 530.853 61.1394 514.228 61.1394ZM514.228 1.77071C498.091 1.77071 484.967 14.8872 484.967 31.015C484.967 47.1429 498.091 60.2594 514.228 60.2594C530.365 60.2594 543.489 47.1429 543.489 31.015C543.489 14.8872 530.365 1.77071 514.228 1.77071Z" stroke="#312558" stroke-width="1.68" stroke-miterlimit="10"/>
<path d="M566.368 86.142C563.896 86.142 561.891 84.1379 561.891 81.6779C561.891 79.2179 563.896 77.2139 566.368 77.2139C568.84 77.2139 570.834 79.2179 570.834 81.6779C570.834 84.1379 568.829 86.142 566.368 86.142Z" fill="#312558" stroke="#312558" stroke-width="1.21" stroke-miterlimit="10"/>
<path d="M575.706 102.609H557.362C557.128 102.609 556.938 102.418 556.938 102.185V98.2935C556.938 93.013 561.245 88.708 566.529 88.708C571.812 88.708 576.12 93.013 576.12 98.2935V102.185C576.12 102.418 575.929 102.609 575.695 102.609H575.706Z" fill="#312558" stroke="#312558" stroke-width="1.21" stroke-miterlimit="10"/>
<path d="M566.347 113.096C554.326 113.096 544.555 103.33 544.555 91.3166C544.555 79.3029 554.326 69.5371 566.347 69.5371C578.367 69.5371 588.139 79.3029 588.139 91.3166C588.139 103.33 578.367 113.096 566.347 113.096ZM566.347 70.1627C554.676 70.1627 545.191 79.6528 545.191 91.306C545.191 102.959 554.687 112.449 566.347 112.449C578.007 112.449 587.502 102.959 587.502 91.306C587.502 79.6528 578.007 70.1627 566.347 70.1627Z" stroke="#312558" stroke-width="1.21" stroke-miterlimit="10"/>
<path d="M583.344 289.729C580.872 289.729 578.867 287.725 578.867 285.265C578.867 282.805 580.872 280.801 583.344 280.801C585.816 280.801 587.811 282.805 587.811 285.265C587.811 287.725 585.806 289.729 583.344 289.729Z" fill="#312558" stroke="#312558" stroke-width="1.21" stroke-miterlimit="10"/>
<path d="M592.682 306.196H574.338C574.105 306.196 573.914 306.005 573.914 305.772V301.88C573.914 296.6 578.222 292.295 583.505 292.295C588.789 292.295 593.096 296.6 593.096 301.88V305.772C593.096 306.005 592.905 306.196 592.672 306.196H592.682Z" fill="#312558" stroke="#312558" stroke-width="1.21" stroke-miterlimit="10"/>
<path d="M583.323 316.683C571.303 316.683 561.531 306.917 561.531 294.904C561.531 282.89 571.303 273.124 583.323 273.124C595.344 273.124 605.115 282.89 605.115 294.904C605.115 306.917 595.344 316.683 583.323 316.683ZM583.323 273.75C571.653 273.75 562.168 283.24 562.168 294.893C562.168 306.546 571.663 316.036 583.323 316.036C594.983 316.036 604.479 306.546 604.479 294.893C604.479 283.24 594.983 273.75 583.323 273.75Z" stroke="#312558" stroke-width="1.21" stroke-miterlimit="10"/>
<path d="M450.727 426.513C448.255 426.513 446.25 424.509 446.25 422.049C446.25 419.589 448.255 417.585 450.727 417.585C453.199 417.585 455.194 419.589 455.194 422.049C455.194 424.509 453.189 426.513 450.727 426.513Z" fill="#312558" stroke="#312558" stroke-width="1.21" stroke-miterlimit="10"/>
<path d="M460.065 442.98H441.721C441.488 442.98 441.297 442.789 441.297 442.556V438.665C441.297 433.384 445.604 429.079 450.888 429.079C456.172 429.079 460.479 433.384 460.479 438.665V442.556C460.479 442.789 460.288 442.98 460.055 442.98H460.065Z" fill="#312558" stroke="#312558" stroke-width="1.21" stroke-miterlimit="10"/>
<path d="M450.706 453.467C438.685 453.467 428.914 443.701 428.914 431.688C428.914 419.674 438.685 409.908 450.706 409.908C462.727 409.908 472.498 419.674 472.498 431.688C472.498 443.701 462.727 453.467 450.706 453.467ZM450.706 410.534C439.036 410.534 429.551 420.024 429.551 431.677C429.551 443.33 439.046 452.82 450.706 452.82C462.366 452.82 471.862 443.33 471.862 431.677C471.862 420.024 462.366 410.534 450.706 410.534Z" stroke="#312558" stroke-width="1.21" stroke-miterlimit="10"/>
<path d="M494.501 199.419V168.871C494.501 165.096 493.036 162.032 491.222 162.032H377.891H558.954C562.911 162.032 566.115 158.829 566.115 154.874V113.542" stroke="#312558" stroke-width="2.58" stroke-linecap="round" stroke-linejoin="round"/>
<path d="M444.523 161.777V41.1311C444.523 36.3171 447.717 32.415 451.653 32.415H484.426" stroke="#312558" stroke-width="2.58" stroke-linecap="round" stroke-linejoin="round"/>
<path d="M370.898 345.747H441.611C446.513 345.747 450.481 349.713 450.481 354.612V409.368" stroke="#312558" stroke-width="2.58" stroke-linecap="round" stroke-linejoin="round"/>
<path d="M462.141 346.658V302.124C462.141 298.688 464.92 295.91 468.358 295.91H561.871" stroke="#312558" stroke-width="2.58" stroke-miterlimit="10"/>
<path d="M525.25 296.123V379.477C525.25 385.447 529.621 390.282 535 390.282H618.636" stroke="#312558" stroke-width="2.45" stroke-linecap="round" stroke-linejoin="round"/>
<path d="M184.842 274.524C188.258 274.524 191.027 271.756 191.027 268.342C191.027 264.928 188.258 262.16 184.842 262.16C181.425 262.16 178.656 264.928 178.656 268.342C178.656 271.756 181.425 274.524 184.842 274.524Z" fill="#312558" stroke="#312558" stroke-width="1.68" stroke-miterlimit="10"/>
<path d="M171.94 295.815H197.308C197.626 295.815 197.891 295.561 197.891 295.232V289.856C197.891 282.55 191.939 276.602 184.629 276.602C177.319 276.602 171.367 282.55 171.367 289.856V295.232C171.367 295.55 171.622 295.815 171.951 295.815H171.94Z" fill="#312558" stroke="#312558" stroke-width="1.68" stroke-miterlimit="10"/>
<path d="M184.861 310.321C201.486 310.321 215.002 296.812 215.002 280.197C215.002 263.581 201.486 250.072 184.861 250.072C168.235 250.072 154.719 263.581 154.719 280.197C154.719 296.812 168.235 310.321 184.861 310.321ZM184.861 250.952C200.998 250.952 214.122 264.069 214.122 280.197C214.122 296.325 200.998 309.441 184.861 309.441C168.723 309.441 155.599 296.325 155.599 280.197C155.599 264.069 168.723 250.952 184.861 250.952Z" stroke="#312558" stroke-width="1.68" stroke-miterlimit="10"/>
<path d="M30.9979 433.576C34.4142 433.576 37.1833 430.808 37.1833 427.394C37.1833 423.979 34.4142 421.212 30.9979 421.212C27.5816 421.212 24.8125 423.979 24.8125 427.394C24.8125 430.808 27.5816 433.576 30.9979 433.576Z" fill="#312558" stroke="#312558" stroke-width="1.68" stroke-miterlimit="10"/>
<path d="M18.0964 454.867H43.4639C43.7822 454.867 44.0474 454.612 44.0474 454.284V448.908C44.0474 441.602 38.0954 435.653 30.7854 435.653C23.4754 435.653 17.5234 441.602 17.5234 448.908V454.284C17.5234 454.602 17.7781 454.867 18.107 454.867H18.0964Z" fill="#312558" stroke="#312558" stroke-width="1.68" stroke-miterlimit="10"/>
<path d="M31.0218 469.373C47.6471 469.373 61.1637 455.864 61.1637 439.248C61.1637 422.633 47.6471 409.124 31.0218 409.124C14.3966 409.124 0.890625 422.633 0.890625 439.248C0.890625 455.864 14.4072 469.373 31.0325 469.373H31.0218ZM31.0218 410.004C47.159 410.004 60.2831 423.121 60.2831 439.248C60.2831 455.376 47.159 468.493 31.0218 468.493C14.8847 468.493 1.76061 455.376 1.76061 439.248C1.76061 423.121 14.8847 410.004 31.0218 410.004Z" stroke="#312558" stroke-width="1.68" stroke-miterlimit="10"/>
<path d="M49.147 201.36C52.6588 201.36 55.5127 198.592 55.5127 195.178C55.5127 191.764 52.6588 188.996 49.147 188.996C45.6352 188.996 42.7812 191.764 42.7812 195.178C42.7812 198.592 45.6352 201.36 49.147 201.36Z" fill="#312558" stroke="#312558" stroke-width="1.7" stroke-miterlimit="10"/>
<path d="M35.8469 222.651H61.9677C62.2966 222.651 62.5725 222.396 62.5725 222.068V216.692C62.5725 209.386 56.4401 203.438 48.9073 203.438C41.3745 203.438 35.2422 209.386 35.2422 216.692V222.068C35.2422 222.386 35.5074 222.651 35.8469 222.651Z" fill="#312558" stroke="#312558" stroke-width="1.7" stroke-miterlimit="10"/>
<path d="M49.1686 237.157C66.2925 237.157 80.2123 223.648 80.2123 207.033C80.2123 190.417 66.2819 176.908 49.1686 176.908C32.0554 176.908 18.125 190.417 18.125 207.033C18.125 223.648 32.0554 237.157 49.1686 237.157ZM49.1686 177.788C65.7832 177.788 79.3105 190.905 79.3105 207.033C79.3105 223.16 65.7939 236.277 49.1686 236.277C32.5434 236.277 19.0374 223.16 19.0374 207.033C19.0374 190.905 32.554 177.788 49.1686 177.788Z" stroke="#312558" stroke-width="1.7" stroke-miterlimit="10"/>
<path d="M165.74 76.2386C169.156 76.2386 171.925 73.4711 171.925 70.0568C171.925 66.6425 169.156 63.875 165.74 63.875C162.324 63.875 159.555 66.6425 159.555 70.0568C159.555 73.4711 162.324 76.2386 165.74 76.2386Z" fill="#312558" stroke="#312558" stroke-width="1.68" stroke-miterlimit="10"/>
<path d="M152.839 97.5308H178.206C178.524 97.5308 178.79 97.2764 178.79 96.9476V91.5717C178.79 84.2659 172.838 78.3174 165.528 78.3174C158.218 78.3174 152.266 84.2659 152.266 91.5717V96.9476C152.266 97.2658 152.52 97.5308 152.849 97.5308H152.839Z" fill="#312558" stroke="#312558" stroke-width="1.68" stroke-miterlimit="10"/>
<path d="M165.767 112.036C182.392 112.036 195.909 98.5271 195.909 81.9115C195.909 65.2959 182.392 51.7871 165.767 51.7871C149.142 51.7871 135.625 65.2959 135.625 81.9115C135.625 98.5271 149.142 112.036 165.767 112.036ZM165.767 52.6672C181.904 52.6672 195.028 65.7837 195.028 81.9115C195.028 98.0394 181.904 111.156 165.767 111.156C149.63 111.156 136.506 98.0394 136.506 81.9115C136.506 65.7837 149.63 52.6672 165.767 52.6672Z" stroke="#312558" stroke-width="1.68" stroke-miterlimit="10"/>
<path d="M113.615 137.039C116.087 137.039 118.092 135.035 118.092 132.575C118.092 130.115 116.087 128.111 113.615 128.111C111.143 128.111 109.148 130.115 109.148 132.575C109.148 135.035 111.154 137.039 113.615 137.039Z" fill="#312558" stroke="#312558" stroke-width="1.21" stroke-miterlimit="10"/>
<path d="M104.289 153.507H122.633C122.866 153.507 123.057 153.316 123.057 153.082V149.191C123.057 143.91 118.75 139.605 113.466 139.605C108.182 139.605 103.875 143.91 103.875 149.191V153.082C103.875 153.316 104.066 153.507 104.299 153.507H104.289Z" fill="#312558" stroke="#312558" stroke-width="1.21" stroke-miterlimit="10"/>
<path d="M113.636 163.993C125.656 163.993 135.428 154.227 135.428 142.213C135.428 130.199 125.656 120.434 113.636 120.434C101.615 120.434 91.8438 130.199 91.8438 142.213C91.8438 154.227 101.615 163.993 113.636 163.993ZM113.636 121.059C125.306 121.059 134.791 130.549 134.791 142.202C134.791 153.856 125.296 163.346 113.636 163.346C101.976 163.346 92.4803 153.856 92.4803 142.202C92.4803 130.549 101.976 121.059 113.636 121.059Z" stroke="#312558" stroke-width="1.21" stroke-miterlimit="10"/>
<path d="M96.6463 340.625C99.1184 340.625 101.124 338.621 101.124 336.161C101.124 333.701 99.1184 331.697 96.6463 331.697C94.1743 331.697 92.1797 333.701 92.1797 336.161C92.1797 338.621 94.1849 340.625 96.6463 340.625Z" fill="#312558" stroke="#312558" stroke-width="1.21" stroke-miterlimit="10"/>
<path d="M87.32 357.093H105.664C105.897 357.093 106.088 356.902 106.088 356.668V352.777C106.088 347.496 101.781 343.191 96.4973 343.191C91.2137 343.191 86.9062 347.496 86.9062 352.777V356.668C86.9062 356.902 87.0972 357.093 87.3306 357.093H87.32Z" fill="#312558" stroke="#312558" stroke-width="1.21" stroke-miterlimit="10"/>
<path d="M96.6671 367.58C108.688 367.58 118.459 357.814 118.459 345.8C118.459 333.786 108.688 324.021 96.6671 324.021C84.6464 324.021 74.875 333.786 74.875 345.8C74.875 357.814 84.6464 367.58 96.6671 367.58ZM96.6671 324.646C108.338 324.646 117.823 334.136 117.823 345.789C117.823 357.443 108.327 366.933 96.6671 366.933C85.0072 366.933 75.5116 357.443 75.5116 345.789C75.5116 334.136 85.0072 324.646 96.6671 324.646Z" stroke="#312558" stroke-width="1.21" stroke-miterlimit="10"/>
<path d="M229.264 477.41C231.736 477.41 233.741 475.405 233.741 472.945C233.741 470.485 231.736 468.481 229.264 468.481C226.791 468.481 224.797 470.485 224.797 472.945C224.797 475.405 226.802 477.41 229.264 477.41Z" fill="#312558" stroke="#312558" stroke-width="1.21" stroke-miterlimit="10"/>
<path d="M219.937 493.877H238.281C238.515 493.877 238.706 493.686 238.706 493.453V489.561C238.706 484.281 234.398 479.976 229.114 479.976C223.831 479.976 219.523 484.281 219.523 489.561V493.453C219.523 493.686 219.714 493.877 219.948 493.877H219.937Z" fill="#312558" stroke="#312558" stroke-width="1.21" stroke-miterlimit="10"/>
<path d="M229.284 504.364C241.305 504.364 251.076 494.598 251.076 482.584C251.076 470.57 241.305 460.805 229.284 460.805C217.264 460.805 207.492 470.57 207.492 482.584C207.492 494.598 217.264 504.364 229.284 504.364ZM229.284 461.43C240.955 461.43 250.44 470.92 250.44 482.574C250.44 494.227 240.944 503.717 229.284 503.717C217.624 503.717 208.129 494.227 208.129 482.574C208.129 470.92 217.624 461.43 229.284 461.43Z" stroke="#312558" stroke-width="1.21" stroke-miterlimit="10"/>
<path d="M185.498 250.316V219.767C185.498 215.992 186.962 212.928 188.776 212.928H302.107H121.044C117.087 212.928 113.883 209.726 113.883 205.771V164.438" stroke="#312558" stroke-width="2.58" stroke-linecap="round" stroke-linejoin="round"/>
<path d="M235.473 212.674V92.0276C235.473 87.2136 232.279 83.3115 228.343 83.3115H195.57" stroke="#312558" stroke-width="2.58" stroke-linecap="round" stroke-linejoin="round"/>
<path d="M229.519 460.264V405.508C229.519 400.609 233.795 396.644 239.068 396.644H315.202H93.9922" stroke="#312558" stroke-width="2.67" stroke-linecap="round" stroke-linejoin="round"/>
<path d="M217.855 397.555V353.02C217.855 349.585 215.075 346.807 211.638 346.807H118.125" stroke="#312558" stroke-width="2.58" stroke-miterlimit="10"/>
<path d="M154.753 347.02V430.373C154.753 436.343 150.382 441.178 145.003 441.178H61.3672" stroke="#312558" stroke-width="2.45" stroke-linecap="round" stroke-linejoin="round"/>
<path d="M154.992 282.317H47.8984V237.062" stroke="#312558" stroke-width="2.79" stroke-linecap="round" stroke-linejoin="round"/>
</g>
<defs>
<clipPath id="clip0_1404_325">
<rect width="680" height="505" fill="white"/>
</clipPath>
</defs>
</svg>
