<?xml version="1.0" encoding="UTF-8"?><svg id="Capa_1" xmlns="http://www.w3.org/2000/svg" viewBox="0 0 284.43 60"><path d="M181.5,7.43c-7.87-4.84-19.25.48-19.99,9.47-.18,2.16-.6,3.43-2.94,3.72-.91.1-1.99.51-1.66,1.77.3,1.18,1.43.68,2.12.61,1.86-.2,2.38.47,2.35,2.3-.1,7.43-.04,14.85-.08,22.28-.01,3.1-.87,3.97-3.68,3.9-2.81-.05-3.6-.95-3.54-4.08.14-6.22.29-12.43-.04-18.64-.17-3.02-1.42-5.49-4.21-6.74-6.07-2.7-12.21-2.72-18.1.59-2.55,1.43-3.81,4.68-2.98,6.88.79,2.08,3.34,2.99,6.59,2.43,1.33-.22,2.02-.7,1.69-2.2-.34-1.55-.33-3.16.09-4.69.38-1.42,1.18-2.51,2.9-2.59,1.72-.07,3.23.17,3.89,2.02,1.01,2.81.43,5.71.44,8.56,0,.9-1.07.87-1.74,1.12-3.08,1.12-6.19,2.18-9.23,3.39-5.38,2.12-7.13,5.05-6.58,10.25.34,3.32,3.03,4.6,5.12,6.46h5.66c2.29-1.47,5.06-2.26,6.75-5.11,1.18,2.56,2.94,4.07,5.14,5.11h10.18c1.31-1.08,2.86-.49,4.3-.53,4.02-.08,8.06-.03,12.09-.03.59-1.38-.2-1.96-1.4-1.99-2.95-.08-3.42-1.86-3.41-4.27.03-6.31-.08-12.63-.1-18.93q-.01-5.34,5.29-5.45c1.07-.03,2.37.38,2.3-1.5-.05-1.64-1.2-1.35-2.18-1.38q-5.67-.22-5.4-5.77c.03-.46.03-.92.13-1.38.39-1.89-.09-4.71,2.86-4.58,3.13.14,2.37,2.97,2.52,4.99.05.66-.47,1.43.65,1.82,1.81.64,5.11-.23,5.87-1.66,1.04-1.98.22-4.98-1.68-6.15ZM141.99,48.67c-2.42.31-4.46.07-5.45-2.6-1.74-4.68,1.53-9.35,6.83-9.74,1.05-.08,1.05.39,1.05,1.08v4.98h.04c0,.83-.07,1.66.01,2.48.18,1.94-.09,3.5-2.48,3.8Z" style="fill:#222220; stroke-width:0px;"/><path d="M45.86,15.39c-1.16-4.37-6.65-8.41-12.15-9.08-8.73-1.08-17.5-.2-26.24-.55v2.22c4.8,1.5,4.88,1.5,4.92,6.59.08,10.43.1,20.86.07,31.3-.01,4.55-.68,5.19-4.98,5.57v2.22c7.74,0,15.46.01,23.2.01.57-1.69-.09-2.18-1.85-2.37-4.82-.51-5.72-1.57-5.76-6.41-.03-2.6.17-5.19.25-7.78q.1-3.97,4.27-3.98c1.31,0,2.64.03,3.95-.08,3.21-.27,6.35-.95,9.06-2.73,4.99-3.26,6.89-8.8,5.27-14.96ZM34.64,24.65c-1.48,3.86-6.26,6.42-10.29,5.63-1.31-.25-1.07-1.05-1.07-1.83-.03-3.06-.01-6.11-.01-9.17h.03c0-3.06.05-6.11-.01-9.17-.03-1.18.31-1.53,1.57-1.6,5.81-.23,10.2,3.54,10.46,9.27.12,2.3.2,4.63-.68,6.87Z" style="fill:#222220; stroke-width:0px;"/><path d="M78.44,31.18c-1.74-6.2-7.14-10.48-13.17-10.94-8.49-.62-13.97,2.18-17.23,8.87-4.58,9.36-1.26,19.94,7.41,23.8.98.44,2.3.17,2.94,1.33h2.84c.94-.82,1.89-.82,2.82,0h1.13c.09-.14.18-.4.29-.42,10.22-1.07,15.83-12.5,12.98-22.64ZM67.85,46.43c-.94,4.33-3.49,6.16-6.49,5.06-2.28-.85-3.02-2.91-3.58-4.97-.92-3.41-1.3-6.91-1.25-10.44.01-3.42.05-6.85,1.39-10.09.82-1.98,2.04-3.63,4.51-3.52,2.37.12,3.72,1.64,4.4,3.71,2.2,6.66,2.48,13.45,1.01,20.26Z" style="fill:#222220; stroke-width:0px;"/><path d="M202.33,22.96c-10.96-7.05-23.95-1.29-26.17,11.41-1.4,8.06,1.89,15.01,8.54,18.3,1.24.61,2.84.35,3.78,1.57h6.79c.18-.18.33-.48.53-.52,7.71-1.65,11.69-6.8,12.84-14.06,1.03-6.57-.21-12.77-6.32-16.7ZM197.9,45.32c-.03.18-.12.35-.16.53-.94,4.08-2.63,6.09-5.15,6.03-2.2-.04-4.36-2.35-5.18-5.9-.79-3.43-1.22-6.93-1.18-9.48,0-3.77.18-6.54,1.01-9.23.73-2.39,1.65-4.68,4.68-4.8,3.19-.12,4.42,2.24,5.1,4.68,1.66,5.97,2,12.04.87,18.17Z" style="fill:#222220; stroke-width:0px;"/><path d="M275.94,29.3c-2.97-6.79-8.67-9.45-15.93-9.14-6.39.29-11.28,3.2-13.77,8.99-2.9,6.75-2.98,13.49,1.82,19.7,2.29,2.95,5.8,3.81,8.9,5.38h2.26c1.13-.85,2.26-.83,3.39,0h1.13c.17-.18.33-.48.52-.52,11.68-2.13,15.57-15.45,11.68-24.41ZM266.83,41.55c-.13,2.31-.48,4.59-1.38,6.78-.79,1.95-1.99,3.47-4.25,3.46-2.31-.03-3.85-1.44-4.6-3.51-1.46-3.95-1.98-8.08-1.91-13.25.12-2.44.07-5.89,1.46-9.12.79-1.83,1.81-3.47,4.24-3.47s3.82,1.61,4.56,3.54c1.91,5.02,2.21,10.29,1.89,15.58Z" style="fill:#222220; stroke-width:0px;"/><path d="M115.52,54.23c-5.37-2.05-6.82-6.19-6.68-11.46.17-5.93-.03-11.87,0-17.81,0-1.27-.09-2.21-1.77-1.94-.41.07-.99.18-1.2-.39-.21-.57-.09-1.21.4-1.5,3.98-2.36,7.52-5.18,10.39-8.84.71-.9,2.11-.8,2.09,1.03-.02,1.48.2,2.99,0,4.45-.29,2.09.63,2.61,2.51,2.41,1.02-.11,2.07.03,3.11-.03,1.1-.07,1.48.35,1.46,1.43-.01,1.01-.2,1.64-1.39,1.47-.09-.01-.19,0-.28,0-5.36.31-5.38.31-5.4,5.66-.02,5.19-.04,10.39.08,15.58.08,3.56.92,4.36,4.57,4.39,1.32.01,1.94.61,2.32,1.57.43,1.08-.66,1.29-1.25,1.82-1.43,1.29-3.47,1.13-5,2.16h-3.96Z" style="fill:#222220; stroke-width:0px;"/><path d="M243.68,53.53c.08.23.17.47.25.7h-34.51c.06-.22.11-.45.17-.67,11.36-.01,22.73-.02,34.09-.03Z" style="fill:#222220; stroke-width:0px;"/><path d="M7.47,53.68c7.73,0,15.47,0,23.2,0,.04.18.04.37,0,.55-7.26,0-14.52.02-21.78-.04-.42,0-1.37.72-1.41-.52Z" style="fill:#222220; stroke-width:0px;"/><path d="M79.88,54.23c.02-.2.03-.4.05-.6,6.13-.03,12.25-.06,18.38-.09.08.23.16.46.23.69h-18.67Z" style="fill:#222220; stroke-width:0px;"/><path d="M159.64,54.23c1.32-1.08,2.87-.5,4.31-.53,4.03-.09,8.06-.03,12.09-.03,0,.19,0,.37,0,.56h-16.41Z" style="fill:#222220; stroke-width:0px;"/><path d="M259.21,54.23c1.13-.85,2.26-.84,3.39,0h-3.39Z" style="fill:#222220; stroke-width:0px;"/><path d="M61.21,54.23c.94-.82,1.89-.82,2.83,0h-2.83Z" style="fill:#222220; stroke-width:0px;"/><path d="M243.68,53.53c-11.36.01-22.73.02-34.09.03-.12-.86-.25-1.63,1.07-1.76,2.09-.19,2.68-1.45,2.67-3.46-.06-11.4-.02-22.81.04-34.21,0-1.44-.15-2.48-1.79-2.94-.85-.24-1.91-.7-1.75-1.87.14-1.06,1.25-1,2.02-1.19,2.91-.73,5.86-1.31,8.76-2.1,1.8-.49,2.48-.22,2.47,1.83-.09,13.35-.06,26.7-.08,40.05,0,3.4,1.67,4.66,5,3.78,1.58-.42,2.39-1.25,2.37-2.94-.05-6.58-.13-13.17,0-19.75.04-1.88-1.05-2.61-2.35-3.35-.68-.39-1.39-.79-1.25-1.64.12-.72.92-.84,1.52-1.01,3.06-.9,6.12-1.77,9.18-2.64,1.78-.51,2.7-.27,2.65,1.99-.17,8.16-.1,16.32-.17,24.47-.02,2.38-.31,4.79,3.14,5.13.95.09.64.95.59,1.57Z" style="fill:#222220; stroke-width:0px;"/><path d="M98.31,53.54c-6.13.03-12.25.06-18.38.09-.2-.99-.26-1.84,1.18-1.9,2.19-.08,2.45-1.57,2.43-3.3-.06-6.59-.16-13.18-.07-19.76.02-1.69-1.06-2.18-2.1-2.94-.57-.42-1.53-.56-1.43-1.53.12-1.12,1.19-1.03,1.93-1.26,2.96-.91,5.92-1.81,8.92-2.61,1.78-.48,3.09-.33,2.73,2.17-.26,1.81-.05,3.69-.05,6.06,1.06-2.01,1.85-3.62,2.73-5.17,1.01-1.77,2.39-3.07,4.61-3.21,2.72-.18,3.81.76,3.86,3.42.01.65-.07,1.31.02,1.95.29,2.11-.3,2.99-2.69,2.48-3.02-.65-5.47.83-7.75,2.6-.55.43-.83.94-.84,1.66-.06,5.1-.11,10.2-.24,15.3-.06,2.44.9,3.87,3.47,4.08,1.14.09,2.07.44,1.67,1.89Z" style="fill:#222220; stroke-width:0px;"/><path d="M229.7,12.19c.03-2.97,2.08-4.9,5.23-4.92,3.36-.02,5.68,2.12,5.62,5.19-.06,3.14-2.31,5.14-5.72,5.09-3.08-.04-5.15-2.22-5.12-5.36Z" style="fill:#222220; stroke-width:0px;"/></svg>