<svg width="246" height="298" viewBox="0 0 246 298" fill="none" xmlns="http://www.w3.org/2000/svg">
<path d="M51.4579 60.8304C39.862 60.8304 30.4877 51.4638 30.4877 39.8214C30.4877 28.2255 39.862 18.8589 51.4579 18.8589C63.0926 18.8589 72.4669 28.2255 72.4669 39.8214C72.4669 51.4638 63.0926 60.8304 51.4579 60.8304ZM51.4579 9.86389C34.6136 9.86389 21.1211 23.3564 21.1211 40.193C21.1211 57.076 34.6136 70.5685 51.4579 70.5685C68.3332 70.5685 81.8335 57.076 81.8335 40.193C81.8335 23.3564 68.3332 9.86389 51.4579 9.86389Z" fill="url(#paint0_linear_1820_186)"/>
<path d="M215.624 215.634C205.035 215.634 196.295 207.793 194.886 197.567C194.956 197.342 194.995 197.118 195.034 196.901C195.034 196.336 194.917 195.779 194.701 195.26C194.662 195.036 194.662 194.85 194.662 194.633C194.662 183.029 204.029 173.663 215.624 173.663C227.267 173.663 236.633 183.029 236.633 194.633C236.633 206.268 227.267 215.634 215.624 215.634ZM61.9741 285.233C49.5189 264.596 8.21316 194.741 8.21316 161.951C8.55376 132.434 32.4579 108.492 61.6413 108.492C70.2647 108.492 78.5166 110.497 85.9556 114.328C88.8508 115.815 91.6452 117.603 94.2462 119.685C94.8036 120.498 95.5854 121.171 96.5143 121.543C96.6614 121.69 96.7698 121.798 96.9246 121.945C97.8844 122.766 98.8211 123.656 99.7113 124.585C109.527 134.741 114.767 147.862 114.767 161.951C114.651 169.723 111.942 180.281 107.7 192.024C106.547 195.19 105.324 198.457 103.984 201.77C91.0879 233.818 70.1563 271.106 61.9741 285.233ZM215.624 164.296C199.678 164.296 186.704 176.411 185.404 192.024H116.254C120.341 180.351 122.911 169.723 122.981 161.618C122.981 146.856 117.926 132.914 108.521 121.915H178.15C189.793 121.915 201.017 117.409 209.641 108.414C218.264 100.201 222.769 88.938 222.769 76.9628C222.769 52.2072 202.504 32.3516 178.15 32.3516H109.651L136.922 8.35462C138.795 6.4813 139.175 3.48555 137.301 1.6045C135.428 -0.268816 132.425 -0.640382 130.551 1.23293L94.3855 33.056C93.7895 33.3347 93.2089 33.7063 92.6903 34.2172C91.8001 35.2932 91.4285 36.4543 91.4827 37.569C91.4749 37.6077 91.4827 37.6309 91.4749 37.6619C91.4827 37.6929 91.4749 37.7238 91.4827 37.7548C91.4285 38.9159 91.8001 40.0693 92.6903 40.9673C93.116 41.5943 93.774 41.9736 94.4707 42.1981L130.551 73.9515C131.302 74.7024 132.425 75.074 133.547 75.074C134.677 75.074 136.171 74.7024 137.301 73.5722C139.175 71.3273 138.795 68.7031 136.922 66.8298L108.815 42.0897H177.779C197.263 42.0897 213.023 57.8194 213.023 77.3343C213.023 86.7009 209.641 95.3321 202.875 102.059C196.52 108.414 187.525 112.169 178.15 112.169H98.1863C87.589 104.288 74.8783 99.9766 61.3471 99.9766C44.944 99.9766 29.5163 106.518 18.0287 118.005C6.57982 129.834 0 145.223 0 161.618C0 202.622 56.4006 291.473 58.7074 295.08C59.706 296.38 61.0065 297.054 62.307 297.054C63.6075 297.054 64.9467 296.38 65.5814 294.747C67.2535 291.883 96.584 242.852 112.646 201.77H186.147C189.305 215.154 201.242 225.001 215.624 225.001C232.508 225.001 246 211.508 246 194.633C246 177.789 232.508 164.296 215.624 164.296Z" fill="url(#paint1_linear_1820_186)"/>
<path d="M81.8298 187.751C78.8882 190.058 75.5441 191.877 71.8981 193.069C68.6702 194.145 65.2099 194.741 61.6414 194.741C43.6127 194.741 28.8507 179.979 28.8507 161.951C28.8507 143.922 43.6127 129.16 61.6414 129.16C62.2761 129.16 62.9031 129.16 63.5379 129.237C67.2536 129.423 70.7834 130.275 74.0579 131.614C85.9944 136.521 94.4321 148.303 94.4321 161.951C94.4321 172.401 89.4856 181.729 81.8298 187.751ZM81.5279 126.149C78.2612 124.291 74.6926 122.913 70.8996 122.061C67.927 121.357 64.8384 120.985 61.6414 120.985C39.0378 120.985 20.6685 139.308 20.6685 161.951C20.6685 184.593 39.0378 202.923 61.6414 202.923C68.554 202.923 75.0951 201.213 80.8235 198.163C84.392 196.266 87.6665 193.89 90.4919 191.064C98.0007 183.664 102.645 173.368 102.645 161.951C102.645 146.523 94.1379 133.1 81.5279 126.149Z" fill="url(#paint2_linear_1820_186)"/>
<path d="M82.3059 161.949H65.9106V141.28C65.9106 139.012 63.9444 137.038 61.6376 137.038C59.3695 137.038 57.3955 139.012 57.3955 141.28V165.889C57.3955 168.196 59.3695 170.131 61.6376 170.131H82.3059C84.2799 170.131 86.2461 168.196 86.5867 166.222C86.5867 163.923 84.6127 161.949 82.3059 161.949Z" fill="url(#paint3_linear_1820_186)"/>
<defs>
<linearGradient id="paint0_linear_1820_186" x1="51.4773" y1="9.86389" x2="51.4773" y2="70.5685" gradientUnits="userSpaceOnUse">
<stop stop-color="#630DFA"/>
<stop offset="1" stop-color="#4FA6B7"/>
</linearGradient>
<linearGradient id="paint1_linear_1820_186" x1="123" y1="0" x2="123" y2="297.054" gradientUnits="userSpaceOnUse">
<stop stop-color="#630DFA"/>
<stop offset="1" stop-color="#4FA6B7"/>
</linearGradient>
<linearGradient id="paint2_linear_1820_186" x1="61.6568" y1="120.985" x2="61.6568" y2="202.923" gradientUnits="userSpaceOnUse">
<stop stop-color="#630DFA"/>
<stop offset="1" stop-color="#4FA6B7"/>
</linearGradient>
<linearGradient id="paint3_linear_1820_186" x1="71.9911" y1="137.038" x2="71.9911" y2="170.131" gradientUnits="userSpaceOnUse">
<stop stop-color="#630DFA"/>
<stop offset="1" stop-color="#4FA6B7"/>
</linearGradient>
</defs>
</svg>
