<?xml version="1.0" encoding="UTF-8"?><svg id="Capa_1" xmlns="http://www.w3.org/2000/svg" viewBox="0 0 600 600"><rect x="517.58" y="418.65" width="6.71" height="19.92" style="fill:#f2f2f2; stroke-width:0px;"/><path d="M558.29,433.97h-74.7c-5.55,0-10.06-4.5-10.06-10.06h0c0-5.55,4.5-10.06,10.06-10.06h74.7c5.55,0,10.06,4.5,10.06,10.06h0c0,5.55-4.5,10.06-10.06,10.06Z" style="fill:#f2f2f2; stroke-width:0px;"/><path d="M564.03,433.97h0c4.5,0,8.14-3.64,8.14-8.14v-96.73c0-4.5-3.64-8.14-8.14-8.14h0c-4.5,0-8.14,3.64-8.14,8.14-24.72,18.92-14.67,56.58,0,96.73,0,4.5,3.64,8.14,8.14,8.14h0Z" style="fill:#f2f2f2; stroke-width:0px;"/><path d="M554.05,391.45c-1.11,4.95-3.19,8.86-5.8,11.94-5.32,6.3-12.87,9.16-18.82,10.46-5.35,1.17-9.4,1.07-9.4,1.07l-25.13,2.07-19.86,1.64-19.96,1.65c1.14,4.78,2.22,10.28,3.25,16.15.12.7.24,1.41.37,2.13h-40.53l-.68-2.13-4.17-12.91-8.45-18.46c-1.54-3.01-2.32-6.29-2.32-9.6,0-2.2.35-4.39,1.04-6.51.01-.03.01-.06.02-.1,1.63-4.91,5.64-8.67,10.62-10.17l6-1.82c17.02-3.97,40.88-10.17,59.08-14.97,15.2-4.02,26.43-7.08,26.43-7.08l.03-.21,3.15-21.51,31.36-2.75,10.19-.9s-.22,1.06-.14,4.88c0,.23,0,.48.01.72.02.74.05,1.59.1,2.54.01.32.03.65.05.99.03.66.07,1.36.13,2.11,0,.05,0,.11.01.16.05.95.13,1.98.22,3.08.02.46.06.92.11,1.4.2,2.41.46,5.18.79,8.32.02.32.05.64.1.96.04.5.1,1,.15,1.51.11.89.2,1.81.31,2.76.01.1.02.18.03.28.1.84.2,1.7.3,2.59.12.97.23,1.96.36,2.96.07.68.16,1.38.26,2.1.04.34.09.69.13,1.04.05.37.1.75.15,1.14.09.68.17,1.38.27,2.09.2,1.58.43,3.22.65,4.92.82,6.03.58,11.14-.38,15.44Z" style="fill:#2f2e41; stroke-width:0px;"/><path d="M554.05,391.45l-8.21,3.55-43.67,18.85-7.28,3.15-17.87,7.72c.51,2.69,1.05,5.35,1.64,7.96.28,1.26.55,2.52.85,3.76.17.71.33,1.41.51,2.13h-36.17l-.28-2.13-1.05-8.32c-2.09-1.87-3.33-5.45-4.07-9.26-.74-3.79-1.01-7.84-1.19-10.65,0-.03,0-.07-.01-.11-.3-5.19,9.83-8.63,13.88-11.86l4.97-1.65c10.28-7.13,25.55-17.93,40.33-28.42,5.6-3.97,11.14-7.91,16.29-11.57,16.03-11.41,28.5-20.33,28.5-20.33l-.94-3.93,10.19-.9s-.22,1.06-.14,4.88c0,.23,0,.48.01.72.02.75.05,1.59.1,2.54.01.32.03.65.05.99.03.66.07,1.36.13,2.11,0,.05,0,.11.01.16.05.95.13,1.98.22,3.08.02.46.06.92.11,1.4.19,2.41.45,5.16.79,8.32.02.32.05.64.1.96.04.5.1,1,.15,1.51.11.89.2,1.82.31,2.76.01.1.02.18.03.28.1.84.2,1.7.3,2.59.12.97.23,1.96.36,2.96.09.69.17,1.39.26,2.1.04.34.09.69.13,1.04.05.37.1.75.15,1.14.09.68.17,1.38.27,2.09.2,1.58.43,3.22.65,4.92.82,6.03.58,11.14-.38,15.44Z" style="fill:#2f2e41; stroke-width:0px;"/><path d="M560.59,340.36c1.67,7.13,1,12.02.34,18.99-.24,2.57.6,6.27-1.9,8-2.14,1.46-78.98.77-79.69-5.19-.81-6.73.77-13.78,4.05-19.85,5.94-10.99,9.34-24.44,11.08-34,3.69-20.07-4.62-30.98-1.52-51,.53-3.41.64-6.64.51-9.73-.43-10.74-3.74-19.86-2.69-29.12.44-3.8,1.6-7.63,4.02-11.6.71-1.18,1.53-2.37,2.48-3.57,5.48-6.99,6.92-12.26,16.44-12.25,1.46,0,3.01-.1,4.58-.17,2.52-.14,5.09-.23,7.36.17,5.46.97,4.25,4.4,7.78,8.16l1.36,1.36c3.4,2.68,6.34,4.77,9.32,8,5.97,6.48,13.06,13.77,16.58,21.87,2.38,5.49.94,13.89.87,19.88-.07,7.7-2.45,14.18-4.44,21.52-1.73,6.38-2.19,13.07-3.37,19.59-1.52,8.43-2.9,16.74-3.6,25.23-.54,6.66,8.85-4.36,8.87,2.32.02,6.92,0,14.7,1.57,21.39Z" style="fill:#3f3d56; stroke-width:0px;"/><path d="M427.48,212.01l23.66,4.24-.53,13.86-24.86-5.37c-.68.38-1.42.67-2.22.84-4.34.95-8.63-1.8-9.58-6.14-.95-4.34,1.8-8.63,6.14-9.58,2.77-.61,5.51.3,7.39,2.16h0Z" style="fill:#ffb6b6; stroke-width:0px;"/><path d="M522.26,244.54c-1.04,2.13-2.66,3.96-4.73,5.3-3.06,1.98-6.65,2.52-9.98,1.8-.4-.09-1.77-.47-3.88-1.08-.36-.11-.74-.21-1.15-.33-2.39-.69-5.5-1.6-9.06-2.64-3.53-1.03-7.52-2.19-11.66-3.38h-.02c-1.25-.37-2.55-.74-3.84-1.12h-.02c-9.62-2.73-19.68-5.52-27.01-7.3-.34-.1-2.1,1.59-2.43,1.51-.51-.13-.61-2.07-1.08-2.19-1.03-.26-2.38,1.35-3.23,1.14-3.09-.75-4.33-7.33-4.33-7.33l.14-1.11,1.55-13.28.02-.23,8.75-2.75,2.91,2.82,4.04-1.68,3.76,2.82,7.68.77,3.32.34h.22s18.54,1.87,18.54,1.87l5.46.55c-.44-2.21-.78-4.4-1.02-6.56-.06-.61-.13-1.2-.17-1.8h-.01c-.12-1.29-.19-2.54-.24-3.8.71-1.18,1.53-2.37,2.48-3.57,5.48-6.99,6.92-12.26,16.44-12.25,1.46,0,3.01-.1,4.58-.17l2.45,21.74,2.7,23.91.09.78c.28,2.55-.18,5.05-1.26,7.24Z" style="fill:#3f3d56; stroke-width:0px;"/><path d="M476.31,205.12c-1.21-.87-2.76-1.03-4.13-.43l-41.3,18.2c-3.76,1.66-8.01,1.96-11.97.84l-.61-.17c1.72-15.28-2.67-31.72-11.29-48.97-1.12-.15-2.23.15-3.13.85-1.06.83-1.66,2.08-1.62,3.44l1.3,47.89.44,15.9c-9.42,11.28-12.82,21.72.81,29.77.04,1.5.86,2.84,2.18,3.56,1.32.73,2.88.71,4.18-.05l.84-.5,11.34,15.89c.75-.3,1.54-.45,2.34-.45,1.09,0,2.19.28,3.17.84l20.63,11.87,14.05,8.09c1.25.72,2.77.75,4.06.09,1.29-.68,2.11-1.94,2.24-3.39l.39-4.78,1.31-15.73,2.15-25.95,1.02-12.38.16-1.85,3.21-38.8c.13-1.5-.53-2.91-1.75-3.77h0Z" style="fill:#f2f2f2; stroke-width:0px;"/><path d="M479.49,210.43c-1.21-.87-2.76-1.03-4.13-.43-14.94,11.5-29.38,20.72-41.3,18.2-3.76,1.66-8.01,1.96-11.97.84l-.61-.17c1.72-15.28-2.67-31.72-11.29-48.97-1.12-.15-2.23.15-3.13.85-1.06.83-1.66,2.08-1.62,3.44l1.3,47.89.44,15.9c-9.42,11.28-12.82,21.72.81,29.77.04,1.5.86,2.84,2.18,3.56,1.32.73,2.88.71,4.18-.05l.84-.5,11.34,15.89c.75-.3,1.54-.45,2.34-.45,1.09,0,2.19.28,3.17.84l20.63,11.87,14.05,8.09c1.25.72,2.77.75,4.06.09,1.29-.68,2.11-1.94,2.24-3.39l.39-4.78,1.31-15.73,2.15-25.95,1.02-12.38.16-1.85,3.21-38.8c.13-1.5-.53-2.91-1.75-3.77h0Z" style="fill:#e6e6e6; stroke-width:0px;"/><rect x="439.91" y="235.81" width="32.62" height="1.91" transform="translate(-43.03 114.51) rotate(-13.67)" style="fill:#fff; stroke-width:0px;"/><rect x="439.91" y="250.18" width="32.62" height="1.91" transform="translate(-46.42 114.92) rotate(-13.67)" style="fill:#fff; stroke-width:0px;"/><rect x="455.26" y="250.15" width="1.91" height="32.62" transform="translate(180.2 716.96) rotate(-88.79)" style="fill:#fff; stroke-width:0px;"/><rect x="455.26" y="264.51" width="1.91" height="32.62" transform="translate(149.39 719.97) rotate(-86.67)" style="fill:#fff; stroke-width:0px;"/><rect x="453.34" y="279.83" width="1.91" height="32.62" transform="translate(89.9 697.77) rotate(-80.88)" style="fill:#fff; stroke-width:0px;"/><path d="M340.89,308.91h245.59c2.11,0,3.82,4.85,3.82,10.83v24.03c0,5.98-1.71,10.83-3.82,10.83h-209.45c-2.11,0-3.82-4.85-3.82-10.83l-36.13-24.03c0-5.98,1.71-10.83,3.82-10.83h0Z" style="fill:#f2f2f2; stroke-width:0px;"/><path d="M517.27,155.44c-.17-.3-.35-.58-.54-.86-.18-.29-.38-.56-.58-.83-.1-.14-.19-.27-.3-.38-.96-1.22-2.02-2.21-3.1-2.81-.07-.04-.15-.08-.22-.12-.17-.1-.34-.17-.52-.23-.33-.13-.66-.22-1-.27-.16-.02-.32-.03-.48-.03-.12,0-.23.01-.35.02-.06.01-.14.02-.21.03-.09.01-.18.03-.27.05-.1.02-.19.05-.28.09-.09.03-.18.06-.27.11-.1.04-.19.08-.28.14-.1.05-.18.11-.27.16-.1.06-.18.13-.27.19,3.25,1.84,6.44,3.79,9.54,5.84-.19-.38-.39-.74-.62-1.11,0,0,0,0,0,0Z" style="fill:#3f3d56; stroke-width:0px;"/><path d="M517.27,155.44c-.17-.3-.35-.58-.54-.86-.18-.29-.38-.56-.58-.83-.1-.14-.19-.27-.3-.38-.96-1.22-2.02-2.21-3.1-2.81-.07-.04-.15-.08-.22-.12-.17-.1-.34-.17-.52-.23-.33-.13-.66-.22-1-.27-.16-.02-.32-.03-.48-.03-.12,0-.23.01-.35.02-.06.01-.14.02-.21.03-.09.01-.18.03-.27.05-.1.02-.19.05-.28.09-.09.03-.18.06-.27.11-.1.04-.19.08-.28.14-.1.05-.18.11-.27.16-.1.06-.18.13-.27.19,3.25,1.84,6.44,3.79,9.54,5.84-.19-.38-.39-.74-.62-1.11,0,0,0,0,0,0Z" style="fill:#3f3d56; stroke-width:0px;"/><path d="M570.38,127.19H226.26v2.13h200.66c20.37,0,39.87,3.68,57.9,10.41h.01c2.48.92,4.91,1.9,7.32,2.94,5.57,2.38,10.97,5.07,16.2,8.03,3.25,1.84,6.44,3.79,9.54,5.84,6.63,4.37,12.92,9.2,18.83,14.46h.01c.27.23.52.46.78.7,33.68,30.28,54.86,74.19,54.86,123.04v119.69c0,11.88-9.42,21.55-20.19,10.36-.24-.26-.49-.51-.73-.79h-205.96v14.54h204.9c13.29,0,24.11-10.82,24.11-24.11V151.3c0-13.29-10.82-24.11-24.11-24.11,0,0,0,0,0,0Z" style="fill:#3f3d56; stroke-width:0px;"/><path d="M517.27,155.44c-.17-.3-.35-.58-.54-.86-.18-.29-.38-.56-.58-.83-.1-.14-.19-.27-.3-.38-.96-1.22-2.02-2.21-3.1-2.81-.07-.04-.15-.08-.22-.12-.17-.1-.34-.17-.52-.23-.33-.13-.66-.22-1-.27-.16-.02-.32-.03-.48-.03-.12,0-.23.01-.35.02-.06.01-.14.02-.21.03-.09.01-.18.03-.27.05-.1.02-.19.05-.28.09-.09.03-.18.06-.27.11-.1.04-.19.08-.28.14-.1.05-.18.11-.27.16-.1.06-.18.13-.27.19,3.25,1.84,6.44,3.79,9.54,5.84-.19-.38-.39-.74-.62-1.11,0,0,0,0,0,0Z" style="fill:#3f3d56; stroke-width:0px;"/><path d="M517.27,155.44c-.17-.3-.35-.58-.54-.86-.18-.29-.38-.56-.58-.83-.1-.14-.19-.27-.3-.38-.96-1.22-2.02-2.21-3.1-2.81-.07-.04-.15-.08-.22-.12-.17-.1-.34-.17-.52-.23-.33-.13-.66-.22-1-.27-.16-.02-.32-.03-.48-.03-.12,0-.23.01-.35.02-.06.01-.14.02-.21.03-.09.01-.18.03-.27.05-.1.02-.19.05-.28.09-.09.03-.18.06-.27.11-.1.04-.19.08-.28.14-.1.05-.18.11-.27.16-.1.06-.18.13-.27.19,3.25,1.84,6.44,3.79,9.54,5.84-.19-.38-.39-.74-.62-1.11,0,0,0,0,0,0Z" style="fill:#3f3d56; stroke-width:0px;"/><path d="M517.27,155.44c-.17-.3-.35-.58-.54-.86-.18-.29-.38-.56-.58-.83-.1-.14-.19-.27-.3-.38-.96-1.22-2.02-2.21-3.1-2.81-.07-.04-.15-.08-.22-.12-.17-.1-.34-.17-.52-.23-.33-.13-.66-.22-1-.27-.16-.02-.32-.03-.48-.03-.12,0-.23.01-.35.02-.06.01-.14.02-.21.03-.09.01-.18.03-.27.05-.1.02-.19.05-.28.09-.09.03-.18.06-.27.11-.1.04-.19.08-.28.14-.1.05-.18.11-.27.16-.1.06-.18.13-.27.19,3.25,1.84,6.44,3.79,9.54,5.84-.19-.38-.39-.74-.62-1.11,0,0,0,0,0,0Z" style="fill:#3f3d56; stroke-width:0px;"/><path d="M509.52,185.9c.62.07,1.24.13,1.86.16,1.92.11,3.81,0,5.63-.31,5.54-.89,10.58-3.51,14.47-7.36,4.11-4.06,6.92-9.49,7.68-15.66,1.78-14.57-8.6-27.85-23.17-29.63-14.36-1.77-27.46,8.28-29.55,22.52-.03.22-.07.43-.09.65-1.78,14.58,8.59,27.85,23.17,29.64,0,0,0,0,0,0Z" style="fill:#ffb6b6; stroke-width:0px;"/><path d="M480.45,154.63c3.77,1.87,9.94-4,12.31-.63.38-.73.81-1.44,1.23-2.1.38-.6.92-1.87,1.55-2.09-.79,1.91-.62,4.51.21,6.73,3.72,1.39,8.6-1.69,12.04-5.33,5.41-5.71,14.25,8.94,12.16,16.52,2.66-3.25,8.43-1.42,10.38,2.3,1.95,3.7-1.35,6.67-2.05,10.8l5.33-.68c3.36-3.28,3.13-8.8,5.9-12.59,4.63-6.35,6.42-12.84,2.94-19.39-3.08-5.8-3.37-13.3-9.03-16.64,2.47-1.21-6.32.68-3.97-3.26,2.36-3.93-10.22-4.41-11.04-2.3-3.59-4.3-7.22-7.14-11.64-3.69-4.34,3.39-3.89,6.95-8.99,6.63-2.39-.15-2.13,4.31-3.55,6.26-1.41,1.93-6.91,3.18-7.18,2.97-1.45-1.14-6.39,8.53-6.39,8.53,0,0-4,6.08-.2,7.97,0,0,0,0,0,0Z" style="fill:#2f2e41; stroke-width:0px;"/><path d="M413.74,62.25h-54.72c-4.84,0-8.77,3.94-8.77,8.78v54.72c0,.49.04.98.12,1.45.13.74.34,1.46.64,2.13,1.37,3.06,4.45,5.2,8.01,5.2h54.72c3.56,0,6.64-2.14,8.01-5.2.31-.67.52-1.38.64-2.13.09-.47.13-.96.13-1.45v-54.72c0-4.84-3.94-8.78-8.78-8.78h0ZM420.6,129.31c-1.29,2.48-3.87,4.17-6.85,4.17h-54.72c-2.99,0-5.57-1.69-6.85-4.17-.35-.66-.61-1.37-.74-2.13-.1-.47-.14-.96-.14-1.45v-54.72c0-.12,0-.22.02-.33h0c.17-4.13,3.56-7.42,7.72-7.42h27.59c10.15,0,19.29,4.35,25.66,11.28.03.04.06.07.1.11l.05.05c4.34,4.76,7.36,10.75,8.52,17.38.04.26.1.5.13.75.01.05.01.11.02.15.26,1.69.38,3.41.38,5.16v27.59c0,.49-.04.98-.14,1.45-.14.75-.39,1.47-.74,2.13h0Z" style="fill:#e6e6e6; stroke-width:0px;"/><path d="M421.55,98.38c0-19.42-17.4-36.41-36.58-39.42-24.29-3.81-46.61,17.6-43.4,39.53,2.81,19.22,35.8,47.09,44.82,29.89,10.32-19.68,35.17-10.58,35.17-30Z" style="fill:#6c63ff; stroke-width:0px;"/><path d="M393.67,82.98h-17.66c-.45,0-.81.36-.81.81s.36.81.81.81h17.66c.45,0,.81-.36.81-.81s-.36-.81-.81-.81Z" style="fill:#fff; stroke-width:0px;"/><path d="M393.67,100.21h-17.66c-.45,0-.81.36-.81.8s.36.82.81.82h17.66c.45,0,.81-.37.81-.82s-.36-.8-.81-.8Z" style="fill:#fff; stroke-width:0px;"/><path d="M403.15,91.6h-36.62c-.45,0-.81.36-.81.81s.36.81.81.81h36.62c.45,0,.81-.36.81-.81s-.36-.81-.81-.81Z" style="fill:#fff; stroke-width:0px;"/><path d="M469.66,248.94l21.64,10.48-4.26,13.2-22.48-11.89c-.76.18-1.55.26-2.36.21-4.44-.26-7.82-4.07-7.56-8.5.26-4.44,4.07-7.82,8.5-7.56,2.83.17,5.23,1.78,6.53,4.07h0Z" style="fill:#ffb6b6; stroke-width:0px;"/><path d="M561.93,235.95h0c-2.04-3.21-5.35-5.58-9.35-6.33l-3.02-.57c-7.44,13.88-14.31,28.06-15.6,45.25l-31.54-12.38-1.42-.55-2.86-3.73-4.35.52-.77-1.32h0s-1.28-2.17-1.28-2.17l-9.16.29-.08.2h-.01s-4.46,10.87-4.46,10.87h-.01s-.61,1.5-.61,1.5l-.43,1.03s-.27,2.93.38,5.38v.02c.32,1.22.87,2.32,1.8,2.84.77.43,2.5-.75,3.42-.23.43.24-.01,2.16.45,2.41.3.17,2.44-.98,2.75-.81,2.44,1.37,5.21,2.99,8.15,4.73,1.5.89,3.04,1.81,4.61,2.76,16.39,9.85,35.87,22.24,37.48,23.09.12.06.23.12.35.17,2.93,1.46,6.4,1.82,9.75.8.7-.21,1.37-.48,2-.8,1.16-.56,2.21-1.3,3.12-2.16,2.1-1.93,3.54-4.55,4.04-7.49l8.69-53.37c.58-3.59-.23-7.1-2.05-9.95Z" style="fill:#3f3d56; stroke-width:0px;"/><path d="M398.67,285.38c-1-4.06-3.99-7.07-7.47-7.98-1.39-.38-2.87-.43-4.34-.06-1.57.38-2.99,1.18-4.12,2.32-2.9-1.36-6.94-1.56-11.42-1.56h-7.44c-8.8,0-15.94,7.44-15.94,15.94-2.3,7.48.54,12.61,5.76,14.88,2.84,1.23,6.38,1.62,10.18,1.06h7.44c2.58.49,5.05.06,7.25-1.06,3.88-1.98,6.93-6.12,8.28-11.21.97.34,1.98.53,3.01.53.68,0,1.37-.09,2.05-.24,2.51-.62,4.59-2.28,5.87-4.69,1.25-2.37,1.57-5.18.9-7.92ZM390.58,291.24c-.73,1.39-1.81,2.45-3.1,3.1-.04.43-.11.85-.17,1.26.48.19.26.18-.15.08-.7-.17-1.94-.63-1.06-.84.48-.12.95-.29,1.38-.51.23-2.15.19-4.4-.21-6.68,0-3.25-.98-5.4-2.65-6.82.8-.69,1.72-1.18,2.75-1.43.52-.13,1.04-.19,1.55-.19.65,0,1.26.04,1.84.15,2.48.44,4.22,1.89,5.01,5.11.54,2.23-4.18,4.87-5.19,6.77Z" style="fill:#f2f2f2; stroke-width:0px;"/><path d="M260.56,305.38c0-8.5-7.14-15.94-15.94-15.94h-7.44c-4.23,0-8.07.18-10.91,1.34-.18.07-.34.15-.51.22-1.15-1.14-2.55-1.93-4.12-2.32-2.84-.69-5.73.11-7.98,1.93-1.81,1.46-3.21,3.57-3.83,6.11-.67,2.74-.35,5.55.9,7.92.65,1.22,1.5,2.24,2.52,3.04.98.78,2.11,1.34,3.35,1.65.68.16,1.37.24,2.05.24,1.03,0,2.04-.19,3.01-.53.88,3.35,2.51,6.28,4.61,8.46,2.92,3.03,6.77,4.6,10.91,3.82h7.44c10.82,1.56,19.48-4.4,15.94-15.94ZM221.24,299c-.4,2.28-.45,4.54-.21,6.68.44.22.9.39,1.38.51,1.39.34-2.51,1.26-1.21.75-.06-.41-.13-.84-.17-1.26-.89-.45-1.67-1.08-2.31-1.89-.3-.37-.56-.78-.8-1.21-1.01-1.9-5.73-4.54-5.19-6.77.54-2.2,1.53-3.58,2.89-4.37,0-.01.01-.01.01-.01,1.08-.63,2.4-.88,3.93-.88.52,0,1.04.06,1.56.19,1.03.26,1.96.74,2.75,1.43-1.67,1.42-2.65,3.57-2.65,6.82Z" style="fill:#f2f2f2; stroke-width:0px;"/><path d="M27.81,402.79h245.59c2.11,0,3.82,4.85,3.82,10.83l-31.88,24.03c0,5.98-1.71,10.83-3.82,10.83H27.81c-2.11,0-3.82-4.85-3.82-10.83v-24.03c0-5.98,1.71-10.83,3.82-10.83Z" style="fill:#f2f2f2; stroke-width:0px;"/><path d="M129.33,295.24l4.33,28.78-16.1,4.77-3.49-30.59c-.7-.63-1.32-1.37-1.83-2.22-2.77-4.61-1.28-10.6,3.33-13.37s10.6-1.28,13.37,3.33c1.77,2.94,1.8,6.44.39,9.31Z" style="fill:#ffb6b6; stroke-width:0px;"/><path d="M138.25,336.03c1.15,13-6.58,7.31-12.66,20-2.31,4.81-9.15,4.1-11.69,8.5-3.87,6.7-.31,36.76-7.17,40.46-6.9,3.72-10.14-7.04-15.59-12.57-5.33-5.42-11.58-3.29-16.14-9.34-4.59-6.07-9.79-11.48-14.38-17.51-.1-.12-.18-.24-.27-.36-2.1-16.56-8.96-36.06-6.09-44.86,3.79-1.38,7.89-2.31,11.08-2.27,5.89.07,3.4,3.28,8.46,5.81,4.25,2.13,9.5,13.24,13.6,15.72,2.92,1.75,10.14,15.69,13.91,14.48,6.17-1.97,12.25-30.39,10.81-35.6-1.22-4.35-7.32-9.79-7.49-14.17-.01-.16-.01-.33,0-.49,6.13,2.2,17.52-3.41,23.8-1.38,4.48,1.46,9.78,6.93,10.09,11.59.32,4.78-.7,17.19-.28,21.99Z" style="fill:#6c63ff; stroke-width:0px;"/><path d="M210.53,287.04c-1.12-1.29-2.78-1.88-4.46-1.58l-49.3,8.81c-4.45.81-9.1.02-13.04-2.2l-7.31-4.11-13.69-7.7-2.66-1.49-11.14-6.27-3.5-1.97c-1.34-.75-2.92-.83-4.33-.19-1.4.63-2.39,1.86-2.71,3.36l-3.45,16.14-.26,1.16-1.94,9.11-4.87,22.69-.77,3.6-.34,1.56-2.49,11.64-.47,2.15-6.6,30.83-.57,2.67c-.32,1.5.06,3.01,1.06,4.13.11.14.23.27.37.39,1.26,1.17,3,1.56,4.63,1.06l1.38-.43,10.4-3.16,23.84-7.23,5.1-1.55,6.27-1.9c.66-.2,1.33-.3,2-.3,1.75,0,3.48.66,4.77,1.9l30.82,29.31,1.36,1.3c1.19,1.14,2.86,1.57,4.45,1.17,1.37-.34,2.49-1.23,3.1-2.47.12-.21.21-.44.29-.67l8.62-25.93,1.48-4.44,4.8-14.45.38-1.15c21.08,13.46,17.66-29.04,19.67-59.15.54-1.62.19-3.36-.92-4.64Z" style="fill:#f2f2f2; stroke-width:0px;"/><path d="M204.15,292.36c-1.12-1.29-2.78-1.88-4.46-1.58l-49.3,8.81c-4.45.81-9.1.02-13.04-2.2l-7.31-4.11-13.69-7.7-2.66-1.49-11.14-6.27-3.5-1.97c-1.34-.75-2.92-.83-4.33-.19-1.4.63-2.39,1.86-2.71,3.36l-3.45,16.14-.26,1.16-1.94,9.11-4.87,22.69-.77,3.6-.34,1.56-2.49,11.64-.47,2.15-6.6,30.83-.57,2.67c-.32,1.5.06,3.01,1.06,4.13.11.14.23.27.37.39,1.26,1.17,3,1.56,4.63,1.06l1.38-.43,10.4-3.16,23.84-7.23,5.1-1.55,6.27-1.9c.66-.2,1.33-.3,2-.3,1.75,0,3.48.66,4.77,1.9l30.82,29.31,1.36,1.3c1.19,1.14,2.86,1.57,4.45,1.17,1.37-.34,2.49-1.23,3.1-2.47.12-.21.21-.44.29-.67l8.62-25.93,1.48-4.44,4.8-14.45.38-1.15c21.08,13.46,17.66-29.04,19.67-59.15.54-1.62.19-3.36-.92-4.64Z" style="fill:#e6e6e6; stroke-width:0px;"/><polygon points="65.02 385.48 66.02 428.21 126.59 426.54 114.35 379.25 65.02 385.48" style="fill:#ffb6b6; stroke-width:0px;"/><path d="M136.78,532.44c.73-3.46-1.63-.66-3.22-2.13l-.13-.13c-1.73-1.92-3.91-2.78-3.88-5.18.03-2.39-4.13-.26-6.47-2.59-.5-.5-1.92-1.47-3.87-2.68-6.05-3.76-17.07-9.9-20.37-11.74-.62-.34-.97-.53-.97-.53,0,0-.01.18-.04.53-.18,2.22-.92,11.22-1.83,22.32-.05.7-.11,1.41-.17,2.13h-39.15c.04-.72.06-1.43.07-2.13.06-3.32-.21-6.41-.98-8.99-1.38-4.64-2.61-9.06-3.58-13.33-3.54-15.53-3.5-28.98,6.34-43.63,1.82-2.7,2.17-11.3,2.17-11.3,0,0,3.35,3.32,4.21,4.14-.21-.22-.64-.65-1.34-1.35-3.97-3.97-3.85-5.18-1.81-7.38.36-.38.78-.8,1.24-1.26,3.11-3.11,0,0-1.56-1.83-1.55-1.84,2.34-6.75,2.34-6.75l-1.48-7.4-.86-4.29,4.52-.79,12.09-2.11,45.53-7.95.86,2.2,7.72,19.63c1.9,1.09,3.89,5.4,5.67,10.55,3.34,9.62,5.95,22.17,5.95,22.17l50.31,59.66.49.58c.43.5.82,1.02,1.19,1.54h-59Z" style="fill:#2f2e41; stroke-width:0px;"/><rect x="62.9" y="513.32" width="7.44" height="19.13" style="fill:#e6e6e6; stroke-width:0px;"/><path d="M25.17,508h82.89c6.16,0,11.16,5,11.16,11.16h0c0,6.16-5,11.16-11.16,11.16H25.17c-6.16,0-11.16-5-11.16-11.16h0c0-6.16,5-11.16,11.16-11.16Z" style="fill:#f2f2f2; stroke-width:0px;"/><path d="M18.79,530.32h0c-4.99,0-9.03-4.04-9.03-9.03v-107.33c0-4.99,4.04-9.03,9.03-9.03h0c4.99,0,9.03,4.04,9.03,9.03,27.44,21,16.28,62.78,0,107.33,0,4.99-4.04,9.03-9.03,9.03h0Z" style="fill:#f2f2f2; stroke-width:0px;"/><path d="M127.72,412.36c-1.75,12.84-14.02,1.53-26.36-.61-11.48-1.98-25.12,18.04-37.41,19.73-7.94,1.09-1.68-5.49,1.06-34.01.35-3.67-4.12-27.97-4.67-32.27-2.1-16.56-8.96-36.06-6.09-44.86.49-1.53,1.28-2.73,2.43-3.54,5.45-3.82,7.89-6.89,11.55-12.37,3.1-4.65,5.36-8.25,11.14-8.62,5.45-.35,11.63.84,16.89,1.99,5.75,1.26-.78.82.63,4.03.68,1.57,1.85,7.38,3.19,9.56h0c4.06-1.17,8.44.14,11.2,3.34,3.21,3.73,6.1,7.15,8.09,12.47,3,7.95-4.56,22.09-1.22,29.88,3.01,7.04-4.35,22.03-1.06,27.63,4.17,7.13,13.82,4.25,10.63,27.63,0,0,0,0,0,0Z" style="fill:#6c63ff; stroke-width:0px;"/><rect x="169.08" y="293.39" width="2.12" height="36.19" transform="translate(-160.36 440.89) rotate(-82.74)" style="fill:#fff; stroke-width:0px;"/><rect x="167.13" y="303.84" width="2.12" height="36.19" transform="translate(-172.43 448.07) rotate(-82.74)" style="fill:#fff; stroke-width:0px;"/><rect x="166.06" y="312.34" width="2.12" height="36.19" transform="translate(-181.79 454.45) rotate(-82.74)" style="fill:#fff; stroke-width:0px;"/><circle cx="97.07" cy="274.73" r="22.12" style="fill:#ffb6b6; stroke-width:0px;"/><path d="M203.21,296.9l-23.99,10.89,4.31,14.57,24.95-12.42c.82.22,1.69.33,2.58.3,4.87-.16,8.68-4.24,8.52-9.11-.16-4.87-4.24-8.68-9.11-8.52-3.1.11-5.77,1.81-7.26,4.28h0s0,0,0,0Z" style="fill:#ffb6b6; stroke-width:0px;"/><path d="M182.63,304.95l-9.25,4.58-16.52,3.24-22.4,9.2-3.4,1.39-15.68-2.98-10.86-2.07-3.58-.68-13.02-2.48-2.59-.16c-.71-.2-1.47-.39-2.31-.57-2.5-.53-5.5-.93-8.57-1.08-.92-.05-1.86-.07-2.79-.06-7.94.02-15.56,1.9-15.75,7.56-.15,4.63.78,9.06,2.56,13.06.27.61.55,1.19.86,1.78,3.76,7.16,10.37,12.67,18.42,14.9,1.75.49,3.57.81,5.44.97l.39-.04,1.45-.13,2.39-.21,4.38-.4,34.38-3.09,4.11-.37,3.81-.35.09-.04c4.86-2.09,18.29-7.85,31.85-13.81,12.42-5.47,17.67-6.14,21.36-7.59.73-.29,1.4-.6,2.06-.99.59-.36,11.37-7.72,11.43-7.87.2-.46-.02-1.42-.51-2.69-1.39-3.66-4.95-9.74-6.75-12.73l-.82-1.34-10.18,5.03h0Z" style="fill:#6c63ff; stroke-width:0px;"/><path d="M29.62,221.07c-13.32,0-24.11,10.8-24.11,24.11v263.15c0,5.08,1.58,9.81,4.28,13.7,2.47,3.57,5.88,6.44,9.86,8.25h.03c3.04,1.39,6.39,2.17,9.94,2.17h181.65v-14.54H30.69c-3.38,12.41-5.62,12.05-7.72,11.38-2.51-.79-4.82-2.02-6.84-3.61-.02,0-.02-.01-.02-.02-2.7-2.08-4.87-4.77-6.34-7.89-1.36-2.86-2.13-6.06-2.13-9.44v-173.9c0-61.43,49.8-111.23,111.23-111.23h209.3v-2.13H29.62Z" style="fill:#3f3d56; stroke-width:0px;"/><path d="M122.29,262.88c-.01,2.27-.02,6.75-1.99,7.87l-.51-.24c-.34-.21-.77-.54-1.22-.91-1.4-1.15-3.19-2.73-4.41-2.94-.06-1.91-.01-3.83.18-5.73.05-.46.11-.91.17-1.37-.18.31-.35.62-.52.94-1.01,1.89-1.84,3.89-2.44,5.94-2.02.02-4.72-.26-5.81,1.43-1.58,2.45.68,7.68-3.18,9.95-.82.48-1.91.83-3.37.99,1.53.24,3.48.99,4.45,2.94,2.02,4.04,3.74,8.71,2.83,13.02-.14.64-.33,1.26-.58,1.88-1.55,3.74-5.14,6.14-7.78,9.22-.05.05-.1.11-.14.16-2.03,2.42-2.71,4.41-2.5,6.29.38,3.45,3.75,6.54,7.23,11.17,1.29,1.72-2.55,10.66-1.46,12.51,1.12,1.85,1.71,4.19.83,6.16-.95,2.1-3.07,3.04-5.43,3.4-6.74-4.62-12.53-10.51-15.13-17.45-2.25-5.99-2.14-12.75,1.8-20.17-3.77,6.52-5.2,14.37-3.96,21.81.03.27.07.52.13.78.19,1,.51,1.9.94,2.75,1.9,3.79,5.86,6.3,8.77,9.8-1.22,1.23-3.22,3.11-5.16,4.85-1.66,1.49-3.29,2.85-4.37,3.6-.72-.67-1.48-2.32-2.19-4.46-.29-.86-.57-1.81-.84-2.79-1.67-5.98-3.03-13.7-3.38-16.07-.97,1.82-1.24,6.95-1.11,12.23.02.78.05,1.55.08,2.32.31,6.65-7.93,9.93-12.26,4.88-.89-1.05-1.81-2.23-2.74-3.56-.12-5.08.61-10.18,2.2-14.99.04-.14.06-.2.06-.22-.21.31-2.44,5.86-4.2,10.13-.9,2.19-1.68,4.04-2.01,4.69.33-1.97.96-4.39,1.62-6.76,1.5-5.32,3.19-10.33,2.14-8.95-1.07,1.41-2.04,2.92-2.87,4.5-1.66,3.09-2.82,6.46-3.4,9.93-.05.31-.11.62-.14.94-.97-.24-1.9-.58-2.79-1.03-2.82-1.46-4.34-4.51-4.5-7.68-.26-4.97,1.94-9.48,6.47-8.78,1.72.27,2.44-.75,2.54-2.42.23-3.45-2.16-9.7-3.55-13.06-.6-1.43-1.21-2.92-1.74-4.42,2.94-3.75,4.51-8.6,4.17-13.36-1.01,3.55-2.81,6.87-5.22,9.66-.52-2.51-.56-5.02.36-7.41,3.09-7.95,9.69-4.58,14.36-11.72,5.45-8.34,3.85-12.7,7.01-22.16,1.36-4.08,4.58-7.5,8.58-9.12,4-1.6,9.69-11.82,24.79-.61.24-.22.49-.44.74-.63,4.28-3.23,9.55-1.17,15.2-.44,5.97.78,4-.36,7.22,4.73,1.21,1.92-1.92,5.74-1.94,8.01h0Z" style="fill:#2f2e41; stroke-width:0px;"/><path d="M251.68,188.73s0-.01-.01-.01c-1.18-1.3-2.75-2.23-4.53-2.62h-.01c-.62-.14-1.24-.21-1.9-.21h-54.72c-4.84,0-8.78,3.94-8.78,8.78v54.72c0,4.84,3.94,8.77,8.78,8.77h54.72c4.84,0,8.77-3.93,8.77-8.77v-54.72c0-2.28-.87-4.37-2.32-5.93ZM252.96,249.38c0,4.27-3.46,7.74-7.74,7.74h-54.72c-4.27,0-7.74-3.46-7.74-7.74v-27.59c0-.24,0-.48.01-.72.03-1.55.16-3.08.39-4.59.03-.26.09-.5.13-.75,1.16-6.62,4.19-12.61,8.52-17.38l.05-.05c6.38-6.99,15.56-11.38,25.76-11.38h27.59c4.27,0,7.74,3.48,7.74,7.75v54.72Z" style="fill:#e6e6e6; stroke-width:0px;"/><path d="M182.7,222.02c0-19.42,17.4-36.41,36.58-39.42,24.29-3.81,46.61,9.09,43.4,31.03-2.81,19.22-35.8,55.59-44.82,38.39-10.32-19.68-35.17-10.58-35.17-30h0Z" style="fill:#6c63ff; stroke-width:0px;"/><path d="M228.24,206.62h-17.66c-.45,0-.81.36-.81.81s.36.81.81.81h17.66c.45,0,.81-.36.81-.81s-.36-.81-.81-.81Z" style="fill:#fff; stroke-width:0px;"/><path d="M228.24,223.84h-17.66c-.45,0-.81.36-.81.8s.36.82.81.82h17.66c.45,0,.81-.37.81-.82s-.36-.8-.81-.8Z" style="fill:#fff; stroke-width:0px;"/><path d="M237.72,215.23h-36.62c-.45,0-.81.36-.81.81s.36.81.81.81h36.62c.45,0,.81-.36.81-.81s-.36-.81-.81-.81Z" style="fill:#fff; stroke-width:0px;"/><path d="M59.58,104.34c-1.17,0-2.13.95-2.13,2.13v32.94c0,1.17.95,2.13,2.13,2.13s2.13-.95,2.13-2.13v-32.94c0-1.17-.95-2.13-2.13-2.13Z" style="fill:#3f3d56; stroke-width:0px;"/><ellipse cx="80.41" cy="123.12" rx="13.24" ry="12.97" style="fill:#6c63ff; stroke-width:0px;"/><path d="M186.59,118.68h-71.29c-2.45,0-4.44-1.99-4.44-4.44s1.99-4.44,4.44-4.44h71.29c2.45,0,4.44,1.99,4.44,4.44s-1.99,4.44-4.44,4.44Z" style="fill:#f2f2f2; stroke-width:0px;"/><path d="M242.23,133.69h-126.93c-2.45,0-4.44-1.99-4.44-4.44s1.99-4.44,4.44-4.44h126.93c2.45,0,4.44,1.99,4.44,4.44s-1.99,4.44-4.44,4.44Z" style="fill:#f2f2f2; stroke-width:0px;"/><path d="M235.69,504.28c-1.17,0-2.13.95-2.13,2.13v32.94c0,1.17.95,2.13,2.13,2.13s2.13-.95,2.13-2.13v-32.94c0-1.17-.95-2.13-2.13-2.13Z" style="fill:#3f3d56; stroke-width:0px;"/><ellipse cx="256.52" cy="523.06" rx="13.24" ry="12.97" style="fill:#6c63ff; stroke-width:0px;"/><path d="M362.7,518.62h-71.29c-2.45,0-4.44-1.99-4.44-4.44s1.99-4.44,4.44-4.44h71.29c2.45,0,4.44,1.99,4.44,4.44s-1.99,4.44-4.44,4.44Z" style="fill:#f2f2f2; stroke-width:0px;"/><path d="M418.34,533.64h-126.93c-2.45,0-4.44-1.99-4.44-4.44s1.99-4.44,4.44-4.44h126.93c2.45,0,4.44,1.99,4.44,4.44s-1.99,4.44-4.44,4.44Z" style="fill:#f2f2f2; stroke-width:0px;"/><ellipse cx="112.83" cy="236.77" rx="4.49" ry="4.59" style="fill:#3f3d56; stroke-width:0px;"/><ellipse cx="128.36" cy="236.77" rx="4.49" ry="4.59" style="fill:#3f3d56; stroke-width:0px;"/><ellipse cx="143.88" cy="236.77" rx="4.49" ry="4.59" style="fill:#3f3d56; stroke-width:0px;"/><ellipse cx="424.62" cy="146.13" rx="4.49" ry="4.59" style="fill:#3f3d56; stroke-width:0px;"/><ellipse cx="440.14" cy="146.13" rx="4.49" ry="4.59" style="fill:#3f3d56; stroke-width:0px;"/><ellipse cx="455.67" cy="146.13" rx="4.49" ry="4.59" style="fill:#3f3d56; stroke-width:0px;"/><path d="M288.67,332.23c-.18.61.47,1.12,1.02.81,3.84-2.17,8.54-4.29,12.73-5.43.67-.18.69-1.12.03-1.34l-5.55-1.87,21.21-26.7-1.44-1.15-21.21,26.7-3.08-4.99c-.36-.59-1.27-.36-1.3.34-.16,4.34-1.16,9.4-2.41,13.63Z" style="fill:#3f3d56; stroke-width:0px;"/><path d="M318.78,384.78c.58.25,1.17-.32.93-.9-1.66-4.09-3.16-9.02-3.76-13.32-.1-.69-1.02-.83-1.33-.2l-2.56,5.27-23.77-24.45-1.32,1.29,23.77,24.45-5.34,2.41c-.63.29-.52,1.22.17,1.33,4.28.72,9.17,2.36,13.21,4.13h0Z" style="fill:#3f3d56; stroke-width:0px;"/></svg>