<?xml version="1.0" encoding="UTF-8"?><svg id="Capa_1" xmlns="http://www.w3.org/2000/svg" viewBox="0 0 600 600"><path d="M162.8,245.01s-13.02-4.8-19.18-4.8c-.59,0-1.17.07-1.75.19-3.95.84-7.58,4.23-9.32,6.08-.68.73-1.07,1.21-1.07,1.21,0,0,.04-.47.12-1.3.4-4.36,1.9-18.66,4.58-27.81.96-3.27,2.06-5.88,3.33-7.15,2.95-2.96,4.32-6.51,4.95-9.15.53-2.27.53-3.86.53-3.86l-4.99-2.15-.92-6.04c-.16.71-.92,2.1-3.48,4.77-.22.23-.46.42-.71.58-3.69,2.32-11.2-1.71-15.25-4.25,1.69-5.86,4.74-11.22,10.29-12.09,13.02-2.06,13.02-9.59,21.24-1.37.68.68,1.36,1.33,2.05,1.96,2.63,5.03,3.59,11.77,3.93,16.46.25,3.28.18,5.56.18,5.56,0,0,3.43,20.55,8.91,24.66,5.48,4.11-3.43,18.5-3.43,18.5Z" style="fill:#2f2e41; stroke-width:0px;"/><polygon points="137.45 212.12 128.2 225.7 149.1 231.31 149.1 212.12 137.45 212.12" style="fill:#ffb6b6; stroke-width:0px;"/><polygon points="137.45 212.12 128.2 225.7 149.1 231.31 149.1 212.12 137.45 212.12" style="fill:#000; isolation:isolate; opacity:.1; stroke-width:0px;"/><path d="M485.46,429.27c.99-.39,2.26,1.83,3.11,1.43.85-.39-.11-2.74.67-5.79.14-.55,1.02-4.03,2.48-4.18,2.76-.3,5.14,11.57,9.26,11.47.9-.02,1.99-.62,4.8-.79,1.12-.07,1.73-.02,2.04.38.45.57-.08,1.35-.62,3.27-.8,2.88-.17,3.16-1,5.31-.62,1.6-1.29,2.28-.95,2.78.48.71,2.14-.21,2.86.54.73.77,0,2.76-.77,4.08-1.44,2.48-3.42,3.33-5.08,4.54-1.81,1.31-4.1,3.67-5.78,8.22l-13.4,40.9c2.57-8.53,9.23-32.21,11.35-41.28.61-2.62,1.15-5.34-.25-7.66-1.35-2.24-4.34-3.83-7.09-7.26-.32-.4-1.2-1.52-.84-2.27.3-.62,1.17-.42,1.46-.99.38-.77-.88-1.76-1.84-3.73-.68-1.39-.86-2.56-1.02-3.57-.05-.3-.73-4.86.59-5.39h0s0,0,0,0Z" style="fill:#f2f2f2; stroke-width:0px;"/><path d="M517.23,480.78c.48.37-.24,1.64.2,1.94.44.3,1.31-.84,3.04-1.34.31-.09,2.27-.66,2.77,0,.94,1.27-4.2,5.86-2.96,7.85.27.44.88.8,1.77,2.13.35.53.51.84.4,1.11-.15.38-.68.35-1.78.64-1.65.44-1.6.83-2.89,1.04-.96.16-1.49.03-1.64.34-.21.44.72.99.56,1.56-.17.58-1.36.8-2.23.8-1.63,0-2.62-.72-3.7-1.19-1.17-.51-2.98-.95-5.7-.46l-23.94,5.22c4.93-1.2,18.47-4.76,23.54-6.34,1.46-.46,2.95-.97,3.69-2.33.71-1.31.63-3.24,1.51-5.57.1-.27.4-1.03.87-1.07.39-.03.54.45.91.43.49-.03.61-.94,1.3-1.98.49-.73,1.01-1.16,1.46-1.53.14-.11,2.17-1.76,2.81-1.26h0Z" style="fill:#f2f2f2; stroke-width:0px;"/><path d="M505.95,475.51l2.29-2.37.02-.3c.09-1.38.46-2.51,1.11-3.36.1-.13.21-.26.32-.4.44-.52.99-1.17,1.25-2.22.14-.59.37-2.03-.56-2.54-.25-.14-.5-.17-.72-.15,0-.04,0-.09.01-.14.05-.59-.03-.92-.1-1.24-.05-.24-.11-.49-.12-.99,0-.22,0-.4,0-.55.02-.46.01-1.04-.49-1.41-.55-.38-1.16-.16-1.57-.01-.73.26-1.16.52-1.45.69-.11.06-.22.13-.27.15-.36.12-1.57-1.18-2.02-1.67-1.02-1.1-1.9-2.05-2.89-1.63-.71.3-1.02,1.17-.97,2.66.02.46.1.87.2,1.21-.27-.03-.57,0-.84.22h0c-.64.51-.59,1.55.16,3.11.18.39.43.91.93,1.45.23.25.47.45.67.62-.09.12-.16.28-.19.47-.09.56.21,1.09.92,1.57.77.53,1.49.86,2.12,1.15.55.26,1.03.48,1.33.74.55.5.64,1.33.7,2.35l.13,2.58h0Z" style="fill:#f2f2f2; stroke-width:0px;"/><path d="M516.52,459.04l1.71,2.82.28.09c1.32.44,2.31,1.08,2.97,1.92.1.13.2.27.3.41.39.56.88,1.26,1.83,1.77.53.29,1.87.87,2.6.11.2-.2.29-.44.32-.66.04.02.08.03.13.05.56.2.9.21,1.22.22.25,0,.5.02.99.13.21.05.39.1.53.15.45.13,1,.27,1.49-.11.51-.43.45-1.08.41-1.51-.07-.77-.21-1.25-.3-1.58-.03-.12-.07-.25-.07-.3-.02-.38,1.54-1.21,2.13-1.53,1.32-.71,2.47-1.32,2.31-2.38-.11-.76-.87-1.29-2.32-1.61-.45-.1-.87-.12-1.22-.12.1-.25.13-.55,0-.87h0c-.33-.75-1.35-.96-3.05-.64-.42.08-.99.19-1.64.53-.31.16-.56.34-.77.49-.1-.12-.23-.23-.4-.3-.52-.23-1.11-.07-1.75.49-.71.61-1.21,1.22-1.66,1.76-.39.47-.72.87-1.06,1.1-.63.41-1.45.29-2.45.08l-2.53-.53h0s0,0,0,0Z" style="fill:#f2f2f2; stroke-width:0px;"/><path d="M523.77,452.45l2.29-2.37.02-.3c.09-1.38.46-2.51,1.11-3.36.1-.13.21-.26.32-.4.44-.52.99-1.17,1.25-2.22.14-.59.37-2.03-.56-2.54-.25-.14-.5-.17-.72-.15,0-.04,0-.09.01-.14.05-.59-.03-.92-.1-1.24-.05-.24-.11-.49-.12-.99,0-.22,0-.4,0-.55.02-.46.01-1.04-.49-1.41-.55-.38-1.16-.16-1.57-.01-.73.26-1.16.52-1.45.69-.11.06-.22.13-.27.15-.36.12-1.57-1.18-2.02-1.67-1.02-1.1-1.9-2.05-2.89-1.63-.71.3-1.02,1.17-.97,2.66.02.46.1.87.2,1.21-.27-.03-.57,0-.84.22h0c-.64.51-.59,1.55.16,3.11.18.39.43.91.93,1.45.23.25.47.45.67.62-.09.12-.16.28-.19.47-.09.56.21,1.09.92,1.57.77.53,1.49.86,2.12,1.15.55.26,1.03.48,1.33.74.55.5.64,1.33.7,2.35l.13,2.58h0Z" style="fill:#f2f2f2; stroke-width:0px;"/><path d="M482.26,500.71l.81.08.62-.53-.62.53.58.56c.06-.05.19-.16.41-.33,1.18-.94,4.77-3.8,9.78-8.8,3.5-3.49,6.86-7.25,10-11.2,3.14-3.95,5.29-7.11,7.01-9.66,1.3-1.92,2.51-3.77,3.68-5.58,3.14-4.82,6.11-9.37,10.03-13.93.87-1.02,2.7-3.13,5.8-4.48,1.8-.78,3.76-1.2,5.84-1.23l-.02-1.62c-2.29.03-4.46.49-6.46,1.36-3.44,1.5-5.42,3.8-6.38,4.91-3.99,4.63-6.99,9.23-10.16,14.1-1.17,1.8-2.38,3.64-3.67,5.55-1.71,2.52-3.84,5.66-6.94,9.56-3.1,3.89-6.42,7.61-9.87,11.06-4.95,4.93-8.48,7.75-9.64,8.68-.62.49-.75.6-.78.96h0Z" style="fill:#f2f2f2; stroke-width:0px;"/><path d="M536.97,450c.05.04.11.08.16.12,1.14.78,2.65.91,4.5.38.87-.25,1.6-.74,3.04-1.73.22-.15,1.34-.93,2.63-2.19.84-.82,1.13-1.22,1.21-1.71.09-.54-.03-1.06-.27-1.52.11-.11.2-.25.24-.42.19-.7-.44-1.08-.78-1.29-.17-.1-.39-.23-.6-.41-.32-.28-.43-.52-.59-.88-.15-.35-.34-.78-.75-1.25-.8-.94-1.81-1.28-2.14-1.4-1.74-.61-3.26-.06-5.01.58-.35.13-1.6.62-2.92,1.59-.95.7-1.23,1.13-1.38,1.49-.31.73-.21,1.37.13,2.88.36,1.57.54,2.36.78,2.94.55,1.34.89,2.18,1.72,2.81h0Z" style="fill:#f2f2f2; stroke-width:0px;"/><polygon points="485.59 494.85 473.52 494.85 467.77 448.29 485.59 448.29 485.59 494.85" style="fill:#a0616a; stroke-width:0px;"/><path d="M444.23,494.58h0c-.38.63-.57,2.68-.57,3.41h0c0,2.26,1.83,4.1,4.1,4.1h37.38c1.54,0,2.79-1.25,2.79-2.79v-1.56s1.85-4.68-1.96-10.44c0,0-4.73,4.51-11.8-2.56l-2.09-3.78-15.09,11.04-8.37,1.03c-1.83.23-3.45-.03-4.39,1.55h0Z" style="fill:#2f2e41; stroke-width:0px;"/><polygon points="452.63 494.85 440.56 494.85 434.81 448.29 452.63 448.29 452.63 494.85" style="fill:#a0616a; stroke-width:0px;"/><path d="M411.27,494.58h0c-.38.63-.57,2.68-.57,3.41h0c0,2.26,1.83,4.1,4.1,4.1h37.38c1.54,0,2.79-1.25,2.79-2.79v-1.56s1.85-4.68-1.96-10.44c0,0-4.73,4.51-11.8-2.56l-2.09-3.78-15.09,11.04-8.37,1.03c-1.83.23-3.45-.03-4.39,1.55h0Z" style="fill:#2f2e41; stroke-width:0px;"/><path d="M453.55,161.14s-6.29,3.69-4.22,7.33c2.06,3.65,4.94,8.61,2.99,10.18s-5.17,8.46-5.17,8.46c0,0-13.74-1.92-12.45,8.76,1.29,10.67,7.75,12.13,2.21,16.83-5.53,4.7,5.75,10.31,5.75,10.31,0,0,7.79-2.43,9.57-9.89s-1.58,5.71-.46,6.65c1.13.94,5.5,7.17,8.6-1.11,3.1-8.28.03-11.49,4.12-16.37,4.09-4.89,6.88-12.79,6.75-14.17-.12-1.38,4.68-13.99-2.71-18.9s-14.98-8.07-14.98-8.07h0Z" style="fill:#2f2e41; stroke-width:0px;"/><polygon points="456.44 190.46 451.99 206.27 476.41 206.27 468.37 186.78 456.44 190.46" style="fill:#a0616a; stroke-width:0px;"/><polygon points="456.44 190.46 451.99 206.27 476.41 206.27 468.37 186.78 456.44 190.46" style="fill:#000; isolation:isolate; opacity:.1; stroke-width:0px;"/><path d="M487.73,300.85s10.43,13.28,8.06,39.83c-2.37,26.55-10.43,142.31-10.43,142.31h-13.96l-11.17-108.17-6.84,108.17-21.35-.99,4.89-189.82,50.8,8.67h0Z" style="fill:#2f2e41; stroke-width:0px;"/><path id="uuid-15dc6cf4-99a2-4708-8e21-b6a3347dd403-160" d="M377.52,209.41c-3.15-4.28-3.49-9.38-.76-11.38s7.48-.15,10.63,4.13c1.28,1.69,2.14,3.67,2.5,5.76l13.1,18.31-8.72,5.96-11.99-18.68c-1.89-.97-3.52-2.38-4.75-4.11h0Z" style="fill:#a0616a; stroke-width:0px;"/><path d="M457.67,227.09l-37.13,27.01s-8.24,5.54-17.77-6.52c-9.53-12.06-19.13-30.71-19.13-30.71l8.59-6.39,10.47,13.64s6.91,4.43,7.06,6.48-1.46,2.58,1,2.4,2.77-1.56,2.51.58-2.15,4.34,1,2.46,3.69-.27,3.69-.27l24.71-22.39s14.67-7.66,16.62,2.08c1.95,9.74-1.62,11.65-1.62,11.65Z" style="fill:#6c63ff; stroke-width:0px;"/><polygon points="452.87 204.35 474.62 204.35 494.6 235.64 486.3 279.03 491.76 306.77 436.24 292.18 440.61 290.45 442.92 272.63 432.96 242.22 441.49 217.15 452.87 204.35" style="fill:#6c63ff; stroke-width:0px;"/><path d="M476.95,179.18c0,8.12-6.58,14.71-14.71,14.71s-14.71-6.58-14.71-14.71,6.58-14.71,14.71-14.71,14.71,6.58,14.71,14.71Z" style="fill:#a0616a; stroke-width:0px;"/><path d="M456.6,162.76s-2.45,6.86,1.47,8.33,9.31,3.43,8.82,5.88,1.47,9.81,1.47,9.81c0,0-11.77,7.35-3.92,14.71,7.84,7.35,13.73,4.32,12.5,11.48-1.23,7.15,11.03,4.21,11.03,4.21,0,0,4.41-6.86.98-13.73s2.45,5.39,3.92,5.39,8.82,1.96,5.88-6.37-7.35-8.82-7.35-15.2-2.94-14.22-3.92-15.2c-.98-.98-5.39-13.73-14.22-12.75s-16.67,3.43-16.67,3.43h0Z" style="fill:#2f2e41; stroke-width:0px;"/><path id="uuid-800338dd-1caa-42bd-b73f-d0ae9c40b57c-161" d="M475.62,324.38c-1.38,5.35-5.26,8.97-8.66,8.09-3.4-.88-5.04-5.93-3.66-11.27.52-2.14,1.55-4.13,3-5.8l6.13-22.58,10.54,3.1-7.16,21.93c.46,2.16.4,4.4-.18,6.53h0Z" style="fill:#a0616a; stroke-width:0px;"/><path d="M472.82,227.47s5.97-16.13,12.51-15.08,12.5,11.19,12.5,11.19l-4.73,57.37-12.99,32.74-13.78-5.43,7.16-32.72-.68-48.07h0Z" style="fill:#6c63ff; stroke-width:0px;"/><polygon points="110.5 494.28 123.05 494.28 129.01 445.89 110.5 445.89 110.5 494.28" style="fill:#ffb6b6; stroke-width:0px;"/><path d="M153.48,493.99h0c.39.66.6,2.78.6,3.55h0c0,2.35-1.91,4.26-4.26,4.26h-38.85c-1.6,0-2.9-1.3-2.9-2.9v-1.62s-1.92-4.86,2.03-10.85c0,0,4.92,4.69,12.27-2.66l2.17-3.93,15.69,11.47,8.69,1.07c1.9.23,3.59-.04,4.57,1.61h0Z" style="fill:#2f2e41; stroke-width:0px;"/><polygon points="84.88 467.51 93.68 476.45 132.36 446.77 119.37 433.57 84.88 467.51" style="fill:#ffb6b6; stroke-width:0px;"/><path d="M115.23,497.95h0c-.2.74-1.56,2.38-2.11,2.91h0c-1.68,1.65-4.37,1.63-6.02-.05l-27.25-27.7c-1.13-1.14-1.11-2.98.03-4.11l1.15-1.13s2.12-4.78,9.16-6.16c0,0,.1,6.8,10.5,6.88l4.32-1.21,2.82,19.23,5.33,6.95c1.17,1.52,2.54,2.53,2.05,4.39h0s0,0,0,0Z" style="fill:#2f2e41; stroke-width:0px;"/><path d="M162.76,334.08l-30.43-75.01,17.01-2.54,22.66,68.84,3.86,10.13c1.9,1.79,3.34,4,4.2,6.46,2.25,6.12.91,12.25-2.98,13.68-3.9,1.43-8.88-2.37-11.12-8.5-.93-2.44-1.27-5.06-.98-7.65l-2.1-5.46-.13.05h0Z" style="fill:#ffb6b6; stroke-width:0px;"/><path d="M153.1,237.6l15.51,62.95s-16.8-5.8-24.29,4.33c0,0-17.07-64.1-13.61-68.77,3.46-4.67,20.59-5.94,22.28.78" style="fill:#e6e6e6; stroke-width:0px;"/><path d="M161.02,293.54l10.96,105.51-46.59,60.98-11.65-8.91,28.43-53.1-31.86-71.6s4.8-32.2,6.85-36.31,43.85,3.43,43.85,3.43Z" style="fill:#2f2e41; stroke-width:0px;"/><polygon points="116.48 320.26 110.32 326.43 105.86 467.9 129.84 470.64 135.5 356.61 116.48 320.26" style="fill:#2f2e41; stroke-width:0px;"/><path d="M130.53,220.57l17.81,6.17,15.07,31.52v39.58s0,4.27-5.48,2.22-26.72-10.28-26.72-10.28c0,0-13.02,8.22-16.44,6.17s-3.43-3.36-3.43-6.13-3.77-27.78-3.77-27.78l12.33-31.52,10.62-9.93Z" style="fill:#e6e6e6; stroke-width:0px;"/><path d="M124.79,333.29l-19-78.69h17.2l12.23,71.43,2.32,10.59c1.61,2.05,2.71,4.45,3.2,7.01,1.32,6.39-.91,12.25-4.97,13.09-4.07.84-8.43-3.66-9.75-10.05-.56-2.55-.5-5.19.16-7.71l-1.26-5.71-.14.03Z" style="fill:#ffb6b6; stroke-width:0px;"/><path d="M128.13,236.68l3.84,52.18s-11.65-1.37-20.55,7.54c0,0-9.32-60.4-5.21-64.51s21.24-2.83,21.92,4.06" style="fill:#e6e6e6; stroke-width:0px;"/><path d="M359.67,257h-158.05c-4.97,0-9.01-4.04-9.01-9.01v-23.77c0-4.97,4.04-9.01,9.01-9.01h167.07v32.78c0,4.97-4.04,9.01-9.01,9.01Z" style="fill:#e6e6e6; stroke-width:0px;"/><path d="M400.81,206.33c-.17,0-.35-.07-.48-.2-.27-.27-.27-.7,0-.97,1.8-1.82,2.78-4.24,2.77-6.8-.02-2.56-1.03-4.96-2.85-6.77-1.81-1.79-4.2-2.77-6.74-2.77-.02,0-.04,0-.06,0-2.56.02-4.96,1.03-6.77,2.85-.27.27-.7.27-.97,0-.27-.27-.27-.7,0-.97,2.06-2.08,4.8-3.24,7.73-3.26.02,0,.05,0,.07,0,2.9,0,5.64,1.12,7.7,3.16,2.08,2.06,3.24,4.8,3.26,7.73.02,2.93-1.11,5.69-3.16,7.77-.13.14-.31.2-.49.2Z" style="fill:#3f3d56; stroke-width:0px;"/><path d="M318.67,239.87h-76.05c-1.89,0-3.43-1.54-3.43-3.43s1.54-3.43,3.43-3.43h76.05c1.89,0,3.43,1.54,3.43,3.43s-1.54,3.43-3.43,3.43Z" style="fill:#fff; stroke-width:0px;"/><path d="M394.03,200.25c-1.89,0-3.43-1.54-3.43-3.43s1.54-3.43,3.43-3.43,3.43,1.54,3.43,3.43-1.54,3.43-3.43,3.43ZM394.03,194.77c-1.13,0-2.06.92-2.06,2.06s.92,2.06,2.06,2.06,2.06-.92,2.06-2.06-.92-2.06-2.06-2.06Z" style="fill:#3f3d56; stroke-width:0px;"/><path d="M179.42,340.93h55.15c2.74,0,4.97,2.23,4.97,4.97v58.58c0,2.74-2.23,4.97-4.97,4.97h-55.15c-2.74,0-4.97-2.23-4.97-4.97v-58.58c0-2.74,2.23-4.97,4.97-4.97Z" style="fill:#fff; stroke-width:0px;"/><path d="M234.57,410.12h-55.15c-3.12,0-5.65-2.54-5.65-5.65v-58.58c0-3.12,2.54-5.65,5.65-5.65h55.15c3.12,0,5.65,2.54,5.65,5.65v58.58c0,3.12-2.54,5.65-5.65,5.65ZM179.42,341.61c-2.36,0-4.28,1.92-4.28,4.28v58.58c0,2.36,1.92,4.28,4.28,4.28h55.15c2.36,0,4.28-1.92,4.28-4.28v-58.58c0-2.36-1.92-4.28-4.28-4.28h-55.15Z" style="fill:#e6e6e6; stroke-width:0px;"/><rect x="183.36" y="349.15" width="25.35" height="10.8" style="fill:#e6e6e6; stroke-width:0px;"/><path d="M227.48,381.01h-20.42c-1.55,0-2.81-1.26-2.81-2.81v-5.86c0-1.55,1.26-2.81,2.81-2.81h20.42c1.55,0,2.81,1.26,2.81,2.81v5.86c0,1.55-1.26,2.81-2.81,2.81Z" style="fill:#e6e6e6; stroke-width:0px;"/><path d="M210.35,399.16h-20.42c-1.74,0-3.15-1.41-3.15-3.15v-5.86c0-1.74,1.41-3.15,3.15-3.15h20.42c1.74,0,3.15,1.41,3.15,3.15v5.86c0,1.74-1.41,3.15-3.15,3.15ZM189.93,388.37c-.98,0-1.78.8-1.78,1.78v5.86c0,.98.8,1.78,1.78,1.78h20.42c.98,0,1.78-.8,1.78-1.78v-5.86c0-.98-.8-1.78-1.78-1.78h-20.42Z" style="fill:#e6e6e6; stroke-width:0px;"/><path d="M200.48,356.34h-10.28c-.94,0-1.71-.77-1.71-1.71s.77-1.71,1.71-1.71h10.28c.94,0,1.71.77,1.71,1.71s-.77,1.71-1.71,1.71Z" style="fill:#fff; stroke-width:0px;"/><path d="M223.09,376.9h-10.28c-.94,0-1.71-.77-1.71-1.71s.77-1.71,1.71-1.71h10.28c.94,0,1.71.77,1.71,1.71s-.77,1.71-1.71,1.71Z" style="fill:#fff; stroke-width:0px;"/><path d="M204.6,394.71h-10.28c-.94,0-1.71-.77-1.71-1.71s.77-1.71,1.71-1.71h10.28c.94,0,1.71.77,1.71,1.71s-.77,1.71-1.71,1.71Z" style="fill:#e6e6e6; stroke-width:0px;"/><path d="M244,374.93c11.16-1.17,21.75-6.13,29.94-13.79,8.76-8.2,14.24-19.48,15.55-31.38.76-6.95.16-14-1.89-20.69-.39-1.27-2.33-.6-1.95.66,3.48,11.39,2.6,23.99-2.32,34.83-4.53,10.01-12.51,18.12-22.25,23.15-5.36,2.77-11.23,4.54-17.23,5.17-1.31.14-1.18,2.19.14,2.05h0Z" style="fill:#3f3d56; stroke-width:0px;"/><path d="M276.77,315.77l7.29-15.63-1.6.3,12.17,12.61c.92.95,2.28-.59,1.37-1.53l-12.17-12.61c-.46-.47-1.34-.27-1.6.3l-7.29,15.63c-.56,1.2,1.27,2.13,1.83.93h0Z" style="fill:#3f3d56; stroke-width:0px;"/><circle cx="229.26" cy="366.96" r="8.22" style="fill:#6c63ff; stroke-width:0px;"/><path d="M232.16,362.8c-.34-.09-.6.12-.72.41-.76,1.81-1.52,3.63-2.27,5.44-.79-1.15-1.58-2.31-2.38-3.46-.43-.62-1.44-.03-1.01.59,1,1.46,2,2.92,3.01,4.38.31.45.88.33,1.07-.14.91-2.17,1.81-4.33,2.72-6.5.12-.29-.13-.65-.41-.72h0Z" style="fill:#fff; stroke-width:0px;"/><rect id="uuid-fd87b38b-9a3a-463a-bd94-d3d374d132bf" x="8.47" y="501.82" width="583.06" height="1.15" style="fill:#e6e6e6; stroke-width:0px;"/><path d="M217,264.19h-24.81c-3.74,0-6.78-3.04-6.78-6.78v-24.81c0-3.74,3.04-6.78,6.78-6.78h24.81c3.74,0,6.78,3.04,6.78,6.78v24.81c0,3.74-3.04,6.78-6.78,6.78h0ZM192.19,227.57c-2.78,0-5.03,2.26-5.03,5.03v24.81c0,2.78,2.26,5.03,5.03,5.03h24.81c2.78,0,5.03-2.26,5.03-5.03v-24.81c0-2.78-2.26-5.03-5.03-5.03h-24.81Z" style="fill:#3f3d56; stroke-width:0px;"/><path d="M216.98,256.78h-15.07c-5.01,0-9.09-4.08-9.09-9.09v-15.07l24.16,24.16h0Z" style="fill:#6c63ff; stroke-width:0px;"/><path d="M360.27,127.17h-19.5c-2.94,0-5.32-2.39-5.32-5.32v-19.5c0-2.94,2.39-5.32,5.32-5.32h19.5c2.94,0,5.32,2.39,5.32,5.32v19.5c0,2.94-2.39,5.32-5.32,5.32h0ZM340.78,98.39c-2.18,0-3.95,1.77-3.95,3.95v19.5c0,2.18,1.77,3.95,3.95,3.95h19.5c2.18,0,3.95-1.77,3.95-3.95v-19.5c0-2.18-1.77-3.95-3.95-3.95h-19.5Z" style="fill:#e6e6e6; stroke-width:0px;"/><path d="M360.26,121.34h-11.84c-3.94,0-7.15-3.21-7.15-7.15v-11.84l18.98,18.98Z" style="fill:#6c63ff; stroke-width:0px;"/><path d="M404.81,169.65h-19.5c-2.94,0-5.32-2.39-5.32-5.32v-19.5c0-2.94,2.39-5.32,5.32-5.32h19.5c2.94,0,5.32,2.39,5.32,5.32v19.5c0,2.94-2.39,5.32-5.32,5.32ZM385.31,140.87c-2.18,0-3.95,1.77-3.95,3.95v19.5c0,2.18,1.77,3.95,3.95,3.95h19.5c2.18,0,3.95-1.77,3.95-3.95v-19.5c0-2.18-1.77-3.95-3.95-3.95,0,0-19.5,0-19.5,0Z" style="fill:#e6e6e6; stroke-width:0px;"/><polygon points="386.15 145.67 386.15 163.48 403.97 163.48 386.15 145.67" style="fill:#6c63ff; stroke-width:0px;"/><path d="M338.88,238.35v-24.37c0-3.67,2.99-6.66,6.66-6.66h24.37c3.67,0,6.66,2.99,6.66,6.66v24.37c0,3.67-2.99,6.66-6.66,6.66h-24.37c-3.67,0-6.66-2.99-6.66-6.66h0ZM345.53,209.04c-2.73,0-4.94,2.22-4.94,4.94v24.37c0,2.73,2.22,4.94,4.94,4.94h24.37c2.73,0,4.94-2.22,4.94-4.94v-24.37c0-2.73-2.22-4.94-4.94-4.94h-24.37,0Z" style="fill:#3f3d56; stroke-width:0px;"/><polygon points="346.59 215.03 368.85 215.03 368.85 237.3 346.59 215.03" style="fill:#6c63ff; stroke-width:0px;"/><circle cx="141.88" cy="200.66" r="17.53" style="fill:#ffb6b6; stroke-width:0px;"/><path d="M165.54,194.31c-3.43,3.43-6.17,6.85-6.17,6.85l-1.37-5.48s-.32.23-.87.6c-2.17,1.48-8,5.2-12.68,6-2.08.36-3.93.13-5.14-1.12-2.56-2.67-3.32-4.06-3.48-4.77l-.92,6.04-4.99,2.15s0,7.52,5.48,13.02c.27.27.53.6.78.98,2.62,3.95,4.49,13.61,5.69,21.82,1.06,7.3,1.56,13.46,1.56,13.46,0,0-5.19-6.49-10.88-7.38-.32-.05-.63-.08-.95-.09-.1-.01-.21-.01-.32-.01-6.17,0-19.18,4.8-19.18,4.8,0,0-8.91-14.39-3.43-18.5s8.91-24.66,8.91-24.66c0,0-.23-8.8,2.04-16.68,1.69-5.86,4.74-11.22,10.29-12.09,13.02-2.06,13.02-9.59,21.24-1.37.68.68,1.36,1.33,2.05,1.96,7.66,7.04,15.48,11.34,12.34,14.48Z" style="fill:#2f2e41; stroke-width:0px;"/><path d="M394.15,134.27c1.03-3.68.78-7.64-.61-11.19-1.5-3.8-4.38-6.94-7.98-8.84-2.1-1.11-4.41-1.8-6.78-1.99-.45-.04-.48.66-.03.7,4.04.33,7.91,2.18,10.72,5.09,2.6,2.69,4.16,6.22,4.53,9.93.2,2.04.03,4.12-.52,6.09-.12.43.54.65.67.21h0Z" style="fill:#e6e6e6; stroke-width:0px;"/><path d="M379.55,116.5l-4.03-4.26-.11.54,5.51-2.27c.42-.17.1-.8-.31-.62l-5.51,2.27c-.21.08-.25.39-.11.54l4.03,4.26c.31.33.83-.14.52-.46h0Z" style="fill:#e6e6e6; stroke-width:0px;"/><path d="M348.83,135.66c-1.03,3.68-.78,7.64.61,11.19,1.5,3.8,4.38,6.94,7.98,8.84,2.1,1.11,4.41,1.8,6.78,1.99.45.04.48-.66.03-.7-4.04-.33-7.91-2.18-10.72-5.09-2.6-2.69-4.16-6.22-4.53-9.93-.2-2.04-.03-4.12.52-6.09.12-.43-.54-.65-.67-.21h0Z" style="fill:#e6e6e6; stroke-width:0px;"/><path d="M363.43,153.43l4.03,4.26.11-.54-5.51,2.27c-.42.17-.1.8.31.62l5.51-2.27c.21-.08.25-.39.11-.54l-4.03-4.26c-.31-.33-.83.14-.52.46h0Z" style="fill:#e6e6e6; stroke-width:0px;"/></svg>