<svg width="100" height="97" viewBox="0 0 100 97" fill="none" xmlns="http://www.w3.org/2000/svg">
<path d="M99.9926 36.9001V47.6501C99.7966 48.1365 99.4421 48.5424 98.9865 48.802C98.5308 49.0616 98.0009 49.1595 97.4826 49.0801C96.3606 49.0101 95.2336 49.07 94.0106 49.07V93.4702C94.0227 93.8907 94.0087 94.3115 93.9686 94.7302C93.941 95.1427 93.77 95.5324 93.485 95.832C93.2001 96.1316 92.8192 96.322 92.4086 96.3701C91.9903 96.4285 91.5678 96.452 91.1456 96.4402H8.84157C6.51157 96.4402 5.98158 95.9003 5.98158 93.5603V49.1802C5.86786 49.1352 5.74995 49.1016 5.62959 49.0801C4.52259 49.0701 3.41656 49.0803 2.31056 49.0603C0.687562 49.0503 0.0105556 48.3602 0.00355556 46.7302C-0.00444444 43.9202 0.00355556 41.12 0.00355556 38.32C0.00355556 35.97 0.528545 35.4402 2.85555 35.4402H28.4495V25.07C26.0045 24.83 25.8556 24.8801 23.9376 26.0801C21.1097 27.888 17.7144 28.5897 14.4016 28.0503C12.3242 27.721 10.3486 26.9241 8.62404 25.7199C6.89945 24.5158 5.47083 22.9359 4.44594 21.0991C3.42104 19.2623 2.82667 17.2169 2.7076 15.1169C2.58852 13.0169 2.94787 10.9174 3.75856 8.97654C4.56926 7.0357 5.81011 5.30416 7.38753 3.91282C8.96494 2.52147 10.8377 1.50658 12.8646 0.944556C14.8915 0.382536 17.0195 0.288088 19.0882 0.668433C21.1569 1.04878 23.1122 1.8939 24.8066 3.14011C25.2786 3.4566 25.8333 3.62702 26.4016 3.6301C39.7789 3.6601 53.1553 3.67013 66.5306 3.66013C72.8756 3.66013 79.2246 3.61015 85.5696 3.68015C88.3506 3.7629 90.9888 4.93081 92.9196 6.93406C94.8503 8.93731 95.9203 11.6167 95.9006 14.3989C95.8809 17.1811 94.773 19.8451 92.814 21.8208C90.855 23.7964 88.2005 24.9269 85.4186 24.9702C81.1886 25.0502 76.9566 24.9902 72.7276 25.0002H71.6525V35.4502H72.9046C81.0746 35.4502 89.2436 35.4602 97.4106 35.4302C97.9443 35.3563 98.4874 35.4601 98.9561 35.7258C99.4248 35.9915 99.7929 36.4043 100.004 36.9001H99.9926ZM39.6686 92.4702V71.5102C39.6686 69.5002 40.3026 68.8501 42.2686 68.8501H57.9926C59.9646 68.8501 60.5776 69.4601 60.5776 71.4001C60.5776 78.0101 60.5776 84.6235 60.5776 91.2402V92.4602H90.0386V49.1401H9.96358V92.4702H39.6716H39.6686ZM28.8146 21.0901H29.8945C33.6355 21.0901 37.3806 21.0701 41.1216 21.0901C41.3895 21.0716 41.6582 21.1085 41.9112 21.1985C42.1642 21.2884 42.3959 21.4296 42.592 21.613C42.788 21.7965 42.9442 22.0184 43.0507 22.2649C43.1573 22.5113 43.2119 22.7771 43.2112 23.0456C43.2105 23.3141 43.1545 23.5795 43.0467 23.8254C42.9389 24.0713 42.7817 24.2924 42.5847 24.4748C42.3877 24.6573 42.1552 24.7973 41.9017 24.886C41.6483 24.9746 41.3794 25.0101 41.1116 24.9902C38.8986 25.0102 36.6866 25.0002 34.4736 25.0002H32.4016V35.3801H67.5816V25.0002H66.4706C63.8006 25.0002 61.1346 25.0102 58.4656 24.9802C57.9553 24.9991 57.4583 24.815 57.0834 24.4682C56.7085 24.1215 56.4864 23.6403 56.4656 23.1301C56.4549 22.6025 56.6542 22.0923 57.0197 21.7116C57.3852 21.331 57.8869 21.1108 58.4146 21.1001C58.7076 21.0801 58.9996 21.0901 59.2946 21.0901C67.9176 21.0901 76.5406 21.1101 85.1646 21.0801C86.0664 21.0887 86.9609 20.9171 87.7952 20.5747C88.6296 20.2323 89.387 19.7263 90.0228 19.0866C90.6586 18.447 91.1599 17.6865 91.4972 16.8501C91.8345 16.0137 92.001 15.1183 91.9869 14.2165C91.9727 13.3148 91.7782 12.4248 91.4148 11.5993C91.0514 10.7739 90.5265 10.0298 89.8709 9.41038C89.2154 8.79099 88.4425 8.30892 87.5978 7.9929C86.7531 7.67687 85.8537 7.53306 84.9526 7.57004C66.5346 7.56004 48.1166 7.56004 29.6986 7.57004H28.8165C30.9815 12.6 31.0165 15.9101 28.8215 21.0901H28.8146ZM3.94557 45.0801H96.0065V39.4101H3.94856L3.94557 45.0801ZM6.60255 14.2502C6.58929 16.2238 7.16222 18.1568 8.24873 19.8044C9.33525 21.452 10.8864 22.7398 12.7057 23.5049C14.525 24.2699 16.5304 24.4777 18.4678 24.1018C20.4053 23.7259 22.1875 22.7832 23.5886 21.3933C24.9898 20.0034 25.9468 18.2288 26.3383 16.2944C26.7298 14.3601 26.5382 12.3529 25.7878 10.5276C25.0374 8.7022 23.7621 7.14073 22.1233 6.04099C20.4845 4.94125 18.5562 4.35269 16.5826 4.35007C13.9517 4.35599 11.429 5.39854 9.56142 7.25168C7.69386 9.10483 6.63185 11.6194 6.60555 14.2502H6.60255ZM43.6166 72.82V92.4602H56.6286V72.82H43.6166Z" fill="url(#paint0_linear_2059_184)"/>
<path d="M32.9332 71.8899C32.9332 74.7499 32.9412 77.62 32.9332 80.48C32.9282 82.31 32.2212 83 30.3762 83.01H18.9583C17.1873 83 16.4773 82.29 16.4742 80.51C16.4669 74.75 16.4669 68.9866 16.4742 63.22C16.4742 61.44 17.1842 60.76 18.9822 60.75H30.4923C32.2043 60.76 32.9193 61.4699 32.9273 63.1899C32.9443 66.0899 32.9332 68.9899 32.9332 71.8899ZM20.4592 64.71V69.8499H28.9672V64.71H20.4592ZM20.4352 79.03H28.9722V73.8899H20.4352V79.03Z" fill="url(#paint1_linear_2059_184)"/>
<path d="M84.1036 71.8493C84.1036 74.7193 84.1086 77.5794 84.1036 80.4494C84.0986 82.2994 83.4036 82.9995 81.5836 83.0095H70.1656C68.3366 82.9995 67.6446 82.2994 67.6446 80.4494C67.6393 74.7194 67.6393 68.9895 67.6446 63.2595C67.6446 61.4595 68.3446 60.7595 70.1136 60.7595C73.9516 60.7495 77.7896 60.7495 81.6276 60.7595C83.3966 60.7595 84.0936 61.4595 84.1016 63.2595C84.1116 66.1195 84.1036 68.9893 84.1036 71.8493ZM71.6036 64.6994V69.8793H80.1276V64.6994H71.6036ZM71.6036 79.0295H80.1406V73.8893H71.6036V79.0295Z" fill="url(#paint2_linear_2059_184)"/>
<path d="M61.1248 16.2801H39.1527C37.5667 16.2801 36.7218 15.63 36.6768 14.41C36.6421 13.9344 36.7916 13.4638 37.0942 13.0953C37.3968 12.7267 37.8295 12.4885 38.3028 12.43C38.7227 12.3832 39.1455 12.3665 39.5678 12.3799H82.8258C83.2484 12.3647 83.6715 12.3848 84.0907 12.44C84.5367 12.508 84.9443 12.7316 85.2415 13.0711C85.5387 13.4105 85.7063 13.8439 85.7148 14.295C85.7233 14.746 85.5721 15.1858 85.2879 15.5362C85.0038 15.8866 84.6049 16.1252 84.1618 16.21C83.7435 16.2685 83.321 16.292 82.8988 16.2801C75.6394 16.2901 68.3808 16.2901 61.1228 16.2801H61.1248Z" fill="url(#paint3_linear_2059_184)"/>
<path d="M51.7366 22.9906C51.7448 23.2478 51.7017 23.5042 51.61 23.7447C51.5183 23.9852 51.3797 24.2049 51.2022 24.3914C51.0248 24.5779 50.8121 24.7275 50.5764 24.8311C50.3408 24.9347 50.0869 24.9903 49.8295 24.9949C49.5722 24.9996 49.3165 24.953 49.0772 24.858C48.838 24.7629 48.62 24.6215 48.436 24.4415C48.252 24.2615 48.1055 24.0467 48.0052 23.8096C47.9049 23.5726 47.8527 23.318 47.8516 23.0606C47.8494 22.5499 48.0484 22.0588 48.4055 21.6937C48.7625 21.3286 49.2489 21.1189 49.7595 21.1097C50.2701 21.1005 50.7638 21.2926 51.1338 21.6446C51.5038 21.9966 51.7204 22.4801 51.7366 22.9906Z" fill="url(#paint4_linear_2059_184)"/>
<path d="M14.6392 14.8405C16.1342 13.3305 17.4122 12.0407 18.6962 10.7507C18.9492 10.5007 19.1962 10.2407 19.4742 10.0107C19.8319 9.69353 20.2973 9.5251 20.7751 9.53997C21.2529 9.55484 21.707 9.75173 22.0442 10.0905C22.2311 10.2507 22.3836 10.4471 22.4925 10.6679C22.6014 10.8887 22.6644 11.1291 22.6778 11.3749C22.6911 11.6207 22.6545 11.8668 22.5702 12.0981C22.4859 12.3293 22.3557 12.5411 22.1872 12.7206C20.1632 14.8306 18.0966 16.9006 15.9872 18.9306C15.6566 19.2597 15.2092 19.4445 14.7427 19.4445C14.2763 19.4445 13.8288 19.2597 13.4982 18.9306C12.4912 18.0106 11.5232 17.0407 10.5982 16.0407C10.261 15.6711 10.0804 15.1849 10.0945 14.6847C10.1086 14.1846 10.3164 13.7093 10.6739 13.3593C11.0315 13.0093 11.5109 12.8118 12.0113 12.8083C12.5116 12.8048 12.9938 12.9955 13.3562 13.3405C13.8161 13.8121 14.2446 14.3131 14.6392 14.8405Z" fill="url(#paint5_linear_2059_184)"/>
<path d="M46.0565 82.6006C46.0798 82.0922 46.2989 81.6125 46.668 81.262C47.0371 80.9115 47.5275 80.7176 48.0365 80.7207C48.5439 80.7501 49.0213 80.9707 49.3724 81.3382C49.7236 81.7056 49.9222 82.1925 49.9285 82.7007C49.925 82.9575 49.8706 83.211 49.7682 83.4466C49.6659 83.6821 49.5178 83.895 49.3325 84.0728C49.1471 84.2506 48.9282 84.3898 48.6886 84.4822C48.449 84.5746 48.1934 84.6184 47.9366 84.6111C47.6799 84.6038 47.4272 84.5456 47.1932 84.4397C46.9592 84.3339 46.7486 84.1824 46.5737 83.9944C46.3987 83.8064 46.2629 83.5855 46.1741 83.3445C46.0853 83.1035 46.0454 82.8472 46.0565 82.5906V82.6006Z" fill="url(#paint6_linear_2059_184)"/>
<defs>
<linearGradient id="paint0_linear_2059_184" x1="50.0018" y1="0.439453" x2="50.0018" y2="96.4431" gradientUnits="userSpaceOnUse">
<stop stop-color="#6306FC"/>
<stop offset="1" stop-color="#24B0B3"/>
</linearGradient>
<linearGradient id="paint1_linear_2059_184" x1="24.7028" y1="60.75" x2="24.7028" y2="83.01" gradientUnits="userSpaceOnUse">
<stop stop-color="#6306FC"/>
<stop offset="1" stop-color="#24B0B3"/>
</linearGradient>
<linearGradient id="paint2_linear_2059_184" x1="75.8736" y1="60.752" x2="75.8736" y2="83.0095" gradientUnits="userSpaceOnUse">
<stop stop-color="#6306FC"/>
<stop offset="1" stop-color="#24B0B3"/>
</linearGradient>
<linearGradient id="paint3_linear_2059_184" x1="61.1935" y1="12.375" x2="61.1935" y2="16.2876" gradientUnits="userSpaceOnUse">
<stop stop-color="#6306FC"/>
<stop offset="1" stop-color="#24B0B3"/>
</linearGradient>
<linearGradient id="paint4_linear_2059_184" x1="49.7946" y1="21.1094" x2="49.7946" y2="24.9953" gradientUnits="userSpaceOnUse">
<stop stop-color="#6306FC"/>
<stop offset="1" stop-color="#24B0B3"/>
</linearGradient>
<linearGradient id="paint5_linear_2059_184" x1="16.3871" y1="9.53906" x2="16.3871" y2="19.4445" gradientUnits="userSpaceOnUse">
<stop stop-color="#6306FC"/>
<stop offset="1" stop-color="#24B0B3"/>
</linearGradient>
<linearGradient id="paint6_linear_2059_184" x1="47.9916" y1="80.7207" x2="47.9916" y2="84.6119" gradientUnits="userSpaceOnUse">
<stop stop-color="#6306FC"/>
<stop offset="1" stop-color="#24B0B3"/>
</linearGradient>
</defs>
</svg>
