<?xml version="1.0" encoding="UTF-8"?><svg id="Capa_1" xmlns="http://www.w3.org/2000/svg" viewBox="0 0 201.46 60"><path d="M42.64,16.12c-4.41-4.55-10.04-6.25-16.12-6.77-5.8-.48-11.65-.08-17.47-.23-1.26-.02-1.53.43-1.51,1.59.04,6.42.02,12.87.02,19.31s.02,13.14-.02,19.7c0,.97.29,1.26,1.26,1.24,5.88-.04,11.74.02,17.63-.04,1.47-.02,2.96-.14,4.39-.43,10.82-2.21,17.35-10.58,16.93-21.61-.19-4.86-1.66-9.21-5.11-12.75ZM31.65,37.35c-1.55,2.9-4.16,4.06-7.39,3.89-2.23-.14-2.21-.14-2.21-2.44.02-6.25.02-12.5-.02-18.75,0-1.01.21-1.45,1.32-1.24.75.15,1.57.12,2.34.14,2.53.06,4.47,1.33,5.65,3.41,2.84,4.89,2.98,9.98.31,14.99Z" style="fill:#3e8941; stroke-width:0px;"/><path d="M88.4,20.62c.53.18,1.06.36,1.59.54,3.47,1.17,5.21,3.75,5.39,7.25.37,7.21.08,14.43.16,21.64,0,.69-.31.89-.95.89-3.78-.01-7.57-.02-11.35.01-1.07,0-.9-.71-.9-1.34,0-5.43,0-10.87-.01-16.3,0-.78-.06-1.57-.22-2.33-.28-1.3-1.09-2.19-2.41-2.44-1.26-.23-2.18.42-2.83,1.44-.65,1.01-.94,2.12-.93,3.34.02,5.39-.02,10.78.03,16.17.01,1.11-.25,1.51-1.45,1.48-3.48-.09-6.96-.07-10.43,0-1.11.02-1.38-.34-1.37-1.41.03-9.17.01-18.34-.03-27.52,0-.94.33-1.17,1.21-1.16,3.35.04,6.7.06,10.04,0,1.07-.02,1.52.28,1.41,1.38-.06.59.04,1.2.08,2.08,2.7-3.13,6.09-4.13,9.85-4.21,1.13-.39,2.13.08,3.13.49Z" style="fill:#3e8941; stroke-width:0px;"/><path d="M188.09,23.16c-6.54-4.76-17.57-4.99-24.28-.54-7.95,5.24-8.9,17.84-1.61,23.84,3.91,3.21,8.49,4.37,13.45,4.47,3.79-.02,7.16-.85,10.41-2.52,10.64-5.48,9.62-19.73,2.03-25.25ZM179.7,35.62c0,1.28-.19,2.9-.46,4.53-.44,2.59-1.59,3.52-4.02,3.41-1.64-.08-2.59-1.01-2.98-2.46-1.01-3.7-1.18-7.45-.15-11.16.54-1.9,1.78-2.9,3.37-2.96,1.47-.06,2.88,1.03,3.58,2.77.52,1.32.81,3.56.68,5.88Z" style="fill:#3e8a41; stroke-width:0px;"/><path d="M131.41,36.09c-3.23.66-6.46,1.28-9.71,1.88-.72.14-.87.44-.91,1.12-.12,2.22-1.37,3.6-3.54,4-2.4.43-3.87-.29-4.88-2.44q-.81-1.7.95-2.17c.6-.15,1.18-.31,1.78-.46,5.36-1.41,10.74-2.82,16.12-4.22.62-.15,1.06-.29.87-1.1-1.18-4.72-3.56-8.63-8.03-10.83-6.83-3.37-13.54-2.57-19.85,1.33-4.59,2.82-7,7.12-7,12.61.02,6.67,3.35,11.82,9.09,14.05,7.68,2.96,18.77-.25,23.64-6.89,1.3-1.8,2.11-3.79,2.28-6.02.06-.6.04-1.04-.81-.87ZM109.54,31.43c-.06-.29-.06-.6-.1-.91-.04-1.51.74-2.55,2.26-3.1,1.92-.7,3.66-.21,4.78,1.3.08.1.12.23.19.35,1.06,1.64,1.03,1.78-.83,2.28-1.51.43-3,.89-4.51,1.3-1.45.39-1.57.29-1.8-1.22Z" style="fill:#3e8941; stroke-width:0px;"/><path d="M145.94,24.07c.61-.66,1.13-1.34,1.75-1.9,2.25-2.04,5.04-2.09,7.85-2.05.61,0,.67.39.67.88-.01,2.91-.03,5.82,0,8.73.01,1.2-.72.79-1.31.67-2.7-.55-5.37.5-6.68,2.67-.81,1.34-1.02,2.84-1.02,4.38,0,4.08-.03,8.17,0,12.25,0,.96-.28,1.28-1.26,1.27-3.56-.05-7.13-.05-10.69,0-1,.01-1.24-.33-1.24-1.28.03-9.08.04-18.16-.01-27.24,0-1.21.41-1.45,1.5-1.42,2.95.07,5.91.09,8.86,0,1.19-.03,1.55.35,1.42,1.47-.05.48-.14,1.02.13,1.57Z" style="fill:#3e8a41; stroke-width:0px;"/><path d="M61.27,35.86c0,4.56-.04,9.12.03,13.68.02,1.18-.34,1.46-1.47,1.43-3.13-.08-6.25-.05-9.38-.02-.79,0-1.05-.23-1.05-1.03.02-9.29.01-18.58-.02-27.88,0-.92.32-1.18,1.21-1.16,3.13.05,6.26.06,9.38,0,1.02-.02,1.34.25,1.32,1.3-.06,4.56-.02,9.12-.03,13.68Z" style="fill:#3e8a41; stroke-width:0px;"/><path d="M60.54,14.48c0,2.96-2.25,5.19-5.2,5.17-3-.02-5.27-2.33-5.24-5.32.03-2.77,2.4-5.04,5.25-5.03,2.97,0,5.19,2.23,5.19,5.18Z" style="fill:#3e8a41; stroke-width:0px;"/><path d="M69.73,18.04c.04-.35-.02-.7,0-1.04.06-.99-.08-1.9-1.08-2.48,1.3-1.03,1.45-2.3.97-3.7-.5-1.39-1.74-1.51-3-1.55-.87-.02-1.74.06-2.59-.02-1.01-.1-1.37.19-1.33,1.26.08,2.61.08,5.2,0,7.82-.02,1.06.25,1.37,1.35,1.41,1.24.04,1.64-.37,1.49-1.55-.08-.5-.04-1.04,0-1.57.02-.43-.23-1.08.52-1.08.68,0,.93.5.91,1.18,0,.7.04,1.37.08,2.07.02.41.06.85.58.87.74.02,1.57.19,2.17-.1.48-.21-.12-.99-.06-1.53ZM66.09,13.63c-.93.04-.44-.72-.62-1.12.14-.45-.23-1.18.62-1.16.64.02.99.43.95,1.12-.02.64-.31,1.12-.95,1.16Z" style="fill:#020202; stroke-width:0px;"/><path d="M111.5,18.48c-.68-2.5-1.35-5.03-1.86-7.56-.27-1.32-.74-1.99-2.19-1.63-.6.21-1.59-.54-1.9.68-.72,2.96-1.45,5.9-2.17,8.86-.06.25-.25.72.15.77.75.12,1.55.14,2.32.04.56-.06.41-.68.46-1.06.08-.58.43-.72.91-.68.48.06,1.26-.27,1.3.46.08,1.53,1.04,1.32,2.07,1.35,1.03.04,1.14-.33.89-1.24ZM107.47,15.75c-.56,0-.64-.31-.56-.75.15-.87.17-1.78.66-2.94.21,1.22.35,2.09.5,2.96.08.46-.04.75-.6.74Z" style="fill:#030303; stroke-width:0px;"/><path d="M89.56,9.95c1.36-1.03,2.86-1.11,4.44-.66.52.15.97.43,1.19.93.28.63.86,1.35.17,1.98-.52.48-2.08-.06-2.4-.74-.21-.45-.52-.6-.93-.38-.43.24-.57.65-.32,1.11.37.66,1.05.85,1.69,1.11,2.15.88,2.84,2.09,2.43,4.12-.16.77-.55,1.35-1.22,1.75-1.73,1.04-4.34.61-5.65-.93-.51-.63-.5-1.29.04-1.87.45-.48,1.9-.33,2.57.15.28.2.51.87.87.45.33-.39-.22-.74-.57-.98-.32-.22-.71-.33-1.05-.51-2.4-1.22-2.86-3.3-1.24-5.55Z" style="fill:#030303; stroke-width:0px;"/><path d="M84.77,11.47c-.52,2.32-1.07,4.64-1.52,6.97-.18.94-.52,1.3-1.53,1.27-2.31-.07-2.31,0-2.81-2.34-.51-2.37-.97-4.75-1.55-7.11-.23-.92.1-1.01.86-1.02,1.93-.01,1.86-.03,2.17,1.91.25,1.57.24,3.2.82,4.79.2-.47.26-.88.18-1.3.25-1.55.42-3.11.62-4.67.08-.6.3-.85.87-.85.09,0,.17,0,.26,0,2.29-.11,2.55.25,1.64,2.34Z" style="fill:#020202; stroke-width:0px;"/><path d="M73.72,19.69q-3.16,0-3.16-3.19c0-2.09.03-4.17,0-6.26-.01-.72.16-1.01.93-.98,1.43.05,2.88.09,4.3-.01,1.08-.08.94.56.96,1.22.02.65.06,1.24-.9,1.11-.51-.07-1.04,0-1.56-.02-.62-.04-.97.11-.97.85,0,.76.38.87.98.83.35-.02.7.03,1.04-.01.96-.13,1.25.23,1.28,1.22.03,1.15-.61,1.03-1.32,1.01-.35,0-.7.03-1.04,0-.76-.09-.97.26-.95.98.02.69.17,1.09.95,1.01.43-.04.88.05,1.3-.02,1.24-.2,1.47.42,1.39,1.49-.05.65-.31.81-.89.79-.78-.03-1.57,0-2.35,0Z" style="fill:#010102; stroke-width:0px;"/><path d="M99.51,9.27c.74,0,1.48,0,2.22,0,1.08,0,1.71,1.15,1.18,2.11-.25.45-.7.32-1.05.28-.85-.1-1.02.29-1,1.05.04,1.82-.02,3.65.03,5.48.02.96.02,1.62-1.32,1.55-1.13-.05-1.62-.23-1.54-1.5.12-1.82.01-3.65.04-5.48.01-.71-.07-1.22-.96-1.1-1.28.18-.91-.77-1-1.45-.12-.89.33-1.01,1.06-.97.78.05,1.56.01,2.35,0Z" style="fill:#030303; stroke-width:0px;"/><path d="M88.32,14.48c0,1.43-.04,2.86.01,4.29.05,1.08-.66.94-1.29.89-.61-.04-1.48.36-1.47-.85.03-2.9.02-5.81.01-8.71,0-1.37,1.03-.67,1.62-.79.63-.13,1.19-.07,1.14.88-.07,1.43-.02,2.86-.02,4.29,0,0,0,0,0,0Z" style="fill:#010101; stroke-width:0px;"/></svg>