<svg width="97" height="90" viewBox="0 0 97 90" fill="none" xmlns="http://www.w3.org/2000/svg">
<g clip-path="url(#clip0_1782_4689)">
<path d="M-0.00276042 65.9248C0.651484 64.615 1.70232 64.1083 3.15479 64.2046C4.41276 64.2856 5.67831 64.2198 6.94133 64.2223C9.74018 64.2274 11.4705 65.9349 11.5387 68.7571C11.5438 68.9142 11.5564 69.0713 11.569 69.2968H14.5371C14.6053 68.1035 14.5877 66.8748 14.762 65.674C15.3354 61.7573 18.6925 59.0845 22.5876 59.4367C23.1787 59.4899 23.4414 59.2264 23.7547 58.8565C26.0736 56.0976 28.342 53.2906 30.7442 50.6077C33.6264 47.3902 38.5522 47.6537 41.1566 51.0586C43.0536 53.5363 43.0056 57.002 40.9823 59.4899C39.3681 61.4761 37.6934 63.4141 36.0464 65.3775C35.8721 65.5853 35.7155 65.8057 35.4199 66.1882C35.9403 66.1882 36.2737 66.1882 36.6046 66.1882C41.341 66.1882 46.0773 66.2085 50.8111 66.1781C52.5743 66.168 53.9535 66.6975 54.7391 68.4025C54.8275 68.595 55.2165 68.7445 55.4716 68.7495C56.9873 68.7825 58.5029 68.7799 60.0185 68.7647C61.1679 68.7521 62.052 69.2233 62.5749 70.2367C62.8325 70.7357 63.1028 70.7281 63.5524 70.5736C65.0403 70.0593 66.5483 69.6058 68.0235 69.0612C68.3267 68.9497 68.5641 68.5646 68.7561 68.2581C69.0188 67.8375 69.14 67.3182 69.4406 66.9305C71.6686 64.0576 73.9143 61.1999 76.1751 58.3524C77.9004 56.1812 80.5098 55.3578 83.0206 56.1457C85.5669 56.9463 87.3225 59.1808 87.4564 61.9321C87.5423 63.7182 86.8804 65.2762 85.6856 66.5961C85.1122 67.2295 84.2534 67.3055 83.6522 66.8115C83.0585 66.325 83.0257 65.5093 83.4627 64.7594C83.8669 64.0652 84.3569 63.3432 84.4807 62.5781C84.7409 60.9694 83.9224 59.6672 82.5205 59.0566C81.0882 58.4334 79.56 58.7754 78.5192 60.0548C76.9632 61.9676 75.4627 63.9234 73.9395 65.864C73.1792 66.8317 72.4214 67.8046 71.6206 68.8281C72.9721 70.7408 74.3109 72.6383 75.7153 74.6296C76.7889 73.2692 77.7993 71.9822 78.8123 70.7003C79.0068 70.452 79.1912 70.1911 79.4135 69.9681C79.9667 69.4108 80.8331 69.3449 81.3762 69.8364C81.9749 70.376 82.1037 71.0879 81.6364 71.7137C80.3481 73.4338 79.0396 75.1414 77.6326 76.7628C76.7965 77.7255 75.3112 77.8395 74.2477 77.1124C73.7248 76.7552 73.3105 76.7729 72.77 76.9553C69.7615 77.9763 66.7479 78.9846 63.7267 79.9625C63.1836 80.1373 62.9235 80.3501 62.8805 80.9784C62.7845 82.3844 61.6731 83.4003 60.2332 83.4409C58.657 83.4839 57.0757 83.4688 55.4969 83.4485C55.0043 83.4409 54.7214 83.5448 54.4941 84.0565C53.5417 86.1998 51.8165 87.2132 49.5127 87.3956C44.4505 87.7984 39.3934 88.2493 34.3337 88.6699C30.186 89.0144 26.0357 89.3438 21.8854 89.6832C20.8169 89.7719 19.7458 89.8479 18.6824 89.9771C16.4595 90.2431 14.7013 88.7712 14.618 86.5241C14.5927 85.835 14.6129 85.1459 14.6129 84.3479C14.0294 84.3479 13.5343 84.3479 13.0392 84.3479C12.5719 84.3479 12.1046 84.3479 11.6095 84.3479C11.5412 84.9812 11.5311 85.5487 11.4124 86.0908C10.9552 88.1683 9.33096 89.4704 7.21667 89.4856C5.86018 89.4958 4.49612 89.4198 3.14469 89.5059C1.68716 89.5996 0.64138 89.093 -0.0078125 87.7806V65.9298L-0.00276042 65.9248ZM17.5532 76.2029C17.5532 79.4305 17.5785 82.6606 17.5381 85.8882C17.5254 86.7774 17.7376 87.1422 18.7026 87.0459C21.3372 86.7875 23.982 86.6127 26.6217 86.3949C30.8958 86.0402 35.1673 85.6728 39.4389 85.3105C42.7682 85.0293 46.1026 84.7912 49.4293 84.4568C51.3315 84.2668 52.0741 83.3522 52.0766 81.4445C52.0842 77.7407 52.0817 74.0368 52.0766 70.3329C52.0766 69.1422 52.0539 69.1245 50.8439 69.122C45.3826 69.122 39.9239 69.1042 34.4626 69.1321C32.8762 69.1397 31.5096 68.6811 30.2845 67.6652C28.5592 66.2313 26.7859 64.8582 25.0455 63.4471C23.5071 62.1981 21.8121 61.8611 20.0237 62.7453C18.2706 63.6117 17.5204 65.1242 17.5431 67.0851C17.5785 70.1227 17.5532 73.1628 17.5532 76.2003V76.2029ZM2.88198 86.6229C4.19299 86.6229 5.39034 86.6229 6.58768 86.6229C8.23466 86.6203 8.64135 86.2125 8.64135 84.5404C8.64388 80.7428 8.64135 76.9477 8.64135 73.1501C8.64135 71.663 8.64135 70.1759 8.63883 68.6887C8.6363 67.8096 8.23971 67.1661 7.34044 67.1205C5.87029 67.0496 4.39508 67.1003 2.88451 67.1003V86.6203L2.88198 86.6229ZM32.174 65.4535C32.563 65.0001 32.8737 64.6479 33.1768 64.2882C35.0486 62.0664 36.9532 59.8724 38.777 57.6151C40.0982 55.9785 39.886 53.663 38.4007 52.2975C36.8951 50.9117 34.4651 50.8281 33.1035 52.338C30.6987 55.0006 28.4304 57.7899 26.0635 60.5742C28.1247 62.2234 30.1127 63.8119 32.1714 65.4586L32.174 65.4535ZM60.021 71.6934H54.9791V80.5072H60.021V71.6934ZM14.5397 81.3939V72.3597H11.612V81.3939H14.5397ZM71.8631 74.2116C71.2872 73.3832 70.7719 72.5953 70.1959 71.8581C70.0696 71.6959 69.6831 71.592 69.4785 71.6554C67.4173 72.3115 65.3687 73.0006 63.3251 73.7125C63.1533 73.7733 62.9563 74.0571 62.9487 74.2445C62.9108 75.1794 62.931 76.1142 62.931 77.1656C65.9547 76.1649 68.8647 75.2047 71.8631 74.2116Z" fill="url(#paint0_linear_1782_4689)"/>
<path d="M96.9963 43.504C96.2435 44.9708 95.0234 45.4167 93.4245 45.3888C89.5116 45.3204 85.5937 45.3686 81.6809 45.366C79.41 45.366 78.4425 44.2361 78.8037 42.0194C80.5391 31.3258 74.5853 21.6228 64.428 18.7524C58.9516 17.2045 53.6974 17.9265 48.7489 20.7715C48.5569 20.8805 48.3725 21.0021 48.1805 21.111C47.2206 21.6582 46.4123 21.5214 45.9627 20.7411C45.5433 20.014 45.7707 19.1248 46.6649 18.6764C48.4609 17.7745 50.2393 16.7484 52.1439 16.1708C65.3576 12.1629 78.5713 19.9912 81.5571 33.5349C82.1962 36.4357 82.1912 39.3694 81.6733 42.3589H94.0787V34.0036C92.5934 34.0036 91.1182 34.0061 89.643 34.0036C88.2461 33.9985 87.607 33.54 87.2963 32.1745C86.4955 28.6606 85.1517 25.3824 83.2092 22.3448C82.5297 21.2807 82.6534 20.4422 83.5502 19.5225C84.6086 18.4382 85.7024 17.3869 86.738 16.3634C84.7425 14.3594 82.8075 12.4188 80.7488 10.3515C79.8268 11.299 78.8719 12.2947 77.9019 13.27C76.6414 14.5393 75.8988 14.6229 74.4034 13.6729C71.5287 11.8463 68.4318 10.5694 65.1 9.85499C63.7233 9.56111 63.1372 8.82135 63.1246 7.38236C63.112 5.96111 63.1221 4.53986 63.1221 3.0426H54.7432C54.7432 4.43345 54.7432 5.8471 54.7432 7.26329C54.7407 8.91762 54.2784 9.50284 52.6339 9.88032C49.3526 10.6353 46.2835 11.9045 43.4341 13.7058C41.9867 14.6204 41.2541 14.5266 40.024 13.2827C39.0514 12.2972 38.0991 11.2914 37.1544 10.3135C35.1108 12.3833 33.1809 14.3366 31.1727 16.3684C32.1579 17.3489 33.2137 18.385 34.2519 19.4364C35.2523 20.4472 35.3685 21.2934 34.6056 22.4943C32.706 25.4812 31.3647 28.6885 30.6296 32.1593C30.3517 33.4767 29.6318 34.0011 28.2779 34.0061C26.8279 34.0112 25.378 34.0061 23.8447 34.0061V42.3741H36.1616C36.1616 42.1688 36.1844 41.989 36.1591 41.8192C35.1815 35.397 36.6668 29.5929 40.4862 24.369C40.7464 24.0118 41.0167 23.6495 41.3425 23.3607C41.9134 22.854 42.5651 22.8464 43.1512 23.3303C43.7271 23.8066 43.8938 24.4349 43.52 25.1113C43.3078 25.4964 43.0022 25.8257 42.7394 26.1829C39.2434 30.9559 38.1067 36.2736 39.1297 42.0726C39.4783 44.0537 38.4527 45.361 36.4344 45.366C32.2665 45.3762 28.0985 45.3762 23.9305 45.366C21.9021 45.361 20.8614 44.2944 20.8563 42.2398C20.8488 39.5797 20.8513 36.9196 20.8563 34.2595C20.8614 32.1618 21.8516 31.1586 23.9103 31.156C25.2037 31.156 26.497 31.156 27.7903 31.156C28.2779 29.6461 28.6669 28.1438 29.2504 26.7225C29.9072 25.1214 30.6978 23.5684 31.5188 22.0433C31.8421 21.4454 31.9027 21.0831 31.3596 20.6018C30.5563 19.8899 29.8187 19.102 29.0736 18.3268C27.7752 16.9764 27.755 15.5552 29.0483 14.2378C31.0211 12.2313 33.0091 10.2375 35.0098 8.25893C36.3107 6.96941 37.7707 6.97955 39.0868 8.27666C40.0517 9.2267 40.9813 10.2122 41.7467 10.9976C44.4496 9.86005 46.9605 8.78335 49.4865 7.74717C50.2342 7.44063 51.3507 7.46343 51.7145 6.93394C52.1186 6.34619 51.861 5.29482 51.8787 4.44612C51.8913 3.90903 51.8711 3.36941 51.8837 2.83233C51.9267 1.1932 52.8764 0.0860905 54.4906 0.0506225C57.4562 -0.0152466 60.4268 -0.0152466 63.3924 0.0506225C65.0191 0.0860905 65.9942 1.20587 66.0498 2.91846C66.0876 4.08891 66.0321 5.26188 66.0801 6.43233C66.0927 6.69834 66.3251 7.13662 66.5322 7.18729C69.854 8.02078 72.9585 9.3635 75.9316 11.1977C76.9042 10.2071 77.8413 9.22416 78.8088 8.27159C80.1122 6.98715 81.5824 6.97195 82.8934 8.26399C84.8991 10.2375 86.8871 12.2313 88.8549 14.2429C90.1431 15.5603 90.1128 16.9993 88.817 18.3369C88.0036 19.178 87.1523 19.9811 86.3566 20.8399C86.1949 21.0122 86.0737 21.4378 86.1722 21.605C87.943 24.5793 89.2136 27.7562 90.0269 31.1611C91.2723 31.1611 92.4747 31.2346 93.6644 31.1434C95.2483 31.0218 96.342 31.6222 96.9963 33.0612V43.5116V43.504Z" fill="url(#paint1_linear_1782_4689)"/>
<path d="M60.4147 49.9287C60.4147 50.8889 60.4324 51.7427 60.4096 52.5939C60.3844 53.5845 59.7832 54.2406 58.9445 54.2381C58.1286 54.2356 57.5552 53.6453 57.5122 52.675C57.4744 51.7959 57.5047 50.9142 57.5047 49.9515H54.7109C54.7109 50.7749 54.721 51.5881 54.7109 52.4014C54.6932 53.549 54.1349 54.2406 53.2432 54.2406C52.349 54.2406 51.7958 53.5541 51.7756 52.4014C51.763 51.6135 51.7756 50.8256 51.7756 50.1694C50.8435 49.8401 49.8053 49.7539 49.242 49.1915C48.6762 48.6266 48.5852 47.5853 48.2265 46.5872C47.5596 46.5872 46.6831 46.6049 45.8066 46.5821C44.8113 46.5568 44.1545 45.9563 44.1722 45.1279C44.1899 44.2893 44.8467 43.7244 45.852 43.7092C46.7008 43.6965 47.547 43.7066 48.464 43.7066V40.8565C47.5647 40.8565 46.6907 40.8692 45.8167 40.854C44.8113 40.8363 44.1646 40.2612 44.1722 39.4176C44.1798 38.5765 44.834 38.0191 45.8419 38.0014C46.6629 37.9887 47.4813 37.9862 48.3023 37.9786C48.3301 37.9786 48.3579 37.9583 48.4614 37.9203V35.1437C47.5925 35.1437 46.7185 35.1538 45.847 35.1437C44.8416 35.131 44.1874 34.5686 44.1747 33.7275C44.1621 32.8864 44.8113 32.3062 45.8167 32.291C46.6932 32.2784 47.5697 32.2885 48.4337 32.2885C48.7166 29.2534 49.1536 29.1217 51.7781 28.9292C51.7781 28.1033 51.7655 27.2596 51.7807 26.4185C51.8034 25.2557 52.3591 24.6198 53.2963 24.6477C54.1855 24.673 54.6957 25.2962 54.7159 26.4211C54.7311 27.2419 54.7184 28.0602 54.7184 28.952H57.5047C57.5047 28.1691 57.4996 27.4192 57.5047 26.6693C57.5148 25.2937 57.9745 24.6527 58.947 24.6477C59.917 24.6426 60.4147 25.3165 60.4197 26.6465C60.4197 27.399 60.4197 28.1539 60.4197 28.9646H63.2388C63.2388 28.0501 63.2236 27.176 63.2413 26.302C63.264 25.2304 63.7642 24.6553 64.6458 24.6451C65.5451 24.635 66.0983 25.2709 66.1109 26.3552C66.121 27.2039 66.1109 28.0526 66.1109 28.8836C68.0593 29.3007 69.1708 30.4357 69.4453 32.2885C70.3344 32.2885 71.2413 32.2758 72.1481 32.291C73.1181 32.3088 73.6915 32.8408 73.6966 33.6945C73.7016 34.5458 73.1181 35.1183 72.1759 35.1411C71.2665 35.1614 70.3572 35.1462 69.3947 35.1462V38.0039C70.337 38.0039 71.2438 37.9912 72.1507 38.0064C73.108 38.0242 73.6915 38.5714 73.6966 39.4226C73.7016 40.2764 73.1282 40.8337 72.1734 40.854C71.2665 40.8743 70.3572 40.8591 69.3947 40.8591V43.7117C70.2435 43.7117 71.1125 43.7041 71.9814 43.7117C73.0752 43.7244 73.6966 44.2564 73.6966 45.1634C73.6966 46.0703 73.1005 46.572 71.9688 46.5897C71.1251 46.6024 70.2789 46.5922 69.4554 46.5922C69.1253 48.6088 68.0113 49.7328 66.1134 49.9642C66.1134 50.6862 66.1134 51.4311 66.1134 52.1759C66.1134 53.5161 65.6309 54.2204 64.6988 54.2457C63.7187 54.271 63.2413 53.587 63.2337 52.1506C63.2287 51.4868 63.2211 50.823 63.2059 50.1593C63.2059 50.1036 63.1554 50.0503 63.0973 49.9363H60.4147V49.9287ZM66.4368 31.9566H51.5205V46.8937H66.4368V31.9566Z" fill="url(#paint2_linear_1782_4689)"/>
<path d="M58.9214 44.2716C58.007 44.2716 57.09 44.2868 56.1756 44.2665C54.9909 44.2412 54.1901 43.6104 54.1447 42.4602C54.0664 40.4385 54.0664 38.4092 54.1447 36.3876C54.1876 35.245 55.0111 34.5914 56.1781 34.5812C58.0095 34.5635 59.8409 34.566 61.6723 34.5812C62.9328 34.5914 63.7765 35.3666 63.8043 36.6282C63.8472 38.4954 63.8472 40.365 63.8043 42.2322C63.7739 43.4913 62.9403 44.2462 61.6672 44.2716C60.7528 44.2893 59.8358 44.2741 58.9214 44.2741V44.2716ZM60.8639 37.4845H57.0648V41.3404H60.8639V37.4845Z" fill="url(#paint3_linear_1782_4689)"/>
</g>
<defs>
<linearGradient id="paint0_linear_1782_4689" x1="43.728" y1="48.3425" x2="43.728" y2="90.0081" gradientUnits="userSpaceOnUse">
<stop stop-color="#6306FC"/>
<stop offset="1" stop-color="#4DAFB2"/>
</linearGradient>
<linearGradient id="paint1_linear_1782_4689" x1="58.9239" y1="0.0012207" x2="58.9239" y2="45.3901" gradientUnits="userSpaceOnUse">
<stop stop-color="#6306FC"/>
<stop offset="1" stop-color="#4DAFB2"/>
</linearGradient>
<linearGradient id="paint2_linear_1782_4689" x1="58.9343" y1="24.645" x2="58.9343" y2="54.2464" gradientUnits="userSpaceOnUse">
<stop stop-color="#6306FC"/>
<stop offset="1" stop-color="#4DAFB2"/>
</linearGradient>
<linearGradient id="paint3_linear_1782_4689" x1="58.9612" y1="34.5688" x2="58.9612" y2="44.2802" gradientUnits="userSpaceOnUse">
<stop stop-color="#6306FC"/>
<stop offset="1" stop-color="#4DAFB2"/>
</linearGradient>
<clipPath id="clip0_1782_4689">
<rect width="97" height="90" fill="white"/>
</clipPath>
</defs>
</svg>
