<svg width="310" height="214" viewBox="0 0 310 214" fill="none" xmlns="http://www.w3.org/2000/svg">
<g clip-path="url(#clip0_1782_6267)">
<path d="M170.312 85.6778C174.961 73.8877 175.858 60.9504 172.882 48.6314C169.906 36.3124 163.201 25.2117 153.683 16.8441C144.165 8.47639 132.297 3.24933 119.698 1.87614C107.099 0.502955 94.3835 3.05053 83.2861 9.17123L130.72 56.6435L106.315 81.0109L58.9379 33.6342C52.9583 44.6503 50.4816 57.2284 51.8387 69.6891C53.1958 82.1498 58.3221 93.8999 66.5329 103.37C74.7438 112.841 85.6485 119.581 97.791 122.691C109.933 125.801 122.736 125.133 134.488 120.775L222.289 208.576C224.372 210.656 227.196 211.824 230.14 211.824C233.085 211.824 235.908 210.656 237.992 208.576L257.778 188.789C259.859 186.706 261.027 183.882 261.027 180.938C261.027 177.994 259.859 175.17 257.778 173.087L170.312 85.6778Z" stroke="#312458" stroke-width="3" stroke-miterlimit="10" stroke-linecap="round"/>
<path d="M238.547 208.002H304.792" stroke="#312458" stroke-width="3" stroke-miterlimit="10" stroke-linecap="round"/>
<path d="M246.75 199.701H269.798L302.552 182.066" stroke="#312458" stroke-width="3" stroke-miterlimit="10" stroke-linecap="round"/>
<path d="M54.138 44.4025H5.71887" stroke="#312458" stroke-width="3" stroke-miterlimit="10" stroke-linecap="round"/>
<path d="M51.9007 52.2349H29.9242L4.73438 59.7899" stroke="#312458" stroke-width="3" stroke-miterlimit="10" stroke-linecap="round"/>
<path d="M4.45261 48.6486C6.7607 48.6486 8.63178 46.7775 8.63178 44.4695C8.63178 42.1614 6.7607 40.2903 4.45261 40.2903C2.14452 40.2903 0.273438 42.1614 0.273438 44.4695C0.273438 46.7775 2.14452 48.6486 4.45261 48.6486Z" fill="#312458"/>
<path d="M4.17917 64.2272C6.48726 64.2272 8.35834 62.3562 8.35834 60.0481C8.35834 57.74 6.48726 55.8689 4.17917 55.8689C1.87108 55.8689 0 57.74 0 60.0481C0 62.3562 1.87108 64.2272 4.17917 64.2272Z" fill="#312458"/>
<path d="M303.437 185.423C305.745 185.423 307.616 183.552 307.616 181.244C307.616 178.936 305.745 177.065 303.437 177.065C301.129 177.065 299.258 178.936 299.258 181.244C299.258 183.552 301.129 185.423 303.437 185.423Z" fill="#312458"/>
<path d="M305.46 212.086C307.769 212.086 309.64 210.215 309.64 207.907C309.64 205.599 307.769 203.728 305.46 203.728C303.152 203.728 301.281 205.599 301.281 207.907C301.281 210.215 303.152 212.086 305.46 212.086Z" fill="#312458"/>
<path d="M144.145 114.351L144.138 114.357C141.434 117.061 141.434 121.445 144.138 124.149L190.162 170.173C192.866 172.877 197.25 172.877 199.954 170.173L199.961 170.167C202.665 167.463 202.665 163.079 199.961 160.375L153.937 114.351C151.233 111.647 146.849 111.647 144.145 114.351Z" stroke="#312458" stroke-width="2" stroke-miterlimit="10"/>
<path d="M150.143 124.601C152.483 124.601 154.379 122.704 154.379 120.364C154.379 118.024 152.483 116.127 150.143 116.127C147.803 116.127 145.906 118.024 145.906 120.364C145.906 122.704 147.803 124.601 150.143 124.601Z" stroke="#312458" stroke-width="2" stroke-miterlimit="10"/>
<path d="M161.096 135.55C163.436 135.55 165.332 133.654 165.332 131.314C165.332 128.974 163.436 127.077 161.096 127.077C158.756 127.077 156.859 128.974 156.859 131.314C156.859 133.654 158.756 135.55 161.096 135.55Z" stroke="#312458" stroke-width="2" stroke-miterlimit="10"/>
<path d="M172.041 146.5C174.381 146.5 176.278 144.604 176.278 142.264C176.278 139.924 174.381 138.027 172.041 138.027C169.701 138.027 167.805 139.924 167.805 142.264C167.805 144.604 169.701 146.5 172.041 146.5Z" stroke="#312458" stroke-width="2" stroke-miterlimit="10"/>
<path d="M182.994 157.451C185.334 157.451 187.231 155.554 187.231 153.214C187.231 150.874 185.334 148.977 182.994 148.977C180.655 148.977 178.758 150.874 178.758 153.214C178.758 155.554 180.655 157.451 182.994 157.451Z" stroke="#312458" stroke-width="2" stroke-miterlimit="10"/>
<path d="M193.955 168.41C196.295 168.41 198.192 166.513 198.192 164.174C198.192 161.834 196.295 159.937 193.955 159.937C191.616 159.937 189.719 161.834 189.719 164.174C189.719 166.513 191.616 168.41 193.955 168.41Z" stroke="#312458" stroke-width="2" stroke-miterlimit="10"/>
</g>
<defs>
<clipPath id="clip0_1782_6267">
<rect width="309.641" height="213.262" fill="white"/>
</clipPath>
</defs>
</svg>
