<svg width="111" height="112" viewBox="0 0 111 112" fill="none" xmlns="http://www.w3.org/2000/svg">
<path d="M64.6892 4.20571H57.4419V7.77892H64.6892V4.20571ZM51.8377 52.2926H59.1108V48.6276H51.8377V52.2926ZM83.2383 48.6002C83.2383 51.3647 83.3833 54.0422 83.1916 56.6955C83.0482 58.6851 83.5975 59.837 85.5209 60.6054C87.2671 61.303 88.8361 62.4404 90.5629 63.4295V48.6002H83.2383ZM27.7456 48.6308H20.45V63.3699C22.8034 62.0714 25.0812 60.8326 27.3332 59.5502C27.5474 59.4278 27.7262 59.046 27.7295 58.7818C27.7552 55.426 27.7456 52.0703 27.7456 48.6308ZM79.5075 48.6147H62.9543V52.7856C68.7019 53.6282 74.1611 55.2746 79.5075 57.5912V48.6147ZM31.4796 48.6147V57.5961C36.847 55.2472 42.3561 53.6523 48.0538 52.7727V48.6147H31.4796ZM43.4225 20.6428C34.4822 23.0786 26.953 27.5202 21.6452 35.543H35.5663C36.9678 29.9399 39.5983 24.9941 43.4225 20.6428ZM67.4099 20.4753C67.5726 20.7781 67.6049 20.8845 67.6741 20.9602C71.3179 24.9957 73.8631 29.6306 75.2146 34.9002C75.3902 35.5897 75.7929 35.5865 76.3245 35.5849C80.3307 35.5752 84.3385 35.5801 88.3448 35.5768C88.6122 35.5768 88.8812 35.5446 89.3354 35.5156C83.9906 27.5089 76.4807 23.0448 67.4099 20.4753ZM39.4227 35.5124H71.5547C69.9857 30.5038 67.7917 25.9623 63.8773 22.4649C58.6968 17.838 52.7704 17.7317 47.4465 22.1942C43.2904 25.6788 41.061 30.3668 39.4227 35.5124ZM55.5894 39.2757C43.2002 39.2757 30.8094 39.2741 18.4203 39.2757C16.1328 39.2757 14.7861 40.318 14.7958 42.0756C14.8055 43.8348 16.1425 44.8562 18.4412 44.8578H92.5636C94.8527 44.8562 96.1977 43.8139 96.1881 42.0547C96.1784 40.2971 94.843 39.2757 92.5427 39.2757C80.2244 39.2741 67.9077 39.2757 55.5894 39.2757ZM77.6679 78.1074C77.6357 65.8299 67.716 55.9319 55.4541 55.9416C43.2018 55.9496 33.2853 65.9089 33.3176 78.1734C33.3482 90.4477 43.2888 100.375 55.5266 100.352C67.7708 100.33 77.7001 90.3543 77.6679 78.1074ZM73.3846 59.2361C84.1388 69.8027 83.6136 86.0706 74.443 95.843C65.406 105.47 50.6908 106.885 40.1653 99.044C33.717 94.2416 30.1651 87.7557 29.677 79.7136C29.1905 71.7149 32.0643 64.9519 37.6315 59.2312C24.4513 63.9676 13.4894 71.9437 3.71949 81.7902C3.90313 82.0109 4.02717 82.1832 4.17376 82.3315C11.7336 89.9451 20.1423 96.4133 29.7753 101.206C37.087 104.844 44.7676 107.225 52.9653 107.668C60.8086 108.091 68.333 106.574 75.6012 103.685C87.3718 99.0102 97.3511 91.6866 106.306 82.8534C106.63 82.5344 107.082 82.3443 107.538 82.0544C97.4719 71.9308 86.5213 63.9434 73.3846 59.2361ZM0 80.8703C1.63825 79.0724 3.12508 77.0989 4.94536 75.5105C8.50377 72.4012 12.2571 69.5159 15.9041 66.5098C16.2472 66.2262 16.629 65.7349 16.6322 65.3369C16.6773 59.845 16.6612 54.3531 16.6564 48.8612C16.6564 48.7581 16.6161 48.6534 16.5823 48.4939C16.2263 48.3843 15.8509 48.278 15.4837 48.1523C12.7581 47.2276 10.9201 44.5308 11.1021 41.7325C11.2986 38.7376 13.4056 36.2825 16.3245 35.7685C17.1138 35.63 17.5552 35.2965 17.9579 34.6038C22.3089 27.1094 28.8522 22.199 36.7213 18.9222C41.7939 16.8102 47.0969 15.6229 52.5932 15.3909C53.4759 15.3523 53.6612 15.0204 53.6515 14.2181C53.6145 11.0396 53.6274 7.85947 53.6402 4.67934C53.6515 1.85042 55.0836 0.447229 57.9332 0.444006C60.1369 0.440785 62.3421 0.429507 64.5458 0.447228C66.8719 0.464949 68.3942 1.97446 68.4538 4.31525C68.4812 5.4349 68.4812 6.55616 68.4522 7.67581C68.3926 10.0182 66.8816 11.5036 64.5345 11.5213C62.194 11.5406 59.8534 11.5261 57.3614 11.5261C57.3614 12.6957 57.3001 13.7703 57.4113 14.8271C57.4338 15.0446 58.0895 15.3297 58.468 15.3523C62.8528 15.6068 67.1377 16.3946 71.2921 17.8123C79.4528 20.5977 86.423 25.0795 91.5166 32.1889C91.6422 32.3661 91.7823 32.5353 91.8854 32.7237C92.8036 34.396 93.8024 35.7073 95.9497 36.2406C98.4755 36.8689 99.98 39.6543 99.8866 42.2416C99.7884 44.9722 98.0261 47.3195 95.4294 48.1749C95.0927 48.2861 94.7512 48.3843 94.3211 48.518V50.4545C94.3211 55.2955 94.3388 60.1382 94.3034 64.9793C94.2969 65.7155 94.5353 66.1586 95.1265 66.5726C100.313 70.2183 105.099 74.3344 109.534 78.8613C111.477 80.8445 111.499 82.8276 109.537 84.8108C100.615 93.8308 90.5855 101.285 78.8793 106.332C72.6742 109.006 66.2292 110.78 59.4619 111.26C59.2187 111.276 58.9835 111.376 58.7435 111.438H52.242C52.039 111.38 51.8377 111.281 51.6315 111.267C45.0898 110.814 38.8396 109.147 32.8134 106.627C21.0202 101.694 10.9217 94.2835 1.93948 85.2796C1.1711 84.5095 0.641125 83.501 0 82.6053V80.8703Z" fill="url(#paint0_linear_2059_327)"/>
<path d="M66.3015 72.8286C66.3064 70.7181 64.6918 69.0846 62.6045 69.0879C60.5383 69.0928 58.8898 70.7753 58.9123 72.8548C58.9365 74.8689 60.5866 76.5449 62.5755 76.571C64.6143 76.5988 66.2951 74.9097 66.3015 72.8286ZM55.3363 71.053C52.0054 70.5548 48.4084 73.5948 47.8697 77.3616C47.3019 81.3295 50.0634 85.1862 53.9168 85.8102C57.7655 86.4326 61.6287 83.9104 62.2222 80.3869C56.7154 78.9184 55.1476 76.7915 55.3363 71.053ZM44.1146 78.3957C44.1372 71.7015 49.8811 66.5494 56.4493 67.2763C57.0122 67.3384 57.7236 67.1195 58.1897 66.7814C61.4754 64.3932 66.0306 65.0008 68.4727 68.2189C70.9615 71.4957 70.397 76.1692 67.129 78.6783C66.4806 79.1765 66.237 79.7155 66.1031 80.4572C65.0692 86.1467 59.9108 90.1831 54.3911 89.6489C48.4149 89.0723 44.0952 84.3417 44.1146 78.3957ZM38.5352 76.5874C39.6304 76.5841 40.2724 77.3731 40.4321 78.6864C40.6143 80.2023 40.7515 81.7525 41.1918 83.1998C42.0983 86.1794 43.892 88.5839 46.3631 90.4575C46.5954 90.6323 46.839 90.7924 47.0567 90.9835C47.881 91.7039 48.0326 92.684 47.4632 93.5253C46.8857 94.3796 45.7695 94.6638 44.8985 93.9663C43.5468 92.8833 42.1741 91.7725 41.0531 90.4592C38.1932 87.1072 36.7673 83.1459 36.7189 78.7011C36.706 77.3845 37.4109 76.589 38.5352 76.5874Z" fill="url(#paint1_linear_2059_327)"/>
<defs>
<linearGradient id="paint0_linear_2059_327" x1="55.5" y1="0.4375" x2="55.5" y2="111.438" gradientUnits="userSpaceOnUse">
<stop stop-color="#630CFA"/>
<stop offset="1" stop-color="#4EAAB5"/>
</linearGradient>
<linearGradient id="paint1_linear_2059_327" x1="53.3687" y1="65.3281" x2="53.3687" y2="94.3589" gradientUnits="userSpaceOnUse">
<stop stop-color="#630CFA"/>
<stop offset="1" stop-color="#4EAAB5"/>
</linearGradient>
</defs>
</svg>
