<svg width="116" height="116" viewBox="0 0 116 116" fill="none" xmlns="http://www.w3.org/2000/svg">
<path d="M88.4455 96.3539H67.5083V111.54H88.4455V96.3539ZM71.3647 92.3939C71.627 92.4152 71.8096 92.4421 71.9912 92.4421C76.7833 92.4454 81.5755 92.4645 86.3666 92.4141C86.8462 92.4096 87.4256 92.0803 87.7843 91.7252C91.9623 87.5949 96.1571 83.477 100.233 79.247C101.513 77.9196 102.702 76.3838 103.499 74.7348C106.177 69.1853 108.672 63.5461 111.202 57.9248C111.418 57.4443 111.518 56.8203 111.423 56.3084C111.237 55.3002 110.553 54.6672 109.499 54.5541C108.346 54.4297 107.542 54.9641 107.094 56.0003C105.713 59.1884 104.428 62.4203 102.956 65.5647C102.106 67.3806 101.228 69.2962 99.9092 70.758C96.4787 74.5601 92.7983 78.1358 89.2165 81.8C89.1392 81.8796 89.0439 81.9457 88.9476 82.0005C88.0981 82.4856 87.2766 82.4329 86.5851 81.7429C85.8936 81.0528 85.8107 80.2205 86.3318 79.3893C86.5459 79.0465 86.8585 78.7598 87.1477 78.4696C89.8183 75.7934 92.5092 73.1396 95.1563 70.441C96.0551 69.5247 96.8463 68.503 97.6936 67.5217C95.5261 65.9187 93.1782 66.033 91.1856 67.7984C87.5097 71.056 83.4045 73.6045 78.8511 75.4439C77.0736 76.162 75.6548 77.3348 74.4949 78.8639C71.4521 82.8788 70.9456 87.4706 71.3647 92.3939ZM115.359 57.9327C112.725 63.7847 110.086 69.6367 107.456 75.4898C106.339 77.9756 104.817 80.1712 102.884 82.0935C99.3253 85.6301 95.7895 89.1879 92.2312 92.7233C91.9432 93.01 91.5555 93.196 91.2136 93.4301C91.3817 93.4895 91.551 93.55 91.7202 93.6105C91.9342 94.8618 92.3119 96.1108 92.3332 97.3654C92.4083 101.854 92.3657 106.346 92.3612 110.836C92.3579 113.996 90.92 115.428 87.7652 115.429C81.2124 115.43 74.6585 115.43 68.1068 115.429C65.0551 115.428 63.6038 114.009 63.5993 111.002C63.5914 106.287 63.5926 101.572 63.5993 96.8569C63.6027 94.2826 64.4163 93.243 66.865 92.4544C67.1318 92.3682 67.3851 91.8271 67.4142 91.4787C67.6137 89.0635 67.4523 86.5755 67.9701 84.2365C69.2847 78.2926 72.4473 73.7333 78.4028 71.438C81.8815 70.0971 85.052 68.1233 87.7966 65.6062C91.3324 62.3643 95.1193 61.6451 99.5002 63.9606C100.496 61.6518 101.482 59.3677 102.468 57.0835C102.852 56.1919 103.218 55.2901 103.626 54.4085C104.803 51.8566 107.006 50.5224 109.714 50.6961C112.257 50.8596 114.272 52.4884 115.121 55.0638C115.19 55.2755 115.28 55.4794 115.359 55.6866V57.9327ZM84.6698 31.8798C84.6698 27.0135 84.6552 22.1473 84.6844 17.2822C84.6889 16.5205 84.5107 16.0791 83.7519 15.7498C75.3477 12.1079 66.9625 8.42129 58.5583 4.77834C58.1717 4.61031 57.59 4.58343 57.2112 4.7481C48.7387 8.42017 40.284 12.1348 31.8159 15.8181C31.2186 16.078 30.9731 16.3872 30.9742 17.0604C30.9967 26.3806 30.9462 35.7008 31.0067 45.021C31.046 50.966 33.5922 55.6889 38.4012 59.1727C44.5842 63.6514 50.7963 68.0908 56.968 72.584C57.6293 73.0657 58.035 73.0713 58.6962 72.5907C64.7783 68.1636 70.8806 63.7645 76.9952 59.3822C82.1134 55.7124 84.69 50.7599 84.672 44.4576C84.6597 40.2646 84.6687 36.0727 84.6698 31.8798ZM58.5034 0.4375C61.4912 1.784 64.4701 3.15291 67.4702 4.47252C73.8695 7.28651 80.2688 10.0994 86.6927 12.8562C88.0174 13.4253 88.543 14.261 88.5374 15.6904C88.5004 25.2727 88.5284 34.8539 88.5161 44.4352C88.506 52.0034 85.4375 58.0178 79.2837 62.4505C72.9684 66.9997 66.6588 71.559 60.3425 76.1071C58.4922 77.4401 57.172 77.4357 55.3161 76.0992C48.9695 71.5276 42.624 66.956 36.2842 62.3755C30.2861 58.0402 27.1963 52.1613 27.1537 44.7679C27.0977 34.9996 27.1481 25.2313 27.1291 15.463C27.1268 14.224 27.6054 13.469 28.7698 12.9638C37.9596 8.9758 47.1315 4.94638 56.3057 0.922554C56.6027 0.792609 56.8728 0.599931 57.1552 0.4375H58.5034ZM48.148 96.3539H27.2131V111.561H48.148V96.3539ZM44.6189 92.4454C44.3499 89.6427 44.3802 86.9508 43.7817 84.4068C42.9121 80.7101 41.0752 77.374 37.415 75.7632C32.5421 73.618 28.0402 70.9888 24.0382 67.4635C22.3022 65.9333 19.6584 66.0699 18.0199 67.5845C18.6856 68.3776 19.3289 69.2009 20.035 69.9672C20.8206 70.8196 21.6611 71.6217 22.4815 72.4428C24.6501 74.6138 26.8388 76.7658 28.9827 78.9614C30.1741 80.1824 29.7527 82.0532 28.1904 82.2537C27.5415 82.3377 26.6382 81.949 26.1417 81.4718C23.2021 78.6455 20.3398 75.7374 17.4663 72.8416C15.3863 70.7446 13.8206 68.3036 12.6685 65.5871C11.3102 62.39 9.94073 59.1974 8.56001 56.0093C8.11284 54.9753 7.31714 54.4331 6.16056 54.5507C5.10261 54.6583 4.40889 55.2912 4.22958 56.2938C4.13208 56.8371 4.26432 57.4958 4.49519 58.0111C6.92489 63.4307 9.32658 68.866 11.8952 74.2206C12.7078 75.9133 13.8049 77.5589 15.1005 78.9099C19.3222 83.3123 23.684 87.5803 28.029 91.8629C28.3753 92.2035 29.0007 92.4163 29.4994 92.4208C34.1044 92.4623 38.7094 92.4454 43.3144 92.4454H44.6189ZM16.1786 64.0009C20.6424 61.7795 23.8947 62.1985 27.5505 65.3799C30.5091 67.9541 33.7626 70.1016 37.4116 71.5198C43.2483 73.7882 46.3078 78.2982 47.6549 84.0819C48.1985 86.412 48.0875 88.9022 48.2007 91.323C48.2343 92.0523 48.3184 92.4242 49.1735 92.5821C50.8153 92.8868 52.0089 94.3274 52.0246 96.0257C52.0705 101.301 52.0817 106.577 52.019 111.851C51.9954 113.849 50.3917 115.396 48.3845 115.408C41.2713 115.448 34.1582 115.446 27.045 115.411C25.002 115.401 23.3758 113.881 23.3422 111.786C23.2581 106.549 23.2817 101.31 23.3489 96.0727C23.3601 95.2673 23.8319 94.4674 24.0908 93.6643C24.241 93.5746 24.3923 93.485 24.5425 93.3943C24.1816 93.1859 23.7557 93.0436 23.4688 92.7591C19.9599 89.282 16.4857 85.769 12.9723 82.2952C10.9258 80.2709 9.31425 77.97 8.13526 75.3397C5.7515 70.0221 3.27585 64.7447 0.924598 59.4125C-0.973888 55.1086 2.14617 50.5157 6.76239 50.7678C9.36468 50.91 11.1477 52.3204 12.1732 54.6885C13.3174 57.3278 14.4381 59.9771 15.5712 62.6208C15.7595 63.0621 15.9578 63.4979 16.1786 64.0009Z" fill="url(#paint0_linear_2059_333)"/>
<path d="M73.9379 106.033C73.7537 106.033 73.5684 106.038 73.3842 106.033C71.954 105.999 71.1651 105.305 71.184 104.1C71.2017 102.96 72.0017 102.248 73.341 102.207C73.8946 102.19 74.4538 102.171 75.0031 102.225C76.1514 102.339 76.8549 103.141 76.8116 104.225C76.7695 105.265 76.0638 105.948 74.9354 106.022C74.6036 106.044 74.2708 106.026 73.9379 106.026V106.033ZM38.8961 34.1126C38.8961 37.7412 38.9061 41.3697 38.8928 44.9994C38.8817 48.4343 40.2797 51.1411 43.0159 53.1436C47.7248 56.5896 52.457 60.0031 57.1571 63.4615C57.7185 63.8747 58.0769 63.8232 58.605 63.4346C63.3384 59.9572 68.1028 56.5246 72.8339 53.045C75.4247 51.1389 76.805 48.535 76.8172 45.2861C76.846 37.6168 76.8205 29.9476 76.8449 22.2783C76.8471 21.6052 76.6019 21.3017 76.0161 21.0452C70.2098 18.5041 64.4213 15.9238 58.6095 13.3961C58.2001 13.2169 57.5843 13.2035 57.177 13.3804C51.3663 15.9081 45.5812 18.4974 39.7705 21.0228C39.0626 21.3308 38.8728 21.7082 38.8795 22.4407C38.9139 26.3313 38.895 30.2219 38.8961 34.1126ZM80.6307 33.4529C80.6307 37.2316 80.6129 41.0114 80.6351 44.7911C80.6629 49.683 78.6934 53.5277 74.7723 56.379C69.6905 60.0737 64.6132 63.774 59.5315 67.4686C58.088 68.518 57.6486 68.5101 56.1674 67.4328C51.0546 63.718 45.9362 60.0099 40.8334 56.2805C37.0665 53.5266 35.107 49.8006 35.0993 45.0857C35.0859 36.965 35.1126 28.8455 35.0782 20.7249C35.0726 19.4124 35.5963 18.6799 36.7736 18.167C43.4009 15.2809 50.0105 12.3546 56.6101 9.40802C57.4999 9.01156 58.2755 9.02612 59.1554 9.41698C65.7927 12.3714 72.44 15.3045 79.094 18.2208C80.1869 18.699 80.654 19.4482 80.644 20.6555C80.6085 24.9202 80.6307 29.1871 80.6307 33.4529ZM41.7144 106.022C41.3815 106.022 41.0475 106.044 40.7169 106.018C39.6528 105.933 38.9705 105.261 38.9139 104.263C38.8551 103.22 39.5042 102.379 40.5749 102.247C41.2661 102.162 41.9796 102.172 42.6764 102.223C43.8347 102.307 44.5582 103.099 44.5393 104.172C44.5204 105.261 43.7948 105.96 42.6009 106.026C42.3058 106.042 42.0095 106.028 41.7144 106.028V106.022Z" fill="url(#paint1_linear_2059_333)"/>
<path d="M53.5642 45.6611C53.8501 45.2402 54.1015 44.8774 54.3461 44.5101C58.6682 38.0343 62.9881 31.5574 67.3136 25.0838C67.5404 24.7444 67.7571 24.3783 68.0576 24.1137C68.786 23.474 69.6171 23.397 70.4169 23.9619C71.1643 24.4899 71.4257 25.2468 71.0995 26.1231C70.9599 26.5004 70.7219 26.8465 70.4963 27.1847C65.6848 34.4085 60.869 41.63 56.0508 48.8493C54.8589 50.6354 54.0199 50.7794 52.3052 49.4968C50.0374 47.8 47.7652 46.1087 45.5086 44.3974C44.4116 43.5646 44.1882 42.5365 44.8428 41.5965C45.5187 40.6264 46.6503 40.5092 47.7842 41.3431C49.6989 42.7508 51.5936 44.1864 53.5642 45.6611Z" fill="url(#paint2_linear_2059_333)"/>
<defs>
<linearGradient id="paint0_linear_2059_333" x1="57.8594" y1="0.4375" x2="57.8594" y2="115.438" gradientUnits="userSpaceOnUse">
<stop stop-color="#630CFA"/>
<stop offset="1" stop-color="#4EAAB5"/>
</linearGradient>
<linearGradient id="paint1_linear_2059_333" x1="57.8611" y1="9.11719" x2="57.8611" y2="106.035" gradientUnits="userSpaceOnUse">
<stop stop-color="#630CFA"/>
<stop offset="1" stop-color="#4EAAB5"/>
</linearGradient>
<linearGradient id="paint2_linear_2059_333" x1="57.8571" y1="23.582" x2="57.8571" y2="50.343" gradientUnits="userSpaceOnUse">
<stop stop-color="#630CFA"/>
<stop offset="1" stop-color="#4EAAB5"/>
</linearGradient>
</defs>
</svg>
