<?xml version="1.0" encoding="UTF-8"?><svg id="Capa_1" xmlns="http://www.w3.org/2000/svg" viewBox="0 0 600 600"><path d="M195.89,424.19h-68.21c-1.72,0-3.12-1.4-3.12-3.12s1.4-3.12,3.12-3.12h68.21c1.72,0,3.12,1.4,3.12,3.12s-1.4,3.12-3.12,3.12h0Z" style="fill:#6c63ff; stroke-width:0px;"/><path d="M74.07,440.88c0,.56.45,1.01,1.01,1.01h173.4c.56,0,1.01-.45,1.01-1.01s-.45-1.01-1.01-1.01H75.08c-.56,0-1.01.45-1.01,1.01Z" style="fill:#3f3d56; stroke-width:0px;"/><circle cx="439.93" cy="182.19" r="55.17" style="fill:#ff6884; stroke-width:0px;"/><path d="M27.74,510.6c0,.56.45,1.01,1.01,1.01h443.32c.56,0,1.01-.45,1.01-1.01s-.45-1.01-1.01-1.01H28.75c-.56,0-1.01.45-1.01,1.01Z" style="fill:#3f3d56; stroke-width:0px;"/><path d="M34.15,442.39l-1.42-1.55,138.41-126.3,49.87,22.35,53.85-92.35,44.24-21.33,40.99,68.32c22.13-57.29,77.63-117.24,144.14-178.05l1.64,1.32c-62.38,59.72-115.74,119.71-146.03,180.39l-37.92-63.38c-1.79-2.99-5.56-4.15-8.72-2.68h0c-24.18,11.25-44.35,29.62-57.82,52.65l-33.73,57.69-7.7-3.45c-25.75-11.54-55.9-6.71-76.74,12.32l-103.06,94.04Z" style="fill:#3f3d56; stroke-width:0px;"/><polygon points="507.35 124.98 505.25 125.13 501.86 117.78 494.26 116.24 493.97 114.15 506.48 112.38 507.35 124.98" style="fill:#3f3d56; stroke-width:0px;"/><polygon points="291.45 169.95 298.89 141.35 327.88 139.95 336.55 179.38 291.45 169.95" style="fill:#ffb6b6; stroke-width:0px;"/><polygon points="291.45 169.95 298.89 141.35 327.88 139.95 336.55 179.38 291.45 169.95" style="fill:#000; isolation:isolate; opacity:.1; stroke-width:0px;"/><circle cx="310.52" cy="122.37" r="34.98" style="fill:#ffb6b6; stroke-width:0px;"/><path d="M329.83,129.77h0s-13.29-26.33-28.86-24.81c-15.57,1.52-23.78,3.37-23.78,3.37,0,0-4.62-20.51,17.14-28.4,0,0-27.67-27.28,5.27-40.66,32.94-13.38,51.38,3.68,51.38,3.68,0,0,24.38,24.34-6.33,42.54,0,0,22.8,30.67-4.81,55.96,0,0,6.18-20.46-.27-16.69-6.44,3.77-9.75,5-9.75,5h0s0,0,0,0Z" style="fill:#2f2e41; stroke-width:0px;"/><polygon points="271.92 314.61 267.27 319.07 233.65 391.16 229.97 510.39 286.46 510.39 312.95 451.35 330.8 509.82 381.59 509.82 393.37 403.67 361.72 328.6 271.92 314.61" style="fill:#2f2e41; stroke-width:0px;"/><path d="M330.44,167.04h-37.72l-41.03,22.08,9.57,42.69s-2.21,25.76,2.94,44.9c5.15,19.14,2.94,44.16,2.94,44.16l94.58,7.73,2.94-86.85-1.47-58.14-32.75-16.56h0Z" style="fill:#e6e6e6; stroke-width:0px;"/><path d="M257.94,189.49s-22.82.74-26.5,15.46-6.62,90.53-6.62,90.53c0,0,2.21,44.98,26.86,23.6s22.45-86.16,22.45-86.16l-16.19-43.42h0Z" style="fill:#e6e6e6; stroke-width:0px;"/><path d="M479.24,564.99h-134.46c-4.55,0-8.26-3.7-8.26-8.26v-139c0-4.55,3.7-8.26,8.26-8.26h134.46c4.55,0,8.26,3.7,8.26,8.26v139c0,4.55-3.7,8.26-8.26,8.26Z" style="fill:#fff; stroke-width:0px;"/><path d="M479.24,565.84h-134.46c-5.02,0-9.11-4.09-9.11-9.11v-139c0-5.02,4.09-9.11,9.11-9.11h134.46c5.02,0,9.11,4.09,9.11,9.11v139c0,5.02-4.09,9.11-9.11,9.11ZM344.78,410.33c-4.09,0-7.41,3.32-7.41,7.41v139c0,4.09,3.32,7.41,7.41,7.41h134.46c4.09,0,7.41-3.32,7.41-7.41v-139c0-4.09-3.32-7.41-7.41-7.41h-134.46Z" style="fill:#3f3d56; stroke-width:0px;"/><path d="M417.32,528.48h-11.08c-1.35,0-2.45-.85-2.45-1.89v-47.71c0-1.04,1.1-1.89,2.45-1.89h11.08c1.35,0,2.45.85,2.45,1.89v47.71c0,1.04-1.1,1.89-2.45,1.89Z" style="fill:#6c63ff; stroke-width:0px;"/><path d="M380.68,500.36c-1.09,0-1.98.68-1.98,1.53v24.65c0,.84.89,1.53,1.98,1.53h11.08c1.09,0,1.98-.68,1.98-1.53v-24.65c0-.84-.89-1.53-1.98-1.53h-11.08Z" style="fill:#6c63ff; stroke-width:0px;"/><path d="M442.88,528.48h-11.08c-1.35,0-2.45-.85-2.45-1.89v-78.19c0-1.04,1.1-1.89,2.45-1.89h11.08c1.35,0,2.45.85,2.45,1.89v78.19c0,1.04-1.1,1.89-2.45,1.89Z" style="fill:#6c63ff; stroke-width:0px;"/><path d="M204.4,185.73h-12.66c-1.54,0-2.8-.97-2.8-2.16v-54.5c0-1.19,1.25-2.16,2.8-2.16h12.66c1.54,0,2.8.97,2.8,2.16v54.5c0,1.19-1.25,2.16-2.8,2.16h0s0,0,0,0Z" style="fill:#6c63ff; stroke-width:0px;"/><path d="M162.55,153.61c-1.25,0-2.26.78-2.26,1.74v28.16c0,.96,1.01,1.74,2.26,1.74h12.66c1.25,0,2.26-.78,2.26-1.74v-28.16c0-.96-1.01-1.74-2.26-1.74h-12.66Z" style="fill:#6c63ff; stroke-width:0px;"/><path d="M233.59,185.73h-12.66c-1.54,0-2.8-.97-2.8-2.16v-89.32c0-1.19,1.25-2.16,2.8-2.16h12.66c1.54,0,2.8.97,2.8,2.16v89.32c0,1.19-1.25,2.16-2.8,2.16h0s0,0,0,0Z" style="fill:#6c63ff; stroke-width:0px;"/><path d="M391.4,429.7c6.56-.63,11.07-9.49,10.09-19.79-.34-4.12-1.66-8.1-3.85-11.61l-1.26-11.66.19-.06,3.18-55.31c.74-12.86-4.35-25.5-14.16-33.85-5.83-4.97-12.06-7.48-16.06-1.21-6.64,10.41,1.96,53.34,7.61,77.75l2.19,26.08c-1.49,3.86-2.03,8.02-1.58,12.13.98,10.3,7.1,18.15,13.66,17.52Z" style="fill:#ffb6b6; stroke-width:0px;"/><path d="M355.09,185.07s19.14-7.36,27.97,14.72c8.83,22.08,18.4,131.01,18.4,131.01l-44.9-8.1-1.47-137.63h0Z" style="fill:#e6e6e6; stroke-width:0px;"/><path d="M92.33,174.27h-25.77c-1.72,0-3.12-1.4-3.12-3.12s1.4-3.12,3.12-3.12h25.77c1.72,0,3.12,1.4,3.12,3.12s-1.4,3.12-3.12,3.12Z" style="fill:#e6e6e6; stroke-width:0px;"/><path d="M92.33,130.07h-25.77c-1.72,0-3.12-1.4-3.12-3.12s1.4-3.12,3.12-3.12h25.77c1.72,0,3.12,1.4,3.12,3.12s-1.4,3.12-3.12,3.12Z" style="fill:#e6e6e6; stroke-width:0px;"/><path d="M92.33,98.19h-25.77c-1.72,0-3.12-1.4-3.12-3.12s1.4-3.12,3.12-3.12h25.77c1.72,0,3.12,1.4,3.12,3.12s-1.4,3.12-3.12,3.12Z" style="fill:#e6e6e6; stroke-width:0px;"/><path d="M62.41,185.88c0,.56.45,1.01,1.01,1.01h173.4c.56,0,1.01-.45,1.01-1.01s-.45-1.01-1.01-1.01H63.42c-.56,0-1.01.45-1.01,1.01Z" style="fill:#3f3d56; stroke-width:0px;"/><path d="M396.84,447.32c0,.56.45,1.01,1.01,1.01h173.4c.56,0,1.01-.45,1.01-1.01s-.45-1.01-1.01-1.01h-173.4c-.56,0-1.01.45-1.01,1.01h0Z" style="fill:#3f3d56; stroke-width:0px;"/><path d="M345.91,529.65c0,.56.45,1.01,1.01,1.01h173.4c.56,0,1.01-.45,1.01-1.01s-.45-1.01-1.01-1.01h-173.4c-.56,0-1.01.45-1.01,1.01h0Z" style="fill:#3f3d56; stroke-width:0px;"/><path d="M229.3,180.78c-6.56.63-11.07,9.49-10.09,19.79.34,4.12,1.66,8.1,3.85,11.61l1.26,11.66-.19.06-3.18,55.31c-.74,12.86,4.35,25.5,14.16,33.85,5.83,4.97,12.06,7.48,16.06,1.21,6.64-10.41-1.96-53.34-7.61-77.75l-2.19-26.08c1.49-3.86,2.03-8.02,1.58-12.13-.98-10.3-7.1-18.15-13.66-17.52h0Z" style="fill:#ffb6b6; stroke-width:0px;"/></svg>