<?xml version="1.0" encoding="UTF-8"?>
<svg xmlns="http://www.w3.org/2000/svg" xmlns:xlink="http://www.w3.org/1999/xlink" viewBox="0 0 736.08 498.85">
  <defs>
    <style>
      .cls-1 {
        stroke-width: 1.14px;
      }

      .cls-1, .cls-2 {
        stroke: #fff;
      }

      .cls-1, .cls-2, .cls-3 {
        fill: #fff;
      }

      .cls-4, .cls-5 {
        fill: none;
      }

      .cls-4, .cls-2, .cls-6 {
        stroke-width: 1.03px;
      }

      .cls-4, .cls-6 {
        stroke: #ffb6b6;
      }

      .cls-7 {
        fill: #f2f2f2;
      }

      .cls-7, .cls-8, .cls-9, .cls-5, .cls-10, .cls-11, .cls-12, .cls-3 {
        stroke-width: 0px;
      }

      .cls-8 {
        fill: #2f2e41;
      }

      .cls-13 {
        clip-path: url(#clippath-2);
      }

      .cls-14 {
        isolation: isolate;
      }

      .cls-9 {
        fill: #cacaca;
      }

      .cls-15 {
        clip-path: url(#clippath-1);
      }

      .cls-16 {
        clip-path: url(#clippath-4);
      }

      .cls-10 {
        fill: #e6e6e6;
      }

      .cls-11 {
        fill: #6c63ff;
      }

      .cls-17 {
        clip-path: url(#clippath);
      }

      .cls-18 {
        clip-path: url(#clippath-3);
      }

      .cls-12, .cls-6 {
        fill: #ffb6b6;
      }

      .cls-19 {
        mix-blend-mode: multiply;
      }
    </style>
    <clipPath id="clippath">
      <rect class="cls-5" x="443.19" y="307.23" width="45" height="37.9" transform="translate(-91.85 214.79) rotate(-23.71)"/>
    </clipPath>
    <clipPath id="clippath-1">
      <rect class="cls-5" x="488.42" y="254.26" width="11.97" height="10.08" transform="translate(-16.93 483.36) rotate(-51.34)"/>
    </clipPath>
    <clipPath id="clippath-2">
      <rect class="cls-5" x="417.26" y="91.92" width="27.2" height="32.3" transform="translate(116.16 421.57) rotate(-58.97)"/>
    </clipPath>
    <clipPath id="clippath-3">
      <rect class="cls-5" x="57.79" y="102.95" width="32.15" height="27.07" transform="translate(-26.12 21.46) rotate(-14.08)"/>
    </clipPath>
    <clipPath id="clippath-4">
      <rect class="cls-5" x="250.39" y="197.54" width="28.99" height="24.41" transform="translate(-43.06 70.73) rotate(-14.08)"/>
    </clipPath>
  </defs>
  <g class="cls-14">
    <g id="Capa_2" data-name="Capa 2">
      <g id="Capa_1-2" data-name="Capa 1">
        <g>
          <path class="cls-7" d="M254.96,476.16c-1.55.07-2.86-1.13-2.93-2.68-.04-.83.29-1.63.9-2.19l.19-.76c-.03-.06-.05-.12-.08-.18-1.62-3.83-6.05-5.63-9.88-4-1.82.77-3.27,2.23-4.02,4.05-2.27,5.48-5.17,10.97-5.88,16.76-.31,2.56-.18,5.16.39,7.67-5.34-11.65-8.12-24.32-8.13-37.14,0-3.22.18-6.43.54-9.63.3-2.62.71-5.22,1.23-7.81,2.86-14.02,9.01-27.16,17.94-38.34,4.32-2.36,7.81-5.98,10.01-10.39.8-1.58,1.36-3.27,1.67-5.02-.49.06-1.84-7.36-1.47-7.81-.68-1.03-1.89-1.54-2.64-2.55-3.69-5-8.77-4.13-11.43,2.67-5.67,2.86-5.72,7.61-2.25,12.17,2.21,2.9,2.52,6.83,4.46,9.94-.2.26-.41.5-.61.76-3.65,4.7-6.83,9.74-9.5,15.05.65-5.96-.13-11.98-2.26-17.58-2.16-5.22-6.22-9.61-9.79-14.12-4.29-5.42-13.08-3.05-13.84,3.81,0,.07-.01.13-.02.2.53.3,1.05.62,1.56.95,1.75,1.17,2.22,3.53,1.05,5.28-.59.89-1.53,1.49-2.59,1.65h-.08c.19,1.92.52,3.82,1,5.68-4.58,17.71,5.31,24.16,19.42,24.45.31.16.62.32.93.47-2.68,7.6-4.36,15.51-5,23.54-.36,4.74-.34,9.5.06,14.23l-.02-.17c-1.02-5.26-3.83-10.01-7.95-13.45-6.12-5.03-14.76-6.88-21.36-10.92-2.03-1.3-4.74-.71-6.04,1.32-.56.87-.79,1.91-.65,2.94,0,.06.02.12.03.18.98.4,1.94.86,2.87,1.38.53.3,1.05.62,1.56.95,1.75,1.17,2.22,3.53,1.05,5.28-.59.89-1.53,1.49-2.59,1.65h-.08c-.06.02-.1.03-.16.04,1.68,4.01,4.04,7.71,6.98,10.92,2.86,15.46,15.16,16.93,28.32,12.42h0c1.44,6.27,3.53,12.38,6.24,18.22h22.29c.08-.25.15-.5.22-.75-2.06.13-4.14,0-6.17-.37,1.65-2.03,3.31-4.08,4.96-6.1.04-.04.07-.08.1-.12.84-1.04,1.69-2.07,2.52-3.11h0c.04-3.19-.32-6.36-1.09-9.45h0Z"/>
          <path class="cls-7" d="M525.66,270.53H17.09c-9.44-.01-17.08-7.66-17.09-17.09V54.09c.01-9.44,7.66-17.08,17.09-17.09h508.57c9.44.01,17.08,7.66,17.09,17.09v199.34c-.01,9.44-7.66,17.08-17.09,17.09Z"/>
          <path class="cls-3" d="M407.05,259.63H97.82c-47.98-.05-86.86-38.94-86.92-86.92v-37.89c.05-47.98,38.94-86.86,86.92-86.92h347.12c47.98.05,86.86,38.94,86.92,86.92-.08,68.89-55.91,124.72-124.8,124.8Z"/>
          <path class="cls-10" d="M327.28,104.98H122.88c-2.43,0-4.41-1.97-4.41-4.41s1.97-4.41,4.41-4.41h204.41c2.43,0,4.41,1.97,4.41,4.41s-1.97,4.41-4.41,4.41Z"/>
          <path class="cls-10" d="M430.76,152.01H122.88c-2.43,0-4.41-1.97-4.41-4.41s1.97-4.41,4.41-4.41h307.88c2.43,0,4.41,1.97,4.41,4.41s-1.97,4.41-4.41,4.41Z"/>
          <path class="cls-10" d="M430.76,199.04H122.88c-2.43,0-4.41-1.97-4.41-4.41s1.97-4.41,4.41-4.41h307.88c2.43,0,4.41,1.97,4.41,4.41s-1.97,4.41-4.41,4.41Z"/>
          <path class="cls-10" d="M430.76,199.04H122.88c-2.43,0-4.41-1.97-4.41-4.41s1.97-4.41,4.41-4.41h307.88c2.43,0,4.41,1.97,4.41,4.41s-1.97,4.41-4.41,4.41Z"/>
          <path class="cls-10" d="M400.96,118.14c2.82-15.36,9.41-28.81,20.99-39.73.89-1.67,2.96-2.31,4.64-1.43l30,15.85c1.67.89,2.31,2.96,1.43,4.64l-20.99,39.73c-.89,1.67-2.96,2.31-4.64,1.43l-30-15.85c-1.67-.89-2.31-2.96-1.43-4.64Z"/>
          <path class="cls-3" d="M409.6,107.36c.37-8.02,6.22-16.69,13.49-25.54.83-1.57,2.77-2.17,4.34-1.34l25.79,13.62c1.57.83,2.17,2.77,1.34,4.34l-18.68,35.35c-.83,1.57-2.77,2.17-4.34,1.34l-15.97-8.44c-6.98-3.7-9.65-12.35-5.97-19.34Z"/>
          <path class="cls-11" d="M439.88,112.47l-20.14-10.57c-.67-.35-.92-1.18-.57-1.84.35-.66,1.17-.92,1.84-.57l20.14,10.57c.67.35.92,1.18.57,1.84-.35.66-1.17.92-1.84.57Z"/>
          <path class="cls-11" d="M427.65,97.61l-4.43-2.32c-.67-.35-.93-1.17-.58-1.84.35-.67,1.17-.93,1.84-.58,0,0,0,0,0,0l4.43,2.32c.67.35.92,1.18.57,1.84-.35.66-1.17.92-1.84.57Z"/>
          <path class="cls-11" d="M434.3,123.1l-20.14-10.57c-.67-.35-.92-1.18-.57-1.84.35-.66,1.17-.92,1.84-.57l20.14,10.57c.67.35.92,1.18.57,1.84-.35.66-1.17.92-1.84.57Z"/>
          <path class="cls-11" d="M437.09,117.78l-20.14-10.57c-.67-.35-.93-1.17-.58-1.84.35-.67,1.17-.93,1.84-.58,0,0,0,0,0,0l20.14,10.57c.67.35.92,1.18.57,1.84-.35.66-1.17.92-1.84.57Z"/>
          <path class="cls-7" d="M617.92,387.74h-10.42c-2.07,0-3.75,1.68-3.75,3.75h0c0,2.07-1.68,3.75-3.75,3.75h-34.72c-2.07,0-3.75-1.68-3.75-3.75h0l-.69-3.8.04.05-.04-.05-6.29-8.02c-.42-.54-1.07-.86-1.75-.85h-11.8c-1.23,0-2.22,1-2.22,2.22l-.24,6.65h-4.46c-3.94,0-7.14,3.2-7.14,7.14v46.48c0,3.5,2.84,6.33,6.33,6.33h84.66c3.5,0,6.33-2.84,6.33-6.33v-47.24c0-3.5-2.83-6.33-6.33-6.33h0Z"/>
          <path class="cls-10" d="M560.85,387.52h-22.07v-6.65c0-1.23,1-2.22,2.22-2.22h11.8c.68,0,1.33.31,1.75.85l6.3,8.02Z"/>
          <path class="cls-3" d="M572.15,442.53h-36.86c-2.43,0-4.4-1.97-4.4-4.4v-10.08c0-2.43,1.97-4.4,4.4-4.4h44.24c2.43,0,4.4,1.97,4.4,4.4v2.7c0,6.5-5.28,11.77-11.78,11.78Z"/>
          <path class="cls-7" d="M545.9,431.25h-9.1c-1.23,0-2.23-1-2.23-2.23s1-2.23,2.23-2.23h9.1c1.23,0,2.23,1,2.23,2.23s-1,2.23-2.23,2.23Z"/>
          <path class="cls-7" d="M576.8,438.29h-39.99c-1.23,0-2.23-1-2.23-2.23s1-2.23,2.23-2.23h39.99c1.23,0,2.23,1,2.23,2.23s-1,2.23-2.23,2.23h0Z"/>
          <path class="cls-7" d="M654.92,438.74h-10.42c-2.07,0-3.75,1.68-3.75,3.75h0c0,2.07-1.68,3.75-3.75,3.75h-34.72c-2.07,0-3.75-1.68-3.75-3.75h0l-.69-3.8.04.05-.04-.05-6.29-8.02c-.42-.54-1.07-.86-1.75-.85h-11.8c-1.23,0-2.22,1-2.22,2.22l-.24,6.65h-4.46c-3.94,0-7.14,3.2-7.14,7.14v46.48c0,3.5,2.84,6.33,6.33,6.33h84.66c3.5,0,6.33-2.84,6.33-6.33v-47.24c0-3.5-2.83-6.33-6.33-6.33h0Z"/>
          <path class="cls-10" d="M597.85,438.52h-22.07v-6.65c0-1.23,1-2.22,2.22-2.22h11.8c.68,0,1.33.31,1.75.85l6.3,8.02Z"/>
          <path class="cls-3" d="M609.15,493.53h-36.86c-2.43,0-4.4-1.97-4.4-4.4v-10.08c0-2.43,1.97-4.4,4.4-4.4h44.24c2.43,0,4.4,1.97,4.4,4.4v2.7c0,6.5-5.28,11.77-11.78,11.78Z"/>
          <path class="cls-7" d="M582.9,482.25h-9.1c-1.23,0-2.23-1-2.23-2.23s1-2.23,2.23-2.23h9.1c1.23,0,2.23,1,2.23,2.23s-1,2.23-2.23,2.23Z"/>
          <path class="cls-7" d="M613.8,489.29h-39.99c-1.23,0-2.23-1-2.23-2.23s1-2.23,2.23-2.23h39.99c1.23,0,2.23,1,2.23,2.23s-1,2.23-2.23,2.23h0Z"/>
          <polygon class="cls-12" points="489.47 481.14 480.87 481.14 476.78 447.97 489.47 447.97 489.47 481.14"/>
          <path class="cls-8" d="M463.51,493.83c0,2.01,1.63,3.63,3.63,3.64h16.19l.5-1.04,2.29-4.73.89,4.73.2,1.04h6.11l-.09-1.05-1.63-19.53-2.13-.13-9.2-.55-2.26-.14v5.83c-1.72,1.82-15.18,8.72-14.5,11.91Z"/>
          <polygon class="cls-12" points="631.86 414.72 627.7 422.25 596.68 409.8 602.82 398.69 631.86 414.72"/>
          <path class="cls-8" d="M630.42,443.58c1.76.96,3.97.33,4.95-1.42l7.82-14.17-.67-.94-3.03-4.29,4.57,1.51,1.01.33,2.95-5.35-.96-.43-17.88-8.01-1.14,1.8-4.92,7.79-1.21,1.91,5.1,2.82c.77,2.38.3,17.5,3.43,18.45Z"/>
          <path class="cls-8" d="M503.86,262.51l32.49,13.8s10.4,22.2,3.21,25.38v58.68l74.22,42.95-22.37,37.37s-28.72-7.42-28.42-14.19,3.61-9.45-6.25-10.32-15.44-.14-15.18-6.19-34.82-37.46-34.82-37.46l-2.89-110.02Z"/>
          <path class="cls-8" d="M511.64,273.78l-8.24-9.26s-18.51,30.39-18.44,36.63-15.71,38.43-15.71,38.43l-19.56,114.86s37.73,8.97,40.64,9.22,7.81,1.78,4.72-4.03,0-5.81,0-5.81l1.89-88.43,14.69-60.82v-30.77Z"/>
          <path class="cls-11" d="M507.32,184.8l15.78-3.79,9.12,11.19h0c8.46,7.96,12.25,19.71,10.04,31.12l-8.44,43.52s15.15,13.88,13.25,21.46c-3.07,12.28-36.94,1.44-42.77,2.3s-13.4-8.57-14.66-13.95,3.89-18.3,5.68-18-4.95-26.72-4.95-26.72c0,0,.53-18.09,6.84-23.14,3.87-3.15,7.02-7.1,9.24-11.57l.86-12.41Z"/>
          <path class="cls-12" d="M438.82,116.57c.05,4.05,3.36,7.29,7.41,7.24.39,0,.78-.04,1.17-.11l19.86,30.64,9.83-3.41-23.85-36.22c-.98-3.92-4.96-6.3-8.88-5.31-3.28.82-5.57,3.79-5.53,7.17h0Z"/>
          <path class="cls-11" d="M518.46,223.39s7.48-16.01,1.79-23.13-9.85-14.35-13.03-16.31-15.87-24.65-19.07-25.33-.71-4.36-5.18-6.33-5.75-1.99-5.73-3.27-10.89-16.68-10.89-16.68l-11.21,6.96,27.38,56.01,35.94,28.09Z"/>
          <path class="cls-10" d="M447.81,373.25c-14.34-19.07-22.62-40.4-22.9-64.71-.96-2.73.47-5.72,3.19-6.69l48.87-17.29c2.73-.96,5.72.47,6.69,3.19l22.9,64.71c.96,2.73-.47,5.72-3.19,6.69l-48.87,17.29c-2.73.96-5.72-.47-6.69-3.19Z"/>
          <path class="cls-3" d="M444.64,352.38c-8.62-8.72-12.31-24.27-14.72-41.6-.9-2.55.44-5.36,2.99-6.26l42-14.86c2.55-.9,5.36.44,6.26,2.99l20.37,57.58c.9,2.55-.44,5.36-2.99,6.26l-26.02,9.21c-11.38,4.01-23.86-1.94-27.9-13.32Z"/>
          <path class="cls-11" d="M481.73,323.66l-32.72,11.68c-1.09.38-2.28-.19-2.66-1.27-.38-1.08.18-2.27,1.26-2.66l32.72-11.68c1.08-.39,2.28.18,2.66,1.26.39,1.08-.18,2.28-1.26,2.66h0Z"/>
          <path class="cls-11" d="M452.37,322l-7.2,2.57c-1.09.38-2.28-.18-2.66-1.27-.38-1.08.18-2.27,1.26-2.66l7.2-2.57c1.09-.38,2.28.18,2.66,1.27.38,1.08-.18,2.27-1.26,2.66Z"/>
          <path class="cls-11" d="M487.9,340.92l-32.72,11.68c-1.08.39-2.28-.17-2.67-1.25-.39-1.08.17-2.28,1.25-2.67,0,0,0,0,.01,0l32.72-11.68c1.08-.39,2.28.17,2.67,1.25.39,1.08-.17,2.28-1.25,2.67,0,0,0,0-.01,0Z"/>
          <path class="cls-11" d="M484.81,332.29l-32.72,11.68c-1.08.39-2.28-.17-2.67-1.25-.39-1.08.17-2.28,1.25-2.67,0,0,0,0,.01,0l32.72-11.68c1.08-.39,2.28.18,2.66,1.26.39,1.08-.18,2.28-1.26,2.66Z"/>
          <circle class="cls-12" cx="509.23" cy="162.16" r="16.94"/>
          <path class="cls-8" d="M491.42,159.95c.9.6,1.97.89,3.05.81.25-1.3.29-2.62.12-3.93.64,1.17,1.13,2.43,1.44,3.73,3.01-.66,2.88-1.55,5.98-1.08,3.43.72,5.63,4.09,4.9,7.52-.03.15-.07.29-.11.43.66-1.44,3.39-.79,3.85.86.48,1.73-.58,3.49-1.59,4.97-3.61,5.32,5.73,15.12,2.12,20.44l-.5.6c3.16-1.64,6.15-3.6,8.93-5.83-.47-2.1-.56-4.27-.24-6.4.39,1.76,1.35,3.33,2.73,4.49,10.23-8.02,22.53-19.57,20.27-22.37l-6.88-12.14c-7.24-12.75-24.69-17.87-35.5-7.97-.28.26-.92.09-1.21.37-3.11.8-7.08,2.26-9.11,4.75-2.02,2.49-.9,8.95,1.75,10.75Z"/>
          <path class="cls-10" d="M504.68,291.13c-13.78-7.35-24.6-17.71-31.48-32.06-1.33-1.35-1.31-3.52.04-4.85l24.21-23.78c1.35-1.33,3.52-1.31,4.85.04l31.48,32.06c1.33,1.35,1.31,3.52-.04,4.85l-24.21,23.78c-1.35,1.33-3.52,1.31-4.85-.04Z"/>
          <path class="cls-3" d="M497.02,279.62c-7.53-2.79-14.02-10.99-20.24-20.61-1.24-1.27-1.22-3.3.04-4.54l20.81-20.43c1.27-1.24,3.3-1.22,4.54.04l28.02,28.53c1.24,1.27,1.22,3.3-.04,4.54l-12.89,12.66c-5.64,5.53-14.69,5.45-20.24-.18Z"/>
          <path class="cls-11" d="M511.09,252.32l-16.18,15.98c-.53.53-1.4.53-1.93,0-.53-.53-.53-1.4,0-1.93,0,0,0,0,0,0l16.18-15.98c.53-.53,1.4-.53,1.93,0,.53.53.53,1.4,0,1.93,0,0,0,0,0,0Z"/>
          <path class="cls-11" d="M493.21,259.46l-3.56,3.52c-.54.53-1.4.52-1.93-.02-.53-.54-.52-1.39.01-1.92l3.56-3.52c.53-.53,1.4-.53,1.93,0,.53.53.53,1.4,0,1.93,0,0,0,0,0,0Z"/>
          <path class="cls-11" d="M519.52,260.86l-16.18,15.98c-.53.53-1.4.53-1.93,0-.53-.53-.53-1.4,0-1.93,0,0,0,0,0,0l16.18-15.98c.53-.53,1.4-.53,1.93,0,.53.53.53,1.4,0,1.93,0,0,0,0,0,0Z"/>
          <path class="cls-11" d="M515.3,256.59l-16.18,15.98c-.53.53-1.4.53-1.93,0-.53-.53-.53-1.4,0-1.93,0,0,0,0,0,0l16.18-15.98c.54-.53,1.4-.52,1.93.02.53.54.52,1.39-.01,1.92h0Z"/>
          <path class="cls-12" d="M480.62,324.33c-.77-3.97,1.83-7.81,5.81-8.58.38-.07.78-.12,1.17-.13l13.31-34,10.31,1.37-16.11,40.27c-.18,4.04-3.6,7.16-7.63,6.98-3.38-.15-6.21-2.59-6.86-5.91h0Z"/>
          <path class="cls-11" d="M537.22,203.7s10.54,14.19,6.39,22.3-6.77,16.04-9.49,18.59-10.61,27.34-13.6,28.64.17,4.41-3.8,7.24-5.23,3.1-4.96,4.35-7.32,18.52-7.32,18.52l-12.37-4.57,26.35-91.66,18.81-3.43Z"/>
          <path class="cls-9" d="M734.89,498.66l-662.75-.69c-.66,0-1.19-.54-1.18-1.2,0-.65.53-1.18,1.18-1.18l662.75.69c.66,0,1.19.53,1.2,1.18s-.53,1.19-1.18,1.2h-.01Z"/>
          <path class="cls-10" d="M248.98,236.38c-7.85-13.5-11.59-28.01-9.89-43.83-.41-1.85.74-3.68,2.59-4.1l33.1-7.47c1.85-.41,3.68.74,4.1,2.59l9.89,43.83c.41,1.85-.74,3.68-2.59,4.1l-33.1,7.47c-1.85.41-3.68-.74-4.1-2.59Z"/>
          <path class="cls-3" d="M248.54,222.57c-4.93-6.33-6.13-16.73-6.36-28.18-.39-1.73.7-3.45,2.43-3.84l28.45-6.42c1.73-.39,3.45.7,3.84,2.43l8.8,39c.39,1.73-.7,3.45-2.43,3.84l-17.62,3.98c-7.71,1.73-15.36-3.11-17.11-10.81Z"/>
          <path class="cls-11" d="M259.6,201.04c1.19-1.37,3.14-1.8,4.8-1.05,1.65.88,2.53,2.74,2.15,4.58-.31,2.06-1.39,3.94-1.49,6.05-.18,1.88.68,3.72,2.24,4.79,1.17.71,2.38-1.05,1.2-1.77-1.94-1.18-1.29-3.77-.73-5.54.7-2.21,1.44-4.46.57-6.74-1.27-3.15-4.86-4.67-8-3.39-.81.33-1.54.82-2.15,1.46-.93,1,.47,2.63,1.41,1.61h0Z"/>
          <circle class="cls-11" cx="269.03" cy="219.44" r="2.14"/>
          <path class="cls-10" d="M59.78,143.16c-7.85-13.5-11.59-28.01-9.89-43.83-.41-1.85.74-3.68,2.59-4.1l33.1-7.47c1.85-.41,3.68.74,4.1,2.59l9.89,43.83c.41,1.85-.74,3.68-2.59,4.1l-33.1,7.47c-1.85.41-3.68-.74-4.1-2.59Z"/>
          <path class="cls-3" d="M59.33,129.35c-4.93-6.33-6.13-16.73-6.36-28.18-.39-1.73.7-3.45,2.43-3.84l28.45-6.42c1.73-.39,3.45.7,3.84,2.43l8.8,39c.39,1.73-.7,3.45-2.43,3.84l-17.62,3.98c-7.71,1.73-15.36-3.11-17.11-10.81Z"/>
          <circle class="cls-11" cx="74.2" cy="129.32" r="3"/>
          <path class="cls-11" d="M77.78,100.83c-1.15-1.35-3.27-1.14-5.02-.81-1.82.26-3.59.77-5.27,1.5-1.7.75-3.03,2.14-3.69,3.88-.7,2.14.06,4.47.97,6.53,1.76,3.96,4.09,7.64,6.92,10.92l1.43.66c4.49-5.73,6.49-13.02,5.53-20.24-.05-.88-.36-1.73-.87-2.44Z"/>
          <g class="cls-19">
            <rect class="cls-5" x="48.45" width="662.05" height="498.85"/>
          </g>
          <path class="cls-2" d="M455.31,357.2l-15.79-35.61,32.57-14.69,18.75,36.5-35.53,13.8Z"/>
          <path class="cls-2" d="M447.99,100.41l-23.09-12.32-5.13,10.78-7.19,14.37,10.26,8.21,12.83,5.13,1.54-5.13v-5.13l10.78-15.91Z"/>
          <g class="cls-17">
            <g>
              <path class="cls-11" d="M458.44,336.38l-8.73-3.38,3.03-7.27,1.93.75.47-1.13-3.03-1.17-4.02,9.64,10.99,4.25,3.15-7.56-1.17-.44-2.63,6.32Z"/>
              <path class="cls-11" d="M457.34,333.61l-4.87-1.88,1.83-4.35-1.15-.44-2.28,5.47,7.03,2.72,2.25-5.4-1.03-.39-1.78,4.28Z"/>
              <path class="cls-11" d="M461.02,327.63l-4.86-1.88-.47,1.13,4.88,1.84.45-1.09Z"/>
              <path class="cls-11" d="M456.5,329.23l-.42-.17-.65,1.6.43.17.65-1.6Z"/>
              <path class="cls-11" d="M453.85,331.22l2.74,1.06,1.44-3.46-2.72-1.05-1.46,3.45h0ZM457.72,328.85l-1.27,3.11-2.29-.9,1.29-3.11,2.27.9h0Z"/>
              <path class="cls-11" d="M456.56,324.81l5.77,2.23-.84,2.02,1.16.44,1.39-3.33-6.93-2.68-.55,1.31Z"/>
              <path class="cls-11" d="M475.66,325.49l-4.93-1.86-.42,1,4.92,1.9.43-1.04Z"/>
              <path class="cls-11" d="M467.2,321.13l.96.36,3.58-8.6,12.77,4.94-.04.1-4.76,11.43-3.85-1.49-.54,1.32,5,1.93,5.9-14.16-14.87-5.75-4.15,9.91Z"/>
              <path class="cls-11" d="M463.25,338.44c-.27.12-.4.43-.28.69.12.26.43.38.7.26s.4-.43.28-.69c-.12-.26-.43-.38-.7-.26Z"/>
              <path class="cls-11" d="M464.04,331.19l-.9-.34-3.55,8.51-12.77-4.94,4.8-11.52,3.92,1.51.55-1.31-5.09-1.97-5.9,14.16,14.87,5.75,4.06-9.85Z"/>
              <path class="cls-11" d="M474.43,329.09l-1.85,4.44-7.89-2.99-.24.6,7.88,2.99-.63,1.52-.1-.04c-.43-.16-.84-.32-1.26-.47-.28-.11-.55-.21-.83-.31l-2.15,5.29-2.37-.91v-.09c.06-.29.02-.58-.09-.84-.34-.77-1.25-1.11-2.04-.76-.79.34-1.15,1.25-.82,2.01.34.77,1.25,1.11,2.04.76.26-.11.49-.3.65-.53l.05-.07.08.03c2.08.8,4.2,1.59,6.26,2.35,1,.37,2,.74,3,1.12l3.16-7.84c-.67-.25-1.37-.53-2.05-.8-.64-.25-1.29-.51-1.93-.75l-.1-.04,1.85-4.44-.61-.23h0ZM463.94,339.99c-.63.27-1.35,0-1.61-.61-.27-.61.02-1.33.65-1.6.62-.27,1.35,0,1.61.61.27.61-.02,1.33-.65,1.6ZM472.05,336.47l1.8.67-1.22,2.99-1.83-.68,1.25-2.98h0ZM476.42,335.69l-2.69,6.67-5.74-2.13,1.86-4.56,1.58.59-.35.84c-.38.9-.76,1.83-1.14,2.74l3.04,1.13,1.7-4.18c-.37-.14-.76-.29-1.15-.44-.38-.15-.77-.3-1.15-.44l-.1-.04.63-1.51,3.5,1.33h0Z"/>
              <path class="cls-11" d="M474.85,327.48l-5.85-2.26.81-1.94-1.16-.44-1.35,3.25,7.02,2.71.54-1.32Z"/>
              <path class="cls-11" d="M467.45,312.95c-.27.12-.4.43-.28.69.12.26.43.38.7.26.27-.12.4-.43.28-.69-.12-.26-.43-.38-.7-.26Z"/>
              <path class="cls-11" d="M463.56,329.85l.89.34,3.28-7.68-.96-.36-3.22,7.71Z"/>
              <path class="cls-11" d="M480.47,319.86l-7.03-2.72-2.28,5.49,1.03.39,1.82-4.37,4.87,1.88-1.79,4.37,1.1.43,2.28-5.47Z"/>
              <path class="cls-11" d="M483.23,318.44l-10.99-4.25-3.19,7.65,1.16.44,2.67-6.4,8.73,3.38-3.03,7.27-1.89-.73-.46,1.13,2.97,1.15,4.02-9.64Z"/>
              <path class="cls-11" d="M467.04,312.05c-.25.11-.47.28-.63.5l-.05.07-.08-.03c-2.93-1.13-5.91-2.24-8.79-3.31l-.23-.09-3.16,7.84,4.08,1.58-1.78,4.26.61.23,1.78-4.26,7.93,3.01.25-.6-7.92-3.01.63-1.52.1.04c.42.16.83.31,1.24.47.28.11.56.21.85.32l2.15-5.28,2.13.83-.02.09c-.06.3-.02.6.1.88.34.77,1.25,1.11,2.04.76s1.15-1.25.81-2.01c-.34-.77-1.25-1.11-2.04-.76h0ZM459.31,315.89l-1.8-.67,1.22-2.99,1.83.68-1.25,2.98ZM461.5,316.7l-1.58-.59.35-.83c.38-.9.77-1.84,1.14-2.76l-3.04-1.13-1.7,4.18h.01s0,.03,0,.03l2.39.89-.63,1.51-3.5-1.33,2.69-6.66,5.74,2.13-1.86,4.56h0ZM468.14,314.54c-.3.13-.64.14-.94.03-.31-.11-.55-.34-.68-.63-.27-.61.02-1.33.65-1.6.62-.27,1.35,0,1.61.61.27.61-.02,1.33-.65,1.6h0Z"/>
              <path class="cls-11" d="M477.48,321.04l-2.74-1.06-1.44,3.46,2.77,1.05,1.41-3.45ZM474.04,323.58l1.28-3.08,1.26.48-1.28,3.08-1.26-.48Z"/>
              <path class="cls-6" d="M480.58,328.97l4.11.51,1.54-3.08-.51-10.26-8.21,6.67,1.03,2.05,2.05,4.11Z"/>
            </g>
          </g>
          <g class="cls-15">
            <g>
              <path class="cls-11" d="M493.96,262.6l-2.47.28-.18-2.09.55-.06-.03-.32-.86.1.24,2.77,3.11-.35-.19-2.17-.33.04.16,1.81Z"/>
              <path class="cls-11" d="M493.36,262.08l-1.38.16-.11-1.25-.32.04.14,1.57,1.99-.23-.14-1.55-.29.03.11,1.23Z"/>
              <path class="cls-11" d="M493.49,260.21l-1.38.16.03.32,1.38-.17-.03-.31Z"/>
              <path class="cls-11" d="M492.62,261.15h-.12s.04.47.04.47h.12s-.05-.47-.05-.47Z"/>
              <path class="cls-11" d="M492.24,261.95l.77-.09-.09-.99-.77.09.08.99h0ZM492.86,260.91l.09.89-.65.07-.08-.89.65-.07h0Z"/>
              <path class="cls-11" d="M492.09,260.1l1.64-.19.05.58.33-.04-.08-.96-1.96.22.03.38Z"/>
              <path class="cls-11" d="M496.68,257.91l-1.39.17.03.29,1.39-.16-.03-.3Z"/>
              <path class="cls-11" d="M494.14,257.92l.27-.03-.22-2.47,3.62-.41v.03s.29,3.28.29,3.28l-1.09.12.03.38,1.42-.16-.36-4.06-4.21.48.24,2.85Z"/>
              <path class="cls-11" d="M495.35,262.49c-.05.06-.04.15.02.2.06.05.15.04.2-.02.05-.06.04-.15-.02-.2-.06-.05-.15-.04-.2.02Z"/>
              <path class="cls-11" d="M494.64,260.68l-.25.03.21,2.44-3.62.41-.29-3.31,1.11-.13-.03-.38-1.44.16.36,4.06,4.21-.48-.26-2.82Z"/>
              <path class="cls-11" d="M496.83,258.91l.11,1.27-2.23.27.02.17,2.23-.27.04.44h-.03c-.12.02-.24.03-.36.05-.08,0-.16.02-.24.03l.14,1.51-.67.08v-.02c-.03-.07-.08-.14-.14-.18-.17-.14-.43-.11-.57.07-.14.18-.12.44.06.58.17.14.43.11.57-.07.05-.06.08-.13.09-.21v-.02s.03,0,.03,0c.59-.07,1.19-.14,1.76-.22.28-.04.56-.07.84-.11l-.22-2.24c-.19.02-.39.05-.58.07-.18.02-.37.04-.55.06h-.03s-.11-1.27-.11-1.27l-.17.02h0ZM495.7,262.77c-.11.14-.32.17-.46.06-.14-.11-.16-.32-.04-.46.11-.14.32-.17.45-.06.14.11.16.32.05.46ZM497.18,260.94l.51-.06.08.86-.51.07-.07-.86h0ZM498.11,260.22l.19,1.9-1.61.21-.12-1.3.44-.06.02.24c.02.26.05.53.07.79l.86-.11-.11-1.19c-.1.01-.22.03-.32.04-.11.01-.22.02-.32.04h-.03s-.04-.43-.04-.43l.99-.12h0Z"/>
              <path class="cls-11" d="M496.73,258.47l-1.66.19-.05-.56-.33.04.08.93,1.99-.23-.03-.38Z"/>
              <path class="cls-11" d="M493.19,255.96c-.05.06-.04.15.02.2.06.05.15.04.2-.02.05-.06.04-.15-.02-.2-.06-.05-.15-.04-.2.02Z"/>
              <path class="cls-11" d="M494.36,260.42l.25-.03-.18-2.22-.27.03.19,2.21Z"/>
              <path class="cls-11" d="M497.11,255.99l-1.99.23.14,1.57.29-.03-.11-1.25,1.38-.16.12,1.25.31-.03-.14-1.57Z"/>
              <path class="cls-11" d="M497.59,255.31l-3.11.35.19,2.19.33-.04-.16-1.84,2.47-.28.18,2.09-.53.06.03.32.84-.1-.24-2.77Z"/>
              <path class="cls-11" d="M492.99,255.8c-.05.06-.08.13-.09.2v.02s-.03,0-.03,0c-.83.09-1.67.2-2.48.3h-.07s.22,2.25.22,2.25l1.16-.13.11,1.22.17-.02-.11-1.22,2.24-.27-.02-.17-2.24.27-.04-.44h.03c.12-.02.23-.03.35-.05.08,0,.16-.02.24-.03l-.14-1.51.61-.07v.02c.03.08.08.14.14.19.17.14.43.11.57-.07.14-.18.12-.44-.06-.58-.17-.14-.43-.11-.57.07h0ZM491.64,257.66l-.51.06-.08-.86.51-.07.07.86ZM492.26,257.58l-.44.06-.02-.24c-.02-.26-.05-.53-.07-.79l-.86.11.11,1.19h0s.67-.08.67-.08l.04.44-.99.12-.19-1.9,1.61-.21.13,1.3h0ZM493.55,256.25c-.06.07-.13.11-.22.12-.09.01-.17-.01-.24-.07-.14-.11-.16-.32-.05-.46.11-.14.32-.17.46-.06.14.11.16.32.04.46h0Z"/>
              <path class="cls-11" d="M496.55,256.63l-.78.09.09.99.78-.09-.09-.99ZM496.06,257.65l-.08-.88.36-.04.08.88-.36.04Z"/>
            </g>
          </g>
          <g class="cls-13">
            <g>
              <path class="cls-11" d="M421.88,108.05l-1.64-6.52,5.52-1.24.36,1.44.86-.19-.57-2.26-7.31,1.64,2.06,8.2,5.74-1.29-.22-.87-4.79,1.08Z"/>
              <path class="cls-11" d="M423.04,106.25l-.92-3.63,3.31-.73-.22-.86-4.15.93,1.32,5.24,4.1-.92-.2-.76-3.25.73Z"/>
              <path class="cls-11" d="M428.07,105.93l-.91-3.62-.86.19.94,3.62.82-.18Z"/>
              <path class="cls-11" d="M425.25,103.94l-.08-.32-1.21.28.08.32,1.21-.28Z"/>
              <path class="cls-11" d="M422.99,103.22l.51,2.04,2.63-.59-.51-2.03-2.63.58h0ZM425.99,104.51l-2.35.55-.42-1.71,2.36-.53.41,1.7h0Z"/>
              <path class="cls-11" d="M427.88,102.15l1.08,4.31-1.53.35.22.86,2.53-.57-1.3-5.17-1,.22Z"/>
              <path class="cls-11" d="M435.39,113.62l-.95-3.66-.76.17.92,3.67.79-.18Z"/>
              <path class="cls-11" d="M434.44,106.86l.18.71,6.52-1.46,2.4,9.53-.08.02-8.67,1.94-.72-2.87-1,.23.94,3.73,10.74-2.41-2.79-11.1-7.53,1.67Z"/>
              <path class="cls-11" d="M422.66,111.72c-.18-.11-.42-.05-.52.12-.11.18-.05.41.14.52.18.11.42.05.52-.12.11-.18.05-.41-.14-.52Z"/>
              <path class="cls-11" d="M427.24,109.18l-.17-.67-6.46,1.45-2.4-9.53,8.74-1.96.74,2.93,1-.22-.95-3.8-10.74,2.41,2.79,11.1,7.45-1.7Z"/>
              <path class="cls-11" d="M432.77,114.39l-3.37.75-1.51-5.86-.46.11,1.51,5.86-1.15.26-.02-.07c-.08-.32-.16-.62-.24-.94-.05-.21-.1-.41-.16-.62l-3.99.93-.45-1.77.06-.03c.19-.09.34-.23.45-.41.31-.52.13-1.19-.4-1.51-.53-.32-1.21-.16-1.52.36-.31.51-.13,1.19.4,1.51.18.11.38.16.58.16h.06l.02.06c.39,1.55.81,3.12,1.21,4.64.2.74.39,1.48.59,2.22l5.9-1.4c-.13-.49-.26-1.02-.38-1.53-.12-.48-.24-.97-.36-1.44l-.02-.08,3.37-.75-.12-.45h0ZM422.04,112.76c-.42-.25-.56-.79-.31-1.2.25-.41.79-.53,1.21-.28.42.25.56.79.31,1.2-.25.41-.79.53-1.21.28ZM427.46,116.05l.36,1.33-2.26.53-.36-1.35,2.26-.51h0ZM429.74,118.29l-5.02,1.19-1.13-4.24,3.44-.8.31,1.17-.64.14c-.68.15-1.39.31-2.08.47l.6,2.25,3.15-.73c-.07-.27-.15-.57-.22-.85-.07-.28-.14-.58-.22-.85l-.02-.08,1.15-.26.67,2.6h0Z"/>
              <path class="cls-11" d="M433.89,113.97l-1.1-4.36,1.47-.33-.22-.86-2.46.55,1.32,5.23,1-.23Z"/>
              <path class="cls-11" d="M439.34,103.62c-.18-.11-.42-.05-.52.12-.11.18-.05.41.14.52.18.11.42.05.52-.12.11-.18.05-.41-.14-.52Z"/>
              <path class="cls-11" d="M427.83,108.34l.17.66,5.86-1.26-.18-.71-5.85,1.31Z"/>
              <path class="cls-11" d="M440.68,114.11l-1.32-5.25-4.16.93.2.76,3.31-.74.91,3.63-3.3.76.21.82,4.15-.93Z"/>
              <path class="cls-11" d="M442.66,115.14l-2.06-8.2-5.8,1.3.22.86,4.85-1.09,1.64,6.52-5.52,1.24-.35-1.41-.86.2.56,2.21,7.31-1.64Z"/>
              <path class="cls-11" d="M439.7,103.01c-.17-.1-.36-.16-.55-.16h-.06s-.01-.06-.01-.06c-.55-2.18-1.14-4.39-1.7-6.53l-.05-.17-5.91,1.4.77,3.05-3.23.72.12.45,3.23-.72,1.52,5.89.46-.11-1.52-5.89,1.15-.26.02.08c.08.31.16.61.24.92.05.21.11.42.16.63l3.98-.93.4,1.59-.06.03c-.2.09-.36.24-.47.42-.31.51-.13,1.19.4,1.51.53.32,1.21.16,1.52-.36.31-.52.13-1.19-.4-1.51h0ZM434.24,100.07l-.36-1.33,2.26-.53.36,1.35-2.26.51ZM434.67,101.69l-.31-1.17.63-.14c.68-.15,1.39-.31,2.09-.47l-.6-2.25-3.15.73h0s-.02.01-.02.01l.47,1.77-1.15.26-.67-2.6,5.02-1.19,1.13,4.25-3.44.8h0ZM438.69,104.68c-.2-.12-.35-.31-.41-.54-.06-.23-.03-.46.09-.66.25-.41.79-.53,1.21-.28.42.25.56.79.31,1.2-.25.41-.79.53-1.21.28h0Z"/>
              <path class="cls-11" d="M438.76,112.84l-.51-2.05-2.62.59.53,2.06,2.61-.6ZM435.84,111.89l2.34-.52.24.94-2.34.52-.24-.94Z"/>
              <path class="cls-12" d="M442.34,111.7h1.54l3.08,3.59-7.7,4.11v-1.03l-1.03-1.03.51-.51v-2.05l1.03-1.03,1.03-1.03,1.03-1.03h.51Z"/>
              <path class="cls-4" d="M443.88,110.67v1.03M443.88,111.7h-2.05l-1.03,1.03-1.03,1.03-1.03,1.03v2.05l-.51.51,1.03,1.03v1.03l7.7-4.11-3.08-3.59Z"/>
            </g>
          </g>
          <path class="cls-1" d="M67.5,137.01l-9.11-32.44,25.61-7.97,6.83,34.72-23.34,5.69Z"/>
          <g class="cls-18">
            <g>
              <path class="cls-11" d="M67.54,122.81l-5.75-3.42,3-4.76,1.27.76.47-.74-1.99-1.19-3.98,6.31,7.23,4.31,3.12-4.95-.77-.45-2.61,4.13Z"/>
              <path class="cls-11" d="M67.09,120.73l-3.21-1.91,1.81-2.85-.75-.45-2.26,3.58,4.62,2.75,2.23-3.53-.68-.4-1.77,2.8Z"/>
              <path class="cls-11" d="M70.4,116.95l-3.19-1.91-.47.74,3.21,1.88.45-.71Z"/>
              <path class="cls-11" d="M67.02,117.54l-.28-.17-.65,1.05.28.17.65-1.05Z"/>
              <path class="cls-11" d="M64.92,118.63l1.8,1.07,1.43-2.27-1.79-1.07-1.44,2.26h0ZM67.93,117.42l-1.27,2.04-1.5-.91,1.28-2.04,1.49.91h0Z"/>
              <path class="cls-11" d="M67.6,114.43l3.8,2.26-.83,1.32.77.45,1.37-2.18-4.56-2.71-.55.86Z"/>
              <path class="cls-11" d="M80.97,117.2l-3.25-1.9-.41.66,3.24,1.93.43-.68Z"/>
              <path class="cls-11" d="M75.53,113.11l.63.37,3.55-5.63,8.41,5.01-.04.07-4.72,7.48-2.53-1.51-.54.86,3.29,1.96,5.85-9.26-9.79-5.83-4.11,6.48Z"/>
              <path class="cls-11" d="M70.68,124.83c-.21.05-.33.26-.28.46.05.2.26.32.46.27.2-.05.33-.26.28-.46-.05-.2-.26-.32-.46-.27Z"/>
              <path class="cls-11" d="M72.1,119.82l-.59-.35-3.52,5.57-8.41-5.01,4.76-7.54,2.58,1.53.55-.86-3.35-1.99-5.85,9.26,9.79,5.83,4.03-6.45Z"/>
              <path class="cls-11" d="M79.66,119.58l-1.84,2.9-5.2-3.05-.24.4,5.19,3.05-.63.99-.07-.04c-.28-.16-.55-.32-.83-.48-.18-.11-.36-.21-.55-.32l-2.15,3.47-1.56-.93.02-.06c.07-.2.08-.4.03-.6-.15-.58-.75-.93-1.34-.78-.6.15-.96.74-.82,1.32.15.58.75.93,1.34.78.2-.05.38-.15.52-.3l.04-.04.05.03c1.37.81,2.77,1.62,4.13,2.41.66.38,1.32.76,1.98,1.15l3.16-5.14c-.44-.26-.9-.54-1.35-.81-.42-.25-.85-.51-1.27-.76l-.07-.04,1.84-2.91-.4-.23h0ZM70.98,126.01c-.47.12-.95-.16-1.06-.62-.12-.46.18-.93.65-1.05.47-.12.95.16,1.06.62.12.46-.18.93-.65,1.05ZM77.1,124.5l1.19.69-1.22,1.96-1.2-.7,1.23-1.95h0ZM80.28,124.46l-2.69,4.37-3.79-2.19,1.85-2.99,1.04.6-.35.55c-.37.59-.76,1.2-1.13,1.8l2.01,1.16,1.7-2.74c-.24-.14-.5-.29-.76-.45-.25-.15-.51-.3-.75-.45l-.07-.04.63-.99,2.3,1.35h0Z"/>
              <path class="cls-11" d="M80.15,118.5l-3.85-2.29.8-1.27-.77-.45-1.34,2.12,4.62,2.75.54-.86Z"/>
              <path class="cls-11" d="M76.68,107.39c-.2.05-.33.26-.28.46.05.2.26.32.46.27.21-.05.33-.26.28-.46-.05-.2-.26-.32-.46-.27Z"/>
              <path class="cls-11" d="M71.92,118.82l.59.34,3.23-5.02-.63-.37-3.19,5.04Z"/>
              <path class="cls-11" d="M85.03,113.8l-4.63-2.75-2.26,3.59.68.4,1.8-2.86,3.2,1.91-1.78,2.86.73.43,2.26-3.58Z"/>
              <path class="cls-11" d="M87.14,113.13l-7.23-4.3-3.16,5,.77.45,2.64-4.19,5.75,3.42-3,4.76-1.24-.74-.46.74,1.95,1.16,3.98-6.31Z"/>
              <path class="cls-11" d="M76.5,106.7c-.19.05-.37.14-.5.28l-.04.04-.05-.03c-1.93-1.15-3.89-2.28-5.8-3.38l-.15-.09-3.16,5.15,2.69,1.6-1.76,2.79.4.23,1.76-2.78,5.23,3.07.24-.4-5.22-3.06.63-.99.07.04c.28.16.55.32.82.48.19.11.37.22.56.33l2.15-3.46,1.4.84-.02.06c-.08.2-.09.42-.03.63.15.58.75.93,1.34.78.6-.15.96-.74.82-1.32-.15-.58-.75-.93-1.34-.78h0ZM70.6,108.48l-1.19-.69,1.22-1.96,1.21.7-1.23,1.95ZM72.04,109.31l-1.04-.6.34-.54c.37-.59.76-1.2,1.14-1.81l-2.01-1.16-1.7,2.74h0s0,.02,0,.02l1.58.91-.63.99-2.3-1.35,2.69-4.37,3.79,2.19-1.85,2.99h0ZM76.98,108.58c-.23.06-.47.02-.67-.09-.2-.12-.34-.31-.4-.53-.12-.46.18-.93.65-1.05.47-.12.95.16,1.06.62.12.46-.18.93-.65,1.05h0Z"/>
              <path class="cls-11" d="M82.78,114.28l-1.8-1.07-1.43,2.27,1.83,1.07,1.41-2.26ZM80.06,115.66l1.27-2.02.83.49-1.27,2.02-.83-.49Z"/>
            </g>
          </g>
          <path class="cls-2" d="M259.66,225.18l-11.8-27.2,26.69-7.7,8.21,29.77-23.09,5.13Z"/>
          <g class="cls-16">
            <g>
              <path class="cls-11" d="M259.19,215.45l-5.18-3.09,2.71-4.29,1.15.68.42-.67-1.8-1.07-3.59,5.69,6.52,3.88,2.82-4.46-.69-.41-2.35,3.73Z"/>
              <path class="cls-11" d="M258.78,213.57l-2.89-1.72,1.63-2.57-.68-.4-2.04,3.23,4.17,2.48,2.01-3.19-.61-.36-1.6,2.53Z"/>
              <path class="cls-11" d="M261.77,210.17l-2.88-1.72-.42.67,2.9,1.69.4-.64Z"/>
              <path class="cls-11" d="M258.71,210.7l-.25-.15-.59.95.25.15.58-.95Z"/>
              <path class="cls-11" d="M256.83,211.68l1.62.97,1.29-2.04-1.62-.96-1.3,2.04h0ZM259.54,210.59l-1.14,1.84-1.36-.82,1.16-1.84,1.34.82h0Z"/>
              <path class="cls-11" d="M259.24,207.89l3.43,2.04-.75,1.19.69.4,1.24-1.96-4.11-2.45-.49.77Z"/>
              <path class="cls-11" d="M271.29,210.39l-2.93-1.71-.37.59,2.92,1.74.38-.62Z"/>
              <path class="cls-11" d="M266.39,206.71l.57.33,3.2-5.07,7.58,4.51-.04.06-4.26,6.74-2.28-1.36-.49.78,2.97,1.77,5.27-8.35-8.82-5.26-3.71,5.85Z"/>
              <path class="cls-11" d="M262.02,217.27c-.18.05-.3.23-.25.41.05.18.23.29.42.24.19-.05.3-.23.25-.41-.05-.18-.23-.29-.42-.24Z"/>
              <path class="cls-11" d="M263.3,212.76l-.53-.31-3.17,5.02-7.58-4.52,4.29-6.8,2.33,1.38.49-.77-3.02-1.8-5.27,8.35,8.82,5.25,3.64-5.82Z"/>
              <path class="cls-11" d="M270.12,212.54l-1.66,2.62-4.69-2.75-.22.36,4.68,2.75-.57.9-.06-.03c-.25-.15-.5-.29-.75-.44-.16-.1-.33-.19-.49-.29l-1.94,3.13-1.41-.84.02-.05c.06-.18.07-.36.02-.55-.13-.52-.67-.84-1.21-.7-.54.13-.87.67-.73,1.19.13.52.67.84,1.21.7.18-.05.34-.14.47-.27l.04-.04.05.03c1.23.73,2.5,1.46,3.72,2.17.59.34,1.19.69,1.78,1.03l2.85-4.64c-.4-.23-.81-.48-1.22-.73-.38-.23-.77-.46-1.14-.68l-.06-.04,1.66-2.62-.36-.21h0ZM262.28,218.33c-.43.11-.86-.14-.96-.56s.16-.84.58-.95c.42-.11.86.14.96.56.1.41-.16.84-.58.95ZM267.81,216.97l1.07.62-1.1,1.77-1.09-.63,1.11-1.76h0ZM270.68,216.94l-2.42,3.94-3.41-1.97,1.67-2.69.94.54-.31.5c-.34.53-.68,1.08-1.02,1.62l1.81,1.05,1.53-2.47c-.22-.13-.45-.27-.68-.4-.22-.13-.46-.27-.68-.4l-.06-.04.56-.89,2.08,1.22h0Z"/>
              <path class="cls-11" d="M270.56,211.56l-3.47-2.07.72-1.15-.69-.4-1.21,1.92,4.16,2.48.49-.78Z"/>
              <path class="cls-11" d="M267.43,201.54c-.18.05-.3.23-.25.41.05.18.23.29.42.24.18-.05.3-.23.25-.41-.05-.18-.23-.29-.42-.24Z"/>
              <path class="cls-11" d="M263.14,211.85l.53.31,2.91-4.53-.57-.33-2.88,4.55Z"/>
              <path class="cls-11" d="M274.95,207.33l-4.17-2.48-2.04,3.24.61.36,1.63-2.58,2.89,1.72-1.6,2.58.65.39,2.04-3.23Z"/>
              <path class="cls-11" d="M276.86,206.73l-6.52-3.88-2.85,4.51.69.41,2.38-3.78,5.18,3.09-2.71,4.29-1.12-.67-.42.67,1.76,1.05,3.59-5.69Z"/>
              <path class="cls-11" d="M267.27,200.92c-.17.04-.33.13-.45.25l-.04.04-.05-.03c-1.74-1.04-3.51-2.06-5.23-3.05l-.14-.08-2.85,4.64,2.42,1.44-1.59,2.51.36.21,1.59-2.51,4.71,2.76.22-.36-4.71-2.76.57-.9.06.03c.25.14.49.29.74.43.17.1.34.2.51.29l1.93-3.12,1.27.76-.02.05c-.07.18-.08.38-.03.57.13.52.67.84,1.21.7.54-.13.87-.67.74-1.19-.13-.52-.67-.84-1.21-.7h0ZM261.94,202.53l-1.07-.62,1.1-1.77,1.09.63-1.11,1.76ZM263.25,203.28l-.94-.54.31-.49c.34-.53.69-1.08,1.02-1.63l-1.81-1.05-1.53,2.47h0s0,.02,0,.02l1.42.82-.56.89-2.08-1.22,2.42-3.94,3.41,1.97-1.67,2.69h0ZM267.7,202.62c-.21.05-.42.02-.6-.08-.18-.11-.31-.28-.36-.48-.1-.42.16-.84.58-.95.42-.11.86.14.96.56.1.41-.16.84-.58.95h0Z"/>
              <path class="cls-11" d="M272.93,207.75l-1.63-.97-1.29,2.04,1.65.97,1.27-2.04ZM270.47,209l1.15-1.82.75.44-1.15,1.82-.75-.44Z"/>
            </g>
          </g>
        </g>
      </g>
    </g>
  </g>
</svg>