<svg width="336" height="362" viewBox="0 0 336 362" fill="none" xmlns="http://www.w3.org/2000/svg">
<path d="M106.316 208.083H88.2365C87.1093 208.082 85.9931 208.304 84.9515 208.734C83.9099 209.165 82.9634 209.797 82.1659 210.593C81.3684 211.39 80.7357 212.336 80.3037 213.377C79.8718 214.418 79.6491 215.534 79.6484 216.661V297.924C79.649 299.051 79.8715 300.167 80.3034 301.208C80.7353 302.249 81.3681 303.195 82.1656 303.992C82.9631 304.788 83.9097 305.42 84.9514 305.851C85.993 306.282 87.1093 306.503 88.2365 306.502H106.315C107.443 306.503 108.559 306.282 109.601 305.851C110.642 305.42 111.589 304.788 112.386 303.992C113.184 303.195 113.817 302.249 114.248 301.208C114.68 300.167 114.903 299.051 114.903 297.924V216.661C114.902 214.385 113.997 212.202 112.386 210.594C110.776 208.985 108.593 208.082 106.316 208.083Z" stroke="#312458" stroke-width="3" stroke-miterlimit="10"/>
<path d="M162.36 169.258H144.283C143.156 169.257 142.04 169.479 140.998 169.909C139.957 170.34 139.01 170.972 138.213 171.768C137.415 172.565 136.783 173.511 136.351 174.552C135.919 175.593 135.696 176.709 135.695 177.836V297.924C135.697 300.2 136.603 302.383 138.213 303.991C139.824 305.6 142.007 306.503 144.283 306.502H162.359C164.637 306.504 166.821 305.602 168.433 303.993C170.045 302.384 170.952 300.201 170.954 297.924V177.836C170.952 175.559 170.045 173.376 168.434 171.767C166.822 170.159 164.637 169.256 162.36 169.258Z" stroke="#312458" stroke-width="3" stroke-miterlimit="10"/>
<path d="M218.416 125.919H200.33C198.054 125.918 195.871 126.821 194.26 128.43C192.65 130.039 191.744 132.221 191.742 134.497V297.925C191.744 300.201 192.65 302.383 194.26 303.992C195.871 305.6 198.054 306.504 200.33 306.503H218.416C220.692 306.503 222.875 305.6 224.485 303.991C226.095 302.383 227.001 300.201 227.003 297.925V134.497C227.001 132.221 226.096 130.039 224.485 128.43C222.875 126.822 220.692 125.918 218.416 125.919Z" stroke="#312458" stroke-width="3" stroke-miterlimit="10"/>
<path d="M274.462 77.16H256.384C255.257 77.1592 254.141 77.3805 253.099 77.8112C252.057 78.2419 251.111 78.8736 250.313 79.6701C249.516 80.4667 248.883 81.4126 248.452 82.4537C248.02 83.4949 247.797 84.6109 247.797 85.738V297.922C247.797 299.049 248.02 300.165 248.452 301.206C248.883 302.247 249.516 303.193 250.313 303.99C251.111 304.786 252.057 305.418 253.099 305.849C254.141 306.28 255.257 306.501 256.384 306.5H274.462C275.589 306.501 276.705 306.28 277.747 305.849C278.789 305.418 279.736 304.787 280.533 303.99C281.331 303.194 281.963 302.248 282.395 301.207C282.827 300.165 283.05 299.049 283.05 297.922V85.738C283.05 84.6108 282.827 83.4947 282.395 82.4535C281.963 81.4123 281.331 80.4664 280.533 79.6698C279.736 78.8732 278.789 78.2415 277.747 77.8109C276.705 77.3802 275.589 77.1591 274.462 77.16Z" stroke="#312458" stroke-width="3" stroke-miterlimit="10"/>
<path d="M273.557 306.503H64.7421C62.467 306.503 60.2852 307.407 58.6765 309.015C57.0678 310.624 56.1641 312.806 56.1641 315.081C56.1641 317.356 57.0678 319.538 58.6765 321.147C60.2852 322.755 62.467 323.659 64.7421 323.659H330.06" stroke="#312458" stroke-width="3" stroke-miterlimit="10"/>
<path d="M66.9827 306.8V170.612C66.9826 169.485 66.7604 168.369 66.3287 167.327C65.897 166.286 65.2643 165.34 64.4669 164.544C63.6694 163.747 62.7227 163.115 61.681 162.685C60.6393 162.254 59.523 162.033 58.3958 162.034H47.5568C46.4295 162.033 45.313 162.254 44.2712 162.684C43.2294 163.115 42.2826 163.747 41.485 164.543C40.6874 165.34 40.0547 166.286 39.6229 167.327C39.1912 168.369 38.9689 169.485 38.9688 170.612V187.767C38.9689 188.894 39.1912 190.011 39.6229 191.052C40.0547 192.093 40.6874 193.039 41.485 193.836C42.2826 194.632 43.2294 195.264 44.2712 195.695C45.313 196.125 46.4295 196.346 47.5568 196.345H73.3737C75.6512 196.346 77.836 195.443 79.4487 193.835L245.982 27.499" stroke="#312458" stroke-width="3" stroke-miterlimit="10"/>
<path d="M215.703 125.919H307.455" stroke="#312458" stroke-width="3" stroke-miterlimit="10"/>
<path d="M70.1552 306.503H7.32812" stroke="#312458" stroke-width="3" stroke-miterlimit="10"/>
<path d="M247.789 306.503V355.261" stroke="#312458" stroke-width="3" stroke-miterlimit="10"/>
<path d="M263.837 2.372L237.021 9.54999C236.262 9.75269 235.57 10.1518 235.014 10.707C234.459 11.2623 234.059 11.9541 233.856 12.7129C233.652 13.4717 233.652 14.2707 233.856 15.0294C234.059 15.7882 234.459 16.4799 235.015 17.035L254.645 36.635C255.201 37.1909 255.892 37.5909 256.651 37.7948C257.41 37.9988 258.209 37.9994 258.968 37.7968C259.727 37.5941 260.42 37.1952 260.976 36.6403C261.532 36.0853 261.933 35.3937 262.137 34.635L269.323 7.85399C269.528 7.09457 269.528 6.29471 269.325 5.53501C269.122 4.7753 268.722 4.08261 268.165 3.52672C267.609 2.97083 266.916 2.57139 266.156 2.36867C265.396 2.16594 264.596 2.1671 263.837 2.372Z" stroke="#312458" stroke-width="3" stroke-miterlimit="10"/>
<path d="M307.458 132.24C308.708 132.239 309.929 131.868 310.968 131.173C312.006 130.478 312.815 129.49 313.293 128.335C313.771 127.18 313.895 125.91 313.651 124.684C313.407 123.459 312.804 122.333 311.92 121.45C311.036 120.566 309.91 119.965 308.685 119.721C307.459 119.478 306.188 119.603 305.034 120.081C303.879 120.56 302.892 121.37 302.198 122.409C301.504 123.448 301.133 124.669 301.133 125.919C301.133 126.749 301.297 127.572 301.615 128.339C301.933 129.106 302.399 129.802 302.986 130.389C303.574 130.976 304.271 131.442 305.038 131.759C305.805 132.077 306.628 132.24 307.458 132.24Z" fill="#312458" stroke="#312458" stroke-miterlimit="10"/>
<path d="M328.614 329.246C329.864 329.245 331.085 328.874 332.124 328.178C333.163 327.483 333.972 326.496 334.449 325.341C334.927 324.186 335.051 322.916 334.807 321.69C334.563 320.464 333.96 319.339 333.076 318.455C332.192 317.572 331.066 316.971 329.84 316.727C328.614 316.484 327.344 316.609 326.189 317.088C325.035 317.566 324.048 318.376 323.354 319.415C322.66 320.455 322.289 321.676 322.289 322.926C322.291 324.602 322.959 326.209 324.145 327.394C325.33 328.579 326.938 329.245 328.614 329.246Z" fill="#312458" stroke="#312458" stroke-miterlimit="10"/>
<path d="M246.434 361.129C247.684 361.128 248.906 360.757 249.944 360.062C250.983 359.367 251.792 358.379 252.27 357.224C252.747 356.069 252.872 354.799 252.627 353.573C252.383 352.348 251.781 351.222 250.897 350.339C250.013 349.455 248.887 348.854 247.661 348.61C246.435 348.367 245.165 348.492 244.01 348.97C242.856 349.449 241.869 350.259 241.175 351.298C240.48 352.337 240.11 353.558 240.109 354.808C240.11 356.485 240.777 358.093 241.963 359.278C243.149 360.464 244.758 361.129 246.434 361.129Z" fill="#312458" stroke="#312458" stroke-miterlimit="10"/>
<path d="M7.78113 312.371C9.031 312.37 10.2524 311.998 11.291 311.302C12.3295 310.607 13.1386 309.619 13.616 308.464C14.0933 307.309 14.2175 306.038 13.9728 304.813C13.7282 303.587 13.1256 302.461 12.2413 301.578C11.357 300.695 10.2307 300.093 9.0047 299.85C7.77874 299.607 6.50818 299.732 5.35358 300.211C4.19897 300.689 3.2122 301.5 2.51794 302.539C1.82369 303.578 1.45313 304.8 1.45312 306.05C1.45352 306.881 1.61749 307.703 1.93573 308.47C2.25397 309.237 2.72024 309.934 3.30786 310.521C3.89548 311.108 4.59294 311.574 5.36047 311.891C6.128 312.208 6.95056 312.371 7.78113 312.371Z" fill="#312458" stroke="#312458" stroke-miterlimit="10"/>
</svg>
