<svg width="359" height="296" viewBox="0 0 359 296" fill="none" xmlns="http://www.w3.org/2000/svg">
<path d="M100.699 246.767L109.516 48.9314C109.497 48.7514 109.435 48.5782 109.338 48.4256C109.241 48.2729 109.11 48.1449 108.955 48.0515C108.8 47.9582 108.626 47.9019 108.445 47.8875C108.265 47.873 108.082 47.901 107.914 47.9685L67.5938 63.6814C66.2328 64.0814 65.3497 62.4808 66.5527 61.9168L106.871 42.1961C107.024 42.1693 107.163 42.0909 107.266 41.9744C107.368 41.8578 107.429 41.7104 107.436 41.5554L114.648 2.99782C114.888 1.87482 116.893 1.95494 116.971 3.07594L119.617 41.6355C119.627 41.7667 119.669 41.893 119.738 42.0047C119.808 42.1163 119.904 42.2096 120.018 42.2761L154.646 67.366C155.689 68.089 154.568 69.4524 153.287 68.8894L117.293 49.5711C116.493 49.1711 115.529 49.6509 115.611 50.4539L121.623 246.206C121.623 246.767 121.144 247.169 120.424 247.169H43.2246C39.6176 247.169 36.6491 244.923 36.3281 242.038L27.1895 157.788C26.9495 155.063 24.1444 152.979 20.8594 152.979H11.6406C8.11363 152.979 5.22656 155.303 5.22656 158.27V279.153" stroke="#312558" stroke-width="3" stroke-miterlimit="10" stroke-linecap="round"/>
<path d="M113.283 49.5723C114.623 49.5723 115.908 49.0408 116.855 48.0938C117.803 47.1467 118.334 45.8618 118.334 44.5225C118.334 43.1831 117.803 41.8992 116.855 40.9521C115.908 40.0051 114.623 39.4727 113.283 39.4727C111.944 39.4727 110.66 40.0051 109.713 40.9521C108.766 41.8992 108.234 43.1831 108.234 44.5225C108.234 45.8618 108.766 47.1467 109.713 48.0938C110.66 49.0408 111.944 49.5723 113.283 49.5723Z" stroke="#312558" stroke-width="3" stroke-miterlimit="10"/>
<path d="M252.838 152.179H300.615C301.684 152.17 302.736 152.44 303.67 152.959C304.604 153.478 305.388 154.23 305.945 155.143C306.502 156.055 306.813 157.096 306.847 158.164C306.882 159.232 306.639 160.292 306.142 161.238L282.336 206.849C281.826 207.858 281.048 208.707 280.086 209.301C279.124 209.895 278.015 210.211 276.885 210.216H232.076C231.005 210.211 229.953 209.93 229.023 209.399C228.093 208.869 227.316 208.107 226.767 207.188C226.219 206.268 225.918 205.222 225.892 204.151C225.867 203.081 226.118 202.022 226.623 201.077L265.424 128.532C265.943 127.537 266.726 126.705 267.687 126.125C268.648 125.545 269.75 125.241 270.873 125.245H318.168C319.813 125.264 321.383 125.931 322.539 127.102C323.695 128.272 324.343 129.852 324.342 131.497V158.597C324.342 160.233 324.993 161.804 326.15 162.961C327.308 164.118 328.877 164.769 330.513 164.77H354.64" stroke="#312558" stroke-width="3" stroke-miterlimit="10"/>
<path d="M293.406 185.766L300.057 192.42" stroke="#312558" stroke-width="3" stroke-miterlimit="10"/>
<path d="M302.46 200.117V226.168C302.463 226.937 302.314 227.7 302.021 228.411C301.728 229.122 301.297 229.768 300.753 230.312C300.209 230.856 299.562 231.287 298.851 231.58C298.14 231.873 297.378 232.023 296.609 232.021H207.47L199.052 223.684L216.929 191.219C217.419 190.317 217.665 189.304 217.644 188.277C217.623 187.251 217.338 186.248 216.812 185.366C216.286 184.485 215.539 183.755 214.646 183.249C213.753 182.743 212.745 182.479 211.718 182.482H170.675C169.594 182.475 168.532 182.772 167.611 183.339C166.69 183.906 165.946 184.72 165.464 185.689L141.978 231.86C141.522 232.763 141.306 233.766 141.349 234.776C141.392 235.786 141.693 236.769 142.224 237.629C142.755 238.489 143.497 239.2 144.38 239.692C145.264 240.183 146.258 240.441 147.269 240.439H186.949C188.043 240.456 189.12 240.164 190.056 239.597C190.992 239.029 191.749 238.21 192.24 237.232L196.488 228.653" stroke="#312558" stroke-width="3" stroke-miterlimit="10" stroke-linecap="round"/>
<path d="M302.062 200.116C302.982 200.116 303.882 199.845 304.646 199.334C305.411 198.823 306.007 198.097 306.359 197.247C306.712 196.397 306.804 195.462 306.625 194.56C306.446 193.658 306.004 192.83 305.354 192.179C304.703 191.529 303.875 191.086 302.973 190.906C302.071 190.726 301.135 190.818 300.285 191.17C299.435 191.522 298.708 192.118 298.197 192.883C297.686 193.647 297.414 194.547 297.414 195.467C297.415 196.699 297.906 197.881 298.777 198.753C299.649 199.625 300.83 200.115 302.062 200.116Z" stroke="#312558" stroke-width="3" stroke-miterlimit="10"/>
<path d="M282.258 158.031L272.238 178.23H292.359L302.459 158.031H256.207L244.422 178.23H264.621L276.402 154.664" stroke="#312558" stroke-width="3" stroke-miterlimit="10" stroke-linecap="round"/>
<path d="M293.24 157.229L283.141 178.229" stroke="#312558" stroke-width="3" stroke-miterlimit="10"/>
<path d="M278.094 168.131H297.414" stroke="#312558" stroke-width="3" stroke-miterlimit="10"/>
<path d="M202.344 189.773L193.125 208.05" stroke="#312558" stroke-width="3" stroke-miterlimit="10"/>
<path d="M188.555 199.232H206.191" stroke="#312558" stroke-width="3" stroke-miterlimit="10"/>
<path d="M250.758 168.051H269.596" stroke="#312558" stroke-width="3" stroke-miterlimit="10"/>
<path d="M265.51 158.911L256.211 177.428" stroke="#312558" stroke-width="3" stroke-miterlimit="10"/>
<path d="M227.594 183.28H262.146L251.164 204.28H231.846L241.945 184.16" stroke="#312558" stroke-width="3" stroke-miterlimit="10"/>
<path d="M268.873 184.163H288.193L278.094 204.283H258.773L268.873 184.163Z" stroke="#312558" stroke-width="3" stroke-miterlimit="10"/>
<path d="M279.297 184.163L268.156 204.283" stroke="#312558" stroke-width="3" stroke-miterlimit="10"/>
<path d="M264.227 193.461H282.744" stroke="#312558" stroke-width="3" stroke-miterlimit="10"/>
<path d="M242.742 204.283L252.361 183.44" stroke="#312558" stroke-width="3" stroke-miterlimit="10"/>
<path d="M256.213 194.183H237.133" stroke="#312558" stroke-width="3" stroke-miterlimit="10"/>
<path d="M192.561 190.175L183.262 208.612H201.777L210.996 190.175H168.67L157.93 208.612H176.367L187.107 187.049" stroke="#312558" stroke-width="3" stroke-miterlimit="10" stroke-linecap="round"/>
<path d="M163.625 199.313H180.939" stroke="#312558" stroke-width="3" stroke-miterlimit="10"/>
<path d="M177.172 190.896L168.672 207.889" stroke="#312558" stroke-width="3" stroke-miterlimit="10"/>
<path d="M142.461 213.261H174.045L164.025 232.499H146.311L155.609 213.98" stroke="#312558" stroke-width="3" stroke-miterlimit="10"/>
<path d="M180.219 213.982H197.934L188.715 232.499H171L180.219 213.982Z" stroke="#312558" stroke-width="3" stroke-miterlimit="10"/>
<path d="M189.758 213.982L179.578 232.499" stroke="#312558" stroke-width="3" stroke-miterlimit="10"/>
<path d="M175.969 222.56H192.963" stroke="#312558" stroke-width="3" stroke-miterlimit="10"/>
<path d="M156.328 232.5L165.145 213.422" stroke="#312558" stroke-width="3" stroke-miterlimit="10"/>
<path d="M168.678 223.281H151.203" stroke="#312558" stroke-width="3" stroke-miterlimit="10"/>
<path d="M289.797 232.499V248.051C289.784 249.613 289.153 251.106 288.041 252.203C286.929 253.3 285.427 253.912 283.865 253.903H188.953" stroke="#312558" stroke-width="3" stroke-miterlimit="10"/>
<path d="M207.473 182.48V180.796C207.475 180.016 207.323 179.244 207.025 178.523C206.728 177.803 206.29 177.148 205.738 176.597C205.187 176.045 204.533 175.609 203.812 175.312C203.092 175.014 202.319 174.862 201.539 174.864H187.273" stroke="#312558" stroke-width="3" stroke-miterlimit="10"/>
<path d="M353.762 168.131C354.315 168.136 354.862 168.033 355.375 167.826C355.888 167.62 356.356 167.314 356.75 166.927C357.145 166.54 357.459 166.079 357.676 165.57C357.892 165.062 358.007 164.516 358.012 163.963C358.004 162.838 357.553 161.762 356.758 160.967C355.963 160.172 354.887 159.721 353.762 159.714C352.646 159.725 351.579 160.179 350.797 160.976C350.015 161.772 349.583 162.847 349.594 163.963C349.59 164.511 349.694 165.055 349.903 165.562C350.111 166.07 350.417 166.531 350.805 166.919C351.193 167.307 351.655 167.613 352.162 167.821C352.67 168.029 353.213 168.135 353.762 168.131Z" fill="#312558" stroke="#312558" stroke-miterlimit="10"/>
<path d="M187.67 257.671C188.223 257.676 188.771 257.573 189.283 257.366C189.796 257.16 190.262 256.854 190.656 256.467C191.051 256.08 191.366 255.619 191.582 255.11C191.799 254.602 191.913 254.056 191.918 253.503C191.911 252.378 191.461 251.302 190.666 250.507C189.871 249.712 188.795 249.262 187.67 249.254C186.554 249.264 185.487 249.718 184.705 250.515C183.923 251.311 183.49 252.387 183.5 253.503C183.497 254.051 183.602 254.595 183.811 255.103C184.019 255.61 184.325 256.071 184.713 256.459C185.101 256.847 185.563 257.153 186.07 257.361C186.578 257.569 187.122 257.675 187.67 257.671Z" fill="#312558" stroke="#312558" stroke-miterlimit="10"/>
<path d="M116.17 295.508C116.725 295.52 117.277 295.421 117.793 295.217C118.309 295.013 118.781 294.708 119.178 294.319C119.575 293.931 119.89 293.468 120.105 292.956C120.321 292.444 120.432 291.894 120.432 291.339C120.432 290.784 120.321 290.234 120.105 289.722C119.89 289.21 119.575 288.747 119.178 288.358C118.781 287.97 118.309 287.665 117.793 287.461C117.277 287.257 116.725 287.158 116.17 287.17C115.064 287.17 114.004 287.609 113.223 288.391C112.441 289.172 112 290.233 112 291.339C112 292.445 112.441 293.505 113.223 294.287C114.004 295.069 115.064 295.508 116.17 295.508Z" fill="#312558" stroke="#312558" stroke-miterlimit="10"/>
<path d="M5.22656 283.803C6.33838 283.778 7.39702 283.32 8.17578 282.526C8.95454 281.732 9.39166 280.666 9.39453 279.554C9.39453 278.437 8.95145 277.367 8.16211 276.578C7.37277 275.789 6.30184 275.345 5.18555 275.345C4.06925 275.345 2.99832 275.789 2.20898 276.578C1.41964 277.367 0.976562 278.437 0.976562 279.554C0.984163 280.678 1.43505 281.756 2.23047 282.551C3.02589 283.346 4.10183 283.795 5.22656 283.803Z" fill="#312558" stroke="#312558" stroke-miterlimit="10"/>
<path d="M225.512 112.259C226.637 112.252 227.713 111.802 228.508 111.007C229.303 110.212 229.754 109.136 229.762 108.011C229.757 107.458 229.642 106.912 229.426 106.404C229.21 105.895 228.895 105.433 228.5 105.046C228.106 104.659 227.638 104.353 227.125 104.147C226.612 103.94 226.065 103.837 225.512 103.842C224.963 103.838 224.42 103.943 223.912 104.152C223.405 104.36 222.943 104.667 222.555 105.055C222.167 105.443 221.861 105.904 221.653 106.411C221.444 106.919 221.34 107.462 221.344 108.011C221.339 108.564 221.442 109.112 221.649 109.624C221.855 110.137 222.16 110.604 222.547 110.998C222.934 111.393 223.396 111.708 223.904 111.924C224.413 112.14 224.959 112.254 225.512 112.259Z" fill="#312558" stroke="#312558" stroke-miterlimit="10"/>
<path d="M196.969 64.3215C197.521 64.3163 198.068 64.2019 198.576 63.9856C199.085 63.7692 199.545 63.4552 199.932 63.0608C200.319 62.6663 200.625 62.1993 200.832 61.6867C201.039 61.1742 201.142 60.6261 201.137 60.0735C201.141 59.525 201.034 58.9813 200.826 58.4738C200.618 57.9664 200.312 57.5052 199.924 57.1174C199.536 56.7296 199.076 56.4232 198.568 56.2151C198.061 56.007 197.517 55.9016 196.969 55.9055C196.416 55.8999 195.868 56.0037 195.355 56.2102C194.843 56.4167 194.375 56.7215 193.98 57.1086C193.586 57.4957 193.271 57.9574 193.055 58.466C192.838 58.9747 192.724 59.5207 192.719 60.0735C192.726 61.1981 193.177 62.2745 193.973 63.0695C194.768 63.8646 195.844 64.3144 196.969 64.3215Z" fill="#312558" stroke="#312558" stroke-miterlimit="10"/>
<path d="M321.379 85.3242C322.495 85.3242 323.564 84.8809 324.354 84.0918C325.143 83.3026 325.588 82.2322 325.588 81.1162C325.588 80.0002 325.143 78.9298 324.354 78.1406C323.564 77.3515 322.495 76.9082 321.379 76.9082C320.263 76.9082 319.193 77.3515 318.404 78.1406C317.615 78.9298 317.172 80.0002 317.172 81.1162C317.172 82.2322 317.615 83.3026 318.404 84.0918C319.193 84.8809 320.263 85.3242 321.379 85.3242Z" fill="#312558" stroke="#312558" stroke-miterlimit="10"/>
<path d="M237.295 25.6045C238.411 25.6146 239.487 25.1812 240.283 24.3994C241.08 23.6176 241.532 22.5516 241.543 21.4355C241.536 20.3113 241.086 19.2345 240.291 18.4395C239.496 17.6444 238.419 17.1951 237.295 17.1875C236.742 17.1925 236.196 17.3063 235.688 17.5225C235.179 17.7387 234.718 18.0528 234.33 18.4473C233.943 18.8418 233.637 19.3086 233.43 19.8213C233.223 20.334 233.12 20.8828 233.125 21.4355C233.121 21.9842 233.228 22.5275 233.436 23.0352C233.644 23.5428 233.95 24.0047 234.338 24.3926C234.726 24.7805 235.188 25.0868 235.696 25.2949C236.203 25.503 236.746 25.6085 237.295 25.6045Z" fill="#312558" stroke="#312558" stroke-miterlimit="10"/>
<path d="M186.875 179.514C187.991 179.503 189.058 179.049 189.84 178.252C190.621 177.455 191.054 176.381 191.043 175.265C191.047 174.716 190.942 174.173 190.734 173.665C190.526 173.158 190.22 172.697 189.832 172.309C189.444 171.921 188.982 171.615 188.475 171.406C187.967 171.198 187.423 171.093 186.875 171.097C186.322 171.091 185.774 171.195 185.262 171.402C184.749 171.608 184.281 171.913 183.887 172.3C183.492 172.687 183.177 173.149 182.961 173.657C182.744 174.166 182.63 174.712 182.625 175.265C182.633 176.39 183.084 177.466 183.879 178.261C184.674 179.056 185.75 179.506 186.875 179.514Z" fill="#312558" stroke="#312558" stroke-miterlimit="10"/>
<path d="M140.615 217.351C141.732 217.34 142.798 216.885 143.58 216.088C144.362 215.291 144.795 214.217 144.785 213.101C144.789 212.552 144.683 212.009 144.475 211.501C144.266 210.994 143.96 210.533 143.572 210.145C143.184 209.757 142.722 209.449 142.215 209.241C141.707 209.033 141.164 208.929 140.615 208.933C140.063 208.928 139.515 209.031 139.002 209.237C138.489 209.444 138.021 209.75 137.627 210.137C137.232 210.524 136.919 210.985 136.703 211.493C136.487 212.002 136.372 212.548 136.367 213.101C136.375 214.225 136.824 215.301 137.619 216.097C138.414 216.892 139.491 217.343 140.615 217.351Z" fill="#312558" stroke="#312558" stroke-miterlimit="10"/>
<path d="M125.469 120.675C126.021 120.67 126.568 120.556 127.076 120.34C127.585 120.124 128.045 119.809 128.432 119.414C128.819 119.02 129.125 118.553 129.332 118.04C129.539 117.528 129.642 116.98 129.637 116.427C129.64 115.879 129.534 115.335 129.326 114.827C129.118 114.32 128.812 113.86 128.424 113.472C128.036 113.084 127.576 112.777 127.068 112.569C126.561 112.36 126.017 112.255 125.469 112.259C124.353 112.248 123.277 112.681 122.48 113.463C121.683 114.245 121.23 115.311 121.219 116.427C121.227 117.552 121.677 118.628 122.473 119.423C123.268 120.218 124.344 120.668 125.469 120.675Z" fill="#312558" stroke="#312558" stroke-miterlimit="10"/>
<path d="M226.389 187.048C226.937 187.052 227.481 186.947 227.988 186.739C228.496 186.531 228.958 186.224 229.346 185.836C229.734 185.448 230.04 184.987 230.248 184.479C230.456 183.972 230.562 183.428 230.559 182.88C230.569 181.764 230.135 180.689 229.354 179.893C228.572 179.096 227.505 178.642 226.389 178.631C225.264 178.638 224.188 179.089 223.393 179.884C222.598 180.679 222.148 181.755 222.141 182.88C222.146 183.432 222.26 183.979 222.477 184.487C222.693 184.996 223.006 185.457 223.4 185.844C223.795 186.231 224.263 186.537 224.775 186.743C225.288 186.95 225.836 187.053 226.389 187.048Z" fill="#312558" stroke="#312558" stroke-miterlimit="10"/>
<path d="M99.4141 246.768V147.45C99.4108 146.691 99.5569 145.939 99.8458 145.237C100.135 144.536 100.559 143.898 101.096 143.361C101.632 142.825 102.271 142.399 102.973 142.11C103.674 141.821 104.425 141.675 105.184 141.678H219.734C221.275 141.666 222.75 141.044 223.832 139.946C224.914 138.849 225.516 137.367 225.506 135.826V108.009" stroke="#312558" stroke-width="3" stroke-miterlimit="10"/>
<path d="M306.711 195.465H313.525C315.067 195.477 316.539 196.101 317.621 197.198C318.703 198.296 319.305 199.778 319.295 201.319V269.133C319.298 269.892 319.152 270.644 318.863 271.346C318.575 272.047 318.15 272.685 317.613 273.222C317.077 273.758 316.438 274.184 315.736 274.473C315.035 274.762 314.284 274.909 313.525 274.906H93.8028C92.2616 274.918 90.7895 275.54 89.7071 276.638C88.6247 277.735 88.022 279.217 88.0314 280.758V285.967C88.0283 286.726 88.1759 287.478 88.465 288.18C88.754 288.881 89.1782 289.519 89.715 290.056C90.2517 290.592 90.8901 291.017 91.5919 291.306C92.2937 291.594 93.044 291.742 93.8028 291.738H116.65" stroke="#312558" stroke-width="3" stroke-miterlimit="10"/>
<path d="M197.373 62.1562V81.5566C197.376 82.0785 197.484 82.5947 197.688 83.0752C197.891 83.5557 198.188 83.9903 198.561 84.3555C198.933 84.7206 199.375 85.0084 199.859 85.2021C200.344 85.3959 200.861 85.4919 201.383 85.4844H204.748C205.798 85.5033 206.798 85.9338 207.533 86.6836C208.268 87.4334 208.678 88.4423 208.676 89.4922V94.543H117.453" stroke="#312558" stroke-width="3" stroke-miterlimit="10" stroke-linecap="round"/>
<path d="M85.3047 57.668V91.6543C85.3002 93.8744 86.1759 96.0068 87.7383 97.584C89.3007 99.1612 91.4226 100.055 93.6426 100.071H126.75C128.972 100.071 131.103 100.954 132.674 102.525C134.245 104.096 135.127 106.228 135.127 108.449C135.127 110.671 134.245 112.801 132.674 114.372C131.103 115.943 128.972 116.826 126.75 116.826" stroke="#312558" stroke-width="3" stroke-miterlimit="10" stroke-linecap="round"/>
<path d="M77.9336 245.486L72.5645 207.65C72.4969 207.389 72.4692 207.12 72.4824 206.851V139.516C72.4673 138.075 71.8897 136.698 70.8711 135.679C69.8525 134.66 68.4739 134.08 67.0332 134.064H64.4688C63.0277 134.08 61.6499 134.659 60.6309 135.678C59.6119 136.697 59.0327 138.075 59.0176 139.516V207.572C59.0308 207.922 59.0039 208.271 58.9375 208.614L51.8828 245.488" stroke="#312558" stroke-width="3" stroke-miterlimit="10" stroke-linecap="round"/>
<path d="M72.4785 143.762H59.4141V160.596H72.4766L72.4785 143.762Z" stroke="#312558" stroke-width="3" stroke-miterlimit="10" stroke-linecap="round"/>
<path d="M72.4785 178.229H59.4141V195.063H72.4766L72.4785 178.229Z" stroke="#312558" stroke-width="3" stroke-miterlimit="10" stroke-linecap="round"/>
<path d="M59.4141 143.762L71.7578 159.635C71.969 159.91 72.082 160.249 72.0781 160.596C72.086 160.757 72.0608 160.918 72.0059 161.069C71.9509 161.221 71.867 161.36 71.7578 161.479L60.457 176.789C60.1764 177.222 60.0342 177.73 60.0488 178.245C60.0635 178.761 60.2343 179.26 60.5391 179.676L72.2402 194.746C72.4066 194.929 72.6348 195.043 72.8809 195.066H90.0352C90.2038 195.067 90.3688 195.014 90.5059 194.916C90.6429 194.818 90.7436 194.679 90.7969 194.519C90.8501 194.358 90.8516 194.186 90.8008 194.025C90.7499 193.865 90.6512 193.723 90.5156 193.623L73.4434 178.793C73.3255 178.671 73.2441 178.519 73.209 178.354C73.1739 178.188 73.1858 178.015 73.2441 177.856C73.3025 177.697 73.4051 177.559 73.5391 177.455C73.673 177.352 73.8334 177.288 74.002 177.271H91.5586C91.7273 177.272 91.8922 177.219 92.0293 177.121C92.1664 177.023 92.269 176.884 92.3223 176.724C92.3755 176.564 92.377 176.39 92.3262 176.229C92.2753 176.069 92.1746 175.928 92.0391 175.828L74.7246 162.041C74.5976 161.93 74.5089 161.781 74.4688 161.617C74.4286 161.453 74.4388 161.281 74.5 161.123C74.5612 160.966 74.6701 160.831 74.8105 160.737C74.951 160.643 75.1162 160.594 75.2852 160.598H93.002C93.1776 160.593 93.348 160.534 93.4883 160.429C93.6286 160.323 93.7323 160.175 93.7852 160.008C93.838 159.84 93.8375 159.661 93.7832 159.494C93.7289 159.327 93.6236 159.181 93.4824 159.076L73.123 144.246C73.04 144.179 72.9446 144.13 72.8418 144.102C72.739 144.073 72.6309 144.067 72.5254 144.082C72.4199 144.097 72.3193 144.134 72.2285 144.189C72.1378 144.245 72.059 144.32 71.998 144.407L60.5371 159.156C60.2323 159.572 60.0615 160.07 60.0469 160.586C60.0322 161.101 60.1744 161.609 60.4551 162.042L71.4395 176.791C71.7201 177.224 71.8623 177.731 71.8477 178.247C71.833 178.763 71.6622 179.262 71.3574 179.678L59.416 195.069" stroke="#312558" stroke-width="3" stroke-miterlimit="10" stroke-linecap="round"/>
<path d="M72.083 143.762L59.7392 159.635C59.5264 159.909 59.4132 160.248 59.4189 160.596C59.4117 160.906 59.4946 161.214 59.6572 161.479L70.958 176.789C71.27 177.206 71.4385 177.712 71.4385 178.232C71.4385 178.753 71.27 179.259 70.958 179.676L59.2529 194.746C59.0868 194.929 58.8565 195.044 58.6103 195.066H41.458C41.2893 195.067 41.1244 195.014 40.9873 194.916C40.8502 194.818 40.7476 194.679 40.6943 194.519C40.6411 194.358 40.6396 194.186 40.6904 194.025C40.7413 193.865 40.8419 193.723 40.9775 193.623L57.9697 178.793C58.1033 178.685 58.2015 178.539 58.251 178.374C58.3005 178.209 58.2988 178.033 58.2471 177.869C58.1953 177.705 58.095 177.56 57.9599 177.453C57.8249 177.347 57.6609 177.284 57.4892 177.271H39.9346C39.7633 177.278 39.595 177.228 39.4541 177.131C39.3132 177.033 39.2074 176.892 39.1533 176.729C39.0992 176.567 39.099 176.391 39.1533 176.229C39.2076 176.066 39.3131 175.926 39.4541 175.828L56.6885 162.041C56.8295 161.944 56.9349 161.803 56.9892 161.641C57.0436 161.478 57.0433 161.302 56.9892 161.14C56.9351 160.977 56.8293 160.836 56.6885 160.738C56.5476 160.641 56.3793 160.591 56.208 160.598H38.4932C38.3159 160.599 38.1428 160.545 37.9971 160.444C37.8514 160.343 37.7401 160.2 37.6787 160.034C37.6173 159.868 37.6082 159.687 37.6533 159.516C37.6985 159.344 37.7953 159.191 37.9307 159.076L58.3721 144.246C58.4553 144.181 58.5511 144.133 58.6533 144.105C58.7556 144.078 58.863 144.072 58.9678 144.087C59.0725 144.102 59.1723 144.138 59.2627 144.193C59.3531 144.248 59.4317 144.321 59.4932 144.407L70.958 159.156C71.2699 159.573 71.4385 160.078 71.4385 160.599C71.4385 161.119 71.2699 161.626 70.958 162.042L60.0576 176.791C59.7578 177.217 59.6034 177.728 59.6182 178.248C59.6329 178.768 59.8161 179.27 60.1396 179.678L72.083 195.069" stroke="#312558" stroke-width="3" stroke-miterlimit="10" stroke-linecap="round"/>
<path d="M39.2109 160.596H43.4609V164.604C43.465 164.848 43.4213 165.089 43.3301 165.314C43.2389 165.54 43.1037 165.745 42.9316 165.917C42.7596 166.089 42.5537 166.225 42.3281 166.316C42.1026 166.408 41.8605 166.453 41.6172 166.449H41.0566C40.5688 166.444 40.1029 166.248 39.7578 165.903C39.4128 165.558 39.2164 165.092 39.2109 164.604V160.596Z" stroke="#312558" stroke-width="3" stroke-miterlimit="10" stroke-linecap="round"/>
<path d="M88.0315 160.596H92.2014V164.604C92.2074 164.842 92.1678 165.078 92.0823 165.299C91.9968 165.52 91.8673 165.722 91.7034 165.894C91.5395 166.065 91.3425 166.202 91.1253 166.298C90.9081 166.393 90.6749 166.445 90.4378 166.449H89.8772C89.6337 166.453 89.3921 166.409 89.1663 166.317C88.9405 166.226 88.735 166.09 88.5628 165.918C88.3905 165.746 88.2537 165.541 88.1624 165.315C88.071 165.09 88.0274 164.848 88.0315 164.604V160.596Z" stroke="#312558" stroke-width="3" stroke-miterlimit="10" stroke-linecap="round"/>
<path d="M39.2109 177.43H43.4609V181.438C43.465 181.682 43.4213 181.923 43.3301 182.148C43.2389 182.374 43.1037 182.58 42.9316 182.752C42.7596 182.924 42.5537 183.06 42.3281 183.151C42.1026 183.243 41.8606 183.288 41.6172 183.284H41.0566C40.5687 183.279 40.1028 183.082 39.7578 182.737C39.4128 182.392 39.2164 181.926 39.2109 181.438V177.43Z" stroke="#312558" stroke-width="3" stroke-miterlimit="10" stroke-linecap="round"/>
<path d="M87.1484 177.43H91.3984V181.438C91.4026 181.682 91.3587 181.924 91.2676 182.149C91.1764 182.375 91.0392 182.58 90.8672 182.752C90.6951 182.924 90.4913 183.06 90.2656 183.151C90.04 183.243 89.7981 183.288 89.5547 183.284H88.9922C88.5046 183.278 88.038 183.082 87.6934 182.737C87.3487 182.392 87.1536 181.926 87.1484 181.438V177.43Z" stroke="#312558" stroke-width="3" stroke-miterlimit="10" stroke-linecap="round"/>
<path d="M42.5801 195.866H46.8281V199.956C46.832 200.199 46.7866 200.441 46.6953 200.666C46.604 200.892 46.4689 201.097 46.2969 201.269C46.1249 201.441 45.9189 201.576 45.6934 201.667C45.4679 201.758 45.2276 201.804 44.9844 201.8H44.4219C43.9344 201.795 43.4697 201.599 43.125 201.254C42.7803 200.909 42.5833 200.444 42.5781 199.956L42.5801 195.866Z" stroke="#312558" stroke-width="3" stroke-miterlimit="10" stroke-linecap="round"/>
<path d="M85.4688 195.866H89.7168V199.956C89.721 200.199 89.675 200.441 89.584 200.666C89.4929 200.892 89.3574 201.097 89.1855 201.269C89.0137 201.441 88.8094 201.576 88.584 201.667C88.3586 201.758 88.1181 201.804 87.875 201.8H87.3125C86.8251 201.794 86.3583 201.599 86.0137 201.254C85.669 200.909 85.4742 200.443 85.4688 199.956V195.866Z" stroke="#312558" stroke-width="3" stroke-miterlimit="10" stroke-linecap="round"/>
<path d="M293.408 36.8271H241.863C239.539 36.8271 237.697 37.8694 237.697 39.1514V92.0566C237.697 93.4196 235.611 94.543 233.127 94.543H207.875" stroke="#312558" stroke-width="3" stroke-miterlimit="10" stroke-linecap="round"/>
<path d="M237.694 73.3008H223.985C221.34 73.3008 219.176 72.0182 219.417 70.5752L224.788 32.4189C225.028 31.2189 226.788 30.2539 229.036 30.2539H254.208" stroke="#312558" stroke-width="3" stroke-miterlimit="10" stroke-linecap="round"/>
<path d="M293.486 72.5791H307.195C309.84 72.5791 310.882 72.0165 311.764 69.8535L306.635 33.8613C306.393 32.0173 304.309 30.494 301.584 30.334C301.424 30.334 301.26 30.2539 301.021 30.2539H275.852" stroke="#312558" stroke-width="3" stroke-miterlimit="10" stroke-linecap="round"/>
<path d="M237.695 39.3115V24.4814" stroke="#312558" stroke-width="3" stroke-miterlimit="10" stroke-linecap="round"/>
<path d="M243.547 40.5947V24.5635C243.547 23.2805 245.471 22.2373 247.797 22.2373H259.178C261.504 22.2373 263.428 23.2805 263.428 24.5635V36.1045" stroke="#312558" stroke-width="3" stroke-miterlimit="10" stroke-linecap="round"/>
<path d="M267.992 36.5068V24.5645C267.992 23.2815 269.836 22.2383 272.162 22.2383H283.545C285.869 22.2383 287.793 23.2815 287.793 24.5645V36.1055" stroke="#312558" stroke-width="3" stroke-miterlimit="10" stroke-linecap="round"/>
<path d="M237.695 45.8047H244.268C246.592 45.8047 248.516 46.8459 248.516 48.1279V76.1855" stroke="#312558" stroke-width="3" stroke-miterlimit="10" stroke-linecap="round"/>
<path d="M292.525 45.8047H285.953C283.627 45.8047 281.703 46.8459 281.703 48.1279V75.4639" stroke="#312558" stroke-width="3" stroke-miterlimit="10" stroke-linecap="round"/>
<path d="M259.656 74.7422V48.1289C259.656 46.8469 261.582 45.8057 263.906 45.8057H266.307C268.633 45.8057 270.475 46.8469 270.475 48.1289V77.5479" stroke="#312558" stroke-width="3" stroke-miterlimit="10" stroke-linecap="round"/>
<path d="M237.695 79.4769L242.506 76.4301C243.947 75.6301 247.235 75.7092 248.438 76.5902L250.121 77.8734C251.321 78.7554 254.609 78.7555 255.973 77.9535L259.418 75.8695C260.861 75.0695 264.389 75.1468 265.432 76.1088L267.197 77.7094C268.318 78.6714 272.006 78.7515 273.369 77.8695L275.693 76.1849C277.056 75.2229 280.744 75.303 281.787 76.265L283.471 77.7885C284.51 78.7505 288.2 78.8296 289.561 77.9486L292.928 75.6234C294.291 74.7414 297.818 74.8236 299.021 75.7836L301.104 77.5473C302.304 78.5893 306.154 78.5103 307.357 77.5473L309.201 75.8637C310.401 74.8207 314.33 74.9017 315.455 75.9437L320.502 80.5931" stroke="#312558" stroke-width="3" stroke-miterlimit="10" stroke-linecap="round"/>
<path d="M321.379 97.1076C322.504 97.1006 323.58 96.65 324.375 95.8547C325.171 95.0594 325.622 93.9834 325.629 92.8586C325.624 92.3059 325.51 91.7597 325.293 91.2512C325.077 90.7426 324.762 90.2817 324.367 89.8947C323.973 89.5078 323.505 89.2018 322.992 88.9953C322.48 88.7889 321.932 88.6861 321.379 88.6916C320.831 88.6879 320.287 88.7931 319.779 89.0012C319.272 89.2093 318.812 89.5159 318.424 89.9035C318.036 90.2912 317.73 90.7518 317.522 91.259C317.313 91.7663 317.208 92.3103 317.211 92.8586C317.201 93.9747 317.635 95.0491 318.416 95.8459C319.198 96.6427 320.263 97.0965 321.379 97.1076Z" fill="#312558" stroke="#312558" stroke-miterlimit="10"/>
<path d="M237.695 91.2569L242.506 88.211C243.947 87.411 247.235 87.4891 248.438 88.3711L250.121 89.5704C251.321 90.4524 254.609 90.5325 255.973 89.7315L259.418 87.6465C260.861 86.8465 264.389 86.9257 265.432 87.8877L267.197 89.4873C268.318 90.4493 272.006 90.5294 273.369 89.5674L275.693 87.9678C277.056 87.0058 280.744 87.0869 281.787 88.0479L283.471 89.5704C284.51 90.5324 288.2 90.6125 289.561 89.7315L292.928 87.4063C294.291 86.5243 297.818 86.6064 299.021 87.4864L301.104 89.3311C302.304 90.2931 306.154 90.293 307.357 89.251L309.201 87.6504C310.401 86.6084 314.33 86.6084 315.455 87.6504L320.502 92.3799" stroke="#312558" stroke-width="3" stroke-miterlimit="10" stroke-linecap="round"/>
<path d="M293.562 30.4131V72.4131" stroke="#312558" stroke-width="3" stroke-miterlimit="10" stroke-linecap="round"/>
</svg>
