<svg width="288" height="298" viewBox="0 0 288 298" fill="none" xmlns="http://www.w3.org/2000/svg">
<path d="M253.854 239.954C253.891 234.85 249.824 230.73 244.742 230.723C239.786 230.708 235.719 234.693 235.63 239.648C235.54 244.768 239.533 248.947 244.585 249.014C249.652 249.089 253.824 245.014 253.854 239.954ZM52.3683 239.82C52.3533 234.738 48.2041 230.656 43.1295 230.723C38.1593 230.798 34.1817 234.798 34.1444 239.775C34.1071 244.887 38.1668 249.014 43.2265 249.021C48.2936 249.029 52.3832 244.91 52.3683 239.82ZM21.2563 58.0587C26.4056 58.081 30.5175 53.984 30.4578 48.8795C30.4056 43.887 26.3757 39.9019 21.3608 39.887C16.2339 39.8721 12.1294 43.9691 12.1667 49.0661C12.2115 54.0363 16.2563 58.0437 21.2563 58.0587ZM266.734 58.0587C271.734 58.0437 275.786 54.0288 275.824 49.0586C275.868 43.9616 271.757 39.8646 266.615 39.887C261.615 39.9094 257.555 43.9169 257.503 48.887C257.451 53.9467 261.615 58.081 266.734 58.0587ZM270.115 149.88C275.085 149.85 279.197 145.79 279.242 140.872C279.294 135.857 275.055 131.663 269.98 131.693C265.025 131.715 260.906 135.79 260.846 140.715C260.794 145.723 265.025 149.909 270.115 149.88ZM17.9951 131.693C12.9205 131.671 8.70405 135.865 8.75629 140.887C8.80853 145.812 12.913 149.85 17.8832 149.88C22.9727 149.909 27.219 145.701 27.1518 140.701C27.0847 135.775 22.9503 131.715 17.9951 131.693ZM163.092 270.924H124.756C124.756 274.051 124.697 277.022 124.771 279.992C124.906 284.977 128.562 288.88 133.525 288.992C140.48 289.148 147.443 289.133 154.391 288.999C158.764 288.91 162.607 285.611 163.025 281.432C163.361 278.014 163.092 274.529 163.092 270.924ZM185.286 241.91C185.286 239.932 185.294 238.305 185.286 236.686C185.279 231.536 184.219 230.492 178.95 230.492C162.697 230.484 146.45 230.484 130.197 230.484C122.652 230.484 115.115 230.499 107.57 230.484C105.324 230.477 103.241 231.141 102.891 233.469C102.48 236.156 102.794 238.947 102.794 241.91H128.63C129.406 241.91 130.182 241.887 130.95 241.932C133.853 242.081 135.741 243.835 135.704 246.32C135.667 248.783 133.734 250.641 130.846 250.663C122.525 250.73 114.204 250.693 105.891 250.693H102.637V255.439C102.644 261.23 103.391 261.992 109.144 261.992C132.361 261.992 155.577 261.992 178.794 261.984C179.853 261.984 181.137 262.275 181.928 261.79C183.197 261.007 184.824 259.835 185.077 258.581C185.57 256.111 185.219 253.469 185.219 250.693C175.339 250.693 165.779 250.708 156.219 250.686C152.689 250.678 150.6 248.947 150.652 246.186C150.697 243.507 152.63 241.932 156.085 241.924C164.697 241.895 173.301 241.91 181.913 241.91H185.286ZM130.644 297.798C129.219 297.245 127.741 296.798 126.383 296.126C119.958 292.932 116.346 287.798 116.033 280.559C115.898 277.477 116.01 274.38 116.01 270.76C113.241 270.76 110.674 270.768 108.107 270.76C98.9728 270.73 93.8907 265.708 93.8534 256.611C93.8161 249.842 93.831 243.066 93.8459 236.29C93.8683 226.798 98.8758 221.76 108.309 221.73H111.727C111.353 213.454 108.6 206.193 104.921 199.111C102.6 194.641 99.8086 192.663 94.3758 192.857C80.5549 193.365 66.7041 193.021 52.8683 193.029C48.2489 193.029 47.6295 193.648 47.6295 198.178C47.622 205.342 47.6966 212.499 47.5772 219.663C47.5474 221.701 48.1369 222.626 50.1145 223.417C58.0474 226.581 62.3608 234.686 60.9205 243.156C59.5698 251.051 52.3459 257.41 44.3459 257.745C35.5474 258.111 28.1668 252.768 25.9205 244.417C23.5847 235.753 28.025 226.753 36.5175 223.335C38.3309 222.604 38.9727 221.783 38.9354 219.798C38.8011 212.447 38.8757 205.089 38.8832 197.738C38.8906 188.827 43.525 184.208 52.525 184.186C65.0101 184.163 77.4952 184.178 89.9802 184.178H93.9131C92.8235 182.805 92.1071 181.872 91.3534 180.969C83.9429 171.999 76.8235 162.842 72.9952 151.633C72.2862 149.551 72.1295 146.604 70.6668 145.626C69.0399 144.536 66.2116 145.171 63.9056 145.171C55.2936 145.141 46.6742 145.215 38.0623 145.111C36.1369 145.089 35.2563 145.618 34.51 147.492C31.2339 155.671 22.8533 160.059 14.2638 158.357C6.24136 156.768 0.136875 149.417 0.00254719 141.178C-0.139244 132.596 5.6518 125.245 14.0921 123.29C22.51 121.342 31.2414 125.895 34.5548 134.186C35.2638 135.954 36.0847 136.454 37.8906 136.432C48.331 136.35 58.7713 136.395 69.5847 136.395C68.5548 125.648 69.622 115.268 72.5325 104.581H69.2265C56.2638 104.581 43.2936 104.596 30.3235 104.574C21.5697 104.559 16.9055 99.8721 16.8906 91.1333C16.8832 82.9169 16.8906 74.7005 16.8906 66.4393C10.4279 64.3348 5.9727 60.3497 4.0921 53.9019C1.40553 44.7004 6.44285 35.1706 15.5324 32.0139C24.5026 28.8944 34.4205 33.4691 37.9727 42.3721C41.51 51.2228 37.5324 61.4542 28.6817 65.1706C26.0847 66.2602 25.5548 67.5661 25.607 70.0512C25.7488 77.0139 25.6444 83.9841 25.6593 90.9542C25.6667 94.9393 26.4951 95.79 30.3533 95.7975C44.6742 95.805 59.0026 95.7527 73.3235 95.8572C75.3161 95.8721 76.0399 95.0363 76.9877 93.4766C80.1369 88.2826 83.4131 83.1482 86.9653 78.2229C89.2564 75.0512 91.9056 74.7452 94.0922 76.7303C96.1295 78.5736 95.8982 80.9766 93.5847 83.8796C78.0772 103.38 74.2414 125.163 81.3981 148.842C84.1817 158.066 90.2116 165.514 96.1071 172.977C101.443 179.723 106.846 186.447 111.652 193.566C117.264 201.895 119.935 211.387 120.697 221.559H139.398V157.253C135.592 157.253 131.756 157.305 127.928 157.238C124.928 157.186 123.122 155.566 123.025 153.021C122.936 150.492 124.607 148.566 127.294 148.544C138.428 148.477 149.555 148.477 160.682 148.544C163.271 148.559 164.906 150.327 164.965 152.715C165.033 155.201 163.346 157.118 160.659 157.201C156.712 157.335 152.756 157.238 148.6 157.238V221.581H167.182C167.48 219.447 167.742 217.275 168.085 215.118C170.271 201.439 177.533 190.38 186.085 179.932C190.801 174.171 195.413 168.312 199.771 162.283C220.756 133.245 211.107 75.8497 160.6 63.29C142.286 58.7378 124.689 61.3273 108.376 71.1855C105.234 73.0885 102.749 72.7975 101.286 70.4019C99.8235 68.0139 100.682 65.6407 103.771 63.7228C138.958 41.9169 190.801 51.7154 211.219 93.79C211.965 95.3348 212.824 95.8423 214.488 95.8348C229.003 95.7751 243.525 95.805 258.04 95.79C261.331 95.79 262.316 94.79 262.331 91.4244C262.368 83.9766 262.271 76.5214 262.391 69.0736C262.421 67.1258 261.846 66.2452 259.995 65.5139C252.906 62.7079 248.398 55.7452 248.704 48.4989C249.025 40.8198 253.891 34.3348 261.13 31.9318C270.159 28.9392 280.018 33.6556 283.421 42.596C286.861 51.6631 282.615 61.7527 273.585 65.4243C271.645 66.2228 271.033 67.1184 271.062 69.1482C271.182 76.693 271.137 84.2452 271.1 91.79C271.062 99.6184 266.249 104.529 258.458 104.566C245.01 104.626 231.555 104.581 218.1 104.589C217.354 104.589 216.6 104.686 215.592 104.753C218.227 115.089 219.533 125.387 218.368 136.253C219.473 136.305 220.48 136.387 221.48 136.387C230.868 136.402 240.256 136.32 249.645 136.454C251.809 136.484 252.786 135.872 253.63 133.82C256.809 126.036 264.965 121.693 273.182 123.126C281.294 124.544 287.607 131.671 287.98 139.85C288.368 148.35 282.958 155.79 274.719 158.066C265.98 160.484 256.883 156.014 253.428 147.38C252.719 145.611 251.898 145.104 250.085 145.118C239.831 145.201 229.57 145.126 219.316 145.215C218.398 145.223 216.839 145.88 216.674 146.521C213.115 160.238 204.883 171.178 195.995 181.745C195.51 182.327 195.085 182.962 194.294 184.021C195.637 184.089 196.615 184.178 197.6 184.178C210.085 184.186 222.57 184.171 235.048 184.186C244.607 184.193 249.107 188.686 249.115 198.193C249.115 205.26 249.189 212.327 249.062 219.395C249.025 221.484 249.458 222.574 251.622 223.432C259.652 226.626 264.033 235.051 262.346 243.462C260.757 251.432 253.577 257.522 245.51 257.753C236.786 257.999 229.398 252.469 227.301 244.111C225.152 235.551 229.637 226.686 238.025 223.327C239.876 222.589 240.451 221.716 240.413 219.775C240.294 212.32 240.383 204.872 240.361 197.417C240.346 193.977 239.48 193.051 236.1 193.044C220.421 193.014 204.742 193.007 189.07 193.089C188.092 193.089 186.756 193.693 186.212 194.454C180.495 202.484 176.913 211.335 176.174 221.738C177.846 221.738 179.436 221.708 181.018 221.745C188.6 221.902 193.943 227.193 194.033 234.798C194.122 242.439 194.115 250.089 194.033 257.73C193.943 265.372 188.704 270.559 181.01 270.745C178.13 270.813 175.242 270.76 171.764 270.76C173.152 283.216 171.047 293.76 157.353 297.798H130.644ZM139.682 12.4243C139.682 10.0064 139.6 7.58846 139.704 5.17054C139.824 2.3795 141.48 0.610839 143.876 0.521287C146.383 0.424272 148.346 2.23771 148.421 5.12577C148.547 10.0511 148.533 14.984 148.436 19.9168C148.376 22.8198 146.51 24.7228 144.07 24.7377C141.615 24.7601 139.876 22.8646 139.682 19.9616C139.667 19.7676 139.667 19.5735 139.667 19.3795V12.4243H139.682Z" fill="url(#paint0_linear_1820_498)"/>
<path d="M209.84 22.9624C208.982 24.4549 208.556 25.6862 207.735 26.537C204.4 30.0295 200.989 33.44 197.534 36.8057C195.37 38.9101 192.623 38.9474 190.87 37.0668C189.198 35.2758 189.355 32.6937 191.385 30.6191C194.825 27.0967 198.191 23.4773 201.907 20.2683C203.026 19.2982 205.362 18.9997 206.847 19.4325C208.056 19.7833 208.817 21.6713 209.84 22.9624ZM98.7576 34.4549C97.8696 35.6116 97.1905 37.3654 96.0412 37.7609C94.6308 38.246 92.2875 38.2236 91.2875 37.343C87.2352 33.7758 83.4591 29.8877 79.7725 25.9474C78.1233 24.1788 78.3098 21.9997 79.9367 20.1638C81.4516 18.4549 84.1606 18.2683 85.9293 19.9549C89.7725 23.6116 93.4964 27.3952 97.183 31.2236C97.8621 31.9251 98.0934 33.0519 98.7576 34.4549Z" fill="url(#paint1_linear_1820_498)"/>
<defs>
<linearGradient id="paint0_linear_1820_498" x1="144" y1="0.517578" x2="144" y2="297.798" gradientUnits="userSpaceOnUse">
<stop stop-color="#630DFA"/>
<stop offset="1" stop-color="#4FA6B7"/>
</linearGradient>
<linearGradient id="paint1_linear_1820_498" x1="144.231" y1="18.7817" x2="144.231" y2="38.4328" gradientUnits="userSpaceOnUse">
<stop stop-color="#630DFA"/>
<stop offset="1" stop-color="#4FA6B7"/>
</linearGradient>
</defs>
</svg>
