<svg width="90" height="90" viewBox="0 0 90 90" fill="none" xmlns="http://www.w3.org/2000/svg">
<mask id="mask0_2059_391" style="mask-type:luminance" maskUnits="userSpaceOnUse" x="0" y="0" width="90" height="90">
<path d="M89.1029 0.947266H0.390625V89.7932H89.1029V0.947266Z" fill="white"/>
</mask>
<g mask="url(#mask0_2059_391)">
<path d="M11.5055 0.947266H14.3117C14.5043 0.997671 14.6996 1.03863 14.8967 1.06627C17.2951 1.46867 19.5252 2.56021 21.3134 4.21079C23.1015 5.86136 24.3717 7.99893 24.9673 10.3602C25.5629 12.7215 25.4588 15.2044 24.6679 17.5075C23.8771 19.8105 22.4333 21.8347 20.5136 23.3296C20.2937 23.4637 20.1135 23.6526 19.9903 23.8789C19.867 24.1052 19.8055 24.3604 19.812 24.6181V37.5074C19.793 37.8244 19.8322 38.1408 19.9286 38.4434H33.9685C34.285 38.3804 34.5716 38.2177 34.7865 37.9766C35.6055 37.1563 36.4259 36.2176 37.3619 35.3973C37.5285 35.2543 37.6574 35.0727 37.7389 34.8687C37.8204 34.6646 37.8525 34.4442 37.8303 34.2256V24.9682C37.909 24.6258 37.8713 24.2683 37.7229 23.9498C37.5745 23.6314 37.3226 23.3702 37.01 23.2106C35.1943 21.8082 33.8139 19.9207 33.027 17.7638C32.24 15.6068 32.0802 13.2706 32.5654 11.0262C32.9428 8.74598 33.9716 6.62348 35.5292 4.91796C37.0868 3.21243 39.1062 1.9958 41.3403 1.41643C42.0291 1.20584 42.7319 1.04868 43.4449 0.947266H46.1368C46.2538 0.947266 46.4883 1.06627 46.6053 1.06627C49.0633 1.37804 51.3627 2.4465 53.1865 4.12611C55.0103 5.80572 56.2674 8.01328 56.7833 10.4403C58.1873 15.596 56.4318 20.0482 52.2199 23.4463C51.9735 23.7047 51.81 24.03 51.7514 24.3824V34.3423C51.7852 34.7023 51.9526 35.0375 52.2199 35.2806C53.0389 36.218 53.9744 36.9201 54.6764 37.8576C54.8355 38.0431 55.0345 38.1935 55.2568 38.2947C55.4791 38.3959 55.7211 38.4454 55.9652 38.4434H66.6117C67.0368 38.4849 67.4664 38.4321 67.8685 38.2878C68.2706 38.1435 68.6336 37.9129 68.9357 37.6104C69.2377 37.3079 69.4702 36.942 69.6143 36.5393C69.7585 36.1366 69.8111 35.7064 69.7697 35.2806V24.6181C69.7986 24.3703 69.7608 24.1197 69.6578 23.8926C69.5547 23.6655 69.3901 23.4708 69.1847 23.3296C65.2068 20.1659 63.4518 16.0647 64.5048 11.0262C65.4408 5.98764 68.6011 2.82299 73.5151 1.29971C74.1001 1.18331 74.6851 1.06522 75.2701 0.947266H78.195C78.312 0.947266 78.4272 1.06627 78.6612 1.06627C83.9262 2.12085 87.438 5.16558 88.725 10.3213C89.3941 12.7137 89.3145 15.255 88.4987 17.6013C87.6829 19.9476 86.1696 21.9876 84.1615 23.4463C83.9913 23.567 83.8492 23.7238 83.7479 23.9063C83.6467 24.0889 83.5889 24.2929 83.5765 24.5014V35.3973C83.5576 36.4555 83.4781 37.5131 83.3412 38.5624C82.6493 42.4516 80.5994 45.9668 77.5552 48.4789C74.511 50.9909 70.6722 52.3348 66.7282 52.2711H55.8464C55.6215 52.2823 55.4034 52.3396 55.202 52.4404C55.0006 52.5413 54.8203 52.6835 54.6764 52.8569C53.9744 53.6772 53.0389 54.4965 52.2199 55.4339C52.0758 55.5697 51.9597 55.7334 51.8794 55.9145C51.799 56.0955 51.7556 56.2908 51.7514 56.4889V65.9797C51.7232 66.2444 51.7634 66.512 51.8657 66.7578C51.9679 67.0035 52.1289 67.2208 52.3364 67.3872C54.602 69.0943 56.2157 71.5265 56.9067 74.2804C57.5976 77.0342 57.325 79.9424 56.1343 82.5193C54.9436 85.0962 52.9076 87.1872 50.3643 88.4421C47.8211 89.697 44.9241 90.0395 42.1584 89.4148C39.7757 88.975 37.5829 87.8213 35.8697 86.1055C34.1565 84.3897 33.0045 82.1936 32.5654 79.8073C31.5124 74.7688 33.2669 70.5513 37.3619 67.2704C37.526 67.1517 37.6544 66.9911 37.7367 66.8059C37.8189 66.6206 37.8523 66.4169 37.8303 66.2154V56.4889C37.8449 56.2592 37.7983 56.0311 37.6955 55.8252C37.5928 55.6194 37.4376 55.4433 37.2453 55.3172C36.4071 54.5966 35.6248 53.8132 34.9054 52.9736C34.771 52.754 34.5805 52.5729 34.3546 52.4496C34.1288 52.3262 33.8737 52.2653 33.6165 52.2711H20.7466C20.4301 52.252 20.1141 52.2913 19.812 52.3878V66.4488C19.8369 66.6224 19.9022 66.789 20.004 66.9317C20.1058 67.0744 20.2411 67.1905 20.397 67.2704C21.8463 68.329 23.0406 69.6983 23.891 71.28C24.7414 72.8618 25.2254 74.6143 25.3101 76.4088C25.5504 79.5547 24.5911 82.6743 22.625 85.1397C20.6589 87.6051 17.8328 89.2332 14.7162 89.694C11.5995 90.1548 8.42505 89.4141 5.83154 87.6228C3.23804 85.8316 1.41783 83.1221 0.740251 80.0407C0.624032 79.572 0.508404 79.1042 0.390625 78.6355V75.9396C0.507624 75.7052 0.50671 75.4713 0.623709 75.237C0.862258 73.6748 1.4088 72.1772 2.23245 70.8292C3.05609 69.4812 4.13985 68.3108 5.42022 67.3872C5.62541 67.2458 5.78789 67.0512 5.89095 66.8242C5.99402 66.5971 6.03378 66.3465 6.00521 66.0987V24.6181C6.01169 24.3604 5.95022 24.1052 5.82697 23.8789C5.70372 23.6526 5.52351 23.4637 5.30367 23.3296C3.09213 21.6374 1.52274 19.2389 0.856793 16.5325C0.755585 15.9334 0.600739 15.345 0.390625 14.7749V12.0789C0.507624 11.8446 0.50671 11.6102 0.623709 11.4931C0.942277 9.10195 1.9717 6.86391 3.57839 5.06672C5.18509 3.26952 7.2938 1.99678 9.63173 1.41643C10.2451 1.22046 10.8722 1.06345 11.5055 0.947266ZM26.4801 46.7647H35.6069C36.2324 46.712 36.8593 46.8511 37.403 47.1652C37.9468 47.4794 38.3809 47.9536 38.6484 48.5224C39.2411 49.8185 40.2792 50.8581 41.5734 51.4517C42.1691 51.7265 42.6672 52.1751 43.0016 52.7402C43.336 53.3053 43.4903 53.9593 43.4449 54.6146C43.3279 58.9501 43.3279 63.4018 43.4449 67.7373C43.5126 68.4714 43.346 69.2084 42.9673 69.8405C42.5886 70.4726 42.0189 70.967 41.3403 71.2526C40.0159 71.9959 38.974 73.1598 38.3811 74.5596C37.7881 75.9594 37.6767 77.5176 38.0634 78.988C38.4366 80.4841 39.2945 81.812 40.504 82.7664C41.7134 83.7209 43.2054 84.2475 44.7452 84.2609C46.2849 84.2743 47.7857 83.7752 49.0115 82.842C50.2374 81.9087 51.1193 80.5941 51.5183 79.1047C51.9105 77.6046 51.7883 76.0147 51.1733 74.5916C50.5582 73.1685 49.4854 71.9929 48.1249 71.2526C47.4844 70.9281 46.9546 70.4224 46.6007 69.797C46.2468 69.1716 46.0856 68.4543 46.1368 67.7373C46.2538 63.4018 46.1368 58.9501 46.1368 54.6146C46.0932 53.9748 46.2491 53.3367 46.5847 52.7906C46.9203 52.2444 47.4184 51.8178 48.0084 51.5685C49.2604 50.862 50.2776 49.803 50.9333 48.5224C51.1892 47.9445 51.6206 47.4628 52.1673 47.1469C52.714 46.831 53.3473 46.6973 53.9748 46.7647H66.7282C68.2263 46.7929 69.7146 46.5181 71.1042 45.9568C72.4939 45.3956 73.7558 44.5577 74.8153 43.4966C75.8748 42.4355 76.7092 41.1717 77.2696 39.78C77.8299 38.3882 78.1043 36.8977 78.0762 35.3973V23.3296C77.9524 22.527 78.0921 21.7039 78.4715 20.9861C78.851 20.2683 79.4507 19.6938 80.1831 19.3452C81.5186 18.5873 82.5572 17.3977 83.1309 15.9718C83.7047 14.5459 83.7788 12.9666 83.3412 11.4931C82.884 10.0218 81.9658 8.73888 80.7224 7.83133C79.479 6.92377 77.9785 6.44121 76.44 6.45589C74.9617 6.52619 73.5419 7.0633 72.3862 7.98924C71.2305 8.91518 70.3981 10.183 70.0051 11.6121C69.5774 13.0987 69.6677 14.6862 70.2633 16.1137C70.859 17.5412 71.923 18.7222 73.2797 19.4619C73.9243 19.749 74.4631 20.2301 74.8199 20.8396C75.1767 21.4492 75.3348 22.1569 75.2701 22.8605V35.3973C75.3024 36.5294 75.1028 37.6565 74.6851 38.7089C74.2673 39.7613 73.6383 40.7184 72.8387 41.5193C72.039 42.3201 71.0857 42.9478 70.0348 43.3662C68.984 43.7846 67.8586 43.9844 66.7282 43.9521H53.9748C53.351 43.9934 52.7294 43.8484 52.1879 43.5355C51.6464 43.2226 51.2098 42.756 50.9333 42.1944C50.3068 40.9222 49.2787 39.8925 48.0084 39.265C47.4221 38.9782 46.9333 38.525 46.6007 37.9628C46.2681 37.4006 46.1065 36.7527 46.1368 36.0999C46.1368 31.7644 46.2538 27.5479 46.1368 23.3296C46.0359 22.5151 46.1963 21.6889 46.5961 20.9724C46.9959 20.2559 47.6147 19.686 48.3603 19.3452C49.6637 18.5845 50.6797 17.4137 51.251 16.0153C51.8222 14.6169 51.9157 13.0696 51.5183 11.6121C51.0877 10.1825 50.2273 8.91864 49.0549 7.9961C47.8826 7.07357 46.4556 6.53674 44.9668 6.45589C43.4135 6.44892 41.9 6.94707 40.6548 7.8771C39.4096 8.80713 38.4998 10.119 38.0634 11.6121C37.6706 13.1122 37.7911 14.6996 38.4062 16.1229C39.0213 17.5461 40.096 18.722 41.4569 19.4619C42.0921 19.761 42.6215 20.2469 42.9765 20.8534C43.3315 21.4599 43.4946 22.1592 43.4449 22.8605C43.3287 27.3131 43.3287 31.7663 43.4449 36.2189C43.4863 36.8434 43.3271 37.4631 42.9902 37.9903C42.6533 38.5175 42.157 38.9244 41.5734 39.1483C40.296 39.8215 39.27 40.8896 38.6484 42.1944C38.3719 42.756 37.9354 43.2226 37.3939 43.5355C36.8524 43.8484 36.2307 43.9934 35.6069 43.9521H17.472C17.043 44.0131 16.6057 43.9727 16.1946 43.8353C15.7836 43.6979 15.4088 43.4671 15.1023 43.1602C14.7959 42.8533 14.5654 42.4779 14.4282 42.0663C14.291 41.6546 14.2508 41.2166 14.3117 40.7869V23.2106C14.2027 22.4252 14.3484 21.6274 14.7276 20.9312C15.1067 20.235 15.7002 19.6787 16.4186 19.3452C17.7417 18.6049 18.7743 17.4362 19.3481 16.0313C19.922 14.6264 20.0023 13.0689 19.5767 11.6121C19.1663 10.1265 18.28 8.81553 17.0539 7.88396C15.8277 6.9524 14.3311 6.45145 12.7921 6.45589C11.2984 6.51969 9.86126 7.05044 8.68568 7.97551C7.5101 8.90057 6.65588 10.1737 6.24058 11.6121C5.82505 13.099 5.92261 14.6822 6.51708 16.1068C7.11155 17.5315 8.16681 18.7133 9.51518 19.4619C10.1598 19.749 10.6986 20.2301 11.0554 20.8396C11.4121 21.4492 11.5703 22.1569 11.5055 22.8605V67.6206C11.5977 68.3586 11.4536 69.1082 11.0965 69.7604C10.7394 70.4126 10.1861 70.9336 9.51518 71.2526C8.17958 71.9841 7.12989 73.1469 6.53536 74.5504C5.94084 75.9539 5.83763 77.5178 6.24058 78.988C6.59877 80.4813 7.4444 81.8105 8.64455 82.7664C9.84469 83.7224 11.3295 84.2497 12.8629 84.2632C14.3963 84.2766 15.8897 83.7767 17.1064 82.842C18.3231 81.9072 19.1924 80.5915 19.5767 79.1047C20.0082 77.6051 19.9077 76.001 19.2887 74.5687C18.6697 73.1365 17.5726 71.9638 16.1855 71.2526C15.5939 70.941 15.1026 70.4675 14.771 69.8863C14.4394 69.3051 14.2794 68.6417 14.3117 67.973V49.9275C14.3117 47.8184 15.3656 46.7647 17.5886 46.7647H26.4801Z" fill="url(#paint0_linear_2059_391)"/>
</g>
<defs>
<linearGradient id="paint0_linear_2059_391" x1="44.7826" y1="0.947266" x2="44.7826" y2="89.8276" gradientUnits="userSpaceOnUse">
<stop stop-color="#6306FC"/>
<stop offset="1" stop-color="#24B0B3"/>
</linearGradient>
</defs>
</svg>
