<svg width="93" height="94" viewBox="0 0 93 94" fill="none" xmlns="http://www.w3.org/2000/svg">
<path d="M59.9787 39.4704V42.4203H57.0657V45.4304H59.9557V51.3903H68.9687V45.5104H71.9817V39.5204H83.9587V45.4504H89.9787V51.4203H92.9787C93.2983 59.6884 90.9416 67.8388 86.2587 74.6603C88.3487 73.5003 90.3887 72.3004 92.9387 72.4704V75.4103C91.4112 75.4612 89.9313 75.9545 88.6787 76.8303C87.0686 77.9079 85.1741 78.4815 83.2367 78.478C81.2993 78.4744 79.4068 77.894 77.8007 76.8105C76.9461 76.2033 75.9729 75.7834 74.9448 75.5783C73.9167 75.3732 72.8568 75.3874 71.8347 75.6203C71.0503 75.8234 70.3035 76.1508 69.6227 76.5903C67.9119 77.7989 65.869 78.4488 63.7743 78.4506C61.6796 78.4524 59.6356 77.806 57.9227 76.6003C57.6867 76.4503 57.4367 76.3204 57.1907 76.1904C57.1312 76.1602 57.0684 76.1366 57.0037 76.1203C57.0037 76.8603 56.9737 77.6203 57.0237 78.3703C57.0447 78.4947 57.0916 78.6134 57.1614 78.7184C57.2311 78.8235 57.3222 78.9128 57.4287 78.9804C58.2687 79.4504 59.1577 79.8403 59.9867 80.3303C61.1153 81.0796 62.4427 81.4736 63.7974 81.4611C65.1521 81.4486 66.472 81.0304 67.5867 80.2604C68.8338 79.3919 70.2578 78.8105 71.7564 78.558C73.255 78.3056 74.7909 78.3885 76.2537 78.8005C77.2125 79.081 78.1245 79.5023 78.9597 80.0505C80.2105 80.9551 81.716 81.4394 83.2596 81.434C84.8031 81.4286 86.3053 80.9337 87.5497 80.0204C89.1388 78.9549 91.0168 78.4033 92.9297 78.4404V81.4304C90.9997 81.2804 89.5197 82.4305 87.8897 83.2704C86.4107 84.0654 84.7534 84.4697 83.0745 84.4453C81.3956 84.4208 79.7508 83.9681 78.2957 83.1303C77.0893 82.4337 75.8011 81.8897 74.4607 81.5104C73.5804 81.3563 72.6782 81.3812 71.8079 81.5839C70.9376 81.7867 70.1171 82.1631 69.3957 82.6904C67.7386 83.8388 65.7714 84.4558 63.7553 84.4594C61.7392 84.463 59.7698 83.8529 58.1087 82.7104C57.7977 82.5204 57.4697 82.3503 57.0017 82.0903V86.9504C56.9963 89.2504 55.8457 90.4037 53.5497 90.4103C53.1737 90.4103 52.7977 90.4303 52.4247 90.4003C51.7982 90.3095 51.1589 90.3804 50.5675 90.6061C49.9761 90.8319 49.4522 91.2051 49.0457 91.6904C48.4692 92.2895 47.7685 92.7549 46.9927 93.0539C46.217 93.3529 45.3851 93.4783 44.5556 93.4211C43.7262 93.3639 42.9194 93.1255 42.1921 92.7228C41.4647 92.3202 40.8344 91.7628 40.3457 91.0903C40.1826 90.8552 39.9608 90.6669 39.7024 90.5441C39.444 90.4213 39.158 90.3683 38.8727 90.3903C32.906 90.4203 26.9394 90.4203 20.9727 90.3903C20.7319 90.3733 20.491 90.421 20.2748 90.5283C20.0585 90.6355 19.8749 90.7985 19.7427 91.0004C19.1977 91.7483 18.4833 92.3564 17.658 92.7751C16.8327 93.1937 15.92 93.4108 14.9946 93.4089C14.0692 93.4069 13.1574 93.186 12.3339 92.7639C11.5104 92.3417 10.7986 91.7306 10.2567 90.9804C10.1225 90.7791 9.93567 90.6186 9.71646 90.5163C9.49725 90.414 9.25415 90.3738 9.0137 90.4003C7.1077 90.4203 5.20169 90.4103 3.29569 90.4003C2.8566 90.4438 2.41334 90.3901 1.99747 90.2426C1.5816 90.0952 1.20336 89.8577 0.889742 89.5473C0.576122 89.2369 0.33485 88.8613 0.183077 88.447C0.0313051 88.0326 -0.0272276 87.5898 0.0116906 87.1503C0.00635726 78.3203 0.00635726 69.4903 0.0116906 60.6603C-0.0199324 60.229 0.042034 59.7961 0.193392 59.391C0.34475 58.986 0.581898 58.6183 0.888583 58.3134C1.19527 58.0085 1.56427 57.7737 1.97025 57.6247C2.37622 57.4757 2.8096 57.4162 3.24069 57.4504H29.5747C29.0747 55.4304 28.6027 53.5104 28.1037 51.4804H36.0037V45.4904H38.9467V42.5104H36.0887V39.4704C37.0507 39.4704 38.0397 39.5104 39.0247 39.4504C39.1965 39.4458 39.3656 39.4061 39.5215 39.3339C39.6775 39.2617 39.817 39.1585 39.9317 39.0305C41.1437 37.1805 42.2987 35.2903 43.4857 33.3903C43.3803 33.3143 43.2708 33.2442 43.1577 33.1804C42.648 32.9982 42.1806 32.7145 41.7838 32.3464C41.387 31.9783 41.0691 31.5336 40.8492 31.039C40.6293 30.5444 40.5121 30.0104 40.5046 29.4692C40.4971 28.928 40.5996 28.3908 40.8057 27.8903C41.3667 26.1403 41.9057 24.3703 42.5637 22.6603C43.1556 21.0957 43.3467 19.4078 43.1197 17.7504C42.6617 13.6904 42.3707 9.61046 42.0457 5.54046C41.8077 2.55046 43.7287 0.690405 46.7367 0.480405C49.4277 0.290405 51.1757 1.16042 52.0847 3.75042C52.3049 4.75345 52.8229 5.66649 53.5707 6.3703C54.2867 6.8303 55.5067 6.51043 56.5037 6.51043H62.9987C62.9987 5.58043 62.9937 4.69047 62.9987 3.80047C63.0117 1.76047 64.2387 0.680405 66.2457 0.480405C67.3572 0.278815 68.5041 0.44269 69.5147 0.947446C70.5253 1.4522 71.3452 2.27073 71.8517 3.28045C72.3697 4.19045 73.1337 4.97028 73.7247 5.85028C73.8756 6.07881 74.0851 6.26262 74.3315 6.38226C74.5778 6.5019 74.8518 6.55315 75.1247 6.53045C77.6479 6.46374 80.1724 6.60413 82.6727 6.95038C85.5585 7.60919 88.141 9.21427 90.0092 11.5102C91.8775 13.8061 92.9242 16.6609 92.9827 19.6203C93.0362 20.2618 92.9513 20.9073 92.7337 21.5131C92.5161 22.1189 92.1709 22.671 91.7215 23.1318C91.272 23.5926 90.7288 23.9513 90.1286 24.184C89.5285 24.4167 88.8853 24.5179 88.2427 24.4804C84.4327 24.4904 80.6227 24.5004 76.8077 24.4704C76.5379 24.434 76.2638 24.4904 76.0303 24.6303C75.7968 24.7702 75.6178 24.9853 75.5227 25.2404C74.0407 28.3004 72.4717 31.3203 70.9867 34.3703C70.7283 35.047 70.254 35.6198 69.6371 35.9994C69.0202 36.3791 68.2952 36.5447 67.5747 36.4704C67.0747 36.4504 66.5747 36.4804 66.0747 36.4704C65.6667 36.4839 65.2604 36.4134 64.8808 36.2634C64.5012 36.1133 64.1565 35.8869 63.8681 35.5981C63.5796 35.3093 63.3536 34.9642 63.2041 34.5844C63.0545 34.2046 62.9846 33.7982 62.9987 33.3903C62.9787 30.8003 62.9937 28.2103 62.9937 25.6203V24.4904C60.7567 24.4904 58.5827 24.4804 56.4077 24.5104C56.2357 24.5104 56.0297 24.7003 55.8997 24.8503C54.3717 26.6703 52.8687 28.5005 51.3227 30.3005C51.2455 30.373 51.1834 30.46 51.1398 30.5566C51.0963 30.6531 51.0721 30.7573 51.0689 30.8632C51.0656 30.9691 51.0833 31.0745 51.1208 31.1735C51.1584 31.2726 51.2151 31.3632 51.2877 31.4404C52.8637 33.9104 54.3937 36.4103 55.9877 38.8703C56.1088 39.0289 56.2608 39.1612 56.4346 39.2592C56.6084 39.3572 56.8003 39.4189 56.9987 39.4404C57.9557 39.5204 58.9227 39.4704 59.9717 39.4704H59.9787ZM35.9987 63.4404C40.1167 63.4404 44.1097 63.4704 48.0987 63.4304C48.8027 63.3709 49.5073 63.5377 50.11 63.9064C50.7127 64.2751 51.182 64.8265 51.4497 65.4804C52.4597 67.5804 53.5137 69.6704 54.5957 71.7404C54.8086 72.0904 55.1273 72.3635 55.5057 72.5204C56.8707 73.1004 58.2707 73.5903 59.6457 74.1503C60.4443 74.5608 61.2676 74.9215 62.1107 75.2304C63.1651 75.4577 64.2557 75.4593 65.3108 75.2353C66.3659 75.0112 67.3616 74.5665 68.2327 73.9304C69.8058 72.9176 71.6368 72.3782 73.5077 72.3764C75.3786 72.3746 77.2106 72.9106 78.7857 73.9203C79.5117 74.3403 80.2717 74.7003 81.0217 75.0903C81.5617 75.3703 81.9217 75.1904 82.2917 74.7304C84.823 71.5944 86.7951 68.0459 88.1217 64.2404C89.2089 61.1018 89.8256 57.8196 89.9517 54.5004H31.9487C32.1937 55.4904 32.4297 56.4503 32.6577 57.3703C35.1097 57.6903 35.9967 58.6903 35.9987 61.0803V63.4404ZM76.4107 21.4904C80.1957 21.4904 83.9757 21.4205 87.7457 21.5305C89.5557 21.5805 90.4757 20.6204 89.7457 18.5004C87.3657 18.5004 84.9657 18.5204 82.5657 18.4904C81.1603 18.5038 79.7962 18.0159 78.7182 17.1142C77.6402 16.2125 76.9188 14.9559 76.6837 13.5702C76.5998 12.215 76.6528 10.855 76.8417 9.51043H76.0417C68.6097 9.51043 61.1777 9.50044 53.7417 9.52044C53.0837 9.56339 52.4286 9.40065 51.8671 9.05487C51.3056 8.70909 50.8655 8.1972 50.6077 7.59027C50.1244 6.71658 49.6862 5.8188 49.2947 4.90033C49.1702 4.40971 48.8584 3.98737 48.4262 3.72381C47.9941 3.46026 47.4759 3.37654 46.9827 3.49041C45.3347 3.61041 44.8937 4.02037 45.0447 5.69037C45.2347 7.80037 45.3977 9.91045 45.5777 12.0305C45.7577 14.1505 45.9487 16.2904 46.1417 18.5004C48.4257 18.5004 50.6417 18.5204 52.8497 18.4904C53.6973 18.4145 54.5462 18.6215 55.2636 19.0793C55.981 19.537 56.5264 20.2197 56.8147 21.0204C56.8801 21.141 56.973 21.2443 57.0857 21.3224C57.1984 21.4006 57.3279 21.4514 57.4637 21.4704C59.3347 21.5104 61.2057 21.4904 63.0927 21.4904C63.3679 20.5112 63.9911 19.6661 64.8452 19.1137C65.6994 18.5613 66.7257 18.3397 67.7317 18.4904C69.0717 18.5504 70.4187 18.5504 71.7597 18.4904C72.7665 18.3424 73.7929 18.5648 74.648 19.1166C75.5031 19.6684 76.1287 20.512 76.4087 21.4904H76.4107ZM17.9757 63.5104H27.0207V81.3603H32.9297V60.4904H3.05472V81.3503H6.02066V63.5004H15.0327V81.3703H17.9787V63.5104H17.9757ZM21.1367 87.3503H38.9597C39.3647 83.9203 41.4867 81.6704 44.4957 81.4304C45.8789 81.3094 47.2602 81.6814 48.3957 82.4804C49.1822 83.0286 49.8306 83.752 50.2896 84.5937C50.7487 85.4354 51.0058 86.3722 51.0407 87.3303H53.9407V78.3903H39.0407V69.4404H50.0577C49.6447 68.6004 49.2507 67.9003 48.9507 67.1603C48.873 66.9113 48.7075 66.6988 48.4849 66.5627C48.2623 66.4266 47.9978 66.376 47.7407 66.4203C44.1157 66.4503 40.4917 66.4304 36.8667 66.4304C36.5967 66.4304 36.3257 66.4704 35.9947 66.4904V67.5605C35.9947 72.0505 35.9947 76.5438 35.9947 81.0405C36.0481 81.495 35.9982 81.9557 35.8484 82.3881C35.6987 82.8206 35.4531 83.2134 35.13 83.5375C34.807 83.8617 34.4148 84.1086 33.9829 84.2597C33.5509 84.4109 33.0904 84.4623 32.6357 84.4103H20.3157C20.6017 85.4303 20.8597 86.3503 21.1397 87.3503H21.1367ZM65.9987 33.4804C66.4844 33.5217 66.9731 33.5116 67.4567 33.4504C67.8158 33.3811 68.1349 33.1771 68.3487 32.8803C70.0117 29.6403 71.6347 26.3903 73.2487 23.1303C73.7597 22.1003 73.3897 21.5104 72.2427 21.5004C70.5917 21.4804 68.9427 21.4904 67.2877 21.5004C66.2957 21.5004 66.0047 21.7904 65.9997 22.7704C65.9897 24.6704 65.9997 26.5704 65.9997 28.4704L65.9987 33.4804ZM49.7797 21.4904C48.7477 21.4904 47.7157 21.4504 46.6887 21.5204C46.5276 21.5425 46.3739 21.6018 46.2398 21.6938C46.1058 21.7858 45.9952 21.9081 45.9167 22.0505C45.1167 24.3205 44.3667 26.6003 43.6277 28.8803C43.3097 29.8603 43.7477 30.4404 44.7927 30.4804C45.3528 30.5339 45.917 30.5272 46.4757 30.4604C46.9538 30.4083 47.4029 30.2051 47.7577 29.8803C49.7577 27.5703 51.7087 25.2103 53.6477 22.8403C53.8327 22.6203 53.9977 22.1304 53.8827 21.9504C53.6473 21.6881 53.3175 21.5299 52.9657 21.5104C51.9067 21.4604 50.8417 21.4904 49.7797 21.4904ZM39.0457 48.5004V51.4003H56.9307V48.5004H39.0457ZM9.06272 66.4704V81.3403H11.9477V66.4704H9.06272ZM21.0627 66.4704V81.3403H23.9477V66.4704H21.0627ZM88.9437 15.4804C88.304 14.1583 87.3969 12.9831 86.2798 12.0295C85.1627 11.0759 83.8599 10.3646 82.4537 9.94037C80.9437 9.44037 80.3337 9.6904 79.6737 11.4704C79.5194 11.8987 79.4652 12.3565 79.5153 12.809C79.5654 13.2615 79.7184 13.6965 79.9626 14.0807C80.2068 14.465 80.5358 14.7882 80.9242 15.0256C81.3127 15.263 81.7504 15.4083 82.2037 15.4504C84.4037 15.5904 86.6037 15.4804 88.9437 15.4804ZM42.0507 42.5104V45.4003H53.9267V42.5104H42.0507ZM53.0227 75.3903C52.8189 75.0237 52.6421 74.6428 52.4937 74.2504C52.0557 72.7304 51.1067 72.2903 49.5327 72.3803C47.0587 72.5403 44.5687 72.4304 42.0507 72.4304V75.3903H53.0227ZM17.9987 87.4003C17.9987 86.8056 17.8219 86.2244 17.4908 85.7304C17.1597 85.2364 16.6893 84.852 16.1393 84.6259C15.5892 84.3998 14.9843 84.3423 14.4015 84.4606C13.8187 84.579 13.2843 84.8679 12.866 85.2907C12.4477 85.7135 12.1646 86.2509 12.0525 86.8349C11.9403 87.4189 12.0044 88.0231 12.2364 88.5707C12.4683 89.1183 12.8578 89.5846 13.3554 89.9103C13.8529 90.2361 14.436 90.4067 15.0307 90.4003C15.8186 90.3853 16.5696 90.0634 17.1239 89.5031C17.6782 88.9428 17.9921 88.1884 17.9987 87.4003ZM47.9987 87.4203C48.0027 86.8257 47.8298 86.2434 47.5022 85.7473C47.1745 85.2511 46.7068 84.8633 46.1584 84.6335C45.61 84.4036 45.0056 84.3419 44.4221 84.4562C43.8386 84.5705 43.3022 84.8558 42.881 85.2756C42.4599 85.6953 42.1729 86.2308 42.0567 86.8139C41.9404 87.397 42.0001 88.0015 42.2281 88.5507C42.4561 89.0999 42.8421 89.5688 43.3372 89.8981C43.8323 90.2275 44.4141 90.4023 45.0087 90.4003C45.7972 90.3913 46.5509 90.0749 47.1094 89.5182C47.6679 88.9616 47.987 88.2088 47.9987 87.4203ZM3.04068 87.3603H8.86472C9.14572 86.3403 9.40571 85.4004 9.66471 84.4604H3.03971L3.04068 87.3603ZM77.9657 48.5104H72.0587V51.3903H77.9657V48.5104ZM81.0177 51.4003H86.9377V48.5305H81.0177V51.4003ZM80.9377 45.4203V42.5405H75.0547V45.4203H80.9377ZM70.4987 6.47039C69.1777 5.02039 68.6597 2.71033 66.0697 3.65033V6.47039H70.4987ZM46.4557 34.2905C45.3087 36.1205 44.3047 37.7303 43.2447 39.4203H46.4557V34.2905ZM52.7657 39.4203C51.6987 37.7203 50.6967 36.1105 49.5497 34.2805V39.4203H52.7657Z" fill="url(#paint0_linear_2059_289)"/>
<path d="M39 25.9897C39.004 29.8476 37.8635 33.6201 35.7229 36.8296C33.5823 40.0391 30.5378 42.5415 26.9746 44.0203C23.4113 45.499 19.4896 45.8877 15.7054 45.137C11.9213 44.3862 8.44485 42.53 5.71601 39.803C2.98716 37.076 1.12855 33.6008 0.37531 29.8171C-0.377933 26.0335 0.00804806 22.1113 1.48444 18.5471C2.96083 14.9829 5.46127 11.9367 8.66938 9.79395C11.8775 7.65122 15.6491 6.50838 19.507 6.50977C24.6724 6.5169 29.6244 8.57112 33.2781 12.2224C36.9319 15.8737 38.9894 20.8243 39 25.9897ZM3.00001 25.9397C2.98619 29.2032 3.94047 32.3975 5.74213 35.1187C7.54379 37.8398 10.1119 39.9655 13.1217 41.2271C16.1315 42.4886 19.4479 42.8291 22.6513 42.2058C25.8547 41.5825 28.8014 40.0231 31.1186 37.7251C33.4358 35.4271 35.0195 32.4936 35.6694 29.2954C36.3193 26.0973 36.0062 22.7783 34.7697 19.7581C33.5332 16.7379 31.4289 14.1521 28.7228 12.3279C26.0167 10.5037 22.8305 9.52305 19.567 9.50977C15.1931 9.49726 10.9927 11.2198 7.88697 14.2998C4.78128 17.3798 3.02382 21.5658 3.00001 25.9397Z" fill="url(#paint1_linear_2059_289)"/>
<path d="M83.9997 61.9011C84.0096 62.7936 83.7539 63.669 83.265 64.4158C82.7762 65.1626 82.0764 65.747 81.2544 66.095C80.4325 66.443 79.5257 66.5386 78.6492 66.3699C77.7727 66.2011 76.9663 65.7755 76.3323 65.1472C75.6984 64.5189 75.2656 63.7165 75.089 62.8416C74.9124 61.9666 74.9999 61.0589 75.3405 60.2339C75.6812 59.4089 76.2594 58.7038 77.0018 58.2083C77.7442 57.7128 78.6172 57.4493 79.5097 57.4512C80.6922 57.4561 81.8253 57.9252 82.6651 58.7576C83.505 59.5899 83.9843 60.7188 83.9997 61.9011ZM79.4797 63.4312C79.7739 63.4349 80.0626 63.3513 80.3094 63.1912C80.5562 63.031 80.7501 62.8014 80.8666 62.5313C80.9831 62.2611 81.017 61.9625 80.9641 61.6731C80.9111 61.3837 80.7737 61.1165 80.5691 60.905C80.3645 60.6936 80.1019 60.5475 79.8144 60.4851C79.5269 60.4227 79.2274 60.4469 78.9535 60.5545C78.6797 60.6621 78.4439 60.8484 78.2757 61.0899C78.1076 61.3313 78.0146 61.617 78.0087 61.9111C78.0051 62.3052 78.1561 62.6851 78.4292 62.9692C78.7023 63.2534 79.0758 63.4191 79.4697 63.4312H79.4797Z" fill="url(#paint2_linear_2059_289)"/>
<path d="M65.9625 12.5605V15.4304H63.0625V12.5605H65.9625Z" fill="url(#paint3_linear_2059_289)"/>
<path d="M57.0234 15.4204V12.5703H59.9395V15.4204H57.0234Z" fill="url(#paint4_linear_2059_289)"/>
<path d="M19.4962 15.501H26.7132C27.1524 15.4605 27.5951 15.5169 28.0101 15.6661C28.4252 15.8153 28.8024 16.0537 29.1153 16.3646C29.4282 16.6754 29.6691 17.0511 29.8209 17.4651C29.9728 17.8792 30.0319 18.3216 29.9942 18.761C30.0042 23.591 30.0042 28.4244 29.9942 33.261C30.0259 33.6928 29.9638 34.1263 29.8122 34.5318C29.6605 34.9373 29.4229 35.305 29.1157 35.6099C28.8084 35.9149 28.4388 36.1498 28.0322 36.2984C27.6256 36.447 27.1917 36.5059 26.7602 36.471C21.9182 36.481 17.0756 36.481 12.2322 36.471C11.8009 36.5056 11.3672 36.4464 10.9608 36.2977C10.5545 36.1489 10.1851 35.9141 9.87811 35.6092C9.57109 35.3043 9.33366 34.9364 9.18212 34.5311C9.03059 34.1257 8.96856 33.6926 9.00024 33.261C8.99024 28.391 8.99024 23.5243 9.00024 18.6609C8.97566 18.2375 9.04134 17.8137 9.19299 17.4175C9.34464 17.0214 9.57875 16.6619 9.87982 16.3631C10.1809 16.0643 10.542 15.833 10.9393 15.6844C11.3366 15.5357 11.7609 15.4732 12.1842 15.501C14.6222 15.491 17.0592 15.501 19.4942 15.501H19.4962ZM12.0612 18.5411V33.4009H15.0372V30.5511H18.0162V33.421H21.0272V30.5311H24.0052V33.4109H26.9232V18.5511H23.9752V24.421H14.9752V18.5411H12.0662H12.0612ZM20.9612 18.5611H18.0762V21.441H20.9612V18.5611Z" fill="url(#paint5_linear_2059_289)"/>
<defs>
<linearGradient id="paint0_linear_2059_289" x1="46.5037" y1="0.396484" x2="46.5037" y2="93.4346" gradientUnits="userSpaceOnUse">
<stop stop-color="#6306FC"/>
<stop offset="1" stop-color="#24B0B3"/>
</linearGradient>
<linearGradient id="paint1_linear_2059_289" x1="19.5" y1="6.50977" x2="19.5" y2="45.5097" gradientUnits="userSpaceOnUse">
<stop stop-color="#6306FC"/>
<stop offset="1" stop-color="#24B0B3"/>
</linearGradient>
<linearGradient id="paint2_linear_2059_289" x1="79.5" y1="57.4512" x2="79.5" y2="66.4511" gradientUnits="userSpaceOnUse">
<stop stop-color="#6306FC"/>
<stop offset="1" stop-color="#24B0B3"/>
</linearGradient>
<linearGradient id="paint3_linear_2059_289" x1="64.5125" y1="12.5605" x2="64.5125" y2="15.4304" gradientUnits="userSpaceOnUse">
<stop stop-color="#6306FC"/>
<stop offset="1" stop-color="#24B0B3"/>
</linearGradient>
<linearGradient id="paint4_linear_2059_289" x1="58.4814" y1="12.5703" x2="58.4814" y2="15.4204" gradientUnits="userSpaceOnUse">
<stop stop-color="#6306FC"/>
<stop offset="1" stop-color="#24B0B3"/>
</linearGradient>
<linearGradient id="paint5_linear_2059_289" x1="19.4987" y1="15.4883" x2="19.4987" y2="36.4808" gradientUnits="userSpaceOnUse">
<stop stop-color="#6306FC"/>
<stop offset="1" stop-color="#24B0B3"/>
</linearGradient>
</defs>
</svg>
