<?xml version="1.0" encoding="UTF-8"?><svg id="Capa_1" xmlns="http://www.w3.org/2000/svg" viewBox="0 0 158.79 60"><path d="M30.15,31.57c-1.08,1.57-1.54,3.31-1.51,5.2-.18-.44-.52-.51-.95-.5-.4.01-.87.17-1.14-.32-.17-1.94-1-3.6-2.23-5.31-.28,1.7-.37,3.19-.47,4.69-.31,4.91-.32,9.84-.79,14.75-.26,0-.53.07-.75-.14-.56-4.92-.59-9.87-.99-14.81-.29.02-.3.22-.37.35-1.04,1.74-.93,3.69-1.03,5.59-.16,2.96-.27,5.91-.41,8.87-.11.26-.26.38-.52.17-.19-3.36-.36-6.72-.57-10.07-.09-1.52-.12-3.06-.95-4.43.22-.18.12-.45.16-.67.25.17.49.34.75.49.8.48,1.4.38,2.03-.33.56-.63.82-1.27.77-2.2-.17-2.67-1.25-4.95-2.66-7.13-.92-1.42-1.87-2.83-2.78-4.25-.13-.2-.45-.49-.16-.7.25-.18.49.13.67.33.6.64,1.03,1.41,1.52,2.13.88,1.31,1.64,2.71,2.85,3.78,1.25,1.23,2.48,1.34,3.63.35.12-.17.25-.35.37-.52h0c.34-.16.52-.47.73-.76,1.09-1.51,2.03-3.12,3.22-4.57.27-.33.5-.72,1.07-.78-.02.53-.35.88-.59,1.25-1.3,1.99-2.63,3.97-3.78,6.06-.64,1.17-.76,2.16.28,3.12.24.22.44.49.63.76.78,1.12,2.14,1.2,3.13-.08.15-.19.31-.37.47-.56.17.01.31.07.39.23Z" style="fill:#694133; stroke-width:0px;"/><path d="M67.7,26.49c1.8.07,3.6-.35,5.35.14,1.62.45,2.08,2.34.98,3.83-.29.39-.96.81-.89,1.09.12.53.63.99,1,1.46.46.58.95,1.14,1.43,1.7.31.36.66.67,1.09.85,1,.42,1.47.15,1.48-.92.03-1.89,0-3.78.03-5.67.02-.79-.51-.85-1.18-.95.48-.25.88-.15,1.26-.15,1.31-.02,2.63,0,3.94-.04.33-.01.47,0,.42.35-.06.4.04.82-.21,1.2-.36-.69-1.8-1.16-2.53-.84-.15.07-.2.17-.2.31,0,.14-.04.29,0,.41.25.67-.6,1.7.45,2.03.68.21,1.53.21,2.27-.24.11.62-.06,1.17-.1,1.84-.41-.76-1.79-1.2-2.44-.9-.24.11-.19.31-.19.49,0,.66,0,1.32,0,1.97,0,.52.26.79.78.88,1.24.2,1.77,0,2.37-.94.24,1.36.05,1.63-1.21,1.62-1.89,0-3.78-.04-5.67-.02-.81,0-1.45-.28-1.94-.89-.63-.79-1.25-1.6-1.81-2.44-.34-.52-.76-.63-1.32-.61-.37.01-.47.16-.46.5.02.58.01,1.15.02,1.73.01.8-.04,1.65,1.18,1.63h-3.69c.85-.12.95-.73.95-1.42,0-2.27-.02-4.55.02-6.82.02-.89-.63-.91-1.2-1.16ZM73.09,29.42c.03-1.49-.8-2.43-2.09-2.38-.41.01-.6.14-.59.57.02,1.07.01,2.13,0,3.2,0,.39.18.51.53.57,1.37.22,2.12-.46,2.15-1.96Z" style="fill:#6a4336; stroke-width:0px;"/><path d="M22.34,8.62c.17-.27.3-.39.62-.08,2.56,2.61,4.37,5.52,3.52,9.37-.47,2.15-1.9,3.73-3.56,5.1-.31.26-.43,0-.57-.19.37-.18.06-.65.37-.85.02.01.05.02.07.03-.02-.01-.04-.03-.07-.04-.21-.32-.15-.68-.17-1.04-.14-2.6.23-5.19.17-7.79-.03-1.28,0-2.55,0-3.83,0-.29.07-.63-.37-.69Z" style="fill:#dbac08; stroke-width:0px;"/><path d="M22.71,21.97c-.31.2,0,.67-.37.85-1.7-1.15-2.84-2.72-3.4-4.68-1.01-3.51.57-6.27,2.7-8.84.2-.25.46-.45.7-.67.44.06.37.4.37.69,0,1.28-.02,2.55,0,3.83.06,2.6-.32,5.19-.17,7.79.02.35-.04.71.17,1.04h0Z" style="fill:#edad07; stroke-width:0px;"/><path d="M73.46,13.03h3.76c-1.04.13-.96.9-.94,1.61.03,1.7-.11,3.4.09,5.1.18,1.5,1.12,2.33,2.51,2.28,1.2-.04,2.06-.71,2.24-1.89.3-2.04.14-4.1.11-6.16-.01-.74-.66-.66-1.13-.91h3.29c-1.08.12-.98.92-.99,1.65-.02,1.51.03,3.02-.08,4.52-.23,3.06-3.6,4.64-6.19,2.93-1.25-.83-1.48-2.11-1.51-3.46-.03-1.32,0-2.63-.01-3.95-.01-1.3-.03-1.3-1.14-1.72Z" style="fill:#6b4639; stroke-width:0px;"/><path d="M46.17,27.98c.83-.25,1.65-.09,2.45-.11,1.2-.04,2.41-.11,3.6.14,1.85.4,2.94,1.59,3.09,3.34.17,1.97-.76,3.6-2.48,4.28-.35.14-.73.26-1.1.32-.46.08-.92.14-1.38.13-1.29-.04-2.58-.19-3.97-.21.97-.1.87-.77.87-1.36.01-1.72-.03-3.45.02-5.17.02-.81-.14-1.35-1.09-1.37ZM48.8,31.81s.03,0,.04,0c0,.9,0,1.8,0,2.71,0,.35.09.62.44.8,1.59.78,3.88-.26,4.31-1.96.72-2.87-1.16-5.12-4.11-4.93-.47.03-.7.19-.69.68.01.9,0,1.81,0,2.71Z" style="fill:#6a4336; stroke-width:0px;"/><path d="M118.35,22.47c.85-.17.95-.79.94-1.51-.01-1.64-.02-3.29.02-4.93.02-.78-.02-1.44-1.03-1.62.46,0,.93,0,1.39,0,1.37.03,2.74-.11,4.1.09,2.23.32,3.52,1.64,3.59,3.69.08,2.14-1.22,3.8-3.31,4.28-.95.22-1.91.23-2.86.11-.95-.12-1.91.11-2.85-.14,0,0,0,.02,0,.02ZM120.81,18.22s.02,0,.02,0c0,.93,0,1.86,0,2.79,0,.33.06.64.41.83,1.35.76,3.73-.1,4.26-1.55,1.08-2.95-.97-5.58-4.1-5.28-.46.04-.61.22-.6.66.02.85,0,1.7,0,2.55Z" style="fill:#6a4336; stroke-width:0px;"/><path d="M99.95,22.43c.8,0,.87-.53.88-1.04.03-2,.02-4,.03-5.99,0-.72-.57-.68-1.03-.78.02-.09.03-.18.04-.18,1.86,0,3.72-.17,5.57.08,2.1.29,3.32,1.54,3.48,3.52.16,1.95-.93,3.62-2.78,4.26-.79.27-1.6.35-2.42.33-1.24-.04-2.48-.19-3.77-.2ZM102.38,18.27s.02,0,.02,0c0,.9,0,1.81,0,2.71,0,.36.06.69.45.89,1.45.74,3.77-.17,4.26-1.69.94-2.96-1.01-5.4-4.1-5.17-.51.04-.65.25-.64.72.02.85,0,1.7,0,2.55Z" style="fill:#6a4336; stroke-width:0px;"/><path d="M64.43,41.26c.22.01.43.02.65.03.4.12.79.11,1.19,0,.48-.01.95-.02,1.43-.03,0,0,.03.05.03.05l.03-.05c.15,0,.29,0,.43,0,.43.18.89.1,1.34.1,2.23.26,3.54,1.54,3.68,3.6.14,2.07-1.11,3.79-3.16,4.32-1.91.49-3.84-.06-5.81.06.89-.16.88-.8.88-1.42,0-1.81.01-3.62.02-5.43,0-.51-.1-.94-.73-.98,0-.09,0-.17,0-.26ZM66.67,45.13s0,0,.01,0c0,.9,0,1.81,0,2.71,0,.38.09.7.46.89,1.47.75,3.77-.17,4.26-1.71.94-2.94-1.05-5.43-4.13-5.17-.44.04-.63.18-.62.65.03.88,0,1.75,0,2.63Z" style="fill:#6a4336; stroke-width:0px;"/><path d="M85.91,16.89c0,1.61,0,3.16,0,4.71,0,.67.6.63,1,.9h-2.92c.91-.18.85-.88.86-1.54.02-2,.05-4,.09-6,0-.24-.09-.55.17-.67.29-.13.42.18.59.34,1.65,1.64,3.29,3.3,4.94,4.94.22.22.4.52.69.61,0-1.63,0-3.26,0-4.88,0-.67-.6-.58-1.01-.82h3.1c-1.38.31-1.05,1.25-1.08,2.02-.05,1.81-.07,3.62-.11,5.42,0,.25.14.61-.21.72-.3.09-.48-.2-.68-.39-1.85-1.75-3.7-3.5-5.44-5.37Z" style="fill:#6b4639; stroke-width:0px;"/><path d="M140.49,27.69c1.43.03,2.95.45,3.79,2.04.78,1.46.67,2.98-.19,4.39-1.22,2-4.35,2.65-6.53,1.4-1.93-1.11-2.61-3.66-1.47-5.67.91-1.61,2.4-2.16,4.4-2.15ZM137.23,31.55c0,1.1.24,2.13,1.01,2.96.81.88,1.84,1.19,2.99.9,1.13-.29,1.59-1.19,1.77-2.24.15-.9.14-1.8-.17-2.68-.37-1.04-1.05-1.8-2.14-2.09-2.04-.55-3.45.75-3.45,3.15Z" style="fill:#6a4336; stroke-width:0px;"/><path d="M148.78,35.93h-3.14c.86-.17.88-.79.88-1.47.01-2.05.06-4.11.11-6.16,0-.2-.11-.48.17-.57.25-.09.38.16.53.3.95.95,1.9,1.89,2.84,2.85.92.93,1.83,1.87,2.85,2.91.16-.84.05-1.53.05-2.21,0-.74-.04-1.48-.02-2.22.02-.78-.15-1.36-1.09-1.44h2.86c-.69.17-.81.64-.81,1.27-.01,2.08-.07,4.16-.12,6.24,0,.23.12.54-.2.64-.27.09-.45-.15-.62-.32-1.67-1.58-3.35-3.15-4.93-4.82-.18-.19-.36-.39-.71-.78.03,1.84,0,3.43.16,5.02.06.61.65.44,1.18.76Z" style="fill:#6b4639; stroke-width:0px;"/><path d="M113.11,49.28c-1.22-.48-1.72-1.64-2.42-2.59-.31-.41-.62-.64-1.15-.61-.34.02-.51.1-.49.46.03.66.05,1.31.06,1.97,0,.46.3.61.69.65,0,.08,0,.16,0,.24-.18,0-.35-.02-.53-.02-.59-.16-1.18-.16-1.77,0-.12,0-.24.02-.36.03,0-.08,0-.17,0-.25.4-.14.42-.49.42-.81.02-2.03.03-4.06.04-6.08,0-.7-.56-.69-1.08-.79.09-.1.13-.2.18-.19,1.4.05,2.79-.1,4.19.06.88.09,1.58.43,1.9,1.33.31.87.01,1.66-.62,2.15-.87.68-.61,1.16,0,1.78.5.51.93,1.08,1.4,1.61.41.45.86.85,1.49.97-.05.08-.1.16-.15.24-.45.03-.9.07-1.35-.04-.14-.03-.29-.06-.43-.09ZM109.05,43.62h0c0,.38.03.77,0,1.15-.05.54.19.72.71.73.92.02,1.52-.43,1.67-1.32.19-1.14-.31-2.05-1.25-2.27-.9-.21-1.12-.04-1.12.89,0,.27,0,.55,0,.82Z" style="fill:#6a4336; stroke-width:0px;"/><path d="M37.37,12.25c.41.19.28.43.02.61-1.32.94-2.71,1.66-4.39,1.71-2.34.06-4.02-1.16-5.47-2.8-.47-.52-.82-1.15-1.22-1.73-.18-.26-.14-.4.19-.42.1.41.36.52.74.39.26-.09.47-.03.66.18.36.39.84.44,1.35.43,1.39-.04,2.6.97,4.03.72.05,0,.12.11.19.14.38.15.76.4,1.14.41.84.01,1.59.23,2.31.62.26.14.41.02.45-.26Z" style="fill:#dbac08; stroke-width:0px;"/><path d="M18.94,9.8c-1.02,3.27-3.99,5.16-7.17,4.58-1.06-.19-2.13-.36-3.04-.99.13-.61.51-1.05,1.11-1.11.92-.1,1.74-.42,2.52-.86.18-.1.35-.12.54-.14,1.21-.15,2.36-.55,3.46-1.01.62-.26,1.28-.36,1.87-.69.29-.16.52.02.71.24Z" style="fill:#edad07; stroke-width:0px;"/><path d="M18.94,9.8c-.19-.22-.41-.4-.71-.24-.59.33-1.26.43-1.87.69-1.11.46-2.26.86-3.46,1.01-.19.02-.36.04-.54.14-.78.45-1.61.76-2.52.86-.6.07-.98.5-1.11,1.11-.45-.1-.9-.21-.62-.83.89-2.02,2.09-3.73,4.36-4.37,1.18-.33,2.37-.31,3.55-.04.42.1.83.26,1.27.15,0,0-.02,0-.02,0,.02.46.48.23.67.42l.02.02c.29.13.59.24.86.39.28.16.47.38.11.66Z" style="fill:#dbac08; stroke-width:0px;"/><path d="M18.98,50.12c.26.21.41.08.52-.17.94.4,1.87.16,2.8,0,.22.2.49.14.75.14,1.44,0,2.87.03,4.29.33.19,0,.38,0,.57.01,2.13.51,4.26,1.01,6.23,2,.55.28,1.13.51,1.56,1.04-8.63-3.07-17.25-3-25.9-.11,2.05-1.27,4.28-2.03,6.59-2.6.86-.21,1.8-.13,2.58-.64Z" style="fill:#7cb830; stroke-width:0px;"/><path d="M115.24,28c-.73.05-.87.49-.85,1.09.02,1.37-.03,2.74.04,4.11.07,1.47.83,2.23,2.09,2.25,1.19.02,2.06-.64,2.12-1.82.09-1.61.03-3.23.05-4.85,0-.68-.54-.64-.96-.87h2.95c-.81.11-.89.65-.87,1.32.03,1.18.04,2.36-.02,3.53-.15,2.94-3.23,4.45-5.7,2.81-.74-.49-1.08-1.22-1.19-2.07-.17-1.39-.09-2.79-.07-4.19,0-.76-.11-1.32-1.22-1.26.69-.25,2.74-.29,3.64-.07Z" style="fill:#6b4639; stroke-width:0px;"/><path d="M37.37,12.25c-.04.28-.19.4-.45.26-.72-.39-1.48-.61-2.31-.62-.38,0-.77-.26-1.14-.41-.07-.03-.14-.15-.19-.14-1.43.25-2.64-.76-4.03-.72-.51.01-.99-.04-1.35-.43-.19-.21-.39-.27-.66-.18-.38.13-.64.02-.74-.39,0,0,0,0,0,0,.19,0,.31-.07.33-.28.17-.14.33-.27.5-.41.41-.17.84-.29,1.15-.64,1.03-.23,2.04-.51,3.13-.39,1.88.2,3.27,1.19,4.49,2.52.5.55,1.04,1.09,1.27,1.83Z" style="fill:#edad07; stroke-width:0px;"/><path d="M9.54,54.95c5.04-3.77,21.36-3.96,25.35-.3-8.48-2.34-16.93-2-25.35.3Z" style="fill:#6b4639; stroke-width:0px;"/><path d="M35.96,56.57c-2.2-.36-4.33-.82-6.49-1.1-5.96-.75-11.87-.45-17.73.81-.37.08-.99.39-1.07.04-.11-.43.58-.39.91-.5,7.15-2.5,14.34-2.53,21.57-.38.5.15.85.54,1.4.61.49.06.95.34,1.42.52Z" style="fill:#8d4f2b; stroke-width:0px;"/><path d="M93.29,41.7c-.45-.89-2.18-1.49-3.04-1.1-.29.13-.19.37-.19.56,0,2.14-.02,4.27,0,6.41.01,1.36.04,1.36,1.3,1.77h-3.88c1.19-.23.92-1.18.93-1.96.03-2.05,0-4.11.01-6.16,0-.49-.11-.7-.64-.63-.43.06-.87.03-1.31.06-.58.03-1.15.07-1.41.87-.32-.67,0-1.13.09-1.6.05-.25.29-.18.48-.16,2.43.21,4.87.13,7.3.05.28,0,.51-.03.49.34-.03.51.05,1.03-.14,1.56Z" style="fill:#6a4336; stroke-width:0px;"/><path d="M80.13,47.65c.03.34.06.52.06.71.02.85-.22,1.09-1.05,1.09-1.5,0-3,0-4.56-.08,1.08-.27.89-1.1.9-1.81.02-1.56-.01-3.12.01-4.69.01-.77,0-1.47-1.16-1.38.31-.37.6-.24.84-.24,1.37,0,2.74.06,4.11,0,.62-.03.8.12.64.69-.08.28.02.6-.18.85-.4-.7-1.69-1.13-2.47-.85-.2.07-.24.2-.25.37,0,.16-.02.33,0,.49.07.63-.32,1.58.19,1.84.67.33,1.6.21,2.39-.11.04-.02.1,0,.22.02-.06.55-.12,1.1-.19,1.75-.41-.76-1.78-1.22-2.42-.91-.16.08-.18.19-.18.33,0,.79,0,1.59.01,2.38,0,.23.15.4.35.52.86.51,2.23.1,2.74-.98Z" style="fill:#6a4336; stroke-width:0px;"/><path d="M118.35,22.47s0-.02,0-.02c-.24-.15-.38.14-.6.13-.68-.03-1.39.07-2.05-.07-.75-.16-.52-1.01-.7-1.52-.34-.94-.83-1.32-1.79-1.15-.27.05-.55.03-.82,0-.46-.05-.71.13-.84.57-.09.31-.24.61-.38.91-.25.56-.31,1.02.61,1.02-.47.21-2.05.27-2.9.08,1.13-.1,1.28-1.02,1.61-1.79.79-1.83,1.57-3.67,2.38-5.5.15-.33.16-.9.57-.9.47,0,.48.59.63.94.81,1.85,1.62,3.71,2.37,5.59.37.91.85,1.6,1.9,1.7ZM113.18,16.52c-.3.29-.35.65-.48.97q-.71,1.8,1.22,1.72c.07,0,.14-.04.26-.08-.16-.45-.32-.88-.48-1.3-.16-.43-.34-.85-.52-1.3Z" style="fill:#6b4639; stroke-width:0px;"/><path d="M129.29,30.07c-.63-1.37-1.24-1.76-2.9-1.75-1.54.01-2.42.6-2.83,1.89-.88,2.77.86,5.29,3.58,5.22,1.01-.03,1.77-.36,2.04-1.47.46,1.04.04,1.97-.94,2.1-1.2.16-2.41.16-3.58-.21-2-.64-3.16-2.29-3.01-4.28.15-2.01,1.59-3.52,3.69-3.8,1.2-.16,2.41-.06,3.6.17.22.04.45.05.44.37-.03.59-.06,1.18-.09,1.77Z" style="fill:#6b4639; stroke-width:0px;"/><path d="M62.27,34.27c.18.39.08.68.07.97-.03.56-.27.79-.88.77-1.56-.05-3.12-.02-4.74-.09,1.02-.17.88-.92.88-1.57.01-1.64-.02-3.29.03-4.93.02-.81-.08-1.43-1.12-1.43.56-.24,1.1-.11,1.63-.12,1.2-.03,2.41.08,3.61-.07.18-.02.35-.03.34.21-.03.45-.09.9-.15,1.49-.43-.82-1.97-1.31-2.61-.97-.06.03-.15.11-.15.17-.01.79-.04,1.59,0,2.38.01.28.32.24.54.23.73-.01,1.47.11,2.21-.29-.04.64.02,1.21-.23,1.79-.29-.69-1.73-1.17-2.36-.83-.14.07-.18.19-.18.34,0,.77,0,1.53.02,2.3,0,.25.14.46.38.59.88.49,2.25.06,2.73-.94Z" style="fill:#6a4336; stroke-width:0px;"/><path d="M104.46,41.29c.42-.12.71-.11.58.47-.07.33-.07.68-.12,1.17-.46-.85-1.85-1.43-2.49-.94-.73.56-.19,1.56-.29,2.36-.06.48.36.4.64.39.68-.02,1.37.09,2.06-.27.07.61,0,1.14-.11,1.78-.4-.72-1.65-1.12-2.35-.87-.24.09-.25.27-.25.45,0,.71,0,1.42,0,2.14,0,.36.19.61.55.74,1.01.36,2.04.02,2.55-.87.3,1.31.08,1.62-1.19,1.62-1.43,0-2.86,0-4.35-.1.93-.14.89-.78.89-1.41,0-1.73,0-3.45.01-5.18,0-.7.04-1.39-1.22-1.19.48-.44.79-.3,1.08-.28,1.34.12,2.67.13,4.01,0Z" style="fill:#6a4336; stroke-width:0px;"/><path d="M26.55,35.95c.27.49.74.33,1.14.32.43-.01.77.06.95.5.43,1.55.73,3.14,1.73,4.47.3.4-.06.65-.42.78-.52.19-1.08.14-1.62.19-.47.01-.94.02-1.41.03-.48-.06-.98-.08-1.45-.19-.73-.17-.82-.47-.42-1.09.98-1.52,1.48-3.19,1.51-5.01Z" style="fill:#833738; stroke-width:0px;"/><path d="M136.54,43.1c-.63-1.3-1.33-1.66-2.35-1.28-.93.35-1.12,1.29-.35,1.92.36.29.78.51,1.18.75.59.35,1.17.73,1.54,1.33.86,1.39.08,3.25-1.54,3.63-.76.18-1.52.13-2.29.02-.66-.09-.99-.38-.85-1.1.07-.34.07-.7.1-1.06.33,0,.28.24.31.4.14.72.64,1.06,1.3,1.2.85.19,1.61-.14,1.89-.79.3-.68.04-1.33-.76-1.86-.57-.38-1.17-.72-1.71-1.14-.77-.59-1.06-1.41-.82-2.34.22-.88.92-1.34,1.76-1.56.34-.09.7-.13,1.06-.14,1.71,0,1.84.16,1.52,2Z" style="fill:#6b4639; stroke-width:0px;"/><path d="M89.23,29.7c-.54-1.29-1.2-1.66-2.24-1.34-1.01.31-1.23,1.25-.44,1.94.3.27.67.47,1.03.67.48.27.94.56,1.33.96,1.32,1.39.75,3.51-1.08,4.06-.51.15-1.03.17-1.55.13-1.74-.14-1.94-.1-1.43-2.33.16,1.03.69,1.67,1.74,1.72.7.04,1.34-.11,1.62-.84.3-.75-.01-1.33-.66-1.76-.53-.35-1.08-.65-1.59-1.02-.96-.71-1.31-1.62-1.05-2.56.24-.87,1.14-1.52,2.26-1.62.22-.02.44-.02.66-.02,1.66.01,1.79.19,1.4,2Z" style="fill:#6b4639; stroke-width:0px;"/><path d="M90.63,29.49c-.13-.6.07-.98.1-1.37.03-.34.21-.41.57-.37,2.05.23,4.1.15,6.15.06.69-.03.82.15.74.72-.04.29.07.6-.12.88-.44-.71-1.85-1.16-2.62-.86-.25.1-.22.28-.22.46,0,1.97.05,3.94.02,5.91,0,.81.59.76,1.08.98h-3.44c.97-.24.76-1.05.77-1.72.02-1.67-.02-3.34.02-5.01,0-.51-.14-.7-.64-.63-.85.11-1.85-.28-2.41.96Z" style="fill:#6b4639; stroke-width:0px;"/><path d="M124.57,46.42c.7-1.66,1.39-3.33,2.09-4.99.07-.17.13-.4.38-.37.26.03.3.3.38.49.88,2.06,1.76,4.13,2.64,6.2.3.71.59,1.42,1.53,1.55-.87.21-1.73.11-2.58.1-.13,0-.29-.05-.19-.25.2-.36-.06-.64-.19-.92-.22-.49-.21-1.26-.7-1.42-.79-.25-1.67-.14-2.52-.03-.09.01-.16.14-.24.21-.03.06-.06.11-.09.17h0c-.15.06-.17.19-.15.34,0,0,0,0,0,0-.31-.02-.31.21-.38.42-.18.5-.42.43-.65.02.13-.32.26-.64.39-.96.35-.06.28-.32.26-.56ZM125.62,46.11c.62,0,1.16,0,1.7,0,.23,0,.49,0,.35-.34-.33-.79-.52-1.63-1.01-2.43-.34.86-.65,1.64-.96,2.42-.03.07-.04.15-.08.35Z" style="fill:#6a4336; stroke-width:0px;"/><path d="M109.44,35.93h-3.47c.9-.21.82-.92.82-1.59,0-1.7-.01-3.4.03-5.1.02-.6-.18-.73-.75-.71-1.65.06-1.65.04-2.36.81-.1-.5.1-.94.17-1.38.05-.32.31-.21.52-.19,2.05.2,4.11.12,6.16.05.61-.02.79.08.72.66-.04.3-.03.6-.05,1.13-.57-1.41-1.66-.99-2.57-1.07-.45-.04-.35.32-.35.58,0,1.78.02,3.56.01,5.34,0,.77.15,1.38,1.12,1.46Z" style="fill:#694133; stroke-width:0px;"/><path d="M94.88,14.44h3.15c-.89.26-.79.97-.79,1.63,0,1.64.04,3.29,0,4.93-.01.82.09,1.44,1.11,1.49h-3.48c.69-.15.83-.64.83-1.25-.01-1.89-.01-3.78,0-5.67,0-.61-.21-.98-.83-1.12Z" style="fill:#6a4336; stroke-width:0px;"/><path d="M134.12,27.91c-.75.14-.85.64-.84,1.28.03,1.72.03,3.45,0,5.17,0,.79,0,1.53,1.11,1.54h-3.47c.87-.16.8-.85.81-1.48,0-1.72-.02-3.45.02-5.17.01-.68-.11-1.19-.89-1.33h3.26Z" style="fill:#6a4336; stroke-width:0px;"/><path d="M17.43,26.84c.22,1.15.18,1.19-.89,1.21-3.81.09-5.15-2.95-5.13-5.85,0-.03.07-.06.11-.1.61.39.97,1.03,1.5,1.49.7.6,1.46,1.14,2.09,1.82.62.65,1.22,1.31,1.81,1.99.12.14,0,.51.34.42.28-.08.16-.37.18-.57.01-.14,0-.27,0-.41Z" style="fill:#0aa0e2; stroke-width:0px;"/><path d="M95.31,49.41c-.13-.01-.36-.05-.22-.19.47-.48.36-1.07.36-1.63.02-1.59,0-3.18.01-4.77,0-.68.04-1.33-.86-1.51h3.23c-.9.18-.86.85-.86,1.51,0,1.73-.01,3.45.02,5.18,0,.42-.13.99.54,1.12.11.02.21.04.09.19-.13.16-.28.14-.44.09-.18-.14-.36-.12-.54,0-.14-.01-.27-.02-.41-.03-.1-.08-.19-.08-.27.02-.13,0-.27,0-.4,0-.1-.09-.19-.08-.27.02Z" style="fill:#6a4336; stroke-width:0px;"/><path d="M34.02,22.79c-.33,2.06-1,3.91-3.15,4.74-1.09.42-2.23.43-3.35.02.46-.06.18-.63.58-.8,1.21-.49,2.01-1.56,3.08-2.23.94-.59,1.61-1.61,2.83-1.73Z" style="fill:#0aa0e2; stroke-width:0px;"/><path d="M34.02,22.79c-1.22.13-1.89,1.15-2.83,1.73-1.07.67-1.88,1.75-3.08,2.23-.4.16-.12.73-.58.8-.39-.31-.09-.67-.03-.97.41-1.93,1.26-3.55,3.27-4.25.93-.32,1.89-.23,2.84-.08.3.05.54.15.41.53Z" style="fill:#0995d7; stroke-width:0px;"/><path d="M99.33,27.88h3.18c-.95.23-.79.98-.79,1.66,0,1.64.03,3.29,0,4.93-.02.8.15,1.36,1.09,1.41h-3.44c.9-.11.82-.8.82-1.41.01-1.78,0-3.56.01-5.34,0-.62-.1-1.11-.87-1.24Z" style="fill:#694133; stroke-width:0px;"/><path d="M39.77,19.19c1.22,1.61,2,3.33,1.22,5.37-.43,1.13-1.24,1.96-2.33,2.5-.22-.21-.09-.44-.06-.68.09-.88.35-1.76.36-2.61.03-1.59.36-3.09.81-4.58Z" style="fill:#7cb830; stroke-width:0px;"/><path d="M7.75,26.41c-.36.1-.22.85-.82.66.24-.26.17-.57.1-.85-.12-.53-.24-1.05-.31-1.59-.18-1.54-.42-3.07-.67-4.6-.04-.25-.09-.55-.34-.72.18-.47.46-.15.65-.04,2.06,1.24,2.79,3.2,2.07,5.55-.04.13-.05.27-.07.4-.31.35-.44.78-.62,1.19Z" style="fill:#96c227; stroke-width:0px;"/><path d="M17.43,26.84c0,.14.02.28,0,.41-.02.2.1.5-.18.57-.35.09-.23-.28-.34-.42-.59-.68-1.19-1.34-1.81-1.99-.64-.67-1.39-1.22-2.09-1.82-.53-.45-.89-1.1-1.5-1.49,1.94-.71,4.53.45,5.37,2.44.31.73.54,1.49.55,2.29Z" style="fill:#0995d7; stroke-width:0px;"/><path d="M5.72,19.3c.25.17.3.47.34.72.25,1.53.49,3.06.67,4.6.06.54.18,1.06.31,1.59.07.28.13.59-.1.85-2.49-1.09-3.37-3.93-2.03-6.55.22-.43.43-.89.81-1.21Z" style="fill:#7cb830; stroke-width:0px;"/><path d="M39.77,19.19c-.45,1.49-.78,2.99-.81,4.58-.02.85-.28,1.73-.36,2.61-.02.24-.16.47.06.68-.23.23-.37,0-.45-.13-1.01-1.53-1.78-3.13-1.19-5.04.38-1.23,1.28-2.04,2.32-2.71.12-.08.3-.18.43,0Z" style="fill:#96c227; stroke-width:0px;"/><path d="M18.89,5.35c.06-.05.13-.1.18-.16,2.55-2.83,5.33-1.86,7.47.32.02.02.04.05.03.06-.03.04-.07.07-.1.1-2.28-.06-4.57.16-6.85-.11-.31-.04-.36.17-.4.39-.24-.13-.35-.33-.32-.6Z" style="fill:#7cb830; stroke-width:0px;"/><path d="M19.22,5.94c.04-.22.09-.43.4-.39,2.28.27,4.57.06,6.85.11-.1.16-.21.32-.31.48-.31.26-.66.46-.88.81-1.87,1.17-3.66.8-5.41-.29-.1-.34-.45-.47-.65-.72Z" style="fill:#96c227; stroke-width:0px;"/><path d="M33.55,32.99c-1.3.33-1.53.14-1.4-1.16.3-2.96,2.77-3.91,4.91-3.77.21.01.29.11.25.32-.33-.18-.48.07-.69.25-.31.27-.46.74-.76.92-1.22.76-1.92,2.05-3.04,2.9-.24.18-.2.45.16.52.19.03.38.01.57.02Z" style="fill:#96c227; stroke-width:0px;"/><path d="M13.28,32.99c-2.52.43-5.24-1.07-5.1-4.35,0-.19.04-.38.06-.57.06,0,.11,0,.16.02,1.63,1.63,3.25,3.26,4.88,4.9Z" style="fill:#7cb830; stroke-width:0px;"/><path d="M36.79,20.12c0,.52-.15.85-.77.67-2.41-.67-3.94-2.24-3.3-4.99.15-.64.41-.68.9-.41-.19,0-.37,0-.67,0,.54.36.69.86.95,1.28,1.28,2.09,2.01,2.97,2.89,3.44Z" style="fill:#0aa0e2; stroke-width:0px;"/><path d="M33.55,32.99c-.19,0-.39.02-.57-.02-.36-.07-.4-.34-.16-.52,1.12-.85,1.82-2.14,3.04-2.9.3-.19.45-.65.76-.92.2-.18.36-.43.69-.25.23,2.66-1.27,4.5-3.76,4.61Z" style="fill:#7cb830; stroke-width:0px;"/><path d="M13.28,32.99c-1.63-1.63-3.25-3.26-4.88-4.9.33-.02.66-.05.98-.07,1.73.3,3.2.95,3.8,2.78.23.72.22,1.45.1,2.18Z" style="fill:#96c227; stroke-width:0px;"/><path d="M12.04,15.39c.38-.27.62-.2.77.27.99,3.05-1.61,5.11-3.85,5.13.14-.86.9-1.32,1.34-1.98.59-.9.9-2.03,1.88-2.68.12-.08.43-.6-.14-.75Z" style="fill:#0aa0e2; stroke-width:0px;"/><path d="M26.91,42.24c.47-.01.94-.02,1.41-.03-.11,2.74-.16,5.49-.41,8.22-.19,0-.38,0-.57-.01-.15-2.72-.29-5.45-.44-8.17Z" style="fill:#6a4336; stroke-width:0px;"/><path d="M123.92,47.93c.23.41.47.47.65-.02.08-.21.07-.44.38-.42-.07.23-.13.47-.22.7-.28.78-.27.82.49,1.06-1.56.76-3.99.13-4.92-1.28,0,0,.03-.03.03-.03.53.1.81.54,1.15.88.28.27.54.4.95.15-1.19-1.11-1.96-2.52-3.26-3.43,1.09-1.08,1.21-1.97.42-3.27.56-.05.69.29.71.75.03.46-.1.95.1,1.44.84-.69.91-1.37.25-2.05-.24-.25-.41-.5-.35-.86,1.37.59,1.62,1.98.58,3.22-.79.93-.8.94-.02,1.88.53.63,1.06,1.26,1.63,1.84.66.67.8.63,1.22-.2.06-.12.13-.23.2-.35Z" style="fill:#6b4639; stroke-width:0px;"/><path d="M12.04,15.39c.58.15.26.67.14.75-.98.65-1.29,1.78-1.88,2.68-.44.66-1.2,1.12-1.34,1.98-1-2.04.01-4.34,2.3-5.2.25-.09.52-.14.79-.2Z" style="fill:#0995d7; stroke-width:0px;"/><path d="M21.07,25.26c.44-.61.97-1.03,1.79-.88.78.14,1.15.67,1.35,1.37,0,.47-.16.89-.37,1.3-.64.51-1.34.76-2.1.29-.79-.49-.87-1.25-.68-2.08Z" style="fill:#8d4f2b; stroke-width:0px;"/><path d="M36.79,20.12c-.89-.47-1.61-1.35-2.89-3.44-.26-.42-.41-.93-.95-1.28.3,0,.49,0,.67,0,2.22.61,3.4,1.97,3.35,3.85,0,.3-.02.6-.17.87Z" style="fill:#0995d7; stroke-width:0px;"/><path d="M116.26,42.86c0-.11,0-.22,0-.32.19-.04.47.06.28-.35-.19-.41.2-.56.5-.62.33-.07.68-.06.64.45,0,.06-.02.13-.02.19-.47.27-.47.55,0,.82,0,.38,0,.77,0,1.15-.47.33-.47.66,0,.99.13.32.43.28.69.35.01.45-.68.16-.66.63,0,.22-.02.44-.03.67-.13.02-.25.05-.27.21-.02.2.11.26.28.28,0,.11,0,.22.01.33-.19.58.09,1.14.07,1.72,0,0-.02-.02-.02-.02-.5-.02-1-.04-1.51-.07.23-.22.5-.37.5-.78-.02-1.7-.01-3.39,0-5.09,0-.31-.05-.55-.43-.53Z" style="fill:#694133; stroke-width:0px;"/><path d="M38.05,13.87c.47-.39.95-.76,1.61-.43.74.37.97,1.05.93,1.77-.05.94-.24,1.88-.85,2.67-.18-.29-.36-.56-.47-.91-.34-1.05-.81-2.07-1.23-3.1Z" style="fill:#0d9663; stroke-width:0px;"/><path d="M38.05,13.87c.42,1.03.88,2.04,1.23,3.1.11.35.29.62.47.91-1.26.15-3.22-1.58-3.15-2.79.04-.65.5-1.43,1.45-1.21Z" style="fill:#7cb830; stroke-width:0px;"/><path d="M14.16,20.49c-1.1.25-1.21.15-1.12-.94.16-1.89,1.9-3.25,3.82-3.02.32.04.44.16.42.46-.03.4.08.83-.17,1.2,0-.45,0-.89,0-1.52-1.3,1.35-2.46,2.56-3.62,3.77.19.02.43.04.66.06Z" style="fill:#e64b71; stroke-width:0px;"/><path d="M29.97,16.53c1.79.3,2.85,1.91,2.6,3.95-.22-.2-.45-.38-.67-.59-1.08-1.06-2.15-2.13-3.23-3.19-.03-.06-.02-.11.04-.14.42,0,.84-.02,1.26-.03Z" style="fill:#df0c34; stroke-width:0px;"/><path d="M7.14,13.9c.57-.05,1.11-.03,1.42.56.32.6.19,1.17-.18,1.7-.57.81-1.39,1.28-2.29,1.64-.15.06-.33.07-.42-.12.11-.08.29-.13.32-.23.34-1.2,1.02-2.28,1.14-3.55Z" style="fill:#7cb830; stroke-width:0px;"/><path d="M7.14,13.9c-.12,1.26-.8,2.35-1.14,3.55-.03.1-.21.15-.32.23-.57-1.06-.98-2.16-.57-3.37.34-.98,1.34-1.17,2.03-.41Z" style="fill:#0d9663; stroke-width:0px;"/><path d="M28.67,16.7c1.08,1.06,2.15,2.13,3.23,3.19.21.21.44.39.67.59-1.19.43-2.6-.06-3.32-1.19-.5-.78-.72-1.65-.58-2.58Z" style="fill:#e64b71; stroke-width:0px;"/><path d="M14.16,20.49c-.23-.02-.47-.04-.66-.06,1.16-1.21,2.32-2.42,3.62-3.77,0,.63,0,1.07,0,1.52-.39,1.53-1.51,2.14-2.96,2.31Z" style="fill:#df0c34; stroke-width:0px;"/><path d="M27.63,29.35c.73-.02,1.32.55,1.33,1.27.01.72-.58,1.31-1.3,1.31-.68,0-1.27-.56-1.3-1.24-.04-.69.56-1.33,1.27-1.35Z" style="fill:#6a4336; stroke-width:0px;"/><path d="M17.97,8.74s-.02-.02-.02-.02c0-.49-.4-.35-.67-.42,0,0,.02,0,.02,0-.47-.53-.98-1.03-1.14-1.76-.03-.16-.02-.26.16-.29.26.59.97.23,1.33.62.61.65,1.51.77,2.26,1.17.13.07.16-.09.16-.2.28.39-.05.44-.3.5-.6.14-1.2.27-1.8.41Z" style="fill:#96c227; stroke-width:0px;"/><path d="M20.33,33.93c-.02.61-.5,1.07-1.12,1.05-.6-.02-1.08-.53-1.06-1.12.03-.6.53-1.06,1.13-1.04.62.02,1.06.5,1.04,1.11Z" style="fill:#833738; stroke-width:0px;"/><path d="M26.39,6.36c.96-.59,1.92-.59,2.89-.03.15.09.18.18.11.33-.26.05-.54.08-.79.16-1.06.37-2.12.77-3.18,1.15-.27-.26.22-.4.1-.63.29-.33.58-.66.87-.98Z" style="fill:#7cb830; stroke-width:0px;"/><path d="M37.36,27.32c-.74.52-1.41.26-2.07-.19-.7-.47-.95-1.21-1.15-1.97-.05-.18-.05-.4.26-.37,0,.22.16.37.32.44,1.04.49,1.69,1.49,2.64,2.09Z" style="fill:#96c227; stroke-width:0px;"/><path d="M25.42,7.98c1.06-.39,2.11-.78,3.18-1.15.25-.09.53-.11.79-.16-.18.54-.55.95-.92,1.36-.82.58-1.7.66-2.63.33-.16-.1-.38-.13-.42-.37Z" style="fill:#96c227; stroke-width:0px;"/><path d="M20.07,7.84c0,.11-.03.27-.16.2-.75-.4-1.64-.52-2.26-1.17-.36-.39-1.07-.02-1.33-.62.67-.46,1.42-.22,2.14-.26.42.21.81.48,1.15.81.16.35.31.69.47,1.04Z" style="fill:#7cb830; stroke-width:0px;"/><path d="M8.74,25.43c.66-.59,1.38-.98,2.3-.67-.22.47-.45.87-.96,1.17-.62.38-1.37.67-1.68,1.44-.1,0-.21-.01-.31-.02,0-.1-.01-.19-.02-.29.22-.55.45-1.09.67-1.64Z" style="fill:#7cb830; stroke-width:0px;"/><path d="M37.36,27.32c-.95-.6-1.59-1.6-2.64-2.09-.16-.07-.31-.22-.32-.44,1.67-.46,3.02.68,2.96,2.53Z" style="fill:#7cb830; stroke-width:0px;"/><path d="M116.26,42.86c.38-.01.43.22.43.53,0,1.7-.02,3.39,0,5.09,0,.41-.27.56-.5.78-.05.04-.11.08-.16.12-.17,0-.34,0-.5.01.05-.08.1-.16.15-.25.55-.13.51-.58.51-.98.03-1.77.04-3.54.06-5.31Z" style="fill:#6b4639; stroke-width:0px;"/><path d="M8.39,27.37c.31-.77,1.07-1.06,1.68-1.44.5-.31.74-.7.96-1.17.51-.07.37.29.32.52-.2.97-.63,1.79-1.64,2.14-.44-.03-.88.08-1.32-.06Z" style="fill:#96c227; stroke-width:0px;"/><path d="M17.63,34.95c-.05.23.05.49-.16.67-.73-1.44-1.77-2.7-2.65-4.21.76.25,1.62,1.37,2.61,3.23-.22.29-.01.3.2.31h0Z" style="fill:#6b4639; stroke-width:0px;"/><path d="M117.67,42.02c.05-.51-.31-.52-.64-.45-.3.06-.69.2-.5.62.19.41-.09.32-.28.35.07-.76-.35-1.07-1.08-1.19,1.7.08,3.38-.38,5.04.17-.39.12-.95-.2-1.13.44-.47-.08-.95-.23-1.41.06Z" style="fill:#6b4639; stroke-width:0px;"/><path d="M30.15,31.57c-.08-.17-.22-.22-.39-.23.91-1.21,1.58-2.6,2.62-3.71l.28.2c-.84,1.25-1.67,2.5-2.51,3.74Z" style="fill:#6b4639; stroke-width:0px;"/><path d="M139.38,26.78c.61-.74,1.34-1.35,2.16-1.78.48-.25.51.42.66.71.18.34-.12.33-.34.34-.88.05-1.64.49-2.48.73Z" style="fill:#6b4639; stroke-width:0px;"/><path d="M119.08,41.96c.18-.64.74-.32,1.13-.44.04-.02.08,0,.1.04-.06.36.11.61.35.86.66.68.59,1.36-.25,2.05-.2-.49-.07-.97-.1-1.44-.03-.46-.16-.8-.71-.75,0,0,0,0,0,0,.05-.45-.21-.4-.5-.31h-.02Z" style="fill:#694133; stroke-width:0px;"/><path d="M104.46,41.29c-1.34.13-2.67.13-4.01,0,1.34-.08,2.67-.08,4.01,0Z" style="fill:#6a4336; stroke-width:0px;"/><path d="M117.68,46.15c-.02-.47.67-.17.66-.63.11,0,.22,0,.33,0,.12.2.23.41.35.61l-.03.03c-.43-.08-.87-.14-1.31-.02Z" style="fill:#6b4639; stroke-width:0px;"/><path d="M117.73,49.36c.03-.57-.26-1.14-.07-1.72.15.5-.12,1.11.46,1.5.18.12.13.19-.39.22Z" style="fill:#6b4639; stroke-width:0px;"/><path d="M107.49,49.38c.59-.15,1.18-.16,1.77,0-.59,0-1.18,0-1.77,0Z" style="fill:#8d4f2b; stroke-width:0px;"/><path d="M116.04,49.39c.05-.04.11-.08.16-.12.5.02,1,.04,1.51.07-.55.15-1.11.06-1.67.06Z" style="fill:#8d4f2b; stroke-width:0px;"/><path d="M69.53,41.37c-.45,0-.9.08-1.34-.1.45-.05.9-.06,1.34.1Z" style="fill:#6a4336; stroke-width:0px;"/><path d="M66.27,41.29c-.4.11-.79.12-1.19,0,.4-.08.79-.08,1.19,0Z" style="fill:#6a4336; stroke-width:0px;"/><path d="M115.69,49.16c-.05.08-.1.16-.15.25-.21,0-.43,0-.64,0,.05-.08.1-.16.15-.24.22,0,.43,0,.65,0Z" style="fill:#8d4f2b; stroke-width:0px;"/><path d="M29.97,16.53c-.42,0-.84.02-1.26.03.41-.31.84-.17,1.26-.03Z" style="fill:#e64b71; stroke-width:0px;"/><path d="M119.67,47.13c-.2-.15-.31-.35-.4-.58.02-.03.04-.05.07-.07.41.05.29.4.35.64l-.02.02Z" style="fill:#6b4639; stroke-width:0px;"/><path d="M117.65,47.31c-.16-.03-.3-.08-.28-.28.02-.16.14-.19.27-.21,0,.17,0,.33,0,.5Z" style="fill:#6b4639; stroke-width:0px;"/><path d="M95.08,49.29c-.02.15-.14.14-.24.15-.14,0-.29-.01-.24-.2.01-.05.17-.1.26-.1.09,0,.22,0,.22.15Z" style="fill:#6a4336; stroke-width:0px;"/><path d="M107.13,49.15c0,.08,0,.17,0,.25-.15.02-.38.11-.38-.11,0-.21.23-.14.38-.14Z" style="fill:#8d4f2b; stroke-width:0px;"/><path d="M109.79,49.4c0-.08,0-.16,0-.24.14-.03.32-.05.31.13,0,.19-.18.14-.31.11Z" style="fill:#8d4f2b; stroke-width:0px;"/><path d="M118.84,49.29c-.25.2-.51.2-.57.06-.11-.25.14-.2.29-.2.07,0,.14.06.29.13Z" style="fill:#8d4f2b; stroke-width:0px;"/><path d="M64.43,41.26c0,.09,0,.17,0,.26-.14.05-.32.05-.33-.09-.02-.23.17-.21.34-.17Z" style="fill:#6a4336; stroke-width:0px;"/><path d="M124.57,46.42c.01.23.08.49-.26.56.04-.21.09-.41.26-.56Z" style="fill:#6b4639; stroke-width:0px;"/><path d="M120.3,47.97c-.18-.11-.3-.27-.36-.47,0,0,.05-.05.05-.05.3.03.31.26.34.48l-.03.03Z" style="fill:#6b4639; stroke-width:0px;"/><path d="M119.26,46.55c-.09-.13-.19-.25-.28-.38,0,0,.03-.03.03-.03.19.03.3.14.32.34-.02.02-.05.05-.07.07Z" style="fill:#6b4639; stroke-width:0px;"/><path d="M26.82,9.34c-.02.2-.14.28-.33.28.03-.19.14-.28.33-.28Z" style="fill:#dbac08; stroke-width:0px;"/><path d="M96.66,49.39c.18-.11.36-.14.54,0-.18,0-.36,0-.54,0Z" style="fill:#6a4336; stroke-width:0px;"/><path d="M113.11,49.28c.14.03.29.06.43.09-.16.05-.3,0-.43-.09Z" style="fill:#8d4f2b; stroke-width:0px;"/><path d="M17.63,34.95c-.21-.01-.42-.02-.2-.31.07.1.13.21.2.31Z" style="fill:#694133; stroke-width:0px;"/><path d="M119.95,47.51c-.09-.13-.19-.25-.28-.38,0,0,.02-.02.02-.02.18.04.29.15.31.35l-.05.05Z" style="fill:#6b4639; stroke-width:0px;"/><path d="M124.94,47.5c-.02-.15,0-.28.15-.35,0,.14-.03.27-.15.35Z" style="fill:#6b4639; stroke-width:0px;"/><path d="M95.31,49.41c.08-.11.17-.11.27-.02-.09,0-.18.01-.27.02Z" style="fill:#6a4336; stroke-width:0px;"/><path d="M95.99,49.38c.08-.11.17-.1.27-.02-.09,0-.18.01-.27.02Z" style="fill:#6a4336; stroke-width:0px;"/><path d="M125.09,47.16c.03-.06.06-.11.09-.17-.03.06-.06.11-.09.17Z" style="fill:#6b4639; stroke-width:0px;"/><polygon points="67.76 41.26 67.73 41.32 67.7 41.26 67.76 41.26" style="fill:#6a4336; stroke-width:0px;"/><path d="M22.72,21.96s.04.03.07.04c-.02-.01-.05-.02-.07-.03,0,0,0,0,0,0Z" style="fill:#edad07; stroke-width:0px;"/><path d="M118.67,45.52c.17,0,.34.01.51.02,1.3.91,2.07,2.32,3.26,3.43-.42.25-.68.12-.95-.15-.34-.34-.62-.78-1.15-.88-.03-.22-.04-.46-.34-.48-.02-.19-.13-.3-.31-.35-.07-.24.05-.58-.35-.64-.01-.2-.12-.31-.32-.34-.12-.2-.23-.41-.35-.61Z" style="fill:#694133; stroke-width:0px;"/><path d="M117.65,44.18c0,.33,0,.66,0,.99-.48-.33-.47-.66,0-.99Z" style="fill:#6b4639; stroke-width:0px;"/><path d="M117.65,42.21c0,.27,0,.55,0,.82-.47-.28-.47-.55,0-.82Z" style="fill:#6b4639; stroke-width:0px;"/><path d="M119.6,42.27c-.16-.1-.33-.21-.49-.31.28-.08.55-.14.49.31Z" style="fill:#6b4639; stroke-width:0px;"/></svg>