<svg width="99" height="90" viewBox="0 0 99 90" fill="none" xmlns="http://www.w3.org/2000/svg">
<path d="M60.9927 48.0396C59.6652 49.3794 58.411 50.7449 56.8122 51.7167C55.0703 52.7767 53.2001 53.4577 51.1722 53.6822C47.3144 54.1128 43.8307 53.1558 40.798 50.7155C39.8005 49.9131 38.9168 48.9708 38 48.1058C38.022 48.0322 38.022 48.0138 38.033 48.0028C38.9974 47.0826 39.9142 46.0961 40.9447 45.2532C42.8516 43.6962 45.0628 42.7724 47.5014 42.4521C52.1146 41.8485 56.0898 43.1993 59.4231 46.4568C59.9512 46.9721 60.4646 47.4985 61 48.0359L60.9927 48.0396ZM53.8015 48.0432C53.8015 45.6581 51.8653 43.7146 49.489 43.7183C47.1201 43.7183 45.1985 45.6434 45.1838 48.0248C45.1692 50.4026 47.1017 52.3534 49.4853 52.3645C51.8579 52.3755 53.8015 50.4321 53.8015 48.0432Z" fill="url(#paint0_linear_1782_4719)"/>
<path d="M53.2994 48.0319C53.3104 50.1189 51.5942 51.8563 49.504 51.871C47.4137 51.8857 45.6719 50.1447 45.6719 48.043C45.6719 45.9486 47.3954 44.2223 49.482 44.215C51.5686 44.2113 53.2921 45.9339 53.3031 48.0283L53.2994 48.0319ZM49.493 50.2404C50.6885 50.2404 51.6749 49.2503 51.6749 48.0503C51.6749 46.8357 50.6885 45.8456 49.482 45.8492C48.2865 45.8492 47.3001 46.8394 47.3001 48.0393C47.3001 49.2503 48.2865 50.2441 49.493 50.2441V50.2404Z" fill="url(#paint1_linear_1782_4719)"/>
<path d="M49.4842 49.7397C48.5528 49.7397 47.801 48.9741 47.8047 48.0355C47.8047 47.1006 48.5675 46.3461 49.4989 46.3497C50.4303 46.3497 51.1821 47.1117 51.1784 48.0503C51.1784 48.9852 50.4157 49.7397 49.4842 49.7361V49.7397Z" fill="url(#paint2_linear_1782_4719)"/>
<path d="M13.8444 51.7402V71.3836C14.1538 71.3836 14.4515 71.3836 14.7493 71.3836C15.5226 71.3836 16.296 71.3641 17.0694 71.3913C17.8505 71.4185 18.4421 71.9231 18.562 72.6023C18.6703 73.2194 18.3068 73.887 17.692 74.116C17.4406 74.2092 17.1583 74.2596 16.8915 74.2635C15.426 74.2829 13.9604 74.2907 12.4949 74.2751C11.6442 74.2674 11.0951 73.7667 11.0177 72.9206C10.9636 72.3267 10.9713 71.7251 10.9713 71.1274C10.9713 55.474 10.9713 39.8207 10.9674 24.1634C10.9674 23.5153 10.9597 22.871 10.9636 22.2228C10.9713 20.907 11.4701 20.3986 12.7772 20.3986C18.4151 20.3986 24.0569 20.3986 29.6948 20.3986C32.3513 20.3986 35.0117 20.3947 37.6683 20.4141C38.0472 20.4141 38.1323 20.3015 38.1207 19.9483C38.0975 19.1294 38.113 18.3065 38.113 17.4255H37.502C28.5618 17.4255 19.6177 17.4255 10.6774 17.4255C8.89093 17.4255 7.95901 18.357 7.96288 20.1424C7.97448 31.9649 7.98995 43.7835 7.99768 55.606C8.00155 62.6739 7.99768 69.7418 8.00155 76.8058C8.00155 76.9144 8.01701 77.027 8.02475 77.1706H90.9849C90.9965 77.0386 91.0159 76.9106 91.0159 76.7864C91.0159 58.0279 91.0159 39.2695 90.9965 20.5072C90.9965 19.894 90.8921 19.2419 90.6678 18.6791C90.3275 17.8253 89.589 17.4255 88.6648 17.4255C85.6989 17.4255 82.7368 17.4255 79.7709 17.4216C79.4848 17.4216 79.1909 17.3905 78.9125 17.3207C78.2861 17.1577 77.853 16.5483 77.8723 15.9079C77.8916 15.2364 78.3131 14.7241 78.9976 14.5805C79.2296 14.5339 79.4771 14.5223 79.7168 14.5223C82.586 14.5223 85.4553 14.5727 88.3206 14.5106C91.5224 14.4369 93.8657 16.9675 93.9663 19.9328C93.9779 20.2899 93.9779 20.6431 93.9779 21.0002C93.9779 39.549 93.9779 58.0978 93.9779 76.6466C93.9779 76.8058 93.9779 76.9688 93.9779 77.1745C94.1326 77.1822 94.2718 77.1978 94.4071 77.1978C95.3584 77.2055 96.3096 77.1861 97.257 77.2172C98.4132 77.256 99.0087 77.8692 98.9971 79.0259C98.9855 80.7531 99.0126 82.488 98.8966 84.2113C98.6955 87.1339 96.2439 89.5947 93.336 89.9013C92.8101 89.9557 92.2765 89.9867 91.7467 89.9867C86.8009 89.9945 81.8552 89.9945 76.9094 89.9906C76.6194 89.9906 76.3294 89.9712 76.0471 89.9207C75.3588 89.7965 74.9103 89.257 74.8871 88.57C74.8677 87.9063 75.266 87.3202 75.9118 87.1572C76.2676 87.068 76.6426 87.0291 77.01 87.0291C82.0524 87.0291 87.0948 87.0291 92.1372 87.0447C94.1132 87.0486 95.3893 86.249 95.9461 84.6227C96.008 84.4403 96.0815 84.2501 96.0853 84.0599C96.0969 82.7869 96.0931 81.5138 96.0931 80.2019C95.9539 80.1903 95.8301 80.167 95.7064 80.167C65.2237 80.167 34.7411 80.167 4.2584 80.1747C4.09599 80.1747 3.93745 80.1747 3.77504 80.1747C2.92433 80.1825 2.91659 80.1825 2.90886 81.0597C2.90113 81.933 2.88566 82.8063 2.91659 83.6796C2.97073 85.1584 4.04572 86.5479 5.4726 86.9166C6.0217 87.0563 6.62107 87.0253 7.19724 87.0486C7.61486 87.0641 8.03248 87.0291 8.45397 87.0291C28.5463 87.0291 48.6348 87.0291 68.7271 87.0291C69.0481 87.0291 69.3729 87.0486 69.69 87.099C70.3744 87.2038 70.8848 87.7899 70.908 88.4652C70.9351 89.2143 70.5136 89.7655 69.7634 89.9207C69.5121 89.9712 69.253 89.9945 68.9978 89.9945C48.3912 89.9945 27.7845 89.9945 7.1779 89.9945C5.41847 89.9945 3.77891 89.6684 2.40616 88.4846C0.836209 87.1339 0.078299 85.3796 0.0202957 83.3264C-0.0183732 81.9058 0.00869501 80.4814 0.0164288 79.0569C0.0241626 77.8421 0.604195 77.2327 1.8184 77.2094C2.87792 77.1861 3.93358 77.2055 5.03951 77.2055C5.03951 76.9649 5.03951 76.7747 5.03951 76.5845C5.03951 57.8416 5.03951 39.0988 5.03951 20.3559C5.03951 18.388 5.66595 16.7113 7.31324 15.5198C8.2877 14.8134 9.38203 14.5223 10.5808 14.5261C18.3957 14.5339 26.2107 14.53 34.0218 14.53C34.3737 14.53 34.7256 14.53 35.1277 14.53C34.335 11.817 34.9769 9.64732 37.5059 8.35096C39.2769 7.44273 41.0634 7.6562 42.5792 9.01854C44.2149 10.4896 44.6712 12.3177 43.9791 14.4679C44.0873 14.4873 44.2033 14.5261 44.3193 14.5261C45.4291 14.5339 46.5428 14.5223 47.6526 14.5417C48.0315 14.5494 48.0973 14.4019 48.0934 14.0526C48.0702 12.6631 48.0663 11.2697 48.0934 9.8802C48.1011 9.49594 47.9813 9.3174 47.641 9.15051C44.7602 7.72994 43.863 4.36484 45.7462 1.90021C46.9759 0.293341 48.6502 -0.323789 50.6262 0.161376C52.5713 0.638778 53.7275 1.97783 54.1258 3.8952C54.5937 6.13861 53.4104 8.27721 51.3184 9.17768C51.0361 9.298 50.924 9.44161 50.9278 9.74823C50.9433 11.1882 50.9394 12.6282 50.9433 14.0643C50.9433 14.2933 50.9085 14.53 51.2604 14.53C52.4978 14.5223 53.7352 14.53 55.0538 14.53C54.4196 12.3953 54.6826 10.4896 56.3918 8.99137C57.3778 8.12584 58.5649 7.78817 59.8836 7.86967C62.544 8.03269 65.1541 11.0989 63.8664 14.5106C64.0173 14.5223 64.1526 14.5455 64.2879 14.5455C66.8671 14.5455 69.4425 14.5378 72.0217 14.53C72.1493 14.53 72.2808 14.53 72.4084 14.5378C73.2978 14.596 73.8739 15.1471 73.8933 15.9467C73.9088 16.7074 73.2978 17.3401 72.4509 17.4255C72.2924 17.441 72.13 17.4332 71.9676 17.4332C68.441 17.4332 64.9105 17.441 61.3839 17.4255C60.9701 17.4255 60.8619 17.5536 60.8773 17.9495C60.9044 18.7529 60.8851 19.5563 60.8851 20.4063C61.2563 20.4063 61.5579 20.4063 61.8595 20.4063C69.9491 20.4063 78.0347 20.4063 86.1242 20.4063C87.5743 20.4063 88.0654 20.9381 88.0654 22.5333C88.0654 38.5127 88.0654 54.4882 88.0654 70.4676C88.0654 71.1313 88.0732 71.795 88.0732 72.4548C88.0732 73.7356 87.524 74.2868 86.2441 74.2868C74.191 74.2868 62.1418 74.2868 50.0887 74.2868C41.5004 74.2868 32.912 74.2868 24.3275 74.2868C24.1845 74.2868 24.0375 74.2907 23.8944 74.279C23.1327 74.213 22.5874 73.6735 22.5372 72.9477C22.4908 72.2491 22.9393 71.6358 23.6586 71.4651C23.937 71.3991 24.2309 71.3836 24.517 71.3836C44.4972 71.3836 64.4735 71.3836 84.4537 71.3836H85.1343V51.779C84.852 51.8489 84.5659 51.9265 84.2759 51.9847C81.9403 52.4544 79.8521 51.3676 78.9396 49.1669C78.8042 48.8409 78.638 48.7671 78.3325 48.7671C73.9668 48.7788 69.601 48.7826 65.2353 48.7904C65.0458 48.7904 64.8564 48.8098 64.5934 48.8253C64.5934 49.6909 64.6669 50.5292 64.5741 51.356C64.4619 52.3806 64.7906 53.0909 65.6375 53.6809C66.4689 54.2592 67.1997 54.9811 67.9924 55.6138C68.1664 55.7535 68.4216 55.8389 68.6421 55.8505C69.284 55.8816 69.9297 55.8505 70.5755 55.8699C70.8732 55.8816 71.0125 55.7923 71.1478 55.5051C71.9753 53.7197 73.3171 52.629 75.3356 52.5747C77.8723 52.5048 79.8676 54.3368 80.2195 56.9955C80.5095 59.1807 78.9318 61.362 76.631 61.9714C74.3882 62.5652 72.0333 61.4008 71.1246 59.2117C70.9738 58.8508 70.7959 58.7732 70.4479 58.7809C69.7248 58.8042 68.9978 58.7615 68.2747 58.7887C67.6367 58.812 67.1224 58.5907 66.6545 58.1754C66.0203 57.6126 65.3552 57.0848 64.6514 56.4987C64.5973 57.0925 64.5857 57.601 64.5006 58.1017C64.0559 60.6323 62.1225 62.3517 59.5665 62.4759C58.5843 62.5225 57.6021 62.5147 56.6199 62.5147C51.1405 62.5147 45.665 62.4953 40.1856 62.507C38.1207 62.507 36.3922 61.8627 35.2283 60.0579C34.6985 59.2389 34.4742 58.319 34.4317 57.3487C34.4201 57.0964 34.4317 56.8441 34.4317 56.4599C33.8903 56.9062 33.4495 57.2711 33.0087 57.6359C32.7844 57.8222 32.5563 58.0008 32.3436 58.1987C31.8834 58.6334 31.3498 58.8236 30.7156 58.8003C29.9771 58.7732 29.2346 58.7926 28.4922 58.7732C28.1828 58.7654 28.0204 58.843 27.8928 59.169C26.9222 61.6337 24.111 62.7787 21.6865 61.723C19.2232 60.6517 18.1173 57.7601 19.2465 55.3576C20.391 52.9201 23.2951 51.8605 25.5997 53.0482C26.6554 53.5916 27.4056 54.4455 27.8851 55.5284C28.0011 55.7923 28.1519 55.8389 28.4264 55.8816C29.9887 56.1067 31.2686 55.6526 32.3475 54.4804C32.8579 53.9293 33.523 53.5217 34.0798 53.0094C34.2577 52.8464 34.4008 52.5592 34.4085 52.3224C34.4433 51.29 34.4085 50.2537 34.424 49.2174C34.4278 48.9418 34.3196 48.8331 34.0721 48.8215C33.8787 48.8137 33.6854 48.7982 33.4921 48.7982C29.254 48.7904 25.0158 48.7904 20.7816 48.7749C20.4065 48.7749 20.217 48.8409 20.0469 49.2445C19.1111 51.484 16.5822 52.6096 14.2736 51.8722C14.1538 51.8334 14.0339 51.8023 13.8444 51.748V51.7402ZM49.5164 35.0816C47.3432 35.0816 45.1662 35.0816 42.993 35.0816C41.8484 35.0816 40.7038 35.0544 39.5631 35.0932C38.3721 35.132 37.4711 35.951 37.3396 37.0611C37.2893 37.4919 37.2584 37.9305 37.2584 38.3652C37.2661 42.8947 37.2816 47.4203 37.2893 51.9498C37.2893 53.6304 37.2661 55.3149 37.2893 56.9955C37.3125 58.6373 38.3257 59.6154 39.9382 59.6154C46.2218 59.6154 52.5055 59.6115 58.7892 59.6038C59.0947 59.6038 59.4002 59.5921 59.7057 59.5533C60.6685 59.433 61.3104 58.8935 61.5773 57.9736C61.701 57.5505 61.7126 57.0809 61.7165 56.6307C61.7358 50.5176 61.7513 44.4045 61.7513 38.2914C61.7513 37.7946 61.7203 37.2784 61.5889 36.8049C61.2756 35.6871 60.3592 35.0816 59.0406 35.0777C55.8659 35.0699 52.6911 35.0777 49.5203 35.0777L49.5164 35.0816ZM64.5973 38.1672C64.8138 38.012 64.9569 37.9227 65.0884 37.8179C65.6143 37.391 66.1518 36.9796 66.6506 36.5216C67.1456 36.0674 67.714 35.8811 68.3714 35.8928C69.0945 35.9005 69.8215 35.8656 70.5446 35.8967C70.8732 35.9122 70.9699 35.7802 71.0937 35.5085C71.8941 33.7037 73.3132 32.6946 75.2583 32.6092C77.0641 32.5316 78.5529 33.2302 79.508 34.8604C80.5405 36.6186 80.4786 38.6097 79.3263 40.1428C78.1314 41.7342 76.1554 42.4871 74.3728 41.9865C72.8608 41.5634 71.7858 40.6008 71.113 39.1725C71.0434 39.0211 70.881 38.8077 70.7534 38.8038C70.0148 38.7727 69.2724 38.7805 68.5299 38.8038C68.3714 38.8077 68.1974 38.9202 68.0659 39.0289C66.9754 39.9371 65.8927 40.8531 64.8138 41.7769C64.7133 41.8623 64.5973 42.002 64.5934 42.1184C64.578 43.3566 64.5818 44.5986 64.5818 45.8639C64.7829 45.8755 64.926 45.8911 65.0652 45.8911C69.4618 45.8872 73.8623 45.8755 78.259 45.8833C78.6263 45.8833 78.7849 45.763 78.9357 45.4369C79.887 43.407 81.9364 42.3125 84.0748 42.6696C84.4305 42.7278 84.7786 42.8248 85.1537 42.9102C85.1691 42.7977 85.1885 42.7356 85.1846 42.6734C85.1769 40.1195 85.1614 37.5656 85.1575 35.0117C85.1498 31.2624 85.1498 27.5091 85.1498 23.7598C85.1498 23.4959 85.1653 23.3134 84.7824 23.3134C77.1299 23.3251 69.4812 23.3173 61.8286 23.3134C61.5308 23.3134 61.2331 23.3134 60.8928 23.3134C60.8928 24.9009 60.8387 26.4068 60.9121 27.905C60.9663 28.9685 60.6801 29.8224 59.9377 30.5715C59.4698 31.045 59.0792 31.5923 58.5997 32.1745C60.3244 32.1628 61.8286 32.5122 63.0312 33.7037C64.2415 34.9031 64.636 36.4129 64.5896 38.1711L64.5973 38.1672ZM34.3157 38.1556C34.3544 38.1401 34.393 38.1284 34.4317 38.1129C34.3041 36.4206 34.7411 34.938 35.9475 33.7231C37.1501 32.5122 38.6776 32.1822 40.4099 32.159C39.8724 31.5108 39.4277 30.9208 38.9212 30.3891C38.287 29.7215 38.0627 28.9608 38.0975 28.0486C38.1439 26.7406 38.113 25.4288 38.1014 24.1208C38.0937 23.3212 38.0859 23.3173 37.2816 23.3173C29.6136 23.3173 21.9417 23.3173 14.2736 23.3096C13.9179 23.3096 13.8405 23.4299 13.8405 23.7598C13.8444 29.9854 13.8405 36.2111 13.8405 42.4367C13.8405 42.5881 13.856 42.7394 13.8676 42.9024C13.9759 42.8908 14.0262 42.8947 14.0687 42.8792C16.6943 41.9787 19.1652 43.2401 20.1436 45.6349C20.1977 45.7669 20.4645 45.8911 20.6308 45.8911C25.0622 45.8949 29.4937 45.8794 33.9213 45.8872C34.3196 45.8872 34.4162 45.7475 34.4124 45.3826C34.4008 44.3463 34.4278 43.3139 34.4085 42.2776C34.4085 42.099 34.2848 41.8778 34.1494 41.7575C33.4959 41.183 32.7496 40.6979 32.158 40.0691C31.1487 38.994 29.9732 38.5748 28.5308 38.7727C28.2176 38.8154 28.0397 38.8581 27.8889 39.1841C26.3847 42.46 22.3941 43.1509 20.0508 40.531C18.678 39.0017 18.4151 37.2396 19.2271 35.3533C19.9773 33.6183 21.6865 32.516 23.5735 32.5937C25.6113 32.6752 27.073 33.6688 27.8889 35.5629C28.0049 35.8346 28.1596 35.9277 28.4342 35.92C29.2075 35.9044 29.9809 35.92 30.7543 35.8889C31.3498 35.8695 31.8486 36.048 32.2972 36.4478C32.9546 37.0339 33.6429 37.5889 34.3196 38.1595L34.3157 38.1556ZM50.9356 32.1822C52.2542 32.1822 53.5032 32.19 54.7561 32.1706C54.8837 32.1706 55.0306 32.027 55.1273 31.9144C56.0051 30.882 56.8829 29.8535 57.7336 28.7977C57.8882 28.6037 57.9926 28.3087 57.9965 28.0603C58.0197 26.6048 58.0081 25.1532 58.0081 23.6977C58.0081 23.5618 57.9849 23.4221 57.9772 23.3096C55.7189 23.3096 53.5187 23.3134 51.3145 23.3057C50.9511 23.3057 50.9472 23.5036 50.9472 23.7714C50.9472 25.8557 50.9394 27.94 50.9356 30.0242C50.9356 30.719 50.9356 31.4099 50.9356 32.1861V32.1822ZM40.9977 23.294C40.9977 23.5114 40.9977 23.686 40.9977 23.8607C40.9977 25.2192 40.9745 26.5776 41.0131 27.9361C41.0209 28.2582 41.1601 28.6347 41.3612 28.8909C42.1809 29.9272 43.0433 30.9363 43.9056 31.9377C44.0216 32.0736 44.2497 32.1745 44.4276 32.1784C45.4407 32.2017 46.4577 32.19 47.4708 32.19C47.6565 32.19 47.8421 32.19 48.0238 32.19V23.2979H40.9938L40.9977 23.294ZM48.0896 17.4721H41.0286V20.4296C43.3101 20.4296 45.5606 20.4296 47.8111 20.418C47.9039 20.418 48.0741 20.2239 48.0779 20.1191C48.1011 19.2497 48.0896 18.3803 48.0896 17.4759V17.4721ZM57.9926 17.4371C57.7916 17.4371 57.6485 17.4371 57.5054 17.4371C55.4328 17.4371 53.3563 17.441 51.2836 17.4332C50.9549 17.4332 50.9201 17.6001 50.924 17.8563C50.9394 18.5666 50.9626 19.2769 50.9433 19.9871C50.9356 20.3403 51.0709 20.4219 51.3957 20.4219C53.4529 20.4219 55.5101 20.4374 57.5712 20.449C57.7104 20.449 57.8457 20.4335 57.9926 20.4219V17.441V17.4371ZM49.5164 6.69751C50.5721 6.68975 51.446 5.82422 51.4305 4.79955C51.4151 3.74771 50.545 2.8977 49.501 2.91323C48.426 2.92876 47.5985 3.75548 47.5985 4.81508C47.5985 5.85915 48.4569 6.7014 49.5164 6.69751ZM85.1923 47.3815C85.2001 46.3102 84.388 45.4564 83.3401 45.4331C82.2535 45.4098 81.4182 46.2637 81.4144 47.4048C81.4144 48.4256 82.2767 49.2406 83.371 49.2484C84.3493 49.2562 85.1846 48.4023 85.1923 47.3776V47.3815ZM13.8289 47.3077C13.8289 48.4023 14.6565 49.2523 15.7353 49.2562C16.7832 49.26 17.5837 48.4256 17.5876 47.3155C17.5876 46.2986 16.7716 45.4641 15.7585 45.4564C14.6603 45.4486 13.8328 46.2443 13.8289 47.3077ZM21.6671 57.3293C21.6671 58.4588 22.456 59.2234 23.6044 59.2156C24.6369 59.2079 25.4103 58.4044 25.4064 57.3409C25.4025 56.2658 24.6137 55.4546 23.5619 55.4507C22.4521 55.4507 21.6671 56.2231 21.6671 57.3254V57.3293ZM75.5174 55.443C74.4269 55.4352 73.5801 56.2736 73.5801 57.3565C73.5801 58.3734 74.3921 59.204 75.4052 59.2273C76.4493 59.2506 77.3309 58.3928 77.3387 57.3526C77.3464 56.2736 76.5614 55.4546 75.5174 55.4469V55.443ZM23.5155 39.188C24.633 39.188 25.4219 38.4428 25.4219 37.3832C25.4219 36.2887 24.6137 35.4814 23.5271 35.4891C22.4521 35.4969 21.671 36.2499 21.6633 37.2939C21.6555 38.4389 22.3864 39.188 23.5194 39.1919L23.5155 39.188ZM41.3882 12.6088C41.3882 11.588 40.5414 10.738 39.5515 10.7574C38.461 10.7768 37.6412 11.5919 37.6412 12.6553C37.6412 13.6994 38.5151 14.5533 39.5669 14.5378C40.5839 14.5223 41.3921 13.6684 41.3882 12.6088ZM75.5406 39.2036C76.6078 39.1997 77.358 38.4351 77.3464 37.3677C77.3309 36.2421 76.5576 35.4581 75.471 35.4697C74.3921 35.4814 73.6033 36.3081 73.6187 37.4026C73.6342 38.4506 74.4424 39.2074 75.5406 39.2036ZM61.322 12.7174C61.3491 11.6967 60.5139 10.8272 59.4853 10.8039C58.4567 10.7807 57.6601 11.5298 57.6253 12.5583C57.5866 13.6334 58.3909 14.4951 59.4543 14.5184C60.4868 14.5417 61.2911 13.7654 61.3182 12.7174H61.322Z" fill="url(#paint3_linear_1782_4719)"/>
<defs>
<linearGradient id="paint0_linear_1782_4719" x1="49.5" y1="42.3121" x2="49.5" y2="53.7821" gradientUnits="userSpaceOnUse">
<stop stop-color="#6407FD"/>
<stop offset="1" stop-color="#4FA7B6"/>
</linearGradient>
<linearGradient id="paint1_linear_1782_4719" x1="49.4875" y1="44.215" x2="49.4875" y2="51.8711" gradientUnits="userSpaceOnUse">
<stop stop-color="#6407FD"/>
<stop offset="1" stop-color="#4FA7B6"/>
</linearGradient>
<linearGradient id="paint2_linear_1782_4719" x1="49.4916" y1="46.3497" x2="49.4916" y2="49.7397" gradientUnits="userSpaceOnUse">
<stop stop-color="#6407FD"/>
<stop offset="1" stop-color="#4FA7B6"/>
</linearGradient>
<linearGradient id="paint3_linear_1782_4719" x1="49.4986" y1="0" x2="49.4986" y2="89.9945" gradientUnits="userSpaceOnUse">
<stop stop-color="#6407FD"/>
<stop offset="1" stop-color="#4FA7B6"/>
</linearGradient>
</defs>
</svg>
