<svg width="360" height="131" viewBox="0 0 360 131" fill="none" xmlns="http://www.w3.org/2000/svg">
<path d="M354.839 42H277C274.239 42 272 44.2386 272 47V125.134C272 127.895 274.239 130.134 277 130.134H354.839C357.6 130.134 359.839 127.895 359.839 125.134V47C359.839 44.2386 357.6 42 354.839 42Z" fill="#24B0B3"/>
<path d="M302.74 98.3714C299.618 94.8926 297.969 90.812 297.96 86.1322C297.951 81.4354 299.546 77.3106 302.719 73.839C305.627 70.658 309.241 68.7254 313.511 68.1398C319.164 67.3643 324.123 68.9807 328.359 72.6945C328.694 72.3646 329.001 72.0618 329.308 71.7597C325.27 67.7918 318.31 65.1989 311.184 67.1751C303.486 69.3102 298.622 74.396 296.956 82.2131C295.581 88.671 297.393 94.3987 301.748 99.3718C302.107 99.0095 302.412 98.7019 302.74 98.3714ZM323.516 79.7141C326.879 83.7603 326.407 89.2442 323.274 92.6488C321.713 94.3448 319.785 95.385 317.506 95.7139C314.571 96.1376 311.963 95.3344 309.728 93.504C307.416 95.8163 305.129 98.1045 302.88 100.353C303.492 100.966 304.132 101.607 304.786 102.262C304.858 102.193 304.965 102.097 305.066 101.996C306.032 101.03 306.997 100.063 307.964 99.0989C308.349 98.7154 308.57 98.7021 309.054 98.9122C309.996 99.3216 310.945 99.7181 311.902 100.093C312.448 100.306 312.58 100.451 312.581 101.052C312.582 102.403 312.581 103.754 312.581 105.105V105.56H319.559C319.559 104.016 319.557 102.506 319.559 100.996C319.56 100.462 319.718 100.292 320.207 100.101C321.164 99.728 322.116 99.3373 323.058 98.9263C323.572 98.7015 323.785 98.7071 324.184 99.1048C325.151 100.069 326.116 101.036 327.083 102.001C327.19 102.109 327.305 102.21 327.359 102.26C329.019 100.604 330.64 98.9862 332.278 97.3521C332.208 97.2777 332.113 97.1711 332.012 97.07C331.037 96.0933 330.065 95.113 329.082 94.144C328.754 93.8204 328.734 93.4966 328.915 93.0826C329.34 92.1157 329.738 91.1359 330.124 90.1522C330.281 89.7504 330.522 89.5422 330.966 89.5454C332.346 89.5552 333.727 89.5489 335.107 89.5489H335.574V82.5731C334.049 82.5731 332.554 82.574 331.059 82.5725C330.463 82.5719 330.313 82.4325 330.103 81.8893C329.743 80.9576 329.365 80.032 328.961 79.1188C328.707 78.5447 328.707 78.3595 329.143 77.9225C330.108 76.9557 331.074 75.9905 332.039 75.0239C332.138 74.9251 332.231 74.8214 332.282 74.767C331.612 74.0983 330.978 73.4652 330.371 72.8596C328.112 75.119 325.824 77.407 323.516 79.7141ZM327.461 73.8094C320.72 67.5809 310.029 67.7657 303.645 74.8441C297.294 81.8851 298.454 91.8895 303.831 97.4182C303.926 97.2872 304.004 97.1417 304.116 97.0294C305.716 95.4229 307.32 93.8208 308.923 92.2177C309.51 91.631 309.759 91.6346 310.385 92.1963C312.279 93.8944 314.514 94.6419 317.02 94.3085C320.337 93.8675 322.703 92.0455 323.853 88.8973C325.006 85.7407 324.377 82.8383 322.141 80.3091C321.67 79.7769 321.665 79.4786 322.172 78.9718C323.784 77.3577 325.397 75.7437 327.015 74.1345C327.137 74.0127 327.297 73.9276 327.461 73.8094ZM320.953 101.388C320.953 102.903 320.954 104.442 320.953 105.981C320.953 106.784 320.751 106.988 319.953 106.988C317.352 106.989 314.75 106.989 312.149 106.988C311.404 106.988 311.187 106.772 311.186 106.032C311.185 104.478 311.186 102.924 311.186 101.395C310.399 101.057 309.646 100.721 308.879 100.422C308.774 100.381 308.562 100.489 308.46 100.589C307.444 101.587 306.44 102.598 305.432 103.604C304.862 104.174 304.574 104.183 304.015 103.601C302.468 101.986 300.784 100.477 299.414 98.7229C291.527 88.6252 294.556 73.8939 305.737 67.6518C313.873 63.109 324.058 64.5029 330.67 71.0662C331.67 72.0593 332.665 73.0577 333.661 74.0554C334.169 74.5638 334.169 74.8709 333.66 75.3818C332.635 76.4115 331.61 77.4419 330.574 78.461C330.389 78.6431 330.364 78.7823 330.476 79.0218C330.799 79.718 331.086 80.4309 331.405 81.1778C332.904 81.1778 334.443 81.1776 335.982 81.178C336.807 81.1782 336.999 81.3737 337 82.2104C337 84.797 337 87.3838 336.999 89.9705C336.999 90.7347 336.787 90.9433 336.01 90.9437C334.571 90.9445 333.132 90.9514 331.694 90.9374C331.428 90.9348 331.325 91.0284 331.236 91.2675C331.01 91.8788 330.769 92.4873 330.487 93.0744C330.353 93.3538 330.406 93.5029 330.611 93.7037C331.628 94.7008 332.631 95.7124 333.636 96.7213C334.168 97.255 334.172 97.5588 333.651 98.0795C331.792 99.94 329.931 101.8 328.069 103.658C327.566 104.16 327.258 104.155 326.744 103.642C325.745 102.647 324.738 101.66 323.76 100.646C323.498 100.374 323.304 100.373 322.983 100.527C322.332 100.84 321.653 101.096 320.953 101.388Z" fill="white"/>
<path d="M317.46 86.0533C317.453 85.2907 316.831 84.671 316.069 84.6685C315.293 84.6661 314.658 85.3136 314.673 86.091C314.689 86.85 315.323 87.4622 316.086 87.4546C316.84 87.447 317.466 86.8084 317.46 86.0533ZM316.764 79.3953C316.764 80.6009 316.77 81.8066 316.76 83.0121C316.757 83.2611 316.818 83.3829 317.075 83.4827C318.278 83.9504 318.996 85.1565 318.841 86.3837C318.678 87.6787 317.675 88.678 316.381 88.8363C315.154 88.9864 313.955 88.2688 313.485 87.0612C313.383 86.7979 313.249 86.7539 313.008 86.7552C311.512 86.7626 310.016 86.7619 308.52 86.7571C307.981 86.7554 307.641 86.4192 307.702 85.9709C307.755 85.5863 308.044 85.3664 308.526 85.3653C310.007 85.3615 311.489 85.3563 312.971 85.3704C313.257 85.3731 313.398 85.3045 313.506 85.0165C313.774 84.3055 314.281 83.7815 314.994 83.5176C315.325 83.3948 315.377 83.2214 315.376 82.9104C315.364 80.5431 315.364 78.1754 315.378 75.808C315.379 75.5777 315.434 75.2762 315.585 75.1379C315.744 74.9913 316.061 74.9194 316.283 74.9598C316.637 75.0245 316.766 75.3351 316.765 75.6915C316.762 76.9262 316.764 78.1609 316.764 79.3953Z" fill="white"/>
<path d="M321.692 86.2172C321.67 84.592 321.151 83.3035 320.121 82.2275C319.881 81.9771 319.734 81.7128 319.855 81.3688C320.036 80.8603 320.645 80.7703 321.062 81.1978C322.086 82.2477 322.733 83.5009 322.95 84.9483C323.61 89.3484 320.255 93.1506 315.817 93.0273C314.064 92.9786 312.544 92.3166 311.269 91.1071C310.868 90.7263 310.825 90.3232 311.133 90.0062C311.431 89.6994 311.835 89.742 312.242 90.1115C313.871 91.5939 315.757 92.067 317.851 91.3837C319.948 90.6994 321.18 89.1932 321.61 87.0356C321.672 86.7244 321.674 86.4012 321.692 86.2172ZM315.379 71.4016C315.379 71.1691 315.366 70.9359 315.382 70.7044C315.409 70.2924 315.702 70.0141 316.083 70.0197C316.447 70.0248 316.745 70.291 316.763 70.6798C316.784 71.1727 316.786 71.6683 316.761 72.1609C316.741 72.544 316.426 72.8084 316.064 72.8031C315.701 72.7978 315.423 72.5289 315.381 72.1424C315.377 72.1136 315.377 72.0844 315.377 72.0552C315.377 71.8375 315.377 71.6195 315.377 71.4016H315.379ZM301.459 85.3669C301.691 85.3669 301.925 85.3516 302.156 85.3703C302.544 85.4014 302.81 85.6888 302.815 86.0526C302.819 86.4143 302.554 86.7282 302.171 86.7475C301.678 86.7722 301.183 86.7709 300.69 86.7488C300.302 86.7314 300.036 86.4313 300.031 86.0679C300.027 85.6869 300.305 85.3944 300.718 85.3682C300.964 85.3526 301.212 85.3654 301.459 85.3654V85.3669ZM304.112 79.842C303.868 79.76 303.737 79.7358 303.626 79.6746C303.233 79.458 302.84 79.2394 302.46 79.0007C302.091 78.769 301.992 78.3591 302.198 78.0257C302.399 77.7006 302.774 77.5994 303.148 77.799C303.557 78.017 303.958 78.2517 304.352 78.4956C304.646 78.6781 304.773 78.9836 304.632 79.2837C304.525 79.5131 304.274 79.6754 304.112 79.842ZM309.93 73.9703C309.701 74.2304 309.561 74.5324 309.354 74.5881C309.124 74.6499 308.726 74.5732 308.591 74.4048C308.252 73.9804 307.999 73.4812 307.753 72.9907C307.607 72.698 307.716 72.3712 307.994 72.2385C308.21 72.1355 308.642 72.0852 308.74 72.2053C309.169 72.7331 309.512 73.3313 309.93 73.9703ZM323.184 74.6581C322.574 74.6714 322.206 74.1922 322.415 73.7434C322.639 73.26 322.913 72.7941 323.211 72.3519C323.426 72.0327 323.774 71.9973 324.1 72.1883C324.41 72.3697 324.548 72.6759 324.387 73.0067C324.152 73.4863 323.88 73.9508 323.584 74.3951C323.486 74.5425 323.265 74.6077 323.184 74.6581ZM304.684 93.1565C304.616 93.2532 304.52 93.4965 304.341 93.6222C303.953 93.8947 303.53 94.1216 303.107 94.3395C302.744 94.5262 302.353 94.3954 302.175 94.0657C302.006 93.7543 302.092 93.3556 302.413 93.1523C302.827 92.89 303.251 92.6386 303.69 92.4211C304.159 92.1884 304.667 92.5084 304.684 93.1565ZM327.546 98.3109C327.774 98.0779 328.084 97.7593 328.389 97.4458C328.716 97.7658 329.033 98.0752 329.364 98.3992C329.042 98.707 328.731 99.0044 328.402 99.3187C328.125 98.9928 327.833 98.6484 327.546 98.3109ZM332.843 85.3835H334.182V86.7301H332.843V85.3835ZM315.397 102.835H316.744V104.173H315.397V102.835Z" fill="white"/>
<path d="M82.84 0H5C2.23858 0 0 2.23858 0 5V124.769C0 127.53 2.23858 129.769 5 129.769H82.84C85.6014 129.769 87.84 127.53 87.84 124.769V5C87.84 2.23858 85.6014 0 82.84 0Z" fill="#6309FC"/>
<path d="M57.357 43.435C56.0278 42.11 54.6758 40.7626 53.3575 39.4487V43.435H57.357ZM17.8663 86.442V87.8091C17.8668 89.4978 18.5214 90.1498 20.2183 90.1498H67.785C67.9672 90.1498 68.1498 90.1557 68.3315 90.1452C69.2204 90.0934 69.9743 89.4988 70.082 88.6234C70.1696 87.9127 70.0999 87.1828 70.0999 86.4509H51.5061C51.2327 87.6628 50.6126 88.2755 49.5777 88.2793C45.8597 88.2933 42.142 88.2926 38.424 88.2796C37.4411 88.2762 36.7539 87.6562 36.5596 86.6845C36.543 86.6021 36.5147 86.5219 36.4922 86.442H17.8663ZM20.6788 80.8196H21.4485C30.6526 80.8196 39.8567 80.8193 49.0607 80.8201C49.2793 80.8201 49.4998 80.8132 49.7158 80.8392C50.1832 80.8954 50.5371 81.2668 50.5286 81.719C50.52 82.1846 50.2943 82.5272 49.8207 82.6319C49.5757 82.6862 49.3153 82.686 49.0618 82.686C39.8396 82.6885 30.6171 82.688 21.3949 82.688H20.7161V84.5552H21.3961C26.3719 84.5552 31.3475 84.5537 36.3232 84.5565C37.4958 84.557 38.1016 85.0374 38.389 86.1706C38.4069 86.2408 38.4276 86.31 38.4526 86.3991H49.5374C49.9905 84.8733 50.4173 84.5552 51.9981 84.5552H67.2915V82.688H66.6181C62.3714 82.688 58.1249 82.6883 53.8783 82.6878C53.696 82.6878 53.5124 82.6977 53.3319 82.6796C52.7568 82.6219 52.4037 82.2474 52.4147 81.7218C52.4259 81.1964 52.7879 80.8569 53.3797 80.8234C53.5433 80.8142 53.7077 80.8196 53.8719 80.8196H67.3244V80.0678C67.3244 70.8256 67.3244 61.5838 67.3239 52.3416C67.3237 52.1047 67.3249 51.8671 67.3089 51.6312C67.2277 50.4326 66.3035 49.2649 65.1226 49.1669C63.716 49.0502 62.292 49.1396 60.808 49.1396V49.773C60.808 53.7467 60.809 57.7208 60.8054 61.6946C60.8052 61.9297 60.8034 62.1742 60.7426 62.3981C60.6163 62.8643 60.2755 63.0846 59.8004 63.0542C59.3483 63.0251 59.0539 62.7714 58.973 62.3215C58.9316 62.0908 58.9388 61.8498 58.9388 61.6134C58.937 56.4362 58.9373 51.2592 58.9373 46.0823V45.3325H58.274C56.6882 45.3325 55.1026 45.3384 53.517 45.3305C52.1946 45.3241 51.465 44.5843 51.4599 43.2501C51.4541 41.6643 51.4587 40.0782 51.4584 38.4924V37.8707H49.8641C43.3393 37.8707 36.8144 37.8641 30.2898 37.8889C29.9362 37.8904 29.5043 38.0752 29.2567 38.3226C29.0703 38.5087 29.0731 38.9322 29.0729 39.2501C29.0637 46.7787 29.0665 54.3071 29.0644 61.8357C29.0642 62.6401 28.7443 63.0557 28.1446 63.0606C27.5368 63.0652 27.2052 62.6447 27.1955 61.8554C27.1942 61.7461 27.1952 61.6366 27.1952 61.5273V49.1123C25.7807 49.1123 24.4295 49.0339 23.0953 49.1495C22.534 49.1983 21.9417 49.5759 21.4819 49.9494C20.8039 50.5005 20.6722 51.3228 20.6729 52.18C20.6821 61.5133 20.6788 70.8463 20.6788 80.1796V80.8196ZM72 85.1219V88.8412C71.7414 89.4105 71.5461 90.0209 71.2096 90.5396C70.6615 91.3851 69.7688 91.7576 68.8283 92.0134H19.1749C19.0909 91.9804 19.0095 91.9381 18.9229 91.9161C17.1214 91.4548 16.0173 90.0456 16.0042 88.1797C15.9986 87.3411 15.9984 86.5025 16.0048 85.6639C16.0104 84.894 16.3348 84.5669 17.0997 84.557C17.6552 84.5498 18.2107 84.5557 18.8104 84.5557V83.7612C18.8104 73.3328 18.8101 62.9046 18.8111 52.4764C18.8111 52.1849 18.8124 51.8928 18.8275 51.6018C18.9441 49.3502 20.6885 47.4583 22.9266 47.2673C24.1397 47.1637 25.3664 47.2188 26.5869 47.2002C26.7789 47.1974 26.9708 47.1826 27.1952 47.1718V46.4575C27.1952 43.9782 27.1876 41.4986 27.198 39.0193C27.2059 37.1695 28.3718 36.0087 30.2058 36.0082C37.4789 36.0061 44.7518 36.0107 52.0249 36C52.5561 35.9992 52.9579 36.1611 53.3325 36.5394C55.616 38.8447 57.9074 41.1425 60.2175 43.4209C60.6428 43.8406 60.8351 44.2861 60.8144 44.8732C60.7878 45.6312 60.808 46.3907 60.808 47.2012C62.0091 47.2012 63.1352 47.203 64.2613 47.2007C65.1882 47.1989 66.0802 47.3549 66.879 47.8483C68.4949 48.8465 69.2018 50.3167 69.1993 52.2051C69.1855 62.7425 69.1926 73.2802 69.1926 83.8177V84.5552C69.7272 84.5552 70.1821 84.5851 70.6314 84.5478C71.2004 84.5006 71.6595 84.6537 72 85.1219Z" fill="white"/>
<path d="M41.1665 52.8677H32.8518V57.4289H41.1665V52.8677ZM36.9836 59.3343C35.3804 59.3343 33.7769 59.3366 32.174 59.3336C31.242 59.3318 30.9461 59.0502 30.9435 58.1424C30.9377 56.1382 30.9377 54.1337 30.9438 52.1294C30.9466 51.254 31.2527 50.9492 32.1337 50.9479C35.3763 50.9433 38.6192 50.9436 41.8621 50.9479C42.7697 50.949 43.0635 51.2497 43.0658 52.1708C43.0704 54.1569 43.0709 56.143 43.0655 58.1291C43.063 59.0431 42.7676 59.3315 41.8476 59.3333C40.2262 59.3369 38.6049 59.3343 36.9836 59.3343ZM55.1584 52.8557H46.8586V57.4399H55.1584V52.8557ZM50.9965 59.3343C49.3752 59.3343 47.7536 59.3374 46.1323 59.3331C45.2467 59.3308 44.9457 59.0369 44.9429 58.1562C44.9368 56.1519 44.937 54.1474 44.9427 52.1432C44.9452 51.2581 45.2462 50.9497 46.119 50.9482C49.38 50.9433 52.6411 50.9431 55.9021 50.9484C56.7481 50.95 57.0606 51.2607 57.0636 52.1023C57.0713 54.1247 57.0711 56.1473 57.0639 58.17C57.0608 59.0415 56.7547 59.331 55.8607 59.3333C54.2392 59.3372 52.6178 59.3343 50.9965 59.3343ZM61.7257 72.3938C61.7175 71.8827 61.2754 71.4581 60.7719 71.4773C60.2884 71.4959 59.8774 71.9169 59.8713 72.3999C59.8644 72.9143 60.2831 73.3304 60.8051 73.3286C61.3338 73.3268 61.7341 72.9202 61.7257 72.3938ZM59.8664 76.6726C59.8664 76.5631 59.8565 76.4528 59.868 76.3448C59.9502 75.5774 59.7942 75.0457 59.0536 74.5203C57.4328 73.3702 57.7149 70.9187 59.4787 69.9685C59.7807 69.8059 59.9139 69.6431 59.8721 69.3056C59.8429 69.0725 59.9073 68.8233 59.8547 68.5989C59.8029 68.3773 59.7094 68.1108 59.5432 67.9796C58.6148 67.2469 57.6661 66.5393 56.7088 65.8447C56.3026 65.5498 56.1165 65.1952 56.1334 64.689C56.1592 63.9068 56.1367 63.123 56.1413 62.3401C56.1454 61.6454 56.4923 61.2237 57.0557 61.2145C57.6368 61.2051 57.9929 61.6406 58.0039 62.3661C58.0146 63.0743 57.8155 63.892 58.1045 64.46C58.3942 65.0293 59.1721 65.3514 59.7383 65.779C60.2466 66.163 60.7926 66.5058 61.2531 66.9401C61.4898 67.1632 61.5998 67.5372 61.7193 67.8609C61.7785 68.021 61.7441 68.2224 61.7277 68.4031C61.656 69.1986 61.7818 69.7651 62.5712 70.3178C64.1476 71.4219 63.8867 73.8731 62.1964 74.8078C61.8097 75.0217 61.7073 75.2497 61.7221 75.6525C61.7499 76.3979 61.7369 77.1454 61.7275 77.8919C61.7196 78.5388 61.3504 78.9416 60.7934 78.9365C60.2435 78.9314 59.8856 78.5209 59.8667 77.8743C59.8662 77.8561 59.8664 77.838 59.8664 77.8196V76.6726ZM28.1185 73.3276C28.6495 73.337 29.0529 72.9434 29.0549 72.4142C29.0567 71.8939 28.6383 71.4709 28.1282 71.4775C27.6422 71.4837 27.2294 71.8888 27.2107 72.3774C27.1911 72.8921 27.5985 73.3187 28.1185 73.3276ZM32.8112 63.5718C33.177 64.9859 32.4732 65.8449 31.3372 66.5298C30.747 66.8852 30.2423 67.3805 29.6617 67.7544C29.1943 68.0554 29.0358 68.419 29.0501 68.9691C29.0631 69.4761 29.142 69.7901 29.6416 70.0893C31.4367 71.1643 31.3438 73.8134 29.4976 74.8279C29.1476 75.0201 29.0511 75.2259 29.0616 75.5905C29.0833 76.3556 29.0787 77.1219 29.0633 77.8875C29.0498 78.5497 28.6878 78.9388 28.1295 78.9332C27.5781 78.9276 27.2148 78.5293 27.2023 77.8707C27.1867 77.0688 27.186 76.2662 27.2038 75.4643C27.2102 75.1723 27.1196 75.0158 26.8523 74.8731C25.87 74.3493 25.3364 73.5048 25.3438 72.3938C25.3512 71.3088 25.8654 70.4669 26.8334 69.9586C27.1273 69.8041 27.2365 69.6311 27.1982 69.327C27.1936 69.291 27.1972 69.254 27.1977 69.2175C27.2179 66.9163 26.9726 67.4938 28.733 66.1352C29.2666 65.7234 29.7871 65.2874 30.3566 64.931C30.8381 64.6297 30.9964 64.2558 30.9504 63.7117C30.9091 63.2231 30.9305 62.7276 30.9466 62.2359C30.967 61.6158 31.3275 61.2245 31.8564 61.2158C32.3877 61.2074 32.7607 61.5944 32.8084 62.2045C32.8112 62.2408 32.8112 62.2773 32.8112 62.3138C32.8115 62.7332 32.8112 63.1524 32.8112 63.5718Z" fill="white"/>
<path d="M55.1827 69.6167C55.1855 69.0839 54.7898 68.6895 54.2568 68.6941C53.759 68.6982 53.3546 69.087 53.3357 69.5794C53.3166 70.0795 53.7442 70.5326 54.2461 70.5449C54.7531 70.5574 55.1799 70.1344 55.1827 69.6167ZM53.325 75.2322C53.3242 74.3944 53.3087 73.5557 53.3321 72.7184C53.3413 72.385 53.2405 72.2117 52.9367 72.0473C51.9773 71.5283 51.4663 70.6848 51.4719 69.5991C51.4775 68.5154 51.9972 67.6903 52.9505 67.1542C53.4072 66.8974 53.4853 66.4447 53.1177 66.058C52.7034 65.6225 52.2441 65.227 51.8599 64.7678C51.6636 64.5334 51.5084 64.2064 51.476 63.9062C51.416 63.3479 51.4438 62.7781 51.464 62.2139C51.4854 61.6081 51.8734 61.2132 52.4026 61.2152C52.9354 61.2172 53.3834 61.6234 53.3035 62.22C53.1585 63.3019 53.5741 64.0706 54.3995 64.693C55.0129 65.1553 55.3198 65.7537 55.1939 66.5387C55.1488 66.82 55.2473 66.9913 55.5263 67.1353C56.5145 67.6461 57.0481 68.4773 57.0517 69.5973C57.0552 70.7154 56.5314 71.5563 55.5478 72.0728C55.2481 72.2303 55.1865 72.4131 55.1881 72.7113C55.1973 74.4237 55.1896 76.1364 55.1937 77.8489C55.195 78.3538 55.0357 78.7498 54.511 78.8963C53.8815 79.0725 53.3485 78.6387 53.3309 77.9104C53.3094 77.0182 53.3258 76.1249 53.325 75.2322ZM34.6393 70.5452C35.143 70.562 35.5811 70.1367 35.5877 69.6243C35.5943 69.1153 35.2262 68.7211 34.7205 68.6959C34.1941 68.6696 33.7596 69.0553 33.7351 69.5707C33.7113 70.0696 34.1369 70.528 34.6393 70.5452ZM35.5931 72.276C35.5931 73.9665 35.5931 75.6593 35.5928 77.3521C35.5928 77.5525 35.5982 77.7532 35.59 77.953C35.5665 78.5374 35.2252 78.9114 34.7047 78.9323C34.1622 78.954 33.7481 78.5734 33.7364 77.9753C33.7154 76.9013 33.7292 75.8265 33.7285 74.752C33.7282 74.315 33.6976 73.8754 33.7353 73.4414C33.7984 72.7225 33.6526 72.2471 32.9629 71.7639C31.3055 70.6028 31.5557 68.148 33.3368 67.1728C33.6052 67.026 33.7844 66.893 33.7305 66.5601C33.6041 65.782 33.8936 65.1742 34.5132 64.7085C34.5418 64.6868 34.5622 64.6537 34.5911 64.6322C35.3814 64.0512 35.7508 63.3093 35.6168 62.2979C35.5808 62.026 35.7557 61.6221 35.9709 61.4503C36.1825 61.2811 36.6247 61.2068 36.8621 61.3163C37.1204 61.435 37.3877 61.7965 37.4247 62.0816C37.508 62.7262 37.4829 63.3915 37.4365 64.0435C37.4189 64.2883 37.2626 64.5584 37.0939 64.7504C36.7097 65.1869 36.2757 65.5793 35.8672 65.9947C35.4103 66.459 35.4756 66.8524 36.0362 67.1835C36.9537 67.7258 37.4513 68.5281 37.4526 69.6044C37.4536 70.6802 36.953 71.4785 36.0444 72.0319C35.9055 72.1164 35.7582 72.1872 35.5931 72.276ZM40.2651 77.0618C40.794 77.0621 41.1894 76.6608 41.1828 76.1298C41.1767 75.6292 40.7897 75.2319 40.2931 75.2171C39.7833 75.2021 39.3453 75.6192 39.3361 76.1293C39.3269 76.6409 39.7456 77.0613 40.2651 77.0618ZM41.1935 68.161C41.1935 69.7821 41.2022 71.4032 41.1864 73.024C41.1833 73.3523 41.2653 73.5338 41.5775 73.6972C42.7378 74.3047 43.2956 75.5978 42.9828 76.8405C42.6719 78.0761 41.5303 78.9642 40.2587 78.9596C39.0285 78.955 37.9057 78.106 37.5749 76.9301C37.2185 75.6634 37.7449 74.3599 38.9228 73.7212C39.2506 73.5435 39.3333 73.3456 39.332 73.0005C39.3202 69.8679 39.3251 66.7353 39.3253 63.6024C39.3253 63.4385 39.3174 63.2738 39.3307 63.111C39.3792 62.509 39.7685 62.1294 40.3054 62.1513C40.8241 62.1728 41.1818 62.5417 41.1866 63.1342C41.1999 64.8099 41.1912 66.4853 41.1912 68.161H41.1935ZM48.6415 75.2159C48.1327 75.2302 47.7118 75.6777 47.734 76.1806C47.7567 76.696 48.1922 77.0861 48.7158 77.0601C49.2208 77.0348 49.5914 76.6399 49.5861 76.1334C49.5807 75.6149 49.1551 75.2016 48.6415 75.2159ZM49.5922 68.1406C49.5922 69.7811 49.5996 71.4218 49.5856 73.062C49.583 73.3719 49.6726 73.5351 49.9588 73.6867C51.1339 74.3091 51.6975 75.5909 51.38 76.8214C51.0545 78.0825 49.9422 78.9497 48.6619 78.9407C47.4126 78.9321 46.3077 78.0945 45.9832 76.9102C45.633 75.6327 46.1642 74.3418 47.3462 73.7066C47.652 73.5422 47.7365 73.3635 47.7352 73.0329C47.7225 69.8615 47.7273 66.6901 47.7281 63.5184C47.7283 63.3361 47.7166 63.1513 47.7432 62.9726C47.8192 62.4592 48.2435 62.1161 48.7355 62.1518C49.2108 62.1866 49.5736 62.5427 49.5827 63.0553C49.6019 64.1487 49.5912 65.2426 49.5922 66.3362C49.5927 66.9377 49.5922 67.5392 49.5922 68.1406ZM32.8148 44.4291C32.8242 45.4692 33.6728 46.3004 34.7024 46.2779C35.7033 46.2562 36.5325 45.4155 36.5392 44.4158C36.546 43.3916 35.6985 42.5507 34.662 42.553C33.6136 42.5553 32.8051 43.3761 32.8148 44.4291ZM30.9453 44.4187C30.9405 42.3516 32.5797 40.6973 34.6439 40.6864C36.7281 40.6751 38.417 42.3531 38.4058 44.424C38.3951 46.466 36.7064 48.1456 34.6664 48.1435C32.6169 48.1415 30.9502 46.4734 30.9453 44.4187ZM43.0638 49.0712C42.1909 49.071 41.3181 49.0792 40.4455 49.0684C39.7527 49.06 39.333 48.6962 39.3361 48.1369C39.3394 47.5781 39.7619 47.2082 40.4517 47.2046C42.1971 47.1954 43.9425 47.1951 45.6878 47.2048C46.3792 47.2084 46.7953 47.5791 46.7937 48.143C46.7925 48.7064 46.3797 49.0608 45.6817 49.0689C44.8092 49.0789 43.9363 49.0712 43.0638 49.0712ZM47.2208 45.3272C46.7657 45.3272 46.3097 45.3441 45.8556 45.3229C45.31 45.2976 44.9605 44.9353 44.9503 44.4271C44.9404 43.9211 45.274 43.5052 45.8132 43.4851C46.7769 43.4491 47.7434 43.4488 48.7071 43.4835C49.268 43.5037 49.6159 43.9428 49.5853 44.4672C49.5557 44.9706 49.2031 45.3045 48.641 45.3254C48.1682 45.3428 47.6944 45.329 47.2208 45.329V45.3272ZM51.0203 49.0641C50.5472 49.0641 50.0729 49.084 49.6011 49.059C49.0423 49.0296 48.6995 48.6791 48.6847 48.1742C48.6688 47.6386 49.0073 47.2373 49.5886 47.2176C50.5334 47.186 51.4813 47.1854 52.4261 47.2204C53.0026 47.2416 53.3383 47.6534 53.3153 48.189C53.2938 48.6929 52.95 49.0169 52.3848 49.0651C52.3488 49.0682 52.3123 49.07 52.2758 49.0702C51.8573 49.0705 51.4387 49.0705 51.0203 49.0705V49.0641ZM41.2208 45.3224C40.8754 45.3219 40.5283 45.343 40.1846 45.3167C39.7113 45.2808 39.3723 44.9221 39.3386 44.4684C39.3052 44.0224 39.596 43.5586 40.0636 43.5223C40.8206 43.4634 41.59 43.4557 42.3449 43.5267C42.836 43.5729 43.0709 43.9755 43.0459 44.4794C43.0227 44.9458 42.6926 45.2813 42.2027 45.318C41.8772 45.3423 41.5484 45.3226 41.2208 45.3224Z" fill="white"/>
<path d="M172.839 51H95C92.2386 51 90 52.9246 90 55.2987V125.773C90 128.147 92.2386 130.072 95 130.072H172.839C175.6 130.072 177.839 128.147 177.839 125.773V55.2987C177.839 52.9246 175.6 51 172.839 51Z" fill="#009AD6"/>
<path d="M137.146 76.5985H133.264V78.1979H137.146V76.5985ZM135.188 74.9211C136.122 74.9211 137.056 74.9251 137.99 74.9198C138.745 74.9156 139.26 74.4603 139.269 73.8011C139.278 73.1427 138.76 72.6502 138.016 72.647C136.134 72.6384 134.253 72.6377 132.371 72.6474C131.627 72.6514 131.129 73.1431 131.142 73.8158C131.155 74.4727 131.645 74.9141 132.386 74.9194C133.32 74.926 134.254 74.9209 135.188 74.9211ZM151.643 95.7288C151.508 96.54 151.403 97.3578 151.233 98.1614C150.836 100.034 150.102 101.773 149.075 103.388C148.771 103.866 148.314 104.006 147.903 103.755C147.483 103.499 147.398 103.012 147.708 102.516C148.867 100.663 149.622 98.6634 149.87 96.4886C150.411 91.7448 149.076 87.5953 145.737 84.1795C138.55 76.8254 126.113 78.996 121.791 88.3222C117.753 97.0346 122.887 107.178 132.315 109.059C136.114 109.818 139.693 109.171 143.012 107.15C143.659 106.756 144.106 106.777 144.4 107.228C144.696 107.682 144.51 108.138 143.865 108.539C135.298 113.876 123.856 110.182 120.041 100.838C119.896 100.481 119.721 100.388 119.36 100.392C117.72 100.411 116.08 100.401 114.439 100.4C114.29 100.4 114.14 100.402 113.993 100.385C113.559 100.335 113.264 100.019 113.254 99.6068C113.244 99.1823 113.547 98.8428 113.996 98.7876C114.13 98.7711 114.266 98.7743 114.402 98.7743C115.879 98.7735 117.357 98.7737 118.835 98.7737H119.279C119.109 97.7162 118.947 96.7071 118.777 95.6475H117.472C116.726 95.6473 115.98 95.6555 115.235 95.6437C114.741 95.6359 114.395 95.2896 114.393 94.8368C114.392 94.3848 114.738 94.0313 115.231 94.0256C116.261 94.0134 117.291 94.0212 118.321 94.0208C118.469 94.0206 118.616 94.0208 118.751 94.0208C118.885 92.9808 119.014 91.977 119.151 90.903H118.712C116.191 90.9028 113.669 90.9039 111.148 90.9007C110.96 90.9005 110.766 90.8937 110.584 90.8487C110.214 90.7572 109.974 90.3983 110.002 90.0226C110.031 89.6423 110.314 89.3385 110.699 89.2909C110.846 89.2725 110.996 89.2767 111.145 89.2767C113.856 89.2759 116.568 89.2713 119.279 89.2831C119.571 89.2842 119.691 89.1863 119.802 88.9199C120.183 87.9989 120.602 87.0937 121.019 86.1565C120.911 86.1508 120.784 86.1383 120.656 86.1381C119.273 86.1368 117.891 86.1391 116.508 86.1364C115.919 86.1353 115.543 85.8159 115.542 85.3287C115.541 84.8452 115.925 84.5131 116.507 84.512C118.269 84.5084 120.032 84.5048 121.794 84.5162C122.087 84.5181 122.28 84.4429 122.477 84.2035C124.797 81.3844 127.722 79.5098 131.275 78.6298C131.378 78.6042 131.478 78.5645 131.595 78.5265C131.601 78.3993 131.61 78.2789 131.61 78.1584C131.612 77.604 131.611 77.0496 131.611 76.4907C130.605 76.1675 129.906 75.5497 129.616 74.5454C129.115 72.8112 130.37 71.074 132.205 71.0309C134.196 70.9844 136.19 70.9962 138.183 71.0281C139.578 71.0501 140.631 72.0218 140.863 73.4053C141.071 74.6432 140.333 75.8936 139.092 76.369C138.87 76.454 138.779 76.5512 138.788 76.7971C138.807 77.3644 138.794 77.9328 138.794 78.4648C139.757 78.7986 140.717 79.052 141.61 79.4534C147.254 81.9901 150.54 86.3401 151.497 92.4518C151.549 92.7845 151.594 93.1182 151.643 93.4514V95.7288Z" fill="white"/>
<path d="M135.229 83.5842C129.187 83.567 124.256 88.4638 124.227 94.5113C124.197 100.587 129.125 105.552 135.196 105.563C141.232 105.574 146.171 100.663 146.198 94.6247C146.225 88.5359 141.323 83.6019 135.229 83.5842ZM135.231 81.957C142.213 81.9811 147.841 87.6295 147.825 94.5971C147.808 101.556 142.117 107.222 135.174 107.19C128.21 107.158 122.571 101.476 122.6 94.5189C122.629 87.5669 128.294 81.9328 135.231 81.957ZM111.621 99.5754C111.628 100.018 111.278 100.378 110.832 100.388C110.368 100.399 109.995 100.036 110 99.5779C110.005 99.14 110.369 98.7816 110.81 98.7812C111.251 98.7806 111.615 99.1372 111.621 99.5754ZM146.248 106.415C145.802 106.411 145.453 106.06 145.452 105.613C145.451 105.164 145.797 104.814 146.245 104.808C146.703 104.802 147.083 105.18 147.07 105.63C147.057 106.067 146.689 106.419 146.248 106.415Z" fill="white"/>
<path d="M135.228 93.6797C134.722 93.6727 134.32 94.0636 134.318 94.5641C134.316 95.059 134.727 95.4731 135.218 95.4699C135.693 95.4667 136.094 95.0729 136.107 94.595C136.122 94.094 135.731 93.6869 135.228 93.6797ZM135.225 97.0996C133.504 97.1105 132.27 95.4107 132.829 93.7705C132.92 93.5054 132.875 93.3608 132.686 93.1808C132.204 92.724 131.74 92.2478 131.273 91.7756C130.829 91.3261 130.787 90.8533 131.153 90.495C131.507 90.1491 131.996 90.2025 132.438 90.641C132.919 91.1184 133.402 91.5943 133.872 92.0819C134.021 92.2362 134.14 92.2873 134.36 92.2013C134.922 91.9824 135.506 91.9826 136.068 92.2022C136.289 92.2886 136.406 92.2315 136.555 92.0807C137.758 90.8681 138.967 89.6623 140.176 88.4562C140.281 88.3514 140.388 88.243 140.512 88.1642C140.837 87.9576 141.254 88.0166 141.516 88.2897C141.774 88.5583 141.815 88.9897 141.599 89.2999C141.515 89.421 141.405 89.5254 141.3 89.6308C140.122 90.8106 138.947 91.9925 137.761 93.1643C137.57 93.3528 137.501 93.4965 137.599 93.7857C138.15 95.4071 136.932 97.0886 135.225 97.0996ZM136.028 86.2658C136.028 86.4006 136.037 86.5361 136.027 86.67C135.993 87.0962 135.685 87.4053 135.276 87.4311C134.854 87.4577 134.474 87.1691 134.425 86.7351C134.389 86.4159 134.389 86.0864 134.423 85.767C134.471 85.3307 134.842 85.0467 135.27 85.0685C135.698 85.0904 136.002 85.4059 136.028 85.8616C136.036 85.9958 136.03 86.131 136.03 86.2658H136.028ZM143.537 95.3896C143.389 95.3896 143.239 95.4042 143.093 95.3869C142.631 95.3322 142.336 94.9827 142.356 94.532C142.376 94.1033 142.689 93.7959 143.145 93.7739C143.387 93.7623 143.63 93.7648 143.873 93.772C144.364 93.7868 144.714 94.1168 144.722 94.5641C144.73 95.007 144.385 95.3586 143.901 95.393C143.78 95.4017 143.659 95.3943 143.537 95.3943V95.3896ZM136.011 102.874C136.011 103.036 136.029 103.2 136.007 103.358C135.947 103.791 135.578 104.098 135.167 104.076C134.748 104.055 134.422 103.726 134.399 103.286C134.385 103.031 134.387 102.774 134.397 102.518C134.416 102.052 134.744 101.715 135.179 101.702C135.613 101.688 135.968 102.01 136.014 102.47C136.027 102.604 136.016 102.74 136.016 102.874H136.011ZM126.912 93.7431C127.074 93.7509 127.238 93.7462 127.398 93.769C127.786 93.8242 128.053 94.1291 128.069 94.5176C128.086 94.9134 127.861 95.2662 127.476 95.3245C127.12 95.3786 126.746 95.3818 126.386 95.344C125.964 95.2994 125.682 94.9208 125.704 94.5183C125.727 94.1088 126.032 93.7991 126.465 93.7604C126.612 93.7471 126.762 93.7583 126.911 93.7583C126.911 93.7532 126.912 93.7481 126.912 93.7431Z" fill="white"/>
<path d="M263.839 22H186C183.239 22 181 25.6562 181 30.1664V121.804C181 126.314 183.239 129.97 186 129.97H263.839C266.6 129.97 268.839 126.314 268.839 121.804V30.1664C268.839 25.6562 266.6 22 263.839 22Z" fill="#312458"/>
<path d="M246.996 81.9635C246.164 82.4466 245.384 82.9 244.58 83.3667C246.013 85.846 247.423 88.3105 248.861 90.7582C249.262 91.4411 250.049 91.6222 250.705 91.2649C251.375 90.9 251.643 90.1077 251.269 89.3999C250.796 88.502 250.271 87.6313 249.764 86.7514C248.844 85.1569 247.922 83.5645 246.996 81.9635ZM240.778 82.5012C245.47 82.555 249.285 78.6849 249.33 73.8259C249.372 69.2346 245.472 65.3723 240.749 65.3287C236.017 65.2853 232.215 69.1055 232.16 73.9579C232.108 78.6406 235.946 82.4459 240.778 82.5012ZM252.999 90.531C252.832 90.9057 252.714 91.3145 252.488 91.6489C251.235 93.4964 248.667 93.4279 247.496 91.5056C246.645 90.1082 245.851 88.6762 245.033 87.2591C244.43 86.215 243.821 85.1741 243.231 84.1223C243.091 83.8714 242.955 83.8136 242.661 83.8639C237.594 84.7342 233.074 82.1716 231.216 77.3932C229.304 72.4773 231.906 66.519 236.819 64.5618C242.283 62.3851 248.185 64.9148 250.239 70.4302C251.546 73.9414 250.922 77.2412 248.663 80.2283C248.508 80.4339 248.339 80.6287 248.161 80.8472C248.298 81.0948 248.427 81.335 248.563 81.5709C249.708 83.5553 250.867 85.5321 251.993 87.5269C252.37 88.1944 252.666 88.9074 252.999 89.5995V90.531Z" fill="white"/>
<path d="M237.149 89.9384H209.106V91.0563C209.107 91.8229 209.107 91.8239 209.865 91.8239C218.697 91.8241 227.529 91.8241 236.361 91.8239C236.482 91.8239 236.603 91.8192 236.724 91.8234C237.028 91.8341 237.161 91.6961 237.152 91.3867C237.139 90.922 237.149 90.4569 237.149 89.9384ZM217.061 93.3775H215.571C213.587 93.3775 211.603 93.3825 209.619 93.3755C208.226 93.3708 207.557 92.6954 207.554 91.3119C207.553 90.8657 207.554 90.4195 207.554 89.9018H206.871C205.388 89.9018 203.904 89.9061 202.421 89.9006C200.906 89.8948 200.002 88.9972 200.002 87.4865C199.999 76.9631 200 66.4394 200.002 55.916C200.002 54.3719 200.898 53.482 202.449 53.475C203.535 53.4701 204.622 53.4626 205.709 53.4788C206.438 53.4897 206.877 54.127 206.489 54.6333C206.33 54.8413 205.98 54.9982 205.709 55.0089C204.641 55.0513 203.571 55.0244 202.501 55.0276C201.755 55.0299 201.554 55.2324 201.554 55.9826C201.553 66.4541 201.553 76.926 201.554 87.3975C201.554 88.1766 201.748 88.349 202.607 88.349C215.994 88.3492 229.381 88.349 242.768 88.3492C242.958 88.3492 243.149 88.34 243.337 88.3552C243.8 88.3923 244.097 88.6863 244.107 89.1019C244.117 89.5428 243.819 89.862 243.329 89.8936C242.968 89.9168 242.605 89.9013 242.243 89.9016C241.089 89.9021 239.935 89.9018 238.702 89.9018C238.702 90.4031 238.705 90.8777 238.702 91.3523C238.693 92.6665 238.008 93.3675 236.688 93.374C234.394 93.3852 232.099 93.3772 229.805 93.3775H229.183C229.299 93.6231 229.374 93.7923 229.458 93.9567C230.517 96.0275 231.577 98.0976 232.635 100.169C232.713 100.321 232.788 100.478 232.845 100.639C232.981 101.025 232.834 101.333 232.504 101.52C232.154 101.718 231.797 101.673 231.531 101.343C231.414 101.197 231.334 101.02 231.248 100.851C230.045 98.5066 228.836 96.164 227.649 93.8112C227.486 93.4898 227.303 93.367 226.94 93.3693C224.386 93.385 221.833 93.3842 219.28 93.3698C218.935 93.3678 218.764 93.4826 218.61 93.7878C217.414 96.1563 216.2 98.5151 214.988 100.875C214.894 101.058 214.812 101.316 214.657 101.382C214.385 101.499 213.995 101.62 213.779 101.504C213.563 101.389 213.447 100.997 213.392 100.706C213.36 100.539 213.527 100.328 213.621 100.144C214.678 98.0727 215.739 96.0026 216.797 93.9318C216.874 93.7818 216.943 93.6276 217.061 93.3775Z" fill="white"/>
<path d="M210.005 68.9282C209.464 68.9419 208.982 69.4402 208.994 69.9743C209.007 70.5229 209.489 70.9821 210.042 70.9728C210.6 70.9634 211.057 70.4913 211.046 69.9377C211.035 69.3893 210.545 68.9145 210.005 68.9282ZM225.304 69.9683C225.312 69.4315 224.829 68.9372 224.287 68.9277C223.744 68.9182 223.263 69.3921 223.257 69.9432C223.25 70.5085 223.698 70.9669 224.263 70.9733C224.817 70.9798 225.296 70.5177 225.304 69.9683ZM231.374 58.9726C230.822 58.9898 230.375 59.4679 230.387 60.0277C230.399 60.5862 230.874 61.0424 231.426 61.0257C231.98 61.009 232.435 60.5274 232.42 59.9751C232.404 59.4235 231.916 58.9556 231.374 58.9726ZM217.126 66.9316C217.674 66.9448 218.162 66.4815 218.177 65.9339C218.193 65.3945 217.72 64.8995 217.173 64.8828C216.633 64.8666 216.14 65.3382 216.125 65.8868C216.11 66.4314 216.576 66.9187 217.126 66.9316ZM221.701 69.8794C221.852 69.4733 221.564 69.2902 221.219 69.1056C220.551 68.7478 219.907 68.3447 219.233 67.9997C219.079 67.921 218.798 67.9297 218.652 68.0206C217.637 68.6529 216.65 68.6504 215.638 68.0146C215.495 67.9247 215.212 67.9254 215.058 68.0057C214.324 68.3868 213.618 68.8206 212.89 69.2122C212.637 69.3482 212.579 69.5102 212.589 69.7882C212.642 71.2658 211.6 72.45 210.211 72.5227C208.741 72.5999 207.56 71.5685 207.445 70.1081C207.339 68.7543 208.369 67.5582 209.804 67.3901C210.428 67.3168 211.006 67.4852 211.506 67.8582C211.718 68.0164 211.869 68.0286 212.098 67.8913C212.823 67.4581 213.572 67.0672 214.29 66.6235C214.436 66.5335 214.565 66.2844 214.563 66.1103C214.545 64.5425 215.649 63.3322 217.139 63.3229C218.643 63.3137 219.758 64.5377 219.734 66.1399C219.731 66.3006 219.854 66.532 219.989 66.6145C220.724 67.0629 221.474 67.4875 222.237 67.8876C222.373 67.9591 222.629 67.9386 222.763 67.8547C223.373 67.4733 224.013 67.267 224.727 67.4284C225.017 67.4937 225.166 67.3888 225.323 67.1678C226.57 65.4099 227.822 63.6558 229.084 61.9091C229.256 61.6719 229.293 61.5028 229.141 61.2223C228.545 60.1263 228.805 58.8291 229.736 58.0366C230.639 57.2688 231.952 57.2132 232.899 57.9028C233.873 58.6113 234.242 59.8964 233.787 60.9908C233.324 62.1034 232.13 62.7644 230.927 62.5322C230.651 62.4789 230.525 62.5501 230.378 62.7564C229.11 64.5415 227.842 66.3268 226.55 68.0946C226.349 68.3699 226.439 68.5358 226.565 68.775C227.07 69.7386 226.906 70.8919 226.169 71.7075C225.475 72.4769 224.304 72.7429 223.323 72.3545C222.337 71.9644 221.693 71.0027 221.701 69.8794Z" fill="white"/>
<path d="M220.373 53.4379H225.873C225.873 52.9566 225.872 52.5114 225.874 52.0659C225.875 51.7543 225.732 51.5714 225.413 51.5707C223.88 51.5669 222.348 51.5565 220.816 51.5888C220.666 51.5921 220.415 51.8579 220.394 52.0253C220.334 52.4795 220.373 52.9464 220.373 53.4379ZM218.82 53.474C218.82 52.9394 218.809 52.4606 218.822 51.9822C218.852 50.8417 219.588 50.0524 220.732 50.0268C222.318 49.9912 223.907 49.9914 225.493 50.0255C226.649 50.0505 227.402 50.8644 227.425 52.0226C227.434 52.4852 227.426 52.9479 227.426 53.474H228.067C233.259 53.474 238.452 53.4735 243.645 53.4743C245.39 53.4745 246.248 54.3333 246.249 56.081C246.25 58.2719 246.251 60.4627 246.246 62.6539C246.245 62.8751 246.236 63.1088 246.167 63.3151C246.042 63.686 245.725 63.9172 245.367 63.7892C245.108 63.6965 244.897 63.404 244.725 63.1581C244.643 63.0395 244.697 62.8228 244.697 62.6504C244.696 60.4595 244.697 58.2686 244.696 56.0775C244.695 55.2048 244.514 55.0271 243.626 55.0271C232.24 55.0269 220.854 55.0271 209.468 55.0264C209.261 55.0264 209.051 55.0391 208.849 55.007C208.46 54.9457 208.227 54.6906 208.197 54.3089C208.168 53.924 208.366 53.6395 208.746 53.5346C208.941 53.4808 209.154 53.4765 209.359 53.4763C212.309 53.473 215.259 53.474 218.209 53.474H218.82ZM217.915 74.1329H216.377V83.3618H217.915V74.1329ZM214.784 78.6794C214.784 77.0062 214.782 75.3333 214.785 73.6603C214.786 72.8023 215.044 72.5422 215.893 72.5382C216.755 72.5342 217.617 72.5305 218.48 72.5397C219.203 72.5472 219.496 72.825 219.498 73.5412C219.505 77.0079 219.505 80.4746 219.498 83.9413C219.496 84.6371 219.204 84.9219 218.521 84.9296C217.607 84.9401 216.693 84.9396 215.779 84.9299C215.07 84.9226 214.789 84.6352 214.786 83.9052C214.779 82.1632 214.784 80.4213 214.784 78.6794ZM225.033 78.1138H223.501V83.3479H225.033V78.1138ZM226.619 80.7434C226.619 81.7948 226.626 82.8459 226.617 83.897C226.61 84.6591 226.341 84.9254 225.588 84.9309C224.692 84.9373 223.796 84.9396 222.9 84.9299C222.208 84.9224 221.917 84.6376 221.915 83.9543C221.908 81.8 221.909 79.646 221.915 77.4918C221.917 76.8188 222.187 76.5323 222.843 76.5219C223.79 76.5069 224.738 76.5072 225.686 76.5219C226.349 76.5321 226.607 76.7997 226.615 77.4865C226.628 78.572 226.619 79.6577 226.619 80.7434ZM209.26 78.0994V83.3436H210.824V78.0994H209.26ZM212.377 80.7203C212.377 81.7716 212.381 82.823 212.375 83.8743C212.371 84.6573 212.099 84.9269 211.311 84.9314C210.432 84.9364 209.552 84.9383 208.674 84.9304C207.951 84.9239 207.667 84.6528 207.664 83.9259C207.654 81.7888 207.654 79.6517 207.664 77.5147C207.667 76.7847 207.938 76.5271 208.674 76.5196C209.57 76.5102 210.466 76.5099 211.362 76.5196C212.114 76.5274 212.372 76.7977 212.375 77.5662C212.38 78.6176 212.377 79.6689 212.377 80.7203ZM230.598 83.3798C231.354 83.3798 232.054 83.3758 232.755 83.3808C233.381 83.3855 233.713 83.6476 233.724 84.1321C233.735 84.6334 233.385 84.9254 232.739 84.9306C231.845 84.9376 230.95 84.9381 230.056 84.9306C229.327 84.9244 229.054 84.6516 229.048 83.9358C229.042 83.2821 229.038 82.6284 229.05 81.9749C229.06 81.4428 229.356 81.1179 229.805 81.1099C230.256 81.1019 230.572 81.4218 230.594 81.9478C230.613 82.4069 230.598 82.8671 230.598 83.3798ZM240.673 66.4967C242.304 66.5523 243.767 67.0389 245.083 67.9761C245.482 68.2604 245.581 68.6941 245.358 69.0586C245.121 69.4462 244.674 69.5551 244.231 69.2532C243.115 68.4921 241.906 68.065 240.547 68.1052C237.499 68.1946 235.065 70.6199 234.92 73.7092C234.78 76.6873 237.049 79.3388 240.028 79.6789C244.348 80.1719 247.643 76.0358 246.181 71.9533C246.123 71.7913 246.063 71.6296 246.013 71.465C245.858 70.9535 246.02 70.5531 246.441 70.3942C246.836 70.2455 247.23 70.4268 247.442 70.8865C247.934 71.9538 248.176 73.0826 248.092 74.2525C247.835 77.8326 245.547 80.4238 242.032 81.1607C238.02 82.0023 233.795 78.8807 233.421 74.7994C233.072 70.9859 235.168 67.8842 238.848 66.8171C239.438 66.646 240.064 66.6004 240.673 66.4967Z" fill="white"/>
</svg>
