<svg width="805" height="756" viewBox="0 0 805 756" fill="none" xmlns="http://www.w3.org/2000/svg">
<g filter="url(#filter0_d_1419_3900)">
<path d="M90.5318 593.859C91.4312 594.395 92.5555 594.395 93.4376 593.859L122.098 576.212C122.565 575.918 122.565 575.244 122.098 574.949L90.6875 555.902C90.134 555.573 89.4594 555.573 88.9059 555.902L59.3461 574.102C59.0175 574.292 59.0175 574.776 59.3461 574.967L90.5145 593.876L90.5318 593.859Z" fill="#1F2846"/>
</g>
<g filter="url(#filter1_d_1419_3900)">
<path d="M66.0396 705.05C66.939 705.586 68.0633 705.586 68.9455 705.05L97.6059 687.403C98.0729 687.109 98.0729 686.434 97.6059 686.14L66.1953 667.092C65.6418 666.764 64.9672 666.764 64.4138 667.092L34.8539 685.292C34.5253 685.483 34.5253 685.967 34.8539 686.157L66.0223 705.067L66.0396 705.05Z" fill="url(#paint0_linear_1419_3900)"/>
</g>
<g filter="url(#filter2_d_1419_3900)">
<path d="M281.623 719.703C282.073 719.98 282.661 719.98 283.111 719.703L297.744 710.69C297.986 710.534 297.986 710.188 297.744 710.049L281.71 700.327C281.433 700.154 281.087 700.154 280.793 700.327L265.711 709.617C265.555 709.721 265.555 709.963 265.711 710.049L281.623 719.703Z" fill="url(#paint1_linear_1419_3900)"/>
</g>
<g filter="url(#filter3_d_1419_3900)">
<path d="M718.484 540.902C719.763 541.68 721.355 541.663 722.635 540.902L763.524 515.73C764.198 515.314 764.198 514.346 763.524 513.93L718.726 486.751C717.947 486.284 716.961 486.284 716.183 486.751L674.031 512.702C673.564 512.979 673.582 513.654 674.031 513.93L718.484 540.902Z" fill="url(#paint2_linear_1419_3900)"/>
</g>
<g filter="url(#filter4_d_1419_3900)">
<path d="M177.067 237.762C177.707 238.159 178.52 238.142 179.159 237.762L199.829 225.028C200.175 224.821 200.175 224.319 199.829 224.111L177.188 210.375C176.79 210.133 176.306 210.133 175.908 210.375L154.598 223.489C154.373 223.627 154.373 223.973 154.598 224.111L177.067 237.744V237.762Z" fill="url(#paint3_linear_1419_3900)"/>
</g>
<g filter="url(#filter5_d_1419_3900)">
<path d="M677.405 367.55C677.889 367.844 678.494 367.844 678.979 367.55L694.563 357.948C694.822 357.793 694.822 357.412 694.563 357.256L677.491 346.893C677.197 346.72 676.817 346.72 676.522 346.893L660.454 356.789C660.281 356.893 660.281 357.153 660.454 357.256L677.405 367.533V367.55Z" fill="#1F2846"/>
</g>
<g filter="url(#filter6_d_1419_3900)">
<path d="M613.061 362.291C613.701 362.689 614.514 362.672 615.154 362.291L635.823 349.558C636.169 349.35 636.169 348.849 635.823 348.641L613.182 334.904C612.784 334.662 612.3 334.662 611.902 334.904L590.592 348.018C590.368 348.157 590.368 348.503 590.592 348.641L613.061 362.274V362.291Z" fill="url(#paint4_linear_1419_3900)"/>
</g>
<path d="M426.137 668.546L507.932 718.423C510.319 719.877 513.294 719.859 515.681 718.423L685.309 613.997C687.229 612.821 687.229 610.035 685.309 608.859L570.027 538.048C568.366 537.027 568.366 534.605 570.027 533.584L706.359 449.279" stroke="#1F2846" stroke-width="0.67" stroke-miterlimit="10"/>
<path d="M707.16 451.461C705.665 452.341 704.06 451.993 703.47 450.997C702.877 449.982 703.356 448.409 704.833 447.529C706.332 446.645 707.934 446.983 708.522 447.991C709.116 449.006 708.637 450.58 707.16 451.461Z" fill="#1F2846" stroke="#1F2846"/>
<path d="M660.591 593.611C661.181 592.615 662.786 592.267 664.281 593.148C665.758 594.028 666.237 595.602 665.643 596.617C665.055 597.625 663.453 597.963 661.954 597.08C660.478 596.199 659.998 594.627 660.591 593.611Z" fill="#1F2846" stroke="#1F2846"/>
<path d="M252.271 371.357L136.989 300.546C135.329 299.525 135.329 297.103 136.989 296.082L232 237.277" stroke="url(#paint5_linear_1419_3900)" stroke-width="0.67" stroke-miterlimit="10"/>
<path d="M228.697 239.267C229.475 240.582 231.43 240.876 233.073 239.907C234.699 238.938 235.391 237.087 234.612 235.755C233.834 234.423 231.879 234.146 230.236 235.115C228.61 236.084 227.918 237.935 228.697 239.267Z" fill="url(#paint6_linear_1419_3900)"/>
<path d="M117.392 526.491L2.11059 455.68C0.450116 454.659 0.450116 452.237 2.11059 451.216L97.1207 392.412" stroke="url(#paint7_linear_1419_3900)" stroke-width="0.67" stroke-miterlimit="10"/>
<path d="M93.8178 394.401C94.5962 395.716 96.5507 396.01 98.1939 395.041C99.8198 394.072 100.512 392.221 99.7333 390.889C98.9549 389.557 97.0004 389.28 95.3572 390.249C93.7314 391.218 93.0395 393.069 93.8178 394.384V394.401Z" fill="url(#paint8_linear_1419_3900)"/>
<path d="M389.605 253.765L504.887 324.576C506.548 325.597 506.548 328.019 504.887 329.039L409.877 387.844" stroke="url(#paint9_linear_1419_3900)" stroke-width="0.67" stroke-miterlimit="10"/>
<path d="M413.181 385.854C412.402 384.539 410.448 384.245 408.804 385.214C407.179 386.183 406.487 388.034 407.265 389.366C408.043 390.698 409.998 390.975 411.641 390.006C413.267 389.038 413.959 387.186 413.181 385.854Z" fill="url(#paint10_linear_1419_3900)"/>
<path d="M632.986 517.218L714.782 567.095C717.169 568.548 720.144 568.531 722.531 567.095L804.707 516.508" stroke="#1F2846" stroke-width="0.67" stroke-miterlimit="10"/>
<path d="M630.287 515.81C630.878 514.814 632.483 514.466 633.978 515.347C635.468 516.226 635.935 517.798 635.34 518.817C634.751 519.824 633.149 520.162 631.649 519.278C630.16 518.4 629.693 516.829 630.287 515.81Z" fill="#1F2846" stroke="#1F2846"/>
<path d="M100.232 357.655L182.028 407.532C184.415 408.985 187.39 408.968 189.777 407.532L271.953 356.945" stroke="url(#paint11_linear_1419_3900)" stroke-width="0.67" stroke-miterlimit="10"/>
<path d="M97.0854 355.994C97.8638 354.679 99.8183 354.385 101.461 355.354C103.087 356.322 103.779 358.174 103.001 359.506C102.222 360.838 100.268 361.115 98.6248 360.146C96.9989 359.177 96.3071 357.326 97.0854 355.994Z" fill="url(#paint12_linear_1419_3900)"/>
<path d="M338.131 659.238L256.335 609.361C253.948 607.907 250.973 607.925 248.586 609.361L166.41 659.947" stroke="#1F2846" stroke-width="0.67" stroke-miterlimit="10"/>
<path d="M305.77 579.361L223.975 529.484C221.588 528.031 218.613 528.048 216.226 529.484L46.5981 633.91C44.6782 635.087 44.6782 637.872 46.5981 639.048L105.683 675.345" stroke="#1F2846" stroke-width="0.67" stroke-miterlimit="10"/>
<path d="M108.243 676.781C107.465 678.096 105.51 678.39 103.867 677.421C102.241 676.452 101.549 674.601 102.328 673.269C103.106 671.937 105.06 671.66 106.704 672.629C108.347 673.597 109.021 675.449 108.243 676.781Z" fill="#1F2846"/>
<path d="M85.9135 609.516C86.6919 610.831 88.6464 611.125 90.2896 610.156C91.9155 609.188 92.6073 607.336 91.829 606.004C91.0506 604.672 89.0961 604.395 87.4529 605.364C85.8271 606.333 85.1352 608.184 85.9135 609.516Z" fill="#1F2846"/>
<path d="M701.706 540.677L619.91 490.8C617.523 489.347 614.548 489.364 612.162 490.8L296.049 685.379C294.129 686.556 294.129 689.341 296.049 690.517L355.134 726.814" stroke="#1F2846" stroke-width="0.67" stroke-miterlimit="10"/>
<path d="M357.694 728.25C356.916 729.565 354.961 729.859 353.318 728.89C351.692 727.921 351 726.07 351.779 724.738C352.557 723.406 354.512 723.129 356.155 724.098C357.781 725.067 358.473 726.918 357.694 728.25Z" fill="#1F2846"/>
<path d="M335.347 660.985C336.125 662.3 338.08 662.594 339.723 661.626C341.349 660.657 342.041 658.806 341.263 657.473C340.484 656.159 338.53 655.865 336.887 656.833C335.261 657.802 334.569 659.653 335.347 660.985Z" fill="#1F2846"/>
<path d="M66.2988 686.694L148.094 736.572C150.464 738.025 153.456 738.008 155.843 736.572L326.976 631.228C328.601 630.225 330.677 630.225 332.303 631.228L422.868 687.178" stroke="#1F2846" stroke-width="0.67" stroke-miterlimit="10"/>
<path d="M419.91 685.345C420.688 684.03 422.642 683.736 424.286 684.704C425.912 685.673 426.603 687.524 425.825 688.857C425.047 690.171 423.092 690.466 421.449 689.497C419.823 688.528 419.131 686.677 419.91 685.345Z" fill="#1F2846"/>
<path d="M744.895 613.651V564.76" stroke="url(#paint13_linear_1419_3900)" stroke-width="0.67" stroke-miterlimit="10" stroke-linecap="round"/>
<path d="M281.762 311.151V262.259" stroke="url(#paint14_linear_1419_3900)" stroke-width="0.67" stroke-miterlimit="10" stroke-linecap="round"/>
<path d="M85.584 353.226V304.334" stroke="url(#paint15_linear_1419_3900)" stroke-width="0.67" stroke-miterlimit="10" stroke-linecap="round"/>
<path d="M108.572 498.897V450.005" stroke="url(#paint16_linear_1419_3900)" stroke-width="0.67" stroke-miterlimit="10" stroke-linecap="round"/>
<path d="M659.83 451.597V402.705" stroke="url(#paint17_linear_1419_3900)" stroke-width="0.67" stroke-miterlimit="10" stroke-linecap="round"/>
<path d="M644.453 474.762V425.871" stroke="url(#paint18_linear_1419_3900)" stroke-width="0.67" stroke-miterlimit="10" stroke-linecap="round"/>
<path d="M22.7285 546.611V497.72" stroke="url(#paint19_linear_1419_3900)" stroke-width="0.67" stroke-miterlimit="10" stroke-linecap="round"/>
<path d="M447.861 734.495V685.604" stroke="url(#paint20_linear_1419_3900)" stroke-width="0.67" stroke-miterlimit="10" stroke-linecap="round"/>
<path d="M734.518 640.934V592.025" stroke="url(#paint21_linear_1419_3900)" stroke-width="0.67" stroke-miterlimit="10" stroke-linecap="round"/>
<path d="M590.42 273.02V224.129" stroke="url(#paint22_linear_1419_3900)" stroke-width="0.67" stroke-miterlimit="10" stroke-linecap="round"/>
<path d="M294.631 273.02V224.129" stroke="url(#paint23_linear_1419_3900)" stroke-width="0.67" stroke-miterlimit="10" stroke-linecap="round"/>
<path style="mix-blend-mode:screen" d="M440.578 529.639C444.331 531.923 449.053 531.906 452.789 529.605L573.053 455.558C575.024 454.347 575.024 451.476 573.035 450.264L441.253 370.336C438.952 368.935 436.081 368.952 433.781 370.353L309.781 446.701C308.432 447.531 308.432 449.503 309.781 450.316L440.561 529.639H440.578Z" stroke="url(#paint24_linear_1419_3900)" stroke-width="1.33" stroke-miterlimit="10"/>
<path d="M308.934 427.583V229.509L574.523 233.229V432.687C574.523 432.687 574.523 432.739 574.523 432.756V432.791C574.506 433.794 574.022 434.78 573.053 435.369L452.79 509.415C449.054 511.716 444.332 511.733 440.579 509.45L309.799 430.127C308.865 429.556 308.588 428.466 308.934 427.566V427.583Z" fill="#00CCD4" fill-opacity="0.35"/>
<g filter="url(#filter7_d_1419_3900)">
<path d="M440.578 310.701C444.331 312.984 449.053 312.967 452.789 310.666L573.053 236.62C575.024 235.409 575.024 232.537 573.035 231.326L441.253 151.397C438.952 149.996 436.081 150.013 433.781 151.414L309.781 227.762C308.432 228.592 308.432 230.565 309.781 231.378L440.561 310.701H440.578Z" fill="#00CFD6" fill-opacity="0.1"/>
<path d="M440.718 310.201L440.838 310.274C444.431 312.459 448.951 312.443 452.527 310.24L452.789 310.666L452.527 310.24L572.79 236.194L572.791 236.194C574.444 235.178 574.445 232.77 572.776 231.753L440.718 310.201ZM440.718 310.201H440.701L310.041 230.95L310.039 230.949C309.016 230.333 309.008 228.825 310.043 228.188L310.044 228.188L434.041 151.841C434.041 151.841 434.041 151.841 434.042 151.841C436.184 150.536 438.854 150.522 440.993 151.824L440.993 151.825L572.775 231.753L440.718 310.201Z" stroke="#92FEFF"/>
</g>
<path style="mix-blend-mode:screen" d="M249.02 634.965C252.773 637.249 257.495 637.232 261.231 634.931L381.494 560.884C383.466 559.673 383.466 556.801 381.477 555.59L249.694 475.662C247.394 474.26 244.522 474.278 242.222 475.679L118.223 552.026C116.874 552.857 116.874 554.829 118.223 555.642L249.002 634.965H249.02Z" stroke="url(#paint25_linear_1419_3900)" stroke-width="1.33" stroke-miterlimit="10"/>
<path d="M117.358 532.892V391.564L382.947 395.283V537.996C382.947 537.996 382.947 538.048 382.947 538.065V538.099C382.93 539.103 382.446 540.089 381.477 540.677L261.214 614.724C257.478 617.025 252.756 617.042 249.003 614.758L118.223 535.435C117.289 534.864 117.012 533.774 117.358 532.875V532.892Z" fill="#00CCD4" fill-opacity="0.35"/>
<g filter="url(#filter8_d_1419_3900)">
<path d="M249.02 472.755C252.773 475.039 257.495 475.022 261.231 472.721L381.494 398.674C383.466 397.463 383.466 394.591 381.477 393.38L249.694 313.452C247.394 312.05 244.522 312.068 242.222 313.469L118.223 389.816C116.874 390.647 116.874 392.619 118.223 393.432L249.002 472.755H249.02Z" fill="#00CFD6" fill-opacity="0.1"/>
<path d="M249.16 472.255L249.279 472.328C252.872 474.514 257.392 474.497 260.969 472.295L261.231 472.721L260.969 472.295L381.232 398.248L381.232 398.248C382.885 397.233 382.887 394.825 381.217 393.808L249.16 472.255ZM249.16 472.255H249.142L118.482 393.005L118.481 393.004C117.458 392.387 117.45 390.879 118.485 390.242L118.485 390.242L242.482 313.896C242.482 313.896 242.483 313.896 242.483 313.895C244.626 312.591 247.296 312.576 249.434 313.879L249.435 313.879L381.217 393.807L249.16 472.255Z" stroke="#92FEFF"/>
</g>
<path style="mix-blend-mode:screen" d="M491.603 682.524C495.357 684.808 500.079 684.791 503.815 682.49L624.078 608.443C626.05 607.232 626.05 604.361 624.061 603.149L492.278 523.221C489.978 521.82 487.106 521.837 484.806 523.238L360.807 599.586C359.458 600.416 359.458 602.388 360.807 603.201L491.586 682.524H491.603Z" stroke="url(#paint26_linear_1419_3900)" stroke-width="1.33" stroke-miterlimit="10"/>
<path d="M359.942 580.451V507.114L475.553 508.74L484.789 503.048C487.072 501.647 489.961 501.63 492.261 503.031L502.293 509.121L625.531 510.851V585.572C625.531 585.572 625.531 585.624 625.531 585.641V585.676C625.514 586.679 625.03 587.666 624.061 588.254L503.798 662.3C500.062 664.601 495.34 664.618 491.586 662.335L360.807 583.012C359.873 582.441 359.596 581.351 359.942 580.451Z" fill="#00CCD4" fill-opacity="0.35"/>
<g filter="url(#filter9_d_1419_3900)">
<path d="M491.603 587.51C495.357 589.793 500.079 589.776 503.815 587.475L624.078 513.429C626.05 512.218 626.05 509.346 624.061 508.135L492.278 428.206C489.978 426.805 487.106 426.822 484.806 428.224L360.807 504.571C359.458 505.401 359.458 507.374 360.807 508.187L491.586 587.51H491.603Z" fill="#00CFD6" fill-opacity="0.1"/>
<path d="M491.744 587.01L491.863 587.083C495.456 589.269 499.976 589.252 503.553 587.049L503.815 587.475L503.553 587.049L623.816 513.003L623.816 513.003C625.469 511.988 625.471 509.579 623.801 508.562L491.744 587.01ZM491.744 587.01H491.726L361.066 507.759L361.065 507.758C360.042 507.142 360.034 505.634 361.069 504.997L361.069 504.997L485.066 428.651C485.066 428.65 485.067 428.65 485.067 428.65C487.21 427.345 489.88 427.331 492.018 428.633L492.019 428.634L623.801 508.562L491.744 587.01Z" stroke="#92FEFF"/>
</g>
<path d="M530.712 417.463C530.712 417.463 532.027 417.67 532.563 417.739C533.099 417.809 535.729 417.774 537.216 417.618C538.721 417.463 540.105 419.02 541.212 419.66C542.319 420.3 547.525 421.061 547.802 421.424C548.078 421.77 547.68 422.168 547.162 422.411C546.643 422.653 543.322 422.134 542.301 422.099C541.281 422.065 538.704 421.511 538.565 421.632C538.427 421.753 538.963 422.013 539.88 422.117C540.796 422.238 541.35 422.982 541.281 423.518C541.212 424.054 538.306 423.604 536.784 423.241C535.262 422.86 533.964 422.307 532.65 421.978C531.335 421.649 529.969 421.597 529.969 421.597" fill="#F2CFA4"/>
<path d="M513.554 519.605C513.398 519.173 512.291 518.117 512.291 518.117L496.171 514.917C496.171 514.917 496.101 516.837 496.067 517.01C496.032 517.183 497.831 518.204 498.731 518.619C499.63 519.034 500.062 519.138 500.062 519.138L500.841 518.844C501.256 518.948 501.844 519.103 502.363 519.38C503.28 519.865 504.802 520.903 506.341 521.526C507.88 522.148 509.731 522.615 511.565 522.131C513.381 521.664 513.813 520.315 513.536 519.605H513.554Z" fill="#1A1401"/>
<path d="M503.124 510.107C503.124 510.107 504.11 510.522 506.376 512.806C508.659 515.107 512.896 517.546 513.536 518.879C514.09 520.02 513.536 521.18 511.495 521.785C509.437 522.408 506.099 520.92 504.023 519.519C501.948 518.117 497.347 517.304 496.499 515.868C495.669 514.467 496.707 512.062 497.087 511.474C497.468 510.886 498.298 508.965 503.124 510.09V510.107Z" fill="#1B115E"/>
<path d="M487.556 525.297C487.556 525.297 488.525 527.217 488.439 528.515C488.387 529.294 487.816 531.058 486.951 531.698C486.225 532.235 484.011 533.082 480.275 530.799C476.538 528.532 477.559 523.723 477.611 523.048C477.663 522.356 477.767 520.263 477.611 519.207" fill="#1A1401"/>
<path d="M477.56 518.792C477.56 518.792 477.75 519.934 477.75 522.477C477.75 525.02 477.664 526.716 478.979 528.55C480.604 530.816 483.96 532.148 485.914 531.352C488.613 530.262 488.353 527.183 487.817 525.522C487.281 523.844 485.378 522.218 485.015 520.436C484.652 518.654 485.361 515.072 481.746 514.588C478.598 514.173 476.972 515.661 477.56 518.809V518.792Z" fill="#1B115E"/>
<path d="M497.797 505.99C497.797 505.99 498.177 509.882 498.074 510.972C497.97 512.045 502.571 512.702 503.833 511.266C503.833 511.266 504.041 508.775 504.076 507.062" fill="#F2CFA4"/>
<path d="M506.946 476.354C506.168 480.783 504.818 508.55 504.818 508.55C500.148 510.747 496.706 508.083 496.706 508.083C496.706 508.083 494.752 488.256 494.683 487.703C493.904 481.873 494.233 474.658 494.735 472.824C495.236 470.99 494.008 458.032 492.555 453.24C491.898 451.06 491.344 449.59 490.912 448.154C490.393 446.441 489.995 444.746 489.736 441.908C489.234 436.649 491.76 431.839 491.76 431.839C491.76 431.839 507.084 430.732 507.448 434.642C507.897 439.486 508.693 466.354 506.946 476.319V476.354Z" fill="#1B115E"/>
<path d="M477.992 511.578C477.992 511.578 478.373 515.47 478.269 516.56C478.165 517.633 482.766 518.29 484.029 516.854C484.029 516.854 484.236 514.363 484.271 512.65" fill="#F2CFA4"/>
<path d="M479.653 437.756C479.653 437.756 476.747 442.618 476.833 447.877C476.92 453.084 476.989 454.434 478.079 459.192C479.168 463.949 476.66 476.682 476.02 478.516C475.363 480.35 474.775 486.215 475.104 492.028C475.415 497.651 477.093 513.723 477.093 513.723C477.093 513.723 480.466 516.491 485.309 514.173C485.309 514.173 487.644 485.8 489.166 481.475C492.521 471.959 495.739 453.396 496.344 449.884C498.039 445.282 497.434 441.009 497.434 438.517C497.434 436.026 479.635 437.756 479.635 437.756H479.653Z" fill="#1B115E"/>
<path d="M506.532 411.079C510.752 411.754 532.442 417.411 532.442 417.411L531.854 422.342C531.854 422.342 505.2 421.182 504.56 420.75C503.92 420.317 503.92 417.826 503.92 417.826" fill="#E3F6FF"/>
<path d="M511.029 398.553C511.029 398.553 501.948 400.525 501.498 402.256C501.187 403.397 503.228 412.376 506.255 419.85C508.745 418.76 511.08 417.67 512.775 416.65C512.291 412.359 511.029 398.571 511.029 398.571" fill="#E3F6FF"/>
<path d="M509.057 385.491C509.057 385.491 511.15 393.553 511.669 405.37C511.669 405.37 511.41 405.767 504.906 407.549" fill="#E3F6FF"/>
<path d="M507.033 428.241C507.327 430.438 507.604 432.479 507.811 434.261C507.932 435.23 507.414 436.164 506.514 436.562C501.394 438.829 487.765 441.458 482.697 441.441C482.541 441.441 482.403 441.441 482.282 441.441C478.84 441.303 478.027 439.78 477.871 438.742C477.871 438.396 477.871 438.068 477.906 437.756C477.992 436.32 478.2 434.815 478.632 433.344C478.736 432.964 478.822 432.583 478.926 432.22C479.047 431.787 479.168 431.355 479.289 430.94C479.359 430.732 479.41 430.524 479.445 430.317C479.497 430.109 479.549 429.919 479.583 429.729C480.708 424.192 478.736 419.089 476.851 414.02C476.314 412.601 475.813 411.182 475.363 409.747C474.429 406.702 473.512 403.657 472.786 400.595C472.717 400.3 472.63 399.989 472.544 399.66C472.146 398.138 471.731 396.477 471.835 394.92C472.025 394.418 472.25 393.951 472.457 393.519C472.768 392.844 473.08 392.273 473.391 391.754C474.118 390.543 474.775 389.764 475.259 389.315H475.277C475.571 389.038 475.865 388.778 476.159 388.553C476.66 388.138 477.145 387.775 477.594 387.446C477.957 387.169 478.303 386.927 478.632 386.719C478.77 386.616 478.909 386.529 479.047 386.443C479.082 386.425 479.099 386.408 479.116 386.391C479.134 386.391 479.151 386.373 479.186 386.356C479.289 386.287 479.41 386.2 479.514 386.131C479.739 385.976 479.981 385.837 480.206 385.699C480.431 385.56 480.673 385.422 480.932 385.284C481.313 385.076 481.728 384.834 482.195 384.609C483.216 384.107 484.513 383.502 486.346 382.792L487.557 382.342C487.817 382.256 488.076 382.169 488.335 382.1C489.598 381.72 490.895 381.408 492.193 381.131C494.199 380.699 496.257 380.37 498.194 380.007C498.54 380.007 498.869 380.007 499.215 380.041C500.322 380.111 501.879 380.422 503.245 380.733C506.168 381.408 508.607 383.571 509.351 386.46C509.455 386.875 509.524 387.325 509.558 387.775C509.818 391.91 505.234 415.248 507.033 428.293V428.241Z" fill="white"/>
<path d="M497.001 382.81C497.001 382.81 499.406 385.111 497.486 386.858L496.361 384.436L497.434 383.467" fill="#D5AB80"/>
<path d="M487.332 374.263L487.591 383.623C487.591 383.623 494.631 389.107 497.468 386.841C497.52 385.18 497.502 381.218 497.468 378.934L494.787 378.398L487.332 374.263Z" fill="#E2B888"/>
<path d="M502.622 367.066C502.622 367.066 503.072 371.599 502.138 375.734C501.204 379.869 500.927 380.803 499.25 381.547C497.572 382.273 496.084 382.36 493.282 380.561C490.48 378.761 488.941 375.82 488.941 375.82C488.941 375.82 488.543 376.08 487.54 374.955C485.966 373.191 485.672 372.308 485.672 369.904C485.672 367.499 486.277 364.471 488.145 361.34C490.013 358.208 495.756 359.194 498.368 360.544C500.979 361.876 502.138 364.402 502.64 367.084L502.622 367.066Z" fill="#F2CFA4"/>
<path d="M502.917 367.62C500.219 369.973 494.978 367.62 494.978 367.62L494.874 369.004C494.355 371.218 492.799 371.409 492.055 371.806C491.328 372.222 491.155 374.471 491.155 374.471L490.221 374.367C490.221 374.367 490.256 372.222 489.91 371.149C489.564 370.076 487.8 369.246 486.797 370.803C485.984 372.083 486.745 373.623 487.35 374.748C487.35 374.748 485.655 375.267 485.205 368.312C485.205 368.312 485.05 364.834 485.43 362.879C485.845 360.648 489.27 357.568 492.85 357.585C492.85 357.585 497.486 357.274 499.856 360.007C502.709 363.312 503.315 363.243 504.111 362.464C505.218 363.606 504.733 366.011 502.9 367.602L502.917 367.62Z" fill="#2D166D"/>
<path d="M483.232 426.096C483.319 426.909 483.37 429.279 483.232 430.421C482.748 434.261 482.021 437.722 482.696 441.459C482.54 441.459 482.402 441.459 482.281 441.459C478.839 441.32 478.026 439.798 477.87 438.76C477.87 438.414 477.87 438.085 477.905 437.773C477.991 436.338 478.199 434.832 478.631 433.362C478.735 432.981 478.839 432.618 478.925 432.255C479.046 431.805 479.167 431.39 479.288 430.957C479.358 430.749 479.41 430.542 479.444 430.334C479.496 430.127 479.548 429.936 479.582 429.746C480.707 424.21 478.735 419.106 476.85 414.037C477.144 411.252 477.455 407.895 477.455 407.567C477.455 406.979 483.319 400.145 483.319 400.145C483.319 400.145 481.814 412.618 483.215 426.13L483.232 426.096Z" fill="#E3F6FF"/>
<path d="M457.098 450.524L483.977 466.804L486.882 465.056L459.986 448.777L457.098 450.524Z" fill="#6095B8"/>
<path d="M483.977 466.804V486.042L457.098 469.779V450.541L483.977 466.804Z" fill="#6095B8"/>
<path d="M483.977 466.804V475.61L457.098 459.347V450.524L483.977 466.804Z" fill="#5990AE"/>
<path d="M474.619 468.69V471.371L474.273 471.544L466.455 466.423L466.092 463.932L466.455 463.742L474.619 468.69Z" fill="#497790"/>
<path d="M474.273 468.88V471.544L466.092 466.613V463.932L474.273 468.88Z" fill="#3D5E73"/>
<path d="M483.977 466.804V486.042L486.882 484.277V465.056L483.977 466.804Z" fill="#4B79A1"/>
<path d="M467.579 450.714C467.994 450.489 468.496 450.489 468.911 450.731L474.74 454.244C475.708 454.832 476.296 455.887 476.296 457.012V460.108C476.296 460.108 476.331 460.714 475.639 460.645C475.034 460.576 474.947 460.108 474.947 460.108V457.012C474.947 456.354 474.601 455.731 474.03 455.385L468.599 452.064C468.444 451.977 468.253 452.064 468.253 452.254V455.247C468.253 455.247 468.288 455.852 467.596 455.783C466.991 455.714 466.904 455.247 466.904 455.247V451.839C466.904 451.372 467.164 450.922 467.579 450.697V450.714Z" fill="#3D5E73"/>
<path d="M474.982 454.399L473.374 453.413L473.27 453.344C473.062 453.223 472.855 453.171 472.716 453.24C472.578 453.309 472.318 453.759 472.197 454.244C472.128 454.434 472.094 454.642 472.094 454.815C472.076 455.489 472.249 456.129 472.491 456.718C471.454 456.631 470.122 456.077 468.963 455.541C467.648 454.936 467.302 454.382 467.285 454.157C467.285 454.105 467.285 454.053 467.302 453.984C467.337 453.655 467.441 453.171 467.579 452.617C467.579 452.583 467.579 452.565 467.579 452.548C467.579 452.531 467.579 452.496 467.596 452.479C467.96 450.887 468.513 448.725 468.479 447.808L472.924 445.126C472.924 445.126 473.062 448.015 473.114 449.711C473.131 450.472 474.671 451.839 474.878 452.081C474.93 452.133 474.982 452.323 475.069 452.583C475.121 453.154 474.948 454.382 474.948 454.382L474.982 454.399Z" fill="#F2CFA4"/>
<path d="M467.753 408.985C467.753 408.985 465.678 418.449 465.678 420.04C465.678 421.632 470.97 424.417 473.997 423.674C475.191 422.999 479.221 413.622 479.221 413.622" fill="white"/>
<path d="M484.358 397.498C484.358 401.719 481.158 408.674 479.238 413.605C474.257 412.584 471.178 411.183 469.5 410.197C470.97 404.747 473.15 397.636 474.257 394.055C474.637 392.861 475.277 391.789 476.142 390.906C476.211 390.906 476.28 390.889 476.349 390.889C479.48 390.82 484.392 392.965 484.375 397.515L484.358 397.498Z" fill="white"/>
<path d="M487.574 382.308L486.364 382.758C484.513 383.484 483.233 384.073 482.212 384.574C481.745 384.816 481.313 385.041 480.95 385.249C480.708 385.387 480.448 385.526 480.223 385.664C479.998 385.803 479.756 385.941 479.531 386.097C479.428 386.166 479.307 386.235 479.203 386.304C479.186 386.322 479.168 386.339 479.134 386.339C479.116 386.356 479.099 386.373 479.064 386.391C478.943 386.477 478.788 386.564 478.649 386.668C478.338 386.875 477.975 387.117 477.612 387.394C477.145 387.723 476.66 388.086 476.176 388.501C476.107 388.553 476.02 388.623 475.934 388.692C475.934 388.692 475.899 388.726 475.865 388.761C475.847 388.778 475.795 388.796 475.761 388.83C475.709 388.865 475.64 388.917 475.571 388.986C475.484 389.055 475.398 389.142 475.294 389.245H475.277C474.809 389.73 474.152 390.508 473.408 391.719C473.097 392.221 472.786 392.809 472.474 393.484C472.267 393.917 472.042 394.384 471.852 394.885C471.834 394.92 470.9 397.411 470.503 398.899C470.451 399.107 470.382 399.297 470.33 399.487C470.053 400.439 469.776 401.477 469.482 402.532C468.894 404.626 468.306 406.857 467.787 408.985C467.787 408.985 468.289 409.487 469.517 410.196C470.399 406.892 471.558 402.999 472.561 399.643C473.218 397.446 473.962 395.439 474.515 394.072C476.574 388.951 486.744 384.107 487.626 383.657C487.609 382.896 487.592 382.325 487.592 382.325L487.574 382.308Z" fill="white"/>
<path d="M465.677 420.041C465.141 421.096 465.262 431.32 466.628 439.261C467.978 447.202 467.891 448.483 467.891 448.483L473.461 448.258C473.461 448.258 473.253 441.701 473.685 437.514C474.118 433.224 474.844 422.618 474.844 422.618" fill="white"/>
<path d="M496.032 385.491L496.361 387.688L494.631 387.55L496.032 385.491Z" fill="#7EB9F5"/>
<path d="M496.932 385.353V387.844L498.039 386.858L496.932 385.353Z" fill="#7EB9F5"/>
<path d="M495.549 386.599C495.549 386.599 496.465 386.737 497.417 385.941L498.212 387.567L497.953 389.643L496.535 390.214L495.064 388.432" fill="#2D166D"/>
<path d="M486.52 382.706L487.609 380.699C487.609 380.699 491.069 384.211 496.033 385.509L495.151 388.588C495.151 388.588 489.322 387.152 486.52 382.706Z" fill="#E3F6FF"/>
<path d="M497.52 383C497.52 383 497.537 384.644 496.949 385.37L498.246 387.861C498.246 387.861 499.578 384.938 497.537 383.017L497.52 383Z" fill="#E3F6FF"/>
<path d="M496.551 390.214L495.496 419.833C495.496 419.833 498.713 428.812 499.561 428.846C500.408 428.881 502.761 417.324 502.761 413.605C502.761 409.885 497.969 389.643 497.969 389.643" fill="#2D166D"/>
<path d="M473.114 456.735C472.924 456.752 472.716 456.77 472.491 456.735C471.454 456.648 470.122 456.095 468.963 455.559C467.648 454.953 467.302 454.399 467.285 454.174V454.123C467.285 454.123 467.285 454.053 467.302 453.984C467.372 453.655 467.51 452.911 467.579 452.617C467.579 452.583 467.579 452.565 467.579 452.548C467.579 452.514 467.579 452.479 467.579 452.479L472.145 454.244L473.962 455.351C473.962 455.351 474.135 456.562 473.062 456.718L473.114 456.735Z" fill="#F2CFA4"/>
<path style="mix-blend-mode:hard-light" opacity="0.6" d="M295.287 78.856V196.811L423.299 117.955V0L295.287 78.856Z" fill="url(#paint27_linear_1419_3900)"/>
<path d="M300.873 84.1845V186.275L418.075 114.114V75.8629C414.235 71.6935 409.582 68.1815 404.22 66.9185C384.9 62.3166 382.08 97.4367 365.026 103.475C350.22 108.717 325.209 74.5135 300.873 84.1672V84.1845Z" fill="url(#paint28_linear_1419_3900)"/>
<path d="M418.697 9.1521V114.478L300.268 187.4V82.074L418.697 9.1521ZM370.544 40.2585L348.335 53.9433V156.345L370.544 142.661V40.2585ZM371.772 141.899L393.98 128.215V25.8125L371.772 39.4973V141.899ZM347.072 54.7045L324.863 68.3892V170.791L347.072 157.107V54.7045ZM417.452 11.3666L395.243 25.0513V127.453L417.452 113.769V11.3666ZM301.496 185.168L323.618 171.535V69.1331L301.496 82.766V185.168Z" fill="#1F2846"/>
<path style="mix-blend-mode:hard-light" opacity="0.6" d="M46.3555 325.406V351.374L71.8852 367.031V341.063L46.3555 325.406Z" fill="url(#paint29_linear_1419_3900)"/>
<path style="mix-blend-mode:hard-light" opacity="0.6" d="M417.297 413.449V439.417L442.827 455.074V429.106L417.297 413.449Z" fill="url(#paint30_linear_1419_3900)"/>
<path style="mix-blend-mode:hard-light" opacity="0.6" d="M488.992 89.1326V124.011L523.274 145.048V110.17L488.992 89.1326Z" fill="url(#paint31_linear_1419_3900)"/>
<path style="mix-blend-mode:hard-light" opacity="0.6" d="M620.982 210.202V227.572L638.071 238.056V220.686L620.982 210.202Z" fill="url(#paint32_linear_1419_3900)"/>
<path style="mix-blend-mode:hard-light" opacity="0.6" d="M677.664 561.023V578.392L694.753 588.859V571.49L677.664 561.023Z" fill="url(#paint33_linear_1419_3900)"/>
<path style="mix-blend-mode:hard-light" d="M248.258 112.782V130.152L265.33 140.636V123.267L248.258 112.782Z" fill="#1F2846"/>
<path style="mix-blend-mode:hard-light" opacity="0.6" d="M664.777 279.456V305.407L690.307 321.081V295.113L664.777 279.456Z" fill="url(#paint34_linear_1419_3900)"/>
<path style="mix-blend-mode:hard-light" opacity="0.6" d="M617.314 339.956V461.146L498.158 534.259V413.068L617.314 339.956Z" fill="url(#paint35_linear_1419_3900)"/>
<path d="M598.997 437.497V443.725L516.475 494.364V488.135L598.997 437.497Z" fill="white"/>
<path d="M598.997 437.497V443.725L516.475 494.364V488.135L598.997 437.497Z" fill="white"/>
<path d="M598.997 449.105V455.333L516.475 505.972V499.744L598.997 449.105Z" fill="white"/>
<path d="M598.997 449.105V455.333L516.475 505.972V499.744L598.997 449.105Z" fill="white"/>
<g filter="url(#filter10_f_1419_3900)">
<path d="M598.997 437.497V443.725L516.475 494.364V488.135L598.997 437.497Z" fill="white"/>
<path d="M598.997 437.497V443.725L516.475 494.364V488.135L598.997 437.497Z" fill="white"/>
</g>
<g filter="url(#filter11_f_1419_3900)">
<path d="M598.997 449.105V455.333L516.475 505.972V499.744L598.997 449.105Z" fill="white"/>
<path d="M598.997 449.105V455.333L516.475 505.972V499.744L598.997 449.105Z" fill="white"/>
</g>
<path d="M219.477 333.105L219.563 362.135L247.289 378.329L247.203 349.298L219.477 333.105Z" fill="#E7E6F1"/>
<path d="M247.203 349.298L247.29 378.329L275.189 362.135L275.12 333.105L247.203 349.298Z" fill="#CFCDE2"/>
<path d="M219.477 333.105L247.203 349.298L275.12 333.105L247.393 316.929L219.477 333.105Z" fill="#F4F4FB"/>
<path d="M215.67 369.713L215.722 389.436L234.575 400.439L234.506 380.716L215.67 369.713Z" fill="#06C0C0"/>
<path d="M234.506 380.716L234.575 400.439L253.549 389.436L253.48 369.713L234.506 380.716Z" fill="#19E9DF"/>
<path d="M215.67 369.713L234.506 380.716L253.48 369.713L234.644 358.71L215.67 369.713Z" fill="#28F9EF"/>
<path d="M199.412 335.441L199.464 350.527L213.855 358.918L213.82 343.849L199.412 335.441Z" fill="#291069"/>
<path d="M213.82 343.849L213.855 358.917L228.349 350.527L228.298 335.458L213.82 343.849Z" fill="#442397"/>
<path d="M199.412 335.441L213.82 343.849L228.297 335.458L213.907 327.05L199.412 335.441Z" fill="#5430AF"/>
<path d="M260.312 350.89L260.347 364.177L273.025 371.582L272.991 358.312L260.312 350.89Z" fill="#FFB700"/>
<path d="M272.99 358.312L273.025 371.582L285.807 364.177L285.772 350.89L272.99 358.312Z" fill="#FFC400"/>
<path d="M260.312 350.89L272.991 358.312L285.773 350.89L273.077 343.485L260.312 350.89Z" fill="#FFDE38"/>
<path d="M237.516 340.856L231.826 344.16C229.145 345.717 227.484 349.039 227.467 353.745C227.432 363.226 234.109 374.782 242.359 379.54L248.05 376.236C239.799 371.478 233.14 359.921 233.158 350.44C233.158 345.735 234.835 342.413 237.516 340.856Z" fill="#2A2A36"/>
<mask id="mask0_1419_3900" style="mask-type:luminance" maskUnits="userSpaceOnUse" x="227" y="340" width="22" height="40">
<path d="M237.516 340.856L231.826 344.16C229.145 345.717 227.484 349.039 227.467 353.745C227.432 363.226 234.109 374.782 242.359 379.54L248.05 376.236C239.799 371.478 233.14 359.921 233.158 350.44C233.158 345.735 234.835 342.413 237.516 340.856Z" fill="white"/>
</mask>
<g mask="url(#mask0_1419_3900)">
<path d="M242.359 379.54L248.05 376.236C247.03 375.648 246.026 374.955 245.058 374.16L239.367 377.464C240.336 378.243 241.339 378.952 242.359 379.54Z" fill="#2A2A36"/>
<path d="M239.367 377.464L245.058 374.16C241.771 371.495 238.883 367.81 236.773 363.779L231.082 367.084C233.192 371.115 236.081 374.8 239.367 377.464Z" fill="#2A2A36"/>
<path d="M231.082 367.067L236.772 363.762C234.507 359.437 233.157 354.731 233.157 350.423C233.157 345.718 234.835 342.396 237.516 340.839L231.826 344.143C229.145 345.7 227.484 349.022 227.467 353.728C227.467 358.018 228.816 362.741 231.082 367.067Z" fill="#2A2A36"/>
</g>
<path d="M252.997 380.578L258.687 377.274C255.972 378.848 252.201 378.623 248.05 376.236L242.359 379.54C246.511 381.945 250.281 382.17 252.997 380.578Z" fill="#2A2A36"/>
<mask id="mask1_1419_3900" style="mask-type:luminance" maskUnits="userSpaceOnUse" x="242" y="376" width="17" height="6">
<path d="M252.997 380.578L258.687 377.274C255.972 378.848 252.201 378.623 248.05 376.236L242.359 379.54C246.511 381.945 250.281 382.17 252.997 380.578Z" fill="white"/>
</mask>
<g mask="url(#mask1_1419_3900)">
<path d="M252.997 380.578L258.687 377.274C255.972 378.848 252.201 378.623 248.05 376.236L242.359 379.54C246.511 381.945 250.281 382.17 252.997 380.578Z" fill="#2A2A36"/>
</g>
<path opacity="0.2" d="M245.455 377.36C237.204 372.602 230.545 361.046 230.563 351.565C230.597 342.084 237.291 338.261 245.541 343.018C253.792 347.776 260.468 359.333 260.434 368.814C260.399 378.294 253.705 382.118 245.438 377.36H245.455Z" fill="#E0DDE1"/>
<path d="M242.463 341.634C232.501 335.891 224.406 340.51 224.371 351.945C224.337 363.398 232.38 377.343 242.342 383.086C252.305 388.848 260.4 384.228 260.435 372.775C260.469 361.322 252.426 347.378 242.446 341.634H242.463ZM242.36 379.54C234.109 374.782 227.45 363.225 227.467 353.745C227.502 344.264 234.196 340.441 242.446 345.198C250.697 349.956 257.373 361.513 257.338 370.993C257.304 380.474 250.61 384.298 242.342 379.54H242.36Z" fill="#35353F"/>
<path d="M232.517 338.71C235.803 336.807 240.335 337.067 245.351 339.973C255.314 345.734 263.357 359.679 263.322 371.114C263.322 376.806 261.299 380.803 258.064 382.688L255.176 384.349C258.41 382.464 260.417 378.467 260.434 372.775C260.468 361.322 252.426 347.378 242.445 341.634C237.429 338.745 232.898 338.468 229.611 340.371L232.5 338.71H232.517Z" fill="#2A2A36"/>
<path d="M266.055 382.637L261.869 378.277C261.696 378.104 261.402 378.035 261.039 378.121L265.225 382.481C265.588 382.394 265.882 382.446 266.055 382.637Z" fill="#B5B2CF"/>
<mask id="mask2_1419_3900" style="mask-type:luminance" maskUnits="userSpaceOnUse" x="261" y="378" width="6" height="5">
<path d="M266.055 382.637L261.869 378.277C261.696 378.104 261.402 378.035 261.039 378.121L265.225 382.481C265.588 382.394 265.882 382.446 266.055 382.637Z" fill="white"/>
</mask>
<g mask="url(#mask2_1419_3900)">
<path d="M266.055 382.637L261.869 378.277C261.696 378.104 261.402 378.035 261.039 378.121L265.225 382.481C265.588 382.394 265.882 382.446 266.055 382.637Z" fill="#B5B2CF"/>
</g>
<path d="M259.448 380.595L263.634 384.955C263.461 384.782 263.409 384.488 263.512 384.125C263.72 383.398 264.481 382.654 265.225 382.481L261.039 378.121C260.313 378.312 259.534 379.038 259.327 379.765C259.223 380.128 259.275 380.422 259.448 380.595Z" fill="#B5B2CF"/>
<mask id="mask3_1419_3900" style="mask-type:luminance" maskUnits="userSpaceOnUse" x="259" y="378" width="7" height="7">
<path d="M259.448 380.595L263.634 384.955C263.461 384.782 263.409 384.488 263.512 384.125C263.72 383.398 264.481 382.654 265.225 382.481L261.039 378.121C260.313 378.312 259.534 379.038 259.327 379.765C259.223 380.128 259.275 380.422 259.448 380.595Z" fill="white"/>
</mask>
<g mask="url(#mask3_1419_3900)">
<path d="M265.225 382.481L261.039 378.121C261.039 378.121 260.952 378.139 260.9 378.156L265.086 382.516C265.086 382.516 265.173 382.481 265.225 382.481Z" fill="#B5B2CF"/>
<path d="M265.086 382.533L260.901 378.173C260.243 378.398 259.586 379.038 259.361 379.679L263.547 384.038C263.772 383.398 264.429 382.758 265.086 382.533Z" fill="#CFCDE2"/>
<path d="M263.547 384.038L259.361 379.678C259.361 379.678 259.344 379.748 259.327 379.782C259.223 380.146 259.275 380.44 259.448 380.613L263.634 384.972C263.461 384.799 263.409 384.505 263.512 384.142C263.512 384.107 263.53 384.073 263.547 384.038Z" fill="#B5B2CF"/>
</g>
<path d="M265.225 382.481C264.499 382.671 263.721 383.398 263.513 384.124C263.305 384.851 263.738 385.301 264.464 385.111C265.208 384.92 265.969 384.194 266.177 383.467C266.384 382.74 265.952 382.308 265.208 382.481H265.225Z" fill="#929093"/>
<path d="M292.501 406.166L267.802 382.204C267.439 381.824 266.833 381.685 266.072 381.893L289.993 405.716C291.1 405.439 291.983 405.629 292.484 406.183L292.501 406.166Z" fill="#442397"/>
<mask id="mask4_1419_3900" style="mask-type:luminance" maskUnits="userSpaceOnUse" x="266" y="381" width="27" height="26">
<path d="M292.501 406.166L267.802 382.204C267.439 381.824 266.833 381.685 266.072 381.893L289.993 405.716C291.1 405.439 291.983 405.629 292.484 406.183L292.501 406.166Z" fill="white"/>
</mask>
<g mask="url(#mask4_1419_3900)">
<path d="M292.501 406.166L267.802 382.204C267.439 381.824 266.833 381.685 266.072 381.893L289.993 405.716C291.1 405.439 291.983 405.629 292.484 406.183L292.501 406.166Z" fill="#442397"/>
</g>
<path d="M262.785 387.014L285.271 413.086C284.769 412.549 284.596 411.684 284.908 410.612C285.53 408.449 287.796 406.252 289.993 405.716L266.072 381.893C264.55 382.273 262.976 383.796 262.543 385.301C262.336 386.045 262.44 386.65 262.803 387.014H262.785Z" fill="#442397"/>
<mask id="mask5_1419_3900" style="mask-type:luminance" maskUnits="userSpaceOnUse" x="262" y="381" width="28" height="33">
<path d="M262.785 387.014L285.271 413.086C284.769 412.549 284.596 411.684 284.908 410.612C285.53 408.449 287.796 406.252 289.993 405.716L266.072 381.893C264.55 382.273 262.976 383.796 262.543 385.301C262.336 386.045 262.44 386.65 262.803 387.014H262.785Z" fill="white"/>
</mask>
<g mask="url(#mask5_1419_3900)">
<path d="M289.993 405.698L266.072 381.875C265.985 381.893 265.881 381.927 265.795 381.962L289.595 405.819C289.733 405.768 289.854 405.733 289.993 405.698Z" fill="#442397"/>
<path d="M289.612 405.82L265.811 381.962C264.445 382.412 263.096 383.744 262.629 385.076L285.028 410.3C285.72 408.363 287.657 406.477 289.629 405.82H289.612Z" fill="#5430AF"/>
<path d="M285.012 410.3L262.612 385.076C262.612 385.076 262.561 385.215 262.543 385.284C262.336 386.028 262.44 386.633 262.803 386.997L285.288 413.068C284.787 412.532 284.614 411.667 284.925 410.595C284.96 410.491 284.994 410.387 285.029 410.283L285.012 410.3Z" fill="#442397"/>
</g>
<path d="M289.993 405.698C287.796 406.235 285.53 408.449 284.907 410.594C284.285 412.757 285.565 414.072 287.761 413.535C289.958 412.982 292.241 410.785 292.864 408.622C293.487 406.46 292.207 405.145 289.993 405.698Z" fill="#291069"/>
<path d="M410.018 220.79L412.75 231.828C413.771 234.007 415.691 236.083 418.51 237.831L416.417 227.468C413.287 225.513 411.159 223.212 410.018 220.79Z" fill="#22222D"/>
<path d="M416.434 227.468L418.526 237.831C418.734 237.969 418.959 238.091 419.166 238.212C423.577 240.772 429.233 242.173 435.01 242.433L434.751 232.572C428.316 232.295 422.038 230.738 417.143 227.883C416.901 227.745 416.658 227.606 416.434 227.451V227.468Z" fill="#22222D"/>
<path d="M434.752 232.572L435.011 242.433C438.989 242.606 443.019 242.225 446.756 241.308L447.793 231.326C443.642 232.347 439.162 232.762 434.734 232.589L434.752 232.572Z" fill="#22222D"/>
<path d="M447.809 231.326L446.771 241.308C449.625 240.599 452.306 239.578 454.659 238.229C459.606 235.374 461.629 231.603 462.062 227.883C462.408 224.959 464.795 216.413 464.795 216.413C464.795 220.565 462.062 224.734 456.561 227.918C453.967 229.423 450.975 230.565 447.809 231.343V231.326Z" fill="#22222D"/>
<path d="M417.264 205.046C406.35 211.344 406.281 221.586 417.143 227.883C427.988 234.198 445.648 234.198 456.562 227.883C467.476 221.568 467.545 211.344 456.683 205.046C445.838 198.732 428.178 198.732 417.264 205.046Z" fill="#22222D"/>
<path d="M407.543 213.091V217.157C407.56 221.482 410.414 225.807 416.087 229.111C427.521 235.755 446.114 235.755 457.617 229.111C463.411 225.772 466.299 221.378 466.299 217.001V212.935C466.299 217.312 463.411 221.707 457.617 225.046C446.114 231.689 427.521 231.689 416.087 225.046C410.414 221.741 407.56 217.416 407.543 213.091Z" fill="#2A2A36"/>
<path d="M407.543 213.091V217.157C407.543 218.506 407.837 219.856 408.391 221.17V217.105C407.82 215.79 407.543 214.441 407.543 213.091Z" fill="#2A2A36"/>
<path d="M416.209 200.963C404.707 207.607 404.638 218.385 416.071 225.028C427.504 231.672 446.098 231.672 457.6 225.028C469.119 218.385 469.171 207.607 457.738 200.963C446.305 194.32 427.711 194.32 416.209 200.963Z" fill="#35353F"/>
<path d="M407.543 207.624V211.69C407.56 216.015 410.414 220.34 416.087 223.645C427.521 230.288 446.114 230.288 457.617 223.645C463.411 220.306 466.299 215.911 466.299 211.534V207.469C466.299 211.846 463.411 216.24 457.617 219.579C446.114 226.222 427.521 226.222 416.087 219.579C410.414 216.274 407.56 211.949 407.543 207.624Z" fill="#2A2A36"/>
<path d="M407.543 207.624V211.69C407.543 213.039 407.837 214.389 408.391 215.704V211.638C407.82 210.323 407.543 208.974 407.543 207.624Z" fill="#2A2A36"/>
<path d="M416.209 195.496C404.707 202.14 404.638 212.918 416.071 219.562C427.504 226.205 446.098 226.205 457.6 219.562C469.119 212.918 469.171 202.14 457.738 195.496C446.305 188.853 427.711 188.853 416.209 195.496Z" fill="#35353F"/>
<path d="M407.543 202.157V206.223C407.56 210.548 410.414 214.873 416.087 218.177C427.521 224.821 446.114 224.821 457.617 218.177C463.411 214.838 466.299 210.444 466.299 206.067V202.001C466.299 206.379 463.411 210.773 457.617 214.112C446.114 220.755 427.521 220.755 416.087 214.112C410.414 210.807 407.56 206.482 407.543 202.157Z" fill="#2A2A36"/>
<path d="M407.543 202.157V206.223C407.543 207.572 407.837 208.922 408.391 210.237V206.171C407.82 204.856 407.543 203.507 407.543 202.157Z" fill="#2A2A36"/>
<path d="M416.209 190.047C404.707 196.69 404.638 207.468 416.071 214.112C427.504 220.755 446.098 220.755 457.6 214.112C469.119 207.468 469.171 196.69 457.738 190.047C446.305 183.403 427.711 183.403 416.209 190.047Z" fill="#35353F"/>
<path d="M407.543 196.69V200.756C407.56 205.081 410.414 209.406 416.087 212.71C427.521 219.354 446.114 219.354 457.617 212.71C463.411 209.371 466.299 204.977 466.299 200.6V196.534C466.299 200.911 463.411 205.306 457.617 208.645C446.114 215.288 427.521 215.288 416.087 208.645C410.414 205.34 407.56 201.015 407.543 196.69Z" fill="#2A2A36"/>
<path d="M407.543 196.69V200.756C407.543 202.105 407.837 203.455 408.391 204.77V200.704C407.82 199.389 407.543 198.04 407.543 196.69Z" fill="#2A2A36"/>
<path d="M416.209 184.58C404.707 191.223 404.638 202.001 416.071 208.645C427.504 215.288 446.098 215.288 457.6 208.645C469.119 202.001 469.171 191.223 457.738 184.58C446.305 177.936 427.711 177.936 416.209 184.58Z" fill="#35353F"/>
<path d="M407.543 191.223V195.289C407.56 199.614 410.414 203.939 416.087 207.243C427.521 213.887 446.114 213.887 457.617 207.243C463.411 203.904 466.299 199.51 466.299 195.133V191.067C466.299 195.444 463.411 199.839 457.617 203.178C446.114 209.821 427.521 209.821 416.087 203.178C410.414 199.873 407.56 195.548 407.543 191.223Z" fill="#35353F"/>
<path d="M407.543 191.223V195.289C407.56 199.614 410.414 203.939 416.087 207.243C427.521 213.887 446.114 213.887 457.617 207.243C463.411 203.904 466.299 199.51 466.299 195.133V191.067C466.299 195.444 463.411 199.839 457.617 203.178C446.114 209.821 427.521 209.821 416.087 203.178C410.414 199.873 407.56 195.548 407.543 191.223Z" fill="#35353F"/>
<mask id="mask6_1419_3900" style="mask-type:luminance" maskUnits="userSpaceOnUse" x="407" y="191" width="60" height="22">
<path d="M407.543 191.223V195.289C407.56 199.614 410.414 203.939 416.087 207.243C427.521 213.887 446.114 213.887 457.617 207.243C463.411 203.904 466.299 199.51 466.299 195.133V191.067C466.299 195.444 463.411 199.839 457.617 203.178C446.114 209.821 427.521 209.821 416.087 203.178C410.414 199.873 407.56 195.548 407.543 191.223Z" fill="white"/>
</mask>
<g mask="url(#mask6_1419_3900)">
<path d="M407.543 191.223V195.289C407.543 196.638 407.837 197.988 408.391 199.303V195.237C407.82 193.922 407.543 192.573 407.543 191.223Z" fill="#35353F"/>
<path d="M408.373 195.237V199.302C409.601 202.209 412.178 204.96 416.087 207.243C421.934 210.652 429.665 212.295 437.345 212.226V208.16C429.648 208.247 421.916 206.586 416.07 203.178C412.161 200.911 409.601 198.143 408.373 195.237Z" fill="#35353F"/>
<path d="M437.346 208.16V212.226C444.697 212.157 452.013 210.496 457.617 207.243C463.412 203.904 466.3 199.51 466.3 195.133V191.067C466.3 195.444 463.412 199.839 457.617 203.178C451.996 206.43 444.697 208.091 437.346 208.16Z" fill="#35353F"/>
</g>
<path d="M416.209 179.113C404.707 185.756 404.638 196.534 416.071 203.178C427.504 209.821 446.098 209.821 457.6 203.178C469.119 196.534 469.171 185.756 457.738 179.113C446.305 172.469 427.711 172.469 416.209 179.113Z" fill="#35353F"/>
<path d="M407.543 191.223V195.289C407.56 199.614 410.414 203.939 416.087 207.243C427.521 213.887 446.114 213.887 457.617 207.243C463.411 203.904 466.299 199.51 466.299 195.133V191.067C466.299 195.444 463.411 199.839 457.617 203.178C446.114 209.821 427.521 209.821 416.087 203.178C410.414 199.873 407.56 195.548 407.543 191.223Z" fill="#35353F"/>
<path d="M407.543 185.756V189.822C407.56 194.147 410.414 198.472 416.087 201.776C427.521 208.42 446.114 208.42 457.617 201.776C463.411 198.437 466.299 194.043 466.299 189.666V185.6C466.299 189.977 463.411 194.372 457.617 197.711C446.114 204.354 427.521 204.354 416.087 197.711C410.414 194.406 407.56 190.081 407.543 185.756Z" fill="#35353F"/>
<path d="M407.543 185.756V189.822C407.56 194.147 410.414 198.472 416.087 201.776C427.521 208.42 446.114 208.42 457.617 201.776C463.411 198.437 466.299 194.043 466.299 189.666V185.6C466.299 189.977 463.411 194.372 457.617 197.711C446.114 204.354 427.521 204.354 416.087 197.711C410.414 194.406 407.56 190.081 407.543 185.756Z" fill="#35353F"/>
<mask id="mask7_1419_3900" style="mask-type:luminance" maskUnits="userSpaceOnUse" x="407" y="185" width="60" height="22">
<path d="M407.543 185.756V189.822C407.56 194.147 410.414 198.472 416.087 201.776C427.521 208.42 446.114 208.42 457.617 201.776C463.411 198.437 466.299 194.043 466.299 189.666V185.6C466.299 189.977 463.411 194.372 457.617 197.711C446.114 204.354 427.521 204.354 416.087 197.711C410.414 194.406 407.56 190.081 407.543 185.756Z" fill="white"/>
</mask>
<g mask="url(#mask7_1419_3900)">
<path d="M407.543 185.756V189.822C407.543 191.171 407.837 192.521 408.391 193.835V189.77C407.82 188.455 407.543 187.106 407.543 185.756Z" fill="#35353F"/>
<path d="M408.373 189.77V193.835C409.601 196.742 412.178 199.493 416.087 201.776C421.934 205.167 429.665 206.828 437.345 206.759V202.693C429.648 202.78 421.916 201.119 416.07 197.711C412.161 195.444 409.601 192.676 408.373 189.77Z" fill="#35353F"/>
<path d="M437.346 202.693V206.759C444.697 206.69 452.013 205.029 457.617 201.776C463.412 198.437 466.3 194.043 466.3 189.666V185.6C466.3 189.977 463.412 194.372 457.617 197.711C451.996 200.963 444.697 202.624 437.346 202.693Z" fill="#35353F"/>
</g>
<path d="M416.209 173.646C404.707 180.289 404.638 191.067 416.071 197.711C427.504 204.354 446.098 204.354 457.6 197.711C469.119 191.067 469.171 180.289 457.738 173.646C446.305 167.002 427.711 167.002 416.209 173.646Z" fill="#35353F"/>
<path d="M407.543 185.756V189.822C407.56 194.147 410.414 198.472 416.087 201.776C427.521 208.42 446.114 208.42 457.617 201.776C463.411 198.437 466.299 194.043 466.299 189.666V185.6C466.299 189.977 463.411 194.372 457.617 197.711C446.114 204.354 427.521 204.354 416.087 197.711C410.414 194.406 407.56 190.081 407.543 185.756Z" fill="#35353F"/>
<path d="M407.543 180.307V184.372C407.56 188.697 410.414 193.023 416.087 196.327C427.521 202.97 446.114 202.97 457.617 196.327C463.411 192.988 466.299 188.594 466.299 184.217V180.151C466.299 184.528 463.411 188.922 457.617 192.261C446.114 198.905 427.521 198.905 416.087 192.261C410.414 188.957 407.56 184.632 407.543 180.307Z" fill="#35353F"/>
<path d="M407.543 180.307V184.372C407.56 188.697 410.414 193.023 416.087 196.327C427.521 202.97 446.114 202.97 457.617 196.327C463.411 192.988 466.299 188.594 466.299 184.217V180.151C466.299 184.528 463.411 188.922 457.617 192.261C446.114 198.905 427.521 198.905 416.087 192.261C410.414 188.957 407.56 184.632 407.543 180.307Z" fill="#35353F"/>
<mask id="mask8_1419_3900" style="mask-type:luminance" maskUnits="userSpaceOnUse" x="407" y="180" width="60" height="22">
<path d="M407.543 180.307V184.372C407.56 188.697 410.414 193.023 416.087 196.327C427.521 202.97 446.114 202.97 457.617 196.327C463.411 192.988 466.299 188.594 466.299 184.217V180.151C466.299 184.528 463.411 188.922 457.617 192.261C446.114 198.905 427.521 198.905 416.087 192.261C410.414 188.957 407.56 184.632 407.543 180.307Z" fill="white"/>
</mask>
<g mask="url(#mask8_1419_3900)">
<path d="M407.543 180.307V184.372C407.543 185.722 407.837 187.071 408.391 188.386V184.32C407.82 183.006 407.543 181.656 407.543 180.307Z" fill="#35353F"/>
<path d="M408.373 184.303V188.369C409.601 191.275 412.178 194.026 416.087 196.31C421.934 199.7 429.665 201.361 437.345 201.292V197.227C429.648 197.313 421.916 195.652 416.07 192.244C412.161 189.978 409.601 187.209 408.373 184.303Z" fill="#35353F"/>
<path d="M437.346 197.226V201.292C444.697 201.223 452.013 199.562 457.617 196.31C463.412 192.971 466.3 188.576 466.3 184.199V180.134C466.3 184.511 463.412 188.905 457.617 192.244C451.996 195.496 444.697 197.157 437.346 197.226Z" fill="#35353F"/>
</g>
<path d="M416.209 168.179C404.707 174.822 404.638 185.601 416.071 192.244C427.504 198.887 446.098 198.887 457.6 192.244C469.119 185.601 469.171 174.822 457.738 168.179C446.305 161.535 427.711 161.535 416.209 168.179Z" fill="#35353F"/>
<path d="M407.543 180.307V184.372C407.56 188.697 410.414 193.023 416.087 196.327C427.521 202.97 446.114 202.97 457.617 196.327C463.411 192.988 466.299 188.594 466.299 184.217V180.151C466.299 184.528 463.411 188.922 457.617 192.261C446.114 198.905 427.521 198.905 416.087 192.261C410.414 188.957 407.56 184.632 407.543 180.307Z" fill="#35353F"/>
<path d="M407.543 174.84V178.905C407.56 183.23 410.414 187.555 416.087 190.86C427.521 197.503 446.114 197.503 457.617 190.86C463.411 187.521 466.299 183.127 466.299 178.749V174.684C466.299 179.061 463.411 183.455 457.617 186.794C446.114 193.438 427.521 193.438 416.087 186.794C410.414 183.49 407.56 179.165 407.543 174.84Z" fill="#35353F"/>
<path d="M407.543 174.84V178.905C407.56 183.23 410.414 187.555 416.087 190.86C427.521 197.503 446.114 197.503 457.617 190.86C463.411 187.521 466.299 183.127 466.299 178.749V174.684C466.299 179.061 463.411 183.455 457.617 186.794C446.114 193.438 427.521 193.438 416.087 186.794C410.414 183.49 407.56 179.165 407.543 174.84Z" fill="#35353F"/>
<mask id="mask9_1419_3900" style="mask-type:luminance" maskUnits="userSpaceOnUse" x="407" y="174" width="60" height="22">
<path d="M407.543 174.84V178.905C407.56 183.23 410.414 187.555 416.087 190.86C427.521 197.503 446.114 197.503 457.617 190.86C463.411 187.521 466.299 183.127 466.299 178.749V174.684C466.299 179.061 463.411 183.455 457.617 186.794C446.114 193.438 427.521 193.438 416.087 186.794C410.414 183.49 407.56 179.165 407.543 174.84Z" fill="white"/>
</mask>
<g mask="url(#mask9_1419_3900)">
<path d="M407.543 174.84V178.905C407.543 180.255 407.837 181.604 408.391 182.919V178.853C407.82 177.538 407.543 176.189 407.543 174.84Z" fill="#35353F"/>
<path d="M408.373 178.853V182.919C409.601 185.825 412.178 188.576 416.087 190.86C421.934 194.251 429.665 195.912 437.345 195.842V191.777C429.648 191.863 421.916 190.202 416.07 186.794C412.161 184.528 409.601 181.76 408.373 178.853Z" fill="#35353F"/>
<path d="M437.346 191.759V195.825C444.697 195.756 452.013 194.095 457.617 190.843C463.412 187.504 466.3 183.109 466.3 178.732V174.667C466.3 179.044 463.412 183.438 457.617 186.777C451.996 190.029 444.697 191.69 437.346 191.759Z" fill="#35353F"/>
</g>
<path d="M416.209 162.712C404.707 169.355 404.638 180.133 416.071 186.777C427.504 193.42 446.098 193.42 457.6 186.777C469.119 180.133 469.171 169.355 457.738 162.712C446.305 156.068 427.711 156.068 416.209 162.712Z" fill="#35353F"/>
<path d="M407.543 174.84V178.905C407.56 183.23 410.414 187.555 416.087 190.86C427.521 197.503 446.114 197.503 457.617 190.86C463.411 187.521 466.299 183.127 466.299 178.749V174.684C466.299 179.061 463.411 183.455 457.617 186.794C446.114 193.438 427.521 193.438 416.087 186.794C410.414 183.49 407.56 179.165 407.543 174.84Z" fill="#35353F"/>
<path d="M388.084 155.653C388.482 156.778 401.627 182.175 405.571 195.981C405.796 196.794 406.332 199.06 406.401 199.441C407.179 203.109 409.532 206.707 413.735 209.25C426.88 217.14 446.754 217.105 459.917 209.25C463.843 206.915 466.161 203.662 467.129 200.306C467.32 199.631 467.856 197.175 468.011 196.586C471.903 182.054 485.308 156.674 485.671 155.705C452.427 155.705 421.311 155.653 388.084 155.653Z" fill="#FFDE38"/>
<path d="M381.166 128.734C381.166 138.387 383.622 147.487 387.946 155.394C389.503 158.266 391.302 160.999 393.343 163.525C395.453 165.636 398.064 167.608 401.143 169.407C410.622 174.909 423.283 177.936 436.774 177.936C450.266 177.936 462.944 174.909 472.492 169.407C475.968 167.4 478.874 165.151 481.14 162.729C482.835 160.515 484.357 158.196 485.689 155.774C490.151 147.782 492.677 138.543 492.677 128.751C492.677 97.9559 467.718 72.9739 436.913 72.9739C406.107 72.9739 381.148 97.9559 381.148 128.751L381.166 128.734Z" fill="#FFDE38"/>
<path d="M415.603 186.033C403.755 192.867 403.686 203.974 415.465 210.807C427.227 217.641 446.374 217.641 458.222 210.807C470.07 203.956 470.139 192.867 458.378 186.033C446.599 179.182 427.469 179.182 415.603 186.033Z" fill="#FFB700"/>
<g opacity="0.5">
<path d="M460.211 84.9112C448.311 80.9667 439.611 87.835 440.77 100.274C441.928 112.696 452.531 125.965 464.431 129.91C476.331 133.854 485.032 126.986 483.873 114.547C482.714 102.108 472.111 88.8557 460.211 84.9112Z" fill="#FFD438"/>
</g>
<path d="M434.284 201.085C435.166 201.085 436.1 200.808 437.051 200.254L442.154 197.313C444.333 196.05 446.288 193.455 447.135 190.704L462.425 140.983C462.633 140.325 462.252 139.616 461.595 139.425C460.938 139.218 460.229 139.598 460.038 140.256L444.748 189.978C444.091 192.14 442.534 194.216 440.908 195.168L435.806 198.109C435.062 198.541 434.37 198.697 433.869 198.541C433.557 198.438 433.315 198.213 433.142 197.849L417.852 165.792C417.558 165.169 416.814 164.909 416.191 165.203C415.569 165.497 415.309 166.241 415.603 166.864L430.894 198.922C431.378 199.926 432.156 200.618 433.142 200.929C433.505 201.05 433.903 201.102 434.301 201.102L434.284 201.085Z" fill="#F4F4FB"/>
<path d="M445.458 157.262C447.274 157.262 449.281 156.674 451.322 155.48C458.119 151.553 463.671 141.951 463.671 134.097C463.671 130.014 462.236 126.934 459.607 125.429C456.995 123.924 453.605 124.218 450.076 126.242C443.261 130.17 437.727 139.754 437.727 147.626C437.727 151.709 439.162 154.788 441.791 156.293C442.898 156.934 444.144 157.245 445.458 157.245V157.262ZM455.923 126.986C456.822 126.986 457.635 127.194 458.361 127.609C460.178 128.647 461.163 130.965 461.163 134.114C461.163 141.173 456.182 149.788 450.076 153.335C447.343 154.909 444.853 155.203 443.037 154.148C441.22 153.11 440.235 150.792 440.235 147.643C440.235 140.584 445.216 131.969 451.322 128.422C452.965 127.471 454.539 126.986 455.923 126.986Z" fill="#F4F4FB"/>
<path d="M422.021 170.809C423.854 170.809 425.843 170.22 427.884 169.027C434.682 165.099 440.217 155.498 440.217 147.643C440.217 143.56 438.781 140.481 436.17 138.976C433.558 137.47 430.168 137.765 426.639 139.789C419.842 143.716 414.307 153.318 414.307 161.172C414.307 165.255 415.742 168.335 418.354 169.84C419.461 170.48 420.706 170.791 422.021 170.791V170.809ZM432.485 140.533C433.385 140.533 434.215 140.74 434.924 141.155C436.74 142.193 437.726 144.512 437.726 147.66C437.726 154.719 432.745 163.352 426.639 166.881C423.906 168.456 421.416 168.75 419.599 167.695C417.783 166.656 416.797 164.338 416.797 161.189C416.797 154.131 421.779 145.515 427.884 141.969C429.545 141.017 431.102 140.533 432.485 140.533Z" fill="#F4F4FB"/>
<path d="M433.749 164.027C435.565 164.027 437.571 163.439 439.612 162.245C446.41 158.318 451.945 148.716 451.945 140.861C451.945 136.778 450.509 133.699 447.88 132.194C445.268 130.689 441.878 130.965 438.35 133.007C431.552 136.934 426 146.536 426 154.39C426 158.473 427.436 161.553 430.065 163.058C431.172 163.698 432.417 164.01 433.732 164.01L433.749 164.027ZM444.196 133.768C445.095 133.768 445.908 133.976 446.635 134.391C448.451 135.429 449.437 137.747 449.437 140.896C449.437 147.955 444.455 156.57 438.35 160.117C435.617 161.691 433.126 161.985 431.31 160.93C429.494 159.892 428.508 157.574 428.508 154.425C428.508 147.366 433.489 138.751 439.595 135.204C441.256 134.253 442.812 133.768 444.196 133.768Z" fill="#F4F4FB"/>
<g style="mix-blend-mode:multiply" opacity="0.2">
<path d="M381.166 128.734C381.166 101.035 401.386 78.0429 427.867 73.7004C406.523 86.0703 392.893 112.817 398.393 136.64C402.96 158.681 411.314 182.261 431.084 192.901C444.8 199.614 457.496 197.694 469.552 191.794C468.981 193.49 468.462 195.098 468.064 196.604C467.908 197.175 467.389 199.631 467.182 200.323C466.196 203.68 463.878 206.932 459.969 209.268C446.807 217.122 426.933 217.157 413.787 209.268C409.567 206.724 407.232 203.126 406.454 199.458C406.367 199.06 405.848 196.794 405.623 195.998C401.68 182.21 388.517 156.795 388.137 155.671C388.085 155.584 388.033 155.48 387.981 155.394C383.657 147.487 381.201 138.387 381.201 128.734H381.166Z" fill="#FFC400"/>
</g>
<path style="mix-blend-mode:hard-light" opacity="0.6" d="M123.082 261.636V385.214L244.573 459.763V336.185L123.082 261.636Z" fill="url(#paint36_linear_1419_3900)"/>
<path d="M127.994 278.989V382.567L128.271 382.723L239.505 450.991V449.624L129.153 381.927V279.681L127.994 278.989Z" fill="#1F2846"/>
<path d="M211.295 333.226V423.76L230.148 435.334V344.8L211.295 333.226Z" fill="url(#paint37_linear_1419_3900)"/>
<path d="M185.645 346.219V408.017L204.481 419.591V357.81L185.645 346.219Z" fill="url(#paint38_linear_1419_3900)"/>
<path d="M159.977 318.521V392.273L178.83 403.847V330.095L159.977 318.521Z" fill="url(#paint39_linear_1419_3900)"/>
<path d="M134.342 336.825V376.547L153.178 388.104V348.381L134.342 336.825Z" fill="url(#paint40_linear_1419_3900)"/>
<defs>
<filter id="filter0_d_1419_3900" x="45.7596" y="542.315" width="90.0296" height="65.2862" filterUnits="userSpaceOnUse" color-interpolation-filters="sRGB">
<feFlood flood-opacity="0" result="BackgroundImageFix"/>
<feColorMatrix in="SourceAlpha" type="matrix" values="0 0 0 0 0 0 0 0 0 0 0 0 0 0 0 0 0 0 127 0" result="hardAlpha"/>
<feOffset/>
<feGaussianBlur stdDeviation="6.67"/>
<feColorMatrix type="matrix" values="0 0 0 0 0.670588 0 0 0 0 0.882353 0 0 0 0 1 0 0 0 0.75 0"/>
<feBlend mode="normal" in2="BackgroundImageFix" result="effect1_dropShadow_1419_3900"/>
<feBlend mode="normal" in="SourceGraphic" in2="effect1_dropShadow_1419_3900" result="shape"/>
</filter>
<filter id="filter1_d_1419_3900" x="21.2674" y="653.506" width="90.0296" height="65.2862" filterUnits="userSpaceOnUse" color-interpolation-filters="sRGB">
<feFlood flood-opacity="0" result="BackgroundImageFix"/>
<feColorMatrix in="SourceAlpha" type="matrix" values="0 0 0 0 0 0 0 0 0 0 0 0 0 0 0 0 0 0 127 0" result="hardAlpha"/>
<feOffset/>
<feGaussianBlur stdDeviation="6.67"/>
<feColorMatrix type="matrix" values="0 0 0 0 0.670588 0 0 0 0 0.882353 0 0 0 0 1 0 0 0 0.75 0"/>
<feBlend mode="normal" in2="BackgroundImageFix" result="effect1_dropShadow_1419_3900"/>
<feBlend mode="normal" in="SourceGraphic" in2="effect1_dropShadow_1419_3900" result="shape"/>
</filter>
<filter id="filter2_d_1419_3900" x="252.254" y="686.857" width="59.012" height="46.3941" filterUnits="userSpaceOnUse" color-interpolation-filters="sRGB">
<feFlood flood-opacity="0" result="BackgroundImageFix"/>
<feColorMatrix in="SourceAlpha" type="matrix" values="0 0 0 0 0 0 0 0 0 0 0 0 0 0 0 0 0 0 127 0" result="hardAlpha"/>
<feOffset/>
<feGaussianBlur stdDeviation="6.67"/>
<feColorMatrix type="matrix" values="0 0 0 0 0.670588 0 0 0 0 0.882353 0 0 0 0 1 0 0 0 0.75 0"/>
<feBlend mode="normal" in2="BackgroundImageFix" result="effect1_dropShadow_1419_3900"/>
<feBlend mode="normal" in="SourceGraphic" in2="effect1_dropShadow_1419_3900" result="shape"/>
</filter>
<filter id="filter3_d_1419_3900" x="660.347" y="473.061" width="117.022" height="81.7586" filterUnits="userSpaceOnUse" color-interpolation-filters="sRGB">
<feFlood flood-opacity="0" result="BackgroundImageFix"/>
<feColorMatrix in="SourceAlpha" type="matrix" values="0 0 0 0 0 0 0 0 0 0 0 0 0 0 0 0 0 0 127 0" result="hardAlpha"/>
<feOffset/>
<feGaussianBlur stdDeviation="6.67"/>
<feColorMatrix type="matrix" values="0 0 0 0 0.670588 0 0 0 0 0.882353 0 0 0 0 1 0 0 0 0.75 0"/>
<feBlend mode="normal" in2="BackgroundImageFix" result="effect1_dropShadow_1419_3900"/>
<feBlend mode="normal" in="SourceGraphic" in2="effect1_dropShadow_1419_3900" result="shape"/>
</filter>
<filter id="filter4_d_1419_3900" x="141.09" y="196.853" width="72.3382" height="54.5404" filterUnits="userSpaceOnUse" color-interpolation-filters="sRGB">
<feFlood flood-opacity="0" result="BackgroundImageFix"/>
<feColorMatrix in="SourceAlpha" type="matrix" values="0 0 0 0 0 0 0 0 0 0 0 0 0 0 0 0 0 0 127 0" result="hardAlpha"/>
<feOffset/>
<feGaussianBlur stdDeviation="6.67"/>
<feColorMatrix type="matrix" values="0 0 0 0 0.670588 0 0 0 0 0.882353 0 0 0 0 1 0 0 0 0.75 0"/>
<feBlend mode="normal" in2="BackgroundImageFix" result="effect1_dropShadow_1419_3900"/>
<feBlend mode="normal" in="SourceGraphic" in2="effect1_dropShadow_1419_3900" result="shape"/>
</filter>
<filter id="filter5_d_1419_3900" x="646.984" y="333.424" width="61.1136" height="47.6873" filterUnits="userSpaceOnUse" color-interpolation-filters="sRGB">
<feFlood flood-opacity="0" result="BackgroundImageFix"/>
<feColorMatrix in="SourceAlpha" type="matrix" values="0 0 0 0 0 0 0 0 0 0 0 0 0 0 0 0 0 0 127 0" result="hardAlpha"/>
<feOffset/>
<feGaussianBlur stdDeviation="6.67"/>
<feColorMatrix type="matrix" values="0 0 0 0 0.670588 0 0 0 0 0.882353 0 0 0 0 1 0 0 0 0.75 0"/>
<feBlend mode="normal" in2="BackgroundImageFix" result="effect1_dropShadow_1419_3900"/>
<feBlend mode="normal" in="SourceGraphic" in2="effect1_dropShadow_1419_3900" result="shape"/>
</filter>
<filter id="filter6_d_1419_3900" x="577.084" y="321.383" width="72.3382" height="54.5404" filterUnits="userSpaceOnUse" color-interpolation-filters="sRGB">
<feFlood flood-opacity="0" result="BackgroundImageFix"/>
<feColorMatrix in="SourceAlpha" type="matrix" values="0 0 0 0 0 0 0 0 0 0 0 0 0 0 0 0 0 0 127 0" result="hardAlpha"/>
<feOffset/>
<feGaussianBlur stdDeviation="6.67"/>
<feColorMatrix type="matrix" values="0 0 0 0 0.670588 0 0 0 0 0.882353 0 0 0 0 1 0 0 0 0.75 0"/>
<feBlend mode="normal" in2="BackgroundImageFix" result="effect1_dropShadow_1419_3900"/>
<feBlend mode="normal" in="SourceGraphic" in2="effect1_dropShadow_1419_3900" result="shape"/>
</filter>
<filter id="filter7_d_1419_3900" x="295.43" y="137.015" width="292.44" height="188.728" filterUnits="userSpaceOnUse" color-interpolation-filters="sRGB">
<feFlood flood-opacity="0" result="BackgroundImageFix"/>
<feColorMatrix in="SourceAlpha" type="matrix" values="0 0 0 0 0 0 0 0 0 0 0 0 0 0 0 0 0 0 127 0" result="hardAlpha"/>
<feOffset/>
<feGaussianBlur stdDeviation="6.67"/>
<feColorMatrix type="matrix" values="0 0 0 0 0.670588 0 0 0 0 0.882353 0 0 0 0 1 0 0 0 0.75 0"/>
<feBlend mode="normal" in2="BackgroundImageFix" result="effect1_dropShadow_1419_3900"/>
<feBlend mode="normal" in="SourceGraphic" in2="effect1_dropShadow_1419_3900" result="shape"/>
</filter>
<filter id="filter8_d_1419_3900" x="103.871" y="299.069" width="292.44" height="188.728" filterUnits="userSpaceOnUse" color-interpolation-filters="sRGB">
<feFlood flood-opacity="0" result="BackgroundImageFix"/>
<feColorMatrix in="SourceAlpha" type="matrix" values="0 0 0 0 0 0 0 0 0 0 0 0 0 0 0 0 0 0 127 0" result="hardAlpha"/>
<feOffset/>
<feGaussianBlur stdDeviation="6.67"/>
<feColorMatrix type="matrix" values="0 0 0 0 0.670588 0 0 0 0 0.882353 0 0 0 0 1 0 0 0 0.75 0"/>
<feBlend mode="normal" in2="BackgroundImageFix" result="effect1_dropShadow_1419_3900"/>
<feBlend mode="normal" in="SourceGraphic" in2="effect1_dropShadow_1419_3900" result="shape"/>
</filter>
<filter id="filter9_d_1419_3900" x="346.455" y="413.824" width="292.44" height="188.728" filterUnits="userSpaceOnUse" color-interpolation-filters="sRGB">
<feFlood flood-opacity="0" result="BackgroundImageFix"/>
<feColorMatrix in="SourceAlpha" type="matrix" values="0 0 0 0 0 0 0 0 0 0 0 0 0 0 0 0 0 0 127 0" result="hardAlpha"/>
<feOffset/>
<feGaussianBlur stdDeviation="6.67"/>
<feColorMatrix type="matrix" values="0 0 0 0 0.670588 0 0 0 0 0.882353 0 0 0 0 1 0 0 0 0.75 0"/>
<feBlend mode="normal" in2="BackgroundImageFix" result="effect1_dropShadow_1419_3900"/>
<feBlend mode="normal" in="SourceGraphic" in2="effect1_dropShadow_1419_3900" result="shape"/>
</filter>
<filter id="filter10_f_1419_3900" x="514.875" y="435.897" width="85.7215" height="60.0669" filterUnits="userSpaceOnUse" color-interpolation-filters="sRGB">
<feFlood flood-opacity="0" result="BackgroundImageFix"/>
<feBlend mode="normal" in="SourceGraphic" in2="BackgroundImageFix" result="shape"/>
<feGaussianBlur stdDeviation="0.8" result="effect1_foregroundBlur_1419_3900"/>
</filter>
<filter id="filter11_f_1419_3900" x="514.875" y="447.505" width="85.7215" height="60.0669" filterUnits="userSpaceOnUse" color-interpolation-filters="sRGB">
<feFlood flood-opacity="0" result="BackgroundImageFix"/>
<feBlend mode="normal" in="SourceGraphic" in2="BackgroundImageFix" result="shape"/>
<feGaussianBlur stdDeviation="0.8" result="effect1_foregroundBlur_1419_3900"/>
</filter>
<linearGradient id="paint0_linear_1419_3900" x1="97.9691" y1="686.14" x2="34.629" y2="686.14" gradientUnits="userSpaceOnUse">
<stop stop-color="#66BBF2"/>
<stop offset="1" stop-color="#7AF4FD"/>
</linearGradient>
<linearGradient id="paint1_linear_1419_3900" x1="297.934" y1="710.049" x2="265.589" y2="710.049" gradientUnits="userSpaceOnUse">
<stop stop-color="#66BBF2"/>
<stop offset="1" stop-color="#7AF4FD"/>
</linearGradient>
<linearGradient id="paint2_linear_1419_3900" x1="764.025" y1="513.93" x2="673.685" y2="513.93" gradientUnits="userSpaceOnUse">
<stop stop-color="#66BBF2"/>
<stop offset="1" stop-color="#7AF4FD"/>
</linearGradient>
<linearGradient id="paint3_linear_1419_3900" x1="200.088" y1="224.129" x2="154.408" y2="224.129" gradientUnits="userSpaceOnUse">
<stop stop-color="#66BBF2"/>
<stop offset="1" stop-color="#7AF4FD"/>
</linearGradient>
<linearGradient id="paint4_linear_1419_3900" x1="636.082" y1="348.658" x2="590.42" y2="348.658" gradientUnits="userSpaceOnUse">
<stop stop-color="#66BBF2"/>
<stop offset="1" stop-color="#7AF4FD"/>
</linearGradient>
<linearGradient id="paint5_linear_1419_3900" x1="193.878" y1="371.858" x2="193.878" y2="236.81" gradientUnits="userSpaceOnUse">
<stop stop-color="#9AFFFF" stop-opacity="0"/>
<stop offset="1" stop-color="#B0FFFD"/>
</linearGradient>
<linearGradient id="paint6_linear_1419_3900" x1="234.941" y1="237.519" x2="228.368" y2="237.519" gradientUnits="userSpaceOnUse">
<stop stop-color="#9AFFFF"/>
<stop offset="1" stop-color="#B0FFFD"/>
</linearGradient>
<linearGradient id="paint7_linear_1419_3900" x1="58.9817" y1="526.975" x2="58.9817" y2="391.927" gradientUnits="userSpaceOnUse">
<stop stop-color="#9AFFFF" stop-opacity="0"/>
<stop offset="1" stop-color="#B0FFFD"/>
</linearGradient>
<linearGradient id="paint8_linear_1419_3900" x1="100.045" y1="392.654" x2="93.4892" y2="392.654" gradientUnits="userSpaceOnUse">
<stop stop-color="#9AFFFF"/>
<stop offset="1" stop-color="#B0FFFD"/>
</linearGradient>
<linearGradient id="paint9_linear_1419_3900" x1="447.999" y1="253.28" x2="447.999" y2="388.328" gradientUnits="userSpaceOnUse">
<stop stop-color="#9AFFFF" stop-opacity="0"/>
<stop offset="1" stop-color="#B0FFFD"/>
</linearGradient>
<linearGradient id="paint10_linear_1419_3900" x1="406.936" y1="387.602" x2="413.509" y2="387.602" gradientUnits="userSpaceOnUse">
<stop stop-color="#9AFFFF"/>
<stop offset="1" stop-color="#B0FFFD"/>
</linearGradient>
<linearGradient id="paint11_linear_1419_3900" x1="103" y1="387.429" x2="273.51" y2="369.514" gradientUnits="userSpaceOnUse">
<stop stop-color="#B0FFFD"/>
<stop offset="1" stop-color="#9AFFFF" stop-opacity="0"/>
</linearGradient>
<linearGradient id="paint12_linear_1419_3900" x1="103.329" y1="357.741" x2="96.7568" y2="357.741" gradientUnits="userSpaceOnUse">
<stop stop-color="#9AFFFF"/>
<stop offset="1" stop-color="#B0FFFD"/>
</linearGradient>
<linearGradient id="paint13_linear_1419_3900" x1="-nan" y1="-nan" x2="-nan" y2="-nan" gradientUnits="userSpaceOnUse">
<stop stop-color="#9AFFFF" stop-opacity="0"/>
<stop offset="1" stop-color="#B0FFFD"/>
</linearGradient>
<linearGradient id="paint14_linear_1419_3900" x1="-nan" y1="-nan" x2="-nan" y2="-nan" gradientUnits="userSpaceOnUse">
<stop stop-color="#9AFFFF" stop-opacity="0"/>
<stop offset="1" stop-color="#B0FFFD"/>
</linearGradient>
<linearGradient id="paint15_linear_1419_3900" x1="-nan" y1="-nan" x2="-nan" y2="-nan" gradientUnits="userSpaceOnUse">
<stop stop-color="#9AFFFF" stop-opacity="0"/>
<stop offset="1" stop-color="#B0FFFD"/>
</linearGradient>
<linearGradient id="paint16_linear_1419_3900" x1="-nan" y1="-nan" x2="-nan" y2="-nan" gradientUnits="userSpaceOnUse">
<stop stop-color="#9AFFFF" stop-opacity="0"/>
<stop offset="1" stop-color="#B0FFFD"/>
</linearGradient>
<linearGradient id="paint17_linear_1419_3900" x1="-nan" y1="-nan" x2="-nan" y2="-nan" gradientUnits="userSpaceOnUse">
<stop stop-color="#9AFFFF" stop-opacity="0"/>
<stop offset="1" stop-color="#B0FFFD"/>
</linearGradient>
<linearGradient id="paint18_linear_1419_3900" x1="-nan" y1="-nan" x2="-nan" y2="-nan" gradientUnits="userSpaceOnUse">
<stop stop-color="#9AFFFF" stop-opacity="0"/>
<stop offset="1" stop-color="#B0FFFD"/>
</linearGradient>
<linearGradient id="paint19_linear_1419_3900" x1="-nan" y1="-nan" x2="-nan" y2="-nan" gradientUnits="userSpaceOnUse">
<stop stop-color="#9AFFFF" stop-opacity="0"/>
<stop offset="1" stop-color="#B0FFFD"/>
</linearGradient>
<linearGradient id="paint20_linear_1419_3900" x1="-nan" y1="-nan" x2="-nan" y2="-nan" gradientUnits="userSpaceOnUse">
<stop stop-color="#9AFFFF" stop-opacity="0"/>
<stop offset="1" stop-color="#B0FFFD"/>
</linearGradient>
<linearGradient id="paint21_linear_1419_3900" x1="-nan" y1="-nan" x2="-nan" y2="-nan" gradientUnits="userSpaceOnUse">
<stop stop-color="#9AFFFF" stop-opacity="0"/>
<stop offset="1" stop-color="#B0FFFD"/>
</linearGradient>
<linearGradient id="paint22_linear_1419_3900" x1="-nan" y1="-nan" x2="-nan" y2="-nan" gradientUnits="userSpaceOnUse">
<stop stop-color="#9AFFFF" stop-opacity="0"/>
<stop offset="1" stop-color="#B0FFFD"/>
</linearGradient>
<linearGradient id="paint23_linear_1419_3900" x1="-nan" y1="-nan" x2="-nan" y2="-nan" gradientUnits="userSpaceOnUse">
<stop stop-color="#9AFFFF" stop-opacity="0"/>
<stop offset="1" stop-color="#B0FFFD"/>
</linearGradient>
<linearGradient id="paint24_linear_1419_3900" x1="489.026" y1="516.958" x2="394.644" y2="384.716" gradientUnits="userSpaceOnUse">
<stop stop-color="#5082C1"/>
<stop offset="0.17" stop-color="#5790C8"/>
<stop offset="0.49" stop-color="#6CB7DB"/>
<stop offset="0.94" stop-color="#8CF5FA"/>
<stop offset="1" stop-color="#92FFFF"/>
</linearGradient>
<linearGradient id="paint25_linear_1419_3900" x1="297.467" y1="622.267" x2="203.068" y2="490.024" gradientUnits="userSpaceOnUse">
<stop stop-color="#5082C1"/>
<stop offset="0.17" stop-color="#5790C8"/>
<stop offset="0.49" stop-color="#6CB7DB"/>
<stop offset="0.94" stop-color="#8CF5FA"/>
<stop offset="1" stop-color="#92FFFF"/>
</linearGradient>
<linearGradient id="paint26_linear_1419_3900" x1="540.051" y1="669.826" x2="445.652" y2="537.601" gradientUnits="userSpaceOnUse">
<stop stop-color="#5082C1"/>
<stop offset="0.17" stop-color="#5790C8"/>
<stop offset="0.49" stop-color="#6CB7DB"/>
<stop offset="0.94" stop-color="#8CF5FA"/>
<stop offset="1" stop-color="#92FFFF"/>
</linearGradient>
<linearGradient id="paint27_linear_1419_3900" x1="422.192" y1="98.4056" x2="246.909" y2="98.4056" gradientUnits="userSpaceOnUse">
<stop stop-color="#02FFFA"/>
<stop offset="1" stop-color="#D8FFFA" stop-opacity="0"/>
</linearGradient>
<linearGradient id="paint28_linear_1419_3900" x1="417.054" y1="126.398" x2="256.594" y2="126.398" gradientUnits="userSpaceOnUse">
<stop stop-color="#02FFFA"/>
<stop offset="1" stop-color="#D8FFFA"/>
</linearGradient>
<linearGradient id="paint29_linear_1419_3900" x1="59.1203" y1="327.586" x2="59.1203" y2="366.46" gradientUnits="userSpaceOnUse">
<stop stop-color="#D8FFFA" stop-opacity="0.5"/>
<stop offset="1" stop-color="#02FFFA"/>
</linearGradient>
<linearGradient id="paint30_linear_1419_3900" x1="430.079" y1="415.629" x2="430.079" y2="454.503" gradientUnits="userSpaceOnUse">
<stop stop-color="#D8FFFA" stop-opacity="0.5"/>
<stop offset="1" stop-color="#02FFFA"/>
</linearGradient>
<linearGradient id="paint31_linear_1419_3900" x1="506.133" y1="92.0737" x2="506.133" y2="144.287" gradientUnits="userSpaceOnUse">
<stop stop-color="#D8FFFA" stop-opacity="0.5"/>
<stop offset="1" stop-color="#02FFFA"/>
</linearGradient>
<linearGradient id="paint32_linear_1419_3900" x1="629.527" y1="211.655" x2="629.527" y2="237.658" gradientUnits="userSpaceOnUse">
<stop stop-color="#D8FFFA" stop-opacity="0.5"/>
<stop offset="1" stop-color="#02FFFA"/>
</linearGradient>
<linearGradient id="paint33_linear_1419_3900" x1="686.209" y1="562.476" x2="686.209" y2="588.479" gradientUnits="userSpaceOnUse">
<stop stop-color="#D8FFFA" stop-opacity="0.5"/>
<stop offset="1" stop-color="#02FFFA"/>
</linearGradient>
<linearGradient id="paint34_linear_1419_3900" x1="677.542" y1="281.636" x2="677.542" y2="320.51" gradientUnits="userSpaceOnUse">
<stop stop-color="#D8FFFA" stop-opacity="0.5"/>
<stop offset="1" stop-color="#02FFFA"/>
</linearGradient>
<linearGradient id="paint35_linear_1419_3900" x1="557.745" y1="350.181" x2="557.745" y2="531.594" gradientUnits="userSpaceOnUse">
<stop stop-color="#D8FFFA" stop-opacity="0.5"/>
<stop offset="1" stop-color="#02FFFA"/>
</linearGradient>
<linearGradient id="paint36_linear_1419_3900" x1="183.828" y1="272.051" x2="183.828" y2="457.046" gradientUnits="userSpaceOnUse">
<stop stop-color="#D8FFFA" stop-opacity="0.5"/>
<stop offset="1" stop-color="#02FFFA"/>
</linearGradient>
<linearGradient id="paint37_linear_1419_3900" x1="220.739" y1="338.589" x2="220.739" y2="433.933" gradientUnits="userSpaceOnUse">
<stop stop-color="#02FFFA"/>
<stop offset="1" stop-color="#D8FFFA"/>
</linearGradient>
<linearGradient id="paint38_linear_1419_3900" x1="195.071" y1="350.077" x2="195.071" y2="418.57" gradientUnits="userSpaceOnUse">
<stop stop-color="#02FFFA"/>
<stop offset="1" stop-color="#D8FFFA"/>
</linearGradient>
<linearGradient id="paint39_linear_1419_3900" x1="169.403" y1="323.019" x2="169.403" y2="402.671" gradientUnits="userSpaceOnUse">
<stop stop-color="#02FFFA"/>
<stop offset="1" stop-color="#D8FFFA"/>
</linearGradient>
<linearGradient id="paint40_linear_1419_3900" x1="143.768" y1="339.524" x2="143.768" y2="387.394" gradientUnits="userSpaceOnUse">
<stop stop-color="#02FFFA"/>
<stop offset="1" stop-color="#D8FFFA"/>
</linearGradient>
</defs>
</svg>
