<svg width="714" height="603" viewBox="0 0 714 603" fill="none" xmlns="http://www.w3.org/2000/svg">
<path d="M11.6786 301.773C11.586 301.773 11.4802 301.747 11.4008 301.694C11.2289 301.588 11.123 301.403 11.123 301.204V288.422C11.123 288.224 11.2289 288.038 11.4008 287.933L22.5115 281.515C22.6834 281.409 22.9083 281.409 23.0802 281.515C23.2522 281.621 23.358 281.806 23.358 282.005V294.787C23.358 294.985 23.2522 295.171 23.0802 295.276L11.9696 301.694C11.877 301.747 11.7844 301.773 11.6918 301.773H11.6786ZM12.2473 288.753V300.225L22.2337 294.456V282.984L12.2473 288.753Z" fill="#1F2846"/>
<path d="M11.6759 301.773C11.5833 301.773 11.4775 301.747 11.3981 301.694L0.28752 295.276C0.11557 295.171 0.00976562 294.985 0.00976562 294.787V282.005C0.00976562 281.806 0.11557 281.621 0.28752 281.515C0.45947 281.409 0.684318 281.409 0.856268 281.515L11.9669 287.933C12.1389 288.038 12.2447 288.224 12.2447 288.422V301.204C12.2447 301.403 12.1389 301.588 11.9669 301.694C11.8743 301.747 11.7817 301.773 11.6891 301.773H11.6759ZM1.13406 294.456L11.1204 300.225V288.753L1.13406 282.984V294.456Z" fill="#1F2846"/>
<path d="M11.6759 288.992C11.5833 288.992 11.4775 288.965 11.3981 288.912L0.28752 282.495C0.11557 282.389 0.00976562 282.204 0.00976562 282.005C0.00976562 281.807 0.11557 281.621 0.28752 281.516L11.3981 275.098C11.5701 274.992 11.795 274.992 11.9669 275.098L23.0775 281.516C23.2495 281.621 23.3553 281.807 23.3553 282.005C23.3553 282.204 23.2495 282.389 23.0775 282.495L11.9669 288.912C11.8743 288.965 11.7817 288.992 11.6891 288.992H11.6759ZM1.70281 282.005L11.6891 287.774L21.6755 282.005L11.6891 276.236L1.70281 282.005Z" fill="#1F2846"/>
<g opacity="0.5">
<path d="M22.4441 295.422C22.2457 295.422 22.0606 295.316 21.9548 295.144C21.8886 295.025 21.8622 294.906 21.8886 294.787L11.6906 288.899L0.857792 295.157C0.580026 295.316 0.236131 295.224 0.0774079 294.946C-0.0813153 294.668 0.0112781 294.324 0.289044 294.165L11.3997 287.747C11.5716 287.642 11.7965 287.642 11.9684 287.747L23.0791 294.165C23.251 294.271 23.3568 294.456 23.3568 294.655C23.3568 294.853 23.251 295.038 23.0791 295.144L22.7219 295.343C22.6294 295.396 22.5367 295.422 22.4441 295.422Z" fill="#1F2846"/>
</g>
<g opacity="0.5">
<path d="M11.6762 288.793C11.3588 288.793 11.1074 288.541 11.1074 288.224V275.574C11.1074 275.256 11.3588 275.005 11.6762 275.005C11.9937 275.005 12.245 275.256 12.245 275.574V288.224C12.245 288.541 11.9937 288.793 11.6762 288.793Z" fill="#1F2846"/>
</g>
<path d="M700.203 171.259C700.097 171.259 699.978 171.232 699.886 171.179C699.687 171.06 699.568 170.849 699.568 170.624V156.174C699.568 155.949 699.687 155.738 699.886 155.618L712.451 148.354C712.65 148.235 712.888 148.235 713.086 148.354C713.285 148.473 713.404 148.685 713.404 148.91V163.359C713.404 163.584 713.285 163.796 713.086 163.915L700.521 171.166C700.428 171.219 700.309 171.246 700.203 171.246V171.259ZM700.838 156.531V169.499L712.121 162.976V150.008L700.838 156.531Z" fill="#1F2846"/>
<path d="M700.204 171.258C700.099 171.258 699.98 171.232 699.887 171.179L687.321 163.928C687.123 163.809 687.004 163.597 687.004 163.372V148.922C687.004 148.697 687.123 148.486 687.321 148.367C687.52 148.248 687.758 148.248 687.956 148.367L700.522 155.631C700.72 155.75 700.839 155.962 700.839 156.187V170.636C700.839 170.861 700.72 171.073 700.522 171.192C700.429 171.245 700.31 171.272 700.204 171.272V171.258ZM688.274 162.988L699.556 169.512V156.544L688.274 150.021V162.988Z" fill="#1F2846"/>
<path d="M700.204 156.796C700.099 156.796 699.98 156.769 699.887 156.717L687.321 149.452C687.123 149.333 687.004 149.121 687.004 148.896C687.004 148.671 687.123 148.46 687.321 148.341L699.887 141.089C700.085 140.97 700.323 140.97 700.522 141.089L713.087 148.341C713.286 148.46 713.405 148.671 713.405 148.896C713.405 149.121 713.286 149.333 713.087 149.452L700.522 156.717C700.429 156.769 700.31 156.796 700.204 156.796ZM688.922 148.91L700.204 155.433L711.487 148.91L700.204 142.386L688.922 148.91Z" fill="#1F2846"/>
<g opacity="0.5">
<path d="M712.372 164.073C712.147 164.073 711.936 163.954 711.817 163.756C711.737 163.623 711.724 163.491 711.737 163.346L700.203 156.69L687.955 163.769C687.651 163.941 687.254 163.848 687.082 163.531C686.91 163.226 687.016 162.83 687.32 162.657L699.886 155.393C700.084 155.274 700.323 155.274 700.521 155.393L713.087 162.657C713.285 162.777 713.404 162.988 713.404 163.213C713.404 163.438 713.285 163.65 713.087 163.769L712.69 163.994C712.584 164.047 712.478 164.073 712.372 164.073Z" fill="#1F2846"/>
</g>
<g opacity="0.5">
<path d="M700.203 156.585C699.846 156.585 699.568 156.293 699.568 155.949V141.659C699.568 141.301 699.859 141.023 700.203 141.023C700.547 141.023 700.838 141.315 700.838 141.659V155.949C700.838 156.307 700.547 156.585 700.203 156.585Z" fill="#1F2846"/>
</g>
<path d="M446.938 573.406L446.633 573.223L228.518 446.716L229.128 445.677L446.938 572L667.554 442.192L553.739 376.523L554.349 375.423L669.933 442.192L669.018 442.742L446.938 573.406Z" fill="#1F2846"/>
<path d="M439.619 594.99L439.314 594.806C436.996 593.461 209.06 460.412 205.096 458.945L205.279 458.456L205.157 457.783C206.621 457.783 333.306 531.584 439.558 593.584L657.917 464.692L525.681 386L526.291 384.961L660.296 464.692L659.442 465.182L439.619 594.929V594.99Z" fill="#1F2846"/>
<path d="M466.944 597.069L466.639 596.885L226.139 454.787L226.749 453.748L466.944 595.724L687.56 466.343L568.865 398.596L569.475 397.557L690 466.343L689.085 466.833L466.944 597.069Z" fill="#1F2846"/>
<path d="M505.37 538.677H504.211V515.443L504.516 515.259L573.134 475.516L573.744 476.555L505.37 516.115V538.677Z" fill="#1F2846"/>
<path d="M543.125 567.842H514.885V569.065H543.125V567.842Z" fill="#1F2846"/>
<path d="M549.529 572.367C547.944 572.367 546.358 572 545.138 571.266C543.857 570.532 543.125 569.493 543.125 568.392C543.125 567.292 543.857 566.252 545.138 565.519C547.639 564.112 551.481 564.112 553.982 565.519C555.263 566.252 555.995 567.292 555.995 568.392C555.995 569.493 555.263 570.532 553.982 571.266C552.762 572 551.176 572.367 549.59 572.367H549.529ZM545.687 566.558C544.772 567.108 544.284 567.72 544.284 568.392C544.284 569.065 544.772 569.738 545.687 570.227C547.822 571.45 551.237 571.45 553.311 570.227C554.226 569.676 554.714 569.065 554.714 568.392C554.714 567.72 554.226 567.047 553.311 566.558C551.237 565.335 547.822 565.335 545.687 566.558Z" fill="#1F2846"/>
<path d="M458.343 536.23H457.123V566.13H458.343V536.23Z" fill="#1F2846"/>
<path d="M458.1 536.598C456.514 536.598 454.928 536.231 453.708 535.498C452.427 534.764 451.695 533.724 451.695 532.624C451.695 531.523 452.427 530.484 453.708 529.75C456.209 528.344 460.052 528.344 462.552 529.75C463.833 530.484 464.565 531.523 464.565 532.624C464.565 533.724 463.833 534.764 462.552 535.498C461.332 536.231 459.747 536.598 458.161 536.598H458.1ZM454.318 530.728C453.403 531.279 452.915 531.89 452.915 532.563C452.915 533.235 453.403 533.908 454.318 534.397C456.453 535.62 459.869 535.62 461.942 534.397C462.857 533.847 463.345 533.235 463.345 532.563C463.345 531.89 462.857 531.218 461.942 530.728C459.869 529.505 456.392 529.505 454.318 530.728Z" fill="#1F2846"/>
<path d="M569.659 472.091C566.731 473.803 566.731 476.554 569.659 478.266C572.586 479.978 577.344 479.978 580.272 478.266C583.199 476.554 583.199 473.803 580.272 472.091C577.344 470.379 572.586 470.379 569.659 472.091Z" fill="#1F2846"/>
<path d="M622.905 440.235V441.336C622.905 442.253 621.563 443.048 619.978 443.048H618.087C616.867 443.048 615.708 442.62 615.281 441.886L612.109 436.75L620.954 438.584C622.112 438.829 622.905 439.501 622.905 440.174V440.235Z" fill="#1F2846"/>
<path d="M667.921 438.889V439.99C667.921 440.907 666.579 441.702 664.993 441.702H663.102C661.883 441.702 660.724 441.274 660.297 440.54L657.125 435.404L665.969 437.239C667.128 437.483 667.921 438.156 667.921 438.828V438.889Z" fill="#1F2846"/>
<path d="M395.947 546.442V545.219C395.947 544.18 397.472 543.263 399.302 543.263H401.437C402.84 543.263 404.12 543.752 404.608 544.547L408.207 550.294L398.204 548.215C396.862 547.91 396.008 547.237 396.008 546.381L395.947 546.442Z" fill="#1F2846"/>
<path d="M420.039 586.002V584.779C420.039 583.739 421.564 582.822 423.394 582.822H425.529C426.931 582.822 428.212 583.311 428.7 584.106L432.299 589.854L422.296 587.775C420.954 587.469 420.1 586.797 420.1 585.941L420.039 586.002Z" fill="#1F2846"/>
<path d="M486.401 552.435H484.327C482.497 552.435 481.033 551.579 481.033 550.539V549.316C481.033 548.521 481.887 547.788 483.229 547.543L493.049 545.525L489.511 551.212C489.023 551.945 487.804 552.496 486.401 552.496V552.435Z" fill="#1F2846"/>
<path d="M606.133 499.423H604.059C602.229 499.423 600.766 498.567 600.766 497.527V496.305C600.766 495.51 601.62 494.776 602.961 494.531L612.781 492.514L609.244 498.2C608.756 498.934 607.536 499.484 606.133 499.484V499.423Z" fill="#1F2846"/>
<path d="M560.692 544.302H558.618C556.788 544.302 555.324 543.446 555.324 542.406V541.184C555.324 540.389 556.178 539.655 557.52 539.41L567.34 537.393L563.802 543.079C563.314 543.813 562.095 544.363 560.692 544.363V544.302Z" fill="#1F2846"/>
<path d="M409.365 352.433C409.365 352.433 409.365 352.371 409.365 352.31L409.182 386.734C409.182 386.734 409.182 387.223 409.243 387.468C409.243 387.529 409.243 387.651 409.243 387.713C409.243 387.896 409.365 388.079 409.426 388.263C409.426 388.263 409.426 388.324 409.426 388.385C409.426 388.385 409.426 388.446 409.487 388.507C409.609 388.752 409.731 388.935 409.853 389.18C409.853 389.18 409.853 389.302 409.914 389.302C410.097 389.547 410.28 389.791 410.524 390.036C410.524 390.097 410.646 390.158 410.706 390.219C410.889 390.403 411.072 390.586 411.316 390.77C411.377 390.831 411.499 390.892 411.56 390.953C411.865 391.198 412.17 391.381 412.536 391.626L536.721 463.959C537.331 464.326 537.94 464.57 538.611 464.876C538.855 464.937 539.099 464.998 539.343 465.121C539.77 465.243 540.258 465.426 540.746 465.549C541.051 465.61 541.356 465.671 541.661 465.732C542.088 465.793 542.576 465.915 543.003 465.977C543.308 465.977 543.674 465.977 543.979 465.977C544.406 465.977 544.833 466.038 545.321 466.038C545.321 466.038 545.382 466.038 545.443 466.038C545.809 466.038 546.236 466.038 546.602 465.977C546.907 465.977 547.273 465.977 547.578 465.915C548.005 465.915 548.432 465.793 548.858 465.671C549.163 465.671 549.468 465.61 549.712 465.487C550.2 465.365 550.627 465.243 551.054 465.059C551.298 464.998 551.542 464.937 551.725 464.815C552.396 464.57 553.006 464.265 553.555 463.959L678.532 391.626C680.911 390.281 682.07 388.446 682.07 386.673L682.253 352.249C682.253 350.476 681.094 348.703 678.776 347.358L554.592 275.025C549.956 272.334 542.393 272.334 537.697 275.025L412.719 347.358C410.341 348.764 409.182 350.598 409.182 352.371L409.365 352.433ZM409.426 353.044C409.426 353.044 409.426 353.227 409.426 353.289C409.426 353.289 409.426 353.105 409.426 353.044ZM410.768 355.612C410.768 355.673 410.889 355.734 410.95 355.796C410.95 355.796 410.828 355.673 410.768 355.612ZM411.621 356.346C411.621 356.346 411.743 356.468 411.804 356.468C411.804 356.468 411.682 356.346 411.621 356.346ZM409.67 353.839C409.67 353.839 409.67 353.961 409.731 354.022C409.731 354.022 409.731 353.9 409.67 353.9V353.839ZM681.826 354.267C681.826 354.267 681.887 354.083 681.948 353.961C681.948 354.083 681.887 354.145 681.826 354.267ZM682.314 352.922C682.314 352.922 682.314 352.738 682.314 352.616C682.314 352.738 682.314 352.799 682.314 352.922ZM682.131 353.594C682.131 353.594 682.131 353.411 682.192 353.289C682.192 353.411 682.192 353.472 682.131 353.594ZM680.972 355.49C680.972 355.49 681.094 355.306 681.216 355.184C681.155 355.245 681.094 355.368 680.972 355.49ZM681.46 354.878C681.46 354.878 681.582 354.695 681.643 354.573C681.643 354.695 681.521 354.756 681.46 354.878ZM679.63 356.652C679.63 356.652 679.752 356.529 679.874 356.468C679.813 356.468 679.752 356.59 679.63 356.652ZM680.362 356.101C680.362 356.101 680.545 355.918 680.606 355.857C680.545 355.918 680.423 356.04 680.362 356.101Z" fill="#98A4E0"/>
<path d="M409.365 352.311L409.182 386.735C409.182 388.508 410.341 390.281 412.658 391.626L412.841 357.202C410.524 355.857 409.365 354.084 409.365 352.311Z" fill="#CFCDE2"/>
<mask id="mask0_2034_1692" style="mask-type:luminance" maskUnits="userSpaceOnUse" x="409" y="352" width="4" height="40">
<path d="M409.365 352.311L409.182 386.735C409.182 388.508 410.341 390.281 412.658 391.626L412.841 357.202C410.524 355.857 409.365 354.084 409.365 352.311Z" fill="white"/>
</mask>
<g mask="url(#mask0_2034_1692)">
<path d="M409.365 352.311L409.182 386.735C409.182 387.285 409.304 387.835 409.548 388.385L409.731 353.961C409.487 353.411 409.365 352.861 409.365 352.311Z" fill="#CFCDE2"/>
<path d="M409.669 353.961L409.486 388.385C409.974 389.547 411.011 390.708 412.597 391.626L412.78 357.202C411.194 356.284 410.157 355.184 409.669 353.961Z" fill="#CFCDE2"/>
</g>
<path d="M682.192 386.674L682.375 352.25C682.375 354.023 681.216 355.796 678.837 357.203L678.654 391.627C681.033 390.281 682.192 388.447 682.192 386.674Z" fill="#E7E6F1"/>
<mask id="mask1_2034_1692" style="mask-type:luminance" maskUnits="userSpaceOnUse" x="678" y="352" width="5" height="40">
<path d="M682.192 386.674L682.375 352.25C682.375 354.023 681.216 355.796 678.837 357.203L678.654 391.627C681.033 390.281 682.192 388.447 682.192 386.674Z" fill="white"/>
</mask>
<g mask="url(#mask1_2034_1692)">
<path d="M678.837 357.203L678.654 391.627C681.033 390.281 682.192 388.447 682.192 386.674L682.375 352.25C682.375 354.023 681.216 355.796 678.837 357.203Z" fill="#E7E6F1"/>
</g>
<path d="M412.841 357.202L412.658 391.626L536.782 463.898L536.964 429.535L412.841 357.202Z" fill="#CFCDE2"/>
<path d="M553.861 429.535L553.678 463.898L678.655 391.626L678.838 357.202L553.861 429.535Z" fill="#E7E6F1"/>
<mask id="mask2_2034_1692" style="mask-type:luminance" maskUnits="userSpaceOnUse" x="536" y="429" width="18" height="37">
<path d="M536.964 429.535L536.781 463.959C541.417 466.649 548.98 466.649 553.677 463.959L553.86 429.535C549.163 432.225 541.6 432.225 536.964 429.535Z" fill="white"/>
</mask>
<g mask="url(#mask2_2034_1692)">
<path d="M536.964 429.535L536.781 463.959C539.16 465.365 542.271 466.038 545.442 465.977L545.625 431.553C542.515 431.553 539.343 430.88 536.964 429.535Z" fill="#CFCDE2"/>
<path d="M545.626 431.553L545.443 465.977C548.432 465.977 551.421 465.243 553.678 463.959L553.861 429.535C551.604 430.88 548.615 431.553 545.626 431.553Z" fill="#E7E6F1"/>
</g>
<path d="M412.901 347.419C408.205 350.11 408.205 354.512 412.901 357.202L537.086 429.535C541.721 432.226 549.284 432.226 553.981 429.535L678.958 357.202C683.655 354.512 683.655 350.11 678.958 347.419L554.774 275.086C550.138 272.396 542.575 272.396 537.879 275.086L412.901 347.419Z" fill="#F4F4FB"/>
<path d="M545.443 424.155C542.576 424.155 539.709 423.543 537.575 422.259L425.894 357.202C423.698 355.918 422.479 354.145 422.479 352.311C422.479 350.415 423.698 348.642 425.955 347.358L538.368 282.301C542.759 279.794 549.834 279.794 554.165 282.301L665.846 347.358C668.041 348.642 669.261 350.415 669.261 352.25C669.261 354.145 668.041 355.918 665.785 357.202L553.372 422.259C551.176 423.543 548.31 424.155 545.443 424.155ZM426.565 348.398C424.735 349.437 423.698 350.843 423.698 352.311C423.698 353.717 424.674 355.123 426.504 356.163L538.185 421.22C542.21 423.543 548.737 423.543 552.762 421.22L665.175 356.163C667.004 355.123 668.041 353.717 668.041 352.25C668.041 350.843 667.065 349.437 665.236 348.398L553.555 283.341C549.53 281.017 543.003 281.017 538.978 283.341L426.565 348.398Z" fill="#1F2846"/>
<path d="M186.674 447.267V499.239L312.2 571.572V519.6L186.674 447.267Z" fill="#CFCDE2"/>
<path d="M412.291 461.697V513.669L402.044 519.6L400.763 520.334L323.727 564.908L322.446 565.642L312.199 571.573V519.6L412.291 461.697Z" fill="#E7E6F1"/>
<path d="M322.447 527.61V565.641L323.728 564.907V528.404L400.703 483.831V520.333L401.984 519.6V481.568L322.447 527.61Z" fill="#1F2846"/>
<path d="M186.674 447.267L312.2 519.6L412.292 461.697L335.256 417.123L186.674 447.267Z" fill="#B5B2CF"/>
<path d="M383.442 518.622L346.602 539.961V551.701L383.442 530.239V518.622Z" fill="#1F2846"/>
<path d="M186.674 390.953V442.925L312.2 515.258V463.286L186.674 390.953Z" fill="#CFCDE2"/>
<path d="M312.199 463.286V515.258L412.291 457.355V405.383L312.199 463.286Z" fill="#E7E6F1"/>
<path d="M316.041 465.548L408.447 412.047V455.153L316.041 508.593V465.548Z" fill="#1F2846"/>
<path d="M186.674 390.953L312.2 463.287L412.292 405.383L335.256 360.81L186.674 390.953Z" fill="#B5B2CF"/>
<path opacity="0.2" d="M321.716 467.321L319.459 468.605V465.976L321.716 464.631V467.321Z" fill="#19E9DF"/>
<path opacity="0.2" d="M327.267 464.081L325.01 465.426V462.736L327.267 461.391V464.081Z" fill="#19E9DF"/>
<path d="M332.817 460.84L330.561 462.185V459.556L332.817 458.211V460.84Z" fill="#19E9DF"/>
<path d="M338.368 457.661L336.111 459.006V456.316L338.368 454.971V457.661Z" fill="#19E9DF"/>
<path d="M343.978 454.42L341.66 455.765V453.075L343.978 451.791V454.42Z" fill="#19E9DF"/>
<path d="M349.529 451.241L347.211 452.525V449.896L349.529 448.551V451.241Z" fill="#19E9DF"/>
<path d="M355.08 448L352.762 449.345V446.655L355.08 445.371V448Z" fill="#19E9DF"/>
<path opacity="0.2" d="M360.63 444.759L358.312 446.104V443.475L360.63 442.13V444.759Z" fill="#19E9DF"/>
<path d="M366.181 441.58L363.863 442.925V440.235L366.181 438.89V441.58Z" fill="#19E9DF"/>
<path opacity="0.5" d="M371.732 438.339L369.414 439.684V437.055L371.732 435.71V438.339Z" fill="#19E9DF"/>
<path opacity="0.5" d="M377.281 435.16L374.963 436.444V433.815L377.281 432.47V435.16Z" fill="#19E9DF"/>
<path opacity="0.5" d="M382.831 431.919L380.514 433.264V430.574L382.831 429.29V431.919Z" fill="#19E9DF"/>
<path d="M388.382 428.739L386.064 430.023V427.394L388.382 426.049V428.739Z" fill="#19E9DF"/>
<path opacity="0.2" d="M393.933 425.499L391.676 426.844V424.154L393.933 422.809V425.499Z" fill="#19E9DF"/>
<path d="M399.483 422.258L397.227 423.603V420.974L399.483 419.629V422.258Z" fill="#19E9DF"/>
<path opacity="0.2" d="M405.034 419.079L402.777 420.424V417.734L405.034 416.389V419.079Z" fill="#19E9DF"/>
<path opacity="0.2" d="M321.716 474.169L319.459 475.514V472.885L321.716 471.54V474.169Z" fill="#19E9DF"/>
<path opacity="0.2" d="M327.267 470.99L325.01 472.274V469.645L327.267 468.3V470.99Z" fill="#19E9DF"/>
<path d="M332.817 467.749L330.561 469.094V466.404L332.817 465.12V467.749Z" fill="#19E9DF"/>
<path opacity="0.2" d="M338.368 464.57L336.111 465.854V463.225L338.368 461.88V464.57Z" fill="#19E9DF"/>
<path d="M343.978 461.329L341.66 462.674V459.984L343.978 458.639V461.329Z" fill="#19E9DF"/>
<path d="M349.529 458.088L347.211 459.433V456.804L349.529 455.459V458.088Z" fill="#19E9DF"/>
<path d="M355.08 454.909L352.762 456.254V453.564L355.08 452.219V454.909Z" fill="#19E9DF"/>
<path d="M360.63 451.668L358.312 453.013V450.323L360.63 449.039V451.668Z" fill="#19E9DF"/>
<path d="M366.181 448.489L363.863 449.773V447.144L366.181 445.799V448.489Z" fill="#19E9DF"/>
<path opacity="0.5" d="M371.732 445.248L369.414 446.593V443.903L371.732 442.619V445.248Z" fill="#19E9DF"/>
<path opacity="0.5" d="M377.281 442.008L374.963 443.353V440.724L377.281 439.379V442.008Z" fill="#19E9DF"/>
<path opacity="0.5" d="M382.831 438.829L380.514 440.174V437.484L382.831 436.139V438.829Z" fill="#19E9DF"/>
<path opacity="0.2" d="M388.382 435.588L386.064 436.933V434.304L388.382 432.959V435.588Z" fill="#19E9DF"/>
<path opacity="0.2" d="M393.933 432.408L391.676 433.692V431.063L393.933 429.718V432.408Z" fill="#19E9DF"/>
<path d="M399.483 429.167L397.227 430.512V427.822L399.483 426.538V429.167Z" fill="#19E9DF"/>
<path d="M405.034 425.988L402.777 427.272V424.643L405.034 423.298V425.988Z" fill="#19E9DF"/>
<path opacity="0.2" d="M321.716 481.078L319.459 482.424V479.733L321.716 478.449V481.078Z" fill="#19E9DF"/>
<path opacity="0.2" d="M327.267 477.838L325.01 479.183V476.554L327.267 475.209V477.838Z" fill="#19E9DF"/>
<path d="M332.817 474.659L330.561 476.004V473.314L332.817 471.969V474.659Z" fill="#19E9DF"/>
<path d="M338.368 471.418L336.111 472.763V470.134L338.368 468.789V471.418Z" fill="#19E9DF"/>
<path opacity="0.2" d="M343.978 468.239L341.66 469.523V466.894L343.978 465.549V468.239Z" fill="#19E9DF"/>
<path d="M349.529 464.998L347.211 466.343V463.653L349.529 462.369V464.998Z" fill="#19E9DF"/>
<path d="M355.08 461.818L352.762 463.102V460.473L355.08 459.128V461.818Z" fill="#19E9DF"/>
<path d="M360.63 458.578L358.312 459.923V457.233L360.63 455.888V458.578Z" fill="#19E9DF"/>
<path d="M366.181 455.337L363.863 456.682V454.053L366.181 452.708V455.337Z" fill="#19E9DF"/>
<path opacity="0.5" d="M371.732 452.158L369.414 453.503V450.813L371.732 449.468V452.158Z" fill="#19E9DF"/>
<path opacity="0.5" d="M377.281 448.917L374.963 450.262V447.572L377.281 446.288V448.917Z" fill="#19E9DF"/>
<path opacity="0.5" d="M382.831 445.737L380.514 447.021V444.392L382.831 443.047V445.737Z" fill="#19E9DF"/>
<path d="M388.382 442.497L386.064 443.842V441.152L388.382 439.868V442.497Z" fill="#19E9DF"/>
<path opacity="0.2" d="M393.933 439.256L391.676 440.601V437.972L393.933 436.627V439.256Z" fill="#19E9DF"/>
<path opacity="0.2" d="M399.483 436.077L397.227 437.422V434.732L399.483 433.387V436.077Z" fill="#19E9DF"/>
<path d="M405.034 432.836L402.777 434.181V431.552L405.034 430.207V432.836Z" fill="#19E9DF"/>
<path opacity="0.2" d="M321.716 487.988L319.459 489.333V486.643L321.716 485.298V487.988Z" fill="#19E9DF"/>
<path opacity="0.2" d="M327.267 484.747L325.01 486.093V483.402L327.267 482.118V484.747Z" fill="#19E9DF"/>
<path opacity="0.2" d="M332.817 481.568L330.561 482.852V480.223L332.817 478.878V481.568Z" fill="#19E9DF"/>
<path d="M338.368 478.327L336.111 479.672V476.982L338.368 475.637V478.327Z" fill="#19E9DF"/>
<path opacity="0.2" d="M343.978 475.086L341.66 476.431V473.802L343.978 472.457V475.086Z" fill="#19E9DF"/>
<path d="M349.529 471.907L347.211 473.252V470.562L349.529 469.217V471.907Z" fill="#19E9DF"/>
<path d="M355.08 468.666L352.762 470.011V467.382L355.08 466.037V468.666Z" fill="#19E9DF"/>
<path opacity="0.2" d="M360.63 465.487L358.312 466.771V464.142L360.63 462.797V465.487Z" fill="#19E9DF"/>
<path d="M366.181 462.246L363.863 463.592V460.901L366.181 459.617V462.246Z" fill="#19E9DF"/>
<path opacity="0.5" d="M371.732 459.067L369.414 460.351V457.722L371.732 456.377V459.067Z" fill="#19E9DF"/>
<path opacity="0.5" d="M377.281 455.826L374.963 457.171V454.481L377.281 453.136V455.826Z" fill="#19E9DF"/>
<path opacity="0.5" d="M382.831 452.586L380.514 453.931V451.302L382.831 449.957V452.586Z" fill="#19E9DF"/>
<path d="M388.382 449.406L386.125 450.751V448.061L388.382 446.716V449.406Z" fill="#19E9DF"/>
<path opacity="0.2" d="M393.933 446.166L391.676 447.511V444.821L393.933 443.537V446.166Z" fill="#19E9DF"/>
<path opacity="0.2" d="M399.483 442.986L397.227 444.27V441.641L399.483 440.296V442.986Z" fill="#19E9DF"/>
<path opacity="0.2" d="M405.034 439.745L402.777 441.091V438.4L405.034 437.116V439.745Z" fill="#19E9DF"/>
<path d="M321.716 494.836L319.459 496.181V493.552L321.716 492.207V494.836Z" fill="#19E9DF"/>
<path opacity="0.2" d="M327.267 491.657L325.01 493.002V490.312L327.267 488.967V491.657Z" fill="#19E9DF"/>
<path opacity="0.2" d="M332.817 488.416L330.561 489.761V487.132L332.817 485.787V488.416Z" fill="#19E9DF"/>
<path d="M338.368 485.236L336.111 486.581V483.891L338.368 482.546V485.236Z" fill="#19E9DF"/>
<path opacity="0.2" d="M343.978 481.996L341.66 483.342V480.651L343.978 479.367V481.996Z" fill="#19E9DF"/>
<path d="M349.529 478.816L347.211 480.1V477.471L349.529 476.126V478.816Z" fill="#19E9DF"/>
<path d="M355.08 475.576L352.762 476.921V474.231L355.08 472.886V475.576Z" fill="#19E9DF"/>
<path opacity="0.2" d="M360.63 472.335L358.312 473.68V471.051L360.63 469.706V472.335Z" fill="#19E9DF"/>
<path d="M366.181 469.155L363.863 470.5V467.81L366.181 466.465V469.155Z" fill="#19E9DF"/>
<path opacity="0.2" d="M371.732 465.915L369.414 467.26V464.57L371.732 463.286V465.915Z" fill="#19E9DF"/>
<path opacity="0.2" d="M377.281 462.735L374.963 464.019V461.39L377.281 460.045V462.735Z" fill="#19E9DF"/>
<path opacity="0.5" d="M382.831 459.495L380.514 460.841V458.15L382.831 456.866V459.495Z" fill="#19E9DF"/>
<path opacity="0.2" d="M388.382 456.315L386.125 457.599V454.97L388.382 453.625V456.315Z" fill="#19E9DF"/>
<path opacity="0.2" d="M393.933 453.075L391.676 454.42V451.73L393.933 450.385V453.075Z" fill="#19E9DF"/>
<path opacity="0.2" d="M399.483 449.834L397.227 451.179V448.55L399.483 447.205V449.834Z" fill="#19E9DF"/>
<path d="M405.034 446.655L402.777 448V445.31L405.034 443.965V446.655Z" fill="#19E9DF"/>
<path opacity="0.2" d="M321.716 501.745L319.459 503.091V500.4L321.716 499.116V501.745Z" fill="#19E9DF"/>
<path opacity="0.5" d="M327.267 498.565L325.01 499.849V497.22L327.267 495.875V498.565Z" fill="#19E9DF"/>
<path opacity="0.2" d="M332.817 495.325L330.561 496.671V493.98L332.817 492.696V495.325Z" fill="#19E9DF"/>
<path d="M338.368 492.084L336.111 493.429V490.8L338.368 489.455V492.084Z" fill="#19E9DF"/>
<path d="M343.978 488.905L341.66 490.25V487.56L343.978 486.215V488.905Z" fill="#19E9DF"/>
<path d="M349.529 485.664L347.211 487.01V484.38L349.529 483.035V485.664Z" fill="#19E9DF"/>
<path d="M355.08 482.485L352.762 483.83V481.14L355.08 479.795V482.485Z" fill="#19E9DF"/>
<path d="M360.63 479.244L358.312 480.59V477.899L360.63 476.615V479.244Z" fill="#19E9DF"/>
<path d="M366.181 476.065L363.863 477.349V474.72L366.181 473.375V476.065Z" fill="#19E9DF"/>
<path opacity="0.2" d="M371.732 472.824L369.414 474.169V471.479L371.732 470.134V472.824Z" fill="#19E9DF"/>
<path opacity="0.2" d="M377.281 469.584L374.963 470.929V468.3L377.281 466.955V469.584Z" fill="#19E9DF"/>
<path opacity="0.2" d="M382.831 466.404L380.514 467.749V465.059L382.831 463.714V466.404Z" fill="#19E9DF"/>
<path d="M388.382 463.163L386.125 464.509V461.818L388.382 460.534V463.163Z" fill="#19E9DF"/>
<path d="M393.933 459.984L391.676 461.268V458.639L393.933 457.294V459.984Z" fill="#19E9DF"/>
<path d="M399.483 456.743L397.227 458.089V455.398L399.483 454.114V456.743Z" fill="#19E9DF"/>
<path opacity="0.2" d="M405.034 453.564L402.777 454.848V452.219L405.034 450.874V453.564Z" fill="#19E9DF"/>
<path d="M186.674 333.906V385.878L312.2 458.212V406.239L186.674 333.906Z" fill="#CFCDE2"/>
<path d="M312.199 406.24V458.212L412.291 400.309V348.337L312.199 406.24Z" fill="#E7E6F1"/>
<path d="M316.041 408.442L408.447 355.002V398.047L316.041 451.548V408.442Z" fill="#1F2846"/>
<path d="M186.674 333.907L312.2 406.24L412.292 348.337L335.256 303.763L186.674 333.907Z" fill="#B5B2CF"/>
<path opacity="0.2" d="M321.716 410.214L319.459 411.559V408.869L321.716 407.585V410.214Z" fill="#19E9DF"/>
<path opacity="0.2" d="M327.267 407.035L325.01 408.319V405.69L327.267 404.345V407.035Z" fill="#19E9DF"/>
<path d="M332.817 403.794L330.561 405.139V402.449L332.817 401.104V403.794Z" fill="#19E9DF"/>
<path d="M338.368 400.554L336.111 401.899V399.27L338.368 397.925V400.554Z" fill="#19E9DF"/>
<path d="M343.978 397.374L341.66 398.719V396.029L343.978 394.684V397.374Z" fill="#19E9DF"/>
<path d="M349.529 394.133L347.211 395.478V392.788L349.529 391.504V394.133Z" fill="#19E9DF"/>
<path d="M355.08 390.954L352.762 392.238V389.609L355.08 388.264V390.954Z" fill="#19E9DF"/>
<path opacity="0.2" d="M360.63 387.713L358.312 389.058V386.368L360.63 385.084V387.713Z" fill="#19E9DF"/>
<path d="M366.181 384.473L363.863 385.818V383.189L366.181 381.844V384.473Z" fill="#19E9DF"/>
<path opacity="0.5" d="M371.732 381.294L369.414 382.639V379.949L371.732 378.604V381.294Z" fill="#19E9DF"/>
<path opacity="0.5" d="M377.281 378.053L374.963 379.398V376.769L377.281 375.424V378.053Z" fill="#19E9DF"/>
<path opacity="0.5" d="M382.831 374.873L380.514 376.218V373.528L382.831 372.183V374.873Z" fill="#19E9DF"/>
<path d="M388.382 371.633L386.064 372.978V370.288L388.382 369.004V371.633Z" fill="#19E9DF"/>
<path opacity="0.2" d="M393.933 368.453L391.676 369.737V367.108L393.933 365.763V368.453Z" fill="#19E9DF"/>
<path d="M399.483 365.212L397.227 366.557V363.867L399.483 362.583V365.212Z" fill="#19E9DF"/>
<path opacity="0.2" d="M405.034 361.972L402.777 363.317V360.688L405.034 359.343V361.972Z" fill="#19E9DF"/>
<path opacity="0.2" d="M321.716 417.124L319.459 418.469V415.779L321.716 414.434V417.124Z" fill="#19E9DF"/>
<path opacity="0.2" d="M327.267 413.883L325.01 415.228V412.599L327.267 411.254V413.883Z" fill="#19E9DF"/>
<path d="M332.817 410.704L330.561 411.988V409.359L332.817 408.014V410.704Z" fill="#19E9DF"/>
<path opacity="0.2" d="M338.368 407.463L336.111 408.808V406.118L338.368 404.834V407.463Z" fill="#19E9DF"/>
<path d="M343.978 404.283L341.66 405.567V402.938L343.978 401.593V404.283Z" fill="#19E9DF"/>
<path d="M349.529 401.043L347.211 402.388V399.698L349.529 398.353V401.043Z" fill="#19E9DF"/>
<path d="M355.08 397.802L352.762 399.147V396.518L355.08 395.173V397.802Z" fill="#19E9DF"/>
<path d="M360.63 394.623L358.312 395.968V393.278L360.63 391.933V394.623Z" fill="#19E9DF"/>
<path d="M366.181 391.382L363.863 392.727V390.037L366.181 388.753V391.382Z" fill="#19E9DF"/>
<path opacity="0.5" d="M371.732 388.203L369.414 389.487V386.858L371.732 385.513V388.203Z" fill="#19E9DF"/>
<path opacity="0.5" d="M377.281 384.962L374.963 386.307V383.617L377.281 382.333V384.962Z" fill="#19E9DF"/>
<path opacity="0.5" d="M382.831 381.721L380.514 383.066V380.437L382.831 379.092V381.721Z" fill="#19E9DF"/>
<path opacity="0.2" d="M388.382 378.542L386.064 379.887V377.197L388.382 375.852V378.542Z" fill="#19E9DF"/>
<path opacity="0.2" d="M393.933 375.301L391.676 376.646V374.017L393.933 372.672V375.301Z" fill="#19E9DF"/>
<path d="M399.483 372.122L397.227 373.406V370.777L399.483 369.432V372.122Z" fill="#19E9DF"/>
<path d="M405.034 368.881L402.777 370.226V367.536L405.034 366.252V368.881Z" fill="#19E9DF"/>
<path opacity="0.2" d="M321.716 424.033L319.459 425.317V422.688L321.716 421.343V424.033Z" fill="#19E9DF"/>
<path opacity="0.2" d="M327.267 420.792L325.01 422.137V419.447L327.267 418.163V420.792Z" fill="#19E9DF"/>
<path d="M332.817 417.552L330.561 418.897V416.268L332.817 414.923V417.552Z" fill="#19E9DF"/>
<path d="M338.368 414.372L336.111 415.717V413.027L338.368 411.682V414.372Z" fill="#19E9DF"/>
<path opacity="0.2" d="M343.978 411.131L341.66 412.476V409.847L343.978 408.502V411.131Z" fill="#19E9DF"/>
<path d="M349.529 407.952L347.211 409.236V406.607L349.529 405.262V407.952Z" fill="#19E9DF"/>
<path d="M355.08 404.711L352.762 406.056V403.366L355.08 402.082V404.711Z" fill="#19E9DF"/>
<path d="M360.63 401.532L358.312 402.816V400.187L360.63 398.842V401.532Z" fill="#19E9DF"/>
<path d="M366.181 398.291L363.863 399.636V396.946L366.181 395.601V398.291Z" fill="#19E9DF"/>
<path opacity="0.5" d="M371.732 395.051L369.414 396.396V393.767L371.732 392.422V395.051Z" fill="#19E9DF"/>
<path opacity="0.5" d="M377.281 391.871L374.963 393.216V390.526L377.281 389.181V391.871Z" fill="#19E9DF"/>
<path opacity="0.5" d="M382.831 388.631L380.514 389.976V387.286L382.831 386.002V388.631Z" fill="#19E9DF"/>
<path d="M388.382 385.451L386.064 386.735V384.106L388.382 382.761V385.451Z" fill="#19E9DF"/>
<path opacity="0.2" d="M393.933 382.21L391.676 383.555V380.865L393.933 379.581V382.21Z" fill="#19E9DF"/>
<path opacity="0.2" d="M399.483 378.97L397.227 380.315V377.686L399.483 376.341V378.97Z" fill="#19E9DF"/>
<path d="M405.034 375.791L402.777 377.136V374.446L405.034 373.101V375.791Z" fill="#19E9DF"/>
<path opacity="0.2" d="M321.716 430.881L319.459 432.226V429.597L321.716 428.252V430.881Z" fill="#19E9DF"/>
<path opacity="0.2" d="M327.267 427.701L325.01 429.046V426.356L327.267 425.011V427.701Z" fill="#19E9DF"/>
<path opacity="0.2" d="M332.817 424.461L330.561 425.806V423.116L332.817 421.832V424.461Z" fill="#19E9DF"/>
<path d="M338.368 421.281L336.111 422.565V419.936L338.368 418.591V421.281Z" fill="#19E9DF"/>
<path opacity="0.2" d="M343.978 418.041L341.66 419.386V416.696L343.978 415.412V418.041Z" fill="#19E9DF"/>
<path d="M349.529 414.8L347.211 416.145V413.516L349.529 412.171V414.8Z" fill="#19E9DF"/>
<path d="M355.08 411.621L352.762 412.966V410.276L355.08 408.931V411.621Z" fill="#19E9DF"/>
<path opacity="0.2" d="M360.63 408.38L358.312 409.725V407.096L360.63 405.751V408.38Z" fill="#19E9DF"/>
<path d="M366.181 405.201L363.863 406.485V403.856L366.181 402.511V405.201Z" fill="#19E9DF"/>
<path opacity="0.5" d="M371.732 401.96L369.414 403.305V400.615L371.732 399.331V401.96Z" fill="#19E9DF"/>
<path opacity="0.5" d="M377.281 398.78L374.963 400.064V397.435L377.281 396.09V398.78Z" fill="#19E9DF"/>
<path opacity="0.5" d="M382.831 395.54L380.514 396.885V394.195L382.831 392.85V395.54Z" fill="#19E9DF"/>
<path d="M388.382 392.299L386.125 393.644V391.015L388.382 389.67V392.299Z" fill="#19E9DF"/>
<path opacity="0.2" d="M393.933 389.12L391.676 390.465V387.775L393.933 386.43V389.12Z" fill="#19E9DF"/>
<path opacity="0.2" d="M399.483 385.879L397.227 387.224V384.534L399.483 383.25V385.879Z" fill="#19E9DF"/>
<path opacity="0.2" d="M405.034 382.7L402.777 383.984V381.355L405.034 380.01V382.7Z" fill="#19E9DF"/>
<path d="M321.716 437.79L319.459 439.135V436.445L321.716 435.161V437.79Z" fill="#19E9DF"/>
<path opacity="0.2" d="M327.267 434.611L325.01 435.895V433.266L327.267 431.921V434.611Z" fill="#19E9DF"/>
<path opacity="0.2" d="M332.817 431.37L330.561 432.715V430.025L332.817 428.68V431.37Z" fill="#19E9DF"/>
<path d="M338.368 428.129L336.111 429.474V426.845L338.368 425.5V428.129Z" fill="#19E9DF"/>
<path opacity="0.2" d="M343.978 424.95L341.66 426.295V423.605L343.978 422.26V424.95Z" fill="#19E9DF"/>
<path d="M349.529 421.709L347.211 423.054V420.364L349.529 419.08V421.709Z" fill="#19E9DF"/>
<path d="M355.08 418.53L352.762 419.814V417.185L355.08 415.84V418.53Z" fill="#19E9DF"/>
<path opacity="0.2" d="M360.63 415.289L358.312 416.635V413.944L360.63 412.66V415.289Z" fill="#19E9DF"/>
<path d="M366.181 412.049L363.863 413.394V410.765L366.181 409.42V412.049Z" fill="#19E9DF"/>
<path opacity="0.2" d="M371.732 408.869L369.414 410.214V407.524L371.732 406.179V408.869Z" fill="#19E9DF"/>
<path opacity="0.2" d="M377.281 405.628L374.963 406.973V404.344L377.281 402.999V405.628Z" fill="#19E9DF"/>
<path opacity="0.5" d="M382.831 402.449L380.514 403.733V401.104L382.831 399.759V402.449Z" fill="#19E9DF"/>
<path opacity="0.2" d="M388.382 399.208L386.125 400.553V397.863L388.382 396.579V399.208Z" fill="#19E9DF"/>
<path opacity="0.2" d="M393.933 396.029L391.676 397.313V394.684L393.933 393.339V396.029Z" fill="#19E9DF"/>
<path opacity="0.2" d="M399.483 392.788L397.227 394.133V391.443L399.483 390.098V392.788Z" fill="#19E9DF"/>
<path d="M405.034 389.548L402.777 390.893V388.264L405.034 386.919V389.548Z" fill="#19E9DF"/>
<path opacity="0.2" d="M321.716 444.699L319.459 446.044V443.354L321.716 442.009V444.699Z" fill="#19E9DF"/>
<path opacity="0.5" d="M327.267 441.459L325.01 442.804V440.175L327.267 438.83V441.459Z" fill="#19E9DF"/>
<path opacity="0.2" d="M332.817 438.279L330.561 439.563V436.934L332.817 435.589V438.279Z" fill="#19E9DF"/>
<path d="M338.368 435.038L336.111 436.384V433.693L338.368 432.409V435.038Z" fill="#19E9DF"/>
<path d="M343.978 431.859L341.66 433.143V430.514L343.978 429.169V431.859Z" fill="#19E9DF"/>
<path d="M349.529 428.619L347.211 429.964V427.274L349.529 425.929V428.619Z" fill="#19E9DF"/>
<path d="M355.08 425.378L352.762 426.723V424.094L355.08 422.749V425.378Z" fill="#19E9DF"/>
<path d="M360.63 422.198L358.312 423.543V420.853L360.63 419.508V422.198Z" fill="#19E9DF"/>
<path d="M366.181 418.958L363.863 420.303V417.613L366.181 416.329V418.958Z" fill="#19E9DF"/>
<path opacity="0.2" d="M371.732 415.778L369.414 417.062V414.433L371.732 413.088V415.778Z" fill="#19E9DF"/>
<path opacity="0.2" d="M377.281 412.537L374.963 413.883V411.192L377.281 409.908V412.537Z" fill="#19E9DF"/>
<path opacity="0.2" d="M382.831 409.297L380.514 410.642V408.013L382.831 406.668V409.297Z" fill="#19E9DF"/>
<path d="M388.382 406.118L386.125 407.463V404.773L388.382 403.428V406.118Z" fill="#19E9DF"/>
<path d="M393.933 402.877L391.676 404.222V401.593L393.933 400.248V402.877Z" fill="#19E9DF"/>
<path d="M399.483 399.698L397.227 400.982V398.353L399.483 397.008V399.698Z" fill="#19E9DF"/>
<path opacity="0.2" d="M405.034 396.457L402.777 397.802V395.112L405.034 393.828V396.457Z" fill="#19E9DF"/>
<path d="M186.674 276.799V328.832L312.2 401.165V349.193L186.674 276.799Z" fill="#CFCDE2"/>
<path d="M312.199 349.193V401.165L412.291 343.201V291.229L312.199 349.193Z" fill="#E7E6F1"/>
<path d="M316.041 351.394L408.447 297.894V341L316.041 394.501V351.394Z" fill="#1F2846"/>
<path d="M186.674 276.799L312.2 349.193L412.292 291.229L286.704 218.896L186.674 276.799Z" fill="#F4F4FB"/>
<path opacity="0.2" d="M321.716 353.168L319.459 354.452V351.823L321.716 350.478V353.168Z" fill="#19E9DF"/>
<path opacity="0.2" d="M327.267 349.927L325.01 351.272V348.582L327.267 347.298V349.927Z" fill="#19E9DF"/>
<path d="M332.817 346.747L330.561 348.031V345.402L332.817 344.057V346.747Z" fill="#19E9DF"/>
<path d="M338.368 343.507L336.111 344.852V342.162L338.368 340.878V343.507Z" fill="#19E9DF"/>
<path d="M343.978 340.266L341.66 341.611V338.982L343.978 337.637V340.266Z" fill="#19E9DF"/>
<path d="M349.529 337.087L347.211 338.432V335.742L349.529 334.396V337.087Z" fill="#19E9DF"/>
<path d="M355.08 333.846L352.762 335.191V332.562L355.08 331.217V333.846Z" fill="#19E9DF"/>
<path opacity="0.2" d="M360.63 330.667L358.312 331.951V329.322L360.63 327.977V330.667Z" fill="#19E9DF"/>
<path d="M366.181 327.426L363.863 328.771V326.081L366.181 324.797V327.426Z" fill="#19E9DF"/>
<path opacity="0.5" d="M371.732 324.247L369.414 325.531V322.902L371.732 321.557V324.247Z" fill="#19E9DF"/>
<path opacity="0.5" d="M377.281 321.006L374.963 322.351V319.661L377.281 318.315V321.006Z" fill="#19E9DF"/>
<path opacity="0.5" d="M382.831 317.765L380.514 319.11V316.481L382.831 315.136V317.765Z" fill="#19E9DF"/>
<path d="M388.382 314.586L386.064 315.931V313.241L388.382 311.896V314.586Z" fill="#19E9DF"/>
<path opacity="0.2" d="M393.933 311.345L391.676 312.69V310L393.933 308.716V311.345Z" fill="#19E9DF"/>
<path d="M399.483 308.166L397.227 309.45V306.821L399.483 305.476V308.166Z" fill="#19E9DF"/>
<path opacity="0.2" d="M405.034 304.925L402.777 306.27V303.58L405.034 302.296V304.925Z" fill="#19E9DF"/>
<path opacity="0.2" d="M321.716 360.077L319.459 361.361V358.732L321.716 357.387V360.077Z" fill="#19E9DF"/>
<path opacity="0.2" d="M327.267 356.836L325.01 358.181V355.491L327.267 354.146V356.836Z" fill="#19E9DF"/>
<path d="M332.817 353.596L330.561 354.941V352.312L332.817 350.967V353.596Z" fill="#19E9DF"/>
<path opacity="0.2" d="M338.368 350.416L336.111 351.761V349.071L338.368 347.726V350.416Z" fill="#19E9DF"/>
<path d="M343.978 347.175L341.66 348.52V345.83L343.978 344.546V347.175Z" fill="#19E9DF"/>
<path d="M349.529 343.996L347.211 345.28V342.651L349.529 341.306V343.996Z" fill="#19E9DF"/>
<path d="M355.08 340.755L352.762 342.1V339.41L355.08 338.126V340.755Z" fill="#19E9DF"/>
<path d="M360.63 337.515L358.312 338.86V336.231L360.63 334.886V337.515Z" fill="#19E9DF"/>
<path d="M366.181 334.335L363.863 335.68V332.99L366.181 331.645V334.335Z" fill="#19E9DF"/>
<path opacity="0.5" d="M371.732 331.095L369.414 332.44V329.811L371.732 328.466V331.095Z" fill="#19E9DF"/>
<path opacity="0.5" d="M377.281 327.915L374.963 329.199V326.57L377.281 325.225V327.915Z" fill="#19E9DF"/>
<path opacity="0.5" d="M382.831 324.674L380.514 326.019V323.329L382.831 322.045V324.674Z" fill="#19E9DF"/>
<path opacity="0.2" d="M388.382 321.495L386.064 322.779V320.15L388.382 318.805V321.495Z" fill="#19E9DF"/>
<path opacity="0.2" d="M393.933 318.255L391.676 319.6V316.91L393.933 315.564V318.255Z" fill="#19E9DF"/>
<path d="M399.483 315.014L397.227 316.359V313.73L399.483 312.385V315.014Z" fill="#19E9DF"/>
<path d="M405.034 311.834L402.777 313.179V310.489L405.034 309.144V311.834Z" fill="#19E9DF"/>
<path opacity="0.2" d="M321.716 366.925L319.459 368.27V365.58L321.716 364.296V366.925Z" fill="#19E9DF"/>
<path opacity="0.2" d="M327.267 363.745L325.01 365.029V362.4L327.267 361.055V363.745Z" fill="#19E9DF"/>
<path d="M332.817 360.505L330.561 361.85V359.16L332.817 357.876V360.505Z" fill="#19E9DF"/>
<path d="M338.368 357.264L336.111 358.609V355.98L338.368 354.635V357.264Z" fill="#19E9DF"/>
<path opacity="0.2" d="M343.978 354.085L341.66 355.43V352.74L343.978 351.395V354.085Z" fill="#19E9DF"/>
<path d="M349.529 350.844L347.211 352.189V349.56L349.529 348.215V350.844Z" fill="#19E9DF"/>
<path d="M355.08 347.665L352.762 349.01V346.32L355.08 344.975V347.665Z" fill="#19E9DF"/>
<path d="M360.63 344.424L358.312 345.769V343.079L360.63 341.795V344.424Z" fill="#19E9DF"/>
<path d="M366.181 341.245L363.863 342.529V339.9L366.181 338.555V341.245Z" fill="#19E9DF"/>
<path opacity="0.5" d="M371.732 338.004L369.414 339.349V336.659L371.732 335.313V338.004Z" fill="#19E9DF"/>
<path opacity="0.5" d="M377.281 334.763L374.963 336.108V333.479L377.281 332.134V334.763Z" fill="#19E9DF"/>
<path opacity="0.5" d="M382.831 331.584L380.514 332.929V330.239L382.831 328.894V331.584Z" fill="#19E9DF"/>
<path d="M388.382 328.343L386.064 329.688V327.059L388.382 325.714V328.343Z" fill="#19E9DF"/>
<path opacity="0.2" d="M393.933 325.164L391.676 326.448V323.819L393.933 322.474V325.164Z" fill="#19E9DF"/>
<path opacity="0.2" d="M399.483 321.923L397.227 323.268V320.578L399.483 319.294V321.923Z" fill="#19E9DF"/>
<path d="M405.034 318.744L402.777 320.028V317.399L405.034 316.054V318.744Z" fill="#19E9DF"/>
<path opacity="0.2" d="M321.716 373.834L319.459 375.179V372.489L321.716 371.144V373.834Z" fill="#19E9DF"/>
<path opacity="0.2" d="M327.267 370.594L325.01 371.939V369.31L327.267 367.965V370.594Z" fill="#19E9DF"/>
<path opacity="0.2" d="M332.817 367.414L330.561 368.759V366.069L332.817 364.724V367.414Z" fill="#19E9DF"/>
<path d="M338.368 364.173L336.111 365.518V362.828L338.368 361.544V364.173Z" fill="#19E9DF"/>
<path opacity="0.2" d="M343.978 360.994L341.66 362.278V359.649L343.978 358.304V360.994Z" fill="#19E9DF"/>
<path d="M349.529 357.753L347.211 359.098V356.408L349.529 355.124V357.753Z" fill="#19E9DF"/>
<path d="M355.08 354.513L352.762 355.858V353.229L355.08 351.884V354.513Z" fill="#19E9DF"/>
<path opacity="0.2" d="M360.63 351.333L358.312 352.678V349.988L360.63 348.643V351.333Z" fill="#19E9DF"/>
<path d="M366.181 348.092L363.863 349.437V346.808L366.181 345.463V348.092Z" fill="#19E9DF"/>
<path opacity="0.5" d="M371.732 344.913L369.414 346.197V343.568L371.732 342.223V344.913Z" fill="#19E9DF"/>
<path opacity="0.5" d="M377.281 341.672L374.963 343.017V340.327L377.281 339.043V341.672Z" fill="#19E9DF"/>
<path opacity="0.5" d="M382.831 338.493L380.514 339.777V337.148L382.831 335.803V338.493Z" fill="#19E9DF"/>
<path d="M388.382 335.253L386.125 336.598V333.908L388.382 332.562V335.253Z" fill="#19E9DF"/>
<path opacity="0.2" d="M393.933 332.012L391.676 333.357V330.728L393.933 329.383V332.012Z" fill="#19E9DF"/>
<path opacity="0.2" d="M399.483 328.832L397.227 330.177V327.487L399.483 326.142V328.832Z" fill="#19E9DF"/>
<path opacity="0.2" d="M405.034 325.592L402.777 326.937V324.308L405.034 322.963V325.592Z" fill="#19E9DF"/>
<path d="M321.716 380.743L319.459 382.027V379.398L321.716 378.053V380.743Z" fill="#19E9DF"/>
<path opacity="0.2" d="M327.267 377.502L325.01 378.847V376.157L327.267 374.873V377.502Z" fill="#19E9DF"/>
<path opacity="0.2" d="M332.817 374.323L330.561 375.607V372.978L332.817 371.633V374.323Z" fill="#19E9DF"/>
<path d="M338.368 371.083L336.111 372.428V369.738L338.368 368.393V371.083Z" fill="#19E9DF"/>
<path opacity="0.2" d="M343.978 367.842L341.66 369.187V366.558L343.978 365.213V367.842Z" fill="#19E9DF"/>
<path d="M349.529 364.663L347.211 366.008V363.318L349.529 361.973V364.663Z" fill="#19E9DF"/>
<path d="M355.08 361.422L352.762 362.767V360.077L355.08 358.793V361.422Z" fill="#19E9DF"/>
<path opacity="0.2" d="M360.63 358.242L358.312 359.526V356.897L360.63 355.552V358.242Z" fill="#19E9DF"/>
<path d="M366.181 355.002L363.863 356.347V353.657L366.181 352.373V355.002Z" fill="#19E9DF"/>
<path opacity="0.2" d="M371.732 351.761L369.414 353.106V350.477L371.732 349.132V351.761Z" fill="#19E9DF"/>
<path opacity="0.2" d="M377.281 348.582L374.963 349.927V347.237L377.281 345.892V348.582Z" fill="#19E9DF"/>
<path opacity="0.5" d="M382.831 345.341L380.514 346.686V344.057L382.831 342.712V345.341Z" fill="#19E9DF"/>
<path opacity="0.2" d="M388.382 342.162L386.125 343.446V340.817L388.382 339.472V342.162Z" fill="#19E9DF"/>
<path opacity="0.2" d="M393.933 338.921L391.676 340.266V337.576L393.933 336.292V338.921Z" fill="#19E9DF"/>
<path opacity="0.2" d="M399.483 335.741L397.227 337.025V334.396L399.483 333.051V335.741Z" fill="#19E9DF"/>
<path d="M405.034 332.501L402.777 333.846V331.156L405.034 329.811V332.501Z" fill="#19E9DF"/>
<path opacity="0.2" d="M321.716 387.591L319.459 388.936V386.307L321.716 384.962V387.591Z" fill="#19E9DF"/>
<path opacity="0.5" d="M327.267 384.412L325.01 385.757V383.067L327.267 381.722V384.412Z" fill="#19E9DF"/>
<path opacity="0.2" d="M332.817 381.171L330.561 382.516V379.887L332.817 378.542V381.171Z" fill="#19E9DF"/>
<path d="M338.368 377.992L336.111 379.276V376.647L338.368 375.302V377.992Z" fill="#19E9DF"/>
<path d="M343.978 374.751L341.66 376.096V373.406L343.978 372.122V374.751Z" fill="#19E9DF"/>
<path d="M349.529 371.572L347.211 372.856V370.227L349.529 368.882V371.572Z" fill="#19E9DF"/>
<path d="M355.08 368.331L352.762 369.676V366.986L355.08 365.641V368.331Z" fill="#19E9DF"/>
<path d="M360.63 365.09L358.312 366.435V363.806L360.63 362.461V365.09Z" fill="#19E9DF"/>
<path d="M366.181 361.911L363.863 363.256V360.566L366.181 359.221V361.911Z" fill="#19E9DF"/>
<path opacity="0.2" d="M371.732 358.67L369.414 360.015V357.325L371.732 356.041V358.67Z" fill="#19E9DF"/>
<path opacity="0.2" d="M377.281 355.491L374.963 356.775V354.146L377.281 352.801V355.491Z" fill="#19E9DF"/>
<path opacity="0.2" d="M382.831 352.25L380.514 353.595V350.905L382.831 349.621V352.25Z" fill="#19E9DF"/>
<path d="M388.382 349.01L386.125 350.355V347.726L388.382 346.381V349.01Z" fill="#19E9DF"/>
<path d="M393.933 345.83L391.676 347.175V344.485L393.933 343.14V345.83Z" fill="#19E9DF"/>
<path d="M399.483 342.59L397.227 343.935V341.306L399.483 339.961V342.59Z" fill="#19E9DF"/>
<path opacity="0.2" d="M405.034 339.41L402.777 340.694V338.065L405.034 336.72V339.41Z" fill="#19E9DF"/>
<path d="M198.812 261.757V276.554L313.787 342.772V327.976L198.812 261.757Z" fill="#CFCDE2"/>
<path d="M313.787 327.976V342.773L400.155 292.818V278.021L313.787 327.976Z" fill="#E7E6F1"/>
<path d="M198.812 261.757L313.787 327.976L400.154 278.021L285.119 211.741L198.812 261.757Z" fill="#F4F4FB"/>
<path d="M376.977 278.021L372.951 280.345L313.787 314.585L226.016 264.08L221.93 261.757L285.12 225.132L376.977 278.021Z" fill="#E7E6F1"/>
<path d="M372.951 280.345L313.786 314.585L226.016 264.08L285.119 229.84L372.951 280.345Z" fill="#1F2846"/>
<path d="M372.645 272.518L285.118 222.196L226.258 256.253L225.648 255.214L284.752 220.973C284.752 220.973 285.179 220.851 285.362 220.973L373.133 271.478L372.523 272.518H372.645Z" fill="#1F2846"/>
<path d="M386.309 226.109C386.309 226.109 386.126 226.109 386.004 226.048L282.497 166.494L212.902 206.788C212.902 206.788 212.231 206.849 212.109 206.543C211.926 206.237 212.048 205.871 212.353 205.748L282.253 165.271C282.253 165.271 282.68 165.149 282.863 165.271L386.675 224.947C386.675 224.947 387.041 225.498 386.919 225.742C386.797 225.926 386.614 226.048 386.37 226.048L386.309 226.109Z" fill="#1F2846"/>
<path d="M399.727 179.58C399.727 179.58 399.544 179.58 399.422 179.518L279.873 110.793L199.482 157.323C199.482 157.323 198.811 157.384 198.689 157.079C198.507 156.773 198.628 156.406 198.933 156.284L279.629 109.57C279.629 109.57 280.056 109.448 280.239 109.57L400.092 178.479C400.092 178.479 400.458 179.029 400.336 179.274C400.214 179.457 400.031 179.58 399.787 179.58H399.727Z" fill="#1F2846"/>
<path d="M413.146 133.049C413.146 133.049 412.963 133.049 412.841 132.988L277.311 55.0294L186.125 107.796C186.125 107.796 185.454 107.858 185.332 107.552C185.149 107.246 185.271 106.879 185.576 106.757L277.372 53.623L277.677 53.8065L413.512 131.948C413.512 131.948 413.878 132.499 413.756 132.743C413.634 132.927 413.451 133.049 413.207 133.049H413.146Z" fill="#1F2846"/>
<path d="M377.525 123.755L369.413 130.909L356.787 138.246L364.899 131.031L377.525 123.755Z" fill="#291069"/>
<path d="M364.899 131.032L356.787 138.247L346.967 123.45L355.079 116.296L364.899 131.032Z" fill="#291069"/>
<path d="M367.704 109.02L377.524 123.755L364.898 131.031L355.078 116.296L367.704 109.02Z" fill="#5430AF"/>
<path d="M342.942 241.64L328.181 238.032L320.801 221.034L335.5 224.703L342.942 241.64Z" fill="#291069"/>
<path d="M335.5 224.703L320.801 221.035L334.829 208.684L349.59 212.291L335.5 224.703Z" fill="#5430AF"/>
<path d="M349.59 212.291L356.97 229.228L342.941 241.64L335.5 224.703L349.59 212.291Z" fill="#442397"/>
<path d="M240.471 210.029L224.002 200.429L223.941 182.147L240.41 191.747L240.471 210.029Z" fill="#291069"/>
<path d="M240.41 191.747L223.941 182.147L239.8 172.976L256.268 182.575L240.41 191.747Z" fill="#5430AF"/>
<path d="M256.269 182.575L256.33 200.796L240.471 210.029L240.41 191.747L256.269 182.575Z" fill="#442397"/>
<path d="M301.465 193.888L287.07 186L293.475 173.099L307.869 180.986L301.465 193.888Z" fill="#442397"/>
<path d="M307.869 180.986L293.475 173.099L297.622 167.901L312.017 175.789L307.869 180.986Z" fill="#5430AF"/>
<path d="M312.017 175.789L305.673 188.629L301.465 193.888L307.869 180.986L312.017 175.789Z" fill="#291069"/>
<path d="M298.17 293.245L278.835 278.693L274.932 268.727L294.328 283.279L298.17 293.245Z" fill="#291069"/>
<path d="M294.328 283.279L274.932 268.727L291.217 250.506L310.613 265.058L294.328 283.279Z" fill="#5430AF"/>
<path d="M314.456 275.086L298.171 293.246L294.328 283.279L310.614 265.059L314.456 275.086Z" fill="#291069"/>
<path d="M262.55 88.9642L253.157 86.5796L251.754 73.9229L261.147 76.3075L262.55 88.9642Z" fill="#291069"/>
<path d="M261.147 76.3076L251.754 73.923L261.635 70.0098L271.028 72.4555L261.147 76.3076Z" fill="#5430AF"/>
<path d="M271.028 72.4551L272.43 85.1118L262.549 88.9639L261.146 76.3071L271.028 72.4551Z" fill="#442397"/>
<path d="M201.252 123.877L207.29 129.196L216.623 134.577L210.645 129.258L201.252 123.877Z" fill="#B5B2CF"/>
<path d="M210.645 129.258L216.622 134.578L223.941 123.633L217.903 118.313L210.645 129.258Z" fill="#CFCDE2"/>
<path d="M208.571 112.933L201.252 123.877L210.645 129.258L217.903 118.313L208.571 112.933Z" fill="#E7E6F1"/>
<path d="M264.99 234.914L277.799 231.735L284.264 216.999L271.456 220.117L264.99 234.914Z" fill="#CFCDE2"/>
<path d="M271.455 220.118L284.264 216.999L272.004 206.177L259.195 209.295L271.455 220.118Z" fill="#F4F4FB"/>
<path d="M259.196 209.295L252.73 224.092L264.99 234.914L271.456 220.117L259.196 209.295Z" fill="#E7E6F1"/>
<path d="M332.756 167.35L344.955 160.196L345.016 146.684L332.817 153.776L332.756 167.35Z" fill="#CFCDE2"/>
<path d="M332.817 153.777L345.016 146.684L333.244 139.836L321.045 146.99L332.817 153.777Z" fill="#F4F4FB"/>
<path d="M321.045 146.99L320.984 160.503L332.756 167.351L332.817 153.777L321.045 146.99Z" fill="#E7E6F1"/>
<path d="M267.309 167.289L281.642 156.528L284.509 149.068L270.175 159.891L267.309 167.289Z" fill="#CFCDE2"/>
<path d="M270.176 159.891L284.51 149.068L272.433 135.556L258.1 146.378L270.176 159.891Z" fill="#F4F4FB"/>
<path d="M255.232 153.776L267.309 167.289L270.176 159.891L258.099 146.378L255.232 153.776Z" fill="#E7E6F1"/>
<path d="M312.934 106.819L322.266 104.434L323.669 91.7773L314.336 94.2231L312.934 106.819Z" fill="#CFCDE2"/>
<path d="M314.336 94.2226L323.668 91.7769L313.848 87.9248L304.516 90.3094L314.336 94.2226Z" fill="#F4F4FB"/>
<path d="M304.516 90.3096L303.113 102.966L312.933 106.818L314.336 94.2228L304.516 90.3096Z" fill="#E7E6F1"/>
<path d="M313.787 306.881C313.787 306.881 313.604 306.881 313.482 306.82L225.711 256.315L226.321 255.275L313.787 305.597L372.646 271.54L373.256 272.579L314.092 306.82C314.092 306.82 313.909 306.881 313.787 306.881Z" fill="#1F2846"/>
<path d="M316.409 266.588C316.409 266.588 316.227 266.588 316.105 266.526L212.292 206.789C212.292 206.789 211.926 206.239 212.048 205.994C212.231 205.688 212.597 205.627 212.841 205.749L316.348 265.304L386.004 225.01C386.004 225.01 386.675 224.949 386.797 225.254C386.98 225.56 386.858 225.927 386.553 226.049L316.592 266.526C316.592 266.526 316.409 266.588 316.287 266.588H316.409Z" fill="#1F2846"/>
<path d="M319.031 226.293C319.031 226.293 318.848 226.293 318.726 226.232L198.872 157.323C198.872 157.323 198.506 156.773 198.628 156.528C198.811 156.223 199.177 156.161 199.421 156.284L318.909 225.009L399.36 178.479C399.36 178.479 400.031 178.418 400.153 178.723C400.336 179.029 400.214 179.396 399.909 179.518L319.214 226.232C319.214 226.232 319.031 226.293 318.909 226.293H319.031Z" fill="#1F2846"/>
<path d="M321.654 186.122L321.349 185.938L185.515 107.797C185.515 107.797 185.149 107.246 185.271 107.002C185.454 106.696 185.82 106.635 186.064 106.757L321.593 184.716L412.779 131.949C412.779 131.949 413.45 131.887 413.572 132.193C413.755 132.499 413.633 132.866 413.328 132.988L321.532 186.122H321.654Z" fill="#1F2846"/>
<path d="M461.211 185.082L461.455 311.222L543.187 336.413L543.004 210.273L461.211 185.082Z" fill="#19E9DF"/>
<path d="M543.004 210.274L543.187 336.413L635.776 333.478L635.532 207.339L543.004 210.274Z" fill="#06C0C0"/>
<path d="M477.984 171.936C471.458 175.727 465.786 180.13 461.211 185.082L543.004 210.273L635.593 207.4C632.971 177.745 589.421 154.938 538.308 156.589C514.886 157.323 493.843 162.826 477.984 171.997V171.936Z" fill="#28F9EF"/>
<path d="M461.21 249.895C444.193 268.421 446.328 288.904 466.944 306.025L542.943 275.086L461.149 249.895H461.21Z" fill="#333B59"/>
<path d="M449.805 275.575L450.049 336.841C450.049 347.419 455.843 357.875 467.188 367.291L466.944 306.025C455.599 296.609 449.805 286.153 449.805 275.575Z" fill="#1F2846"/>
<path d="M466.943 306.025L467.187 367.352L543.186 336.413L543.003 275.086L466.943 306.025Z" fill="#273050"/>
<path d="M543.004 234.853L614.917 268.666C630.104 257.782 636.753 245.92 635.533 231.979L542.943 234.853H543.004Z" fill="#F4F4FB"/>
<path d="M543.004 234.854L543.187 336.413L615.16 370.226L614.916 268.666L543.004 234.854Z" fill="#E7E6F1"/>
<path d="M635.899 336.23L635.655 234.67C635.655 247.327 628.945 258.21 614.855 268.299L615.099 369.859C629.128 359.77 635.899 348.887 635.899 336.23Z" fill="#CFCDE2"/>
<path d="M466.943 338.614L467.187 367.352C496.465 391.687 554.287 397.557 596.251 380.437C600.765 378.602 604.729 376.707 608.389 374.567C610.707 373.222 612.964 371.754 615.159 370.226L614.915 341.488C612.72 343.078 610.463 344.484 608.145 345.829C604.485 347.969 600.521 349.865 596.007 351.699C554.043 368.758 496.221 362.949 466.943 338.614Z" fill="#442397"/>
<path d="M466.943 338.615C496.221 362.95 554.043 368.82 596.007 351.699C600.521 349.865 604.485 347.97 608.145 345.83C610.463 344.484 612.72 343.017 614.915 341.488L543.003 307.676L467.004 338.615H466.943Z" fill="#5430AF"/>
<g opacity="0.1">
<g style="mix-blend-mode:screen" opacity="0.3">
<path opacity="0.02" d="M368.56 146.867C318.788 164.721 253.158 160.93 210.158 135.433C159.593 105.412 159.593 56.7413 210.158 26.7808C260.722 -3.24075 342.698 -3.24075 393.201 26.7808C443.704 56.7413 443.766 105.289 393.384 135.311C385.76 139.836 377.404 143.749 368.499 146.928" fill="#190E2D"/>
<path opacity="0.03" d="M368.376 148.273C318.848 166.127 253.401 162.337 210.644 136.962C160.324 107.063 160.324 58.6367 210.644 28.7985C260.904 -1.1008 342.453 -1.1008 392.773 28.7985C442.972 58.5755 443.033 106.879 393.078 136.717C385.515 141.242 377.22 145.094 368.376 148.273Z" fill="#1A0F2F"/>
<path opacity="0.04" d="M368.194 149.619C318.911 167.473 253.708 163.682 211.073 138.368C160.997 108.713 160.997 60.5321 211.073 30.8162C261.149 1.10033 342.271 1.10033 392.348 30.8162C442.241 60.4709 442.363 108.408 392.714 138.124C385.211 142.648 376.916 146.5 368.194 149.619Z" fill="#1B0F30"/>
<path opacity="0.05" d="M367.949 150.964C318.909 168.757 253.95 165.089 211.498 139.836C161.727 110.304 161.727 62.3669 211.498 32.7734C261.331 3.24091 342.087 3.24091 391.919 32.7734C441.569 62.2447 441.691 109.937 392.407 139.53C384.905 143.994 376.732 147.846 368.01 150.964" fill="#1D1032"/>
<path opacity="0.06" d="M367.767 152.37C318.972 170.163 254.257 166.494 211.927 141.364C162.399 111.954 162.399 64.2618 211.927 34.7905C261.454 5.31921 341.844 5.38036 391.433 34.7905C440.777 64.0784 440.96 111.526 391.982 140.936C384.54 145.4 376.428 149.191 367.767 152.37Z" fill="#1E1134"/>
<path opacity="0.07" d="M367.584 153.716C319.032 171.447 254.501 167.84 212.415 142.832C163.07 113.605 163.07 66.0965 212.415 36.8087C261.759 7.52081 341.722 7.52081 391.006 36.8087C440.045 65.9131 440.289 113.055 391.677 142.343C384.296 146.806 376.184 150.597 367.584 153.716Z" fill="#1F1235"/>
<path opacity="0.08" d="M367.401 155.122C319.094 172.854 254.806 169.246 212.842 144.361C163.803 115.195 163.803 67.992 212.842 38.8264C261.942 9.72194 341.479 9.72194 390.579 38.8264C439.375 67.8085 439.619 114.645 391.311 143.749C383.992 148.151 375.941 151.942 367.401 155.061" fill="#201337"/>
<path opacity="0.09" d="M367.218 156.467C319.155 174.199 255.111 170.652 213.33 145.828C164.473 116.846 164.473 69.8262 213.269 40.844C262.125 11.8619 341.235 11.8619 390.091 40.844C438.581 69.6427 438.886 116.173 390.945 145.155C383.687 149.558 375.696 153.349 367.157 156.467" fill="#211439"/>
<path opacity="0.1" d="M366.974 157.873C319.154 175.544 255.354 172.059 213.695 147.356C165.144 118.497 165.144 71.7216 213.756 42.8617C262.307 14.0018 341.112 14.0018 389.663 42.8617C437.849 71.477 438.215 117.763 390.639 146.562C383.381 150.964 375.452 154.694 367.035 157.812" fill="#22153A"/>
<path opacity="0.11" d="M366.791 159.218C319.155 176.889 255.599 173.404 214.184 148.824C165.876 120.086 165.876 73.5558 214.184 44.8794C262.491 16.203 340.869 16.203 389.237 44.8794C437.179 73.3113 437.484 119.353 390.274 148.029C383.077 152.37 375.208 156.161 366.791 159.218Z" fill="#23153C"/>
<path opacity="0.12" d="M366.608 160.563C319.215 178.173 255.903 174.749 214.61 150.291C166.547 121.737 166.547 75.4512 214.61 46.8971C262.674 18.3429 340.685 18.3429 388.749 46.8971C436.385 75.2066 436.751 120.881 389.908 149.435C382.771 153.776 374.964 157.506 366.608 160.563Z" fill="#24163D"/>
<path opacity="0.13" d="M366.425 161.97C319.276 179.579 256.208 176.216 215.098 151.759C167.217 123.388 167.217 77.3466 215.098 48.9147C262.978 20.4829 340.502 20.4829 388.322 48.9147C435.653 77.0409 436.08 122.471 389.541 150.841C382.466 155.183 374.659 158.851 366.364 161.97" fill="#25173F"/>
<path opacity="0.14" d="M366.181 163.315C319.277 180.924 256.453 177.561 215.525 153.226C167.95 124.978 167.95 79.1808 215.525 50.9324C263.101 22.684 340.32 22.684 387.895 50.9324C434.983 78.8751 435.41 123.999 389.237 152.248C382.223 156.528 374.476 160.257 366.242 163.315" fill="#271841"/>
<path opacity="0.15" d="M365.998 164.721C319.337 182.269 256.696 178.967 215.952 154.754C168.62 126.628 168.62 81.0762 215.952 52.9501C263.283 24.8239 340.075 24.8239 387.407 52.9501C434.189 80.7093 434.677 125.589 388.809 153.654C381.856 157.934 374.171 161.603 365.937 164.66" fill="#281942"/>
<path opacity="0.16" d="M365.814 166.067C319.398 183.615 257.001 180.314 216.44 156.223C169.291 128.28 169.291 82.9115 216.44 54.9688C263.527 27.026 339.892 27.026 387.04 54.9688C433.579 82.6057 434.067 127.18 388.565 155.061C381.612 159.341 373.988 163.01 365.875 166.067" fill="#291A44"/>
<path opacity="0.17" d="M365.632 167.412C319.459 184.96 257.306 181.72 216.867 157.69C170.023 129.931 170.023 84.8068 216.867 56.9864C263.711 29.166 339.71 29.166 386.553 56.9864C432.787 84.44 433.336 128.708 388.2 156.528C381.308 160.747 373.744 164.416 365.632 167.473" fill="#2A1B45"/>
<path opacity="0.18" d="M365.449 168.818C319.52 186.305 257.611 183.126 217.355 159.219C170.694 131.521 170.694 86.6411 217.294 59.0041C263.893 31.3059 339.465 31.3059 386.065 59.0041C431.993 86.2742 432.603 130.298 387.773 157.935C380.941 162.154 373.439 165.822 365.388 168.818" fill="#2B1C47"/>
<path opacity="0.19" d="M365.204 170.163C319.519 187.651 257.793 184.471 217.72 160.686C171.364 133.171 171.364 88.5365 217.72 61.0218C264.075 33.5071 339.281 33.5071 385.637 61.0218C431.322 88.1085 431.932 131.826 387.467 159.341C380.696 163.56 373.194 167.167 365.204 170.163Z" fill="#2C1C49"/>
<path opacity="0.2" d="M365.022 171.57C319.581 188.996 258.099 185.877 218.209 162.215C172.097 134.822 172.097 90.4318 218.209 63.0394C264.32 35.647 339.099 35.647 385.211 63.0394C430.591 90.0038 431.201 133.416 387.102 160.747C380.392 164.966 372.951 168.512 365.022 171.57Z" fill="#2D1D4A"/>
<path opacity="0.21" d="M364.838 172.915C319.642 190.341 258.403 187.284 218.635 163.682C172.767 136.412 172.767 92.2661 218.635 65.0571C264.503 37.8481 338.855 37.8481 384.783 65.0571C429.858 91.8381 430.529 135.006 386.796 162.153C380.087 166.311 372.768 169.919 364.838 172.915Z" fill="#2E1E4C"/>
<path opacity="0.22" d="M364.655 174.26C319.641 191.686 258.708 188.629 219.123 165.149C173.438 138.063 173.438 94.1615 219.062 67.0748C264.685 39.9881 338.671 39.9881 384.295 67.0748C429.126 93.6723 429.797 136.534 386.369 163.621C379.721 167.779 372.401 171.325 364.594 174.321" fill="#2F1F4E"/>
<path opacity="0.23" d="M364.412 175.666C319.642 193.031 258.892 190.035 219.489 166.617C174.171 139.714 174.171 95.9957 219.55 69.0924C264.93 42.128 338.489 42.128 383.869 69.0924C428.395 95.5066 429.126 138.124 386.064 165.027C379.477 169.185 372.219 172.731 364.412 175.666Z" fill="#31204F"/>
<path opacity="0.24" d="M364.228 177.011C319.702 194.376 259.196 191.38 219.977 168.084C174.841 141.303 174.841 97.8296 219.977 71.0486C265.113 44.2676 338.306 44.2676 383.441 71.0486C427.662 97.3404 428.455 139.591 385.698 166.372C379.172 170.468 371.974 174.015 364.228 177.011Z" fill="#322151"/>
<path opacity="0.25" d="M364.047 178.417C319.765 195.721 259.502 192.786 220.405 169.613C175.513 142.954 175.513 99.7865 220.405 73.1278C265.297 46.4691 338.063 46.4691 382.955 73.1278C426.932 99.2362 427.725 141.242 385.334 167.84C378.868 171.936 371.671 175.482 364.047 178.417Z" fill="#332252"/>
<path opacity="0.26" d="M363.863 179.763C319.825 197.067 259.806 194.193 220.892 171.081C176.244 144.605 176.244 101.621 220.892 75.085C265.54 48.6097 337.94 48.6097 382.527 75.085C426.199 101.01 427.053 142.771 385.028 169.185C378.623 173.282 371.487 176.767 363.863 179.702" fill="#342254"/>
<path opacity="0.27" d="M363.679 181.108C319.885 198.412 260.05 195.538 221.318 172.548C176.915 146.195 176.915 103.456 221.318 77.1026C265.722 50.7496 337.696 50.7496 382.099 77.1026C425.466 102.844 426.381 144.3 384.661 170.591C378.257 174.627 371.242 178.112 363.679 181.108Z" fill="#352356"/>
<path opacity="0.28" d="M363.436 182.514C319.887 199.756 260.295 196.944 221.747 174.076C177.587 147.845 177.587 105.35 221.747 79.1808C265.907 52.9501 337.453 52.9501 381.613 79.1808C424.736 104.8 425.59 145.95 384.296 172.119C377.953 176.155 370.939 179.64 363.436 182.575" fill="#362457"/>
<path opacity="0.29" d="M363.252 183.86C319.947 201.102 260.599 198.289 222.234 175.544C178.318 149.497 178.318 107.246 222.234 81.138C266.15 55.0907 337.33 55.0907 381.246 81.138C424.064 106.574 424.979 147.418 383.99 173.465C377.708 177.501 370.755 180.925 363.313 183.86" fill="#372559"/>
<path opacity="0.3" d="M363.071 185.266C320.009 202.509 260.906 199.757 222.662 177.073C178.99 151.148 178.99 109.142 222.662 83.2172C266.334 57.2922 337.087 57.2922 380.759 83.2172C423.333 108.47 424.248 149.069 383.626 174.933C377.405 178.907 370.512 182.392 363.071 185.266Z" fill="#38265A"/>
<path opacity="0.31" d="M362.887 186.611C320.069 203.793 261.148 201.102 223.149 178.54C179.721 152.799 179.721 110.976 223.149 85.2349C266.577 59.4933 336.964 59.4933 380.331 85.2349C422.6 110.304 423.576 150.659 383.259 176.339C377.099 180.313 370.206 183.738 362.887 186.672" fill="#39275C"/>
<path opacity="0.32" d="M362.643 188.017C320.008 205.198 261.392 202.508 223.515 180.007C180.331 154.388 180.331 112.81 223.515 87.191C266.699 61.5718 336.659 61.5718 379.843 87.191C421.807 112.138 422.844 152.126 382.893 177.684C376.793 181.658 369.962 185.082 362.643 187.956" fill="#3A285E"/>
<path opacity="0.33" d="M362.461 189.362C320.07 206.482 261.698 203.853 224.004 181.475C181.064 155.978 181.064 114.706 224.004 89.2087C266.944 63.7117 336.477 63.7117 379.417 89.2087C421.137 113.972 422.174 153.715 382.589 179.151C376.489 183.064 369.78 186.488 362.522 189.362" fill="#3C285F"/>
<path opacity="0.34" d="M362.277 190.707C320.13 207.828 262.003 205.26 224.43 182.942C181.734 157.629 181.734 116.54 224.43 91.2264C267.126 65.9128 336.294 65.9128 378.99 91.2264C420.405 115.806 421.503 155.244 382.222 180.557C376.184 184.471 369.474 187.834 362.277 190.707Z" fill="#3D2961"/>
<path opacity="0.35" d="M362.093 192.113C320.19 209.234 262.246 206.666 224.917 184.471C182.465 159.279 182.465 118.435 224.917 93.244C267.369 68.0528 336.11 68.0528 378.562 93.244C419.672 117.64 420.831 156.834 381.916 181.964C375.939 185.877 369.29 189.24 362.154 192.113" fill="#3E2A62"/>
<path opacity="0.36" d="M361.851 193.459C320.192 210.518 262.491 208.011 225.285 185.938C183.077 160.869 183.077 120.269 225.285 95.2617C267.493 70.1927 335.867 70.1927 378.014 95.2617C418.881 119.536 419.979 158.423 381.43 183.37C375.514 187.222 368.926 190.585 361.79 193.459" fill="#3F2B64"/>
<path opacity="0.37" d="M361.666 194.865C320.251 211.924 262.795 209.417 225.771 187.467C183.868 162.581 183.868 122.226 225.771 97.3409C267.674 72.4554 335.683 72.4554 377.647 97.3409C418.208 121.432 419.367 160.013 381.184 184.838C375.329 188.69 368.742 192.053 361.727 194.865" fill="#402C66"/>
<path opacity="0.38" d="M361.485 196.21C320.313 213.208 263.101 210.823 226.199 188.934C184.54 164.171 184.54 124.06 226.199 99.297C267.858 74.5338 335.501 74.5338 377.16 99.297C417.416 123.204 418.636 161.541 380.759 186.182C374.903 190.034 368.438 193.336 361.424 196.21" fill="#412D67"/>
<path opacity="0.39" d="M361.301 197.556C320.373 214.554 263.344 212.169 226.686 190.402C185.271 165.822 185.271 125.896 226.686 101.316C268.101 76.7359 335.317 76.7359 376.732 101.316C416.744 125.04 417.964 163.071 380.453 187.651C374.658 191.442 368.254 194.805 361.301 197.617" fill="#422E69"/>
<path opacity="0.4" d="M361.119 198.962C320.436 215.96 263.65 213.575 227.115 191.93C185.944 167.473 185.944 127.851 227.115 103.394C268.286 78.9364 335.074 78.9364 376.307 103.394C416.014 126.995 417.295 164.721 380.088 189.118C374.355 192.908 367.95 196.21 361.058 199.023" fill="#432E6B"/>
<path opacity="0.41" d="M360.874 200.307C320.435 217.244 263.894 214.92 227.541 193.337C186.614 169.001 186.614 129.625 227.541 105.29C268.468 80.9543 334.891 80.9543 375.818 105.29C415.22 128.708 416.562 166.189 379.722 190.402C374.049 194.193 367.706 197.433 360.874 200.246" fill="#442F6C"/>
<path opacity="0.42" d="M360.691 201.714C320.435 218.65 264.198 216.388 227.967 194.865C187.284 170.714 187.284 131.521 227.967 107.369C268.651 83.2169 334.646 83.2169 375.391 107.369C414.549 130.603 415.891 167.779 379.416 191.869C373.805 195.599 367.522 198.901 360.691 201.714Z" fill="#46306E"/>
<path opacity="0.43" d="M360.509 203.059C320.497 219.995 264.443 217.733 228.456 196.333C188.017 172.303 188.017 133.355 228.456 109.386C268.896 85.3569 334.525 85.3569 374.965 109.386C413.818 132.438 415.221 169.368 379.051 193.276C373.501 197.005 367.218 200.246 360.509 203.059Z" fill="#47316F"/>
<path opacity="0.44" d="M360.325 204.403C320.557 221.279 264.747 219.078 228.883 197.8C188.688 173.954 188.688 135.25 228.883 111.343C269.078 87.4965 334.281 87.4965 374.476 111.343C413.085 134.271 414.427 170.835 378.685 194.62C373.134 198.35 366.974 201.591 360.264 204.342" fill="#483271"/>
<path opacity="0.45" d="M360.081 205.81C320.556 222.686 264.991 220.484 229.309 199.329C189.358 175.605 189.358 137.146 229.309 113.422C269.26 89.698 334.097 89.698 374.048 113.422C412.353 136.167 413.756 172.487 378.318 196.149C372.829 199.818 366.729 203.059 360.081 205.81Z" fill="#493373"/>
<path opacity="0.46" d="M359.899 207.155C320.618 223.97 265.297 221.891 229.798 200.796C190.091 177.195 190.091 138.98 229.798 115.439C269.505 91.8379 333.915 91.8379 373.622 115.439C411.622 138.001 413.025 173.954 378.014 197.556C372.586 201.224 366.547 204.465 359.96 207.216" fill="#4A3474"/>
<path opacity="0.47" d="M359.715 208.561C320.679 225.376 265.54 223.297 230.224 202.325C190.761 178.907 190.761 140.875 230.224 117.457C269.688 94.039 333.671 94.039 373.195 117.457C410.95 139.836 412.353 175.544 377.648 198.962C372.28 202.569 366.242 205.81 359.715 208.561Z" fill="#4B3476"/>
<path opacity="0.48" d="M359.533 209.906C320.741 226.721 265.846 224.642 230.713 203.792C191.494 180.496 191.494 142.771 230.713 119.475C269.933 96.179 333.55 96.179 372.769 119.475C410.219 141.731 411.683 177.133 377.343 200.368C372.037 203.975 366.06 207.216 359.594 209.906" fill="#4C3577"/>
<path opacity="0.49" d="M359.35 211.313C320.801 228.066 266.15 226.049 231.14 205.321C192.164 182.209 192.164 144.666 231.14 121.554C270.115 98.4416 333.305 98.4416 372.28 121.554C409.426 143.627 410.951 178.723 376.977 201.836C371.67 205.443 365.815 208.623 359.35 211.374" fill="#4D3679"/>
<path opacity="0.5" d="M359.105 212.658C320.801 229.412 266.394 227.455 231.566 206.727C192.835 183.737 192.835 146.44 231.566 123.45C270.297 100.46 333.122 100.46 371.853 123.45C408.754 145.339 410.279 180.191 376.61 203.181C371.365 206.727 365.509 209.907 359.166 212.658" fill="#4E377B"/>
<path opacity="0.5" d="M358.922 214.003C320.861 230.696 266.637 228.8 231.992 208.195C193.505 185.327 193.505 148.274 231.992 125.467C270.48 102.599 332.877 102.599 371.364 125.467C407.961 147.173 409.547 181.72 376.244 204.587C371.059 208.134 365.265 211.313 358.922 214.003Z" fill="#50387C"/>
<path opacity="0.51" d="M358.739 215.41C320.923 232.102 266.943 230.206 232.481 209.723C194.238 187.039 194.238 150.23 232.481 127.485C270.725 104.801 332.695 104.801 370.938 127.485C407.23 149.069 408.877 183.309 375.879 205.994C370.755 209.54 365.022 212.658 358.739 215.349" fill="#51397E"/>
<path opacity="0.52" d="M358.556 216.755C320.922 233.447 267.248 231.552 232.908 211.191C194.908 188.629 194.908 152.065 232.908 129.503C270.907 106.941 332.511 106.941 370.511 129.503C406.558 150.903 408.144 184.899 375.573 207.4C370.511 210.885 364.777 214.064 358.556 216.755Z" fill="#523A80"/>
<path opacity="0.53" d="M358.313 218.161C320.924 234.792 267.493 233.019 233.336 212.72C195.581 190.28 195.581 153.96 233.336 131.582C271.092 109.142 332.269 109.142 370.024 131.582C405.767 152.799 407.414 186.489 375.148 208.868C370.085 212.353 364.474 215.471 358.313 218.161Z" fill="#533B81"/>
<path opacity="0.54" d="M358.13 219.506C320.984 236.137 267.736 234.364 233.763 214.187C196.251 191.93 196.251 155.855 233.763 133.538C271.274 111.282 332.085 111.282 369.597 133.538C405.034 154.571 406.742 188.017 374.842 210.212C369.841 213.697 364.29 216.816 358.13 219.445" fill="#543B83"/>
<path opacity="0.55" d="M357.946 220.851C321.044 237.482 268.04 235.709 234.249 215.654C196.982 193.52 196.982 157.69 234.249 135.556C271.517 113.422 331.901 113.422 369.169 135.556C404.362 156.467 406.07 189.546 374.475 211.68C369.535 215.104 363.984 218.222 357.946 220.851Z" fill="#553C84"/>
<path opacity="0.56" d="M357.764 222.258C321.107 238.828 268.347 237.116 234.678 217.183C197.654 195.232 197.654 159.585 234.678 137.635C271.701 115.684 331.72 115.684 368.682 137.635C403.571 158.363 405.34 191.197 374.111 213.147C369.231 216.571 363.742 219.629 357.703 222.319" fill="#563D86"/>
<path opacity="0.57" d="M357.58 223.603C321.167 240.173 268.651 238.522 235.165 218.65C198.385 196.822 198.385 161.419 235.165 139.591C271.944 117.763 331.536 117.763 368.315 139.591C402.96 160.135 404.729 192.725 373.866 214.492C369.047 217.916 363.619 220.973 357.641 223.603" fill="#573E88"/>
<path opacity="0.58" d="M357.336 225.009C321.166 241.518 268.833 239.928 235.531 220.179C198.995 198.473 198.995 163.376 235.531 141.67C272.066 119.964 331.231 119.964 367.766 141.67C402.106 162.031 403.936 194.315 373.378 215.96C368.62 219.323 363.192 222.38 357.275 225.009" fill="#583F89"/>
<path opacity="0.59" d="M357.154 226.354C321.228 242.863 269.139 241.273 236.019 221.585C199.728 200.062 199.728 165.149 236.019 143.626C272.311 122.104 331.109 122.104 367.34 143.626C401.375 163.865 403.266 195.843 373.074 217.305C368.316 220.668 363.009 223.725 357.154 226.354Z" fill="#5A408B"/>
<path opacity="0.6" d="M356.971 227.7C321.289 244.208 269.444 242.619 236.446 223.053C200.398 201.652 200.398 166.984 236.446 145.583C272.493 124.183 330.865 124.183 366.913 145.583C400.703 165.639 402.533 197.311 372.707 218.711C368.01 222.074 362.765 225.07 356.909 227.7" fill="#5B418C"/>
<path opacity="0.61" d="M356.788 229.106C321.351 245.554 269.75 244.086 236.935 224.582C201.131 203.365 201.131 168.88 236.935 147.663C272.738 126.446 330.744 126.446 366.487 147.663C399.972 167.534 401.863 198.962 372.403 220.179C367.767 223.481 362.522 226.538 356.788 229.106Z" fill="#5C418E"/>
<path opacity="0.62" d="M356.544 230.451C321.289 246.899 269.932 245.432 237.361 226.049C201.801 204.954 201.801 170.775 237.361 149.68C272.921 128.586 330.499 128.586 366.059 149.68C399.24 169.369 401.192 200.552 372.036 221.585C367.462 224.887 362.277 227.883 356.544 230.451Z" fill="#5D4290"/>
<path opacity="0.63" d="M356.36 231.857C321.35 248.244 270.236 246.838 237.788 227.577C202.472 206.605 202.472 172.67 237.788 151.698C273.103 130.726 330.255 130.726 365.57 151.698C398.507 171.264 400.459 202.08 371.67 222.992C367.156 226.293 362.033 229.228 356.36 231.857Z" fill="#5E4391"/>
<path opacity="0.64" d="M356.177 233.203C321.411 249.589 270.542 248.183 238.276 229.045C203.265 208.256 203.265 174.505 238.276 153.716C273.286 132.927 330.133 132.927 365.144 153.716C397.776 173.098 399.788 203.67 371.365 224.398C366.851 227.7 361.789 230.635 356.177 233.203Z" fill="#5F4493"/>
<path opacity="0.65" d="M355.994 234.548C321.471 250.934 270.846 249.589 238.702 230.512C203.935 209.846 203.935 176.339 238.702 155.733C273.469 135.067 329.888 135.067 364.716 155.733C397.043 174.932 399.117 205.199 370.999 225.804C366.546 229.045 361.544 231.98 355.994 234.548Z" fill="#604595"/>
<path opacity="0.66" d="M355.812 235.954C321.533 252.279 271.091 250.995 239.191 232.041C204.668 211.558 204.668 178.295 239.191 157.751C273.714 137.268 329.767 137.268 364.29 157.751C396.373 176.767 398.447 206.788 370.694 227.272C366.303 230.512 361.362 233.447 355.812 235.954Z" fill="#614696"/>
<path opacity="0.67" d="M355.568 237.299C321.533 253.624 271.335 252.34 239.557 233.508C205.278 213.147 205.278 180.13 239.557 159.769C273.835 139.408 329.462 139.408 363.802 159.769C395.58 178.662 397.715 208.378 370.267 228.678C365.937 231.918 360.996 234.792 355.568 237.36" fill="#624798"/>
<path opacity="0.68" d="M355.384 238.706C321.593 254.97 271.639 253.747 240.044 234.976C206.009 214.737 206.009 181.964 240.044 161.787C274.078 141.609 329.339 141.548 363.374 161.787C394.847 180.497 396.982 209.907 369.961 230.085C365.692 233.264 360.812 236.199 355.445 238.706" fill="#644799"/>
<path opacity="0.69" d="M355.202 240.05C321.655 256.314 271.945 255.152 240.472 236.442C206.681 216.387 206.681 183.859 240.472 163.743C274.263 143.687 329.097 143.687 362.887 163.743C394.117 182.269 396.251 211.435 369.536 231.429C365.327 234.608 360.509 237.482 355.141 239.989" fill="#65489B"/>
<path opacity="0.7" d="M355.018 241.457C321.715 257.721 272.188 256.559 240.959 237.971C207.412 218.038 207.412 185.755 240.959 165.822C274.506 145.889 328.913 145.889 362.52 165.822C393.445 184.165 395.64 213.025 369.291 232.896C365.082 236.076 360.325 238.889 355.079 241.457" fill="#66499D"/>
<path opacity="0.71" d="M354.774 242.802C321.715 259.005 272.432 257.904 241.325 239.439C208.022 219.689 208.022 187.589 241.325 167.839C274.628 148.09 328.669 148.09 361.971 167.839C392.591 186.06 394.847 214.614 368.803 234.303C364.655 237.421 359.959 240.295 354.713 242.802" fill="#674A9E"/>
<path opacity="0.72" d="M354.592 244.147C321.777 260.35 272.738 259.25 241.814 240.907C208.755 221.28 208.755 189.424 241.814 169.797C274.873 150.169 328.487 150.169 361.545 169.797C391.921 187.834 394.177 216.144 368.499 235.71C364.412 238.828 359.777 241.64 354.592 244.147Z" fill="#684BA0"/>
<path opacity="0.73" d="M354.408 245.553C321.777 261.756 273.042 260.717 242.24 242.435C209.425 222.93 209.425 191.38 242.24 171.875C275.055 152.37 328.303 152.37 361.118 171.875C391.188 189.729 393.506 217.733 368.193 237.176C364.168 240.295 359.532 243.107 354.408 245.553Z" fill="#694CA1"/>
<path opacity="0.74" d="M354.226 246.899C321.839 263.041 273.287 262.063 242.729 243.903C210.158 224.582 210.158 193.215 242.729 173.893C275.3 154.572 328.121 154.572 360.692 173.893C390.518 191.564 392.836 219.323 367.828 238.584C363.864 241.641 359.289 244.453 354.226 246.96" fill="#6A4DA3"/>
<path opacity="0.75" d="M354.043 248.305C321.899 264.447 273.591 263.469 243.155 245.432C210.828 226.232 210.828 195.11 243.155 175.911C275.482 156.712 327.937 156.712 360.264 175.911C389.786 193.459 392.164 220.913 367.523 239.99C363.619 243.047 359.105 245.86 354.043 248.305Z" fill="#6B4DA5"/>
<path opacity="0.76" d="M353.798 249.65C321.898 265.731 273.835 264.814 243.582 246.899C211.499 227.822 211.499 196.944 243.582 177.929C275.665 158.852 327.693 158.852 359.776 177.929C388.992 195.294 391.432 222.441 367.095 241.396C363.191 244.453 358.739 247.205 353.798 249.65Z" fill="#6C4EA6"/>
<path opacity="0.77" d="M353.616 250.995C321.96 267.076 274.141 266.22 244.071 248.305C212.232 229.411 212.232 198.778 244.071 179.885C275.91 160.991 327.511 160.991 359.35 179.885C388.322 197.066 390.701 223.97 366.791 242.802C362.948 245.798 358.557 248.549 353.616 250.995Z" fill="#6D4FA8"/>
<path opacity="0.78" d="M353.433 252.401C322.021 268.482 274.384 267.626 244.497 249.833C212.902 231.062 212.902 200.674 244.497 181.903C276.092 163.131 327.327 163.131 358.922 181.903C387.59 198.901 390.029 225.498 366.425 244.208C362.643 247.204 358.312 249.956 353.433 252.401Z" fill="#6F50A9"/>
<path opacity="0.79" d="M353.251 253.746C322.083 269.766 274.69 268.971 244.986 251.301C213.635 232.713 213.635 202.508 244.986 183.92C276.337 165.333 327.145 165.333 358.496 183.92C386.859 200.796 389.359 227.088 366.12 245.614C362.4 248.61 358.069 251.301 353.251 253.746Z" fill="#7051AB"/>
<path opacity="0.8" d="M353.007 255.153C322.083 271.172 274.934 270.377 245.352 252.829C214.245 234.364 214.245 204.403 245.352 185.938C276.459 167.473 326.901 167.473 358.008 185.938C386.127 202.63 388.627 228.677 365.754 247.021C362.095 249.955 357.825 252.707 353.068 255.092" fill="#7152AD"/>
<path opacity="0.81" d="M352.823 256.498C322.143 272.456 275.238 271.723 245.839 254.297C214.976 235.953 214.976 206.299 245.839 187.956C276.702 169.612 326.717 169.612 357.58 187.956C385.394 204.464 387.955 230.206 365.387 248.427C361.728 251.362 357.58 254.052 352.823 256.498Z" fill="#7253AE"/>
<path opacity="0.82" d="M352.639 257.843C322.203 273.801 275.481 273.129 246.265 255.764C215.646 237.604 215.646 208.133 246.265 189.973C276.884 171.814 326.473 171.814 357.092 189.973C384.6 206.299 387.223 231.796 365.021 249.833C361.422 252.768 357.275 255.458 352.639 257.843Z" fill="#7353B0"/>
<path opacity="0.83" d="M352.457 259.25C322.204 275.209 275.787 274.536 246.754 257.293C216.379 239.256 216.379 210.029 246.754 191.992C277.129 173.955 326.352 173.955 356.727 191.992C383.991 208.195 386.614 233.386 364.717 251.301C361.179 254.175 357.093 256.865 352.457 259.25Z" fill="#7454B2"/>
<path opacity="0.84" d="M352.273 260.595C322.264 276.493 276.092 275.881 247.18 258.761C217.049 240.907 217.049 211.925 247.18 194.01C277.312 176.156 326.107 176.156 356.238 194.01C383.198 210.029 385.881 234.915 364.35 252.708C360.874 255.581 356.848 258.272 352.273 260.595Z" fill="#7555B3"/>
<path opacity="0.85" d="M352.031 262.001C322.266 277.898 276.337 277.287 247.609 260.289C217.722 242.557 217.722 213.82 247.609 196.088C277.496 178.356 325.925 178.356 355.752 196.088C382.406 211.924 385.151 236.565 363.925 254.174C360.509 257.048 356.483 259.677 351.97 262.062" fill="#7656B5"/>
<path opacity="0.86" d="M351.847 263.347C322.326 279.244 276.58 278.694 248.035 261.757C218.392 244.147 218.392 215.654 248.035 198.045C277.678 180.436 325.681 180.436 355.324 198.045C381.735 213.698 384.418 238.033 363.619 255.52C360.265 258.333 356.3 260.962 351.847 263.347Z" fill="#7757B6"/>
<path opacity="0.87" d="M351.663 264.691C322.386 280.527 276.884 280.038 248.522 263.163C219.123 245.737 219.123 217.427 248.522 200.001C277.921 182.575 325.558 182.575 354.896 200.001C381.002 215.532 383.746 239.561 363.252 256.865C359.898 259.677 356.055 262.307 351.602 264.63" fill="#7958B8"/>
<path opacity="0.88" d="M351.482 266.098C322.448 281.934 277.191 281.445 248.95 264.692C219.795 247.388 219.795 219.384 248.95 202.08C278.106 184.777 325.315 184.777 354.47 202.08C380.332 217.427 383.077 241.212 362.949 258.394C359.655 261.206 355.873 263.774 351.482 266.098Z" fill="#7A59BA"/>
<path opacity="0.89" d="M351.237 267.443C322.448 283.218 277.434 282.79 249.377 266.159C220.466 249.038 220.466 221.218 249.377 204.036C278.288 186.916 325.071 186.916 353.982 204.036C379.539 219.2 382.405 242.741 362.582 259.738C359.349 262.49 355.568 265.119 351.298 267.443" fill="#7B5ABB"/>
<path opacity="0.9" d="M351.054 268.849C322.508 284.624 277.678 284.257 249.803 267.687C221.136 250.689 221.136 223.114 249.803 206.116C278.47 189.118 324.887 189.118 353.493 206.116C378.745 221.096 381.673 244.392 362.155 261.206C358.983 263.958 355.262 266.526 350.993 268.849" fill="#7C5ABD"/>
<path opacity="0.91" d="M350.872 270.194C322.57 285.969 277.983 285.602 250.292 269.155C221.869 252.279 221.869 224.948 250.292 208.133C278.715 191.258 324.705 191.258 353.128 208.133C378.136 222.991 381.064 245.92 361.912 262.612C358.801 265.364 355.141 267.932 350.933 270.194" fill="#7D5BBE"/>
<path opacity="0.92" d="M350.689 271.601C322.631 287.314 278.289 287.009 250.78 270.683C222.662 253.991 222.662 226.904 250.78 210.151C278.899 193.459 324.583 193.459 352.702 210.151C377.404 224.826 380.332 247.51 361.546 264.019C358.496 266.77 354.836 269.277 350.689 271.601Z" fill="#7E5CC0"/>
<path opacity="0.93" d="M350.505 272.946C322.631 288.66 278.593 288.354 251.207 272.151C223.332 255.581 223.332 228.739 251.207 212.169C279.081 195.599 324.339 195.599 352.274 212.169C376.672 226.66 379.66 249.038 361.24 265.425C358.19 268.115 354.653 270.622 350.566 272.946" fill="#7F5DC2"/>
<path opacity="0.94" d="M350.261 274.291C322.63 289.944 278.775 289.76 251.633 273.618C224.003 257.17 224.003 230.573 251.633 214.186C279.263 197.8 324.155 197.8 351.785 214.186C375.939 228.494 378.928 250.628 360.813 266.892C357.824 269.583 354.347 272.09 350.261 274.352" fill="#805EC3"/>
<path opacity="0.95" d="M350.079 275.697C322.693 291.35 279.082 291.166 252.061 275.147C224.675 258.882 224.675 232.468 252.061 216.204C279.448 199.94 323.913 199.94 351.299 216.204C375.148 230.389 378.197 252.218 360.448 268.299C357.52 270.989 354.044 273.435 350.079 275.697Z" fill="#815FC5"/>
<path opacity="0.96" d="M349.895 277.043C322.753 292.695 279.386 292.512 252.548 276.553C225.406 260.412 225.406 234.303 252.548 218.161C279.691 202.019 323.729 202.019 350.932 218.161C374.476 232.163 377.586 253.686 360.142 269.644C357.275 272.273 353.86 274.78 349.895 277.043Z" fill="#8360C7"/>
<path opacity="0.97" d="M349.711 278.449C322.813 294.041 279.69 293.919 252.975 278.082C226.076 262.124 226.076 236.199 252.975 220.24C279.873 204.282 323.545 204.282 350.443 220.24C373.743 234.059 376.854 255.337 359.776 271.112C356.97 273.741 353.615 276.187 349.711 278.449Z" fill="#8460C8"/>
<path opacity="0.98" d="M349.469 279.794C322.814 295.386 279.874 295.324 253.403 279.549C226.748 263.713 226.748 238.033 253.403 222.197C280.057 206.36 323.302 206.36 349.957 222.197C372.952 235.832 376.123 256.804 359.411 272.457C356.666 275.086 353.312 277.532 349.469 279.733" fill="#8561CA"/>
<path opacity="0.99" d="M349.285 281.14C322.875 296.731 280.179 296.67 253.829 281.017C227.419 265.303 227.419 239.868 253.829 224.215C280.24 208.562 323.119 208.501 349.529 224.215C372.219 237.727 375.452 258.394 359.044 273.863C356.3 276.431 353.067 278.877 349.285 281.078" fill="#8662CB"/>
<path d="M349.101 226.232C375.268 241.762 375.268 266.954 349.101 282.484C322.935 298.015 280.483 298.015 254.316 282.484C228.15 266.954 228.15 241.762 254.316 226.232C280.483 210.701 322.935 210.701 349.101 226.232Z" fill="#8763CD"/>
</g>
<g style="mix-blend-mode:screen">
<path opacity="0.5" d="M232.541 205.565L235.53 203.792V200.307L232.541 202.019V205.565Z" fill="#1F2846"/>
<path opacity="0.4" d="M229.553 113.667L232.541 111.893V108.408L229.553 110.181V113.667Z" fill="#1F2846"/>
<path opacity="0.1" d="M396.617 45.9185L399.667 44.1453V40.6602L396.617 42.4333V45.9185Z" fill="#1F2846"/>
<path opacity="0.3" d="M269.566 147.54L272.616 145.828V142.343L269.566 144.055V147.54Z" fill="#1F2846"/>
<path opacity="0.7" d="M355.689 198.228L358.739 196.516V193.031L355.689 194.743V198.228Z" fill="#1F2846"/>
<path opacity="0.1" d="M339.221 74.7174L342.209 72.9442V69.459L339.221 71.2322V74.7174Z" fill="#1F2846"/>
<path opacity="0.3" d="M364.168 128.708L367.218 126.996V123.511L364.168 125.223V128.708Z" fill="#1F2846"/>
<path opacity="0.1" d="M229.613 72.4556L232.663 70.6825V67.1973L229.613 68.9704V72.4556Z" fill="#1F2846"/>
<path opacity="0.1" d="M281.094 40.9052L284.143 39.1932V35.708L281.094 37.42V40.9052Z" fill="#1F2846"/>
<path opacity="0.3" d="M306.102 94.9566L309.09 93.1834V89.6982L306.102 91.4714V94.9566Z" fill="#1F2846"/>
<path d="M312.811 173.71L315.799 171.936V168.451L312.811 170.224V173.71Z" fill="#1F2846"/>
<path d="M368.742 232.407L371.731 230.695V227.21L368.742 228.922V232.407Z" fill="#1F2846"/>
<path d="M214.305 178.907L217.293 177.195V173.71L214.305 175.422V178.907Z" fill="#1F2846"/>
</g>
</g>
<path d="M327.869 40.2918C327.768 40.2918 327.651 40.2628 327.564 40.2047C327.376 40.0886 327.26 39.8853 327.26 39.6676V25.6462C327.26 25.4285 327.376 25.2253 327.564 25.1092L339.752 18.0695C339.941 17.9534 340.187 17.9534 340.376 18.0695C340.565 18.1856 340.681 18.3888 340.681 18.6066V32.6279C340.681 32.8457 340.565 33.0489 340.376 33.165L328.188 40.2047C328.087 40.2628 327.985 40.2918 327.884 40.2918H327.869ZM328.493 26.0091V38.5935L339.447 32.2651V19.6806L328.493 26.0091Z" fill="#1F2846"/>
<path d="M327.867 40.2918C327.766 40.2918 327.65 40.2628 327.563 40.2047L315.375 33.165C315.186 33.0489 315.07 32.8457 315.07 32.6279V18.6066C315.07 18.3888 315.186 18.1856 315.375 18.0695C315.564 17.9534 315.81 17.9534 315.999 18.0695L328.187 25.1092C328.375 25.2253 328.491 25.4285 328.491 25.6462V39.6676C328.491 39.8853 328.375 40.0886 328.187 40.2047C328.085 40.2628 327.983 40.2918 327.882 40.2918H327.867ZM316.304 32.2651L327.258 38.5935V26.0091L316.304 19.6806V32.2651Z" fill="#1F2846"/>
<path d="M327.867 26.2701C327.766 26.2701 327.65 26.2411 327.563 26.183L315.375 19.1433C315.186 19.0272 315.07 18.824 315.07 18.6062C315.07 18.3885 315.186 18.1853 315.375 18.0692L327.563 11.0295C327.751 10.9134 327.998 10.9134 328.187 11.0295L340.374 18.0692C340.563 18.1853 340.679 18.3885 340.679 18.6062C340.679 18.824 340.563 19.0272 340.374 19.1433L328.187 26.183C328.085 26.2411 327.983 26.2701 327.882 26.2701H327.867ZM316.927 18.6062L327.882 24.9347L338.836 18.6062L327.882 12.2777L316.927 18.6062Z" fill="#1F2846"/>
<g opacity="0.5">
<path d="M339.678 33.3241C339.461 33.3241 339.258 33.208 339.142 33.0193C339.069 32.8886 339.04 32.758 339.069 32.6274L327.883 26.1682L316 33.0338C315.695 33.208 315.318 33.1064 315.144 32.8015C314.969 32.4967 315.071 32.1194 315.376 31.9452L327.563 24.9054C327.752 24.7893 327.999 24.7893 328.187 24.9054L340.375 31.9452C340.563 32.0613 340.68 32.2645 340.68 32.4822C340.68 32.6999 340.563 32.9031 340.375 33.0193L339.983 33.237C339.882 33.295 339.78 33.3241 339.678 33.3241Z" fill="#1F2846"/>
</g>
<g opacity="0.5">
<path d="M327.868 26.0523C327.52 26.0523 327.244 25.7764 327.244 25.4281V11.5519C327.244 11.2035 327.52 10.9277 327.868 10.9277C328.216 10.9277 328.492 11.2035 328.492 11.5519V25.4281C328.492 25.7764 328.216 26.0523 327.868 26.0523Z" fill="#1F2846"/>
</g>
</svg>
