<svg width="1555" height="1889" viewBox="0 0 1555 1889" fill="none" xmlns="http://www.w3.org/2000/svg">
<path style="mix-blend-mode:multiply" d="M1456.31 -80.5666C1441.83 -77.912 1329.66 -60.9823 1315.12 -58.3276C1300.51 -55.5949 1286.03 -52.9403 1271.96 -50.2857C1257.77 -47.6311 1244.06 -44.9764 1230.99 -42.3218C1217.92 -39.7453 1205.51 -37.0906 1194.16 -34.6703C1181.45 -31.8595 1170.16 -29.2829 1160.28 -26.7845C1150.35 -24.286 1141.78 -21.8656 1134.63 -19.6014C1127.42 -17.3371 1121.62 -15.151 1117.19 -13.121C1112.75 -11.091 1109.68 -9.06095 1108.02 -7.26517C1106.37 -5.39132 1106.07 -3.67363 1107.26 -2.03401C1108.44 -0.394394 1111.04 1.16716 1115.12 2.57255C1119.2 4.05602 1124.81 5.38332 1131.91 6.63255C1139.06 7.88178 1147.75 9.05294 1158.04 10.146C1167.32 11.0829 1177.84 11.9418 1189.25 12.8006C1200.72 13.5814 1213.14 14.3622 1226.14 15.0649C1239.27 15.7676 1252.98 16.3922 1266.99 17.0949C1281.12 17.7195 1295.49 18.3441 1309.91 18.9687C1324.22 19.5934 1338.76 20.218 1353.19 20.9207C1367.73 21.5453 1382.1 22.248 1396.05 23.0287C1410.12 23.8095 1423.66 24.5903 1436.43 25.4491C1449.31 26.308 1461.31 27.323 1472.25 28.4161C1483.19 29.5091 1492.71 30.6803 1500.92 31.9295C1509.2 33.1788 1516 34.5842 1521.44 35.9896C1526.88 37.3949 1530.9 38.9565 1533.44 40.5961C1536.04 42.2357 1537.1 43.9534 1536.69 45.7492C1536.28 47.545 1534.27 49.575 1530.84 51.6831C1527.29 53.9473 1522.21 56.2896 1515.53 58.7881C1508.85 61.3646 1500.63 64.0973 1490.76 67.0643C1480.88 70.0312 1469.35 73.1543 1456.23 76.5116C1443.22 79.7908 1428.68 83.2262 1413.13 86.8178C1397.53 90.4093 1380.8 94.0789 1363.3 97.8266C1345.74 101.652 1327.53 105.4 1308.91 109.304C1290.23 113.208 1271.25 117.112 1252.33 120.938L1251.15 121.172C1231.82 125.154 1212.25 129.214 1192.8 133.196C1173.23 137.334 1153.78 141.316 1134.86 145.454C1115.83 149.514 1097.26 153.652 1079.59 157.634C1061.85 161.694 1044.95 165.676 1029.4 169.579C1012.02 173.952 996.468 178.168 982.753 182.15C968.919 186.21 956.918 190.114 946.75 193.862C936.463 197.687 928.068 201.279 921.447 204.792C914.767 208.384 909.978 211.741 907.022 215.02C904.066 218.3 902.884 221.501 903.653 224.546C904.421 227.669 907.082 230.636 911.752 233.525C916.422 236.414 923.102 239.224 931.852 241.957C940.601 244.69 951.479 247.344 964.485 249.921C976.309 252.263 989.788 254.449 1004.51 256.636C1019.35 258.822 1035.49 260.93 1052.45 263.038C1069.54 265.146 1087.51 267.176 1105.96 269.206C1124.58 271.236 1143.61 273.266 1162.71 275.296C1181.74 277.326 1201.19 279.356 1220.53 281.464C1240.04 283.572 1259.37 285.758 1278.17 288.023C1297.14 290.287 1315.47 292.707 1332.73 295.206C1350.11 297.704 1366.43 300.359 1381.09 303.091C1395.93 305.902 1408.94 308.791 1420.05 311.758C1431.28 314.725 1440.56 317.848 1447.89 321.127C1455.23 324.328 1460.66 327.686 1463.97 331.121C1467.34 334.556 1468.65 338.07 1467.76 341.661C1466.93 345.253 1463.86 349.235 1458.6 353.373C1453.33 357.589 1445.83 362.118 1436.07 366.88C1426.26 371.721 1414.14 376.874 1399.71 382.262C1385.17 387.727 1368.32 393.505 1349.05 399.517C1329.89 405.529 1308.55 411.775 1285.67 418.177C1262.62 424.579 1237.91 431.216 1212.13 437.931C1186.18 444.723 1159.1 451.594 1131.49 458.465C1103.65 465.492 1075.33 472.519 1046.96 479.546L1045.18 480.014C1016.21 487.197 986.773 494.458 957.391 501.876C927.832 509.293 898.332 516.789 869.482 524.284C840.396 531.857 811.901 539.431 784.648 547.004C757.158 554.656 730.909 562.229 706.493 569.803C679.181 578.235 654.41 586.433 632.3 594.475C609.953 602.595 590.149 610.559 573.005 618.367C555.683 626.253 541.022 633.982 529.021 641.634C516.901 649.363 507.443 656.937 500.644 664.432C493.786 672.006 489.648 679.501 488.347 686.919C486.988 694.414 488.525 701.831 492.958 709.327C497.511 716.822 504.959 724.318 515.601 731.813C526.36 739.386 540.253 746.96 557.457 754.611C573.123 761.638 591.331 768.587 611.609 775.458C632.123 782.485 654.706 789.512 678.767 796.461C703.124 803.566 729.017 810.671 755.68 817.776C782.756 824.959 810.66 832.22 838.8 839.481C867.118 846.821 896.026 854.394 924.994 862.124C954.317 869.931 983.58 877.973 1012.02 886.25C1040.93 894.604 1068.95 903.192 1095.37 911.937C1122.21 920.838 1147.34 929.973 1169.92 939.342C1192.98 948.946 1213.14 958.627 1230.34 968.465C1247.72 978.459 1262.03 988.453 1273.14 998.603C1284.43 1008.83 1292.35 1019.22 1296.85 1029.6C1301.46 1040.14 1302.58 1050.68 1300.16 1061.22C1297.68 1071.92 1291.35 1083.24 1281.18 1095.18C1270.89 1107.29 1256.59 1120.09 1238.32 1133.44C1219.82 1147.03 1197.17 1161.24 1170.28 1176.07C1143.08 1191.14 1111.57 1206.83 1075.69 1223.23C1039.62 1239.7 999.483 1256.65 956.209 1273.98C912.343 1291.55 865.285 1309.58 815.98 1327.85C765.966 1346.36 713.647 1365.25 660.026 1384.3C605.638 1403.67 549.889 1423.19 493.845 1442.86L492.279 1443.28L490.712 1443.95C433.249 1464.1 374.486 1484.71 315.427 1505.71C255.481 1526.95 195.18 1548.66 135.589 1570.75C75.1111 1593.08 15.2834 1615.8 -42.7706 1638.76C-101.771 1662.1 -158.997 1685.84 -213.268 1709.73C-274.869 1736.9 -332.213 1764.15 -385.183 1791.48C-439.158 1819.35 -488.699 1847.3 -533.747 1875.49C-579.741 1904.3 -621.124 1933.34 -657.955 1962.85C-695.613 1992.99 -728.483 2023.52 -756.682 2054.75C-785.65 2086.76 -809.652 2119.4 -828.688 2152.89C-848.197 2187.25 -862.385 2222.46 -871.253 2258.77C-880.298 2296.09 -883.727 2334.74 -881.185 2374.79C-878.524 2416.09 -869.716 2459.03 -854.286 2503.93C-840.157 2545.7 -820.352 2588.72 -796.173 2633.15C-771.166 2678.98 -741.37 2726.22 -708.028 2774.94C-673.562 2825.29 -635.194 2877.22 -594.344 2930.78C-552.015 2986.13 -506.967 3043.29 -460.677 3102C-413.028 3162.28 -426.921 3151.5 -426.921 3151.5L-204.459 3154C-255.655 3092.24 -306.26 3032.98 -354.56 2976.37C-400.849 2922.19 -445.957 2869.41 -488.463 2818.19C-529.491 2768.61 -568.154 2720.44 -602.975 2673.75C-636.731 2628.54 -667 2584.66 -692.598 2542.27C-717.368 2501.12 -737.823 2461.22 -752.78 2422.73C-767.441 2385.02 -776.782 2349.02 -781.039 2314.51C-785.177 2280.86 -784.527 2248.77 -779.265 2217.93C-774.063 2187.87 -764.427 2158.98 -750.534 2131.42C-736.877 2104.41 -719.083 2078.49 -697.15 2053.66C-675.69 2029.38 -649.087 2004.78 -617.518 1979.8C-586.481 1955.28 -550.655 1930.53 -510.218 1905.47C-470.55 1880.87 -426.389 1856.05 -378.03 1831.06C-330.499 1806.47 -278.83 1781.72 -223.258 1756.89C-169.047 1732.61 -111.584 1708.48 -52.2295 1684.59C6.17932 1661.09 66.598 1637.82 127.726 1614.94C187.968 1592.38 248.978 1570.13 309.633 1548.27C369.461 1526.72 428.874 1505.64 487.047 1484.94L490.298 1483.85C547.998 1463.32 605.342 1442.86 661.327 1422.72C716.543 1402.81 770.341 1383.13 821.892 1363.77C872.675 1344.64 921.211 1325.82 966.495 1307.4C1011.19 1289.21 1052.75 1271.33 1090.29 1253.91C1131.49 1234.79 1167.44 1216.44 1198.36 1198.71C1228.74 1181.22 1254.22 1164.52 1274.91 1148.2C1295.31 1132.19 1311.15 1116.81 1322.62 1101.82C1333.86 1087.06 1340.83 1072.85 1343.73 1059.03C1346.57 1045.45 1345.44 1032.25 1340.36 1019.53C1335.39 1006.96 1326.53 994.699 1313.99 982.753C1301.64 970.963 1285.67 959.564 1266.11 948.399C1246.89 937.39 1224.19 926.694 1198.06 916.231C1175.06 906.862 1149.58 897.883 1122.45 889.06C1095.79 880.394 1067.53 872.039 1038.5 863.841C1009.95 855.799 980.565 847.992 951.184 840.34C922.216 832.845 893.248 825.506 864.93 818.323C837.204 811.296 809.655 804.347 782.933 797.398C756.626 790.527 731.087 783.734 707.085 776.942C683.378 770.227 661.15 763.59 640.931 756.876C621.009 750.239 603.096 743.681 587.784 737.044C572.591 730.486 560.117 724.005 550.244 717.603C540.549 711.279 533.395 704.954 528.784 698.708C524.232 692.54 522.163 686.45 522.577 680.36C522.99 674.348 525.769 668.414 530.972 662.559C536.115 656.781 543.859 650.691 554.264 644.289C564.492 638.042 577.32 631.406 592.632 624.613C607.766 617.82 625.383 610.872 645.306 603.688C665.052 596.583 687.162 589.166 711.518 581.593C735.58 574.097 761.651 566.524 788.963 558.872C816.039 551.299 844.416 543.725 873.502 536.074C902.352 528.5 931.852 521.005 961.47 513.509C990.852 506.092 1020.35 498.753 1049.38 491.492L1051.21 491.023C1080.06 483.84 1108.97 476.579 1137.35 469.474C1165.49 462.369 1193.1 455.264 1219.64 448.315C1245.95 441.366 1271.19 434.651 1294.84 427.937C1318.31 421.378 1340.18 414.898 1359.99 408.652C1381.92 401.703 1401.07 395.066 1417.45 388.742C1433.71 382.496 1447.3 376.484 1458.24 370.784C1469.12 365.085 1477.45 359.697 1483.25 354.544C1489.04 349.469 1492.35 344.55 1493.3 339.866C1494.24 335.259 1492.88 330.809 1489.22 326.593C1485.55 322.455 1479.64 318.395 1471.42 314.647C1463.27 310.899 1452.92 307.308 1440.39 303.872C1427.91 300.437 1413.31 297.236 1396.52 294.113C1381.56 291.38 1365.01 288.725 1347.39 286.227C1329.95 283.728 1311.45 281.386 1292.35 279.2C1273.5 276.936 1254.05 274.828 1234.42 272.719C1215.03 270.611 1195.58 268.659 1176.42 266.707C1157.62 264.756 1138.82 262.804 1120.44 260.852C1102.23 258.9 1084.5 256.948 1067.65 254.918C1050.98 252.888 1035.07 250.936 1020.53 248.828C1006.1 246.72 992.921 244.612 981.393 242.347C969.924 240.161 960.229 237.897 952.307 235.555C944.444 233.212 938.237 230.87 933.803 228.45C929.369 226.107 926.65 223.609 925.585 221.11C924.521 218.612 925.172 216.113 927.477 213.537C929.724 210.96 933.744 208.228 939.478 205.261C945.213 202.372 952.662 199.249 961.707 195.97C970.693 192.768 981.452 189.333 993.749 185.742C1005.99 182.15 1019.82 178.48 1035.25 174.576C1050.5 170.751 1067.17 166.769 1084.79 162.709C1102.29 158.727 1120.73 154.667 1139.65 150.529C1158.51 146.469 1177.9 142.409 1197.47 138.271C1216.86 134.211 1236.43 130.229 1255.7 126.169L1256.94 125.934C1276.16 121.952 1295.49 117.971 1314.46 113.989C1333.32 110.085 1351.89 106.181 1369.74 102.277C1387.48 98.4512 1404.56 94.7036 1420.52 91.0339C1436.43 87.4424 1451.26 83.8508 1464.68 80.4155C1479.64 76.5897 1492.65 72.9981 1503.76 69.5627C1514.82 66.2054 1524.1 63.0042 1531.55 59.9592C1538.94 56.9142 1544.55 54.1815 1548.4 51.5269C1552.24 48.8723 1554.43 46.3738 1554.9 44.1096C1555.37 41.8454 1554.19 39.6592 1551.35 37.6292C1548.57 35.5992 1544.14 33.7253 1538.05 32.0076C1532.08 30.2899 1524.39 28.7284 1515.17 27.2449C1506.01 25.8395 1495.19 24.5122 1482.89 23.263C1471.78 22.1699 1459.54 21.233 1446.53 20.2961C1433.59 19.4372 1419.87 18.6564 1405.74 17.8757C1391.67 17.0949 1377.19 16.4703 1362.59 15.7676C1348.1 15.0649 1333.5 14.5183 1319.08 13.8937C1304.89 13.3472 1290.64 12.7226 1276.75 12.098C1262.91 11.4733 1249.38 10.8487 1236.43 10.146C1223.6 9.44333 1211.42 8.74065 1200.13 7.95988C1188.96 7.1791 1178.61 6.32024 1169.57 5.4614C1160.52 4.52448 1152.78 3.58755 1146.33 2.49446C1139.95 1.47946 1134.8 0.308304 1131.02 -0.862854C1127.24 -2.034 1124.7 -3.28324 1123.45 -4.61056C1122.15 -5.93787 1122.21 -7.26517 1123.45 -8.74864C1124.7 -10.154 1127.3 -11.7156 1131.14 -13.4333C1134.98 -15.151 1140.13 -17.0248 1146.51 -18.9767C1152.89 -20.9287 1160.52 -23.0368 1169.39 -25.2229C1178.2 -27.4872 1188.25 -29.8295 1199.48 -32.2499C1210.59 -34.6703 1222.83 -37.2468 1235.78 -39.8233C1248.67 -42.478 1262.26 -45.0545 1276.33 -47.7872C1290.34 -50.4418 1304.77 -53.1745 1319.31 -55.8292C1333.74 -58.4838 1455.28 -80.3454 1469.71 -83L1358.85 -62.9834" fill="url(#paint0_linear_2034_1690)"/>
<defs>
<linearGradient id="paint0_linear_2034_1690" x1="1141.49" y1="-14.1854" x2="-66.2301" y2="2991.51" gradientUnits="userSpaceOnUse">
<stop stop-color="#1F2846"/>
<stop offset="0.12937" stop-color="#5A488A"/>
<stop offset="0.346" stop-color="#24B0B3"/>
<stop offset="0.636" stop-color="#009AD6"/>
</linearGradient>
</defs>
</svg>
