<svg width="434" height="340" viewBox="0 0 434 340" fill="none" xmlns="http://www.w3.org/2000/svg">
<path d="M426.792 330.535C426.792 330.535 426.673 330.521 426.633 330.495C426.528 330.442 426.475 330.323 426.475 330.204V322.794C426.475 322.675 426.541 322.569 426.633 322.503L433.088 318.771C433.194 318.718 433.313 318.718 433.419 318.771C433.525 318.824 433.577 318.943 433.577 319.062V326.472C433.577 326.591 433.511 326.697 433.419 326.763L426.964 330.495C426.964 330.495 426.858 330.535 426.805 330.535H426.792ZM427.123 322.979V329.635L432.916 326.287V319.631L427.123 322.979Z" fill="#1F2846"/>
<path d="M426.792 330.535C426.792 330.535 426.673 330.521 426.633 330.495L420.178 326.763C420.072 326.711 420.02 326.591 420.02 326.472V319.062C420.02 318.943 420.086 318.837 420.178 318.771C420.284 318.718 420.403 318.718 420.509 318.771L426.964 322.503C427.069 322.556 427.122 322.675 427.122 322.794V330.204C427.122 330.323 427.056 330.429 426.964 330.495C426.911 330.521 426.858 330.535 426.805 330.535H426.792ZM420.668 326.287L426.461 329.635V322.979L420.668 319.631V326.287Z" fill="#1F2846"/>
<path d="M426.792 323.111C426.792 323.111 426.673 323.098 426.633 323.072L420.178 319.34C420.072 319.287 420.02 319.168 420.02 319.049C420.02 318.93 420.086 318.824 420.178 318.758L426.633 315.04C426.739 314.987 426.858 314.987 426.964 315.04L433.418 318.758C433.524 318.811 433.577 318.93 433.577 319.049C433.577 319.168 433.511 319.274 433.418 319.34L426.964 323.072C426.964 323.072 426.858 323.111 426.805 323.111H426.792ZM420.998 319.062L426.792 322.41L432.585 319.062L426.792 315.715L420.998 319.062Z" fill="#1F2846"/>
<g opacity="0.5">
<path d="M433.034 326.843C432.915 326.843 432.81 326.79 432.743 326.684C432.704 326.618 432.691 326.552 432.704 326.472L426.778 323.058L420.495 326.684C420.337 326.777 420.138 326.724 420.046 326.565C419.953 326.406 420.006 326.208 420.165 326.115L426.619 322.383C426.725 322.331 426.844 322.331 426.95 322.383L433.405 326.115C433.511 326.168 433.563 326.287 433.563 326.406C433.563 326.525 433.497 326.631 433.405 326.697L433.206 326.816C433.206 326.816 433.101 326.856 433.048 326.856L433.034 326.843Z" fill="#1F2846"/>
</g>
<g opacity="0.5">
<path d="M426.794 323.005C426.608 323.005 426.463 322.86 426.463 322.675V315.344C426.463 315.159 426.608 315.013 426.794 315.013C426.979 315.013 427.124 315.159 427.124 315.344V322.675C427.124 322.86 426.979 323.005 426.794 323.005Z" fill="#1F2846"/>
</g>
<g clip-path="url(#clip0_2034_1691)">
<g style="mix-blend-mode:multiply" opacity="0.3">
<path d="M233.782 275.22H256.592L344.131 224.629L267.293 179.302L212.379 209.456L233.782 275.22Z" fill="#50298A"/>
</g>
<path d="M150.119 205.234L154.207 202.863L159.741 206.044L155.653 208.415L150.119 205.234Z" fill="#E8E9FC"/>
<path d="M160.569 203.46L164.657 201.089L160.473 207.895L156.404 210.266L160.569 203.46Z" fill="#817AC4"/>
<path d="M170.23 207.605L174.299 205.234V206.661L170.23 209.013V207.605Z" fill="#ADB2CC"/>
<path d="M159.838 201.609L163.906 199.238L174.299 205.234L170.231 207.605L159.838 201.609Z" fill="#E8E9FC"/>
<path d="M170.23 207.605V209.013L160.57 203.46L156.405 210.266L150.119 206.641V205.234L155.653 208.415L159.837 201.609L170.23 207.605Z" fill="#ADB2CC"/>
<path d="M165.273 196.597L169.361 194.225L174.876 197.426L170.807 199.797L165.273 196.597Z" fill="#E8E9FC"/>
<path d="M175.723 194.823L179.811 192.451L175.627 199.276L171.559 201.648L175.723 194.823Z" fill="#817AC4"/>
<path d="M185.385 198.987L189.453 196.616V198.023L185.365 200.395L185.385 198.987Z" fill="#ADB2CC"/>
<path d="M174.973 192.972L179.06 190.601L189.453 196.616L185.385 198.987L174.973 192.972Z" fill="#E8E9FC"/>
<path d="M185.384 198.987L185.365 200.395L175.724 194.823L171.559 201.648L165.273 198.023V196.597L170.807 199.797L174.972 192.972L185.384 198.987Z" fill="#ADB2CC"/>
<path d="M179.793 187.959L183.861 185.588L189.395 188.788L185.308 191.16L179.793 187.959Z" fill="#E8E9FC"/>
<path d="M190.243 186.186L194.311 183.814L190.146 190.639L186.059 193.011L190.243 186.186Z" fill="#817AC4"/>
<path d="M199.885 190.331L203.972 187.959L203.953 189.386L199.885 191.757V190.331Z" fill="#ADB2CC"/>
<path d="M189.492 184.335L193.561 181.963L203.973 187.959L199.885 190.331L189.492 184.335Z" fill="#E8E9FC"/>
<path d="M199.884 190.331V191.757L190.243 186.186L186.059 193.011L179.773 189.367L179.793 187.959L185.307 191.16L189.491 184.335L199.884 190.331Z" fill="#ADB2CC"/>
<path d="M135.137 214.623L139.224 212.252L144.758 215.433L140.671 217.804L135.137 214.623Z" fill="#E8E9FC"/>
<path d="M145.606 212.83L149.674 210.478L145.51 217.284L141.422 219.655L145.606 212.83Z" fill="#817AC4"/>
<path d="M155.248 216.995L159.336 214.623L159.316 216.031L155.248 218.402V216.995Z" fill="#ADB2CC"/>
<path d="M144.855 210.999L148.924 208.627L159.336 214.623L155.248 216.995L144.855 210.999Z" fill="#E8E9FC"/>
<path d="M155.247 216.995V218.402L145.607 212.83L141.423 219.655L135.137 216.031V214.623L140.671 217.804L144.855 210.999L155.247 216.995Z" fill="#ADB2CC"/>
<path d="M195.912 178.84L200 176.469L205.534 179.669L201.446 182.04L195.912 178.84Z" fill="#E8E9FC"/>
<path d="M206.362 177.066L210.45 174.695L206.266 181.52L202.197 183.891L206.362 177.066Z" fill="#817AC4"/>
<path d="M216.023 181.231L220.092 178.859V180.267L216.004 182.638L216.023 181.231Z" fill="#ADB2CC"/>
<path d="M205.611 175.215L209.699 172.844L220.092 178.859L216.023 181.231L205.611 175.215Z" fill="#E8E9FC"/>
<path d="M216.023 181.231L216.004 182.638L206.363 177.066L202.198 183.891L195.912 180.267V178.84L201.446 182.04L205.611 175.215L216.023 181.231Z" fill="#ADB2CC"/>
<path d="M211.414 170.048L215.502 167.677L221.036 170.877L216.948 173.229L211.414 170.048Z" fill="#E8E9FC"/>
<path d="M221.864 168.274L225.952 165.903L221.768 172.709L217.699 175.08L221.864 168.274Z" fill="#817AC4"/>
<path d="M231.525 172.42L235.594 170.048V171.475L231.506 173.846L231.525 172.42Z" fill="#ADB2CC"/>
<path d="M221.113 166.424L225.201 164.052L235.594 170.048L231.525 172.42L221.113 166.424Z" fill="#E8E9FC"/>
<path d="M231.525 172.42L231.506 173.846L221.865 168.275L217.7 175.08L211.414 171.456V170.048L216.948 173.229L221.113 166.424L231.525 172.42Z" fill="#ADB2CC"/>
<path d="M316.172 205.446L312.085 203.074L306.551 206.256L310.638 208.627L316.172 205.446Z" fill="#E8E9FC"/>
<path d="M305.721 203.672L301.633 201.301L305.817 208.106L309.885 210.478L305.721 203.672Z" fill="#817AC4"/>
<path d="M296.061 207.817L291.992 205.446V206.873L296.08 209.225L296.061 207.817Z" fill="#ADB2CC"/>
<path d="M306.473 201.821L302.385 199.45L291.992 205.446L296.061 207.817L306.473 201.821Z" fill="#E8E9FC"/>
<path d="M296.061 207.817L296.08 209.225L305.721 203.672L309.885 210.478L316.171 206.853V205.446L310.637 208.627L306.473 201.821L296.061 207.817Z" fill="#ADB2CC"/>
<path d="M301.014 196.809L296.946 194.437L291.412 197.638L295.481 200.009L301.014 196.809Z" fill="#E8E9FC"/>
<path d="M290.565 195.035L286.496 192.663L290.661 199.488L294.749 201.86L290.565 195.035Z" fill="#817AC4"/>
<path d="M280.924 199.199L276.836 196.828V198.235L280.924 200.607V199.199Z" fill="#ADB2CC"/>
<path d="M291.316 193.184L287.229 190.812L276.836 196.828L280.924 199.199L291.316 193.184Z" fill="#E8E9FC"/>
<path d="M280.924 199.199V200.607L290.565 195.035L294.749 201.86L301.015 198.235V196.809L295.481 200.009L291.317 193.184L280.924 199.199Z" fill="#ADB2CC"/>
<path d="M286.516 188.171L282.428 185.8L276.895 189L280.982 191.372L286.516 188.171Z" fill="#E8E9FC"/>
<path d="M276.064 186.397L271.977 184.026L276.161 190.851L280.229 193.222L276.064 186.397Z" fill="#817AC4"/>
<path d="M266.404 190.543L262.336 188.171V189.598L266.404 191.969V190.543Z" fill="#ADB2CC"/>
<path d="M276.797 184.547L272.729 182.175L262.336 188.171L266.404 190.543L276.797 184.547Z" fill="#E8E9FC"/>
<path d="M266.404 190.543V191.969L276.064 186.397L280.229 193.223L286.515 189.579V188.171L280.981 191.372L276.797 184.547L266.404 190.543Z" fill="#ADB2CC"/>
<path d="M331.153 214.835L327.065 212.464L321.531 215.645L325.619 218.016L331.153 214.835Z" fill="#E8E9FC"/>
<path d="M320.701 213.042L316.613 210.671L320.797 217.496L324.866 219.867L320.701 213.042Z" fill="#817AC4"/>
<path d="M311.041 217.207L306.973 214.835V216.243L311.041 218.614V217.207Z" fill="#ADB2CC"/>
<path d="M321.434 211.211L317.365 208.839L306.973 214.835L311.041 217.207L321.434 211.211Z" fill="#E8E9FC"/>
<path d="M311.041 217.207V218.614L320.701 213.042L324.866 219.867L331.152 216.243V214.835L325.618 218.016L321.434 211.211L311.041 217.207Z" fill="#ADB2CC"/>
<path d="M270.376 179.052L266.307 176.68L260.773 179.881L264.842 182.252L270.376 179.052Z" fill="#E8E9FC"/>
<path d="M259.926 177.278L255.838 174.907L260.022 181.732L264.11 184.103L259.926 177.278Z" fill="#817AC4"/>
<path d="M250.285 181.442L246.197 179.071V180.478L250.285 182.85V181.442Z" fill="#ADB2CC"/>
<path d="M260.678 175.427L256.59 173.056L246.197 179.071L250.285 181.443L260.678 175.427Z" fill="#E8E9FC"/>
<path d="M250.285 181.443V182.85L259.926 177.278L264.11 184.103L270.377 180.479V179.052L264.843 182.252L260.678 175.427L250.285 181.443Z" fill="#ADB2CC"/>
<path d="M254.874 170.26L250.805 167.889L245.271 171.07L249.34 173.441L254.874 170.26Z" fill="#E8E9FC"/>
<path d="M244.424 168.486L240.336 166.115L244.52 172.921L248.608 175.292L244.424 168.486Z" fill="#817AC4"/>
<path d="M234.783 172.632L230.695 170.26V171.687L234.783 174.039V172.632Z" fill="#ADB2CC"/>
<path d="M245.176 166.636L241.088 164.264L230.695 170.26L234.783 172.632L245.176 166.636Z" fill="#E8E9FC"/>
<path d="M234.783 172.632V174.039L244.424 168.486L248.608 175.292L254.875 171.668V170.26L249.341 173.441L245.176 166.636L234.783 172.632Z" fill="#ADB2CC"/>
<path d="M321.243 214.662L321.205 224.417L233.801 275.22L233.82 265.464L321.243 214.662Z" fill="#4C1F8C"/>
<path d="M233.82 265.464L233.8 275.22L145.799 224.437L145.837 214.662L233.82 265.464Z" fill="#1F0159"/>
<path d="M321.243 214.662L233.82 265.464L145.838 214.662L233.242 163.859L321.243 214.662Z" fill="#7350BA"/>
<path d="M300.283 212.175L300.264 217.072L233.723 255.728L233.742 250.85L300.283 212.175Z" fill="#DDDEFA"/>
<path d="M233.742 250.85L233.723 255.728L166.758 217.072L166.777 212.175L233.742 250.85Z" fill="#C9C9EC"/>
<path d="M300.284 212.175L233.743 250.85L166.777 212.175L233.318 173.519L300.284 212.175Z" fill="white"/>
<path d="M138.645 239.86L134.576 237.489L138.702 225.883L142.771 228.254L138.645 239.86Z" fill="#C9C9EC"/>
<path d="M142.772 228.254L138.703 225.883L149.096 219.867L153.164 222.239L142.772 228.254Z" fill="#E8E9FC"/>
<path d="M133.111 243.042L129.043 240.67L134.577 237.489L138.645 239.861L133.111 243.042Z" fill="#E8E9FC"/>
<path d="M133.131 244.468L129.043 242.097V240.67L133.111 243.042L133.131 244.468Z" fill="#817AC4"/>
<path d="M153.164 222.239V223.665L143.523 229.237L139.397 240.844L133.131 244.468L133.111 243.042L138.645 239.861L142.771 228.254L153.164 222.239Z" fill="#ADB2CC"/>
<path d="M153.992 248.633L149.904 246.261L154.031 234.655L158.099 237.026L153.992 248.633Z" fill="#C9C9EC"/>
<path d="M158.1 237.026L154.031 234.655L164.424 228.659L168.512 231.03L158.1 237.026Z" fill="#E8E9FC"/>
<path d="M148.459 251.814L144.371 249.462L149.905 246.261L153.993 248.633L148.459 251.814Z" fill="#E8E9FC"/>
<path d="M148.459 253.241L144.371 250.869V249.462L148.459 251.814V253.241Z" fill="#817AC4"/>
<path d="M168.512 231.03V232.438L158.871 238.01L154.745 249.616L148.459 253.241V251.814L153.993 248.633L158.1 237.026L168.512 231.03Z" fill="#ADB2CC"/>
<path d="M169.207 257.501L165.119 255.13L169.245 243.524L173.333 245.895L169.207 257.501Z" fill="#C9C9EC"/>
<path d="M173.334 245.895L169.246 243.524L179.639 237.528L183.727 239.899L173.334 245.895Z" fill="#E8E9FC"/>
<path d="M163.674 260.683L159.586 258.331L165.12 255.13L169.207 257.502L163.674 260.683Z" fill="#E8E9FC"/>
<path d="M163.674 262.109L159.586 259.738V258.331L163.674 260.683V262.109Z" fill="#817AC4"/>
<path d="M183.727 239.899V241.306L174.086 246.878L169.96 258.485L163.674 262.109V260.683L169.208 257.502L173.334 245.895L183.727 239.899Z" fill="#ADB2CC"/>
<path d="M184.42 266.293L180.332 263.922L184.458 252.334L188.527 254.687L184.42 266.293Z" fill="#C9C9EC"/>
<path d="M188.527 254.687L184.459 252.335L194.852 246.319L198.94 248.691L188.527 254.687Z" fill="#E8E9FC"/>
<path d="M178.887 269.494L174.799 267.122L180.333 263.922L184.42 266.293L178.887 269.494Z" fill="#E8E9FC"/>
<path d="M178.887 270.92L174.799 268.549V267.122L178.887 269.494V270.92Z" fill="#817AC4"/>
<path d="M198.94 248.691V250.098L189.28 255.67L185.173 267.276L178.887 270.92V269.494L184.421 266.293L188.528 254.687L198.94 248.691Z" fill="#ADB2CC"/>
<path d="M199.807 275.046L195.738 272.675L199.865 261.068L203.933 263.44L199.807 275.046Z" fill="#C9C9EC"/>
<path d="M203.934 263.44L199.865 261.068L210.258 255.072L214.326 257.444L203.934 263.44Z" fill="#E8E9FC"/>
<path d="M194.274 278.247L190.205 275.875L195.739 272.675L199.807 275.046L194.274 278.247Z" fill="#E8E9FC"/>
<path d="M194.293 279.654L190.205 277.283V275.875L194.274 278.247L194.293 279.654Z" fill="#817AC4"/>
<path d="M214.326 257.444L214.346 258.851L204.686 264.423L200.579 276.029L194.293 279.654L194.273 278.247L199.807 275.046L203.934 263.44L214.326 257.444Z" fill="#ADB2CC"/>
<path d="M214.924 283.857L210.836 281.486L214.962 269.879L219.05 272.251L214.924 283.857Z" fill="#C9C9EC"/>
<path d="M219.051 272.251L214.963 269.879L225.356 263.883L229.443 266.255L219.051 272.251Z" fill="#E8E9FC"/>
<path d="M209.39 287.058L205.303 284.686L210.837 281.486L214.924 283.857L209.39 287.058Z" fill="#E8E9FC"/>
<path d="M209.39 288.465L205.322 286.113L205.303 284.686L209.39 287.058V288.465Z" fill="#817AC4"/>
<path d="M229.444 266.255V267.662L219.803 273.234L215.676 284.84L209.391 288.465V287.058L214.924 283.857L219.051 272.251L229.444 266.255Z" fill="#ADB2CC"/>
<path d="M328.722 240.015L332.79 237.643L328.683 226.037L324.596 228.408L328.722 240.015Z" fill="#C9C9EC"/>
<path d="M324.596 228.408L328.684 226.037L318.272 220.041L314.203 222.412L324.596 228.408Z" fill="#E8E9FC"/>
<path d="M334.256 243.215L338.325 240.844L332.791 237.643L328.723 240.015L334.256 243.215Z" fill="#E8E9FC"/>
<path d="M334.256 244.623L338.324 242.251V240.844L334.256 243.215V244.623Z" fill="#817AC4"/>
<path d="M314.203 222.412V223.82L323.844 229.392L327.97 240.998L334.256 244.623V243.215L328.722 240.015L324.596 228.408L314.203 222.412Z" fill="#ADB2CC"/>
<path d="M313.375 248.787L317.462 246.416L313.336 234.809L309.268 237.18L313.375 248.787Z" fill="#C9C9EC"/>
<path d="M309.268 237.181L313.336 234.809L302.943 228.813L298.855 231.185L309.268 237.181Z" fill="#E8E9FC"/>
<path d="M318.909 251.988L322.997 249.616L317.463 246.416L313.375 248.787L318.909 251.988Z" fill="#E8E9FC"/>
<path d="M318.908 253.395L322.996 251.024V249.616L318.908 251.988V253.395Z" fill="#817AC4"/>
<path d="M298.855 231.185V232.592L308.516 238.164L312.623 249.77L318.908 253.395V251.988L313.375 248.787L309.268 237.181L298.855 231.185Z" fill="#ADB2CC"/>
<path d="M298.162 257.656L302.249 255.284L298.123 243.678L294.055 246.049L298.162 257.656Z" fill="#C9C9EC"/>
<path d="M294.055 246.049L298.123 243.678L287.73 237.682L283.643 240.053L294.055 246.049Z" fill="#E8E9FC"/>
<path d="M303.696 260.856L307.784 258.485L302.25 255.284L298.162 257.656L303.696 260.856Z" fill="#E8E9FC"/>
<path d="M303.695 262.264L307.783 259.892V258.485L303.695 260.856V262.264Z" fill="#817AC4"/>
<path d="M283.643 240.053V241.461L293.303 247.033L297.41 258.639L303.696 262.264V260.856L298.162 257.656L294.055 246.049L283.643 240.053Z" fill="#ADB2CC"/>
<path d="M282.949 266.467L287.037 264.095L282.91 252.489L278.842 254.86L282.949 266.467Z" fill="#C9C9EC"/>
<path d="M278.842 254.86L282.91 252.489L272.518 246.493L268.449 248.845L278.842 254.86Z" fill="#E8E9FC"/>
<path d="M288.483 269.648L292.571 267.296L287.037 264.095L282.949 266.467L288.483 269.648Z" fill="#E8E9FC"/>
<path d="M288.482 271.075L292.57 268.703V267.296L288.482 269.648V271.075Z" fill="#817AC4"/>
<path d="M268.449 248.845L268.43 250.272L278.09 255.843L282.197 267.45L288.483 271.075V269.648L282.949 266.467L278.842 254.86L268.449 248.845Z" fill="#ADB2CC"/>
<path d="M267.562 275.2L271.63 272.829L267.504 261.222L263.436 263.594L267.562 275.2Z" fill="#C9C9EC"/>
<path d="M263.436 263.594L267.504 261.222L257.111 255.226L253.043 257.598L263.436 263.594Z" fill="#E8E9FC"/>
<path d="M273.096 278.401L277.165 276.029L271.631 272.829L267.562 275.2L273.096 278.401Z" fill="#E8E9FC"/>
<path d="M273.076 279.808L277.164 277.437V276.029L273.095 278.401L273.076 279.808Z" fill="#817AC4"/>
<path d="M253.043 257.598L253.023 259.005L262.684 264.577L266.81 276.184L273.076 279.808L273.096 278.401L267.562 275.2L263.436 263.594L253.043 257.598Z" fill="#ADB2CC"/>
<path d="M252.445 284.031L256.532 281.659L252.406 270.053L248.318 272.424L252.445 284.031Z" fill="#C9C9EC"/>
<path d="M248.319 272.424L252.406 270.053L242.013 264.037L237.926 266.409L248.319 272.424Z" fill="#E8E9FC"/>
<path d="M257.979 287.212L262.067 284.84L256.533 281.659L252.445 284.031L257.979 287.212Z" fill="#E8E9FC"/>
<path d="M257.979 288.638L262.066 286.267V284.84L257.979 287.212V288.638Z" fill="#817AC4"/>
<path d="M237.926 266.409V267.836L247.567 273.407L251.693 285.014L257.979 288.638V287.212L252.445 284.031L248.319 272.424L237.926 266.409Z" fill="#ADB2CC"/>
<path d="M189.877 212.175L193.136 214.064L233.376 237.296V186.899L189.877 212.175Z" fill="#DDDEFA"/>
<path d="M233.377 186.899V237.296L233.666 237.47L273.907 214.083L277.185 212.175L233.377 186.899Z" fill="#C9C9EC"/>
<path d="M273.906 214.083L233.665 237.47L193.135 214.064L233.376 190.677L273.906 214.083Z" fill="url(#paint0_linear_2034_1691)"/>
<g style="mix-blend-mode:hard-light" opacity="0.3">
<path opacity="0.02" d="M336.611 68.3664L234.9 127.459C234.264 127.825 233.493 127.825 232.876 127.459L130.432 68.3085C129.082 67.5373 129.082 65.5901 130.432 64.7996L232.143 5.72615C232.779 5.35984 233.551 5.35984 234.168 5.72615L336.611 64.8767C337.961 65.6479 337.961 67.5952 336.611 68.3856V68.3664Z" fill="#CE6BFC"/>
<path opacity="0.03" d="M335.917 69.9666L234.919 128.654C234.302 129.021 233.531 129.021 232.895 128.654L131.165 69.9281C129.815 69.1569 129.815 67.2096 131.165 66.4384L232.143 7.75057C232.76 7.38425 233.531 7.38425 234.167 7.75057L335.897 66.477C337.247 67.2482 337.247 69.1954 335.897 69.9666H335.917Z" fill="#CD6AFC"/>
<path opacity="0.04" d="M335.203 71.5667L234.9 129.85C234.283 130.216 233.512 130.216 232.875 129.85L131.859 71.5282C130.528 70.757 130.509 68.829 131.859 68.0385L232.143 9.75557C232.76 9.38926 233.531 9.38926 234.167 9.75557L335.203 68.0771C336.533 68.8483 336.553 70.7763 335.203 71.5667Z" fill="#CC6AFB"/>
<path opacity="0.05" d="M334.49 73.167L234.9 131.045C234.283 131.411 233.512 131.411 232.895 131.045L132.572 73.1284C131.242 72.3572 131.242 70.4293 132.572 69.6581L232.143 11.78C232.76 11.4137 233.531 11.4137 234.148 11.78L334.47 69.6966C335.801 70.4678 335.801 72.3958 334.47 73.167H334.49Z" fill="#CB6AFA"/>
<path opacity="0.06" d="M333.795 74.7673L234.899 132.24C234.282 132.607 233.511 132.607 232.894 132.24L133.285 74.7287C131.955 73.9575 131.955 72.0295 133.285 71.2583L232.161 13.7851C232.778 13.4188 233.55 13.4188 234.167 13.7851L333.776 71.2969C335.106 72.0681 335.106 73.9961 333.776 74.7673H333.795Z" fill="#CA6AF9"/>
<path opacity="0.07" d="M333.081 76.3675L234.879 133.436C234.262 133.802 233.491 133.802 232.874 133.436L133.978 76.329C132.648 75.5578 132.648 73.6491 133.978 72.8779L232.161 15.8095C232.778 15.4432 233.549 15.4432 234.166 15.8095L333.081 72.9164C334.411 73.6876 334.411 75.5963 333.081 76.3675Z" fill="#C969F9"/>
<path opacity="0.08" d="M332.369 77.9676L234.88 134.612C234.263 134.978 233.492 134.978 232.875 134.612L134.674 77.9098C133.343 77.1386 133.343 75.2299 134.674 74.4587L232.162 17.8145C232.779 17.4482 233.55 17.4482 234.167 17.8145L332.369 74.5165C333.699 75.2877 333.699 77.1964 332.369 77.9676Z" fill="#C869F8"/>
<path opacity="0.1" d="M331.674 79.5679L234.88 135.807C234.263 136.174 233.511 136.174 232.894 135.807L135.406 79.5293C134.076 78.7581 134.076 76.8494 135.406 76.0782L232.181 19.8389C232.798 19.4726 233.55 19.4726 234.167 19.8389L331.655 76.1168C332.985 76.888 332.985 78.7967 331.655 79.5679H331.674Z" fill="#C769F7"/>
<path opacity="0.11" d="M330.961 81.1489L234.88 136.983C234.263 137.35 233.511 137.35 232.894 136.983L136.12 81.1103C134.808 80.3391 134.789 78.4497 136.12 77.6785L232.2 21.8441C232.817 21.4778 233.569 21.4778 234.186 21.8441L330.98 77.7171C332.291 78.4882 332.31 80.3777 330.98 81.1489H330.961Z" fill="#C668F7"/>
<path opacity="0.12" d="M330.247 82.7491L234.86 138.179C234.243 138.526 233.491 138.545 232.874 138.179L136.794 82.7106C135.483 81.9587 135.483 80.05 136.794 79.2788L232.18 23.8492C232.797 23.5022 233.549 23.4829 234.166 23.8492L330.247 79.3173C331.558 80.0692 331.558 81.9779 330.247 82.7491Z" fill="#C568F6"/>
<path opacity="0.13" d="M329.552 84.3493L234.86 139.374C234.243 139.721 233.491 139.721 232.874 139.374L137.507 84.3108C136.196 83.5588 136.196 81.6501 137.507 80.8982L232.18 25.8736C232.797 25.5265 233.549 25.5265 234.166 25.8736L329.533 80.9368C330.844 81.6887 330.844 83.5974 329.533 84.3493H329.552Z" fill="#C468F5"/>
<path opacity="0.14" d="M328.84 85.9496L234.862 140.569C234.245 140.916 233.493 140.916 232.895 140.569L138.241 85.911C136.93 85.1591 136.93 83.2697 138.241 82.4985L232.22 27.8787C232.837 27.5316 233.589 27.5316 234.187 27.8787L328.86 82.537C330.171 83.289 330.171 85.1784 328.86 85.9496H328.84Z" fill="#C368F4"/>
<path opacity="0.15" d="M328.126 87.5498L234.841 141.745C234.224 142.092 233.472 142.092 232.875 141.745L138.915 87.5113C137.604 86.7594 137.604 84.8699 138.915 84.118L232.18 29.9224C232.797 29.5754 233.549 29.5754 234.147 29.9224L328.107 84.1566C329.418 84.9085 329.418 86.7979 328.107 87.5498H328.126Z" fill="#C267F4"/>
<path opacity="0.16" d="M327.432 89.15L234.86 142.941C234.263 143.288 233.511 143.288 232.894 142.941L139.647 89.1114C138.336 88.3595 138.336 86.4701 139.647 85.7181L232.219 31.9274C232.816 31.5804 233.568 31.5804 234.185 31.9274L327.432 85.7567C328.743 86.5086 328.743 88.398 327.432 89.15Z" fill="#C167F3"/>
<path opacity="0.17" d="M326.718 90.7502L234.841 144.136C234.243 144.483 233.491 144.483 232.874 144.136L140.341 90.7117C139.05 89.9597 139.03 88.0896 140.341 87.3377L232.199 33.9518C232.797 33.6048 233.549 33.6048 234.166 33.9518L326.718 87.3762C328.01 88.1282 328.029 89.9983 326.718 90.7502Z" fill="#C067F2"/>
<path opacity="0.18" d="M326.005 92.3505L234.841 145.331C234.243 145.678 233.491 145.678 232.893 145.331L141.055 92.3119C139.763 91.56 139.763 89.6898 141.055 88.9379L232.219 35.9569C232.816 35.6099 233.568 35.6099 234.166 35.9569L326.005 88.9765C327.296 89.7284 327.296 91.5986 326.005 92.3505Z" fill="#BF66F1"/>
<path opacity="0.19" d="M325.312 93.9507L234.842 146.527C234.245 146.874 233.493 146.874 232.895 146.527L141.77 93.9122C140.478 93.1602 140.478 91.2901 141.77 90.5382L232.239 37.9621C232.837 37.615 233.589 37.615 234.187 37.9621L325.312 90.5767C326.604 91.3287 326.604 93.1988 325.312 93.9507Z" fill="#BE66F1"/>
<path opacity="0.2" d="M324.598 95.5509L234.822 147.722C234.224 148.069 233.473 148.069 232.875 147.722L142.463 95.5123C141.171 94.7604 141.171 92.9095 142.463 92.1576L232.219 39.9864C232.817 39.6393 233.569 39.6393 234.167 39.9864L324.598 92.1962C325.89 92.9481 325.89 94.7989 324.598 95.5509Z" fill="#BD66F0"/>
<path opacity="0.21" d="M323.883 97.1511L234.821 148.898C234.224 149.245 233.472 149.245 232.874 148.898L143.156 97.1125C141.865 96.3606 141.865 94.5098 143.156 93.7579L232.218 42.0108C232.816 41.6637 233.549 41.6637 234.166 42.0108L323.883 93.7964C325.175 94.5483 325.175 96.3992 323.883 97.1511Z" fill="#BC65EF"/>
<path opacity="0.22" d="M323.171 98.7514L234.804 150.094C234.206 150.441 233.473 150.441 232.875 150.094L143.871 98.7128C142.579 97.9802 142.579 96.11 143.871 95.3774L232.22 44.0352C232.818 43.6881 233.55 43.6881 234.148 44.0352L323.152 95.416C324.444 96.1486 324.444 98.0187 323.152 98.7514H323.171Z" fill="#BB65EF"/>
<path opacity="0.23" d="M322.478 100.352L234.823 151.289C234.225 151.636 233.493 151.636 232.895 151.289L144.604 100.313C143.332 99.5804 143.312 97.7296 144.604 96.9776L232.259 46.0403C232.856 45.6933 233.589 45.6933 234.187 46.0403L322.497 97.0162C323.77 97.7488 323.789 99.5997 322.497 100.352H322.478Z" fill="#BA65EE"/>
<path opacity="0.24" d="M321.764 101.933L234.803 152.465C234.206 152.812 233.473 152.812 232.875 152.465L145.279 101.894C144.006 101.161 144.006 99.3105 145.279 98.5779L232.239 48.0454C232.837 47.6984 233.569 47.6984 234.167 48.0454L321.764 98.6165C323.036 99.3491 323.036 101.2 321.764 101.933Z" fill="#B965ED"/>
<path opacity="0.25" d="M321.05 103.533L234.783 153.66C234.186 154.007 233.453 154.007 232.855 153.66L145.972 103.494C144.699 102.762 144.699 100.911 145.972 100.178L232.219 50.0504C232.817 49.7034 233.549 49.7034 234.147 50.0504L321.03 100.217C322.303 100.949 322.303 102.8 321.03 103.533H321.05Z" fill="#B864EC"/>
<path opacity="0.27" d="M320.355 105.133L234.803 154.856C234.205 155.203 233.472 155.203 232.894 154.856L146.724 105.094C145.451 104.362 145.451 102.53 146.724 101.778L232.277 52.0556C232.874 51.7085 233.607 51.7085 234.186 52.0556L320.375 101.817C321.647 102.549 321.647 104.381 320.375 105.133H320.355Z" fill="#B764EC"/>
<path opacity="0.28" d="M319.643 106.733L234.784 156.032C234.187 156.379 233.473 156.379 232.875 156.032L147.4 106.695C146.127 105.962 146.127 104.13 147.4 103.398L232.239 54.0993C232.837 53.7522 233.55 53.7522 234.148 54.0993L319.624 103.436C320.896 104.169 320.896 106.001 319.624 106.733H319.643Z" fill="#B664EB"/>
<path opacity="0.29" d="M318.929 108.333L234.784 157.227C234.186 157.574 233.473 157.574 232.875 157.227L148.113 108.295C146.84 107.562 146.84 105.731 148.113 104.998L232.258 56.1044C232.856 55.7574 233.569 55.7574 234.167 56.1044L318.929 105.037C320.201 105.769 320.201 107.601 318.929 108.333Z" fill="#B563EA"/>
<path opacity="0.3" d="M318.235 109.934L234.784 158.422C234.205 158.769 233.473 158.769 232.875 158.422L148.826 109.895C147.573 109.162 147.554 107.35 148.826 106.617L232.277 58.1287C232.856 57.7816 233.588 57.7816 234.186 58.1287L318.254 106.656C319.507 107.389 319.527 109.201 318.254 109.934H318.235Z" fill="#B463EA"/>
<path opacity="0.31" d="M317.521 111.534L234.784 159.618C234.205 159.965 233.473 159.965 232.894 159.618L149.54 111.495C148.286 110.763 148.286 108.95 149.54 108.218L232.277 60.1338C232.856 59.7868 233.588 59.7868 234.167 60.1338L317.521 108.256C318.775 108.989 318.775 110.801 317.521 111.534Z" fill="#B363E9"/>
<path opacity="0.32" d="M316.807 113.134L234.764 160.813C234.185 161.16 233.453 161.16 232.874 160.813L150.233 113.096C148.98 112.363 148.98 110.551 150.233 109.837L232.276 62.1582C232.855 61.8112 233.588 61.8112 234.166 62.1582L316.807 109.876C318.061 110.608 318.061 112.421 316.807 113.134Z" fill="#B263E8"/>
<path opacity="0.33" d="M316.115 114.734L234.765 162.009C234.187 162.356 233.454 162.356 232.876 162.009L150.948 114.715C149.694 113.982 149.694 112.189 150.948 111.457L232.278 64.1826C232.856 63.8356 233.589 63.8356 234.167 64.1826L316.095 111.476C317.349 112.209 317.349 114.002 316.095 114.734H316.115Z" fill="#B162E7"/>
<path opacity="0.34" d="M315.401 116.335L234.765 163.185C234.186 163.532 233.473 163.532 232.875 163.185L151.661 116.296C150.407 115.583 150.407 113.77 151.661 113.038L232.297 66.1878C232.875 65.8407 233.588 65.8407 234.186 66.1878L315.42 113.076C316.673 113.79 316.673 115.602 315.42 116.335H315.401Z" fill="#B062E7"/>
<path opacity="0.35" d="M314.686 117.935L234.745 164.38C234.166 164.708 233.453 164.727 232.874 164.38L152.354 117.896C151.101 117.183 151.101 115.371 152.354 114.657L232.277 68.2121C232.855 67.8843 233.568 67.865 234.147 68.2121L314.667 114.696C315.92 115.409 315.92 117.221 314.667 117.935H314.686Z" fill="#AF62E6"/>
<path opacity="0.36" d="M313.993 119.535L234.764 165.575C234.186 165.903 233.472 165.903 232.894 165.575L153.087 119.496C151.853 118.783 151.834 116.99 153.087 116.257L232.315 70.2172C232.894 69.8895 233.607 69.8702 234.186 70.2172L313.993 116.296C315.227 117.009 315.246 118.802 313.993 119.535Z" fill="#AE61E5"/>
<path opacity="0.37" d="M313.279 121.116L234.745 166.751C234.166 167.079 233.453 167.079 232.874 166.751L153.781 121.077C152.547 120.364 152.547 118.571 153.781 117.858L232.315 72.2223C232.894 71.8945 233.607 71.8945 234.186 72.2223L313.298 117.896C314.532 118.61 314.532 120.403 313.298 121.116H313.279Z" fill="#AD61E5"/>
<path opacity="0.38" d="M312.567 122.716L234.746 167.947C234.167 168.274 233.454 168.274 232.876 167.947L154.476 122.678C153.242 121.964 153.242 120.171 154.476 119.458L232.297 74.2274C232.876 73.8996 233.589 73.8996 234.167 74.2274L312.567 119.496C313.801 120.21 313.801 122.003 312.567 122.716Z" fill="#AC61E4"/>
<path opacity="0.39" d="M311.872 124.316L234.746 169.142C234.167 169.47 233.454 169.47 232.895 169.142L155.209 124.297C153.975 123.584 153.975 121.81 155.209 121.097L232.335 76.2711C232.914 75.9433 233.627 75.9433 234.186 76.2711L311.872 121.116C313.106 121.829 313.106 123.603 311.872 124.316Z" fill="#AB61E3"/>
<path opacity="0.4" d="M311.158 125.917L234.726 170.318C234.147 170.646 233.453 170.646 232.874 170.318L155.902 125.878C154.668 125.165 154.668 123.391 155.902 122.678L232.315 78.2762C232.894 77.9485 233.588 77.9485 234.166 78.2762L311.158 122.716C312.392 123.43 312.392 125.203 311.158 125.917Z" fill="#AA60E2"/>
<path opacity="0.41" d="M310.446 127.517L234.727 171.513C234.148 171.841 233.454 171.841 232.876 171.513L156.597 127.478C155.363 126.765 155.363 124.991 156.597 124.297L232.316 80.3005C232.895 79.9727 233.589 79.9727 234.168 80.3005L310.446 124.336C311.68 125.049 311.68 126.823 310.446 127.517Z" fill="#A960E2"/>
<path opacity="0.43" d="M309.752 129.117L234.727 172.709C234.148 173.037 233.454 173.037 232.876 172.709L157.311 129.079C156.096 128.365 156.077 126.611 157.311 125.897L232.336 82.3056C232.914 81.9779 233.608 81.9779 234.187 82.3056L309.752 125.936C310.966 126.649 310.986 128.404 309.752 129.117Z" fill="#A860E1"/>
<path opacity="0.44" d="M309.037 130.717L234.725 173.904C234.166 174.232 233.453 174.232 232.893 173.904L158.042 130.679C156.827 129.965 156.827 128.211 158.042 127.498L232.353 84.3108C232.913 83.983 233.626 83.983 234.185 84.3108L309.056 127.536C310.271 128.25 310.271 130.004 309.056 130.717H309.037Z" fill="#A75FE0"/>
<path opacity="0.45" d="M308.324 132.318L234.707 175.1C234.148 175.427 233.434 175.427 232.875 175.1L158.718 132.279C157.503 131.585 157.503 129.811 158.718 129.117L232.335 86.3352C232.894 86.0074 233.608 86.0074 234.167 86.3352L308.324 129.156C309.539 129.85 309.539 131.624 308.324 132.318Z" fill="#A65FDF"/>
<path opacity="0.46" d="M307.629 133.918L234.706 176.295C234.147 176.623 233.434 176.623 232.874 176.295L159.431 133.899C158.216 133.204 158.216 131.45 159.431 130.737L232.335 88.3596C232.894 88.0318 233.607 88.0318 234.166 88.3596L307.61 130.756C308.825 131.45 308.825 133.204 307.61 133.918H307.629Z" fill="#A55FDF"/>
<path opacity="0.47" d="M306.916 135.518L234.706 177.471C234.146 177.799 233.452 177.799 232.874 177.471L160.143 135.479C158.929 134.785 158.929 133.031 160.143 132.337L232.353 90.3839C232.912 90.0561 233.607 90.0561 234.185 90.3839L306.935 132.375C308.15 133.069 308.15 134.824 306.935 135.518H306.916Z" fill="#A45FDE"/>
<path opacity="0.48" d="M306.203 137.118L234.688 178.666C234.128 178.994 233.434 178.994 232.875 178.666L160.839 137.08C159.624 136.386 159.624 134.631 160.839 133.937L232.335 92.389C232.894 92.0612 233.589 92.0612 234.148 92.389L306.184 133.976C307.399 134.67 307.399 136.424 306.184 137.118H306.203Z" fill="#A35EDD"/>
<path opacity="0.49" d="M305.509 138.718L234.707 179.862C234.148 180.189 233.454 180.189 232.895 179.862L161.572 138.68C160.376 137.986 160.357 136.251 161.572 135.557L232.374 94.4134C232.933 94.0857 233.627 94.0857 234.187 94.4134L305.509 135.595C306.705 136.289 306.724 138.024 305.509 138.718Z" fill="#A25EDD"/>
<path opacity="0.5" d="M304.796 140.319L234.688 181.057C234.129 181.385 233.434 181.385 232.875 181.057L162.266 140.28C161.07 139.586 161.07 137.851 162.266 137.157L232.374 96.4185C232.933 96.0908 233.627 96.0908 234.186 96.4185L304.815 137.195C306.011 137.889 306.011 139.625 304.815 140.319H304.796Z" fill="#A15EDC"/>
<path opacity="0.51" d="M304.082 141.9L234.687 182.233C234.128 182.561 233.434 182.561 232.874 182.233L162.959 141.88C161.764 141.186 161.764 139.451 162.959 138.757L232.354 98.4236C232.913 98.0958 233.607 98.0958 234.166 98.4236L304.082 138.776C305.277 139.47 305.277 141.206 304.082 141.9Z" fill="#A15DDB"/>
<path opacity="0.52" d="M303.387 143.5L234.687 183.428C234.127 183.756 233.453 183.756 232.893 183.428L163.692 143.481C162.496 142.786 162.496 141.071 163.692 140.377L232.392 100.448C232.951 100.12 233.626 100.12 234.185 100.448L303.387 140.396C304.583 141.09 304.583 142.806 303.387 143.5Z" fill="#A05DDA"/>
<path opacity="0.53" d="M302.675 145.1L234.669 184.604C234.109 184.932 233.434 184.932 232.875 184.604L164.387 145.062C163.191 144.367 163.191 142.652 164.387 141.957L232.374 102.453C232.933 102.125 233.608 102.125 234.167 102.453L302.675 141.996C303.87 142.69 303.87 144.406 302.675 145.1Z" fill="#9F5DDA"/>
<path opacity="0.54" d="M301.961 146.7L234.668 185.8C234.109 186.128 233.434 186.128 232.875 185.8L165.08 146.662C163.885 145.968 163.885 144.271 165.08 143.577L232.373 104.478C232.932 104.15 233.607 104.15 234.166 104.478L301.961 143.616C303.156 144.31 303.156 146.026 301.961 146.7Z" fill="#9E5CD9"/>
<path opacity="0.55" d="M301.267 148.301L234.668 186.995C234.109 187.323 233.434 187.323 232.875 186.995L165.794 148.262C164.617 147.587 164.598 145.871 165.794 145.177L232.393 106.483C232.952 106.155 233.627 106.155 234.186 106.483L301.267 145.216C302.443 145.891 302.462 147.607 301.267 148.301Z" fill="#9D5CD8"/>
<path opacity="0.56" d="M300.554 149.901L234.668 188.191C234.109 188.518 233.434 188.518 232.894 188.191L166.527 149.862C165.35 149.187 165.35 147.471 166.527 146.797L232.412 108.507C232.971 108.179 233.646 108.179 234.186 108.507L300.573 146.835C301.749 147.51 301.749 149.226 300.573 149.901H300.554Z" fill="#9C5CD8"/>
<path opacity="0.57" d="M299.839 151.501L234.648 189.386C234.108 189.714 233.414 189.714 232.874 189.386L167.2 151.482C166.024 150.807 166.024 149.11 167.2 148.416L232.392 110.531C232.932 110.204 233.626 110.204 234.166 110.531L299.839 148.436C301.015 149.11 301.015 150.807 299.839 151.501Z" fill="#9B5CD7"/>
<path opacity="0.58" d="M299.146 153.101L234.649 190.581C234.109 190.89 233.434 190.909 232.875 190.581L167.915 153.082C166.739 152.407 166.739 150.711 167.915 150.017L232.393 112.536C232.933 112.228 233.608 112.209 234.167 112.536L299.127 150.036C300.303 150.711 300.303 152.407 299.127 153.101H299.146Z" fill="#9A5BD6"/>
<path opacity="0.6" d="M298.432 154.701L234.649 191.757C234.109 192.066 233.434 192.085 232.875 191.757L168.628 154.663C167.452 153.988 167.452 152.291 168.628 151.617L232.412 114.561C232.952 114.252 233.627 114.233 234.186 114.561L298.452 151.655C299.628 152.33 299.628 154.027 298.452 154.701H298.432Z" fill="#995BD5"/>
<path opacity="0.61" d="M297.718 156.302L234.629 192.953C234.089 193.261 233.414 193.261 232.874 192.953L169.322 156.263C168.145 155.588 168.145 153.911 169.322 153.217L232.392 116.566C232.932 116.257 233.607 116.257 234.147 116.566L297.699 153.255C298.875 153.93 298.875 155.608 297.699 156.302H297.718Z" fill="#985BD5"/>
<path opacity="0.62" d="M297.024 157.902L234.648 194.148C234.108 194.457 233.433 194.457 232.894 194.148L170.055 157.863C168.898 157.189 168.878 155.511 170.055 154.836L232.431 118.59C232.971 118.282 233.646 118.282 234.185 118.59L297.024 154.875C298.181 155.55 298.201 157.227 297.024 157.902Z" fill="#975AD4"/>
<path opacity="0.63" d="M296.311 159.502L234.629 195.343C234.089 195.652 233.414 195.652 232.874 195.343L170.749 159.464C169.592 158.789 169.592 157.111 170.749 156.437L232.431 120.595C232.97 120.287 233.645 120.287 234.185 120.595L296.33 156.475C297.487 157.15 297.487 158.827 296.33 159.502H296.311Z" fill="#965AD3"/>
<path opacity="0.64" d="M295.598 161.083L234.63 196.519C234.09 196.828 233.415 196.828 232.875 196.519L171.444 161.064C170.287 160.389 170.287 158.731 171.444 158.056L232.412 122.62C232.952 122.311 233.627 122.311 234.167 122.62L295.598 158.075C296.755 158.75 296.755 160.408 295.598 161.083Z" fill="#955AD2"/>
<path opacity="0.65" d="M294.904 162.683L234.63 197.715C234.09 198.023 233.434 198.023 232.894 197.715L172.176 162.664C171.019 161.989 171.019 160.331 172.176 159.656L232.451 124.625C232.991 124.316 233.646 124.316 234.186 124.625L294.904 159.676C296.061 160.35 296.061 162.009 294.904 162.683Z" fill="#945AD2"/>
<path opacity="0.66" d="M294.19 164.284L234.61 198.891C234.07 199.199 233.414 199.199 232.874 198.891L172.87 164.245C171.713 163.57 171.713 161.912 172.87 161.257L232.431 126.649C232.971 126.341 233.626 126.341 234.166 126.649L294.171 161.295C295.327 161.97 295.327 163.628 294.171 164.284H294.19Z" fill="#9359D1"/>
<path opacity="0.67" d="M293.478 165.884L234.611 200.086C234.071 200.395 233.415 200.395 232.875 200.086L173.565 165.845C172.408 165.19 172.408 163.532 173.565 162.857L232.432 128.654C232.972 128.346 233.627 128.346 234.167 128.654L293.478 162.895C294.635 163.551 294.635 165.209 293.478 165.884Z" fill="#9259D0"/>
<path opacity="0.68" d="M292.784 167.484L234.611 201.282C234.071 201.59 233.415 201.59 232.875 201.282L174.278 167.445C173.141 166.79 173.122 165.132 174.278 164.457L232.451 130.659C232.991 130.351 233.647 130.351 234.187 130.659L292.784 164.496C293.921 165.151 293.94 166.809 292.784 167.484Z" fill="#9159D0"/>
<path opacity="0.69" d="M292.07 169.084L234.611 202.477C234.071 202.785 233.416 202.785 232.895 202.477L175.011 169.065C173.874 168.409 173.874 166.751 175.011 166.096L232.471 132.703C233.011 132.395 233.666 132.395 234.187 132.703L292.07 166.115C293.208 166.771 293.208 168.429 292.07 169.084Z" fill="#9058CF"/>
<path opacity="0.7" d="M291.356 170.684L234.591 203.672C234.051 203.981 233.415 203.981 232.875 203.672L175.685 170.665C174.548 170.01 174.548 168.371 175.685 167.696L232.45 134.708C232.99 134.4 233.627 134.4 234.167 134.708L291.356 167.715C292.494 168.371 292.494 170.01 291.356 170.684Z" fill="#8F58CE"/>
<path opacity="0.71" d="M290.661 172.285L234.59 204.868C234.07 205.176 233.414 205.176 232.874 204.868L176.398 172.265C175.261 171.61 175.261 169.971 176.398 169.316L232.45 136.733C232.971 136.424 233.626 136.424 234.166 136.733L290.642 169.335C291.78 169.99 291.78 171.629 290.642 172.285H290.661Z" fill="#8E58CD"/>
<path opacity="0.72" d="M289.949 173.885L234.592 206.063C234.071 206.371 233.415 206.371 232.876 206.063L177.113 173.866C175.975 173.21 175.975 171.571 177.113 170.916L232.471 138.738C232.991 138.429 233.647 138.429 234.187 138.738L289.949 170.935C291.087 171.591 291.087 173.229 289.949 173.885Z" fill="#8D58CD"/>
<path opacity="0.73" d="M289.235 175.485L234.572 207.239C234.051 207.547 233.395 207.547 232.875 207.239L177.806 175.447C176.669 174.791 176.669 173.172 177.806 172.516L232.451 140.762C232.971 140.454 233.627 140.454 234.147 140.762L289.216 172.555C290.353 173.21 290.353 174.83 289.216 175.485H289.235Z" fill="#8C57CC"/>
<path opacity="0.74" d="M288.541 177.085L234.591 208.434C234.071 208.743 233.415 208.743 232.894 208.434L178.539 177.047C177.421 176.391 177.402 174.772 178.539 174.116L232.489 142.767C233.01 142.459 233.666 142.459 234.186 142.767L288.541 174.155C289.66 174.81 289.679 176.43 288.541 177.085Z" fill="#8B57CB"/>
<path opacity="0.76" d="M287.828 178.686L234.572 209.63C234.051 209.938 233.395 209.938 232.875 209.63L179.233 178.666C178.115 178.011 178.115 176.391 179.233 175.736L232.489 144.792C233.01 144.483 233.665 144.483 234.186 144.792L287.828 175.755C288.946 176.411 288.946 178.03 287.828 178.686Z" fill="#8A57CB"/>
<path opacity="0.77" d="M287.114 180.286L234.571 210.825C234.051 211.133 233.414 211.133 232.874 210.825L179.946 180.266C178.828 179.611 178.828 178.011 179.946 177.355L232.489 146.816C233.009 146.507 233.646 146.507 234.186 146.816L287.133 177.374C288.251 178.03 288.251 179.63 287.133 180.286H287.114Z" fill="#8956CA"/>
<path opacity="0.78" d="M286.401 181.867L234.553 212.001C234.032 212.31 233.396 212.31 232.876 212.001L180.641 181.847C179.523 181.211 179.523 179.592 180.641 178.936L232.49 148.802C233.01 148.493 233.647 148.493 234.167 148.802L286.401 178.955C287.52 179.592 287.52 181.211 286.401 181.867Z" fill="#8856C9"/>
<path opacity="0.79" d="M285.707 183.467L234.552 213.196C234.032 213.505 233.396 213.505 232.875 213.196L181.354 183.448C180.236 182.811 180.236 181.192 181.354 180.556L232.489 150.826C233.01 150.518 233.646 150.518 234.167 150.826L285.687 180.575C286.806 181.211 286.806 182.831 285.687 183.467H285.707Z" fill="#8756C8"/>
<path opacity="0.8" d="M284.993 185.067L234.552 214.373C234.031 214.681 233.395 214.681 232.874 214.373L182.067 185.029C180.949 184.392 180.949 182.792 182.067 182.137L232.508 152.831C233.029 152.523 233.665 152.523 234.186 152.831L285.012 182.175C286.13 182.811 286.13 184.412 285.012 185.067H284.993Z" fill="#8656C8"/>
<path opacity="0.81" d="M284.279 186.667L234.532 215.568C234.012 215.876 233.375 215.876 232.855 215.568L182.742 186.629C181.643 185.993 181.623 184.392 182.742 183.756L232.488 154.856C233.009 154.547 233.645 154.547 234.166 154.856L284.279 183.795C285.378 184.431 285.397 186.031 284.279 186.667Z" fill="#8555C7"/>
<path opacity="0.82" d="M283.585 188.268L234.552 216.763C234.031 217.052 233.395 217.072 232.894 216.763L183.494 188.248C182.395 187.612 182.395 186.012 183.494 185.376L232.527 156.88C233.048 156.591 233.684 156.572 234.186 156.88L283.585 185.395C284.684 186.031 284.684 187.631 283.585 188.268Z" fill="#8455C6"/>
<path opacity="0.83" d="M282.873 189.868L234.534 217.959C234.013 218.248 233.396 218.248 232.876 217.959L184.19 189.849C183.09 189.212 183.09 187.631 184.19 186.976L232.529 158.885C233.049 158.596 233.666 158.596 234.187 158.885L282.892 186.995C283.991 187.631 283.991 189.212 282.892 189.868H282.873Z" fill="#8355C6"/>
<path opacity="0.84" d="M282.159 191.468L234.514 219.154C234.012 219.443 233.376 219.443 232.855 219.154L184.863 191.449C183.764 190.813 183.764 189.232 184.863 188.595L232.489 160.91C233.01 160.62 233.627 160.62 234.147 160.91L282.139 188.615C283.238 189.251 283.238 190.832 282.139 191.468H282.159Z" fill="#8254C5"/>
<path opacity="0.85" d="M281.464 193.068L234.533 220.349C234.031 220.638 233.395 220.638 232.874 220.349L185.596 193.049C184.497 192.413 184.497 190.832 185.596 190.196L232.527 162.915C233.029 162.625 233.665 162.625 234.186 162.915L281.464 190.215C282.563 190.851 282.563 192.432 281.464 193.068Z" fill="#8154C4"/>
<path opacity="0.86" d="M280.75 194.669L234.513 221.525C234.012 221.815 233.375 221.815 232.874 221.525L186.309 194.63C185.21 193.994 185.21 192.432 186.309 191.796L232.546 164.939C233.047 164.65 233.684 164.65 234.185 164.939L280.77 191.834C281.869 192.471 281.869 194.032 280.77 194.669H280.75Z" fill="#8054C3"/>
<path opacity="0.87" d="M280.039 196.269L234.515 222.721C234.013 223.01 233.377 223.01 232.876 222.721L187.005 196.25C185.925 195.613 185.906 194.052 187.005 193.415L232.529 166.963C233.03 166.674 233.666 166.674 234.168 166.963L280.039 193.435C281.118 194.071 281.138 195.633 280.039 196.269Z" fill="#7F53C3"/>
<path opacity="0.88" d="M279.344 197.869L234.515 223.916C234.013 224.205 233.377 224.205 232.876 223.916L187.718 197.85C186.638 197.233 186.638 195.652 187.718 195.035L232.548 168.988C233.049 168.699 233.686 168.699 234.187 168.988L279.344 195.054C280.424 195.671 280.424 197.252 279.344 197.869Z" fill="#7E53C2"/>
<path opacity="0.89" d="M278.631 199.469L234.514 225.111C234.013 225.401 233.396 225.401 232.875 225.111L188.431 199.45C187.351 198.833 187.351 197.271 188.431 196.635L232.547 170.993C233.049 170.704 233.666 170.704 234.186 170.993L278.65 196.654C279.73 197.271 279.73 198.833 278.65 199.469H278.631Z" fill="#7D53C1"/>
<path opacity="0.9" d="M277.916 201.069L234.494 226.307C233.993 226.596 233.376 226.596 232.874 226.307L189.124 201.05C188.045 200.433 188.045 198.872 189.124 198.255L232.547 173.017C233.048 172.728 233.665 172.728 234.166 173.017L277.916 198.274C278.996 198.891 278.996 200.453 277.916 201.069Z" fill="#7C53C0"/>
<path opacity="0.91" d="M277.222 202.65L234.494 227.483C233.992 227.772 233.375 227.772 232.874 227.483L189.837 202.631C188.757 202.014 188.757 200.453 189.837 199.836L232.546 175.003C233.047 174.714 233.664 174.714 234.166 175.003L277.202 199.855C278.282 200.472 278.282 202.033 277.202 202.65H277.222Z" fill="#7B52C0"/>
<path opacity="0.93" d="M276.51 204.251L234.495 228.659C233.994 228.948 233.377 228.948 232.875 228.659L190.552 204.212C189.472 203.595 189.472 202.053 190.552 201.417L232.567 177.008C233.068 176.719 233.685 176.719 234.186 177.008L276.51 201.455C277.589 202.072 277.589 203.614 276.51 204.251Z" fill="#7A52BF"/>
<path opacity="0.94" d="M275.796 205.851L234.475 229.854C233.974 230.143 233.357 230.143 232.856 229.854L191.226 205.832C190.166 205.215 190.147 203.672 191.226 203.055L232.547 179.052C233.048 178.763 233.665 178.763 234.167 179.052L275.796 203.075C276.856 203.691 276.876 205.234 275.796 205.851Z" fill="#7952BE"/>
<path opacity="0.95" d="M275.102 207.451L234.495 231.05C233.994 231.339 233.396 231.339 232.895 231.05L191.979 207.432C190.918 206.815 190.918 205.272 191.979 204.656L232.586 181.057C233.087 180.768 233.704 180.768 234.187 181.057L275.102 204.675C276.163 205.292 276.163 206.834 275.102 207.451Z" fill="#7851BE"/>
<path opacity="0.96" d="M274.388 209.051L234.475 232.245C233.974 232.534 233.376 232.534 232.875 232.245L192.672 209.032C191.612 208.415 191.612 206.892 192.672 206.275L232.585 183.081C233.087 182.792 233.684 182.792 234.186 183.081L274.388 206.294C275.448 206.911 275.448 208.434 274.388 209.051Z" fill="#7751BD"/>
<path opacity="0.97" d="M273.676 210.652L234.457 233.44C233.955 233.73 233.358 233.73 232.856 233.44L193.348 210.632C192.288 210.015 192.288 208.492 193.348 207.875L232.548 185.087C233.049 184.797 233.647 184.797 234.148 185.087L273.656 207.895C274.717 208.512 274.717 210.035 273.656 210.652H273.676Z" fill="#1F2846"/>
<path opacity="0.98" d="M272.981 212.252L234.476 234.636C233.974 234.925 233.377 234.925 232.875 234.636L194.081 212.232C193.02 211.615 193.02 210.092 194.081 209.495L232.586 187.111C233.087 186.822 233.685 186.822 234.186 187.111L272.981 209.514C274.042 210.131 274.042 211.654 272.981 212.252Z" fill="#1F2846"/>
<path opacity="0.99" d="M272.267 213.852L234.456 235.812C233.974 236.101 233.357 236.101 232.875 235.812L194.793 213.813C193.733 213.196 193.733 211.693 194.793 211.076L232.605 189.116C233.087 188.827 233.704 188.827 234.186 189.116L272.267 211.114C273.328 211.731 273.328 213.235 272.267 213.852Z" fill="#1F2846"/>
<path d="M271.554 215.452L234.456 237.007C233.974 237.296 233.357 237.296 232.875 237.007L195.487 215.433C194.446 214.835 194.427 213.312 195.487 212.695L232.585 191.14C233.067 190.851 233.684 190.851 234.166 191.14L271.554 212.715C272.595 213.312 272.614 214.835 271.554 215.452Z" fill="#1F2846"/>
</g>
<path d="M273.906 214.083L233.665 237.47L193.135 214.064L233.376 190.678L273.906 214.083Z" fill="#1F2846"/>
<path d="M255.282 210.594V213.042L250.5 215.819L250.519 213.37L255.282 210.594Z" fill="#DDDEFA"/>
<path d="M250.518 213.37L250.499 215.819L229.154 203.479V201.05L250.518 213.37Z" fill="#C9C9EC"/>
<path d="M255.281 210.594L250.518 213.37L229.154 201.05L233.936 198.274L255.281 210.594Z" fill="#F8F9FC"/>
<mask id="mask0_2034_1691" style="mask-type:luminance" maskUnits="userSpaceOnUse" x="220" y="211" width="12" height="7">
<path d="M231.526 214.623V217.072C230.273 216.725 229.077 216.397 227.92 216.088C226.764 215.78 225.722 215.51 224.739 215.259C223.756 215.009 222.907 214.797 222.175 214.604C221.442 214.411 220.844 214.276 220.42 214.18V211.731C220.863 211.828 221.442 211.982 222.175 212.155C222.907 212.348 223.775 212.56 224.739 212.811C225.703 213.062 226.764 213.331 227.92 213.64C229.077 213.948 230.273 214.276 231.526 214.623Z" fill="white"/>
</mask>
<g mask="url(#mask0_2034_1691)">
<path d="M231.526 214.623V217.072C230.273 216.725 229.077 216.397 227.92 216.088C226.764 215.78 225.722 215.51 224.739 215.259C223.756 215.009 222.907 214.797 222.175 214.604C221.442 214.411 220.844 214.276 220.42 214.18V211.731C220.863 211.828 221.442 211.982 222.175 212.155C222.907 212.348 223.775 212.56 224.739 212.811C225.703 213.062 226.764 213.331 227.92 213.64C229.077 213.948 230.273 214.276 231.526 214.623Z" fill="#C9C9EC"/>
</g>
<mask id="mask1_2034_1691" style="mask-type:luminance" maskUnits="userSpaceOnUse" x="236" y="216" width="4" height="4">
<path d="M239.623 217.052V219.501C238.563 219.212 237.521 218.923 236.461 218.633V216.185C237.502 216.474 238.563 216.763 239.623 217.052Z" fill="white"/>
</mask>
<g mask="url(#mask1_2034_1691)">
<path d="M239.623 217.052V219.501C238.563 219.212 237.521 218.923 236.461 218.633V216.185C237.502 216.474 238.563 216.763 239.623 217.052Z" fill="#C9C9EC"/>
</g>
<mask id="mask2_2034_1691" style="mask-type:luminance" maskUnits="userSpaceOnUse" x="239" y="217" width="4" height="4">
<path d="M242.67 217.92V220.369C241.686 220.079 240.664 219.79 239.623 219.482V217.033C240.684 217.322 241.705 217.612 242.67 217.92Z" fill="white"/>
</mask>
<g mask="url(#mask2_2034_1691)">
<path d="M242.67 217.92V220.369C241.686 220.079 240.664 219.79 239.623 219.482V217.033C240.684 217.322 241.705 217.612 242.67 217.92Z" fill="#C9C9EC"/>
</g>
<path d="M247.78 214.951V217.399L242.67 220.369V217.92L247.78 214.951Z" fill="#DDDEFA"/>
<path d="M236.481 216.166L236.461 218.614L228.189 223.434V220.986L236.481 216.166Z" fill="#DDDEFA"/>
<mask id="mask3_2034_1691" style="mask-type:luminance" maskUnits="userSpaceOnUse" x="213" y="210" width="14" height="20">
<path d="M226.3 227.444V229.893C224.796 228.1 223.427 226.442 222.193 224.899C220.959 223.357 219.821 221.892 218.78 220.504C217.739 219.115 216.775 217.766 215.888 216.493C215.001 215.221 214.172 213.929 213.42 212.676V210.227C214.191 211.5 215.02 212.772 215.907 214.045C216.794 215.317 217.758 216.667 218.8 218.055C219.841 219.443 220.978 220.908 222.212 222.451C223.446 223.993 224.815 225.651 226.319 227.444H226.3Z" fill="white"/>
</mask>
<g mask="url(#mask3_2034_1691)">
<path d="M226.3 227.444V229.893C224.796 228.1 223.427 226.442 222.193 224.899C220.959 223.357 219.821 221.892 218.78 220.504C217.739 219.115 216.775 217.766 215.888 216.493C215.001 215.221 214.172 213.929 213.42 212.676V210.227C214.191 211.5 215.02 212.772 215.907 214.045C216.794 215.317 217.758 216.667 218.8 218.055C219.841 219.443 220.978 220.908 222.212 222.451C223.446 223.993 224.815 225.651 226.319 227.444H226.3Z" fill="#C9C9EC"/>
</g>
<path d="M231.256 224.552V227.001L226.281 229.874L226.301 227.444L231.256 224.552Z" fill="#DDDEFA"/>
<path d="M239.624 217.052C238.563 216.763 237.522 216.474 236.481 216.185L228.19 221.005C228.691 221.603 229.212 222.219 229.732 222.817C230.253 223.434 230.754 224.012 231.255 224.572L226.3 227.444C224.796 225.651 223.427 223.993 222.193 222.451C220.959 220.908 219.821 219.443 218.78 218.055C217.739 216.667 216.775 215.317 215.888 214.045C215.001 212.772 214.172 211.481 213.42 210.227L217.951 207.605C220.13 208.049 222.328 208.531 224.545 209.032C226.782 209.533 229.096 210.092 231.506 210.69C233.916 211.288 236.462 211.943 239.122 212.657C241.783 213.37 244.675 214.16 247.78 215.009L242.67 217.978C241.687 217.689 240.684 217.4 239.624 217.091V217.052ZM225.452 218.151L231.525 214.623C230.272 214.276 229.077 213.948 227.92 213.64C226.763 213.331 225.722 213.062 224.738 212.811C223.755 212.56 222.907 212.348 222.174 212.155C221.441 211.963 220.843 211.828 220.419 211.731C220.631 211.963 220.882 212.31 221.21 212.734C221.538 213.158 221.923 213.659 222.367 214.199C222.81 214.758 223.273 215.375 223.793 216.05C224.314 216.725 224.854 217.419 225.452 218.151Z" fill="#F8F9FC"/>
<path d="M233.993 313.799L89.3613 230.298L233.068 146.797L377.719 230.298L234.012 313.799H233.993ZM93.1984 230.298L233.993 311.581L373.862 230.298L233.068 149.014L93.1984 230.298Z" fill="#1F2846"/>
<path d="M111.786 242.136L101.084 248.305C100.93 248.402 100.737 248.402 100.583 248.305L89.6117 241.981L54.0177 262.534L50.7013 264.442C50.7013 264.442 50.5277 264.519 50.4506 264.519C50.2771 264.519 50.1035 264.423 50.0071 264.269C49.8722 264.037 49.9493 263.71 50.1999 263.575L52.9958 261.955L89.361 240.96C89.5153 240.863 89.7081 240.863 89.8623 240.96L100.834 247.283L110.764 241.557L111.786 242.136Z" fill="#1F2846"/>
<path d="M198.034 290.952L196.337 291.916L186.6 297.527C186.445 297.623 186.253 297.623 186.098 297.527L175.127 291.203L161.283 299.185L160.261 299.763L139.225 311.909L136.197 313.664C136.197 313.664 136.024 313.722 135.947 313.722C135.773 313.722 135.6 313.625 135.503 313.471C135.368 313.22 135.445 312.912 135.696 312.777L138.395 311.215L159.258 299.165L160.28 298.587L174.876 290.162C175.031 290.065 175.223 290.065 175.378 290.162L186.349 296.485L195.315 291.299L197.012 290.316L198.034 290.894V290.952Z" fill="#1F2846"/>
<path d="M164.754 271.73L163.057 272.713L153.59 278.17C153.436 278.266 153.243 278.266 153.089 278.17L142.117 271.846L128.003 279.982L126.981 280.56L106.774 292.225L103.188 294.288C103.188 294.288 103.014 294.345 102.937 294.345C102.763 294.345 102.59 294.249 102.493 294.095C102.358 293.844 102.436 293.536 102.686 293.401L105.964 291.511L125.979 279.963L127 279.384L141.867 270.805C142.021 270.708 142.214 270.708 142.368 270.805L153.339 277.129L162.035 272.096L163.732 271.113L164.754 271.692V271.73Z" fill="#1F2846"/>
<path d="M138.203 256.422L136.506 257.405L100.739 278.054L98.0392 279.616C98.0392 279.616 97.8656 279.693 97.7885 279.693C97.615 279.693 97.4414 279.596 97.345 279.442C97.21 279.211 97.2872 278.883 97.5378 278.748L99.7745 277.456L135.484 256.827L137.181 255.844L138.203 256.422Z" fill="#1F2846"/>
<path d="M210.258 298.028L208.561 298.992L173.295 319.351L170.576 320.932C170.576 320.932 170.403 320.99 170.326 320.99C170.152 320.99 169.979 320.894 169.882 320.74C169.747 320.489 169.824 320.18 170.075 320.045L172.292 318.773L207.578 298.394L209.275 297.411L210.296 297.989L210.258 298.028Z" fill="#1F2846"/>
<path d="M176.13 278.305L174.434 279.288L150.601 293.034L149.579 293.613L138.782 299.859L135.947 301.498C135.947 301.498 135.774 301.556 135.697 301.556C135.523 301.556 135.35 301.46 135.253 301.305C135.118 301.074 135.195 300.746 135.446 300.611L137.779 299.262L148.577 293.034L149.579 292.456L173.412 278.709L175.108 277.726L176.13 278.305Z" fill="#1F2846"/>
<path d="M175.609 307.475L162.247 315.187L158.526 317.346L158.005 316.459L161.36 314.531L173.585 307.475L160.28 299.782L159.258 299.204L149.598 293.632L148.596 293.034L127 280.58L125.998 279.982L117.205 274.911L141.866 260.49L143.544 259.507L144.566 260.085L142.888 261.068L119.23 274.911L127 279.403L128.022 279.982L149.598 292.456L150.62 293.034L160.28 298.625L161.302 299.204L175.609 307.475Z" fill="#1F2846"/>
<path d="M53.5945 262.244C55.0984 263.112 55.0984 264.519 53.5945 265.406C52.0905 266.274 49.6417 266.274 48.1377 265.406C46.6338 264.539 46.6338 263.131 48.1377 262.244C49.6417 261.377 52.0905 261.377 53.5945 262.244Z" fill="#1F2846"/>
<path d="M119.98 260.721C119.98 260.895 119.883 261.068 119.729 261.165L89.0713 278.864L86.2755 280.483C86.2755 280.483 86.1019 280.56 86.0248 280.56C85.8513 280.56 85.6778 280.464 85.5813 280.31C85.4464 280.078 85.5235 279.751 85.7742 279.616L88.1072 278.266L118.476 260.741L107.196 254.224C107.042 254.128 106.945 253.973 106.945 253.781C106.945 253.588 107.042 253.434 107.196 253.337L118.341 246.898L120.038 245.914L121.06 246.493L119.363 247.476L108.469 253.761L119.748 260.278C119.903 260.374 119.999 260.529 119.999 260.721H119.98Z" fill="#1F2846"/>
<path d="M88.5515 278.478C90.0555 279.346 90.0555 280.753 88.5515 281.64C87.0475 282.508 84.5987 282.508 83.0948 281.64C81.5908 280.772 81.5908 279.365 83.0948 278.478C84.5987 277.61 87.0475 277.61 88.5515 278.478Z" fill="#1F2846"/>
<path d="M216.872 315.977C216.872 316.151 216.776 316.324 216.622 316.421L186.774 333.657L183.168 335.739C183.168 335.739 182.995 335.816 182.917 335.816C182.744 335.816 182.57 335.72 182.474 335.566C182.339 335.315 182.416 335.007 182.667 334.872L185.81 333.059L215.368 315.997L204.089 309.48C203.934 309.384 203.838 309.229 203.838 309.037C203.838 308.844 203.934 308.69 204.089 308.593L214.655 302.501L216.352 301.537L217.354 302.115L215.658 303.079L205.361 309.037L216.641 315.553C216.795 315.65 216.892 315.804 216.892 315.997L216.872 315.977Z" fill="#1F2846"/>
<path d="M186.214 333.252C187.718 334.12 187.718 335.527 186.214 336.414C184.71 337.282 182.261 337.282 180.757 336.414C179.253 335.546 179.253 334.139 180.757 333.252C182.261 332.385 184.71 332.385 186.214 333.252Z" fill="#1F2846"/>
<path d="M100.159 277.611C101.663 278.478 101.663 279.886 100.159 280.772C98.6549 281.64 96.2062 281.64 94.7022 280.772C93.1982 279.905 93.1982 278.497 94.7022 277.611C96.2062 276.743 98.6549 276.743 100.159 277.611Z" fill="#1F2846"/>
<path d="M105.964 291.531C107.468 292.398 107.468 293.806 105.964 294.692C104.46 295.56 102.011 295.56 100.507 294.692C99.0029 293.825 99.0029 292.417 100.507 291.531C102.011 290.663 104.46 290.663 105.964 291.531Z" fill="#1F2846"/>
<path d="M138.319 299.512C139.823 300.38 139.823 301.787 138.319 302.674C136.815 303.542 134.366 303.542 132.862 302.674C131.358 301.807 131.358 300.399 132.862 299.512C134.366 298.645 136.815 298.645 138.319 299.512Z" fill="#1F2846"/>
<path d="M138.454 311.273C139.958 312.141 139.958 313.548 138.454 314.435C136.95 315.303 134.501 315.303 132.997 314.435C131.493 313.567 131.493 312.16 132.997 311.273C134.501 310.406 136.95 310.406 138.454 311.273Z" fill="#1F2846"/>
<path d="M161.514 314.608C163.018 315.476 163.018 316.884 161.514 317.77C160.01 318.638 157.562 318.638 156.058 317.77C154.554 316.903 154.554 315.495 156.058 314.608C157.562 313.741 160.01 313.741 161.514 314.608Z" fill="#1F2846"/>
<path d="M172.872 319.062C174.376 319.93 174.376 321.337 172.872 322.224C171.368 323.092 168.919 323.092 167.415 322.224C165.911 321.356 165.911 319.949 167.415 319.062C168.919 318.195 171.368 318.195 172.872 319.062Z" fill="#1F2846"/>
<path d="M385.682 277.071C385.586 277.225 385.412 277.321 385.239 277.321C385.142 277.321 385.065 277.302 384.988 277.263L381.903 275.49L351.534 257.945C351.38 257.849 351.284 257.675 351.284 257.502C351.284 257.328 351.38 257.155 351.534 257.058L362.814 250.542L352.691 244.7L351.014 243.736L352.016 243.157L353.713 244.121L364.087 250.117C364.241 250.214 364.337 250.368 364.337 250.561C364.337 250.754 364.241 250.908 364.087 251.004L352.807 257.521L383.06 274.988L385.509 276.396C385.759 276.531 385.836 276.839 385.701 277.09L385.682 277.071Z" fill="#1F2846"/>
<path d="M280.751 337.783C280.655 337.937 280.481 338.033 280.308 338.033C280.211 338.033 280.134 338.014 280.057 337.976L277.068 336.26L246.603 318.676C246.449 318.58 246.353 318.407 246.353 318.233C246.353 318.06 246.449 317.886 246.603 317.79L257.883 311.273L247.972 305.547L246.295 304.583L247.298 304.005L248.975 304.969L259.137 310.83C259.291 310.926 259.387 311.08 259.387 311.273C259.387 311.466 259.291 311.62 259.137 311.716L247.857 318.233L278.245 335.778L280.558 337.108C280.809 337.243 280.886 337.551 280.751 337.802V337.783Z" fill="#1F2846"/>
<path d="M332.485 305.181C332.388 305.335 332.215 305.431 332.041 305.431C331.945 305.431 331.868 305.412 331.79 305.373L328.995 303.754L305.934 290.451C305.779 290.354 305.683 290.2 305.683 290.007C305.683 289.815 305.779 289.66 305.934 289.564L314.475 284.628L306.782 280.098L305.779 279.5L299.32 275.702L297.643 274.719L298.645 274.14L300.323 275.123L306.782 278.922L307.785 279.519L315.748 284.204C315.902 284.301 315.999 284.474 315.999 284.648C315.999 284.821 315.902 284.995 315.748 285.091L307.206 290.027L330.364 303.388L332.292 304.506C332.523 304.641 332.62 304.949 332.485 305.2V305.181Z" fill="#1F2846"/>
<path d="M374.363 303.831C374.267 303.985 374.093 304.082 373.92 304.082C373.824 304.082 373.746 304.062 373.669 304.005L370.681 302.289L328.647 278.015C328.492 277.919 328.396 277.765 328.396 277.572C328.396 277.379 328.492 277.225 328.647 277.128L344.072 268.221L328.068 258.986L326.391 258.022L327.393 257.444L329.071 258.408L345.345 267.797C345.499 267.893 345.595 268.048 345.595 268.24C345.595 268.433 345.499 268.587 345.345 268.684L329.919 277.591L371.857 301.807L374.171 303.137C374.421 303.272 374.498 303.58 374.363 303.831Z" fill="#1F2846"/>
<path d="M329.245 316.517C329.149 316.671 328.975 316.768 328.802 316.768C328.725 316.768 328.628 316.748 328.551 316.691L325.987 315.206L296.235 298.028L279.826 307.513C279.672 307.61 279.479 307.61 279.325 307.513L261.894 297.449L260.217 296.485L261.219 295.907L262.897 296.871L279.576 306.492L295.984 297.006C296.139 296.91 296.331 296.91 296.486 297.006L327.008 314.628L329.072 315.804C329.322 315.939 329.399 316.247 329.264 316.498L329.245 316.517Z" fill="#1F2846"/>
<path d="M373.9 276.184C373.804 276.338 373.63 276.434 373.457 276.434C373.38 276.434 373.283 276.415 373.206 276.377L370.314 274.699L335.588 254.648L333.91 253.665L334.913 253.087L336.59 254.051L371.394 274.14L373.708 275.47C373.958 275.605 374.035 275.914 373.9 276.165V276.184Z" fill="#1F2846"/>
<path d="M400.741 260.451C400.645 260.606 400.471 260.702 400.298 260.702C400.201 260.702 400.124 260.683 400.047 260.625L396.866 258.793L362.525 238.974L360.828 238.01L361.831 237.431L363.528 238.395L397.83 258.196L400.548 259.757C400.799 259.892 400.876 260.201 400.741 260.451Z" fill="#1F2846"/>
<path d="M342.703 293.921C342.607 294.075 342.433 294.172 342.26 294.172C342.163 294.172 342.086 294.153 342.009 294.095L338.866 292.282L312.257 276.916L311.235 276.338L304.699 272.559L303.021 271.595L304.024 271.017L305.702 271.981L312.238 275.76L313.26 276.338L339.772 291.646L342.491 293.227C342.722 293.362 342.819 293.671 342.684 293.921H342.703Z" fill="#1F2846"/>
<path d="M292.32 323.284C292.223 323.439 292.05 323.535 291.876 323.535C291.799 323.535 291.703 323.516 291.625 323.477L288.714 321.8L254.258 301.903L252.58 300.939L253.583 300.361L255.26 301.325L289.794 321.26L292.127 322.61C292.377 322.745 292.455 323.053 292.32 323.304V323.284Z" fill="#1F2846"/>
<path d="M329.495 266.987L313.259 276.357L312.257 276.936L307.803 279.519L306.781 280.098L286.439 291.839L283.411 293.593L282.91 292.707L285.61 291.145L305.778 279.5L306.781 278.921L311.235 276.357L312.257 275.76L327.47 266.987L320.876 263.189L319.198 262.206L320.201 261.627L321.878 262.591L329.495 266.987Z" fill="#1F2846"/>
<path d="M282.622 336.202C284.126 337.07 284.126 338.477 282.622 339.364C281.118 340.231 278.669 340.231 277.165 339.364C275.661 338.496 275.661 337.089 277.165 336.202C278.669 335.334 281.118 335.334 282.622 336.202Z" fill="#1F2846"/>
<path d="M294.479 321.607C295.983 322.475 295.983 323.882 294.479 324.769C292.975 325.637 290.526 325.637 289.023 324.769C287.519 323.901 287.519 322.494 289.023 321.607C290.526 320.74 292.975 320.74 294.479 321.607Z" fill="#1F2846"/>
<path d="M285.649 291.184C287.153 292.051 287.153 293.459 285.649 294.345C284.145 295.213 281.696 295.213 280.192 294.345C278.688 293.478 278.688 292.07 280.192 291.184C281.696 290.316 284.145 290.316 285.649 291.184Z" fill="#1F2846"/>
<path d="M331.905 314.898C333.409 315.765 333.409 317.173 331.905 318.06C330.401 318.927 327.952 318.927 326.448 318.06C324.944 317.192 324.944 315.785 326.448 314.898C327.952 314.03 330.401 314.03 331.905 314.898Z" fill="#1F2846"/>
<path d="M334.026 303.947C335.53 304.814 335.53 306.222 334.026 307.109C332.522 307.976 330.073 307.976 328.569 307.109C327.065 306.241 327.065 304.834 328.569 303.947C330.073 303.079 332.522 303.079 334.026 303.947Z" fill="#1F2846"/>
<path d="M344.997 291.8C346.501 292.668 346.501 294.075 344.997 294.962C343.493 295.83 341.044 295.83 339.54 294.962C338.036 294.095 338.036 292.687 339.54 291.8C341.044 290.933 343.493 290.933 344.997 291.8Z" fill="#1F2846"/>
<path d="M376.253 302.231C377.757 303.098 377.757 304.506 376.253 305.393C374.749 306.26 372.3 306.26 370.796 305.393C369.292 304.525 369.292 303.118 370.796 302.231C372.3 301.363 374.749 301.363 376.253 302.231Z" fill="#1F2846"/>
<path d="M376.079 274.506C377.583 275.374 377.583 276.781 376.079 277.668C374.575 278.536 372.126 278.536 370.622 277.668C369.118 276.801 369.118 275.393 370.622 274.506C372.126 273.639 374.575 273.639 376.079 274.506Z" fill="#1F2846"/>
<path d="M387.551 275.355C389.055 276.222 389.055 277.63 387.551 278.517C386.048 279.384 383.599 279.384 382.095 278.517C380.591 277.649 380.591 276.242 382.095 275.355C383.599 274.487 386.048 274.487 387.551 275.355Z" fill="#1F2846"/>
<path d="M402.882 258.408C404.386 259.275 404.386 260.683 402.882 261.57C401.378 262.437 398.929 262.437 397.425 261.57C395.921 260.702 395.921 259.295 397.425 258.408C398.929 257.54 401.378 257.54 402.882 258.408Z" fill="#1F2846"/>
<path d="M196.55 136.578C196.55 136.752 196.453 136.925 196.299 137.022L188.278 141.823L187.275 142.42L177.21 148.455L176.208 149.052L166.76 154.721L193.291 170.048L194.969 171.012L193.966 171.61L192.269 170.646L165.487 155.183C165.333 155.087 165.236 154.933 165.236 154.74C165.236 154.567 165.333 154.393 165.487 154.297L175.186 148.493L176.188 147.896L186.253 141.861L187.256 141.263L195.026 136.617L180.141 128.018L177.615 126.553C177.384 126.418 177.287 126.109 177.422 125.859C177.557 125.608 177.866 125.531 178.116 125.666L181.105 127.382L196.28 136.135C196.434 136.231 196.53 136.386 196.53 136.578H196.55Z" fill="#1F2846"/>
<path d="M105.829 221.853L79.7606 206.815L91.0404 200.298C91.1946 200.202 91.291 200.048 91.291 199.855C91.291 199.662 91.1946 199.508 91.0404 199.411L75.7307 190.581L72.877 188.942C72.6264 188.807 72.3179 188.885 72.1829 189.135C72.0479 189.367 72.1251 189.694 72.3757 189.829L74.5353 191.082L89.7678 199.874L78.488 206.391C78.3338 206.487 78.2373 206.641 78.2373 206.834C78.2373 207.027 78.3338 207.181 78.488 207.278L104.807 222.47L105.81 221.892L105.829 221.853Z" fill="#1F2846"/>
<path d="M158.854 192.008L157.851 192.586L156.155 191.622L138.03 181.153C137.876 181.057 137.779 180.903 137.779 180.71C137.779 180.517 137.876 180.363 138.03 180.267L146.572 175.331L125.651 163.03L123.665 161.854C123.414 161.719 123.337 161.411 123.492 161.16C123.626 160.929 123.935 160.832 124.186 160.987L126.712 162.471L147.825 174.907C147.979 175.003 148.076 175.157 148.076 175.35C148.076 175.524 147.979 175.697 147.825 175.794L139.283 180.729L157.157 191.044L158.835 192.027L158.854 192.008Z" fill="#1F2846"/>
<path d="M181.509 178.84L180.506 179.418L178.829 178.454L150.639 162.182C150.484 162.086 150.388 161.931 150.388 161.739C150.388 161.546 150.484 161.392 150.639 161.295L163.095 154.104L147.284 144.965L143.948 143.037C143.697 142.902 143.62 142.594 143.755 142.343C143.89 142.092 144.199 142.015 144.449 142.15L148.267 144.348L164.367 153.641C164.522 153.737 164.618 153.892 164.618 154.085C164.618 154.277 164.522 154.432 164.367 154.528L151.911 161.719L179.85 177.857L181.528 178.84H181.509Z" fill="#1F2846"/>
<path d="M146.089 199.431L145.086 200.009L143.408 199.045L124.994 188.422L111.825 196.018C111.671 196.115 111.478 196.115 111.324 196.018L93.5074 185.742L91.3093 184.47C91.0587 184.335 90.9815 184.026 91.1165 183.775C91.2515 183.525 91.56 183.448 91.8106 183.583L94.4329 185.106L111.555 194.996L124.724 187.4C124.879 187.304 125.072 187.304 125.226 187.4L144.392 198.467L146.069 199.431H146.089Z" fill="#1F2846"/>
<path d="M205.611 164.843L204.609 165.421L202.912 164.438L176.226 149.033L175.223 148.455L166.952 143.673L164.811 142.439C164.561 142.304 164.483 141.996 164.618 141.745C164.753 141.495 165.062 141.418 165.313 141.553L168.089 143.153L176.226 147.857L177.229 148.435L203.934 163.84L205.611 164.823V164.843Z" fill="#1F2846"/>
<path d="M216.853 158.307L215.851 158.885L214.154 157.921L187.275 142.42L186.273 141.842L155.191 123.912L153.571 122.986C153.32 122.851 153.243 122.543 153.378 122.292C153.513 122.041 153.822 121.964 154.072 122.099L156.425 123.468L187.237 141.244L188.239 141.823L215.118 157.324L216.815 158.288L216.853 158.307Z" fill="#1F2846"/>
<path d="M176.033 182.021L175.03 182.599L173.353 181.635L137.739 161.083L135.348 159.695C135.098 159.56 135.021 159.232 135.156 159.001C135.291 158.75 135.599 158.673 135.85 158.808L138.838 160.524L174.355 181.038L176.033 182.002V182.021Z" fill="#1F2846"/>
<path d="M125.959 211.114L124.956 211.712L123.278 210.748L107.371 201.571L103.553 199.373C103.322 199.238 103.225 198.929 103.38 198.679C103.515 198.447 103.823 198.351 104.074 198.486L108.451 201.012L124.3 210.17L125.978 211.134L125.959 211.114Z" fill="#1F2846"/>
<path d="M75.653 187.458C77.157 188.325 77.157 189.733 75.653 190.62C74.1491 191.487 71.7003 191.487 70.1963 190.62C68.6924 189.752 68.6924 188.345 70.1963 187.458C71.7003 186.59 74.1491 186.59 75.653 187.458Z" fill="#1F2846"/>
<path d="M108.065 198.081C109.569 198.949 109.569 200.356 108.065 201.243C106.561 202.111 104.112 202.111 102.608 201.243C101.104 200.375 101.104 198.968 102.608 198.081C104.112 197.214 106.561 197.214 108.065 198.081Z" fill="#1F2846"/>
<path d="M93.8171 182.407C95.3211 183.274 95.3211 184.682 93.8171 185.568C92.3131 186.436 89.8644 186.436 88.3604 185.568C86.8564 184.701 86.8564 183.293 88.3604 182.407C89.8644 181.539 92.3131 181.539 93.8171 182.407Z" fill="#1F2846"/>
<path d="M126.384 159.56C127.887 160.428 127.887 161.835 126.384 162.722C124.88 163.589 122.431 163.589 120.927 162.722C119.423 161.854 119.423 160.447 120.927 159.56C122.431 158.692 124.88 158.692 126.384 159.56Z" fill="#1F2846"/>
<path d="M99.8132 174.926C101.317 175.794 101.317 177.201 99.8132 178.088C98.3092 178.955 95.8605 178.955 94.3565 178.088C92.8525 177.22 92.8525 175.813 94.3565 174.926C95.8605 174.058 98.3092 174.058 99.8132 174.926Z" fill="#1F2846"/>
<path d="M152.76 195.555L151.757 196.134L150.08 195.17L107.911 170.819L100.256 175.234L97.3829 176.892C97.1515 177.027 96.8237 176.95 96.6888 176.7C96.5538 176.468 96.6309 176.141 96.8816 176.006L99.2532 174.637L107.66 169.778C107.814 169.682 108.007 169.682 108.161 169.778L151.082 194.572L152.76 195.536V195.555Z" fill="#1F2846"/>
<path d="M223.236 154.605L222.233 155.183L220.536 154.219L202.219 143.635C202.065 143.538 201.968 143.384 201.968 143.191C201.968 142.999 202.065 142.844 202.219 142.748L210.761 137.812L189.84 125.512L187.854 124.355C187.623 124.22 187.526 123.912 187.68 123.661C187.815 123.41 188.124 123.333 188.375 123.487L190.9 124.972L212.033 137.407C212.187 137.504 212.284 137.677 212.284 137.851C212.284 138.024 212.187 138.198 212.033 138.294L203.491 143.23L221.558 153.66L223.236 154.624V154.605Z" fill="#1F2846"/>
<path d="M190.553 122.041C192.057 122.909 192.057 124.316 190.553 125.203C189.049 126.071 186.601 126.071 185.097 125.203C183.593 124.336 183.593 122.928 185.097 122.041C186.601 121.174 189.049 121.174 190.553 122.041Z" fill="#1F2846"/>
<path d="M138.569 157.555C140.073 158.422 140.073 159.83 138.569 160.717C137.065 161.584 134.616 161.584 133.112 160.717C131.608 159.849 131.608 158.442 133.112 157.555C134.616 156.687 137.065 156.687 138.569 157.555Z" fill="#1F2846"/>
<path d="M147.69 141.61C149.194 142.478 149.194 143.885 147.69 144.772C146.186 145.64 143.737 145.64 142.233 144.772C140.729 143.905 140.729 142.497 142.233 141.61C143.737 140.743 146.186 140.743 147.69 141.61Z" fill="#1F2846"/>
<path d="M156.579 120.248C158.083 121.116 158.083 122.523 156.579 123.41C155.075 124.278 152.626 124.278 151.122 123.41C149.618 122.543 149.618 121.135 151.122 120.248C152.626 119.381 155.075 119.381 156.579 120.248Z" fill="#1F2846"/>
<path d="M180.585 124.625C182.089 125.492 182.089 126.9 180.585 127.787C179.081 128.654 176.632 128.654 175.128 127.787C173.624 126.919 173.624 125.512 175.128 124.625C176.632 123.757 179.081 123.757 180.585 124.625Z" fill="#1F2846"/>
<path d="M167.878 140.145C169.382 141.013 169.382 142.42 167.878 143.307C166.374 144.175 163.925 144.175 162.421 143.307C160.917 142.44 160.917 141.032 162.421 140.145C163.925 139.278 166.374 139.278 167.878 140.145Z" fill="#1F2846"/>
<path d="M367.171 194.688C367.171 194.861 367.075 195.035 366.92 195.131L341.739 209.668L340.061 210.632L339.039 210.054L340.717 209.071L365.667 194.669L342.78 180.961L341.777 180.363L336.128 176.989C335.973 176.893 335.877 176.738 335.877 176.545C335.877 176.372 335.973 176.198 336.128 176.102L351.302 167.349L354.291 165.633C354.522 165.498 354.85 165.575 354.985 165.826C355.12 166.077 355.043 166.385 354.812 166.52L352.286 167.966L337.4 176.565L342.78 179.804L343.782 180.401L366.92 194.264C367.075 194.36 367.171 194.514 367.171 194.707V194.688Z" fill="#1F2846"/>
<path d="M343.03 162.741L341.044 163.898L320.124 176.198L328.665 181.134C328.82 181.23 328.916 181.385 328.916 181.578C328.916 181.77 328.82 181.925 328.665 182.021L311.254 192.066L309.577 193.03L308.555 192.451L310.232 191.487L327.374 181.578L318.832 176.642C318.678 176.545 318.581 176.391 318.581 176.198C318.581 176.006 318.678 175.851 318.832 175.755L339.965 163.32L342.49 161.835C342.741 161.7 343.05 161.777 343.185 162.008C343.32 162.24 343.242 162.568 343.011 162.703L343.03 162.741Z" fill="#1F2846"/>
<path d="M321.417 140.781L318.158 142.651L301.827 152.079L314.553 159.425C314.707 159.521 314.803 159.676 314.803 159.868C314.803 160.061 314.707 160.215 314.553 160.312L285.399 177.143L283.721 178.126L282.699 177.548L284.377 176.584L313.28 159.888L300.554 152.542C300.4 152.446 300.303 152.291 300.303 152.099C300.303 151.906 300.4 151.752 300.554 151.655L317.271 142.015L320.896 139.914C321.147 139.779 321.455 139.856 321.59 140.107C321.725 140.357 321.648 140.666 321.398 140.801L321.417 140.781Z" fill="#1F2846"/>
<path d="M394.377 204.694L392.198 205.947L377.505 214.43C377.351 214.527 377.158 214.527 377.004 214.43L365.936 208.049L352.42 215.838L350.723 216.821L349.701 216.243L351.398 215.279L365.666 207.046C365.821 206.95 366.013 206.95 366.168 207.046L377.235 213.428L391.08 205.446L393.856 203.846C394.107 203.711 394.415 203.788 394.55 204.039C394.685 204.289 394.608 204.598 394.357 204.733L394.377 204.694Z" fill="#1F2846"/>
<path d="M300.9 143.519L298.759 144.753L264.033 164.804L262.336 165.768L261.314 165.19L262.992 164.226L297.603 144.232L300.379 142.632C300.63 142.497 300.938 142.574 301.073 142.825C301.208 143.076 301.131 143.384 300.88 143.519H300.9Z" fill="#1F2846"/>
<path d="M313.125 123.873L311.525 124.798L253.102 158.499L251.405 159.463L250.383 158.885L252.06 157.921L310.252 124.374L312.605 123.005C312.855 122.87 313.164 122.947 313.299 123.198C313.434 123.449 313.357 123.757 313.106 123.892L313.125 123.873Z" fill="#1F2846"/>
<path d="M331.384 160.582L328.993 161.951L294.055 182.137L292.358 183.101L291.336 182.522L293.013 181.558L327.875 161.43L330.863 159.695C331.114 159.56 331.423 159.637 331.557 159.888C331.692 160.138 331.615 160.447 331.365 160.582H331.384Z" fill="#1F2846"/>
<path d="M293.515 160.119L289.697 162.317L274.715 170.974L273.038 171.938L272.016 171.359L273.693 170.395L288.636 161.777L292.994 159.251C293.245 159.116 293.553 159.194 293.688 159.444C293.823 159.695 293.746 160.003 293.495 160.138L293.515 160.119Z" fill="#1F2846"/>
<path d="M289.003 158.846C287.499 159.714 287.499 161.122 289.003 162.008C290.507 162.876 292.956 162.876 294.46 162.008C295.964 161.141 295.964 159.733 294.46 158.846C292.956 157.979 290.507 157.979 289.003 158.846Z" fill="#1F2846"/>
<path d="M391.331 202.419C389.827 203.287 389.827 204.694 391.331 205.581C392.835 206.448 395.284 206.448 396.788 205.581C398.292 204.713 398.292 203.306 396.788 202.419C395.284 201.551 392.835 201.551 391.331 202.419Z" fill="#1F2846"/>
<path d="M340.331 160.447C338.827 161.314 338.827 162.722 340.331 163.609C341.835 164.476 344.284 164.476 345.788 163.609C347.292 162.741 347.292 161.334 345.788 160.447C344.284 159.579 341.835 159.579 340.331 160.447Z" fill="#1F2846"/>
<path d="M366.901 175.794C365.397 176.661 365.397 178.069 366.901 178.955C368.405 179.823 370.854 179.823 372.358 178.955C373.862 178.088 373.862 176.68 372.358 175.794C370.854 174.926 368.405 174.926 366.901 175.794Z" fill="#1F2846"/>
<path d="M370.043 177.587C369.908 177.837 369.6 177.914 369.349 177.779L366.476 176.121L358.822 171.706L343.782 180.401L342.779 180.98L317.405 195.632L315.708 196.596L314.705 196.018L316.383 195.054L341.777 180.382L342.779 179.804L358.571 170.684C358.725 170.588 358.918 170.588 359.072 170.684L367.479 175.543L369.851 176.912C370.082 177.047 370.178 177.355 370.043 177.606V177.587Z" fill="#1F2846"/>
<path d="M278.861 125.223L276.875 126.379L255.955 138.68L264.496 143.616C264.651 143.712 264.747 143.866 264.747 144.059C264.747 144.252 264.651 144.406 264.496 144.502L246.68 154.779L245.003 155.743L238.659 159.406C238.659 159.406 238.485 159.483 238.408 159.483C238.235 159.483 238.061 159.386 237.965 159.232C237.83 158.982 237.907 158.673 238.138 158.538L243.981 155.164L245.678 154.2L263.243 144.059L254.701 139.123C254.547 139.027 254.451 138.873 254.451 138.68C254.451 138.506 254.547 138.333 254.701 138.236L275.834 125.801L278.36 124.316C278.591 124.181 278.919 124.259 279.054 124.49C279.189 124.741 279.112 125.049 278.881 125.184L278.861 125.223Z" fill="#1F2846"/>
<path d="M276.161 122.909C274.657 123.776 274.657 125.184 276.161 126.071C277.665 126.938 280.114 126.938 281.618 126.071C283.122 125.203 283.122 123.796 281.618 122.909C280.114 122.041 277.665 122.041 276.161 122.909Z" fill="#1F2846"/>
<path d="M328.146 158.442C326.642 159.309 326.642 160.717 328.146 161.604C329.65 162.471 332.098 162.471 333.602 161.604C335.106 160.736 335.106 159.329 333.602 158.442C332.098 157.574 329.65 157.574 328.146 158.442Z" fill="#1F2846"/>
<path d="M318.003 139.412C316.499 140.28 316.499 141.687 318.003 142.574C319.507 143.442 321.956 143.442 323.46 142.574C324.964 141.707 324.964 140.299 323.46 139.412C321.956 138.545 319.507 138.545 318.003 139.412Z" fill="#1F2846"/>
<path d="M310.136 121.135C308.632 122.003 308.632 123.41 310.136 124.297C311.64 125.165 314.089 125.165 315.593 124.297C317.096 123.429 317.096 122.022 315.593 121.135C314.089 120.268 311.64 120.268 310.136 121.135Z" fill="#1F2846"/>
<path d="M351.862 164.592C350.358 165.46 350.358 166.867 351.862 167.754C353.366 168.621 355.815 168.621 357.319 167.754C358.823 166.886 358.823 165.479 357.319 164.592C355.815 163.724 353.366 163.724 351.862 164.592Z" fill="#1F2846"/>
<path d="M297.815 141.186C296.312 142.054 296.312 143.461 297.815 144.348C299.319 145.216 301.768 145.216 303.272 144.348C304.776 143.481 304.776 142.073 303.272 141.186C301.768 140.319 299.319 140.319 297.815 141.186Z" fill="#1F2846"/>
<path d="M261.773 155.428L259.086 166.212C258.078 168.329 256.197 170.378 253.443 172.092L255.492 161.979C258.548 160.064 260.631 157.813 261.739 155.462L261.773 155.428Z" fill="#22222D"/>
<path d="M255.492 161.946L253.443 172.058C253.242 172.192 253.04 172.327 252.805 172.428C248.506 174.947 242.965 176.291 237.322 176.56L237.591 166.918C243.871 166.649 250.018 165.137 254.787 162.349C255.022 162.214 255.257 162.08 255.492 161.912V161.946Z" fill="#22222D"/>
<path d="M237.591 166.952L237.322 176.594C233.426 176.761 229.497 176.392 225.836 175.485L224.828 165.742C228.892 166.75 233.258 167.153 237.591 166.952Z" fill="#22222D"/>
<path d="M224.863 165.742L225.87 175.485C223.083 174.779 220.463 173.771 218.179 172.461C213.343 169.673 211.361 165.977 210.958 162.349C210.622 159.493 208.271 151.128 208.271 151.128C208.271 155.193 210.958 159.258 216.298 162.349C218.851 163.827 221.739 164.936 224.863 165.708V165.742Z" fill="#22222D"/>
<path d="M254.686 140.075C265.366 146.223 265.399 156.234 254.82 162.382C244.207 168.53 226.978 168.53 216.297 162.382C205.617 156.234 205.584 146.223 216.163 140.075C226.776 133.927 244.005 133.927 254.686 140.075Z" fill="#22222D"/>
<path d="M264.191 147.903V151.867C264.191 156.1 261.403 160.3 255.828 163.558C244.644 170.042 226.508 170.042 215.257 163.558C209.581 160.3 206.76 155.999 206.793 151.733V147.768C206.793 152.035 209.614 156.335 215.29 159.594C226.542 166.078 244.711 166.078 255.862 159.594C261.403 156.369 264.191 152.136 264.191 147.903Z" fill="#2A2A36"/>
<path d="M264.191 147.903V151.867C264.191 153.177 263.889 154.487 263.352 155.798V151.833C263.889 150.557 264.191 149.247 264.191 147.903Z" fill="#2A2A36"/>
<path d="M255.728 136.077C266.979 142.561 267.046 153.11 255.862 159.594C244.678 166.078 226.542 166.078 215.291 159.594C204.04 153.11 203.973 142.561 215.157 136.077C226.341 129.593 244.477 129.593 255.728 136.077Z" fill="#35353F"/>
<path d="M264.191 142.561V146.525C264.191 150.758 261.403 154.958 255.828 158.217C244.644 164.7 226.508 164.7 215.257 158.217C209.581 154.958 206.76 150.657 206.793 146.391V142.427C206.793 146.693 209.614 150.993 215.29 154.252C226.542 160.736 244.711 160.736 255.862 154.252C261.403 151.027 264.191 146.794 264.191 142.561Z" fill="#2A2A36"/>
<path d="M264.191 142.561V146.525C264.191 147.835 263.889 149.146 263.352 150.456V146.492C263.889 145.215 264.191 143.905 264.191 142.561Z" fill="#2A2A36"/>
<path d="M255.728 130.735C266.979 137.219 267.046 147.768 255.862 154.252C244.678 160.736 226.542 160.736 215.291 154.252C204.04 147.768 203.973 137.219 215.157 130.735C226.341 124.251 244.477 124.251 255.728 130.735Z" fill="#35353F"/>
<path d="M264.191 137.219V141.184C264.191 145.417 261.403 149.616 255.828 152.875C244.644 159.359 226.508 159.359 215.257 152.875C209.581 149.616 206.76 145.316 206.793 141.049V137.085C206.793 141.351 209.614 145.652 215.29 148.911C226.542 155.395 244.711 155.395 255.862 148.911C261.403 145.685 264.191 141.452 264.191 137.219Z" fill="#2A2A36"/>
<path d="M264.191 137.219V141.184C264.191 142.494 263.889 143.804 263.352 145.114V141.15C263.889 139.873 264.191 138.563 264.191 137.219Z" fill="#2A2A36"/>
<path d="M255.728 125.394C266.979 131.877 267.046 142.427 255.862 148.911C244.678 155.395 226.542 155.395 215.291 148.911C204.04 142.427 203.973 131.877 215.157 125.394C226.341 118.91 244.477 118.91 255.728 125.394Z" fill="#35353F"/>
<path d="M264.191 131.878V135.842C264.191 140.075 261.403 144.274 255.828 147.533C244.644 154.017 226.508 154.017 215.257 147.533C209.581 144.274 206.76 139.974 206.793 135.707V131.743C206.793 136.01 209.614 140.31 215.29 143.569C226.542 150.053 244.711 150.053 255.862 143.569C261.403 140.344 264.191 136.111 264.191 131.878Z" fill="#2A2A36"/>
<path d="M264.191 131.878V135.842C264.191 137.152 263.889 138.462 263.352 139.773V135.808C263.889 134.532 264.191 133.221 264.191 131.878Z" fill="#2A2A36"/>
<path d="M255.728 120.052C266.979 126.536 267.046 137.085 255.862 143.569C244.678 150.053 226.542 150.053 215.291 143.569C204.04 137.085 203.973 126.536 215.157 120.052C226.341 113.568 244.477 113.568 255.728 120.052Z" fill="#35353F"/>
<path d="M264.191 126.569V130.534C264.191 134.767 261.403 138.966 255.828 142.225C244.644 148.709 226.508 148.709 215.257 142.225C209.581 138.966 206.76 134.666 206.793 130.399V126.435C206.793 130.702 209.614 135.002 215.29 138.261C226.542 144.745 244.711 144.745 255.862 138.261C261.403 135.035 264.191 130.802 264.191 126.569Z" fill="#35353F"/>
<path d="M264.191 126.569V130.534C264.191 134.767 261.403 138.966 255.828 142.225C244.644 148.709 226.508 148.709 215.257 142.225C209.581 138.966 206.76 134.666 206.793 130.399V126.435C206.793 130.702 209.614 135.002 215.29 138.261C226.542 144.745 244.711 144.745 255.862 138.261C261.403 135.035 264.191 130.802 264.191 126.569Z" fill="#35353F"/>
<mask id="mask4_2034_1691" style="mask-type:luminance" maskUnits="userSpaceOnUse" x="206" y="126" width="59" height="22">
<path d="M264.191 126.569V130.534C264.191 134.767 261.403 138.966 255.828 142.225C244.644 148.709 226.508 148.709 215.257 142.225C209.581 138.966 206.76 134.666 206.793 130.399V126.435C206.793 130.702 209.614 135.002 215.29 138.261C226.542 144.745 244.711 144.745 255.862 138.261C261.403 135.035 264.191 130.802 264.191 126.569Z" fill="white"/>
</mask>
<g mask="url(#mask4_2034_1691)">
<path d="M264.191 126.569V130.534C264.191 131.844 263.889 133.154 263.352 134.464V130.5C263.889 129.223 264.191 127.913 264.191 126.569Z" fill="#35353F"/>
<path d="M263.385 130.466V134.431C262.176 137.286 259.657 139.974 255.862 142.191C250.152 145.517 242.595 147.13 235.072 147.063V143.098C242.595 143.166 250.152 141.553 255.862 138.227C259.69 136.01 262.176 133.322 263.385 130.466Z" fill="#35353F"/>
<path d="M235.072 143.098V147.063C227.885 146.996 220.765 145.349 215.257 142.191C209.581 138.933 206.76 134.632 206.793 130.366V126.401C206.793 130.668 209.614 134.968 215.29 138.227C220.765 141.385 227.919 143.031 235.106 143.098H235.072Z" fill="#35353F"/>
</g>
<path d="M255.728 114.71C266.979 121.194 267.046 131.743 255.862 138.227C244.678 144.711 226.542 144.711 215.291 138.227C204.04 131.743 203.973 121.194 215.157 114.71C226.341 108.226 244.477 108.226 255.728 114.71Z" fill="#35353F"/>
<path d="M264.191 126.569V130.534C264.191 134.767 261.403 138.966 255.828 142.225C244.644 148.709 226.508 148.709 215.257 142.225C209.581 138.966 206.76 134.666 206.793 130.399V126.435C206.793 130.702 209.614 135.002 215.29 138.261C226.542 144.745 244.711 144.745 255.862 138.261C261.403 135.035 264.191 130.802 264.191 126.569Z" fill="#35353F"/>
<path d="M264.191 121.228V125.192C264.191 129.425 261.403 133.624 255.828 136.883C244.644 143.367 226.508 143.367 215.257 136.883C209.581 133.624 206.76 129.324 206.793 125.058V121.093C206.793 125.36 209.614 129.66 215.29 132.919C226.542 139.403 244.711 139.403 255.862 132.919C261.403 129.694 264.191 125.461 264.191 121.228Z" fill="#35353F"/>
<path d="M264.191 121.228V125.192C264.191 129.425 261.403 133.624 255.828 136.883C244.644 143.367 226.508 143.367 215.257 136.883C209.581 133.624 206.76 129.324 206.793 125.058V121.093C206.793 125.36 209.614 129.66 215.29 132.919C226.542 139.403 244.711 139.403 255.862 132.919C261.403 129.694 264.191 125.461 264.191 121.228Z" fill="#35353F"/>
<mask id="mask5_2034_1691" style="mask-type:luminance" maskUnits="userSpaceOnUse" x="206" y="121" width="59" height="21">
<path d="M264.191 121.228V125.192C264.191 129.425 261.403 133.624 255.828 136.883C244.644 143.367 226.508 143.367 215.257 136.883C209.581 133.624 206.76 129.324 206.793 125.058V121.093C206.793 125.36 209.614 129.66 215.29 132.919C226.542 139.403 244.711 139.403 255.862 132.919C261.403 129.694 264.191 125.461 264.191 121.228Z" fill="white"/>
</mask>
<g mask="url(#mask5_2034_1691)">
<path d="M264.191 121.228V125.192C264.191 126.502 263.889 127.812 263.352 129.123V125.158C263.889 123.882 264.191 122.571 264.191 121.228Z" fill="#35353F"/>
<path d="M263.385 125.125V129.089C262.176 131.945 259.657 134.632 255.862 136.85C250.152 140.176 242.595 141.788 235.072 141.721V137.757C242.595 137.824 250.152 136.211 255.862 132.885C259.69 130.668 262.176 127.98 263.385 125.125Z" fill="#35353F"/>
<path d="M235.072 137.757V141.721C227.885 141.654 220.765 140.008 215.257 136.85C209.581 133.591 206.76 129.291 206.793 125.024V121.06C206.793 125.326 209.614 129.627 215.29 132.885C220.765 136.043 227.919 137.69 235.106 137.757H235.072Z" fill="#35353F"/>
</g>
<path d="M255.728 109.368C266.979 115.852 267.046 126.401 255.862 132.885C244.678 139.369 226.542 139.369 215.291 132.885C204.04 126.401 203.973 115.852 215.157 109.368C226.341 102.884 244.477 102.884 255.728 109.368Z" fill="#35353F"/>
<path d="M264.191 121.228V125.192C264.191 129.425 261.403 133.624 255.828 136.883C244.644 143.367 226.508 143.367 215.257 136.883C209.581 133.624 206.76 129.324 206.793 125.058V121.093C206.793 125.36 209.614 129.66 215.29 132.919C226.542 139.403 244.711 139.403 255.862 132.919C261.403 129.694 264.191 125.461 264.191 121.228Z" fill="#35353F"/>
<path d="M264.191 115.886V119.85C264.191 124.083 261.403 128.283 255.828 131.542C244.644 138.026 226.508 138.026 215.257 131.542C209.581 128.283 206.76 123.983 206.793 119.716V115.752C206.793 120.018 209.614 124.318 215.29 127.577C226.542 134.061 244.711 134.061 255.862 127.577C261.403 124.352 264.191 120.119 264.191 115.886Z" fill="#35353F"/>
<path d="M264.191 115.886V119.85C264.191 124.083 261.403 128.283 255.828 131.542C244.644 138.026 226.508 138.026 215.257 131.542C209.581 128.283 206.76 123.983 206.793 119.716V115.752C206.793 120.018 209.614 124.318 215.29 127.577C226.542 134.061 244.711 134.061 255.862 127.577C261.403 124.352 264.191 120.119 264.191 115.886Z" fill="#35353F"/>
<mask id="mask6_2034_1691" style="mask-type:luminance" maskUnits="userSpaceOnUse" x="206" y="115" width="59" height="22">
<path d="M264.191 115.886V119.85C264.191 124.083 261.403 128.283 255.828 131.542C244.644 138.026 226.508 138.026 215.257 131.542C209.581 128.283 206.76 123.983 206.793 119.716V115.752C206.793 120.018 209.614 124.318 215.29 127.577C226.542 134.061 244.711 134.061 255.862 127.577C261.403 124.352 264.191 120.119 264.191 115.886Z" fill="white"/>
</mask>
<g mask="url(#mask6_2034_1691)">
<path d="M264.191 115.886V119.85C264.191 121.161 263.889 122.471 263.352 123.781V119.817C263.889 118.54 264.191 117.23 264.191 115.886Z" fill="#35353F"/>
<path d="M263.385 119.783V123.747C262.176 126.603 259.657 129.291 255.862 131.508C250.152 134.834 242.595 136.447 235.072 136.379V132.415C242.595 132.482 250.152 130.87 255.862 127.544C259.69 125.326 262.176 122.639 263.385 119.783Z" fill="#35353F"/>
<path d="M235.072 132.415V136.379C227.885 136.312 220.765 134.666 215.257 131.508C209.581 128.249 206.76 123.949 206.793 119.682V115.718C206.793 119.985 209.614 124.285 215.29 127.544C220.765 130.702 227.919 132.348 235.106 132.415H235.072Z" fill="#35353F"/>
</g>
<path d="M255.728 104.027C266.979 110.511 267.046 121.06 255.862 127.544C244.678 134.028 226.542 134.028 215.291 127.544C204.04 121.06 203.973 110.511 215.157 104.027C226.341 97.5427 244.477 97.5427 255.728 104.027Z" fill="#35353F"/>
<path d="M264.191 115.886V119.85C264.191 124.083 261.403 128.283 255.828 131.542C244.644 138.026 226.508 138.026 215.257 131.542C209.581 128.283 206.76 123.983 206.793 119.716V115.752C206.793 120.018 209.614 124.318 215.29 127.577C226.542 134.061 244.711 134.061 255.862 127.577C261.403 124.352 264.191 120.119 264.191 115.886Z" fill="#35353F"/>
<path d="M264.191 110.544V114.508C264.191 118.742 261.403 122.941 255.828 126.2C244.644 132.684 226.508 132.684 215.257 126.2C209.581 122.941 206.76 118.641 206.793 114.374V110.41C206.793 114.676 209.614 118.977 215.29 122.235C226.542 128.719 244.711 128.719 255.862 122.235C261.403 119.01 264.191 114.777 264.191 110.544Z" fill="#35353F"/>
<path d="M264.191 110.544V114.508C264.191 118.742 261.403 122.941 255.828 126.2C244.644 132.684 226.508 132.684 215.257 126.2C209.581 122.941 206.76 118.641 206.793 114.374V110.41C206.793 114.676 209.614 118.977 215.29 122.235C226.542 128.719 244.711 128.719 255.862 122.235C261.403 119.01 264.191 114.777 264.191 110.544Z" fill="#35353F"/>
<mask id="mask7_2034_1691" style="mask-type:luminance" maskUnits="userSpaceOnUse" x="206" y="110" width="59" height="22">
<path d="M264.191 110.544V114.508C264.191 118.742 261.403 122.941 255.828 126.2C244.644 132.684 226.508 132.684 215.257 126.2C209.581 122.941 206.76 118.641 206.793 114.374V110.41C206.793 114.676 209.614 118.977 215.29 122.235C226.542 128.719 244.711 128.719 255.862 122.235C261.403 119.01 264.191 114.777 264.191 110.544Z" fill="white"/>
</mask>
<g mask="url(#mask7_2034_1691)">
<path d="M264.191 110.544V114.508C264.191 115.819 263.889 117.129 263.352 118.439V114.475C263.889 113.198 264.191 111.888 264.191 110.544Z" fill="#35353F"/>
<path d="M263.385 114.441V118.406C262.176 121.261 259.657 123.949 255.862 126.166C250.152 129.492 242.595 131.105 235.072 131.038V127.073C242.595 127.14 250.152 125.528 255.862 122.202C259.69 119.985 262.176 117.297 263.385 114.441Z" fill="#35353F"/>
<path d="M235.072 127.073V131.038C227.885 130.97 220.765 129.324 215.257 126.166C209.581 122.907 206.76 118.607 206.793 114.341V110.376C206.793 114.643 209.614 118.943 215.29 122.202C220.765 125.36 227.919 127.006 235.106 127.073H235.072Z" fill="#35353F"/>
</g>
<path d="M255.728 98.6849C266.979 105.169 267.046 115.718 255.862 122.202C244.678 128.686 226.542 128.686 215.291 122.202C204.04 115.718 203.973 105.169 215.157 98.6849C226.341 92.2009 244.477 92.2009 255.728 98.6849Z" fill="#35353F"/>
<path d="M264.191 110.544V114.508C264.191 118.742 261.403 122.941 255.828 126.2C244.644 132.684 226.508 132.684 215.257 126.2C209.581 122.941 206.76 118.641 206.793 114.374V110.41C206.793 114.676 209.614 118.977 215.29 122.235C226.542 128.719 244.711 128.719 255.862 122.235C261.403 119.01 264.191 114.777 264.191 110.544Z" fill="#35353F"/>
<path d="M283.201 91.7979C282.831 92.9065 269.968 117.734 266.106 131.206C265.871 131.978 265.367 134.229 265.3 134.599C264.527 138.194 262.243 141.721 258.146 144.207C245.316 151.934 225.87 151.901 213.041 144.207C209.212 141.923 206.962 138.731 205.988 135.472C205.786 134.8 205.282 132.415 205.114 131.844C201.319 117.633 188.221 92.8393 187.852 91.8986C220.329 91.8986 250.724 91.865 283.201 91.8314V91.7979Z" fill="#FFDE38"/>
<path d="M289.951 65.4923C289.951 74.9327 287.567 83.802 283.335 91.529C281.824 94.3511 280.043 97.0051 278.062 99.4576C275.98 101.541 273.461 103.456 270.438 105.202C261.168 110.578 248.809 113.534 235.61 113.534C222.411 113.534 210.018 110.578 200.715 105.202C197.323 103.254 194.468 101.037 192.251 98.6849C190.605 96.5348 189.128 94.2503 187.818 91.8986C183.452 84.0708 181 75.0671 181 65.4923C181 35.4241 205.383 11 235.476 11C265.568 11 289.951 35.4241 289.951 65.4923Z" fill="#FFDE38"/>
<path d="M256.331 121.463C267.918 128.148 267.986 139 256.466 145.685C244.98 152.371 226.272 152.371 214.686 145.685C203.099 139 203.031 128.148 214.551 121.463C226.071 114.777 244.744 114.777 256.331 121.463Z" fill="#FFB700"/>
<g opacity="0.5">
<path d="M212.704 22.6577C224.325 18.7942 232.822 25.5133 231.713 37.675C230.571 49.8031 220.227 62.771 208.607 66.6345C196.986 70.4981 188.489 63.7789 189.597 51.6172C190.739 39.4556 201.083 26.5212 212.704 22.6577Z" fill="#FFD438"/>
</g>
<path d="M238.061 136.178C237.188 136.178 236.281 135.909 235.374 135.371L230.404 132.482C228.288 131.239 226.373 128.719 225.534 126.032L210.588 77.4523C210.387 76.814 210.756 76.1085 211.394 75.9405C212.033 75.739 212.738 76.1085 212.906 76.7468L227.851 125.326C228.489 127.443 230.001 129.459 231.613 130.399L236.583 133.288C237.289 133.692 237.994 133.86 238.464 133.725C238.767 133.624 239.002 133.423 239.17 133.053L254.115 101.708C254.417 101.104 255.123 100.835 255.727 101.137C256.332 101.44 256.6 102.145 256.298 102.75L241.353 134.095C240.882 135.069 240.11 135.741 239.17 136.043C238.8 136.144 238.431 136.211 238.028 136.211L238.061 136.178Z" fill="#F4F4FB"/>
<path d="M227.146 93.3767C225.366 93.3767 223.418 92.8056 221.436 91.6298C214.786 87.7999 209.379 78.4266 209.379 70.7332C209.379 66.7353 210.789 63.7453 213.342 62.2671C215.894 60.7889 219.219 61.0912 222.645 63.0734C229.295 66.9033 234.702 76.2765 234.702 83.9699C234.702 87.9678 233.292 90.9579 230.739 92.4361C229.665 93.0744 228.455 93.3767 227.146 93.3767ZM216.902 63.7789C216.029 63.7789 215.223 63.9805 214.517 64.3836C212.737 65.3915 211.763 67.676 211.763 70.7332C211.763 77.6203 216.633 86.0529 222.612 89.5132C225.265 91.0586 227.717 91.3274 229.497 90.3195C231.277 89.3117 232.251 87.0272 232.251 83.9699C232.251 77.0828 227.381 68.6503 221.403 65.1899C219.79 64.2492 218.245 63.7789 216.902 63.7789Z" fill="#F4F4FB"/>
<path d="M250.05 106.58C248.27 106.58 246.322 106.009 244.307 104.833C237.657 101.003 232.25 91.6298 232.25 83.9363C232.25 79.9384 233.661 76.9484 236.213 75.4702C238.766 73.992 242.091 74.2944 245.516 76.2765C252.166 80.1064 257.573 89.4797 257.573 97.1731C257.573 101.171 256.163 104.161 253.61 105.639C252.536 106.278 251.327 106.58 250.017 106.58H250.05ZM239.807 77.0156C238.934 77.0156 238.127 77.2172 237.422 77.6204C235.642 78.6282 234.668 80.9127 234.668 83.9699C234.668 90.8571 239.538 99.2896 245.516 102.75C248.169 104.295 250.621 104.564 252.401 103.556C254.181 102.548 255.155 100.264 255.155 97.2067C255.155 90.3196 250.285 81.887 244.307 78.4266C242.695 77.486 241.15 77.0156 239.807 77.0156Z" fill="#F4F4FB"/>
<path d="M238.599 99.9951C236.819 99.9951 234.871 99.424 232.889 98.2482C226.239 94.4183 220.832 85.045 220.832 77.3516C220.832 73.3537 222.243 70.3637 224.795 68.8855C227.348 67.4073 230.673 67.676 234.098 69.6918C240.748 73.5217 246.155 82.8949 246.155 90.5883C246.155 94.5862 244.745 97.5763 242.192 99.0545C241.118 99.6928 239.909 99.9951 238.599 99.9951ZM228.355 70.3973C227.482 70.3973 226.676 70.5989 225.971 71.002C224.191 72.0099 223.217 74.2944 223.217 77.3516C223.217 84.2387 228.086 92.6713 234.065 96.1317C236.718 97.6771 239.17 97.9458 240.95 96.9379C242.73 95.9301 243.704 93.6455 243.704 90.5883C243.704 83.7012 238.834 75.2687 232.856 71.8083C231.244 70.8676 229.699 70.3973 228.355 70.3973Z" fill="#F4F4FB"/>
<g style="mix-blend-mode:multiply" opacity="0.2">
<path d="M289.952 65.4923C289.952 38.4142 270.203 15.9722 244.309 11.7391C265.166 23.8336 278.499 49.9711 273.125 73.253C268.659 94.7878 260.497 117.835 241.186 128.216C227.785 134.767 215.358 132.885 203.604 127.141C204.174 128.787 204.678 130.366 205.048 131.844C205.182 132.415 205.719 134.8 205.921 135.472C206.895 138.765 209.145 141.923 212.974 144.207C225.837 151.901 245.249 151.934 258.079 144.207C262.21 141.721 264.494 138.194 265.233 134.599C265.3 134.229 265.837 132.012 266.039 131.206C269.901 117.734 282.731 92.9065 283.134 91.7978C283.134 91.7978 283.235 91.6298 283.302 91.529C287.534 83.802 289.918 74.9327 289.918 65.4923H289.952Z" fill="#FFC400"/>
</g>
</g>
<path d="M52.6291 212.286L52.5619 239.7L26.3652 254.986L26.4324 227.572L52.6291 212.286Z" fill="#E7E6F1"/>
<path d="M26.4317 227.572L26.3646 254.986L0 239.7L0.0671724 212.286L26.4317 227.572Z" fill="#CFCDE2"/>
<path d="M52.6276 212.286L26.431 227.572L0.0664062 212.286L26.2631 197L52.6276 212.286Z" fill="#F4F4FB"/>
<path d="M64.8863 246.184L64.8191 266.174L45.709 277.361L45.7762 257.338L64.8863 246.184Z" fill="#5430AF"/>
<path d="M45.7765 257.338L45.7093 277.361L26.4648 266.174L26.532 246.184L45.7765 257.338Z" fill="#472E88"/>
<path d="M64.8858 246.184L45.7757 257.338L26.5312 246.184L45.6414 235.03L64.8858 246.184Z" fill="#412488"/>
<path d="M81.5444 211.984L81.5108 228.95L65.2891 238.457L65.3226 221.458L81.5444 211.984Z" fill="#2E354A"/>
<path d="M65.3233 221.458L65.2897 238.457L48.9336 228.95L48.9672 211.984L65.3233 221.458Z" fill="#1F2846"/>
<path d="M81.5447 211.984L65.3229 221.458L48.9668 211.984L65.2222 202.51L81.5447 211.984Z" fill="#293355"/>
<defs>
<linearGradient id="paint0_linear_2034_1691" x1="221.016" y1="192.413" x2="244.112" y2="232.401" gradientUnits="userSpaceOnUse">
<stop stop-color="#AC44EE"/>
<stop offset="0.31" stop-color="#8334C4"/>
<stop offset="0.59" stop-color="#6528A5"/>
<stop offset="0.83" stop-color="#522192"/>
<stop offset="1" stop-color="#4C1F8C"/>
</linearGradient>
<clipPath id="clip0_2034_1691">
<rect width="357" height="340" fill="white" transform="translate(47)"/>
</clipPath>
</defs>
</svg>
