<svg width="107" height="127" viewBox="0 0 107 127" fill="none" xmlns="http://www.w3.org/2000/svg">
<g filter="url(#filter0_f_1915_315)">
<path d="M24.5946 28.3457C19.9536 28.3457 16.2018 24.597 16.2018 19.9374C16.2018 15.2965 19.9536 11.5478 24.5946 11.5478C29.2511 11.5478 33.0029 15.2965 33.0029 19.9374C33.0029 24.597 29.2511 28.3457 24.5946 28.3457ZM24.5946 7.94775C17.8531 7.94775 12.4531 13.3478 12.4531 20.0861C12.4531 26.8431 17.8531 32.2431 24.5946 32.2431C31.3485 32.2431 36.7516 26.8431 36.7516 20.0861C36.7516 13.3478 31.3485 7.94775 24.5946 7.94775Z" fill="white"/>
<path d="M90.2977 90.3017C86.0595 90.3017 82.5618 87.1633 81.9979 83.0707C82.0258 82.9809 82.0413 82.891 82.0568 82.8043C82.0568 82.5781 82.0103 82.355 81.9236 82.1475C81.9081 82.0576 81.9081 81.9833 81.9081 81.8965C81.9081 77.2525 85.6568 73.5038 90.2977 73.5038C94.9573 73.5038 98.706 77.2525 98.706 81.8965C98.706 86.553 94.9573 90.3017 90.2977 90.3017ZM28.8034 118.157C23.8186 109.897 7.28709 81.9399 7.28709 68.8163C7.42341 57.0032 16.9904 47.4208 28.6702 47.4208C32.1215 47.4208 35.4241 48.2232 38.4014 49.7568C39.5601 50.3516 40.6785 51.0673 41.7194 51.9007C41.9425 52.226 42.2554 52.4955 42.6272 52.6442C42.6861 52.7031 42.7294 52.7465 42.7914 52.8053C43.1755 53.1337 43.5504 53.49 43.9067 53.8618C47.8351 57.9265 49.9325 63.1778 49.9325 68.8163C49.886 71.9268 48.8017 76.1526 47.104 80.8525C46.6423 82.1196 46.1528 83.427 45.6169 84.753C40.4554 97.5791 32.0781 112.503 28.8034 118.157ZM90.2977 69.7551C83.9156 69.7551 78.7232 74.6036 78.2027 80.8525H50.5274C52.1632 76.1805 53.1917 71.9268 53.2196 68.6831C53.2196 62.775 51.1965 57.1953 47.4323 52.7929H75.2998C79.9594 52.7929 84.4516 50.9898 87.9029 47.3898C91.3542 44.1027 93.1573 39.595 93.1573 34.8022C93.1573 24.8945 85.0465 16.9478 75.2998 16.9478H47.8847L58.7993 7.3437C59.549 6.59396 59.7008 5.395 58.9511 4.64216C58.2014 3.89241 56.9993 3.7437 56.2496 4.49345L41.7752 17.2298C41.5367 17.3413 41.3043 17.49 41.0967 17.6945C40.7404 18.1251 40.5917 18.5898 40.6134 19.036C40.6103 19.0514 40.6134 19.0607 40.6103 19.0731C40.6134 19.0855 40.6103 19.0979 40.6134 19.1103C40.5917 19.575 40.7404 20.0366 41.0967 20.396C41.2671 20.647 41.5305 20.7988 41.8093 20.8886L56.2496 33.5971C56.5501 33.8976 56.9993 34.0463 57.4485 34.0463C57.9008 34.0463 58.4988 33.8976 58.9511 33.4452C59.7008 32.5468 59.549 31.4965 58.7993 30.7468L47.5501 20.8453H75.1511C82.949 20.8453 89.2568 27.1406 89.2568 34.9509C89.2568 38.6996 87.9029 42.154 85.1952 44.8463C82.6516 47.3898 79.0516 48.8924 75.2998 48.8924H43.2964C39.0551 45.7385 33.968 44.0129 28.5525 44.0129C21.9876 44.0129 15.8131 46.6308 11.2155 51.2284C6.63339 55.9623 4 62.1213 4 68.6831C4 85.0938 26.5728 120.654 27.496 122.098C27.8957 122.618 28.4162 122.888 28.9367 122.888C29.4571 122.888 29.9931 122.618 30.2472 121.964C30.9163 120.818 42.6551 101.195 49.0836 84.753H78.5002C79.7642 90.1096 84.5415 94.0504 90.2977 94.0504C97.0547 94.0504 102.455 88.6504 102.455 81.8965C102.455 75.1551 97.0547 69.7551 90.2977 69.7551Z" fill="white"/>
<path d="M36.7506 79.1416C35.5733 80.0648 34.2349 80.7929 32.7757 81.27C31.4838 81.7006 30.099 81.9392 28.6707 81.9392C21.4552 81.9392 15.5472 76.0311 15.5472 68.8156C15.5472 61.6001 21.4552 55.692 28.6707 55.692C28.9248 55.692 29.1757 55.692 29.4298 55.723C30.9169 55.7973 32.3296 56.1381 33.6401 56.6741C38.4174 58.6383 41.7943 63.3536 41.7943 68.8156C41.7943 72.998 39.8146 76.7313 36.7506 79.1416ZM36.6298 54.4868C35.3224 53.7433 33.8941 53.1918 32.3761 52.851C31.1864 52.5691 29.9503 52.4204 28.6707 52.4204C19.6243 52.4204 12.2725 59.7536 12.2725 68.8156C12.2725 77.8776 19.6243 85.2139 28.6707 85.2139C31.4373 85.2139 34.0552 84.5292 36.3478 83.3085C37.7761 82.5495 39.0866 81.5984 40.2174 80.4676C43.2225 77.5058 45.0814 73.3853 45.0814 68.8156C45.0814 62.6411 41.6766 57.2689 36.6298 54.4868Z" fill="white"/>
<path d="M36.9404 68.8154H30.3786V60.5435C30.3786 59.6357 29.5917 58.8457 28.6685 58.8457C27.7607 58.8457 26.9707 59.6357 26.9707 60.5435V70.3923C26.9707 71.3156 27.7607 72.0901 28.6685 72.0901H36.9404C37.7304 72.0901 38.5173 71.3156 38.6537 70.5256C38.6537 69.6054 37.8636 68.8154 36.9404 68.8154Z" fill="white"/>
</g>
<path d="M24.5946 28.3457C19.9536 28.3457 16.2018 24.597 16.2018 19.9374C16.2018 15.2965 19.9536 11.5478 24.5946 11.5478C29.2511 11.5478 33.0029 15.2965 33.0029 19.9374C33.0029 24.597 29.2511 28.3457 24.5946 28.3457ZM24.5946 7.94775C17.8531 7.94775 12.4531 13.3478 12.4531 20.0861C12.4531 26.8431 17.8531 32.2431 24.5946 32.2431C31.3485 32.2431 36.7516 26.8431 36.7516 20.0861C36.7516 13.3478 31.3485 7.94775 24.5946 7.94775Z" fill="white"/>
<path d="M90.2977 90.3017C86.0595 90.3017 82.5618 87.1633 81.9979 83.0707C82.0258 82.9809 82.0413 82.891 82.0568 82.8043C82.0568 82.5781 82.0103 82.355 81.9236 82.1475C81.9081 82.0576 81.9081 81.9833 81.9081 81.8965C81.9081 77.2525 85.6568 73.5038 90.2977 73.5038C94.9573 73.5038 98.706 77.2525 98.706 81.8965C98.706 86.553 94.9573 90.3017 90.2977 90.3017ZM28.8034 118.157C23.8186 109.897 7.28709 81.9399 7.28709 68.8163C7.42341 57.0032 16.9904 47.4208 28.6702 47.4208C32.1215 47.4208 35.4241 48.2232 38.4014 49.7568C39.5601 50.3516 40.6785 51.0673 41.7194 51.9007C41.9425 52.226 42.2554 52.4955 42.6272 52.6442C42.6861 52.7031 42.7294 52.7465 42.7914 52.8053C43.1755 53.1337 43.5504 53.49 43.9067 53.8618C47.8351 57.9265 49.9325 63.1778 49.9325 68.8163C49.886 71.9268 48.8017 76.1526 47.104 80.8525C46.6423 82.1196 46.1528 83.427 45.6169 84.753C40.4554 97.5791 32.0781 112.503 28.8034 118.157ZM90.2977 69.7551C83.9156 69.7551 78.7232 74.6036 78.2027 80.8525H50.5274C52.1632 76.1805 53.1917 71.9268 53.2196 68.6831C53.2196 62.775 51.1965 57.1953 47.4323 52.7929H75.2998C79.9594 52.7929 84.4516 50.9898 87.9029 47.3898C91.3542 44.1027 93.1573 39.595 93.1573 34.8022C93.1573 24.8945 85.0465 16.9478 75.2998 16.9478H47.8847L58.7993 7.3437C59.549 6.59396 59.7008 5.395 58.9511 4.64216C58.2014 3.89241 56.9993 3.7437 56.2496 4.49345L41.7752 17.2298C41.5367 17.3413 41.3043 17.49 41.0967 17.6945C40.7404 18.1251 40.5917 18.5898 40.6134 19.036C40.6103 19.0514 40.6134 19.0607 40.6103 19.0731C40.6134 19.0855 40.6103 19.0979 40.6134 19.1103C40.5917 19.575 40.7404 20.0366 41.0967 20.396C41.2671 20.647 41.5305 20.7988 41.8093 20.8886L56.2496 33.5971C56.5501 33.8976 56.9993 34.0463 57.4485 34.0463C57.9008 34.0463 58.4988 33.8976 58.9511 33.4452C59.7008 32.5468 59.549 31.4965 58.7993 30.7468L47.5501 20.8453H75.1511C82.949 20.8453 89.2568 27.1406 89.2568 34.9509C89.2568 38.6996 87.9029 42.154 85.1952 44.8463C82.6516 47.3898 79.0516 48.8924 75.2998 48.8924H43.2964C39.0551 45.7385 33.968 44.0129 28.5525 44.0129C21.9876 44.0129 15.8131 46.6308 11.2155 51.2284C6.63339 55.9623 4 62.1213 4 68.6831C4 85.0938 26.5728 120.654 27.496 122.098C27.8957 122.618 28.4162 122.888 28.9367 122.888C29.4571 122.888 29.9931 122.618 30.2472 121.964C30.9163 120.818 42.6551 101.195 49.0836 84.753H78.5002C79.7642 90.1096 84.5415 94.0504 90.2977 94.0504C97.0547 94.0504 102.455 88.6504 102.455 81.8965C102.455 75.1551 97.0547 69.7551 90.2977 69.7551Z" fill="white"/>
<path d="M36.7506 79.1416C35.5733 80.0648 34.2349 80.7929 32.7757 81.27C31.4838 81.7006 30.099 81.9392 28.6707 81.9392C21.4552 81.9392 15.5472 76.0311 15.5472 68.8156C15.5472 61.6001 21.4552 55.692 28.6707 55.692C28.9248 55.692 29.1757 55.692 29.4298 55.723C30.9169 55.7973 32.3296 56.1381 33.6401 56.6741C38.4174 58.6383 41.7943 63.3536 41.7943 68.8156C41.7943 72.998 39.8146 76.7313 36.7506 79.1416ZM36.6298 54.4868C35.3224 53.7433 33.8941 53.1918 32.3761 52.851C31.1864 52.5691 29.9503 52.4204 28.6707 52.4204C19.6243 52.4204 12.2725 59.7536 12.2725 68.8156C12.2725 77.8776 19.6243 85.2139 28.6707 85.2139C31.4373 85.2139 34.0552 84.5292 36.3478 83.3085C37.7761 82.5495 39.0866 81.5984 40.2174 80.4676C43.2225 77.5058 45.0814 73.3853 45.0814 68.8156C45.0814 62.6411 41.6766 57.2689 36.6298 54.4868Z" fill="white"/>
<path d="M36.9404 68.8154H30.3786V60.5435C30.3786 59.6357 29.5917 58.8457 28.6685 58.8457C27.7607 58.8457 26.9707 59.6357 26.9707 60.5435V70.3923C26.9707 71.3156 27.7607 72.0901 28.6685 72.0901H36.9404C37.7304 72.0901 38.5173 71.3156 38.6537 70.5256C38.6537 69.6054 37.8636 68.8154 36.9404 68.8154Z" fill="white"/>
<defs>
<filter id="filter0_f_1915_315" x="0" y="0" width="106.455" height="126.888" filterUnits="userSpaceOnUse" color-interpolation-filters="sRGB">
<feFlood flood-opacity="0" result="BackgroundImageFix"/>
<feBlend mode="normal" in="SourceGraphic" in2="BackgroundImageFix" result="shape"/>
<feGaussianBlur stdDeviation="2" result="effect1_foregroundBlur_1915_315"/>
</filter>
</defs>
</svg>
