<svg width="127" height="127" viewBox="0 0 127 127" fill="none" xmlns="http://www.w3.org/2000/svg">
<g filter="url(#filter0_f_1915_383)">
<path d="M82.7219 19.6183H91.1057C88.3459 16.8621 85.5033 14.0195 82.7219 11.2417V19.6183ZM7.9379 110.276C7.9379 111.746 7.86944 113.09 7.95231 114.427C8.09282 116.675 9.85821 118.084 12.427 118.084C46.1495 118.087 79.8721 118.087 113.595 118.087C113.825 118.087 114.056 118.091 114.286 118.077C116.156 117.961 117.745 116.707 117.972 114.863C118.156 113.368 118.008 111.829 118.008 110.294H78.8164C78.2544 112.838 76.9394 114.135 74.7524 114.146C66.9163 114.175 59.0801 114.171 51.244 114.146C49.1759 114.139 47.7312 112.827 47.3205 110.777C47.2844 110.604 47.2232 110.438 47.1728 110.276H7.9379ZM13.9114 106.295H15.4102C25.8944 106.295 36.3823 106.292 46.8665 106.299C49.2732 106.302 50.5666 107.322 51.1611 109.631C51.2079 109.812 51.262 109.992 51.3124 110.172H74.6876C75.5523 107.045 76.5503 106.295 79.7856 106.295H112.074V102.365H110.626C101.637 102.365 92.6477 102.365 83.6622 102.357C83.129 102.357 82.5706 102.354 82.0698 102.199C81.1006 101.907 80.6503 101.172 80.7512 100.17C80.8448 99.2193 81.4069 98.6248 82.3544 98.4807C82.8084 98.4086 83.2731 98.4267 83.7343 98.4267H112.157V96.9135V38.3746C112.157 37.9135 112.157 37.4523 112.128 36.9911C111.977 34.4908 110.161 32.0192 107.697 31.7778C104.67 31.4824 101.594 31.7058 98.4231 31.7058V33.0496C98.4231 41.383 98.4267 49.72 98.4194 58.0569C98.4194 58.5505 98.4194 59.0621 98.3078 59.5413C98.07 60.5285 97.3746 61.0292 96.3694 60.9932C95.3643 60.9608 94.7193 60.4096 94.55 59.4044C94.4671 58.918 94.4852 58.41 94.4852 57.9128C94.4816 47.0034 94.4816 36.094 94.4816 25.1847V23.6499C90.5725 23.6499 86.8508 23.6571 83.129 23.6462C80.2648 23.6354 78.73 22.0934 78.7228 19.2184C78.712 15.8749 78.7228 12.5351 78.7192 9.19168C78.7156 8.78817 78.6831 8.38465 78.6615 7.92709H34.6385C32.012 7.92709 31.5292 8.39906 31.5292 10.9931C31.5256 26.6258 31.5292 42.2585 31.5256 57.8912C31.5256 58.428 31.5437 58.9756 31.4392 59.498C31.2518 60.442 30.6105 60.9572 29.6558 60.9968C28.7082 61.0365 28.0057 60.5933 27.7391 59.671C27.595 59.1666 27.5914 58.6081 27.5914 58.0749C27.5841 49.7019 27.5841 41.329 27.5841 32.956V31.5292C25.0225 31.5292 22.6483 31.5148 20.274 31.5329C16.2208 31.5581 13.8537 33.9359 13.8537 38.0071C13.8501 57.711 13.8501 77.4149 13.8537 97.1224C13.8537 97.5259 13.8934 97.9295 13.9222 98.4267H73.5959C74.0931 98.4267 74.5975 98.4086 75.0911 98.4735C76.1143 98.6068 76.68 99.2805 76.7484 100.25C76.8133 101.226 76.3269 101.975 75.3361 102.224C74.8245 102.354 74.2733 102.357 73.74 102.357C54.3028 102.365 34.8691 102.365 15.4318 102.365H13.9114V106.295ZM32.3471 4H81.2123C81.7491 4.42874 82.3256 4.81424 82.8084 5.29342C87.6254 10.0888 92.4171 14.9166 97.2521 19.6975C98.0808 20.519 98.4699 21.4017 98.4375 22.5546C98.387 24.1939 98.4231 25.8332 98.4231 27.5877H105.69C107.603 27.5841 109.444 27.8904 111.109 28.892C114.585 30.978 116.113 34.0945 116.109 38.1188C116.081 60.3231 116.095 82.5274 116.095 104.732V106.306C117.522 106.306 118.779 106.274 120.036 106.313C121.143 106.346 121.95 107.009 121.971 108.053C122.022 110.431 122.166 112.838 121.896 115.187C121.427 119.262 118.098 122.007 113.919 122.007C79.9621 122.014 46.0018 122.011 12.0415 122.011C11.9262 122.011 11.8109 122.011 11.6957 122.007C8.35222 121.914 5.48076 119.784 4.40712 116.603C4.28823 116.25 4.1333 115.908 4 115.558V107.491C4.71336 106.501 5.68252 106.184 6.88227 106.281C7.85503 106.36 8.8386 106.295 9.91585 106.295V104.631V38.6088C9.91585 37.9927 9.92306 37.3802 9.95548 36.7642C10.2113 32.1057 13.9042 28.1318 18.5663 27.7283C21.081 27.5121 23.6282 27.6238 26.161 27.5877C26.6042 27.5805 27.0473 27.5877 27.5841 27.5877V26.0457C27.5841 20.8216 27.5914 15.6011 27.5841 10.377C27.5805 7.819 28.5713 5.83744 30.8915 4.62689C31.3599 4.3855 31.8607 4.20896 32.3471 4Z" fill="white"/>
<path d="M39.479 49.1519H57.0032V39.5071H39.479V49.1519ZM48.1366 53.1546C44.7571 53.1546 41.3777 53.1582 37.9982 53.151C36.1212 53.1474 35.4835 52.5313 35.4799 50.6867C35.4654 46.4245 35.4618 42.1624 35.4799 37.9002C35.4871 36.1384 36.1536 35.4863 37.9442 35.4827C44.8148 35.4719 51.689 35.4719 58.5596 35.4827C60.3502 35.4863 61.0167 36.1384 61.0239 37.9002C61.0383 42.202 61.042 46.5002 61.0203 50.802C61.0131 52.5025 60.3394 53.1438 58.6172 53.151C55.1225 53.1618 51.6277 53.1546 48.1366 53.1546ZM69.0006 49.1411H86.4888V39.4855H69.0006V49.1411ZM77.7699 53.1546C74.3508 53.1546 70.9353 53.1582 67.5162 53.151C65.5959 53.1474 64.9871 52.5349 64.9799 50.5858C64.969 46.3993 64.969 42.2128 64.9799 38.0299C64.9871 36.1096 65.6139 35.4827 67.5451 35.4827C74.3436 35.4719 81.1386 35.4755 87.9335 35.4827C89.9223 35.4827 90.5239 36.0952 90.5275 38.1164C90.5383 42.2632 90.5383 46.4101 90.5275 50.557C90.5239 52.5601 89.9259 53.1474 87.9047 53.151C84.5252 53.1582 81.1458 53.1546 77.7699 53.1546ZM100.352 80.6659C100.331 79.5886 99.3941 78.6951 98.3349 78.7419C97.3153 78.7852 96.4506 79.6751 96.4434 80.6911C96.4326 81.7755 97.3153 82.6474 98.4177 82.6402C99.531 82.633 100.374 81.7755 100.352 80.6659ZM96.4326 75.0995C96.4326 74.2168 96.501 73.2909 96.4002 72.3829C96.3569 72.0082 96.0291 71.5759 95.712 71.3309C93.7413 69.8033 91.7489 68.3045 89.7349 66.8346C88.9171 66.2365 88.5388 65.5159 88.5676 64.4927C88.6144 62.8462 88.5748 61.1925 88.582 59.546C88.5892 58.0112 89.3458 57.0961 90.5672 57.1141C91.7849 57.1321 92.4983 58.0401 92.5055 59.6001C92.5091 60.789 92.4479 61.9852 92.5379 63.1669C92.5704 63.6172 92.8442 64.1829 93.1936 64.4603C95.15 66.0059 97.1423 67.5047 99.1635 68.9674C100.021 69.5871 100.461 70.3401 100.363 71.3994C100.338 71.7056 100.385 72.0154 100.356 72.3217C100.198 73.961 100.457 75.1247 102.093 76.2596C105.468 78.6014 104.921 83.8039 101.293 85.7855C100.507 86.2178 100.316 86.6718 100.345 87.4824C100.399 89.0893 100.378 90.7033 100.352 92.3138C100.334 93.6144 99.5815 94.4323 98.443 94.4539C97.2757 94.4755 96.4578 93.618 96.4398 92.2778C96.4146 90.552 96.465 88.8227 96.4074 87.0969C96.393 86.7294 96.1516 86.2034 95.8525 86.0377C93.6872 84.8199 92.4551 83.0401 92.5307 80.5398C92.5992 78.0934 93.8746 76.3677 96.0687 75.312C96.1732 75.2616 96.2669 75.1968 96.4326 75.0995ZM29.5892 82.6402C30.7025 82.6294 31.5275 81.7683 31.4987 80.6514C31.4735 79.6066 30.6268 78.76 29.5964 78.7419C28.5336 78.7239 27.6149 79.6318 27.6113 80.7019C27.6077 81.7863 28.4868 82.651 29.5892 82.6402ZM39.4141 62.0752C40.1815 65.0548 38.7116 66.8706 36.3121 68.3117C35.0691 69.0611 34.0027 70.1023 32.7813 70.895C31.8014 71.5255 31.4519 72.2857 31.4879 73.4494C31.5203 74.5122 31.6717 75.1823 32.7273 75.8128C36.5139 78.0754 36.3229 83.6598 32.4355 85.7999C31.7005 86.2034 31.4879 86.6285 31.5095 87.4031C31.56 89.0136 31.5456 90.6277 31.5167 92.2418C31.4879 93.6397 30.7277 94.4611 29.5532 94.4503C28.3895 94.4431 27.6221 93.6036 27.5932 92.2165C27.5608 90.5268 27.5644 88.8371 27.5932 87.1473C27.6077 86.5421 27.4311 86.1998 26.8619 85.8972C24.7902 84.7983 23.659 83.0185 23.677 80.6767C23.695 78.3456 24.8407 76.6127 26.8871 75.4417C27.2222 75.2508 27.3663 74.714 27.5752 74.3249C27.6257 74.2384 27.5824 74.0979 27.5824 73.9826C27.6293 69.0972 27.0961 70.3653 30.9079 67.4182C32.122 66.4779 33.3326 65.5303 34.6008 64.6657C35.2925 64.1973 35.5303 63.6533 35.4907 62.8426C35.4294 61.6969 35.4546 60.5404 35.4799 59.3875C35.5123 57.9896 36.2473 57.1393 37.3966 57.1177C38.5891 57.0961 39.3709 57.9752 39.4105 59.4271C39.4358 60.3098 39.4141 61.1925 39.4141 62.0752ZM86.568 74.7752C86.55 73.6583 85.6961 72.8441 84.5721 72.8765C83.5308 72.9053 82.6878 73.7556 82.677 74.7896C82.6626 75.8453 83.5849 76.7784 84.6405 76.7748C85.7178 76.7712 86.5824 75.8741 86.568 74.7752ZM82.6517 86.6285C82.6517 84.8632 82.6373 83.0978 82.6626 81.3324C82.6698 80.7127 82.5581 80.3236 81.9132 79.9849C79.8415 78.8969 78.7283 77.099 78.7499 74.7608C78.7679 72.4766 79.874 70.7436 81.8843 69.6196C82.8355 69.0899 82.9832 68.1244 82.1978 67.3065C81.3511 66.4166 80.4396 65.588 79.6218 64.6765C79.2507 64.2621 78.8291 63.7289 78.7931 63.2245C78.6814 61.7726 78.6814 60.3062 78.7751 58.8543C78.8436 57.7951 79.7371 57.1033 80.735 57.1177C81.7799 57.1393 82.5473 57.9068 82.6409 59.0344C82.6445 59.0741 82.6517 59.1137 82.6445 59.1497C82.1257 61.5744 83.3039 63.2462 85.1017 64.6224C86.3122 65.5484 86.8022 66.7481 86.5896 68.2433C86.4888 68.9422 86.7662 69.3169 87.4147 69.6628C89.4431 70.7436 90.5095 72.4946 90.5095 74.804C90.5095 77.1135 89.4287 78.8608 87.4183 79.9561C86.7806 80.3056 86.568 80.6622 86.5752 81.3648C86.6077 84.9748 86.6005 88.5849 86.5824 92.1913C86.5752 93.6397 85.7718 94.5007 84.5612 94.4539C83.4516 94.4143 82.6878 93.5856 82.6626 92.2742C82.6265 90.3935 82.6553 88.5092 82.6517 86.6285Z" fill="white"/>
<path d="M45.2738 74.8637C45.3026 73.7468 44.474 72.8894 43.3607 72.875C42.2546 72.8605 41.3647 73.7288 41.3683 74.8097C41.3719 75.8257 42.2294 76.7228 43.249 76.7732C44.3082 76.8273 45.245 75.941 45.2738 74.8637ZM41.3575 80.4229C38.1366 78.6287 36.8936 76.2688 37.6286 73.383C38.0573 71.6932 39.0445 70.4106 40.6009 69.6288C41.1522 69.3514 41.4728 69.0524 41.3575 68.411C41.0549 66.7105 41.7574 65.4243 43.0725 64.4227C44.7622 63.1293 45.6485 61.5585 45.3531 59.3139C45.2738 58.705 45.8791 57.7827 46.4411 57.3864C46.859 57.091 47.7129 57.3828 48.365 57.4801C48.5488 57.5089 48.7253 57.7611 48.855 57.9448C49.6512 59.0329 49.2801 63.7526 48.3254 64.7217C47.5184 65.5432 46.6933 66.3466 45.8863 67.1645C44.8991 68.1661 45.018 68.9947 46.1925 69.6792C48.1344 70.8105 49.1901 72.4967 49.2045 74.7628C49.2189 77.0795 48.1561 78.8304 46.1529 79.9293C45.472 80.3004 45.2594 80.6787 45.2702 81.4173C45.3062 84.9481 45.2882 88.4788 45.281 92.0096C45.281 93.5804 44.5712 94.4559 43.3283 94.4559C42.0961 94.4523 41.3611 93.5552 41.3575 92.0024C41.3503 88.1294 41.3575 84.2563 41.3575 80.4229ZM57.0659 88.5437C57.0515 87.4448 56.158 86.5801 55.0771 86.6198C54.0431 86.6522 53.1928 87.5169 53.1748 88.5437C53.1568 89.6209 54.0395 90.5072 55.1311 90.5072C56.248 90.5072 57.0803 89.6606 57.0659 88.5437ZM57.0875 71.8301C57.0875 75.2456 57.1019 78.6611 57.0767 82.0766C57.0695 82.7323 57.2604 83.0782 57.8657 83.3988C60.3264 84.6959 61.5082 87.3728 60.8705 90.0064C60.24 92.6005 57.8405 94.492 55.1564 94.5064C52.5263 94.5208 50.1052 92.6761 49.4423 90.1541C48.7325 87.4628 49.8566 84.7751 52.3678 83.4277C53.0415 83.0674 53.164 82.6567 53.164 81.9865C53.1424 75.4222 53.1496 68.8614 53.1496 62.297C53.1496 61.9908 53.1424 61.6846 53.1532 61.3783C53.2036 59.9372 53.9782 59.0617 55.178 59.0905C56.3525 59.1157 57.0731 59.9372 57.0803 61.3531C57.0983 64.8442 57.0875 68.339 57.0875 71.8301ZM74.7774 88.5617C74.7702 87.4664 73.8767 86.5909 72.7958 86.6162C71.7222 86.6414 70.8323 87.5817 70.8719 88.641C70.9116 89.6786 71.7726 90.5036 72.8175 90.5108C73.9307 90.518 74.781 89.6678 74.7774 88.5617ZM74.7882 71.6896C74.7882 75.1447 74.8026 78.6035 74.7774 82.0586C74.7738 82.6963 74.9215 83.0602 75.5448 83.388C78.0308 84.6959 79.2233 87.3908 78.564 89.9812C77.8866 92.6401 75.5484 94.4739 72.8463 94.4667C70.1694 94.4595 67.8203 92.6545 67.1646 90.0929C66.4693 87.3836 67.597 84.7319 70.1406 83.3916C70.7891 83.0494 70.8683 82.6494 70.8683 82.037C70.8539 75.3933 70.8575 68.7497 70.8611 62.1061C70.8611 61.7602 70.8431 61.4107 70.8683 61.0685C70.9584 59.8831 71.7654 59.0797 72.8463 59.0869C73.9451 59.0905 74.7522 59.8867 74.7738 61.0901C74.8098 63.0464 74.7882 65.0064 74.7882 66.9663V71.6896ZM43.3175 17.7912C41.1089 17.7985 39.4084 19.5314 39.43 21.7508C39.4516 23.8944 41.1666 25.6202 43.2994 25.6454C45.4359 25.667 47.2698 23.8584 47.2806 21.7147C47.2914 19.553 45.5044 17.784 43.3175 17.7912ZM35.4921 21.5454C35.5894 17.1319 39.1418 13.7597 43.5805 13.8678C47.8462 13.9686 51.2797 17.539 51.2113 21.8012C51.1464 26.157 47.504 29.6662 43.1517 29.5689C38.8355 29.4716 35.3984 25.8688 35.4921 21.5454ZM61.029 31.5288C59.1879 31.5288 57.3505 31.5433 55.513 31.5216C54.0503 31.5036 53.1676 30.7362 53.1748 29.5581C53.182 28.38 54.0719 27.6018 55.5275 27.5946C59.206 27.5765 62.8808 27.5729 66.5593 27.5946C68.0185 27.6018 68.894 28.3836 68.8904 29.5725C68.8868 30.7578 68.0185 31.5036 66.5449 31.5216C64.7075 31.5433 62.8664 31.5288 61.029 31.5288ZM69.8343 23.6386C68.876 23.6386 67.914 23.6711 66.9556 23.6314C65.7883 23.5846 65.0497 22.8532 65.0065 21.7832C64.9633 20.6735 65.7019 19.7872 66.898 19.7476C68.8904 19.6791 70.8863 19.6791 72.8787 19.744C74.0712 19.7872 74.817 20.6807 74.7738 21.7832C74.7342 22.8496 73.9956 23.581 72.8283 23.6314C71.8303 23.6711 70.8323 23.6386 69.8343 23.6386ZM77.6921 31.5144C76.7337 31.5144 75.7754 31.5541 74.817 31.5036C73.6389 31.4424 72.9111 30.7074 72.8751 29.6482C72.8355 28.5205 73.5524 27.6666 74.7702 27.6234C76.7626 27.5549 78.7585 27.5549 80.7509 27.6234C81.965 27.6702 82.6784 28.5313 82.6352 29.6554C82.5955 30.7218 81.8714 31.4424 80.6824 31.5036C79.6881 31.5541 78.6901 31.5144 77.6921 31.5144ZM57.1271 23.635C56.439 23.635 55.7436 23.6711 55.0591 23.6242C53.989 23.5558 53.2433 22.8064 53.1784 21.8084C53.1136 20.8284 53.7909 19.8665 54.8357 19.7908C56.3597 19.6863 57.9017 19.6827 59.4221 19.8088C60.4741 19.8917 61.0758 20.8392 60.993 21.8697C60.9173 22.846 60.2292 23.5198 59.1987 23.6278C59.1231 23.6386 59.0438 23.6422 58.9682 23.6422H57.1271V23.635Z" fill="white"/>
</g>
<path d="M82.7219 19.6183H91.1057C88.3459 16.8621 85.5033 14.0195 82.7219 11.2417V19.6183ZM7.9379 110.276C7.9379 111.746 7.86944 113.09 7.95231 114.427C8.09282 116.675 9.85821 118.084 12.427 118.084C46.1495 118.087 79.8721 118.087 113.595 118.087C113.825 118.087 114.056 118.091 114.286 118.077C116.156 117.961 117.745 116.707 117.972 114.863C118.156 113.368 118.008 111.829 118.008 110.294H78.8164C78.2544 112.838 76.9394 114.135 74.7524 114.146C66.9163 114.175 59.0801 114.171 51.244 114.146C49.1759 114.139 47.7312 112.827 47.3205 110.777C47.2844 110.604 47.2232 110.438 47.1728 110.276H7.9379ZM13.9114 106.295H15.4102C25.8944 106.295 36.3823 106.292 46.8665 106.299C49.2732 106.302 50.5666 107.322 51.1611 109.631C51.2079 109.812 51.262 109.992 51.3124 110.172H74.6876C75.5523 107.045 76.5503 106.295 79.7856 106.295H112.074V102.365H110.626C101.637 102.365 92.6477 102.365 83.6622 102.357C83.129 102.357 82.5706 102.354 82.0698 102.199C81.1006 101.907 80.6503 101.172 80.7512 100.17C80.8448 99.2193 81.4069 98.6248 82.3544 98.4807C82.8084 98.4086 83.2731 98.4267 83.7343 98.4267H112.157V96.9135V38.3746C112.157 37.9135 112.157 37.4523 112.128 36.9911C111.977 34.4908 110.161 32.0192 107.697 31.7778C104.67 31.4824 101.594 31.7058 98.4231 31.7058V33.0496C98.4231 41.383 98.4267 49.72 98.4194 58.0569C98.4194 58.5505 98.4194 59.0621 98.3078 59.5413C98.07 60.5285 97.3746 61.0292 96.3694 60.9932C95.3643 60.9608 94.7193 60.4096 94.55 59.4044C94.4671 58.918 94.4852 58.41 94.4852 57.9128C94.4816 47.0034 94.4816 36.094 94.4816 25.1847V23.6499C90.5725 23.6499 86.8508 23.6571 83.129 23.6462C80.2648 23.6354 78.73 22.0934 78.7228 19.2184C78.712 15.8749 78.7228 12.5351 78.7192 9.19168C78.7156 8.78817 78.6831 8.38465 78.6615 7.92709H34.6385C32.012 7.92709 31.5292 8.39906 31.5292 10.9931C31.5256 26.6258 31.5292 42.2585 31.5256 57.8912C31.5256 58.428 31.5437 58.9756 31.4392 59.498C31.2518 60.442 30.6105 60.9572 29.6558 60.9968C28.7082 61.0365 28.0057 60.5933 27.7391 59.671C27.595 59.1666 27.5914 58.6081 27.5914 58.0749C27.5841 49.7019 27.5841 41.329 27.5841 32.956V31.5292C25.0225 31.5292 22.6483 31.5148 20.274 31.5329C16.2208 31.5581 13.8537 33.9359 13.8537 38.0071C13.8501 57.711 13.8501 77.4149 13.8537 97.1224C13.8537 97.5259 13.8934 97.9295 13.9222 98.4267H73.5959C74.0931 98.4267 74.5975 98.4086 75.0911 98.4735C76.1143 98.6068 76.68 99.2805 76.7484 100.25C76.8133 101.226 76.3269 101.975 75.3361 102.224C74.8245 102.354 74.2733 102.357 73.74 102.357C54.3028 102.365 34.8691 102.365 15.4318 102.365H13.9114V106.295ZM32.3471 4H81.2123C81.7491 4.42874 82.3256 4.81424 82.8084 5.29342C87.6254 10.0888 92.4171 14.9166 97.2521 19.6975C98.0808 20.519 98.4699 21.4017 98.4375 22.5546C98.387 24.1939 98.4231 25.8332 98.4231 27.5877H105.69C107.603 27.5841 109.444 27.8904 111.109 28.892C114.585 30.978 116.113 34.0945 116.109 38.1188C116.081 60.3231 116.095 82.5274 116.095 104.732V106.306C117.522 106.306 118.779 106.274 120.036 106.313C121.143 106.346 121.95 107.009 121.971 108.053C122.022 110.431 122.166 112.838 121.896 115.187C121.427 119.262 118.098 122.007 113.919 122.007C79.9621 122.014 46.0018 122.011 12.0415 122.011C11.9262 122.011 11.8109 122.011 11.6957 122.007C8.35222 121.914 5.48076 119.784 4.40712 116.603C4.28823 116.25 4.1333 115.908 4 115.558V107.491C4.71336 106.501 5.68252 106.184 6.88227 106.281C7.85503 106.36 8.8386 106.295 9.91585 106.295V104.631V38.6088C9.91585 37.9927 9.92306 37.3802 9.95548 36.7642C10.2113 32.1057 13.9042 28.1318 18.5663 27.7283C21.081 27.5121 23.6282 27.6238 26.161 27.5877C26.6042 27.5805 27.0473 27.5877 27.5841 27.5877V26.0457C27.5841 20.8216 27.5914 15.6011 27.5841 10.377C27.5805 7.819 28.5713 5.83744 30.8915 4.62689C31.3599 4.3855 31.8607 4.20896 32.3471 4Z" fill="white"/>
<path d="M39.479 49.1519H57.0032V39.5071H39.479V49.1519ZM48.1366 53.1546C44.7571 53.1546 41.3777 53.1582 37.9982 53.151C36.1212 53.1474 35.4835 52.5313 35.4799 50.6867C35.4654 46.4245 35.4618 42.1624 35.4799 37.9002C35.4871 36.1384 36.1536 35.4863 37.9442 35.4827C44.8148 35.4719 51.689 35.4719 58.5596 35.4827C60.3502 35.4863 61.0167 36.1384 61.0239 37.9002C61.0383 42.202 61.042 46.5002 61.0203 50.802C61.0131 52.5025 60.3394 53.1438 58.6172 53.151C55.1225 53.1618 51.6277 53.1546 48.1366 53.1546ZM69.0006 49.1411H86.4888V39.4855H69.0006V49.1411ZM77.7699 53.1546C74.3508 53.1546 70.9353 53.1582 67.5162 53.151C65.5959 53.1474 64.9871 52.5349 64.9799 50.5858C64.969 46.3993 64.969 42.2128 64.9799 38.0299C64.9871 36.1096 65.6139 35.4827 67.5451 35.4827C74.3436 35.4719 81.1386 35.4755 87.9335 35.4827C89.9223 35.4827 90.5239 36.0952 90.5275 38.1164C90.5383 42.2632 90.5383 46.4101 90.5275 50.557C90.5239 52.5601 89.9259 53.1474 87.9047 53.151C84.5252 53.1582 81.1458 53.1546 77.7699 53.1546ZM100.352 80.6659C100.331 79.5886 99.3941 78.6951 98.3349 78.7419C97.3153 78.7852 96.4506 79.6751 96.4434 80.6911C96.4326 81.7755 97.3153 82.6474 98.4177 82.6402C99.531 82.633 100.374 81.7755 100.352 80.6659ZM96.4326 75.0995C96.4326 74.2168 96.501 73.2909 96.4002 72.3829C96.3569 72.0082 96.0291 71.5759 95.712 71.3309C93.7413 69.8033 91.7489 68.3045 89.7349 66.8346C88.9171 66.2365 88.5388 65.5159 88.5676 64.4927C88.6144 62.8462 88.5748 61.1925 88.582 59.546C88.5892 58.0112 89.3458 57.0961 90.5672 57.1141C91.7849 57.1321 92.4983 58.0401 92.5055 59.6001C92.5091 60.789 92.4479 61.9852 92.5379 63.1669C92.5704 63.6172 92.8442 64.1829 93.1936 64.4603C95.15 66.0059 97.1423 67.5047 99.1635 68.9674C100.021 69.5871 100.461 70.3401 100.363 71.3994C100.338 71.7056 100.385 72.0154 100.356 72.3217C100.198 73.961 100.457 75.1247 102.093 76.2596C105.468 78.6014 104.921 83.8039 101.293 85.7855C100.507 86.2178 100.316 86.6718 100.345 87.4824C100.399 89.0893 100.378 90.7033 100.352 92.3138C100.334 93.6144 99.5815 94.4323 98.443 94.4539C97.2757 94.4755 96.4578 93.618 96.4398 92.2778C96.4146 90.552 96.465 88.8227 96.4074 87.0969C96.393 86.7294 96.1516 86.2034 95.8525 86.0377C93.6872 84.8199 92.4551 83.0401 92.5307 80.5398C92.5992 78.0934 93.8746 76.3677 96.0687 75.312C96.1732 75.2616 96.2669 75.1968 96.4326 75.0995ZM29.5892 82.6402C30.7025 82.6294 31.5275 81.7683 31.4987 80.6514C31.4735 79.6066 30.6268 78.76 29.5964 78.7419C28.5336 78.7239 27.6149 79.6318 27.6113 80.7019C27.6077 81.7863 28.4868 82.651 29.5892 82.6402ZM39.4141 62.0752C40.1815 65.0548 38.7116 66.8706 36.3121 68.3117C35.0691 69.0611 34.0027 70.1023 32.7813 70.895C31.8014 71.5255 31.4519 72.2857 31.4879 73.4494C31.5203 74.5122 31.6717 75.1823 32.7273 75.8128C36.5139 78.0754 36.3229 83.6598 32.4355 85.7999C31.7005 86.2034 31.4879 86.6285 31.5095 87.4031C31.56 89.0136 31.5456 90.6277 31.5167 92.2418C31.4879 93.6397 30.7277 94.4611 29.5532 94.4503C28.3895 94.4431 27.6221 93.6036 27.5932 92.2165C27.5608 90.5268 27.5644 88.8371 27.5932 87.1473C27.6077 86.5421 27.4311 86.1998 26.8619 85.8972C24.7902 84.7983 23.659 83.0185 23.677 80.6767C23.695 78.3456 24.8407 76.6127 26.8871 75.4417C27.2222 75.2508 27.3663 74.714 27.5752 74.3249C27.6257 74.2384 27.5824 74.0979 27.5824 73.9826C27.6293 69.0972 27.0961 70.3653 30.9079 67.4182C32.122 66.4779 33.3326 65.5303 34.6008 64.6657C35.2925 64.1973 35.5303 63.6533 35.4907 62.8426C35.4294 61.6969 35.4546 60.5404 35.4799 59.3875C35.5123 57.9896 36.2473 57.1393 37.3966 57.1177C38.5891 57.0961 39.3709 57.9752 39.4105 59.4271C39.4358 60.3098 39.4141 61.1925 39.4141 62.0752ZM86.568 74.7752C86.55 73.6583 85.6961 72.8441 84.5721 72.8765C83.5308 72.9053 82.6878 73.7556 82.677 74.7896C82.6626 75.8453 83.5849 76.7784 84.6405 76.7748C85.7178 76.7712 86.5824 75.8741 86.568 74.7752ZM82.6517 86.6285C82.6517 84.8632 82.6373 83.0978 82.6626 81.3324C82.6698 80.7127 82.5581 80.3236 81.9132 79.9849C79.8415 78.8969 78.7283 77.099 78.7499 74.7608C78.7679 72.4766 79.874 70.7436 81.8843 69.6196C82.8355 69.0899 82.9832 68.1244 82.1978 67.3065C81.3511 66.4166 80.4396 65.588 79.6218 64.6765C79.2507 64.2621 78.8291 63.7289 78.7931 63.2245C78.6814 61.7726 78.6814 60.3062 78.7751 58.8543C78.8436 57.7951 79.7371 57.1033 80.735 57.1177C81.7799 57.1393 82.5473 57.9068 82.6409 59.0344C82.6445 59.0741 82.6517 59.1137 82.6445 59.1497C82.1257 61.5744 83.3039 63.2462 85.1017 64.6224C86.3122 65.5484 86.8022 66.7481 86.5896 68.2433C86.4888 68.9422 86.7662 69.3169 87.4147 69.6628C89.4431 70.7436 90.5095 72.4946 90.5095 74.804C90.5095 77.1135 89.4287 78.8608 87.4183 79.9561C86.7806 80.3056 86.568 80.6622 86.5752 81.3648C86.6077 84.9748 86.6005 88.5849 86.5824 92.1913C86.5752 93.6397 85.7718 94.5007 84.5612 94.4539C83.4516 94.4143 82.6878 93.5856 82.6626 92.2742C82.6265 90.3935 82.6553 88.5092 82.6517 86.6285Z" fill="white"/>
<path d="M45.2738 74.8637C45.3026 73.7468 44.474 72.8894 43.3607 72.875C42.2546 72.8605 41.3647 73.7288 41.3683 74.8097C41.3719 75.8257 42.2294 76.7228 43.249 76.7732C44.3082 76.8273 45.245 75.941 45.2738 74.8637ZM41.3575 80.4229C38.1366 78.6287 36.8936 76.2688 37.6286 73.383C38.0573 71.6932 39.0445 70.4106 40.6009 69.6288C41.1522 69.3514 41.4728 69.0524 41.3575 68.411C41.0549 66.7105 41.7574 65.4243 43.0725 64.4227C44.7622 63.1293 45.6485 61.5585 45.3531 59.3139C45.2738 58.705 45.8791 57.7827 46.4411 57.3864C46.859 57.091 47.7129 57.3828 48.365 57.4801C48.5488 57.5089 48.7253 57.7611 48.855 57.9448C49.6512 59.0329 49.2801 63.7526 48.3254 64.7217C47.5184 65.5432 46.6933 66.3466 45.8863 67.1645C44.8991 68.1661 45.018 68.9947 46.1925 69.6792C48.1344 70.8105 49.1901 72.4967 49.2045 74.7628C49.2189 77.0795 48.1561 78.8304 46.1529 79.9293C45.472 80.3004 45.2594 80.6787 45.2702 81.4173C45.3062 84.9481 45.2882 88.4788 45.281 92.0096C45.281 93.5804 44.5712 94.4559 43.3283 94.4559C42.0961 94.4523 41.3611 93.5552 41.3575 92.0024C41.3503 88.1294 41.3575 84.2563 41.3575 80.4229ZM57.0659 88.5437C57.0515 87.4448 56.158 86.5801 55.0771 86.6198C54.0431 86.6522 53.1928 87.5169 53.1748 88.5437C53.1568 89.6209 54.0395 90.5072 55.1311 90.5072C56.248 90.5072 57.0803 89.6606 57.0659 88.5437ZM57.0875 71.8301C57.0875 75.2456 57.1019 78.6611 57.0767 82.0766C57.0695 82.7323 57.2604 83.0782 57.8657 83.3988C60.3264 84.6959 61.5082 87.3728 60.8705 90.0064C60.24 92.6005 57.8405 94.492 55.1564 94.5064C52.5263 94.5208 50.1052 92.6761 49.4423 90.1541C48.7325 87.4628 49.8566 84.7751 52.3678 83.4277C53.0415 83.0674 53.164 82.6567 53.164 81.9865C53.1424 75.4222 53.1496 68.8614 53.1496 62.297C53.1496 61.9908 53.1424 61.6846 53.1532 61.3783C53.2036 59.9372 53.9782 59.0617 55.178 59.0905C56.3525 59.1157 57.0731 59.9372 57.0803 61.3531C57.0983 64.8442 57.0875 68.339 57.0875 71.8301ZM74.7774 88.5617C74.7702 87.4664 73.8767 86.5909 72.7958 86.6162C71.7222 86.6414 70.8323 87.5817 70.8719 88.641C70.9116 89.6786 71.7726 90.5036 72.8175 90.5108C73.9307 90.518 74.781 89.6678 74.7774 88.5617ZM74.7882 71.6896C74.7882 75.1447 74.8026 78.6035 74.7774 82.0586C74.7738 82.6963 74.9215 83.0602 75.5448 83.388C78.0308 84.6959 79.2233 87.3908 78.564 89.9812C77.8866 92.6401 75.5484 94.4739 72.8463 94.4667C70.1694 94.4595 67.8203 92.6545 67.1646 90.0929C66.4693 87.3836 67.597 84.7319 70.1406 83.3916C70.7891 83.0494 70.8683 82.6494 70.8683 82.037C70.8539 75.3933 70.8575 68.7497 70.8611 62.1061C70.8611 61.7602 70.8431 61.4107 70.8683 61.0685C70.9584 59.8831 71.7654 59.0797 72.8463 59.0869C73.9451 59.0905 74.7522 59.8867 74.7738 61.0901C74.8098 63.0464 74.7882 65.0064 74.7882 66.9663V71.6896ZM43.3175 17.7912C41.1089 17.7985 39.4084 19.5314 39.43 21.7508C39.4516 23.8944 41.1666 25.6202 43.2994 25.6454C45.4359 25.667 47.2698 23.8584 47.2806 21.7147C47.2914 19.553 45.5044 17.784 43.3175 17.7912ZM35.4921 21.5454C35.5894 17.1319 39.1418 13.7597 43.5805 13.8678C47.8462 13.9686 51.2797 17.539 51.2113 21.8012C51.1464 26.157 47.504 29.6662 43.1517 29.5689C38.8355 29.4716 35.3984 25.8688 35.4921 21.5454ZM61.029 31.5288C59.1879 31.5288 57.3505 31.5433 55.513 31.5216C54.0503 31.5036 53.1676 30.7362 53.1748 29.5581C53.182 28.38 54.0719 27.6018 55.5275 27.5946C59.206 27.5765 62.8808 27.5729 66.5593 27.5946C68.0185 27.6018 68.894 28.3836 68.8904 29.5725C68.8868 30.7578 68.0185 31.5036 66.5449 31.5216C64.7075 31.5433 62.8664 31.5288 61.029 31.5288ZM69.8343 23.6386C68.876 23.6386 67.914 23.6711 66.9556 23.6314C65.7883 23.5846 65.0497 22.8532 65.0065 21.7832C64.9633 20.6735 65.7019 19.7872 66.898 19.7476C68.8904 19.6791 70.8863 19.6791 72.8787 19.744C74.0712 19.7872 74.817 20.6807 74.7738 21.7832C74.7342 22.8496 73.9956 23.581 72.8283 23.6314C71.8303 23.6711 70.8323 23.6386 69.8343 23.6386ZM77.6921 31.5144C76.7337 31.5144 75.7754 31.5541 74.817 31.5036C73.6389 31.4424 72.9111 30.7074 72.8751 29.6482C72.8355 28.5205 73.5524 27.6666 74.7702 27.6234C76.7626 27.5549 78.7585 27.5549 80.7509 27.6234C81.965 27.6702 82.6784 28.5313 82.6352 29.6554C82.5955 30.7218 81.8714 31.4424 80.6824 31.5036C79.6881 31.5541 78.6901 31.5144 77.6921 31.5144ZM57.1271 23.635C56.439 23.635 55.7436 23.6711 55.0591 23.6242C53.989 23.5558 53.2433 22.8064 53.1784 21.8084C53.1136 20.8284 53.7909 19.8665 54.8357 19.7908C56.3597 19.6863 57.9017 19.6827 59.4221 19.8088C60.4741 19.8917 61.0758 20.8392 60.993 21.8697C60.9173 22.846 60.2292 23.5198 59.1987 23.6278C59.1231 23.6386 59.0438 23.6422 58.9682 23.6422H57.1271V23.635Z" fill="white"/>
<defs>
<filter id="filter0_f_1915_383" x="0" y="0" width="126.055" height="126.012" filterUnits="userSpaceOnUse" color-interpolation-filters="sRGB">
<feFlood flood-opacity="0" result="BackgroundImageFix"/>
<feBlend mode="normal" in="SourceGraphic" in2="BackgroundImageFix" result="shape"/>
<feGaussianBlur stdDeviation="2" result="effect1_foregroundBlur_1915_383"/>
</filter>
</defs>
</svg>
