<svg width="123" height="126" viewBox="0 0 123 126" fill="none" xmlns="http://www.w3.org/2000/svg">
<g filter="url(#filter0_f_1915_185)">
<path d="M104.764 99.0402C104.779 97.0141 103.164 95.379 101.147 95.376C99.18 95.3701 97.5656 96.9519 97.53 98.9188C97.4945 100.951 99.0793 102.61 101.085 102.636C103.096 102.666 104.752 101.049 104.764 99.0402ZM24.7876 98.9869C24.7817 96.9697 23.1347 95.3493 21.1205 95.376C19.1476 95.4056 17.5688 96.9934 17.554 98.9691C17.5392 100.998 19.1506 102.636 21.159 102.639C23.1703 102.642 24.7936 101.007 24.7876 98.9869ZM12.4383 26.8399C14.4822 26.8488 16.1144 25.2226 16.0907 23.1964C16.0699 21.2147 14.4704 19.6329 12.4798 19.627C10.4447 19.6211 8.81554 21.2473 8.83035 23.2705C8.84812 25.2433 10.4536 26.834 12.4383 26.8399ZM109.876 26.8399C111.861 26.834 113.47 25.2403 113.484 23.2675C113.502 21.2444 111.87 19.6181 109.829 19.627C107.844 19.6359 106.233 21.2266 106.212 23.1994C106.191 25.2078 107.844 26.8488 109.876 26.8399ZM111.218 63.2867C113.191 63.2748 114.823 61.6634 114.841 59.7113C114.862 57.7207 113.179 56.056 111.165 56.0678C109.198 56.0767 107.563 57.694 107.539 59.6491C107.519 61.6367 109.198 63.2985 111.218 63.2867ZM11.1438 56.0678C9.12953 56.0589 7.4559 57.7237 7.47663 59.7172C7.49737 61.6723 9.12657 63.2748 11.0994 63.2867C13.1196 63.2985 14.8051 61.6278 14.7784 59.6432C14.7518 57.6881 13.1107 56.0767 11.1438 56.0678ZM68.7376 111.333H53.5208C53.5208 112.574 53.4972 113.753 53.5268 114.932C53.5801 116.911 55.0316 118.46 57.0014 118.505C59.7622 118.567 62.5259 118.561 65.2837 118.508C67.0195 118.472 68.5451 117.163 68.7109 115.504C68.8442 114.147 68.7376 112.764 68.7376 111.333ZM77.5471 99.8163C77.5471 99.0313 77.5501 98.3856 77.5471 97.7428C77.5442 95.6989 77.1235 95.2842 75.0322 95.2842C68.5806 95.2812 62.1319 95.2812 55.6803 95.2812C52.6855 95.2812 49.6937 95.2871 46.6989 95.2812C45.8073 95.2783 44.9809 95.5419 44.8416 96.4661C44.6787 97.5325 44.8031 98.6403 44.8031 99.8163H55.0582C55.3663 99.8163 55.6744 99.8074 55.9795 99.8252C57.1318 99.8845 57.8812 100.581 57.8664 101.567C57.8516 102.545 57.0844 103.282 55.938 103.291C52.6352 103.318 49.3323 103.303 46.0324 103.303H44.7409V105.187C44.7439 107.485 45.0401 107.788 47.324 107.788C56.5393 107.788 65.7547 107.788 74.97 107.785C75.3907 107.785 75.9002 107.9 76.2142 107.708C76.7177 107.397 77.3635 106.932 77.4642 106.434C77.6597 105.453 77.5205 104.405 77.5205 103.303C73.5985 103.303 69.804 103.309 66.0094 103.3C64.6083 103.297 63.7789 102.61 63.7996 101.514C63.8174 100.45 64.5846 99.8252 65.9561 99.8223C69.3745 99.8104 72.7899 99.8163 76.2082 99.8163H77.5471ZM55.858 122C55.2922 121.781 54.7057 121.603 54.1666 121.337C51.6162 120.069 50.1825 118.031 50.0581 115.157C50.0047 113.934 50.0492 112.705 50.0492 111.268C48.9502 111.268 47.9312 111.271 46.9122 111.268C43.2865 111.256 41.2692 109.263 41.2544 105.652C41.2396 102.965 41.2456 100.275 41.2515 97.5858C41.2604 93.8179 43.248 91.8184 46.9922 91.8066H48.3489C48.2008 88.5215 47.1077 85.6393 45.6474 82.8282C44.7261 81.0538 43.6183 80.2689 41.4618 80.3459C35.9758 80.5473 30.478 80.411 24.9861 80.414C23.1525 80.414 22.9067 80.6599 22.9067 82.4579C22.9037 85.3016 22.9333 88.1424 22.8859 90.9861C22.8741 91.7947 23.1081 92.162 23.8931 92.476C27.0419 93.732 28.754 96.9489 28.1823 100.311C27.6462 103.445 24.7788 105.969 21.6033 106.102C18.1109 106.247 15.1813 104.126 14.2897 100.812C13.3625 97.3725 15.125 93.8001 18.496 92.4435C19.2158 92.1532 19.4705 91.8273 19.4557 91.0394C19.4024 88.1216 19.432 85.2009 19.435 82.2831C19.4379 78.7463 21.2775 76.9127 24.8499 76.9038C29.8056 76.8949 34.7613 76.9009 39.7171 76.9009H41.2781C40.8457 76.3558 40.5613 75.9855 40.2621 75.6271C37.3207 72.0666 34.4947 68.432 32.9751 63.9828C32.6937 63.1563 32.6315 61.9863 32.0509 61.5982C31.4052 61.1657 30.2825 61.4175 29.3672 61.4175C25.9488 61.4057 22.5275 61.4353 19.1091 61.3938C18.3449 61.3849 17.9954 61.5952 17.6991 62.3388C16.3987 65.5853 13.0722 67.3271 9.66272 66.6517C6.47838 66.0208 4.05531 63.103 4.00199 59.8327C3.94571 56.4262 6.24436 53.5085 9.59459 52.7324C12.9359 51.9593 16.4017 53.7662 17.7169 57.0572C17.9983 57.7592 18.3242 57.9577 19.041 57.9488C23.1851 57.9162 27.3292 57.934 31.6214 57.934C31.2126 53.6684 31.6362 49.548 32.7915 45.3062H31.4792C26.3339 45.3062 21.1856 45.3121 16.0373 45.3032C12.5627 45.2973 10.7113 43.4371 10.7054 39.9683C10.7025 36.707 10.7054 33.4456 10.7054 30.1665C8.14016 29.3311 6.37174 27.7493 5.62527 25.19C4.55888 21.5376 6.55835 17.7549 10.1663 16.5019C13.7268 15.2637 17.6636 17.0795 19.0736 20.6134C20.4777 24.1266 18.8988 28.1877 15.3857 29.6629C14.3548 30.0954 14.1445 30.6138 14.1652 31.6002C14.2215 34.3639 14.1801 37.1306 14.186 39.8972C14.1889 41.479 14.5177 41.8167 16.0492 41.8197C21.7336 41.8227 27.421 41.8019 33.1055 41.8434C33.8964 41.8493 34.1837 41.5176 34.5599 40.8985C35.8099 38.8368 37.1103 36.7988 38.5203 34.8438C39.4297 33.5848 40.4813 33.4634 41.3492 34.2513C42.1579 34.983 42.0661 35.9368 41.1478 37.0891C34.9924 44.8293 33.4698 53.4759 36.3106 62.8749C37.4154 66.5362 39.8089 69.4924 42.149 72.4546C44.267 75.1324 46.4116 77.8014 48.3193 80.6273C50.5468 83.9331 51.6073 87.701 51.9094 91.7384H59.3327V66.2133C57.8219 66.2133 56.2994 66.234 54.7798 66.2074C53.589 66.1866 52.8721 65.5438 52.8336 64.5337C52.7981 63.5296 53.4616 62.7653 54.528 62.7564C58.9476 62.7298 63.3642 62.7298 67.7808 62.7564C68.8087 62.7623 69.4574 63.4644 69.4811 64.4123C69.5078 65.3987 68.8383 66.16 67.7719 66.1926C66.2049 66.2459 64.635 66.2074 62.985 66.2074V91.7473H70.3609C70.4794 90.9002 70.583 90.0382 70.7193 89.1821C71.5872 83.7524 74.4694 79.3624 77.8641 75.2154C79.7362 72.9286 81.5668 70.6033 83.2967 68.2098C91.6264 56.6839 87.7963 33.9018 67.7482 28.9164C60.479 27.1095 53.4942 28.1374 47.0189 32.0504C45.7718 32.8058 44.7854 32.6902 44.2048 31.7394C43.6242 30.7915 43.9648 29.8495 45.1912 29.0882C59.1579 20.4327 79.7362 24.3221 87.8407 41.0229C88.137 41.636 88.4776 41.8375 89.1382 41.8345C94.8996 41.8108 100.664 41.8227 106.425 41.8167C107.732 41.8167 108.123 41.4198 108.129 40.0839C108.144 37.1276 108.105 34.1684 108.152 31.2121C108.164 30.439 107.936 30.0894 107.202 29.7991C104.387 28.6854 102.598 25.9216 102.72 23.0454C102.847 19.9973 104.779 17.4231 107.652 16.4693C111.236 15.2815 115.149 17.1536 116.5 20.7023C117.865 24.3013 116.18 28.3062 112.596 29.7636C111.826 30.0806 111.583 30.436 111.594 31.2417C111.642 34.2365 111.624 37.2342 111.609 40.229C111.594 43.3363 109.684 45.2855 106.591 45.3003C101.254 45.324 95.9127 45.3062 90.5719 45.3092C90.2757 45.3092 89.9765 45.3477 89.5766 45.3743C90.6222 49.4769 91.1406 53.5648 90.6785 57.8777C91.1169 57.8984 91.5168 57.931 91.9137 57.931C95.6402 57.9369 99.3666 57.9044 103.093 57.9577C103.952 57.9695 104.34 57.7266 104.675 56.912C105.937 53.8225 109.174 52.0985 112.436 52.6672C115.656 53.23 118.162 56.0589 118.31 59.3055C118.464 62.6794 116.316 65.6327 113.046 66.5362C109.577 67.4959 105.966 65.7216 104.595 62.2943C104.313 61.5923 103.988 61.3909 103.268 61.3968C99.1977 61.4294 95.1247 61.3997 91.0547 61.4353C90.6904 61.4383 90.0713 61.6989 90.0061 61.9537C88.5931 67.3982 85.3258 71.7407 81.7979 75.9352C81.6053 76.1662 81.4365 76.418 81.1225 76.8387C81.6557 76.8653 82.0437 76.9009 82.4347 76.9009C87.3905 76.9038 92.3462 76.8979 97.299 76.9038C101.094 76.9068 102.88 78.69 102.883 82.4638C102.883 85.269 102.912 88.0742 102.862 90.8794C102.847 91.7088 103.019 92.1413 103.878 92.482C107.065 93.7498 108.804 97.0941 108.135 100.432C107.504 103.596 104.654 106.013 101.452 106.105C97.9892 106.203 95.0566 104.008 94.2242 100.69C93.3711 97.2925 95.1514 93.7735 98.4809 92.4405C99.2155 92.1472 99.4436 91.8007 99.4288 91.0305C99.3814 88.0713 99.417 85.115 99.4081 82.1558C99.4021 80.7902 99.0585 80.4229 97.7167 80.4199C91.4931 80.4081 85.2696 80.4051 79.049 80.4377C78.6609 80.4377 78.1307 80.6777 77.9145 80.9798C75.6454 84.1671 74.2236 87.6803 73.9303 91.8095C74.5938 91.8095 75.2248 91.7977 75.8528 91.8125C78.8624 91.8747 80.9833 93.9749 81.0188 96.9934C81.0544 100.027 81.0514 103.063 81.0188 106.096C80.9833 109.129 78.9038 111.188 75.8498 111.262C74.7064 111.289 73.56 111.268 72.1797 111.268C72.7306 116.212 71.8953 120.398 66.4597 122H55.858ZM59.4452 8.72616C59.4452 7.76641 59.4126 6.80666 59.4541 5.84691C59.5015 4.73906 60.1591 4.03702 61.11 4.00147C62.1053 3.96296 62.8843 4.68277 62.9139 5.82914C62.9643 7.78418 62.9584 9.74219 62.9199 11.7002C62.8962 12.8525 62.1556 13.6078 61.187 13.6138C60.2124 13.6227 59.5222 12.8703 59.4452 11.718C59.4393 11.6409 59.4393 11.5639 59.4393 11.4869V8.72616H59.4452Z" fill="white"/>
<path d="M87.2934 12.9094C86.9527 13.5019 86.7839 13.9906 86.458 14.3283C85.1339 15.7146 83.7802 17.0683 82.4087 18.4043C81.5497 19.2396 80.4596 19.2544 79.7635 18.508C79.1 17.797 79.1622 16.7721 79.9679 15.9486C81.3335 14.5505 82.6694 13.1138 84.1446 11.8401C84.5889 11.455 85.5161 11.3365 86.1055 11.5083C86.5854 11.6475 86.8876 12.397 87.2934 12.9094ZM43.2012 17.4712C42.8487 17.9303 42.5792 18.6264 42.123 18.7834C41.5632 18.976 40.633 18.9671 40.2361 18.6176C38.6276 17.2016 37.1288 15.6583 35.6654 14.0943C35.0108 13.3923 35.0849 12.5273 35.7306 11.7986C36.3319 11.1203 37.4072 11.0462 38.1092 11.7157C39.6348 13.1671 41.1129 14.669 42.5762 16.1886C42.8458 16.467 42.9376 16.9143 43.2012 17.4712Z" fill="white"/>
</g>
<path d="M104.764 99.0402C104.779 97.0141 103.164 95.379 101.147 95.376C99.18 95.3701 97.5656 96.9519 97.53 98.9188C97.4945 100.951 99.0793 102.61 101.085 102.636C103.096 102.666 104.752 101.049 104.764 99.0402ZM24.7876 98.9869C24.7817 96.9697 23.1347 95.3493 21.1205 95.376C19.1476 95.4056 17.5688 96.9934 17.554 98.9691C17.5392 100.998 19.1506 102.636 21.159 102.639C23.1703 102.642 24.7936 101.007 24.7876 98.9869ZM12.4383 26.8399C14.4822 26.8488 16.1144 25.2226 16.0907 23.1964C16.0699 21.2147 14.4704 19.6329 12.4798 19.627C10.4447 19.6211 8.81554 21.2473 8.83035 23.2705C8.84812 25.2433 10.4536 26.834 12.4383 26.8399ZM109.876 26.8399C111.861 26.834 113.47 25.2403 113.484 23.2675C113.502 21.2444 111.87 19.6181 109.829 19.627C107.844 19.6359 106.233 21.2266 106.212 23.1994C106.191 25.2078 107.844 26.8488 109.876 26.8399ZM111.218 63.2867C113.191 63.2748 114.823 61.6634 114.841 59.7113C114.862 57.7207 113.179 56.056 111.165 56.0678C109.198 56.0767 107.563 57.694 107.539 59.6491C107.519 61.6367 109.198 63.2985 111.218 63.2867ZM11.1438 56.0678C9.12953 56.0589 7.4559 57.7237 7.47663 59.7172C7.49737 61.6723 9.12657 63.2748 11.0994 63.2867C13.1196 63.2985 14.8051 61.6278 14.7784 59.6432C14.7518 57.6881 13.1107 56.0767 11.1438 56.0678ZM68.7376 111.333H53.5208C53.5208 112.574 53.4972 113.753 53.5268 114.932C53.5801 116.911 55.0316 118.46 57.0014 118.505C59.7622 118.567 62.5259 118.561 65.2837 118.508C67.0195 118.472 68.5451 117.163 68.7109 115.504C68.8442 114.147 68.7376 112.764 68.7376 111.333ZM77.5471 99.8163C77.5471 99.0313 77.5501 98.3856 77.5471 97.7428C77.5442 95.6989 77.1235 95.2842 75.0322 95.2842C68.5806 95.2812 62.1319 95.2812 55.6803 95.2812C52.6855 95.2812 49.6937 95.2871 46.6989 95.2812C45.8073 95.2783 44.9809 95.5419 44.8416 96.4661C44.6787 97.5325 44.8031 98.6403 44.8031 99.8163H55.0582C55.3663 99.8163 55.6744 99.8074 55.9795 99.8252C57.1318 99.8845 57.8812 100.581 57.8664 101.567C57.8516 102.545 57.0844 103.282 55.938 103.291C52.6352 103.318 49.3323 103.303 46.0324 103.303H44.7409V105.187C44.7439 107.485 45.0401 107.788 47.324 107.788C56.5393 107.788 65.7547 107.788 74.97 107.785C75.3907 107.785 75.9002 107.9 76.2142 107.708C76.7177 107.397 77.3635 106.932 77.4642 106.434C77.6597 105.453 77.5205 104.405 77.5205 103.303C73.5985 103.303 69.804 103.309 66.0094 103.3C64.6083 103.297 63.7789 102.61 63.7996 101.514C63.8174 100.45 64.5846 99.8252 65.9561 99.8223C69.3745 99.8104 72.7899 99.8163 76.2082 99.8163H77.5471ZM55.858 122C55.2922 121.781 54.7057 121.603 54.1666 121.337C51.6162 120.069 50.1825 118.031 50.0581 115.157C50.0047 113.934 50.0492 112.705 50.0492 111.268C48.9502 111.268 47.9312 111.271 46.9122 111.268C43.2865 111.256 41.2692 109.263 41.2544 105.652C41.2396 102.965 41.2456 100.275 41.2515 97.5858C41.2604 93.8179 43.248 91.8184 46.9922 91.8066H48.3489C48.2008 88.5215 47.1077 85.6393 45.6474 82.8282C44.7261 81.0538 43.6183 80.2689 41.4618 80.3459C35.9758 80.5473 30.478 80.411 24.9861 80.414C23.1525 80.414 22.9067 80.6599 22.9067 82.4579C22.9037 85.3016 22.9333 88.1424 22.8859 90.9861C22.8741 91.7947 23.1081 92.162 23.8931 92.476C27.0419 93.732 28.754 96.9489 28.1823 100.311C27.6462 103.445 24.7788 105.969 21.6033 106.102C18.1109 106.247 15.1813 104.126 14.2897 100.812C13.3625 97.3725 15.125 93.8001 18.496 92.4435C19.2158 92.1532 19.4705 91.8273 19.4557 91.0394C19.4024 88.1216 19.432 85.2009 19.435 82.2831C19.4379 78.7463 21.2775 76.9127 24.8499 76.9038C29.8056 76.8949 34.7613 76.9009 39.7171 76.9009H41.2781C40.8457 76.3558 40.5613 75.9855 40.2621 75.6271C37.3207 72.0666 34.4947 68.432 32.9751 63.9828C32.6937 63.1563 32.6315 61.9863 32.0509 61.5982C31.4052 61.1657 30.2825 61.4175 29.3672 61.4175C25.9488 61.4057 22.5275 61.4353 19.1091 61.3938C18.3449 61.3849 17.9954 61.5952 17.6991 62.3388C16.3987 65.5853 13.0722 67.3271 9.66272 66.6517C6.47838 66.0208 4.05531 63.103 4.00199 59.8327C3.94571 56.4262 6.24436 53.5085 9.59459 52.7324C12.9359 51.9593 16.4017 53.7662 17.7169 57.0572C17.9983 57.7592 18.3242 57.9577 19.041 57.9488C23.1851 57.9162 27.3292 57.934 31.6214 57.934C31.2126 53.6684 31.6362 49.548 32.7915 45.3062H31.4792C26.3339 45.3062 21.1856 45.3121 16.0373 45.3032C12.5627 45.2973 10.7113 43.4371 10.7054 39.9683C10.7025 36.707 10.7054 33.4456 10.7054 30.1665C8.14016 29.3311 6.37174 27.7493 5.62527 25.19C4.55888 21.5376 6.55835 17.7549 10.1663 16.5019C13.7268 15.2637 17.6636 17.0795 19.0736 20.6134C20.4777 24.1266 18.8988 28.1877 15.3857 29.6629C14.3548 30.0954 14.1445 30.6138 14.1652 31.6002C14.2215 34.3639 14.1801 37.1306 14.186 39.8972C14.1889 41.479 14.5177 41.8167 16.0492 41.8197C21.7336 41.8227 27.421 41.8019 33.1055 41.8434C33.8964 41.8493 34.1837 41.5176 34.5599 40.8985C35.8099 38.8368 37.1103 36.7988 38.5203 34.8438C39.4297 33.5848 40.4813 33.4634 41.3492 34.2513C42.1579 34.983 42.0661 35.9368 41.1478 37.0891C34.9924 44.8293 33.4698 53.4759 36.3106 62.8749C37.4154 66.5362 39.8089 69.4924 42.149 72.4546C44.267 75.1324 46.4116 77.8014 48.3193 80.6273C50.5468 83.9331 51.6073 87.701 51.9094 91.7384H59.3327V66.2133C57.8219 66.2133 56.2994 66.234 54.7798 66.2074C53.589 66.1866 52.8721 65.5438 52.8336 64.5337C52.7981 63.5296 53.4616 62.7653 54.528 62.7564C58.9476 62.7298 63.3642 62.7298 67.7808 62.7564C68.8087 62.7623 69.4574 63.4644 69.4811 64.4123C69.5078 65.3987 68.8383 66.16 67.7719 66.1926C66.2049 66.2459 64.635 66.2074 62.985 66.2074V91.7473H70.3609C70.4794 90.9002 70.583 90.0382 70.7193 89.1821C71.5872 83.7524 74.4694 79.3624 77.8641 75.2154C79.7362 72.9286 81.5668 70.6033 83.2967 68.2098C91.6264 56.6839 87.7963 33.9018 67.7482 28.9164C60.479 27.1095 53.4942 28.1374 47.0189 32.0504C45.7718 32.8058 44.7854 32.6902 44.2048 31.7394C43.6242 30.7915 43.9648 29.8495 45.1912 29.0882C59.1579 20.4327 79.7362 24.3221 87.8407 41.0229C88.137 41.636 88.4776 41.8375 89.1382 41.8345C94.8996 41.8108 100.664 41.8227 106.425 41.8167C107.732 41.8167 108.123 41.4198 108.129 40.0839C108.144 37.1276 108.105 34.1684 108.152 31.2121C108.164 30.439 107.936 30.0894 107.202 29.7991C104.387 28.6854 102.598 25.9216 102.72 23.0454C102.847 19.9973 104.779 17.4231 107.652 16.4693C111.236 15.2815 115.149 17.1536 116.5 20.7023C117.865 24.3013 116.18 28.3062 112.596 29.7636C111.826 30.0806 111.583 30.436 111.594 31.2417C111.642 34.2365 111.624 37.2342 111.609 40.229C111.594 43.3363 109.684 45.2855 106.591 45.3003C101.254 45.324 95.9127 45.3062 90.5719 45.3092C90.2757 45.3092 89.9765 45.3477 89.5766 45.3743C90.6222 49.4769 91.1406 53.5648 90.6785 57.8777C91.1169 57.8984 91.5168 57.931 91.9137 57.931C95.6402 57.9369 99.3666 57.9044 103.093 57.9577C103.952 57.9695 104.34 57.7266 104.675 56.912C105.937 53.8225 109.174 52.0985 112.436 52.6672C115.656 53.23 118.162 56.0589 118.31 59.3055C118.464 62.6794 116.316 65.6327 113.046 66.5362C109.577 67.4959 105.966 65.7216 104.595 62.2943C104.313 61.5923 103.988 61.3909 103.268 61.3968C99.1977 61.4294 95.1247 61.3997 91.0547 61.4353C90.6904 61.4383 90.0713 61.6989 90.0061 61.9537C88.5931 67.3982 85.3258 71.7407 81.7979 75.9352C81.6053 76.1662 81.4365 76.418 81.1225 76.8387C81.6557 76.8653 82.0437 76.9009 82.4347 76.9009C87.3905 76.9038 92.3462 76.8979 97.299 76.9038C101.094 76.9068 102.88 78.69 102.883 82.4638C102.883 85.269 102.912 88.0742 102.862 90.8794C102.847 91.7088 103.019 92.1413 103.878 92.482C107.065 93.7498 108.804 97.0941 108.135 100.432C107.504 103.596 104.654 106.013 101.452 106.105C97.9892 106.203 95.0566 104.008 94.2242 100.69C93.3711 97.2925 95.1514 93.7735 98.4809 92.4405C99.2155 92.1472 99.4436 91.8007 99.4288 91.0305C99.3814 88.0713 99.417 85.115 99.4081 82.1558C99.4021 80.7902 99.0585 80.4229 97.7167 80.4199C91.4931 80.4081 85.2696 80.4051 79.049 80.4377C78.6609 80.4377 78.1307 80.6777 77.9145 80.9798C75.6454 84.1671 74.2236 87.6803 73.9303 91.8095C74.5938 91.8095 75.2248 91.7977 75.8528 91.8125C78.8624 91.8747 80.9833 93.9749 81.0188 96.9934C81.0544 100.027 81.0514 103.063 81.0188 106.096C80.9833 109.129 78.9038 111.188 75.8498 111.262C74.7064 111.289 73.56 111.268 72.1797 111.268C72.7306 116.212 71.8953 120.398 66.4597 122H55.858ZM59.4452 8.72616C59.4452 7.76641 59.4126 6.80666 59.4541 5.84691C59.5015 4.73906 60.1591 4.03702 61.11 4.00147C62.1053 3.96296 62.8843 4.68277 62.9139 5.82914C62.9643 7.78418 62.9584 9.74219 62.9199 11.7002C62.8962 12.8525 62.1556 13.6078 61.187 13.6138C60.2124 13.6227 59.5222 12.8703 59.4452 11.718C59.4393 11.6409 59.4393 11.5639 59.4393 11.4869V8.72616H59.4452Z" fill="white"/>
<path d="M87.2934 12.9094C86.9527 13.5019 86.7839 13.9906 86.458 14.3283C85.1339 15.7146 83.7802 17.0683 82.4087 18.4043C81.5497 19.2396 80.4596 19.2544 79.7635 18.508C79.1 17.797 79.1622 16.7721 79.9679 15.9486C81.3335 14.5505 82.6694 13.1138 84.1446 11.8401C84.5889 11.455 85.5161 11.3365 86.1055 11.5083C86.5854 11.6475 86.8876 12.397 87.2934 12.9094ZM43.2012 17.4712C42.8487 17.9303 42.5792 18.6264 42.123 18.7834C41.5632 18.976 40.633 18.9671 40.2361 18.6176C38.6276 17.2016 37.1288 15.6583 35.6654 14.0943C35.0108 13.3923 35.0849 12.5273 35.7306 11.7986C36.3319 11.1203 37.4072 11.0462 38.1092 11.7157C39.6348 13.1671 41.1129 14.669 42.5762 16.1886C42.8458 16.467 42.9376 16.9143 43.2012 17.4712Z" fill="white"/>
<defs>
<filter id="filter0_f_1915_185" x="0.000976562" y="0" width="122.316" height="126" filterUnits="userSpaceOnUse" color-interpolation-filters="sRGB">
<feFlood flood-opacity="0" result="BackgroundImageFix"/>
<feBlend mode="normal" in="SourceGraphic" in2="BackgroundImageFix" result="shape"/>
<feGaussianBlur stdDeviation="2" result="effect1_foregroundBlur_1915_185"/>
</filter>
</defs>
</svg>
