<svg width="150" height="164" viewBox="0 0 150 164" fill="none" xmlns="http://www.w3.org/2000/svg">
<path d="M82.9011 121.629C88.9965 122.076 93.2275 126.861 95.5551 132.149L100.328 129.854C90.6766 122.121 98.8316 106.944 110.604 111.517C118.429 114.56 119.105 124.823 112.82 129.854C115.655 130.468 118.329 132.328 119.897 134.801L124.329 132.484C119.624 127.984 119.909 120.317 125.876 117.095C135.649 111.813 144.424 125.102 136.168 132.484C139.143 133.277 141.812 135.924 142.811 138.833C143.715 141.457 143.765 152.636 143.408 155.685C143.201 157.46 142.297 158.008 140.623 158.158C134.901 158.683 128.371 157.756 122.56 158.119C122.192 158.22 122.476 160.481 119.903 160.777L96.2584 160.749C95.89 160.85 96.1747 163.111 93.6015 163.407C81.7345 162.586 68.4498 164.479 56.7504 163.418C53.6971 163.139 54.1939 160.866 53.7697 160.749L30.1251 160.777C27.5463 160.476 27.8366 158.22 27.4682 158.119L9.08168 158.147C7.30667 157.941 6.75965 157.036 6.60894 155.361C6.30752 152.072 6.23496 143.473 6.77081 140.363C7.36807 136.901 10.4325 133.35 13.8541 132.484C7.90392 127.297 10.6223 116.777 18.6266 116.046C28.0543 115.186 32.4137 126.141 25.6932 132.484L30.287 134.785C31.4982 132.294 34.5292 130.452 37.2028 129.854C27.4068 122.054 35.9804 106.671 47.719 111.607C55.3549 114.817 55.8963 124.874 49.6949 129.854L54.4674 132.149C56.795 126.867 61.026 122.076 67.1214 121.629C67.2218 120.63 66.0162 120.429 65.4803 119.82C55.7735 108.77 67.2777 92.968 80.3893 98.6522C88.7676 102.287 90.565 112.779 84.6873 119.63C84.0566 120.362 82.8788 120.602 82.9011 121.624V121.629ZM73.6074 102.963C63.8895 104.504 65.7371 119.943 76.1304 118.642C86.1665 117.38 84.3747 101.254 73.6074 102.963ZM42.3716 116.118C35.9358 117.162 37.2642 127.794 44.5206 126.487C50.8281 125.354 49.7619 114.923 42.3716 116.118ZM105.502 116.118C99.0661 117.162 100.395 127.794 107.651 126.487C113.958 125.354 112.892 114.923 105.502 116.118ZM19.0341 121.373C14.3063 122.143 15.1045 129.664 20.223 129.179C25.3192 128.693 24.521 120.479 19.0341 121.373ZM129.509 121.373C124.781 122.143 125.58 129.664 130.698 129.179C135.817 128.693 134.996 120.479 129.509 121.373ZM90.7938 158.136V135.606C90.7938 132.272 86.8531 128.207 83.7942 127.152C80.9475 126.169 69.1141 126.197 66.2339 127.152C63.1304 128.19 59.2287 132.233 59.2287 135.606V158.136H90.7938ZM53.965 155.506V140.871C53.965 139.095 51.0569 135.963 49.4382 135.204C47.0548 134.081 40.1221 134.07 37.6829 135.109C35.9581 135.84 32.9216 138.989 32.9216 140.871V155.506H53.965ZM117.095 155.506V140.871C117.095 139.095 114.187 135.963 112.568 135.204C110.185 134.081 103.252 134.07 100.813 135.109C99.0884 135.84 96.0519 138.989 96.0519 140.871V155.506H117.095ZM27.6635 152.876V141.2C27.6635 140.112 25.749 138.046 24.7052 137.582C22.7627 136.711 16.0143 136.75 14.1946 137.928C13.4522 138.409 11.8782 140.38 11.8782 141.2V152.876H27.658H27.6635ZM138.139 152.876V141.2C138.139 140.112 136.224 138.046 135.18 137.582C133.238 136.711 126.49 136.75 124.67 137.928C123.927 138.409 122.353 140.38 122.353 141.2V152.876H138.133H138.139Z" fill="url(#paint0_linear_2311_3153)"/>
<path d="M67.7743 12.5952C67.0543 16.6379 60.5347 16.9282 57.3308 17.9333C54.7687 18.7374 49.2818 21.4678 47.2221 21.6409C42.8683 22.015 41.2942 17.5704 39.0057 14.7338L27.3341 23.4445C29.2431 26.2531 32.6871 28.5983 31.6544 32.3785C31.1353 34.2826 26.8541 38.5821 25.414 40.609C23.879 42.7699 21.1495 48.5212 19.1065 49.4313C15.9472 50.844 12.6819 48.5547 9.57281 47.946L5.26923 61.5592C7.36799 62.7932 11.1078 62.8491 12.8549 64.5521C15.1714 66.808 13.882 70.0689 13.8261 72.7602C13.7703 75.4516 13.7815 78.0537 13.8261 80.6836C13.8541 82.3643 14.4067 84.0674 14.1778 85.9379C13.6531 90.2318 8.16619 90.4552 4.96223 91.6892L9.56164 105.029C9.53931 106.106 5.71578 106.598 4.82269 107.156C3.64492 102.879 1.55174 98.6186 0.524692 94.3136C-1.40661 86.2115 3.79005 87.3506 9.20999 84.5699C8.16619 79.176 8.57366 73.6648 8.91973 68.2207C5.38645 66.4618 0.00558181 66.8526 0 61.5871C0 59.8394 4.298 46.3714 5.28039 44.8024C6.11208 43.4678 7.87594 42.4125 9.43326 42.3734C10.9906 42.3343 16.3101 44.8582 16.9743 44.3557C19.6815 39.5592 22.7236 34.9303 26.6029 30.9993C24.0855 27.4592 19.6201 23.5506 23.9236 19.3739C26.0782 17.28 32.408 12.8689 35.1096 11.1602C36.4939 10.2836 37.8782 9.30641 39.6141 9.46834C43.3037 9.81453 45.8267 16.4257 47.1551 16.3084C47.7412 16.2526 52.1564 14.0638 53.3733 13.6394C56.2479 12.6455 59.1951 11.847 62.1925 11.2775C62.8512 10.814 62.3656 5.96732 62.5386 4.71656C62.9293 1.84093 65.19 0.43382 67.9195 0.232805C71.7932 -0.051967 78.5807 -0.102221 82.4154 0.232805C88.6782 0.785597 87.4223 6.80489 87.5339 11.3947C92.9427 12.3775 98.1952 14.0247 103.18 16.3196C105.2 14.8008 106.071 11.4115 108.438 10.1719C110.531 9.07748 111.686 9.33433 113.696 10.3785C116.085 11.6237 123.922 17.3079 125.948 19.1729C130.536 23.3887 125.769 27.5653 123.358 31.2785C127.288 35.148 130.62 39.6151 133.199 44.5064C136.486 44.0541 139.255 41.4354 142.632 42.943C144.586 43.814 145.021 45.277 145.702 47.1085C146.735 49.8948 150 59.147 150 61.5871C150 67.0034 144.167 66.445 140.79 68.5389C141.89 73.9831 141.326 79.5557 141.136 85.0613C144.29 86.2395 149.375 86.3623 149.944 90.5613C150.53 94.8887 145.909 102.561 145.367 107.145C144.429 106.737 140.466 106.062 140.444 105.029L144.714 91.3598C141.493 90.4496 136.33 90.1257 135.828 85.9379C135.588 83.9669 136.152 82.1298 136.179 80.3542C136.23 77.0207 135.923 73.7653 135.822 70.4877C135.593 62.6481 138.753 63.6252 145.043 61.4252L140.416 47.9572C136.911 48.214 134.259 50.9389 130.776 49.2191C128.666 48.175 126.735 43.7303 125.25 41.5917C123.632 39.2521 121.734 37.4039 120.059 35.2709C115.711 29.743 119.948 27.7384 122.677 22.9531L111.485 15.214C111.145 14.9963 110.86 14.9739 110.509 15.1973C109.761 15.6775 108.058 19.4074 106.875 20.4572C103.263 23.6567 97.637 19.5359 93.6739 18.246C91.1454 17.4252 85.0835 16.582 83.5541 14.8846C83.2527 14.5496 82.2368 12.8912 82.2368 12.5841V5.67697C82.2368 5.51504 81.6954 5.13534 81.4163 5.17443L67.7688 5.51504C67.5064 7.64804 68.126 10.5683 67.7688 12.5841L67.7743 12.5952Z" fill="url(#paint1_linear_2311_3153)"/>
<path d="M98.6814 81.8285H128.438C128.823 81.8285 130.247 83.2524 130.247 83.6377V110.775H124.988V87.094H98.687V105.515H93.4289V58.1534H56.6057V105.515H51.3476V87.094H25.0462V110.775H19.7881V83.6377C19.7881 83.2524 21.2114 81.8285 21.5966 81.8285H51.3532V54.6914C51.3532 54.0661 53.0055 52.6813 53.8148 52.8767C67.373 53.8148 82.5556 51.6595 95.924 52.8656C96.8673 52.9493 98.7037 53.6082 98.7037 54.6914V81.8285H98.6814Z" fill="url(#paint2_linear_2311_3153)"/>
<path d="M127.616 76.5684H122.358C122.274 44.0821 90.3796 21.1273 59.3894 31.8314C40.6121 38.3197 27.5228 56.6121 27.6679 76.5684H22.4099C22.2871 52.67 38.8706 31.3679 61.9849 25.5441C95.42 17.1238 127.582 42.2842 127.621 76.5684H127.616Z" fill="url(#paint3_linear_2311_3153)"/>
<path d="M71.0675 66.0432H63.1748V73.9386H71.0675V66.0432Z" fill="url(#paint4_linear_2311_3153)"/>
<path d="M86.8468 66.0432H78.9541V73.9386H86.8468V66.0432Z" fill="url(#paint5_linear_2311_3153)"/>
<path d="M71.0675 81.8281H63.1748V89.7236H71.0675V81.8281Z" fill="url(#paint6_linear_2311_3153)"/>
<path d="M86.8468 81.8281H78.9541V89.7236H86.8468V81.8281Z" fill="url(#paint7_linear_2311_3153)"/>
<path d="M35.551 94.9893H30.293V100.249H35.551V94.9893Z" fill="url(#paint8_linear_2311_3153)"/>
<path d="M46.0725 94.9893H40.8145V100.249H46.0725V94.9893Z" fill="url(#paint9_linear_2311_3153)"/>
<path d="M109.202 94.9893H103.944V100.249H109.202V94.9893Z" fill="url(#paint10_linear_2311_3153)"/>
<path d="M119.724 94.9893H114.466V100.249H119.724V94.9893Z" fill="url(#paint11_linear_2311_3153)"/>
<defs>
<linearGradient id="paint0_linear_2311_3153" x1="-25.1348" y1="18.1679" x2="104.099" y2="177.501" gradientUnits="userSpaceOnUse">
<stop stop-color="#24B0B3"/>
<stop offset="0.96" stop-color="#6449AC"/>
</linearGradient>
<linearGradient id="paint1_linear_2311_3153" x1="7.50754" y1="-8.30477" x2="136.742" y2="151.028" gradientUnits="userSpaceOnUse">
<stop stop-color="#24B0B3"/>
<stop offset="0.96" stop-color="#6449AC"/>
</linearGradient>
<linearGradient id="paint2_linear_2311_3153" x1="-3.32061" y1="0.478742" x2="125.914" y2="159.812" gradientUnits="userSpaceOnUse">
<stop stop-color="#24B0B3"/>
<stop offset="0.96" stop-color="#6449AC"/>
</linearGradient>
<linearGradient id="paint3_linear_2311_3153" x1="11.2909" y1="-11.3758" x2="140.525" y2="147.957" gradientUnits="userSpaceOnUse">
<stop stop-color="#24B0B3"/>
<stop offset="0.96" stop-color="#6449AC"/>
</linearGradient>
<linearGradient id="paint4_linear_2311_3153" x1="5.18538" y1="-6.42281" x2="134.42" y2="152.91" gradientUnits="userSpaceOnUse">
<stop stop-color="#24B0B3"/>
<stop offset="0.96" stop-color="#6449AC"/>
</linearGradient>
<linearGradient id="paint5_linear_2311_3153" x1="14.7075" y1="-14.1451" x2="143.942" y2="145.188" gradientUnits="userSpaceOnUse">
<stop stop-color="#24B0B3"/>
<stop offset="0.96" stop-color="#6449AC"/>
</linearGradient>
<linearGradient id="paint6_linear_2311_3153" x1="-2.53427" y1="-0.158201" x2="126.7" y2="159.175" gradientUnits="userSpaceOnUse">
<stop stop-color="#24B0B3"/>
<stop offset="0.96" stop-color="#6449AC"/>
</linearGradient>
<linearGradient id="paint7_linear_2311_3153" x1="6.98782" y1="-7.88053" x2="136.222" y2="151.453" gradientUnits="userSpaceOnUse">
<stop stop-color="#24B0B3"/>
<stop offset="0.96" stop-color="#6449AC"/>
</linearGradient>
<linearGradient id="paint8_linear_2311_3153" x1="-28.958" y1="21.2725" x2="100.276" y2="180.606" gradientUnits="userSpaceOnUse">
<stop stop-color="#24B0B3"/>
<stop offset="0.96" stop-color="#6449AC"/>
</linearGradient>
<linearGradient id="paint9_linear_2311_3153" x1="-22.6117" y1="16.1243" x2="106.622" y2="175.457" gradientUnits="userSpaceOnUse">
<stop stop-color="#24B0B3"/>
<stop offset="0.96" stop-color="#6449AC"/>
</linearGradient>
<linearGradient id="paint10_linear_2311_3153" x1="15.4782" y1="-14.7707" x2="144.712" y2="144.562" gradientUnits="userSpaceOnUse">
<stop stop-color="#24B0B3"/>
<stop offset="0.96" stop-color="#6449AC"/>
</linearGradient>
<linearGradient id="paint11_linear_2311_3153" x1="21.8301" y1="-19.9189" x2="151.059" y2="139.414" gradientUnits="userSpaceOnUse">
<stop stop-color="#24B0B3"/>
<stop offset="0.96" stop-color="#6449AC"/>
</linearGradient>
</defs>
</svg>
