<svg width="171" height="171" viewBox="0 0 171 171" fill="none" xmlns="http://www.w3.org/2000/svg">
<path d="M74.3701 2.82408C74.6137 1.68891 76.1288 0.434878 77.3291 0.280352C80.3356 -0.117848 90.389 -0.0881308 93.3837 0.345729C94.275 0.476481 95.9327 1.63542 95.9327 2.36645V16.3629H108.779C107.864 2.27135 126.408 2.12871 125.291 16.3629C132.225 15.0554 136.515 20.4816 142.13 23.6077C146.937 26.2882 152.677 28.7011 157.971 30.2464C160.312 30.9299 168.095 32.1601 169.325 33.1111C170.472 33.9966 170.532 35.2506 170.021 36.5522C167.769 38.3352 164.56 37.2595 161.987 36.7781C151.643 34.8524 142.166 30.0919 133.318 24.6181C132.932 25.8424 133.526 32.4157 131.488 32.4157H95.9387V48.0168H108.785C109.123 33.6043 126.016 34.579 125.297 48.4804C131.5 47.0243 134.631 51.1667 139.379 53.8947C147.044 58.3046 153.805 61.2822 162.451 63.3921C165.142 64.0518 170.953 63.6239 170.252 67.4989C169.658 70.7915 164.744 69.3294 162.439 68.9134C152.397 67.0829 141.613 62.1321 133.324 56.2839C132.528 58.8158 134.097 62.0132 131.952 64.0815H95.9446V168.457C95.9446 171.827 90.4425 171.328 90.4425 168.915V64.5391H79.89V168C79.89 168.131 78.963 170.318 78.868 170.413C77.1924 172.124 74.3879 169.717 74.3879 168V64.7709L73.6986 64.0815H38.3808C36.5923 62.245 37.5192 59.5824 37.234 57.4191C37.1509 56.7832 37.4836 56.6227 36.5507 56.7475C28.4521 62.1024 19.2483 66.3578 9.7118 68.4439C7.82231 68.8599 1.58347 70.5419 0.496123 68.8243C-0.567453 66.2508 0.0386068 64.8601 2.70646 64.1944C13.0154 61.621 18.7136 60.8008 28.357 55.4459C31.316 53.7996 36.4438 49.5977 39.0582 48.7181C41.2626 47.9752 42.9203 48.7419 45.0475 48.2724C45.0475 43.595 46.2833 39.3515 51.2388 37.9667C58.0243 36.0708 61.1496 42.0735 61.0724 48.0287H74.376V32.4276H39.2839C36.2239 32.4276 37.6084 24.6062 36.9845 24.624C28.1669 30.1929 18.6898 34.8524 8.32737 36.7899C6.43789 37.1465 0.876396 38.6086 0.157442 36.2313C-1.22105 31.6906 7.72725 31.6371 10.9655 30.71C18.8086 28.4693 25.8259 25.0282 32.7777 20.8679C34.5959 19.7803 36.8538 17.4921 38.8027 16.8027C40.9833 16.0301 42.8965 16.6422 45.0475 16.1668C45.8199 15.6259 44.6434 10.0214 48.4521 7.18645C54.8811 2.40211 62.7242 9.0051 61.0724 16.3688H74.376C74.9464 12.5116 73.6095 6.38411 74.376 2.83597L74.3701 2.82408ZM90.4247 5.80761H80.5614L79.8721 6.49703V15.6735L80.5614 16.3629H89.7355L90.4247 15.6735V5.80761ZM56.0278 16.3629C56.0516 14.8295 56.313 12.785 54.8335 11.8222C51.3101 10.2413 49.9435 13.1595 50.5198 16.3629H56.0278ZM114.786 16.3094L119.581 15.935C120.977 9.29631 112.641 10.0214 114.786 16.3094ZM127.579 21.8664H42.7242V26.9122H127.579V21.8664ZM90.4247 32.4157H79.8721V48.0168H90.4247V32.4157ZM56.0278 48.0168C57.0736 41.7645 49.48 41.7466 50.5198 48.0168H56.0278ZM119.213 43.9992C116.004 42.1686 113.223 44.647 114.804 47.9455L119.783 48.0109L119.213 43.9932V43.9992ZM127.579 53.9839H42.7242V59.0297H127.579V53.9839Z" fill="url(#paint0_linear_2311_3200)"/>
<path d="M45.475 88.3894H52.5873L53.2052 87.6287C52.8784 83.7655 54.0252 82.6244 57.8933 83.5397L58.5231 87.9556C59.2124 88.9362 62.9973 87.4623 63.7459 90.0951C64.2153 91.7533 62.9497 93.8929 61.3039 93.8929H45.4809V103.985H53.2765C52.2011 97.2865 59.5629 96.817 58.3211 103.985C60.9592 103.759 64.8214 104.222 63.74 107.788C63.6211 108.175 62.3615 109.488 62.2248 109.488H45.4809V168.445C45.4809 171.156 39.9789 171.399 39.9789 169.361V109.946H34.4768V169.361C34.4768 171.269 28.9747 171.506 28.9747 167.982V109.482H12.2308C12.1061 109.482 10.8048 108.151 10.6979 107.776C9.45604 103.444 15.784 103.824 18.4222 103.979C18.0359 100.46 19.6521 97.6491 23.3598 99.4974L23.9242 103.979H28.9747V93.881H13.1518C12.9795 93.881 11.1197 92.8528 10.9296 92.4011C8.74897 87.2721 15.3681 88.3954 18.4281 88.3775C17.3764 81.5428 24.5897 80.7523 23.9302 87.9199H28.9747V80.3482C28.9747 77.9055 31.9753 77.4835 33.7697 77.3468C36.4019 77.1447 45.4869 76.4494 45.4869 80.3482V88.3775L45.475 88.3894ZM39.9729 83.3436H34.9224V87.9377H39.9729V83.3436ZM39.5095 93.8988H34.9224V103.991H39.5095V93.8988Z" fill="url(#paint1_linear_2311_3200)"/>
<path d="M140.882 87.932H146.39C146.444 86.1609 145.772 83.7955 148.006 83.3557C152.082 82.5533 151.773 85.1803 151.892 88.3897C152.261 88.776 161.815 86.9098 159.456 92.0507C159.183 92.651 157.228 93.8931 156.711 93.8931H141.346V103.985H146.39C146.247 97.1322 151.809 97.049 151.94 103.937C154.566 103.896 160.864 103.426 159.616 107.783C159.509 108.157 158.208 109.488 158.083 109.488H140.882V169.361L138.363 170.93C137.501 171.055 135.838 169.551 135.838 168.897V109.94H130.335V168.897C130.335 171.483 125.291 171.043 125.291 169.355V109.482H108.089C107.965 109.482 106.669 108.151 106.562 107.777C105.63 104.597 109.1 103.64 111.53 103.979C110.781 97.2035 117.959 97.0847 117.032 103.979H124.827V93.8872H109.005C108.886 93.8872 107.032 92.8649 106.907 92.6629C104.887 89.5486 108.707 87.5814 111.53 88.3837C110.181 81.6619 118.244 81.0735 117.032 87.9201H125.291V78.9755C125.291 78.6664 126.455 77.9592 126.865 77.7928C128.713 77.0499 140.888 76.7824 140.888 78.9755V87.9201L140.882 87.932ZM135.838 83.3438H130.329L130.532 87.9617L135.404 88.1935L135.838 83.3438ZM135.838 93.8991H130.335V103.991H135.838V93.8991Z" fill="url(#paint2_linear_2311_3200)"/>
<defs>
<linearGradient id="paint0_linear_2311_3200" x1="39.3077" y1="-10.9643" x2="163.871" y2="157.878" gradientUnits="userSpaceOnUse">
<stop stop-color="#24B0B3"/>
<stop offset="0.96" stop-color="#6449AC"/>
</linearGradient>
<linearGradient id="paint1_linear_2311_3200" x1="-23.1523" y1="35.1138" x2="101.41" y2="203.956" gradientUnits="userSpaceOnUse">
<stop stop-color="#24B0B3"/>
<stop offset="0.96" stop-color="#6449AC"/>
</linearGradient>
<linearGradient id="paint2_linear_2311_3200" x1="38.9392" y1="-10.6908" x2="163.502" y2="158.151" gradientUnits="userSpaceOnUse">
<stop stop-color="#24B0B3"/>
<stop offset="0.96" stop-color="#6449AC"/>
</linearGradient>
</defs>
</svg>
