<svg width="160" height="160" viewBox="0 0 160 160" fill="none" xmlns="http://www.w3.org/2000/svg">
<path d="M122.68 127.855H131.519C131.666 127.855 133.355 129.738 133.355 130.022V138.53C135.738 138.409 137.685 138.167 138.621 140.766C138.39 145.995 139.168 151.904 138.705 157.06C138.305 161.521 133.35 159.769 133.35 158.043V143.865H90.6517V158.043C90.6517 159.874 85.8695 161.121 85.3329 157.691C85.9958 149.247 84.3807 139.282 85.3119 131.022C85.4276 129.996 86.3536 127.855 87.4794 127.855H117.335C117.425 126.15 116.857 124.251 118.33 123.009C124.427 116.717 136.917 110.672 141.436 103.416C146.802 94.7986 150.295 81.3299 154.714 71.9913L154.488 47.7582C146.565 43.7124 145.208 53.8717 144.403 59.3434C144.171 60.9112 144.455 64.552 143.377 65.6568C141.557 67.5193 138.737 65.8041 138.679 63.2945C138.584 59.3749 140.11 51.0465 141.972 47.5741C145.976 40.1032 155.819 38.9878 159.965 46.706L159.886 74.4956C155.446 83.6396 152.157 93.6148 147.759 102.732C142.604 113.428 131.624 118.4 122.991 126.003L122.68 127.86V127.855ZM128.02 133.195H90.657V138.535H128.02V133.195Z" fill="url(#paint0_linear_2311_3128)"/>
<path d="M37.2843 127.855L36.9739 125.998C31.25 121.015 24.1793 116.722 18.5975 111.682C9.57492 103.527 6.21318 85.0972 0.078913 74.4907L0 46.701C2.24642 41.503 8.94361 40.1403 13.71 42.8446C18.8552 45.7645 20.3967 53.8615 20.9386 59.3016C21.1069 60.9694 21.5804 64.0209 20.6177 65.3099C19.6549 66.5989 17.7031 66.7883 16.593 65.6466C15.483 64.5049 15.7986 60.9063 15.5671 59.3332C14.7622 53.8615 13.4049 43.7074 5.48191 47.748L5.42404 73.4805C11.2689 83.3137 14.2098 100.434 22.6116 108.005C28.4565 113.271 35.7797 117.643 41.6404 123.004C43.1135 124.246 42.5453 126.145 42.6347 127.85H72.4906C73.6164 127.85 74.5424 129.991 74.6581 131.017C75.5946 139.277 73.9794 149.242 74.6371 157.686C74.1004 161.116 69.3182 159.869 69.3182 158.039V143.86H26.6204V158.039C26.6204 159.764 21.6646 161.516 21.2648 157.055C20.8018 151.904 21.5804 145.996 21.3489 140.761C22.2854 138.162 24.2319 138.404 26.6151 138.525V130.017C26.6151 129.733 28.3039 127.85 28.4512 127.85H37.2896L37.2843 127.855ZM69.3077 133.195H31.9445V138.535H69.3077V133.195Z" fill="url(#paint1_linear_2311_3128)"/>
<path d="M60.4692 63.8052C59.0435 63.5 58.086 61.1798 58.8961 59.8961L86.1531 16.4281C88.026 14.8392 90.8038 16.1124 90.6723 18.5852L85.0694 46.3696C84.0908 48.5161 80.5397 48.1899 80.0504 45.8803C79.6295 43.8968 81.8707 36.5153 82.2337 33.8584C82.2811 33.4954 82.602 32.7062 81.9917 32.7852L66.3088 58.4703H78.1512C78.9667 58.4703 79.9715 60.1013 80.0083 60.9746C80.1241 63.6736 78.1617 69.3084 77.7409 72.4072C77.6935 72.7703 77.3726 73.5594 77.9829 73.4805L96.6592 43.2865C98.6373 41.403 101.704 42.813 101.331 45.6014L73.9793 89.664C72.3379 91.3686 69.3917 90.4216 69.2918 87.9909L73.9845 63.8104H60.4744L60.4692 63.8052Z" fill="url(#paint2_linear_2311_3128)"/>
<path d="M43.1826 102.733C42.1514 103.68 40.6363 103.638 39.6051 102.685L15.9361 78.9889C13.5319 76.3793 18.7086 72.8648 20.813 71.8547C27.5733 68.6138 33.9864 71.0866 39.2895 75.6428C43.0089 78.8363 48.191 85.8232 51.7895 88.1591C53.6571 89.3692 57.324 90.1584 59.7335 91.5579C68.0458 96.3824 74.0117 105.674 74.6588 115.333C74.8272 117.88 75.3953 122.694 71.8179 122.541C68.2404 122.388 69.5294 118.006 69.3032 115.686C68.4141 106.494 62.6218 98.1081 53.957 94.6725C52.6049 94.1359 50.7215 93.9675 49.6377 93.3204C46.5864 91.4895 40.6836 84.0291 37.4586 81.146C33.05 77.2106 27.6049 73.2384 21.9441 77.6525L43.8033 99.818C44.1874 100.744 43.9191 102.059 43.1826 102.733Z" fill="url(#paint3_linear_2311_3128)"/>
<path d="M130.272 70.5657C134.854 69.9396 139.284 71.2286 142.698 74.3116C144.161 75.6322 145.613 77.0632 144.029 78.9836L120.36 102.68C118.009 104.748 114.784 101.991 116.325 99.3128L138.021 77.6472C132.361 73.2331 126.916 77.2053 122.507 81.1407C119.282 84.0185 113.379 91.4789 110.328 93.3151C109.249 93.9622 107.361 94.1306 106.009 94.6672C97.3596 98.0975 91.5516 106.494 90.6625 115.68C90.452 117.859 91.6094 122.11 88.4581 122.509C84.5387 123.009 85.1332 117.885 85.3068 115.328C85.9486 105.663 91.9251 96.3718 100.232 91.5526C102.642 90.1531 106.314 89.3692 108.176 88.1538C111.727 85.8442 116.846 78.952 120.508 75.7953C122.975 73.6698 127.021 70.9971 130.277 70.5499L130.272 70.5657Z" fill="url(#paint4_linear_2311_3128)"/>
<path d="M130.572 50.2259C133.812 50.0522 134.581 55.6659 130.845 55.8238C126.973 55.9869 127.299 50.4047 130.572 50.2259Z" fill="url(#paint5_linear_2311_3128)"/>
<path d="M112.911 12.8346C116.998 11.9086 117.614 17.4644 114.089 18.0431C111.064 18.543 109.744 13.5553 112.911 12.8346Z" fill="url(#paint6_linear_2311_3128)"/>
<path d="M128.588 39.8559C132.591 38.6458 133.538 44.3595 130.108 45.0697C126.678 45.78 125.926 40.6661 128.588 39.8559Z" fill="url(#paint7_linear_2311_3128)"/>
<path d="M47.8534 13.5397C50.3366 15.8125 46.8223 19.8479 44.1129 17.4435C41.6139 15.2233 45.2493 11.1564 47.8534 13.5397Z" fill="url(#paint8_linear_2311_3128)"/>
<path d="M122.917 25.0141C120.802 27.5184 116.441 24.1513 119.008 21.2629C121.26 18.727 125.132 22.3835 122.917 25.0141Z" fill="url(#paint9_linear_2311_3128)"/>
<path d="M40.8461 21.5419C43.2293 24.1462 39.1626 27.7817 36.9424 25.2826C34.5382 22.5731 38.5733 19.0586 40.8461 21.5419Z" fill="url(#paint10_linear_2311_3128)"/>
<path d="M28.3827 61.9056C30.6081 59.4802 34.8011 62.8158 32.2864 65.6463C30.0189 68.1927 26.0732 64.4257 28.3827 61.9056Z" fill="url(#paint11_linear_2311_3128)"/>
<path d="M63.2106 2.491C68.119 1.37562 67.7981 8.30462 63.7051 7.52596C60.8852 6.98932 60.9589 3.00133 63.2106 2.491Z" fill="url(#paint12_linear_2311_3128)"/>
<path d="M29.5185 40.1877C33.501 39.3249 34.1955 44.9333 30.7022 45.3963C27.5562 45.812 26.4198 40.8612 29.5185 40.1877Z" fill="url(#paint13_linear_2311_3128)"/>
<path d="M27.3679 51.2202C29.7774 48.8159 33.6968 52.8459 31.119 55.1398C28.5411 57.4337 24.9637 53.6246 27.3679 51.2202Z" fill="url(#paint14_linear_2311_3128)"/>
<path d="M76.5476 0.849444C78.7361 3.43795 75.0272 7.06292 72.6282 4.60594C70.0188 1.93325 74.4222 -1.66015 76.5476 0.849444Z" fill="url(#paint15_linear_2311_3128)"/>
<path d="M84.2225 0.160298C88.1419 -0.739367 89.0468 4.62179 85.664 5.29523C82.1602 5.99497 81.55 0.775858 84.2225 0.160298Z" fill="url(#paint16_linear_2311_3128)"/>
<path d="M104.578 6.4844C108.05 5.76361 109.155 11.0038 105.757 11.7088C102.253 12.4348 101.379 7.15257 104.578 6.4844Z" fill="url(#paint17_linear_2311_3128)"/>
<path d="M52.7255 7.19453C55.5717 4.90591 59.1333 9.53577 56.1556 11.4561C53.1779 13.3764 50.3633 9.09382 52.7255 7.19453Z" fill="url(#paint18_linear_2311_3128)"/>
<path d="M125.253 29.8439C128.999 28.7127 130.361 33.9634 126.947 34.8999C123.532 35.8364 122.443 30.6909 125.253 29.8439Z" fill="url(#paint19_linear_2311_3128)"/>
<path d="M32.5119 30.1807C36.4839 28.9917 37.6729 34.2739 34.2059 35.2367C31.0494 36.1101 29.7394 31.0067 32.5119 30.1807Z" fill="url(#paint20_linear_2311_3128)"/>
<path d="M128.589 61.2059C133.176 59.8432 133.75 67.2878 128.589 66.0672C126.279 65.5201 126.595 61.7951 128.589 61.2059Z" fill="url(#paint21_linear_2311_3128)"/>
<path d="M95.2388 2.15935C98.7162 1.81737 98.9109 6.88917 96.1489 7.42581C92.4294 8.1466 91.6455 2.51711 95.2388 2.15935Z" fill="url(#paint22_linear_2311_3128)"/>
<defs>
<linearGradient id="paint0_linear_2311_3128" x1="22.028" y1="-30.7231" x2="147.846" y2="135.678" gradientUnits="userSpaceOnUse">
<stop stop-color="#24B0B3"/>
<stop offset="0.96" stop-color="#6449AC"/>
</linearGradient>
<linearGradient id="paint1_linear_2311_3128" x1="-43.6816" y1="18.964" x2="82.1415" y2="185.359" gradientUnits="userSpaceOnUse">
<stop stop-color="#24B0B3"/>
<stop offset="0.96" stop-color="#6449AC"/>
</linearGradient>
<linearGradient id="paint2_linear_2311_3128" x1="18.5605" y1="-28.0974" x2="144.378" y2="138.298" gradientUnits="userSpaceOnUse">
<stop stop-color="#24B0B3"/>
<stop offset="0.96" stop-color="#6449AC"/>
</linearGradient>
<linearGradient id="paint3_linear_2311_3128" x1="-22.8108" y1="3.18028" x2="103.012" y2="169.581" gradientUnits="userSpaceOnUse">
<stop stop-color="#24B0B3"/>
<stop offset="0.96" stop-color="#6449AC"/>
</linearGradient>
<linearGradient id="paint4_linear_2311_3128" x1="18.961" y1="-28.4027" x2="144.779" y2="137.998" gradientUnits="userSpaceOnUse">
<stop stop-color="#24B0B3"/>
<stop offset="0.96" stop-color="#6449AC"/>
</linearGradient>
<linearGradient id="paint5_linear_2311_3128" x1="50.8315" y1="-52.499" x2="176.649" y2="113.896" gradientUnits="userSpaceOnUse">
<stop stop-color="#24B0B3"/>
<stop offset="0.96" stop-color="#6449AC"/>
</linearGradient>
<linearGradient id="paint6_linear_2311_3128" x1="58.2389" y1="-58.1022" x2="184.057" y2="108.299" gradientUnits="userSpaceOnUse">
<stop stop-color="#24B0B3"/>
<stop offset="0.96" stop-color="#6449AC"/>
</linearGradient>
<linearGradient id="paint7_linear_2311_3128" x1="55.2974" y1="-55.8769" x2="181.115" y2="110.524" gradientUnits="userSpaceOnUse">
<stop stop-color="#24B0B3"/>
<stop offset="0.96" stop-color="#6449AC"/>
</linearGradient>
<linearGradient id="paint8_linear_2311_3128" x1="15.0356" y1="-25.4353" x2="140.859" y2="140.965" gradientUnits="userSpaceOnUse">
<stop stop-color="#24B0B3"/>
<stop offset="0.96" stop-color="#6449AC"/>
</linearGradient>
<linearGradient id="paint9_linear_2311_3128" x1="59.0069" y1="-58.6863" x2="184.83" y2="107.714" gradientUnits="userSpaceOnUse">
<stop stop-color="#24B0B3"/>
<stop offset="0.96" stop-color="#6449AC"/>
</linearGradient>
<linearGradient id="paint10_linear_2311_3128" x1="6.71829" y1="-19.1482" x2="132.541" y2="147.252" gradientUnits="userSpaceOnUse">
<stop stop-color="#24B0B3"/>
<stop offset="0.96" stop-color="#6449AC"/>
</linearGradient>
<linearGradient id="paint11_linear_2311_3128" x1="-18.103" y1="-0.381714" x2="107.72" y2="166.019" gradientUnits="userSpaceOnUse">
<stop stop-color="#24B0B3"/>
<stop offset="0.96" stop-color="#6449AC"/>
</linearGradient>
<linearGradient id="paint12_linear_2311_3128" x1="31.7133" y1="-38.0413" x2="157.531" y2="128.354" gradientUnits="userSpaceOnUse">
<stop stop-color="#24B0B3"/>
<stop offset="0.96" stop-color="#6449AC"/>
</linearGradient>
<linearGradient id="paint13_linear_2311_3128" x1="-8.00786" y1="-8.01011" x2="117.81" y2="158.391" gradientUnits="userSpaceOnUse">
<stop stop-color="#24B0B3"/>
<stop offset="0.96" stop-color="#6449AC"/>
</linearGradient>
<linearGradient id="paint14_linear_2311_3128" x1="-13.7569" y1="-3.65931" x2="112.061" y2="162.736" gradientUnits="userSpaceOnUse">
<stop stop-color="#24B0B3"/>
<stop offset="0.96" stop-color="#6449AC"/>
</linearGradient>
<linearGradient id="paint15_linear_2311_3128" x1="39.3685" y1="-43.8339" x2="165.192" y2="122.561" gradientUnits="userSpaceOnUse">
<stop stop-color="#24B0B3"/>
<stop offset="0.96" stop-color="#6449AC"/>
</linearGradient>
<linearGradient id="paint16_linear_2311_3128" x1="46.1017" y1="-48.9267" x2="171.925" y2="117.474" gradientUnits="userSpaceOnUse">
<stop stop-color="#24B0B3"/>
<stop offset="0.96" stop-color="#6449AC"/>
</linearGradient>
<linearGradient id="paint17_linear_2311_3128" x1="55.7881" y1="-56.2449" x2="181.606" y2="110.151" gradientUnits="userSpaceOnUse">
<stop stop-color="#24B0B3"/>
<stop offset="0.96" stop-color="#6449AC"/>
</linearGradient>
<linearGradient id="paint18_linear_2311_3128" x1="23.4588" y1="-31.8015" x2="149.277" y2="134.594" gradientUnits="userSpaceOnUse">
<stop stop-color="#24B0B3"/>
<stop offset="0.96" stop-color="#6449AC"/>
</linearGradient>
<linearGradient id="paint19_linear_2311_3128" x1="58.0126" y1="-57.9287" x2="183.831" y2="108.472" gradientUnits="userSpaceOnUse">
<stop stop-color="#24B0B3"/>
<stop offset="0.96" stop-color="#6449AC"/>
</linearGradient>
<linearGradient id="paint20_linear_2311_3128" x1="-1.06346" y1="-13.261" x2="124.754" y2="153.134" gradientUnits="userSpaceOnUse">
<stop stop-color="#24B0B3"/>
<stop offset="0.96" stop-color="#6449AC"/>
</linearGradient>
<linearGradient id="paint21_linear_2311_3128" x1="45.0448" y1="-48.1271" x2="170.863" y2="118.274" gradientUnits="userSpaceOnUse">
<stop stop-color="#24B0B3"/>
<stop offset="0.96" stop-color="#6449AC"/>
</linearGradient>
<linearGradient id="paint22_linear_2311_3128" x1="51.6991" y1="-53.1569" x2="177.517" y2="113.244" gradientUnits="userSpaceOnUse">
<stop stop-color="#24B0B3"/>
<stop offset="0.96" stop-color="#6449AC"/>
</linearGradient>
</defs>
</svg>
