<svg width="179" height="151" viewBox="0 0 179 151" fill="none" xmlns="http://www.w3.org/2000/svg">
<path d="M109.067 0.0182911C112.538 0.0182911 116.008 0.00783919 119.473 0.0182911C122.08 0.028743 123.037 0.979869 123.063 3.63988C123.094 7.23535 123.141 10.836 123.047 14.4315C122.995 16.339 123.789 16.9556 125.587 16.7675C126.664 16.6578 127.766 16.7205 128.859 16.7518C131.09 16.8093 131.331 16.5898 131.32 14.421C131.315 13.3915 131.263 12.362 131.357 11.3377C131.54 9.31528 132.428 8.44777 134.471 8.43732C141.73 8.40074 148.99 8.39551 156.249 8.43732C158.417 8.44777 159.196 9.28915 159.374 11.5102C159.828 17.2013 160.299 22.8923 160.686 28.5939C160.79 30.1355 161.433 30.7626 162.964 30.7417C166.946 30.6947 170.929 30.6999 174.911 30.7522C175.784 30.7626 176.703 30.9194 177.508 31.2434C178.752 31.7451 179.275 32.9262 178.815 34.0864C178.491 34.9016 177.592 35.5601 176.818 36.1036C176.395 36.4015 175.705 36.3962 175.136 36.3962C171.613 36.3753 168.086 36.3962 164.568 36.2394C161.736 36.114 161.292 36.4851 161.522 39.2757C162.577 51.9382 163.643 64.5955 164.663 77.2633C165.394 86.346 166.047 95.434 166.779 104.517C166.831 105.186 167.025 106.121 167.485 106.429C170.019 108.117 172.648 109.659 175.261 111.222C175.575 111.41 176.019 111.357 176.385 111.472C178.297 112.079 179.212 113.406 178.851 115.031C178.533 116.468 176.829 117.383 174.974 117.012C171.368 116.291 168.263 114.551 165.436 112.246C162.295 109.685 158.637 108.389 154.676 109.225C152.251 109.737 149.779 110.84 147.756 112.272C143.507 115.282 139.164 117.467 133.766 117.341C129.104 117.231 125.033 115.716 121.558 112.826C115.302 107.626 107.865 108.143 102.07 112.836C94.2933 119.128 84.834 118.919 76.8695 112.857C70.0233 107.647 64.3007 107.652 57.4336 112.883C49.2757 119.097 39.8897 118.998 31.9617 112.617C25.889 107.731 18.3582 107.903 12.4788 113.087C9.9912 115.282 7.01755 116.411 3.83486 117.049C2.0998 117.399 0.531976 116.484 0.124341 115.052C-0.298972 113.563 0.500619 112.005 2.37678 111.619C5.72671 110.929 8.39724 109.105 10.9005 106.999C11.7001 106.33 12.4422 105.175 12.552 104.167C13.801 92.9412 14.9089 81.7001 16.09 70.4643C17.0621 61.2091 18.0812 51.9592 19.0741 42.704C19.2257 41.2982 19.3093 39.8872 19.4975 38.4866C19.7013 36.9711 19.095 36.391 17.5795 36.4119C13.7279 36.4642 9.871 36.4433 6.01414 36.4119C4.8644 36.4015 3.70944 36.276 2.5597 36.1767C0.960516 36.0356 0.0825309 35.095 0.0511744 33.5429C0.0198178 31.9542 1.02323 31.0866 2.52312 30.8306C3.21296 30.7156 3.93416 30.7313 4.63968 30.7313C9.13935 30.7208 13.6338 30.6633 18.1282 30.7574C19.7901 30.794 20.4643 30.0833 20.6158 28.5573C21.0966 23.7024 21.5931 18.8527 22.0844 13.9977C22.168 13.1668 22.1837 12.3254 22.3404 11.5102C22.8317 8.93901 23.4432 8.43209 26.1137 8.42164C32.0244 8.40074 37.9351 8.40074 43.8458 8.42164C46.8351 8.43209 47.7445 9.28393 47.5459 12.2418C47.1957 17.4312 47.9849 16.9347 52.0926 16.778C55.8815 16.6369 55.9651 16.6316 55.9703 12.8271C55.9703 9.74381 55.9442 6.66049 55.986 3.57717C56.0226 0.802186 56.8326 0.0130649 59.5659 0.00783895C66.4382 -0.00261298 73.3157 -0.00261298 80.188 0.00783895C83.0049 0.00783895 83.8672 0.802186 83.9299 3.66079C84.0031 7.19354 83.9404 10.7263 83.9613 14.259C83.9717 16.6578 84.0763 16.7466 86.4698 16.7518C88.6543 16.7571 90.8388 16.6943 93.0233 16.7727C94.6539 16.8302 95.1399 16.1195 95.1033 14.5674C95.0092 11.0346 95.0092 7.50187 95.0458 3.96912C95.0772 0.723797 95.8454 0.00783982 99.049 0.00261386C102.388 0.00261386 105.728 0.00261386 109.073 0.00261386L109.067 0.0182911ZM81.0869 51.771C81.0869 52.5392 81.0869 53.2918 81.0869 54.0391C81.0869 67.9767 81.0869 81.9144 81.0869 95.8572C81.0869 96.6882 81.1183 97.54 80.9667 98.3553C80.695 99.8029 79.8013 100.571 78.2596 100.529C76.3625 100.472 75.61 99.4841 75.6048 96.8815C75.5995 76.1345 75.6048 55.3874 75.6048 34.6403C75.6048 31.3009 76.1535 30.7522 79.5714 30.7417C85.9942 30.7261 92.4171 30.7313 98.8452 30.7417C102.948 30.7417 103.408 31.2068 103.408 35.257C103.408 57.6084 103.408 79.9651 103.408 102.317C103.408 104.893 103.622 105.034 106.005 104.276C110.17 102.949 114.403 102.761 118.427 104.517C120.978 105.63 123.303 107.286 125.645 108.833C127.338 109.952 128.953 111.117 131.148 111.112V51.839C128.315 52.2884 125.613 53.0618 122.917 53.0514C120.225 53.0461 117.534 52.257 114.586 51.771C114.586 52.5288 114.586 53.2813 114.586 54.0391C114.586 67.2085 114.586 80.3727 114.586 93.5422C114.586 94.1849 114.638 94.8382 114.534 95.4653C114.288 96.9129 113.426 97.7334 111.905 97.749C109.992 97.77 109.104 96.683 109.104 94.232C109.099 74.5144 109.104 54.7916 109.104 35.0741C109.104 31.2278 109.585 30.747 113.447 30.7417C118.521 30.7313 123.596 30.7417 128.67 30.7417C131.189 30.7417 131.32 30.5902 131.31 28.1601C131.304 26.8745 131.273 25.5889 131.346 24.3086C131.414 23.0857 130.839 22.5056 129.695 22.4168C128.927 22.3593 128.153 22.3645 127.385 22.3645C102.587 22.3645 77.7945 22.3645 52.9967 22.3645C46.5843 22.3645 47.6765 21.9308 47.5981 27.8466C47.5616 30.6895 47.6504 30.747 50.5509 30.747C55.7561 30.747 60.956 30.7208 66.1612 30.7626C69.1923 30.7888 69.8456 31.5047 69.8979 34.5724C69.9083 35.2779 69.8979 35.9834 69.8979 36.6941C69.8979 57.8279 69.8979 78.9617 69.8979 100.096C69.8979 100.738 69.7097 101.47 69.9554 102.003C70.2742 102.703 70.8438 103.649 71.4657 103.795C74.8679 104.59 77.7788 106.236 80.4598 108.4C84.8915 111.979 89.7466 112.716 95.0615 110.568C96.9324 109.811 97.8522 108.724 97.8418 106.534C97.7634 88.9329 97.8 71.3318 97.7947 53.736C97.7947 53.0566 97.732 52.3772 97.7059 51.8442C94.8106 52.3041 92.1088 53.0775 89.4121 53.0723C86.7207 53.0671 84.0344 52.2832 81.0817 51.7971L81.0869 51.771ZM137.111 110.992C137.351 111.175 137.591 111.357 137.832 111.54C139.666 110.459 141.652 109.57 143.304 108.258C147.72 104.757 152.585 102.834 158.266 103.451C160.952 103.743 161.03 103.79 160.816 101.068C159.745 87.5793 158.637 74.0963 157.566 60.6081C156.39 45.7768 155.219 30.9455 154.122 16.109C154.007 14.536 153.474 13.9664 151.916 13.9977C147.939 14.0657 143.957 14.0186 139.975 14.0186C137.189 14.0186 136.912 14.2434 136.922 17.0967C136.933 20.6243 137.1 24.1518 137.105 27.6793C137.121 54.5774 137.116 81.4754 137.116 108.373V110.997L137.111 110.992ZM41.8913 27.8413C41.9592 27.8413 42.0271 27.8413 42.0951 27.8413C42.0951 23.9898 42.0794 20.133 42.1003 16.2815C42.1107 14.7085 41.5202 13.9403 39.806 13.9925C36.5972 14.0866 33.378 14.1232 30.1744 13.9768C28.2198 13.888 27.5718 14.6928 27.4463 16.5062C27.2007 19.9606 26.8401 23.4097 26.4795 26.8536C25.4552 36.6784 24.4048 46.5032 23.3595 56.3281C22.5808 63.6653 21.776 70.9973 21.0026 78.3346C20.1821 86.1213 19.3982 93.908 18.5724 101.689C18.4313 103.033 18.6717 103.775 20.2918 103.545C26.051 102.724 31.0105 104.579 35.4684 108.154C36.6077 109.068 37.8567 109.905 39.1737 110.516C41.6247 111.65 41.8756 111.436 41.8808 108.744C41.8808 81.7785 41.8808 54.8125 41.8808 27.8413H41.8913ZM47.5877 51.3268C47.5877 52.5654 47.5877 53.3179 47.5877 54.0757C47.5877 65.9543 47.5877 77.8381 47.5877 89.7167C47.5877 96.2022 47.5825 102.688 47.5877 109.178C47.5877 111.378 47.8856 111.64 49.9238 110.662C51.5229 109.899 52.9287 108.734 54.4913 107.882C56.9999 106.513 59.4875 105.029 62.1476 104.031C63.684 103.456 64.3269 102.881 64.3216 101.245C64.285 85.2538 64.3007 69.2623 64.2903 53.2709C64.2903 52.7274 64.1858 52.1839 64.1021 51.3477C58.6304 53.7046 53.3155 53.5792 47.5825 51.3268H47.5877ZM69.9188 16.7675C72.0981 16.7675 74.2826 16.7257 76.4618 16.7832C77.784 16.8198 78.3171 16.2867 78.291 14.9645C78.2439 12.4613 78.2492 9.95808 78.291 7.46007C78.3119 6.26855 77.8572 5.63098 76.6343 5.63098C72.1451 5.63098 67.6507 5.63098 63.1614 5.63098C62.0692 5.63098 61.5361 6.13267 61.5518 7.28761C61.5884 9.91627 61.5884 12.5502 61.5518 15.1788C61.5361 16.3338 62.0535 16.7884 63.1771 16.7727C65.4243 16.7414 67.6663 16.7623 69.9136 16.7675H69.9188ZM108.869 16.7623C111.116 16.7623 113.363 16.7205 115.605 16.778C116.818 16.8093 117.377 16.3703 117.361 15.1161C117.325 12.5502 117.319 9.9842 117.361 7.41826C117.387 6.07518 116.765 5.59962 115.496 5.60485C111.194 5.63098 106.899 5.63098 102.598 5.60485C101.328 5.59439 100.69 6.08041 100.706 7.41303C100.737 9.91627 100.747 12.4195 100.706 14.9175C100.68 16.3494 101.333 16.8302 102.707 16.7832C104.756 16.71 106.815 16.7623 108.869 16.7623ZM123.073 36.344C120.894 36.344 118.71 36.4067 116.53 36.3178C115.224 36.2656 114.581 36.7255 114.591 38.0424C114.597 39.3907 114.377 40.786 114.654 42.0716C114.905 43.2318 115.433 44.5958 116.295 45.3222C119.697 48.186 126.162 48.2174 129.616 45.4476C130.421 44.7996 131.095 43.6394 131.268 42.6204C131.534 41.063 131.299 39.4221 131.299 37.8177C131.299 36.6628 130.782 36.2708 129.616 36.3178C127.437 36.4067 125.253 36.344 123.073 36.344ZM56.0801 36.3178C56.0801 36.3544 56.0801 36.391 56.0801 36.4276C55.0505 36.4276 54.0262 36.4276 52.9967 36.4276C47.4988 36.4276 47.4152 36.4276 47.6556 42.0455C47.7027 43.1691 48.3507 44.5801 49.1973 45.296C52.6988 48.2383 59.1687 48.2278 62.6754 45.3483C63.4332 44.7264 64.0656 43.6237 64.2223 42.6569C64.4784 41.0944 64.285 39.4586 64.2955 37.849C64.306 36.6993 63.752 36.2708 62.6179 36.2969C60.4386 36.3492 58.2541 36.3126 56.0749 36.3126L56.0801 36.3178ZM97.8 40.4359C97.8 39.5997 97.7843 38.7688 97.8 37.9327C97.8313 36.6837 97.2355 36.2917 96.0126 36.3074C91.6541 36.3596 87.2903 36.3283 82.9317 36.2865C81.735 36.276 81.1026 36.7307 81.0974 37.9431C81.0869 39.2914 81.1444 40.6397 81.0765 41.988C80.9876 43.6603 81.7454 44.7682 83.1042 45.6305C85.6023 47.214 88.3303 47.7679 91.2046 47.376C96.1172 46.7018 97.8052 44.8571 97.8 40.4359Z" fill="url(#paint0_linear_2311_3205)"/>
<path d="M155.977 139.813C152.162 139.572 148.174 138.25 144.552 135.663C142.587 134.258 140.507 132.862 138.265 132.031C133.426 130.239 129.041 131.718 125.132 134.77C122.096 137.142 118.819 138.872 114.952 139.457C109.229 140.325 104.212 138.799 99.561 135.47C97.6535 134.106 95.5892 132.81 93.4047 132C88.5235 130.192 84.1911 131.838 80.3081 134.874C77.2613 137.252 73.9636 138.945 70.0911 139.489C64.5985 140.257 59.665 138.94 55.202 135.71C54.8884 135.486 54.5905 135.24 54.2874 135.005C47.8436 130.072 41.865 130.051 35.4526 134.942C26.8818 141.48 17.919 141.36 9.28031 134.817C7.48776 133.463 5.21964 132.737 3.16579 131.728C2.93584 131.619 2.67453 131.587 2.42891 131.504C0.563194 130.861 -0.299112 129.596 0.0928449 128.081C0.479576 126.581 1.87494 125.703 3.7302 126.006C7.15852 126.57 10.1896 128.044 12.8654 130.26C16.1056 132.941 19.7377 134.472 24.044 133.986C27.0177 133.646 29.5157 132.256 31.8518 130.505C40.5794 123.947 49.5212 124.025 58.1442 130.751C63.6264 135.026 69.8089 135.12 75.6151 131.227C78.1497 129.528 80.7575 127.72 83.6005 126.732C90.3631 124.386 96.6292 125.943 102.237 130.26C108.858 135.355 114.785 135.423 121.369 130.401C129.658 124.077 138.772 124.083 147.066 130.406C153.635 135.413 159.572 135.256 166.246 130.338C168.624 128.587 171.472 127.417 174.237 126.288C175.203 125.891 176.693 126.116 177.691 126.591C179.489 127.453 179.395 129.951 177.654 130.944C176.991 131.321 176.212 131.488 175.533 131.838C173.495 132.868 171.3 133.698 169.497 135.047C165.556 137.994 161.015 139.834 155.971 139.818L155.977 139.813Z" fill="url(#paint1_linear_2311_3205)"/>
<path d="M135.689 150.766C133.207 150.787 131.341 149.037 131.325 146.675C131.31 144.459 133.212 142.546 135.485 142.494C137.894 142.442 139.771 144.271 139.781 146.669C139.792 149.026 138.077 150.74 135.694 150.761L135.689 150.766Z" fill="url(#paint2_linear_2311_3205)"/>
<path d="M43.4176 150.767C41.0032 150.793 39.2681 149.126 39.2367 146.748C39.2054 144.396 40.9666 142.557 43.2765 142.52C45.7171 142.483 47.5776 144.292 47.5724 146.696C47.5671 149.079 45.8739 150.735 43.4176 150.761V150.767Z" fill="url(#paint3_linear_2311_3205)"/>
<path d="M25.2301 122.902C25.2301 124.428 23.9341 125.755 22.4603 125.745C20.9813 125.734 19.633 124.428 19.5964 122.964C19.5598 121.564 20.9552 120.148 22.408 120.121C23.9132 120.09 25.2354 121.391 25.2301 122.902Z" fill="url(#paint4_linear_2311_3205)"/>
<path d="M89.5325 142.53C91.1055 142.567 92.3598 143.821 92.3336 145.331C92.3075 146.815 90.9749 148.075 89.4384 148.064C87.9124 148.054 86.6163 146.758 86.632 145.242C86.6424 143.727 87.9646 142.494 89.5325 142.53Z" fill="url(#paint5_linear_2311_3205)"/>
<path d="M111.769 125.745C110.196 125.703 109.088 124.496 109.12 122.865C109.151 121.24 110.337 120.069 111.905 120.111C113.484 120.153 114.586 121.35 114.565 123.006C114.544 124.595 113.332 125.786 111.769 125.745Z" fill="url(#paint6_linear_2311_3205)"/>
<path d="M92.3754 71.1856C92.3754 74.0703 92.4172 76.9603 92.3492 79.845C92.3283 80.7125 92.2552 81.7786 91.7587 82.3848C91.1943 83.0694 90.0968 83.7227 89.2815 83.6652C88.4767 83.6025 87.5047 82.7768 87.05 82.019C86.5953 81.2612 86.5692 80.169 86.5587 79.2283C86.5169 73.9031 86.5378 68.5778 86.5431 63.2526C86.5431 62.7404 86.5535 62.2231 86.6424 61.7214C87.0395 59.5212 87.9802 58.6171 89.6944 58.7373C91.304 58.8471 92.3231 60.0752 92.3545 62.1394C92.4067 65.1548 92.3649 68.1702 92.3649 71.1856H92.3702H92.3754Z" fill="url(#paint7_linear_2311_3205)"/>
<path d="M125.864 82.5624C125.864 85.6457 125.911 88.729 125.849 91.8124C125.812 93.7878 124.6 95.1256 123.011 95.0368C121.339 94.9479 120.366 93.955 120.351 92.3141C120.299 85.698 120.288 79.0819 120.351 72.4658C120.366 70.8353 121.626 69.7797 123.084 69.8215C124.589 69.8685 125.791 71.0078 125.833 72.7271C125.911 76.0038 125.854 79.2805 125.854 82.5572C125.854 82.5572 125.854 82.5572 125.859 82.5572L125.864 82.5624Z" fill="url(#paint8_linear_2311_3205)"/>
<path d="M92.3435 92.2408C92.3226 93.6623 90.9116 95.0419 89.4796 95.0472C88.0529 95.0472 86.6628 93.6571 86.6419 92.2095C86.6209 90.6887 87.9066 89.4711 89.5057 89.492C91.0997 89.5129 92.3644 90.7357 92.3435 92.2408Z" fill="url(#paint9_linear_2311_3205)"/>
<path d="M125.848 61.5226C125.812 63.0643 124.578 64.2506 123.011 64.2506C121.343 64.2506 120.235 63.012 120.324 61.2509C120.403 59.6988 121.505 58.6902 123.078 58.732C124.672 58.7685 125.885 59.9914 125.848 61.5226Z" fill="url(#paint10_linear_2311_3205)"/>
<path d="M53.0388 82.3009C53.0388 79.5416 53.0022 76.7823 53.0597 74.0282C53.0806 73.1503 53.1224 72.1051 53.5928 71.4518C54.1154 70.7202 55.1345 69.9415 55.9445 69.9363C56.7546 69.9311 57.8207 70.6836 58.3119 71.4153C58.798 72.1364 58.8345 73.2443 58.8398 74.185C58.8816 79.7036 58.892 85.217 58.8345 90.7356C58.8241 91.7286 58.6882 92.8731 58.176 93.6622C57.7371 94.3363 56.6605 94.9739 55.887 94.9478C55.1031 94.9216 54.1363 94.2161 53.645 93.5263C53.1747 92.8626 53.0754 91.8383 53.0545 90.9656C52.9865 88.0809 53.0284 85.1909 53.0284 82.3062L53.0388 82.3009Z" fill="url(#paint11_linear_2311_3205)"/>
<path d="M58.7867 61.3814C58.8024 62.8812 57.5324 64.2139 56.0378 64.2452C54.4804 64.2818 53.153 63.0903 53.0902 61.5852C53.0223 60.0592 54.4334 58.6952 56.0534 58.7266C57.5063 58.7527 58.771 59.9756 58.7867 61.3762V61.3814Z" fill="url(#paint12_linear_2311_3205)"/>
<defs>
<linearGradient id="paint0_linear_2311_3205" x1="29.8347" y1="-7.67433" x2="139.689" y2="142.502" gradientUnits="userSpaceOnUse">
<stop stop-color="#24B0B3"/>
<stop offset="0.96" stop-color="#6449AC"/>
</linearGradient>
<linearGradient id="paint1_linear_2311_3205" x1="3.70407" y1="11.437" x2="113.564" y2="161.613" gradientUnits="userSpaceOnUse">
<stop stop-color="#24B0B3"/>
<stop offset="0.96" stop-color="#6449AC"/>
</linearGradient>
<linearGradient id="paint2_linear_2311_3205" x1="25.1573" y1="-4.2564" x2="135.017" y2="145.919" gradientUnits="userSpaceOnUse">
<stop stop-color="#24B0B3"/>
<stop offset="0.96" stop-color="#6449AC"/>
</linearGradient>
<linearGradient id="paint3_linear_2311_3205" x1="-34.8901" y1="39.6731" x2="74.964" y2="189.844" gradientUnits="userSpaceOnUse">
<stop stop-color="#24B0B3"/>
<stop offset="0.96" stop-color="#6449AC"/>
</linearGradient>
<linearGradient id="paint4_linear_2311_3205" x1="-37.2216" y1="41.3767" x2="72.6323" y2="191.552" gradientUnits="userSpaceOnUse">
<stop stop-color="#24B0B3"/>
<stop offset="0.96" stop-color="#6449AC"/>
</linearGradient>
<linearGradient id="paint5_linear_2311_3205" x1="-4.20273" y1="17.222" x2="105.657" y2="167.398" gradientUnits="userSpaceOnUse">
<stop stop-color="#24B0B3"/>
<stop offset="0.96" stop-color="#6449AC"/>
</linearGradient>
<linearGradient id="paint6_linear_2311_3205" x1="21.0131" y1="-1.22026" x2="130.867" y2="148.95" gradientUnits="userSpaceOnUse">
<stop stop-color="#24B0B3"/>
<stop offset="0.96" stop-color="#6449AC"/>
</linearGradient>
<linearGradient id="paint7_linear_2311_3205" x1="31.1622" y1="-8.64625" x2="141.016" y2="141.53" gradientUnits="userSpaceOnUse">
<stop stop-color="#24B0B3"/>
<stop offset="0.96" stop-color="#6449AC"/>
</linearGradient>
<linearGradient id="paint8_linear_2311_3205" x1="47.5933" y1="-20.6713" x2="157.453" y2="129.504" gradientUnits="userSpaceOnUse">
<stop stop-color="#24B0B3"/>
<stop offset="0.96" stop-color="#6449AC"/>
</linearGradient>
<linearGradient id="paint9_linear_2311_3205" x1="21.1067" y1="-1.29341" x2="130.961" y2="148.882" gradientUnits="userSpaceOnUse">
<stop stop-color="#24B0B3"/>
<stop offset="0.96" stop-color="#6449AC"/>
</linearGradient>
<linearGradient id="paint10_linear_2311_3205" x1="57.5955" y1="-27.9877" x2="167.455" y2="122.188" gradientUnits="userSpaceOnUse">
<stop stop-color="#24B0B3"/>
<stop offset="0.96" stop-color="#6449AC"/>
</linearGradient>
<linearGradient id="paint11_linear_2311_3205" x1="3.91353" y1="11.2853" x2="113.773" y2="161.461" gradientUnits="userSpaceOnUse">
<stop stop-color="#24B0B3"/>
<stop offset="0.96" stop-color="#6449AC"/>
</linearGradient>
<linearGradient id="paint12_linear_2311_3205" x1="13.8841" y1="3.98986" x2="123.738" y2="154.166" gradientUnits="userSpaceOnUse">
<stop stop-color="#24B0B3"/>
<stop offset="0.96" stop-color="#6449AC"/>
</linearGradient>
</defs>
</svg>
