<svg width="173" height="173" viewBox="0 0 173 173" fill="none" xmlns="http://www.w3.org/2000/svg">
<path d="M71.5986 42.6832H59.361C59.361 45.0247 59.2773 47.3597 59.4253 49.6883C59.4575 50.2286 60.2103 50.814 60.7507 51.2128C68.195 56.674 75.6714 62.0837 83.0964 67.5643C83.965 68.2075 84.5891 69.1917 85.3354 70.0344C83.6497 71.7325 81.7452 71.16 79.8471 71.3595C79.8471 72.3565 79.86 73.2957 79.8471 74.2348C79.7957 77.5411 78.2965 79.4452 75.7358 79.4645C73.1428 79.4838 71.6179 77.6119 71.5536 74.312C71.5343 73.4179 71.5536 72.5237 71.5536 71.3981C69.4368 71.3981 67.4486 71.3981 65.4605 71.3981C63.4724 71.3981 61.4649 71.3981 59.3417 71.3981C59.3417 73.7652 59.2323 76.0102 59.4124 78.2423C59.4639 78.8791 60.236 79.5931 60.8408 80.0369C68.3237 85.5303 75.8323 90.9787 83.3344 96.4399C84.2095 97.0767 85.477 97.6685 85.0588 98.955C84.647 100.242 83.2701 99.9971 82.1827 100.023C81.4878 100.042 80.7865 100.023 79.7892 100.023C79.7892 101.509 79.8729 102.898 79.7699 104.275C79.6026 106.545 78.0456 108.076 75.9416 108.186C73.6382 108.308 71.8367 106.738 71.6308 104.3C71.5214 102.962 71.6115 101.612 71.6115 100.164H59.3738C58.9749 102.467 59.9786 104.493 60.6285 106.552C64.9136 120.112 69.2437 133.665 73.5675 147.212C74.9637 151.599 76.3985 155.979 77.7689 160.379C78.0134 161.17 78.3673 161.499 79.2359 161.492C85.1102 161.454 90.9846 161.46 96.8589 161.492C97.631 161.492 98.0042 161.267 98.2487 160.495C102.173 148.132 106.13 135.775 110.081 123.418C112.108 117.075 114.147 110.733 116.123 104.371C116.534 103.046 116.682 101.644 116.972 100.151H99.0143C99.0143 101.322 99.0272 102.454 99.0143 103.593C98.9693 106.288 97.3929 108.109 95.0509 108.199C92.651 108.289 91.0296 106.68 90.7529 103.94C90.7272 103.689 90.7272 103.438 90.7272 103.188C90.6886 101.314 89.7814 99.8749 88.0056 98.8714C88.6168 98.0995 89.0801 97.1861 89.8136 96.6457C97.4444 91.0237 105.12 85.4531 112.79 79.8826C113.189 79.5931 113.658 79.3873 114.083 79.13C116.406 77.7405 117.583 74.5564 116.637 72.0413C116.528 71.7454 116 71.4302 115.666 71.4238C110.596 71.3852 105.526 71.3981 100.456 71.3916C100.057 71.3916 99.6577 71.3916 99.0079 71.3916C99.0079 72.7618 99.0658 74.0418 98.995 75.3219C98.8663 77.5669 97.335 79.2329 95.3211 79.4323C93.3587 79.6253 91.5057 78.4867 91.0425 76.6341C90.7915 75.6242 90.6693 74.5371 90.7594 73.5079C90.888 72.0542 90.5084 71.1086 89.0222 70.7291C88.7455 70.6583 88.501 70.4525 87.9541 70.1501C88.5718 69.3654 89.0029 68.4906 89.6977 67.9759C97.2835 62.3732 104.914 56.8348 112.532 51.2771C112.777 51.097 113.034 50.9426 113.292 50.7882C116.631 48.8199 117.551 46.472 116.444 42.6253H99.0079C99.0079 43.8154 99.0208 44.9539 99.0079 46.0925C98.9628 48.7813 97.3736 50.6145 95.0445 50.6917C92.6253 50.7753 90.9974 49.1994 90.7658 46.4334C90.6629 45.2434 90.7465 44.0341 90.7465 42.8376C89.8393 42.3809 89.0093 41.9563 87.8576 41.371C88.6168 40.5026 89.1444 39.6342 89.8972 39.081C97.3736 33.5812 104.856 28.0942 112.404 22.6909C115.17 20.7097 117.023 18.4133 117.705 14.8882C118.426 11.1252 119.841 7.49083 121.103 3.85002C121.958 1.37349 123.85 0.0676897 126.501 0.035527C130.168 -0.00306816 133.829 -0.0223644 137.497 0.0419609C140.295 0.0934212 142.123 1.44426 142.959 4.15235C144.323 8.60366 145.565 13.0936 146.858 17.5706C146.897 17.7121 146.955 17.8729 146.929 18.0145C146.363 21.0442 148.293 22.5365 150.429 24.0546C157.494 29.0913 164.513 34.1923 171.501 39.3383C172.119 39.795 172.337 40.7921 172.743 41.5382C172.048 41.8599 171.385 42.3423 170.658 42.4645C169.693 42.6253 168.676 42.5031 167.46 42.5031C167.46 44.0276 167.544 45.4235 167.441 46.8065C167.274 49.0193 165.639 50.5888 163.561 50.6853C161.419 50.7818 159.675 49.3859 159.34 47.2117C159.205 46.324 159.263 45.4106 159.244 44.5101C159.231 43.9633 159.244 43.4101 159.244 42.7347H147.026C147.026 45.0247 146.955 47.3661 147.083 49.6883C147.109 50.19 147.785 50.756 148.287 51.1227C155.892 56.6933 163.535 62.2188 171.121 67.8216C171.848 68.3555 172.241 69.3461 172.788 70.1244C171.932 70.5168 171.108 71.0507 170.208 71.2694C169.416 71.4624 168.541 71.308 167.499 71.308C167.499 72.5945 167.525 73.7845 167.499 74.9681C167.422 77.644 165.787 79.4259 163.432 79.458C161.052 79.4902 159.385 77.747 159.276 75.0839C159.231 73.9389 159.27 72.7939 159.27 71.5203H147.058C147.058 73.7845 146.961 76.126 147.128 78.4417C147.167 79.0206 147.978 79.6381 148.557 80.0691C155.879 85.4403 163.233 90.76 170.542 96.144C171.469 96.8259 172.176 97.7972 173 98.6463C171.391 100.499 169.455 99.8556 167.473 100.113C167.473 101.509 167.55 102.898 167.454 104.275C167.293 106.5 165.691 108.07 163.606 108.186C161.464 108.308 159.701 106.931 159.353 104.751C159.205 103.818 159.27 102.853 159.25 101.901C159.237 101.361 159.25 100.814 159.25 100.164H147.083C146.646 102.358 147.585 104.345 148.222 106.359C152.771 120.729 157.365 135.087 161.946 149.45C163.059 152.93 164.23 156.398 165.273 159.897C165.614 161.055 166.251 161.55 167.377 161.659C168.226 161.743 169.069 161.865 169.905 162.045C171.591 162.412 172.723 163.39 172.891 165.172C173.006 166.4 173.051 167.661 172.91 168.883C172.678 170.909 171.488 172.157 169.423 172.434C168.483 172.562 167.531 172.64 166.579 172.64C113.716 172.646 60.8473 172.653 7.98471 172.64C6.44053 172.64 4.87061 172.55 3.3586 172.279C2.63798 172.151 1.85945 171.636 1.35759 171.077C-0.019302 169.533 -0.160852 164.728 1.29969 163.261C2.13612 162.418 3.47441 161.936 4.67116 161.614C5.54619 161.376 6.55635 161.666 7.50859 161.724C9.7927 161.859 10.5712 161.312 11.2468 159.131C12.9904 153.49 14.7148 147.836 16.497 142.201C20.5119 129.497 24.5718 116.812 28.5738 104.101C28.9599 102.879 29.0693 101.573 29.333 100.177H11.4077C11.4077 101.367 11.427 102.506 11.4077 103.644C11.3562 106.301 9.74122 108.128 7.39278 108.205C4.99929 108.282 3.36503 106.629 3.13984 103.902C3.12697 103.754 3.12054 103.599 3.12697 103.451C3.24922 101.457 3.46154 99.4182 0 99.2059C1.10023 97.9708 1.71147 96.9995 2.56721 96.3691C10.2431 90.7214 17.8417 84.945 25.73 79.6124C28.8955 77.4704 29.6869 75.026 28.9341 71.5267H11.4141C11.4141 72.691 11.4527 73.8746 11.4077 75.0582C11.3047 77.7534 9.5096 79.5674 7.09037 79.4645C5.23092 79.3873 3.72534 78.1715 3.3586 76.3318C3.18488 75.457 3.04976 74.5178 3.15914 73.643C3.3779 71.9577 2.76666 70.9735 1.12597 70.5876C0.945812 70.5425 0.797829 70.3881 0.347442 70.0987C1.1131 69.2303 1.69217 68.2847 2.52217 67.6736C10.1144 62.0773 17.7452 56.5389 25.3632 50.9812C25.6077 50.8011 25.8329 50.5888 26.0903 50.4537C29.333 48.7362 29.822 46.0153 28.8569 42.6704H11.4077C11.4077 43.8411 11.4591 45.0761 11.3948 46.2983C11.2211 49.5982 8.52518 51.6309 5.78425 50.3444C4.78697 49.8748 4.07922 48.6591 3.41007 47.6749C3.10767 47.231 3.10767 46.5042 3.14627 45.9124C3.28139 43.8604 3.30713 41.9178 0.0965124 41.5833C1.11953 40.4447 1.72434 39.5056 2.56077 38.888C10.2753 33.2017 18.0155 27.5539 25.775 21.9383C28.0784 20.2658 29.3459 18.1881 29.97 15.3128C30.8515 11.2732 32.3056 7.34932 33.6954 3.43834C34.4675 1.26414 36.2819 0.112719 38.5917 0.0676917C42.4071 -0.00949873 46.2226 -0.0223652 50.038 0.0612578C52.7081 0.112718 54.6126 1.5922 55.3718 4.14592C56.6715 8.51361 57.894 12.907 59.1358 17.2876C59.2323 17.6221 59.3545 17.9887 59.2966 18.3168C58.8784 20.7161 60.1588 22.157 61.9475 23.4435C69.2824 28.7053 76.6044 33.9929 83.8749 39.3447C84.499 39.8014 84.7242 40.7921 85.136 41.5382C84.3961 41.8663 83.6819 42.3487 82.9098 42.4838C81.9961 42.6511 81.0246 42.5224 79.8407 42.5224C79.8407 43.9247 79.8986 45.2176 79.8278 46.5042C79.6927 49.0193 78.0842 50.6596 75.8001 50.6917C73.4452 50.7239 71.7917 49.0836 71.6437 46.4784C71.5729 45.2434 71.6308 44.0019 71.6308 42.6832H71.5986ZM86.5386 164.303C59.9336 164.303 33.3351 164.303 6.73007 164.303C6.33115 164.303 5.9258 164.303 5.52689 164.303C4.16286 164.303 3.18488 164.837 2.92108 166.271C2.66372 167.661 3.10123 168.838 4.44596 169.353C5.34673 169.694 6.38906 169.797 7.37348 169.797C60.1781 169.816 112.976 169.816 165.781 169.816C166.585 169.816 167.402 169.951 168.181 169.816C168.76 169.719 169.577 169.423 169.783 168.98C171.038 166.233 169.822 164.445 166.791 164.412C166.74 164.412 166.688 164.412 166.643 164.412C154.849 164.374 143.056 164.322 131.262 164.31C116.354 164.29 101.446 164.31 86.5386 164.31V164.303ZM100.951 161.318C102.965 161.737 103.525 161.331 104.149 159.357C109.412 142.741 114.63 126.12 119.996 109.537C121.495 104.912 122.344 100.306 122.312 95.4043C122.177 70.8127 122.28 46.2211 122.196 21.6295C122.177 16.0461 124.223 10.9451 125.214 5.6447H138.32C140.424 12.193 141.563 18.7542 141.537 25.5534C141.454 50.19 141.46 74.833 141.518 99.4761C141.518 101.541 141.891 103.676 142.509 105.651C147.206 120.658 152.012 135.633 156.78 150.615C157.751 153.67 158.691 156.732 159.681 159.781C160.228 161.466 161.02 161.833 162.648 161.216C162.512 160.701 162.397 160.167 162.229 159.646C160.904 155.497 159.559 151.354 158.234 147.205C154.399 135.183 150.648 123.135 146.71 111.145C145.037 106.057 144.072 100.988 144.111 95.5651C144.278 71.5782 144.059 47.5848 144.265 23.5979C144.323 16.9145 141.865 10.9708 140.186 4.76987C139.839 3.47694 138.809 2.83368 137.445 2.82725C133.829 2.82081 130.22 2.81438 126.604 2.82725C125.124 2.82725 124.139 3.54769 123.67 4.95642C123.116 6.61601 122.576 8.28204 122.016 9.94163C120.376 14.766 119.449 19.6355 119.481 24.8072C119.616 49.0965 119.5 73.3857 119.539 97.6749C119.539 101.065 119.166 104.3 118.104 107.555C113.485 121.694 109.019 135.878 104.503 150.049C103.319 153.76 102.154 157.485 100.951 161.318ZM75.073 161.312C74.5776 159.742 74.0951 158.179 73.5996 156.623C68.7998 141.545 64.09 126.435 59.1551 111.396C57.3986 106.05 56.4463 100.737 56.4849 95.0698C56.6522 71.3852 56.427 47.6942 56.6394 24.0031C56.6973 17.2168 54.3166 11.1509 52.5859 4.85993C52.2127 3.5091 51.1704 2.82725 49.7484 2.82725C46.1325 2.82725 42.5229 2.82081 38.907 2.82725C37.4915 2.82725 36.5264 3.53483 36.0695 4.87279C35.5162 6.48093 35.0208 8.11479 34.461 9.72292C32.756 14.6309 31.8166 19.5969 31.8488 24.878C31.9839 50.1707 31.9003 75.4634 31.8552 100.763C31.8552 102.043 31.7008 103.381 31.3147 104.596C25.8072 122.022 20.2417 139.435 14.6955 156.854C14.2194 158.347 13.8011 159.852 13.3508 161.383C15.3196 161.666 15.8794 161.331 16.4391 159.575C17.9576 154.802 19.4438 150.023 20.9623 145.25C24.752 133.318 28.5931 121.405 32.3249 109.453C33.245 106.507 34.461 103.458 34.4868 100.454C34.6669 76.6663 34.5768 52.8788 34.5961 29.0913C34.5961 25.2832 34.4417 21.4366 34.905 17.6735C35.3747 13.8655 36.4942 10.1346 37.4271 6.3973C37.5172 6.04352 38.2893 5.6447 38.7461 5.63827C42.3621 5.57394 45.9716 5.6254 49.5876 5.5868C50.4176 5.58037 50.7972 5.79908 51.0546 6.64817C53.0234 13.1322 53.9049 19.7384 53.892 26.5183C53.8341 51.3093 53.847 76.1002 53.8663 100.891C53.8663 101.927 54.0207 103.001 54.3359 103.985C57.8554 115.165 61.4199 126.325 64.9715 137.492C67.3071 144.845 69.6427 152.191 71.9782 159.543C72.5766 161.421 73.1106 161.756 75.0795 161.325L75.073 161.312ZM131.815 144.549C132.253 144.414 132.671 144.369 133.006 144.169C137.96 141.223 142.908 138.271 147.83 135.267C148.164 135.061 148.512 134.437 148.441 134.09C148.139 132.571 147.733 131.124 146.331 130.095C141.769 126.737 137.265 123.296 132.768 119.854C132.079 119.327 131.616 119.359 130.94 119.867C126.584 123.167 122.138 126.351 117.847 129.735C116.772 130.584 116.039 131.954 115.35 133.195C114.823 134.141 115.222 134.984 116.219 135.575C120.974 138.367 125.703 141.197 130.451 144.002C130.87 144.246 131.365 144.369 131.815 144.549ZM44.1508 144.587C44.6076 144.446 44.9743 144.401 45.2639 144.227C50.2117 141.281 55.1595 138.329 60.088 135.337C60.4483 135.119 60.8794 134.508 60.8086 134.192C60.429 132.649 60.0366 131.111 58.6082 130.05C54.1043 126.705 49.6262 123.315 45.1738 119.899C44.4339 119.333 43.9384 119.372 43.2178 119.919C38.9456 123.161 34.5833 126.287 30.3689 129.6C29.2816 130.455 28.4902 131.767 27.776 132.996C27.1776 134.025 27.48 134.939 28.6382 135.614C33.3544 138.361 38.0319 141.185 42.7288 143.963C43.1921 144.234 43.7133 144.401 44.1508 144.587ZM22.1719 161.396H65.9688C65.6471 161.119 65.512 160.971 65.3511 160.875C58.6983 156.88 52.0583 152.86 45.3539 148.955C44.7427 148.595 43.5781 148.736 42.8768 149.064C41.2554 149.83 39.7563 150.859 38.2057 151.785C32.9683 154.925 27.7374 158.057 22.1719 161.396ZM153.846 161.454C153.234 161.029 152.958 160.81 152.655 160.63C146.331 156.854 139.98 153.117 133.681 149.29C132.388 148.505 131.326 148.518 130.065 149.277C123.843 153.033 117.596 156.745 111.355 160.476C110.975 160.701 110.647 161.003 110.055 161.447H153.833L153.846 161.454ZM19.3731 159.414C19.4696 159.479 19.5725 159.543 19.669 159.614C26.8559 155.298 34.0492 150.981 41.4678 146.53C36.3076 143.436 31.3984 140.496 26.3605 137.479C23.9799 144.954 21.67 152.184 19.3666 159.414H19.3731ZM106.87 159.89C114.475 155.323 121.688 150.988 129.119 146.524C123.946 143.43 119.063 140.509 114.019 137.492C111.638 144.961 109.315 152.223 106.87 159.89ZM46.956 146.543C54.3939 151.001 61.5936 155.317 69.1794 159.871C66.7152 152.158 64.3989 144.903 62.0247 137.486C56.9353 140.541 52.0647 143.475 46.956 146.543ZM149.689 137.479C144.613 140.535 139.736 143.468 134.614 146.543C142.046 150.994 149.239 155.304 156.818 159.839C154.386 152.21 152.083 144.986 149.689 137.479ZM125.536 100.106C124.828 102.744 124.152 105.252 123.49 107.768C123.252 108.675 123.47 109.401 124.281 109.993C126.546 111.653 128.746 113.402 131.043 115.017C131.423 115.281 132.311 115.268 132.69 115.004C134.981 113.383 137.233 111.698 139.414 109.929C139.877 109.556 140.347 108.694 140.238 108.179C139.652 105.458 138.88 102.782 138.179 100.106H125.536ZM37.8711 100.119C37.1698 102.757 36.417 105.343 35.8508 107.973C35.7285 108.539 36.1081 109.485 36.5778 109.865C38.7847 111.666 41.0753 113.37 43.398 115.023C43.7583 115.281 44.5883 115.332 44.9229 115.094C47.2906 113.415 49.6133 111.672 51.8717 109.858C52.2963 109.517 52.7017 108.7 52.5923 108.218C52.0004 105.497 51.2476 102.815 50.5463 100.126H37.8647L37.8711 100.119ZM138.571 17.6542C137.818 14.6695 137.117 11.8264 136.345 8.99605C136.274 8.73231 135.792 8.40426 135.496 8.39782C133.089 8.34636 130.689 8.34636 128.283 8.39782C127.968 8.39782 127.453 8.67442 127.382 8.92529C126.597 11.8006 125.883 14.6888 125.124 17.6671H138.565L138.571 17.6542ZM37.4915 17.6285H50.913C50.1667 14.676 49.4846 11.8714 48.7125 9.0861C48.6225 8.77091 48.0241 8.40425 47.6509 8.39139C45.3475 8.32706 43.0377 8.32706 40.7343 8.39139C40.3611 8.40425 39.7692 8.77734 39.6791 9.09253C38.907 11.8778 38.2314 14.6824 37.4915 17.6221V17.6285ZM6.29898 68.304H26.3155C22.9762 65.6281 19.9007 63.1773 16.7801 60.6814C13.325 63.1966 9.94711 65.6538 6.29898 68.304ZM114.025 68.3683C110.609 65.6281 107.539 63.1708 104.419 60.6686C100.957 63.1966 97.5731 65.6731 93.8863 68.3683H114.025ZM106.787 87.7302C110.126 90.3805 113.298 92.8956 116.631 95.5458V80.558C113.259 83.0152 110.094 85.318 106.787 87.7302ZM116.695 23.0125C113.247 25.5212 110.075 27.8241 106.787 30.2234C110.139 32.88 113.317 35.4016 116.695 38.0775V23.0125ZM113.864 96.9867C110.679 94.4329 107.784 92.0851 104.837 89.8144C104.612 89.6407 103.911 89.853 103.57 90.0846C101.916 91.2231 100.314 92.426 98.699 93.6096C97.2707 94.6581 95.8423 95.7066 94.0987 96.9867H113.871H113.864ZM6.42766 96.9867H25.8972C25.8651 96.8259 25.8715 96.7615 25.8458 96.7422C23.9027 95.1598 21.966 93.571 20.0036 92.0143C18.9484 91.1781 17.8675 89.7887 16.7673 89.7629C15.6735 89.7372 14.5282 91.0816 13.4408 91.8664C11.1825 93.4938 8.94983 95.147 6.42123 96.9931L6.42766 96.9867ZM26.2125 39.4798C23.0469 36.939 20.1838 34.6104 17.2627 32.3526C17.0182 32.1596 16.3233 32.2818 16.0016 32.5005C14.3866 33.6005 12.8167 34.7712 11.2404 35.9291C9.73479 37.0355 8.23564 38.1483 6.4341 39.4798H26.2061H26.2125ZM104.425 31.9087C101.002 34.411 97.6889 36.8361 94.1437 39.4284H113.806C110.57 36.8296 107.565 34.4238 104.425 31.9087ZM116.457 66.6766V51.9396C113.15 54.3454 110.042 56.6032 106.793 58.964C110.029 61.5498 113.144 64.0328 116.457 66.6766ZM28.8569 66.7216V51.8946C25.5241 54.3261 22.3971 56.6032 19.1543 58.964C22.4164 61.5756 25.5241 64.0585 28.8569 66.7216ZM19.1543 87.7238C22.4486 90.3547 25.5755 92.8505 28.8955 95.5007V80.6352C25.5627 83.0602 22.4357 85.3373 19.1543 87.7238ZM28.8376 37.9553V23.1476C25.5048 25.5856 22.3778 27.8627 19.1543 30.217C22.4421 32.8479 25.5241 35.3115 28.8376 37.9553ZM79.3967 68.3233C75.9481 65.8146 72.8211 63.5246 69.6684 61.2797C69.4818 61.1446 68.9478 61.2154 68.7676 61.389C66.5028 63.6211 64.2766 65.8918 61.8767 68.3233H79.3967ZM122.158 111.936C120.639 116.735 119.205 121.269 117.77 125.804C117.873 125.875 117.976 125.94 118.079 126.01C121.842 123.18 125.606 120.35 129.493 117.436C127.009 115.577 124.693 113.84 122.151 111.936H122.158ZM34.5125 111.929C32.994 116.735 31.5528 121.276 30.1116 125.817C30.2081 125.888 30.3046 125.952 30.4011 126.023C34.1779 123.193 37.9547 120.362 41.8474 117.442C39.3702 115.577 37.054 113.84 34.5125 111.923V111.929ZM145.533 125.94C145.662 125.869 145.79 125.798 145.919 125.727C144.471 121.199 143.03 116.664 141.524 111.962C139.009 113.846 136.692 115.583 134.215 117.436C138.056 120.324 141.795 123.128 145.526 125.94H145.533ZM57.9519 125.965C58.0613 125.894 58.1707 125.824 58.28 125.747C56.8324 121.218 55.3847 116.683 53.8791 111.949C51.357 113.84 49.0278 115.59 46.57 117.436C50.4755 120.362 54.2137 123.161 57.9519 125.959V125.965ZM62.1469 39.4863H79.3002C75.7229 36.8875 72.4672 34.5203 69.3982 32.2883C66.9017 34.7648 64.5404 37.1126 62.1469 39.4863ZM62.2821 96.9352H79.2359C75.71 94.3815 72.4801 92.0465 69.3917 89.808C66.9275 92.2845 64.6048 94.6066 62.2821 96.9352ZM157.211 89.9109C154.734 92.3552 152.398 94.6645 150.03 96.9995H166.939C163.452 94.4587 160.273 92.143 157.204 89.9109H157.211ZM166.547 68.3619C166.605 68.2654 166.662 68.1754 166.714 68.0789C163.49 65.7374 160.267 63.396 157.507 61.389C154.894 63.9042 152.572 66.1362 150.255 68.3619H166.547ZM166.527 39.5249C166.559 39.4348 166.592 39.3383 166.624 39.2483C163.432 36.9325 160.248 34.6104 157.359 32.5134C154.92 34.9192 152.565 37.2413 150.255 39.5249H166.521H166.527ZM125.24 46.3562H138.449V42.6575H125.24V46.3562ZM37.5944 46.3433H50.765V42.6446H37.5944V46.3433ZM37.6652 71.4752V75.0839H50.8358V71.4752H37.6652ZM125.323 71.4688V75.0196H138.507V71.4688H125.323ZM59.3931 94.3558C61.7287 92.0593 63.9614 89.853 66.2969 87.5501C64.0579 85.9291 61.8252 84.3081 59.3931 82.5456V94.3622V94.3558ZM66.2326 29.979C64.0579 28.403 61.8638 26.8142 59.4897 25.0967V36.8361C61.7673 34.5203 63.9228 32.3268 66.2326 29.979ZM153.929 87.518C151.652 85.8777 149.438 84.2888 147.109 82.6164V94.3236C149.406 92.0272 151.594 89.8466 153.929 87.518ZM59.4253 53.8179V65.448C61.6837 63.2094 63.897 61.0095 66.2069 58.7131C64.0321 57.1436 61.8252 55.5483 59.4253 53.8115V53.8179ZM147.219 36.3665C149.323 34.3853 151.613 32.2304 153.955 30.024C151.78 28.4609 149.612 26.8978 147.219 25.1803V36.3665ZM147.193 65.345C149.432 63.1644 151.665 60.9902 153.949 58.7646C151.793 57.2143 149.58 55.6319 147.193 53.9209V65.3515V65.345ZM38.8555 78.1715C40.7471 80.6866 42.4264 82.9252 44.2151 85.3052C46.0553 82.8415 47.7281 80.5966 49.5361 78.1715H38.8555ZM49.5168 68.3362C47.6574 65.8725 45.9652 63.634 44.1894 61.2797C42.3814 63.7047 40.7278 65.9175 38.9263 68.3362H49.5168ZM131.86 85.3116C133.694 82.848 135.354 80.603 137.123 78.2294H126.559C128.373 80.6545 130.04 82.8737 131.86 85.3116ZM131.841 61.2733C130.027 63.6983 128.373 65.9175 126.584 68.3104H137.13C135.322 65.9047 133.662 63.6919 131.841 61.2733ZM131.86 56.5453C133.668 54.1267 135.315 51.9203 137.066 49.5789H126.636C128.418 51.9589 130.059 54.146 131.86 56.5453ZM126.597 97.006H137.104C135.296 94.6002 133.63 92.3874 131.848 90.0202C130.072 92.381 128.425 94.568 126.591 97.006H126.597ZM38.952 49.5467C40.7857 51.9847 42.4393 54.1846 44.2087 56.5325C45.9974 54.146 47.6445 51.9396 49.4396 49.5467H38.9456H38.952ZM131.854 32.5134C130.078 34.887 128.425 37.0934 126.655 39.4541H137.066C135.277 37.0741 133.623 34.8677 131.854 32.5134ZM38.9906 96.9674H49.4203C47.6123 94.568 45.9394 92.3552 44.1829 90.0331C42.4007 92.4131 40.76 94.6002 38.9842 96.9674H38.9906ZM49.4718 39.5184C47.6123 37.0612 45.9459 34.8548 44.1829 32.5263C42.4007 34.9256 40.7536 37.1319 38.9778 39.5184H49.4718ZM49.401 20.8448H38.9906C40.8115 23.2505 42.465 25.444 44.2151 27.7597C45.9974 25.3861 47.6123 23.2377 49.4074 20.8448H49.401ZM126.604 20.7997C128.463 23.257 130.123 25.4505 131.88 27.7662C133.675 25.3604 135.296 23.1862 137.072 20.7997H126.604ZM37.5301 23.6043V36.6881C39.3123 34.3081 40.8565 32.2432 42.4329 30.1398C40.8565 28.0363 39.3316 26.0037 37.5301 23.6043ZM138.43 94.0599V81.2334C136.692 83.5555 135.174 85.5818 133.61 87.6724C135.187 89.7629 136.712 91.7827 138.43 94.0599ZM138.462 36.5916V23.7008C136.692 26.0616 135.161 28.1071 133.617 30.1655C135.213 32.2754 136.718 34.2759 138.462 36.5916ZM138.52 52.9303C138.423 52.8788 138.327 52.8338 138.23 52.7823C136.712 54.8021 135.193 56.8155 133.617 58.9061C135.193 60.9966 136.731 63.0358 138.52 65.4094V52.9303ZM50.8036 53.0074C50.7071 52.9624 50.6106 52.911 50.5077 52.8659C48.9956 54.8793 47.4836 56.8927 45.9652 58.9189C47.5544 61.0224 49.06 63.01 50.8036 65.3129V53.0074ZM50.7586 94.0341V81.2849C49.0278 83.5941 47.5094 85.6075 45.9652 87.6659C47.5351 89.7565 49.0536 91.7699 50.7586 94.0341ZM50.7715 36.5273V23.7394C49.0407 26.0551 47.5158 28.0814 45.9652 30.1526C47.5415 32.2432 49.0664 34.263 50.7715 36.5273ZM37.6073 94.0792C38.6882 92.6511 39.4989 91.5769 40.3161 90.5027C41.7358 88.6201 41.7487 86.7482 40.3547 84.8871C39.5182 83.7742 38.6754 82.6678 37.6073 81.2656V94.0792ZM130.085 87.6531C128.489 85.5368 126.983 83.5427 125.298 81.317V94.0277C127.022 91.7313 128.508 89.7436 130.085 87.6531ZM125.24 36.077C125.33 36.122 125.426 36.1671 125.516 36.2121C127.028 34.1987 128.547 32.1789 130.085 30.1398C128.508 28.0556 126.996 26.0551 125.24 23.733V36.0834V36.077ZM37.6266 52.5314V65.3C39.2866 63.0872 40.7278 61.1961 42.1176 59.2663C42.2527 59.0798 42.1755 58.578 42.0147 58.3593C40.6635 56.5132 39.2673 54.6928 37.6266 52.5314ZM125.265 52.4993V65.3193C127.016 62.9843 128.521 60.9774 130.085 58.8996C128.534 56.8412 127.022 54.8343 125.265 52.4993ZM74.3717 42.6253C74.3717 43.944 74.2366 45.1147 74.4296 46.2276C74.5261 46.7808 75.221 47.231 75.6457 47.7263C76.1089 47.2182 76.8682 46.7679 76.9711 46.1954C77.1834 45.0568 77.0354 43.8475 77.0354 42.6318H74.3717V42.6253ZM163.439 47.7649C165.562 46.4077 164.443 44.4136 164.694 42.6832H161.933C162.261 44.5036 161.123 46.5685 163.439 47.7649ZM5.94511 100.106C5.94511 101.412 5.82929 102.654 6.00301 103.863C6.07379 104.358 6.7558 104.764 7.16115 105.207C7.61154 104.757 8.37076 104.358 8.4544 103.857C8.64743 102.654 8.51875 101.406 8.51875 100.106H5.95154H5.94511ZM75.6714 105.246C77.9813 103.985 76.7845 101.94 77.0612 100.171H74.3331C74.5326 101.998 73.5739 103.972 75.6714 105.246ZM5.99658 42.6318C5.57836 46.1697 5.73921 46.7486 7.38634 47.6427C9.23293 46.2661 8.48658 44.3943 8.54448 42.6318H5.99658ZM5.96441 71.4109C5.96441 72.736 5.84859 73.9904 6.02231 75.1933C6.09309 75.6757 6.81371 76.0681 7.23193 76.5055C7.65014 76.0681 8.36433 75.6757 8.4351 75.1868C8.60882 73.9775 8.49301 72.7296 8.49301 71.4109H5.96441ZM94.8772 47.7649C97.0133 46.3819 95.9839 44.4136 96.2477 42.6253H93.5132C93.777 44.4136 92.7475 46.3626 94.8772 47.7649ZM93.5968 100.119C93.5968 101.367 93.4617 102.525 93.6547 103.625C93.7512 104.191 94.4268 104.654 94.8386 105.162C95.289 104.629 96.016 104.153 96.1318 103.554C96.3442 102.467 96.1897 101.309 96.1897 100.119H93.5968ZM161.927 100.126C162.197 102.004 161.213 104.024 163.407 105.201C165.395 103.831 164.591 101.933 164.661 100.126H161.927ZM75.6971 76.4926C77.177 75.5406 77.5116 74.0032 76.8167 71.4366H74.3396C74.539 73.2764 73.5224 75.2769 75.6971 76.4926ZM163.336 76.4862C164.816 75.5535 165.157 74.0032 164.449 71.4238H161.972C162.21 73.2571 161.161 75.264 163.336 76.4862ZM94.9544 76.5569C96.9811 75.174 95.9646 73.2378 96.2348 71.5074H93.5453C93.7191 73.3085 92.7539 75.2318 94.948 76.5569H94.9544Z" fill="url(#paint0_linear_2311_3182)"/>
<defs>
<linearGradient id="paint0_linear_2311_3182" x1="10.7578" y1="1.65009" x2="152.173" y2="195.212" gradientUnits="userSpaceOnUse">
<stop stop-color="#24B0B3"/>
<stop offset="0.96" stop-color="#6449AC"/>
</linearGradient>
</defs>
</svg>
