<svg width="1534" height="542" viewBox="0 0 1534 542" fill="none" xmlns="http://www.w3.org/2000/svg">
<path d="M1522.67 135C1522.67 137.946 1525.05 140.333 1528 140.333C1530.95 140.333 1533.33 137.946 1533.33 135C1533.33 132.054 1530.95 129.667 1528 129.667C1525.05 129.667 1522.67 132.054 1522.67 135ZM1094 136H1528V134H1094V136ZM1094 134H1083.5V136H1094V134ZM1060.5 157V330H1062.5V157H1060.5ZM1039.5 351H120V353H1039.5V351ZM1060.5 330C1060.5 341.598 1051.1 351 1039.5 351V353C1052.2 353 1062.5 342.703 1062.5 330H1060.5ZM1083.5 134C1070.8 134 1060.5 144.297 1060.5 157H1062.5C1062.5 145.402 1071.9 136 1083.5 136V134Z" fill="#1F2846"/>
<path opacity="0.2" d="M22 362V505.017C22 525.442 67.662 542 124 542C180.338 542 226 525.442 226 505.017V362H22Z" fill="url(#paint0_linear_1916_1625)"/>
<path d="M124.009 455.436C192.498 455.436 248.019 439.376 248.019 419.565C248.019 399.754 192.498 383.695 124.009 383.695C55.5209 383.695 0 399.754 0 419.565C0 439.376 55.5209 455.436 124.009 455.436Z" fill="white"/>
<path d="M124.009 445.302C192.498 445.302 248.019 429.242 248.019 409.431C248.019 389.62 192.498 373.56 124.009 373.56C55.5209 373.56 0 389.62 0 409.431C0 429.242 55.5209 445.302 124.009 445.302Z" fill="#D7D7D7"/>
<path d="M22.209 115.555V404.909C22.209 421.169 67.7818 434.35 124.01 434.35C180.238 434.35 225.81 421.169 225.81 404.909V115.555H22.225H22.209Z" fill="#1F2846"/>
<path d="M225.101 115.555C225.101 119.369 222.425 123.111 217.319 126.602C212.229 130.082 204.832 133.236 195.646 135.892C177.28 141.203 151.879 144.495 123.801 144.495C95.7225 144.495 70.3213 141.203 51.9556 135.892C42.7695 133.236 35.3719 130.082 30.2822 126.602C25.1763 123.111 22.5 119.369 22.5 115.555C22.5 111.741 25.1763 107.999 30.2822 104.508C35.3719 101.028 42.7695 97.8743 51.9556 95.2176C70.3213 89.9063 95.7225 86.6144 123.801 86.6144C151.879 86.6144 177.28 89.9063 195.646 95.2176C204.832 97.8743 212.229 101.028 217.319 104.508C222.425 107.999 225.101 111.741 225.101 115.555Z" fill="#1F2846" stroke="white"/>
<path opacity="0.4" d="M124.01 141.692C177.078 141.692 220.098 129.251 220.098 113.903C220.098 98.5559 177.078 86.1144 124.01 86.1144C70.942 86.1144 27.9219 98.5559 27.9219 113.903C27.9219 129.251 70.942 141.692 124.01 141.692Z" fill="#1F2846"/>
<path d="M87.7057 45.45C88.0723 47.6167 88.9057 49.2833 90.2057 50.45C91.5057 51.6167 93.289 52.2 95.5557 52.2C98.689 52.2 101.006 50.9833 102.506 48.55C104.039 46.0833 104.739 42.0167 104.606 36.35C103.972 38.1833 102.756 39.6333 100.956 40.7C99.189 41.7333 97.1557 42.25 94.8557 42.25C91.3557 42.25 88.539 41.2 86.4057 39.1C84.3057 37 83.2557 34.0833 83.2557 30.35C83.2557 28.1167 83.689 26.1 84.5557 24.3C85.4223 22.5 86.739 21.0833 88.5057 20.05C90.2723 19.0167 92.439 18.5 95.0057 18.5C99.739 18.5 103.039 20.05 104.906 23.15C106.772 26.2167 107.706 30.6333 107.706 36.4C107.706 42.6333 106.772 47.3167 104.906 50.45C103.072 53.5833 99.9057 55.15 95.4057 55.15C92.1057 55.15 89.539 54.2667 87.7057 52.5C85.8723 50.7 84.789 48.35 84.4557 45.45H87.7057ZM95.4057 39.25C96.9723 39.25 98.4057 38.9333 99.7057 38.3C101.039 37.6333 102.106 36.6667 102.906 35.4C103.706 34.1333 104.106 32.6167 104.106 30.85C104.106 28.1167 103.322 25.8667 101.756 24.1C100.222 22.3333 98.0057 21.45 95.1057 21.45C92.539 21.45 90.4723 22.25 88.9057 23.85C87.3723 25.45 86.6057 27.5833 86.6057 30.25C86.6057 33.05 87.3723 35.25 88.9057 36.85C90.439 38.45 92.6057 39.25 95.4057 39.25ZM136.906 22.15H118.606V34.95C119.439 33.7833 120.656 32.8333 122.256 32.1C123.856 31.3333 125.589 30.95 127.456 30.95C130.189 30.95 132.422 31.5167 134.156 32.65C135.889 33.75 137.139 35.2 137.906 37C138.672 38.7667 139.056 40.6667 139.056 42.7C139.056 45.0333 138.606 47.15 137.706 49.05C136.839 50.9167 135.489 52.4 133.656 53.5C131.856 54.6 129.606 55.15 126.906 55.15C123.472 55.15 120.689 54.2667 118.556 52.5C116.422 50.7 115.122 48.2833 114.656 45.25H118.106C118.539 47.45 119.539 49.15 121.106 50.35C122.672 51.55 124.606 52.15 126.906 52.15C129.806 52.15 131.989 51.3 133.456 49.6C134.956 47.8667 135.706 45.5833 135.706 42.75C135.706 39.9833 134.956 37.8333 133.456 36.3C131.956 34.7333 129.806 33.95 127.006 33.95C125.072 33.95 123.372 34.4 121.906 35.3C120.439 36.2 119.356 37.4167 118.656 38.95H115.356V19.1H136.906V22.15ZM144.065 26.65C144.065 24.5167 144.715 22.8 146.015 21.5C147.348 20.1667 149.032 19.5 151.065 19.5C153.132 19.5 154.815 20.1667 156.115 21.5C157.448 22.8 158.115 24.5167 158.115 26.65C158.115 28.8167 157.448 30.5667 156.115 31.9C154.815 33.2 153.132 33.85 151.065 33.85C149.032 33.85 147.348 33.2 146.015 31.9C144.715 30.5667 144.065 28.8167 144.065 26.65ZM172.065 20L151.565 55H148.015L168.565 20H172.065ZM151.065 21.75C149.798 21.75 148.782 22.1833 148.015 23.05C147.282 23.8833 146.915 25.0833 146.915 26.65C146.915 28.2167 147.282 29.4333 148.015 30.3C148.782 31.1667 149.798 31.6 151.065 31.6C152.332 31.6 153.348 31.1667 154.115 30.3C154.882 29.4333 155.265 28.2167 155.265 26.65C155.265 25.1167 154.882 23.9167 154.115 23.05C153.348 22.1833 152.332 21.75 151.065 21.75ZM162.065 48.35C162.065 46.1833 162.715 44.45 164.015 43.15C165.348 41.8167 167.032 41.15 169.065 41.15C171.098 41.15 172.765 41.8167 174.065 43.15C175.398 44.45 176.065 46.1833 176.065 48.35C176.065 50.5167 175.398 52.2667 174.065 53.6C172.765 54.9 171.098 55.55 169.065 55.55C167.032 55.55 165.348 54.9 164.015 53.6C162.715 52.2667 162.065 50.5167 162.065 48.35ZM169.065 43.45C167.798 43.45 166.782 43.8833 166.015 44.75C165.248 45.6167 164.865 46.8167 164.865 48.35C164.865 49.8833 165.248 51.0833 166.015 51.95C166.782 52.8167 167.798 53.25 169.065 53.25C170.332 53.25 171.332 52.8333 172.065 52C172.832 51.1333 173.215 49.9167 173.215 48.35C173.215 46.7833 172.832 45.5833 172.065 44.75C171.332 43.8833 170.332 43.45 169.065 43.45Z" fill="#1F2846"/>
<path opacity="0.2" d="M283 362V505.017C283 525.442 328.662 542 385 542C441.338 542 487 525.442 487 505.017V362H283Z" fill="url(#paint1_linear_1916_1625)"/>
<path d="M385.028 454.891C453.516 454.891 509.037 438.103 509.037 417.394C509.037 396.685 453.516 379.896 385.028 379.896C316.539 379.896 261.019 396.685 261.019 417.394C261.019 438.103 316.539 454.891 385.028 454.891Z" fill="white"/>
<path d="M385.028 444.297C453.516 444.297 509.037 427.509 509.037 406.8C509.037 386.091 453.516 369.303 385.028 369.303C316.539 369.303 261.019 386.091 261.019 406.8C261.019 427.509 316.539 444.297 385.028 444.297Z" fill="#D7D7D7"/>
<path d="M283.228 283.077V402.09C283.228 419.087 328.8 432.865 385.028 432.865C441.256 432.865 486.829 419.087 486.829 402.09V283.077H283.228Z" fill="#24B0B3"/>
<path d="M486.329 283.077C486.329 287.086 483.64 291.003 478.538 294.65C473.449 298.287 466.052 301.583 456.867 304.36C438.504 309.912 413.105 313.353 385.028 313.353C356.952 313.353 331.553 309.912 313.189 304.36C304.004 301.583 296.607 298.287 291.518 294.65C286.417 291.003 283.728 287.086 283.728 283.077C283.728 279.068 286.417 275.151 291.518 271.505C296.607 267.867 304.004 264.571 313.189 261.794C331.553 256.242 356.952 252.801 385.028 252.801C413.105 252.801 438.504 256.242 456.867 261.794C466.052 264.571 473.449 267.867 478.538 271.505C483.64 275.151 486.329 279.068 486.329 283.077Z" fill="#24B0B3" stroke="white"/>
<path opacity="0.4" d="M385.028 310.5C438.184 310.5 481.276 297.472 481.276 281.401C481.276 265.33 438.184 252.301 385.028 252.301C331.871 252.301 288.779 265.33 288.779 281.401C288.779 297.472 331.871 310.5 385.028 310.5Z" fill="#24B0B3"/>
<path d="M350.698 221.25C356.832 216.65 361.565 212.533 364.898 208.9C368.265 205.233 369.948 201.65 369.948 198.15C369.948 195.85 369.365 194.017 368.198 192.65C367.065 191.25 365.198 190.55 362.598 190.55C360.065 190.55 358.098 191.35 356.698 192.95C355.332 194.517 354.565 196.617 354.398 199.25H350.998C351.198 195.55 352.332 192.683 354.398 190.65C356.498 188.583 359.232 187.55 362.598 187.55C365.832 187.55 368.448 188.467 370.448 190.3C372.448 192.1 373.448 194.667 373.448 198C373.448 202.033 371.765 205.95 368.398 209.75C365.065 213.517 360.948 217.2 356.048 220.8H374.548V223.75H350.698V221.25ZM380.012 205.75C380.012 200.017 380.895 195.567 382.662 192.4C384.428 189.233 387.595 187.65 392.162 187.65C396.728 187.65 399.895 189.233 401.662 192.4C403.428 195.567 404.312 200.017 404.312 205.75C404.312 211.583 403.428 216.1 401.662 219.3C399.895 222.5 396.728 224.1 392.162 224.1C387.562 224.1 384.378 222.5 382.612 219.3C380.878 216.1 380.012 211.583 380.012 205.75ZM400.862 205.75C400.862 202.65 400.645 200.033 400.212 197.9C399.778 195.767 398.928 194.05 397.662 192.75C396.395 191.45 394.562 190.8 392.162 190.8C389.762 190.8 387.928 191.45 386.662 192.75C385.395 194.05 384.545 195.767 384.112 197.9C383.678 200.033 383.462 202.65 383.462 205.75C383.462 208.95 383.678 211.633 384.112 213.8C384.545 215.933 385.395 217.65 386.662 218.95C387.928 220.25 389.762 220.9 392.162 220.9C394.562 220.9 396.395 220.25 397.662 218.95C398.928 217.65 399.778 215.933 400.212 213.8C400.645 211.633 400.862 208.95 400.862 205.75ZM409.722 195.65C409.722 193.517 410.372 191.8 411.672 190.5C413.006 189.167 414.689 188.5 416.722 188.5C418.789 188.5 420.472 189.167 421.772 190.5C423.106 191.8 423.772 193.517 423.772 195.65C423.772 197.817 423.106 199.567 421.772 200.9C420.472 202.2 418.789 202.85 416.722 202.85C414.689 202.85 413.006 202.2 411.672 200.9C410.372 199.567 409.722 197.817 409.722 195.65ZM437.722 189L417.222 224H413.672L434.222 189H437.722ZM416.722 190.75C415.456 190.75 414.439 191.183 413.672 192.05C412.939 192.883 412.572 194.083 412.572 195.65C412.572 197.217 412.939 198.433 413.672 199.3C414.439 200.167 415.456 200.6 416.722 200.6C417.989 200.6 419.006 200.167 419.772 199.3C420.539 198.433 420.922 197.217 420.922 195.65C420.922 194.117 420.539 192.917 419.772 192.05C419.006 191.183 417.989 190.75 416.722 190.75ZM427.722 217.35C427.722 215.183 428.372 213.45 429.672 212.15C431.006 210.817 432.689 210.15 434.722 210.15C436.756 210.15 438.422 210.817 439.722 212.15C441.056 213.45 441.722 215.183 441.722 217.35C441.722 219.517 441.056 221.267 439.722 222.6C438.422 223.9 436.756 224.55 434.722 224.55C432.689 224.55 431.006 223.9 429.672 222.6C428.372 221.267 427.722 219.517 427.722 217.35ZM434.722 212.45C433.456 212.45 432.439 212.883 431.672 213.75C430.906 214.617 430.522 215.817 430.522 217.35C430.522 218.883 430.906 220.083 431.672 220.95C432.439 221.817 433.456 222.25 434.722 222.25C435.989 222.25 436.989 221.833 437.722 221C438.489 220.133 438.872 218.917 438.872 217.35C438.872 215.783 438.489 214.583 437.722 213.75C436.989 212.883 435.989 212.45 434.722 212.45Z" fill="#1F2846"/>
<path opacity="0.2" d="M544 382V493.581C544 520.322 589.662 542 646 542C702.338 542 748 520.322 748 493.581V382H544.016H544Z" fill="url(#paint2_linear_1916_1625)"/>
<path d="M646.047 454.86C714.536 454.86 770.057 437.178 770.057 415.366C770.057 393.555 714.536 375.873 646.047 375.873C577.559 375.873 522.038 393.555 522.038 415.366C522.038 437.178 577.559 454.86 646.047 454.86Z" fill="white"/>
<path d="M646.047 443.702C714.536 443.702 770.057 426.02 770.057 404.209C770.057 382.397 714.536 364.715 646.047 364.715C577.559 364.715 522.038 382.397 522.038 404.209C522.038 426.02 577.559 443.702 646.047 443.702Z" fill="#D7D7D7"/>
<path d="M544.247 324.533V399.23C544.247 417.132 589.82 431.644 646.048 431.644C702.276 431.644 747.848 417.132 747.848 399.23V324.533H544.263H544.247Z" fill="#6449AC"/>
<path d="M746.903 324.533C746.903 328.779 744.2 332.913 739.102 336.75C734.014 340.581 726.618 344.052 717.435 346.976C699.074 352.823 673.677 356.447 645.602 356.447C617.528 356.447 592.131 352.823 573.77 346.976C564.587 344.052 557.191 340.581 552.102 336.75C547.005 332.913 544.302 328.779 544.302 324.533C544.302 320.286 547.005 316.152 552.102 312.315C557.191 308.484 564.587 305.013 573.77 302.089C592.131 296.243 617.528 292.619 645.602 292.619C673.677 292.619 699.074 296.243 717.435 302.089C726.618 305.013 734.014 308.484 739.102 312.315C744.2 316.152 746.903 320.286 746.903 324.533Z" fill="#6449AC" stroke="white"/>
<path opacity="0.4" d="M646.048 352.427C698.336 352.427 740.724 338.927 740.724 322.273C740.724 305.619 698.336 292.119 646.048 292.119C593.76 292.119 551.372 305.619 551.372 322.273C551.372 338.927 593.76 352.427 646.048 352.427Z" fill="#6449AC"/>
<path d="M640.038 238.15H621.738V250.95C622.572 249.783 623.788 248.833 625.388 248.1C626.988 247.333 628.722 246.95 630.588 246.95C633.322 246.95 635.555 247.517 637.288 248.65C639.022 249.75 640.272 251.2 641.038 253C641.805 254.767 642.188 256.667 642.188 258.7C642.188 261.033 641.738 263.15 640.838 265.05C639.972 266.917 638.622 268.4 636.788 269.5C634.988 270.6 632.738 271.15 630.038 271.15C626.605 271.15 623.822 270.267 621.688 268.5C619.555 266.7 618.255 264.283 617.788 261.25H621.238C621.672 263.45 622.672 265.15 624.238 266.35C625.805 267.55 627.738 268.15 630.038 268.15C632.938 268.15 635.122 267.3 636.588 265.6C638.088 263.867 638.838 261.583 638.838 258.75C638.838 255.983 638.088 253.833 636.588 252.3C635.088 250.733 632.938 249.95 630.138 249.95C628.205 249.95 626.505 250.4 625.038 251.3C623.572 252.2 622.488 253.417 621.788 254.95H618.488V235.1H640.038V238.15ZM674.198 254H663.048V265.25H659.798V254H648.698V251H659.798V239.75H663.048V251H674.198V254Z" fill="#1F2846"/>
<path opacity="0.2" d="M805 362V505.017C805 525.442 850.662 542 907 542C963.338 542 1009 525.442 1009 505.017V362H805Z" fill="url(#paint3_linear_1916_1625)"/>
<path d="M907.066 454.891C975.555 454.891 1031.08 438.103 1031.08 417.394C1031.08 396.685 975.555 379.896 907.066 379.896C838.578 379.896 783.057 396.685 783.057 417.394C783.057 438.103 838.578 454.891 907.066 454.891Z" fill="white"/>
<path d="M907.066 444.297C975.555 444.297 1031.08 427.509 1031.08 406.8C1031.08 386.091 975.555 369.303 907.066 369.303C838.578 369.303 783.057 386.091 783.057 406.8C783.057 427.509 838.578 444.297 907.066 444.297Z" fill="#D7D7D7"/>
<path d="M805.266 283.077V402.09C805.266 419.087 850.838 432.865 907.066 432.865C963.294 432.865 1008.87 419.087 1008.87 402.09V283.077H805.266Z" fill="#009AD6"/>
<path d="M1008.18 283.077C1008.18 287.086 1005.49 291.003 1000.39 294.65C995.297 298.287 987.9 301.583 978.715 304.36C960.352 309.912 934.952 313.353 906.876 313.353C878.799 313.353 853.4 309.912 835.037 304.36C825.852 301.583 818.455 298.287 813.366 294.65C808.264 291.003 805.575 287.086 805.575 283.077C805.575 279.068 808.264 275.151 813.366 271.505C818.455 267.867 825.852 264.571 835.037 261.794C853.4 256.242 878.799 252.801 906.876 252.801C934.952 252.801 960.352 256.242 978.715 261.794C987.9 264.571 995.297 267.867 1000.39 271.505C1005.49 275.151 1008.18 279.068 1008.18 283.077Z" fill="#009AD6" stroke="white"/>
<path opacity="0.4" d="M907.066 310.5C960.222 310.5 1003.31 297.472 1003.31 281.401C1003.31 265.33 960.222 252.301 907.066 252.301C853.909 252.301 810.817 265.33 810.817 281.401C810.817 297.472 853.909 310.5 907.066 310.5Z" fill="#009AD6"/>
<path d="M863.531 221.25C869.665 216.65 874.398 212.533 877.731 208.9C881.098 205.233 882.781 201.65 882.781 198.15C882.781 195.85 882.198 194.017 881.031 192.65C879.898 191.25 878.031 190.55 875.431 190.55C872.898 190.55 870.931 191.35 869.531 192.95C868.165 194.517 867.398 196.617 867.231 199.25H863.831C864.031 195.55 865.165 192.683 867.231 190.65C869.331 188.583 872.065 187.55 875.431 187.55C878.665 187.55 881.281 188.467 883.281 190.3C885.281 192.1 886.281 194.667 886.281 198C886.281 202.033 884.598 205.95 881.231 209.75C877.898 213.517 873.781 217.2 868.881 220.8H887.381V223.75H863.531V221.25ZM892.845 205.75C892.845 200.017 893.728 195.567 895.495 192.4C897.261 189.233 900.428 187.65 904.995 187.65C909.561 187.65 912.728 189.233 914.495 192.4C916.261 195.567 917.145 200.017 917.145 205.75C917.145 211.583 916.261 216.1 914.495 219.3C912.728 222.5 909.561 224.1 904.995 224.1C900.395 224.1 897.211 222.5 895.445 219.3C893.711 216.1 892.845 211.583 892.845 205.75ZM913.695 205.75C913.695 202.65 913.478 200.033 913.045 197.9C912.611 195.767 911.761 194.05 910.495 192.75C909.228 191.45 907.395 190.8 904.995 190.8C902.595 190.8 900.761 191.45 899.495 192.75C898.228 194.05 897.378 195.767 896.945 197.9C896.511 200.033 896.295 202.65 896.295 205.75C896.295 208.95 896.511 211.633 896.945 213.8C897.378 215.933 898.228 217.65 899.495 218.95C900.761 220.25 902.595 220.9 904.995 220.9C907.395 220.9 909.228 220.25 910.495 218.95C911.761 217.65 912.611 215.933 913.045 213.8C913.478 211.633 913.695 208.95 913.695 205.75ZM949.555 207H938.405V218.25H935.155V207H924.055V204H935.155V192.75H938.405V204H949.555V207Z" fill="#1F2846"/>
<defs>
<linearGradient id="paint0_linear_1916_1625" x1="124" y1="546.492" x2="124" y2="406.738" gradientUnits="userSpaceOnUse">
<stop stop-color="#1F2846" stop-opacity="0"/>
<stop offset="1" stop-color="#1F2846"/>
</linearGradient>
<linearGradient id="paint1_linear_1916_1625" x1="385" y1="546.492" x2="385" y2="406.738" gradientUnits="userSpaceOnUse">
<stop stop-color="#24B0B3" stop-opacity="0"/>
<stop offset="1" stop-color="#24B0B3"/>
</linearGradient>
<linearGradient id="paint2_linear_1916_1625" x1="646" y1="545.745" x2="646" y2="456.027" gradientUnits="userSpaceOnUse">
<stop stop-color="#6306FC" stop-opacity="0"/>
<stop offset="1" stop-color="#6449AC"/>
</linearGradient>
<linearGradient id="paint3_linear_1916_1625" x1="907" y1="546.492" x2="907" y2="406.738" gradientUnits="userSpaceOnUse">
<stop stop-color="#009AD6" stop-opacity="0"/>
<stop offset="1" stop-color="#009AD6"/>
</linearGradient>
</defs>
</svg>
