<svg width="309" height="357" viewBox="0 0 309 357" fill="none" xmlns="http://www.w3.org/2000/svg">
<g filter="url(#filter0_d_2597_4076)">
<path fill-rule="evenodd" clip-rule="evenodd" d="M82.766 57.4981C90.7649 57.4981 97.1108 51.0155 100.214 43.643C107.499 26.3325 126.37 14 148.5 14C170.63 14 189.501 26.3325 196.786 43.643C199.889 51.0155 206.235 57.4981 214.234 57.4981H267.44C275.725 57.4981 282.44 64.2138 282.44 72.4981V316C282.44 324.284 275.725 331 267.44 331H29C20.7157 331 14 324.284 14 316V72.4981C14 64.2138 20.7157 57.4981 29 57.4981H82.766Z" fill="white"/>
</g>
<defs>
<filter id="filter0_d_2597_4076" x="0" y="0" width="308.44" height="357" filterUnits="userSpaceOnUse" color-interpolation-filters="sRGB">
<feFlood flood-opacity="0" result="BackgroundImageFix"/>
<feColorMatrix in="SourceAlpha" type="matrix" values="0 0 0 0 0 0 0 0 0 0 0 0 0 0 0 0 0 0 127 0" result="hardAlpha"/>
<feOffset dx="6" dy="6"/>
<feGaussianBlur stdDeviation="10"/>
<feComposite in2="hardAlpha" operator="out"/>
<feColorMatrix type="matrix" values="0 0 0 0 0 0 0 0 0 0 0 0 0 0 0 0 0 0 0.25 0"/>
<feBlend mode="normal" in2="BackgroundImageFix" result="effect1_dropShadow_2597_4076"/>
<feBlend mode="normal" in="SourceGraphic" in2="effect1_dropShadow_2597_4076" result="shape"/>
</filter>
</defs>
</svg>
