<svg width="626" height="527" viewBox="0 0 626 527" fill="none" xmlns="http://www.w3.org/2000/svg">
<g clip-path="url(#clip0_2034_1689)">
<g opacity="0.3">
<path d="M113.527 286.855V174.57L326.716 51.5615V163.846L113.527 286.855ZM114.234 174.991V285.624L325.995 163.441V52.8081L114.234 174.991Z" fill="#1F2846"/>
<path d="M326.185 141.043L113.686 263.609L114.046 264.233L326.546 141.667L326.185 141.043Z" fill="#1F2846"/>
<path d="M326.189 118.749L113.689 241.316L114.05 241.94L326.55 119.374L326.189 118.749Z" fill="#1F2846"/>
<path d="M326.191 96.4561L113.691 219.022L114.052 219.647L326.552 97.0805L326.191 96.4561Z" fill="#1F2846"/>
<path d="M326.195 74.1777L113.695 196.744L114.056 197.368L326.556 74.8021L326.195 74.1777Z" fill="#1F2846"/>
<path d="M113.979 175.141H113.874V174.781L113.693 174.465L326.176 51.877L326.536 52.4927L113.979 175.141Z" fill="#1F2846"/>
<path d="M307.405 63.3217H306.684V174.78H307.405V63.3217Z" fill="#1F2846"/>
<path d="M288.079 74.4661H287.357V185.925H288.079V74.4661Z" fill="#1F2846"/>
<path d="M268.768 85.6105H268.047V197.069H268.768V85.6105Z" fill="#1F2846"/>
<path d="M249.456 96.7699H248.734V208.229H249.456V96.7699Z" fill="#1F2846"/>
<path d="M230.13 107.899H229.408V219.358H230.13V107.899Z" fill="#1F2846"/>
<path d="M210.819 119.059H210.098V230.502H210.819V119.059Z" fill="#1F2846"/>
<path d="M191.508 130.203H190.787V241.662H191.508V130.203Z" fill="#1F2846"/>
<path d="M172.182 141.347H171.461V252.806H172.182V141.347Z" fill="#1F2846"/>
<path d="M152.872 152.492H152.15V263.951H152.872V152.492Z" fill="#1F2846"/>
<path d="M133.559 163.636H132.838V275.095H133.559V163.636Z" fill="#1F2846"/>
</g>
<g opacity="0.3">
<path d="M193.522 346.452L115.541 301.454L328.73 178.445L406.711 223.443L193.522 346.452ZM116.984 301.454L193.522 345.626L405.283 223.443L328.745 179.271L116.984 301.454Z" fill="#1F2846"/>
<path d="M405.836 223.138L193.357 345.741L193.718 346.366L406.196 223.763L405.836 223.138Z" fill="#1F2846"/>
<path d="M386.512 211.992L174.033 334.596L174.394 335.22L386.872 212.617L386.512 211.992Z" fill="#1F2846"/>
<path d="M367.181 200.841L154.703 323.444L155.064 324.069L367.542 201.465L367.181 200.841Z" fill="#1F2846"/>
<path d="M347.888 189.681L135.41 312.284L135.771 312.908L348.249 190.305L347.888 189.681Z" fill="#1F2846"/>
<path d="M309.605 189.684L309.244 190.308L386.5 234.886L386.86 234.261L309.605 189.684Z" fill="#1F2846"/>
<path d="M290.296 200.841L289.936 201.465L367.191 246.043L367.552 245.419L290.296 200.841Z" fill="#1F2846"/>
<path d="M270.978 211.996L270.617 212.62L347.873 257.198L348.233 256.574L270.978 211.996Z" fill="#1F2846"/>
<path d="M251.654 223.138L251.293 223.762L328.561 268.347L328.922 267.723L251.654 223.138Z" fill="#1F2846"/>
<path d="M232.343 234.265L231.982 234.889L309.238 279.467L309.598 278.842L232.343 234.265Z" fill="#1F2846"/>
<path d="M213.034 245.407L212.674 246.031L289.929 290.609L290.29 289.985L213.034 245.407Z" fill="#1F2846"/>
<path d="M193.701 256.562L193.34 257.186L270.595 301.764L270.956 301.14L193.701 256.562Z" fill="#1F2846"/>
<path d="M174.392 267.704L174.031 268.328L251.287 312.906L251.647 312.282L174.392 267.704Z" fill="#1F2846"/>
<path d="M155.081 278.846L154.721 279.47L231.976 324.048L232.337 323.424L155.081 278.846Z" fill="#1F2846"/>
<path d="M135.749 290.001L135.389 290.625L212.644 335.203L213.005 334.579L135.749 290.001Z" fill="#1F2846"/>
</g>
<g style="mix-blend-mode:multiply" opacity="0.3">
<path d="M314.603 180.338L233.436 206.622V254.218H161.947L182.521 317.359H212.096L381.808 219.373L314.603 180.338Z" fill="#F8F8F8"/>
</g>
<path d="M279.559 142.864L280.055 221.115L314.574 241.166L314.078 162.915L279.559 142.864Z" fill="#50298A"/>
<path d="M314.078 162.915L314.574 241.166L349.319 221.115L348.823 142.864L314.078 162.915Z" fill="#693AB0"/>
<path d="M279.559 142.864L314.078 162.915L348.823 142.864L314.304 122.813L279.559 142.864Z" fill="#7350BA"/>
<path d="M235.541 105.977L236.037 246.513L270.572 266.564L270.061 126.028L235.541 105.977Z" fill="#5E3CB5"/>
<path d="M270.061 126.028L270.571 266.564L305.316 246.513L304.806 105.977L270.061 126.028Z" fill="#5430AF"/>
<path d="M235.541 105.977L270.061 126.028L304.806 105.977L270.286 85.9259L235.541 105.977Z" fill="#6341B7"/>
<path d="M191.523 133.357L192.034 271.911L226.554 291.962L226.043 153.408L191.523 133.357Z" fill="#353E5E"/>
<path d="M226.043 153.408L226.554 291.962L261.299 271.911L260.803 133.357L226.043 153.408Z" fill="#1F2846"/>
<path d="M191.523 133.357L226.043 153.408L260.803 133.357L226.268 113.306L191.523 133.357Z" fill="#2E3755"/>
<path d="M147.506 241.076L148.017 297.309L182.536 317.36L182.04 261.127L147.506 241.076Z" fill="#D4CED8"/>
<path d="M182.041 261.127L182.537 317.36L217.297 297.309L216.786 241.076L182.041 261.127Z" fill="#E0DDE1"/>
<path d="M147.506 241.076L182.04 261.127L216.785 241.076L182.266 221.025L147.506 241.076Z" fill="#F1F1F1"/>
<path d="M176.555 205.21V205.465C176.555 206.502 176.194 207.433 175.503 208.139C176.24 208.033 176.555 208.604 176.555 209.611V210.392C176.555 211.924 175.939 213.29 174.601 214.056C173.279 214.822 172.648 214.176 172.648 212.644V211.954L173.55 211.428V212.194C173.55 213.095 173.865 213.455 174.571 213.05C175.278 212.644 175.593 211.939 175.593 210.917V210.151C175.593 209.16 175.233 208.905 174.496 209.295L173.97 209.596V208.589L174.541 208.259C175.188 207.853 175.578 207.162 175.578 206.276V205.811C175.578 204.774 175.263 204.429 174.556 204.834C173.865 205.24 173.534 205.976 173.534 206.877V207.388L172.633 207.913V207.448C172.633 205.916 173.249 204.564 174.586 203.798C175.924 203.017 176.54 203.648 176.54 205.195L176.555 205.21Z" fill="#FF445F"/>
<path d="M178.464 205.766C178.734 205.06 179.17 204.534 179.756 204.189C180.868 203.543 181.364 204.189 181.364 205.63V207.598C181.364 209.13 180.733 210.497 179.411 211.263C178.088 212.029 177.457 211.383 177.457 209.851V209.175L178.359 208.649V209.4C178.359 210.301 178.674 210.662 179.381 210.256C180.072 209.851 180.403 209.13 180.403 208.229V206.276C180.403 205.375 180.087 205.015 179.381 205.42C178.84 205.721 178.494 206.276 178.404 207.057V207.283L177.502 207.808L177.743 202.101L181.169 200.118V201.125L178.614 202.596L178.479 205.751L178.464 205.766Z" fill="#FF445F"/>
<path d="M184.731 199.638V202.807C184.731 203.783 184.34 204.654 183.484 205.135C182.642 205.615 182.236 205.21 182.236 204.234V201.064C182.236 200.103 182.627 199.217 183.484 198.736C184.325 198.256 184.731 198.676 184.731 199.638ZM182.868 200.659V203.918C182.868 204.459 183.048 204.714 183.484 204.459C183.919 204.204 184.1 203.738 184.1 203.197V199.938C184.1 199.397 183.919 199.127 183.484 199.382C183.033 199.638 182.868 200.118 182.868 200.659ZM187.601 196.423L184.175 208.424L183.589 208.754L187.015 196.754L187.601 196.423ZM188.999 200.899V204.053C188.999 205.03 188.608 205.901 187.752 206.381C186.91 206.862 186.504 206.456 186.504 205.48V202.326C186.504 201.365 186.895 200.494 187.752 200.013C188.608 199.517 188.999 199.938 188.999 200.899ZM187.135 201.936V205.18C187.135 205.72 187.316 205.991 187.752 205.735C188.187 205.48 188.368 205 188.368 204.459V201.215C188.368 200.674 188.187 200.419 187.752 200.674C187.316 200.929 187.135 201.395 187.135 201.936Z" fill="#FF445F"/>
<path d="M310.125 110.167V110.422C310.125 111.459 309.765 112.39 309.073 113.096C309.81 112.991 310.125 113.562 310.125 114.568V115.334C310.125 116.866 309.509 118.233 308.172 118.999C306.849 119.765 306.218 119.119 306.218 117.587V116.896L307.12 116.37V117.136C307.12 118.037 307.435 118.398 308.142 117.992C308.848 117.587 309.164 116.881 309.164 115.859V115.078C309.164 114.087 308.803 113.832 308.067 114.222L307.541 114.523V113.516L308.112 113.186C308.758 112.78 309.149 112.09 309.149 111.203V110.738C309.149 109.702 308.833 109.356 308.127 109.762C307.435 110.167 307.105 110.903 307.105 111.804V112.315L306.203 112.841V112.375C306.203 110.843 306.819 109.491 308.157 108.725C309.494 107.959 310.125 108.575 310.125 110.122V110.167Z" fill="#FF445F"/>
<path d="M314.965 107.373V112.48C314.965 114.072 314.349 115.424 312.952 116.235C311.629 117.001 310.998 116.385 310.998 114.838V114.658L311.9 114.132V114.388C311.9 115.289 312.23 115.619 312.937 115.229C313.688 114.793 314.004 114.072 314.004 113.006V110.753C313.763 111.579 313.297 112.225 312.606 112.615C311.494 113.261 310.998 112.615 310.998 111.188V109.656C310.998 108.124 311.644 106.758 312.982 105.992C314.319 105.226 314.98 105.826 314.98 107.358L314.965 107.373ZM311.93 109.056V110.558C311.93 111.459 312.26 111.804 312.967 111.414C313.673 111.008 314.004 110.272 314.004 109.371V107.869C314.004 106.953 313.688 106.607 312.967 107.013C312.275 107.419 311.93 108.139 311.93 109.056Z" fill="#FF445F"/>
<path d="M318.315 104.565V107.734C318.315 108.71 317.924 109.581 317.068 110.062C316.226 110.543 315.82 110.137 315.82 109.161V105.992C315.82 105.03 316.211 104.144 317.068 103.664C317.909 103.183 318.315 103.604 318.315 104.565ZM316.467 105.601V108.86C316.467 109.401 316.647 109.656 317.083 109.401C317.518 109.146 317.699 108.68 317.699 108.139V104.88C317.699 104.34 317.518 104.069 317.083 104.325C316.632 104.58 316.467 105.06 316.467 105.601ZM321.185 101.351L317.759 113.351L317.173 113.682L320.599 101.681L321.185 101.351ZM322.598 105.841V108.996C322.598 109.972 322.207 110.843 321.351 111.324C320.509 111.804 320.103 111.399 320.103 110.422V107.268C320.103 106.307 320.494 105.436 321.351 104.955C322.207 104.46 322.598 104.88 322.598 105.841ZM320.735 106.878V110.122C320.735 110.663 320.915 110.933 321.351 110.678C321.786 110.422 321.967 109.942 321.967 109.401V106.157C321.967 105.616 321.786 105.361 321.351 105.616C320.915 105.872 320.735 106.337 320.735 106.878Z" fill="#FF445F"/>
<path d="M214.981 106.442C215.252 105.736 215.688 105.211 216.274 104.865C217.386 104.219 217.882 104.865 217.882 106.307V108.275C217.882 109.807 217.251 111.173 215.928 111.939C214.606 112.705 213.975 112.06 213.975 110.528V109.852L214.876 109.326V110.077C214.876 110.978 215.192 111.339 215.898 110.933C216.589 110.528 216.92 109.807 216.92 108.906V106.953C216.92 106.052 216.605 105.691 215.898 106.097C215.372 106.397 215.012 106.953 214.921 107.734V107.959L214.02 108.485L214.26 102.778L217.687 100.795V101.801L215.132 103.273L214.997 106.427L214.981 106.442Z" fill="#FF445F"/>
<path d="M222.737 100.329C222.737 103.348 219.791 106.142 219.776 108.455V108.605L222.632 106.953V107.974L218.814 110.167V109.311C218.814 106.067 221.76 103.754 221.76 100.93C221.76 99.8939 221.459 99.5334 220.738 99.939C220.032 100.344 219.716 101.11 219.716 101.997V102.883L218.814 103.408V102.597C218.814 101.065 219.416 99.6986 220.768 98.9176C222.121 98.1366 222.722 98.7825 222.737 100.314V100.329Z" fill="#FF445F"/>
<path d="M226.057 97.5358V100.705C226.057 101.681 225.666 102.552 224.81 103.033C223.968 103.514 223.562 103.108 223.562 102.132V98.9626C223.562 98.0014 223.953 97.1153 224.81 96.6346C225.651 96.154 226.057 96.5746 226.057 97.5358ZM224.194 98.5721V101.831C224.194 102.372 224.374 102.627 224.81 102.372C225.246 102.117 225.426 101.651 225.426 101.11V97.8512C225.426 97.3105 225.246 97.0402 224.81 97.2955C224.359 97.5508 224.194 98.0314 224.194 98.5721ZM228.928 94.3217L225.501 106.322L224.915 106.653L228.341 94.6521L228.928 94.3217ZM230.325 98.8125V101.967C230.325 102.943 229.934 103.814 229.078 104.295C228.236 104.775 227.83 104.37 227.83 103.393V100.239C227.83 99.278 228.221 98.4069 229.078 97.9263C229.934 97.4307 230.325 97.8512 230.325 98.8125ZM228.462 99.8488V103.093C228.462 103.634 228.642 103.904 229.078 103.649C229.514 103.393 229.694 102.913 229.694 102.372V99.1279C229.694 98.5872 229.514 98.3318 229.078 98.5872C228.642 98.8425 228.462 99.3081 228.462 99.8488Z" fill="#FF445F"/>
<path d="M261.268 62.4355V62.6158L260.367 63.1414V62.8861C260.367 61.985 260.051 61.6395 259.33 62.045C258.593 62.4656 258.278 63.2015 258.278 64.2679V66.5208C258.518 65.6947 258.984 65.0339 259.675 64.6434C260.787 63.9976 261.283 64.6434 261.283 66.0852V67.6022C261.283 69.1342 260.622 70.516 259.3 71.2819C257.962 72.0479 257.301 71.4321 257.301 69.9002V64.7936C257.301 63.2015 257.917 61.8648 259.3 61.0688C260.637 60.3028 261.253 60.9186 261.253 62.4506L261.268 62.4355ZM258.278 67.9176V69.4195C258.278 70.3207 258.593 70.6812 259.315 70.2757C260.006 69.8701 260.351 69.1342 260.351 68.233V66.7311C260.351 65.8299 260.021 65.4845 259.315 65.875C258.608 66.2805 258.278 67.0164 258.278 67.9176Z" fill="#FF445F"/>
<path d="M265.732 65.4694V67.482L264.785 68.0227V66.0101L261.975 67.6322V66.6109L264.665 58.0649L265.717 57.4641V64.4481L266.408 64.0426V65.0639L265.717 65.4694H265.732ZM262.876 66.1003L264.785 65.0038V60.1075L262.876 66.1153V66.1003Z" fill="#FF445F"/>
<path d="M269.594 56.7882V59.9573C269.594 60.9336 269.204 61.8047 268.347 62.2853C267.505 62.766 267.1 62.3604 267.1 61.3842V58.2151C267.1 57.2538 267.49 56.3677 268.347 55.8871C269.189 55.4065 269.594 55.827 269.594 56.7882ZM267.746 57.8096V61.0688C267.746 61.6095 267.926 61.8648 268.362 61.6095C268.798 61.3541 268.978 60.8885 268.978 60.3478V57.0886C268.978 56.5479 268.798 56.2776 268.362 56.5329C267.911 56.7882 267.746 57.2689 267.746 57.8096ZM272.465 53.5741L269.038 65.5746L268.452 65.905L271.879 53.9045L272.465 53.5741ZM273.877 58.0649V61.219C273.877 62.1952 273.487 63.0663 272.63 63.547C271.788 64.0276 271.383 63.6221 271.383 62.6458V59.4917C271.383 58.5305 271.773 57.6594 272.63 57.1788C273.487 56.6831 273.877 57.1037 273.877 58.0649ZM272.014 59.0862V62.3304C272.014 62.8711 272.194 63.1414 272.63 62.8861C273.066 62.6308 273.246 62.1502 273.246 61.6095V58.3653C273.246 57.8246 273.066 57.5693 272.63 57.8246C272.194 58.0799 272.014 58.5455 272.014 59.0862Z" fill="#FF445F"/>
<path d="M183.047 235.023C182.746 235.023 182.506 234.783 182.506 234.483V214.762C182.506 214.462 182.746 214.221 183.047 214.221C183.347 214.221 183.588 214.462 183.588 214.762V234.483C183.588 234.783 183.347 235.023 183.047 235.023Z" fill="#FF445F"/>
<path d="M185.542 233.687C185.542 232.094 184.43 231.464 183.047 232.245C181.68 233.041 180.553 234.963 180.553 236.555C180.553 238.147 181.665 238.778 183.047 237.997C184.415 237.201 185.542 235.279 185.542 233.687Z" fill="#FF445F"/>
<path d="M222.887 131.66C222.586 131.66 222.346 131.42 222.346 131.119V111.399C222.346 111.098 222.586 110.858 222.887 110.858C223.187 110.858 223.428 111.098 223.428 111.399V131.119C223.428 131.42 223.187 131.66 222.887 131.66Z" fill="#FF445F"/>
<path d="M225.382 130.323C225.382 128.731 224.27 128.1 222.887 128.881C221.52 129.677 220.393 131.6 220.393 133.192C220.393 134.784 221.505 135.415 222.887 134.634C224.255 133.838 225.382 131.915 225.367 130.323H225.382Z" fill="#FF445F"/>
<path d="M265.836 91.0324C265.535 91.0324 265.295 90.7921 265.295 90.4917V70.7713C265.295 70.4709 265.535 70.2306 265.836 70.2306C266.136 70.2306 266.377 70.4709 266.377 70.7713V90.4917C266.377 90.7921 266.136 91.0324 265.836 91.0324Z" fill="#FF445F"/>
<path d="M268.331 89.6957C268.331 88.1036 267.219 87.4728 265.836 88.2538C264.469 89.0498 263.342 90.9723 263.342 92.5644C263.342 94.1564 264.454 94.7873 265.836 94.0062C267.204 93.2102 268.331 91.2877 268.331 89.6957Z" fill="#FF445F"/>
<path d="M314.619 138.689C314.319 138.689 314.078 138.449 314.078 138.148V118.428C314.078 118.127 314.319 117.887 314.619 117.887C314.92 117.887 315.16 118.127 315.16 118.428V138.148C315.16 138.449 314.92 138.689 314.619 138.689Z" fill="#FF445F"/>
<path d="M317.099 137.352C317.099 135.76 315.987 135.129 314.604 135.91C313.221 136.691 312.109 138.629 312.109 140.221C312.109 141.813 313.221 142.444 314.604 141.663C315.972 140.867 317.099 138.944 317.099 137.352Z" fill="#FF445F"/>
<path d="M144.634 140.882L105.666 138.884L105.816 136.121L143.041 138.028L175.847 78.0107L197.593 105.526L226.011 81.2999L246.419 29.2277L283.809 0L285.522 2.17781L248.719 30.9399L228.34 82.9671L197.202 109.491L176.268 83.0121L144.634 140.882Z" fill="#ADB2CC"/>
<path d="M251.004 28.642C251.004 31.03 249.335 33.9288 247.262 35.1153C245.203 36.3018 243.52 35.3406 243.52 32.9525C243.52 30.5644 245.188 27.6657 247.262 26.4792C249.32 25.2926 251.004 26.2539 251.004 28.642Z" fill="#ADB2CC"/>
<path d="M231.121 79.2122C231.121 81.6002 229.453 84.499 227.379 85.6855C225.32 86.872 223.637 85.9108 223.637 83.5227C223.637 81.1346 225.305 78.2359 227.379 77.0494C229.438 75.8628 231.121 76.8241 231.121 79.2122Z" fill="#ADB2CC"/>
<path d="M202.072 105.015C202.072 107.404 200.404 110.302 198.33 111.489C196.271 112.675 194.588 111.714 194.588 109.326C194.588 106.938 196.256 104.039 198.33 102.853C200.389 101.666 202.072 102.627 202.072 105.015Z" fill="#ADB2CC"/>
<path d="M179.093 79.2122C179.093 81.6002 177.425 84.499 175.351 85.6855C173.293 86.872 171.609 85.9108 171.609 83.5227C171.609 81.1346 173.277 78.2359 175.351 77.0494C177.41 75.8628 179.093 76.8241 179.093 79.2122Z" fill="#ADB2CC"/>
<path d="M148.121 137.608C148.121 139.996 146.453 142.894 144.379 144.081C142.32 145.267 140.637 144.306 140.637 141.918C140.637 139.53 142.305 136.631 144.379 135.445C146.438 134.258 148.121 135.219 148.121 137.608Z" fill="#ADB2CC"/>
<path d="M109.484 135.189C109.484 137.578 107.816 140.476 105.742 141.663C103.683 142.849 102 141.888 102 139.5C102 137.112 103.668 134.213 105.742 133.027C107.801 131.84 109.484 132.801 109.484 135.189Z" fill="#ADB2CC"/>
<path d="M108.612 156.036L106.418 154.339L142.02 108.455L171.129 120.996L206.956 67.1816L239.672 63.8924L265.46 39.2606L265.686 39.1555L306.667 21.4626L307.765 24.0009L267.008 41.6036L240.904 66.5508L208.534 69.81L172.166 124.466L142.891 111.849L108.612 156.036Z" fill="#4C1F8C"/>
<path d="M211.105 66.9714C211.105 69.3595 209.437 72.2583 207.363 73.4448C205.304 74.6313 203.621 73.6701 203.621 71.282C203.621 68.8939 205.289 65.9952 207.363 64.8086C209.422 63.6221 211.105 64.5833 211.105 66.9714Z" fill="#4C1F8C"/>
<path d="M176.179 119.524C176.179 121.912 174.511 124.811 172.437 125.998C170.378 127.184 168.695 126.223 168.695 123.835C168.695 121.447 170.363 118.548 172.437 117.361C174.496 116.175 176.179 117.136 176.179 119.524Z" fill="#4C1F8C"/>
<path d="M146.513 108.049C146.513 110.438 144.845 113.336 142.771 114.523C140.697 115.709 139.029 114.748 139.029 112.36C139.029 109.972 140.697 107.073 142.771 105.887C144.83 104.7 146.513 105.661 146.513 108.049Z" fill="#4C1F8C"/>
<path d="M111.904 152.206C111.904 154.594 110.236 157.493 108.162 158.68C106.103 159.866 104.42 158.905 104.42 156.517C104.42 154.129 106.088 151.23 108.162 150.044C110.221 148.857 111.904 149.818 111.904 152.206Z" fill="#4C1F8C"/>
<path d="M244.377 62.1351C244.377 64.5232 242.708 67.422 240.635 68.6085C238.576 69.795 236.893 68.8338 236.893 66.4457C236.893 64.0576 238.561 61.1589 240.635 59.9723C242.693 58.7858 244.377 59.747 244.377 62.1351Z" fill="#4C1F8C"/>
<path d="M268.857 39.1855C268.857 41.5736 267.189 44.4724 265.115 45.6589C263.056 46.8454 261.373 45.8842 261.373 43.4961C261.373 41.108 263.041 38.2093 265.115 37.0228C267.174 35.8362 268.857 36.7975 268.857 39.1855Z" fill="#4C1F8C"/>
<g style="mix-blend-mode:multiply" opacity="0.3">
<path d="M397.707 526.114H421.361L625.999 410.81L497.343 333.025L397.707 526.114Z" fill="#E7E7E7"/>
</g>
<path d="M161.135 380.862L161.165 389.047C161.165 389.948 161.751 390.834 162.938 391.525L162.908 383.34C161.736 382.664 161.15 381.763 161.135 380.862Z" fill="#E5E3E8"/>
<mask id="mask0_2034_1689" style="mask-type:luminance" maskUnits="userSpaceOnUse" x="161" y="380" width="2" height="12">
<path d="M161.135 380.862L161.165 389.047C161.165 389.948 161.751 390.834 162.938 391.525L162.908 383.34C161.736 382.664 161.15 381.763 161.135 380.862Z" fill="white"/>
</mask>
<g mask="url(#mask0_2034_1689)">
<path d="M161.135 380.862L161.165 389.047C161.165 389.948 161.751 390.834 162.938 391.525L162.908 383.34C161.736 382.664 161.15 381.763 161.135 380.862Z" fill="#E5E3E8"/>
</g>
<path d="M552.767 438.1L552.737 429.915C552.737 430.816 552.136 431.732 550.934 432.423L550.964 440.609C552.166 439.918 552.767 439.002 552.767 438.1Z" fill="#E5E3E8"/>
<path d="M162.908 383.325L162.938 391.51L394.431 525.964L394.416 517.778L162.908 383.325Z" fill="#E5E3E8"/>
<path d="M550.948 432.423C552.151 431.732 552.752 430.816 552.752 429.915L552.782 438.1C552.782 439.002 552.181 439.918 550.978 440.609L403.042 525.964L403.012 517.778L550.948 432.423Z" fill="#D4CED8"/>
<path d="M394.416 517.778L394.446 525.964C396.821 527.345 400.668 527.345 403.057 525.964L403.027 517.778C400.638 519.16 396.79 519.16 394.416 517.778Z" fill="#E5E3E8"/>
<mask id="mask1_2034_1689" style="mask-type:luminance" maskUnits="userSpaceOnUse" x="394" y="517" width="10" height="10">
<path d="M394.416 517.778L394.446 525.964C396.821 527.345 400.668 527.345 403.057 525.964L403.027 517.778C400.638 519.16 396.79 519.16 394.416 517.778Z" fill="white"/>
</mask>
<g mask="url(#mask1_2034_1689)">
<path d="M394.416 517.778L394.446 525.964C396.821 527.345 400.668 527.345 403.057 525.964L403.027 517.778C400.638 519.16 396.79 519.16 394.416 517.778Z" fill="#E0DDE1"/>
</g>
<path d="M162.938 378.353C160.549 379.735 160.534 381.958 162.908 383.34L394.416 517.793C396.791 519.175 400.638 519.175 403.027 517.793L550.964 432.438C553.353 431.056 553.368 428.833 550.994 427.452L319.486 292.998C317.112 291.616 313.264 291.631 310.875 292.998L162.938 378.353Z" fill="#F9F7FC"/>
<path d="M306.576 313.244V314.671L319.455 322.151L319.44 320.724L306.576 313.244Z" fill="#050915"/>
<path d="M319.439 320.724L319.454 322.151L332.394 314.671V313.244L319.439 320.724Z" fill="#050915"/>
<path d="M322.732 322.632V324.058L335.611 331.538V330.111L322.732 322.632Z" fill="#050915"/>
<path d="M335.611 330.111V331.538L348.566 324.058V322.632L335.611 330.111Z" fill="#050915"/>
<path d="M338.902 332.019V333.445L351.781 340.925V339.498L338.902 332.019Z" fill="#050915"/>
<path d="M351.781 339.498V340.925L364.735 333.445L364.72 332.019L351.781 339.498Z" fill="#050915"/>
<path d="M355.072 341.406V342.833L367.936 350.312V348.885L355.072 341.406Z" fill="#050915"/>
<path d="M367.936 348.885V350.312L380.89 342.833V341.406L367.936 348.885Z" fill="#050915"/>
<path d="M371.242 350.793V352.22L384.106 359.699V358.272L371.242 350.793Z" fill="#050915"/>
<path d="M384.105 358.272V359.699L397.06 352.22V350.793L384.105 358.272Z" fill="#050915"/>
<path d="M387.398 360.195L387.413 361.622L400.278 369.087V367.675L387.398 360.195Z" fill="#050915"/>
<path d="M400.277 367.675V369.087L413.232 361.622V360.195L400.277 367.675Z" fill="#050915"/>
<path d="M403.568 369.582V371.009L416.447 378.489V377.062L403.568 369.582Z" fill="#050915"/>
<path d="M416.447 377.062V378.489L429.401 371.009L429.386 369.582L416.447 377.062Z" fill="#050915"/>
<path d="M419.738 378.969V380.396L432.617 387.876L432.602 386.449L419.738 378.969Z" fill="#050915"/>
<path d="M432.602 386.449L432.617 387.876L445.556 380.396V378.969L432.602 386.449Z" fill="#050915"/>
<path d="M435.895 388.356L435.91 389.783L448.774 397.263V395.836L435.895 388.356Z" fill="#050915"/>
<path d="M448.773 395.836V397.263L461.728 389.783V388.356L448.773 395.836Z" fill="#050915"/>
<path d="M452.078 397.743V399.17L464.942 406.65V405.223L452.078 397.743Z" fill="#050915"/>
<path d="M464.941 405.223V406.65L477.896 399.17L477.881 397.743L464.941 405.223Z" fill="#050915"/>
<path d="M468.234 407.131V408.557L481.113 416.037L481.098 414.61L468.234 407.131Z" fill="#050915"/>
<path d="M481.098 414.61L481.113 416.037L494.052 408.557V407.131L481.098 414.61Z" fill="#050915"/>
<path d="M484.404 416.518V417.944L497.268 425.424V423.997L484.404 416.518Z" fill="#050915"/>
<path d="M497.268 423.997V425.424L510.222 417.944V416.518L497.268 423.997Z" fill="#050915"/>
<path d="M500.561 425.92L500.576 427.347L513.44 434.811V433.384L500.561 425.92Z" fill="#050915"/>
<path d="M513.439 433.384V434.811L526.394 427.347V425.92L513.439 433.384Z" fill="#050915"/>
<path d="M291.113 322.992V324.419L317.307 339.633V338.207L291.113 322.992Z" fill="#050915"/>
<path d="M317.307 338.207V339.633L330.261 332.169V330.742L317.307 338.207Z" fill="#050915"/>
<path d="M320.238 339.904V341.331L333.117 348.81L333.102 347.383L320.238 339.904Z" fill="#050915"/>
<path d="M333.102 347.384L333.117 348.81L346.056 341.346V339.919L333.102 347.384Z" fill="#050915"/>
<path d="M335.656 348.87V350.297L348.535 357.762L348.52 356.35L335.656 348.87Z" fill="#050915"/>
<path d="M348.52 356.35L348.535 357.762L361.474 350.297V348.87L348.52 356.35Z" fill="#050915"/>
<path d="M351.074 357.822V359.249L363.953 366.729L363.938 365.302L351.074 357.822Z" fill="#050915"/>
<path d="M363.938 365.302L363.953 366.729L376.892 359.249V357.822L363.938 365.302Z" fill="#050915"/>
<path d="M366.51 366.789V368.215L379.374 375.68V374.253L366.51 366.789Z" fill="#050915"/>
<path d="M379.373 374.253V375.68L392.327 368.215L392.312 366.789L379.373 374.253Z" fill="#050915"/>
<path d="M381.928 375.74V377.167L394.792 384.631V383.205L381.928 375.74Z" fill="#050915"/>
<path d="M394.791 383.205V384.631L407.745 377.167L407.73 375.74L394.791 383.205Z" fill="#050915"/>
<path d="M397.346 384.692V386.118L410.21 393.598V392.171L397.346 384.692Z" fill="#050915"/>
<path d="M410.209 392.171V393.598L423.163 386.118L423.148 384.692L410.209 392.171Z" fill="#050915"/>
<path d="M412.766 393.643V395.085L425.645 402.55V401.123L412.766 393.643Z" fill="#050915"/>
<path d="M425.645 401.123V402.55L438.584 395.085V393.658L425.645 401.123Z" fill="#050915"/>
<path d="M428.184 402.61V404.036L441.063 411.516V410.089L428.184 402.61Z" fill="#050915"/>
<path d="M441.062 410.089V411.516L454.017 404.036L454.002 402.61L441.062 410.089Z" fill="#050915"/>
<path d="M443.604 411.561V412.988L456.483 420.468V419.041L443.604 411.561Z" fill="#050915"/>
<path d="M456.482 419.041V420.468L469.437 412.988L469.422 411.561L456.482 419.041Z" fill="#050915"/>
<path d="M459.021 420.513V421.94L471.901 429.419V427.992L459.021 420.513Z" fill="#050915"/>
<path d="M471.9 427.992V429.419L484.855 421.954L484.84 420.528L471.9 427.992Z" fill="#050915"/>
<path d="M474.592 429.57L474.607 430.996L497.329 444.198V442.772L474.592 429.57Z" fill="#050915"/>
<path d="M497.33 442.772V444.198L510.284 436.719V435.292L497.33 442.772Z" fill="#050915"/>
<path d="M274.928 332.334V333.761L307.554 352.715V351.288L274.928 332.334Z" fill="#050915"/>
<path d="M307.555 351.288V352.715L320.509 345.236V343.809L307.555 351.288Z" fill="#050915"/>
<path d="M310.469 352.986V354.412L323.348 361.892V360.465L310.469 352.986Z" fill="#050915"/>
<path d="M323.348 360.465V361.892L336.317 354.412L336.302 352.986L323.348 360.465Z" fill="#050915"/>
<path d="M325.678 361.817V363.244L338.542 370.724V369.297L325.678 361.817Z" fill="#050915"/>
<path d="M338.541 369.297V370.724L351.51 363.244V361.817L338.541 369.297Z" fill="#050915"/>
<path d="M340.871 370.648L340.886 372.075L353.75 379.54V378.113L340.871 370.648Z" fill="#050915"/>
<path d="M353.75 378.113V379.54L366.704 372.075V370.648L353.75 378.113Z" fill="#050915"/>
<path d="M356.08 379.48V380.907L368.944 388.371V386.944L356.08 379.48Z" fill="#050915"/>
<path d="M368.943 386.945V388.371L381.913 380.892L381.898 379.465L368.943 386.945Z" fill="#050915"/>
<path d="M371.273 388.296V389.723L384.138 397.203V395.776L371.273 388.296Z" fill="#050915"/>
<path d="M384.137 395.776V397.203L397.106 389.723V388.296L384.137 395.776Z" fill="#050915"/>
<path d="M386.467 397.128L386.482 398.554L399.346 406.034L399.331 404.607L386.467 397.128Z" fill="#050915"/>
<path d="M399.33 404.607L399.345 406.034L412.299 398.554V397.128L399.33 404.607Z" fill="#050915"/>
<path d="M401.674 405.959V407.386L414.538 414.85V413.424L401.674 405.959Z" fill="#050915"/>
<path d="M414.537 413.424V414.851L427.491 407.371V405.944L414.537 413.424Z" fill="#050915"/>
<path d="M416.867 414.775V416.202L429.746 423.682V422.255L416.867 414.775Z" fill="#050915"/>
<path d="M429.746 422.255V423.682L442.7 416.202V414.775L429.746 422.255Z" fill="#050915"/>
<path d="M432.062 423.607L432.078 425.034L444.942 432.513V431.086L432.062 423.607Z" fill="#050915"/>
<path d="M444.941 431.086V432.513L457.911 425.034L457.896 423.607L444.941 431.086Z" fill="#050915"/>
<path d="M448.338 433.054V434.481L481.144 453.54V452.114L448.338 433.054Z" fill="#050915"/>
<path d="M481.145 452.114V453.541L494.099 446.061V444.634L481.145 452.114Z" fill="#050915"/>
<path d="M275.303 351.018V352.445L282.697 356.726V355.299L275.303 351.018Z" fill="#050915"/>
<path d="M282.697 355.299V356.726L295.411 349.396V347.969L282.697 355.299Z" fill="#050915"/>
<path d="M258.877 360.496V361.922L275.303 352.445V351.018L258.877 360.496Z" fill="#050915"/>
<path d="M242.557 351.018V352.445L258.877 361.922V360.496L242.557 351.018Z" fill="#050915"/>
<path d="M298.266 364.641V366.068L311.235 358.588L311.22 357.161L298.266 364.641Z" fill="#050915"/>
<path d="M285.402 357.161V358.588L298.266 366.068V364.641L285.402 357.161Z" fill="#050915"/>
<path d="M274.986 369.852V371.279L287.956 363.8L287.941 362.373L274.986 369.852Z" fill="#050915"/>
<path d="M262.107 362.373L262.122 363.8L274.987 371.279V369.852L262.107 362.373Z" fill="#050915"/>
<path d="M225.801 360.676L225.816 362.102L258.442 381.057V379.63L225.801 360.676Z" fill="#050915"/>
<path d="M258.441 379.63V381.057L271.396 373.577V372.15L258.441 379.63Z" fill="#050915"/>
<path d="M300.746 366.068V367.494L313.61 374.974V373.547L300.746 366.068Z" fill="#050915"/>
<path d="M313.609 373.547V374.974L326.579 367.494L326.564 366.068L313.609 373.547Z" fill="#050915"/>
<path d="M316.09 374.989V376.416L328.969 383.896V382.469L316.09 374.989Z" fill="#050915"/>
<path d="M328.969 382.469V383.896L341.923 376.416V374.989L328.969 382.469Z" fill="#050915"/>
<path d="M331.434 383.896V385.322L344.313 392.802V391.375L331.434 383.896Z" fill="#050915"/>
<path d="M344.312 391.375V392.802L357.267 385.322V383.896L344.312 391.375Z" fill="#050915"/>
<path d="M346.777 392.802V394.229L359.656 401.708L359.641 400.282L346.777 392.802Z" fill="#050915"/>
<path d="M359.641 400.282L359.656 401.708L372.61 394.229V392.802L359.641 400.282Z" fill="#050915"/>
<path d="M362.121 401.724V403.135L375 410.615L374.985 409.188L362.121 401.724Z" fill="#050915"/>
<path d="M374.984 409.188L374.999 410.615L387.954 403.15V401.724L374.984 409.188Z" fill="#050915"/>
<path d="M377.465 410.63L377.48 412.057L390.344 419.537L390.329 418.11L377.465 410.63Z" fill="#050915"/>
<path d="M390.328 418.11L390.343 419.537L403.297 412.057V410.63L390.328 418.11Z" fill="#050915"/>
<path d="M392.809 419.552V420.978L405.673 428.443V427.016L392.809 419.552Z" fill="#050915"/>
<path d="M405.672 427.016V428.443L418.641 420.963V419.537L405.672 427.016Z" fill="#050915"/>
<path d="M408.152 428.458V429.885L421.031 437.365V435.938L408.152 428.458Z" fill="#050915"/>
<path d="M421.031 435.938V437.365L433.985 429.885V428.458L421.031 435.938Z" fill="#050915"/>
<path d="M423.496 437.365V438.791L436.375 446.271V444.844L423.496 437.365Z" fill="#050915"/>
<path d="M436.375 444.844V446.271L449.329 438.791V437.365L436.375 444.844Z" fill="#050915"/>
<path d="M439.531 446.677V448.103L464.959 462.867V461.441L439.531 446.677Z" fill="#050915"/>
<path d="M464.959 461.441V462.867L477.913 455.388V453.961L464.959 461.441Z" fill="#050915"/>
<path d="M277.453 371.279V372.706L290.332 380.186V378.759L277.453 371.279Z" fill="#050915"/>
<path d="M290.332 378.759V380.186L303.301 372.706L303.286 371.279L290.332 378.759Z" fill="#050915"/>
<path d="M292.811 380.201V381.628L305.675 389.092V387.665L292.811 380.201Z" fill="#050915"/>
<path d="M305.674 387.665V389.092L318.628 381.613V380.186L305.674 387.665Z" fill="#050915"/>
<path d="M308.154 389.107V390.534L321.018 397.999V396.587L308.154 389.107Z" fill="#050915"/>
<path d="M321.018 396.587V397.999L333.972 390.534V389.107L321.018 396.587Z" fill="#050915"/>
<path d="M323.498 398.014V399.441L336.377 406.92L336.362 405.493L323.498 398.014Z" fill="#050915"/>
<path d="M336.361 405.493L336.376 406.92L349.331 399.441V398.014L336.361 405.493Z" fill="#050915"/>
<path d="M338.842 406.935V408.362L351.721 415.827L351.706 414.4L338.842 406.935Z" fill="#050915"/>
<path d="M351.705 414.4L351.72 415.827L364.674 408.362V406.935L351.705 414.4Z" fill="#050915"/>
<path d="M354.17 415.842L354.185 417.269L367.049 424.748V423.321L354.17 415.842Z" fill="#050915"/>
<path d="M367.049 423.321V424.748L380.018 417.269V415.842L367.049 423.321Z" fill="#050915"/>
<path d="M369.514 424.748L369.529 426.175L382.393 433.655V432.228L369.514 424.748Z" fill="#050915"/>
<path d="M382.393 432.228V433.655L395.362 426.175L395.347 424.748L382.393 432.228Z" fill="#050915"/>
<path d="M384.873 433.67V435.097L397.737 442.561V441.134L384.873 433.67Z" fill="#050915"/>
<path d="M397.736 441.134V442.561L410.706 435.082L410.691 433.655L397.736 441.134Z" fill="#050915"/>
<path d="M400.217 442.576V444.003L413.081 451.483V450.056L400.217 442.576Z" fill="#050915"/>
<path d="M413.08 450.056V451.483L426.049 444.003L426.034 442.576L413.08 450.056Z" fill="#050915"/>
<path d="M415.967 451.723V453.15L448.773 472.21V470.783L415.967 451.723Z" fill="#050915"/>
<path d="M448.773 470.783V472.209L461.743 464.73V463.303L448.773 470.783Z" fill="#050915"/>
<path d="M261.373 381.327V382.754L274.252 390.234V388.807L261.373 381.327Z" fill="#050915"/>
<path d="M274.252 388.807V390.234L287.206 382.754V381.327L274.252 388.807Z" fill="#050915"/>
<path d="M276.596 390.174L276.611 391.6L289.475 399.08V397.653L276.596 390.174Z" fill="#050915"/>
<path d="M289.475 397.653V399.08L302.444 391.6V390.174L289.475 397.653Z" fill="#050915"/>
<path d="M291.834 399.02V400.447L304.698 407.927V406.5L291.834 399.02Z" fill="#050915"/>
<path d="M304.697 406.5V407.927L317.667 400.447L317.651 399.02L304.697 406.5Z" fill="#050915"/>
<path d="M307.059 407.866V409.293L319.938 416.773L319.923 415.346L307.059 407.866Z" fill="#050915"/>
<path d="M319.922 415.346L319.937 416.773L332.891 409.293V407.866L319.922 415.346Z" fill="#050915"/>
<path d="M322.221 416.683L322.236 418.11L380.65 452.038L380.635 450.612L322.221 416.683Z" fill="#050915"/>
<path d="M380.635 450.612L380.65 452.039L393.604 444.559V443.132L380.635 450.612Z" fill="#050915"/>
<path d="M383.686 452.369V453.796L396.565 461.275V459.849L383.686 452.369Z" fill="#050915"/>
<path d="M396.564 459.849V461.275L409.519 453.796V452.369L396.564 459.849Z" fill="#050915"/>
<path d="M399.225 461.396V462.822L432.031 481.867V480.44L399.225 461.396Z" fill="#050915"/>
<path d="M432.031 480.44V481.867L444.985 474.402V472.975L432.031 480.44Z" fill="#050915"/>
<path d="M306.576 313.244L319.44 320.724L332.394 313.244L319.515 305.765L306.576 313.244Z" fill="#1F2846"/>
<path d="M322.732 322.631L335.611 330.111L348.566 322.631L335.687 315.152L322.732 322.631Z" fill="#1F2846"/>
<path d="M338.902 332.018L351.781 339.498L364.721 332.018L351.842 324.539L338.902 332.018Z" fill="#1F2846"/>
<path d="M355.072 341.406L367.936 348.885L380.891 341.406L368.027 333.941L355.072 341.406Z" fill="#1F2846"/>
<path d="M371.242 350.793L384.106 358.272L397.06 350.793L384.181 343.328L371.242 350.793Z" fill="#1F2846"/>
<path d="M387.398 360.195L400.278 367.675L413.232 360.195L400.353 352.715L387.398 360.195Z" fill="#1F2846"/>
<path d="M403.568 369.582L416.447 377.062L429.387 369.582L416.523 362.102L403.568 369.582Z" fill="#1F2846"/>
<path d="M419.738 378.969L432.602 386.449L445.557 378.969L432.677 371.49L419.738 378.969Z" fill="#1F2846"/>
<path d="M435.895 388.356L448.774 395.836L461.728 388.356L448.849 380.876L435.895 388.356Z" fill="#1F2846"/>
<path d="M452.078 397.743L464.942 405.223L477.881 397.743L465.017 390.279L452.078 397.743Z" fill="#1F2846"/>
<path d="M468.234 407.13L481.098 414.61L494.053 407.13L481.189 399.666L468.234 407.13Z" fill="#1F2846"/>
<path d="M484.404 416.518L497.268 423.997L510.223 416.518L497.343 409.053L484.404 416.518Z" fill="#1F2846"/>
<path d="M500.561 425.92L513.44 433.384L526.394 425.92L513.515 418.44L500.561 425.92Z" fill="#1F2846"/>
<path d="M291.113 322.992L317.307 338.207L330.262 330.742L304.068 315.527L291.113 322.992Z" fill="#1F2846"/>
<path d="M320.238 339.904L333.102 347.383L346.057 339.919L333.177 332.439L320.238 339.904Z" fill="#1F2846"/>
<path d="M335.656 348.87L348.52 356.35L361.475 348.87L348.595 341.391L335.656 348.87Z" fill="#1F2846"/>
<path d="M351.074 357.822L363.938 365.301L376.892 357.822L364.013 350.342L351.074 357.822Z" fill="#1F2846"/>
<path d="M366.51 366.789L379.374 374.253L392.313 366.789L379.449 359.309L366.51 366.789Z" fill="#1F2846"/>
<path d="M381.928 375.74L394.792 383.205L407.731 375.74L394.867 368.26L381.928 375.74Z" fill="#1F2846"/>
<path d="M397.346 384.691L410.21 392.171L423.149 384.691L410.285 377.227L397.346 384.691Z" fill="#1F2846"/>
<path d="M412.766 393.643L425.645 401.123L438.584 393.658L425.705 386.178L412.766 393.643Z" fill="#1F2846"/>
<path d="M428.184 402.61L441.063 410.089L454.002 402.61L441.138 395.13L428.184 402.61Z" fill="#1F2846"/>
<path d="M443.604 411.561L456.483 419.041L469.422 411.561L456.558 404.096L443.604 411.561Z" fill="#1F2846"/>
<path d="M459.021 420.513L471.901 427.992L484.84 420.528L471.976 413.048L459.021 420.513Z" fill="#1F2846"/>
<path d="M474.592 429.57L497.329 442.772L510.284 435.292L487.546 422.09L474.592 429.57Z" fill="#1F2846"/>
<path d="M274.928 332.334L307.554 351.288L320.508 343.809L287.882 324.854L274.928 332.334Z" fill="#1F2846"/>
<path d="M310.469 352.986L323.348 360.465L336.302 352.986L323.438 345.506L310.469 352.986Z" fill="#1F2846"/>
<path d="M325.678 361.817L338.542 369.297L351.511 361.817L338.647 354.337L325.678 361.817Z" fill="#1F2846"/>
<path d="M340.871 370.648L353.75 378.113L366.704 370.648L353.84 363.169L340.871 370.648Z" fill="#1F2846"/>
<path d="M356.08 379.48L368.944 386.944L381.898 379.465L369.034 372L356.08 379.48Z" fill="#1F2846"/>
<path d="M371.273 388.296L384.138 395.776L397.107 388.296L384.228 380.816L371.273 388.296Z" fill="#1F2846"/>
<path d="M386.467 397.128L399.331 404.607L412.3 397.128L399.436 389.648L386.467 397.128Z" fill="#1F2846"/>
<path d="M401.674 405.959L414.538 413.424L427.492 405.944L414.628 398.479L401.674 405.959Z" fill="#1F2846"/>
<path d="M416.867 414.775L429.746 422.255L442.701 414.775L429.821 407.311L416.867 414.775Z" fill="#1F2846"/>
<path d="M432.062 423.607L444.942 431.086L457.896 423.607L445.032 416.127L432.062 423.607Z" fill="#1F2846"/>
<path d="M448.338 433.054L481.144 452.113L494.098 444.634L461.292 425.574L448.338 433.054Z" fill="#1F2846"/>
<path d="M242.557 351.018L258.877 360.495L275.303 351.018L282.697 355.299L295.41 347.969L271.696 334.196L242.557 351.018Z" fill="#1F2846"/>
<path d="M285.402 357.161L298.266 364.641L311.221 357.161L298.357 349.681L285.402 357.161Z" fill="#1F2846"/>
<path d="M262.109 362.373L274.988 369.852L287.943 362.373L275.079 354.893L262.109 362.373Z" fill="#1F2846"/>
<path d="M225.801 360.675L258.442 379.63L271.396 372.15L238.77 353.196L225.801 360.675Z" fill="#1F2846"/>
<path d="M300.746 366.068L313.61 373.547L326.564 366.068L313.7 358.588L300.746 366.068Z" fill="#1F2846"/>
<path d="M316.09 374.989L328.969 382.469L341.923 374.989L329.044 367.509L316.09 374.989Z" fill="#1F2846"/>
<path d="M331.434 383.895L344.313 391.375L357.267 383.895L344.388 376.416L331.434 383.895Z" fill="#1F2846"/>
<path d="M346.777 392.802L359.641 400.282L372.611 392.802L359.732 385.322L346.777 392.802Z" fill="#1F2846"/>
<path d="M362.121 401.724L374.985 409.188L387.954 401.724L375.075 394.244L362.121 401.724Z" fill="#1F2846"/>
<path d="M377.465 410.63L390.329 418.11L403.298 410.63L390.434 403.15L377.465 410.63Z" fill="#1F2846"/>
<path d="M392.809 419.551L405.673 427.016L418.642 419.536L405.778 412.072L392.809 419.551Z" fill="#1F2846"/>
<path d="M408.152 428.458L421.031 435.938L433.986 428.458L421.107 420.978L408.152 428.458Z" fill="#1F2846"/>
<path d="M423.496 437.364L436.375 444.844L449.329 437.364L436.45 429.885L423.496 437.364Z" fill="#1F2846"/>
<path d="M439.531 446.676L464.959 461.44L477.913 453.961L452.485 439.197L439.531 446.676Z" fill="#1F2846"/>
<path d="M277.453 371.279L290.332 378.759L303.286 371.279L290.422 363.8L277.453 371.279Z" fill="#1F2846"/>
<path d="M292.811 380.201L305.675 387.665L318.629 380.186L305.765 372.721L292.811 380.201Z" fill="#1F2846"/>
<path d="M308.154 389.107L321.018 396.587L333.973 389.107L321.109 381.627L308.154 389.107Z" fill="#1F2846"/>
<path d="M323.498 398.014L336.362 405.493L349.331 398.014L336.452 390.534L323.498 398.014Z" fill="#1F2846"/>
<path d="M338.842 406.935L351.706 414.4L364.675 406.935L351.796 399.456L338.842 406.935Z" fill="#1F2846"/>
<path d="M354.17 415.842L367.049 423.321L380.018 415.842L367.139 408.362L354.17 415.842Z" fill="#1F2846"/>
<path d="M369.514 424.748L382.393 432.228L395.347 424.748L382.483 417.269L369.514 424.748Z" fill="#1F2846"/>
<path d="M384.873 433.67L397.737 441.134L410.691 433.655L397.827 426.19L384.873 433.67Z" fill="#1F2846"/>
<path d="M400.217 442.576L413.081 450.056L426.035 442.576L413.171 435.096L400.217 442.576Z" fill="#1F2846"/>
<path d="M415.967 451.723L448.773 470.783L461.742 463.303L428.921 444.243L415.967 451.723Z" fill="#1F2846"/>
<path d="M261.373 381.327L274.252 388.807L287.206 381.327L274.327 373.847L261.373 381.327Z" fill="#1F2846"/>
<path d="M276.596 390.173L289.475 397.653L302.444 390.173L289.565 382.694L276.596 390.173Z" fill="#1F2846"/>
<path d="M291.834 399.02L304.698 406.5L317.652 399.02L304.788 391.54L291.834 399.02Z" fill="#1F2846"/>
<path d="M307.059 407.866L319.923 415.346L332.892 407.866L320.013 400.387L307.059 407.866Z" fill="#1F2846"/>
<path d="M322.221 416.683L380.635 450.612L393.604 443.132L335.19 409.203L322.221 416.683Z" fill="#1F2846"/>
<path d="M383.686 452.369L396.565 459.848L409.519 452.369L396.64 444.889L383.686 452.369Z" fill="#1F2846"/>
<path d="M399.225 461.395L432.031 480.44L444.985 472.975L412.179 453.916L399.225 461.395Z" fill="#1F2846"/>
<path d="M260.966 432.198C261.281 432.693 261.792 433.159 262.483 433.549L316.029 464.429C318.674 465.961 322.972 465.961 325.632 464.429L350.608 450.026C351.3 449.62 351.811 449.17 352.126 448.689C353.088 447.277 352.577 445.625 350.608 444.484L297.063 413.589C294.403 412.072 290.105 412.072 287.475 413.589L262.483 428.007C260.53 429.134 260.019 430.786 260.966 432.198Z" fill="#E5E3E8"/>
<path d="M260.965 432.198C261.28 432.693 261.791 433.159 262.483 433.549L316.028 464.429C318.673 465.961 322.971 465.961 325.631 464.429L350.607 450.026C351.299 449.62 351.81 449.169 352.125 448.689C351.81 448.193 351.299 447.728 350.607 447.337L297.062 416.442C294.402 414.91 290.104 414.91 287.474 416.442L262.483 430.861C261.791 431.251 261.28 431.702 260.965 432.198Z" fill="#D4CED8"/>
<path d="M368.794 103.874L362.271 104.925C363.038 104.805 363.864 104.955 364.661 105.406L371.183 104.355C370.387 103.889 369.56 103.739 368.794 103.874Z" fill="#E5E3E8"/>
<mask id="mask2_2034_1689" style="mask-type:luminance" maskUnits="userSpaceOnUse" x="362" y="103" width="10" height="3">
<path d="M368.794 103.874L362.271 104.925C363.038 104.805 363.864 104.955 364.661 105.406L371.183 104.355C370.387 103.889 369.56 103.739 368.794 103.874Z" fill="white"/>
</mask>
<g mask="url(#mask2_2034_1689)">
<path d="M364.661 105.406L371.183 104.355C370.387 103.889 369.56 103.739 368.794 103.874L362.271 104.925C363.038 104.805 363.864 104.955 364.661 105.406Z" fill="#E5E3E8"/>
</g>
<path d="M593.403 237.396L599.925 236.345L371.197 104.37L364.66 105.406L593.403 237.396Z" fill="#D4CED8"/>
<path d="M546.17 431.462L552.692 430.41L602.706 244.2L596.183 245.251L546.17 431.462Z" fill="#D4CED8"/>
<path d="M596.183 245.251L602.705 244.2C603.501 241.211 602.254 237.697 599.925 236.345L593.402 237.396C595.747 238.748 596.994 242.263 596.183 245.251Z" fill="#E5E3E8"/>
<mask id="mask3_2034_1689" style="mask-type:luminance" maskUnits="userSpaceOnUse" x="593" y="236" width="10" height="10">
<path d="M596.183 245.251L602.705 244.2C603.501 241.211 602.254 237.697 599.925 236.345L593.402 237.396C595.747 238.748 596.994 242.263 596.183 245.251Z" fill="white"/>
</mask>
<g mask="url(#mask3_2034_1689)">
<path d="M596.183 245.251L602.705 244.2C603.501 241.211 602.254 237.697 599.925 236.345L593.402 237.396C595.747 238.748 596.994 242.263 596.183 245.251Z" fill="#D4CED8"/>
</g>
<path d="M364.66 105.406C362.316 104.054 359.776 105.376 358.965 108.365L308.951 294.575L546.155 431.447L596.168 245.236C596.965 242.248 595.717 238.733 593.388 237.381L364.66 105.391V105.406Z" fill="#E5E3E8"/>
<path d="M363.518 110.453L590.908 241.662C591.193 241.887 591.689 242.984 591.419 243.99L590.262 248.27L361.895 116.49L363.518 110.453Z" fill="#E5E3E8"/>
<path d="M546.185 412.372L543.074 423.982L314.707 292.217L317.818 280.607L546.185 412.372Z" fill="#E5E3E8"/>
<path d="M317.818 280.607L529.925 403L546.185 412.387L565.031 342.202L573.912 309.159L583.53 273.368L590.278 248.255L542.594 220.74L474.697 181.554L411.984 145.373L361.911 116.475L347.845 168.833L317.818 280.607Z" fill="#1F2846"/>
<path d="M482.406 176.042C480.918 175.186 479.295 176.027 478.799 177.92C478.288 179.812 479.085 182.05 480.573 182.906C482.06 183.762 483.668 182.921 484.179 181.029C484.69 179.136 483.894 176.898 482.406 176.042Z" fill="#3D2F43"/>
<path d="M412.765 338.972L426.651 346.993L423.976 356.966L410.09 348.96L412.765 338.972Z" fill="#E5E3E8"/>
<g style="mix-blend-mode:screen" opacity="0.3">
<path d="M474.695 181.554L573.911 309.159L583.529 273.368L542.592 220.74L474.695 181.554Z" fill="#1F2846"/>
</g>
<g style="mix-blend-mode:screen" opacity="0.3">
<path d="M347.844 168.833L529.924 403L546.185 412.387L565.03 342.202L411.984 145.373L361.91 116.475L347.844 168.833Z" fill="#1F2846"/>
</g>
<path opacity="0.3" d="M356.832 243.87L560.794 361.562V196.829L356.832 79.1521V243.87Z" fill="#F9F7FC"/>
<path opacity="0.3" d="M335.146 252.971L539.108 370.648V205.931L335.146 88.2388V252.971Z" fill="#F9F7FC"/>
<path d="M502.905 210.421L317.203 103.273V267.991L502.905 375.139V210.421Z" fill="#F1F0F2"/>
<path d="M451.615 257.237L444.973 253.407V245.747L451.615 249.577V257.237Z" fill="#7350BA"/>
<path d="M451.615 267.705L444.973 263.875V256.215L451.615 260.045V267.705Z" fill="#5430AF"/>
<path d="M451.615 278.174L444.973 274.344V266.684L451.615 270.514V278.174Z" fill="#1F2846"/>
<path d="M496.789 283.31L454.801 259.069V251.424L496.789 275.651V283.31Z" fill="#7350BA"/>
<path d="M496.789 293.779L454.801 269.538V261.878L496.789 286.119V293.779Z" fill="#5430AF"/>
<path d="M496.789 304.232L454.801 280.006V272.346L496.789 296.573V304.232Z" fill="#1F2846"/>
<g opacity="0.2">
<path d="M324.883 178.1V262.404L439.472 328.519V244.215L439.382 244.155L325.183 178.265L324.898 178.1H324.883ZM325.259 238.673L335.252 244.44V255.975L325.259 250.208V238.673ZM439.066 255.975L429.073 250.208V238.673L439.066 244.44V255.975ZM325.259 178.776L335.252 184.543V196.078L325.259 190.31V178.776ZM387.159 238.448V249.982L377.166 244.215V232.68L387.159 238.448ZM377.166 256.201V244.666L387.159 250.433V261.968L377.166 256.201ZM397.544 256.426V267.961L387.55 262.193V250.658L397.544 256.426ZM366.781 250.208V238.673L376.775 244.44V255.975L366.781 250.208ZM366.781 238.222V226.687L376.775 232.455V243.99L366.781 238.222ZM397.544 244.44V255.975L387.55 250.208V238.673L397.544 244.44ZM407.928 262.419V273.953L397.934 268.186V256.651L407.928 262.419ZM407.928 274.389V285.924L397.934 280.156V268.622L407.928 274.389ZM397.544 279.946L387.55 274.179V262.644L397.544 268.411V279.946ZM387.159 273.953L377.166 268.186V256.651L387.159 262.419V273.953ZM376.79 267.961L366.796 262.193V250.658L376.79 256.426V267.961ZM356.412 244.215V232.68L366.405 238.448V249.982L356.412 244.215ZM356.412 232.245V220.71L366.405 226.477V238.012L356.412 232.245ZM407.928 250.433V261.968L397.934 256.201V244.666L407.928 250.433ZM418.313 268.396V279.931L408.319 274.164V262.629L418.313 268.396ZM418.313 280.382V291.917L408.319 286.149V274.614L418.313 280.382ZM356.412 256.201V244.666L366.405 250.433V261.968L356.412 256.201ZM346.027 238.237V226.702L356.021 232.47V244.005L346.027 238.237ZM346.027 226.252V214.717L356.021 220.484V232.019L346.027 226.252ZM356.412 220.259V208.724L366.405 214.492V226.027L356.412 220.259ZM366.781 214.717L376.775 220.484V232.019L366.781 226.252V214.717ZM377.166 220.71L387.159 226.477V238.012L377.166 232.245V220.71ZM387.55 226.687L397.544 232.455V243.99L387.55 238.222V226.687ZM397.934 232.68L407.928 238.448V249.982L397.934 244.215V232.68ZM408.319 238.673L418.313 244.44V255.975L408.319 250.208V238.673ZM418.313 256.426V267.961L408.319 262.193V250.658L418.313 256.426ZM428.697 274.389V285.924L418.703 280.156V268.622L428.697 274.389ZM428.697 286.374V297.909L418.703 292.142V280.607L428.697 286.374ZM346.027 250.208V238.673L356.021 244.44V255.975L346.027 250.208ZM335.643 232.245V220.71L345.637 226.477V238.012L335.643 232.245ZM335.643 220.259V208.724L345.637 214.492V226.027L335.643 220.259ZM346.027 214.266V202.732L356.021 208.499V220.034L346.027 214.266ZM346.027 202.281V190.746L356.021 196.513V208.048L346.027 202.281ZM356.412 196.739L366.405 202.506V214.041L356.412 208.274V196.739ZM366.781 202.732L376.775 208.499V220.034L366.781 214.266V202.732ZM377.166 208.724L387.159 214.492V226.027L377.166 220.259V208.724ZM387.55 214.717L397.544 220.484V232.019L387.55 226.252V214.717ZM397.934 220.71L407.928 226.477V238.012L397.934 232.245V220.71ZM408.319 226.687L418.313 232.455V243.99L408.319 238.222V226.687ZM418.688 232.68L428.682 238.448V249.982L418.688 244.215V232.68ZM428.697 250.433V261.968L418.703 256.201V244.666L428.697 250.433ZM428.697 262.419V273.953L418.703 268.186V256.651L428.697 262.419ZM439.066 280.382V291.917L429.073 286.149V274.614L439.066 280.382ZM439.066 303.902L429.073 298.135V286.6L439.066 292.367V303.902ZM418.313 292.367V303.902L408.319 298.135V286.6L418.313 292.367ZM407.928 297.909L397.934 292.142V280.607L407.928 286.374V297.909ZM397.544 291.917L387.55 286.149V274.614L397.544 280.382V291.917ZM387.159 285.924L377.166 280.156V268.622L387.159 274.389V285.924ZM376.79 279.946L366.796 274.179V262.644L376.79 268.411V279.946ZM366.405 273.953L356.412 268.186V256.651L366.405 262.419V273.953ZM356.021 267.961L346.027 262.193V250.658L356.021 256.426V267.961ZM335.643 244.215V232.68L345.637 238.448V249.982L335.643 244.215ZM325.259 226.252V214.717L335.252 220.484V232.019L325.259 226.252ZM325.259 214.266V202.732L335.252 208.499V220.034L325.259 214.266ZM335.643 208.274V196.739L345.637 202.506V214.041L335.643 208.274ZM335.643 196.303V184.768L345.637 190.536V202.071L335.643 196.303ZM439.066 267.961L429.073 262.193V250.658L439.066 256.426V267.961ZM439.066 279.931L429.073 274.164V262.629L439.066 268.396V279.931ZM439.066 315.888L429.073 310.12V298.585L439.066 304.353V315.888ZM428.697 309.895L418.703 304.127V292.592L428.697 298.36V309.895ZM428.697 310.33V321.865L418.703 316.098V304.563L428.697 310.33ZM418.313 315.888L408.319 310.12V298.585L418.313 304.353V315.888ZM407.928 309.895L397.934 304.127V292.592L407.928 298.36V309.895ZM397.544 303.902L387.55 298.135V286.6L397.544 292.367V303.902ZM387.159 297.909L377.166 292.142V280.607L387.159 286.374V297.909ZM376.79 291.917L366.796 286.149V274.614L376.79 280.382V291.917ZM366.405 285.939L356.412 280.171V268.637L366.405 274.404V285.939ZM356.021 279.946L346.027 274.179V262.644L356.021 268.411V279.946ZM345.637 273.953L335.643 268.186V256.651L345.637 262.419V273.953ZM335.643 256.201V244.666L345.637 250.433V261.968L335.643 256.201ZM325.259 226.702L335.252 232.47V244.005L325.259 238.237V226.702ZM325.259 190.746L335.252 196.513V208.048L325.259 202.281V190.746ZM439.066 327.858L429.073 322.091V310.556L439.066 316.323V327.858ZM325.259 262.193V250.658L335.252 256.426V267.961L325.259 262.193Z" fill="#828CC0"/>
</g>
<path d="M437.444 291.466C437.549 291.466 437.654 291.451 437.759 291.406C438.15 291.241 438.331 290.775 438.15 290.385C437.414 288.732 430.907 274.239 427.074 271.926C425.031 270.694 423.137 272.466 421.469 274.044C419.771 275.636 418.674 276.567 417.697 275.936C413.85 273.473 410.348 264.656 406.967 256.155C403.345 247.039 399.934 238.418 395.666 235.654C393.366 234.167 391.157 236.15 389.219 237.907C387.25 239.679 385.867 240.776 384.665 240.025C382.261 238.523 380.292 232.755 378.203 226.672C375.137 217.691 371.651 207.508 365.069 204.849C360.725 203.107 356.938 203.828 353.482 207.072C350.566 209.806 348.312 213.906 346.148 217.871C342.091 225.261 339.325 229.616 334.982 227.604C331.841 226.147 328.415 218.292 327.348 215.378C327.198 214.972 326.762 214.777 326.356 214.912C325.95 215.062 325.755 215.498 325.89 215.903C326.056 216.354 329.963 226.988 334.321 229C337.041 230.262 339.536 229.661 341.925 227.183C343.924 225.11 345.652 221.956 347.486 218.607C351.724 210.887 356.097 202.897 364.482 206.276C370.419 208.664 373.77 218.487 376.73 227.168C379 233.807 380.953 239.529 383.824 241.331C386.108 242.758 388.302 240.791 390.226 239.048C392.269 237.216 393.592 236.165 394.809 236.946C398.656 239.439 402.143 248.225 405.509 256.726C409.131 265.873 412.557 274.509 416.825 277.243C418.899 278.564 420.808 276.762 422.491 275.17C424.129 273.638 425.271 272.662 426.233 273.262C429.118 275.005 434.769 286.675 436.692 291.03C436.813 291.316 437.098 291.496 437.399 291.496L437.444 291.466Z" fill="#7350BA"/>
<path d="M409.852 311.006L428.321 321.655V287.846L409.852 277.198V311.006Z" fill="#5430AF"/>
<path d="M382.17 295.026L400.624 305.674V255.194L382.17 244.53V295.026Z" fill="white"/>
<path d="M326.791 263.079L345.246 273.728V242.263L326.791 231.614V263.079Z" fill="#1F2846"/>
<path d="M354.473 279.045L372.942 289.694V225.546L354.473 214.882V279.045Z" fill="#7350BA"/>
<path d="M335.131 158.544L329.285 160.227C333.628 169.403 340.526 177.709 348.296 182.2V173.759C342.916 170.65 338.137 164.898 335.131 158.544Z" fill="#1F2846"/>
<path d="M363.49 170.77C361.025 176.237 355.134 177.709 348.281 173.759V182.2C358.185 187.907 366.676 185.79 370.237 177.889L363.475 170.785L363.49 170.77Z" fill="#1F2846"/>
<path d="M348.28 135.805V127.364C338.377 121.657 329.886 123.775 326.324 131.675L333.087 138.779C335.551 133.312 341.442 131.84 348.295 135.79L348.28 135.805Z" fill="#1F2846"/>
<path d="M331.84 145.297C331.84 142.744 332.276 140.566 333.072 138.794L326.31 131.69C325.153 134.243 324.521 137.397 324.521 141.077C324.521 147.235 326.28 153.934 329.255 160.227L335.101 158.544C333.042 154.189 331.825 149.548 331.825 145.282L331.84 145.297Z" fill="#1F2846"/>
<path d="M361.446 151.005L367.292 149.338C362.949 140.161 356.051 131.855 348.281 127.364V135.805C353.661 138.914 358.44 144.667 361.446 151.02V151.005Z" fill="#7350BA"/>
<path d="M364.738 164.267C364.738 166.82 364.302 168.998 363.505 170.77L370.268 177.874C371.425 175.321 372.056 172.167 372.056 168.487C372.056 162.329 370.298 155.631 367.322 149.338L361.477 151.005C363.535 155.36 364.753 160.001 364.753 164.267H364.738Z" fill="#7350BA"/>
<path d="M477.448 252.491L477.343 252.431L378.578 195.447V147.821L378.683 147.881L477.448 204.864V252.491ZM378.713 195.357L477.298 252.235V204.939L378.713 148.061V195.357Z" fill="#E5E3E8"/>
<path d="M378.683 155.788L378.615 155.905L477.345 212.874L477.413 212.757L378.683 155.788Z" fill="#E5E3E8"/>
<path d="M378.691 163.696L378.623 163.813L477.353 220.781L477.42 220.664L378.691 163.696Z" fill="#E5E3E8"/>
<path d="M378.681 171.603L378.613 171.72L477.343 228.689L477.411 228.572L378.681 171.603Z" fill="#E5E3E8"/>
<path d="M378.673 179.519L378.605 179.636L477.335 236.604L477.403 236.487L378.673 179.519Z" fill="#E5E3E8"/>
<path d="M378.679 187.426L378.611 187.543L477.341 244.512L477.409 244.395L378.679 187.426Z" fill="#E5E3E8"/>
<path d="M467.575 199.202H467.439V246.663H467.575V199.202Z" fill="#E5E3E8"/>
<path d="M457.702 193.51H457.566V240.971H457.702V193.51Z" fill="#E5E3E8"/>
<path d="M447.829 187.802H447.693V235.263H447.829V187.802Z" fill="#E5E3E8"/>
<path d="M437.954 182.11H437.818V229.571H437.954V182.11Z" fill="#E5E3E8"/>
<path d="M428.081 176.417H427.945V223.879H428.081V176.417Z" fill="#E5E3E8"/>
<path d="M418.208 170.71H418.072V218.171H418.208V170.71Z" fill="#E5E3E8"/>
<path d="M408.334 165.018H408.199V212.479H408.334V165.018Z" fill="#E5E3E8"/>
<path d="M398.459 159.325H398.324V206.787H398.459V159.325Z" fill="#E5E3E8"/>
<path d="M388.586 153.618H388.451V201.079H388.586V153.618Z" fill="#E5E3E8"/>
<path d="M388.526 201.094L378.652 195.387V155.841L388.526 161.533V201.094Z" fill="#1F2846"/>
<path d="M403.329 209.64L393.455 203.933V180.067L403.329 185.759V209.64Z" fill="#7350BA"/>
<path d="M462.571 243.809L452.697 238.117V214.251L462.571 219.944V243.809Z" fill="#7350BA"/>
<path d="M432.95 226.732L423.076 221.025V212.389L432.95 218.081V226.732Z" fill="#7350BA"/>
<path d="M477.373 252.355L467.5 246.663V226.883L477.373 232.59V252.355Z" fill="#1F2846"/>
<path d="M418.132 218.186L408.273 212.479V180.803L418.147 186.51L418.132 218.186Z" fill="#1F2846"/>
<path d="M447.752 235.278L437.879 229.571V187.397L447.752 193.089V235.278Z" fill="#1F2846"/>
<path d="M469.468 320.048L458.377 335.803C447.767 322.616 444.145 304.878 450.262 296.167C454.334 290.37 461.307 289.754 469.468 294.455V320.033V320.048Z" fill="#5430AF"/>
<path d="M469.468 320.048L480.559 348.6C473.496 349.231 465.456 344.59 458.393 335.803L469.483 320.048H469.468Z" fill="white"/>
<path d="M469.467 320.048L480.558 304.292C491.167 317.479 494.789 335.217 488.673 343.929C486.629 346.827 484.089 348.299 480.558 348.615L469.467 320.063V320.048Z" fill="#7350BA"/>
<path d="M469.467 320.048V294.47C473.539 296.828 477.026 299.907 480.558 304.293L469.467 320.048Z" fill="#1F2846"/>
<g style="mix-blend-mode:multiply" opacity="0.3">
<path d="M172.782 440.308C164.757 444.934 164.757 452.444 172.782 457.085C180.807 461.711 193.822 461.711 201.847 457.085C209.872 452.459 209.872 444.949 201.847 440.308C193.822 435.682 180.807 435.682 172.782 440.308Z" fill="#1F2846"/>
</g>
<path d="M180.327 385.547C181.469 382.874 182.551 379.359 184.069 374.974C184.474 373.787 184.7 372.541 184.73 371.279C184.745 370.017 184.354 368.936 183.753 367.794C183.483 367.269 183.107 366.713 182.521 366.593C181.995 366.488 181.484 366.788 181.063 367.104C178.538 369.011 177.156 372.18 176.57 375.199C176.029 377.993 175.097 380.711 174.586 383.535C174.481 384.075 174.345 384.631 174.361 385.187C174.421 387.8 176.134 389.407 177.892 388.611C178.749 388.221 179.711 387.004 180.327 385.547Z" fill="white"/>
<path d="M192.17 444.123C190.021 445.925 188.067 447.953 186.113 449.981C185.557 450.566 185.001 451.137 184.535 451.813C184.16 452.354 183.664 453.075 183.784 453.765C183.934 454.652 185.858 454.877 186.579 454.907C187.601 454.967 188.518 454.802 189.45 454.396C190.351 454.006 190.862 453.39 191.313 452.519C191.719 451.738 192.079 450.867 192.816 450.386C193.507 449.92 194.469 449.815 194.905 449.109C195.13 448.749 195.16 448.313 195.16 447.878C195.16 447.082 194.935 446.301 194.935 445.52C194.935 444.949 195.055 444.303 194.875 443.748C194.724 443.267 194.108 442.982 193.627 442.966C193.086 442.951 192.575 443.192 192.17 443.552V444.138V444.123Z" fill="white"/>
<path d="M185.347 440.353C182.897 441.72 180.598 443.357 178.299 444.979C177.637 445.445 176.991 445.91 176.405 446.481C175.939 446.947 175.308 447.562 175.293 448.253C175.278 449.154 177.126 449.725 177.833 449.905C178.825 450.146 179.756 450.161 180.748 449.935C181.71 449.725 182.326 449.214 182.927 448.448C183.468 447.758 183.994 446.977 184.806 446.631C185.572 446.301 186.534 446.376 187.09 445.775C187.376 445.46 187.496 445.039 187.571 444.619C187.721 443.838 187.646 443.026 187.796 442.245C187.902 441.675 188.142 441.074 188.067 440.488C188.007 439.993 187.451 439.587 186.985 439.482C186.459 439.362 185.903 439.497 185.452 439.782L185.347 440.368V440.353Z" fill="white"/>
<path d="M188.622 430.515C188.773 425.469 187.886 424.012 187.585 421.699C187.585 421.699 187.585 421.684 187.585 421.669C187.991 420.813 188.262 419.851 188.307 418.83C188.367 417.133 188.186 414.715 188.217 413.018C188.277 409.503 191.282 398.073 184.039 396.166C182.957 395.881 181.213 393.808 180.327 394.604C180.146 394.769 179.575 395.535 179.185 397.157C178.959 398.088 178.884 399.485 178.749 400.732C178.538 402.85 178.614 405.313 179.064 407.911C179.651 411.351 179.756 419.641 181.544 423.336C182.416 427.451 182.927 442.125 182.942 442.17C183.152 443.162 183.813 444.243 187.21 443.973C188.126 443.898 188.562 441.194 188.682 440.473C189.208 437.349 188.532 433.684 188.622 430.515Z" fill="#0F1317"/>
<path d="M195.459 396.752C195.459 396.752 195.054 396.166 195.039 396.181C193.461 396.947 191.522 396.707 189.659 396.902C185.646 397.293 185.315 397.999 182.716 396.181C182.13 398.93 182.761 401.543 182.716 402.159C182.535 405.313 185.466 405.643 185.556 407.311C185.751 411.186 186.097 418.815 186.608 422.66C186.743 423.727 186.923 424.823 187.284 425.829C187.344 427.136 187.404 428.428 187.48 429.734C188.021 439.437 187.915 444.378 188.682 446.421C189.313 448.103 191.522 448.013 192.965 447.578C193.596 447.382 194.197 447.022 194.573 446.481C194.933 445.955 195.054 445.295 195.159 444.664C196.106 438.821 196 432.994 194.843 427.211C194.603 424.147 195.084 419.882 195.79 416.908C197.233 410.885 197.909 404.262 195.429 396.767L195.459 396.752Z" fill="#1C232A"/>
<path d="M195.64 390.279C195.505 391.3 195.43 392.306 195.385 393.327C195.43 392.306 195.52 391.3 195.655 390.279H195.64Z" fill="#F3A984"/>
<path d="M195.369 393.327C195.339 393.943 195.324 394.559 195.324 395.175C195.324 395.175 195.354 395.175 195.354 395.16C195.339 394.544 195.354 393.928 195.354 393.327H195.369Z" fill="#F3A984"/>
<path d="M195.371 393.327C195.416 392.306 195.506 391.3 195.641 390.278C195.807 389.002 196.047 387.71 196.333 386.448C196.844 384.196 197.445 382.393 198.061 380.17C198.406 378.924 199.158 377.046 199.263 376.16C199.504 374.118 198.316 372.526 195.656 370.738C193.868 369.522 190.276 367.93 186.775 366.833C181.876 365.301 181.184 367.089 179.772 370.994C178.464 374.628 178.84 380.636 179.426 384.511C179.742 386.569 179.922 388.641 179.997 390.714C180.057 392.501 179.862 394.198 179.561 395.956C183.859 398.99 189.705 398.224 194.604 397.037C194.905 396.977 195.205 396.887 195.476 396.767C195.371 395.625 195.356 394.484 195.386 393.342L195.371 393.327Z" fill="#F4F4F4"/>
<path d="M190.59 378.789C189.629 381.522 191.071 384.256 191.071 386.989C191.207 390.564 191.071 394.153 190.846 397.758C192.123 397.563 193.386 397.308 194.588 397.007C194.888 396.947 195.189 396.857 195.459 396.737C195.354 395.595 195.339 394.454 195.369 393.312C195.414 392.291 195.505 391.285 195.64 390.263C195.805 388.987 196.046 387.695 196.331 386.434C196.842 384.181 197.443 382.378 198.059 380.155C198.405 378.909 199.156 377.031 199.262 376.145C199.397 374.914 199.036 373.862 198.15 372.826C195.219 374.478 191.898 375.454 190.62 378.789H190.59Z" fill="#D4E2FC"/>
<path d="M186.67 393.447C186.128 393.898 185.497 394.439 184.986 394.889C184.22 393.703 184.205 393.598 183.499 392.411C183.484 385.322 183.784 378.668 185.482 371.88C186.144 372.345 186.474 372.586 187.135 373.051C186.279 379.555 185.738 386.313 186.685 393.447H186.67Z" fill="#1C232A"/>
<path d="M184.775 371.715C184.775 371.715 184.775 371.775 184.775 371.82C184.775 372.015 184.911 372.27 184.971 372.45C185.121 372.856 185.301 373.247 185.527 373.622C185.647 373.832 185.797 374.028 186.008 374.118C186.248 374.223 186.534 374.148 186.774 374.013C187.045 373.862 187.526 373.652 187.465 373.322C187.42 373.036 187.315 372.751 187.225 372.466C187.03 371.895 186.774 371.204 186.248 370.858C185.662 370.468 185.241 371.054 184.941 371.489C184.881 371.579 184.82 371.639 184.805 371.715H184.775Z" fill="#283032"/>
<path d="M192.184 368.846C192.304 372.811 184.88 372.871 184.985 369.146C185.136 363.964 185.451 363.364 187.901 362.553C188.577 362.327 189.268 362.162 189.975 362.147C192.56 362.102 191.553 363.409 191.463 364.325C191.177 367.043 192.139 367.419 192.184 368.831V368.846Z" fill="#F5A783"/>
<path d="M192.183 368.846C192.138 367.419 191.177 367.044 191.462 364.34C191.552 363.424 192.559 362.117 189.974 362.162C189.268 362.162 188.562 362.342 187.9 362.568C185.481 363.364 185.15 363.95 185 368.951C187.059 368.756 188.877 366.488 190.966 367.84C191.522 368.26 191.898 368.801 192.168 369.387C192.198 369.221 192.198 369.041 192.198 368.861L192.183 368.846Z" fill="#EE9C76"/>
<path d="M190.967 367.809C188.878 366.458 187.06 368.726 185.001 368.921C185.001 368.996 185.001 369.056 185.001 369.131C184.896 372.676 191.659 372.781 192.17 369.356C191.914 368.756 191.538 368.23 190.967 367.809Z" fill="#F5A783"/>
<path d="M186.203 371.279C186.068 371.699 185.512 371.85 185.136 372.09C184.971 372.195 184.686 372.405 184.475 372.36C184.265 372.315 184.13 372.03 184.054 371.85C183.528 370.573 183.228 369.176 183.213 367.794C183.213 367.359 183.273 366.863 183.619 366.563C183.934 366.292 184.46 366.232 184.836 366.398C185.242 366.578 185.347 367.374 185.197 367.749C184.671 369.071 185.272 370.603 186.173 371.279H186.203Z" fill="white"/>
<path d="M186.142 371.294C186.142 371.294 186.788 372.315 187.57 373.021C187.765 373.202 187.915 373.412 188.186 373.322C189.463 372.916 192.153 370.663 192.679 369.236C192.875 368.726 192.499 368.08 192.198 367.674C192.138 367.599 191.732 367.044 191.657 366.999C191.597 367.074 191.327 368.095 190.876 368.756C189.839 370.273 187.96 371.054 186.127 371.294H186.142Z" fill="white"/>
<path d="M184.175 393.252C183.784 393.192 182.672 393.207 182.297 393.282C181.921 393.357 182.973 393.838 182.747 394.153C182.402 394.634 181.726 394.964 181.801 395.55C181.861 396.016 181.936 396.496 182.101 396.932C182.282 397.367 182.567 397.773 182.988 398.013C183.153 398.103 183.334 398.164 183.514 398.164C183.634 398.164 183.754 398.133 183.875 398.103C184.551 397.923 185.227 397.743 185.918 397.563C186.069 397.518 186.219 397.488 186.354 397.413C186.535 397.322 186.685 397.172 186.82 397.007C187.256 396.421 187.346 395.64 187.181 394.934C187.106 394.589 186.955 394.168 186.715 393.913C186.504 393.703 186.129 393.688 185.843 393.613C185.302 393.462 184.746 393.327 184.19 393.252H184.175Z" fill="#FFBFA2"/>
<path d="M185.738 393.477C185.122 393.012 184.506 392.561 183.89 392.096C183.649 391.915 183.409 391.735 183.123 391.63C182.913 391.555 182.673 391.525 182.447 391.465C182.237 391.42 182.041 391.345 181.831 391.3C181.2 391.195 180.584 391.465 179.998 391.72C179.757 391.825 179.517 391.93 179.336 392.126C179.216 392.246 179.141 392.441 179.231 392.576C179.276 392.636 179.351 392.681 179.427 392.711C179.637 392.802 179.847 392.892 180.088 392.877C180.358 392.877 180.614 392.711 180.884 392.666C181.35 392.606 181.801 392.907 182.102 393.267C182.387 393.643 182.582 394.078 182.838 394.484C183.093 394.874 183.469 395.25 183.935 395.31C184.1 395.34 184.266 395.31 184.431 395.31C184.822 395.265 185.197 395.16 185.528 394.964C185.814 394.784 186.039 394.529 186.144 394.213C186.264 393.853 186.009 393.673 185.738 393.477Z" fill="#FFBFA2"/>
<path d="M179.336 385.367L169.492 379.675L169.973 379.359L179.816 385.052L179.336 385.367Z" fill="#1C232A"/>
<path d="M179.817 385.052L183.98 397.743L183.183 397.217L179.336 385.367L179.817 385.052Z" fill="#0F1317"/>
<path d="M183.498 398.059L173.655 392.366L169.492 379.675L179.336 385.367L183.498 398.059Z" fill="#0F1317"/>
<path d="M184.13 395.175C184.535 394.935 183.063 394.409 182.897 394.199C182.492 393.703 182.567 394.499 181.124 394.484C180.703 394.484 180.267 394.484 179.877 394.319C179.591 394.214 179.26 394.033 179.005 394.199C178.81 394.319 178.765 394.604 178.855 394.829C178.464 394.649 178.389 395.37 178.674 395.716C179.23 396.376 178.254 396.482 179.411 397.383C179.336 397.428 179.26 397.473 179.185 397.533C179.306 398.795 182.386 398.389 183.634 398.164C185.843 397.758 185.106 395.325 184.115 395.19L184.13 395.175Z" fill="#FFBFA2"/>
<path d="M172.649 387.98C171.958 388.311 171.597 387.485 171.898 387.199C172.198 386.914 173.28 386.809 173.521 387.38C173.716 387.86 173.1 387.755 172.649 387.965V387.98Z" fill="#FFBFA2"/>
<path d="M170.785 384.09C170.364 384.391 170.68 385.172 170.905 385.187C171.025 385.187 171.176 385.097 171.281 385.052C171.551 384.946 171.852 384.916 172.167 384.961C172.288 384.992 172.423 385.022 172.543 385.007C172.663 385.007 172.784 384.931 172.829 384.796C173.024 384.256 172.182 383.955 171.927 383.895C171.266 383.715 170.98 383.955 170.785 384.09Z" fill="#FFBFA2"/>
<path d="M171.04 386.163C171.371 386.494 171.491 385.893 172.438 386.043C172.558 386.058 172.693 386.103 172.813 386.088C172.934 386.088 173.054 386.013 173.099 385.878C173.294 385.337 172.438 385.052 172.197 384.992C171.025 384.691 170.439 385.592 171.055 386.178L171.04 386.163Z" fill="#FFBFA2"/>
<path d="M171.461 387.094C171.836 387.26 171.896 387.064 172.618 386.989C173.73 386.869 173.324 385.848 172.002 386.058C171.927 386.058 171.566 386.118 171.461 386.163C171.04 386.313 171.07 386.929 171.461 387.094Z" fill="#FFBFA2"/>
<path d="M201.201 379.495C201.141 378.248 200.886 376.986 200.45 375.815C199.999 374.628 199.233 373.787 198.256 372.931C197.82 372.556 197.264 372.165 196.678 372.27C196.137 372.36 195.776 372.826 195.506 373.277C193.868 375.98 193.747 379.435 194.318 382.453C194.844 385.232 194.995 388.086 195.536 390.879C192.635 391.405 188.563 392.411 186.309 393.553C185.843 393.793 185.362 394.078 185.121 394.529C184.731 395.25 185.257 396.722 185.828 397.218C186.579 397.863 187.751 397.773 188.668 397.653C190.576 397.398 196.543 396.887 199.533 395.025C199.879 394.935 200.21 394.739 200.51 394.439C201.171 393.763 201.607 392.261 201.652 390.684C201.727 387.785 201.442 384.106 201.216 379.48L201.201 379.495Z" fill="white"/>
<path d="M182.43 356.395C181.919 357.221 181.619 358.167 181.619 359.173C181.619 359.609 181.694 360.044 181.844 360.45C181.979 360.84 182.22 361.201 182.235 361.621C182.235 362.117 181.889 362.673 181.724 363.138C181.574 363.559 181.499 364.04 181.664 364.445C181.754 364.685 181.934 364.881 182.07 365.091C182.731 366.127 182.1 367.644 183.257 368.38C183.542 368.56 183.873 368.605 184.219 368.621C184.639 368.636 186.548 368.11 187.284 367.779C188.096 367.419 188.892 366.488 189.478 365.827C189.944 365.301 190.711 364.625 191.011 364.01C191.102 363.814 190.891 363.784 191.086 363.679C191.207 363.619 191.357 362.868 191.477 362.853C191.627 362.838 191.853 362.658 191.973 362.568C192.229 362.402 192.349 363.018 192.439 362.718C192.8 361.471 193.251 360.18 193.19 358.858C193.145 357.641 193.175 356.605 192.394 355.584C191.808 354.803 190.966 354.247 190.065 353.902C188.682 353.376 187.104 353.346 185.706 353.826C184.384 354.277 183.197 355.193 182.46 356.38L182.43 356.395Z" fill="#FFBFA2"/>
<path d="M193.176 358.888C193.131 357.671 193.161 356.635 192.38 355.614C191.794 354.833 190.952 354.277 190.051 353.932C189.224 353.616 188.337 353.481 187.451 353.526C186.128 356.169 188.037 359.549 186.594 362.297C186.113 362.943 185.151 363.424 185.151 364.235C184.836 365.677 186.279 366.968 185.482 368.41C186.143 368.23 186.88 368.005 187.285 367.824C188.097 367.464 188.893 366.533 189.479 365.872C189.945 365.346 190.712 364.67 191.012 364.055C191.103 363.859 190.892 363.829 191.088 363.724C191.208 363.664 191.358 362.913 191.478 362.898C191.629 362.883 191.854 362.703 191.974 362.613C192.23 362.448 192.35 363.063 192.44 362.763C192.801 361.516 193.252 360.225 193.191 358.903L193.176 358.888Z" fill="#F8B495"/>
<path d="M187.03 357.521C187.375 357.461 187.721 357.476 188.036 357.611C188.562 357.852 188.893 358.422 188.968 359.008C189.149 360.285 188.713 361.546 188.683 362.808C188.683 363.003 188.683 363.198 188.788 363.364C189.043 363.814 189.524 363.574 189.78 363.289C189.945 363.108 190.08 362.898 190.246 362.703C190.411 362.508 190.621 362.342 190.862 362.297C191.253 362.222 191.568 362.538 191.628 362.898C191.688 363.229 191.628 363.559 191.538 363.889C191.523 363.964 191.358 364.55 191.583 364.55C191.824 364.55 193.928 362.387 194.018 358.708C194.108 355.178 191.658 354.517 191.658 354.517C191.658 354.517 190.576 352.685 187.736 352.82C186.233 352.895 184.775 353.376 183.513 354.172C183.468 354.202 183.408 354.232 183.363 354.262C182.747 354.667 182.161 355.133 181.77 355.749C180.673 357.431 182.145 358.783 183.919 358.512C184.745 358.377 185.527 357.987 186.323 357.716C186.549 357.641 186.789 357.566 187.03 357.521Z" fill="#C99C83"/>
<path d="M194.032 358.693C194.032 359.068 193.987 359.429 193.942 359.774C193.521 362.793 191.808 364.535 191.598 364.535C191.357 364.535 191.523 363.95 191.553 363.874C191.643 363.559 191.703 363.214 191.643 362.883C191.583 362.523 191.282 362.207 190.876 362.282C190.636 362.327 190.426 362.493 190.26 362.688C190.095 362.868 189.96 363.093 189.779 363.274C189.509 363.559 189.043 363.799 188.788 363.349C188.697 363.184 188.682 362.988 188.682 362.793C188.682 362.613 188.697 362.433 188.712 362.252C188.742 361.922 188.803 361.591 188.848 361.276C188.968 360.525 189.073 359.759 188.968 358.993C188.878 358.422 188.562 357.837 188.036 357.596C187.721 357.461 187.375 357.446 187.029 357.506C187.029 357.506 188.171 356.335 189.193 355.689C190.2 355.043 191.673 354.487 191.673 354.487C191.673 354.487 193.912 355.088 194.032 358.227C194.032 358.377 194.032 358.528 194.032 358.678V358.693Z" fill="#B98C74"/>
<path d="M191.238 361.321C192.29 361.246 192.561 362.553 191.839 363.559C191.629 363.859 191.253 364.115 190.983 364.34C189.104 365.947 188.623 364.205 189.225 363.664C190.607 362.403 189.916 361.396 191.238 361.321Z" fill="#F8B495"/>
<path d="M190.606 363.814C190.727 363.709 191.929 363.003 191.102 362.523C190.877 362.387 190.621 362.583 190.591 362.823C190.576 362.943 190.606 363.078 190.591 363.198C190.591 363.274 190.546 363.334 190.516 363.409C190.411 363.589 190.05 363.754 190.125 363.994C190.186 364.22 190.546 363.874 190.606 363.814Z" fill="#F3A984"/>
<path d="M157.304 338.837L170.228 346.302C171.851 347.248 173.174 349.531 173.174 351.408V354.758C173.7 356.68 175.578 363.439 175.699 364.07L171.566 358.723C171.01 358.002 170.364 357.416 169.702 357.041L157.289 349.876C155.651 348.93 154.344 346.647 154.344 344.77V340.549C154.344 338.672 155.666 337.906 157.289 338.852L157.304 338.837Z" fill="#DDE3F4"/>
</g>
<path d="M11.6786 211.774C11.586 211.774 11.4802 211.747 11.4008 211.694C11.2289 211.588 11.123 211.403 11.123 211.205V198.422C11.123 198.224 11.2289 198.039 11.4008 197.933L22.5115 191.515C22.6834 191.409 22.9083 191.409 23.0802 191.515C23.2522 191.621 23.358 191.806 23.358 192.005V204.787C23.358 204.986 23.2522 205.171 23.0802 205.277L11.9696 211.694C11.877 211.747 11.7844 211.774 11.6918 211.774H11.6786ZM12.2473 198.753V210.225L22.2337 204.456V192.984L12.2473 198.753Z" fill="#1F2846"/>
<path d="M11.6759 211.774C11.5833 211.774 11.4775 211.747 11.3981 211.694L0.28752 205.277C0.11557 205.171 0.00976562 204.986 0.00976562 204.787V192.005C0.00976562 191.806 0.11557 191.621 0.28752 191.515C0.45947 191.409 0.684318 191.409 0.856268 191.515L11.9669 197.933C12.1389 198.039 12.2447 198.224 12.2447 198.422V211.205C12.2447 211.403 12.1389 211.588 11.9669 211.694C11.8743 211.747 11.7817 211.774 11.6891 211.774H11.6759ZM1.13406 204.456L11.1204 210.225V198.753L1.13406 192.984V204.456Z" fill="#1F2846"/>
<path d="M11.6759 198.991C11.5833 198.991 11.4775 198.965 11.3981 198.912L0.28752 192.494C0.11557 192.389 0.00976562 192.203 0.00976562 192.005C0.00976562 191.806 0.11557 191.621 0.28752 191.515L11.3981 185.098C11.5701 184.992 11.795 184.992 11.9669 185.098L23.0775 191.515C23.2495 191.621 23.3553 191.806 23.3553 192.005C23.3553 192.203 23.2495 192.389 23.0775 192.494L11.9669 198.912C11.8743 198.965 11.7817 198.991 11.6891 198.991H11.6759ZM1.70281 192.005L11.6891 197.774L21.6755 192.005L11.6891 186.236L1.70281 192.005Z" fill="#1F2846"/>
<g opacity="0.5">
<path d="M22.4441 205.422C22.2457 205.422 22.0606 205.316 21.9548 205.144C21.8886 205.025 21.8622 204.906 21.8886 204.787L11.6906 198.899L0.857792 205.158C0.580026 205.316 0.236131 205.224 0.0774079 204.946C-0.0813153 204.668 0.0112781 204.324 0.289044 204.165L11.3997 197.747C11.5716 197.642 11.7965 197.642 11.9684 197.747L23.0791 204.165C23.251 204.271 23.3568 204.456 23.3568 204.655C23.3568 204.853 23.251 205.038 23.0791 205.144L22.7219 205.343C22.6294 205.396 22.5367 205.422 22.4441 205.422Z" fill="#1F2846"/>
</g>
<g opacity="0.5">
<path d="M11.6762 198.793C11.3588 198.793 11.1074 198.541 11.1074 198.224V185.574C11.1074 185.256 11.3588 185.005 11.6762 185.005C11.9937 185.005 12.245 185.256 12.245 185.574V198.224C12.245 198.541 11.9937 198.793 11.6762 198.793Z" fill="#1F2846"/>
</g>
<path d="M559.5 173.535C559.394 173.535 559.275 173.509 559.183 173.456C558.984 173.337 558.865 173.125 558.865 172.9V158.45C558.865 158.225 558.984 158.014 559.183 157.895L571.748 150.63C571.947 150.511 572.185 150.511 572.383 150.63C572.582 150.749 572.701 150.961 572.701 151.186V165.635C572.701 165.86 572.582 166.072 572.383 166.191L559.818 173.442C559.725 173.495 559.606 173.522 559.5 173.522V173.535ZM560.135 158.808V171.775L571.418 165.252V152.284L560.135 158.808Z" fill="#1F2846"/>
<path d="M559.501 173.535C559.395 173.535 559.276 173.509 559.184 173.456L546.618 166.204C546.42 166.085 546.301 165.874 546.301 165.649V151.199C546.301 150.974 546.42 150.762 546.618 150.643C546.817 150.524 547.055 150.524 547.253 150.643L559.819 157.908C560.017 158.027 560.136 158.239 560.136 158.464V172.913C560.136 173.138 560.017 173.35 559.819 173.469C559.726 173.522 559.607 173.548 559.501 173.548V173.535ZM547.571 165.265L558.853 171.788V158.821L547.571 152.297V165.265Z" fill="#1F2846"/>
<path d="M559.501 159.072C559.395 159.072 559.276 159.046 559.184 158.993L546.618 151.728C546.42 151.609 546.301 151.398 546.301 151.173C546.301 150.948 546.42 150.736 546.618 150.617L559.184 143.366C559.382 143.247 559.62 143.247 559.819 143.366L572.384 150.617C572.583 150.736 572.702 150.948 572.702 151.173C572.702 151.398 572.583 151.609 572.384 151.728L559.819 158.993C559.726 159.046 559.607 159.072 559.501 159.072ZM548.219 151.186L559.501 157.709L570.784 151.186L559.501 144.662L548.219 151.186Z" fill="#1F2846"/>
<g opacity="0.5">
<path d="M571.669 166.35C571.444 166.35 571.233 166.231 571.114 166.032C571.034 165.9 571.021 165.768 571.034 165.622L559.5 158.966L547.252 166.046C546.948 166.218 546.551 166.125 546.379 165.807C546.207 165.503 546.313 165.106 546.617 164.934L559.183 157.67C559.381 157.551 559.619 157.551 559.818 157.67L572.383 164.934C572.582 165.053 572.701 165.265 572.701 165.49C572.701 165.715 572.582 165.927 572.383 166.046L571.987 166.271C571.881 166.323 571.775 166.35 571.669 166.35Z" fill="#1F2846"/>
</g>
<g opacity="0.5">
<path d="M559.5 158.861C559.143 158.861 558.865 158.57 558.865 158.225V143.935C558.865 143.577 559.156 143.3 559.5 143.3C559.844 143.3 560.135 143.591 560.135 143.935V158.225C560.135 158.583 559.844 158.861 559.5 158.861Z" fill="#1F2846"/>
</g>
<defs>
<clipPath id="clip0_2034_1689">
<rect width="524" height="527" fill="white" transform="translate(102)"/>
</clipPath>
</defs>
</svg>
