<svg width="164" height="330" viewBox="0 0 164 330" fill="none" xmlns="http://www.w3.org/2000/svg">
<g opacity="0.2">
<path d="M7.11948 289.964L80.4825 329.865L153.566 290.37L80.2189 250.469L7.11948 289.964Z" fill="#F4F4FB"/>
</g>
<path d="M80.2189 250.469L80.4825 329.865L153.566 290.37L153.303 210.974L80.2189 250.469Z" fill="#E7E6F1"/>
<path d="M149.582 288.222L149.334 217.418L84.205 252.617L84.4377 323.421L149.582 288.222Z" fill="#E7E6F1"/>
<path d="M6.85577 210.567L7.11938 289.964L80.4824 329.865L80.2188 250.469L6.85577 210.567Z" fill="#CFCDE2"/>
<path d="M76.2342 252.617L10.8727 217.07L11.1053 287.815L76.4668 323.377L76.2342 252.617Z" fill="#1F2846"/>
<path d="M6.8558 210.567L80.2188 250.469L153.303 210.974L79.9552 171.072L6.8558 210.567Z" fill="#F4F4FB"/>
<path d="M36.1941 210.611L40.8307 213.136L80.2336 234.56L119.342 213.427L123.979 210.93L79.939 186.966L36.1941 210.611Z" fill="#6B7595"/>
<path d="M40.8305 213.136L80.2335 234.56L119.342 213.427L79.9388 192.003L40.8305 213.136Z" fill="#1F2846"/>
<path d="M74.434 216.518L81.3501 220.263L78.6519 223.036L84.0483 225.953L97.3066 210.48L92.5615 207.911L63.8738 215.052L69.3012 217.984L74.434 216.533V216.518ZM84.0483 217.505L79.5513 215.067L89.0725 212.367L84.0638 217.505H84.0483Z" fill="white"/>
<path d="M56.9734 211.308L62.0131 214.022L82.9629 202.7L77.9232 199.986L56.9889 211.308H56.9734Z" fill="white"/>
<path opacity="0.2" d="M73.7986 253.633L75.3027 254.446V252.82L73.7986 252.007V253.633Z" fill="#E7E6F1"/>
<path opacity="0.2" d="M70.1677 251.673L71.6719 252.486V250.861L70.1677 250.048V251.673Z" fill="#E7E6F1"/>
<path d="M66.5427 249.714L68.0469 250.527V248.901L66.5427 248.088V249.714Z" fill="#E7E6F1"/>
<path d="M62.9118 247.754L64.416 248.567V246.942L62.9118 246.129V247.754Z" fill="#E7E6F1"/>
<path d="M59.2849 245.795L60.7891 246.608V244.982L59.2849 244.169V245.795Z" fill="#E7E6F1"/>
<path d="M55.6559 243.835L57.1445 244.634V243.022L55.6559 242.21V243.835Z" fill="#E7E6F1"/>
<path d="M52.027 241.861L53.5156 242.674V241.063L52.027 240.25V241.861Z" fill="#E7E6F1"/>
<path opacity="0.2" d="M48.3981 239.902L49.8867 240.715V239.089L48.3981 238.291V239.902Z" fill="#E7E6F1"/>
<path d="M44.7692 237.942L46.2578 238.755V237.129L44.7692 236.317V237.942Z" fill="#E7E6F1"/>
<path opacity="0.5" d="M41.1267 235.983L42.6309 236.796V235.17L41.1267 234.357V235.983Z" fill="#E7E6F1"/>
<path opacity="0.5" d="M37.4958 234.023L39 234.836V233.21L37.4958 232.398V234.023Z" fill="#E7E6F1"/>
<path opacity="0.5" d="M33.8669 232.064L35.3711 232.877V231.251L33.8669 230.438V232.064Z" fill="#E7E6F1"/>
<path d="M30.24 230.104L31.7441 230.917V229.291L30.24 228.479V230.104Z" fill="#E7E6F1"/>
<path opacity="0.2" d="M26.6091 228.145L28.1133 228.958V227.332L26.6091 226.519V228.145Z" fill="#E7E6F1"/>
<path d="M22.9822 226.171L24.4863 226.984V225.372L22.9822 224.56V226.171Z" fill="#E7E6F1"/>
<path opacity="0.2" d="M19.3533 224.211L20.8574 225.024V223.398L19.3533 222.6V224.211Z" fill="#E7E6F1"/>
<path d="M15.7243 222.252L17.2285 223.065V221.439L15.7243 220.626V222.252Z" fill="#E7E6F1"/>
<path opacity="0.2" d="M12.0954 220.292L13.5996 221.105V219.479L12.0954 218.667V220.292Z" fill="#E7E6F1"/>
<path opacity="0.2" d="M73.7986 257.842L75.3027 258.655V257.029L73.7986 256.217V257.842Z" fill="#E7E6F1"/>
<path opacity="0.2" d="M70.1677 255.883L71.6719 256.696V255.07L70.1677 254.257V255.883Z" fill="#E7E6F1"/>
<path d="M66.5427 253.923L68.0469 254.736V253.11L66.5427 252.297V253.923Z" fill="#E7E6F1"/>
<path opacity="0.2" d="M62.9118 251.964L64.416 252.762V251.151L62.9118 250.338V251.964Z" fill="#E7E6F1"/>
<path d="M59.2849 249.99L60.7891 250.803V249.177L59.2849 248.379V249.99Z" fill="#E7E6F1"/>
<path d="M55.6559 248.03L57.1445 248.843V247.217L55.6559 246.404V248.03Z" fill="#E7E6F1"/>
<path d="M52.027 246.071L53.5156 246.884V245.258L52.027 244.445V246.071Z" fill="#E7E6F1"/>
<path d="M48.3981 244.111L49.8867 244.924V243.298L48.3981 242.485V244.111Z" fill="#E7E6F1"/>
<path d="M44.7692 242.152L46.2578 242.964V241.339L44.7692 240.526V242.152Z" fill="#E7E6F1"/>
<path opacity="0.5" d="M41.1267 240.192L42.6309 241.005V239.379L41.1267 238.566V240.192Z" fill="#E7E6F1"/>
<path opacity="0.5" d="M37.4958 238.233L39 239.045V237.42L37.4958 236.607V238.233Z" fill="#E7E6F1"/>
<path opacity="0.5" d="M33.8669 236.273L35.3711 237.071V235.46L33.8669 234.647V236.273Z" fill="#E7E6F1"/>
<path opacity="0.2" d="M30.24 234.299L31.7441 235.112V233.486L30.24 232.688V234.299Z" fill="#E7E6F1"/>
<path opacity="0.2" d="M26.6091 232.34L28.1133 233.152V231.527L26.6091 230.714V232.34Z" fill="#E7E6F1"/>
<path d="M22.9822 230.38L24.4863 231.193V229.567L22.9822 228.754V230.38Z" fill="#E7E6F1"/>
<path d="M19.3533 228.421L20.8574 229.233V227.608L19.3533 226.795V228.421Z" fill="#E7E6F1"/>
<path d="M15.7243 226.461L17.2285 227.274V225.648L15.7243 224.835V226.461Z" fill="#E7E6F1"/>
<path opacity="0.2" d="M12.0954 224.502L13.5996 225.314V223.689L12.0954 222.876V224.502Z" fill="#E7E6F1"/>
<path opacity="0.2" d="M73.7986 262.052L75.3027 262.85V261.239L73.7986 260.426V262.052Z" fill="#E7E6F1"/>
<path opacity="0.2" d="M70.1677 260.077L71.6719 260.89V259.279L70.1677 258.466V260.077Z" fill="#E7E6F1"/>
<path d="M66.5427 258.118L68.0469 258.931V257.305L66.5427 256.507V258.118Z" fill="#E7E6F1"/>
<path d="M62.9118 256.158L64.416 256.971V255.346L62.9118 254.533V256.158Z" fill="#E7E6F1"/>
<path opacity="0.2" d="M59.2849 254.199L60.7891 255.012V253.386L59.2849 252.573V254.199Z" fill="#E7E6F1"/>
<path d="M55.6559 252.239L57.1445 253.052V251.427L55.6559 250.614V252.239Z" fill="#E7E6F1"/>
<path d="M52.027 250.28L53.5156 251.093V249.467L52.027 248.654V250.28Z" fill="#E7E6F1"/>
<path d="M48.3981 248.32L49.8867 249.133V247.508L48.3981 246.695V248.32Z" fill="#E7E6F1"/>
<path d="M44.7692 246.361L46.2578 247.174V245.548L44.7692 244.735V246.361Z" fill="#E7E6F1"/>
<path opacity="0.5" d="M41.1267 244.387L42.6309 245.2V243.589L41.1267 242.776V244.387Z" fill="#E7E6F1"/>
<path opacity="0.5" d="M37.4958 242.427L39 243.24V241.615L37.4958 240.816V242.427Z" fill="#E7E6F1"/>
<path opacity="0.5" d="M33.8669 240.468L35.3711 241.281V239.655L33.8669 238.842V240.468Z" fill="#E7E6F1"/>
<path d="M30.24 238.508L31.7441 239.321V237.696L30.24 236.883V238.508Z" fill="#E7E6F1"/>
<path opacity="0.2" d="M26.6091 236.549L28.1133 237.362V235.736L26.6091 234.923V236.549Z" fill="#E7E6F1"/>
<path opacity="0.2" d="M22.9822 234.589L24.4863 235.402V233.777L22.9822 232.964V234.589Z" fill="#E7E6F1"/>
<path d="M19.3533 232.63L20.8574 233.443V231.817L19.3533 231.004V232.63Z" fill="#E7E6F1"/>
<path d="M15.7243 230.67L17.2285 231.483V229.857L15.7243 229.045V230.67Z" fill="#E7E6F1"/>
<path opacity="0.2" d="M12.0954 228.696L13.5996 229.509V227.898L12.0954 227.085V228.696Z" fill="#E7E6F1"/>
<path opacity="0.2" d="M73.7986 266.246L75.3027 267.059V265.433L73.7986 264.635V266.246Z" fill="#E7E6F1"/>
<path opacity="0.2" d="M70.1677 264.287L71.6719 265.1V263.474L70.1677 262.661V264.287Z" fill="#E7E6F1"/>
<path opacity="0.2" d="M66.5427 262.327L68.0469 263.14V261.514L66.5427 260.702V262.327Z" fill="#E7E6F1"/>
<path d="M62.9118 260.368L64.416 261.181V259.555L62.9118 258.742V260.368Z" fill="#E7E6F1"/>
<path opacity="0.2" d="M59.2849 258.408L60.7891 259.221V257.595L59.2849 256.783V258.408Z" fill="#E7E6F1"/>
<path d="M55.6559 256.449L57.1445 257.262V255.636L55.6559 254.823V256.449Z" fill="#E7E6F1"/>
<path d="M52.027 254.489L53.5156 255.302V253.676L52.027 252.864V254.489Z" fill="#E7E6F1"/>
<path opacity="0.2" d="M48.3981 252.515L49.8867 253.328V251.717L48.3981 250.904V252.515Z" fill="#E7E6F1"/>
<path d="M44.7692 250.556L46.2578 251.369V249.743L44.7692 248.945V250.556Z" fill="#E7E6F1"/>
<path opacity="0.5" d="M41.1267 248.596L42.6309 249.409V247.783L41.1267 246.971V248.596Z" fill="#E7E6F1"/>
<path opacity="0.5" d="M37.4958 246.637L39 247.45V245.824L37.4958 245.011V246.637Z" fill="#E7E6F1"/>
<path opacity="0.5" d="M33.8669 244.677L35.3711 245.49V243.864L33.8669 243.052V244.677Z" fill="#E7E6F1"/>
<path d="M30.24 242.718L31.7441 243.53V241.905L30.24 241.092V242.718Z" fill="#E7E6F1"/>
<path opacity="0.2" d="M26.6091 240.758L28.1133 241.571V239.945L26.6091 239.133V240.758Z" fill="#E7E6F1"/>
<path opacity="0.2" d="M22.9822 238.799L24.4863 239.597V237.986L22.9822 237.173V238.799Z" fill="#E7E6F1"/>
<path opacity="0.2" d="M19.3533 236.839L20.8574 237.637V236.026L19.3533 235.214V236.839Z" fill="#E7E6F1"/>
<path opacity="0.2" d="M15.7243 234.865L17.2285 235.678V234.052L15.7243 233.254V234.865Z" fill="#E7E6F1"/>
<path d="M12.0954 232.906L13.5996 233.718V232.093L12.0954 231.28V232.906Z" fill="#E7E6F1"/>
<path d="M73.7986 270.456L75.3027 271.268V269.643L73.7986 268.83V270.456Z" fill="#E7E6F1"/>
<path opacity="0.2" d="M70.1677 268.496L71.6719 269.309V267.683L70.1677 266.87V268.496Z" fill="#E7E6F1"/>
<path opacity="0.2" d="M66.5427 266.537L68.0469 267.349V265.724L66.5427 264.911V266.537Z" fill="#E7E6F1"/>
<path d="M62.9118 264.577L64.416 265.39V263.764L62.9118 262.951V264.577Z" fill="#E7E6F1"/>
<path opacity="0.2" d="M59.2849 262.618L60.7891 263.416V261.805L59.2849 260.992V262.618Z" fill="#E7E6F1"/>
<path d="M55.6559 260.644L57.1445 261.456V259.845L55.6559 259.032V260.644Z" fill="#E7E6F1"/>
<path d="M52.027 258.684L53.5156 259.497V257.871L52.027 257.058V258.684Z" fill="#E7E6F1"/>
<path opacity="0.2" d="M48.3981 256.725L49.8867 257.537V255.912L48.3981 255.099V256.725Z" fill="#E7E6F1"/>
<path d="M44.7692 254.765L46.2578 255.578V253.952L44.7692 253.139V254.765Z" fill="#E7E6F1"/>
<path opacity="0.2" d="M41.1267 252.806L42.6309 253.618V251.993L41.1267 251.18V252.806Z" fill="#E7E6F1"/>
<path opacity="0.2" d="M37.4958 250.846L39 251.659V250.033L37.4958 249.22V250.846Z" fill="#E7E6F1"/>
<path opacity="0.5" d="M33.8669 248.887L35.3711 249.699V248.074L33.8669 247.261V248.887Z" fill="#E7E6F1"/>
<path opacity="0.2" d="M30.24 246.927L31.7441 247.725V246.114L30.24 245.301V246.927Z" fill="#E7E6F1"/>
<path opacity="0.2" d="M26.6091 244.953L28.1133 245.766V244.155L26.6091 243.342V244.953Z" fill="#E7E6F1"/>
<path opacity="0.2" d="M22.9822 242.994L24.4863 243.806V242.181L22.9822 241.368V242.994Z" fill="#E7E6F1"/>
<path d="M19.3533 241.034L20.8574 241.847V240.221L19.3533 239.408V241.034Z" fill="#E7E6F1"/>
<path d="M15.7243 239.075L17.2285 239.887V238.262L15.7243 237.449V239.075Z" fill="#E7E6F1"/>
<path opacity="0.2" d="M12.0954 237.115L13.5996 237.928V236.302L12.0954 235.489V237.115Z" fill="#E7E6F1"/>
<path opacity="0.2" d="M73.7986 274.665L75.3027 275.478V273.852L73.7986 273.039V274.665Z" fill="#E7E6F1"/>
<path opacity="0.5" d="M70.1677 272.705L71.6719 273.518V271.893L70.1677 271.08V272.705Z" fill="#E7E6F1"/>
<path opacity="0.2" d="M66.5427 270.731L68.0469 271.544V269.933L66.5427 269.12V270.731Z" fill="#E7E6F1"/>
<path d="M62.9118 268.772L64.416 269.585V267.959L62.9118 267.161V268.772Z" fill="#E7E6F1"/>
<path d="M59.2849 266.812L60.7891 267.625V266L59.2849 265.187V266.812Z" fill="#E7E6F1"/>
<path d="M55.6559 264.853L57.1445 265.666V264.04L55.6559 263.227V264.853Z" fill="#E7E6F1"/>
<path d="M52.027 262.893L53.5156 263.706V262.081L52.027 261.268V262.893Z" fill="#E7E6F1"/>
<path d="M48.3981 260.934L49.8867 261.747V260.121L48.3981 259.308V260.934Z" fill="#E7E6F1"/>
<path d="M44.7692 258.974L46.2578 259.787V258.162L44.7692 257.349V258.974Z" fill="#E7E6F1"/>
<path opacity="0.2" d="M41.1267 257.015L42.6309 257.828V256.202L41.1267 255.389V257.015Z" fill="#E7E6F1"/>
<path opacity="0.2" d="M37.4958 255.055L39 255.854V254.243L37.4958 253.43V255.055Z" fill="#E7E6F1"/>
<path opacity="0.2" d="M33.8669 253.081L35.3711 253.894V252.269L33.8669 251.47V253.081Z" fill="#E7E6F1"/>
<path d="M30.24 251.122L31.7441 251.935V250.309L30.24 249.496V251.122Z" fill="#E7E6F1"/>
<path d="M26.6091 249.162L28.1133 249.975V248.349L26.6091 247.537V249.162Z" fill="#E7E6F1"/>
<path d="M22.9822 247.203L24.4863 248.016V246.39L22.9822 245.577V247.203Z" fill="#E7E6F1"/>
<path opacity="0.2" d="M19.3533 245.243L20.8574 246.056V244.43L19.3533 243.618V245.243Z" fill="#E7E6F1"/>
<path d="M15.7243 243.284L17.2285 244.097V242.471L15.7243 241.658V243.284Z" fill="#E7E6F1"/>
<path opacity="0.2" d="M12.0954 241.324L13.5996 242.137V240.511L12.0954 239.699V241.324Z" fill="#E7E6F1"/>
<path d="M73.7986 278.874L75.3027 279.673V278.061L73.7986 277.249V278.874Z" fill="#E7E6F1"/>
<path opacity="0.5" d="M70.1677 276.9L71.6719 277.713V276.087L70.1677 275.289V276.9Z" fill="#E7E6F1"/>
<path d="M66.5427 274.941L68.0469 275.754V274.128L66.5427 273.315V274.941Z" fill="#E7E6F1"/>
<path opacity="0.2" d="M62.9118 272.981L64.416 273.794V272.168L62.9118 271.356V272.981Z" fill="#E7E6F1"/>
<path opacity="0.2" d="M59.2849 271.022L60.7891 271.835V270.209L59.2849 269.396V271.022Z" fill="#E7E6F1"/>
<path d="M55.6559 269.062L57.1445 269.875V268.249L55.6559 267.437V269.062Z" fill="#E7E6F1"/>
<path d="M52.027 267.103L53.5156 267.916V266.29L52.027 265.477V267.103Z" fill="#E7E6F1"/>
<path opacity="0.2" d="M48.3981 265.143L49.8867 265.942V264.33L48.3981 263.518V265.143Z" fill="#E7E6F1"/>
<path d="M44.7692 263.169L46.2578 263.982V262.371L44.7692 261.558V263.169Z" fill="#E7E6F1"/>
<path d="M41.1267 261.21L42.6309 262.023V260.397L41.1267 259.599V261.21Z" fill="#E7E6F1"/>
<path d="M37.4958 259.25L39 260.063V258.437L37.4958 257.625V259.25Z" fill="#E7E6F1"/>
<path opacity="0.2" d="M33.8669 257.291L35.3711 258.103V256.478L33.8669 255.665V257.291Z" fill="#E7E6F1"/>
<path opacity="0.2" d="M30.24 255.331L31.7441 256.144V254.518L30.24 253.705V255.331Z" fill="#E7E6F1"/>
<path d="M26.6091 253.372L28.1133 254.184V252.559L26.6091 251.746V253.372Z" fill="#E7E6F1"/>
<path d="M22.9822 251.412L24.4863 252.225V250.599L22.9822 249.786V251.412Z" fill="#E7E6F1"/>
<path opacity="0.5" d="M19.3533 249.453L20.8574 250.265V248.64L19.3533 247.827V249.453Z" fill="#E7E6F1"/>
<path opacity="0.5" d="M15.7243 247.479L17.2285 248.291V246.68L15.7243 245.867V247.479Z" fill="#E7E6F1"/>
<path opacity="0.2" d="M12.0954 245.519L13.5996 246.332V244.706L12.0954 243.908V245.519Z" fill="#E7E6F1"/>
<path opacity="0.2" d="M73.7986 283.069L75.3027 283.882V282.256L73.7986 281.443V283.069Z" fill="#E7E6F1"/>
<path opacity="0.5" d="M70.1677 281.11L71.6719 281.922V280.297L70.1677 279.484V281.11Z" fill="#E7E6F1"/>
<path d="M66.5427 279.15L68.0469 279.963V278.337L66.5427 277.524V279.15Z" fill="#E7E6F1"/>
<path opacity="0.2" d="M62.9118 277.19L64.416 278.003V276.378L62.9118 275.565V277.19Z" fill="#E7E6F1"/>
<path opacity="0.2" d="M59.2849 275.231L60.7891 276.044V274.418L59.2849 273.605V275.231Z" fill="#E7E6F1"/>
<path d="M55.6559 273.272L57.1445 274.07V272.459L55.6559 271.646V273.272Z" fill="#E7E6F1"/>
<path d="M52.027 271.297L53.5156 272.11V270.499L52.027 269.686V271.297Z" fill="#E7E6F1"/>
<path opacity="0.5" d="M48.3981 269.338L49.8867 270.151V268.525L48.3981 267.727V269.338Z" fill="#E7E6F1"/>
<path d="M44.7692 267.378L46.2578 268.191V266.566L44.7692 265.753V267.378Z" fill="#E7E6F1"/>
<path d="M41.1267 265.419L42.6309 266.232V264.606L41.1267 263.793V265.419Z" fill="#E7E6F1"/>
<path d="M37.4958 263.46L39 264.272V262.647L37.4958 261.834V263.46Z" fill="#E7E6F1"/>
<path d="M33.8669 261.5L35.3711 262.313V260.687L33.8669 259.874V261.5Z" fill="#E7E6F1"/>
<path d="M30.24 259.54L31.7441 260.353V258.728L30.24 257.915V259.54Z" fill="#E7E6F1"/>
<path opacity="0.2" d="M26.6091 257.581L28.1133 258.379V256.768L26.6091 255.955V257.581Z" fill="#E7E6F1"/>
<path d="M22.9822 255.607L24.4863 256.42V254.809L22.9822 253.996V255.607Z" fill="#E7E6F1"/>
<path opacity="0.2" d="M19.3533 253.647L20.8574 254.46V252.835L19.3533 252.036V253.647Z" fill="#E7E6F1"/>
<path opacity="0.5" d="M15.7243 251.688L17.2285 252.501V250.875L15.7243 250.062V251.688Z" fill="#E7E6F1"/>
<path opacity="0.2" d="M12.0954 249.728L13.5996 250.541V248.915L12.0954 248.103V249.728Z" fill="#E7E6F1"/>
<path d="M73.7986 287.278L75.3027 288.091V286.466L73.7986 285.653V287.278Z" fill="#E7E6F1"/>
<path opacity="0.5" d="M70.1677 285.319L71.6719 286.132V284.506L70.1677 283.693V285.319Z" fill="#E7E6F1"/>
<path d="M66.5427 283.359L68.0469 284.172V282.547L66.5427 281.734V283.359Z" fill="#E7E6F1"/>
<path d="M62.9118 281.4L64.416 282.198V280.587L62.9118 279.774V281.4Z" fill="#E7E6F1"/>
<path opacity="0.2" d="M59.2849 279.426L60.7891 280.239V278.613L59.2849 277.815V279.426Z" fill="#E7E6F1"/>
<path opacity="0.2" d="M55.6559 277.466L57.1445 278.279V276.654L55.6559 275.841V277.466Z" fill="#E7E6F1"/>
<path d="M52.027 275.507L53.5156 276.32V274.694L52.027 273.881V275.507Z" fill="#E7E6F1"/>
<path opacity="0.5" d="M48.3981 273.547L49.8867 274.36V272.734L48.3981 271.922V273.547Z" fill="#E7E6F1"/>
<path d="M44.7692 271.588L46.2578 272.401V270.775L44.7692 269.962V271.588Z" fill="#E7E6F1"/>
<path opacity="0.2" d="M41.1267 269.628L42.6309 270.441V268.815L41.1267 268.003V269.628Z" fill="#E7E6F1"/>
<path opacity="0.2" d="M37.4958 267.669L39 268.482V266.856L37.4958 266.043V267.669Z" fill="#E7E6F1"/>
<path d="M33.8669 265.709L35.3711 266.508V264.896L33.8669 264.084V265.709Z" fill="#E7E6F1"/>
<path d="M30.24 263.735L31.7441 264.548V262.937L30.24 262.124V263.735Z" fill="#E7E6F1"/>
<path opacity="0.2" d="M26.6091 261.776L28.1133 262.589V260.963L26.6091 260.15V261.776Z" fill="#E7E6F1"/>
<path opacity="0.2" d="M22.9822 259.816L24.4863 260.629V259.003L22.9822 258.191V259.816Z" fill="#E7E6F1"/>
<path d="M19.3533 257.857L20.8574 258.67V257.044L19.3533 256.231V257.857Z" fill="#E7E6F1"/>
<path d="M15.7243 255.897L17.2285 256.71V255.084L15.7243 254.272V255.897Z" fill="#E7E6F1"/>
<path d="M12.0954 253.938L13.5996 254.751V253.125L12.0954 252.312V253.938Z" fill="#E7E6F1"/>
<path opacity="0.2" d="M73.7986 291.488L75.3027 292.286V290.675L73.7986 289.862V291.488Z" fill="#E7E6F1"/>
<path opacity="0.2" d="M70.1677 289.514L71.6719 290.326V288.715L70.1677 287.902V289.514Z" fill="#E7E6F1"/>
<path d="M66.5427 287.554L68.0469 288.367V286.756L66.5427 285.943V287.554Z" fill="#E7E6F1"/>
<path d="M62.9118 285.595L64.416 286.407V284.782L62.9118 283.969V285.595Z" fill="#E7E6F1"/>
<path d="M59.2828 283.635L60.7715 284.448V282.822L59.2828 282.009V283.635Z" fill="#E7E6F1"/>
<path d="M55.6559 281.676L57.1445 282.488V280.863L55.6559 280.05V281.676Z" fill="#E7E6F1"/>
<path d="M52.027 279.716L53.5156 280.529V278.903L52.027 278.09V279.716Z" fill="#E7E6F1"/>
<path opacity="0.5" d="M48.3981 277.757L49.8867 278.569V276.944L48.3981 276.131V277.757Z" fill="#E7E6F1"/>
<path d="M44.7692 275.797L46.2578 276.61V274.984L44.7692 274.171V275.797Z" fill="#E7E6F1"/>
<path d="M41.1267 273.823L42.6309 274.636V273.025L41.1267 272.212V273.823Z" fill="#E7E6F1"/>
<path d="M37.4958 271.864L39 272.676V271.051L37.4958 270.252V271.864Z" fill="#E7E6F1"/>
<path opacity="0.5" d="M33.8669 269.904L35.3711 270.717V269.091L33.8669 268.278V269.904Z" fill="#E7E6F1"/>
<path opacity="0.5" d="M30.24 267.945L31.7441 268.757V267.132L30.24 266.319V267.945Z" fill="#E7E6F1"/>
<path opacity="0.2" d="M26.6091 265.985L28.1133 266.798V265.172L26.6091 264.359V265.985Z" fill="#E7E6F1"/>
<path opacity="0.2" d="M22.9822 264.026L24.4863 264.838V263.213L22.9822 262.4V264.026Z" fill="#E7E6F1"/>
<path d="M19.3533 262.066L20.8574 262.879V261.253L19.3533 260.44V262.066Z" fill="#E7E6F1"/>
<path d="M15.7243 260.106L17.2285 260.919V259.294L15.7243 258.481V260.106Z" fill="#E7E6F1"/>
<path d="M12.0954 258.132L13.5996 258.945V257.334L12.0954 256.521V258.132Z" fill="#E7E6F1"/>
<path opacity="0.2" d="M73.7986 295.682L75.3027 296.495V294.87L73.7986 294.071V295.682Z" fill="#E7E6F1"/>
<path opacity="0.2" d="M70.1677 293.723L71.6719 294.536V292.91L70.1677 292.097V293.723Z" fill="#E7E6F1"/>
<path opacity="0.2" d="M66.5427 291.763L68.0469 292.576V290.951L66.5427 290.138V291.763Z" fill="#E7E6F1"/>
<path d="M62.9118 289.804L64.416 290.617V288.991L62.9118 288.178V289.804Z" fill="#E7E6F1"/>
<path opacity="0.2" d="M59.2828 287.844L60.7715 288.657V287.032L59.2828 286.219V287.844Z" fill="#E7E6F1"/>
<path d="M55.6559 285.885L57.1445 286.698V285.072L55.6559 284.259V285.885Z" fill="#E7E6F1"/>
<path d="M52.027 283.925L53.5156 284.724V283.113L52.027 282.3V283.925Z" fill="#E7E6F1"/>
<path d="M48.3981 281.951L49.8867 282.764V281.153L48.3981 280.34V281.951Z" fill="#E7E6F1"/>
<path opacity="0.2" d="M44.7692 279.992L46.2578 280.805V279.179L44.7692 278.381V279.992Z" fill="#E7E6F1"/>
<path d="M41.1267 278.032L42.6309 278.845V277.22L41.1267 276.407V278.032Z" fill="#E7E6F1"/>
<path d="M37.4958 276.073L39 276.886V275.26L37.4958 274.447V276.073Z" fill="#E7E6F1"/>
<path opacity="0.5" d="M33.8669 274.113L35.3711 274.926V273.301L33.8669 272.488V274.113Z" fill="#E7E6F1"/>
<path opacity="0.5" d="M30.24 272.154L31.7441 272.967V271.341L30.24 270.528V272.154Z" fill="#E7E6F1"/>
<path opacity="0.5" d="M26.6091 270.194L28.1133 271.007V269.381L26.6091 268.569V270.194Z" fill="#E7E6F1"/>
<path d="M22.9822 268.235L24.4863 269.033V267.422L22.9822 266.609V268.235Z" fill="#E7E6F1"/>
<path d="M19.3533 266.261L20.8574 267.074V265.463L19.3533 264.65V266.261Z" fill="#E7E6F1"/>
<path d="M15.7243 264.301L17.2285 265.114V263.488L15.7243 262.69V264.301Z" fill="#E7E6F1"/>
<path d="M12.0954 262.342L13.5996 263.155V261.529L12.0954 260.716V262.342Z" fill="#E7E6F1"/>
<path opacity="0.2" d="M73.7986 299.892L75.3027 300.705V299.079L73.7986 298.266V299.892Z" fill="#E7E6F1"/>
<path opacity="0.2" d="M70.1677 297.932L71.6719 298.745V297.12L70.1677 296.307V297.932Z" fill="#E7E6F1"/>
<path opacity="0.2" d="M66.5427 295.973L68.0469 296.786V295.16L66.5427 294.347V295.973Z" fill="#E7E6F1"/>
<path d="M62.9118 294.013L64.416 294.826V293.2L62.9118 292.388V294.013Z" fill="#E7E6F1"/>
<path opacity="0.2" d="M59.2828 292.054L60.7715 292.852V291.241L59.2828 290.428V292.054Z" fill="#E7E6F1"/>
<path opacity="0.2" d="M55.6559 290.08L57.1445 290.893V289.281L55.6559 288.469V290.08Z" fill="#E7E6F1"/>
<path d="M52.027 288.12L53.5156 288.933V287.307L52.027 286.495V288.12Z" fill="#E7E6F1"/>
<path opacity="0.2" d="M48.3981 286.161L49.8867 286.974V285.348L48.3981 284.535V286.161Z" fill="#E7E6F1"/>
<path d="M44.7692 284.201L46.2578 285.014V283.388L44.7692 282.576V284.201Z" fill="#E7E6F1"/>
<path opacity="0.2" d="M41.1267 282.242L42.6309 283.055V281.429L41.1267 280.616V282.242Z" fill="#E7E6F1"/>
<path d="M37.4958 280.282L39 281.095V279.469L37.4958 278.657V280.282Z" fill="#E7E6F1"/>
<path opacity="0.5" d="M33.8669 278.323L35.3711 279.136V277.51L33.8669 276.697V278.323Z" fill="#E7E6F1"/>
<path opacity="0.5" d="M30.24 276.363L31.7441 277.162V275.55L30.24 274.738V276.363Z" fill="#E7E6F1"/>
<path opacity="0.5" d="M26.6091 274.389L28.1133 275.202V273.591L26.6091 272.778V274.389Z" fill="#E7E6F1"/>
<path d="M22.9822 272.43L24.4863 273.243V271.617L22.9822 270.819V272.43Z" fill="#E7E6F1"/>
<path opacity="0.2" d="M19.3533 270.47L20.8574 271.283V269.657L19.3533 268.844V270.47Z" fill="#E7E6F1"/>
<path opacity="0.2" d="M15.7243 268.511L17.2285 269.323V267.698L15.7243 266.885V268.511Z" fill="#E7E6F1"/>
<path d="M12.0954 266.551L13.5996 267.364V265.738L12.0954 264.925V266.551Z" fill="#E7E6F1"/>
<path opacity="0.2" d="M73.7986 304.101L75.3027 304.914V303.288L73.7986 302.475V304.101Z" fill="#E7E6F1"/>
<path opacity="0.2" d="M70.1677 302.142L71.6719 302.954V301.329L70.1677 300.516V302.142Z" fill="#E7E6F1"/>
<path opacity="0.2" d="M66.5427 300.168L68.0469 300.98V299.369L66.5427 298.556V300.168Z" fill="#E7E6F1"/>
<path d="M62.9118 298.208L64.416 299.021V297.395L62.9118 296.597V298.208Z" fill="#E7E6F1"/>
<path d="M59.2828 296.249L60.7715 297.061V295.436L59.2828 294.623V296.249Z" fill="#E7E6F1"/>
<path opacity="0.2" d="M55.6559 294.289L57.1445 295.102V293.476L55.6559 292.663V294.289Z" fill="#E7E6F1"/>
<path d="M52.027 292.33L53.5156 293.142V291.517L52.027 290.704V292.33Z" fill="#E7E6F1"/>
<path opacity="0.2" d="M48.3981 290.37L49.8867 291.183V289.557L48.3981 288.744V290.37Z" fill="#E7E6F1"/>
<path d="M44.7692 288.411L46.2578 289.223V287.598L44.7692 286.785V288.411Z" fill="#E7E6F1"/>
<path opacity="0.2" d="M41.1267 286.451L42.6309 287.264V285.638L41.1267 284.825V286.451Z" fill="#E7E6F1"/>
<path d="M37.4958 284.492L39 285.29V283.679L37.4958 282.866V284.492Z" fill="#E7E6F1"/>
<path opacity="0.5" d="M33.8669 282.517L35.3711 283.33V281.705L33.8669 280.906V282.517Z" fill="#E7E6F1"/>
<path opacity="0.5" d="M30.24 280.558L31.7441 281.371V279.745L30.24 278.932V280.558Z" fill="#E7E6F1"/>
<path opacity="0.5" d="M26.6091 278.598L28.1133 279.411V277.786L26.6091 276.973V278.598Z" fill="#E7E6F1"/>
<path d="M22.9822 276.639L24.4863 277.452V275.826L22.9822 275.013V276.639Z" fill="#E7E6F1"/>
<path opacity="0.2" d="M19.3533 274.679L20.8574 275.492V273.867L19.3533 273.054V274.679Z" fill="#E7E6F1"/>
<path d="M15.7243 272.72L17.2285 273.533V271.907L15.7243 271.094V272.72Z" fill="#E7E6F1"/>
<path d="M12.0954 270.76L13.5996 271.573V269.948L12.0954 269.135V270.76Z" fill="#E7E6F1"/>
<path d="M73.7986 307.628L75.3027 308.427V306.815L73.7986 306.003V307.628Z" fill="#E7E6F1"/>
<path opacity="0.2" d="M70.1677 305.654L71.6719 306.467V304.856L70.1677 304.043V305.654Z" fill="#E7E6F1"/>
<path d="M66.5427 303.695L68.0469 304.508V302.882L66.5427 302.069V303.695Z" fill="#E7E6F1"/>
<path d="M62.9118 301.735L64.416 302.548V300.922L62.9118 300.11V301.735Z" fill="#E7E6F1"/>
<path d="M59.2849 299.776L60.7891 300.589V298.963L59.2849 298.15V299.776Z" fill="#E7E6F1"/>
<path d="M55.6559 297.816L57.1445 298.629V297.003L55.6559 296.191V297.816Z" fill="#E7E6F1"/>
<path opacity="0.2" d="M52.027 295.857L53.5156 296.669V295.044L52.027 294.231V295.857Z" fill="#E7E6F1"/>
<path d="M48.3981 293.897L49.8867 294.71V293.084L48.3981 292.271V293.897Z" fill="#E7E6F1"/>
<path d="M44.7692 291.938L46.2578 292.736V291.125L44.7692 290.312V291.938Z" fill="#E7E6F1"/>
<path opacity="0.2" d="M41.1267 289.964L42.6309 290.776V289.165L41.1267 288.352V289.964Z" fill="#E7E6F1"/>
<path d="M37.4958 288.004L39 288.817V287.191L37.4958 286.393V288.004Z" fill="#E7E6F1"/>
<path d="M33.8669 286.045L35.3711 286.857V285.232L33.8669 284.419V286.045Z" fill="#E7E6F1"/>
<path d="M30.24 284.085L31.7441 284.898V283.272L30.24 282.459V284.085Z" fill="#E7E6F1"/>
<path d="M26.6091 282.126L28.1133 282.938V281.313L26.6091 280.5V282.126Z" fill="#E7E6F1"/>
<path d="M22.9822 280.166L24.4863 280.979V279.353L22.9822 278.54V280.166Z" fill="#E7E6F1"/>
<path d="M19.3533 278.207L20.8574 279.019V277.394L19.3533 276.581V278.207Z" fill="#E7E6F1"/>
<path opacity="0.2" d="M15.7243 276.247L17.2285 277.045V275.434L15.7243 274.621V276.247Z" fill="#E7E6F1"/>
<path d="M12.0954 274.273L13.5996 275.086V273.475L12.0954 272.662V274.273Z" fill="#E7E6F1"/>
<path d="M73.7986 311.823L75.3027 312.636V311.01L73.7986 310.197V311.823Z" fill="#E7E6F1"/>
<path opacity="0.2" d="M70.1677 309.864L71.6719 310.676V309.051L70.1677 308.238V309.864Z" fill="#E7E6F1"/>
<path opacity="0.2" d="M66.5427 307.904L68.0469 308.717V307.091L66.5427 306.278V307.904Z" fill="#E7E6F1"/>
<path d="M62.9118 305.945L64.416 306.757V305.132L62.9118 304.319V305.945Z" fill="#E7E6F1"/>
<path d="M59.2849 303.985L60.7891 304.798V303.172L59.2849 302.359V303.985Z" fill="#E7E6F1"/>
<path d="M55.6559 302.025L57.1445 302.838V301.213L55.6559 300.4V302.025Z" fill="#E7E6F1"/>
<path opacity="0.2" d="M52.027 300.066L53.5156 300.879V299.253L52.027 298.44V300.066Z" fill="#E7E6F1"/>
<path d="M48.3981 298.092L49.8867 298.905V297.294L48.3981 296.481V298.092Z" fill="#E7E6F1"/>
<path d="M44.7692 296.132L46.2578 296.945V295.32L44.7692 294.521V296.132Z" fill="#E7E6F1"/>
<path opacity="0.2" d="M41.1267 294.173L42.6309 294.986V293.36L41.1267 292.547V294.173Z" fill="#E7E6F1"/>
<path d="M37.4958 292.213L39 293.026V291.401L37.4958 290.588V292.213Z" fill="#E7E6F1"/>
<path opacity="0.2" d="M33.8669 290.254L35.3711 291.067V289.441L33.8669 288.628V290.254Z" fill="#E7E6F1"/>
<path d="M30.24 288.294L31.7441 289.107V287.482L30.24 286.669V288.294Z" fill="#E7E6F1"/>
<path opacity="0.2" d="M26.6091 286.335L28.1133 287.148V285.522L26.6091 284.709V286.335Z" fill="#E7E6F1"/>
<path d="M22.9822 284.375L24.4863 285.174V283.563L22.9822 282.75V284.375Z" fill="#E7E6F1"/>
<path d="M19.3533 282.401L20.8574 283.214V281.603L19.3533 280.79V282.401Z" fill="#E7E6F1"/>
<path opacity="0.2" d="M15.7243 280.442L17.2285 281.255V279.629L15.7243 278.831V280.442Z" fill="#E7E6F1"/>
<path d="M12.0954 278.482L13.5996 279.295V277.67L12.0954 276.857V278.482Z" fill="#E7E6F1"/>
<path d="M73.7986 316.032L75.3027 316.845V315.22L73.7986 314.407V316.032Z" fill="#E7E6F1"/>
<path opacity="0.2" d="M70.1677 314.073L71.6719 314.886V313.26L70.1677 312.447V314.073Z" fill="#E7E6F1"/>
<path opacity="0.2" d="M66.5427 312.113L68.0469 312.926V311.301L66.5427 310.488V312.113Z" fill="#E7E6F1"/>
<path d="M62.9118 310.154L64.416 310.967V309.341L62.9118 308.528V310.154Z" fill="#E7E6F1"/>
<path opacity="0.2" d="M59.2849 308.194L60.7891 308.993V307.381L59.2849 306.569V308.194Z" fill="#E7E6F1"/>
<path d="M55.6559 306.22L57.1445 307.033V305.407L55.6559 304.609V306.22Z" fill="#E7E6F1"/>
<path opacity="0.2" d="M52.027 304.261L53.5156 305.074V303.448L52.027 302.635V304.261Z" fill="#E7E6F1"/>
<path d="M48.3981 302.301L49.8867 303.114V301.488L48.3981 300.676V302.301Z" fill="#E7E6F1"/>
<path d="M44.7692 300.342L46.2578 301.155V299.529L44.7692 298.716V300.342Z" fill="#E7E6F1"/>
<path opacity="0.2" d="M41.1267 298.382L42.6309 299.195V297.569L41.1267 296.757V298.382Z" fill="#E7E6F1"/>
<path d="M37.4958 296.423L39 297.236V295.61L37.4958 294.797V296.423Z" fill="#E7E6F1"/>
<path opacity="0.2" d="M33.8669 294.463L35.3711 295.276V293.65L33.8669 292.838V294.463Z" fill="#E7E6F1"/>
<path opacity="0.2" d="M30.24 292.504L31.7441 293.302V291.691L30.24 290.878V292.504Z" fill="#E7E6F1"/>
<path opacity="0.2" d="M26.6091 290.53L28.1133 291.343V289.731L26.6091 288.919V290.53Z" fill="#E7E6F1"/>
<path d="M22.9822 288.57L24.4863 289.383V287.757L22.9822 286.945V288.57Z" fill="#E7E6F1"/>
<path d="M19.3533 286.611L20.8574 287.424V285.798L19.3533 284.985V286.611Z" fill="#E7E6F1"/>
<path opacity="0.2" d="M15.7243 284.651L17.2285 285.464V283.838L15.7243 283.026V284.651Z" fill="#E7E6F1"/>
<path d="M12.0954 282.692L13.5996 283.505V281.879L12.0954 281.066V282.692Z" fill="#E7E6F1"/>
<path d="M73.7986 320.242L75.3027 321.055V319.429L73.7986 318.616V320.242Z" fill="#E7E6F1"/>
<path opacity="0.2" d="M70.1677 318.282L71.6719 319.08V317.469L70.1677 316.656V318.282Z" fill="#E7E6F1"/>
<path opacity="0.2" d="M66.5427 316.308L68.0469 317.121V315.51L66.5427 314.697V316.308Z" fill="#E7E6F1"/>
<path d="M62.9118 314.349L64.416 315.161V313.536L62.9118 312.737V314.349Z" fill="#E7E6F1"/>
<path opacity="0.2" d="M59.2849 312.389L60.7891 313.202V311.576L59.2849 310.763V312.389Z" fill="#E7E6F1"/>
<path d="M55.6559 310.43L57.1445 311.242V309.617L55.6559 308.804V310.43Z" fill="#E7E6F1"/>
<path opacity="0.2" d="M52.027 308.47L53.5156 309.283V307.657L52.027 306.844V308.47Z" fill="#E7E6F1"/>
<path d="M48.3981 306.511L49.8867 307.323V305.698L48.3981 304.885V306.511Z" fill="#E7E6F1"/>
<path d="M44.7692 304.551L46.2578 305.364V303.738L44.7692 302.925V304.551Z" fill="#E7E6F1"/>
<path opacity="0.2" d="M41.1267 302.592L42.6309 303.404V301.779L41.1267 300.966V302.592Z" fill="#E7E6F1"/>
<path d="M37.4958 300.618L39 301.43V299.819L37.4958 299.006V300.618Z" fill="#E7E6F1"/>
<path d="M33.8669 298.658L35.3711 299.471V297.845L33.8669 297.047V298.658Z" fill="#E7E6F1"/>
<path d="M30.24 296.699L31.7441 297.511V295.886L30.24 295.073V296.699Z" fill="#E7E6F1"/>
<path opacity="0.2" d="M26.6091 294.739L28.1133 295.552V293.926L26.6091 293.113V294.739Z" fill="#E7E6F1"/>
<path d="M22.9822 292.78L24.4863 293.592V291.967L22.9822 291.154V292.78Z" fill="#E7E6F1"/>
<path opacity="0.2" d="M19.3533 290.82L20.8574 291.633V290.007L19.3533 289.194V290.82Z" fill="#E7E6F1"/>
<path d="M15.7243 288.86L17.2285 289.673V288.048L15.7243 287.235V288.86Z" fill="#E7E6F1"/>
<path d="M12.0954 286.901L13.5996 287.714V286.088L12.0954 285.275V286.901Z" fill="#E7E6F1"/>
<path d="M163.244 124.886C163.213 113.898 155.677 102.91 140.527 94.3757L140.465 73.213C155.599 81.7478 163.151 92.7355 163.182 103.723C163.198 110.066 163.229 118.543 163.244 124.886Z" fill="#EBEEFC"/>
<mask id="mask0_806_2451" style="mask-type:luminance" maskUnits="userSpaceOnUse" x="140" y="73" width="24" height="52">
<path d="M163.242 124.886C163.211 113.898 155.675 102.91 140.525 94.3757L140.463 73.213C155.597 81.7478 163.149 92.7355 163.18 103.723C163.196 110.066 163.227 118.543 163.242 124.886Z" fill="white"/>
</mask>
<g mask="url(#mask0_806_2451)">
<path d="M163.242 124.886L163.18 103.723C163.149 92.7355 155.613 81.7478 140.463 73.213L140.525 94.3757C155.659 102.91 163.211 113.898 163.242 124.886Z" fill="#DADFF6"/>
</g>
<path d="M0.00402832 104.173C-0.0269775 92.5178 8.37775 80.8624 25.1097 72.1244C57.6276 55.1565 109.265 55.65 140.465 73.213L140.527 94.3757C109.328 76.7982 57.6896 76.3192 25.1717 93.2871C8.43977 102.025 0.0350647 113.681 0.0660706 125.336C0.0505676 118.993 0.0195465 110.516 0.00402832 104.173Z" fill="#EBEEFC"/>
<mask id="mask1_806_2451" style="mask-type:luminance" maskUnits="userSpaceOnUse" x="0" y="59" width="141" height="67">
<path d="M0.00402832 104.173C-0.0269775 92.5177 8.37775 80.8623 25.1097 72.1243C57.6276 55.1564 109.265 55.65 140.465 73.213L140.527 94.3757C109.328 76.7981 57.6896 76.3191 25.1717 93.287C8.43977 102.025 0.0350647 113.68 0.0660706 125.336C0.0505676 118.993 0.0195465 110.516 0.00402832 104.173Z" fill="white"/>
</mask>
<g mask="url(#mask1_806_2451)">
<path d="M140.527 94.3902L140.465 73.2276C139.861 72.8937 139.256 72.5599 138.651 72.2405L138.713 93.4032C139.333 93.7226 139.938 94.0564 140.527 94.3902Z" fill="#DADFF6"/>
<path d="M138.713 93.3887L138.651 72.226C119.701 62.1962 93.805 58.1756 69.2576 60.2367L69.3196 81.3994C93.867 79.3383 119.763 83.3589 138.713 93.3887Z" fill="#DADFF6"/>
<path d="M69.3203 81.3994L69.2583 60.2367C53.2087 61.5866 37.7173 65.5491 25.1102 72.1244C8.37828 80.8623 -0.0264435 92.5178 0.00457001 104.173L0.0666046 125.336C0.0355911 113.68 8.4403 102.025 25.1722 93.2871C37.7793 86.7118 53.2707 82.7493 69.3203 81.3994Z" fill="#DADFF6"/>
</g>
<path d="M7.95906 144.249C-6.72594 127.528 -0.848846 106.873 25.1717 93.2871C57.6896 76.3192 109.328 76.8127 140.527 94.3757L101 184.861C90.8588 179.143 74.0649 178.983 63.5047 184.513C55.0379 188.926 53.1306 195.646 57.9067 201.075C41.2523 182.133 24.6134 163.191 7.95906 144.249Z" fill="#DADFF6"/>
<mask id="mask2_806_2451" style="mask-type:luminance" maskUnits="userSpaceOnUse" x="0" y="80" width="141" height="122">
<path d="M7.95906 144.249C-6.72594 127.528 -0.848846 106.873 25.1717 93.2871C57.6896 76.3192 109.328 76.8127 140.527 94.3757L101 184.862C90.8588 179.143 74.0649 178.983 63.5047 184.513C55.0379 188.926 53.1306 195.646 57.9067 201.075C41.2523 182.133 24.6134 163.191 7.95906 144.249Z" fill="white"/>
</mask>
<g mask="url(#mask2_806_2451)">
<path d="M101.016 184.861L140.543 94.3757C135.302 91.4147 129.471 88.9472 123.268 86.9586L95.4025 182.437C97.4184 183.076 99.3102 183.889 101.016 184.847V184.861Z" fill="#BFC7ED"/>
<path d="M95.3861 182.452L123.252 86.9732C116.925 84.9556 110.195 83.4315 103.248 82.4155L88.8887 180.972C91.1372 181.305 93.3392 181.799 95.3861 182.452Z" fill="#BFC7ED"/>
<path d="M88.8887 180.971L103.248 82.4154C98.1773 81.6752 93.0135 81.1962 87.8032 80.993L83.8645 180.507C85.5547 180.58 87.2449 180.725 88.8887 180.971Z" fill="#BFC7ED"/>
<path d="M83.8659 180.507L87.8047 80.993C81.5709 80.7462 75.2751 80.8914 69.0879 81.4284L77.7872 180.652C79.8031 180.478 81.85 180.434 83.8659 180.507Z" fill="#BFC7ED"/>
<path d="M77.7871 180.652L69.0878 81.4285C61.815 82.0526 54.6663 83.2138 47.8433 84.912L70.8865 181.784C73.104 181.233 75.4301 180.855 77.7871 180.652Z" fill="#BFC7ED"/>
<path d="M70.8711 181.784L47.8279 84.912C39.6713 86.9441 31.9953 89.7309 25.1723 93.3016C22.0244 94.9418 19.1557 96.6981 16.597 98.527L60.7141 186.211C61.5515 185.616 62.4819 185.05 63.5053 184.513C65.7228 183.352 68.2194 182.452 70.8711 181.784Z" fill="#BFC7ED"/>
<path d="M60.7129 186.211L16.5958 98.527C-1.98141 111.823 -4.95872 129.56 7.95851 144.249L57.9062 201.075C53.7038 196.299 54.6807 190.537 60.7129 186.211Z" fill="#BFC7ED"/>
</g>
<path d="M105.87 200.944C110.429 195.704 108.847 189.274 101.016 184.861L140.543 94.3757C164.625 107.947 169.479 127.731 155.476 143.857C138.946 162.886 122.415 181.915 105.885 200.944H105.87Z" fill="#DADFF6"/>
<mask id="mask3_806_2451" style="mask-type:luminance" maskUnits="userSpaceOnUse" x="101" y="94" width="63" height="107">
<path d="M105.87 200.944C110.429 195.704 108.847 189.274 101.016 184.861L140.543 94.3757C164.625 107.947 169.479 127.731 155.476 143.857C138.946 162.886 122.415 181.915 105.885 200.944H105.87Z" fill="white"/>
</mask>
<g mask="url(#mask3_806_2451)">
<path d="M105.869 200.944L155.46 143.857C160.934 137.557 163.524 130.692 163.229 123.855L108.397 194.427C108.49 196.647 107.653 198.883 105.869 200.929V200.944Z" fill="#DADFF6"/>
<path d="M108.383 194.456L163.215 123.884C162.858 116.162 158.811 108.484 151.011 101.691L104.413 187.256C106.956 189.463 108.274 191.959 108.383 194.47V194.456Z" fill="#BFC7ED"/>
<path d="M104.414 187.227L151.012 101.662C148.05 99.093 144.561 96.64 140.529 94.3757L101.002 184.861C102.32 185.602 103.452 186.4 104.414 187.227Z" fill="#BFC7ED"/>
</g>
<path d="M108.971 170.869L108.847 212.469C108.847 216.228 106.195 219.988 100.907 222.862C90.2694 228.638 72.9792 228.638 62.2795 222.862C56.8986 219.944 54.2004 216.127 54.2159 212.309L54.34 170.71C54.34 174.527 57.0227 178.344 62.4036 181.262C73.1033 187.039 90.409 187.039 101.031 181.262C106.319 178.388 108.955 174.629 108.971 170.869Z" fill="#B4BCE2"/>
<mask id="mask4_806_2451" style="mask-type:luminance" maskUnits="userSpaceOnUse" x="54" y="170" width="55" height="58">
<path d="M108.971 170.869L108.847 212.469C108.847 216.228 106.195 219.988 100.907 222.861C90.2694 228.638 72.9792 228.638 62.2795 222.861C56.8986 219.944 54.2004 216.127 54.2159 212.309L54.34 170.709C54.34 174.527 57.0227 178.344 62.4036 181.262C73.1033 187.039 90.409 187.039 101.031 181.262C106.319 178.388 108.955 174.628 108.971 170.869Z" fill="white"/>
</mask>
<g mask="url(#mask4_806_2451)">
<path d="M108.971 170.869L108.847 212.469C108.847 216.228 106.195 219.988 100.907 222.862C99.0928 223.849 97.0769 224.676 94.9215 225.329L95.0455 183.729C97.1855 183.076 99.2014 182.263 101.031 181.262C106.319 178.388 108.955 174.629 108.971 170.869Z" fill="#B4BCE2"/>
<path d="M95.0625 183.729L94.9384 225.329C85.8359 228.087 74.4228 227.797 65.77 224.473L65.8941 182.873C74.5469 186.211 85.96 186.502 95.0625 183.744V183.729Z" fill="#BFC7ED"/>
<path d="M65.8926 182.858L65.7685 224.458C64.5435 223.994 63.3805 223.457 62.2795 222.861C56.8986 219.944 54.2004 216.127 54.2159 212.309L54.3399 170.709C54.3399 174.527 57.0226 178.344 62.4035 181.262C63.5045 181.857 64.6675 182.394 65.8926 182.858Z" fill="#B4BCE2"/>
</g>
<path d="M100.907 160.317C111.607 166.094 111.669 175.47 101.031 181.262C90.3933 187.039 73.1032 187.039 62.4034 181.262C51.7037 175.47 51.6416 166.094 62.2794 160.317C72.9171 154.525 90.2072 154.525 100.907 160.317Z" fill="#BFC7ED"/>
<path d="M25.1091 72.1244C40.9882 63.8364 61.4417 59.7142 81.8488 59.7142C102.256 59.7142 124.508 64.2283 140.465 73.2275C156.142 82.0526 163.663 93.5193 163.151 104.899C162.221 104.914 161.291 104.87 160.36 104.826C160.36 104.609 160.376 104.405 160.391 104.188C160.577 93.5338 152.994 83.3299 139.038 75.4628C124.012 67.0006 103.698 62.3268 81.8643 62.3268C60.0306 62.3268 41.4069 66.6233 26.4892 74.4177C11.4631 82.2703 3.05835 92.6484 2.82576 103.651C1.87984 103.709 0.96492 103.839 0.0345154 103.897C0.143066 92.3436 8.53227 80.8043 25.1246 72.1389L25.1091 72.1244Z" fill="#F4F4FA"/>
<path d="M163.169 69.9907C163.029 69.323 162.688 69.265 162.502 69.294C160.967 69.5117 159.168 75.3612 160.331 76.3192C161.246 77.074 163.572 72.5453 163.169 69.9907ZM159.912 76.7256C159.85 76.3773 159.773 76.0289 159.695 75.6805C159.68 75.608 159.649 75.5064 159.618 75.4338C159.323 74.6355 158.315 74.3307 156.904 76.8708L154.361 81.7333C155.059 83.7218 155.477 85.7394 155.601 87.7569L158.191 83.1122C159.184 81.2688 160.161 78.6125 159.912 76.7256ZM153.803 87.2779C152.407 80.6011 156.64 67.2619 161.417 66.4926C166.022 65.7524 164.177 77.1611 158.238 86.1893C154.842 91.3566 154.082 88.3811 153.803 87.2779Z" fill="#FBC70E"/>
<path d="M160.053 75.7531C160.409 77.1175 161.278 76.0289 161.634 75.5064C163.232 73.1114 163.79 69.1198 162.503 69.3085C161.231 69.4972 159.634 73.7065 160.053 75.7531Z" fill="white"/>
<path d="M159.899 76.6385C159.852 76.3482 159.79 76.058 159.712 75.7677C159.775 76.058 159.837 76.3482 159.899 76.6385ZM154.363 81.7187L156.906 76.8563C156.968 76.7402 157.045 76.595 157.123 76.4789C157.852 75.2451 159.185 73.9388 159.697 75.666C159.775 76.0144 159.852 76.3628 159.914 76.7111C160.162 78.598 159.185 81.2397 158.193 83.0977L155.603 87.7424C155.464 85.7249 155.06 83.7073 154.363 81.7187Z" fill="white"/>
<path d="M159.712 75.7676C159.774 76.0579 159.836 76.3482 159.898 76.6385C159.852 76.3482 159.79 76.0579 159.712 75.7676Z" fill="#BFBEED"/>
<path d="M127.083 116.816C126.943 116.148 126.602 116.09 126.416 116.119C124.881 116.337 123.082 122.186 124.245 123.144C125.16 123.899 127.486 119.37 127.083 116.816ZM123.811 123.536C123.749 123.188 123.671 122.839 123.594 122.491C123.578 122.418 123.547 122.317 123.516 122.244C123.222 121.446 122.214 121.141 120.803 123.681L118.259 128.544C118.957 130.532 119.376 132.55 119.5 134.567L122.09 129.923C123.082 128.079 124.059 125.423 123.811 123.536ZM117.717 134.103C116.321 127.426 120.555 114.087 125.331 113.318C129.936 112.577 128.091 123.986 122.152 133.014C118.756 138.182 117.996 135.206 117.717 134.103Z" fill="#5430AF"/>
<path d="M123.967 122.564C124.323 123.928 125.192 122.839 125.548 122.317C127.146 119.922 127.704 115.93 126.417 116.119C125.145 116.308 123.548 120.517 123.967 122.564Z" fill="white"/>
<path d="M123.797 123.449C123.751 123.159 123.689 122.868 123.611 122.578C123.673 122.868 123.735 123.159 123.797 123.449ZM118.277 128.544L120.82 123.681C120.882 123.565 120.959 123.42 121.037 123.304C121.766 122.07 123.099 120.764 123.611 122.491C123.689 122.839 123.766 123.188 123.828 123.536C124.076 125.423 123.099 128.065 122.107 129.923L119.517 134.567C119.378 132.55 118.974 130.532 118.277 128.544Z" fill="white"/>
<path d="M123.626 122.593C123.688 122.883 123.75 123.173 123.812 123.463C123.766 123.173 123.704 122.883 123.626 122.593Z" fill="#BFBEED"/>
<path d="M60.2314 144.321C62.4023 144.655 64.7284 145.991 64.4803 147.224C64.0926 149.14 59.0063 148.429 57.3316 146.237C56.4942 145.149 57.037 143.871 60.2469 144.321H60.2314ZM60.3244 148.4C60.9447 148.502 61.5495 148.603 62.1697 148.705C64.4182 149.111 67.0079 150.171 67.4886 151.927L68.0779 155.135C64.4337 154.7 60.8361 154.104 57.3161 153.364L56.3547 150.098C56.0445 148.632 57.5332 147.994 60.3244 148.4ZM63.0691 156.108C68.5896 157.007 72.6059 154.946 73.2882 152.435C75.1025 145.773 56.1531 141.273 51.377 143.915C47.0505 146.295 53.5479 154.235 63.0691 156.122V156.108Z" fill="#19E9DF"/>
<path d="M61.1775 148.255C57.8281 147.616 55.9827 145.367 57.4869 144.539C59.3167 143.538 64.8527 145.279 64.465 147.239C64.2944 148.095 62.8833 148.531 61.1775 148.255Z" fill="white"/>
<path d="M60.4798 148.429C60.9915 148.516 61.5187 148.603 62.0304 148.69C61.5187 148.603 60.9915 148.531 60.4798 148.429ZM68.0781 155.135L67.4889 151.927C67.0082 150.171 64.434 149.111 62.17 148.705C61.5497 148.603 60.9295 148.502 60.3247 148.4C57.5335 147.994 56.0448 148.618 56.3549 150.098L57.3163 153.364C60.8209 154.104 64.4185 154.7 68.0781 155.135Z" fill="white"/>
<path d="M62.0312 148.69C61.5195 148.603 60.9923 148.531 60.4806 148.429C60.9923 148.516 61.5195 148.603 62.0312 148.69Z" fill="#BFBEED"/>
<path d="M21.6652 124.799C24.2394 126.207 26.5809 128.645 26.1312 129.473C25.4489 130.736 20.2076 127.02 19.5408 124.799C19.4167 124.407 19.3857 123.609 21.6652 124.799ZM23.3245 129.066C23.8362 129.357 24.3634 129.647 24.8907 129.923C26.8911 131.04 29.4187 132.898 30.4421 134.8L32.1479 138.312C30.2095 137.412 28.3332 136.454 26.5344 135.438C25.3249 134.756 24.1773 134.059 23.0608 133.348L21.0605 129.676C20.9829 129.516 20.8744 129.299 20.8124 129.139C20.5953 128.486 20.6263 127.615 23.309 129.066H23.3245ZM28.4417 137.862C32.2254 139.923 34.66 139.604 35.4043 138.385C38.025 134.03 19.2617 120.749 15.447 121.722C12.9659 122.36 20.3006 133.131 28.4572 137.862H28.4417Z" fill="#D3D3F5"/>
<path d="M23.9153 129.139C21 127.47 18.6585 124.407 19.7595 124.175C21.1241 123.885 26.8616 128.079 26.1173 129.473C25.9002 129.879 25.0318 129.763 23.9153 129.153V129.139Z" fill="white"/>
<path d="M23.4492 129.139C23.8834 129.386 24.3176 129.618 24.7673 129.85C24.3331 129.618 23.8834 129.371 23.4492 129.139ZM32.1486 138.312L30.4428 134.8C29.4038 132.898 26.8917 131.026 24.8913 129.923C24.3641 129.647 23.8369 129.357 23.3251 129.066C22.8754 128.82 22.4102 128.573 21.914 128.413C20.7355 128.021 20.4564 128.457 21.0766 129.676L23.077 133.348C24.178 134.059 25.341 134.756 26.5506 135.438C28.3494 136.454 30.2257 137.412 32.1641 138.312H32.1486Z" fill="white"/>
<path d="M24.752 129.85C24.3178 129.618 23.8681 129.371 23.4339 129.139C23.8681 129.386 24.3023 129.618 24.752 129.85Z" fill="#BFBEED"/>
<path d="M106.984 145.439C108.317 145.12 109.294 145.294 109.542 145.918C110.132 147.413 105.836 150.432 103.681 149.358C102.146 148.589 103.681 146.325 106.984 145.439ZM104.859 149.939C105.386 149.823 105.914 149.692 106.441 149.561C108.798 149.053 109.93 149.634 109.48 151.143L108.271 154.482C105.34 155.338 102.301 156.064 99.2147 156.645L100.068 153.393C100.672 151.608 102.936 150.432 104.875 149.939H104.859ZM103.231 157.443C109.62 155.919 115.978 149.024 115.14 145.86C114.008 141.622 99.6954 145.439 95.9893 150.984C93.6167 154.511 95.9893 158.909 103.247 157.443H103.231Z" fill="#19E9DF"/>
<path d="M105.744 149.431C103.387 149.924 102.565 148.792 103.464 147.529C104.907 145.497 109.326 144.452 109.59 146.063C109.776 147.181 107.76 148.937 105.744 149.431Z" fill="white"/>
<path d="M104.985 149.91C105.419 149.808 105.869 149.707 106.303 149.59C105.869 149.692 105.419 149.808 104.985 149.91ZM108.257 154.482L109.466 151.143C109.916 149.634 108.769 149.053 106.427 149.561C105.9 149.692 105.373 149.823 104.845 149.939C102.907 150.432 100.643 151.608 100.038 153.393L99.1853 156.645C102.287 156.05 105.311 155.324 108.241 154.482H108.257Z" fill="white"/>
<path d="M106.305 149.59C105.87 149.692 105.421 149.808 104.987 149.91C105.421 149.808 105.87 149.706 106.305 149.59Z" fill="#BFBEED"/>
<path d="M147.303 123.928C148.388 123.333 149.164 123.144 149.412 123.406C149.768 123.797 148.947 125.249 146.993 126.947C145.551 128.21 143.891 129.023 143.147 128.849C141.891 128.558 143.907 125.873 147.303 123.943V123.928ZM144.108 129.052C144.636 128.762 145.163 128.486 145.69 128.195C146.14 127.949 146.605 127.702 147.101 127.542C148.28 127.15 148.574 127.586 147.97 128.82L146 132.506C144.202 133.653 142.279 134.771 140.232 135.845C139.115 136.425 137.999 136.977 136.836 137.514L138.511 134.001C139.534 132.1 142.077 130.213 144.108 129.081V129.052ZM140.635 137.006C147.83 133.072 154.979 122.868 154.002 121.17C152.746 118.949 135.099 129.473 133.362 135.569C132.757 137.674 134.277 140.243 140.635 137.006Z" fill="#19E9DF"/>
<path d="M145.07 128.282C142.961 129.371 142.573 128.718 142.822 128.007C143.519 126.033 148.962 122.331 149.443 123.493C149.753 124.247 147.412 126.991 145.07 128.282Z" fill="white"/>
<path d="M144.234 128.979C144.683 128.747 145.118 128.5 145.552 128.253C145.118 128.5 144.683 128.732 144.234 128.979ZM145.986 132.492L147.955 128.805C148.033 128.645 148.141 128.428 148.203 128.268C148.421 127.615 148.374 126.744 145.676 128.195C145.164 128.486 144.637 128.776 144.094 129.052C142.063 130.184 139.52 132.071 138.496 133.972L136.821 137.485C137.969 136.948 139.101 136.382 140.217 135.816C142.264 134.742 144.187 133.639 145.986 132.477V132.492Z" fill="white"/>
<path d="M145.551 128.268C145.117 128.515 144.682 128.747 144.233 128.994C144.682 128.762 145.117 128.515 145.551 128.268Z" fill="#BFBEED"/>
<g opacity="0.4">
<path opacity="0.5" d="M44.5996 47.1153C37.9627 49.0312 31.7289 51.4988 26.1309 54.5324C18.9668 58.4079 13.4773 62.8349 9.66261 67.5813L9.60059 47.2749C13.4153 42.5286 18.9047 38.1015 26.0689 34.2261C31.6669 31.207 37.9006 28.7249 44.5376 26.809L44.5996 47.1153Z" fill="#5762E3"/>
<path opacity="0.5" d="M30.5504 69.207C34.9233 67.1749 39.6219 65.4621 44.5376 64.0397L44.5996 84.346C39.6684 85.7684 34.9543 87.5102 30.5504 89.5423V69.207Z" fill="#5762E3"/>
<path opacity="0.5" d="M159.102 61.456C159.071 50.6859 151.535 39.9449 136.462 31.744C122.118 23.9495 103.494 19.8273 84.607 19.4064L84.669 40.1627C103.556 40.5836 122.18 44.6913 136.524 52.5003C151.581 60.7012 159.133 71.4422 159.164 82.2123L159.102 61.456Z" fill="#5762E3"/>
<path opacity="0.5" d="M121.589 81.7043C125.869 82.9526 129.901 84.4621 133.576 86.262C135.034 86.9732 136.398 87.7135 137.686 88.4682V103.317C136.414 102.562 135.065 101.836 133.623 101.14C129.932 99.3399 125.885 97.8158 121.589 96.5675V81.7043Z" fill="#5762E3"/>
<path opacity="0.5" d="M119.111 53.8066C125.934 55.6791 132.339 58.1321 138.092 61.1802V81.9074C132.339 78.8738 125.934 76.4353 119.111 74.5629V53.8212V53.8066Z" fill="#5762E3"/>
<path opacity="0.5" d="M119.111 0C125.934 1.87242 132.339 4.32544 138.092 7.37356V28.1008C132.339 25.0672 125.934 22.6142 119.111 20.7563V0.014518V0Z" fill="#5762E3"/>
<path opacity="0.3" d="M97.4316 69.9182V89.9777C92.3609 89.281 87.1661 88.8746 81.9713 88.7585L81.9093 68.6989C87.1351 68.815 92.3454 69.236 97.4316 69.9327V69.9182Z" fill="#5762E3"/>
</g>
<path d="M68.2487 120.183C66.9616 120.909 66.5274 122.883 67.3493 124.334C68.3417 126.076 70.4351 125.713 71.1485 123.681C71.8928 121.533 70.3576 119.167 68.2487 120.183ZM70.5902 125.307C70.2491 125.496 69.9079 125.684 69.5823 125.873C68.1556 126.817 67.6904 128.631 68.3262 130.619L69.8304 134.698C71.1174 133.842 72.5131 133.029 74.0172 132.245C74.5445 131.969 75.0872 131.708 75.6299 131.447L74.3429 127.252C73.6606 125.351 72.1564 124.581 70.5902 125.322V125.307ZM73.3504 135.235C70.6057 136.774 67.5974 135.656 65.69 132.405C61.7048 125.641 65.8141 116.888 72.2494 118.441C78.9484 120.053 79.6927 131.2 73.3504 135.235Z" fill="#19E9DF"/>
<path d="M69.9387 125.191C72.1407 123.783 71.5514 120.386 69.551 119.966C67.4731 119.53 66.093 122.564 67.4731 124.538C68.0934 125.409 69.0703 125.684 69.9387 125.191Z" fill="white"/>
<path d="M69.8293 134.698L68.3252 130.619C67.6739 128.631 68.1546 126.817 69.5812 125.873C69.9069 125.684 70.248 125.496 70.5892 125.307C72.1554 124.567 73.6595 125.336 74.3418 127.238L75.6289 131.432C75.0862 131.694 74.5434 131.955 74.0162 132.231C72.512 133.014 71.1164 133.827 69.8293 134.684V134.698Z" fill="white"/>
<path d="M3.02504 82.3285C1.95507 84.1718 3.1336 88.1054 4.63777 88.9037C6.00238 89.6294 6.91728 87.2635 6.31252 84.6363C5.76978 82.2704 4.11052 80.7028 3.02504 82.3285ZM6.59163 88.3521C6.39004 88.7005 6.18845 89.0489 5.98686 89.3972C5.07196 91.3422 5.75425 94.0855 6.68467 96.016L9.22779 100.908C10.0962 98.8464 11.2592 96.8288 12.7168 94.8403L10.2823 89.7456C9.10375 87.4812 7.58408 86.9007 6.57613 88.3521H6.59163ZM12.1121 100.53C11.1662 102.17 9.97213 102.722 8.60753 102.141C2.77694 99.7173 -1.93715 81.5011 4.43617 79.0626C10.5304 76.7257 16.9812 90.9793 12.1121 100.53Z" fill="#5430AF"/>
<path d="M3.02646 82.3284C1.95649 84.1718 3.13503 88.1053 4.63919 88.9036C6.0038 89.6294 6.91871 87.2635 6.31394 84.6363C5.7712 82.2704 4.11195 80.7027 3.02646 82.3284Z" fill="white"/>
<path d="M9.2435 100.907L6.70038 96.0159C5.75446 94.1 5.08764 91.3422 6.00255 89.3972C6.18863 89.0488 6.39022 88.7005 6.60731 88.3521C7.61526 86.9006 9.13496 87.4812 10.3135 89.7455L12.748 94.8402C11.3059 96.8143 10.1429 98.8463 9.259 100.907H9.2435Z" fill="white"/>
<path d="M24.3312 105.306C23.7265 106.786 25.3082 111.01 26.6883 111.59C27.7583 112.04 27.8823 109.602 26.9209 107.265C26.161 105.422 24.9205 104.159 24.3312 105.32V105.306ZM27.8513 111.286C27.7272 111.561 27.6187 111.823 27.5257 112.099C27.0604 113.637 27.9288 116.163 28.9058 118.021L31.4954 122.796C31.8986 121.228 32.5344 119.661 33.3873 118.137L30.8751 113.144C29.6966 110.923 28.4561 110.154 27.8668 111.271L27.8513 111.286ZM33.6354 123.086C33.2477 124.03 32.6894 124.378 31.9141 124.131C27.6962 122.81 20.1754 105.32 24.5949 102.78C28.6732 100.429 36.3181 114.987 33.6199 123.086H33.6354Z" fill="#19E9DF"/>
<path d="M27.4321 111.213C28.2384 108.775 25.7883 104.188 24.6253 104.928C23.3693 105.712 25.2146 111.286 26.8273 111.619C27.0909 111.678 27.308 111.547 27.4321 111.213Z" fill="white"/>
<path d="M31.4791 122.81L28.8895 118.035C27.9281 116.177 27.0597 113.652 27.5094 112.113C27.6179 111.837 27.7265 111.561 27.835 111.3C28.4398 110.183 29.6803 110.952 30.8434 113.173L33.3555 118.166C32.5026 119.69 31.8823 121.257 31.4636 122.825L31.4791 122.81Z" fill="white"/>
<path d="M126.832 53.3712C125.142 52.8487 123.436 53.6034 122.754 55.171C121.452 58.1756 124.677 61.5866 127.608 60.3093C130.384 59.1046 130.384 54.6775 126.832 53.3712ZM126.011 61.2528C125.437 61.0641 124.863 60.8899 124.289 60.7157C121.653 60.0771 119.513 61.3979 118.862 64.1122L117.761 69.9762C121.203 70.8616 124.553 71.8922 127.763 73.0824L129.221 67.3345C129.779 64.5912 128.523 62.2108 126.026 61.2673L126.011 61.2528ZM122.149 74.5339C116.009 72.6324 112.07 65.4331 113.729 59.1481C116.164 49.8876 128.445 48.4797 133.655 56.8693C138.897 65.3169 132.896 77.2917 122.149 74.5339Z" fill="#19E9DF"/>
<path d="M125.266 60.411C128.662 61.2819 130.585 57.8854 129.065 55.2001C127.499 52.4278 123.529 52.6165 122.63 55.5049C122.01 57.4935 123.25 59.7868 125.282 60.411H125.266Z" fill="white"/>
<path d="M125.871 61.1947C125.39 61.0496 124.909 60.8899 124.429 60.7448C124.909 60.8899 125.39 61.0351 125.871 61.1947ZM117.745 69.9617L118.846 64.0977C119.498 61.3979 121.622 60.0626 124.274 60.7012C124.847 60.8754 125.421 61.0496 125.995 61.2383C128.492 62.1817 129.748 64.5767 129.189 67.3055L127.732 73.0534C124.522 71.8632 121.172 70.8326 117.73 69.9472L117.745 69.9617Z" fill="white"/>
<path d="M124.429 60.7593C124.91 60.9044 125.39 61.0496 125.871 61.2092C125.39 61.0641 124.91 60.9044 124.429 60.7593Z" fill="#BFBEED"/>
<path d="M64.8827 87.0894C63.3475 87.3651 62.3241 89.0634 62.6187 90.8923C63.0529 93.6211 65.8752 94.6081 67.4103 92.5905C69.023 90.4568 67.7515 86.7555 64.8827 87.1039V87.0894ZM66.542 94.0275C66.0923 94.1001 65.6426 94.1872 65.1929 94.2743C63.208 94.7823 62.1535 96.7273 62.4791 99.2528L63.4096 104.609C65.9217 104.028 68.5113 103.564 71.1165 103.215L70.5272 97.8014C70.1551 95.2903 68.5889 93.8243 66.5264 94.042L66.542 94.0275ZM67.6274 106.713C63.332 107.483 59.0521 103.694 57.8891 98.0771C55.9818 88.8602 63.8748 82.9672 70.0155 86.6539C77.3347 91.0374 75.7065 104.725 67.6274 106.713Z" fill="#D3D3F5"/>
<path d="M65.7977 93.621C68.7285 92.9098 68.775 88.6424 66.5265 87.3796C64.34 86.1459 61.9985 88.4828 62.6808 91.2261C63.084 92.8372 64.4176 93.8823 65.7977 93.6356V93.621Z" fill="white"/>
<path d="M66.4342 94.0419C66.0621 94.1145 65.6899 94.1726 65.3022 94.2451C65.6744 94.1726 66.0466 94.1145 66.4342 94.0419ZM63.4104 104.609L62.48 99.2528C62.1543 96.7417 63.2088 94.7822 65.1937 94.2742C65.6434 94.1871 66.0931 94.1145 66.5428 94.0274C68.5897 93.8097 70.1559 95.2757 70.5436 97.7868L71.1328 103.201C68.5122 103.549 65.938 104.014 63.4259 104.594L63.4104 104.609Z" fill="white"/>
<path d="M65.3016 94.2452C65.6738 94.1726 66.0459 94.1146 66.4336 94.042C66.0614 94.1146 65.6893 94.1726 65.3016 94.2452Z" fill="#BFBEED"/>
<path d="M112.208 92.1259C111.03 91.8356 109.836 92.634 109.371 93.9984C108.502 96.553 110.487 99.0641 112.519 97.99C114.597 96.9013 114.767 92.9097 112.193 92.1259H112.208ZM111.635 98.8173C111.247 98.7157 110.844 98.6286 110.441 98.527C108.626 98.2222 107.169 99.5285 106.719 101.865L105.975 106.888C108.301 107.338 110.565 107.889 112.767 108.528L113.821 103.578C114.224 101.241 113.371 99.3689 111.635 98.8173ZM108.936 110.313C104.874 109.326 102.144 103.491 103.199 98.0625C104.672 90.5874 112.519 87.9747 116.519 93.6355C120.737 99.6011 116.535 111.619 108.936 110.313Z" fill="#19E9DF"/>
<path d="M111.124 98.1931C113.729 98.6576 114.985 94.9418 113.496 92.9968C112.131 91.226 109.619 92.1694 109.232 94.6079C108.968 96.2626 109.821 97.8738 111.124 98.1931Z" fill="white"/>
<path d="M105.975 106.888L106.719 101.866C107.153 99.5431 108.611 98.2368 110.441 98.5271C110.844 98.6142 111.232 98.7158 111.635 98.8174C113.372 99.3835 114.224 101.241 113.821 103.578L112.767 108.528C110.565 107.875 108.301 107.338 105.975 106.888Z" fill="white"/>
<path d="M110.535 98.556L111.527 98.7883L110.535 98.556Z" fill="#BFBEED"/>
<path d="M69.2089 39.4805C66.4487 39.7708 64.4173 42.0496 64.6809 44.5462C65.0996 48.5088 70.4184 49.9022 73.3182 46.796C76.0164 43.9075 74.0936 39.1902 69.2244 39.4805H69.2089ZM71.2558 49.0168C70.434 49.1039 69.6276 49.1764 68.8057 49.278C65.1926 49.8586 62.9907 52.4858 63.2233 55.9549L64.0916 63.3139C68.7747 62.6172 73.5353 62.1092 78.3114 61.8044L77.9238 54.3873C77.5516 50.9473 74.9465 48.8281 71.2558 49.0168ZM71.4884 66.3766C63.4714 67.2184 56.2762 61.877 55.1132 54.2131C53.1903 41.5416 68.5421 32.6295 79.6295 39.9885C89.9881 46.8541 86.7937 64.0542 71.4884 66.3766Z" fill="#FDCB3A"/>
<path d="M69.9698 48.4362C74.9785 47.6814 75.9244 42.3109 72.4819 40.1917C68.8688 37.971 63.8756 41.0626 64.7439 44.9962C65.2247 47.2169 67.4732 48.6975 69.9698 48.4362Z" fill="white"/>
<path d="M64.0771 63.3139L63.2087 55.9549C62.9916 52.4858 65.1781 49.8731 68.7912 49.278C69.613 49.1909 70.4194 49.1039 71.2412 49.0168C74.9319 48.8281 77.537 50.9473 77.9092 54.3873L78.2969 61.8044C73.5053 62.1092 68.7601 62.6172 64.0771 63.3139Z" fill="white"/>
<path d="M45.3313 74.5339L45.3469 80.4559L51.3945 83.7653L51.379 77.8433L45.3313 74.5339Z" fill="#19E9DF"/>
<path d="M51.3785 77.8433L51.394 83.7653L57.4727 80.4559L57.4571 74.5339L51.3785 77.8433Z" fill="#06C0C0"/>
<path d="M45.3326 74.5339L51.3803 77.8433L57.459 74.5339L51.4113 71.239L45.3326 74.5339Z" fill="#28F9EF"/>
<path d="M33.872 88.2359L32.6779 88.8891C33.2207 88.5988 33.5463 87.9747 33.5618 87.0747L34.7559 86.4216C34.7559 87.307 34.4147 87.9311 33.872 88.2359Z" fill="#CFCDE2"/>
<mask id="mask5_806_2451" style="mask-type:luminance" maskUnits="userSpaceOnUse" x="32" y="86" width="3" height="3">
<path d="M33.8739 88.2359L32.6799 88.889C33.2226 88.5987 33.5483 87.9746 33.5638 87.0747L34.7578 86.4215C34.7578 87.3069 34.4167 87.9311 33.8739 88.2359Z" fill="white"/>
</mask>
<g mask="url(#mask5_806_2451)">
<path d="M33.5638 87.0747L34.7578 86.4215C34.7578 87.3069 34.4167 87.9311 33.8739 88.2359L32.6799 88.889C33.2226 88.5987 33.5483 87.9746 33.5638 87.0747Z" fill="#CFCDE2"/>
</g>
<path d="M11.293 44.4735L12.487 43.8204C13.0297 43.5156 13.7896 43.5591 14.627 44.0236L13.4329 44.6768C12.5955 44.2268 11.8357 44.1832 11.293 44.4735Z" fill="#E7E6F1"/>
<mask id="mask6_806_2451" style="mask-type:luminance" maskUnits="userSpaceOnUse" x="11" y="43" width="4" height="2">
<path d="M11.293 44.4735L12.487 43.8204C13.0297 43.5156 13.7896 43.5591 14.627 44.0236L13.4329 44.6768C12.5955 44.2268 11.8357 44.1832 11.293 44.4735Z" fill="white"/>
</mask>
<g mask="url(#mask6_806_2451)">
<path d="M11.293 44.4735L12.487 43.8204C13.0297 43.5156 13.7896 43.5591 14.627 44.0236L13.4329 44.6768C12.5955 44.2268 11.8357 44.1832 11.293 44.4735Z" fill="#E7E6F1"/>
</g>
<path d="M33.64 58.8432L34.834 58.1901L34.7565 86.4215L33.5624 87.0747L33.64 58.8432Z" fill="#CFCDE2"/>
<path d="M13.4332 44.6623L14.6272 44.0091L31.8398 53.3131L30.6458 53.9663L13.4332 44.6623Z" fill="#E7E6F1"/>
<path d="M30.6472 53.9663L31.8413 53.3131C33.5005 54.213 34.8496 56.3903 34.8496 58.1756L33.6556 58.8288C33.6556 57.0434 32.322 54.8662 30.6472 53.9663Z" fill="#E7E6F1"/>
<mask id="mask7_806_2451" style="mask-type:luminance" maskUnits="userSpaceOnUse" x="30" y="53" width="5" height="6">
<path d="M30.6472 53.9663L31.8413 53.3131C33.5005 54.213 34.8496 56.3903 34.8496 58.1756L33.6556 58.8288C33.6556 57.0434 32.322 54.8662 30.6472 53.9663Z" fill="white"/>
</mask>
<g mask="url(#mask7_806_2451)">
<path d="M30.645 53.9663L31.839 53.3131C32.3507 53.5889 32.8469 53.9953 33.2656 54.4743L32.0716 55.1275C31.6529 54.6485 31.1567 54.2421 30.645 53.9663Z" fill="#E7E6F1"/>
<path d="M32.0563 55.1275L33.2503 54.4743C34.1963 55.5339 34.832 56.9563 34.832 58.1901L33.638 58.8433C33.638 57.6095 33.0022 56.1871 32.0563 55.1275Z" fill="#E7E6F1"/>
</g>
<path d="M30.646 53.9663C32.3052 54.8662 33.6543 57.0434 33.6543 58.8288L33.5612 87.0747C33.5612 88.86 32.1966 89.5858 30.5374 88.6859L13.3248 79.3818C11.6655 78.4819 10.3165 76.3047 10.3165 74.5194L10.4095 46.2734C10.4095 44.4881 11.7741 43.7623 13.4333 44.6622L30.646 53.9663Z" fill="#F4F4FB"/>
<path d="M12.071 59.2932V60.5125L31.9043 71.239V70.0052L12.071 59.2932Z" fill="#CFCDE2"/>
<path d="M12.071 46.9701V49.4521L31.9043 60.1641V57.6966L12.071 46.9701Z" fill="#CFCDE2"/>
<path d="M12.071 65.7523V66.9861L31.9043 77.6981V76.4788L12.071 65.7523Z" fill="#CFCDE2"/>
<path d="M12.071 63.6041V64.8234L31.9043 75.5499V74.3161L12.071 63.6041Z" fill="#CFCDE2"/>
<path d="M12.071 61.4414V62.6752L31.9043 73.4017V72.1679L12.071 61.4414Z" fill="#CFCDE2"/>
<path d="M20.2121 55.0839V56.3032L31.9043 62.6317V61.3979L20.2121 55.0839Z" fill="#CFCDE2"/>
<path d="M20.2121 61.543V62.7623L31.9043 69.0908V67.857L20.2121 61.543Z" fill="#CFCDE2"/>
<path d="M20.2121 59.3803V60.6141L31.9043 66.9281V65.7088L20.2121 59.3803Z" fill="#CFCDE2"/>
<path d="M20.2121 57.2321V58.4659L31.9043 64.7799V63.5461L20.2121 57.2321Z" fill="#CFCDE2"/>
<path d="M13.1263 51.5423L13.0487 53.2115L13.2348 53.3131C13.2503 52.9938 13.3278 52.7761 13.4519 52.6454C13.576 52.5148 13.7155 52.4712 13.8861 52.4858C14.0257 52.5003 14.2428 52.6019 14.5529 52.7761L15.3593 53.2115V58.7707C15.3593 59.1771 15.3282 59.4239 15.2507 59.4964C15.1266 59.6126 14.9251 59.5981 14.6459 59.4529L14.4133 59.3223V59.5255L17.2666 61.0641V60.8608L17.034 60.7302C16.7704 60.5851 16.5843 60.4109 16.4602 60.1932C16.3672 60.0335 16.3207 59.7287 16.3207 59.2787V53.7195L17.2666 54.2275C17.5457 54.3727 17.7628 54.5469 17.9334 54.7356C18.104 54.9243 18.2435 55.1565 18.3366 55.4178C18.3986 55.5774 18.4451 55.8242 18.4916 56.1435L18.6777 56.2451L18.6002 54.5033L13.1107 51.5423H13.1263Z" fill="#5430AF"/>
<path d="M23.7617 74.4903V75.7095L12.0695 69.3956V68.1618L23.7617 74.4903Z" fill="#CFCDE2"/>
<path d="M23.7617 80.9494V82.1686L12.0695 75.8547V74.6209L23.7617 80.9494Z" fill="#CFCDE2"/>
<path d="M23.7617 78.7867V80.0205L12.0695 73.7065V72.4727L23.7617 78.7867Z" fill="#CFCDE2"/>
<path d="M23.7617 76.6385V77.8723L12.0695 71.5438V70.3245L23.7617 76.6385Z" fill="#CFCDE2"/>
<path d="M25.0794 75.4918L25.0019 77.161L25.188 77.2626C25.219 76.9869 25.281 76.7982 25.343 76.6966C25.4516 76.5514 25.5756 76.4643 25.7462 76.4643C25.9168 76.4643 26.1339 76.5369 26.413 76.682L27.3589 77.1901V82.7493C27.3589 83.1992 27.3124 83.446 27.2194 83.5185C27.0953 83.6056 26.8937 83.5766 26.6456 83.4315L26.413 83.3008V83.504L29.2663 85.0426V84.8394L29.0337 84.7088C28.7545 84.5491 28.5529 84.3459 28.4289 84.0991C28.3514 83.9395 28.3203 83.6637 28.3203 83.2573V77.6981L29.1267 78.1335C29.4368 78.3077 29.6694 78.4528 29.7935 78.569C29.9641 78.7286 30.1191 78.9464 30.2277 79.1931C30.3517 79.4544 30.4293 79.7592 30.4448 80.093L30.6309 80.1946L30.5533 78.4528L25.0639 75.4918H25.0794Z" fill="#5430AF"/>
<path d="M57.7514 139.749L56.4643 140.446C57.0535 140.127 57.4102 139.459 57.4102 138.501L58.6973 137.804C58.6973 138.762 58.3406 139.43 57.7514 139.749Z" fill="#CFCDE2"/>
<mask id="mask8_806_2451" style="mask-type:luminance" maskUnits="userSpaceOnUse" x="56" y="137" width="3" height="4">
<path d="M57.7514 139.749L56.4643 140.446C57.0535 140.127 57.4102 139.459 57.4102 138.501L58.6973 137.804C58.6973 138.762 58.3406 139.43 57.7514 139.749Z" fill="white"/>
</mask>
<g mask="url(#mask8_806_2451)">
<path d="M57.4102 138.501L58.6973 137.804C58.6973 138.762 58.3406 139.43 57.7514 139.749L56.4643 140.446C57.0535 140.127 57.4102 139.459 57.4102 138.501Z" fill="#CFCDE2"/>
</g>
<path d="M40.043 114.639L41.3301 113.942C41.9194 113.623 42.7412 113.666 43.6406 114.16L42.3536 114.856C41.4542 114.363 40.6323 114.319 40.043 114.639Z" fill="#E7E6F1"/>
<mask id="mask9_806_2451" style="mask-type:luminance" maskUnits="userSpaceOnUse" x="40" y="113" width="4" height="2">
<path d="M40.043 114.639L41.3301 113.942C41.9194 113.623 42.7412 113.666 43.6406 114.16L42.3536 114.856C41.4542 114.363 40.6323 114.319 40.043 114.639Z" fill="white"/>
</mask>
<g mask="url(#mask9_806_2451)">
<path d="M40.043 114.639L41.3301 113.942C41.9194 113.623 42.7412 113.666 43.6406 114.16L42.3536 114.856C41.4542 114.363 40.6323 114.319 40.043 114.639Z" fill="#E7E6F1"/>
</g>
<path d="M57.459 126.512L58.7461 125.815L58.6996 137.804L57.4125 138.501L57.459 126.512Z" fill="#CFCDE2"/>
<path d="M42.3541 114.842L43.6411 114.145L55.5039 120.561L54.2168 121.257L42.3541 114.842Z" fill="#E7E6F1"/>
<path d="M54.2181 121.257L55.5052 120.561C57.3039 121.533 58.7461 123.885 58.7461 125.815L57.459 126.512C57.459 124.581 56.0169 122.23 54.2181 121.272V121.257Z" fill="#E7E6F1"/>
<mask id="mask10_806_2451" style="mask-type:luminance" maskUnits="userSpaceOnUse" x="54" y="120" width="5" height="7">
<path d="M54.2181 121.257L55.5052 120.561C57.3039 121.533 58.7461 123.885 58.7461 125.815L57.459 126.512C57.459 124.581 56.0169 122.23 54.2181 121.272V121.257Z" fill="white"/>
</mask>
<g mask="url(#mask10_806_2451)">
<path d="M54.2188 121.257L55.5058 120.561C56.0641 120.865 56.5913 121.301 57.041 121.809L55.754 122.506C55.3043 121.998 54.777 121.562 54.2188 121.257Z" fill="#E7E6F1"/>
<path d="M55.7533 122.506L57.0403 121.809C58.0638 122.956 58.7461 124.48 58.7461 125.815L57.459 126.512C57.459 125.176 56.7767 123.652 55.7533 122.506Z" fill="#CFCDE2"/>
</g>
<path d="M54.218 121.257C56.0168 122.23 57.459 124.581 57.459 126.497L57.4125 138.487C57.4125 140.417 55.9548 141.201 54.156 140.228L42.2933 133.813C40.4945 132.84 39.0523 130.489 39.0523 128.558L39.0988 116.569C39.0988 114.639 40.5565 113.855 42.3553 114.827L54.218 121.243V121.257Z" fill="#F4F4FB"/>
<path d="M43.1767 120.807C45.8283 120.024 50.1237 122.346 52.7599 125.989C54.9929 129.066 55.3496 132.114 53.7989 133.45C53.7989 134.219 55.0859 137.238 55.0859 137.238C55.0859 137.238 52.3102 135.38 51.4883 134.147C48.8832 134.059 45.4251 131.926 43.1611 128.82C40.5095 125.176 40.5095 121.591 43.1611 120.807H43.1767Z" fill="#5430AF"/>
<path d="M50.2326 129.197C50.2326 129.821 50.6978 130.576 51.2716 130.881C51.8453 131.2 52.3105 130.939 52.3105 130.329C52.3105 129.72 51.8453 128.95 51.2716 128.645C50.6978 128.326 50.2326 128.587 50.2326 129.197Z" fill="#E7E6F1"/>
<path d="M47.0842 127.499C47.0842 128.123 47.5494 128.878 48.1231 129.182C48.6969 129.502 49.1621 129.241 49.1621 128.631C49.1621 128.021 48.6969 127.252 48.1231 126.947C47.5494 126.628 47.0842 126.889 47.0842 127.499Z" fill="#E7E6F1"/>
<path d="M43.9514 125.801C43.9514 126.425 44.4166 127.179 44.9903 127.484C45.5641 127.804 46.0293 127.542 46.0293 126.933C46.0293 126.323 45.5641 125.554 44.9903 125.249C44.4166 124.93 43.9514 125.191 43.9514 125.801Z" fill="#E7E6F1"/>
<path d="M141.287 52.5004L141.302 61.9496L150.963 67.2185L150.932 57.7693L141.287 52.5004Z" fill="#E7E6F1"/>
<path d="M150.932 57.7693L150.963 67.2185L160.67 61.9496L160.639 52.5004L150.932 57.7693Z" fill="#CFCDE2"/>
<path d="M141.286 52.5003L150.931 57.7692L160.639 52.5003L150.993 47.2314L141.286 52.5003Z" fill="#F4F4FB"/>
<path d="M77.8794 140.04L77.9104 147.602L85.6328 151.811L85.6018 144.249L77.8794 140.04Z" fill="#E7E6F1"/>
<path d="M85.6003 144.249L85.6313 151.811L93.3848 147.602L93.3693 140.04L85.6003 144.249Z" fill="#CFCDE2"/>
<path d="M77.8758 140.04L85.5983 144.249L93.3672 140.04L85.6448 135.816L77.8758 140.04Z" fill="#F4F4FB"/>
<path d="M87.2919 68.8586L88.4394 68.2344C88.9667 67.9441 89.6955 67.9877 90.4863 68.4231L89.3388 69.0473C88.5325 68.6118 87.8191 68.5683 87.2919 68.8586Z" fill="#03B3FF"/>
<mask id="mask11_806_2451" style="mask-type:luminance" maskUnits="userSpaceOnUse" x="87" y="68" width="4" height="2">
<path d="M87.2919 68.8586L88.4394 68.2344C88.9667 67.9441 89.6955 67.9877 90.4863 68.4231L89.3388 69.0473C88.5325 68.6118 87.8191 68.5683 87.2919 68.8586Z" fill="white"/>
</mask>
<g mask="url(#mask11_806_2451)">
<path d="M87.2919 68.8586L88.4394 68.2344C88.9667 67.9441 89.6955 67.9877 90.4863 68.4231L89.3388 69.0473C88.5325 68.6118 87.8191 68.5683 87.2919 68.8586Z" fill="#03B3FF"/>
</g>
<path d="M109.901 95.4934L108.753 96.1175C109.265 95.8417 109.591 95.2321 109.591 94.3902L110.738 93.7661C110.738 94.6225 110.413 95.2176 109.901 95.4934Z" fill="#E7E6F1"/>
<mask id="mask12_806_2451" style="mask-type:luminance" maskUnits="userSpaceOnUse" x="108" y="93" width="3" height="4">
<path d="M109.901 95.4934L108.753 96.1176C109.265 95.8418 109.591 95.2322 109.591 94.3903L110.738 93.7662C110.738 94.6226 110.413 95.2177 109.901 95.4934Z" fill="white"/>
</mask>
<g mask="url(#mask12_806_2451)">
<path d="M109.591 94.3903L110.738 93.7662C110.738 94.6226 110.413 95.2177 109.901 95.4934L108.753 96.1176C109.265 95.8418 109.591 95.2322 109.591 94.3903Z" fill="#E7E6F1"/>
</g>
<path d="M109.622 83.1122L110.77 82.488L110.739 93.7661L109.591 94.3902L109.622 83.1122Z" fill="#E7E6F1"/>
<path d="M89.3387 69.0473L90.4862 68.4232L107.9 77.8433L106.753 78.4675L89.3387 69.0473Z" fill="#F4F4FB"/>
<path d="M106.753 78.4675L107.901 77.8433C109.482 78.6997 110.77 80.7899 110.77 82.5026L109.622 83.1267C109.622 81.414 108.335 79.3384 106.753 78.4675Z" fill="#E7E6F1"/>
<mask id="mask13_806_2451" style="mask-type:luminance" maskUnits="userSpaceOnUse" x="106" y="77" width="5" height="7">
<path d="M106.751 78.4675L107.899 77.8433C109.481 78.6997 110.768 80.7899 110.768 82.5026L109.62 83.1267C109.62 81.414 108.333 79.3384 106.751 78.4675Z" fill="white"/>
</mask>
<g mask="url(#mask13_806_2451)">
<path d="M106.752 78.4675L107.899 77.8433C108.395 78.1046 108.86 78.4965 109.264 78.9464L108.116 79.5706C107.713 79.1206 107.248 78.7287 106.752 78.4675Z" fill="#F4F4FB"/>
<path d="M108.116 79.5706L109.263 78.9465C110.163 79.9625 110.768 81.3124 110.768 82.4881L109.62 83.1123C109.62 81.9366 109.015 80.5722 108.116 79.5706Z" fill="#E7E6F1"/>
</g>
<path d="M106.752 78.4674C108.334 79.3238 109.621 81.4139 109.621 83.1267L109.59 94.4048C109.59 96.1175 108.288 96.7997 106.706 95.9433L89.2916 86.5232C87.6944 85.6668 86.4228 83.5767 86.4228 81.8639L86.4538 70.5858C86.4538 68.8731 87.7564 68.1909 89.3381 69.0473L106.752 78.4674Z" fill="#E7E6F1"/>
<path d="M153.447 113.463L152.036 114.232C152.672 113.884 153.06 113.158 153.075 112.113L154.486 111.344C154.486 112.389 154.083 113.129 153.447 113.463Z" fill="#442397"/>
<mask id="mask14_806_2451" style="mask-type:luminance" maskUnits="userSpaceOnUse" x="152" y="111" width="3" height="4">
<path d="M153.449 113.463L152.038 114.232C152.674 113.884 153.062 113.158 153.077 112.113L154.488 111.344C154.488 112.389 154.085 113.129 153.449 113.463Z" fill="white"/>
</mask>
<g mask="url(#mask14_806_2451)">
<path d="M153.06 112.113L154.471 111.344C154.471 112.389 154.068 113.129 153.432 113.463L152.021 114.232C152.656 113.884 153.044 113.158 153.06 112.113Z" fill="#442397"/>
</g>
<path d="M132.079 84.9846L133.49 84.2153C134.126 83.8669 135.025 83.9105 136.002 84.4475L134.591 85.2168C133.614 84.6798 132.714 84.6362 132.079 84.9846Z" fill="#5430AF"/>
<mask id="mask15_806_2451" style="mask-type:luminance" maskUnits="userSpaceOnUse" x="132" y="83" width="5" height="3">
<path d="M132.081 84.9846L133.492 84.2153C134.128 83.8669 135.027 83.9105 136.004 84.4475L134.593 85.2168C133.616 84.6798 132.716 84.6362 132.081 84.9846Z" fill="white"/>
</mask>
<g mask="url(#mask15_806_2451)">
<path d="M132.081 84.9846L133.492 84.2153C134.128 83.8669 135.027 83.9105 136.004 84.4475L134.593 85.2168C133.616 84.6798 132.716 84.6362 132.081 84.9846Z" fill="#5430AF"/>
</g>
<path d="M153.122 99.035L154.518 98.2657L154.471 111.344L153.06 112.113L153.122 99.035Z" fill="#442397"/>
<path d="M134.592 85.2168L136.003 84.4475L150.998 92.5468L149.587 93.3161L134.592 85.2168Z" fill="#5430AF"/>
<path d="M149.586 93.3161L150.997 92.5468C152.951 93.6064 154.533 96.161 154.517 98.2657L153.106 99.035C153.106 96.9303 151.54 94.3757 149.586 93.3161Z" fill="#5430AF"/>
<mask id="mask16_806_2451" style="mask-type:luminance" maskUnits="userSpaceOnUse" x="149" y="92" width="6" height="8">
<path d="M149.588 93.3161L150.999 92.5468C152.953 93.6064 154.535 96.161 154.519 98.2657L153.108 99.035C153.108 96.9303 151.542 94.3757 149.588 93.3161Z" fill="white"/>
</mask>
<g mask="url(#mask16_806_2451)">
<path d="M149.588 93.3161L150.999 92.5468C151.604 92.8807 152.178 93.3451 152.674 93.9112L151.263 94.6805C150.766 94.1144 150.193 93.6499 149.588 93.3161Z" fill="#5430AF"/>
<path d="M151.263 94.666L152.674 93.8967C153.775 95.1449 154.535 96.8142 154.519 98.2511L153.108 99.0204C153.108 97.5689 152.364 95.8997 151.263 94.666Z" fill="#442397"/>
</g>
<path d="M149.585 93.3161C151.539 94.3757 153.121 96.9303 153.105 99.035L153.059 112.113C153.059 114.218 151.462 115.059 149.508 114.014L134.513 105.915C132.559 104.855 130.977 102.301 130.993 100.196L131.039 87.1182C131.039 85.0136 132.636 84.1717 134.59 85.2168L149.585 93.3161Z" fill="#291069"/>
<path d="M88.6252 28.7976L89.7417 28.1879C90.2534 27.9122 90.9512 27.9557 91.7266 28.3766L90.6101 28.9863C89.8347 28.5653 89.1369 28.5218 88.6252 28.7976Z" fill="#FDCB3A"/>
<mask id="mask17_806_2451" style="mask-type:luminance" maskUnits="userSpaceOnUse" x="88" y="28" width="4" height="1">
<path d="M88.6232 28.7976L89.7397 28.188C90.2515 27.9122 90.9493 27.9558 91.7246 28.3767L90.6081 28.9863C89.8328 28.5654 89.135 28.5218 88.6232 28.7976Z" fill="white"/>
</mask>
<g mask="url(#mask17_806_2451)">
<path d="M88.6232 28.7976L89.7397 28.188C90.2515 27.9122 90.9493 27.9558 91.7246 28.3767L90.6081 28.9863C89.8328 28.5654 89.135 28.5218 88.6232 28.7976Z" fill="#FDCB3A"/>
</g>
<path d="M111.53 56.4629L110.413 57.0725C110.909 56.7968 111.22 56.2162 111.235 55.4033L112.352 54.7937C112.352 55.621 112.041 56.2016 111.53 56.4629Z" fill="#FDCB3A"/>
<mask id="mask18_806_2451" style="mask-type:luminance" maskUnits="userSpaceOnUse" x="110" y="54" width="3" height="4">
<path d="M111.53 56.4629L110.413 57.0725C110.909 56.7968 111.22 56.2162 111.235 55.4033L112.352 54.7937C112.352 55.621 112.041 56.2016 111.53 56.4629Z" fill="white"/>
</mask>
<g mask="url(#mask18_806_2451)">
<path d="M111.235 55.3888L112.352 54.7792C112.352 55.6065 112.041 56.1871 111.53 56.4484L110.413 57.058C110.909 56.7822 111.22 56.2016 111.235 55.3888Z" fill="#FDCB3A"/>
</g>
<path d="M111.264 43.1527L112.381 42.5431L112.334 54.7937L111.233 55.3888L111.264 43.1527Z" fill="#FDCB3A"/>
<path d="M90.6133 28.9717L91.7298 28.3766L109.594 38.029L108.493 38.6241L90.6133 28.9717Z" fill="#FDCB3A"/>
<path d="M108.491 38.6242L109.607 38.0145C111.142 38.8419 112.398 40.874 112.398 42.5287L111.282 43.1383C111.282 41.4836 110.041 39.4515 108.491 38.6242Z" fill="#FDCB3A"/>
<mask id="mask19_806_2451" style="mask-type:luminance" maskUnits="userSpaceOnUse" x="108" y="38" width="5" height="6">
<path d="M108.491 38.6241L109.607 38.0145C111.142 38.8418 112.398 40.8739 112.398 42.5286L111.282 43.1382C111.282 41.4835 110.041 39.4514 108.491 38.6241Z" fill="white"/>
</mask>
<g mask="url(#mask19_806_2451)">
<path d="M108.489 38.6242L109.606 38.0146C110.086 38.2759 110.536 38.6387 110.924 39.0887L109.807 39.6983C109.42 39.2629 108.97 38.8855 108.489 38.6242Z" fill="#FDCB3A"/>
<path d="M109.808 39.6983L110.925 39.0887C111.793 40.0757 112.398 41.382 112.383 42.5287L111.266 43.1383C111.266 41.9917 110.677 40.6708 109.808 39.6983Z" fill="#FDCB3A"/>
</g>
<path d="M111.266 43.1527L111.235 55.4033C111.235 55.563 111.235 55.7226 111.188 55.8533C110.971 57.1741 109.808 57.6386 108.428 56.8838L102.024 53.4293L99.6976 52.1665L90.5641 47.2314C89.0134 46.3896 87.7728 44.372 87.7728 42.7173V39.0596L87.8194 30.4667C87.8194 28.812 89.0754 28.1299 90.6261 28.9717L108.49 38.6241C110.025 39.4515 111.281 41.4835 111.281 43.1382L111.266 43.1527Z" fill="#F6B814"/>
<path d="M102.027 53.4293L99.7014 52.1665L90.5679 47.2314C89.0172 46.3896 87.7766 44.372 87.7766 42.7173V39.0595L93.7313 32.8472L100.989 50.8311L102.043 53.4293H102.027Z" fill="#E7E6F1"/>
<path d="M111.191 55.8532C110.974 57.1741 109.811 57.6385 108.431 56.8838L102.027 53.4292L99.7008 52.1664L100.988 50.8311L106.741 44.8219L111.191 55.8532Z" fill="#E7E6F1"/>
<path d="M103.594 41.2368C103.594 40.0611 102.71 38.6241 101.609 38.029C100.508 37.4339 99.624 37.9129 99.624 39.1031C99.624 40.2933 100.508 41.7158 101.609 42.3109C102.71 42.906 103.594 42.427 103.594 41.2368Z" fill="#EBEEFC"/>
<path d="M110.223 138.486L108.719 139.314C109.401 138.936 109.82 138.153 109.82 137.035L111.324 136.208C111.324 137.325 110.906 138.109 110.223 138.486Z" fill="#CFCDE2"/>
<mask id="mask20_806_2451" style="mask-type:luminance" maskUnits="userSpaceOnUse" x="108" y="136" width="4" height="4">
<path d="M110.221 138.486L108.717 139.314C109.399 138.936 109.818 138.153 109.818 137.035L111.322 136.208C111.322 137.325 110.904 138.109 110.221 138.486Z" fill="white"/>
</mask>
<g mask="url(#mask20_806_2451)">
<path d="M109.818 137.035L111.322 136.208C111.322 137.325 110.904 138.109 110.221 138.486L108.717 139.314C109.399 138.936 109.818 138.153 109.818 137.035Z" fill="#CFCDE2"/>
</g>
<path d="M89.5379 109.137L91.042 108.31C91.7243 107.933 92.6858 107.991 93.7402 108.557L92.2361 109.384C91.1816 108.818 90.2202 108.76 89.5379 109.137Z" fill="#E7E6F1"/>
<mask id="mask21_806_2451" style="mask-type:luminance" maskUnits="userSpaceOnUse" x="89" y="108" width="5" height="2">
<path d="M89.5359 109.137L91.0401 108.31C91.7224 107.933 92.6838 107.991 93.7383 108.557L92.2341 109.384C91.1796 108.818 90.2182 108.76 89.5359 109.137Z" fill="white"/>
</mask>
<g mask="url(#mask21_806_2451)">
<path d="M89.5359 109.137L91.0401 108.31C91.7224 107.933 92.6838 107.991 93.7383 108.557L92.2341 109.384C91.1796 108.818 90.2182 108.76 89.5359 109.137Z" fill="#E7E6F1"/>
</g>
<path d="M109.883 123.014L111.387 122.201L111.34 136.208L109.821 137.035L109.883 123.014Z" fill="#CFCDE2"/>
<path d="M92.2343 109.384L93.7384 108.571L107.602 116.061L106.097 116.888L92.2343 109.384Z" fill="#E7E6F1"/>
<path d="M106.099 116.888L107.603 116.061C109.696 117.193 111.387 119.936 111.387 122.186L109.883 123.014C109.883 120.764 108.192 118.02 106.099 116.888Z" fill="#E7E6F1"/>
<mask id="mask22_806_2451" style="mask-type:luminance" maskUnits="userSpaceOnUse" x="106" y="116" width="6" height="8">
<path d="M106.097 116.888L107.601 116.061C109.695 117.193 111.385 119.936 111.385 122.186L109.881 123.014C109.881 120.764 108.19 118.02 106.097 116.888Z" fill="white"/>
</mask>
<g mask="url(#mask22_806_2451)">
<path d="M106.097 116.888L107.602 116.061C108.253 116.409 108.858 116.917 109.4 117.512L107.896 118.34C107.369 117.745 106.749 117.237 106.097 116.888Z" fill="#E7E6F1"/>
<path d="M107.896 118.34L109.4 117.512C110.594 118.848 111.385 120.633 111.385 122.186L109.881 123.014C109.881 121.46 109.09 119.675 107.896 118.34Z" fill="#CFCDE2"/>
</g>
<path d="M106.099 116.888C108.193 118.02 109.883 120.764 109.883 123.014L109.836 137.02C109.836 139.27 108.131 140.185 106.037 139.053L92.174 131.563C90.0805 130.431 88.3903 127.687 88.3903 125.438L88.4368 111.431C88.4368 109.181 90.1426 108.266 92.236 109.399L106.099 116.888Z" fill="#F4F4FB"/>
<g opacity="0.4">
<path opacity="0.4" d="M17.5669 83.7797C7.95263 91.1243 3.1455 99.7606 3.17651 108.397L3.23853 128.703C3.20751 120.067 8.01464 111.431 17.6289 104.086L17.5669 83.7797Z" fill="#5762E3"/>
<path opacity="0.5" d="M159.051 71.1954C159.051 69.4826 158.849 67.7844 158.462 66.0861L158.493 77.0594C158.88 78.7576 159.067 80.4704 159.082 82.1686C159.082 78.5108 159.067 74.8531 159.051 71.1954Z" fill="#5762E3"/>
<path opacity="0.5" d="M136.795 149.097C149.387 142.144 156.675 133.406 158.645 124.392L158.614 114.246C157.869 117.687 156.334 121.068 154.039 124.349L154.008 114.203C150.286 119.515 144.518 124.494 136.733 128.805L136.795 149.111V149.097Z" fill="#5762E3"/>
<path opacity="0.5" d="M153.977 103.593C157.404 98.7156 159.11 93.5483 159.094 88.3955L159.156 109.152C159.156 110.85 158.986 112.563 158.614 114.247L158.582 104.101C157.838 107.541 156.303 110.923 154.008 114.203L153.977 103.593Z" fill="#5762E3"/>
<path opacity="0.75" d="M154.039 124.349C156.334 121.083 157.853 117.687 158.613 114.246L158.582 104.101C157.838 107.541 156.303 110.923 154.008 114.203L154.039 124.349Z" fill="#5762E3"/>
<path opacity="0.5" d="M151.557 89.4261C156.566 83.6782 159.063 77.4368 159.047 71.2099C159.047 72.9517 159.047 75.2595 159.063 76.9868C159.063 78.5399 159.063 80.6301 159.078 82.1831C159.094 88.41 156.597 94.6514 151.588 100.399L151.557 89.4261Z" fill="#5762E3"/>
<path opacity="0.5" d="M12.6934 80.8913C7.68464 75.1434 5.18803 68.902 5.20354 62.6751C5.20354 64.4024 5.20354 66.7248 5.18804 68.452C5.18804 70.0051 5.18802 72.0953 5.17252 73.6484C5.15701 79.8752 7.65362 86.1166 12.6623 91.8645L12.6934 80.8913Z" fill="#5762E3"/>
<path opacity="0.5" d="M3.17649 108.397C3.17649 108.818 3.1765 109.253 3.20751 109.674L3.26953 129.981C3.23852 129.56 3.23851 129.124 3.23851 128.703L3.17649 108.397Z" fill="#5762E3"/>
<path opacity="0.5" d="M8.99099 116.017C11.224 118.949 14.0772 121.765 17.5663 124.421V117.599C19.9699 119.443 22.6991 121.199 25.7384 122.839C35.3837 128.079 46.9518 131.664 59.2488 133.566V140.388C84.2148 144.263 112.112 141.273 132.674 131.418L132.612 110.661C101.924 125.379 54.9068 124.799 25.7074 108.905C18.2951 104.87 12.7126 100.225 8.94447 95.261L9.00648 116.017H8.99099Z" fill="#5762E3"/>
<path opacity="0.75" d="M17.5486 117.585C19.9677 119.428 22.7124 121.185 25.7362 122.825C35.3815 128.065 46.9496 131.65 59.2466 133.551V140.373H59.2621L59.3086 153.858C47.0116 151.942 35.4435 148.371 25.7982 143.131C22.7589 141.476 20.0297 139.72 17.6106 137.891L17.5641 124.407V117.585H17.5486Z" fill="#5762E3"/>
<path opacity="0.5" d="M159.051 71.1953C159.051 69.4825 158.849 67.7843 158.462 66.0861L158.493 77.0593C158.88 78.7576 159.067 80.4703 159.082 82.1685C159.082 78.5108 159.067 74.853 159.051 71.1953Z" fill="#5762E3"/>
<path opacity="0.5" d="M23.7649 89.8905C26.184 91.7339 28.9132 93.4902 31.9525 95.1303C41.5978 100.37 53.1659 103.955 65.4629 105.857L65.4164 92.3725C53.1194 90.4565 41.5513 86.8859 31.906 81.646C28.8667 79.9913 26.1375 78.235 23.7184 76.4061L23.7649 89.8905Z" fill="#5762E3"/>
<path opacity="0.5" d="M3.17259 108.397C3.17259 108.818 3.17259 109.253 3.20361 109.674L3.26562 129.981C3.23461 129.56 3.2346 129.124 3.2346 128.703L3.17259 108.397Z" fill="#5762E3"/>
<path opacity="0.5" d="M8.98708 116.017C11.2201 118.949 14.0733 121.765 17.5624 124.421V117.599C19.966 119.443 22.6952 121.199 25.7345 122.839C35.3798 128.079 46.9479 131.664 59.2449 133.566V140.388C84.2109 144.263 112.108 141.273 132.67 131.418L132.608 110.661C101.92 125.379 54.9029 124.799 25.7035 108.905C18.2912 104.87 12.7087 100.225 8.94056 95.261L9.00258 116.017H8.98708Z" fill="#5762E3"/>
<path opacity="0.5" d="M92.5077 162.349C107.022 161.173 121.071 157.791 132.748 152.188L132.717 141.026C121.04 146.629 107.007 150.011 92.4767 151.187L92.5077 162.349Z" fill="#5762E3"/>
<path opacity="0.5" d="M92.5116 162.349C107.026 161.173 121.075 157.791 132.752 152.188L132.721 141.026C121.044 146.629 107.011 150.011 92.4806 151.187L92.5116 162.349Z" fill="#5762E3"/>
</g>
<path d="M163.18 103.723C163.211 115.379 154.806 127.034 138.074 135.772C105.557 152.74 53.9186 152.247 22.7188 134.684C7.58409 126.149 0.0322266 115.161 0.0012207 104.173L0.0632629 125.336C0.0942688 136.324 7.6306 147.311 22.7808 155.846C53.9807 173.424 105.619 173.903 138.136 156.935C154.868 148.197 163.273 136.541 163.242 124.886L163.18 103.723Z" fill="#EBEEFC"/>
<path d="M0.0618858 125.336L-0.000156403 104.173C0.030859 115.161 7.56721 126.149 22.7174 134.684C23.3222 135.017 23.927 135.351 24.5317 135.671L24.5938 156.833C23.989 156.514 23.3687 156.18 22.7794 155.846C7.64474 147.311 0.0928993 136.324 0.0618858 125.336Z" fill="#EBEEFC"/>
<path d="M93.9884 168.823L93.9264 147.66C109.976 146.31 125.467 142.347 138.074 135.772C154.806 127.034 163.211 115.379 163.18 103.723L163.242 124.886C163.273 136.541 154.868 148.197 138.136 156.935C125.529 163.51 110.038 167.473 93.9884 168.823Z" fill="#EBEEFC"/>
<path d="M57.9052 201.075C41.2509 182.133 24.612 163.191 7.9576 144.249C11.6172 148.415 16.5639 152.334 22.7822 155.846C53.982 173.424 105.62 173.903 138.138 156.935C145.55 153.074 151.319 148.632 155.459 143.871C138.929 162.9 122.398 181.929 105.868 200.958C104.519 202.512 102.643 203.949 100.239 205.211C89.6633 210.727 72.8849 210.567 62.7434 204.863C60.7275 203.716 59.1148 202.454 57.9207 201.089L57.9052 201.075Z" fill="#DADFF6"/>
<path d="M2.79369 103.709C2.6076 114.363 10.1905 124.567 24.1467 132.434C39.1728 140.896 59.4868 145.57 81.3205 145.57C103.154 145.57 121.778 141.273 136.696 133.479C151.474 125.771 159.832 115.611 160.344 104.812C161.274 104.855 162.204 104.899 163.135 104.884C162.623 116.148 154.234 127.324 138.06 135.758C122.181 144.046 101.728 148.168 81.3205 148.168C60.9134 148.168 38.6611 143.654 22.7045 134.655C7.43024 126.047 -0.10611 114.943 0.00244141 103.854C0.932846 103.796 1.84776 103.665 2.79369 103.607C2.79369 103.636 2.79369 103.665 2.79369 103.68V103.709Z" fill="#F4F4FA"/>
</svg>
