<svg width="375" height="1543" viewBox="0 0 375 1543" fill="none" xmlns="http://www.w3.org/2000/svg">
<g clip-path="url(#clip0_2750_15442)">
<path style="mix-blend-mode:multiply" d="M290.224 -22.6642C285.707 -21.2069 250.725 -11.913 246.19 -10.4557C241.636 -8.95557 237.119 -7.49827 232.731 -6.04098C228.306 -4.58368 224.029 -3.12639 219.955 -1.66909C215.88 -0.254658 212.008 1.20263 208.469 2.53134C204.505 4.07436 200.983 5.4888 197.905 6.86037C194.807 8.23194 192.134 9.56065 189.903 10.8036C187.654 12.0466 185.847 13.2467 184.464 14.3612C183.082 15.4756 182.123 16.59 181.607 17.5758C181.09 18.6045 180.998 19.5474 181.367 20.4475C181.736 21.3476 182.547 22.2048 183.819 22.9763C185.091 23.7907 186.843 24.5194 189.055 25.2051C191.286 25.8909 193.996 26.5339 197.204 27.1339C200.098 27.6483 203.38 28.1197 206.938 28.5912C210.515 29.0198 214.387 29.4484 218.443 29.8342C222.536 30.22 226.813 30.5628 231.182 30.9486C235.589 31.2915 240.069 31.6344 244.567 31.9773C249.029 32.3202 253.564 32.6631 258.063 33.0488C262.598 33.3917 267.078 33.7775 271.429 34.2061C275.817 34.6347 280.039 35.0633 284.022 35.5348C288.041 36.0063 291.783 36.5635 295.194 37.1635C298.605 37.7636 301.573 38.4065 304.136 39.0923C306.717 39.7781 308.837 40.5496 310.533 41.3211C312.229 42.0926 313.483 42.9499 314.276 43.8499C315.087 44.75 315.419 45.693 315.29 46.6788C315.161 47.6646 314.534 48.779 313.465 49.9363C312.359 51.1793 310.773 52.4651 308.69 53.8367C306.606 55.2511 304.044 56.7513 300.965 58.38C297.886 60.0088 294.291 61.7232 290.198 63.5663C286.142 65.3665 281.606 67.2524 276.758 69.224C271.89 71.1957 266.673 73.2102 261.216 75.2675C255.74 77.3677 250.061 79.4251 244.254 81.5682C238.428 83.7113 232.51 85.8544 226.61 87.9546L226.241 88.0831C220.213 90.2691 214.11 92.4979 208.045 94.6838C201.942 96.9555 195.877 99.1414 189.977 101.413C184.04 103.642 178.251 105.914 172.739 108.1C167.208 110.328 161.935 112.514 157.086 114.657C151.666 117.058 146.817 119.372 142.54 121.558C138.225 123.787 134.483 125.93 131.312 127.987C128.104 130.088 125.486 132.059 123.421 133.988C121.338 135.96 119.844 137.803 118.922 139.603C118.001 141.403 117.632 143.16 117.872 144.832C118.111 146.546 118.941 148.175 120.397 149.761C121.854 151.347 123.937 152.89 126.666 154.39C129.394 155.89 132.787 157.348 136.843 158.762C140.53 160.048 144.734 161.248 149.324 162.448C153.952 163.648 158.985 164.805 164.276 165.963C169.604 167.12 175.209 168.234 180.961 169.349C186.769 170.463 192.705 171.578 198.66 172.692C204.597 173.806 210.663 174.921 216.691 176.078C222.775 177.235 228.804 178.435 234.667 179.678C240.585 180.921 246.3 182.25 251.684 183.622C257.104 184.993 262.193 186.451 266.765 187.951C271.393 189.494 275.449 191.08 278.915 192.708C282.418 194.337 285.312 196.052 287.598 197.852C289.884 199.609 291.581 201.452 292.613 203.338C293.664 205.224 294.069 207.153 293.793 209.124C293.535 211.096 292.576 213.282 290.935 215.554C289.294 217.868 286.953 220.354 283.911 222.969C280.85 225.626 277.071 228.455 272.572 231.412C268.037 234.413 262.783 237.585 256.772 240.885C250.799 244.185 244.143 247.614 237.008 251.129C229.818 254.643 222.112 258.287 214.073 261.973C205.98 265.702 197.536 269.474 188.926 273.245C180.242 277.103 171.411 280.96 162.562 284.818L162.009 285.075C152.975 289.018 143.793 293.005 134.63 297.076C125.412 301.148 116.212 305.263 107.215 309.378C98.1445 313.535 89.2581 317.693 80.7588 321.85C72.1858 326.051 64 330.208 56.3857 334.366C47.868 338.995 40.1431 343.496 33.2479 347.91C26.2789 352.368 20.1026 356.74 14.756 361.026C9.35413 365.355 4.78189 369.598 1.03928 373.799C-2.74023 378.042 -5.69009 382.2 -7.8103 386.314C-9.94894 390.472 -11.2395 394.587 -11.6451 398.658C-12.0691 402.773 -11.5898 406.845 -10.207 410.96C-8.78741 415.074 -6.46445 419.189 -3.14584 423.304C0.209595 427.461 4.54224 431.619 9.90726 435.819C14.7929 439.677 20.4714 443.492 26.7951 447.264C33.1926 451.121 40.2354 454.979 47.739 458.793C55.3349 462.694 63.41 466.594 71.7249 470.495C80.1689 474.438 88.8709 478.424 97.6467 482.41C106.478 486.439 115.493 490.597 124.527 494.84C133.672 499.126 142.798 503.541 151.666 508.084C160.681 512.67 169.42 517.385 177.661 522.186C186.031 527.072 193.867 532.087 200.91 537.23C208.1 542.502 214.387 547.817 219.752 553.218C225.172 558.704 229.634 564.19 233.1 569.762C236.621 575.377 239.092 581.078 240.493 586.778C241.931 592.565 242.281 598.351 241.525 604.137C240.751 610.009 238.778 616.224 235.607 622.782C232.399 629.425 227.938 636.455 222.241 643.784C216.47 651.242 209.409 659.043 201.02 667.187C192.54 675.459 182.713 684.074 171.522 693.075C160.276 702.119 147.757 711.42 134.262 720.935C120.582 730.579 105.906 740.48 90.5302 750.51C74.9329 760.668 58.6165 771.04 41.8946 781.498C24.933 792.128 7.54736 802.844 -9.93048 813.645L-10.419 813.873L-10.9076 814.245C-28.8279 825.303 -47.1538 836.619 -65.5719 848.148C-84.2666 859.807 -103.072 871.722 -121.656 883.852C-140.516 896.11 -159.174 908.583 -177.279 921.185C-195.679 934 -213.525 947.03 -230.45 960.146C-249.661 975.062 -267.544 990.02 -284.063 1005.02C-300.896 1020.32 -316.346 1035.67 -330.394 1051.14C-344.738 1066.96 -357.643 1082.9 -369.129 1099.1C-380.874 1115.65 -391.124 1132.41 -399.918 1149.55C-408.952 1167.12 -416.438 1185.04 -422.374 1203.43C-428.458 1222.29 -432.883 1241.62 -435.648 1261.55C-438.469 1282.04 -439.539 1303.25 -438.746 1325.24C-437.916 1347.91 -435.169 1371.49 -430.357 1396.13C-425.951 1419.06 -419.775 1442.68 -412.234 1467.07C-404.435 1492.23 -395.143 1518.16 -384.745 1544.91C-373.997 1572.55 -362.031 1601.06 -349.292 1630.46C-336.091 1660.85 -322.042 1692.22 -307.607 1724.45C-292.747 1757.54 -297.079 1751.63 -297.079 1751.63L-227.703 1753C-243.669 1719.1 -259.451 1686.56 -274.513 1655.49C-288.949 1625.74 -303.016 1596.77 -316.272 1568.65C-329.067 1541.43 -341.124 1514.99 -351.983 1489.36C-362.511 1464.54 -371.95 1440.45 -379.933 1417.18C-387.658 1394.59 -394.037 1372.69 -398.702 1351.56C-403.274 1330.86 -406.187 1311.1 -407.514 1292.15C-408.805 1273.68 -408.602 1256.06 -406.961 1239.13C-405.339 1222.63 -402.334 1206.77 -398.001 1191.64C-393.742 1176.81 -388.193 1162.58 -381.353 1148.95C-374.661 1135.62 -366.364 1122.12 -356.519 1108.4C-346.84 1094.95 -335.667 1081.36 -323.057 1067.6C-310.686 1054.1 -296.914 1040.47 -281.832 1026.75C-267.009 1013.25 -250.896 999.664 -233.566 986.034C-216.659 972.704 -198.739 959.46 -180.229 946.344C-162.013 933.443 -143.171 920.67 -124.108 908.112C-105.321 895.725 -86.2946 883.509 -67.3787 871.508C-48.7209 859.678 -30.1923 848.105 -12.0507 836.747L-11.0367 836.147C6.9574 824.874 24.8408 813.645 42.3002 802.586C59.5199 791.657 76.2972 780.856 92.3738 770.226C108.211 759.725 123.347 749.395 137.47 739.28C151.408 729.293 164.368 719.478 176.076 709.92C188.926 699.419 200.135 689.346 209.778 679.616C219.254 670.015 227.2 660.843 233.653 651.885C240.014 643.098 244.955 634.655 248.531 626.425C252.034 618.324 254.21 610.523 255.113 602.937C255.998 595.479 255.648 588.235 254.062 581.249C252.514 574.348 249.748 567.619 245.84 561.061C241.986 554.589 237.008 548.331 230.906 542.202C224.914 536.159 217.834 530.286 209.685 524.543C202.514 519.4 194.568 514.471 186.105 509.627C177.79 504.87 168.978 500.283 159.925 495.783C151.02 491.368 141.857 487.082 132.695 482.882C123.661 478.767 114.627 474.738 105.796 470.795C97.1489 466.937 88.5575 463.122 80.2242 459.308C72.0199 455.536 64.0553 451.807 56.5701 448.078C49.177 444.392 42.2449 440.749 35.9396 437.062C29.7265 433.419 24.1402 429.819 19.3651 426.176C14.627 422.575 10.7368 419.018 7.65796 415.503C4.63437 412.031 2.40356 408.559 0.965515 405.131C-0.454102 401.744 -1.0994 398.401 -0.970367 395.058C-0.841309 391.758 0.0252686 388.5 1.64767 385.286C3.25165 382.114 5.66684 378.771 8.91165 375.256C12.1012 371.827 16.1019 368.184 20.877 364.455C25.5967 360.726 31.0908 356.911 37.3039 352.968C43.4617 349.068 50.357 344.996 57.9528 340.838C65.4565 336.723 73.587 332.566 82.1047 328.365C90.5486 324.208 99.3982 320.05 108.469 315.85C117.466 311.692 126.666 307.578 135.902 303.463C145.065 299.391 154.265 295.362 163.318 291.376L163.889 291.119C172.886 287.175 181.902 283.189 190.751 279.289C199.527 275.388 208.137 271.488 216.415 267.673C224.619 263.859 232.491 260.173 239.866 256.486C247.185 252.886 254.007 249.329 260.183 245.9C267.023 242.085 272.997 238.442 278.103 234.97C283.174 231.541 287.414 228.241 290.825 225.112C294.217 221.983 296.817 219.025 298.623 216.197C300.43 213.411 301.463 210.71 301.758 208.139C302.053 205.61 301.628 203.167 300.485 200.852C299.342 198.58 297.499 196.352 294.936 194.294C292.392 192.237 289.165 190.265 285.257 188.379C281.367 186.493 276.813 184.736 271.577 183.022C266.912 181.521 261.75 180.064 256.256 178.693C250.817 177.321 245.047 176.035 239.092 174.835C233.211 173.592 227.145 172.435 221.024 171.278C214.977 170.12 208.911 169.049 202.938 167.977C197.075 166.906 191.212 165.834 185.478 164.763C179.8 163.691 174.269 162.619 169.014 161.505C163.815 160.391 158.856 159.319 154.321 158.162C149.822 157.005 145.711 155.847 142.116 154.604C138.539 153.404 135.515 152.161 133.045 150.875C130.593 149.59 128.657 148.304 127.274 146.975C125.891 145.689 125.043 144.318 124.712 142.946C124.38 141.574 124.582 140.203 125.301 138.788C126.002 137.374 127.256 135.874 129.044 134.245C130.832 132.659 133.155 130.945 135.976 129.145C138.779 127.387 142.134 125.501 145.969 123.53C149.785 121.558 154.099 119.544 158.911 117.4C163.668 115.3 168.867 113.114 174.361 110.886C179.818 108.7 185.57 106.471 191.47 104.199C197.351 101.97 203.399 99.7415 209.501 97.4698C215.548 95.241 221.651 93.0551 227.661 90.8263L228.048 90.6977C234.04 88.5118 240.069 86.3258 245.987 84.1399C251.868 81.9968 257.657 79.8537 263.225 77.7106C268.756 75.6104 274.084 73.5531 279.062 71.5386C284.022 69.5669 288.649 67.5953 292.834 65.7094C297.499 63.6092 301.555 61.6375 305.021 59.7516C308.468 57.9086 311.363 56.1512 313.686 54.4796C315.991 52.808 317.742 51.3079 318.94 49.8506C320.139 48.3933 320.821 47.0217 320.968 45.7787C321.116 44.5357 320.747 43.3356 319.862 42.2212C318.996 41.1068 317.613 40.0781 315.714 39.1352C313.852 38.1922 311.455 37.335 308.579 36.5206C305.721 35.7491 302.347 35.0205 298.513 34.3347C295.047 33.7346 291.23 33.2203 287.174 32.7059C283.137 32.2344 278.859 31.8058 274.453 31.3772C270.065 30.9486 265.548 30.6057 260.994 30.22C256.477 29.8342 251.924 29.5342 247.425 29.1913C243 28.8912 238.557 28.5484 234.225 28.2055C229.91 27.8626 225.688 27.5197 221.651 27.1339C217.65 26.7482 213.852 26.3624 210.331 25.9338C206.846 25.5052 203.62 25.0337 200.799 24.5622C197.978 24.0479 195.563 23.5335 193.554 22.9335C191.562 22.3763 189.958 21.7333 188.778 21.0904C187.599 20.4475 186.806 19.7617 186.419 19.0331C186.013 18.3044 186.031 17.5758 186.419 16.7614C186.806 15.9899 187.617 15.1327 188.815 14.1897C190.014 13.2467 191.618 12.2181 193.609 11.1465C195.6 10.075 197.978 8.91772 200.744 7.7176C203.491 6.47461 206.625 5.18876 210.128 3.86005C213.594 2.53134 217.41 1.11691 221.448 -0.297522C225.467 -1.75482 229.708 -3.16925 234.095 -4.66941C238.465 -6.12671 242.963 -7.62686 247.499 -9.08416C251.997 -10.5415 289.903 -22.5427 294.401 -24L259.829 -13.0116" fill="url(#paint0_linear_2750_15442)"/>
<g clip-path="url(#clip1_2750_15442)">
<path style="mix-blend-mode:multiply" d="M201.735 458.909C198.632 461.168 174.054 477.856 170.937 480.121C167.817 482.411 164.714 484.671 161.711 486.882C158.679 489.107 155.762 491.278 153.001 493.373C150.23 495.451 147.627 497.472 145.246 499.318C142.595 501.408 140.252 503.282 138.24 504.975C136.214 506.675 134.506 508.201 133.116 509.529C131.712 510.863 130.64 512.017 129.873 512.98C129.106 513.942 128.668 514.748 128.537 515.338C128.419 515.946 128.605 516.362 129.138 516.591C129.67 516.82 130.533 516.868 131.731 516.71C132.94 516.571 134.497 516.219 136.4 515.68C138.317 515.134 140.595 514.394 143.246 513.452C145.631 512.592 148.304 511.571 151.192 510.448C154.082 509.3 157.201 508.044 160.452 506.702C163.73 505.347 167.141 503.906 170.634 502.449C174.144 500.96 177.711 499.445 181.293 497.922C184.846 496.413 188.456 494.877 192.049 493.372C195.659 491.836 199.238 490.338 202.729 488.904C206.248 487.457 209.639 486.072 212.855 484.792C216.1 483.499 219.155 482.342 221.963 481.326C224.772 480.309 227.249 479.474 229.424 478.805C231.612 478.13 233.467 477.659 234.994 477.346C236.52 477.032 237.726 476.916 238.587 476.989C239.463 477.054 239.978 477.313 240.148 477.761C240.318 478.208 240.137 478.891 239.624 479.755C239.107 480.668 238.229 481.775 236.99 483.1C235.762 484.443 234.185 485.998 232.244 487.795C230.303 489.593 227.985 491.615 225.316 493.874C222.664 496.102 219.664 498.542 216.444 501.132C213.21 503.729 209.716 506.473 206.048 509.322C202.378 512.196 198.538 515.127 194.622 518.141C190.692 521.162 186.69 524.216 182.691 527.247L182.44 527.435C178.365 530.548 174.243 533.705 170.139 536.832C166.029 540.006 161.925 543.133 157.973 546.233C153.98 549.329 150.113 552.388 146.438 555.31C142.76 558.257 139.27 561.09 136.097 563.75C132.552 566.725 129.426 569.454 126.708 571.92C123.973 574.417 121.658 576.668 119.763 578.673C117.85 580.709 116.36 582.476 115.287 584.02C114.212 585.589 113.558 586.888 113.336 587.958C113.114 589.028 113.309 589.877 113.953 590.466C114.608 591.072 115.697 591.426 117.26 591.531C118.823 591.636 120.861 591.492 123.387 591.092C125.913 590.693 128.942 590.03 132.474 589.106C135.684 588.265 139.272 587.199 143.159 585.99C147.076 584.767 151.295 583.378 155.714 581.892C160.161 580.394 164.812 578.775 169.576 577.102C174.384 575.409 179.292 573.668 184.214 571.921C189.121 570.18 194.129 568.391 199.12 566.634C204.154 564.856 209.156 563.115 214.042 561.454C218.97 559.772 223.765 558.2 228.314 556.767C232.892 555.321 237.236 554.033 241.192 552.952C245.202 551.868 248.78 551.013 251.913 550.393C255.075 549.76 257.788 549.386 260.054 549.271C262.307 549.139 264.126 549.26 265.443 549.643C266.774 550.019 267.616 550.651 267.942 551.553C268.281 552.447 268.136 553.688 267.486 555.215C266.847 556.759 265.712 558.631 264.069 560.815C262.424 563.023 260.268 565.565 257.589 568.426C254.894 571.317 251.689 574.544 247.932 578.101C244.204 581.645 239.982 585.494 235.413 589.554C230.8 593.634 225.822 597.957 220.599 602.421C215.345 606.922 209.83 611.569 204.187 616.278C198.511 621.049 192.72 625.875 186.914 630.707L186.556 631.016C180.631 635.951 174.604 640.958 168.614 645.993C162.582 651.048 156.575 656.114 150.726 661.105C144.831 666.141 139.08 671.108 133.628 675.933C128.131 680.802 122.922 685.511 118.157 690.009C112.82 695.031 108.063 699.709 103.925 704.045C99.7419 708.426 96.15 712.48 93.1778 716.192C90.1746 719.942 87.7911 723.351 86.039 726.436C84.2702 729.552 83.121 732.327 82.6034 734.778C82.0832 737.253 82.2088 739.398 83.0088 741.198C83.8062 743.023 85.2923 744.497 87.4905 745.654C89.7173 746.798 92.6445 747.608 96.3435 748.05C100.083 748.496 104.58 748.581 109.889 748.303C114.733 748.062 120.179 747.511 126.115 746.704C132.13 745.905 138.646 744.868 145.508 743.643C152.465 742.418 159.793 741.017 167.307 739.527C174.933 738.007 182.77 736.409 190.665 734.783C198.615 733.155 206.743 731.51 214.908 729.894C223.171 728.254 231.454 726.673 239.573 725.239C247.818 723.769 255.884 722.452 263.587 721.355C271.414 720.244 278.861 719.383 285.729 718.867C292.747 718.348 299.076 718.181 304.713 718.388C310.417 718.61 315.378 719.186 319.59 720.165C323.857 721.141 327.333 722.539 329.98 724.332C332.678 726.147 334.533 728.363 335.531 730.988C336.538 733.655 336.709 736.903 336.046 740.732C335.377 744.61 333.842 749.108 331.431 754.183C328.998 759.338 325.658 765.108 321.384 771.507C317.072 777.993 311.812 785.115 305.599 792.897C299.355 800.717 292.195 809.111 284.336 817.953C276.369 826.915 267.701 836.349 258.525 846.094C249.213 855.973 239.402 866.204 229.299 876.62C219.058 887.193 208.512 897.959 197.917 908.793L197.601 909.066L197.324 909.397C186.457 920.498 175.346 931.854 164.222 943.331C152.919 954.961 141.6 966.737 130.512 978.519C119.244 990.454 108.192 1002.4 97.6047 1014.2C86.8469 1026.19 76.5766 1038.06 67.0444 1049.63C56.2326 1062.77 46.4617 1075.44 37.7603 1087.62C28.8979 1100.04 21.1191 1111.97 14.4621 1123.43C7.67018 1135.14 2.02831 1146.37 -2.44247 1157.18C-7.01953 1168.22 -10.3801 1178.8 -12.5059 1189C-14.7002 1199.46 -15.6 1209.49 -15.17 1219.14C-14.7254 1229.03 -12.8653 1238.5 -9.55446 1247.6C-6.13398 1256.95 -1.15626 1265.94 5.47641 1274.56C12.3253 1283.45 20.9069 1291.99 31.383 1300.21C41.0753 1307.87 52.3276 1315.17 64.8488 1322.27C77.7812 1329.59 92.0825 1336.67 107.464 1343.67C123.364 1350.91 140.442 1358.04 158.367 1365.25C176.918 1372.7 196.397 1380.23 216.411 1387.96C236.989 1395.89 421 1479.5 421 1479.5L439.5 1436.16C417.842 1428.32 243.377 1354.82 223.194 1347.78C203.86 1341.06 185.024 1334.51 167.051 1328C149.682 1321.7 133.096 1315.43 117.661 1309.05C102.707 1302.88 88.7961 1296.6 76.2369 1290.11C64.0655 1283.81 53.1253 1277.29 43.7256 1270.44C34.5146 1263.74 26.8482 1256.81 20.634 1249.62C14.5773 1242.6 9.91313 1235.39 6.55155 1227.92C3.29297 1220.63 1.28245 1213.09 0.500493 1205.36C-0.256561 1197.77 0.151203 1189.95 1.72377 1181.9C3.2641 1174.03 6.00108 1165.49 9.88011 1156.29C13.7009 1147.26 18.6444 1137.63 24.6558 1127.39C30.5517 1117.35 37.4989 1106.74 45.4374 1095.61C53.2344 1084.66 62.0086 1073.2 71.7144 1061.27C81.1736 1049.63 91.4424 1037.64 102.204 1025.49C112.795 1013.53 123.908 1001.39 135.25 989.258C146.426 977.298 157.834 965.319 169.214 953.467C180.442 941.781 191.64 930.246 202.597 918.941L203.219 918.323C214.084 907.107 224.876 895.95 235.385 885.019C245.745 874.228 255.796 863.653 265.351 853.406C274.755 843.299 283.663 833.521 291.844 824.205C299.917 815.008 307.279 806.243 313.74 798.044C320.828 789.041 326.762 780.817 331.575 773.312C336.294 765.92 339.945 759.266 342.496 753.252C345.022 747.341 346.542 742.093 347.063 737.436C347.562 732.858 347.113 728.892 345.737 725.483C344.382 722.133 342.128 719.326 338.986 717.079C335.897 714.854 331.911 713.147 327.086 711.933C322.327 710.732 316.755 710.034 310.346 709.803C304.047 709.566 296.951 709.801 289.061 710.482C282.093 711.046 274.583 711.983 266.697 713.145C258.948 714.287 250.86 715.683 242.61 717.202C234.498 718.701 226.221 720.348 217.967 722.03C209.837 723.698 201.73 725.402 193.804 727.065C186.045 728.695 178.34 730.321 170.835 731.853C163.442 733.354 156.246 734.784 149.422 736.037C142.681 737.273 136.31 738.357 130.412 739.192C124.598 740.009 119.282 740.613 114.582 740.9C109.923 741.19 105.934 741.185 102.585 740.897C99.2904 740.607 96.6106 740.023 94.5572 739.164C92.5298 738.316 91.1145 737.199 90.2995 735.796C89.4963 734.411 89.2766 732.77 89.6546 730.868C90.0301 728.99 90.9876 726.742 92.5414 724.119C94.0757 721.551 96.1804 718.596 98.8619 715.321C101.501 712.066 104.716 708.491 108.454 704.597C112.161 700.742 116.392 696.544 121.143 692.054C125.835 687.614 131 682.926 136.455 678.077C141.863 673.273 147.586 668.319 153.469 663.266C159.307 658.257 165.313 653.192 171.348 648.112C177.338 643.077 183.368 638.046 189.295 633.086L189.668 632.771C195.564 627.85 201.463 622.904 207.257 618.054C212.993 613.232 218.601 608.471 223.975 603.867C229.291 599.29 234.386 594.888 239.095 590.67C243.784 586.507 248.099 582.546 251.949 578.874C256.208 574.802 259.842 571.119 262.851 567.825C265.844 564.562 268.228 561.658 270.016 559.13C271.79 556.609 272.996 554.45 273.622 552.636C274.26 550.839 274.322 549.363 273.847 548.212C273.383 547.077 272.386 546.244 270.866 545.728C269.358 545.229 267.319 545.006 264.769 545.119C262.233 545.225 259.192 545.617 255.646 546.296C252.113 546.968 248.102 547.938 243.573 549.177C239.546 550.291 235.145 551.607 230.51 553.08C225.918 554.533 221.092 556.143 216.147 557.856C211.247 559.525 206.227 561.296 201.165 563.087C196.16 564.852 191.164 566.658 186.239 568.43C181.401 570.161 176.562 571.892 171.823 573.575C167.127 575.238 162.546 576.846 158.167 578.335C153.831 579.804 149.693 581.201 145.86 582.407C142.056 583.6 138.551 584.649 135.424 585.473C132.322 586.307 129.638 586.92 127.371 587.311C125.118 587.696 123.265 587.89 121.829 587.862C120.405 587.851 119.372 587.608 118.739 587.175C118.107 586.742 117.889 586.111 118.059 585.272C118.215 584.44 118.776 583.368 119.717 582.048C120.67 580.744 122.001 579.191 123.696 577.42C125.387 575.672 127.473 573.668 129.906 571.453C132.325 569.244 135.119 566.834 138.263 564.188C141.376 561.58 144.809 558.773 148.458 555.84C152.091 552.939 155.941 549.911 159.893 546.811C163.843 543.735 167.921 540.598 172.031 537.423C176.109 534.286 180.242 531.146 184.292 528.023L184.557 527.828C188.604 524.728 192.68 521.615 196.67 518.544C200.643 515.503 204.545 512.496 208.275 509.57C211.988 506.676 215.556 503.874 218.864 501.219C222.17 498.588 225.218 496.08 227.946 493.769C230.988 491.195 233.593 488.898 235.764 486.853C237.933 484.833 239.696 483.051 241.039 481.516C242.369 479.987 243.316 478.732 243.846 477.698C244.376 476.665 244.53 475.857 244.304 475.299C244.078 474.74 243.464 474.39 242.473 474.265C241.496 474.133 240.142 474.227 238.412 474.546C236.71 474.852 234.617 475.389 232.165 476.121C229.738 476.864 226.923 477.815 223.762 478.953C220.91 479.99 217.811 481.191 214.525 482.481C211.266 483.781 207.832 485.187 204.299 486.641C200.78 488.088 197.184 489.617 193.548 491.143C189.94 492.654 186.327 494.215 182.746 495.737C179.233 497.25 175.694 498.752 172.241 500.213C168.803 501.668 165.436 503.088 162.2 504.423C158.992 505.744 155.942 506.991 153.095 508.117C150.276 509.231 147.646 510.231 145.329 511.082C143.002 511.915 140.989 512.599 139.266 513.098C137.57 513.607 136.15 513.939 135.06 514.114C133.969 514.289 133.167 514.304 132.667 514.152C132.153 514.006 131.968 513.704 132.045 513.231C132.134 512.775 132.529 512.128 133.2 511.303C133.871 510.478 134.833 509.469 136.083 508.299C137.334 507.129 138.861 505.782 140.676 504.274C142.466 502.755 144.544 501.076 146.896 499.244C149.22 497.425 151.791 495.442 154.535 493.378C157.252 491.302 160.152 489.163 163.144 486.934C166.133 484.729 169.21 482.46 172.327 480.194C175.416 477.942 201.52 459.076 204.608 456.824L180.812 474.048" fill="url(#paint1_linear_2750_15442)"/>
</g>
</g>
<defs>
<linearGradient id="paint0_linear_2750_15442" x1="192.042" y1="13.7768" x2="-711.451" y2="1291.15" gradientUnits="userSpaceOnUse">
<stop stop-color="#1F2846"/>
<stop offset="0.12937" stop-color="#5A488A"/>
<stop offset="0.346" stop-color="#24B0B3"/>
<stop offset="0.636" stop-color="#009AD6"/>
</linearGradient>
<linearGradient id="paint1_linear_2750_15442" x1="135.588" y1="509.944" x2="205.141" y2="1325.62" gradientUnits="userSpaceOnUse">
<stop stop-color="#1F2846"/>
<stop offset="0.12937" stop-color="#5A488A"/>
<stop offset="0.346" stop-color="#24B0B3"/>
<stop offset="0.636" stop-color="#009AD6"/>
</linearGradient>
<clipPath id="clip0_2750_15442">
<rect width="375" height="1543" fill="white"/>
</clipPath>
<clipPath id="clip1_2750_15442">
<rect width="375" height="336" fill="white" transform="translate(0 1197)"/>
</clipPath>
</defs>
</svg>
