<svg width="94" height="95" viewBox="0 0 94 95" fill="none" xmlns="http://www.w3.org/2000/svg">
<path d="M25.5216 0C26.2561 0.381898 26.567 1.04533 26.7922 1.80667C28.0676 6.12017 29.3773 10.4043 30.6381 14.7129C30.8388 15.4008 31.0812 15.6921 31.8621 15.6774C35.38 15.6236 38.9003 15.6529 42.4182 15.6529H43.4146C42.7854 13.1192 42.1905 10.7225 41.5932 8.32587C41.3484 7.31727 41.0742 6.31356 40.8367 5.30251C40.5405 4.03931 41.1795 3.1727 42.4794 3.13842C43.9482 3.09925 45.4171 3.13842 46.8859 3.13842C47.684 3.13842 48.1589 3.59131 48.5555 4.2327C50.7588 7.76282 52.962 11.2758 55.1457 14.8206C55.5276 15.44 55.9242 15.6848 56.6635 15.6823C60.7322 15.6823 64.8058 15.626 68.8696 15.768C73.8954 15.9418 78.1257 18.03 81.6729 21.5528C83.1075 22.9759 84.5355 24.4031 85.9571 25.8344C87.6707 27.5677 88.2019 29.5751 87.3353 31.5042C86.3879 33.6095 84.6424 34.4932 82.4 34.4932C73.1292 34.4932 63.8584 34.5055 54.5875 34.4712C54.2176 34.4421 53.847 34.5187 53.5189 34.6921C53.1908 34.8654 52.9187 35.1284 52.7343 35.4504C50.3548 38.934 47.9166 42.3785 45.4954 45.8351C44.6215 47.0837 44.2102 47.2183 42.7903 46.7507C41.5442 46.3394 40.2957 45.9331 39.0521 45.5071C37.6689 45.0346 37.3017 44.217 37.8893 42.8779C38.9713 40.3931 40.0681 37.945 41.1574 35.497C41.2798 35.2228 41.39 34.9437 41.5491 34.5642C40.3398 34.4443 39.2014 34.366 38.0704 34.2117C33.2306 33.5385 29.1521 31.3499 25.7053 27.9251C22.6329 24.8601 19.5851 21.7878 16.4883 18.7179C16.2118 18.4555 15.9942 18.1373 15.8499 17.7845C15.7056 17.4317 15.6378 17.0523 15.651 16.6713C15.651 11.8062 15.651 6.94108 15.651 2.07596C15.651 1.18241 15.9497 0.484717 16.7111 0H25.5216ZM55.7039 31.3475H74.7278C77.237 31.3475 79.7463 31.3475 82.2556 31.3475C83.1883 31.3475 84.0476 31.23 84.4588 30.2312C84.8701 29.2324 84.3389 28.6032 83.695 27.9765C82.9288 27.2298 82.1503 26.4881 81.4306 25.6973C81.2433 25.481 81.0088 25.3106 80.7452 25.1994C80.4816 25.0882 80.196 25.0391 79.9103 25.056C75.5968 25.0804 71.2833 25.0682 66.9674 25.0682H65.8756V21.8759H76.9629C76.7308 21.5624 76.4345 21.302 76.0938 21.1121C73.5369 19.5721 70.6033 18.7705 67.6186 18.7963C52.3802 18.7865 37.1418 18.7865 21.9034 18.7963C21.6424 18.8135 21.3826 18.8445 21.1249 18.8893C23.3282 21.1072 25.4604 23.1783 27.5168 25.3081C31.1253 29.0439 35.4632 31.1076 40.6776 31.3255C42.9127 31.4185 42.9201 31.4797 43.8356 29.4698C44.1318 28.8186 44.5064 28.2458 45.2824 28.2458C48.4943 28.2238 51.7086 28.1968 54.918 28.2458C56.076 28.2654 56.6561 29.3743 56.1886 30.4344C56.0784 30.6914 55.9315 30.924 55.7039 31.3475ZM27.534 15.5966C27.5467 15.4877 27.5467 15.3776 27.534 15.2686C26.3736 11.3811 25.2083 7.49516 24.0381 3.6109C23.9794 3.4224 23.7444 3.15556 23.5877 3.15311C22.016 3.11884 20.4419 3.13353 18.8678 3.13353V15.5966H27.534ZM41.2994 42.9072C41.5696 42.9811 41.8332 43.0769 42.0877 43.1937C42.9715 43.7176 43.439 43.3552 43.9727 42.5719C46.3229 39.1128 48.7464 35.7173 51.1431 32.29C51.3243 32.028 51.4956 31.7588 51.76 31.3622C49.9925 31.3622 48.4062 31.3401 46.8247 31.3842C46.6893 31.4198 46.5635 31.4851 46.4564 31.5752C46.3492 31.6654 46.2635 31.7783 46.2054 31.9056C44.5554 35.5361 42.9519 39.1862 41.2994 42.9072ZM51.9461 15.648C51.7257 15.2612 51.5886 15.0018 51.432 14.752C49.8848 12.2648 48.3344 9.77921 46.7807 7.29524C46.0462 6.10548 45.8602 6.03693 44.3448 6.40904C45.0793 9.3614 45.8137 12.3138 46.575 15.2612C46.6085 15.3516 46.6634 15.4324 46.7351 15.4968C46.8067 15.5612 46.8929 15.6072 46.9863 15.6309C48.5971 15.6676 50.203 15.648 51.9461 15.648Z" fill="#6449AC"/>
<path d="M0 70.1369C0.521438 69.7085 0.979226 69.1577 1.58145 68.8811C2.45233 68.501 3.35299 68.1931 4.27433 67.9606C4.47845 67.9191 4.66301 67.811 4.79904 67.6533C4.93507 67.4956 5.01486 67.2971 5.02588 67.0891C5.90718 62.1244 6.82766 57.1671 7.71875 52.2049C8.02966 50.4912 8.41645 50.1313 10.1301 50.1289H15.6603C15.6603 48.7629 15.6603 47.4605 15.6603 46.1581C15.6603 44.3588 16.1499 43.8765 17.9468 43.8765C19.6922 43.8765 21.4353 43.8643 23.1807 43.8765C24.4586 43.8765 25.0364 44.4322 25.0682 45.7126C25.1025 47.1447 25.0682 48.5793 25.0682 50.1191H30.5323C32.3316 50.1191 32.716 50.452 33.0293 52.2073C33.9033 57.079 34.7993 61.9482 35.6487 66.8247C35.7687 67.52 36.0502 67.8847 36.7381 68.0487C37.568 68.2519 38.3685 68.5653 39.1862 68.8395C40.655 69.3291 40.9953 70.0243 40.4714 71.4981C38.6501 76.6194 36.8238 81.74 34.9927 86.8597C34.8996 87.1045 34.8115 87.3762 34.6842 87.741C36.4713 88.0323 37.7884 89.0752 39.0564 90.2551C39.453 90.6248 40.0895 90.7448 40.7701 91.0336V94.0056H39.8521C38.3272 93.5819 36.9435 92.7577 35.8446 91.6187C34.787 90.5734 33.301 90.593 32.1333 91.6456C30.9656 92.6983 29.6657 93.6041 28.1014 94.0056H26.2653C24.7401 93.5738 23.3575 92.7431 22.2603 91.5991C21.7619 91.1076 21.09 90.832 20.3899 90.832C19.6899 90.832 19.018 91.1076 18.5196 91.5991C17.4153 92.7392 16.0308 93.569 14.5048 94.0056H12.6687C11.1044 93.5943 9.83144 92.7228 8.63433 91.6505C7.43723 90.5783 5.97818 90.5709 4.92061 91.6065C3.81645 92.739 2.43731 93.5656 0.918025 94.0056H0V90.8843C0.543471 90.7031 1.20935 90.6591 1.61083 90.3114C2.93523 89.1706 4.23271 88.0299 6.07365 87.7679C4.08582 82.2108 2.14206 76.7761 0.198293 71.3438C0.146509 71.2396 0.0815077 71.1425 0.00489531 71.055L0 70.1369ZM21.9298 66.4061V71.3291C21.9298 76.5925 21.9298 81.8558 21.9494 87.1192C21.9532 87.2988 21.9925 87.4759 22.0652 87.6402C22.1379 87.8045 22.2425 87.9527 22.3729 88.0764C23.2542 88.7643 24.2603 89.3004 25.1074 90.0348C26.3902 91.1267 28.0059 91.1658 29.2421 90.0103C29.6436 89.6333 30.0941 89.3102 30.4662 88.9087C30.8341 88.5659 31.1346 88.1575 31.3524 87.7043C32.1235 85.6797 32.8212 83.6282 33.5556 81.5841C34.7625 78.24 35.9352 74.9107 37.1494 71.4834L21.9298 66.4061ZM3.61334 71.4834C3.72351 71.8383 3.7945 72.1027 3.88508 72.3573C5.44695 76.7247 7.04064 81.0822 8.56333 85.4643C9.16556 87.2048 9.81919 88.7912 11.4153 89.9614C12.9038 91.0532 14.4118 91.1683 15.768 89.9173C16.4271 89.2877 17.1682 88.7499 17.9713 88.3187C18.5808 88.0078 18.806 87.714 18.8036 87.0286C18.7767 80.4849 18.7889 73.9412 18.7865 67.4C18.7865 67.1087 18.7571 66.8174 18.7351 66.4355L3.61334 71.4834ZM8.2965 66.5652C8.74939 66.4404 9.06764 66.3645 9.37854 66.2617C12.561 65.1992 15.7558 64.1637 18.926 63.0522C19.8701 62.7035 20.9085 62.7088 21.849 63.0669C25.1049 64.2004 28.3853 65.2702 31.6584 66.3473C31.8689 66.4159 32.0941 66.4404 32.432 66.5114C31.6217 62.0412 30.8334 57.6983 30.0402 53.3163H10.7005C9.90733 57.6885 9.1166 62.0363 8.2965 66.5579V66.5652ZM21.8833 47.0811H18.8721V50.0848H21.8833V47.0811Z" fill="#6449AC"/>
<path d="M56.9167 94.0057C56.0452 93.5945 55.0292 93.3448 54.3364 92.7327C53.4747 91.9714 52.8088 90.9505 52.1919 89.9591C51.9202 89.5184 51.739 89.2736 51.1907 89.2834C49.4183 89.3152 47.6459 89.3055 45.871 89.2834C44.4022 89.2834 43.8783 88.7375 43.8759 87.2882C43.8759 78.1765 43.8759 69.0657 43.8759 59.9556C43.8759 58.5137 44.4169 57.98 45.8857 57.9775C56.0354 57.9775 66.1859 57.9775 76.3372 57.9775C77.7767 57.9775 78.325 58.5284 78.3446 59.9752C78.3618 61.3485 78.3446 62.7219 78.3446 64.2397H79.3679C81.9066 64.2397 84.4452 64.2887 86.9789 64.2177C88.2177 64.1809 88.9374 64.6142 89.4833 65.7428C90.9326 68.7613 92.4871 71.7283 94 74.7174V88.1304C93.5961 89.0288 92.8812 89.3544 91.9314 89.303C91.077 89.2663 90.2177 89.3471 89.3683 89.2834C88.2005 89.1953 87.2507 89.2834 86.9202 90.7082C86.7929 91.2492 86.2641 91.7217 85.8577 92.177C84.8932 93.2346 83.5982 93.6826 82.2542 94.0131H80.4181C80.3471 93.9617 80.2835 93.8784 80.2027 93.8589C77.9529 93.3227 76.4253 91.9885 75.5832 89.8195C75.4853 89.5747 75.0006 89.3299 74.6921 89.3299C71.6026 89.2932 68.5132 89.3471 65.4262 89.2834C64.447 89.2638 63.9402 89.4842 63.5387 90.456C62.6697 92.5369 60.885 93.5382 58.7527 94.0057H56.9167ZM47.0437 86.1523C48.5566 86.1523 49.9617 86.1254 51.3669 86.1646C51.8982 86.1793 52.0108 85.8831 52.165 85.4889C52.6121 84.3083 53.4097 83.2927 54.4508 82.5785C55.4919 81.8643 56.7265 81.4858 57.989 81.4937C59.2346 81.488 60.4522 81.8625 61.4794 82.5672C62.5065 83.272 63.2941 84.2733 63.737 85.4375C63.9475 85.9908 64.2144 86.1719 64.7946 86.1572C68.004 86.1303 71.2159 86.145 74.4277 86.1401C74.6725 86.1401 74.8953 86.0985 75.1621 86.0716V61.1698H47.0437V86.1523ZM78.4181 67.4295V82.2061C82.7438 80.6613 85.2898 81.692 87.3927 85.7704C87.4352 85.858 87.4961 85.9352 87.5714 85.9969C87.6466 86.0586 87.7343 86.1033 87.8284 86.1279C88.8223 86.1597 89.8187 86.145 90.8077 86.145V76.7591C88.3597 76.7591 85.9752 76.7591 83.5933 76.7591C81.9971 76.7591 81.4977 76.2695 81.4855 74.7003C81.4855 73.8753 81.4855 73.0478 81.4855 72.2228V67.4295H78.4181ZM54.8628 87.7215C54.8542 88.5414 55.169 89.3316 55.7391 89.9209C56.3092 90.5102 57.0885 90.8511 57.9082 90.8698C58.7434 90.8738 59.5468 90.5493 60.1449 89.9663C60.7431 89.3833 61.088 88.5885 61.1053 87.7534C61.1037 87.3399 61.0205 86.9308 60.8604 86.5495C60.7003 86.1682 60.4665 85.8223 60.1724 85.5317C59.8783 85.241 59.5297 85.0112 59.1466 84.8556C58.7635 84.7 58.3535 84.6215 57.94 84.6247C57.5343 84.6251 57.1327 84.7055 56.7582 84.8615C56.3838 85.0175 56.0438 85.2459 55.7578 85.5337C55.4719 85.8214 55.2456 86.1628 55.092 86.5383C54.9384 86.9138 54.8605 87.3159 54.8628 87.7215ZM78.3642 87.7583C78.3661 88.5781 78.6904 89.3642 79.2671 89.9469C79.8438 90.5295 80.6266 90.8619 81.4463 90.8722C82.2823 90.8671 83.0827 90.5332 83.6746 89.9428C84.2664 89.3523 84.6022 88.5526 84.6092 87.7167C84.6022 87.3031 84.5137 86.895 84.3488 86.5157C84.1839 86.1364 83.9458 85.7933 83.6482 85.5061C83.3505 85.219 82.9992 84.9933 82.6142 84.842C82.2292 84.6908 81.8182 84.617 81.4047 84.6247C80.999 84.6298 80.5983 84.7151 80.2257 84.8755C79.853 85.0359 79.5157 85.2684 79.2332 85.5596C78.9506 85.8508 78.7284 86.1949 78.5793 86.5722C78.4302 86.9495 78.3571 87.3526 78.3642 87.7583ZM84.6876 67.4711V73.5913H89.8628L87.5567 68.94C86.7195 67.2631 86.7195 67.2631 84.8198 67.4026C84.7928 67.405 84.7683 67.4295 84.6876 67.4711Z" fill="#6449AC"/>
<path d="M40.8033 21.9885H43.8414V25.0094H40.8033V21.9885Z" fill="#6449AC"/>
<path d="M50.0937 22.0032V25.0192H47.0459V22.0032H50.0937Z" fill="#6449AC"/>
<path d="M37.5482 25.0217H34.5493V21.9788H37.5482V25.0217Z" fill="#6449AC"/>
<path d="M56.3434 21.9934V25.0094H53.3029V21.9934H56.3434Z" fill="#6449AC"/>
<path d="M62.6092 21.991V25.007H59.5712V21.991H62.6092Z" fill="#6449AC"/>
<path d="M14.1835 56.4351H26.578V59.4486H14.1835V56.4351Z" fill="#6449AC"/>
</svg>
