<svg width="94" height="94" viewBox="0 0 94 94" fill="none" xmlns="http://www.w3.org/2000/svg">
<path d="M41.859 94.0001C40.8554 93.5742 39.7661 93.2804 38.8701 92.6905C36.7674 91.3098 35.8274 89.2364 35.8739 86.7445C35.9058 86.4203 35.8491 86.0936 35.7098 85.7991C35.5706 85.5047 35.354 85.2536 35.0832 85.0725C34.2016 84.4257 33.4881 83.5769 33.0025 82.5972C32.5169 81.6175 32.2734 80.5356 32.2926 79.4423C32.2926 76.872 32.2412 74.3017 32.2926 71.7338C32.3513 69.2639 31.4505 67.1905 29.8667 65.3839C28.1727 63.455 26.4176 61.5774 24.7138 59.6583C24.3007 59.1663 23.9235 58.6452 23.5853 58.0989C23.0958 57.3278 23.2133 56.5249 23.8742 56.077C24.5351 55.629 25.2328 55.8101 25.808 56.4833C27.4971 58.4417 29.1837 60.4294 30.9071 62.3583C32.5643 64.2236 34.0894 66.1575 34.7258 68.6397C34.7772 68.8428 35.0538 69.1293 35.2154 69.1293C37.4699 69.1635 39.7269 69.1513 42.0328 69.1513V52.1921C40.8823 52.1921 39.7857 52.2484 38.6939 52.1799C37.4303 52.1051 36.2323 51.5922 35.3061 50.7295C34.3799 49.8667 33.7834 48.7081 33.6194 47.4529C33.4568 46.2141 33.7165 44.9567 34.3565 43.8836C34.9966 42.8105 35.9795 41.9845 37.1468 41.5388C40.8799 40.1386 44.6839 42.6575 44.8284 46.6353C44.8626 47.5435 44.8284 48.4566 44.8284 49.4015H49.6997C49.6997 48.3366 49.663 47.333 49.6997 46.3318C49.8221 43.6048 51.9175 41.507 54.7718 41.2083C56.0766 41.0651 57.3899 41.3877 58.4798 42.1192C59.5697 42.8507 60.3658 43.944 60.7276 45.2058C61.4473 47.8373 60.2013 50.6475 57.724 51.6927C56.9064 52.0379 55.9541 52.1138 55.0533 52.2019C54.2137 52.2851 53.3594 52.219 52.4708 52.219V69.1097H59.6309C59.7215 68.7645 59.8194 68.3606 59.9296 67.9591C60.566 65.6238 61.9075 63.6973 63.5378 61.9715C65.8144 59.5701 68.1179 57.1859 69.545 54.1382C73.9512 44.7921 73.0455 35.9502 66.9257 27.6322C66.7094 27.3753 66.5068 27.1073 66.3186 26.8292C66.1308 26.5607 66.0559 26.2293 66.1099 25.9061C66.1639 25.5829 66.3426 25.2939 66.6075 25.101C67.2048 24.6114 67.8877 24.6114 68.4189 25.1671C69.0193 25.8201 69.5707 26.5164 70.0688 27.2503C73.6506 32.3714 75.3715 38.5643 74.9453 44.7991C74.5191 51.034 71.9715 56.9351 67.7262 61.5211C66.6711 62.6692 65.594 63.7977 64.5806 64.9825C63.0186 66.7793 62.1924 69.0996 62.2673 71.4793C62.3114 74.0496 62.2673 76.6199 62.2796 79.1877C62.2918 81.7556 61.2416 83.7849 59.2025 85.3345C58.9523 85.526 58.7836 85.8048 58.7301 86.1154C58.38 90.9524 57.2834 92.3991 52.6911 93.9976L41.859 94.0001ZM35.1224 71.9688V76.5415H36.1995C40.3887 76.5415 44.5779 76.5415 48.7671 76.5415C49.0725 76.5255 49.3788 76.5353 49.6826 76.5709C50.3729 76.686 50.8698 77.1633 50.7866 77.812C50.7254 78.3016 50.297 78.7912 49.9127 79.1461C49.6948 79.3444 49.2175 79.2881 48.8552 79.2881C44.6121 79.2979 40.3617 79.2979 36.104 79.2881H35.1248C34.9314 81.736 36.9338 83.829 39.509 83.8804C41.6485 83.9245 43.788 83.8926 45.9299 83.8926C48.958 83.8926 51.9836 83.922 55.0117 83.8804C57.6408 83.8486 59.7509 81.6357 59.391 79.2881C58.4314 79.2881 57.4572 79.2881 56.4829 79.2881C55.3495 79.2881 54.7033 78.7545 54.718 77.8757C54.7326 77.0385 55.3569 76.5464 56.4315 76.5367C57.4327 76.5367 58.4314 76.5367 59.44 76.5367V71.9688H35.1224ZM49.663 69.1244V52.3047H44.9459V69.1807H49.1489C49.3213 69.1695 49.4929 69.1491 49.663 69.1195V69.1244ZM38.6988 86.6563C38.6316 87.2174 38.6819 87.7862 38.8464 88.3267C39.011 88.8673 39.2862 89.3677 39.6545 89.7961C40.0229 90.2246 40.4763 90.5717 40.9861 90.8154C41.4958 91.0592 42.0507 91.1942 42.6154 91.2119C45.7341 91.2984 48.8536 91.2984 51.9738 91.2119C52.537 91.1923 53.0899 91.0559 53.5974 90.8111C54.105 90.5664 54.5561 90.2188 54.9222 89.7904C55.2882 89.362 55.5611 88.8622 55.7236 88.3226C55.8861 87.7831 55.9346 87.2156 55.866 86.6563H38.6988ZM42.0402 49.448C42.0402 48.2632 42.1503 47.1616 42.0133 46.0919C41.837 44.7162 40.4148 43.7982 38.9534 43.9426C37.4332 44.0969 36.339 45.2719 36.3537 46.7382C36.3485 47.4341 36.613 48.1051 37.0918 48.6103C37.5705 49.1155 38.2263 49.4157 38.9215 49.448C39.9276 49.497 40.9337 49.448 42.0402 49.448ZM52.4903 49.4676H53.4132C54.1745 49.4676 54.9407 49.4994 55.6971 49.4358C56.4051 49.3873 57.0654 49.0613 57.5343 48.5286C58.0033 47.996 58.243 47.2997 58.2013 46.5913C58.1475 45.1348 56.9774 44.0087 55.4621 43.9353C53.9469 43.8619 52.6176 44.8949 52.505 46.3318C52.4267 47.3232 52.4903 48.3269 52.4903 49.4676Z" fill="#24B0B3"/>
<path d="M47.5505 0C48.2139 0.504271 48.3975 1.1799 48.3902 1.99505C48.3583 4.68776 48.3779 7.38047 48.3755 10.0732C48.3829 10.3481 48.3682 10.6231 48.3314 10.8957C48.3015 11.2219 48.1457 11.5237 47.8972 11.737C47.6486 11.9504 47.3267 12.0587 46.9997 12.0389C46.8372 12.0525 46.6735 12.0336 46.5184 11.9831C46.3632 11.9326 46.2198 11.8516 46.0964 11.7449C45.973 11.6381 45.8722 11.5078 45.7999 11.3616C45.7276 11.2153 45.6853 11.0561 45.6754 10.8932C45.6215 10.2845 45.6044 9.67301 45.624 9.06219C45.624 6.73667 45.6436 4.41115 45.6093 2.08563C45.5971 1.24599 45.744 0.526302 46.449 0H47.5505Z" fill="#24B0B3"/>
<path d="M0 45.1641C0.509167 44.5056 1.18234 44.3269 1.9975 44.3367C4.78078 44.371 7.56161 44.3367 10.3449 44.3514C10.6484 44.3514 11.045 44.2706 11.2384 44.4273C11.6521 44.7577 12.1319 45.1616 12.2641 45.6512C12.4452 46.2999 12.0193 46.8262 11.3363 47.0123C10.978 47.0909 10.611 47.123 10.2445 47.1077C7.5249 47.1077 4.80281 47.0906 2.08073 47.1224C1.23865 47.1224 0.523854 46.9731 0 46.273V45.1641Z" fill="#24B0B3"/>
<path d="M94.0001 46.2656C93.4738 46.9657 92.759 47.1248 91.9169 47.115C89.1948 47.0832 86.4752 47.115 83.7531 47.1003C83.4178 47.1137 83.082 47.0899 82.7519 47.0293C82.4284 46.9808 82.137 46.8071 81.9405 46.5456C81.744 46.2841 81.6583 45.9558 81.7017 45.6316C81.7409 44.9364 82.1375 44.4713 82.8327 44.4076C83.5279 44.344 84.2353 44.3611 84.9403 44.3587C87.2634 44.3587 89.5914 44.3807 91.9095 44.344C92.7516 44.3293 93.4689 44.4786 94.0001 45.1714V46.2656Z" fill="#24B0B3"/>
<path d="M18.9934 42.016C19.1158 29.042 29.331 17.4414 43.0417 15.5785C50.2876 14.5895 56.9418 16.1456 63.0045 20.2467C63.2396 20.3899 63.4573 20.5599 63.6532 20.7534C64.155 21.2944 64.2138 21.9064 63.7732 22.5012C63.6048 22.7642 63.3441 22.9547 63.0422 23.0349C62.7404 23.1151 62.4195 23.0793 62.1428 22.9345C61.7163 22.7027 61.3072 22.44 60.9189 22.1487C46.109 12.4917 26.2319 20.5062 22.3201 37.7395C21.3879 41.8791 21.5738 46.1921 22.8587 50.2361C22.9125 50.4124 22.9713 50.5862 23.0227 50.7624C23.3336 51.8052 23.0447 52.5004 22.1904 52.7697C21.4071 53.0145 20.7363 52.6008 20.4108 51.629C19.4536 48.7845 18.9959 45.8666 18.9934 42.016Z" fill="#24B0B3"/>
<path d="M72.3664 68.9507C72.8706 69.2346 73.2892 69.3742 73.5781 69.6508C75.7698 71.7364 77.937 73.8392 80.0798 75.9591C80.775 76.642 80.7994 77.4792 80.2022 78.052C79.6049 78.6248 78.8485 78.571 78.1704 77.9174C75.9942 75.822 73.8351 73.7119 71.6687 71.6091C71.1791 71.144 70.905 70.5761 71.2624 69.9739C71.4974 69.5749 71.9698 69.313 72.3664 68.9507Z" fill="#24B0B3"/>
<path d="M80.8105 14.225C80.5168 14.7391 80.3821 15.1626 80.1006 15.449C77.9334 17.5933 75.7482 19.7214 73.5451 21.8331C72.8817 22.472 72.0617 22.4671 71.5109 21.8968C70.9601 21.3264 70.9699 20.5357 71.6455 19.8699C73.8193 17.7329 75.9881 15.586 78.2255 13.5053C78.4458 13.3417 78.698 13.2262 78.9658 13.1663C79.2336 13.1065 79.511 13.1035 79.7799 13.1577C80.1667 13.2434 80.4433 13.8211 80.8105 14.225Z" fill="#24B0B3"/>
<path d="M14.6682 78.6174C14.2497 78.2722 13.7699 78.0299 13.53 77.6382C13.175 77.0581 13.388 76.4657 13.88 75.9908C15.1725 74.7391 16.4634 73.4857 17.7526 72.2308C18.6265 71.3789 19.4931 70.5172 20.3768 69.6776C21.094 68.9946 21.9067 68.9432 22.4796 69.5381C23.0524 70.1329 23.0254 70.9236 22.3009 71.6335C20.163 73.7273 18.0178 75.8088 15.8653 77.8781C15.5764 78.1547 15.1774 78.3138 14.6682 78.6174Z" fill="#24B0B3"/>
<path d="M23.0362 21.0155C22.7131 21.4146 22.461 22.0339 22.0865 22.1196C21.5822 22.2322 20.8209 22.1196 20.4561 21.7817C18.6006 20.1049 16.8381 18.3253 15.0462 16.5824C14.6301 16.1785 14.1993 15.7892 13.8076 15.3584C13.2323 14.7342 13.2348 13.9337 13.7807 13.4001C13.9021 13.2718 14.0482 13.1694 14.2101 13.0989C14.3721 13.0283 14.5465 12.9912 14.7232 12.9896C14.8998 12.988 15.0749 13.022 15.2381 13.0896C15.4013 13.1571 15.5492 13.2569 15.6729 13.3829C17.9527 15.5583 20.2056 17.7484 22.4316 19.9531C22.674 20.193 22.7866 20.5627 23.0362 21.0155Z" fill="#24B0B3"/>
</svg>
