<svg width="94" height="96" viewBox="0 0 94 96" fill="none" xmlns="http://www.w3.org/2000/svg">
<path d="M0 93.3159C0.419882 92.4448 1.10902 92.1672 2.07287 92.1679C32.0094 92.1858 61.9458 92.1843 91.8823 92.1765C92.7549 92.1765 93.5377 92.2589 93.8974 93.2063C94.2471 94.1279 93.636 94.6584 93.0686 95.2051C62.0457 95.2051 31.0229 95.2051 0 95.2044V93.3159ZM6.12731 42.2485H87.8989C88.0495 40.2893 88.0495 40.2885 86.4059 39.5287C73.5332 33.5772 60.6589 27.6312 47.7947 21.6618C47.2172 21.3942 46.7786 21.4168 46.2174 21.6766C33.3525 27.642 20.479 33.5889 7.60782 39.5403C5.95171 40.3057 5.95249 40.3072 6.12731 42.2485ZM50.8432 12.0898V9.09385H62.1191V3.09726H48.5674C48.5541 3.38037 48.5268 3.68292 48.5268 3.98547C48.5244 8.58208 48.5432 13.1779 48.5057 17.7737C48.5003 18.4908 48.7516 18.8035 49.3775 19.092C62.7161 25.2403 76.0392 31.4235 89.3841 37.5586C90.5532 38.0968 91.1011 38.7843 91.0028 40.0832C90.913 41.2732 90.9996 42.4748 90.9778 43.671C90.9583 44.7358 90.3956 45.288 89.3396 45.3339C89.1187 45.3432 88.8971 45.3362 88.6762 45.3362H5.37418C3.42149 45.3362 3.03361 44.9559 3.03283 43.0426C3.03283 41.9413 3.06717 40.8376 3.02268 39.7379C2.98366 38.7641 3.36842 38.1629 4.2675 37.7484C13.7726 33.3703 23.2668 28.9674 32.7648 24.5738C36.7701 22.7211 40.773 20.8638 44.7892 19.0337C45.3246 18.7903 45.5096 18.4939 45.5064 17.9021C45.4815 12.6132 45.4908 7.32443 45.4932 2.03561C45.494 0.486299 45.9771 0.00252778 47.5247 0.00174986C52.7365 -0.000583288 57.9492 -0.000583288 63.161 0.00174986C64.7172 0.00252778 65.2027 0.483188 65.2042 2.02317C65.2073 4.73057 65.2089 7.43798 65.2034 10.1454C65.2011 11.5703 64.6899 12.0867 63.2726 12.0883C59.1667 12.0929 55.0607 12.0898 50.8432 12.0898ZM21.1876 53.7011H16.7399V77.7567H21.1876V53.7011ZM10.6149 46.8895H13.6485C13.6485 47.6104 13.6329 48.2941 13.6524 48.977C13.6813 50.0293 14.2487 50.6103 15.3077 50.6188C17.7404 50.6375 20.1723 50.6375 22.6042 50.6188C23.6648 50.6103 24.2275 50.0309 24.2579 48.9739C24.2774 48.3151 24.2618 47.6548 24.2618 46.9213H27.1729C27.5975 49.7625 27.1635 51.9434 24.6138 53.2796C24.3929 53.3955 24.2782 53.8964 24.2767 54.2191C24.2579 60.8924 24.2626 67.5656 24.2626 74.2389C24.2626 75.3091 24.2408 76.3801 24.2782 77.4487C24.2876 77.7108 24.4218 78.0981 24.6193 78.2031C26.6047 79.2586 27.4188 80.9183 27.2993 83.1062C27.2736 83.5721 27.2954 84.0403 27.2954 84.5668H24.2618C24.2618 83.8591 24.2782 83.1746 24.2579 82.4917C24.2267 81.441 23.657 80.8623 22.5971 80.8553C20.1653 80.8374 17.7326 80.8367 15.3007 80.8553C14.2393 80.8631 13.6875 81.4402 13.6501 82.5003C13.6384 82.8464 13.6477 83.1925 13.6477 83.5394V84.5528H10.7374C10.3105 81.7272 10.7507 79.4919 13.2911 78.1946C13.5127 78.081 13.6321 77.5794 13.6329 77.2582C13.6532 71.183 13.6477 65.1079 13.6477 59.0327C13.6477 57.3644 13.6672 55.6953 13.629 54.0278C13.6227 53.7494 13.4409 53.3441 13.2161 53.222C11.3189 52.1814 10.5017 50.5885 10.611 48.4683C10.6367 47.9705 10.6149 47.4697 10.6149 46.8895ZM49.2151 53.6934H44.7853V77.7855H49.2151V53.6934ZM41.7018 84.5894H38.7915C38.3716 81.6992 38.8032 79.4958 41.3513 78.1915C41.5714 78.0787 41.6861 77.5739 41.6869 77.2504C41.7057 70.4519 41.701 63.6527 41.701 56.8534C41.701 55.9092 41.733 54.9627 41.6815 54.0216C41.6659 53.74 41.4887 53.3418 41.2631 53.2174C39.4096 52.1946 38.5714 50.6437 38.665 48.5554C38.6884 48.0265 38.6682 47.4953 38.6682 46.9073H41.7018C41.7018 47.6167 41.6861 48.3011 41.7057 48.9848C41.7361 50.034 42.305 50.6111 43.3688 50.6188C45.8007 50.6367 48.2333 50.6375 50.6652 50.6181C51.7219 50.6095 52.2815 50.0262 52.312 48.9669C52.3299 48.3081 52.3151 47.6486 52.3151 46.919H55.2301C55.6421 49.7781 55.2215 51.941 52.66 53.2819C52.4407 53.3978 52.3307 53.9026 52.3299 54.2269C52.3112 61.1203 52.3159 68.0136 52.3159 74.9077C52.3159 75.348 52.3502 75.7921 52.3088 76.2292C52.2043 77.3375 52.3526 78.172 53.5224 78.8215C54.7946 79.5269 55.3222 80.8787 55.3448 82.358C55.3557 83.0759 55.3471 83.7945 55.3471 84.5692H52.3159C52.3159 83.8847 52.326 83.2314 52.3135 82.5789C52.2909 81.4503 51.7422 80.8623 50.6426 80.8553C48.2107 80.8374 45.7788 80.8367 43.3469 80.8553C42.2894 80.8639 41.733 81.4449 41.7049 82.5081C41.6877 83.1661 41.7018 83.8256 41.7018 84.5894ZM72.8542 77.7481H77.2856V53.6895H72.8542V77.7481ZM83.402 84.5871H80.3683C80.3683 83.8692 80.384 83.1855 80.3644 82.5034C80.3356 81.448 79.7697 80.8631 78.7154 80.8553C76.2835 80.8374 73.8516 80.8374 71.4189 80.8553C70.3528 80.8623 69.7894 81.434 69.7589 82.4886C69.7394 83.1723 69.755 83.8567 69.755 84.5824H66.8556C66.4038 81.7428 66.8658 79.4888 69.3874 78.1992C69.6099 78.0849 69.7378 77.5887 69.7394 77.2698C69.7605 72.1078 69.7542 66.945 69.7542 61.7829C69.7542 59.2334 69.7433 56.6831 69.7644 54.1344C69.7683 53.6459 69.6598 53.3488 69.1884 53.0984C67.5019 52.2032 66.6964 50.762 66.7206 48.858C66.7284 48.2319 66.7222 47.605 66.7222 46.9136H69.755C69.755 47.6011 69.7402 48.2832 69.7581 48.9653C69.7862 50.0231 70.3482 50.6095 71.4025 50.6181C73.8344 50.6375 76.2671 50.6367 78.699 50.6188C79.7643 50.6111 80.3324 50.0363 80.3644 48.9855C80.3847 48.3027 80.3683 47.6174 80.3683 46.8926H83.2677C83.7204 49.7734 83.2513 51.9457 80.7313 53.2741C80.508 53.3924 80.3855 53.887 80.384 54.2075C80.3637 59.7786 80.3691 65.3505 80.3691 70.9217C80.3691 73.0621 80.3527 75.2033 80.3879 77.3429C80.3933 77.6509 80.565 78.102 80.8023 78.2366C82.6004 79.2539 83.4691 80.7565 83.4043 82.8106C83.3871 83.373 83.402 83.9361 83.402 84.5871ZM46.9909 89.1603H6.73294C5.2735 89.1588 4.56095 88.6657 4.55626 87.6553C4.55158 86.645 5.27194 86.1387 6.72045 86.1387C33.5905 86.1379 60.4614 86.1379 87.3315 86.1387C87.6156 86.1387 87.9051 86.1208 88.1822 86.1659C88.9494 86.2911 89.4996 86.9437 89.4559 87.6903C89.4091 88.4798 88.9619 88.9721 88.1931 89.1269C87.8583 89.1945 87.5017 89.1595 87.1544 89.1595C73.7665 89.1603 60.3787 89.1603 46.9909 89.1603Z" fill="#009AD6"/>
<path d="M50.0105 33.7743C50.026 32.1269 48.6981 30.7602 47.0536 30.733C45.4053 30.7051 44.0269 32.0237 43.9881 33.6657C43.9478 35.3512 45.3091 36.7513 46.9916 36.7551C48.6376 36.759 49.9942 35.4195 50.0105 33.7743ZM46.9605 27.7181C50.2975 27.7018 53.0187 30.3972 53.0256 33.7278C53.0326 37.0607 50.3239 39.7732 46.9916 39.7693C43.7026 39.7662 40.9994 37.0879 40.9745 33.8061C40.9489 30.4678 43.6359 27.7344 46.9605 27.7181Z" fill="#009AD6"/>
</svg>
