<svg width="375" height="452" viewBox="0 0 375 452" fill="none" xmlns="http://www.w3.org/2000/svg">
<g opacity="0.6">
<path d="M-15.9326 274.223L64.9662 226.922L198.216 304.915C199.373 305.592 199.373 307.281 198.216 307.958L123.127 351.86C121.138 353.024 118.691 353.024 116.706 351.86L-15.9326 274.223Z" fill="url(#paint0_linear_2794_1500)" style="mix-blend-mode:lighten"/>
</g>
<g opacity="0.51">
<path d="M307.902 21.5555V120L293 108.802V11.2871L307.902 21.5555Z" fill="url(#paint1_linear_2794_1500)"/>
<path d="M307.902 21.5555L322.995 11.2871V108.656L307.902 120V21.5555Z" fill="url(#paint2_linear_2794_1500)"/>
<path d="M314.221 31.3724L307.892 36.0972L301.324 31.2197V37.124L307.892 42.0848L314.221 37.3599V31.3724Z" stroke="url(#paint3_linear_2794_1500)" stroke-width="0.9" stroke-miterlimit="10"/>
<path d="M298.529 26.7178L307.907 33.7669L314.95 28.48" stroke="url(#paint4_linear_2794_1500)" stroke-width="0.9" stroke-linecap="round" stroke-linejoin="round"/>
<path d="M307.785 21.5133L293.23 11.4461C292.926 11.2172 292.926 11.0021 293.23 10.7731L307.284 0.213346C307.668 -0.0711154 308.137 -0.0711154 308.521 0.213346L322.868 10.9882C323.044 11.12 323.044 11.2727 322.868 11.4045L308.02 21.5133C307.945 21.5688 307.86 21.5688 307.785 21.5133Z" fill="url(#paint5_linear_2794_1500)"/>
<path opacity="0.48" d="M293 50.1396V11.4111" stroke="#00DCDD" stroke-width="0.9" stroke-miterlimit="10"/>
<path opacity="0.48" d="M322.994 50.1396V11.4111" stroke="#00DCDD" stroke-width="0.9" stroke-miterlimit="10"/>
<path opacity="0.48" d="M307.901 36.0979V21.5557" stroke="#00DCDD" stroke-width="0.9" stroke-miterlimit="10"/>
<path opacity="0.48" d="M307.901 95.536V42.085" stroke="#00DCDD" stroke-width="0.9" stroke-miterlimit="10"/>
</g>
<path d="M345.079 111.505L319.428 95.6925C318.867 95.3468 318.867 94.4766 319.428 94.1309L345.108 78.1578C345.807 77.7195 346.672 77.7195 347.371 78.1578L373.583 94.4642C373.904 94.6617 373.904 95.1617 373.583 95.3592L347.399 111.505C346.683 111.95 345.801 111.95 345.085 111.505H345.079Z" fill="url(#paint6_linear_2794_1500)"/>
<path d="M329.759 90.1006L346.314 100.402L351.635 97.0935" stroke="url(#paint7_linear_2794_1500)" stroke-width="0.9" stroke-linecap="round" stroke-linejoin="round"/>
<path d="M323.605 89.9521L346.318 104.08L359.309 96.0069" stroke="url(#paint8_linear_2794_1500)" stroke-width="0.9" stroke-linecap="round" stroke-linejoin="round"/>
<path d="M346.411 86.9972V94.4036L319.179 77.4614V71.4561L346.411 86.9972Z" fill="url(#paint9_linear_2794_1500)"/>
<path d="M346.412 86.9972L373.999 71.4561V77.2392L346.412 94.4036V86.9972Z" fill="url(#paint10_linear_2794_1500)"/>
<path opacity="0.48" d="M345.616 86.62L319.421 72.0356C318.86 71.6961 318.86 70.8444 319.421 70.5049L345.101 54.8897C345.799 54.4638 346.664 54.4638 347.363 54.8897L373.576 70.832C373.896 71.0295 373.896 71.5171 373.576 71.7085L346.997 86.6077C346.281 87.0459 346.326 87.0521 345.61 86.6139L345.616 86.62Z" stroke="#00DCDD" stroke-width="0.9" stroke-miterlimit="10"/>
<path d="M346.411 74.0782V81.4847L319.179 64.5486V58.5371L346.411 74.0782Z" fill="url(#paint11_linear_2794_1500)"/>
<path d="M346.412 74.0782L373.999 58.5371V64.3265L346.412 81.4847V74.0782Z" fill="url(#paint12_linear_2794_1500)"/>
<path d="M345.616 73.7021L319.421 59.1176C318.86 58.7782 318.86 57.9264 319.421 57.5869L345.101 41.9717C345.799 41.5459 346.664 41.5459 347.363 41.9717L373.576 57.9141C373.896 58.1116 373.896 58.5992 373.576 58.7905L346.997 73.6897C346.281 74.128 346.326 74.1341 345.61 73.6959L345.616 73.7021Z" fill="url(#paint13_linear_2794_1500)"/>
<path d="M330.706 58.9383L346.109 50.2049V45.8906L330.603 55.1116L330.706 58.9383Z" fill="url(#paint14_linear_2794_1500)"/>
<path d="M361.52 58.9383L346.111 50.2049V45.8906L361.623 55.1116L361.52 58.9383Z" fill="url(#paint15_linear_2794_1500)"/>
<path d="M346.217 64.3695V68.585L330.705 58.9382V55.5127L346.217 64.3695Z" fill="url(#paint16_linear_2794_1500)"/>
<path d="M346.218 64.3695L361.936 55.5127V58.8086L346.218 68.585V64.3695Z" fill="url(#paint17_linear_2794_1500)"/>
<path opacity="0.48" d="M345.763 64.1539L330.835 55.8463C330.514 55.655 330.514 55.1674 330.835 54.9761L345.465 46.076C345.866 45.8353 346.353 45.8353 346.754 46.076L361.693 55.1612C361.876 55.2723 361.876 55.5501 361.693 55.6612L346.547 64.1539C346.141 64.4007 346.169 64.4069 345.757 64.1539H345.763Z" stroke="#00DCDD" stroke-width="0.9" stroke-miterlimit="10"/>
<path d="M346.271 111.839V74.0781" stroke="#00DCDD" stroke-width="0.9" stroke-miterlimit="10"/>
<path opacity="0.48" d="M374 95.0023V58.5381" stroke="#00DCDD" stroke-width="0.9" stroke-miterlimit="10"/>
<path opacity="0.48" d="M319.003 95.0023V58.5381" stroke="#00DCDD" stroke-width="0.9" stroke-miterlimit="10"/>
<path d="M296.426 332.994L321.189 319.814V313.3L296.262 327.228L296.426 332.994Z" fill="url(#paint18_linear_2794_1500)"/>
<path opacity="0.45" d="M296.83 326.813L320.742 313.414C321.183 313.172 321.713 313.172 322.146 313.414L346.042 326.798C346.737 327.191 346.722 328.211 346.013 328.574L322.101 340.914C321.683 341.126 321.198 341.126 320.779 340.914L296.853 328.589C296.144 328.226 296.121 327.198 296.823 326.813H296.83Z" fill="#89CEEC"/>
<path d="M345.946 332.994L321.19 319.814V313.3L346.11 327.228L345.946 332.994Z" fill="url(#paint19_linear_2794_1500)"/>
<path d="M321.36 341.194V347.565L296.426 332.994V327.825L321.36 341.194Z" fill="url(#paint20_linear_2794_1500)"/>
<path d="M321.36 341.194L346.616 327.825V332.805L321.36 347.565V341.194Z" fill="url(#paint21_linear_2794_1500)"/>
<path opacity="0.48" d="M320.629 340.869L296.643 328.324C296.128 328.03 296.128 327.304 296.643 327.01L320.159 313.573C320.801 313.21 321.592 313.21 322.234 313.573L346.235 327.289C346.527 327.455 346.527 327.879 346.235 328.045L321.898 340.862C321.241 341.24 321.286 341.24 320.629 340.862V340.869Z" stroke="#00DCDD" stroke-width="0.9" stroke-miterlimit="10"/>
<path d="M217.642 318.782L176.463 294.932C175.568 294.41 175.568 293.095 176.463 292.573L217.686 268.482C218.81 267.826 220.197 267.826 221.316 268.482L263.396 293.075C263.912 293.376 263.912 294.129 263.396 294.43L221.36 318.782C220.207 319.457 218.791 319.457 217.642 318.782Z" fill="url(#paint22_linear_2794_1500)"/>
<path d="M193.051 286.5L219.628 302.031L228.183 297.041" stroke="url(#paint23_linear_2794_1500)" stroke-width="0.9" stroke-linecap="round" stroke-linejoin="round"/>
<path d="M183.169 286.278L219.629 307.587L240.493 295.41" stroke="url(#paint24_linear_2794_1500)" stroke-width="0.9" stroke-linecap="round" stroke-linejoin="round"/>
<path d="M219.789 281.81V292.987L176.08 267.437V258.374L219.789 281.81Z" fill="url(#paint25_linear_2794_1500)"/>
<path d="M219.789 281.81L264.073 258.374V267.102L219.789 292.987V281.81Z" fill="url(#paint26_linear_2794_1500)"/>
<path opacity="0.48" d="M218.513 281.244L176.463 259.251C175.568 258.739 175.568 257.458 176.463 256.946L217.686 233.396C218.81 232.756 220.197 232.756 221.316 233.396L263.396 257.438C263.912 257.734 263.912 258.468 263.396 258.763L220.732 281.239C219.579 281.894 219.662 281.909 218.509 281.249L218.513 281.244Z" stroke="#00DCDD" stroke-width="0.9" stroke-miterlimit="10"/>
<path d="M219.789 262.331V273.507L176.079 247.958V238.899L219.789 262.331Z" fill="url(#paint27_linear_2794_1500)"/>
<path d="M219.789 262.331L264.072 238.899V247.623L219.789 273.507V262.331Z" fill="url(#paint28_linear_2794_1500)"/>
<path d="M218.513 261.764L176.462 239.771C175.567 239.258 175.567 237.978 176.462 237.465L217.686 213.916C218.81 213.275 220.197 213.275 221.316 213.916L263.395 237.958C263.911 238.253 263.911 238.987 263.395 239.283L220.732 261.759C219.579 262.414 219.661 262.429 218.508 261.768L218.513 261.764Z" fill="url(#paint29_linear_2794_1500)"/>
<path d="M194.573 239.495L219.306 226.329V219.822L194.408 233.732L194.573 239.495Z" fill="url(#paint30_linear_2794_1500)"/>
<path d="M244.04 239.495L219.307 226.329V219.822L244.205 233.732L244.04 239.495Z" fill="url(#paint31_linear_2794_1500)"/>
<path d="M219.478 247.686V254.055L194.574 239.495V234.333L219.478 247.686Z" fill="url(#paint32_linear_2794_1500)"/>
<path d="M219.477 247.686L244.711 234.333V239.303L219.477 254.055V247.686Z" fill="url(#paint33_linear_2794_1500)"/>
<path opacity="0.48" d="M218.752 247.362L194.793 234.831C194.282 234.541 194.282 233.812 194.793 233.516L218.28 220.099C218.922 219.734 219.711 219.734 220.348 220.099L244.327 233.797C244.619 233.964 244.619 234.383 244.327 234.55L220.017 247.357C219.36 247.731 219.409 247.736 218.752 247.362Z" stroke="#00DCDD" stroke-width="0.9" stroke-miterlimit="10"/>
<path d="M219.56 319.285V262.33" stroke="#00DCDD" stroke-width="0.9" stroke-miterlimit="10"/>
<path opacity="0.48" d="M264.073 293.888V238.898" stroke="#00DCDD" stroke-width="0.9" stroke-miterlimit="10"/>
<path opacity="0.48" d="M175.792 293.888V238.898" stroke="#00DCDD" stroke-width="0.9" stroke-miterlimit="10"/>
<g opacity="0.2">
<g opacity="0.6">
<path d="M-17 304.85L67.7407 255.303L207.318 337C208.53 337.709 208.53 339.478 207.318 340.187L128.664 386.174C126.581 387.393 124.017 387.393 121.938 386.174L-17 304.85Z" fill="url(#paint34_linear_2794_1500)" style="mix-blend-mode:lighten"/>
</g>
</g>
<g opacity="0.5">
<g opacity="0.6">
<path d="M-17 295.898L67.7407 246.351L207.318 328.048C208.53 328.756 208.53 330.526 207.318 331.235L128.664 377.222C126.581 378.441 124.017 378.441 121.938 377.222L-17 295.898Z" fill="url(#paint35_linear_2794_1500)" style="mix-blend-mode:lighten"/>
</g>
</g>
<path opacity="0.3" d="M42.1276 268.57L26.3799 259.361L42.1276 250.156L57.8752 259.361L42.1276 268.57Z" fill="#42E8E0"/>
<path opacity="0.5" d="M42.1276 257.963L26.3799 248.755L42.1276 239.55L57.8752 248.759L42.1276 257.963Z" fill="#42E8E0"/>
<path opacity="0.7" d="M42.1276 249.463L26.3799 240.255L42.1276 231.05L57.8752 240.255L42.1276 249.463Z" fill="#42E8E0"/>
<path d="M42.1277 249.913C42.0517 249.913 41.9717 249.892 41.9037 249.852L26.1561 240.643C26.0161 240.562 25.9321 240.412 25.9321 240.25C25.9321 240.088 26.0161 239.938 26.1561 239.857L41.9037 230.653C42.0437 230.572 42.2117 230.572 42.3516 230.653L58.0993 239.861C58.2393 239.942 58.3232 240.092 58.3232 240.254C58.3232 240.416 58.2393 240.566 58.0993 240.647L42.3516 249.852C42.2836 249.892 42.2037 249.913 42.1277 249.913ZM27.2758 240.254L42.1277 248.941L56.9796 240.258L42.1277 231.572L27.2758 240.254Z" fill="#42E8E0"/>
<g style="mix-blend-mode:lighten">
<path d="M116.789 367.829C115.409 367.829 114.05 367.46 112.862 366.768L67.5785 340.291C66.8667 339.874 66.4468 339.133 66.4468 338.303C66.4468 337.473 66.8707 336.732 67.5785 336.314L149.516 288.407C149.656 288.326 149.824 288.326 149.964 288.407L198.954 317.05C199.662 317.468 200.086 318.209 200.086 319.039C200.086 319.869 199.662 320.614 198.954 321.027L120.724 366.768C119.532 367.464 118.177 367.829 116.793 367.829H116.789ZM149.736 289.319L68.0223 337.096C67.5905 337.347 67.3345 337.797 67.3345 338.299C67.3345 338.801 67.5905 339.255 68.0223 339.506L113.306 365.982C115.413 367.213 118.161 367.213 120.272 365.982L198.502 320.242C198.93 319.99 199.19 319.541 199.19 319.039C199.19 318.537 198.934 318.087 198.502 317.832L149.736 289.319Z" fill="#42E8E0"/>
</g>
<path d="M154.558 271.951L144.486 211.427L145.296 211.083L144.08 210.376V210.383C143.847 210.222 143.511 210.233 143.145 210.45L62.6371 257.522C61.9755 257.907 61.4766 258.899 61.5911 259.592L71.7442 320.594C71.796 320.912 71.9512 321.122 72.1693 321.215L73.3594 321.912L73.5627 320.785L73.4962 320.807L153.516 274.021C154.177 273.635 154.676 272.643 154.562 271.951H154.558Z" fill="url(#paint36_linear_2794_1500)"/>
<path d="M63.0805 259.172L61.7573 258.581C61.6094 258.925 61.5355 259.285 61.5873 259.592L71.7404 320.594C71.7921 320.912 71.9473 321.122 72.1654 321.215L73.3555 321.912L73.5588 320.785L73.4923 320.808L77.5432 318.438L63.0842 259.172H63.0805Z" fill="url(#paint37_linear_2794_1500)"/>
<path d="M154.558 271.951L144.486 211.428L145.103 211.166C144.893 210.78 144.453 210.698 143.954 210.99L63.4462 258.061C62.7846 258.447 62.2856 259.438 62.4002 260.131L72.5533 321.133C72.5792 321.291 72.6309 321.425 72.7048 321.53L73.1779 321.807C73.2408 321.815 73.311 321.807 73.3812 321.8L73.566 320.789L73.4995 320.811L153.519 274.025C154.181 273.639 154.68 272.647 154.565 271.955L154.558 271.951Z" fill="#42E8E0"/>
<path d="M154.776 274.754L74.2685 321.825C73.6476 322.188 73.1154 321.979 73.0045 321.328L62.8514 260.325C62.7368 259.633 63.2358 258.641 63.8974 258.255L144.405 211.184C145.026 210.821 145.558 211.03 145.669 211.682L155.822 272.684C155.937 273.377 155.438 274.369 154.776 274.754Z" fill="#00598B"/>
<g opacity="0.51">
<path d="M143.353 215.077L65.75 260.449L75.3708 317.903L152.922 272.561L143.353 215.077Z" fill="#453C9E"/>
</g>
<path d="M205.381 303.64L200.987 305.964L156.93 280.205C156.194 279.775 154.904 279.827 154.054 280.325L78.0703 324.75C77.3422 324.338 74.0269 322.725 74.0269 322.725L75.6346 326.97C75.6346 326.97 75.6383 326.966 75.642 326.966C75.7086 327.153 75.8527 327.329 76.093 327.471L122.493 354.6C123.229 355.03 124.519 354.978 125.369 354.48L164.248 331.749L203.127 309.018C203.478 308.813 203.688 308.566 203.777 308.315H203.784L205.381 303.644V303.64Z" fill="url(#paint38_linear_2794_1500)"/>
<path d="M204.702 304.369L125.011 350.961C124.139 351.47 122.819 351.527 122.065 351.085L74.5118 323.282C73.7578 322.841 73.8502 322.07 74.7224 321.561L154.413 274.968C155.285 274.459 156.605 274.403 157.359 274.845L204.913 302.647C205.667 303.089 205.574 303.86 204.702 304.369Z" fill="#E7E6F1"/>
<path d="M204.702 303.905L125.011 350.498C124.139 351.007 122.819 351.063 122.065 350.621L74.5119 322.818C74.2642 322.672 74.1164 322.493 74.0498 322.298C73.9316 322.661 74.072 323.028 74.5119 323.283L122.065 351.085C122.819 351.527 124.139 351.471 125.011 350.962L204.702 304.369C205.29 304.025 205.515 303.565 205.375 303.168C205.29 303.43 205.068 303.692 204.702 303.905Z" fill="white"/>
<path d="M100.976 340.882V339.998C100.976 339.916 101.027 339.875 101.086 339.912L104.169 341.713C104.232 341.75 104.28 341.847 104.28 341.93V342.813C104.28 342.895 104.228 342.937 104.169 342.899L101.086 341.099C101.024 341.061 100.976 340.964 100.976 340.882Z" fill="#222165"/>
<path d="M105.584 343.577V342.694C105.584 342.611 105.636 342.57 105.695 342.608L108.777 344.408C108.84 344.445 108.888 344.543 108.888 344.625V345.508C108.888 345.591 108.837 345.632 108.777 345.595L105.695 343.794C105.632 343.757 105.584 343.659 105.584 343.577Z" fill="#222165"/>
<path d="M86.9076 320.677L153.13 281.96C153.57 281.702 154.117 281.702 154.557 281.96L178.138 295.776C178.478 295.974 178.478 296.468 178.138 296.666L111.945 335.368C111.505 335.627 110.962 335.627 110.518 335.368L86.904 321.568C86.5639 321.37 86.5639 320.876 86.904 320.677H86.9076Z" fill="#00CFD6" fill-opacity="0.1"/>
<path d="M86.9074 321.568L87.1439 321.707L153.13 283.128C153.57 282.87 154.117 282.87 154.556 283.128L177.901 296.805L178.137 296.666C178.477 296.468 178.477 295.974 178.137 295.776L154.556 281.96C154.117 281.702 153.57 281.702 153.13 281.96L86.9074 320.677C86.5673 320.876 86.5673 321.37 86.9074 321.568Z" fill="#4177A6"/>
<path d="M156.337 285.46L98.8111 319.09L96.2534 317.597L153.779 283.963L156.337 285.46Z" fill="#00598B"/>
<path d="M162.605 289.124L108.65 320.67L106.092 319.176L160.047 287.631L162.605 289.124Z" fill="#00598B"/>
<path d="M166.69 291.512L103.166 328.653L100.608 327.16L164.132 290.019L166.69 291.512Z" fill="#00598B"/>
<path d="M170.774 293.9L107.25 331.041L104.692 329.547L168.217 292.406L170.774 293.9Z" fill="#00598B"/>
<path d="M174.858 296.288L111.334 333.43L108.776 331.936L172.3 294.795L174.858 296.288Z" fill="#00598B"/>
<path d="M95.3375 321.122L92.7798 322.62L90.2222 321.122L92.7798 319.629L95.3375 321.122Z" fill="#00598B"/>
<path d="M104.359 323.181L99.0518 326.284L96.4941 324.79L101.802 321.688L104.359 323.181Z" fill="#00598B"/>
<path d="M155.681 330.046L173.537 319.607C174.236 319.199 174.236 318.536 173.537 318.128L161.325 310.991C160.627 310.583 159.496 310.583 158.797 310.991L140.941 321.43C140.243 321.838 140.243 322.5 140.941 322.908L153.153 330.046C153.852 330.454 154.983 330.454 155.681 330.046Z" fill="url(#paint39_linear_2794_1500)"/>
<path d="M140.944 322.036L158.8 311.597C159.499 311.189 160.63 311.189 161.328 311.597L173.54 318.735C173.754 318.862 173.895 319.012 173.98 319.173C174.165 318.817 174.024 318.413 173.54 318.132L161.328 310.994C160.63 310.586 159.499 310.586 158.8 310.994L140.944 321.434C140.46 321.714 140.32 322.118 140.505 322.474C140.586 322.313 140.726 322.163 140.944 322.036Z" fill="#4177A6"/>
<g opacity="0.11">
<mask id="mask0_2794_1500" style="mask-type:luminance" maskUnits="userSpaceOnUse" x="65" y="215" width="88" height="103">
<path d="M143.355 215.079L65.7524 260.451L75.3733 317.905L152.924 272.563L143.355 215.079Z" fill="white"/>
</mask>
<g mask="url(#mask0_2794_1500)">
<path d="M154.495 274.871L74.804 321.463C73.9317 321.972 72.6123 322.028 71.8583 321.587L24.3047 293.784C23.5507 293.343 23.6431 292.571 24.5154 292.062L104.206 245.47C105.078 244.961 106.398 244.905 107.152 245.347L154.705 273.149C155.459 273.591 155.367 274.362 154.495 274.871Z" fill="url(#paint40_linear_2794_1500)"/>
<path d="M74.5685 283.226L92.4242 272.787C93.1227 272.379 93.1227 271.716 92.4242 271.308L80.2124 264.17C79.5138 263.762 78.3828 263.762 77.6843 264.17L59.8286 274.609C59.13 275.017 59.13 275.68 59.8286 276.088L72.0404 283.226C72.7389 283.634 73.8699 283.634 74.5685 283.226Z" fill="url(#paint41_linear_2794_1500)"/>
<path d="M59.8316 275.212L77.6873 264.773C78.3859 264.365 79.5169 264.365 80.2154 264.773L92.4272 271.911C92.6416 272.038 92.782 272.188 92.867 272.349C93.0518 271.993 92.9114 271.589 92.4272 271.308L80.2154 264.17C79.5169 263.762 78.3859 263.762 77.6873 264.17L59.8316 274.609C59.3475 274.89 59.207 275.294 59.3918 275.65C59.4731 275.489 59.6136 275.339 59.8316 275.212Z" fill="#9198DB"/>
<path d="M51.9804 299.537L118.203 260.82C118.643 260.561 119.19 260.561 119.629 260.82L143.21 274.635C143.55 274.833 143.55 275.327 143.21 275.526L77.0175 314.228C76.5777 314.486 76.0344 314.486 75.5909 314.228L51.9767 300.428C51.6367 300.229 51.6367 299.735 51.9767 299.537H51.9804Z" fill="#ADB1F2"/>
<path d="M51.9806 300.431L52.2172 300.57L118.203 261.991C118.643 261.733 119.19 261.733 119.63 261.991L142.974 275.668L143.211 275.53C143.551 275.331 143.551 274.837 143.211 274.639L119.63 260.824C119.19 260.565 118.643 260.565 118.203 260.824L51.9806 299.541C51.6406 299.739 51.6406 300.233 51.9806 300.431Z" fill="#9198DB"/>
<path d="M137.042 273.695L79.3501 307.427L81.6343 308.763L139.326 275.032L137.042 273.695Z" fill="#24126A"/>
<path d="M130.963 270.14L76.1284 302.202L78.4126 303.538L133.247 271.476L130.963 270.14Z" fill="#24126A"/>
<path d="M72.0321 304.597L66.9131 307.591L69.1972 308.924L74.32 305.929L72.0321 304.597Z" fill="#24126A"/>
<path d="M76.5564 309.058L72.9897 311.142L75.2776 312.479L78.8406 310.394L76.5564 309.058Z" fill="#24126A"/>
<path d="M127.155 267.913L63.1021 305.365L65.3899 306.701L129.439 269.249L127.155 267.913Z" fill="#24126A"/>
<path d="M123.345 265.689L59.2959 303.138L61.5801 304.474L125.629 267.022L123.345 265.689Z" fill="#24126A"/>
<path d="M119.538 263.462L55.4849 300.91L57.7727 302.246L121.822 264.798L119.538 263.462Z" fill="#24126A"/>
</g>
</g>
<path d="M87.9131 302.386L94.7032 298.413L94.9032 299.604L88.109 303.58L87.9131 302.386Z" fill="#42E8E0"/>
<path d="M95.7939 297.777L99.4969 295.61L99.6969 296.805L95.9939 298.972L95.7939 297.777Z" fill="#42E8E0"/>
<path d="M105.256 292.245L107.936 290.678L108.136 291.872L105.456 293.44L105.256 292.245Z" fill="#42E8E0"/>
<path d="M103.304 293.387L104.22 292.853L104.416 294.047L103.504 294.582L103.304 293.387Z" fill="#42E8E0"/>
<path d="M100.606 294.967L102.265 293.995L102.465 295.19L100.802 296.162L100.606 294.967Z" fill="#42E8E0"/>
<path d="M93.2871 293.25L95.9624 291.683L96.1623 292.877L93.4831 294.444L93.2871 293.25Z" fill="#42E8E0"/>
<path d="M87.001 296.93L92.2475 293.856L92.4475 295.051L87.2009 298.125L87.001 296.93Z" fill="#42E8E0"/>
<path d="M94.5234 277.569L99.77 274.499L99.97 275.694L94.7234 278.763L94.5234 277.569Z" fill="#42E8E0"/>
<path d="M91.8242 279.148L93.4878 278.176L93.6837 279.37L92.0242 280.342L91.8242 279.148Z" fill="#42E8E0"/>
<path d="M95.3989 283.037L100.645 279.963L100.845 281.158L95.5989 284.231L95.3989 283.037Z" fill="#42E8E0"/>
<path d="M92.6997 284.615L94.3633 283.644L94.5592 284.834L92.8997 285.81L92.6997 284.615Z" fill="#42E8E0"/>
<path d="M90.6521 253.985L80.7668 259.771L80.5669 258.577L90.4522 252.794L90.6521 253.985Z" fill="#42E8E0"/>
<path d="M94.1361 251.948L91.6887 253.377L91.4888 252.187L93.9361 250.753L94.1361 251.948Z" fill="#42E8E0"/>
<path d="M111.502 250.784L101.621 256.571L101.421 255.377L111.306 249.59L111.502 250.784Z" fill="#42E8E0"/>
<path d="M114.989 248.748L112.542 250.178L112.342 248.983L114.789 247.554L114.989 248.748Z" fill="#42E8E0"/>
<path d="M83.8977 260.934L81.2224 262.501L81.0225 261.306L83.7017 259.739L83.8977 260.934Z" fill="#42E8E0"/>
<path d="M100.194 257.395L97.5144 258.962L97.3145 257.767L99.9937 256.2L100.194 257.395Z" fill="#42E8E0"/>
<path d="M90.1843 257.252L84.9377 260.326L84.7378 259.131L89.9844 256.062L90.1843 257.252Z" fill="#42E8E0"/>
<path d="M92.8834 255.673L91.2199 256.645L91.0239 255.454L92.6835 254.479L92.8834 255.673Z" fill="#42E8E0"/>
<path d="M99.2185 251.976L93.9719 255.046L93.772 253.851L99.0185 250.781L99.2185 251.976Z" fill="#42E8E0"/>
<path d="M101.917 250.393L100.254 251.369L100.054 250.174L101.717 249.198L101.917 250.393Z" fill="#42E8E0"/>
<path d="M99.7386 254.664L97.0593 256.232L96.8594 255.037L99.5386 253.47L99.7386 254.664Z" fill="#42E8E0"/>
<path d="M106.025 250.984L100.774 254.057L100.578 252.863L105.825 249.789L106.025 250.984Z" fill="#42E8E0"/>
<path d="M108.723 249.405L107.06 250.377L106.86 249.182L108.523 248.21L108.723 249.405Z" fill="#42E8E0"/>
<path d="M87.1579 262.023L81.6754 265.23L81.4795 264.035L86.958 260.828L87.1579 262.023Z" fill="#42E8E0"/>
<path d="M92.157 259.095L88.1941 261.415L87.9941 260.221L91.9571 257.9L92.157 259.095Z" fill="#42E8E0"/>
<path d="M95.8708 256.921L93.1956 258.488L92.9956 257.294L95.6709 255.727L95.8708 256.921Z" fill="#42E8E0"/>
<path d="M121.844 244.747L116.365 247.955L116.166 246.76L121.644 243.553L121.844 244.747Z" fill="#42E8E0"/>
<path d="M126.842 241.82L122.883 244.14L122.683 242.945L126.646 240.625L126.842 241.82Z" fill="#42E8E0"/>
<path d="M130.561 239.645L127.882 241.212L127.682 240.017L130.361 238.45L130.561 239.645Z" fill="#42E8E0"/>
<path d="M119.704 280.801L125.183 277.594L125.383 278.788L119.904 281.996L119.704 280.801Z" fill="#42E8E0"/>
<path d="M114.706 283.729L118.664 281.408L118.864 282.603L114.902 284.923L114.706 283.729Z" fill="#42E8E0"/>
<path d="M110.986 285.903L113.666 284.336L113.866 285.531L111.186 287.098L110.986 285.903Z" fill="#42E8E0"/>
<path d="M117.884 284.87L123.362 281.663L123.562 282.858L118.084 286.065L117.884 284.87Z" fill="#42E8E0"/>
<path d="M112.886 287.799L116.849 285.479L117.045 286.673L113.086 288.994L112.886 287.799Z" fill="#42E8E0"/>
<path d="M109.167 289.973L111.846 288.406L112.046 289.601L109.367 291.168L109.167 289.973Z" fill="#42E8E0"/>
<path d="M95.7593 279.825L97.6108 278.744L97.8107 279.939L95.9592 281.02L95.7593 279.825Z" fill="#42E8E0"/>
<path d="M92.2754 281.866L94.7227 280.433L94.9227 281.627L92.4753 283.061L92.2754 281.866Z" fill="#42E8E0"/>
<path d="M87.6452 264.737L82.1667 267.94L81.9668 266.749L87.4453 263.542L87.6452 264.737Z" fill="#42E8E0"/>
<path d="M92.6472 261.808L88.6843 264.128L88.4844 262.934L92.4473 260.613L92.6472 261.808Z" fill="#42E8E0"/>
<path d="M96.3636 259.633L93.6843 261.2L93.4844 260.006L96.1636 258.438L96.3636 259.633Z" fill="#42E8E0"/>
<path d="M84.4738 269.587L82.6223 270.668L82.4224 269.474L84.2739 268.393L84.4738 269.587Z" fill="#42E8E0"/>
<path d="M87.9578 267.546L85.5105 268.98L85.3105 267.785L87.7579 266.352L87.9578 267.546Z" fill="#42E8E0"/>
<path d="M92.9362 264.635L88.9933 266.939L88.7974 265.745L92.7363 263.44L92.9362 264.635Z" fill="#42E8E0"/>
<path d="M98.2778 287.35L100.129 286.269L100.329 287.463L98.4778 288.544L98.2778 287.35Z" fill="#42E8E0"/>
<path d="M94.7954 289.39L97.2427 287.956L97.4387 289.151L94.9954 290.584L94.7954 289.39Z" fill="#42E8E0"/>
<path d="M89.8164 292.302L93.7553 289.998L93.9553 291.193L90.0164 293.497L89.8164 292.302Z" fill="#42E8E0"/>
<path d="M101.099 282.919L105.038 280.615L105.237 281.81L101.299 284.114L101.099 282.919Z" fill="#42E8E0"/>
<path d="M94.6504 286.479L99.9649 283.369L100.161 284.564L94.8503 287.674L94.6504 286.479Z" fill="#42E8E0"/>
<path d="M91.9521 288.059L93.6157 287.087L93.8156 288.282L92.1521 289.253L91.9521 288.059Z" fill="#42E8E0"/>
<path d="M89.3608 289.577L91.0244 288.601L91.2243 289.795L89.5608 290.767L89.3608 289.577Z" fill="#42E8E0"/>
<path d="M89.7153 274.156L94.9619 271.086L95.1618 272.281L89.9153 275.35L89.7153 274.156Z" fill="#42E8E0"/>
<path d="M87.0156 275.735L88.6792 274.763L88.8751 275.957L87.2156 276.929L87.0156 275.735Z" fill="#42E8E0"/>
<path d="M90.0791 270.949L91.9266 269.863L92.1265 271.058L90.275 272.143L90.0791 270.949Z" fill="#42E8E0"/>
<path d="M96.6099 273.135L98.4614 272.05L98.6613 273.244L96.8098 274.33L96.6099 273.135Z" fill="#42E8E0"/>
<path d="M99.2495 271.592L103.692 268.992L103.888 270.187L99.4495 272.787L99.2495 271.592Z" fill="#42E8E0"/>
<path d="M104.479 268.535L107.119 266.988L107.319 268.183L104.675 269.73L104.479 268.535Z" fill="#42E8E0"/>
<path d="M86.5918 272.986L89.0391 271.557L89.2391 272.751L86.7917 274.181L86.5918 272.986Z" fill="#42E8E0"/>
<path d="M86.3643 270.183L88.2158 269.098L88.4117 270.292L86.5642 271.378L86.3643 270.183Z" fill="#42E8E0"/>
<path d="M82.8809 272.22L85.3242 270.79L85.5241 271.985L83.0768 273.414L82.8809 272.22Z" fill="#42E8E0"/>
<path d="M93.9258 274.702L95.5853 273.73L95.7853 274.925L94.1257 275.897L93.9258 274.702Z" fill="#42E8E0"/>
<path d="M91.334 276.221L92.9975 275.249L93.1935 276.44L91.5339 277.416L91.334 276.221Z" fill="#42E8E0"/>
<path d="M104.101 289.933L109.771 286.616L109.971 287.811L104.301 291.127L104.101 289.933Z" fill="#42E8E0"/>
<path d="M97.7505 293.65L103.065 290.54L103.261 291.735L97.9504 294.845L97.7505 293.65Z" fill="#42E8E0"/>
<path d="M95.0518 295.23L96.7153 294.258L96.9152 295.452L95.2517 296.424L95.0518 295.23Z" fill="#42E8E0"/>
<path d="M92.4595 296.748L94.123 295.772L94.323 296.967L92.6594 297.939L92.4595 296.748Z" fill="#42E8E0"/>
<path d="M91.0436 297.574L87.4565 299.672L87.6565 300.867L91.2435 298.769L91.0436 297.574Z" fill="#42E8E0"/>
<path opacity="0.7" d="M359.024 350.263L343.276 341.054L359.024 331.85L374.772 341.054L359.024 350.263Z" fill="#42E8E0"/>
<path d="M359.024 350.717C358.948 350.717 358.868 350.697 358.8 350.656L343.053 341.452C342.917 341.371 342.829 341.221 342.829 341.059C342.829 340.897 342.913 340.747 343.053 340.666L358.8 331.461C358.94 331.38 359.108 331.38 359.248 331.461L374.996 340.666C375.132 340.747 375.22 340.897 375.22 341.059C375.22 341.221 375.136 341.371 374.996 341.452L359.248 350.656C359.18 350.697 359.1 350.717 359.024 350.717ZM344.172 341.055L359.024 349.737L373.876 341.055L359.02 332.372L344.168 341.055H344.172Z" fill="#42E8E0"/>
<path opacity="0.7" d="M304.71 120.115L296.448 115.284L304.71 110.457L312.972 115.284L304.71 120.115Z" fill="#42E8E0"/>
<path d="M304.71 120.57C304.634 120.57 304.554 120.549 304.486 120.509L296.224 115.678C296.084 115.597 296 115.447 296 115.285C296 115.123 296.084 114.973 296.224 114.892L304.486 110.061C304.626 109.98 304.794 109.98 304.934 110.061L313.195 114.892C313.335 114.973 313.419 115.123 313.419 115.285C313.419 115.447 313.335 115.597 313.195 115.678L304.934 120.509C304.866 120.549 304.786 120.57 304.71 120.57ZM297.344 115.285L304.714 119.594L312.084 115.285L304.714 110.976L297.344 115.285Z" fill="#42E8E0"/>
<g opacity="0.51">
<path d="M18.424 303.549V424.088L-5.03174 410.377V290.977L18.424 303.549Z" fill="url(#paint42_linear_2794_1500)"/>
<path d="M18.4233 303.549L42.1812 290.977V410.198L18.4233 424.088V303.549Z" fill="url(#paint43_linear_2794_1500)"/>
<path d="M28.3682 315.57L18.4068 321.355L8.06787 315.383V322.612L18.4068 328.686L28.3682 322.901V315.57Z" stroke="url(#paint44_linear_2794_1500)" stroke-width="0.9" stroke-miterlimit="10"/>
<path d="M3.67139 309.87L18.433 318.501L29.5189 312.028" stroke="url(#paint45_linear_2794_1500)" stroke-width="0.9" stroke-linecap="round" stroke-linejoin="round"/>
<path d="M18.2392 303.499L-4.67103 291.172C-5.14937 290.892 -5.14937 290.628 -4.67103 290.348L17.4504 277.418C18.0546 277.07 18.7931 277.07 19.3973 277.418L41.9803 290.612C42.2572 290.773 42.2572 290.96 41.9803 291.121L18.6085 303.499C18.491 303.567 18.3567 303.567 18.2392 303.499Z" fill="url(#paint46_linear_2794_1500)"/>
<path opacity="0.48" d="M42.1826 338.55V291.13" stroke="#00DCDD" stroke-width="0.9" stroke-miterlimit="10"/>
<path opacity="0.48" d="M18.4238 321.356V303.55" stroke="#00DCDD" stroke-width="0.9" stroke-miterlimit="10"/>
<path opacity="0.48" d="M18.4238 394.135V328.688" stroke="#00DCDD" stroke-width="0.9" stroke-miterlimit="10"/>
</g>
<g opacity="0.45">
<path d="M264.292 331.463V452.001L240.836 438.29V318.89L264.292 331.463Z" fill="url(#paint47_linear_2794_1500)"/>
<path d="M264.291 331.463L288.048 318.89V438.111L264.291 452.001V331.463Z" fill="url(#paint48_linear_2794_1500)"/>
<path d="M274.237 343.483L264.275 349.268L253.937 343.296V350.525L264.275 356.599L274.237 350.814V343.483Z" stroke="url(#paint49_linear_2794_1500)" stroke-width="0.9" stroke-miterlimit="10"/>
<path d="M249.539 337.783L264.3 346.414L275.386 339.941" stroke="url(#paint50_linear_2794_1500)" stroke-width="0.9" stroke-linecap="round" stroke-linejoin="round"/>
<path d="M264.108 331.412L241.198 319.085C240.72 318.805 240.72 318.542 241.198 318.261L263.32 305.332C263.924 304.983 264.662 304.983 265.266 305.332L287.849 318.525C288.126 318.686 288.126 318.873 287.849 319.034L264.478 331.412C264.36 331.48 264.226 331.48 264.108 331.412Z" fill="url(#paint51_linear_2794_1500)"/>
<path opacity="0.48" d="M240.837 366.463V319.043" stroke="#00DCDD" stroke-width="0.9" stroke-miterlimit="10"/>
<path opacity="0.48" d="M288.051 366.463V319.043" stroke="#00DCDD" stroke-width="0.9" stroke-miterlimit="10"/>
<path opacity="0.48" d="M264.292 349.269V331.463" stroke="#00DCDD" stroke-width="0.9" stroke-miterlimit="10"/>
<path opacity="0.48" d="M264.292 422.047V356.6" stroke="#00DCDD" stroke-width="0.9" stroke-miterlimit="10"/>
</g>
<defs>
<linearGradient id="paint0_linear_2794_1500" x1="213.107" y1="299.302" x2="143.855" y2="180.856" gradientUnits="userSpaceOnUse">
<stop offset="0.4" stop-color="#42E8E0"/>
<stop offset="0.43" stop-color="#42E8E0" stop-opacity="0.9"/>
<stop offset="0.48" stop-color="#42E8E0" stop-opacity="0.69"/>
<stop offset="0.54" stop-color="#42E8E0" stop-opacity="0.51"/>
<stop offset="0.6" stop-color="#42E8E0" stop-opacity="0.35"/>
<stop offset="0.67" stop-color="#42E8E0" stop-opacity="0.22"/>
<stop offset="0.74" stop-color="#42E8E0" stop-opacity="0.12"/>
<stop offset="0.81" stop-color="#42E8E0" stop-opacity="0.05"/>
<stop offset="0.89" stop-color="#42E8E0" stop-opacity="0.01"/>
<stop offset="1" stop-color="#42E8E0" stop-opacity="0"/>
</linearGradient>
<linearGradient id="paint1_linear_2794_1500" x1="300.449" y1="122.477" x2="300.449" y2="-6.24545" gradientUnits="userSpaceOnUse">
<stop offset="0.21" stop-color="#00D1D7" stop-opacity="0"/>
<stop offset="0.31" stop-color="#00CFD6" stop-opacity="0.1"/>
<stop offset="0.51" stop-color="#00CCD4" stop-opacity="0.35"/>
<stop offset="0.8" stop-color="#00C6D1" stop-opacity="0.75"/>
<stop offset="0.97" stop-color="#00C3D0"/>
</linearGradient>
<linearGradient id="paint2_linear_2794_1500" x1="315.446" y1="122.477" x2="315.446" y2="-6.24545" gradientUnits="userSpaceOnUse">
<stop offset="0.21" stop-color="#00D1D7" stop-opacity="0"/>
<stop offset="0.31" stop-color="#00CFD6" stop-opacity="0.1"/>
<stop offset="0.51" stop-color="#00CCD4" stop-opacity="0.35"/>
<stop offset="0.8" stop-color="#00C6D1" stop-opacity="0.75"/>
<stop offset="0.97" stop-color="#00C3D0"/>
</linearGradient>
<linearGradient id="paint3_linear_2794_1500" x1="307.769" y1="30.6786" x2="307.769" y2="42.4456" gradientUnits="userSpaceOnUse">
<stop offset="0.21" stop-color="#00D1D7" stop-opacity="0"/>
<stop offset="0.31" stop-color="#00CFD6" stop-opacity="0.1"/>
<stop offset="0.51" stop-color="#00CCD4" stop-opacity="0.35"/>
<stop offset="0.8" stop-color="#00C6D1" stop-opacity="0.75"/>
<stop offset="0.97" stop-color="#00C3D0"/>
</linearGradient>
<linearGradient id="paint4_linear_2794_1500" x1="298.289" y1="30.2423" x2="315.19" y2="30.2423" gradientUnits="userSpaceOnUse">
<stop offset="0.21" stop-color="#00D1D7" stop-opacity="0"/>
<stop offset="0.31" stop-color="#00CFD6" stop-opacity="0.1"/>
<stop offset="0.51" stop-color="#00CCD4" stop-opacity="0.35"/>
<stop offset="0.8" stop-color="#00C6D1" stop-opacity="0.75"/>
<stop offset="0.97" stop-color="#00C3D0"/>
</linearGradient>
<linearGradient id="paint5_linear_2794_1500" x1="307.999" y1="-10.7419" x2="307.999" y2="21.8949" gradientUnits="userSpaceOnUse">
<stop offset="0.21" stop-color="#00D1D7" stop-opacity="0"/>
<stop offset="0.31" stop-color="#00CFD6" stop-opacity="0.1"/>
<stop offset="0.51" stop-color="#00CCD4" stop-opacity="0.35"/>
<stop offset="0.8" stop-color="#00C6D1" stop-opacity="0.75"/>
<stop offset="0.97" stop-color="#00C3D0"/>
</linearGradient>
<linearGradient id="paint6_linear_2794_1500" x1="346.414" y1="65.0854" x2="346.414" y2="122.627" gradientUnits="userSpaceOnUse">
<stop offset="0.21" stop-color="#00D1D7" stop-opacity="0"/>
<stop offset="0.31" stop-color="#00CFD6" stop-opacity="0.1"/>
<stop offset="0.51" stop-color="#00CCD4" stop-opacity="0.35"/>
<stop offset="0.8" stop-color="#00C6D1" stop-opacity="0.75"/>
<stop offset="0.97" stop-color="#00C3D0"/>
</linearGradient>
<linearGradient id="paint7_linear_2794_1500" x1="329.502" y1="95.248" x2="351.893" y2="95.248" gradientUnits="userSpaceOnUse">
<stop offset="0.21" stop-color="#00D1D7" stop-opacity="0"/>
<stop offset="0.31" stop-color="#00CFD6" stop-opacity="0.1"/>
<stop offset="0.51" stop-color="#00CCD4" stop-opacity="0.35"/>
<stop offset="0.8" stop-color="#00C6D1" stop-opacity="0.75"/>
<stop offset="0.97" stop-color="#00C3D0"/>
</linearGradient>
<linearGradient id="paint8_linear_2794_1500" x1="323.348" y1="97.0191" x2="359.567" y2="97.0191" gradientUnits="userSpaceOnUse">
<stop offset="0.21" stop-color="#00D1D7" stop-opacity="0"/>
<stop offset="0.31" stop-color="#00CFD6" stop-opacity="0.1"/>
<stop offset="0.51" stop-color="#00CCD4" stop-opacity="0.35"/>
<stop offset="0.8" stop-color="#00C6D1" stop-opacity="0.75"/>
<stop offset="0.97" stop-color="#00C3D0"/>
</linearGradient>
<linearGradient id="paint9_linear_2794_1500" x1="332.863" y1="58.285" x2="332.724" y2="101.989" gradientUnits="userSpaceOnUse">
<stop offset="0.21" stop-color="#00D1D7" stop-opacity="0"/>
<stop offset="0.31" stop-color="#00CFD6" stop-opacity="0.1"/>
<stop offset="0.51" stop-color="#00CCD4" stop-opacity="0.35"/>
<stop offset="0.8" stop-color="#00C6D1" stop-opacity="0.75"/>
<stop offset="0.97" stop-color="#00C3D0"/>
</linearGradient>
<linearGradient id="paint10_linear_2794_1500" x1="360.274" y1="58.2479" x2="360.128" y2="102.106" gradientUnits="userSpaceOnUse">
<stop offset="0.21" stop-color="#00D1D7" stop-opacity="0"/>
<stop offset="0.31" stop-color="#00CFD6" stop-opacity="0.1"/>
<stop offset="0.51" stop-color="#00CCD4" stop-opacity="0.35"/>
<stop offset="0.8" stop-color="#00C6D1" stop-opacity="0.75"/>
<stop offset="0.97" stop-color="#00C3D0"/>
</linearGradient>
<linearGradient id="paint11_linear_2794_1500" x1="332.863" y1="45.366" x2="332.724" y2="89.0762" gradientUnits="userSpaceOnUse">
<stop offset="0.21" stop-color="#00D1D7" stop-opacity="0"/>
<stop offset="0.31" stop-color="#00CFD6" stop-opacity="0.1"/>
<stop offset="0.51" stop-color="#00CCD4" stop-opacity="0.35"/>
<stop offset="0.8" stop-color="#00C6D1" stop-opacity="0.75"/>
<stop offset="0.97" stop-color="#00C3D0"/>
</linearGradient>
<linearGradient id="paint12_linear_2794_1500" x1="360.274" y1="45.3352" x2="360.128" y2="89.1934" gradientUnits="userSpaceOnUse">
<stop offset="0.21" stop-color="#00D1D7" stop-opacity="0"/>
<stop offset="0.31" stop-color="#00CFD6" stop-opacity="0.1"/>
<stop offset="0.51" stop-color="#00CCD4" stop-opacity="0.35"/>
<stop offset="0.8" stop-color="#00C6D1" stop-opacity="0.75"/>
<stop offset="0.97" stop-color="#00C3D0"/>
</linearGradient>
<linearGradient id="paint13_linear_2794_1500" x1="346.412" y1="33.6457" x2="346.412" y2="81.0838" gradientUnits="userSpaceOnUse">
<stop offset="0.21" stop-color="#00D1D7" stop-opacity="0"/>
<stop offset="0.31" stop-color="#00CFD6" stop-opacity="0.1"/>
<stop offset="0.51" stop-color="#00CCD4" stop-opacity="0.35"/>
<stop offset="0.8" stop-color="#00C6D1" stop-opacity="0.75"/>
<stop offset="0.97" stop-color="#00C3D0"/>
</linearGradient>
<linearGradient id="paint14_linear_2794_1500" x1="330.603" y1="52.4144" x2="346.109" y2="52.4144" gradientUnits="userSpaceOnUse">
<stop offset="0.21" stop-color="#00D1D7" stop-opacity="0"/>
<stop offset="0.31" stop-color="#00CFD6" stop-opacity="0.1"/>
<stop offset="0.51" stop-color="#00CCD4" stop-opacity="0.35"/>
<stop offset="0.8" stop-color="#00C6D1" stop-opacity="0.75"/>
<stop offset="0.97" stop-color="#00C3D0"/>
</linearGradient>
<linearGradient id="paint15_linear_2794_1500" x1="361.623" y1="52.4144" x2="346.111" y2="52.4144" gradientUnits="userSpaceOnUse">
<stop offset="0.21" stop-color="#00D1D7" stop-opacity="0"/>
<stop offset="0.31" stop-color="#00CFD6" stop-opacity="0.1"/>
<stop offset="0.51" stop-color="#00CCD4" stop-opacity="0.35"/>
<stop offset="0.8" stop-color="#00C6D1" stop-opacity="0.75"/>
<stop offset="0.97" stop-color="#00C3D0"/>
</linearGradient>
<linearGradient id="paint16_linear_2794_1500" x1="338.501" y1="48.0075" x2="338.421" y2="72.9116" gradientUnits="userSpaceOnUse">
<stop offset="0.21" stop-color="#00D1D7" stop-opacity="0"/>
<stop offset="0.31" stop-color="#00CFD6" stop-opacity="0.1"/>
<stop offset="0.51" stop-color="#00CCD4" stop-opacity="0.35"/>
<stop offset="0.8" stop-color="#00C6D1" stop-opacity="0.75"/>
<stop offset="0.97" stop-color="#00C3D0"/>
</linearGradient>
<linearGradient id="paint17_linear_2794_1500" x1="354.117" y1="47.989" x2="354.038" y2="72.9795" gradientUnits="userSpaceOnUse">
<stop offset="0.21" stop-color="#00D1D7" stop-opacity="0"/>
<stop offset="0.31" stop-color="#00CFD6" stop-opacity="0.1"/>
<stop offset="0.51" stop-color="#00CCD4" stop-opacity="0.35"/>
<stop offset="0.8" stop-color="#00C6D1" stop-opacity="0.75"/>
<stop offset="0.97" stop-color="#00C3D0"/>
</linearGradient>
<linearGradient id="paint18_linear_2794_1500" x1="296.262" y1="323.147" x2="321.189" y2="323.147" gradientUnits="userSpaceOnUse">
<stop offset="0.21" stop-color="#00D1D7" stop-opacity="0"/>
<stop offset="0.31" stop-color="#00CFD6" stop-opacity="0.1"/>
<stop offset="0.51" stop-color="#00CCD4" stop-opacity="0.35"/>
<stop offset="0.8" stop-color="#00C6D1" stop-opacity="0.75"/>
<stop offset="0.97" stop-color="#00C3D0"/>
</linearGradient>
<linearGradient id="paint19_linear_2794_1500" x1="346.11" y1="323.147" x2="321.183" y2="323.147" gradientUnits="userSpaceOnUse">
<stop offset="0.21" stop-color="#00D1D7" stop-opacity="0"/>
<stop offset="0.31" stop-color="#00CFD6" stop-opacity="0.1"/>
<stop offset="0.51" stop-color="#00CCD4" stop-opacity="0.35"/>
<stop offset="0.8" stop-color="#00C6D1" stop-opacity="0.75"/>
<stop offset="0.97" stop-color="#00C3D0"/>
</linearGradient>
<linearGradient id="paint20_linear_2794_1500" x1="308.953" y1="316.497" x2="308.838" y2="354.094" gradientUnits="userSpaceOnUse">
<stop offset="0.21" stop-color="#00D1D7" stop-opacity="0"/>
<stop offset="0.31" stop-color="#00CFD6" stop-opacity="0.1"/>
<stop offset="0.51" stop-color="#00CCD4" stop-opacity="0.35"/>
<stop offset="0.8" stop-color="#00C6D1" stop-opacity="0.75"/>
<stop offset="0.97" stop-color="#00C3D0"/>
</linearGradient>
<linearGradient id="paint21_linear_2794_1500" x1="334.052" y1="316.467" x2="333.937" y2="354.2" gradientUnits="userSpaceOnUse">
<stop offset="0.21" stop-color="#00D1D7" stop-opacity="0"/>
<stop offset="0.31" stop-color="#00CFD6" stop-opacity="0.1"/>
<stop offset="0.51" stop-color="#00CCD4" stop-opacity="0.35"/>
<stop offset="0.8" stop-color="#00C6D1" stop-opacity="0.75"/>
<stop offset="0.97" stop-color="#00C3D0"/>
</linearGradient>
<linearGradient id="paint22_linear_2794_1500" x1="219.788" y1="248.769" x2="219.788" y2="335.554" gradientUnits="userSpaceOnUse">
<stop offset="0.21" stop-color="#00D1D7" stop-opacity="0"/>
<stop offset="0.31" stop-color="#00CFD6" stop-opacity="0.1"/>
<stop offset="0.51" stop-color="#00CCD4" stop-opacity="0.35"/>
<stop offset="0.8" stop-color="#00C6D1" stop-opacity="0.75"/>
<stop offset="0.97" stop-color="#00C3D0"/>
</linearGradient>
<linearGradient id="paint23_linear_2794_1500" x1="192.832" y1="294.268" x2="228.402" y2="294.268" gradientUnits="userSpaceOnUse">
<stop offset="0.21" stop-color="#00D1D7" stop-opacity="0"/>
<stop offset="0.31" stop-color="#00CFD6" stop-opacity="0.1"/>
<stop offset="0.51" stop-color="#00CCD4" stop-opacity="0.35"/>
<stop offset="0.8" stop-color="#00C6D1" stop-opacity="0.75"/>
<stop offset="0.97" stop-color="#00C3D0"/>
</linearGradient>
<linearGradient id="paint24_linear_2794_1500" x1="182.95" y1="296.933" x2="240.712" y2="296.933" gradientUnits="userSpaceOnUse">
<stop offset="0.21" stop-color="#00D1D7" stop-opacity="0"/>
<stop offset="0.31" stop-color="#00CFD6" stop-opacity="0.1"/>
<stop offset="0.51" stop-color="#00CCD4" stop-opacity="0.35"/>
<stop offset="0.8" stop-color="#00C6D1" stop-opacity="0.75"/>
<stop offset="0.97" stop-color="#00C3D0"/>
</linearGradient>
<linearGradient id="paint25_linear_2794_1500" x1="198.044" y1="238.509" x2="197.839" y2="304.429" gradientUnits="userSpaceOnUse">
<stop offset="0.21" stop-color="#00D1D7" stop-opacity="0"/>
<stop offset="0.31" stop-color="#00CFD6" stop-opacity="0.1"/>
<stop offset="0.51" stop-color="#00CCD4" stop-opacity="0.35"/>
<stop offset="0.8" stop-color="#00C6D1" stop-opacity="0.75"/>
<stop offset="0.97" stop-color="#00C3D0"/>
</linearGradient>
<linearGradient id="paint26_linear_2794_1500" x1="242.04" y1="238.46" x2="241.836" y2="304.606" gradientUnits="userSpaceOnUse">
<stop offset="0.21" stop-color="#00D1D7" stop-opacity="0"/>
<stop offset="0.31" stop-color="#00CFD6" stop-opacity="0.1"/>
<stop offset="0.51" stop-color="#00CCD4" stop-opacity="0.35"/>
<stop offset="0.8" stop-color="#00C6D1" stop-opacity="0.75"/>
<stop offset="0.97" stop-color="#00C3D0"/>
</linearGradient>
<linearGradient id="paint27_linear_2794_1500" x1="198.043" y1="219.034" x2="197.839" y2="284.954" gradientUnits="userSpaceOnUse">
<stop offset="0.21" stop-color="#00D1D7" stop-opacity="0"/>
<stop offset="0.31" stop-color="#00CFD6" stop-opacity="0.1"/>
<stop offset="0.51" stop-color="#00CCD4" stop-opacity="0.35"/>
<stop offset="0.8" stop-color="#00C6D1" stop-opacity="0.75"/>
<stop offset="0.97" stop-color="#00C3D0"/>
</linearGradient>
<linearGradient id="paint28_linear_2794_1500" x1="242.04" y1="218.98" x2="241.836" y2="285.127" gradientUnits="userSpaceOnUse">
<stop offset="0.21" stop-color="#00D1D7" stop-opacity="0"/>
<stop offset="0.31" stop-color="#00CFD6" stop-opacity="0.1"/>
<stop offset="0.51" stop-color="#00CCD4" stop-opacity="0.35"/>
<stop offset="0.8" stop-color="#00C6D1" stop-opacity="0.75"/>
<stop offset="0.97" stop-color="#00C3D0"/>
</linearGradient>
<linearGradient id="paint29_linear_2794_1500" x1="219.788" y1="201.35" x2="219.788" y2="272.896" gradientUnits="userSpaceOnUse">
<stop offset="0.21" stop-color="#00D1D7" stop-opacity="0"/>
<stop offset="0.31" stop-color="#00CFD6" stop-opacity="0.1"/>
<stop offset="0.51" stop-color="#00CCD4" stop-opacity="0.35"/>
<stop offset="0.8" stop-color="#00C6D1" stop-opacity="0.75"/>
<stop offset="0.97" stop-color="#00C3D0"/>
</linearGradient>
<linearGradient id="paint30_linear_2794_1500" x1="194.408" y1="229.659" x2="219.306" y2="229.659" gradientUnits="userSpaceOnUse">
<stop offset="0.21" stop-color="#00D1D7" stop-opacity="0"/>
<stop offset="0.31" stop-color="#00CFD6" stop-opacity="0.1"/>
<stop offset="0.51" stop-color="#00CCD4" stop-opacity="0.35"/>
<stop offset="0.8" stop-color="#00C6D1" stop-opacity="0.75"/>
<stop offset="0.97" stop-color="#00C3D0"/>
</linearGradient>
<linearGradient id="paint31_linear_2794_1500" x1="244.2" y1="229.659" x2="219.302" y2="229.659" gradientUnits="userSpaceOnUse">
<stop offset="0.21" stop-color="#00D1D7" stop-opacity="0"/>
<stop offset="0.31" stop-color="#00CFD6" stop-opacity="0.1"/>
<stop offset="0.51" stop-color="#00CCD4" stop-opacity="0.35"/>
<stop offset="0.8" stop-color="#00C6D1" stop-opacity="0.75"/>
<stop offset="0.97" stop-color="#00C3D0"/>
</linearGradient>
<linearGradient id="paint32_linear_2794_1500" x1="207.089" y1="223.014" x2="206.974" y2="260.577" gradientUnits="userSpaceOnUse">
<stop offset="0.21" stop-color="#00D1D7" stop-opacity="0"/>
<stop offset="0.31" stop-color="#00CFD6" stop-opacity="0.1"/>
<stop offset="0.51" stop-color="#00CCD4" stop-opacity="0.35"/>
<stop offset="0.8" stop-color="#00C6D1" stop-opacity="0.75"/>
<stop offset="0.97" stop-color="#00C3D0"/>
</linearGradient>
<linearGradient id="paint33_linear_2794_1500" x1="232.157" y1="222.984" x2="232.043" y2="260.675" gradientUnits="userSpaceOnUse">
<stop offset="0.21" stop-color="#00D1D7" stop-opacity="0"/>
<stop offset="0.31" stop-color="#00CFD6" stop-opacity="0.1"/>
<stop offset="0.51" stop-color="#00CCD4" stop-opacity="0.35"/>
<stop offset="0.8" stop-color="#00C6D1" stop-opacity="0.75"/>
<stop offset="0.97" stop-color="#00C3D0"/>
</linearGradient>
<linearGradient id="paint34_linear_2794_1500" x1="215.427" y1="335.502" x2="142.884" y2="211.428" gradientUnits="userSpaceOnUse">
<stop stop-color="#42E8E0"/>
<stop offset="0.04" stop-color="#3DD2D2" stop-opacity="0.9"/>
<stop offset="0.13" stop-color="#35A4B6" stop-opacity="0.69"/>
<stop offset="0.23" stop-color="#2D7B9E" stop-opacity="0.51"/>
<stop offset="0.34" stop-color="#265989" stop-opacity="0.35"/>
<stop offset="0.44" stop-color="#213D78" stop-opacity="0.22"/>
<stop offset="0.56" stop-color="#1D286B" stop-opacity="0.12"/>
<stop offset="0.68" stop-color="#1A1862" stop-opacity="0.05"/>
<stop offset="0.82" stop-color="#180F5C" stop-opacity="0.01"/>
<stop offset="1" stop-color="#180D5B" stop-opacity="0"/>
</linearGradient>
<linearGradient id="paint35_linear_2794_1500" x1="219.171" y1="324.357" x2="146.63" y2="200.286" gradientUnits="userSpaceOnUse">
<stop offset="0.45" stop-color="#42E8E0"/>
<stop offset="0.47" stop-color="#3DD2D2" stop-opacity="0.9"/>
<stop offset="0.53" stop-color="#35A4B6" stop-opacity="0.69"/>
<stop offset="0.58" stop-color="#2D7B9E" stop-opacity="0.51"/>
<stop offset="0.64" stop-color="#265989" stop-opacity="0.35"/>
<stop offset="0.7" stop-color="#213D78" stop-opacity="0.22"/>
<stop offset="0.76" stop-color="#1D286B" stop-opacity="0.12"/>
<stop offset="0.82" stop-color="#1A1862" stop-opacity="0.05"/>
<stop offset="0.9" stop-color="#180F5C" stop-opacity="0.01"/>
<stop offset="1" stop-color="#180D5B" stop-opacity="0"/>
</linearGradient>
<linearGradient id="paint36_linear_2794_1500" x1="61.569" y1="266.093" x2="154.573" y2="266.093" gradientUnits="userSpaceOnUse">
<stop stop-color="#C0BFF6"/>
<stop offset="0.29" stop-color="#C4C3F6"/>
<stop offset="0.64" stop-color="#D2D2F9"/>
<stop offset="1" stop-color="#E9E9FD"/>
</linearGradient>
<linearGradient id="paint37_linear_2794_1500" x1="61.5688" y1="290.246" x2="77.5395" y2="290.246" gradientUnits="userSpaceOnUse">
<stop stop-color="#5761D7"/>
<stop offset="0.18" stop-color="#5B65D8"/>
<stop offset="0.39" stop-color="#6A72DE"/>
<stop offset="0.61" stop-color="#8188E8"/>
<stop offset="0.85" stop-color="#A2A6F5"/>
<stop offset="1" stop-color="#BCBEFF"/>
</linearGradient>
<linearGradient id="paint38_linear_2794_1500" x1="74.0306" y1="317.399" x2="205.381" y2="317.399" gradientUnits="userSpaceOnUse">
<stop stop-color="#5761D7"/>
<stop offset="1" stop-color="#00C3D0"/>
</linearGradient>
<linearGradient id="paint39_linear_2794_1500" x1="140.42" y1="320.52" x2="174.062" y2="320.52" gradientUnits="userSpaceOnUse">
<stop stop-color="#C0BFF6"/>
<stop offset="0.29" stop-color="#C4C3F6"/>
<stop offset="0.64" stop-color="#D2D2F9"/>
<stop offset="1" stop-color="#E9E9FD"/>
</linearGradient>
<linearGradient id="paint40_linear_2794_1500" x1="67.9589" y1="283.465" x2="199.38" y2="283.465" gradientUnits="userSpaceOnUse">
<stop stop-color="#C0BFF6"/>
<stop offset="0.29" stop-color="#C4C3F6"/>
<stop offset="0.64" stop-color="#D2D2F9"/>
<stop offset="1" stop-color="#E9E9FD"/>
</linearGradient>
<linearGradient id="paint41_linear_2794_1500" x1="59.3075" y1="273.696" x2="92.949" y2="273.696" gradientUnits="userSpaceOnUse">
<stop stop-color="#C0BFF6"/>
<stop offset="0.29" stop-color="#C4C3F6"/>
<stop offset="0.64" stop-color="#D2D2F9"/>
<stop offset="1" stop-color="#E9E9FD"/>
</linearGradient>
<linearGradient id="paint42_linear_2794_1500" x1="6.69193" y1="427.121" x2="6.69193" y2="269.509" gradientUnits="userSpaceOnUse">
<stop offset="0.21" stop-color="#00D1D7" stop-opacity="0"/>
<stop offset="0.31" stop-color="#00CFD6" stop-opacity="0.1"/>
<stop offset="0.51" stop-color="#00CCD4" stop-opacity="0.35"/>
<stop offset="0.8" stop-color="#00C6D1" stop-opacity="0.75"/>
<stop offset="0.97" stop-color="#00C3D0"/>
</linearGradient>
<linearGradient id="paint43_linear_2794_1500" x1="30.2981" y1="427.121" x2="30.2981" y2="269.509" gradientUnits="userSpaceOnUse">
<stop offset="0.21" stop-color="#00D1D7" stop-opacity="0"/>
<stop offset="0.31" stop-color="#00CFD6" stop-opacity="0.1"/>
<stop offset="0.51" stop-color="#00CCD4" stop-opacity="0.35"/>
<stop offset="0.8" stop-color="#00C6D1" stop-opacity="0.75"/>
<stop offset="0.97" stop-color="#00C3D0"/>
</linearGradient>
<linearGradient id="paint44_linear_2794_1500" x1="18.2138" y1="314.72" x2="18.2138" y2="329.128" gradientUnits="userSpaceOnUse">
<stop offset="0.21" stop-color="#00D1D7" stop-opacity="0"/>
<stop offset="0.31" stop-color="#00CFD6" stop-opacity="0.1"/>
<stop offset="0.51" stop-color="#00CCD4" stop-opacity="0.35"/>
<stop offset="0.8" stop-color="#00C6D1" stop-opacity="0.75"/>
<stop offset="0.97" stop-color="#00C3D0"/>
</linearGradient>
<linearGradient id="paint45_linear_2794_1500" x1="3.29375" y1="314.186" x2="29.8965" y2="314.186" gradientUnits="userSpaceOnUse">
<stop offset="0.21" stop-color="#00D1D7" stop-opacity="0"/>
<stop offset="0.31" stop-color="#00CFD6" stop-opacity="0.1"/>
<stop offset="0.51" stop-color="#00CCD4" stop-opacity="0.35"/>
<stop offset="0.8" stop-color="#00C6D1" stop-opacity="0.75"/>
<stop offset="0.97" stop-color="#00C3D0"/>
</linearGradient>
<linearGradient id="paint46_linear_2794_1500" x1="18.5749" y1="264.005" x2="18.5749" y2="303.966" gradientUnits="userSpaceOnUse">
<stop offset="0.21" stop-color="#00D1D7" stop-opacity="0"/>
<stop offset="0.31" stop-color="#00CFD6" stop-opacity="0.1"/>
<stop offset="0.51" stop-color="#00CCD4" stop-opacity="0.35"/>
<stop offset="0.8" stop-color="#00C6D1" stop-opacity="0.75"/>
<stop offset="0.97" stop-color="#00C3D0"/>
</linearGradient>
<linearGradient id="paint47_linear_2794_1500" x1="252.56" y1="455.034" x2="252.56" y2="297.422" gradientUnits="userSpaceOnUse">
<stop offset="0.21" stop-color="#00D1D7" stop-opacity="0"/>
<stop offset="0.31" stop-color="#00CFD6" stop-opacity="0.1"/>
<stop offset="0.51" stop-color="#00CCD4" stop-opacity="0.35"/>
<stop offset="0.8" stop-color="#00C6D1" stop-opacity="0.75"/>
<stop offset="0.97" stop-color="#00C3D0"/>
</linearGradient>
<linearGradient id="paint48_linear_2794_1500" x1="276.165" y1="455.034" x2="276.165" y2="297.422" gradientUnits="userSpaceOnUse">
<stop offset="0.21" stop-color="#00D1D7" stop-opacity="0"/>
<stop offset="0.31" stop-color="#00CFD6" stop-opacity="0.1"/>
<stop offset="0.51" stop-color="#00CCD4" stop-opacity="0.35"/>
<stop offset="0.8" stop-color="#00C6D1" stop-opacity="0.75"/>
<stop offset="0.97" stop-color="#00C3D0"/>
</linearGradient>
<linearGradient id="paint49_linear_2794_1500" x1="264.082" y1="342.633" x2="264.082" y2="357.041" gradientUnits="userSpaceOnUse">
<stop offset="0.21" stop-color="#00D1D7" stop-opacity="0"/>
<stop offset="0.31" stop-color="#00CFD6" stop-opacity="0.1"/>
<stop offset="0.51" stop-color="#00CCD4" stop-opacity="0.35"/>
<stop offset="0.8" stop-color="#00C6D1" stop-opacity="0.75"/>
<stop offset="0.97" stop-color="#00C3D0"/>
</linearGradient>
<linearGradient id="paint50_linear_2794_1500" x1="249.161" y1="342.099" x2="275.764" y2="342.099" gradientUnits="userSpaceOnUse">
<stop offset="0.21" stop-color="#00D1D7" stop-opacity="0"/>
<stop offset="0.31" stop-color="#00CFD6" stop-opacity="0.1"/>
<stop offset="0.51" stop-color="#00CCD4" stop-opacity="0.35"/>
<stop offset="0.8" stop-color="#00C6D1" stop-opacity="0.75"/>
<stop offset="0.97" stop-color="#00C3D0"/>
</linearGradient>
<linearGradient id="paint51_linear_2794_1500" x1="264.444" y1="291.918" x2="264.444" y2="331.879" gradientUnits="userSpaceOnUse">
<stop offset="0.21" stop-color="#00D1D7" stop-opacity="0"/>
<stop offset="0.31" stop-color="#00CFD6" stop-opacity="0.1"/>
<stop offset="0.51" stop-color="#00CCD4" stop-opacity="0.35"/>
<stop offset="0.8" stop-color="#00C6D1" stop-opacity="0.75"/>
<stop offset="0.97" stop-color="#00C3D0"/>
</linearGradient>
</defs>
</svg>
