<svg width="1603" height="535" viewBox="0 0 1603 535" fill="none" xmlns="http://www.w3.org/2000/svg">
<g clip-path="url(#clip0_1718_1287)">
<path d="M333.924 512.207V325.733C333.924 321.082 330.144 317.308 325.487 317.308C320.83 317.308 317.05 313.534 317.05 308.883V275.183C317.05 259.984 329.391 247.661 344.611 247.661C359.831 247.661 372.172 259.984 372.172 275.183V305.513C372.172 310.164 368.392 313.938 363.735 313.938H362.61C357.952 313.938 354.173 317.712 354.173 322.363V354.457C354.173 361.231 359.674 366.735 366.468 366.735H527.412" stroke="#1F2846" stroke-width="1.3" stroke-miterlimit="10"/>
<path d="M344.615 246.538C357.351 246.538 367.676 236.228 367.676 223.51C367.676 210.791 357.351 200.481 344.615 200.481C331.879 200.481 321.554 210.791 321.554 223.51C321.554 236.228 331.879 246.538 344.615 246.538Z" stroke="#1F2846" stroke-width="1.3" stroke-miterlimit="10"/>
<path d="M373.303 366.555H387.567C394.238 366.555 399.637 361.163 399.637 354.502V83.6542" stroke="#1F2846" stroke-width="1.3" stroke-miterlimit="10"/>
<path d="M526.849 374.037C530.577 374.037 533.599 371.02 533.599 367.297C533.599 363.575 530.577 360.557 526.849 360.557C523.122 360.557 520.1 363.575 520.1 367.297C520.1 371.02 523.122 374.037 526.849 374.037Z" fill="#1F2846" stroke="#1F2846" stroke-width="1.3" stroke-miterlimit="10"/>
<path d="M399.735 90.956C403.463 90.956 406.484 87.9384 406.484 84.216C406.484 80.4936 403.463 77.476 399.735 77.476C396.007 77.476 392.985 80.4936 392.985 84.216C392.985 87.9384 396.007 90.956 399.735 90.956Z" fill="#1F2846" stroke="#1F2846" stroke-width="1.3" stroke-miterlimit="10"/>
<path d="M99.0304 425.946C101.895 425.946 104.216 423.628 104.216 420.767C104.216 417.907 101.895 415.589 99.0304 415.589C96.1663 415.589 93.8445 417.907 93.8445 420.767C93.8445 423.628 96.1663 425.946 99.0304 425.946Z" fill="#1F2846" stroke="#1F2846" stroke-width="1.3" stroke-miterlimit="10"/>
<path d="M334.136 519.183C337 519.183 339.322 516.865 339.322 514.005C339.322 511.144 337 508.826 334.136 508.826C331.272 508.826 328.95 511.144 328.95 514.005C328.95 516.865 331.272 519.183 334.136 519.183Z" fill="#1F2846" stroke="#1F2846" stroke-width="1.3" stroke-miterlimit="10"/>
<path d="M525.014 236.911C521.391 236.911 518.455 233.98 518.455 230.362C518.455 226.745 521.391 223.813 525.014 223.813C528.636 223.813 531.572 226.745 531.572 230.362C531.572 233.98 528.636 236.911 525.014 236.911Z" fill="#1F2846" stroke="#1F2846" stroke-width="1.3" stroke-miterlimit="10"/>
<path d="M538.693 259.469H511.796C511.459 259.469 511.178 259.199 511.178 258.851V253.156C511.178 245.416 517.489 239.114 525.239 239.114C532.99 239.114 539.301 245.416 539.301 253.156V258.851C539.301 259.188 539.031 259.469 538.682 259.469H538.693Z" fill="#1F2846" stroke="#1F2846" stroke-width="1.3" stroke-miterlimit="10"/>
<path d="M524.981 274.835C507.353 274.835 493.021 260.524 493.021 242.921C493.021 225.318 507.353 211.007 524.981 211.007C542.608 211.007 556.94 225.318 556.94 242.921C556.94 260.524 542.608 274.835 524.981 274.835ZM524.981 211.939C507.871 211.939 493.955 225.835 493.955 242.921C493.955 260.007 507.871 273.903 524.981 273.903C542.091 273.903 556.006 260.007 556.006 242.921C556.006 225.835 542.091 211.939 524.981 211.939Z" stroke="#1F2846" stroke-width="1.3" stroke-miterlimit="10"/>
<path d="M688.129 405.413C684.506 405.413 681.57 402.481 681.57 398.864C681.57 395.246 684.506 392.314 688.129 392.314C691.751 392.314 694.687 395.246 694.687 398.864C694.687 402.481 691.751 405.413 688.129 405.413Z" fill="#1F2846" stroke="#1F2846" stroke-width="1.3" stroke-miterlimit="10"/>
<path d="M701.809 427.969H674.912C674.574 427.969 674.293 427.699 674.293 427.351V421.655C674.293 413.916 680.604 407.614 688.355 407.614C696.105 407.614 702.416 413.916 702.416 421.655V427.351C702.416 427.688 702.146 427.969 701.797 427.969H701.809Z" fill="#1F2846" stroke="#1F2846" stroke-width="1.3" stroke-miterlimit="10"/>
<path d="M688.096 443.336C670.468 443.336 656.137 429.024 656.137 411.422C656.137 393.819 670.468 379.508 688.096 379.508C705.724 379.508 720.055 393.819 720.055 411.422C720.055 429.024 705.724 443.336 688.096 443.336ZM688.096 380.44C670.986 380.44 657.07 394.336 657.07 411.422C657.07 428.508 670.986 442.403 688.096 442.403C705.206 442.403 719.121 428.508 719.121 411.422C719.121 394.336 705.206 380.44 688.096 380.44Z" stroke="#1F2846" stroke-width="1.3" stroke-miterlimit="10"/>
<path d="M545.266 26.8472C541.644 26.8472 538.708 23.9153 538.708 20.2982C538.708 16.6811 541.644 13.7491 545.266 13.7491C548.888 13.7491 551.824 16.6811 551.824 20.2982C551.824 23.9153 548.888 26.8472 545.266 26.8472Z" fill="#1F2846" stroke="#1F2846" stroke-width="1.3" stroke-miterlimit="10"/>
<path d="M558.946 49.4045H532.049C531.711 49.4045 531.43 49.1349 531.43 48.7867V43.0914C531.43 35.3516 537.741 29.0497 545.492 29.0497C553.243 29.0497 559.553 35.3516 559.553 43.0914V48.7867C559.553 49.1237 559.283 49.4045 558.935 49.4045H558.946Z" fill="#1F2846" stroke="#1F2846" stroke-width="1.3" stroke-miterlimit="10"/>
<path d="M545.233 64.7722C527.606 64.7722 513.274 50.4609 513.274 32.8582C513.274 15.2555 527.617 0.944214 545.233 0.944214C562.85 0.944214 577.192 15.2555 577.192 32.8582C577.192 50.4609 562.861 64.7722 545.233 64.7722ZM545.233 1.87658C528.123 1.87658 514.208 15.7722 514.208 32.8582C514.208 49.9441 528.123 63.8398 545.233 63.8398C562.343 63.8398 576.259 49.9441 576.259 32.8582C576.259 15.7722 562.343 1.87658 545.233 1.87658Z" stroke="#1F2846" stroke-width="1.3" stroke-miterlimit="10"/>
<path d="M600.525 91.2593C597.903 91.2593 595.777 89.1362 595.777 86.53C595.777 83.9239 597.903 81.8008 600.525 81.8008C603.146 81.8008 605.26 83.9239 605.26 86.53C605.26 89.1362 603.134 91.2593 600.525 91.2593Z" fill="#1F2846" stroke="#1F2846" stroke-width="1.3" stroke-miterlimit="10"/>
<path d="M610.421 108.705H590.971C590.723 108.705 590.521 108.503 590.521 108.256V104.133C590.521 98.5393 595.088 93.9785 600.69 93.9785C606.292 93.9785 610.859 98.5393 610.859 104.133V108.256C610.859 108.503 610.657 108.705 610.409 108.705H610.421Z" fill="#1F2846" stroke="#1F2846" stroke-width="1.3" stroke-miterlimit="10"/>
<path d="M600.502 119.815C587.756 119.815 577.396 109.469 577.396 96.7417C577.396 84.0143 587.756 73.6683 600.502 73.6683C613.247 73.6683 623.607 84.0143 623.607 96.7417C623.607 109.469 613.247 119.815 600.502 119.815ZM600.502 74.3311C588.127 74.3311 578.07 84.385 578.07 96.7304C578.07 109.076 588.139 119.13 600.502 119.13C612.864 119.13 622.933 109.076 622.933 96.7304C622.933 84.385 612.864 74.3311 600.502 74.3311Z" stroke="#1F2846" stroke-width="1.3" stroke-miterlimit="10"/>
<path d="M618.52 306.94C615.899 306.94 613.772 304.817 613.772 302.211C613.772 299.605 615.899 297.482 618.52 297.482C621.141 297.482 623.256 299.605 623.256 302.211C623.256 304.817 621.13 306.94 618.52 306.94Z" fill="#1F2846" stroke="#1F2846" stroke-width="1.3" stroke-miterlimit="10"/>
<path d="M628.416 324.385H608.966C608.718 324.385 608.516 324.183 608.516 323.936V319.813C608.516 314.219 613.083 309.658 618.685 309.658C624.287 309.658 628.854 314.219 628.854 319.813V323.936C628.854 324.183 628.652 324.385 628.404 324.385H628.416Z" fill="#1F2846" stroke="#1F2846" stroke-width="1.3" stroke-miterlimit="10"/>
<path d="M618.496 335.496C605.751 335.496 595.39 325.15 595.39 312.423C595.39 299.695 605.751 289.349 618.496 289.349C631.242 289.349 641.602 299.695 641.602 312.423C641.602 325.15 631.242 335.496 618.496 335.496ZM618.496 290.012C606.122 290.012 596.065 300.066 596.065 312.411C596.065 324.757 606.133 334.811 618.496 334.811C630.859 334.811 640.927 324.757 640.927 312.411C640.927 300.066 630.859 290.012 618.496 290.012Z" stroke="#1F2846" stroke-width="1.3" stroke-miterlimit="10"/>
<path d="M477.903 451.851C475.282 451.851 473.156 449.728 473.156 447.122C473.156 444.516 475.282 442.393 477.903 442.393C480.525 442.393 482.639 444.516 482.639 447.122C482.639 449.728 480.513 451.851 477.903 451.851Z" fill="#1F2846" stroke="#1F2846" stroke-width="1.3" stroke-miterlimit="10"/>
<path d="M487.8 469.296H468.35C468.102 469.296 467.9 469.094 467.9 468.847V464.724C467.9 459.13 472.467 454.569 478.069 454.569C483.671 454.569 488.238 459.13 488.238 464.724V468.847C488.238 469.094 488.036 469.296 487.788 469.296H487.8Z" fill="#1F2846" stroke="#1F2846" stroke-width="1.3" stroke-miterlimit="10"/>
<path d="M477.881 480.406C465.135 480.406 454.775 470.06 454.775 457.333C454.775 444.605 465.135 434.259 477.881 434.259C490.626 434.259 500.987 444.605 500.987 457.333C500.987 470.06 490.626 480.406 477.881 480.406ZM477.881 434.922C465.506 434.922 455.45 444.976 455.45 457.321C455.45 469.667 465.518 479.721 477.881 479.721C490.244 479.721 500.312 469.667 500.312 457.321C500.312 444.976 490.244 434.922 477.881 434.922Z" stroke="#1F2846" stroke-width="1.3" stroke-miterlimit="10"/>
<path d="M524.323 211.266V178.903C524.323 174.903 522.771 171.657 520.847 171.657H400.682H592.662C596.858 171.657 600.256 168.265 600.256 164.074V120.287" stroke="#1F2846" stroke-width="1.3" stroke-linecap="round" stroke-linejoin="round"/>
<path d="M471.318 171.387V43.5739C471.318 38.474 474.704 34.3401 478.878 34.3401H513.627" stroke="#1F2846" stroke-width="1.3" stroke-linecap="round" stroke-linejoin="round"/>
<path d="M393.265 366.287H468.241C473.438 366.287 477.646 370.488 477.646 375.678V433.687" stroke="#1F2846" stroke-width="1.3" stroke-linecap="round" stroke-linejoin="round"/>
<path d="M490.012 367.253V320.073C490.012 316.433 492.959 313.49 496.604 313.49H595.755" stroke="#1F2846" stroke-width="1.3" stroke-miterlimit="10"/>
<path d="M556.917 313.714V402.02C556.917 408.344 561.552 413.467 567.256 413.467H655.934" stroke="#1F2846" stroke-width="1.3" stroke-linecap="round" stroke-linejoin="round"/>
<path d="M195.989 290.831C199.611 290.831 202.547 287.899 202.547 284.282C202.547 280.665 199.611 277.733 195.989 277.733C192.366 277.733 189.43 280.665 189.43 284.282C189.43 287.899 192.366 290.831 195.989 290.831Z" fill="#1F2846" stroke="#1F2846" stroke-width="1.3" stroke-miterlimit="10"/>
<path d="M182.309 313.388H209.206C209.543 313.388 209.824 313.119 209.824 312.77V307.075C209.824 299.335 203.514 293.033 195.763 293.033C188.012 293.033 181.701 299.335 181.701 307.075V312.77C181.701 313.107 181.971 313.388 182.32 313.388H182.309Z" fill="#1F2846" stroke="#1F2846" stroke-width="1.3" stroke-miterlimit="10"/>
<path d="M196.009 328.756C213.637 328.756 227.969 314.445 227.969 296.842C227.969 279.239 213.637 264.928 196.009 264.928C178.382 264.928 164.05 279.239 164.05 296.842C164.05 314.445 178.382 328.756 196.009 328.756ZM196.009 265.86C213.12 265.86 227.035 279.756 227.035 296.842C227.035 313.928 213.12 327.824 196.009 327.824C178.899 327.824 164.984 313.928 164.984 296.842C164.984 279.756 178.899 265.86 196.009 265.86Z" stroke="#1F2846" stroke-width="1.3" stroke-miterlimit="10"/>
<path d="M32.8735 459.332C36.4958 459.332 39.4318 456.4 39.4318 452.783C39.4318 449.166 36.4958 446.234 32.8735 446.234C29.2512 446.234 26.3152 449.166 26.3152 452.783C26.3152 456.4 29.2512 459.332 32.8735 459.332Z" fill="#1F2846" stroke="#1F2846" stroke-width="1.3" stroke-miterlimit="10"/>
<path d="M19.1936 481.889H46.0907C46.4281 481.889 46.7094 481.62 46.7094 481.271V475.576C46.7094 467.836 40.3985 461.534 32.6478 461.534C24.897 461.534 18.5862 467.836 18.5862 475.576V481.271C18.5862 481.608 18.8562 481.889 19.2049 481.889H19.1936Z" fill="#1F2846" stroke="#1F2846" stroke-width="1.3" stroke-miterlimit="10"/>
<path d="M32.894 497.256C50.5216 497.256 64.8532 482.944 64.8532 465.342C64.8532 447.739 50.5216 433.428 32.894 433.428C15.2664 433.428 0.946045 447.739 0.946045 465.342C0.946045 482.944 15.2776 497.256 32.9052 497.256H32.894ZM32.894 434.36C50.0042 434.36 63.9195 448.256 63.9195 465.342C63.9195 482.428 50.0042 496.323 32.894 496.323C15.7838 496.323 1.86849 482.428 1.86849 465.342C1.86849 448.256 15.7838 434.36 32.894 434.36Z" stroke="#1F2846" stroke-width="1.3" stroke-miterlimit="10"/>
<path d="M52.1024 213.321C55.8259 213.321 58.8519 210.39 58.8519 206.772C58.8519 203.155 55.8259 200.223 52.1024 200.223C48.3788 200.223 45.3528 203.155 45.3528 206.772C45.3528 210.39 48.3788 213.321 52.1024 213.321Z" fill="#1F2846" stroke="#1F2846" stroke-width="1.3" stroke-miterlimit="10"/>
<path d="M38.0069 235.879H65.7027C66.0514 235.879 66.3439 235.609 66.3439 235.261V229.566C66.3439 221.826 59.8418 215.524 51.8548 215.524C43.8678 215.524 37.3657 221.826 37.3657 229.566V235.261C37.3657 235.598 37.647 235.879 38.0069 235.879Z" fill="#1F2846" stroke="#1F2846" stroke-width="1.3" stroke-miterlimit="10"/>
<path d="M52.1251 251.245C70.2814 251.245 85.0405 236.934 85.0405 219.331C85.0405 201.728 70.2702 187.417 52.1251 187.417C33.98 187.417 19.2097 201.728 19.2097 219.331C19.2097 236.934 33.98 251.245 52.1251 251.245ZM52.1251 188.349C69.7415 188.349 84.0843 202.245 84.0843 219.331C84.0843 236.417 69.7527 250.313 52.1251 250.313C34.4975 250.313 20.1772 236.417 20.1772 219.331C20.1772 202.245 34.5087 188.349 52.1251 188.349Z" stroke="#1F2846" stroke-width="1.3" stroke-miterlimit="10"/>
<path d="M175.736 80.7683C179.358 80.7683 182.294 77.8364 182.294 74.2192C182.294 70.6021 179.358 67.6702 175.736 67.6702C172.114 67.6702 169.178 70.6021 169.178 74.2192C169.178 77.8364 172.114 80.7683 175.736 80.7683Z" fill="#1F2846" stroke="#1F2846" stroke-width="1.3" stroke-miterlimit="10"/>
<path d="M162.056 103.324H188.953C189.291 103.324 189.572 103.054 189.572 102.706V97.0109C189.572 89.2712 183.261 82.9692 175.511 82.9692C167.76 82.9692 161.449 89.2712 161.449 97.0109V102.706C161.449 103.043 161.719 103.324 162.068 103.324H162.056Z" fill="#1F2846" stroke="#1F2846" stroke-width="1.3" stroke-miterlimit="10"/>
<path d="M175.757 118.692C193.385 118.692 207.716 104.38 207.716 86.7777C207.716 69.1751 193.385 54.8638 175.757 54.8638C158.129 54.8638 143.798 69.1751 143.798 86.7777C143.798 104.38 158.129 118.692 175.757 118.692ZM175.757 55.7961C192.867 55.7961 206.783 69.6918 206.783 86.7777C206.783 103.864 192.867 117.759 175.757 117.759C158.647 117.759 144.732 103.864 144.732 86.7777C144.732 69.6918 158.647 55.7961 175.757 55.7961Z" stroke="#1F2846" stroke-width="1.3" stroke-miterlimit="10"/>
<path d="M120.467 145.18C123.088 145.18 125.214 143.057 125.214 140.451C125.214 137.845 123.088 135.722 120.467 135.722C117.846 135.722 115.731 137.845 115.731 140.451C115.731 143.057 117.857 145.18 120.467 145.18Z" fill="#1F2846" stroke="#1F2846" stroke-width="1.3" stroke-miterlimit="10"/>
<path d="M110.58 162.625H130.03C130.277 162.625 130.48 162.423 130.48 162.176V158.053C130.48 152.459 125.912 147.898 120.31 147.898C114.708 147.898 110.141 152.459 110.141 158.053V162.176C110.141 162.423 110.343 162.625 110.591 162.625H110.58Z" fill="#1F2846" stroke="#1F2846" stroke-width="1.3" stroke-miterlimit="10"/>
<path d="M120.487 173.735C133.233 173.735 143.593 163.389 143.593 150.661C143.593 137.934 133.233 127.588 120.487 127.588C107.742 127.588 97.3811 137.934 97.3811 150.661C97.3811 163.389 107.742 173.735 120.487 173.735ZM120.487 128.251C132.861 128.251 142.918 138.305 142.918 150.65C142.918 162.995 132.85 173.049 120.487 173.049C108.124 173.049 98.0561 162.995 98.0561 150.65C98.0561 138.305 108.124 128.251 120.487 128.251Z" stroke="#1F2846" stroke-width="1.3" stroke-miterlimit="10"/>
<path d="M102.472 360.86C105.093 360.86 107.219 358.737 107.219 356.131C107.219 353.524 105.093 351.401 102.472 351.401C99.8507 351.401 97.7358 353.524 97.7358 356.131C97.7358 358.737 99.862 360.86 102.472 360.86Z" fill="#1F2846" stroke="#1F2846" stroke-width="1.3" stroke-miterlimit="10"/>
<path d="M92.5847 378.306H112.035C112.282 378.306 112.485 378.104 112.485 377.857V373.734C112.485 368.14 107.917 363.579 102.315 363.579C96.7132 363.579 92.146 368.14 92.146 373.734V377.857C92.146 378.104 92.3485 378.306 92.596 378.306H92.5847Z" fill="#1F2846" stroke="#1F2846" stroke-width="1.3" stroke-miterlimit="10"/>
<path d="M102.492 389.416C115.238 389.416 125.598 379.07 125.598 366.342C125.598 353.615 115.238 343.269 102.492 343.269C89.7468 343.269 79.3862 353.615 79.3862 366.342C79.3862 379.07 89.7468 389.416 102.492 389.416ZM102.492 343.932C114.866 343.932 124.923 353.986 124.923 366.331C124.923 378.677 114.855 388.73 102.492 388.73C90.1293 388.73 80.0612 378.677 80.0612 366.331C80.0612 353.986 90.1293 343.932 102.492 343.932Z" stroke="#1F2846" stroke-width="1.3" stroke-miterlimit="10"/>
<path d="M243.088 505.771C245.709 505.771 247.835 503.648 247.835 501.042C247.835 498.435 245.709 496.312 243.088 496.312C240.467 496.312 238.352 498.435 238.352 501.042C238.352 503.648 240.478 505.771 243.088 505.771Z" fill="#1F2846" stroke="#1F2846" stroke-width="1.3" stroke-miterlimit="10"/>
<path d="M233.201 523.216H252.651C252.898 523.216 253.101 523.013 253.101 522.766V518.644C253.101 513.05 248.533 508.489 242.931 508.489C237.329 508.489 232.762 513.05 232.762 518.644V522.766C232.762 523.013 232.964 523.216 233.212 523.216H233.201Z" fill="#1F2846" stroke="#1F2846" stroke-width="1.3" stroke-miterlimit="10"/>
<path d="M243.108 534.327C255.854 534.327 266.214 523.981 266.214 511.253C266.214 498.526 255.854 488.18 243.108 488.18C230.363 488.18 220.002 498.526 220.002 511.253C220.002 523.981 230.363 534.327 243.108 534.327ZM243.108 488.843C255.482 488.843 265.539 498.897 265.539 511.242C265.539 523.587 255.471 533.641 243.108 533.641C230.745 533.641 220.677 523.587 220.677 511.242C220.677 498.897 230.745 488.843 243.108 488.843Z" stroke="#1F2846" stroke-width="1.3" stroke-miterlimit="10"/>
<path d="M196.683 265.185V232.822C196.683 228.823 198.236 225.577 200.159 225.577H320.324H128.344C124.148 225.577 120.751 222.184 120.751 217.994V174.206" stroke="#1F2846" stroke-width="1.3" stroke-linecap="round" stroke-linejoin="round"/>
<path d="M249.669 225.308V97.4948C249.669 92.3949 246.283 88.261 242.11 88.261H207.361" stroke="#1F2846" stroke-width="1.3" stroke-linecap="round" stroke-linejoin="round"/>
<path d="M243.358 487.606V429.597C243.358 424.408 247.892 420.206 253.483 420.206H334.207H99.6599" stroke="#1F2846" stroke-width="1.3" stroke-linecap="round" stroke-linejoin="round"/>
<path d="M230.998 421.173V373.992C230.998 370.353 228.051 367.41 224.406 367.41H125.255" stroke="#1F2846" stroke-width="1.3" stroke-miterlimit="10"/>
<path d="M164.084 367.634V455.939C164.084 462.264 159.449 467.386 153.746 467.386H65.0676" stroke="#1F2846" stroke-width="1.3" stroke-linecap="round" stroke-linejoin="round"/>
<path d="M164.342 299.088H50.792V251.144" stroke="#1F2846" stroke-width="1.3" stroke-linecap="round" stroke-linejoin="round"/>
</g>
<g clip-path="url(#clip1_1718_1287)">
<path d="M1263.98 512.207V325.733C1263.98 321.082 1267.82 317.308 1272.55 317.308C1277.28 317.308 1281.11 313.534 1281.11 308.883V275.183C1281.11 259.984 1268.58 247.661 1253.13 247.661C1237.68 247.661 1225.15 259.984 1225.15 275.183V305.513C1225.15 310.164 1228.99 313.938 1233.72 313.938H1234.86C1239.59 313.938 1243.42 317.712 1243.42 322.363V354.457C1243.42 361.231 1237.84 366.735 1230.94 366.735H1067.54" stroke="#1F2846" stroke-width="1.3" stroke-miterlimit="10"/>
<path d="M1253.13 246.538C1240.2 246.538 1229.71 236.228 1229.71 223.51C1229.71 210.791 1240.2 200.481 1253.13 200.481C1266.06 200.481 1276.54 210.791 1276.54 223.51C1276.54 236.228 1266.06 246.538 1253.13 246.538Z" stroke="#1F2846" stroke-width="1.3" stroke-miterlimit="10"/>
<path d="M1224 366.555H1209.52C1202.75 366.555 1197.27 361.163 1197.27 354.502V83.6542" stroke="#1F2846" stroke-width="1.3" stroke-miterlimit="10"/>
<path d="M1068.11 374.037C1064.33 374.037 1061.26 371.02 1061.26 367.297C1061.26 363.575 1064.33 360.557 1068.11 360.557C1071.9 360.557 1074.97 363.575 1074.97 367.297C1074.97 371.02 1071.9 374.037 1068.11 374.037Z" fill="#1F2846" stroke="#1F2846" stroke-width="1.3" stroke-miterlimit="10"/>
<path d="M1197.17 90.956C1193.38 90.956 1190.31 87.9384 1190.31 84.216C1190.31 80.4936 1193.38 77.476 1197.17 77.476C1200.95 77.476 1204.02 80.4936 1204.02 84.216C1204.02 87.9384 1200.95 90.956 1197.17 90.956Z" fill="#1F2846" stroke="#1F2846" stroke-width="1.3" stroke-miterlimit="10"/>
<path d="M1502.46 425.946C1499.55 425.946 1497.19 423.628 1497.19 420.767C1497.19 417.907 1499.55 415.589 1502.46 415.589C1505.37 415.589 1507.72 417.907 1507.72 420.767C1507.72 423.628 1505.37 425.946 1502.46 425.946Z" fill="#1F2846" stroke="#1F2846" stroke-width="1.3" stroke-miterlimit="10"/>
<path d="M1263.77 519.183C1260.86 519.183 1258.5 516.865 1258.5 514.005C1258.5 511.144 1260.86 508.826 1263.77 508.826C1266.67 508.826 1269.03 511.144 1269.03 514.005C1269.03 516.865 1266.67 519.183 1263.77 519.183Z" fill="#1F2846" stroke="#1F2846" stroke-width="1.3" stroke-miterlimit="10"/>
<path d="M1069.98 236.911C1073.65 236.911 1076.63 233.98 1076.63 230.362C1076.63 226.745 1073.65 223.813 1069.98 223.813C1066.3 223.813 1063.32 226.745 1063.32 230.362C1063.32 233.98 1066.3 236.911 1069.98 236.911Z" fill="#1F2846" stroke="#1F2846" stroke-width="1.3" stroke-miterlimit="10"/>
<path d="M1056.09 259.469H1083.4C1083.74 259.469 1084.02 259.199 1084.02 258.851V253.156C1084.02 245.416 1077.62 239.114 1069.75 239.114C1061.88 239.114 1055.47 245.416 1055.47 253.156V258.851C1055.47 259.188 1055.75 259.469 1056.1 259.469H1056.09Z" fill="#1F2846" stroke="#1F2846" stroke-width="1.3" stroke-miterlimit="10"/>
<path d="M1070.01 274.835C1087.91 274.835 1102.46 260.524 1102.46 242.921C1102.46 225.318 1087.91 211.007 1070.01 211.007C1052.11 211.007 1037.56 225.318 1037.56 242.921C1037.56 260.524 1052.11 274.835 1070.01 274.835ZM1070.01 211.939C1087.38 211.939 1101.51 225.835 1101.51 242.921C1101.51 260.007 1087.38 273.903 1070.01 273.903C1052.64 273.903 1038.51 260.007 1038.51 242.921C1038.51 225.835 1052.64 211.939 1070.01 211.939Z" stroke="#1F2846" stroke-width="1.3" stroke-miterlimit="10"/>
<path d="M904.373 405.413C908.05 405.413 911.031 402.481 911.031 398.864C911.031 395.246 908.05 392.314 904.373 392.314C900.695 392.314 897.715 395.246 897.715 398.864C897.715 402.481 900.695 405.413 904.373 405.413Z" fill="#1F2846" stroke="#1F2846" stroke-width="1.3" stroke-miterlimit="10"/>
<path d="M890.484 427.969H917.792C918.134 427.969 918.42 427.699 918.42 427.351V421.655C918.42 413.916 912.013 407.614 904.144 407.614C896.275 407.614 889.868 413.916 889.868 421.655V427.351C889.868 427.688 890.142 427.969 890.496 427.969H890.484Z" fill="#1F2846" stroke="#1F2846" stroke-width="1.3" stroke-miterlimit="10"/>
<path d="M904.406 443.336C922.303 443.336 936.853 429.024 936.853 411.422C936.853 393.819 922.303 379.508 904.406 379.508C886.51 379.508 871.959 393.819 871.959 411.422C871.959 429.024 886.51 443.336 904.406 443.336ZM904.406 380.44C921.777 380.44 935.905 394.336 935.905 411.422C935.905 428.508 921.777 442.403 904.406 442.403C887.035 442.403 872.907 428.508 872.907 411.422C872.907 394.336 887.035 380.44 904.406 380.44Z" stroke="#1F2846" stroke-width="1.3" stroke-miterlimit="10"/>
<path d="M1049.42 26.8472C1053.09 26.8472 1056.07 23.9153 1056.07 20.2982C1056.07 16.6811 1053.09 13.7491 1049.42 13.7491C1045.74 13.7491 1042.76 16.6811 1042.76 20.2982C1042.76 23.9153 1045.74 26.8472 1049.42 26.8472Z" fill="#1F2846" stroke="#1F2846" stroke-width="1.3" stroke-miterlimit="10"/>
<path d="M1035.53 49.4045H1062.83C1063.18 49.4045 1063.46 49.1349 1063.46 48.7867V43.0914C1063.46 35.3516 1057.05 29.0497 1049.19 29.0497C1041.32 29.0497 1034.91 35.3516 1034.91 43.0914V48.7867C1034.91 49.1237 1035.18 49.4045 1035.54 49.4045H1035.53Z" fill="#1F2846" stroke="#1F2846" stroke-width="1.3" stroke-miterlimit="10"/>
<path d="M1049.45 64.7722C1067.35 64.7722 1081.9 50.4609 1081.9 32.8582C1081.9 15.2555 1067.33 0.944214 1049.45 0.944214C1031.56 0.944214 1017 15.2555 1017 32.8582C1017 50.4609 1031.55 64.7722 1049.45 64.7722ZM1049.45 1.87658C1066.82 1.87658 1080.95 15.7722 1080.95 32.8582C1080.95 49.9441 1066.82 63.8398 1049.45 63.8398C1032.08 63.8398 1017.95 49.9441 1017.95 32.8582C1017.95 15.7722 1032.08 1.87658 1049.45 1.87658Z" stroke="#1F2846" stroke-width="1.3" stroke-miterlimit="10"/>
<path d="M993.313 91.2593C995.974 91.2593 998.133 89.1362 998.133 86.53C998.133 83.9239 995.974 81.8008 993.313 81.8008C990.652 81.8008 988.505 83.9239 988.505 86.53C988.505 89.1362 990.664 91.2593 993.313 91.2593Z" fill="#1F2846" stroke="#1F2846" stroke-width="1.3" stroke-miterlimit="10"/>
<path d="M983.266 108.705H1003.01C1003.26 108.705 1003.47 108.503 1003.47 108.256V104.133C1003.47 98.5393 998.833 93.9785 993.145 93.9785C987.458 93.9785 982.821 98.5393 982.821 104.133V108.256C982.821 108.503 983.026 108.705 983.278 108.705H983.266Z" fill="#1F2846" stroke="#1F2846" stroke-width="1.3" stroke-miterlimit="10"/>
<path d="M993.337 119.815C1006.28 119.815 1016.8 109.469 1016.8 96.7417C1016.8 84.0143 1006.28 73.6683 993.337 73.6683C980.397 73.6683 969.878 84.0143 969.878 96.7417C969.878 109.469 980.397 119.815 993.337 119.815ZM993.337 74.3311C1005.9 74.3311 1016.11 84.385 1016.11 96.7304C1016.11 109.076 1005.89 119.13 993.337 119.13C980.785 119.13 970.564 109.076 970.564 96.7304C970.564 84.385 980.785 74.3311 993.337 74.3311Z" stroke="#1F2846" stroke-width="1.3" stroke-miterlimit="10"/>
<path d="M975.044 306.94C977.705 306.94 979.863 304.817 979.863 302.211C979.863 299.605 977.705 297.482 975.044 297.482C972.383 297.482 970.235 299.605 970.235 302.211C970.235 304.817 972.394 306.94 975.044 306.94Z" fill="#1F2846" stroke="#1F2846" stroke-width="1.3" stroke-miterlimit="10"/>
<path d="M964.997 324.385H984.743C984.995 324.385 985.2 324.183 985.2 323.936V319.813C985.2 314.219 980.563 309.658 974.876 309.658C969.188 309.658 964.551 314.219 964.551 319.813V323.936C964.551 324.183 964.757 324.385 965.008 324.385H964.997Z" fill="#1F2846" stroke="#1F2846" stroke-width="1.3" stroke-miterlimit="10"/>
<path d="M975.067 335.496C988.007 335.496 998.526 325.15 998.526 312.423C998.526 299.695 988.007 289.349 975.067 289.349C962.127 289.349 951.609 299.695 951.609 312.423C951.609 325.15 962.127 335.496 975.067 335.496ZM975.067 290.012C987.63 290.012 997.841 300.066 997.841 312.411C997.841 324.757 987.619 334.811 975.067 334.811C962.516 334.811 952.294 324.757 952.294 312.411C952.294 300.066 962.516 290.012 975.067 290.012Z" stroke="#1F2846" stroke-width="1.3" stroke-miterlimit="10"/>
<path d="M1117.81 451.851C1120.47 451.851 1122.62 449.728 1122.62 447.122C1122.62 444.516 1120.47 442.393 1117.81 442.393C1115.14 442.393 1113 444.516 1113 447.122C1113 449.728 1115.16 451.851 1117.81 451.851Z" fill="#1F2846" stroke="#1F2846" stroke-width="1.3" stroke-miterlimit="10"/>
<path d="M1107.76 469.296H1127.51C1127.76 469.296 1127.96 469.094 1127.96 468.847V464.724C1127.96 459.13 1123.33 454.569 1117.64 454.569C1111.95 454.569 1107.31 459.13 1107.31 464.724V468.847C1107.31 469.094 1107.52 469.296 1107.77 469.296H1107.76Z" fill="#1F2846" stroke="#1F2846" stroke-width="1.3" stroke-miterlimit="10"/>
<path d="M1117.83 480.406C1130.77 480.406 1141.29 470.06 1141.29 457.333C1141.29 444.605 1130.77 434.259 1117.83 434.259C1104.89 434.259 1094.37 444.605 1094.37 457.333C1094.37 470.06 1104.89 480.406 1117.83 480.406ZM1117.83 434.922C1130.39 434.922 1140.6 444.976 1140.6 457.321C1140.6 469.667 1130.38 479.721 1117.83 479.721C1105.28 479.721 1095.06 469.667 1095.06 457.321C1095.06 444.976 1105.28 434.922 1117.83 434.922Z" stroke="#1F2846" stroke-width="1.3" stroke-miterlimit="10"/>
<path d="M1070.68 211.266V178.903C1070.68 174.903 1072.25 171.657 1074.21 171.657H1196.2H1001.3C997.035 171.657 993.586 168.265 993.586 164.074V120.287" stroke="#1F2846" stroke-width="1.3" stroke-linecap="round" stroke-linejoin="round"/>
<path d="M1124.49 171.387V43.5739C1124.49 38.474 1121.05 34.3401 1116.82 34.3401H1081.54" stroke="#1F2846" stroke-width="1.3" stroke-linecap="round" stroke-linejoin="round"/>
<path d="M1203.74 366.287H1127.62C1122.34 366.287 1118.07 370.488 1118.07 375.678V433.687" stroke="#1F2846" stroke-width="1.3" stroke-linecap="round" stroke-linejoin="round"/>
<path d="M1105.51 367.253V320.073C1105.51 316.433 1102.52 313.49 1098.82 313.49H998.156" stroke="#1F2846" stroke-width="1.3" stroke-miterlimit="10"/>
<path d="M1037.59 313.714V402.02C1037.59 408.344 1032.88 413.467 1027.09 413.467H937.059" stroke="#1F2846" stroke-width="1.3" stroke-linecap="round" stroke-linejoin="round"/>
<path d="M1404.02 290.831C1400.34 290.831 1397.36 287.899 1397.36 284.282C1397.36 280.665 1400.34 277.733 1404.02 277.733C1407.7 277.733 1410.68 280.665 1410.68 284.282C1410.68 287.899 1407.7 290.831 1404.02 290.831Z" fill="#1F2846" stroke="#1F2846" stroke-width="1.3" stroke-miterlimit="10"/>
<path d="M1417.91 313.388H1390.6C1390.26 313.388 1389.97 313.119 1389.97 312.77V307.075C1389.97 299.335 1396.38 293.033 1404.25 293.033C1412.12 293.033 1418.53 299.335 1418.53 307.075V312.77C1418.53 313.107 1418.25 313.388 1417.9 313.388H1417.91Z" fill="#1F2846" stroke="#1F2846" stroke-width="1.3" stroke-miterlimit="10"/>
<path d="M1404 328.756C1386.1 328.756 1371.55 314.445 1371.55 296.842C1371.55 279.239 1386.1 264.928 1404 264.928C1421.9 264.928 1436.45 279.239 1436.45 296.842C1436.45 314.445 1421.9 328.756 1404 328.756ZM1404 265.86C1386.63 265.86 1372.5 279.756 1372.5 296.842C1372.5 313.928 1386.63 327.824 1404 327.824C1421.37 327.824 1435.5 313.928 1435.5 296.842C1435.5 279.756 1421.37 265.86 1404 265.86Z" stroke="#1F2846" stroke-width="1.3" stroke-miterlimit="10"/>
<path d="M1569.62 459.332C1565.95 459.332 1562.97 456.4 1562.97 452.783C1562.97 449.166 1565.95 446.234 1569.62 446.234C1573.3 446.234 1576.28 449.166 1576.28 452.783C1576.28 456.4 1573.3 459.332 1569.62 459.332Z" fill="#1F2846" stroke="#1F2846" stroke-width="1.3" stroke-miterlimit="10"/>
<path d="M1583.51 481.889H1556.21C1555.86 481.889 1555.58 481.62 1555.58 481.271V475.576C1555.58 467.836 1561.99 461.534 1569.85 461.534C1577.72 461.534 1584.13 467.836 1584.13 475.576V481.271C1584.13 481.608 1583.86 481.889 1583.5 481.889H1583.51Z" fill="#1F2846" stroke="#1F2846" stroke-width="1.3" stroke-miterlimit="10"/>
<path d="M1569.6 497.256C1551.71 497.256 1537.16 482.944 1537.16 465.342C1537.16 447.739 1551.71 433.428 1569.6 433.428C1587.5 433.428 1602.04 447.739 1602.04 465.342C1602.04 482.944 1587.49 497.256 1569.59 497.256H1569.6ZM1569.6 434.36C1552.23 434.36 1538.11 448.256 1538.11 465.342C1538.11 482.428 1552.23 496.323 1569.6 496.323C1586.98 496.323 1601.1 482.428 1601.1 465.342C1601.1 448.256 1586.98 434.36 1569.6 434.36Z" stroke="#1F2846" stroke-width="1.3" stroke-miterlimit="10"/>
<path d="M1550.1 213.321C1546.32 213.321 1543.25 210.39 1543.25 206.772C1543.25 203.155 1546.32 200.223 1550.1 200.223C1553.88 200.223 1556.96 203.155 1556.96 206.772C1556.96 210.39 1553.88 213.321 1550.1 213.321Z" fill="#1F2846" stroke="#1F2846" stroke-width="1.3" stroke-miterlimit="10"/>
<path d="M1564.41 235.879H1536.29C1535.94 235.879 1535.64 235.609 1535.64 235.261V229.566C1535.64 221.826 1542.25 215.524 1550.35 215.524C1558.46 215.524 1565.06 221.826 1565.06 229.566V235.261C1565.06 235.598 1564.78 235.879 1564.41 235.879Z" fill="#1F2846" stroke="#1F2846" stroke-width="1.3" stroke-miterlimit="10"/>
<path d="M1550.08 251.245C1531.65 251.245 1516.66 236.934 1516.66 219.331C1516.66 201.728 1531.66 187.417 1550.08 187.417C1568.5 187.417 1583.5 201.728 1583.5 219.331C1583.5 236.934 1568.5 251.245 1550.08 251.245ZM1550.08 188.349C1532.19 188.349 1517.63 202.245 1517.63 219.331C1517.63 236.417 1532.18 250.313 1550.08 250.313C1567.98 250.313 1582.52 236.417 1582.52 219.331C1582.52 202.245 1567.97 188.349 1550.08 188.349Z" stroke="#1F2846" stroke-width="1.3" stroke-miterlimit="10"/>
<path d="M1424.58 80.7683C1420.91 80.7683 1417.92 77.8364 1417.92 74.2192C1417.92 70.6021 1420.91 67.6702 1424.58 67.6702C1428.26 67.6702 1431.24 70.6021 1431.24 74.2192C1431.24 77.8364 1428.26 80.7683 1424.58 80.7683Z" fill="#1F2846" stroke="#1F2846" stroke-width="1.3" stroke-miterlimit="10"/>
<path d="M1438.47 103.324H1411.16C1410.82 103.324 1410.54 103.054 1410.54 102.706V97.0109C1410.54 89.2712 1416.94 82.9692 1424.81 82.9692C1432.68 82.9692 1439.09 89.2712 1439.09 97.0109V102.706C1439.09 103.043 1438.81 103.324 1438.46 103.324H1438.47Z" fill="#1F2846" stroke="#1F2846" stroke-width="1.3" stroke-miterlimit="10"/>
<path d="M1480.7 145.18C1478.03 145.18 1475.88 143.057 1475.88 140.451C1475.88 137.845 1478.03 135.722 1480.7 135.722C1483.36 135.722 1485.5 137.845 1485.5 140.451C1485.5 143.057 1483.35 145.18 1480.7 145.18Z" fill="#1F2846" stroke="#1F2846" stroke-width="1.3" stroke-miterlimit="10"/>
<path d="M1490.73 162.625H1470.99C1470.74 162.625 1470.53 162.423 1470.53 162.176V158.053C1470.53 152.459 1475.17 147.898 1480.85 147.898C1486.54 147.898 1491.18 152.459 1491.18 158.053V162.176C1491.18 162.423 1490.97 162.625 1490.72 162.625H1490.73Z" fill="#1F2846" stroke="#1F2846" stroke-width="1.3" stroke-miterlimit="10"/>
<path d="M1480.67 173.735C1467.73 173.735 1457.22 163.389 1457.22 150.661C1457.22 137.934 1467.73 127.588 1480.67 127.588C1493.61 127.588 1504.13 137.934 1504.13 150.661C1504.13 163.389 1493.61 173.735 1480.67 173.735ZM1480.67 128.251C1468.11 128.251 1457.9 138.305 1457.9 150.65C1457.9 162.995 1468.12 173.049 1480.67 173.049C1493.23 173.049 1503.45 162.995 1503.45 150.65C1503.45 138.305 1493.23 128.251 1480.67 128.251Z" stroke="#1F2846" stroke-width="1.3" stroke-miterlimit="10"/>
<path d="M1498.96 360.86C1496.3 360.86 1494.15 358.737 1494.15 356.131C1494.15 353.524 1496.3 351.401 1498.96 351.401C1501.63 351.401 1503.77 353.524 1503.77 356.131C1503.77 358.737 1501.61 360.86 1498.96 360.86Z" fill="#1F2846" stroke="#1F2846" stroke-width="1.3" stroke-miterlimit="10"/>
<path d="M1509 378.306H1489.26C1489 378.306 1488.8 378.104 1488.8 377.857V373.734C1488.8 368.14 1493.44 363.579 1499.12 363.579C1504.81 363.579 1509.45 368.14 1509.45 373.734V377.857C1509.45 378.104 1509.24 378.306 1508.99 378.306H1509Z" fill="#1F2846" stroke="#1F2846" stroke-width="1.3" stroke-miterlimit="10"/>
<path d="M1498.94 389.416C1486 389.416 1475.49 379.07 1475.49 366.342C1475.49 353.615 1486 343.269 1498.94 343.269C1511.88 343.269 1522.4 353.615 1522.4 366.342C1522.4 379.07 1511.88 389.416 1498.94 389.416ZM1498.94 343.932C1486.38 343.932 1476.17 353.986 1476.17 366.331C1476.17 378.677 1486.39 388.73 1498.94 388.73C1511.5 388.73 1521.72 378.677 1521.72 366.331C1521.72 353.986 1511.5 343.932 1498.94 343.932Z" stroke="#1F2846" stroke-width="1.3" stroke-miterlimit="10"/>
<path d="M1356.2 505.771C1353.54 505.771 1351.38 503.648 1351.38 501.042C1351.38 498.435 1353.54 496.312 1356.2 496.312C1358.86 496.312 1361.01 498.435 1361.01 501.042C1361.01 503.648 1358.85 505.771 1356.2 505.771Z" fill="#1F2846" stroke="#1F2846" stroke-width="1.3" stroke-miterlimit="10"/>
<path d="M1366.24 523.216H1346.49C1346.24 523.216 1346.04 523.013 1346.04 522.766V518.644C1346.04 513.05 1350.67 508.489 1356.36 508.489C1362.05 508.489 1366.69 513.05 1366.69 518.644V522.766C1366.69 523.013 1366.48 523.216 1366.23 523.216H1366.24Z" fill="#1F2846" stroke="#1F2846" stroke-width="1.3" stroke-miterlimit="10"/>
<path d="M1356.18 534.327C1343.24 534.327 1332.72 523.981 1332.72 511.253C1332.72 498.526 1343.24 488.18 1356.18 488.18C1369.12 488.18 1379.64 498.526 1379.64 511.253C1379.64 523.981 1369.12 534.327 1356.18 534.327ZM1356.18 488.843C1343.62 488.843 1333.41 498.897 1333.41 511.242C1333.41 523.587 1343.63 533.641 1356.18 533.641C1368.73 533.641 1378.96 523.587 1378.96 511.242C1378.96 498.897 1368.73 488.843 1356.18 488.843Z" stroke="#1F2846" stroke-width="1.3" stroke-miterlimit="10"/>
<path d="M1403.32 265.185V232.822C1403.32 228.823 1401.74 225.577 1399.79 225.577H1277.79H1472.7C1476.96 225.577 1480.41 222.184 1480.41 217.994V174.206" stroke="#1F2846" stroke-width="1.3" stroke-linecap="round" stroke-linejoin="round"/>
<path d="M1349.52 225.308V97.4948C1349.52 92.3949 1352.96 88.261 1357.2 88.261H1392.48" stroke="#1F2846" stroke-width="1.3" stroke-linecap="round" stroke-linejoin="round"/>
<path d="M1355.93 487.606V429.597C1355.93 424.408 1351.33 420.206 1345.65 420.206H1263.69H1501.82" stroke="#1F2846" stroke-width="1.3" stroke-linecap="round" stroke-linejoin="round"/>
<path d="M1368.48 421.173V373.992C1368.48 370.353 1371.47 367.41 1375.17 367.41H1475.83" stroke="#1F2846" stroke-width="1.3" stroke-miterlimit="10"/>
<path d="M1436.41 367.634V455.939C1436.41 462.264 1441.12 467.386 1446.91 467.386H1536.94" stroke="#1F2846" stroke-width="1.3" stroke-linecap="round" stroke-linejoin="round"/>
<path d="M1436.15 299.088H1551.43V251.144" stroke="#1F2846" stroke-width="1.3" stroke-linecap="round" stroke-linejoin="round"/>
</g>
<defs>
<clipPath id="clip0_1718_1287">
<rect width="721" height="535" fill="white"/>
</clipPath>
<clipPath id="clip1_1718_1287">
<rect width="732" height="535" fill="white" transform="matrix(-1 0 0 1 1603 0)"/>
</clipPath>
</defs>
</svg>
