<svg width="375" height="283" viewBox="0 0 375 283" fill="none" xmlns="http://www.w3.org/2000/svg">
<g clip-path="url(#clip0_2655_1649)">
<path d="M52.3269 100.45V85.1097L97.8097 19.9707H120.486V83.462H132.727V100.45H120.486V120.216H101.012V100.45H52.3269ZM102.261 40.8731L73.7483 83.4848H102.261V40.8731Z" stroke="#1F2846" stroke-width="2" stroke-miterlimit="10"/>
<path d="M153.796 30.4306C159.595 21.3402 169.217 16.7949 182.661 16.7949C196.105 16.7949 205.727 21.3402 211.526 30.4306C217.317 39.5211 220.214 52.0963 220.218 68.1561C220.218 84.3031 217.321 96.9692 211.526 106.154C205.731 115.34 196.109 119.932 182.661 119.932C169.217 119.932 159.595 115.34 153.796 106.154C147.998 96.9692 145.097 84.3031 145.093 68.1561C145.093 52.1001 147.994 39.5249 153.796 30.4306ZM199.699 50.8217C198.821 46.1401 197.059 42.3127 194.414 39.3393C191.768 36.366 187.85 34.8812 182.661 34.885C177.464 34.885 173.547 36.3698 170.909 39.3393C168.27 42.3089 166.508 46.1363 165.623 50.8217C164.737 55.5109 164.296 61.289 164.3 68.1561C164.21 74.0948 164.623 80.0304 165.532 85.8996C166.368 90.6835 168.13 94.5356 170.818 97.4559C173.505 100.376 177.445 101.838 182.638 101.842C187.835 101.842 191.777 100.38 194.465 97.4559C197.152 94.5318 198.914 90.6797 199.75 85.8996C200.665 80.0309 201.083 74.0953 201 68.1561C201.092 62.3505 200.656 56.5486 199.699 50.8217Z" stroke="#1F2846" stroke-width="2" stroke-miterlimit="10"/>
<path d="M234.128 100.45V85.1097L279.61 19.9707H302.287V83.462H314.527V100.45H302.287V120.216H282.813V100.45H234.128ZM284.062 40.8731L255.549 83.4848H284.062V40.8731Z" stroke="#1F2846" stroke-width="2" stroke-miterlimit="10"/>
<path d="M-129.984 100.45H101.012V223.564C101.012 225.961 101.964 228.26 103.658 229.956C105.352 231.651 107.649 232.603 110.045 232.603H146.228" stroke="#1F2846" stroke-width="2" stroke-miterlimit="10"/>
<path d="M52 100.777V130.637C52 132.786 51.5788 134.913 50.7603 136.899C49.9418 138.884 48.7422 140.688 47.2299 142.207C45.7176 143.727 43.9222 144.932 41.9462 145.754C39.9703 146.577 37.8525 147 35.7137 147H1.28626C-3.03312 147 -7.1756 145.276 -10.2299 142.207C-13.2841 139.139 -15 134.977 -15 130.637V-73" stroke="#1F2846" stroke-width="2" stroke-miterlimit="10"/>
<path d="M132.727 83.4625H370.94C373.08 83.4632 375.199 83.042 377.177 82.2229C379.155 81.4038 380.952 80.2028 382.465 78.6886C383.979 77.1743 385.18 75.3765 385.999 73.3978C386.818 71.4191 387.24 69.2982 387.24 67.1564V9.77276C387.238 7.88591 387.607 6.01711 388.327 4.27323C389.047 2.52936 390.103 0.944616 391.436 -0.390387C392.768 -1.72539 394.351 -2.78447 396.093 -3.50705C397.834 -4.22964 399.701 -4.60156 401.587 -4.60156H484.326" stroke="#1F2846" stroke-width="2" stroke-miterlimit="10"/>
<path d="M484.326 161.3H318.587C314.264 161.3 310.118 159.581 307.061 156.522C304.004 153.463 302.287 149.314 302.287 144.988V120.216H405.976L433.137 93.0303H484.326" stroke="#1F2846" stroke-width="2" stroke-miterlimit="10"/>
<path d="M115.706 268.965C120.798 268.965 124.926 264.834 124.926 259.739C124.926 254.643 120.798 250.512 115.706 250.512C110.614 250.512 106.486 254.643 106.486 259.739C106.486 264.834 110.614 268.965 115.706 268.965Z" stroke="#1F2846" stroke-width="2" stroke-miterlimit="10"/>
<path d="M242.065 188.168C241.404 188.83 240.619 189.355 239.754 189.714C238.89 190.072 237.964 190.256 237.029 190.256C236.094 190.256 235.167 190.072 234.303 189.714C233.439 189.355 232.654 188.83 231.993 188.168C231.331 187.506 230.806 186.72 230.448 185.855C230.09 184.989 229.905 184.062 229.905 183.126C229.905 182.189 230.09 181.262 230.448 180.397C230.806 179.532 231.331 178.745 231.993 178.083L242.706 167.362C239.575 166.129 236.161 165.801 232.853 166.415C229.544 167.028 226.475 168.56 223.993 170.834C221.512 173.109 219.719 176.035 218.819 179.279C217.918 182.524 217.947 185.956 218.9 189.185L123.609 246.109C120.609 244.366 117.119 243.662 113.679 244.108C110.239 244.553 107.043 246.122 104.585 248.571C102.128 251.021 100.547 254.214 100.089 257.654C99.6299 261.094 100.319 264.59 102.049 267.598C103.779 270.607 106.453 272.96 109.655 274.292C112.858 275.624 116.411 275.86 119.762 274.965C123.113 274.07 126.075 272.093 128.188 269.341C130.302 266.588 131.448 263.215 131.449 259.744C131.448 258.999 131.395 258.255 131.29 257.517L227.638 199.952C230.889 201.696 234.597 202.398 238.26 201.96C241.922 201.523 245.362 199.969 248.111 197.508C250.86 195.047 252.786 191.799 253.627 188.205C254.469 184.611 254.184 180.845 252.812 177.419L242.065 188.168Z" stroke="#1F2846" stroke-width="2" stroke-miterlimit="10"/>
<path d="M234.128 85.1328V116.182C234.128 118.58 233.176 120.879 231.482 122.574C229.788 124.269 227.491 125.222 225.095 125.222C223.909 125.222 222.734 125.456 221.638 125.91C220.542 126.364 219.546 127.03 218.708 127.869C217.869 128.709 217.204 129.705 216.75 130.802C216.296 131.899 216.062 133.074 216.062 134.261V136.585" stroke="#1F2846" stroke-width="2" stroke-miterlimit="10"/>
<path d="M216.062 138.858C217.943 138.858 219.468 137.332 219.468 135.449C219.468 133.566 217.943 132.04 216.062 132.04C214.18 132.04 212.655 133.566 212.655 135.449C212.655 137.332 214.18 138.858 216.062 138.858Z" fill="#1F2846"/>
<path d="M252.813 177.413L261.369 168.856H275.784C276.509 168.856 277.203 169.144 277.715 169.657C278.228 170.169 278.515 170.864 278.515 171.589V179.197" stroke="#1F2846" stroke-width="2" stroke-miterlimit="10"/>
<path d="M247.817 197.889H333.071C335.465 197.889 337.762 196.937 339.456 195.244C341.15 193.55 342.102 191.252 342.104 188.855V83.4854" stroke="#1F2846" stroke-width="2" stroke-miterlimit="10"/>
<path d="M278.515 182.606C280.71 182.606 282.489 180.825 282.489 178.628C282.489 176.432 280.71 174.651 278.515 174.651C276.32 174.651 274.541 176.432 274.541 178.628C274.541 180.825 276.32 182.606 278.515 182.606Z" fill="#1F2846"/>
</g>
<defs>
<clipPath id="clip0_2655_1649">
<rect width="375" height="283" fill="white"/>
</clipPath>
</defs>
</svg>
