<svg width="333" height="226" viewBox="0 0 333 226" fill="none" xmlns="http://www.w3.org/2000/svg">
<path opacity="0.2" d="M6.38647 157.374V210.944C6.38647 218.594 19.6422 224.796 35.9971 224.796C52.3521 224.796 65.6078 218.594 65.6078 210.944V157.374H6.38647Z" fill="url(#paint0_linear_2687_6914)"/>
<path d="M36 192.371C55.8823 192.371 72 186.355 72 178.935C72 171.515 55.8823 165.499 36 165.499C16.1177 165.499 0 171.515 0 178.935C0 186.355 16.1177 192.371 36 192.371Z" fill="white"/>
<path d="M36 188.575C55.8823 188.575 72 182.56 72 175.139C72 167.719 55.8823 161.703 36 161.703C16.1177 161.703 0 167.719 0 175.139C0 182.56 16.1177 188.575 36 188.575Z" fill="#D7D7D7"/>
<path d="M6.44727 65.0635V173.446C6.44727 179.537 19.6771 184.474 36.0001 184.474C52.323 184.474 65.5529 179.537 65.5529 173.446V65.0635H6.45193H6.44727Z" fill="#1F2846"/>
<path d="M64.9923 65.0636C64.9923 66.3908 64.2732 67.7159 62.8391 68.981C61.4058 70.2456 59.3031 71.4071 56.6617 72.3928C51.3827 74.3626 44.0564 75.5911 35.9395 75.5911C27.8226 75.5911 20.4963 74.3626 15.2173 72.3928C12.576 71.4071 10.4732 70.2456 9.03991 68.981C7.60582 67.7159 6.88672 66.3908 6.88672 65.0636C6.88672 63.7364 7.60582 62.4113 9.03991 61.1462C10.4732 59.8816 12.576 58.7201 15.2173 57.7345C20.4963 55.7646 27.8226 54.5361 35.9395 54.5361C44.0564 54.5361 51.3827 55.7646 56.6617 57.7345C59.3031 58.7201 61.4058 59.8816 62.8391 61.1462C64.2732 62.4113 64.9923 63.7364 64.9923 65.0636Z" fill="#1F2846" stroke="white"/>
<path opacity="0.4" d="M35.8232 75C51.2872 75 63.8232 70.5228 63.8232 65C63.8232 59.4772 51.2872 55 35.8232 55C20.3593 55 7.82324 59.4772 7.82324 65C7.82324 70.5228 20.3593 75 35.8232 75Z" fill="#1F2846"/>
<path opacity="0.2" d="M93.3813 157.797V211.825C93.3813 219.541 106.637 225.796 122.992 225.796C139.347 225.796 152.603 219.541 152.603 211.825V157.797H93.3813Z" fill="url(#paint1_linear_2687_6914)"/>
<path d="M123 192.889C142.882 192.889 159 186.546 159 178.723C159 170.9 142.882 164.558 123 164.558C103.118 164.558 87 170.9 87 178.723C87 186.546 103.118 192.889 123 192.889Z" fill="white"/>
<path d="M123 188.886C142.882 188.886 159 182.544 159 174.72C159 166.897 142.882 160.555 123 160.555C103.118 160.555 87 166.897 87 174.72C87 182.544 103.118 188.886 123 188.886Z" fill="#D7D7D7"/>
<path d="M93.4473 127.981V172.941C93.4473 179.362 106.677 184.567 123 184.567C139.323 184.567 152.553 179.362 152.553 172.941V127.981H93.4473Z" fill="#24B0B3"/>
<path d="M152.053 127.982C152.053 129.402 151.323 130.808 149.89 132.141C148.456 133.475 146.354 134.699 143.714 135.737C138.438 137.813 131.114 139.108 123 139.108C114.886 139.108 107.562 137.813 102.286 135.737C99.6465 134.699 97.5442 133.475 96.1102 132.141C94.6769 130.808 93.9473 129.402 93.9473 127.982C93.9473 126.561 94.6769 125.155 96.1102 123.822C97.5442 122.489 99.6465 121.264 102.286 120.226C107.562 118.15 114.886 116.855 123 116.855C131.114 116.855 138.438 118.15 143.714 120.226C146.354 121.264 148.456 122.489 149.89 123.822C151.323 125.155 152.053 126.561 152.053 127.982Z" fill="#24B0B3" stroke="white"/>
<path opacity="0.4" d="M123 138.355C138.464 138.355 151 133.878 151 128.355C151 122.833 138.464 118.355 123 118.355C107.536 118.355 95 122.833 95 128.355C95 133.878 107.536 138.355 123 138.355Z" fill="#24B0B3"/>
<path opacity="0.2" d="M180.375 166.976V206.601C180.375 216.098 193.631 223.796 209.986 223.796C226.341 223.796 239.596 216.098 239.596 206.601V166.976H180.38H180.375Z" fill="url(#paint2_linear_2687_6914)"/>
<path d="M210 192.85C229.882 192.85 246 186.571 246 178.825C246 171.079 229.882 164.8 210 164.8C190.118 164.8 174 171.079 174 178.825C174 186.571 190.118 192.85 210 192.85Z" fill="white"/>
<path d="M210 188.888C229.882 188.888 246 182.608 246 174.862C246 167.116 229.882 160.837 210 160.837C190.118 160.837 174 167.116 174 174.862C174 182.608 190.118 188.888 210 188.888Z" fill="#D7D7D7"/>
<path d="M180.447 146.567V173.095C180.447 179.452 193.677 184.606 210 184.606C226.323 184.606 239.553 179.452 239.553 173.095V146.567H180.452H180.447Z" fill="#6449AC"/>
<path d="M238.923 146.567C238.923 147.969 238.196 149.36 236.762 150.68C235.328 152 233.226 153.212 230.586 154.241C225.309 156.296 217.985 157.578 209.871 157.578C201.756 157.578 194.432 156.296 189.155 154.241C186.515 153.212 184.413 152 182.979 150.68C181.546 149.36 180.818 147.969 180.818 146.567C180.818 145.164 181.546 143.774 182.979 142.454C184.413 141.134 186.515 139.921 189.155 138.893C194.432 136.838 201.756 135.556 209.871 135.556C217.985 135.556 225.309 136.838 230.586 138.893C233.226 139.921 235.328 141.134 236.762 142.454C238.196 143.774 238.923 145.164 238.923 146.567Z" fill="#6449AC" stroke="white"/>
<path opacity="0.4" d="M210 156.056C224.912 156.056 237 151.802 237 146.556C237 141.309 224.912 137.056 210 137.056C195.088 137.056 183 141.309 183 146.556C183 151.802 195.088 156.056 210 156.056Z" fill="#6449AC"/>
<path opacity="0.2" d="M267.37 160.146V210.719C267.37 217.941 280.626 223.796 296.981 223.796C313.336 223.796 326.591 217.941 326.591 210.719V160.146H267.37Z" fill="url(#paint3_linear_2687_6914)"/>
<path d="M297 192.994C316.882 192.994 333 187.058 333 179.735C333 172.412 316.882 166.476 297 166.476C277.118 166.476 261 172.412 261 179.735C261 187.058 277.118 192.994 297 192.994Z" fill="white"/>
<path d="M297 189.247C316.882 189.247 333 183.311 333 175.988C333 168.665 316.882 162.729 297 162.729C277.118 162.729 261 168.665 261 175.988C261 183.311 277.118 189.247 297 189.247Z" fill="#D7D7D7"/>
<path d="M267.447 132.239V174.323C267.447 180.334 280.677 185.206 297 185.206C313.323 185.206 326.553 180.334 326.553 174.323V132.239H267.447Z" fill="#009AD6"/>
<path d="M325.997 132.239C325.997 133.544 325.281 134.849 323.846 136.098C322.413 137.346 320.31 138.492 317.669 139.465C312.389 141.409 305.062 142.622 296.944 142.622C288.827 142.622 281.5 141.409 276.22 139.465C273.578 138.492 271.476 137.346 270.042 136.098C268.608 134.849 267.892 133.544 267.892 132.239C267.892 130.934 268.608 129.629 270.042 128.38C271.476 127.132 273.578 125.986 276.22 125.013C281.5 123.069 288.827 121.856 296.944 121.856C305.062 121.856 312.389 123.069 317.669 125.013C320.31 125.986 322.413 127.132 323.846 128.38C325.281 129.629 325.997 130.934 325.997 132.239Z" fill="#009AD6" stroke="white"/>
<path opacity="0.4" d="M297.284 142.356C312.748 142.356 325.284 137.879 325.284 132.356C325.284 126.834 312.748 122.356 297.284 122.356C281.82 122.356 269.284 126.834 269.284 132.356C269.284 137.879 281.82 142.356 297.284 142.356Z" fill="#009AD6"/>
<path d="M16.4432 30.92V29.66H19.8432V44H18.4232V30.92H16.4432ZM22.9631 36.7C22.9631 34.4067 23.3164 32.6267 24.0231 31.36C24.7298 30.0933 25.9964 29.46 27.8231 29.46C29.6498 29.46 30.9164 30.0933 31.6231 31.36C32.3298 32.6267 32.6831 34.4067 32.6831 36.7C32.6831 39.0333 32.3298 40.84 31.6231 42.12C30.9164 43.4 29.6498 44.04 27.8231 44.04C25.9831 44.04 24.7098 43.4 24.0031 42.12C23.3098 40.84 22.9631 39.0333 22.9631 36.7ZM31.3031 36.7C31.3031 35.46 31.2164 34.4133 31.0431 33.56C30.8698 32.7067 30.5298 32.02 30.0231 31.5C29.5164 30.98 28.7831 30.72 27.8231 30.72C26.8631 30.72 26.1298 30.98 25.6231 31.5C25.1164 32.02 24.7764 32.7067 24.6031 33.56C24.4298 34.4133 24.3431 35.46 24.3431 36.7C24.3431 37.98 24.4298 39.0533 24.6031 39.92C24.7764 40.7733 25.1164 41.46 25.6231 41.98C26.1298 42.5 26.8631 42.76 27.8231 42.76C28.7831 42.76 29.5164 42.5 30.0231 41.98C30.5298 41.46 30.8698 40.7733 31.0431 39.92C31.2164 39.0533 31.3031 37.98 31.3031 36.7ZM35.2873 36.7C35.2873 34.4067 35.6406 32.6267 36.3473 31.36C37.054 30.0933 38.3206 29.46 40.1473 29.46C41.974 29.46 43.2406 30.0933 43.9473 31.36C44.654 32.6267 45.0073 34.4067 45.0073 36.7C45.0073 39.0333 44.654 40.84 43.9473 42.12C43.2406 43.4 41.974 44.04 40.1473 44.04C38.3073 44.04 37.034 43.4 36.3273 42.12C35.634 40.84 35.2873 39.0333 35.2873 36.7ZM43.6273 36.7C43.6273 35.46 43.5406 34.4133 43.3673 33.56C43.194 32.7067 42.854 32.02 42.3473 31.5C41.8406 30.98 41.1073 30.72 40.1473 30.72C39.1873 30.72 38.454 30.98 37.9473 31.5C37.4406 32.02 37.1006 32.7067 36.9273 33.56C36.754 34.4133 36.6673 35.46 36.6673 36.7C36.6673 37.98 36.754 39.0533 36.9273 39.92C37.1006 40.7733 37.4406 41.46 37.9473 41.98C38.454 42.5 39.1873 42.76 40.1473 42.76C41.1073 42.76 41.8406 42.5 42.3473 41.98C42.854 41.46 43.194 40.7733 43.3673 39.92C43.5406 39.0533 43.6273 37.98 43.6273 36.7ZM47.1715 32.66C47.1715 31.8067 47.4315 31.12 47.9515 30.6C48.4849 30.0667 49.1582 29.8 49.9715 29.8C50.7982 29.8 51.4715 30.0667 51.9915 30.6C52.5249 31.12 52.7915 31.8067 52.7915 32.66C52.7915 33.5267 52.5249 34.2267 51.9915 34.76C51.4715 35.28 50.7982 35.54 49.9715 35.54C49.1582 35.54 48.4849 35.28 47.9515 34.76C47.4315 34.2267 47.1715 33.5267 47.1715 32.66ZM58.3715 30L50.1715 44H48.7515L56.9715 30H58.3715ZM49.9715 30.7C49.4649 30.7 49.0582 30.8733 48.7515 31.22C48.4582 31.5533 48.3115 32.0333 48.3115 32.66C48.3115 33.2867 48.4582 33.7733 48.7515 34.12C49.0582 34.4667 49.4649 34.64 49.9715 34.64C50.4782 34.64 50.8849 34.4667 51.1915 34.12C51.4982 33.7733 51.6515 33.2867 51.6515 32.66C51.6515 32.0467 51.4982 31.5667 51.1915 31.22C50.8849 30.8733 50.4782 30.7 49.9715 30.7ZM54.3715 41.34C54.3715 40.4733 54.6315 39.78 55.1515 39.26C55.6849 38.7267 56.3582 38.46 57.1715 38.46C57.9849 38.46 58.6515 38.7267 59.1715 39.26C59.7049 39.78 59.9715 40.4733 59.9715 41.34C59.9715 42.2067 59.7049 42.9067 59.1715 43.44C58.6515 43.96 57.9849 44.22 57.1715 44.22C56.3582 44.22 55.6849 43.96 55.1515 43.44C54.6315 42.9067 54.3715 42.2067 54.3715 41.34ZM57.1715 39.38C56.6649 39.38 56.2582 39.5533 55.9515 39.9C55.6449 40.2467 55.4915 40.7267 55.4915 41.34C55.4915 41.9533 55.6449 42.4333 55.9515 42.78C56.2582 43.1267 56.6649 43.3 57.1715 43.3C57.6782 43.3 58.0782 43.1333 58.3715 42.8C58.6782 42.4533 58.8315 41.9667 58.8315 41.34C58.8315 40.7133 58.6782 40.2333 58.3715 39.9C58.0782 39.5533 57.6782 39.38 57.1715 39.38Z" fill="#1F2846"/>
<path d="M104.37 106.255C106.823 104.415 108.716 102.769 110.05 101.315C111.396 99.8488 112.07 98.4155 112.07 97.0155C112.07 96.0955 111.836 95.3621 111.37 94.8155C110.916 94.2555 110.17 93.9755 109.13 93.9755C108.116 93.9755 107.33 94.2955 106.77 94.9355C106.223 95.5621 105.916 96.4021 105.85 97.4555H104.49C104.57 95.9755 105.023 94.8288 105.85 94.0155C106.69 93.1888 107.783 92.7755 109.13 92.7755C110.423 92.7755 111.47 93.1421 112.27 93.8755C113.07 94.5955 113.47 95.6221 113.47 96.9555C113.47 98.5688 112.796 100.135 111.45 101.655C110.116 103.162 108.47 104.635 106.51 106.075H113.91V107.255H104.37V106.255ZM125.135 94.2155H117.815V99.3355C118.148 98.8688 118.635 98.4888 119.275 98.1955C119.915 97.8888 120.608 97.7355 121.355 97.7355C122.448 97.7355 123.342 97.9621 124.035 98.4155C124.728 98.8555 125.228 99.4355 125.535 100.155C125.842 100.862 125.995 101.622 125.995 102.435C125.995 103.369 125.815 104.215 125.455 104.975C125.108 105.722 124.568 106.315 123.835 106.755C123.115 107.195 122.215 107.415 121.135 107.415C119.762 107.415 118.648 107.062 117.795 106.355C116.942 105.635 116.422 104.669 116.235 103.455H117.615C117.788 104.335 118.188 105.015 118.815 105.495C119.442 105.975 120.215 106.215 121.135 106.215C122.295 106.215 123.168 105.875 123.755 105.195C124.355 104.502 124.655 103.589 124.655 102.455C124.655 101.349 124.355 100.489 123.755 99.8755C123.155 99.2488 122.295 98.9355 121.175 98.9355C120.402 98.9355 119.722 99.1155 119.135 99.4755C118.548 99.8355 118.115 100.322 117.835 100.935H116.515V92.9955H125.135V94.2155ZM127.999 96.0155C127.999 95.1621 128.259 94.4755 128.779 93.9555C129.312 93.4221 129.985 93.1555 130.799 93.1555C131.625 93.1555 132.299 93.4221 132.819 93.9555C133.352 94.4755 133.619 95.1621 133.619 96.0155C133.619 96.8821 133.352 97.5821 132.819 98.1155C132.299 98.6355 131.625 98.8955 130.799 98.8955C129.985 98.8955 129.312 98.6355 128.779 98.1155C128.259 97.5821 127.999 96.8821 127.999 96.0155ZM139.199 93.3555L130.999 107.355H129.579L137.799 93.3555H139.199ZM130.799 94.0555C130.292 94.0555 129.885 94.2288 129.579 94.5755C129.285 94.9088 129.139 95.3888 129.139 96.0155C129.139 96.6421 129.285 97.1288 129.579 97.4755C129.885 97.8221 130.292 97.9955 130.799 97.9955C131.305 97.9955 131.712 97.8221 132.019 97.4755C132.325 97.1288 132.479 96.6421 132.479 96.0155C132.479 95.4021 132.325 94.9221 132.019 94.5755C131.712 94.2288 131.305 94.0555 130.799 94.0555ZM135.199 104.695C135.199 103.829 135.459 103.135 135.979 102.615C136.512 102.082 137.185 101.815 137.999 101.815C138.812 101.815 139.479 102.082 139.999 102.615C140.532 103.135 140.799 103.829 140.799 104.695C140.799 105.562 140.532 106.262 139.999 106.795C139.479 107.315 138.812 107.575 137.999 107.575C137.185 107.575 136.512 107.315 135.979 106.795C135.459 106.262 135.199 105.562 135.199 104.695ZM137.999 102.735C137.492 102.735 137.085 102.909 136.779 103.255C136.472 103.602 136.319 104.082 136.319 104.695C136.319 105.309 136.472 105.789 136.779 106.135C137.085 106.482 137.492 106.655 137.999 106.655C138.505 106.655 138.905 106.489 139.199 106.155C139.505 105.809 139.659 105.322 139.659 104.695C139.659 104.069 139.505 103.589 139.199 103.255C138.905 102.909 138.505 102.735 137.999 102.735Z" fill="#1F2846"/>
<path d="M194.374 114.216C194.081 112.482 193.074 111.616 191.354 111.616C190.047 111.616 189.067 112.122 188.414 113.136C187.761 114.149 187.461 115.809 187.514 118.116C187.781 117.316 188.287 116.689 189.034 116.236C189.794 115.769 190.661 115.536 191.634 115.536C193.034 115.536 194.141 115.969 194.954 116.836C195.781 117.689 196.194 118.869 196.194 120.376C196.194 121.256 196.021 122.056 195.674 122.776C195.341 123.482 194.821 124.049 194.114 124.476C193.421 124.902 192.554 125.116 191.514 125.116C189.527 125.116 188.154 124.482 187.394 123.216C186.647 121.949 186.274 120.156 186.274 117.836C186.274 112.902 187.967 110.436 191.354 110.436C192.634 110.436 193.641 110.789 194.374 111.496C195.107 112.189 195.541 113.096 195.674 114.216H194.374ZM191.374 116.736C190.747 116.736 190.154 116.862 189.594 117.116C189.034 117.369 188.574 117.756 188.214 118.276C187.867 118.782 187.694 119.409 187.694 120.156C187.694 121.236 188.014 122.136 188.654 122.856C189.294 123.576 190.227 123.936 191.454 123.936C192.481 123.936 193.301 123.622 193.914 122.996C194.527 122.369 194.834 121.516 194.834 120.436C194.834 119.276 194.534 118.369 193.934 117.716C193.334 117.062 192.481 116.736 191.374 116.736ZM198.712 117.756C198.712 115.462 199.065 113.682 199.772 112.416C200.479 111.149 201.745 110.516 203.572 110.516C205.399 110.516 206.665 111.149 207.372 112.416C208.079 113.682 208.432 115.462 208.432 117.756C208.432 120.089 208.079 121.896 207.372 123.176C206.665 124.456 205.399 125.096 203.572 125.096C201.732 125.096 200.459 124.456 199.752 123.176C199.059 121.896 198.712 120.089 198.712 117.756ZM207.052 117.756C207.052 116.516 206.965 115.469 206.792 114.616C206.619 113.762 206.279 113.076 205.772 112.556C205.265 112.036 204.532 111.776 203.572 111.776C202.612 111.776 201.879 112.036 201.372 112.556C200.865 113.076 200.525 113.762 200.352 114.616C200.179 115.469 200.092 116.516 200.092 117.756C200.092 119.036 200.179 120.109 200.352 120.976C200.525 121.829 200.865 122.516 201.372 123.036C201.879 123.556 202.612 123.816 203.572 123.816C204.532 123.816 205.265 123.556 205.772 123.036C206.279 122.516 206.619 121.829 206.792 120.976C206.965 120.109 207.052 119.036 207.052 117.756ZM211.036 117.756C211.036 115.462 211.39 113.682 212.096 112.416C212.803 111.149 214.07 110.516 215.896 110.516C217.723 110.516 218.99 111.149 219.696 112.416C220.403 113.682 220.756 115.462 220.756 117.756C220.756 120.089 220.403 121.896 219.696 123.176C218.99 124.456 217.723 125.096 215.896 125.096C214.056 125.096 212.783 124.456 212.076 123.176C211.383 121.896 211.036 120.089 211.036 117.756ZM219.376 117.756C219.376 116.516 219.29 115.469 219.116 114.616C218.943 113.762 218.603 113.076 218.096 112.556C217.59 112.036 216.856 111.776 215.896 111.776C214.936 111.776 214.203 112.036 213.696 112.556C213.19 113.076 212.85 113.762 212.676 114.616C212.503 115.469 212.416 116.516 212.416 117.756C212.416 119.036 212.503 120.109 212.676 120.976C212.85 121.829 213.19 122.516 213.696 123.036C214.203 123.556 214.936 123.816 215.896 123.816C216.856 123.816 217.59 123.556 218.096 123.036C218.603 122.516 218.943 121.829 219.116 120.976C219.29 120.109 219.376 119.036 219.376 117.756ZM233.721 118.256H229.261V122.756H227.961V118.256H223.521V117.056H227.961V112.556H229.261V117.056H233.721V118.256Z" fill="#1F2846"/>
<path d="M282.514 97.2764V96.0164H285.914V110.356H284.494V97.2764H282.514ZM302.993 96.5564V110.356H301.593V99.3364L296.673 110.356H295.653L290.733 99.3764V110.356H289.333V96.5564H290.813L296.153 108.516L301.493 96.5564H302.993ZM316.229 103.556H311.769V108.056H310.469V103.556H306.029V102.356H310.469V97.8564H311.769V102.356H316.229V103.556Z" fill="#1F2846"/>
<defs>
<linearGradient id="paint0_linear_2687_6914" x1="35.9971" y1="226.479" x2="35.9971" y2="174.131" gradientUnits="userSpaceOnUse">
<stop stop-color="#1F2846" stop-opacity="0"/>
<stop offset="1" stop-color="#1F2846"/>
</linearGradient>
<linearGradient id="paint1_linear_2687_6914" x1="122.992" y1="227.493" x2="122.992" y2="174.698" gradientUnits="userSpaceOnUse">
<stop stop-color="#24B0B3" stop-opacity="0"/>
<stop offset="1" stop-color="#24B0B3"/>
</linearGradient>
<linearGradient id="paint2_linear_2687_6914" x1="209.986" y1="225.126" x2="209.986" y2="193.265" gradientUnits="userSpaceOnUse">
<stop stop-color="#6306FC" stop-opacity="0"/>
<stop offset="1" stop-color="#6449AC"/>
</linearGradient>
<linearGradient id="paint3_linear_2687_6914" x1="296.981" y1="225.384" x2="296.981" y2="175.966" gradientUnits="userSpaceOnUse">
<stop stop-color="#009AD6" stop-opacity="0"/>
<stop offset="1" stop-color="#009AD6"/>
</linearGradient>
</defs>
</svg>
