<svg width="1367" height="727" viewBox="0 0 1367 727" fill="none" xmlns="http://www.w3.org/2000/svg">
<g clip-path="url(#clip0_1462_1956)" filter="url(#filter0_b_1462_1956)">
<path opacity="0.4" d="M1209.94 571.511L1301.79 519.173C1311.35 513.728 1315.66 503.331 1315.21 493.245C1314.71 482.113 1308.4 471.327 1296.96 467.938L58.6166 111C47.1422 107.588 51.9374 89.2132 51.4465 78.0932C51.4465 78.0242 51.4465 77.9553 51.4465 77.8749C51.0476 67.559 -5.06702 90.227 4.8938 85.0001L4.8938 96.5001L83.6163 167L65.5696 203.4C55.3429 208.765 50.8023 219.759 51.4772 230.327C52.1726 241.229 58.4212 251.694 69.6809 255.037L1292.85 618.346C1305.45 622.091 1311.76 634.704 1311.08 646.904C1310.55 656.278 1305.88 665.411 1296.77 670.086L1287.53 674.709L1272.31 612.245L1206.57 574.6L1209.94 571.511Z" fill="url(#paint0_linear_1462_1956)"/>
<path opacity="0.8" d="M1314.7 500.896C1315.38 498.886 1314.75 498.748 1314.7 500.896L1311.06 649.534C1311.06 649.534 1303.29 679.816 1274.49 674.708C1270.32 670.818 1292.44 617.513 1283.45 615.818C1283.4 615.818 1283.35 615.795 1283.3 615.784L1232.18 599.827C1231.85 599.724 1231.56 599.517 1231.35 599.242L1211.39 573.36C1210.66 572.418 1210.92 570.959 1211.9 570.396L1305.26 516.818C1305.64 516.599 1308.61 514.268 1308.76 513.82L1312 508.713L1313.62 505.137L1314.7 500.896Z" fill="url(#paint1_linear_1462_1956)"/>
</g>
<g clip-path="url(#clip1_1462_1956)" filter="url(#filter1_f_1462_1956)">
<path opacity="0.4" d="M1209.94 571.511L1301.79 519.173C1311.35 513.728 1315.66 503.331 1315.21 493.245C1314.71 482.113 1308.4 471.327 1296.96 467.938L58.6166 111C47.1422 107.588 51.9374 89.2132 51.4465 78.0932C51.4465 78.0242 51.4465 77.9553 51.4465 77.8749C51.0476 67.559 -5.06702 90.227 4.8938 85.0001L4.8938 96.5001L83.6163 167L65.5696 203.4C55.3429 208.765 50.8023 219.759 51.4772 230.327C52.1726 241.229 58.4212 251.694 69.6809 255.037L1292.85 618.346C1305.45 622.091 1311.76 634.704 1311.08 646.904C1310.55 656.278 1305.88 665.411 1296.77 670.086L1287.53 674.709L1272.31 612.245L1206.57 574.6L1209.94 571.511Z" fill="url(#paint2_linear_1462_1956)"/>
<path opacity="0.8" d="M1314.7 500.896C1315.38 498.886 1314.75 498.748 1314.7 500.896L1311.06 649.534C1311.06 649.534 1303.29 679.816 1274.49 674.708C1270.32 670.818 1292.44 617.513 1283.45 615.818C1283.4 615.818 1283.35 615.795 1283.3 615.784L1232.18 599.827C1231.85 599.724 1231.56 599.517 1231.35 599.242L1211.39 573.36C1210.66 572.418 1210.92 570.959 1211.9 570.396L1305.26 516.818C1305.64 516.599 1308.61 514.268 1308.76 513.82L1312 508.713L1313.62 505.137L1314.7 500.896Z" fill="url(#paint3_linear_1462_1956)"/>
</g>
<path d="M336.614 212.039C336.614 213.511 335.42 214.705 333.947 214.705C332.475 214.705 331.281 213.511 331.281 212.039C331.281 210.566 332.475 209.372 333.947 209.372C335.42 209.372 336.614 210.566 336.614 212.039ZM44.0413 124.184L44.1863 123.705L44.0413 124.184ZM51.1079 95.5107L41.6522 100.865L41.1594 99.9951L50.6152 94.6405L51.1079 95.5107ZM44.1863 123.705L334.092 211.56L333.802 212.517L43.8963 124.662L44.1863 123.705ZM41.6522 100.865C32.0876 106.281 33.6671 120.517 44.1863 123.705L43.8963 124.662C32.5356 121.219 30.8297 105.845 41.1594 99.9951L41.6522 100.865Z" fill="white"/>
<path d="M336.614 299.888C336.614 301.361 335.42 302.555 333.947 302.555C332.475 302.555 331.281 301.361 331.281 299.888C331.281 298.416 332.475 297.222 333.947 297.222C335.42 297.222 336.614 298.416 336.614 299.888ZM44.0413 212.033L44.1863 211.555L44.0413 212.033ZM51.1079 183.36L41.6522 188.715L41.1594 187.845L50.6152 182.49L51.1079 183.36ZM44.1863 211.555L334.092 299.41L333.802 300.367L43.8963 212.512L44.1863 211.555ZM41.6522 188.715C32.0876 194.131 33.6671 208.367 44.1863 211.555L43.8963 212.512C32.5356 209.069 30.8297 193.694 41.1594 187.845L41.6522 188.715Z" fill="white"/>
<path d="M849.538 427.578C849.538 429.051 848.344 430.245 846.871 430.245C845.398 430.245 844.204 429.051 844.204 427.578C844.204 426.105 845.398 424.911 846.871 424.911C848.344 424.911 849.538 426.105 849.538 427.578ZM41.2098 155.704L41.4562 156.139L41.2098 155.704ZM51.1087 150.673L41.4562 156.139L40.9635 155.268L50.616 149.803L51.1087 150.673ZM43.9255 178.959L847.019 427.1L846.724 428.056L43.6303 179.914L43.9255 178.959ZM41.4562 156.139C31.9199 161.539 33.4548 175.723 43.9255 178.959L43.6303 179.914C32.3218 176.42 30.6642 161.101 40.9635 155.268L41.4562 156.139Z" fill="white"/>
<path d="M614.268 326.959C614.268 328.432 613.074 329.626 611.602 329.626C610.129 329.626 608.935 328.432 608.935 326.959C608.935 325.486 610.129 324.293 611.602 324.293C613.074 324.293 614.268 325.486 614.268 326.959ZM41.3433 130.091L41.5897 130.526L41.3433 130.091ZM43.9569 153.838L44.1027 153.36L43.9569 153.838ZM51.11 125.135L41.5897 130.526L41.0969 129.656L50.6172 124.265L51.11 125.135ZM44.1027 153.36L611.747 326.481L611.456 327.437L43.811 154.316L44.1027 153.36ZM41.5897 130.526C32.0344 135.937 33.5992 150.156 44.1027 153.36L43.811 154.316C32.4673 150.856 30.7772 135.5 41.0969 129.656L41.5897 130.526Z" fill="white"/>
<g filter="url(#filter2_f_1462_1956)">
<path d="M336.614 212.039C336.614 213.511 335.42 214.705 333.947 214.705C332.475 214.705 331.281 213.511 331.281 212.039C331.281 210.566 332.475 209.372 333.947 209.372C335.42 209.372 336.614 210.566 336.614 212.039ZM44.0413 124.184L44.1863 123.705L44.0413 124.184ZM51.1079 95.5107L41.6522 100.865L41.1594 99.9951L50.6152 94.6405L51.1079 95.5107ZM44.1863 123.705L334.092 211.56L333.802 212.517L43.8963 124.662L44.1863 123.705ZM41.6522 100.865C32.0876 106.281 33.6671 120.517 44.1863 123.705L43.8963 124.662C32.5356 121.219 30.8297 105.845 41.1594 99.9951L41.6522 100.865Z" fill="white"/>
<path d="M336.614 299.888C336.614 301.361 335.42 302.555 333.947 302.555C332.475 302.555 331.281 301.361 331.281 299.888C331.281 298.416 332.475 297.222 333.947 297.222C335.42 297.222 336.614 298.416 336.614 299.888ZM44.0413 212.033L44.1863 211.555L44.0413 212.033ZM51.1079 183.36L41.6522 188.715L41.1594 187.845L50.6152 182.49L51.1079 183.36ZM44.1863 211.555L334.092 299.41L333.802 300.367L43.8963 212.512L44.1863 211.555ZM41.6522 188.715C32.0876 194.131 33.6671 208.367 44.1863 211.555L43.8963 212.512C32.5356 209.069 30.8297 193.694 41.1594 187.845L41.6522 188.715Z" fill="white"/>
<path d="M849.538 427.578C849.538 429.051 848.344 430.245 846.871 430.245C845.398 430.245 844.204 429.051 844.204 427.578C844.204 426.105 845.398 424.911 846.871 424.911C848.344 424.911 849.538 426.105 849.538 427.578ZM41.2098 155.704L41.4562 156.139L41.2098 155.704ZM51.1087 150.673L41.4562 156.139L40.9635 155.268L50.616 149.803L51.1087 150.673ZM43.9255 178.959L847.019 427.1L846.724 428.056L43.6303 179.914L43.9255 178.959ZM41.4562 156.139C31.9199 161.539 33.4548 175.723 43.9255 178.959L43.6303 179.914C32.3218 176.42 30.6642 161.101 40.9635 155.268L41.4562 156.139Z" fill="white"/>
<path d="M614.268 326.959C614.268 328.432 613.074 329.626 611.602 329.626C610.129 329.626 608.935 328.432 608.935 326.959C608.935 325.486 610.129 324.293 611.602 324.293C613.074 324.293 614.268 325.486 614.268 326.959ZM41.3433 130.091L41.5897 130.526L41.3433 130.091ZM43.9569 153.838L44.1027 153.36L43.9569 153.838ZM51.11 125.135L41.5897 130.526L41.0969 129.656L50.6172 124.265L51.11 125.135ZM44.1027 153.36L611.747 326.481L611.456 327.437L43.811 154.316L44.1027 153.36ZM41.5897 130.526C32.0344 135.937 33.5992 150.156 44.1027 153.36L43.811 154.316C32.4673 150.856 30.7772 135.5 41.0969 129.656L41.5897 130.526Z" fill="white"/>
</g>
<path d="M158.986 44L56.2931 92.5218" stroke="white"/>
<path d="M158.986 74.6455L76.9404 111.931" stroke="white"/>
<path d="M158.986 105.291L115.518 124.189" stroke="white"/>
<path d="M158.986 44L56.2931 92.5218" stroke="white"/>
<path d="M158.986 74.6455L76.9404 111.931" stroke="white"/>
<path d="M158.986 105.291L115.518 124.189" stroke="white"/>
<g filter="url(#filter3_f_1462_1956)">
<path d="M158.986 44L56.2931 92.5218" stroke="white"/>
<path d="M158.986 74.6455L76.9404 111.931" stroke="white"/>
<path d="M158.986 105.291L115.518 124.189" stroke="white"/>
</g>
<path d="M1028.31 416.879C1028.32 415.406 1029.53 414.222 1031 414.234C1032.47 414.246 1033.66 415.45 1033.64 416.922C1033.63 418.395 1032.42 419.579 1030.95 419.567C1029.48 419.555 1028.3 418.351 1028.31 416.879ZM1312.91 506.124L1030.83 417.378L1031.13 416.424L1313.21 505.17L1312.91 506.124Z" fill="white"/>
<path d="M867.456 394.281C867.47 392.809 868.674 391.624 870.147 391.637C871.62 391.649 872.803 392.852 872.789 394.325C872.775 395.798 871.57 396.982 870.098 396.97C868.625 396.958 867.442 395.754 867.456 394.281ZM1286.72 527.065L869.971 394.78L870.274 393.827L1287.02 526.112L1286.72 527.065Z" fill="white"/>
<g filter="url(#filter4_f_1462_1956)">
<path d="M1028.31 416.879C1028.32 415.406 1029.53 414.222 1031 414.234C1032.47 414.246 1033.66 415.45 1033.64 416.922C1033.63 418.395 1032.42 419.579 1030.95 419.567C1029.48 419.555 1028.3 418.351 1028.31 416.879ZM1312.91 506.124L1030.83 417.378L1031.13 416.424L1313.21 505.17L1312.91 506.124Z" fill="white"/>
<path d="M867.456 394.281C867.47 392.809 868.674 391.624 870.147 391.637C871.62 391.649 872.803 392.852 872.789 394.325C872.775 395.798 871.57 396.982 870.098 396.97C868.625 396.958 867.442 395.754 867.456 394.281ZM1286.72 527.065L869.971 394.78L870.274 393.827L1287.02 526.112L1286.72 527.065Z" fill="white"/>
</g>
<path d="M952.327 465.911C952.34 464.438 953.545 463.254 955.018 463.266C956.491 463.278 957.674 464.482 957.66 465.955C957.646 467.427 956.441 468.611 954.969 468.599C953.496 468.587 952.313 467.384 952.327 465.911ZM1236.93 555.156L954.843 466.41L955.144 465.456L1237.23 554.202L1236.93 555.156Z" fill="white"/>
<path d="M791.473 443.313C791.487 441.841 792.692 440.657 794.165 440.669C795.637 440.681 796.82 441.885 796.807 443.357C796.793 444.83 795.588 446.014 794.115 446.002C792.642 445.99 791.46 444.786 791.473 443.313ZM1210.74 576.098L793.988 443.812L794.292 442.859L1211.04 575.145L1210.74 576.098Z" fill="white"/>
<g filter="url(#filter5_f_1462_1956)">
<path d="M952.327 465.911C952.34 464.438 953.545 463.254 955.018 463.266C956.491 463.278 957.674 464.482 957.66 465.955C957.646 467.427 956.441 468.611 954.969 468.599C953.496 468.587 952.313 467.384 952.327 465.911ZM1236.93 555.156L954.843 466.41L955.144 465.456L1237.23 554.202L1236.93 555.156Z" fill="white"/>
<path d="M791.473 443.313C791.487 441.841 792.692 440.657 794.165 440.669C795.637 440.681 796.82 441.885 796.807 443.357C796.793 444.83 795.588 446.014 794.115 446.002C792.642 445.99 791.46 444.786 791.473 443.313ZM1210.74 576.098L793.988 443.812L794.292 442.859L1211.04 575.145L1210.74 576.098Z" fill="white"/>
</g>
<defs>
<filter id="filter0_b_1462_1956" x="47.4043" y="-4" width="1271.83" height="693.434" filterUnits="userSpaceOnUse" color-interpolation-filters="sRGB">
<feFlood flood-opacity="0" result="BackgroundImageFix"/>
<feGaussianBlur in="BackgroundImageFix" stdDeviation="2"/>
<feComposite in2="SourceAlpha" operator="in" result="effect1_backgroundBlur_1462_1956"/>
<feBlend mode="normal" in="SourceGraphic" in2="effect1_backgroundBlur_1462_1956" result="shape"/>
</filter>
<filter id="filter1_f_1462_1956" x="0.604298" y="-50.8" width="1365.43" height="787.034" filterUnits="userSpaceOnUse" color-interpolation-filters="sRGB">
<feFlood flood-opacity="0" result="BackgroundImageFix"/>
<feBlend mode="normal" in="SourceGraphic" in2="BackgroundImageFix" result="shape"/>
<feGaussianBlur stdDeviation="25.4" result="effect1_foregroundBlur_1462_1956"/>
</filter>
<filter id="filter2_f_1462_1956" x="30.1133" y="90.6405" width="823.424" height="343.604" filterUnits="userSpaceOnUse" color-interpolation-filters="sRGB">
<feFlood flood-opacity="0" result="BackgroundImageFix"/>
<feBlend mode="normal" in="SourceGraphic" in2="BackgroundImageFix" result="shape"/>
<feGaussianBlur stdDeviation="2" result="effect1_foregroundBlur_1462_1956"/>
</filter>
<filter id="filter3_f_1462_1956" x="52.0801" y="39.548" width="111.119" height="89.0994" filterUnits="userSpaceOnUse" color-interpolation-filters="sRGB">
<feFlood flood-opacity="0" result="BackgroundImageFix"/>
<feBlend mode="normal" in="SourceGraphic" in2="BackgroundImageFix" result="shape"/>
<feGaussianBlur stdDeviation="2" result="effect1_foregroundBlur_1462_1956"/>
</filter>
<filter id="filter4_f_1462_1956" x="863.455" y="387.636" width="453.758" height="143.429" filterUnits="userSpaceOnUse" color-interpolation-filters="sRGB">
<feFlood flood-opacity="0" result="BackgroundImageFix"/>
<feBlend mode="normal" in="SourceGraphic" in2="BackgroundImageFix" result="shape"/>
<feGaussianBlur stdDeviation="2" result="effect1_foregroundBlur_1462_1956"/>
</filter>
<filter id="filter5_f_1462_1956" x="787.473" y="436.669" width="453.758" height="143.429" filterUnits="userSpaceOnUse" color-interpolation-filters="sRGB">
<feFlood flood-opacity="0" result="BackgroundImageFix"/>
<feBlend mode="normal" in="SourceGraphic" in2="BackgroundImageFix" result="shape"/>
<feGaussianBlur stdDeviation="2" result="effect1_foregroundBlur_1462_1956"/>
</filter>
<linearGradient id="paint0_linear_1462_1956" x1="1333.53" y1="572.246" x2="17.0186" y2="190.857" gradientUnits="userSpaceOnUse">
<stop stop-color="#00FFF3"/>
<stop offset="1" stop-color="#344AC5"/>
</linearGradient>
<linearGradient id="paint1_linear_1462_1956" x1="1282.41" y1="558.231" x2="1190.34" y2="491.271" gradientUnits="userSpaceOnUse">
<stop stop-color="#27E1E4"/>
<stop offset="1" stop-color="#344AC5"/>
</linearGradient>
<linearGradient id="paint2_linear_1462_1956" x1="32" y1="137" x2="1337.73" y2="468.458" gradientUnits="userSpaceOnUse">
<stop stop-color="#344AC5"/>
<stop offset="1" stop-color="#00FFF3"/>
</linearGradient>
<linearGradient id="paint3_linear_1462_1956" x1="1282.41" y1="558.231" x2="1190.34" y2="491.271" gradientUnits="userSpaceOnUse">
<stop stop-color="#27E1E4"/>
<stop offset="1" stop-color="#344AC5"/>
</linearGradient>
<clipPath id="clip0_1462_1956">
<rect width="1263.83" height="685.434" fill="white" transform="matrix(-1 8.74228e-08 8.74228e-08 1 1315.24 0)"/>
</clipPath>
<clipPath id="clip1_1462_1956">
<rect width="1263.83" height="685.434" fill="white" transform="matrix(-1 8.74228e-08 8.74228e-08 1 1315.24 0)"/>
</clipPath>
</defs>
</svg>
