<svg width="1920" height="995" viewBox="0 0 1920 995" fill="none" xmlns="http://www.w3.org/2000/svg">
<g opacity="0.6">
<path d="M-124 362.165L201.701 174L738.168 484.262C742.825 486.953 742.825 493.674 738.168 496.365L435.86 671.012C427.852 675.641 418 675.641 410.008 671.012L-124 362.165Z" fill="url(#paint0_linear_1844_1625)" style="mix-blend-mode:lighten"/>
</g>
<g opacity="0.51">
<path d="M1675.15 100.231V558L1585 505.929V52.4824L1675.15 100.231Z" fill="url(#paint1_linear_1844_1625)"/>
<path d="M1675.15 100.231L1766.46 52.4824V505.251L1675.15 558V100.231Z" fill="url(#paint2_linear_1844_1625)"/>
<path d="M1713.37 145.882L1675.09 167.852L1635.35 145.172V172.627L1675.09 195.695L1713.37 173.724V145.882Z" stroke="url(#paint3_linear_1844_1625)" stroke-width="0.9" stroke-miterlimit="10"/>
<path d="M1618.45 124.233L1675.19 157.012L1717.79 132.428" stroke="url(#paint4_linear_1844_1625)" stroke-width="0.9" stroke-linecap="round" stroke-linejoin="round"/>
<path d="M1674.44 100.037L1586.39 53.2247C1584.55 52.16 1584.55 51.1599 1586.39 50.0953L1671.41 0.992065C1673.73 -0.330688 1676.57 -0.330688 1678.89 0.992065L1765.69 51.0954C1766.76 51.7084 1766.76 52.4181 1765.69 53.0311L1675.86 100.037C1675.41 100.295 1674.89 100.295 1674.44 100.037Z" fill="url(#paint5_linear_1844_1625)"/>
<path opacity="0.48" d="M1585 233.151V53.0631" stroke="#00DCDD" stroke-width="0.9" stroke-miterlimit="10"/>
<path opacity="0.48" d="M1766.47 233.151V53.0631" stroke="#00DCDD" stroke-width="0.9" stroke-miterlimit="10"/>
<path opacity="0.48" d="M1675.15 167.852V100.231" stroke="#00DCDD" stroke-width="0.9" stroke-miterlimit="10"/>
<path opacity="0.48" d="M1675.15 444.243V195.695" stroke="#00DCDD" stroke-width="0.9" stroke-miterlimit="10"/>
</g>
<path d="M1815.63 519.819L1687.14 446.29C1684.33 444.683 1684.33 440.636 1687.14 439.029L1815.77 364.753C1819.27 362.716 1823.6 362.716 1827.1 364.753L1958.41 440.579C1960.01 441.497 1960.01 443.822 1958.41 444.74L1827.25 519.819C1823.66 521.886 1819.24 521.886 1815.66 519.819H1815.63Z" fill="url(#paint6_linear_1844_1625)"/>
<path d="M1738.9 420.288L1821.82 468.188L1848.48 452.805" stroke="url(#paint7_linear_1844_1625)" stroke-width="0.9" stroke-linecap="round" stroke-linejoin="round"/>
<path d="M1708.05 419.599L1821.82 485.293L1886.9 447.754" stroke="url(#paint8_linear_1844_1625)" stroke-width="0.9" stroke-linecap="round" stroke-linejoin="round"/>
<path d="M1822.31 405.852V440.292L1685.9 361.511V333.585L1822.31 405.852Z" fill="url(#paint9_linear_1844_1625)"/>
<path d="M1822.31 405.852L1960.5 333.585V360.477L1822.31 440.292V405.852Z" fill="url(#paint10_linear_1844_1625)"/>
<path opacity="0.48" d="M1818.32 404.101L1687.11 336.283C1684.3 334.705 1684.3 330.744 1687.11 329.166L1815.74 256.555C1819.24 254.574 1823.57 254.574 1827.08 256.555L1958.38 330.687C1959.98 331.605 1959.98 333.872 1958.38 334.762L1825.24 404.044C1821.65 406.082 1821.88 406.11 1818.29 404.073L1818.32 404.101Z" stroke="#00DCDD" stroke-width="0.9" stroke-miterlimit="10"/>
<path d="M1822.31 345.783V380.223L1685.9 301.47V273.516L1822.31 345.783Z" fill="url(#paint11_linear_1844_1625)"/>
<path d="M1822.31 345.783L1960.5 273.516V300.437L1822.31 380.223V345.783Z" fill="url(#paint12_linear_1844_1625)"/>
<path d="M1818.32 344.032L1687.11 276.214C1684.3 274.635 1684.3 270.675 1687.11 269.096L1815.74 196.485C1819.24 194.505 1823.57 194.505 1827.08 196.485L1958.38 270.617C1959.98 271.536 1959.98 273.803 1958.38 274.693L1825.24 343.975C1821.65 346.012 1821.88 346.041 1818.29 344.003L1818.32 344.032Z" fill="url(#paint13_linear_1844_1625)"/>
<path d="M1743.64 275.382L1820.79 234.771V214.71L1743.12 257.588L1743.64 275.382Z" fill="url(#paint14_linear_1844_1625)"/>
<path d="M1897.98 275.382L1820.79 234.771V214.71L1898.49 257.588L1897.98 275.382Z" fill="url(#paint15_linear_1844_1625)"/>
<path d="M1821.34 300.638V320.24L1743.63 275.382V259.453L1821.34 300.638Z" fill="url(#paint16_linear_1844_1625)"/>
<path d="M1821.34 300.638L1900.07 259.453V274.779L1821.34 320.24V300.638Z" fill="url(#paint17_linear_1844_1625)"/>
<path opacity="0.48" d="M1819.07 299.633L1744.29 261.003C1742.69 260.113 1742.69 257.846 1744.29 256.956L1817.58 215.571C1819.59 214.452 1822.03 214.452 1824.03 215.571L1898.87 257.817C1899.78 258.334 1899.78 259.625 1898.87 260.142L1823 299.633C1820.96 300.781 1821.11 300.81 1819.04 299.633H1819.07Z" stroke="#00DCDD" stroke-width="0.9" stroke-miterlimit="10"/>
<path d="M1821.59 521.369V345.783" stroke="#00DCDD" stroke-width="0.9" stroke-miterlimit="10"/>
<path opacity="0.48" d="M1685.01 443.076V273.516" stroke="#00DCDD" stroke-width="0.9" stroke-miterlimit="10"/>
<path d="M1080.65 543.05L1175.83 492.998V468.258L1080.02 521.152L1080.65 543.05Z" fill="url(#paint18_linear_1844_1625)"/>
<path opacity="0.45" d="M1082.2 519.574L1174.11 468.689C1175.8 467.77 1177.84 467.77 1179.5 468.689L1271.35 519.516C1274.02 521.009 1273.96 524.883 1271.23 526.261L1179.33 573.128C1177.72 573.932 1175.86 573.932 1174.25 573.128L1082.29 526.318C1079.56 524.941 1079.48 521.038 1082.17 519.574H1082.2Z" fill="#89CEEC"/>
<path d="M1270.98 543.05L1175.83 492.998V468.258L1271.61 521.152L1270.98 543.05Z" fill="url(#paint19_linear_1844_1625)"/>
<path d="M1176.49 574.19V598.384L1080.65 543.051V523.42L1176.49 574.19Z" fill="url(#paint20_linear_1844_1625)"/>
<path d="M1176.49 574.19L1273.56 523.42V542.333L1176.49 598.384V574.19Z" fill="url(#paint21_linear_1844_1625)"/>
<path opacity="0.48" d="M1173.68 572.956L1081.48 525.314C1079.51 524.195 1079.51 521.439 1081.48 520.32L1171.87 469.292C1174.34 467.914 1177.38 467.914 1179.85 469.292L1272.09 521.382C1273.21 522.013 1273.21 523.621 1272.09 524.252L1178.55 572.927C1176.03 574.362 1176.2 574.362 1173.68 572.927V572.956Z" stroke="#00DCDD" stroke-width="0.9" stroke-miterlimit="10"/>
<path d="M777.854 489.078L619.581 398.503C616.14 396.52 616.14 391.525 619.581 389.542L778.023 298.051C782.343 295.563 787.673 295.563 791.974 298.051L953.707 391.451C955.69 392.592 955.69 395.454 953.707 396.595L792.142 489.078C787.71 491.641 782.268 491.641 777.854 489.078Z" fill="url(#paint22_linear_1844_1625)"/>
<path d="M683.334 366.478L785.483 425.459L818.361 406.509" stroke="url(#paint23_linear_1844_1625)" stroke-width="0.9" stroke-linecap="round" stroke-linejoin="round"/>
<path d="M645.352 365.636L785.484 446.559L865.678 400.317" stroke="url(#paint24_linear_1844_1625)" stroke-width="0.9" stroke-linecap="round" stroke-linejoin="round"/>
<path d="M786.102 348.669V391.114L618.104 294.085V259.665L786.102 348.669Z" fill="url(#paint25_linear_1844_1625)"/>
<path d="M786.102 348.669L956.307 259.665V292.813L786.102 391.114V348.669Z" fill="url(#paint26_linear_1844_1625)"/>
<path opacity="0.48" d="M781.202 346.518L619.581 262.995C616.14 261.05 616.14 256.186 619.581 254.241L778.023 164.807C782.343 162.375 787.673 162.375 791.974 164.807L953.707 256.111C955.69 257.234 955.69 260.021 953.707 261.143L789.73 346.499C785.298 348.987 785.616 349.044 781.183 346.537L781.202 346.518Z" stroke="#00DCDD" stroke-width="0.9" stroke-miterlimit="10"/>
<path d="M786.102 274.687V317.131L618.104 220.102V185.702L786.102 274.687Z" fill="url(#paint27_linear_1844_1625)"/>
<path d="M786.102 274.687L956.307 185.702V218.83L786.102 317.131V274.687Z" fill="url(#paint28_linear_1844_1625)"/>
<path d="M781.202 272.535L619.581 189.012C616.14 187.067 616.14 182.203 619.581 180.258L778.023 90.8239C782.343 88.392 787.673 88.392 791.974 90.8239L953.707 182.129C955.69 183.251 955.69 186.038 953.707 187.161L789.73 272.517C785.298 275.005 785.616 275.061 781.183 272.554L781.202 272.535Z" fill="url(#paint29_linear_1844_1625)"/>
<path d="M689.189 187.965L784.25 137.963V113.252L688.553 166.079L689.189 187.965Z" fill="url(#paint30_linear_1844_1625)"/>
<path d="M879.311 187.965L784.25 137.963V113.252L879.947 166.079L879.311 187.965Z" fill="url(#paint31_linear_1844_1625)"/>
<path d="M784.905 219.073V243.26L689.189 187.965V168.361L784.905 219.073Z" fill="url(#paint32_linear_1844_1625)"/>
<path d="M784.904 219.073L881.892 168.361V187.235L784.904 243.26V219.073Z" fill="url(#paint33_linear_1844_1625)"/>
<path opacity="0.48" d="M782.119 217.839L690.031 170.25C688.068 169.147 688.068 166.378 690.031 165.256L780.305 114.3C782.774 112.916 785.803 112.916 788.253 114.3L880.416 166.322C881.538 166.958 881.538 168.548 880.416 169.184L786.982 217.82C784.457 219.242 784.644 219.26 782.119 217.839Z" stroke="#00DCDD" stroke-width="0.9" stroke-miterlimit="10"/>
<path d="M785.221 490.986V274.687" stroke="#00DCDD" stroke-width="0.9" stroke-miterlimit="10"/>
<path opacity="0.48" d="M956.309 394.537V185.702" stroke="#00DCDD" stroke-width="0.9" stroke-miterlimit="10"/>
<path opacity="0.48" d="M617 394.537V185.702" stroke="#00DCDD" stroke-width="0.9" stroke-miterlimit="10"/>
<g opacity="0.2">
<g opacity="0.6">
<path d="M-124 436.165L201.701 248L738.168 558.262C742.825 560.953 742.825 567.674 738.168 570.365L435.86 745.012C427.852 749.641 418 749.641 410.008 745.012L-124 436.165Z" fill="url(#paint34_linear_1844_1625)" style="mix-blend-mode:lighten"/>
</g>
</g>
<g opacity="0.5">
<g opacity="0.6">
<path d="M-124 402.165L201.701 214L738.168 524.262C742.825 526.953 742.825 533.674 738.168 536.365L435.86 711.012C427.852 715.641 418 715.641 410.008 711.012L-124 402.165Z" fill="url(#paint35_linear_1844_1625)" style="mix-blend-mode:lighten"/>
</g>
</g>
<path opacity="0.3" d="M103.257 298.38L42.7305 263.407L103.257 228.45L163.783 263.407L103.257 298.38Z" fill="#42E8E0"/>
<path opacity="0.5" d="M103.257 258.101L42.7305 223.129L103.257 188.172L163.783 223.144L103.257 258.101Z" fill="#42E8E0"/>
<path opacity="0.7" d="M103.257 225.82L42.7305 190.848L103.257 155.891L163.783 190.848L103.257 225.82Z" fill="#42E8E0"/>
<path d="M103.257 227.527C102.965 227.527 102.658 227.451 102.397 227.297L41.8705 192.324C41.3325 192.017 41.0098 191.448 41.0098 190.832C41.0098 190.217 41.3325 189.648 41.8705 189.341L102.397 154.384C102.935 154.076 103.58 154.076 104.118 154.384L164.644 189.356C165.182 189.664 165.505 190.233 165.505 190.848C165.505 191.463 165.182 192.032 164.644 192.34L104.118 227.297C103.857 227.451 103.549 227.527 103.257 227.527ZM46.174 190.848L103.257 223.836L160.341 190.863L103.257 157.875L46.174 190.848Z" fill="#42E8E0"/>
<g style="mix-blend-mode:lighten">
<path d="M390.225 675.341C384.922 675.341 379.696 673.942 375.131 671.312L201.084 570.762C198.348 569.178 196.734 566.364 196.734 563.211C196.734 560.058 198.364 557.244 201.084 555.66L516.011 373.723C516.549 373.415 517.194 373.415 517.732 373.723L706.028 482.5C708.748 484.085 710.377 486.899 710.377 490.052C710.377 493.204 708.748 496.034 706.028 497.603L405.348 671.312C400.768 673.957 395.558 675.341 390.24 675.341H390.225ZM516.856 377.183L202.79 558.628C201.13 559.581 200.146 561.289 200.146 563.196C200.146 565.103 201.13 566.825 202.79 567.779L376.838 668.328C384.937 673.004 395.496 673.004 403.612 668.328L704.291 494.619C705.935 493.666 706.934 491.959 706.934 490.052C706.934 488.145 705.951 486.438 704.291 485.469L516.856 377.183Z" fill="#42E8E0"/>
</g>
<path d="M535.396 311.232L496.685 81.3822L499.796 80.0744L495.122 77.3879V77.4163C494.227 76.8051 492.935 76.8477 491.528 77.6721L182.097 256.435C179.554 257.899 177.636 261.666 178.077 264.296L217.1 495.965C217.299 497.173 217.896 497.969 218.734 498.325L223.308 500.969L224.089 496.69L223.834 496.775L531.39 319.093C533.933 317.629 535.85 313.862 535.41 311.232H535.396Z" fill="url(#paint36_linear_1844_1625)"/>
<path d="M183.802 262.704L178.717 260.458C178.149 261.765 177.864 263.13 178.063 264.296L217.087 495.965C217.286 497.173 217.882 497.969 218.72 498.325L223.295 500.969L224.076 496.69L223.82 496.775L239.39 487.777L183.817 262.704H183.802Z" fill="url(#paint37_linear_1844_1625)"/>
<path d="M535.396 311.232L496.685 81.3822L499.058 80.3871C498.248 78.923 496.557 78.6103 494.64 79.719L185.208 258.482C182.666 259.946 180.748 263.713 181.188 266.342L220.212 498.012C220.311 498.609 220.51 499.121 220.794 499.519L222.612 500.571C222.854 500.599 223.124 500.571 223.394 500.542L224.104 496.704L223.848 496.789L531.404 319.107C533.947 317.643 535.865 313.876 535.424 311.246L535.396 311.232Z" fill="#42E8E0"/>
<path d="M536.234 321.879L226.802 500.642C224.416 502.02 222.37 501.224 221.944 498.751L182.921 267.082C182.48 264.452 184.398 260.685 186.941 259.221L496.372 80.4582C498.759 79.0794 500.804 79.8754 501.23 82.3487L540.254 314.018C540.694 316.648 538.776 320.415 536.234 321.879Z" fill="#00598B"/>
<g opacity="0.51">
<path d="M492.326 95.2414L194.061 267.551L231.038 485.745L529.105 313.549L492.326 95.2414Z" fill="#453C9E"/>
</g>
<path d="M730.738 431.573L713.847 440.4L544.513 342.575C541.687 340.941 536.729 341.14 533.461 343.03L241.418 511.743C238.62 510.18 225.877 504.053 225.877 504.053L232.056 520.172C232.056 520.172 232.071 520.158 232.085 520.158C232.341 520.869 232.895 521.537 233.818 522.077L412.158 625.105C414.985 626.739 419.943 626.54 423.21 624.65L572.641 538.325L722.072 451.999C723.422 451.217 724.231 450.279 724.572 449.327H724.601L730.738 431.587V431.573Z" fill="url(#paint38_linear_1844_1625)"/>
<path d="M728.125 434.345L421.833 611.288C418.48 613.221 413.409 613.434 410.511 611.757L227.739 506.171C224.841 504.494 225.196 501.566 228.548 499.632L534.84 322.689C538.193 320.756 543.264 320.543 546.162 322.22L728.934 427.806C731.832 429.483 731.477 432.412 728.125 434.345Z" fill="#E7E6F1"/>
<path d="M728.124 432.582L421.832 609.525C418.48 611.459 413.408 611.672 410.51 609.994L227.738 504.408C226.787 503.854 226.218 503.172 225.963 502.433C225.508 503.811 226.048 505.204 227.738 506.171L410.51 611.757C413.408 613.434 418.48 613.221 421.832 611.288L728.124 434.345C730.383 433.037 731.249 431.289 730.71 429.782C730.383 430.777 729.53 431.772 728.124 432.582Z" fill="white"/>
<path d="M329.453 573.008V569.653C329.453 569.341 329.652 569.184 329.879 569.327L341.727 576.164C341.968 576.306 342.153 576.675 342.153 576.988V580.343C342.153 580.656 341.954 580.812 341.727 580.67L329.879 573.833C329.638 573.69 329.453 573.321 329.453 573.008Z" fill="#222165"/>
<path d="M347.168 583.243V579.888C347.168 579.575 347.367 579.419 347.594 579.561L359.442 586.398C359.683 586.54 359.868 586.91 359.868 587.223V590.577C359.868 590.89 359.669 591.046 359.442 590.904L347.594 584.067C347.353 583.925 347.168 583.555 347.168 583.243Z" fill="#222165"/>
<path d="M275.385 496.278L529.911 349.242C531.601 348.261 533.704 348.261 535.394 349.242L626.027 401.708C627.334 402.461 627.334 404.338 626.027 405.091L371.615 552.07C369.925 553.051 367.837 553.051 366.132 552.07L275.371 499.661C274.064 498.907 274.064 497.031 275.371 496.278H275.385Z" fill="#00CFD6" fill-opacity="0.1"/>
<path d="M275.384 499.661L276.294 500.187L529.91 353.677C531.601 352.696 533.703 352.696 535.394 353.677L625.118 405.617L626.027 405.091C627.334 404.338 627.334 402.461 626.027 401.708L535.394 349.242C533.703 348.261 531.601 348.261 529.91 349.242L275.384 496.278C274.078 497.031 274.078 498.907 275.384 499.661Z" fill="#4177A6"/>
<path d="M542.238 362.533L321.139 490.251L311.309 484.579L532.408 356.847L542.238 362.533Z" fill="#00598B"/>
<path d="M566.334 376.449L358.957 496.249L349.127 490.578L556.504 370.777L566.334 376.449Z" fill="#00598B"/>
<path d="M582.031 385.518L337.875 526.569L328.045 520.897L572.2 379.846L582.031 385.518Z" fill="#00598B"/>
<path d="M597.728 394.587L353.573 535.638L343.742 529.966L587.898 388.915L597.728 394.587Z" fill="#00598B"/>
<path d="M613.425 403.655L369.27 544.707L359.439 539.035L603.595 397.984L613.425 403.655Z" fill="#00598B"/>
<path d="M307.788 497.969L297.957 503.655L288.127 497.969L297.957 492.298L307.788 497.969Z" fill="#00598B"/>
<path d="M342.464 505.787L322.065 517.571L312.234 511.9L332.634 500.116L342.464 505.787Z" fill="#00598B"/>
<path d="M539.713 531.857L608.342 492.212C611.027 490.663 611.027 488.147 608.342 486.598L561.406 459.49C558.721 457.941 554.374 457.941 551.689 459.49L483.061 499.135C480.376 500.684 480.376 503.2 483.061 504.75L529.997 531.857C532.681 533.406 537.028 533.406 539.713 531.857Z" fill="url(#paint39_linear_1844_1625)"/>
<path d="M483.074 501.438L551.702 461.793C554.387 460.244 558.734 460.244 561.419 461.793L608.355 488.9C609.179 489.384 609.718 489.952 610.045 490.563C610.755 489.213 610.216 487.678 608.355 486.612L561.419 459.505C558.734 457.955 554.387 457.955 551.702 459.505L483.074 499.149C481.213 500.215 480.673 501.75 481.383 503.101C481.696 502.489 482.235 501.921 483.074 501.438Z" fill="#4177A6"/>
<g opacity="0.11">
<mask id="mask0_1844_1625" style="mask-type:luminance" maskUnits="userSpaceOnUse" x="194" y="95" width="336" height="391">
<path d="M492.328 95.2414L194.062 267.551L231.04 485.745L529.107 313.549L492.328 95.2414Z" fill="white"/>
</mask>
<g mask="url(#mask0_1844_1625)">
<path d="M535.144 322.32L228.852 499.263C225.5 501.196 220.428 501.409 217.53 499.732L34.7583 394.146C31.8603 392.469 32.2154 389.54 35.568 387.607L341.86 210.664C345.212 208.731 350.284 208.518 353.182 210.195L535.954 315.781C538.852 317.458 538.497 320.386 535.144 322.32Z" fill="url(#paint40_linear_1844_1625)"/>
<path d="M227.944 354.047L296.572 314.402C299.257 312.853 299.257 310.337 296.572 308.787L249.636 281.68C246.951 280.131 242.604 280.131 239.919 281.68L171.291 321.325C168.606 322.874 168.606 325.39 171.291 326.939L218.227 354.047C220.912 355.596 225.259 355.596 227.944 354.047Z" fill="url(#paint41_linear_1844_1625)"/>
<path d="M171.304 323.613L239.932 283.969C242.617 282.419 246.964 282.419 249.649 283.969L296.585 311.076C297.409 311.559 297.949 312.128 298.276 312.739C298.986 311.389 298.446 309.853 296.585 308.787L249.649 281.68C246.964 280.131 242.617 280.131 239.932 281.68L171.304 321.325C169.443 322.391 168.903 323.926 169.614 325.276C169.926 324.665 170.466 324.096 171.304 323.613Z" fill="#9198DB"/>
<path d="M141.129 415.994L395.655 268.958C397.345 267.977 399.448 267.977 401.138 268.958L491.771 321.424C493.078 322.177 493.078 324.054 491.771 324.807L237.359 471.786C235.669 472.767 233.581 472.767 231.876 471.786L141.115 419.377C139.808 418.623 139.808 416.747 141.115 415.994H141.129Z" fill="#ADB1F2"/>
<path d="M141.129 419.391L142.038 419.917L395.654 273.407C397.345 272.426 399.447 272.426 401.138 273.407L490.862 325.347L491.771 324.821C493.078 324.068 493.078 322.192 491.771 321.438L401.138 268.972C399.447 267.991 397.345 267.991 395.654 268.972L141.129 416.008C139.822 416.761 139.822 418.638 141.129 419.391Z" fill="#9198DB"/>
<path d="M468.063 317.856L246.324 445.958L255.103 451.033L476.842 322.931L468.063 317.856Z" fill="#24126A"/>
<path d="M444.697 304.352L233.939 426.115L242.719 431.189L453.476 309.427L444.697 304.352Z" fill="#24126A"/>
<path d="M218.197 435.212L198.521 446.584L207.301 451.644L226.99 440.272L218.197 435.212Z" fill="#24126A"/>
<path d="M235.586 452.156L221.877 460.073L230.67 465.148L244.365 457.23L235.586 452.156Z" fill="#24126A"/>
<path d="M430.064 295.895L183.877 438.126L192.67 443.2L438.843 300.969L430.064 295.895Z" fill="#24126A"/>
<path d="M415.417 287.451L169.244 429.668L178.023 434.743L424.196 292.512L415.417 287.451Z" fill="#24126A"/>
<path d="M400.785 278.993L154.598 421.21L163.391 426.285L409.564 284.068L400.785 278.993Z" fill="#24126A"/>
</g>
</g>
<path d="M279.234 426.808L305.332 411.721L306.101 416.243L279.988 431.345L279.234 426.808Z" fill="#42E8E0"/>
<path d="M309.529 409.306L323.762 401.079L324.53 405.615L310.298 413.843L309.529 409.306Z" fill="#42E8E0"/>
<path d="M345.895 388.298L356.192 382.347L356.961 386.883L346.663 392.835L345.895 388.298Z" fill="#42E8E0"/>
<path d="M338.393 392.635L341.912 390.605L342.665 395.142L339.161 397.172L338.393 392.635Z" fill="#42E8E0"/>
<path d="M328.02 398.633L334.398 394.942L335.166 399.479L328.773 403.17L328.02 398.633Z" fill="#42E8E0"/>
<path d="M299.893 392.112L310.175 386.161L310.943 390.698L300.646 396.649L299.893 392.112Z" fill="#42E8E0"/>
<path d="M275.73 406.092L295.896 394.419L296.664 398.956L276.499 410.629L275.73 406.092Z" fill="#42E8E0"/>
<path d="M304.639 332.564L324.804 320.906L325.572 325.443L305.407 337.101L304.639 332.564Z" fill="#42E8E0"/>
<path d="M294.266 338.562L300.659 334.871L301.413 339.408L295.034 343.099L294.266 338.562Z" fill="#42E8E0"/>
<path d="M308.006 353.326L328.171 341.653L328.94 346.19L308.774 357.863L308.006 353.326Z" fill="#42E8E0"/>
<path d="M297.633 359.324L304.027 355.633L304.78 360.154L298.401 363.861L297.633 359.324Z" fill="#42E8E0"/>
<path d="M289.763 242.995L251.768 264.972L251 260.435L288.994 238.473L289.763 242.995Z" fill="#42E8E0"/>
<path d="M303.149 235.259L293.743 240.688L292.975 236.167L302.381 230.722L303.149 235.259Z" fill="#42E8E0"/>
<path d="M369.9 230.845L331.921 252.822L331.152 248.285L369.146 226.308L369.9 230.845Z" fill="#42E8E0"/>
<path d="M383.302 223.11L373.895 228.538L373.127 224.002L382.533 218.573L383.302 223.11Z" fill="#42E8E0"/>
<path d="M263.803 269.386L253.52 275.338L252.752 270.801L263.05 264.849L263.803 269.386Z" fill="#42E8E0"/>
<path d="M326.433 255.944L316.136 261.896L315.367 257.359L325.665 251.407L326.433 255.944Z" fill="#42E8E0"/>
<path d="M287.963 255.406L267.798 267.079L267.029 262.542L287.194 250.884L287.963 255.406Z" fill="#42E8E0"/>
<path d="M298.338 249.408L291.945 253.099L291.191 248.578L297.57 244.871L298.338 249.408Z" fill="#42E8E0"/>
<path d="M322.686 235.367L302.52 247.024L301.752 242.487L321.917 230.83L322.686 235.367Z" fill="#42E8E0"/>
<path d="M333.061 229.353L326.667 233.06L325.898 228.523L332.292 224.817L333.061 229.353Z" fill="#42E8E0"/>
<path d="M324.683 245.579L314.386 251.53L313.617 246.994L323.915 241.042L324.683 245.579Z" fill="#42E8E0"/>
<path d="M348.844 231.599L328.663 243.272L327.91 238.735L348.075 227.062L348.844 231.599Z" fill="#42E8E0"/>
<path d="M359.219 225.601L352.825 229.292L352.057 224.755L358.45 221.064L359.219 225.601Z" fill="#42E8E0"/>
<path d="M276.331 273.523L255.259 285.703L254.506 281.166L275.562 268.986L276.331 273.523Z" fill="#42E8E0"/>
<path d="M295.543 262.404L280.311 271.216L279.543 266.679L294.774 257.867L295.543 262.404Z" fill="#42E8E0"/>
<path d="M309.82 254.145L299.538 260.097L298.77 255.56L309.052 249.608L309.82 254.145Z" fill="#42E8E0"/>
<path d="M409.647 207.915L388.591 220.095L387.822 215.558L408.879 203.378L409.647 207.915Z" fill="#42E8E0"/>
<path d="M428.858 196.796L413.642 205.608L412.873 201.071L428.105 192.259L428.858 196.796Z" fill="#42E8E0"/>
<path d="M443.154 188.537L432.856 194.489L432.088 189.952L442.386 184L443.154 188.537Z" fill="#42E8E0"/>
<path d="M401.424 344.837L422.48 332.656L423.249 337.193L402.192 349.373L401.424 344.837Z" fill="#42E8E0"/>
<path d="M382.213 355.956L397.429 347.143L398.198 351.68L382.966 360.493L382.213 355.956Z" fill="#42E8E0"/>
<path d="M367.92 364.214L378.218 358.263L378.986 362.8L368.688 368.751L367.92 364.214Z" fill="#42E8E0"/>
<path d="M394.432 360.293L415.488 348.112L416.257 352.649L395.2 364.83L394.432 360.293Z" fill="#42E8E0"/>
<path d="M375.219 371.412L390.45 362.6L391.203 367.136L375.987 375.949L375.219 371.412Z" fill="#42E8E0"/>
<path d="M360.924 379.671L371.222 373.719L371.99 378.256L361.692 384.207L360.924 379.671Z" fill="#42E8E0"/>
<path d="M309.391 341.13L316.507 337.024L317.275 341.561L310.159 345.667L309.391 341.13Z" fill="#42E8E0"/>
<path d="M296.002 348.881L305.408 343.437L306.177 347.974L296.77 353.418L296.002 348.881Z" fill="#42E8E0"/>
<path d="M278.206 283.827L257.149 295.992L256.381 291.47L277.437 279.29L278.206 283.827Z" fill="#42E8E0"/>
<path d="M297.432 272.708L282.2 281.52L281.432 276.983L296.663 268.171L297.432 272.708Z" fill="#42E8E0"/>
<path d="M311.711 264.449L301.413 270.401L300.645 265.864L310.942 259.912L311.711 264.449Z" fill="#42E8E0"/>
<path d="M266.016 302.251L258.899 306.358L258.131 301.821L265.247 297.714L266.016 302.251Z" fill="#42E8E0"/>
<path d="M279.403 294.5L269.997 299.944L269.229 295.407L278.635 289.963L279.403 294.5Z" fill="#42E8E0"/>
<path d="M298.541 283.442L283.386 292.193L282.633 287.656L297.772 278.906L298.541 283.442Z" fill="#42E8E0"/>
<path d="M319.072 369.705L326.188 365.599L326.957 370.135L319.841 374.242L319.072 369.705Z" fill="#42E8E0"/>
<path d="M305.686 377.456L315.092 372.012L315.845 376.549L306.454 381.993L305.686 377.456Z" fill="#42E8E0"/>
<path d="M286.551 388.514L301.69 379.763L302.459 384.3L287.319 393.051L286.551 388.514Z" fill="#42E8E0"/>
<path d="M329.91 352.88L345.049 344.129L345.818 348.666L330.679 357.417L329.91 352.88Z" fill="#42E8E0"/>
<path d="M305.133 366.398L325.559 354.587L326.312 359.124L305.901 370.935L305.133 366.398Z" fill="#42E8E0"/>
<path d="M294.758 372.396L301.152 368.705L301.92 373.242L295.526 376.933L294.758 372.396Z" fill="#42E8E0"/>
<path d="M284.799 378.163L291.193 374.457L291.961 378.994L285.567 382.685L284.799 378.163Z" fill="#42E8E0"/>
<path d="M286.166 319.599L306.331 307.942L307.1 312.479L286.935 324.136L286.166 319.599Z" fill="#42E8E0"/>
<path d="M275.791 325.597L282.185 321.906L282.938 326.443L276.56 330.134L275.791 325.597Z" fill="#42E8E0"/>
<path d="M287.564 307.419L294.665 303.297L295.434 307.834L288.318 311.956L287.564 307.419Z" fill="#42E8E0"/>
<path d="M312.662 315.724L319.778 311.602L320.547 316.139L313.431 320.26L312.662 315.724Z" fill="#42E8E0"/>
<path d="M322.809 309.864L339.884 299.991L340.638 304.527L323.577 314.401L322.809 309.864Z" fill="#42E8E0"/>
<path d="M342.91 298.253L353.054 292.378L353.823 296.915L343.663 302.79L342.91 298.253Z" fill="#42E8E0"/>
<path d="M274.162 315.155L283.568 309.726L284.337 314.263L274.931 319.691L274.162 315.155Z" fill="#42E8E0"/>
<path d="M273.285 304.512L280.401 300.39L281.154 304.927L274.054 309.049L273.285 304.512Z" fill="#42E8E0"/>
<path d="M259.898 312.248L269.289 306.819L270.058 311.356L260.652 316.785L259.898 312.248Z" fill="#42E8E0"/>
<path d="M302.35 321.675L308.728 317.984L309.497 322.521L303.118 326.212L302.35 321.675Z" fill="#42E8E0"/>
<path d="M292.391 327.443L298.784 323.752L299.538 328.273L293.159 331.979L292.391 327.443Z" fill="#42E8E0"/>
<path d="M341.453 379.517L363.247 366.921L364.016 371.458L342.222 384.054L341.453 379.517Z" fill="#42E8E0"/>
<path d="M317.043 393.635L337.469 381.824L338.223 386.361L317.811 398.172L317.043 393.635Z" fill="#42E8E0"/>
<path d="M306.67 399.633L313.064 395.942L313.832 400.479L307.438 404.17L306.67 399.633Z" fill="#42E8E0"/>
<path d="M296.711 405.4L303.105 401.694L303.873 406.231L297.479 409.922L296.711 405.4Z" fill="#42E8E0"/>
<path d="M291.269 408.537L277.482 416.504L278.251 421.041L292.038 413.074L291.269 408.537Z" fill="#42E8E0"/>
<path opacity="0.7" d="M1321.25 608.637L1260.72 573.664L1321.25 538.707L1381.77 573.664L1321.25 608.637Z" fill="#42E8E0"/>
<path d="M1321.25 610.359C1320.96 610.359 1320.65 610.282 1320.39 610.128L1259.86 575.171C1259.34 574.864 1259 574.295 1259 573.68C1259 573.064 1259.32 572.495 1259.86 572.188L1320.39 537.231C1320.92 536.923 1321.57 536.923 1322.11 537.231L1382.63 572.188C1383.16 572.495 1383.5 573.064 1383.5 573.68C1383.5 574.295 1383.17 574.864 1382.63 575.171L1322.11 610.128C1321.85 610.282 1321.54 610.359 1321.25 610.359ZM1264.16 573.664L1321.25 606.637L1378.33 573.664L1321.23 540.691L1264.15 573.664H1264.16Z" fill="#42E8E0"/>
<path opacity="0.7" d="M1724.47 521.417L1692.72 503.07L1724.47 484.738L1756.23 503.07L1724.47 521.417Z" fill="#42E8E0"/>
<path d="M1724.48 523.14C1724.18 523.14 1723.88 523.063 1723.61 522.909L1691.86 504.562C1691.32 504.254 1691 503.685 1691 503.07C1691 502.455 1691.32 501.886 1691.86 501.578L1723.61 483.231C1724.15 482.923 1724.8 482.923 1725.34 483.231L1757.09 501.578C1757.63 501.886 1757.95 502.455 1757.95 503.07C1757.95 503.685 1757.63 504.254 1757.09 504.562L1725.34 522.909C1725.07 523.063 1724.77 523.14 1724.48 523.14ZM1696.16 503.07L1724.49 519.433L1752.82 503.07L1724.49 486.706L1696.16 503.07Z" fill="#42E8E0"/>
<g opacity="0.51">
<path d="M12.1522 431.231V889L-78 836.929V383.482L12.1522 431.231Z" fill="url(#paint42_linear_1844_1625)"/>
<path d="M12.1504 431.231L103.464 383.482V836.251L12.1504 889V431.231Z" fill="url(#paint43_linear_1844_1625)"/>
<path d="M50.3739 476.882L12.0874 498.852L-27.6504 476.172V503.627L12.0874 526.695L50.3739 504.724V476.882Z" stroke="url(#paint44_linear_1844_1625)" stroke-width="0.9" stroke-miterlimit="10"/>
<path d="M-44.5508 455.233L12.1854 488.012L54.794 463.428" stroke="url(#paint45_linear_1844_1625)" stroke-width="0.9" stroke-linecap="round" stroke-linejoin="round"/>
<path d="M11.4423 431.037L-76.6133 384.225C-78.4518 383.16 -78.4518 382.16 -76.6133 381.095L8.41035 331.992C10.7327 330.669 13.5711 330.669 15.8935 331.992L102.691 382.095C103.755 382.708 103.755 383.418 102.691 384.031L12.8615 431.037C12.41 431.295 11.8939 431.295 11.4423 431.037Z" fill="url(#paint46_linear_1844_1625)"/>
<path opacity="0.48" d="M103.467 564.151V384.063" stroke="#00DCDD" stroke-width="0.9" stroke-miterlimit="10"/>
<path opacity="0.48" d="M12.1504 498.852V431.231" stroke="#00DCDD" stroke-width="0.9" stroke-miterlimit="10"/>
<path opacity="0.48" d="M12.1504 775.243V526.695" stroke="#00DCDD" stroke-width="0.9" stroke-miterlimit="10"/>
</g>
<g opacity="0.45">
<path d="M957.152 537.231V995L867 942.929V489.482L957.152 537.231Z" fill="url(#paint47_linear_1844_1625)"/>
<path d="M957.15 537.231L1048.46 489.482V942.251L957.15 995V537.231Z" fill="url(#paint48_linear_1844_1625)"/>
<path d="M995.374 582.882L957.087 604.852L917.35 582.172V609.627L957.087 632.695L995.374 610.724V582.882Z" stroke="url(#paint49_linear_1844_1625)" stroke-width="0.9" stroke-miterlimit="10"/>
<path d="M900.449 561.233L957.185 594.012L999.794 569.428" stroke="url(#paint50_linear_1844_1625)" stroke-width="0.9" stroke-linecap="round" stroke-linejoin="round"/>
<path d="M956.442 537.037L868.387 490.225C866.548 489.16 866.548 488.16 868.387 487.095L953.41 437.992C955.733 436.669 958.571 436.669 960.893 437.992L1047.69 488.095C1048.76 488.708 1048.76 489.418 1047.69 490.031L957.862 537.037C957.41 537.295 956.894 537.295 956.442 537.037Z" fill="url(#paint51_linear_1844_1625)"/>
<path opacity="0.48" d="M867 670.151V490.063" stroke="#00DCDD" stroke-width="0.9" stroke-miterlimit="10"/>
<path opacity="0.48" d="M1048.47 670.151V490.063" stroke="#00DCDD" stroke-width="0.9" stroke-miterlimit="10"/>
<path opacity="0.48" d="M957.15 604.852V537.231" stroke="#00DCDD" stroke-width="0.9" stroke-miterlimit="10"/>
<path opacity="0.48" d="M957.15 881.243V632.695" stroke="#00DCDD" stroke-width="0.9" stroke-miterlimit="10"/>
</g>
<defs>
<linearGradient id="paint0_linear_1844_1625" x1="798.12" y1="461.932" x2="524.262" y2="-12.1123" gradientUnits="userSpaceOnUse">
<stop offset="0.4" stop-color="#42E8E0"/>
<stop offset="0.43" stop-color="#42E8E0" stop-opacity="0.9"/>
<stop offset="0.48" stop-color="#42E8E0" stop-opacity="0.69"/>
<stop offset="0.54" stop-color="#42E8E0" stop-opacity="0.51"/>
<stop offset="0.6" stop-color="#42E8E0" stop-opacity="0.35"/>
<stop offset="0.67" stop-color="#42E8E0" stop-opacity="0.22"/>
<stop offset="0.74" stop-color="#42E8E0" stop-opacity="0.12"/>
<stop offset="0.81" stop-color="#42E8E0" stop-opacity="0.05"/>
<stop offset="0.89" stop-color="#42E8E0" stop-opacity="0.01"/>
<stop offset="1" stop-color="#42E8E0" stop-opacity="0"/>
</linearGradient>
<linearGradient id="paint1_linear_1844_1625" x1="1630.06" y1="569.518" x2="1630.06" y2="-29.0444" gradientUnits="userSpaceOnUse">
<stop offset="0.21" stop-color="#00D1D7" stop-opacity="0"/>
<stop offset="0.31" stop-color="#00CFD6" stop-opacity="0.1"/>
<stop offset="0.51" stop-color="#00CCD4" stop-opacity="0.35"/>
<stop offset="0.8" stop-color="#00C6D1" stop-opacity="0.75"/>
<stop offset="0.97" stop-color="#00C3D0"/>
</linearGradient>
<linearGradient id="paint2_linear_1844_1625" x1="1720.79" y1="569.518" x2="1720.79" y2="-29.0444" gradientUnits="userSpaceOnUse">
<stop offset="0.21" stop-color="#00D1D7" stop-opacity="0"/>
<stop offset="0.31" stop-color="#00CFD6" stop-opacity="0.1"/>
<stop offset="0.51" stop-color="#00CCD4" stop-opacity="0.35"/>
<stop offset="0.8" stop-color="#00C6D1" stop-opacity="0.75"/>
<stop offset="0.97" stop-color="#00C3D0"/>
</linearGradient>
<linearGradient id="paint3_linear_1844_1625" x1="1674.35" y1="142.655" x2="1674.35" y2="197.372" gradientUnits="userSpaceOnUse">
<stop offset="0.21" stop-color="#00D1D7" stop-opacity="0"/>
<stop offset="0.31" stop-color="#00CFD6" stop-opacity="0.1"/>
<stop offset="0.51" stop-color="#00CCD4" stop-opacity="0.35"/>
<stop offset="0.8" stop-color="#00C6D1" stop-opacity="0.75"/>
<stop offset="0.97" stop-color="#00C3D0"/>
</linearGradient>
<linearGradient id="paint4_linear_1844_1625" x1="1617" y1="140.623" x2="1719.25" y2="140.623" gradientUnits="userSpaceOnUse">
<stop offset="0.21" stop-color="#00D1D7" stop-opacity="0"/>
<stop offset="0.31" stop-color="#00CFD6" stop-opacity="0.1"/>
<stop offset="0.51" stop-color="#00CCD4" stop-opacity="0.35"/>
<stop offset="0.8" stop-color="#00C6D1" stop-opacity="0.75"/>
<stop offset="0.97" stop-color="#00C3D0"/>
</linearGradient>
<linearGradient id="paint5_linear_1844_1625" x1="1675.73" y1="-49.9501" x2="1675.73" y2="101.812" gradientUnits="userSpaceOnUse">
<stop offset="0.21" stop-color="#00D1D7" stop-opacity="0"/>
<stop offset="0.31" stop-color="#00CFD6" stop-opacity="0.1"/>
<stop offset="0.51" stop-color="#00CCD4" stop-opacity="0.35"/>
<stop offset="0.8" stop-color="#00C6D1" stop-opacity="0.75"/>
<stop offset="0.97" stop-color="#00C3D0"/>
</linearGradient>
<linearGradient id="paint6_linear_1844_1625" x1="1822.31" y1="303.967" x2="1822.31" y2="571.537" gradientUnits="userSpaceOnUse">
<stop offset="0.21" stop-color="#00D1D7" stop-opacity="0"/>
<stop offset="0.31" stop-color="#00CFD6" stop-opacity="0.1"/>
<stop offset="0.51" stop-color="#00CCD4" stop-opacity="0.35"/>
<stop offset="0.8" stop-color="#00C6D1" stop-opacity="0.75"/>
<stop offset="0.97" stop-color="#00C3D0"/>
</linearGradient>
<linearGradient id="paint7_linear_1844_1625" x1="1737.61" y1="444.224" x2="1849.77" y2="444.224" gradientUnits="userSpaceOnUse">
<stop offset="0.21" stop-color="#00D1D7" stop-opacity="0"/>
<stop offset="0.31" stop-color="#00CFD6" stop-opacity="0.1"/>
<stop offset="0.51" stop-color="#00CCD4" stop-opacity="0.35"/>
<stop offset="0.8" stop-color="#00C6D1" stop-opacity="0.75"/>
<stop offset="0.97" stop-color="#00C3D0"/>
</linearGradient>
<linearGradient id="paint8_linear_1844_1625" x1="1706.76" y1="452.461" x2="1888.19" y2="452.461" gradientUnits="userSpaceOnUse">
<stop offset="0.21" stop-color="#00D1D7" stop-opacity="0"/>
<stop offset="0.31" stop-color="#00CFD6" stop-opacity="0.1"/>
<stop offset="0.51" stop-color="#00CCD4" stop-opacity="0.35"/>
<stop offset="0.8" stop-color="#00C6D1" stop-opacity="0.75"/>
<stop offset="0.97" stop-color="#00C3D0"/>
</linearGradient>
<linearGradient id="paint9_linear_1844_1625" x1="1754.45" y1="272.34" x2="1753.85" y2="475.564" gradientUnits="userSpaceOnUse">
<stop offset="0.21" stop-color="#00D1D7" stop-opacity="0"/>
<stop offset="0.31" stop-color="#00CFD6" stop-opacity="0.1"/>
<stop offset="0.51" stop-color="#00CCD4" stop-opacity="0.35"/>
<stop offset="0.8" stop-color="#00C6D1" stop-opacity="0.75"/>
<stop offset="0.97" stop-color="#00C3D0"/>
</linearGradient>
<linearGradient id="paint10_linear_1844_1625" x1="1891.75" y1="272.167" x2="1891.12" y2="476.11" gradientUnits="userSpaceOnUse">
<stop offset="0.21" stop-color="#00D1D7" stop-opacity="0"/>
<stop offset="0.31" stop-color="#00CFD6" stop-opacity="0.1"/>
<stop offset="0.51" stop-color="#00CCD4" stop-opacity="0.35"/>
<stop offset="0.8" stop-color="#00C6D1" stop-opacity="0.75"/>
<stop offset="0.97" stop-color="#00C3D0"/>
</linearGradient>
<linearGradient id="paint11_linear_1844_1625" x1="1754.45" y1="212.27" x2="1753.85" y2="415.524" gradientUnits="userSpaceOnUse">
<stop offset="0.21" stop-color="#00D1D7" stop-opacity="0"/>
<stop offset="0.31" stop-color="#00CFD6" stop-opacity="0.1"/>
<stop offset="0.51" stop-color="#00CCD4" stop-opacity="0.35"/>
<stop offset="0.8" stop-color="#00C6D1" stop-opacity="0.75"/>
<stop offset="0.97" stop-color="#00C3D0"/>
</linearGradient>
<linearGradient id="paint12_linear_1844_1625" x1="1891.75" y1="212.127" x2="1891.12" y2="416.069" gradientUnits="userSpaceOnUse">
<stop offset="0.21" stop-color="#00D1D7" stop-opacity="0"/>
<stop offset="0.31" stop-color="#00CFD6" stop-opacity="0.1"/>
<stop offset="0.51" stop-color="#00CCD4" stop-opacity="0.35"/>
<stop offset="0.8" stop-color="#00C6D1" stop-opacity="0.75"/>
<stop offset="0.97" stop-color="#00C3D0"/>
</linearGradient>
<linearGradient id="paint13_linear_1844_1625" x1="1822.31" y1="157.769" x2="1822.31" y2="378.357" gradientUnits="userSpaceOnUse">
<stop offset="0.21" stop-color="#00D1D7" stop-opacity="0"/>
<stop offset="0.31" stop-color="#00CFD6" stop-opacity="0.1"/>
<stop offset="0.51" stop-color="#00CCD4" stop-opacity="0.35"/>
<stop offset="0.8" stop-color="#00C6D1" stop-opacity="0.75"/>
<stop offset="0.97" stop-color="#00C3D0"/>
</linearGradient>
<linearGradient id="paint14_linear_1844_1625" x1="1743.12" y1="245.046" x2="1820.79" y2="245.046" gradientUnits="userSpaceOnUse">
<stop offset="0.21" stop-color="#00D1D7" stop-opacity="0"/>
<stop offset="0.31" stop-color="#00CFD6" stop-opacity="0.1"/>
<stop offset="0.51" stop-color="#00CCD4" stop-opacity="0.35"/>
<stop offset="0.8" stop-color="#00C6D1" stop-opacity="0.75"/>
<stop offset="0.97" stop-color="#00C3D0"/>
</linearGradient>
<linearGradient id="paint15_linear_1844_1625" x1="1898.49" y1="245.046" x2="1820.79" y2="245.046" gradientUnits="userSpaceOnUse">
<stop offset="0.21" stop-color="#00D1D7" stop-opacity="0"/>
<stop offset="0.31" stop-color="#00CFD6" stop-opacity="0.1"/>
<stop offset="0.51" stop-color="#00CCD4" stop-opacity="0.35"/>
<stop offset="0.8" stop-color="#00C6D1" stop-opacity="0.75"/>
<stop offset="0.97" stop-color="#00C3D0"/>
</linearGradient>
<linearGradient id="paint16_linear_1844_1625" x1="1782.69" y1="224.554" x2="1782.34" y2="340.359" gradientUnits="userSpaceOnUse">
<stop offset="0.21" stop-color="#00D1D7" stop-opacity="0"/>
<stop offset="0.31" stop-color="#00CFD6" stop-opacity="0.1"/>
<stop offset="0.51" stop-color="#00CCD4" stop-opacity="0.35"/>
<stop offset="0.8" stop-color="#00C6D1" stop-opacity="0.75"/>
<stop offset="0.97" stop-color="#00C3D0"/>
</linearGradient>
<linearGradient id="paint17_linear_1844_1625" x1="1860.9" y1="224.468" x2="1860.56" y2="340.674" gradientUnits="userSpaceOnUse">
<stop offset="0.21" stop-color="#00D1D7" stop-opacity="0"/>
<stop offset="0.31" stop-color="#00CFD6" stop-opacity="0.1"/>
<stop offset="0.51" stop-color="#00CCD4" stop-opacity="0.35"/>
<stop offset="0.8" stop-color="#00C6D1" stop-opacity="0.75"/>
<stop offset="0.97" stop-color="#00C3D0"/>
</linearGradient>
<linearGradient id="paint18_linear_1844_1625" x1="1080.02" y1="505.654" x2="1175.83" y2="505.654" gradientUnits="userSpaceOnUse">
<stop offset="0.21" stop-color="#00D1D7" stop-opacity="0"/>
<stop offset="0.31" stop-color="#00CFD6" stop-opacity="0.1"/>
<stop offset="0.51" stop-color="#00CCD4" stop-opacity="0.35"/>
<stop offset="0.8" stop-color="#00C6D1" stop-opacity="0.75"/>
<stop offset="0.97" stop-color="#00C3D0"/>
</linearGradient>
<linearGradient id="paint19_linear_1844_1625" x1="1271.61" y1="505.654" x2="1175.8" y2="505.654" gradientUnits="userSpaceOnUse">
<stop offset="0.21" stop-color="#00D1D7" stop-opacity="0"/>
<stop offset="0.31" stop-color="#00CFD6" stop-opacity="0.1"/>
<stop offset="0.51" stop-color="#00CCD4" stop-opacity="0.35"/>
<stop offset="0.8" stop-color="#00C6D1" stop-opacity="0.75"/>
<stop offset="0.97" stop-color="#00C3D0"/>
</linearGradient>
<linearGradient id="paint20_linear_1844_1625" x1="1128.8" y1="480.399" x2="1128.37" y2="623.181" gradientUnits="userSpaceOnUse">
<stop offset="0.21" stop-color="#00D1D7" stop-opacity="0"/>
<stop offset="0.31" stop-color="#00CFD6" stop-opacity="0.1"/>
<stop offset="0.51" stop-color="#00CCD4" stop-opacity="0.35"/>
<stop offset="0.8" stop-color="#00C6D1" stop-opacity="0.75"/>
<stop offset="0.97" stop-color="#00C3D0"/>
</linearGradient>
<linearGradient id="paint21_linear_1844_1625" x1="1225.27" y1="480.284" x2="1224.84" y2="623.583" gradientUnits="userSpaceOnUse">
<stop offset="0.21" stop-color="#00D1D7" stop-opacity="0"/>
<stop offset="0.31" stop-color="#00CFD6" stop-opacity="0.1"/>
<stop offset="0.51" stop-color="#00CCD4" stop-opacity="0.35"/>
<stop offset="0.8" stop-color="#00C6D1" stop-opacity="0.75"/>
<stop offset="0.97" stop-color="#00C3D0"/>
</linearGradient>
<linearGradient id="paint22_linear_1844_1625" x1="786.102" y1="223.189" x2="786.102" y2="552.772" gradientUnits="userSpaceOnUse">
<stop offset="0.21" stop-color="#00D1D7" stop-opacity="0"/>
<stop offset="0.31" stop-color="#00CFD6" stop-opacity="0.1"/>
<stop offset="0.51" stop-color="#00CCD4" stop-opacity="0.35"/>
<stop offset="0.8" stop-color="#00C6D1" stop-opacity="0.75"/>
<stop offset="0.97" stop-color="#00C3D0"/>
</linearGradient>
<linearGradient id="paint23_linear_1844_1625" x1="682.492" y1="395.978" x2="819.203" y2="395.978" gradientUnits="userSpaceOnUse">
<stop offset="0.21" stop-color="#00D1D7" stop-opacity="0"/>
<stop offset="0.31" stop-color="#00CFD6" stop-opacity="0.1"/>
<stop offset="0.51" stop-color="#00CCD4" stop-opacity="0.35"/>
<stop offset="0.8" stop-color="#00C6D1" stop-opacity="0.75"/>
<stop offset="0.97" stop-color="#00C3D0"/>
</linearGradient>
<linearGradient id="paint24_linear_1844_1625" x1="644.51" y1="406.098" x2="866.519" y2="406.098" gradientUnits="userSpaceOnUse">
<stop offset="0.21" stop-color="#00D1D7" stop-opacity="0"/>
<stop offset="0.31" stop-color="#00CFD6" stop-opacity="0.1"/>
<stop offset="0.51" stop-color="#00CCD4" stop-opacity="0.35"/>
<stop offset="0.8" stop-color="#00C6D1" stop-opacity="0.75"/>
<stop offset="0.97" stop-color="#00C3D0"/>
</linearGradient>
<linearGradient id="paint25_linear_1844_1625" x1="702.524" y1="184.224" x2="701.756" y2="434.568" gradientUnits="userSpaceOnUse">
<stop offset="0.21" stop-color="#00D1D7" stop-opacity="0"/>
<stop offset="0.31" stop-color="#00CFD6" stop-opacity="0.1"/>
<stop offset="0.51" stop-color="#00CCD4" stop-opacity="0.35"/>
<stop offset="0.8" stop-color="#00C6D1" stop-opacity="0.75"/>
<stop offset="0.97" stop-color="#00C3D0"/>
</linearGradient>
<linearGradient id="paint26_linear_1844_1625" x1="871.625" y1="184.036" x2="870.858" y2="435.242" gradientUnits="userSpaceOnUse">
<stop offset="0.21" stop-color="#00D1D7" stop-opacity="0"/>
<stop offset="0.31" stop-color="#00CFD6" stop-opacity="0.1"/>
<stop offset="0.51" stop-color="#00CCD4" stop-opacity="0.35"/>
<stop offset="0.8" stop-color="#00C6D1" stop-opacity="0.75"/>
<stop offset="0.97" stop-color="#00C3D0"/>
</linearGradient>
<linearGradient id="paint27_linear_1844_1625" x1="702.524" y1="110.26" x2="701.756" y2="360.604" gradientUnits="userSpaceOnUse">
<stop offset="0.21" stop-color="#00D1D7" stop-opacity="0"/>
<stop offset="0.31" stop-color="#00CFD6" stop-opacity="0.1"/>
<stop offset="0.51" stop-color="#00CCD4" stop-opacity="0.35"/>
<stop offset="0.8" stop-color="#00C6D1" stop-opacity="0.75"/>
<stop offset="0.97" stop-color="#00C3D0"/>
</linearGradient>
<linearGradient id="paint28_linear_1844_1625" x1="871.625" y1="110.054" x2="870.858" y2="361.259" gradientUnits="userSpaceOnUse">
<stop offset="0.21" stop-color="#00D1D7" stop-opacity="0"/>
<stop offset="0.31" stop-color="#00CFD6" stop-opacity="0.1"/>
<stop offset="0.51" stop-color="#00CCD4" stop-opacity="0.35"/>
<stop offset="0.8" stop-color="#00C6D1" stop-opacity="0.75"/>
<stop offset="0.97" stop-color="#00C3D0"/>
</linearGradient>
<linearGradient id="paint29_linear_1844_1625" x1="786.102" y1="43.1044" x2="786.102" y2="314.811" gradientUnits="userSpaceOnUse">
<stop offset="0.21" stop-color="#00D1D7" stop-opacity="0"/>
<stop offset="0.31" stop-color="#00CFD6" stop-opacity="0.1"/>
<stop offset="0.51" stop-color="#00CCD4" stop-opacity="0.35"/>
<stop offset="0.8" stop-color="#00C6D1" stop-opacity="0.75"/>
<stop offset="0.97" stop-color="#00C3D0"/>
</linearGradient>
<linearGradient id="paint30_linear_1844_1625" x1="688.553" y1="150.609" x2="784.25" y2="150.609" gradientUnits="userSpaceOnUse">
<stop offset="0.21" stop-color="#00D1D7" stop-opacity="0"/>
<stop offset="0.31" stop-color="#00CFD6" stop-opacity="0.1"/>
<stop offset="0.51" stop-color="#00CCD4" stop-opacity="0.35"/>
<stop offset="0.8" stop-color="#00C6D1" stop-opacity="0.75"/>
<stop offset="0.97" stop-color="#00C3D0"/>
</linearGradient>
<linearGradient id="paint31_linear_1844_1625" x1="879.929" y1="150.609" x2="784.231" y2="150.609" gradientUnits="userSpaceOnUse">
<stop offset="0.21" stop-color="#00D1D7" stop-opacity="0"/>
<stop offset="0.31" stop-color="#00CFD6" stop-opacity="0.1"/>
<stop offset="0.51" stop-color="#00CCD4" stop-opacity="0.35"/>
<stop offset="0.8" stop-color="#00C6D1" stop-opacity="0.75"/>
<stop offset="0.97" stop-color="#00C3D0"/>
</linearGradient>
<linearGradient id="paint32_linear_1844_1625" x1="737.291" y1="125.374" x2="736.86" y2="268.027" gradientUnits="userSpaceOnUse">
<stop offset="0.21" stop-color="#00D1D7" stop-opacity="0"/>
<stop offset="0.31" stop-color="#00CFD6" stop-opacity="0.1"/>
<stop offset="0.51" stop-color="#00CCD4" stop-opacity="0.35"/>
<stop offset="0.8" stop-color="#00C6D1" stop-opacity="0.75"/>
<stop offset="0.97" stop-color="#00C3D0"/>
</linearGradient>
<linearGradient id="paint33_linear_1844_1625" x1="833.641" y1="125.262" x2="833.211" y2="268.401" gradientUnits="userSpaceOnUse">
<stop offset="0.21" stop-color="#00D1D7" stop-opacity="0"/>
<stop offset="0.31" stop-color="#00CFD6" stop-opacity="0.1"/>
<stop offset="0.51" stop-color="#00CCD4" stop-opacity="0.35"/>
<stop offset="0.8" stop-color="#00C6D1" stop-opacity="0.75"/>
<stop offset="0.97" stop-color="#00C3D0"/>
</linearGradient>
<linearGradient id="paint34_linear_1844_1625" x1="769.334" y1="552.572" x2="495.468" y2="78.5147" gradientUnits="userSpaceOnUse">
<stop stop-color="#42E8E0"/>
<stop offset="0.04" stop-color="#3DD2D2" stop-opacity="0.9"/>
<stop offset="0.13" stop-color="#35A4B6" stop-opacity="0.69"/>
<stop offset="0.23" stop-color="#2D7B9E" stop-opacity="0.51"/>
<stop offset="0.34" stop-color="#265989" stop-opacity="0.35"/>
<stop offset="0.44" stop-color="#213D78" stop-opacity="0.22"/>
<stop offset="0.56" stop-color="#1D286B" stop-opacity="0.12"/>
<stop offset="0.68" stop-color="#1A1862" stop-opacity="0.05"/>
<stop offset="0.82" stop-color="#180F5C" stop-opacity="0.01"/>
<stop offset="1" stop-color="#180D5B" stop-opacity="0"/>
</linearGradient>
<linearGradient id="paint35_linear_1844_1625" x1="783.723" y1="510.246" x2="509.865" y2="36.2012" gradientUnits="userSpaceOnUse">
<stop offset="0.45" stop-color="#42E8E0"/>
<stop offset="0.47" stop-color="#3DD2D2" stop-opacity="0.9"/>
<stop offset="0.53" stop-color="#35A4B6" stop-opacity="0.69"/>
<stop offset="0.58" stop-color="#2D7B9E" stop-opacity="0.51"/>
<stop offset="0.64" stop-color="#265989" stop-opacity="0.35"/>
<stop offset="0.7" stop-color="#213D78" stop-opacity="0.22"/>
<stop offset="0.76" stop-color="#1D286B" stop-opacity="0.12"/>
<stop offset="0.82" stop-color="#1A1862" stop-opacity="0.05"/>
<stop offset="0.9" stop-color="#180F5C" stop-opacity="0.01"/>
<stop offset="1" stop-color="#180D5B" stop-opacity="0"/>
</linearGradient>
<linearGradient id="paint36_linear_1844_1625" x1="177.992" y1="288.986" x2="535.453" y2="288.986" gradientUnits="userSpaceOnUse">
<stop stop-color="#C0BFF6"/>
<stop offset="0.29" stop-color="#C4C3F6"/>
<stop offset="0.64" stop-color="#D2D2F9"/>
<stop offset="1" stop-color="#E9E9FD"/>
</linearGradient>
<linearGradient id="paint37_linear_1844_1625" x1="177.992" y1="380.713" x2="239.376" y2="380.713" gradientUnits="userSpaceOnUse">
<stop stop-color="#5761D7"/>
<stop offset="0.18" stop-color="#5B65D8"/>
<stop offset="0.39" stop-color="#6A72DE"/>
<stop offset="0.61" stop-color="#8188E8"/>
<stop offset="0.85" stop-color="#A2A6F5"/>
<stop offset="1" stop-color="#BCBEFF"/>
</linearGradient>
<linearGradient id="paint38_linear_1844_1625" x1="225.891" y1="483.826" x2="730.738" y2="483.826" gradientUnits="userSpaceOnUse">
<stop stop-color="#5761D7"/>
<stop offset="1" stop-color="#00C3D0"/>
</linearGradient>
<linearGradient id="paint39_linear_1844_1625" x1="481.058" y1="495.681" x2="610.359" y2="495.681" gradientUnits="userSpaceOnUse">
<stop stop-color="#C0BFF6"/>
<stop offset="0.29" stop-color="#C4C3F6"/>
<stop offset="0.64" stop-color="#D2D2F9"/>
<stop offset="1" stop-color="#E9E9FD"/>
</linearGradient>
<linearGradient id="paint40_linear_1844_1625" x1="202.543" y1="354.956" x2="707.66" y2="354.956" gradientUnits="userSpaceOnUse">
<stop stop-color="#C0BFF6"/>
<stop offset="0.29" stop-color="#C4C3F6"/>
<stop offset="0.64" stop-color="#D2D2F9"/>
<stop offset="1" stop-color="#E9E9FD"/>
</linearGradient>
<linearGradient id="paint41_linear_1844_1625" x1="169.288" y1="317.856" x2="298.589" y2="317.856" gradientUnits="userSpaceOnUse">
<stop stop-color="#C0BFF6"/>
<stop offset="0.29" stop-color="#C4C3F6"/>
<stop offset="0.64" stop-color="#D2D2F9"/>
<stop offset="1" stop-color="#E9E9FD"/>
</linearGradient>
<linearGradient id="paint42_linear_1844_1625" x1="-32.94" y1="900.518" x2="-32.94" y2="301.956" gradientUnits="userSpaceOnUse">
<stop offset="0.21" stop-color="#00D1D7" stop-opacity="0"/>
<stop offset="0.31" stop-color="#00CFD6" stop-opacity="0.1"/>
<stop offset="0.51" stop-color="#00CCD4" stop-opacity="0.35"/>
<stop offset="0.8" stop-color="#00C6D1" stop-opacity="0.75"/>
<stop offset="0.97" stop-color="#00C3D0"/>
</linearGradient>
<linearGradient id="paint43_linear_1844_1625" x1="57.7909" y1="900.518" x2="57.7909" y2="301.956" gradientUnits="userSpaceOnUse">
<stop offset="0.21" stop-color="#00D1D7" stop-opacity="0"/>
<stop offset="0.31" stop-color="#00CFD6" stop-opacity="0.1"/>
<stop offset="0.51" stop-color="#00CCD4" stop-opacity="0.35"/>
<stop offset="0.8" stop-color="#00C6D1" stop-opacity="0.75"/>
<stop offset="0.97" stop-color="#00C3D0"/>
</linearGradient>
<linearGradient id="paint44_linear_1844_1625" x1="11.3456" y1="473.655" x2="11.3456" y2="528.372" gradientUnits="userSpaceOnUse">
<stop offset="0.21" stop-color="#00D1D7" stop-opacity="0"/>
<stop offset="0.31" stop-color="#00CFD6" stop-opacity="0.1"/>
<stop offset="0.51" stop-color="#00CCD4" stop-opacity="0.35"/>
<stop offset="0.8" stop-color="#00C6D1" stop-opacity="0.75"/>
<stop offset="0.97" stop-color="#00C3D0"/>
</linearGradient>
<linearGradient id="paint45_linear_1844_1625" x1="-46.0022" y1="471.623" x2="56.2455" y2="471.623" gradientUnits="userSpaceOnUse">
<stop offset="0.21" stop-color="#00D1D7" stop-opacity="0"/>
<stop offset="0.31" stop-color="#00CFD6" stop-opacity="0.1"/>
<stop offset="0.51" stop-color="#00CCD4" stop-opacity="0.35"/>
<stop offset="0.8" stop-color="#00C6D1" stop-opacity="0.75"/>
<stop offset="0.97" stop-color="#00C3D0"/>
</linearGradient>
<linearGradient id="paint46_linear_1844_1625" x1="12.7324" y1="281.05" x2="12.7324" y2="432.812" gradientUnits="userSpaceOnUse">
<stop offset="0.21" stop-color="#00D1D7" stop-opacity="0"/>
<stop offset="0.31" stop-color="#00CFD6" stop-opacity="0.1"/>
<stop offset="0.51" stop-color="#00CCD4" stop-opacity="0.35"/>
<stop offset="0.8" stop-color="#00C6D1" stop-opacity="0.75"/>
<stop offset="0.97" stop-color="#00C3D0"/>
</linearGradient>
<linearGradient id="paint47_linear_1844_1625" x1="912.06" y1="1006.52" x2="912.06" y2="407.956" gradientUnits="userSpaceOnUse">
<stop offset="0.21" stop-color="#00D1D7" stop-opacity="0"/>
<stop offset="0.31" stop-color="#00CFD6" stop-opacity="0.1"/>
<stop offset="0.51" stop-color="#00CCD4" stop-opacity="0.35"/>
<stop offset="0.8" stop-color="#00C6D1" stop-opacity="0.75"/>
<stop offset="0.97" stop-color="#00C3D0"/>
</linearGradient>
<linearGradient id="paint48_linear_1844_1625" x1="1002.79" y1="1006.52" x2="1002.79" y2="407.956" gradientUnits="userSpaceOnUse">
<stop offset="0.21" stop-color="#00D1D7" stop-opacity="0"/>
<stop offset="0.31" stop-color="#00CFD6" stop-opacity="0.1"/>
<stop offset="0.51" stop-color="#00CCD4" stop-opacity="0.35"/>
<stop offset="0.8" stop-color="#00C6D1" stop-opacity="0.75"/>
<stop offset="0.97" stop-color="#00C3D0"/>
</linearGradient>
<linearGradient id="paint49_linear_1844_1625" x1="956.346" y1="579.655" x2="956.346" y2="634.372" gradientUnits="userSpaceOnUse">
<stop offset="0.21" stop-color="#00D1D7" stop-opacity="0"/>
<stop offset="0.31" stop-color="#00CFD6" stop-opacity="0.1"/>
<stop offset="0.51" stop-color="#00CCD4" stop-opacity="0.35"/>
<stop offset="0.8" stop-color="#00C6D1" stop-opacity="0.75"/>
<stop offset="0.97" stop-color="#00C3D0"/>
</linearGradient>
<linearGradient id="paint50_linear_1844_1625" x1="898.998" y1="577.623" x2="1001.25" y2="577.623" gradientUnits="userSpaceOnUse">
<stop offset="0.21" stop-color="#00D1D7" stop-opacity="0"/>
<stop offset="0.31" stop-color="#00CFD6" stop-opacity="0.1"/>
<stop offset="0.51" stop-color="#00CCD4" stop-opacity="0.35"/>
<stop offset="0.8" stop-color="#00C6D1" stop-opacity="0.75"/>
<stop offset="0.97" stop-color="#00C3D0"/>
</linearGradient>
<linearGradient id="paint51_linear_1844_1625" x1="957.732" y1="387.05" x2="957.732" y2="538.812" gradientUnits="userSpaceOnUse">
<stop offset="0.21" stop-color="#00D1D7" stop-opacity="0"/>
<stop offset="0.31" stop-color="#00CFD6" stop-opacity="0.1"/>
<stop offset="0.51" stop-color="#00CCD4" stop-opacity="0.35"/>
<stop offset="0.8" stop-color="#00C6D1" stop-opacity="0.75"/>
<stop offset="0.97" stop-color="#00C3D0"/>
</linearGradient>
</defs>
</svg>
