<svg width="1265" height="758" viewBox="0 0 1265 758" fill="none" xmlns="http://www.w3.org/2000/svg">
<g clip-path="url(#clip0_1449_2415)" filter="url(#filter0_b_1449_2415)">
<path opacity="0.4" d="M147.893 610.475L63.3744 559.24C54.5753 553.909 50.6133 543.732 51.0274 533.858C51.4885 522.961 57.295 512.401 67.8163 509.084L1197.18 152.223C1207.74 148.883 1213.51 138.334 1213.96 127.449C1213.96 127.381 1213.96 127.314 1213.96 127.235C1214.33 117.136 1210.12 106.79 1200.96 101.673L1110.15 51V199.444L1200.96 250.117C1210.38 255.369 1214.55 266.131 1213.93 276.477C1213.29 287.149 1207.54 297.394 1197.18 300.667L71.5995 656.324C60.0053 659.99 54.1988 672.338 54.8294 684.281C55.3187 693.458 59.6101 702.398 67.9951 706.975L76.5 711.5L90.5 650.352L151 613.5L147.893 610.475Z" fill="url(#paint0_linear_1449_2415)"/>
<path opacity="0.8" d="M1110.4 180.416L1110.16 199.77L1197.38 249.487C1197.38 249.487 1210.18 254.154 1213.66 269.673L1213.96 132.048C1213.96 132.048 1208.44 150.412 1196.78 152.009L1110.32 180.034L1110.4 180.427L1110.4 180.416Z" fill="url(#paint1_linear_1449_2415)"/>
<path opacity="0.8" d="M51.5003 541.348C50.8697 539.38 51.4521 539.245 51.4992 541.348L54.8495 686.856C54.8495 686.856 62 716.5 88.5 711.5C92.338 707.692 71.9822 655.509 80.2493 653.85C80.2963 653.85 80.3434 653.827 80.3905 653.816L127.435 638.196C127.736 638.095 128 637.892 128.197 637.622L146.567 612.286C147.236 611.364 147 609.935 146.097 609.384L60.1854 556.934C59.8372 556.721 57.1025 554.439 56.9614 554L53.9814 549L52.4914 545.5L51.5003 541.348Z" fill="url(#paint2_linear_1449_2415)"/>
</g>
<g clip-path="url(#clip1_1449_2415)" filter="url(#filter1_f_1449_2415)">
<path opacity="0.4" d="M147.893 610.475L63.3744 559.24C54.5753 553.909 50.6133 543.732 51.0274 533.858C51.4885 522.961 57.295 512.401 67.8163 509.084L1197.18 152.223C1207.74 148.883 1213.51 138.334 1213.96 127.449C1213.96 127.381 1213.96 127.314 1213.96 127.235C1214.33 117.136 1210.12 106.79 1200.96 101.673L1110.15 51V199.444L1200.96 250.117C1210.38 255.369 1214.55 266.131 1213.93 276.477C1213.29 287.149 1207.54 297.394 1197.18 300.667L71.5995 656.324C60.0053 659.99 54.1988 672.338 54.8294 684.281C55.3187 693.458 59.6101 702.398 67.9951 706.975L79 667.5L90.5 650.352L151 613.5L147.893 610.475Z" fill="url(#paint3_linear_1449_2415)"/>
<path opacity="0.8" d="M1110.4 180.416L1110.16 199.77L1197.38 249.487C1197.38 249.487 1210.18 254.154 1213.66 269.673L1213.96 132.048C1213.96 132.048 1208.44 150.412 1196.78 152.009L1110.32 180.034L1110.4 180.427L1110.4 180.416Z" fill="url(#paint4_linear_1449_2415)"/>
<path opacity="0.8" d="M51.5003 541.348C50.8697 539.38 51.4521 539.245 51.4992 541.348L54.8495 686.856C54.8495 686.856 50.0499 659.911 80.2493 653.85C80.2963 653.85 80.3434 653.827 80.3905 653.816L127.435 638.196C127.736 638.095 128 637.892 128.197 637.622L146.567 612.286C147.236 611.364 147 609.935 146.097 609.384L60.1854 556.934C59.8372 556.721 57.1025 554.439 56.9614 554L53.9814 549L52.4914 545.5L51.5003 541.348Z" fill="url(#paint5_linear_1449_2415)"/>
</g>
<path d="M951.333 247.5C951.333 248.973 952.527 250.167 954 250.167C955.473 250.167 956.667 248.973 956.667 247.5C956.667 246.027 955.473 244.833 954 244.833C952.527 244.833 951.333 246.027 951.333 247.5ZM1220.31 161.646L1220.16 161.17L1220.31 161.646ZM1214.24 133.428L1222.77 138.566L1223.29 137.709L1214.76 132.572L1214.24 133.428ZM1220.16 161.17L953.847 247.024L954.153 247.976L1220.46 162.122L1220.16 161.17ZM1222.77 138.566C1231.96 144.101 1230.36 157.878 1220.16 161.17L1220.46 162.122C1231.49 158.567 1233.21 143.687 1223.29 137.709L1222.77 138.566Z" fill="white"/>
<path d="M951.333 333.5C951.333 334.973 952.527 336.167 954 336.167C955.473 336.167 956.667 334.973 956.667 333.5C956.667 332.027 955.473 330.833 954 330.833C952.527 330.833 951.333 332.027 951.333 333.5ZM1220.31 247.646L1220.16 247.17L1220.31 247.646ZM1214.24 219.428L1222.77 224.566L1223.29 223.709L1214.76 218.572L1214.24 219.428ZM1220.16 247.17L953.847 333.024L954.153 333.976L1220.46 248.122L1220.16 247.17ZM1222.77 224.566C1231.96 230.101 1230.36 243.878 1220.16 247.17L1220.46 248.122C1231.49 244.567 1233.21 229.687 1223.29 223.709L1222.77 224.566Z" fill="white"/>
<path d="M479.333 458.5C479.333 459.973 480.527 461.167 482 461.167C483.473 461.167 484.667 459.973 484.667 458.5C484.667 457.027 483.473 455.833 482 455.833C480.527 455.833 479.333 457.027 479.333 458.5ZM1223.21 192.248L1222.95 192.677L1223.21 192.248ZM1220.56 215.734L1220.72 216.209L1220.56 215.734ZM1214.24 187.428L1222.95 192.677L1223.47 191.82L1214.76 186.572L1214.24 187.428ZM1220.41 215.259L481.844 458.025L482.156 458.975L1220.72 216.209L1220.41 215.259ZM1222.95 192.677C1232.11 198.195 1230.57 211.92 1220.41 215.259L1220.72 216.209C1231.69 212.602 1233.36 197.779 1223.47 191.82L1222.95 192.677Z" fill="white"/>
<path d="M695.833 360C695.833 361.473 697.027 362.667 698.5 362.667C699.973 362.667 701.167 361.473 701.167 360C701.167 358.527 699.973 357.333 698.5 357.333C697.027 357.333 695.833 358.527 695.833 360ZM1223.09 167.174L1223.35 166.745L1223.09 167.174ZM1214.24 162.428L1222.83 167.602L1223.35 166.745L1214.76 161.572L1214.24 162.428ZM1220.24 190.199L698.346 359.524L698.654 360.476L1220.55 191.15L1220.24 190.199ZM1222.83 167.602C1232.01 173.132 1230.43 186.892 1220.24 190.199L1220.55 191.15C1231.55 187.579 1233.26 172.717 1223.35 166.745L1222.83 167.602Z" fill="white"/>
<g filter="url(#filter2_f_1449_2415)">
<path d="M951.333 247.5C951.333 248.973 952.527 250.167 954 250.167C955.473 250.167 956.667 248.973 956.667 247.5C956.667 246.027 955.473 244.833 954 244.833C952.527 244.833 951.333 246.027 951.333 247.5ZM1220.31 161.646L1220.16 161.17L1220.31 161.646ZM1214.24 133.428L1222.77 138.566L1223.29 137.709L1214.76 132.572L1214.24 133.428ZM1220.16 161.17L953.847 247.024L954.153 247.976L1220.46 162.122L1220.16 161.17ZM1222.77 138.566C1231.96 144.101 1230.36 157.878 1220.16 161.17L1220.46 162.122C1231.49 158.567 1233.21 143.687 1223.29 137.709L1222.77 138.566Z" fill="white"/>
<path d="M951.333 333.5C951.333 334.973 952.527 336.167 954 336.167C955.473 336.167 956.667 334.973 956.667 333.5C956.667 332.027 955.473 330.833 954 330.833C952.527 330.833 951.333 332.027 951.333 333.5ZM1220.31 247.646L1220.16 247.17L1220.31 247.646ZM1214.24 219.428L1222.77 224.566L1223.29 223.709L1214.76 218.572L1214.24 219.428ZM1220.16 247.17L953.847 333.024L954.153 333.976L1220.46 248.122L1220.16 247.17ZM1222.77 224.566C1231.96 230.101 1230.36 243.878 1220.16 247.17L1220.46 248.122C1231.49 244.567 1233.21 229.687 1223.29 223.709L1222.77 224.566Z" fill="white"/>
<path d="M479.333 458.5C479.333 459.973 480.527 461.167 482 461.167C483.473 461.167 484.667 459.973 484.667 458.5C484.667 457.027 483.473 455.833 482 455.833C480.527 455.833 479.333 457.027 479.333 458.5ZM1223.21 192.248L1222.95 192.677L1223.21 192.248ZM1220.56 215.734L1220.72 216.209L1220.56 215.734ZM1214.24 187.428L1222.95 192.677L1223.47 191.82L1214.76 186.572L1214.24 187.428ZM1220.41 215.259L481.844 458.025L482.156 458.975L1220.72 216.209L1220.41 215.259ZM1222.95 192.677C1232.11 198.195 1230.57 211.92 1220.41 215.259L1220.72 216.209C1231.69 212.602 1233.36 197.779 1223.47 191.82L1222.95 192.677Z" fill="white"/>
<path d="M695.833 360C695.833 361.473 697.027 362.667 698.5 362.667C699.973 362.667 701.167 361.473 701.167 360C701.167 358.527 699.973 357.333 698.5 357.333C697.027 357.333 695.833 358.527 695.833 360ZM1223.09 167.174L1223.35 166.745L1223.09 167.174ZM1214.24 162.428L1222.83 167.602L1223.35 166.745L1214.76 161.572L1214.24 162.428ZM1220.24 190.199L698.346 359.524L698.654 360.476L1220.55 191.15L1220.24 190.199ZM1222.83 167.602C1232.01 173.132 1230.43 186.892 1220.24 190.199L1220.55 191.15C1231.55 187.579 1233.26 172.717 1223.35 166.745L1222.83 167.602Z" fill="white"/>
</g>
<path d="M1115 83L1209.5 130.5" stroke="white"/>
<path d="M1115 113L1190.5 149.5" stroke="white"/>
<path d="M1115 143L1155 161.5" stroke="white"/>
<path d="M1115 83L1209.5 130.5" stroke="white"/>
<path d="M1115 113L1190.5 149.5" stroke="white"/>
<path d="M1115 143L1155 161.5" stroke="white"/>
<g filter="url(#filter3_f_1449_2415)">
<path d="M1115 83L1209.5 130.5" stroke="white"/>
<path d="M1115 113L1190.5 149.5" stroke="white"/>
<path d="M1115 143L1155 161.5" stroke="white"/>
</g>
<path d="M315.249 459.099C315.236 457.626 314.032 456.443 312.559 456.456C311.086 456.468 309.903 457.673 309.916 459.145C309.929 460.618 311.133 461.802 312.606 461.789C314.079 461.776 315.262 460.571 315.249 459.099ZM53.1606 546.474L312.741 459.596L312.424 458.648L52.8432 545.526L53.1606 546.474Z" fill="white"/>
<path d="M463.269 436.977C463.256 435.504 462.052 434.32 460.579 434.333C459.106 434.346 457.923 435.551 457.936 437.023C457.948 438.496 459.153 439.679 460.625 439.666C462.098 439.654 463.282 438.449 463.269 436.977ZM77.2623 566.974L460.762 437.474L460.442 436.526L76.9424 566.026L77.2623 566.974Z" fill="white"/>
<g filter="url(#filter4_f_1449_2415)">
<path d="M315.249 459.099C315.236 457.626 314.032 456.443 312.559 456.456C311.086 456.468 309.903 457.673 309.916 459.145C309.929 460.618 311.133 461.802 312.606 461.789C314.079 461.776 315.262 460.571 315.249 459.099ZM53.1606 546.474L312.741 459.596L312.424 458.648L52.8432 545.526L53.1606 546.474Z" fill="white"/>
<path d="M463.269 436.977C463.256 435.504 462.052 434.32 460.579 434.333C459.106 434.346 457.923 435.551 457.936 437.023C457.948 438.496 459.153 439.679 460.625 439.666C462.098 439.654 463.282 438.449 463.269 436.977ZM77.2623 566.974L460.762 437.474L460.442 436.526L76.9424 566.026L77.2623 566.974Z" fill="white"/>
</g>
<path d="M385.169 507.099C385.156 505.626 383.952 504.443 382.479 504.456C381.006 504.468 379.823 505.673 379.836 507.145C379.849 508.618 381.053 509.802 382.526 509.789C383.998 509.776 385.182 508.571 385.169 507.099ZM123.081 594.474L382.661 507.596L382.344 506.648L122.763 593.526L123.081 594.474Z" fill="white"/>
<path d="M533.189 484.977C533.176 483.504 531.971 482.32 530.499 482.333C529.026 482.346 527.843 483.551 527.855 485.023C527.868 486.496 529.073 487.679 530.545 487.666C532.018 487.654 533.201 486.449 533.189 484.977ZM147.182 614.974L530.682 485.474L530.362 484.526L146.862 614.026L147.182 614.974Z" fill="white"/>
<g filter="url(#filter5_f_1449_2415)">
<path d="M385.169 507.099C385.156 505.626 383.952 504.443 382.479 504.456C381.006 504.468 379.823 505.673 379.836 507.145C379.849 508.618 381.053 509.802 382.526 509.789C383.998 509.776 385.182 508.571 385.169 507.099ZM123.081 594.474L382.661 507.596L382.344 506.648L122.763 593.526L123.081 594.474Z" fill="white"/>
<path d="M533.189 484.977C533.176 483.504 531.971 482.32 530.499 482.333C529.026 482.346 527.843 483.551 527.855 485.023C527.868 486.496 529.073 487.679 530.545 487.666C532.018 487.654 533.201 486.449 533.189 484.977ZM147.182 614.974L530.682 485.474L530.362 484.526L146.862 614.026L147.182 614.974Z" fill="white"/>
</g>
<defs>
<filter id="filter0_b_1449_2415" x="47" y="47" width="1171" height="679" filterUnits="userSpaceOnUse" color-interpolation-filters="sRGB">
<feFlood flood-opacity="0" result="BackgroundImageFix"/>
<feGaussianBlur in="BackgroundImageFix" stdDeviation="2"/>
<feComposite in2="SourceAlpha" operator="in" result="effect1_backgroundBlur_1449_2415"/>
<feBlend mode="normal" in="SourceGraphic" in2="effect1_backgroundBlur_1449_2415" result="shape"/>
</filter>
<filter id="filter1_f_1449_2415" x="0.200001" y="0.200001" width="1264.6" height="772.6" filterUnits="userSpaceOnUse" color-interpolation-filters="sRGB">
<feFlood flood-opacity="0" result="BackgroundImageFix"/>
<feBlend mode="normal" in="SourceGraphic" in2="BackgroundImageFix" result="shape"/>
<feGaussianBlur stdDeviation="25.4" result="effect1_foregroundBlur_1449_2415"/>
</filter>
<filter id="filter2_f_1449_2415" x="475.334" y="128.572" width="758.672" height="336.595" filterUnits="userSpaceOnUse" color-interpolation-filters="sRGB">
<feFlood flood-opacity="0" result="BackgroundImageFix"/>
<feBlend mode="normal" in="SourceGraphic" in2="BackgroundImageFix" result="shape"/>
<feGaussianBlur stdDeviation="2" result="effect1_foregroundBlur_1449_2415"/>
</filter>
<filter id="filter3_f_1449_2415" x="1110.78" y="78.5533" width="102.949" height="87.4005" filterUnits="userSpaceOnUse" color-interpolation-filters="sRGB">
<feFlood flood-opacity="0" result="BackgroundImageFix"/>
<feBlend mode="normal" in="SourceGraphic" in2="BackgroundImageFix" result="shape"/>
<feGaussianBlur stdDeviation="2" result="effect1_foregroundBlur_1449_2415"/>
</filter>
<filter id="filter4_f_1449_2415" x="48.8438" y="430.333" width="418.426" height="140.641" filterUnits="userSpaceOnUse" color-interpolation-filters="sRGB">
<feFlood flood-opacity="0" result="BackgroundImageFix"/>
<feBlend mode="normal" in="SourceGraphic" in2="BackgroundImageFix" result="shape"/>
<feGaussianBlur stdDeviation="2" result="effect1_foregroundBlur_1449_2415"/>
</filter>
<filter id="filter5_f_1449_2415" x="118.764" y="478.333" width="418.426" height="140.641" filterUnits="userSpaceOnUse" color-interpolation-filters="sRGB">
<feFlood flood-opacity="0" result="BackgroundImageFix"/>
<feBlend mode="normal" in="SourceGraphic" in2="BackgroundImageFix" result="shape"/>
<feGaussianBlur stdDeviation="2" result="effect1_foregroundBlur_1449_2415"/>
</filter>
<linearGradient id="paint0_linear_1449_2415" x1="34.1632" y1="611.195" x2="1256.66" y2="278.289" gradientUnits="userSpaceOnUse">
<stop stop-color="#344AC5"/>
<stop offset="1" stop-color="#00FFF3"/>
</linearGradient>
<linearGradient id="paint1_linear_1449_2415" x1="1069.03" y1="315.59" x2="1160.8" y2="252.859" gradientUnits="userSpaceOnUse">
<stop stop-color="#344AC5"/>
<stop offset="1" stop-color="#27E1E4"/>
</linearGradient>
<linearGradient id="paint2_linear_1449_2415" x1="81.2107" y1="597.475" x2="169.487" y2="537.124" gradientUnits="userSpaceOnUse">
<stop stop-color="#344AC5"/>
<stop offset="1" stop-color="#27E1E4"/>
</linearGradient>
<linearGradient id="paint3_linear_1449_2415" x1="34.1632" y1="611.195" x2="1256.66" y2="278.289" gradientUnits="userSpaceOnUse">
<stop stop-color="#344AC5"/>
<stop offset="1" stop-color="#00FFF3"/>
</linearGradient>
<linearGradient id="paint4_linear_1449_2415" x1="1069.03" y1="315.59" x2="1160.8" y2="252.859" gradientUnits="userSpaceOnUse">
<stop stop-color="#344AC5"/>
<stop offset="1" stop-color="#27E1E4"/>
</linearGradient>
<linearGradient id="paint5_linear_1449_2415" x1="81.2107" y1="597.475" x2="169.487" y2="537.124" gradientUnits="userSpaceOnUse">
<stop stop-color="#344AC5"/>
<stop offset="1" stop-color="#27E1E4"/>
</linearGradient>
<clipPath id="clip0_1449_2415">
<rect width="1163" height="671" fill="white" transform="translate(51 51)"/>
</clipPath>
<clipPath id="clip1_1449_2415">
<rect width="1163" height="671" fill="white" transform="translate(51 51)"/>
</clipPath>
</defs>
</svg>
