<svg width="1611" height="1024" viewBox="0 0 1611 1024" fill="none" xmlns="http://www.w3.org/2000/svg">
<g clip-path="url(#clip0_1507_1381)" filter="url(#filter0_b_1507_1381)">
<path opacity="0.4" d="M1435.11 839.601L1551.23 789.79C1563.32 784.609 1569.83 772.84 1570.65 760.801C1571.55 747.513 1565.51 733.854 1552.38 728.292L129.642 137.884C116.473 132.289 124.639 111.111 125.551 97.838C125.56 97.7561 125.569 97.6743 125.58 97.5788C126.493 85.2734 56.801 104.651 69.3338 99.7823L67.7877 113.44L151.805 207.754L125.477 248.559C112.61 253.555 105.739 266.001 105.12 278.644C104.48 291.685 110.495 304.954 123.418 310.438L1527.28 906.372C1541.74 912.514 1547.54 928.342 1545.08 942.74C1543.19 953.801 1536.43 964.021 1524.98 968.348L1513.38 972.596L1503.71 896.365L1430.68 842.817L1435.11 839.601Z" fill="url(#paint0_linear_1507_1381)"/>
<path opacity="0.8" d="M1569.01 769.819C1570.1 767.523 1569.36 767.275 1569.01 769.819L1544.71 945.861C1544.71 945.861 1531.41 980.78 1497.89 970.843C1493.46 965.662 1526.9 905.328 1516.46 902.107C1516.4 902.1 1516.34 902.066 1516.28 902.045L1457.71 876.221C1457.33 876.055 1457.02 875.77 1456.8 875.414L1436.57 841.992C1435.84 840.775 1436.34 839.077 1437.58 838.541L1555.66 787.46C1556.14 787.251 1559.98 784.882 1560.23 784.371L1564.76 778.74L1567.16 774.712L1569.01 769.819Z" fill="url(#paint1_linear_1507_1381)"/>
</g>
<g clip-path="url(#clip1_1507_1381)" filter="url(#filter1_f_1507_1381)">
<path opacity="0.4" d="M1435.11 839.601L1551.23 789.79C1563.32 784.609 1569.83 772.84 1570.65 760.801C1571.55 747.513 1565.51 733.854 1552.38 728.292L129.642 137.884C116.473 132.289 124.639 111.111 125.551 97.838C125.56 97.7561 125.569 97.6743 125.58 97.5788C126.493 85.2734 56.801 104.651 69.3338 99.7823L67.7877 113.44L151.805 207.754L125.477 248.559C112.61 253.555 105.739 266.001 105.12 278.644C104.48 291.685 110.495 304.954 123.418 310.438L1527.28 906.372C1541.74 912.514 1547.54 928.342 1545.08 942.74C1543.19 953.801 1536.43 964.021 1524.98 968.348L1513.38 972.596L1503.71 896.365L1430.68 842.817L1435.11 839.601Z" fill="url(#paint2_linear_1507_1381)"/>
<path opacity="0.8" d="M1569.01 769.819C1570.1 767.523 1569.36 767.275 1569.01 769.819L1544.71 945.861C1544.71 945.861 1531.41 980.78 1497.89 970.843C1493.46 965.662 1526.9 905.328 1516.46 902.107C1516.4 902.1 1516.34 902.066 1516.28 902.045L1457.71 876.221C1457.33 876.055 1457.02 875.77 1456.8 875.414L1436.57 841.992C1435.84 840.775 1436.34 839.077 1437.58 838.541L1555.66 787.46C1556.14 787.251 1559.98 784.882 1560.23 784.371L1564.76 778.74L1567.16 774.712L1569.01 769.819Z" fill="url(#paint3_linear_1507_1381)"/>
</g>
<path d="M445.706 295.2C445.54 296.664 444.22 297.716 442.756 297.55C441.293 297.384 440.241 296.064 440.407 294.6C440.572 293.137 441.893 292.085 443.356 292.25C444.82 292.416 445.872 293.737 445.706 295.2ZM122.769 118.389L105.368 125.798L104.976 124.878L122.377 117.469L122.769 118.389ZM105.317 148.778L443.254 294.441L442.858 295.359L104.921 149.696L105.317 148.778ZM105.368 125.798C95.2545 130.104 95.2227 144.427 105.317 148.778L104.921 149.696C94.0194 144.998 94.0537 129.529 104.976 124.878L105.368 125.798Z" fill="white"/>
<path d="M433.893 399.536C433.728 400.999 432.407 402.051 430.944 401.885C429.48 401.72 428.428 400.399 428.594 398.936C428.76 397.472 430.08 396.42 431.544 396.586C433.007 396.752 434.059 398.072 433.893 399.536ZM110.956 222.725L93.5551 230.134L93.1634 229.214L110.565 221.804L110.956 222.725ZM93.5041 253.114L431.442 398.776L431.046 399.695L93.1083 254.032L93.5041 253.114ZM93.5551 230.134C83.442 234.44 83.4102 248.763 93.5041 253.114L93.1083 254.032C82.2069 249.333 82.2412 233.864 93.1634 229.214L93.5551 230.134Z" fill="white"/>
<path d="M1025.9 620.146C1025.74 621.61 1024.42 622.662 1022.95 622.496C1021.49 622.33 1020.44 621.01 1020.6 619.546C1020.77 618.083 1022.09 617.031 1023.55 617.197C1025.02 617.362 1026.07 618.683 1025.9 620.146ZM97.5475 190.94L97.7434 191.4L97.5475 190.94ZM115.353 183.903L97.7434 191.4L97.3517 190.48L114.961 182.983L115.353 183.903ZM97.6301 214.353L1023.45 619.388L1023.05 620.304L97.2293 215.269L97.6301 214.353ZM97.7434 191.4C87.6601 195.694 87.5897 209.961 97.6301 214.353L97.2293 215.269C86.3857 210.526 86.4617 195.117 97.3517 190.48L97.7434 191.4Z" fill="white"/>
<path d="M760.012 469.015C759.846 470.479 758.526 471.531 757.062 471.365C755.599 471.199 754.547 469.879 754.712 468.415C754.878 466.952 756.199 465.9 757.662 466.066C759.125 466.231 760.178 467.552 760.012 469.015ZM101.122 160.551L100.926 160.091L101.122 160.551ZM101.047 184.441L101.246 183.982L101.047 184.441ZM118.787 153.573L101.318 161.011L100.926 160.091L118.395 152.653L118.787 153.573ZM101.246 183.982L757.561 468.257L757.163 469.174L100.849 184.9L101.246 183.982ZM101.318 161.011C91.2142 165.313 91.1698 179.618 101.246 183.982L100.849 184.9C89.9662 180.186 90.0142 164.737 100.926 160.091L101.318 161.011Z" fill="white"/>
<g filter="url(#filter2_f_1507_1381)">
<path d="M445.706 295.2C445.54 296.664 444.22 297.716 442.756 297.55C441.293 297.384 440.241 296.064 440.407 294.6C440.572 293.137 441.893 292.085 443.356 292.25C444.82 292.416 445.872 293.737 445.706 295.2ZM122.769 118.389L105.368 125.798L104.976 124.878L122.377 117.469L122.769 118.389ZM105.317 148.778L443.254 294.441L442.858 295.359L104.921 149.696L105.317 148.778ZM105.368 125.798C95.2545 130.104 95.2227 144.427 105.317 148.778L104.921 149.696C94.0194 144.998 94.0537 129.529 104.976 124.878L105.368 125.798Z" fill="white"/>
<path d="M433.893 399.536C433.728 400.999 432.407 402.051 430.944 401.885C429.48 401.72 428.428 400.399 428.594 398.936C428.76 397.472 430.08 396.42 431.544 396.586C433.007 396.752 434.059 398.072 433.893 399.536ZM110.956 222.725L93.5551 230.134L93.1634 229.214L110.565 221.804L110.956 222.725ZM93.5041 253.114L431.442 398.776L431.046 399.695L93.1083 254.032L93.5041 253.114ZM93.5551 230.134C83.442 234.44 83.4102 248.763 93.5041 253.114L93.1083 254.032C82.2069 249.333 82.2412 233.864 93.1634 229.214L93.5551 230.134Z" fill="white"/>
<path d="M1025.9 620.146C1025.74 621.61 1024.42 622.662 1022.95 622.496C1021.49 622.33 1020.44 621.01 1020.6 619.546C1020.77 618.083 1022.09 617.031 1023.55 617.197C1025.02 617.362 1026.07 618.683 1025.9 620.146ZM97.5475 190.94L97.7434 191.4L97.5475 190.94ZM115.353 183.903L97.7434 191.4L97.3517 190.48L114.961 182.983L115.353 183.903ZM97.6301 214.353L1023.45 619.388L1023.05 620.304L97.2293 215.269L97.6301 214.353ZM97.7434 191.4C87.6601 195.694 87.5897 209.961 97.6301 214.353L97.2293 215.269C86.3857 210.526 86.4617 195.117 97.3517 190.48L97.7434 191.4Z" fill="white"/>
<path d="M760.012 469.015C759.846 470.479 758.526 471.531 757.062 471.365C755.599 471.199 754.547 469.879 754.712 468.415C754.878 466.952 756.199 465.9 757.662 466.066C759.125 466.231 760.178 467.552 760.012 469.015ZM101.122 160.551L100.926 160.091L101.122 160.551ZM101.047 184.441L101.246 183.982L101.047 184.441ZM118.787 153.573L101.318 161.011L100.926 160.091L118.395 152.653L118.787 153.573ZM101.246 183.982L757.561 468.257L757.163 469.174L100.849 184.9L101.246 183.982ZM101.318 161.011C91.2142 165.313 91.1698 179.618 101.246 183.982L100.849 184.9C89.9662 180.186 90.0142 164.737 100.926 160.091L101.318 161.011Z" fill="white"/>
</g>
<path d="M257.855 71.8052L129.368 115.626" stroke="white"/>
<path d="M253.734 108.202L151.279 141.453" stroke="white"/>
<path d="M249.615 144.598L195.449 161.198" stroke="white"/>
<path d="M257.855 71.8052L129.368 115.626" stroke="white"/>
<path d="M253.734 108.202L151.279 141.453" stroke="white"/>
<path d="M249.615 144.598L195.449 161.198" stroke="white"/>
<g filter="url(#filter3_f_1507_1381)">
<path d="M257.855 71.8052L129.368 115.626" stroke="white"/>
<path d="M253.734 108.202L151.279 141.453" stroke="white"/>
<path d="M249.615 144.598L195.449 161.198" stroke="white"/>
</g>
<path d="M1240.69 631.595C1240.87 630.133 1242.2 629.092 1243.67 629.27C1245.13 629.448 1246.17 630.777 1245.99 632.239C1245.81 633.7 1244.48 634.741 1243.02 634.564C1241.55 634.386 1240.51 633.057 1240.69 631.595ZM1566.23 775.699L1243.14 632.374L1243.54 631.46L1566.63 774.785L1566.23 775.699Z" fill="white"/>
<path d="M1052.7 583.131C1052.87 581.669 1054.2 580.628 1055.67 580.806C1057.13 580.984 1058.17 582.313 1057.99 583.775C1057.81 585.237 1056.48 586.278 1055.02 586.1C1053.56 585.922 1052.52 584.593 1052.7 583.131ZM1532.31 797.049L1055.14 583.909L1055.55 582.997L1532.72 796.136L1532.31 797.049Z" fill="white"/>
<g filter="url(#filter4_f_1507_1381)">
<path d="M1240.69 631.595C1240.87 630.133 1242.2 629.092 1243.67 629.27C1245.13 629.448 1246.17 630.777 1245.99 632.239C1245.81 633.7 1244.48 634.741 1243.02 634.564C1241.55 634.386 1240.51 633.057 1240.69 631.595ZM1566.23 775.699L1243.14 632.374L1243.54 631.46L1566.63 774.785L1566.23 775.699Z" fill="white"/>
<path d="M1052.7 583.131C1052.87 581.669 1054.2 580.628 1055.67 580.806C1057.13 580.984 1058.17 582.313 1057.99 583.775C1057.81 585.237 1056.48 586.278 1055.02 586.1C1053.56 585.922 1052.52 584.593 1052.7 583.131ZM1532.31 797.049L1055.14 583.909L1055.55 582.997L1532.72 796.136L1532.31 797.049Z" fill="white"/>
</g>
<path d="M1143.86 679.613C1144.04 678.151 1145.37 677.11 1146.84 677.288C1148.3 677.466 1149.34 678.795 1149.16 680.257C1148.98 681.718 1147.65 682.759 1146.19 682.582C1144.72 682.404 1143.68 681.075 1143.86 679.613ZM1469.4 823.717L1146.31 680.392L1146.71 679.478L1469.8 822.803L1469.4 823.717Z" fill="white"/>
<path d="M955.863 631.149C956.042 629.688 957.373 628.647 958.835 628.824C960.297 629.002 961.337 630.331 961.158 631.793C960.978 633.255 959.648 634.296 958.186 634.118C956.724 633.94 955.684 632.611 955.863 631.149ZM1435.48 845.067L958.306 631.928L958.715 631.015L1435.88 844.154L1435.48 845.067Z" fill="white"/>
<g filter="url(#filter5_f_1507_1381)">
<path d="M1143.86 679.613C1144.04 678.151 1145.37 677.11 1146.84 677.288C1148.3 677.466 1149.34 678.795 1149.16 680.257C1148.98 681.718 1147.65 682.759 1146.19 682.582C1144.72 682.404 1143.68 681.075 1143.86 679.613ZM1469.4 823.717L1146.31 680.392L1146.71 679.478L1469.8 822.803L1469.4 823.717Z" fill="white"/>
<path d="M955.863 631.149C956.042 629.688 957.373 628.647 958.835 628.824C960.297 629.002 961.337 630.331 961.158 631.793C960.978 633.255 959.648 634.296 958.186 634.118C956.724 633.94 955.684 632.611 955.863 631.149ZM1435.48 845.067L958.306 631.928L958.715 631.015L1435.88 844.154L1435.48 845.067Z" fill="white"/>
</g>
<defs>
<filter id="filter0_b_1507_1381" x="39.8477" y="1.08496" width="1601.15" height="991.975" filterUnits="userSpaceOnUse" color-interpolation-filters="sRGB">
<feFlood flood-opacity="0" result="BackgroundImageFix"/>
<feGaussianBlur in="BackgroundImageFix" stdDeviation="2"/>
<feComposite in2="SourceAlpha" operator="in" result="effect1_backgroundBlur_1507_1381"/>
<feBlend mode="normal" in="SourceGraphic" in2="effect1_backgroundBlur_1507_1381" result="shape"/>
</filter>
<filter id="filter1_f_1507_1381" x="-6.95234" y="-45.715" width="1694.75" height="1085.58" filterUnits="userSpaceOnUse" color-interpolation-filters="sRGB">
<feFlood flood-opacity="0" result="BackgroundImageFix"/>
<feBlend mode="normal" in="SourceGraphic" in2="BackgroundImageFix" result="shape"/>
<feGaussianBlur stdDeviation="25.4" result="effect1_foregroundBlur_1507_1381"/>
</filter>
<filter id="filter2_f_1507_1381" x="80.9512" y="113.469" width="948.971" height="513.044" filterUnits="userSpaceOnUse" color-interpolation-filters="sRGB">
<feFlood flood-opacity="0" result="BackgroundImageFix"/>
<feBlend mode="normal" in="SourceGraphic" in2="BackgroundImageFix" result="shape"/>
<feGaussianBlur stdDeviation="2" result="effect1_foregroundBlur_1507_1381"/>
</filter>
<filter id="filter3_f_1507_1381" x="125.207" y="67.332" width="136.811" height="98.3438" filterUnits="userSpaceOnUse" color-interpolation-filters="sRGB">
<feFlood flood-opacity="0" result="BackgroundImageFix"/>
<feBlend mode="normal" in="SourceGraphic" in2="BackgroundImageFix" result="shape"/>
<feGaussianBlur stdDeviation="2" result="effect1_foregroundBlur_1507_1381"/>
</filter>
<filter id="filter4_f_1507_1381" x="1048.68" y="576.787" width="521.959" height="224.262" filterUnits="userSpaceOnUse" color-interpolation-filters="sRGB">
<feFlood flood-opacity="0" result="BackgroundImageFix"/>
<feBlend mode="normal" in="SourceGraphic" in2="BackgroundImageFix" result="shape"/>
<feGaussianBlur stdDeviation="2" result="effect1_foregroundBlur_1507_1381"/>
</filter>
<filter id="filter5_f_1507_1381" x="951.844" y="624.805" width="521.961" height="224.262" filterUnits="userSpaceOnUse" color-interpolation-filters="sRGB">
<feFlood flood-opacity="0" result="BackgroundImageFix"/>
<feBlend mode="normal" in="SourceGraphic" in2="BackgroundImageFix" result="shape"/>
<feGaussianBlur stdDeviation="2" result="effect1_foregroundBlur_1507_1381"/>
</filter>
<linearGradient id="paint0_linear_1507_1381" x1="1581.79" y1="857.09" x2="69.502" y2="227.133" gradientUnits="userSpaceOnUse">
<stop stop-color="#00FFF3"/>
<stop offset="1" stop-color="#344AC5"/>
</linearGradient>
<linearGradient id="paint1_linear_1507_1381" x1="1522.96" y1="833.572" x2="1422.62" y2="741.669" gradientUnits="userSpaceOnUse">
<stop stop-color="#27E1E4"/>
<stop offset="1" stop-color="#344AC5"/>
</linearGradient>
<linearGradient id="paint2_linear_1507_1381" x1="94.5354" y1="165.185" x2="1600.73" y2="734.39" gradientUnits="userSpaceOnUse">
<stop stop-color="#344AC5"/>
<stop offset="1" stop-color="#00FFF3"/>
</linearGradient>
<linearGradient id="paint3_linear_1507_1381" x1="1522.96" y1="833.572" x2="1422.62" y2="741.669" gradientUnits="userSpaceOnUse">
<stop stop-color="#27E1E4"/>
<stop offset="1" stop-color="#344AC5"/>
</linearGradient>
<clipPath id="clip0_1507_1381">
<rect width="1510.59" height="819.259" fill="white" transform="matrix(-0.993654 -0.112483 -0.112483 0.993654 1637 175)"/>
</clipPath>
<clipPath id="clip1_1507_1381">
<rect width="1510.59" height="819.259" fill="white" transform="matrix(-0.993654 -0.112483 -0.112483 0.993654 1637 175)"/>
</clipPath>
</defs>
</svg>
