<svg width="1409" height="921" viewBox="0 0 1409 921" fill="none" xmlns="http://www.w3.org/2000/svg">
<g clip-path="url(#clip0_1507_1334)" filter="url(#filter0_b_1507_1334)">
<path opacity="0.4" d="M165.931 755.249L67.0189 704.42C56.7215 699.132 51.4705 688.022 51.1551 676.907C50.8118 664.639 56.4947 652.328 68.0418 647.773L1307.46 158.001C1319.04 153.418 1324.69 141.122 1324.33 128.868C1324.33 128.792 1324.32 128.717 1324.32 128.628C1323.93 117.264 1318.39 105.984 1307.7 100.965L1201.77 51.2635L1213.5 217.878L1319.44 267.579C1330.42 272.73 1335.96 284.48 1336.08 296.141C1336.2 308.17 1330.56 320.124 1319.19 324.615L83.9212 812.738C71.1975 817.769 65.6558 832.087 67.3071 845.442C68.5814 855.704 74.1044 865.399 83.8775 869.874L93.7809 874.281L104.663 804.542L169.658 758.399L165.931 755.249Z" fill="url(#paint0_linear_1507_1334)"/>
<path opacity="0.8" d="M1212.27 196.502L1213.54 218.243L1315.36 267.156C1315.36 267.156 1330.1 271.383 1335.23 288.526L1324.7 134.031C1324.7 134.031 1319.95 155.079 1306.99 157.793L1212.16 196.079L1212.29 196.514L1212.27 196.502Z" fill="url(#paint1_linear_1507_1334)"/>
<path opacity="0.8" d="M52.2777 685.276C51.4145 683.117 52.0575 682.919 52.2765 685.276L67.5331 848.331C67.5331 848.331 77.9011 881.039 107.25 873.333C111.257 868.756 84.2865 811.794 93.4344 809.278C93.4872 809.274 93.5382 809.245 93.5902 809.229L145.159 787.98C145.489 787.842 145.769 787.594 145.97 787.276L164.587 757.386C165.264 756.299 164.887 754.714 163.829 754.167L63.2574 702.084C62.8497 701.872 59.6 699.527 59.4069 699.045L55.6671 693.669L53.7182 689.858L52.2777 685.276Z" fill="url(#paint2_linear_1507_1334)"/>
</g>
<g clip-path="url(#clip1_1507_1334)" filter="url(#filter1_f_1507_1334)">
<path opacity="0.4" d="M165.931 755.249L67.0189 704.42C56.7215 699.132 51.4705 688.022 51.1551 676.907C50.8118 664.639 56.4947 652.328 68.0418 647.773L1307.46 158.001C1319.04 153.418 1324.69 141.122 1324.33 128.868C1324.33 128.792 1324.32 128.717 1324.32 128.628C1323.93 117.264 1318.39 105.984 1307.7 100.965L1201.77 51.2635L1213.5 217.878L1319.44 267.579C1330.42 272.73 1335.96 284.48 1336.08 296.141C1336.2 308.17 1330.56 320.124 1319.19 324.615L83.9212 812.738C71.1975 817.769 65.6558 832.087 67.3071 845.442C68.5814 855.704 74.1044 865.399 83.8775 869.874L93.1106 824.698L104.663 804.542L169.658 758.399L165.931 755.249Z" fill="url(#paint3_linear_1507_1334)"/>
<path opacity="0.8" d="M1212.27 196.502L1213.54 218.243L1315.36 267.156C1315.36 267.156 1330.1 271.383 1335.23 288.526L1324.7 134.031C1324.7 134.031 1319.95 155.079 1306.99 157.793L1212.16 196.079L1212.29 196.514L1212.27 196.502Z" fill="url(#paint4_linear_1507_1334)"/>
<path opacity="0.8" d="M52.2777 685.276C51.4145 683.117 52.0575 682.919 52.2765 685.276L67.5331 848.331C67.5331 848.331 60.0173 818.468 93.4344 809.278C93.4872 809.274 93.5382 809.245 93.5902 809.229L145.159 787.98C145.489 787.842 145.769 787.594 145.97 787.276L164.587 757.386C165.264 756.299 164.887 754.714 163.829 754.167L63.2574 702.084C62.8497 701.872 59.6 699.527 59.4069 699.045L55.6671 693.669L53.7182 689.858L52.2777 685.276Z" fill="url(#paint5_linear_1507_1334)"/>
</g>
<path d="M1039.38 284.342C1039.48 285.811 1040.75 286.918 1042.22 286.815C1043.69 286.711 1044.8 285.436 1044.7 283.967C1044.59 282.498 1043.32 281.391 1041.85 281.494C1040.38 281.598 1039.27 282.873 1039.38 284.342ZM1338.54 141.775L1338.31 142.221L1338.54 141.775ZM1337.48 165.417L1337.29 164.953L1337.48 165.417ZM1325.15 135.502L1338.31 142.221L1338.77 141.33L1325.61 134.612L1325.15 135.502ZM1337.29 164.953L1041.85 283.691L1042.22 284.618L1337.67 165.881L1337.29 164.953ZM1338.31 142.221C1347.87 147.097 1347.25 160.953 1337.29 164.953L1337.67 165.881C1348.42 161.56 1349.09 146.597 1338.77 141.33L1338.31 142.221Z" fill="white"/>
<path d="M1046.17 380.869C1046.27 382.338 1047.55 383.445 1049.02 383.342C1050.49 383.239 1051.6 381.964 1051.49 380.495C1051.39 379.025 1050.11 377.918 1048.64 378.022C1047.18 378.125 1046.07 379.4 1046.17 380.869ZM1345.34 238.303L1345.11 238.748L1345.34 238.303ZM1344.27 261.944L1344.09 261.48L1344.27 261.944ZM1331.95 232.03L1345.11 238.748L1345.56 237.857L1332.4 231.139L1331.95 232.03ZM1344.09 261.48L1048.65 380.218L1049.02 381.146L1344.46 262.408L1344.09 261.48ZM1345.11 238.748C1354.66 243.625 1354.04 257.48 1344.09 261.48L1344.46 262.408C1355.21 258.088 1355.88 243.124 1345.56 237.857L1345.11 238.748Z" fill="white"/>
<path d="M526.269 558.462C526.372 559.931 527.647 561.038 529.116 560.935C530.586 560.831 531.693 559.556 531.589 558.087C531.486 556.618 530.211 555.511 528.742 555.614C527.273 555.718 526.166 556.993 526.269 558.462ZM1343 202.483L1343.23 202.038L1343 202.483ZM1342 226.097L1342.19 226.56L1342 226.097ZM1329.42 196.113L1342.77 202.929L1343.23 202.038L1329.87 195.222L1329.42 196.113ZM1341.82 225.634L528.74 557.812L529.118 558.737L1342.19 226.56L1341.82 225.634ZM1342.77 202.929C1352.3 207.79 1351.71 221.59 1341.82 225.634L1342.19 226.56C1352.89 222.192 1353.51 207.288 1343.23 202.038L1342.77 202.929Z" fill="white"/>
<path d="M761.489 430.799C761.593 432.268 762.868 433.375 764.337 433.272C765.806 433.169 766.913 431.894 766.809 430.425C766.706 428.956 765.431 427.848 763.962 427.952C762.493 428.055 761.386 429.33 761.489 430.799ZM1327.44 168.052L1340.67 174.803L1341.12 173.912L1327.9 167.162L1327.44 168.052ZM1339.67 197.526L763.962 430.148L764.337 431.076L1340.04 198.453L1339.67 197.526ZM1340.67 174.803C1350.21 179.674 1349.6 193.511 1339.67 197.526L1340.04 198.453C1350.77 194.117 1351.43 179.173 1341.12 173.912L1340.67 174.803Z" fill="white"/>
<g filter="url(#filter2_f_1507_1334)">
<path d="M1039.38 284.342C1039.48 285.811 1040.75 286.918 1042.22 286.815C1043.69 286.711 1044.8 285.436 1044.7 283.967C1044.59 282.498 1043.32 281.391 1041.85 281.494C1040.38 281.598 1039.27 282.873 1039.38 284.342ZM1338.54 141.775L1338.31 142.221L1338.54 141.775ZM1337.48 165.417L1337.29 164.953L1337.48 165.417ZM1325.15 135.502L1338.31 142.221L1338.77 141.33L1325.61 134.612L1325.15 135.502ZM1337.29 164.953L1041.85 283.691L1042.22 284.618L1337.67 165.881L1337.29 164.953ZM1338.31 142.221C1347.87 147.097 1347.25 160.953 1337.29 164.953L1337.67 165.881C1348.42 161.56 1349.09 146.597 1338.77 141.33L1338.31 142.221Z" fill="white"/>
<path d="M1046.17 380.869C1046.27 382.338 1047.55 383.445 1049.02 383.342C1050.49 383.239 1051.6 381.964 1051.49 380.495C1051.39 379.025 1050.11 377.918 1048.64 378.022C1047.18 378.125 1046.07 379.4 1046.17 380.869ZM1345.34 238.303L1345.11 238.748L1345.34 238.303ZM1344.27 261.944L1344.09 261.48L1344.27 261.944ZM1331.95 232.03L1345.11 238.748L1345.56 237.857L1332.4 231.139L1331.95 232.03ZM1344.09 261.48L1048.65 380.218L1049.02 381.146L1344.46 262.408L1344.09 261.48ZM1345.11 238.748C1354.66 243.625 1354.04 257.48 1344.09 261.48L1344.46 262.408C1355.21 258.088 1355.88 243.124 1345.56 237.857L1345.11 238.748Z" fill="white"/>
<path d="M526.269 558.462C526.372 559.931 527.647 561.038 529.116 560.935C530.586 560.831 531.693 559.556 531.589 558.087C531.486 556.618 530.211 555.511 528.742 555.614C527.273 555.718 526.166 556.993 526.269 558.462ZM1343 202.483L1343.23 202.038L1343 202.483ZM1342 226.097L1342.19 226.56L1342 226.097ZM1329.42 196.113L1342.77 202.929L1343.23 202.038L1329.87 195.222L1329.42 196.113ZM1341.82 225.634L528.74 557.812L529.118 558.737L1342.19 226.56L1341.82 225.634ZM1342.77 202.929C1352.3 207.79 1351.71 221.59 1341.82 225.634L1342.19 226.56C1352.89 222.192 1353.51 207.288 1343.23 202.038L1342.77 202.929Z" fill="white"/>
<path d="M761.489 430.799C761.593 432.268 762.868 433.375 764.337 433.272C765.806 433.169 766.913 431.894 766.809 430.425C766.706 428.956 765.431 427.848 763.962 427.952C762.493 428.055 761.386 429.33 761.489 430.799ZM1327.44 168.052L1340.67 174.803L1341.12 173.912L1327.9 167.162L1327.44 168.052ZM1339.67 197.526L763.962 430.148L764.337 431.076L1340.04 198.453L1339.67 197.526ZM1340.67 174.803C1350.21 179.674 1349.6 193.511 1339.67 197.526L1340.04 198.453C1350.77 194.117 1351.43 179.173 1341.12 173.912L1340.67 174.803Z" fill="white"/>
</g>
<path d="M1209.75 86.7979L1319.57 132.646" stroke="white"/>
<path d="M1212.12 120.47L1299.74 155.473" stroke="white"/>
<path d="M1214.49 154.143L1260.85 171.747" stroke="white"/>
<path d="M1209.75 86.7979L1319.57 132.646" stroke="white"/>
<path d="M1212.12 120.47L1299.74 155.473" stroke="white"/>
<path d="M1214.49 154.143L1260.85 171.747" stroke="white"/>
<g filter="url(#filter3_f_1507_1334)">
<path d="M1209.75 86.7979L1319.57 132.646" stroke="white"/>
<path d="M1212.12 120.47L1299.74 155.473" stroke="white"/>
<path d="M1214.49 154.143L1260.85 171.747" stroke="white"/>
</g>
<path d="M341.482 572.147C341.365 570.679 340.081 569.583 338.613 569.699C337.145 569.815 336.049 571.1 336.165 572.568C336.281 574.036 337.566 575.132 339.034 575.016C340.502 574.899 341.598 573.615 341.482 572.147ZM54.5234 690.84L339.015 572.819L338.632 571.895L54.1402 689.917L54.5234 690.84Z" fill="white"/>
<path d="M505.873 535.622C505.756 534.154 504.472 533.058 503.004 533.174C501.536 533.29 500.44 534.575 500.556 536.043C500.672 537.511 501.957 538.607 503.425 538.491C504.893 538.375 505.989 537.09 505.873 535.622ZM83.195 711.945L503.407 536.294L503.021 535.371L82.8093 711.023L83.195 711.945Z" fill="white"/>
<g filter="url(#filter4_f_1507_1334)">
<path d="M341.482 572.147C341.365 570.679 340.081 569.583 338.613 569.699C337.145 569.815 336.049 571.1 336.165 572.568C336.281 574.036 337.566 575.132 339.034 575.016C340.502 574.899 341.598 573.615 341.482 572.147ZM54.5234 690.84L339.015 572.819L338.632 571.895L54.1402 689.917L54.5234 690.84Z" fill="white"/>
<path d="M505.873 535.622C505.756 534.154 504.472 533.058 503.004 533.174C501.536 533.29 500.44 534.575 500.556 536.043C500.672 537.511 501.957 538.607 503.425 538.491C504.893 538.375 505.989 537.09 505.873 535.622ZM83.195 711.945L503.407 536.294L503.021 535.371L82.8093 711.023L83.195 711.945Z" fill="white"/>
</g>
<path d="M423.749 620.498C423.633 619.03 422.349 617.934 420.88 618.05C419.412 618.166 418.316 619.451 418.433 620.919C418.549 622.387 419.833 623.483 421.301 623.367C422.77 623.25 423.866 621.966 423.749 620.498ZM136.791 739.192L421.283 621.17L420.899 620.246L136.408 738.268L136.791 739.192Z" fill="white"/>
<path d="M588.14 583.973C588.024 582.505 586.739 581.409 585.271 581.525C583.803 581.642 582.707 582.926 582.823 584.394C582.94 585.862 584.224 586.958 585.692 586.842C587.16 586.726 588.256 585.441 588.14 583.973ZM165.463 760.296L585.675 584.645L585.289 583.722L165.077 759.374L165.463 760.296Z" fill="white"/>
<g filter="url(#filter5_f_1507_1334)">
<path d="M423.749 620.498C423.633 619.03 422.349 617.934 420.88 618.05C419.412 618.166 418.316 619.451 418.433 620.919C418.549 622.387 419.833 623.483 421.301 623.367C422.77 623.25 423.866 621.966 423.749 620.498ZM136.791 739.192L421.283 621.17L420.899 620.246L136.408 738.268L136.791 739.192Z" fill="white"/>
<path d="M588.14 583.973C588.024 582.505 586.739 581.409 585.271 581.525C583.803 581.642 582.707 582.926 582.823 584.394C582.94 585.862 584.224 586.958 585.692 586.842C587.16 586.726 588.256 585.441 588.14 583.973ZM165.463 760.296L585.675 584.645L585.289 583.722L165.077 759.374L165.463 760.296Z" fill="white"/>
</g>
<defs>
<filter id="filter0_b_1507_1334" x="8.97461" y="39.0586" width="1366.38" height="853.022" filterUnits="userSpaceOnUse" color-interpolation-filters="sRGB">
<feFlood flood-opacity="0" result="BackgroundImageFix"/>
<feGaussianBlur in="BackgroundImageFix" stdDeviation="2"/>
<feComposite in2="SourceAlpha" operator="in" result="effect1_backgroundBlur_1507_1334"/>
<feBlend mode="normal" in="SourceGraphic" in2="effect1_backgroundBlur_1507_1334" result="shape"/>
</filter>
<filter id="filter1_f_1507_1334" x="-37.8254" y="-7.74141" width="1459.97" height="946.622" filterUnits="userSpaceOnUse" color-interpolation-filters="sRGB">
<feFlood flood-opacity="0" result="BackgroundImageFix"/>
<feBlend mode="normal" in="SourceGraphic" in2="BackgroundImageFix" result="shape"/>
<feGaussianBlur stdDeviation="25.4" result="effect1_foregroundBlur_1507_1334"/>
</filter>
<filter id="filter2_f_1507_1334" x="522.262" y="130.612" width="834.664" height="434.33" filterUnits="userSpaceOnUse" color-interpolation-filters="sRGB">
<feFlood flood-opacity="0" result="BackgroundImageFix"/>
<feBlend mode="normal" in="SourceGraphic" in2="BackgroundImageFix" result="shape"/>
<feGaussianBlur stdDeviation="2" result="effect1_foregroundBlur_1507_1334"/>
</filter>
<filter id="filter3_f_1507_1334" x="1205.55" y="82.3364" width="118.207" height="93.8779" filterUnits="userSpaceOnUse" color-interpolation-filters="sRGB">
<feFlood flood-opacity="0" result="BackgroundImageFix"/>
<feBlend mode="normal" in="SourceGraphic" in2="BackgroundImageFix" result="shape"/>
<feGaussianBlur stdDeviation="2" result="effect1_foregroundBlur_1507_1334"/>
</filter>
<filter id="filter4_f_1507_1334" x="50.1406" y="529.166" width="459.74" height="186.78" filterUnits="userSpaceOnUse" color-interpolation-filters="sRGB">
<feFlood flood-opacity="0" result="BackgroundImageFix"/>
<feBlend mode="normal" in="SourceGraphic" in2="BackgroundImageFix" result="shape"/>
<feGaussianBlur stdDeviation="2" result="effect1_foregroundBlur_1507_1334"/>
</filter>
<filter id="filter5_f_1507_1334" x="132.408" y="577.517" width="459.74" height="186.78" filterUnits="userSpaceOnUse" color-interpolation-filters="sRGB">
<feFlood flood-opacity="0" result="BackgroundImageFix"/>
<feBlend mode="normal" in="SourceGraphic" in2="BackgroundImageFix" result="shape"/>
<feGaussianBlur stdDeviation="2" result="effect1_foregroundBlur_1507_1334"/>
</filter>
<linearGradient id="paint0_linear_1507_1334" x1="38.3368" y1="765.043" x2="1384.17" y2="294.799" gradientUnits="userSpaceOnUse">
<stop stop-color="#344AC5"/>
<stop offset="1" stop-color="#00FFF3"/>
</linearGradient>
<linearGradient id="paint1_linear_1507_1334" x1="1176.53" y1="351.49" x2="1274.57" y2="273.83" gradientUnits="userSpaceOnUse">
<stop stop-color="#344AC5"/>
<stop offset="1" stop-color="#27E1E4"/>
</linearGradient>
<linearGradient id="paint2_linear_1507_1334" x1="90.0594" y1="745.927" x2="184.373" y2="671.213" gradientUnits="userSpaceOnUse">
<stop stop-color="#344AC5"/>
<stop offset="1" stop-color="#27E1E4"/>
</linearGradient>
<linearGradient id="paint3_linear_1507_1334" x1="38.3368" y1="765.043" x2="1384.17" y2="294.799" gradientUnits="userSpaceOnUse">
<stop stop-color="#344AC5"/>
<stop offset="1" stop-color="#00FFF3"/>
</linearGradient>
<linearGradient id="paint4_linear_1507_1334" x1="1176.53" y1="351.49" x2="1274.57" y2="273.83" gradientUnits="userSpaceOnUse">
<stop stop-color="#344AC5"/>
<stop offset="1" stop-color="#27E1E4"/>
</linearGradient>
<linearGradient id="paint5_linear_1507_1334" x1="90.0594" y1="745.927" x2="184.373" y2="671.213" gradientUnits="userSpaceOnUse">
<stop stop-color="#344AC5"/>
<stop offset="1" stop-color="#27E1E4"/>
</linearGradient>
<clipPath id="clip0_1507_1334">
<rect width="1308.59" height="755" fill="white" transform="translate(12.9746 134.945) rotate(-4.02648)"/>
</clipPath>
<clipPath id="clip1_1507_1334">
<rect width="1308.59" height="755" fill="white" transform="translate(12.9746 134.945) rotate(-4.02648)"/>
</clipPath>
</defs>
</svg>
