<svg width="1489" height="1189" viewBox="0 0 1489 1189" fill="none" xmlns="http://www.w3.org/2000/svg">
<g clip-path="url(#clip0_1507_1319)">
<g clip-path="url(#clip1_1507_1319)" filter="url(#filter0_b_1507_1319)">
<path opacity="0.4" d="M117.665 306.258L100.76 177.701C98.9963 164.32 106.163 151.913 116.61 144.235C128.143 135.765 143.717 133.044 155.746 141.092L1447.74 1004.33C1459.82 1012.4 1475.35 1009.65 1486.87 1001.18C1486.94 1001.12 1487 1001.07 1487.08 1001C1497.72 993.093 1504.86 980.298 1502.58 966.716L1479.94 832.185L1327.99 953.99L1350.63 1088.53C1352.98 1102.47 1345.39 1115.58 1334.29 1123.44C1322.84 1131.54 1307.64 1134.06 1295.79 1126.14L8.12973 265.782C-5.13656 256.922 -22.5407 261.111 -34.2486 271.556C-43.2405 279.586 -48.8709 291.315 -46.6758 303.654L-44.3292 316.073L29.7518 280.229L117.118 311.921L117.665 306.258Z" fill="url(#paint0_linear_1507_1319)"/>
<path opacity="0.8" d="M1347.67 938.628L1327.66 954.268L1348.34 1084.34C1348.34 1084.34 1354.06 1101.27 1341.03 1117.57L1482.16 1004.95C1482.16 1004.95 1458.83 1014.37 1447.62 1003.74L1348 938.237L1347.66 938.646L1347.67 938.628Z" fill="url(#paint1_linear_1507_1319)"/>
<path opacity="0.8" d="M109.332 150.865C110.829 148.604 111.445 149.09 109.331 150.864L-36.8676 273.689C-36.8676 273.689 -61.3447 305.333 -34.482 328.357C-27.4347 329.161 9.2785 265.506 17.7605 272.606C17.7991 272.655 17.8608 272.684 17.9109 272.723L72.5028 308.063C72.8535 308.288 73.2769 308.392 73.7153 308.372L114.724 306.387C116.216 306.314 117.485 304.901 117.308 303.524L100.504 172.545C100.437 172.013 100.529 167.341 100.862 166.837L103.535 159.683L105.895 155.286L109.332 150.865Z" fill="url(#paint2_linear_1507_1319)"/>
</g>
<g clip-path="url(#clip2_1507_1319)" filter="url(#filter1_f_1507_1319)">
<path opacity="0.4" d="M117.665 306.258L100.76 177.701C98.9963 164.32 106.163 151.913 116.61 144.235C128.143 135.765 143.717 133.044 155.746 141.092L1447.74 1004.33C1459.82 1012.4 1475.35 1009.65 1486.87 1001.18C1486.94 1001.12 1487 1001.07 1487.08 1001C1497.72 993.093 1504.86 980.298 1502.58 966.716L1479.94 832.185L1327.99 953.99L1350.63 1088.53C1352.98 1102.47 1345.39 1115.58 1334.29 1123.44C1322.84 1131.54 1307.64 1134.06 1295.79 1126.14L8.12973 265.782C-5.13656 256.922 -22.5407 261.111 -34.2486 271.556C-43.2405 279.586 -48.8709 291.315 -46.6758 303.654L2.76214 282.528L29.7518 280.229L117.118 311.921L117.665 306.258Z" fill="url(#paint3_linear_1507_1319)"/>
<path opacity="0.8" d="M1347.67 938.628L1327.66 954.268L1348.34 1084.34C1348.34 1084.34 1354.06 1101.27 1341.03 1117.57L1482.16 1004.95C1482.16 1004.95 1458.83 1014.37 1447.62 1003.74L1348 938.237L1347.66 938.646L1347.67 938.628Z" fill="url(#paint4_linear_1507_1319)"/>
<path opacity="0.8" d="M109.332 150.865C110.829 148.604 111.445 149.09 109.331 150.864L-36.8676 273.689C-36.8676 273.689 -13.2241 246.667 17.7605 272.606C17.7991 272.655 17.8608 272.684 17.9109 272.723L72.5027 308.063C72.8535 308.288 73.2769 308.392 73.7153 308.372L114.724 306.387C116.216 306.314 117.485 304.901 117.308 303.524L100.504 172.545C100.437 172.013 100.529 167.341 100.862 166.837L103.535 159.683L105.895 155.286L109.332 150.865Z" fill="url(#paint5_linear_1507_1319)"/>
</g>
<path d="M1012.62 755.029C1011.47 755.95 1011.28 757.628 1012.21 758.777C1013.13 759.926 1014.8 760.111 1015.95 759.19C1017.1 758.269 1017.29 756.591 1016.37 755.442C1015.45 754.292 1013.77 754.108 1012.62 755.029ZM1348.17 951.591L1348.66 951.525L1348.17 951.591ZM1344.75 929.881L1347.67 951.658L1348.66 951.525L1345.74 929.748L1344.75 929.881ZM1328.4 963.756L1014.56 756.692L1014.01 757.527L1327.85 964.59L1328.4 963.756ZM1347.67 951.658C1349.1 962.289 1337.36 969.663 1328.4 963.756L1327.85 964.59C1337.52 970.97 1350.21 963.007 1348.66 951.525L1347.67 951.658Z" fill="white"/>
<path d="M924.585 825.595C923.436 826.517 923.251 828.195 924.172 829.344C925.093 830.493 926.771 830.678 927.92 829.757C929.07 828.836 929.254 827.157 928.333 826.008C927.412 824.859 925.734 824.674 924.585 825.595ZM1260.14 1022.16L1260.63 1022.09L1260.14 1022.16ZM1256.72 1000.45L1259.64 1022.22L1260.63 1022.09L1257.71 1000.31L1256.72 1000.45ZM1240.37 1034.32L926.528 827.259L925.977 828.093L1239.82 1035.16L1240.37 1034.32ZM1259.64 1022.22C1261.07 1032.86 1249.32 1040.23 1240.37 1034.32L1239.82 1035.16C1249.49 1041.54 1262.17 1033.57 1260.63 1022.09L1259.64 1022.22Z" fill="white"/>
<path d="M736.832 666.419C735.683 667.34 735.498 669.019 736.419 670.168C737.34 671.317 739.019 671.502 740.168 670.581C741.317 669.66 741.502 667.981 740.58 666.832C739.659 665.683 737.981 665.498 736.832 666.419ZM1292.97 996.486L1293.47 996.419L1292.97 996.486ZM1273.1 1009.18L1273.37 1008.76L1273.1 1009.18ZM1289.47 974.191L1292.47 996.552L1293.47 996.419L1290.46 974.057L1289.47 974.191ZM1273.37 1008.76L738.768 668.078L738.231 668.922L1272.83 1009.6L1273.37 1008.76ZM1292.47 996.552C1293.89 1007.09 1282.34 1014.47 1273.37 1008.76L1272.83 1009.6C1282.52 1015.77 1294.99 1007.8 1293.47 996.419L1292.47 996.552Z" fill="white"/>
<path d="M687.808 585.801C686.659 586.722 686.474 588.4 687.395 589.549C688.317 590.699 689.995 590.883 691.144 589.962C692.293 589.041 692.478 587.363 691.557 586.214C690.636 585.065 688.957 584.88 687.808 585.801ZM1298.47 988.052L1298.74 987.634L1298.47 988.052ZM1315.06 953.677L1318 975.523L1318.99 975.39L1316.05 953.544L1315.06 953.677ZM1298.74 987.634L689.751 587.464L689.202 588.299L1298.19 988.47L1298.74 987.634ZM1318 975.523C1319.42 986.144 1307.7 993.519 1298.74 987.634L1298.19 988.47C1307.87 994.825 1320.53 986.861 1318.99 975.39L1318 975.523Z" fill="white"/>
<g filter="url(#filter2_f_1507_1319)">
<path d="M1012.62 755.029C1011.47 755.95 1011.28 757.628 1012.21 758.777C1013.13 759.926 1014.8 760.111 1015.95 759.19C1017.1 758.269 1017.29 756.591 1016.37 755.442C1015.45 754.292 1013.77 754.108 1012.62 755.029ZM1348.17 951.591L1348.66 951.525L1348.17 951.591ZM1344.75 929.881L1347.67 951.658L1348.66 951.525L1345.74 929.748L1344.75 929.881ZM1328.4 963.756L1014.56 756.692L1014.01 757.527L1327.85 964.59L1328.4 963.756ZM1347.67 951.658C1349.1 962.289 1337.36 969.663 1328.4 963.756L1327.85 964.59C1337.52 970.97 1350.21 963.007 1348.66 951.525L1347.67 951.658Z" fill="white"/>
<path d="M924.585 825.595C923.436 826.517 923.251 828.195 924.172 829.344C925.093 830.493 926.771 830.678 927.92 829.757C929.07 828.836 929.254 827.157 928.333 826.008C927.412 824.859 925.734 824.674 924.585 825.595ZM1260.14 1022.16L1260.63 1022.09L1260.14 1022.16ZM1256.72 1000.45L1259.64 1022.22L1260.63 1022.09L1257.71 1000.31L1256.72 1000.45ZM1240.37 1034.32L926.528 827.259L925.977 828.093L1239.82 1035.16L1240.37 1034.32ZM1259.64 1022.22C1261.07 1032.86 1249.32 1040.23 1240.37 1034.32L1239.82 1035.16C1249.49 1041.54 1262.17 1033.57 1260.63 1022.09L1259.64 1022.22Z" fill="white"/>
<path d="M736.832 666.419C735.683 667.34 735.498 669.019 736.419 670.168C737.34 671.317 739.019 671.502 740.168 670.581C741.317 669.66 741.502 667.981 740.581 666.832C739.66 665.683 737.981 665.498 736.832 666.419ZM1289.47 974.191L1292.5 996.442L1293.49 996.307L1290.46 974.056L1289.47 974.191ZM1273.4 1008.67L738.769 668.078L738.231 668.922L1272.86 1009.51L1273.4 1008.67ZM1292.5 996.442C1293.93 1006.99 1282.37 1014.39 1273.4 1008.67L1272.86 1009.51C1282.55 1015.69 1295.04 1007.7 1293.49 996.307L1292.5 996.442Z" fill="white"/>
<path d="M687.808 585.801C686.659 586.722 686.474 588.4 687.395 589.549C688.317 590.699 689.995 590.883 691.144 589.962C692.293 589.041 692.478 587.363 691.557 586.214C690.636 585.065 688.957 584.88 687.808 585.801ZM1298.47 988.052L1298.74 987.634L1298.47 988.052ZM1315.06 953.677L1318 975.523L1318.99 975.39L1316.05 953.544L1315.06 953.677ZM1298.74 987.634L689.751 587.464L689.202 588.299L1298.19 988.47L1298.74 987.634ZM1318 975.523C1319.42 986.144 1307.7 993.519 1298.74 987.634L1298.19 988.47C1307.87 994.825 1320.53 986.861 1318.99 975.39L1318 975.523Z" fill="white"/>
</g>
<path d="M1492.78 904.962L1521.7 1040.67" stroke="white"/>
<path d="M1462.07 929.578L1486.66 1036.81" stroke="white"/>
<path d="M1431.36 954.195L1445.25 1010.32" stroke="white"/>
<path d="M1492.78 904.962L1521.7 1040.67" stroke="white"/>
<path d="M1462.07 929.578L1486.66 1036.81" stroke="white"/>
<path d="M1431.36 954.195L1445.25 1010.32" stroke="white"/>
<g filter="url(#filter3_f_1507_1319)">
<path d="M1492.78 904.962L1521.7 1040.67" stroke="white"/>
<path d="M1462.07 929.578L1486.66 1036.81" stroke="white"/>
<path d="M1431.36 954.195L1445.25 1010.32" stroke="white"/>
</g>
<path d="M441.421 353.895C442.562 352.964 442.732 351.284 441.801 350.143C440.87 349.002 439.19 348.832 438.049 349.763C436.908 350.694 436.738 352.374 437.669 353.515C438.6 354.656 440.28 354.826 441.421 353.895ZM205.073 201.311L439.464 352.249L440.006 351.409L205.614 200.471L205.073 201.311Z" fill="white"/>
<path d="M553.29 457.429C554.431 456.498 554.601 454.818 553.67 453.677C552.739 452.536 551.059 452.366 549.918 453.297C548.777 454.228 548.607 455.908 549.538 457.049C550.469 458.19 552.149 458.36 553.29 457.429ZM204.136 233.523L551.335 455.784L551.874 454.942L204.675 232.68L204.136 233.523Z" fill="white"/>
<g filter="url(#filter4_f_1507_1319)">
<path d="M441.421 353.895C442.562 352.964 442.732 351.284 441.801 350.143C440.87 349.002 439.19 348.832 438.049 349.763C436.908 350.694 436.738 352.374 437.669 353.515C438.6 354.656 440.28 354.826 441.421 353.895ZM205.073 201.311L439.464 352.249L440.006 351.409L205.614 200.471L205.073 201.311Z" fill="white"/>
<path d="M553.29 457.429C554.431 456.498 554.601 454.818 553.67 453.677C552.739 452.536 551.059 452.366 549.918 453.297C548.777 454.228 548.607 455.908 549.538 457.049C550.469 458.19 552.149 458.36 553.29 457.429ZM204.136 233.523L551.335 455.784L551.874 454.942L204.675 232.68L204.136 233.523Z" fill="white"/>
</g>
<path d="M406.419 381.895C407.56 380.964 407.73 379.284 406.799 378.143C405.868 377.002 404.188 376.832 403.047 377.763C401.906 378.694 401.736 380.374 402.667 381.515C403.598 382.656 405.278 382.826 406.419 381.895ZM170.071 229.311L404.462 380.249L405.004 379.409L170.612 228.471L170.071 229.311Z" fill="white"/>
<path d="M518.288 485.429C519.429 484.498 519.599 482.818 518.668 481.677C517.737 480.536 516.057 480.366 514.916 481.297C513.775 482.228 513.605 483.908 514.536 485.049C515.467 486.19 517.147 486.36 518.288 485.429ZM169.134 261.523L516.333 483.784L516.872 482.942L169.673 260.68L169.134 261.523Z" fill="white"/>
<g filter="url(#filter5_f_1507_1319)">
<path d="M406.419 381.895C407.56 380.964 407.73 379.284 406.799 378.143C405.868 377.002 404.188 376.832 403.047 377.763C401.906 378.694 401.736 380.374 402.667 381.515C403.598 382.656 405.278 382.826 406.419 381.895ZM170.071 229.311L404.462 380.249L405.004 379.409L170.612 228.471L170.071 229.311Z" fill="white"/>
<path d="M518.288 485.429C519.429 484.498 519.599 482.818 518.668 481.677C517.737 480.536 516.057 480.366 514.916 481.297C513.775 482.228 513.605 483.908 514.536 485.049C515.467 486.19 517.147 486.36 518.288 485.429ZM169.134 261.523L516.333 483.784L516.872 482.942L169.673 260.68L169.134 261.523Z" fill="white"/>
</g>
<path d="M559.685 543.567C560.826 542.636 560.996 540.956 560.065 539.815C559.134 538.674 557.454 538.504 556.313 539.435C555.172 540.366 555.002 542.046 555.933 543.187C556.864 544.328 558.544 544.498 559.685 543.567ZM210.53 319.661L557.729 541.922L558.268 541.08L211.07 318.818L210.53 319.661Z" fill="white"/>
<g filter="url(#filter6_f_1507_1319)">
<path d="M559.685 543.567C560.826 542.636 560.996 540.956 560.065 539.815C559.134 538.674 557.454 538.504 556.313 539.435C555.172 540.366 555.002 542.046 555.933 543.187C556.864 544.328 558.544 544.498 559.685 543.567ZM210.53 319.661L557.729 541.922L558.268 541.08L211.07 318.818L210.53 319.661Z" fill="white"/>
</g>
<path d="M412.814 468.033C413.955 467.102 414.125 465.422 413.194 464.281C412.263 463.14 410.583 462.97 409.442 463.901C408.301 464.832 408.13 466.512 409.062 467.653C409.993 468.794 411.673 468.964 412.814 468.033ZM176.465 315.449L410.857 466.387L411.398 465.547L177.007 314.609L176.465 315.449Z" fill="white"/>
<path d="M524.683 571.567C525.824 570.636 525.994 568.956 525.063 567.815C524.132 566.674 522.452 566.504 521.311 567.435C520.17 568.366 520 570.046 520.931 571.187C521.862 572.328 523.542 572.498 524.683 571.567ZM175.529 347.661L522.727 569.922L523.266 569.08L176.068 346.818L175.529 347.661Z" fill="white"/>
<g filter="url(#filter7_f_1507_1319)">
<path d="M412.814 468.033C413.955 467.102 414.125 465.422 413.194 464.281C412.263 463.14 410.583 462.97 409.442 463.901C408.301 464.832 408.13 466.512 409.062 467.653C409.993 468.794 411.673 468.964 412.814 468.033ZM176.465 315.449L410.857 466.387L411.398 465.547L177.007 314.609L176.465 315.449Z" fill="white"/>
<path d="M524.683 571.567C525.824 570.636 525.994 568.956 525.063 567.815C524.132 566.674 522.452 566.504 521.311 567.435C520.17 568.366 520 570.046 520.931 571.187C521.862 572.328 523.542 572.498 524.683 571.567ZM175.529 347.661L522.727 569.922L523.266 569.08L176.068 346.818L175.529 347.661Z" fill="white"/>
</g>
</g>
<defs>
<filter id="filter0_b_1507_1319" x="-80" y="-256" width="1649.15" height="1749.08" filterUnits="userSpaceOnUse" color-interpolation-filters="sRGB">
<feFlood flood-opacity="0" result="BackgroundImageFix"/>
<feGaussianBlur in="BackgroundImageFix" stdDeviation="2"/>
<feComposite in2="SourceAlpha" operator="in" result="effect1_backgroundBlur_1507_1319"/>
<feBlend mode="normal" in="SourceGraphic" in2="effect1_backgroundBlur_1507_1319" result="shape"/>
</filter>
<filter id="filter1_f_1507_1319" x="-126.8" y="-302.8" width="1742.75" height="1842.68" filterUnits="userSpaceOnUse" color-interpolation-filters="sRGB">
<feFlood flood-opacity="0" result="BackgroundImageFix"/>
<feBlend mode="normal" in="SourceGraphic" in2="BackgroundImageFix" result="shape"/>
<feGaussianBlur stdDeviation="25.4" result="effect1_foregroundBlur_1507_1319"/>
</filter>
<filter id="filter2_f_1507_1319" x="682.809" y="581.215" width="669.984" height="460.208" filterUnits="userSpaceOnUse" color-interpolation-filters="sRGB">
<feFlood flood-opacity="0" result="BackgroundImageFix"/>
<feBlend mode="normal" in="SourceGraphic" in2="BackgroundImageFix" result="shape"/>
<feGaussianBlur stdDeviation="2" result="effect1_foregroundBlur_1507_1319"/>
</filter>
<filter id="filter3_f_1507_1319" x="1426.88" y="900.858" width="99.3125" height="143.918" filterUnits="userSpaceOnUse" color-interpolation-filters="sRGB">
<feFlood flood-opacity="0" result="BackgroundImageFix"/>
<feBlend mode="normal" in="SourceGraphic" in2="BackgroundImageFix" result="shape"/>
<feGaussianBlur stdDeviation="2" result="effect1_foregroundBlur_1507_1319"/>
</filter>
<filter id="filter4_f_1507_1319" x="200.137" y="196.47" width="358.135" height="265.56" filterUnits="userSpaceOnUse" color-interpolation-filters="sRGB">
<feFlood flood-opacity="0" result="BackgroundImageFix"/>
<feBlend mode="normal" in="SourceGraphic" in2="BackgroundImageFix" result="shape"/>
<feGaussianBlur stdDeviation="2" result="effect1_foregroundBlur_1507_1319"/>
</filter>
<filter id="filter5_f_1507_1319" x="165.135" y="224.47" width="358.135" height="265.56" filterUnits="userSpaceOnUse" color-interpolation-filters="sRGB">
<feFlood flood-opacity="0" result="BackgroundImageFix"/>
<feBlend mode="normal" in="SourceGraphic" in2="BackgroundImageFix" result="shape"/>
<feGaussianBlur stdDeviation="2" result="effect1_foregroundBlur_1507_1319"/>
</filter>
<filter id="filter6_f_1507_1319" x="206.531" y="314.818" width="358.135" height="233.35" filterUnits="userSpaceOnUse" color-interpolation-filters="sRGB">
<feFlood flood-opacity="0" result="BackgroundImageFix"/>
<feBlend mode="normal" in="SourceGraphic" in2="BackgroundImageFix" result="shape"/>
<feGaussianBlur stdDeviation="2" result="effect1_foregroundBlur_1507_1319"/>
</filter>
<filter id="filter7_f_1507_1319" x="171.529" y="310.608" width="358.135" height="265.56" filterUnits="userSpaceOnUse" color-interpolation-filters="sRGB">
<feFlood flood-opacity="0" result="BackgroundImageFix"/>
<feBlend mode="normal" in="SourceGraphic" in2="BackgroundImageFix" result="shape"/>
<feGaussianBlur stdDeviation="2" result="effect1_foregroundBlur_1507_1319"/>
</filter>
<linearGradient id="paint0_linear_1507_1319" x1="23.6074" y1="190.431" x2="1367.49" y2="1168.66" gradientUnits="userSpaceOnUse">
<stop stop-color="#344AC5"/>
<stop offset="1" stop-color="#00FFF3"/>
</linearGradient>
<linearGradient id="paint1_linear_1507_1319" x1="1175.36" y1="1007.21" x2="1314.87" y2="1049.66" gradientUnits="userSpaceOnUse">
<stop stop-color="#344AC5"/>
<stop offset="1" stop-color="#27E1E4"/>
</linearGradient>
<linearGradient id="paint2_linear_1507_1319" x1="76.2567" y1="227.332" x2="210.469" y2="268.175" gradientUnits="userSpaceOnUse">
<stop stop-color="#344AC5"/>
<stop offset="1" stop-color="#27E1E4"/>
</linearGradient>
<linearGradient id="paint3_linear_1507_1319" x1="23.6074" y1="190.431" x2="1367.5" y2="1168.66" gradientUnits="userSpaceOnUse">
<stop stop-color="#344AC5"/>
<stop offset="1" stop-color="#00FFF3"/>
</linearGradient>
<linearGradient id="paint4_linear_1507_1319" x1="1175.36" y1="1007.21" x2="1314.87" y2="1049.66" gradientUnits="userSpaceOnUse">
<stop stop-color="#344AC5"/>
<stop offset="1" stop-color="#27E1E4"/>
</linearGradient>
<linearGradient id="paint5_linear_1507_1319" x1="76.2567" y1="227.332" x2="210.469" y2="268.175" gradientUnits="userSpaceOnUse">
<stop stop-color="#344AC5"/>
<stop offset="1" stop-color="#27E1E4"/>
</linearGradient>
<clipPath id="clip0_1507_1319">
<rect width="1489" height="1189" fill="white"/>
</clipPath>
<clipPath id="clip1_1507_1319">
<rect width="1525.76" height="880.297" fill="white" transform="translate(610.859 -252) rotate(51.2844)"/>
</clipPath>
<clipPath id="clip2_1507_1319">
<rect width="1525.76" height="880.297" fill="white" transform="translate(610.859 -252) rotate(51.2844)"/>
</clipPath>
</defs>
</svg>
