<svg width="1160" height="792" viewBox="0 0 1160 792" fill="none" xmlns="http://www.w3.org/2000/svg">
<g clip-path="url(#clip0_1505_8787)" filter="url(#filter0_b_1505_8787)">
<path opacity="0.4" d="M146.172 645.245L64.6098 605.761C56.1188 601.654 51.6254 592.706 51.1525 583.657C50.6343 573.671 55.0244 563.532 64.3422 559.597L1064.45 136.538C1073.8 132.58 1078.16 122.454 1077.64 112.479C1077.63 112.417 1077.62 112.356 1077.62 112.284C1077.08 103.034 1072.35 93.9531 1063.54 90.0724L976.291 51.6439L989.083 187.141L1076.34 225.568C1085.39 229.551 1090.13 239.015 1090.45 248.512C1090.79 258.308 1086.42 268.155 1077.25 272.035L80.4837 693.669C70.2167 698.015 65.9807 709.786 67.5854 720.633C68.8229 728.967 73.5104 736.758 81.5585 740.213L89.7116 743.611L97.2212 686.589L149.269 647.738L146.172 645.245Z" fill="url(#paint0_linear_1505_8787)"/>
<path opacity="0.8" d="M987.668 169.751L989.121 187.437L1073.02 225.302C1073.02 225.302 1085.1 228.459 1089.62 242.325L1078.03 116.677C1078.03 116.677 1074.57 133.916 1064.07 136.378L987.566 169.409L987.678 169.761L987.668 169.751Z" fill="url(#paint1_linear_1505_8787)"/>
<path opacity="0.8" d="M52.2295 590.453C51.4844 588.711 52.0044 588.538 52.2285 590.453L67.8257 722.982C67.8257 722.982 76.9071 749.424 100.665 742.577C103.84 738.77 80.7629 692.893 88.1659 690.666C88.2089 690.662 88.2499 690.637 88.2919 690.623L129.887 672.311C130.154 672.192 130.377 671.985 130.534 671.721L145.118 647.012C145.649 646.112 145.311 644.829 144.439 644.404L61.5003 603.932C61.1641 603.767 58.4712 601.919 58.3046 601.531L55.1536 597.224L53.492 594.158L52.2295 590.453Z" fill="url(#paint2_linear_1505_8787)"/>
</g>
<g clip-path="url(#clip1_1505_8787)" filter="url(#filter1_f_1505_8787)">
<path opacity="0.4" d="M146.172 645.245L64.6098 605.761C56.1188 601.654 51.6254 592.706 51.1525 583.657C50.6343 573.671 55.0244 563.532 64.3422 559.597L1064.45 136.538C1073.8 132.58 1078.16 122.454 1077.64 112.479C1077.63 112.417 1077.62 112.356 1077.62 112.284C1077.08 103.034 1072.35 93.9531 1063.54 90.0724L976.291 51.6439L989.083 187.141L1076.34 225.568C1085.39 229.551 1090.13 239.015 1090.45 248.512C1090.79 258.308 1086.42 268.155 1077.25 272.035L80.4837 693.669C70.2167 698.015 65.9807 709.786 67.5854 720.633C68.8229 728.967 73.5104 736.758 81.5585 740.213L88.2019 703.233L97.2212 686.589L149.269 647.738L146.172 645.245Z" fill="url(#paint3_linear_1505_8787)"/>
<path opacity="0.8" d="M987.668 169.751L989.121 187.437L1073.02 225.302C1073.02 225.302 1085.1 228.459 1089.62 242.325L1078.03 116.677C1078.03 116.677 1074.57 133.916 1064.07 136.378L987.566 169.409L987.678 169.761L987.668 169.751Z" fill="url(#paint4_linear_1505_8787)"/>
<path opacity="0.8" d="M52.2295 590.453C51.4844 588.711 52.0044 588.538 52.2285 590.453L67.8257 722.982C67.8257 722.982 61.1228 698.801 88.1659 690.666C88.2089 690.662 88.2499 690.637 88.2919 690.623L129.887 672.311C130.154 672.192 130.377 671.985 130.534 671.721L145.118 647.012C145.649 646.112 145.311 644.829 144.439 644.404L61.5003 603.932C61.1641 603.767 58.4712 601.919 58.3046 601.531L55.1536 597.224L53.492 594.158L52.2295 590.453Z" fill="url(#paint5_linear_1505_8787)"/>
</g>
<path d="M848.038 244.712C848.177 246.179 849.478 247.255 850.944 247.117C852.41 246.978 853.486 245.677 853.348 244.211C853.21 242.745 851.909 241.669 850.443 241.807C848.976 241.945 847.9 243.246 848.038 244.712ZM1078.39 117.95L1084.47 120.876L1084.91 119.974L1078.82 117.049L1078.39 117.95ZM1084 143.626L850.496 244.002L850.891 244.921L1084.39 144.544L1084 143.626ZM1084.47 120.876C1094.14 125.523 1093.85 139.389 1084 143.626L1084.39 144.544C1095.03 139.969 1095.35 124.993 1084.91 119.974L1084.47 120.876Z" fill="white"/>
<path d="M855.448 323.212C855.587 324.678 856.888 325.754 858.354 325.616C859.82 325.477 860.897 324.177 860.758 322.71C860.62 321.244 859.319 320.168 857.853 320.306C856.386 320.445 855.31 321.745 855.448 323.212ZM1085.8 196.45L1091.88 199.375L1092.32 198.474L1086.23 195.548L1085.8 196.45ZM1091.41 222.125L857.906 322.502L858.301 323.42L1091.8 223.043L1091.41 222.125ZM1091.88 199.375C1101.55 204.022 1101.26 217.888 1091.41 222.125L1091.8 223.043C1102.44 218.468 1102.76 203.493 1092.32 198.474L1091.88 199.375Z" fill="white"/>
<path d="M435.388 477.984C435.526 479.45 436.827 480.526 438.293 480.388C439.76 480.25 440.836 478.949 440.698 477.483C440.559 476.016 439.258 474.94 437.792 475.078C436.326 475.217 435.25 476.518 435.388 477.984ZM1089.54 169.808L1089.32 170.259L1089.54 169.808ZM1089.11 193.439L1089.31 193.897L1089.11 193.439ZM1083.04 167.241L1089.32 170.259L1089.76 169.358L1083.48 166.339L1083.04 167.241ZM1088.91 192.981L437.843 477.275L438.243 478.191L1089.31 193.897L1088.91 192.981ZM1089.32 170.259C1098.96 174.892 1098.71 188.701 1088.91 192.981L1089.31 193.897C1099.89 189.275 1100.16 174.361 1089.76 169.358L1089.32 170.259Z" fill="white"/>
<path d="M624.517 369.418C624.655 370.884 625.956 371.961 627.423 371.822C628.889 371.684 629.965 370.383 629.827 368.917C629.688 367.45 628.388 366.374 626.921 366.512C625.455 366.651 624.379 367.952 624.517 369.418ZM1087.25 146.926L1087.04 147.377L1087.25 146.926ZM1086.78 170.577L1086.58 170.118L1086.78 170.577ZM1080.89 144.421L1087.04 147.377L1087.47 146.475L1081.32 143.52L1080.89 144.421ZM1086.58 170.118L626.974 368.708L627.37 369.626L1086.98 171.035L1086.58 170.118ZM1087.04 147.377C1096.7 152.019 1096.42 165.867 1086.58 170.118L1086.98 171.035C1097.6 166.445 1097.9 151.489 1087.47 146.475L1087.04 147.377Z" fill="white"/>
<g filter="url(#filter2_f_1505_8787)">
<path d="M848.038 244.712C848.177 246.179 849.478 247.255 850.944 247.117C852.41 246.978 853.486 245.677 853.348 244.211C853.21 242.745 851.909 241.669 850.443 241.807C848.976 241.945 847.9 243.246 848.038 244.712ZM1078.39 117.95L1084.47 120.876L1084.91 119.974L1078.82 117.049L1078.39 117.95ZM1084 143.626L850.496 244.002L850.891 244.921L1084.39 144.544L1084 143.626ZM1084.47 120.876C1094.14 125.523 1093.85 139.389 1084 143.626L1084.39 144.544C1095.03 139.969 1095.35 124.993 1084.91 119.974L1084.47 120.876Z" fill="white"/>
<path d="M855.448 323.212C855.587 324.678 856.888 325.754 858.354 325.616C859.82 325.477 860.897 324.177 860.758 322.71C860.62 321.244 859.319 320.168 857.853 320.306C856.386 320.445 855.31 321.745 855.448 323.212ZM1085.8 196.45L1091.88 199.375L1092.32 198.474L1086.23 195.548L1085.8 196.45ZM1091.41 222.125L857.906 322.502L858.301 323.42L1091.8 223.043L1091.41 222.125ZM1091.88 199.375C1101.55 204.022 1101.26 217.888 1091.41 222.125L1091.8 223.043C1102.44 218.468 1102.76 203.493 1092.32 198.474L1091.88 199.375Z" fill="white"/>
<path d="M435.388 477.984C435.526 479.45 436.827 480.526 438.293 480.388C439.76 480.25 440.836 478.949 440.698 477.483C440.559 476.016 439.258 474.94 437.792 475.078C436.326 475.217 435.25 476.518 435.388 477.984ZM1089.54 169.808L1089.32 170.259L1089.54 169.808ZM1089.11 193.439L1089.31 193.897L1089.11 193.439ZM1083.04 167.241L1089.32 170.259L1089.76 169.358L1083.48 166.339L1083.04 167.241ZM1088.91 192.981L437.843 477.275L438.243 478.191L1089.31 193.897L1088.91 192.981ZM1089.32 170.259C1098.96 174.892 1098.71 188.701 1088.91 192.981L1089.31 193.897C1099.89 189.275 1100.16 174.361 1089.76 169.358L1089.32 170.259Z" fill="white"/>
<path d="M624.517 369.418C624.655 370.884 625.956 371.961 627.423 371.822C628.889 371.684 629.965 370.383 629.827 368.917C629.688 367.45 628.388 366.374 626.921 366.512C625.455 366.651 624.379 367.952 624.517 369.418ZM1087.25 146.926L1087.04 147.377L1087.25 146.926ZM1086.78 170.577L1086.58 170.118L1086.78 170.577ZM1080.89 144.421L1087.04 147.377L1087.47 146.475L1081.32 143.52L1080.89 144.421ZM1086.58 170.118L626.974 368.708L627.37 369.626L1086.98 171.035L1086.58 170.118ZM1087.04 147.377C1096.7 152.019 1096.42 165.867 1086.58 170.118L1086.98 171.035C1097.6 166.445 1097.9 151.489 1087.47 146.475L1087.04 147.377Z" fill="white"/>
</g>
<path d="M983.473 80.4351L1073.82 115.649" stroke="white"/>
<path d="M986.059 107.819L1058.12 134.629" stroke="white"/>
<path d="M988.643 135.202L1026.75 148.641" stroke="white"/>
<path d="M983.473 80.4351L1073.82 115.649" stroke="white"/>
<path d="M986.059 107.819L1058.12 134.629" stroke="white"/>
<path d="M988.643 135.202L1026.75 148.641" stroke="white"/>
<g filter="url(#filter3_f_1505_8787)">
<path d="M983.473 80.4351L1073.82 115.649" stroke="white"/>
<path d="M986.059 107.819L1058.12 134.629" stroke="white"/>
<path d="M988.643 135.202L1026.75 148.641" stroke="white"/>
</g>
<path d="M286.109 492.626C285.957 491.161 284.647 490.096 283.182 490.247C281.717 490.399 280.652 491.709 280.804 493.174C280.955 494.639 282.265 495.704 283.73 495.553C285.195 495.401 286.26 494.091 286.109 492.626ZM54.2048 595.027L283.659 493.357L283.254 492.443L53.7997 594.113L54.2048 595.027Z" fill="white"/>
<path d="M419.311 459.678C419.16 458.213 417.85 457.148 416.385 457.299C414.92 457.451 413.855 458.761 414.006 460.226C414.157 461.691 415.467 462.756 416.932 462.604C418.397 462.453 419.462 461.143 419.311 459.678ZM77.9703 611.662L416.862 460.408L416.455 459.495L77.5627 610.748L77.9703 611.662Z" fill="white"/>
<g filter="url(#filter4_f_1505_8787)">
<path d="M286.109 492.626C285.957 491.161 284.647 490.096 283.182 490.247C281.717 490.399 280.652 491.709 280.804 493.174C280.955 494.639 282.265 495.704 283.73 495.553C285.195 495.401 286.26 494.091 286.109 492.626ZM54.2048 595.027L283.659 493.357L283.254 492.443L53.7997 594.113L54.2048 595.027Z" fill="white"/>
<path d="M419.311 459.678C419.16 458.213 417.85 457.148 416.385 457.299C414.92 457.451 413.855 458.761 414.006 460.226C414.157 461.691 415.467 462.756 416.932 462.604C418.397 462.453 419.462 461.143 419.311 459.678ZM77.9703 611.662L416.862 460.408L416.455 459.495L77.5627 610.748L77.9703 611.662Z" fill="white"/>
</g>
<path d="M354.068 530.415C353.916 528.95 352.606 527.885 351.141 528.036C349.676 528.187 348.611 529.497 348.763 530.962C348.914 532.427 350.224 533.492 351.689 533.341C353.154 533.19 354.219 531.88 354.068 530.415ZM122.164 632.815L351.618 531.146L351.213 530.231L121.759 631.901L122.164 632.815Z" fill="white"/>
<path d="M487.27 497.466C487.119 496.001 485.809 494.936 484.344 495.088C482.879 495.239 481.814 496.549 481.965 498.014C482.116 499.479 483.426 500.544 484.891 500.393C486.356 500.242 487.421 498.931 487.27 497.466ZM145.929 649.45L484.821 498.197L484.414 497.284L145.522 648.537L145.929 649.45Z" fill="white"/>
<g filter="url(#filter5_f_1505_8787)">
<path d="M354.068 530.415C353.916 528.95 352.606 527.885 351.141 528.036C349.676 528.187 348.611 529.497 348.763 530.962C348.914 532.427 350.224 533.492 351.689 533.341C353.154 533.19 354.219 531.88 354.068 530.415ZM122.164 632.815L351.618 531.146L351.213 530.231L121.759 631.901L122.164 632.815Z" fill="white"/>
<path d="M487.27 497.466C487.119 496.001 485.809 494.936 484.344 495.088C482.879 495.239 481.814 496.549 481.965 498.014C482.116 499.479 483.426 500.544 484.891 500.393C486.356 500.242 487.421 498.931 487.27 497.466ZM145.929 649.45L484.821 498.197L484.414 497.284L145.522 648.537L145.929 649.45Z" fill="white"/>
</g>
<defs>
<filter id="filter0_b_1505_8787" x="5.51758" y="38.6946" width="1127.39" height="720.698" filterUnits="userSpaceOnUse" color-interpolation-filters="sRGB">
<feFlood flood-opacity="0" result="BackgroundImageFix"/>
<feGaussianBlur in="BackgroundImageFix" stdDeviation="2"/>
<feComposite in2="SourceAlpha" operator="in" result="effect1_backgroundBlur_1505_8787"/>
<feBlend mode="normal" in="SourceGraphic" in2="effect1_backgroundBlur_1505_8787" result="shape"/>
</filter>
<filter id="filter1_f_1505_8787" x="-41.2824" y="-8.10542" width="1220.99" height="814.298" filterUnits="userSpaceOnUse" color-interpolation-filters="sRGB">
<feFlood flood-opacity="0" result="BackgroundImageFix"/>
<feBlend mode="normal" in="SourceGraphic" in2="BackgroundImageFix" result="shape"/>
<feGaussianBlur stdDeviation="25.4" result="effect1_foregroundBlur_1505_8787"/>
</filter>
<filter id="filter2_f_1505_8787" x="431.377" y="113.049" width="672.594" height="371.351" filterUnits="userSpaceOnUse" color-interpolation-filters="sRGB">
<feFlood flood-opacity="0" result="BackgroundImageFix"/>
<feBlend mode="normal" in="SourceGraphic" in2="BackgroundImageFix" result="shape"/>
<feGaussianBlur stdDeviation="2" result="effect1_foregroundBlur_1505_8787"/>
</filter>
<filter id="filter3_f_1505_8787" x="979.291" y="75.9692" width="98.7148" height="77.1438" filterUnits="userSpaceOnUse" color-interpolation-filters="sRGB">
<feFlood flood-opacity="0" result="BackgroundImageFix"/>
<feBlend mode="normal" in="SourceGraphic" in2="BackgroundImageFix" result="shape"/>
<feGaussianBlur stdDeviation="2" result="effect1_foregroundBlur_1505_8787"/>
</filter>
<filter id="filter4_f_1505_8787" x="49.7988" y="453.285" width="373.527" height="162.377" filterUnits="userSpaceOnUse" color-interpolation-filters="sRGB">
<feFlood flood-opacity="0" result="BackgroundImageFix"/>
<feBlend mode="normal" in="SourceGraphic" in2="BackgroundImageFix" result="shape"/>
<feGaussianBlur stdDeviation="2" result="effect1_foregroundBlur_1505_8787"/>
</filter>
<filter id="filter5_f_1505_8787" x="117.758" y="491.073" width="373.527" height="162.377" filterUnits="userSpaceOnUse" color-interpolation-filters="sRGB">
<feFlood flood-opacity="0" result="BackgroundImageFix"/>
<feBlend mode="normal" in="SourceGraphic" in2="BackgroundImageFix" result="shape"/>
<feGaussianBlur stdDeviation="2" result="effect1_foregroundBlur_1505_8787"/>
</filter>
<linearGradient id="paint0_linear_1505_8787" x1="42.4236" y1="655.702" x2="1129.61" y2="246.484" gradientUnits="userSpaceOnUse">
<stop stop-color="#344AC5"/>
<stop offset="1" stop-color="#00FFF3"/>
</linearGradient>
<linearGradient id="paint1_linear_1505_8787" x1="961.563" y1="296.7" x2="1039.92" y2="231.532" gradientUnits="userSpaceOnUse">
<stop stop-color="#344AC5"/>
<stop offset="1" stop-color="#27E1E4"/>
</linearGradient>
<linearGradient id="paint2_linear_1505_8787" x1="84.1854" y1="639.125" x2="159.562" y2="576.43" gradientUnits="userSpaceOnUse">
<stop stop-color="#344AC5"/>
<stop offset="1" stop-color="#27E1E4"/>
</linearGradient>
<linearGradient id="paint3_linear_1505_8787" x1="42.4236" y1="655.702" x2="1129.61" y2="246.484" gradientUnits="userSpaceOnUse">
<stop stop-color="#344AC5"/>
<stop offset="1" stop-color="#00FFF3"/>
</linearGradient>
<linearGradient id="paint4_linear_1505_8787" x1="961.563" y1="296.7" x2="1039.92" y2="231.532" gradientUnits="userSpaceOnUse">
<stop stop-color="#344AC5"/>
<stop offset="1" stop-color="#27E1E4"/>
</linearGradient>
<linearGradient id="paint5_linear_1505_8787" x1="84.1854" y1="639.125" x2="159.562" y2="576.43" gradientUnits="userSpaceOnUse">
<stop stop-color="#344AC5"/>
<stop offset="1" stop-color="#27E1E4"/>
</linearGradient>
<clipPath id="clip0_1505_8787">
<rect width="1066.29" height="615.2" fill="white" transform="translate(9.51758 142.916) rotate(-5.39323)"/>
</clipPath>
<clipPath id="clip1_1505_8787">
<rect width="1066.29" height="615.2" fill="white" transform="translate(9.51758 142.916) rotate(-5.39323)"/>
</clipPath>
</defs>
</svg>
